<svg xmlns="http://www.w3.org/2000/svg"  width="32" height="64" version="1">
 <defs id="nova">
  <style id="current-color-scheme" type="text/css">
   .ColorScheme-Background {color:#181818; } .ColorScheme-ButtonBackground { color:#343434; } .ColorScheme-Highlight { color:#4285f4; } .ColorScheme-Text { color:#dfdfdf; } .ColorScheme-ViewBackground { color:#242424; } .ColorScheme-NegativeText { color:#f44336; } .ColorScheme-PositiveText { color:#4caf50; } .ColorScheme-NeutralText { color:#ff9800; }
  </style>
 </defs>
 <g id="radiobutton" transform="translate(0,8)">
  <rect style="opacity:0.001"  width="32" height="32" x="0" y="-8"/>
  <path style="fill:currentColor"  class="ColorScheme-Highlight"  transform="translate(0,-8)" d="M 16,3 C 8.839535,3 3.000008,8.839535 3,16 c 8e-6,7.160465 5.839535,13 13,13 7.160449,0 13,-5.839551 13,-13 C 29,8.839551 23.160449,3 16,3 Z"/>
  <path style="fill:currentColor"  class="ColorScheme-Background"  transform="translate(0,-8)" d="m 16,11 a 5,5 0 0 1 5,5 5,5 0 0 1 -5,5 5,5 0 0 1 -5,-5 5,5 0 0 1 5,-5 z"/>
 </g>
 <g id="checkbox" transform="translate(0,40)">
  <rect style="opacity:0.001"  width="32" height="32" x="0" y="-8"/>
  <path style="fill:currentColor"  class="ColorScheme-Highlight"  transform="translate(0,-40)" d="M 16,35 A 13,13 0 0 0 3,48 13,13 0 0 0 16,61 13,13 0 0 0 29,48 13,13 0 0 0 16,35 Z"/>
  <path style="fill:currentColor"  class="ColorScheme-Background"  transform="translate(0,-40)" d="m 21.720703,41.003906 c 1.56542,-0.09093 3.142579,1.556171 1.730469,3.246094 L 14.466797,55 8.6796875,50.083984 c -1.807539,-1.534882 0.3183121,-5.167453 2.5253905,-3.58789 l 3.117188,2.228515 5.947265,-6.986328 c 0.40801,-0.479471 0.929372,-0.704067 1.451172,-0.734375 z"/>
 </g>
</svg>
