<svg xmlns="http://www.w3.org/2000/svg" xmlns:xlink="http://www.w3.org/1999/xlink"  width="214" height="214" version="1">
 <defs id="nova">
  <linearGradient id="linearGradient884">
   <stop style="stop-color:#000000;stop-opacity:1"  offset="0"/>
   <stop style="stop-color:#000000;stop-opacity:1"  offset=".9"/>
   <stop style="stop-color:#000000;stop-opacity:0"  offset="1"/>
  </linearGradient>
  <radialGradient id="radialGradient886" cx="107" cy="107" r="100" fx="107" fy="107" gradientTransform="matrix(0.98510551,0,0,1.0455613,1.5937105,-4.8750586)" gradientUnits="userSpaceOnUse" xlink:href="#linearGradient884"/>
  <style id="current-color-scheme" type="text/css">
   .ColorScheme-Background {color:#181818; } .ColorScheme-ButtonBackground { color:#343434; } .ColorScheme-Highlight { color:#4285f4; } .ColorScheme-Text { color:#dfdfdf; } .ColorScheme-ViewBackground { color:#242424; } .ColorScheme-NegativeText { color:#f44336; } .ColorScheme-PositiveText { color:#4caf50; } .ColorScheme-NeutralText { color:#ff9800; }
  </style>
 </defs>
 <g id="ClockFace">
  <path style="opacity:0.001"  d="M 0,4.419138e-6 H 214 V 214 H 0 Z"/>
  <path style="opacity:0.1;fill:url(#radialGradient886)"  d="M 107,12 C 51.771525,12 7,51.771525 7,107 7,162.22847 51.771525,214 107,214 162.22847,214 207,162.22847 207,107 207,51.771525 162.22847,12 107,12 Z m 0,-0.5 c 52.74319,0 95.5,42.756806 95.5,95.5 0,52.74319 -42.75681,95.5 -95.5,95.5 -52.743194,0 -95.5,-42.75681 -95.5,-95.5 0,-52.743194 42.756806,-95.5 95.5,-95.5 z"/>
  <circle style="fill:currentColor"  class="ColorScheme-Background" cx="107" cy="107" r="96"/>
  <path style="fill:currentColor"  class="ColorScheme-Text" d="M 112.37891 26.25 C 111.73826 26.25 111.12004 26.34067 110.53906 26.541016 C 110.53906 26.541016 110.53711 26.542969 110.53711 26.542969 C 109.95483 26.737421 109.4312 27.035802 108.98438 27.419922 C 108.53683 27.804638 108.16541 28.276162 107.88086 28.822266 C 107.59178 29.377009 107.40786 29.996557 107.3125 30.664062 A 0.750075 0.750075 0 0 0 107.9375 31.509766 L 108.41797 31.585938 A 0.750075 0.750075 0 0 0 108.46094 31.591797 C 108.69123 31.614857 108.96549 31.593297 109.22852 31.431641 C 109.52641 31.251069 109.66804 30.977704 109.74414 30.738281 A 0.750075 0.750075 0 0 0 109.76562 30.646484 C 109.82353 30.330903 109.92687 30.05085 110.06836 29.796875 C 110.21713 29.535205 110.39556 29.321571 110.60938 29.142578 A 0.750075 0.750075 0 0 0 110.60938 29.140625 C 110.83405 28.951702 111.07853 28.810685 111.36328 28.708984 A 0.750075 0.750075 0 0 0 111.36914 28.707031 C 111.64886 28.603983 111.9656 28.550781 112.33398 28.550781 C 112.66717 28.550781 112.97754 28.596001 113.27344 28.689453 C 113.55734 28.779103 113.78712 28.907799 113.99414 29.085938 C 114.18953 29.25406 114.35402 29.470912 114.48438 29.761719 A 0.750075 0.750075 0 0 0 114.48633 29.765625 C 114.60313 30.021725 114.67578 30.361914 114.67578 30.791016 C 114.67578 31.169233 114.61928 31.511726 114.50977 31.830078 C 114.39423 32.165599 114.22857 32.497033 114.00781 32.833984 A 0.750075 0.750075 0 0 0 114.00195 32.841797 C 113.78243 33.185902 113.51811 33.531234 113.20703 33.878906 C 112.87999 34.244422 112.52567 34.624113 112.13867 35.017578 L 107.37109 39.839844 L 107.40625 39.806641 C 107.2502 39.945402 107.15545 40.101345 107.08984 40.232422 A 0.750075 0.750075 0 0 0 107.07617 40.257812 C 107.01037 40.402493 106.95898 40.587288 106.95898 40.78125 L 106.95898 41.117188 A 0.750075 0.750075 0 0 0 107.70898 41.867188 L 116.7168 41.867188 A 0.750075 0.750075 0 0 0 117.4668 41.117188 L 117.4668 40.566406 C 117.4668 40.336459 117.36636 40.03222 117.16797 39.822266 C 116.96287 39.605225 116.64856 39.480469 116.38281 39.480469 L 110.94922 39.480469 L 113.91406 36.457031 L 113.91602 36.455078 C 114.319 36.04546 114.71049 35.64239 115.07812 35.248047 L 115.07812 35.246094 C 115.472 34.823963 115.81913 34.387499 116.11914 33.9375 C 116.42836 33.473658 116.66978 32.98879 116.84766 32.486328 L 116.84766 32.482422 C 117.04192 31.944959 117.14258 31.365959 117.14258 30.759766 C 117.14258 30.042749 117.01605 29.381462 116.74609 28.798828 L 116.74414 28.796875 C 116.48671 28.236251 116.12289 27.744016 115.6582 27.359375 C 115.21116 26.977874 114.69183 26.7004 114.125 26.523438 C 113.5701 26.341883 112.9848 26.25 112.37891 26.25 z M 101.17578 26.345703 A 0.750075 0.750075 0 0 0 100.67969 26.533203 L 96.642578 30.095703 A 0.750075 0.750075 0 0 0 96.533203 31.099609 L 96.818359 31.494141 A 0.750075 0.750075 0 0 0 96.865234 31.550781 C 97.027624 31.733454 97.260797 31.858294 97.484375 31.90625 C 97.841688 31.98295 98.201074 31.83012 98.410156 31.650391 A 0.750075 0.750075 0 0 0 98.417969 31.642578 L 100.21875 30.046875 L 100.21875 39.636719 L 97.759766 39.636719 A 0.750075 0.750075 0 0 0 97.009766 40.386719 L 97.009766 41.117188 A 0.750075 0.750075 0 0 0 97.759766 41.867188 L 104.9668 41.867188 A 0.750075 0.750075 0 0 0 105.7168 41.117188 L 105.7168 40.386719 A 0.750075 0.750075 0 0 0 104.9668 39.636719 L 102.66602 39.636719 L 102.66602 27.095703 A 0.750075 0.750075 0 0 0 101.91602 26.345703 L 101.17578 26.345703 z M 70.384766 40.367188 C 68.619967 40.367188 67.173828 41.815279 67.173828 43.580078 C 67.173828 45.344877 68.619967 46.791016 70.384766 46.791016 C 72.149564 46.791015 73.595703 45.344876 73.595703 43.580078 C 73.595703 41.81528 72.149564 40.367188 70.384766 40.367188 z M 143.61523 40.367188 C 141.85043 40.367187 140.4043 41.815279 140.4043 43.580078 C 140.4043 45.344877 141.85044 46.791017 143.61523 46.791016 C 145.38003 46.791017 146.82617 45.344877 146.82617 43.580078 C 146.82617 41.815279 145.38003 40.367186 143.61523 40.367188 z M 43.580078 67.173828 C 41.81528 67.173828 40.367188 68.619968 40.367188 70.384766 C 40.367188 72.149564 41.81528 73.595703 43.580078 73.595703 C 45.344877 73.595703 46.791016 72.149565 46.791016 70.384766 C 46.791015 68.619967 45.344877 67.173828 43.580078 67.173828 z M 170.41992 67.173828 C 168.65512 67.173827 167.20898 68.619967 167.20898 70.384766 C 167.20898 72.149565 168.65512 73.595704 170.41992 73.595703 C 172.18472 73.595704 173.63281 72.149565 173.63281 70.384766 C 173.63281 68.619967 172.18472 67.173827 170.41992 67.173828 z M 34.107422 99.191406 C 33.380002 99.191406 32.685804 99.316026 32.044922 99.570312 C 31.424499 99.812778 30.869752 100.15555 30.402344 100.59961 C 29.932086 101.04636 29.568316 101.58192 29.308594 102.17773 C 29.04227 102.78155 28.908203 103.44064 28.908203 104.13281 C 28.908203 104.8172 29.018187 105.4664 29.255859 106.06055 A 0.750075 0.750075 0 0 0 29.257812 106.0625 C 29.489725 106.63455 29.821909 107.14827 30.253906 107.57227 C 30.681202 107.99162 31.188686 108.31766 31.755859 108.54297 A 0.750075 0.750075 0 0 0 31.767578 108.54688 C 32.34806 108.76651 32.974249 108.87109 33.625 108.87109 C 33.942947 108.87109 34.230643 108.74308 34.537109 108.68945 L 31.001953 113.62109 A 0.750075 0.750075 0 0 0 31.611328 114.80859 L 32.466797 114.80859 C 32.851854 114.80859 33.333188 114.62597 33.582031 114.24414 L 37.230469 108.88867 C 37.505218 108.4866 37.753962 108.10735 37.972656 107.75195 A 0.750075 0.750075 0 0 0 37.976562 107.74609 C 38.199846 107.37629 38.388785 107.01428 38.546875 106.65625 C 38.717178 106.28602 38.84836 105.9102 38.933594 105.52344 C 39.026584 105.13155 39.066406 104.7284 39.066406 104.32031 C 39.066406 103.58707 38.951354 102.90004 38.703125 102.26953 C 38.466525 101.64567 38.12089 101.0906 37.671875 100.63281 C 37.229411 100.16815 36.692014 99.808785 36.083984 99.5625 C 35.474107 99.312858 34.808782 99.191406 34.107422 99.191406 z M 180.11719 99.191406 C 179.47836 99.191406 178.86648 99.287776 178.29297 99.486328 C 177.7226 99.677347 177.20573 99.965975 176.76172 100.34766 C 176.31666 100.73025 175.94743 101.20024 175.66602 101.74023 C 175.38108 102.28695 175.19633 102.89906 175.10156 103.5625 A 0.750075 0.750075 0 0 0 175.72461 104.4082 L 176.20312 104.48633 A 0.750075 0.750075 0 0 0 176.24805 104.49219 C 176.48395 104.51559 176.76066 104.49819 177.02734 104.32812 C 177.33039 104.13554 177.44844 103.85263 177.51367 103.61328 A 0.750075 0.750075 0 0 0 177.5293 103.55078 C 177.5863 103.24012 177.68846 102.96238 177.83203 102.71484 A 0.750075 0.750075 0 0 0 177.83398 102.70898 C 177.98007 102.45208 178.15188 102.24892 178.36523 102.07031 A 0.750075 0.750075 0 0 0 178.36719 102.06836 C 178.58491 101.88528 178.82659 101.74581 179.11523 101.64453 A 0.750075 0.750075 0 0 0 179.12695 101.64062 C 179.40863 101.53684 179.72672 101.48047 180.08203 101.48047 C 180.40898 101.48047 180.71107 101.52647 181.00391 101.61523 C 181.27476 101.69743 181.49568 101.81827 181.68945 101.98438 C 181.8743 102.14283 182.02295 102.34152 182.14648 102.61328 C 182.25522 102.85248 182.32227 103.16662 182.32227 103.57227 C 182.32227 103.90377 182.26507 104.17623 182.1543 104.42578 C 182.04318 104.67582 181.89029 104.87964 181.66992 105.0625 C 181.45265 105.2428 181.15743 105.40085 180.77344 105.52734 C 180.77344 105.52734 180.77148 105.5293 180.77148 105.5293 C 180.40209 105.64455 179.94673 105.71481 179.40625 105.72656 A 0.750075 0.750075 0 0 0 178.67383 106.47656 L 178.67383 107.15234 A 0.750075 0.750075 0 0 0 179.42383 107.90234 C 180.11868 107.90234 180.67876 107.97764 181.08789 108.10352 A 0.750075 0.750075 0 0 0 181.09766 108.10742 C 181.53561 108.23493 181.85047 108.40261 182.06055 108.58203 A 0.750075 0.750075 0 0 0 182.06836 108.58789 C 182.28707 108.77016 182.42054 108.9623 182.50586 109.20117 A 0.750075 0.750075 0 0 0 182.50977 109.21289 C 182.61443 109.492 182.66797 109.78516 182.66797 110.125 C 182.66797 110.36762 182.61677 110.63716 182.49609 110.94141 A 0.750075 0.750075 0 0 0 182.49219 110.94922 C 182.38641 111.22327 182.22984 111.47016 181.99609 111.70898 A 0.750075 0.750075 0 0 0 181.99414 111.70898 C 181.7777 111.93025 181.49495 112.12391 181.125 112.28711 A 0.750075 0.750075 0 0 0 181.12109 112.28906 C 180.7988 112.4334 180.39212 112.51953 179.89258 112.51953 C 179.46881 112.51953 179.13038 112.47023 178.87109 112.38867 C 178.57851 112.29657 178.34614 112.18335 178.16797 112.06055 C 178.16697 112.05986 178.16506 112.05959 178.16406 112.05859 C 177.97599 111.92387 177.82394 111.77808 177.70312 111.63086 C 177.56811 111.45131 177.46088 111.28202 177.38086 111.12695 C 177.28456 110.94046 177.21488 110.78983 177.17383 110.67578 C 177.12983 110.53082 177.09793 110.4128 177.04297 110.2793 C 176.92061 109.97254 176.5848 109.65712 176.2168 109.59375 C 175.96263 109.54955 175.69021 109.58775 175.4668 109.68555 L 175.11328 109.83008 A 0.750075 0.750075 0 0 0 174.67773 110.72656 C 174.80394 111.17541 174.96367 111.63195 175.16797 112.08984 A 0.750075 0.750075 0 0 0 175.16992 112.09375 C 175.3963 112.59335 175.71439 113.05032 176.11328 113.44922 C 176.53422 113.87013 177.05544 114.19482 177.64844 114.43945 A 0.750075 0.750075 0 0 0 177.66016 114.44336 C 178.30411 114.69776 179.04903 114.80859 179.90234 114.80859 C 180.61109 114.80859 181.28788 114.69768 181.91602 114.4707 A 0.750075 0.750075 0 0 0 181.92383 114.4668 C 182.5395 114.23686 183.09191 113.9166 183.5625 113.5 C 184.03351 113.08305 184.41006 112.57785 184.67969 112.00781 A 0.750075 0.750075 0 0 0 184.68164 112.00391 C 184.95737 111.41304 185.0918 110.7697 185.0918 110.10547 C 185.0918 109.07225 184.7735 108.12341 184.13086 107.39062 C 183.85156 107.06943 183.49523 106.82619 183.11719 106.60742 C 183.33806 106.44256 183.57674 106.29618 183.75781 106.0918 L 183.75977 106.08789 C 184.06928 105.74496 184.3081 105.34726 184.47461 104.91211 C 184.65378 104.45457 184.74219 103.95485 184.74219 103.42578 C 184.74219 102.76348 184.61907 102.14339 184.35742 101.59375 C 184.11183 101.06494 183.75986 100.60648 183.31836 100.24414 C 183.31836 100.24414 183.31641 100.24414 183.31641 100.24414 C 182.887 99.886612 182.38574 99.620705 181.83203 99.451172 C 181.83203 99.451172 181.83008 99.449219 181.83008 99.449219 C 181.28555 99.276184 180.71145 99.191434 180.11719 99.191406 z M 34.097656 101.47266 C 34.492906 101.47266 34.821018 101.53816 35.121094 101.66602 A 0.750075 0.750075 0 0 0 35.134766 101.67188 C 35.4523 101.7999 35.714817 101.97549 35.9375 102.20312 A 0.750075 0.750075 0 0 0 35.943359 102.20898 C 36.161393 102.42703 36.333765 102.69176 36.464844 103.02734 C 36.592426 103.35396 36.660156 103.72219 36.660156 104.14648 C 36.660156 104.43959 36.603996 104.72667 36.478516 105.03516 C 36.358188 105.32452 36.187301 105.58092 35.947266 105.82617 A 0.750075 0.750075 0 0 0 35.941406 105.83203 C 35.717024 106.06639 35.438326 106.26374 35.082031 106.41797 C 34.750664 106.56138 34.352882 106.63867 33.876953 106.63867 C 33.462651 106.63867 33.10588 106.57427 32.789062 106.45703 L 32.787109 106.45703 C 32.478447 106.34006 32.236323 106.18502 32.025391 105.98047 C 31.820432 105.76913 31.654293 105.51355 31.53125 105.19727 C 31.417423 104.88196 31.355469 104.51099 31.355469 104.07227 C 31.355469 103.66144 31.421089 103.31624 31.548828 103.01172 A 0.750075 0.750075 0 0 0 31.550781 103.00781 C 31.684379 102.68412 31.861384 102.42733 32.091797 102.20117 C 32.329011 101.9748 32.604039 101.79578 32.941406 101.66602 C 33.268453 101.54022 33.653458 101.47266 34.097656 101.47266 z M 43.580078 140.4043 C 41.815284 140.4043 40.367194 141.85044 40.367188 143.61523 C 40.367187 145.38003 41.815279 146.82617 43.580078 146.82617 C 45.344878 146.82617 46.791017 145.38003 46.791016 143.61523 C 46.79101 141.85044 45.344873 140.4043 43.580078 140.4043 z M 170.41992 140.4043 C 168.65513 140.4043 167.20899 141.85044 167.20898 143.61523 C 167.20898 145.38003 168.65512 146.82617 170.41992 146.82617 C 172.18472 146.82617 173.63281 145.38003 173.63281 143.61523 C 173.63281 141.85044 172.18472 140.4043 170.41992 140.4043 z M 70.384766 167.20898 C 68.619966 167.20898 67.173827 168.65512 67.173828 170.41992 C 67.173827 172.18472 68.619966 173.63281 70.384766 173.63281 C 72.149565 173.63281 73.595704 172.18472 73.595703 170.41992 C 73.595704 168.65512 72.149565 167.20898 70.384766 167.20898 z M 143.61523 167.20898 C 141.85043 167.20898 140.4043 168.65512 140.4043 170.41992 C 140.4043 172.18472 141.85043 173.63281 143.61523 173.63281 C 145.38003 173.63281 146.82617 172.18472 146.82617 170.41992 C 146.82617 168.65512 145.38003 167.20898 143.61523 167.20898 z M 108.52344 172.13281 C 108.13302 172.13281 107.67404 172.31016 107.41406 172.66211 L 103.61133 177.79297 A 0.750075 0.750075 0 0 0 103.61133 177.79492 C 102.95473 178.68407 102.46313 179.50231 102.15234 180.2793 C 101.85034 181.02764 101.68555 181.7333 101.68555 182.4043 C 101.68555 183.1958 101.80428 183.92852 102.04883 184.59375 A 0.750075 0.750075 0 0 0 102.04883 184.5957 C 102.29063 185.24552 102.64034 185.82177 103.09961 186.29688 A 0.750075 0.750075 0 0 0 103.10547 186.30273 C 103.56954 186.77466 104.12863 187.13531 104.75781 187.38086 C 105.39057 187.6278 106.0813 187.75 106.81445 187.75 C 107.57301 187.75 108.2909 187.62562 108.94922 187.37305 C 109.59362 187.12579 110.16936 186.77444 110.64844 186.3125 C 111.13065 185.85361 111.50669 185.30075 111.76758 184.68164 C 112.04091 184.04905 112.17383 183.35999 112.17383 182.63867 C 112.17383 181.92542 112.05091 181.25746 111.80078 180.65234 C 111.56267 180.05474 111.21683 179.52659 110.77148 179.0957 C 110.33506 178.6607 109.81004 178.3241 109.21875 178.09375 C 108.61779 177.8596 107.96582 177.74805 107.28516 177.74805 C 106.98627 177.74805 106.72688 177.86971 106.44141 177.91602 L 109.94727 173.33789 A 0.750075 0.750075 0 0 0 109.35156 172.13281 L 108.52344 172.13281 z M 107.0332 179.97266 C 107.46269 179.97266 107.83128 180.04346 108.16016 180.17188 A 0.750075 0.750075 0 0 0 108.16992 180.17578 C 108.50306 180.30071 108.77048 180.4697 108.99219 180.69141 A 0.750075 0.750075 0 0 0 109.00391 180.70312 C 109.2245 180.91433 109.39631 181.17947 109.52734 181.52539 A 0.750075 0.750075 0 0 0 109.53125 181.53906 C 109.66269 181.86762 109.73633 182.24736 109.73633 182.69922 C 109.73633 183.11913 109.66513 183.49089 109.53125 183.83203 C 109.39704 184.16756 109.21159 184.44581 108.96289 184.68945 C 108.72636 184.92104 108.43526 185.10728 108.06055 185.25391 C 107.70467 185.39315 107.29144 185.46875 106.80469 185.46875 C 106.35568 185.46875 105.97846 185.39525 105.65234 185.25977 C 105.31596 185.12005 105.05304 184.93606 104.83203 184.70117 C 104.60626 184.45455 104.42732 184.16286 104.29492 183.81055 C 104.16949 183.45902 104.10352 183.07225 104.10352 182.62891 C 104.10352 182.30916 104.16062 182.00301 104.29102 181.67969 C 104.41816 181.36442 104.60029 181.09112 104.84766 180.84375 A 0.750075 0.750075 0 0 0 104.85352 180.83789 C 105.0983 180.58802 105.39611 180.38111 105.76953 180.21875 A 0.750075 0.750075 0 0 0 105.77539 180.2168 C 106.12958 180.05994 106.54409 179.97266 107.0332 179.97266 z"/>
 </g>
 <g id="HourHand" transform="rotate(-126.87095,443.67967,571.71899)">
  <rect style="opacity:0.001"  width="18" height="64" x="33" y="91" transform="rotate(126.87095,409.42971,584.46862)"/>
  <path style="fill:currentColor"  class="ColorScheme-Highlight" d="m 988.68253,556.00642 -5.95481,-0.74154 2.52119,5.5089 0.0361,-0.0506 26.32139,19.78481 3.4218,-4.69848 -26.32118,-19.78478 z"/>
  <circle style="fill:currentColor"  class="ColorScheme-Highlight" cx="1771.396" cy="382.032" r="6.499" transform="translate(-753.93395,199.18469)"/>
 </g>
 <circle id="hint-hourhand-rotation-center-offset" style="fill:#ff0000" cx="107" cy="107" r="2"/>
 <g id="MinuteHand" transform="rotate(120.21865,698.53195,82.452482)">
  <rect style="opacity:0.001"  width="12" height="85" x="64" y="94" transform="rotate(-120.21865,682.04378,68.318515)"/>
  <path style="fill:currentColor"  class="ColorScheme-Highlight" transform="rotate(-30.2)" d="m 588.1651,1012.6153 58.32327,0.01 2.50004,1.5162 -2.50004,1.4838 -58.32327,-0.01 z"/>
  <circle style="fill:currentColor"  class="ColorScheme-Highlight" cx="1771.396" cy="382.032" r="6.499" transform="matrix(0.56475116,0,0,0.56475116,17.103729,365.50423)"/>
 </g>
 <circle id="hint-minutehand-rotation-center-offset" style="fill:#ff0000" cx="107" cy="107.029" r="2"/>
 <circle id="hint-secondhand-rotation-center-offset" style="fill:#ff0000" cx="107" cy="107" r="2"/>
 <g id="SecondHand" transform="translate(0.00201875,46.99977)">
  <rect style="opacity:0.001"  width="4.132" height="98" x="104.93" y="58"/>
  <path style="opacity:0.5;fill:currentColor"  class="ColorScheme-Highlight" d="m 106.958,58.000184 c -0.69754,0.0147 -1.3713,0.37065 -1.7461,0.99805 -0.57112,0.95602 -0.23368,2.17955 0.75391,2.73242 0.0391,0.0219 0.0793,0.0434 0.11914,0.0625 l -0.0527,94.205076 1.73242,0.002 0.0527,-94.164056 c 0.39466,-0.16406 0.73916,-0.44639 0.97071,-0.83399 0.57115,-0.95605 0.23368,-2.17955 -0.75391,-2.73242 -0.33949,-0.19005 -0.7108,-0.2772 -1.07617,-0.26953 z"/>
 </g>
</svg>
