<?xml version="1.0" encoding="UTF-8" standalone="no"?>
<svg
   xmlns:dc="http://purl.org/dc/elements/1.1/"
   xmlns:cc="http://creativecommons.org/ns#"
   xmlns:rdf="http://www.w3.org/1999/02/22-rdf-syntax-ns#"
   xmlns:svg="http://www.w3.org/2000/svg"
   xmlns="http://www.w3.org/2000/svg"
   xmlns:sodipodi="http://sodipodi.sourceforge.net/DTD/sodipodi-0.dtd"
   xmlns:inkscape="http://www.inkscape.org/namespaces/inkscape"
   width="24"
   height="24"
   version="1"
   id="svg4"
   sodipodi:docname="audio-card-symbolic.svg"
   inkscape:version="0.92.4 (5da689c313, 2019-01-14)">
  <metadata
     id="metadata10">
    <rdf:RDF>
      <cc:Work
         rdf:about="">
        <dc:format>image/svg+xml</dc:format>
        <dc:type
           rdf:resource="http://purl.org/dc/dcmitype/StillImage" />
        <dc:title></dc:title>
      </cc:Work>
    </rdf:RDF>
  </metadata>
  <defs
     id="defs8" />
  <sodipodi:namedview
     pagecolor="#ffffff"
     bordercolor="#666666"
     borderopacity="1"
     objecttolerance="10"
     gridtolerance="10"
     guidetolerance="10"
     inkscape:pageopacity="0"
     inkscape:pageshadow="2"
     inkscape:window-width="640"
     inkscape:window-height="480"
     id="namedview6"
     showgrid="false"
     inkscape:zoom="9.8333333"
     inkscape:cx="10.220339"
     inkscape:cy="12"
     inkscape:window-x="0"
     inkscape:window-y="25"
     inkscape:window-maximized="0"
     inkscape:current-layer="svg4" />
  <path
     d="m 15.33,2.129 a 0.35,0.35 0 0 0 -0.351,0.35 v 19.015 c 0,0.215 0.161,0.377 0.376,0.377 h 1.104 a 0.367,0.367 0 0 0 0.375,-0.377 v -3.443 l 0.11,0.03 h 2.744 a 0.471,0.471 0 0 0 0.457,-0.458 v -3.418 a 0.453,0.453 0 0 0 -0.457,-0.457 h -2.854 v -3.496 l 0.11,0.055 h 2.744 c 0.242,0 0.457,-0.216 0.457,-0.485 V 6.406 A 0.453,0.453 0 0 0 19.688,5.949 H 16.943 L 16.834,5.977 V 3.932 h 4.574 c 0.188,0 0.35,-0.162 0.35,-0.377 V 2.479 a 0.35,0.35 0 0 0 -0.35,-0.35 z M 13.178,4.834 C 10.902,5.197 8.285,5.57 6.016,5.954 5.416,6.242 5.548,6.991 5.521,7.534 v 7.259 c -1.544,-0.354 -3.239,0.8 -3.306,2.44 -0.11,1.02 0.805,1.909 1.8,1.933 1.782,0.042 3.136,-1.126 3.155,-2.605 -0.02,-2.485 0.005,-4.97 0,-7.456 0.276,-0.02 4.587,-0.808 4.963,-0.86 v 5.581 c -1.425,-0.42 -2.848,0.46 -3.2,1.93 -0.259,0.852 0.132,1.857 0.977,2.207 1.65,0.75 3.97,-0.77 3.877,-2.553 -0.026,-3.312 0.021,-6.627 0,-9.94 -0.044,-0.31 -0.255,-0.659 -0.61,-0.636 z"
     id="path2"
     inkscape:connector-curvature="0"
     style="fill:#808080" />
</svg>
