<?xml version="1.0" encoding="UTF-8" standalone="no"?>
<svg
   xmlns:dc="http://purl.org/dc/elements/1.1/"
   xmlns:cc="http://creativecommons.org/ns#"
   xmlns:rdf="http://www.w3.org/1999/02/22-rdf-syntax-ns#"
   xmlns:svg="http://www.w3.org/2000/svg"
   xmlns="http://www.w3.org/2000/svg"
   xmlns:sodipodi="http://sodipodi.sourceforge.net/DTD/sodipodi-0.dtd"
   xmlns:inkscape="http://www.inkscape.org/namespaces/inkscape"
   width="24"
   height="24"
   version="1.1"
   id="svg4"
   sodipodi:docname="audio-speakers-symbolic.svg"
   inkscape:version="0.92.4 (5da689c313, 2019-01-14)">
  <metadata
     id="metadata10">
    <rdf:RDF>
      <cc:Work
         rdf:about="">
        <dc:format>image/svg+xml</dc:format>
        <dc:type
           rdf:resource="http://purl.org/dc/dcmitype/StillImage" />
        <dc:title></dc:title>
      </cc:Work>
    </rdf:RDF>
  </metadata>
  <defs
     id="defs8" />
  <sodipodi:namedview
     pagecolor="#ffffff"
     bordercolor="#666666"
     borderopacity="1"
     objecttolerance="10"
     gridtolerance="10"
     guidetolerance="10"
     inkscape:pageopacity="0"
     inkscape:pageshadow="2"
     inkscape:window-width="640"
     inkscape:window-height="480"
     id="namedview6"
     showgrid="false"
     inkscape:zoom="9.8333333"
     inkscape:cx="10.220339"
     inkscape:cy="12"
     inkscape:window-x="0"
     inkscape:window-y="25"
     inkscape:window-maximized="0"
     inkscape:current-layer="svg4" />
  <path
     d="M 12.015,21.999989 A 10,10 0 0 1 2,12.030989 10,10 0 0 1 11.954,1.9999887 L 12,11.999989 Z m 3.566,-0.684 -0.305,-1.22 a 8.75,8.75 0 0 0 5.474,-8.109 8.75,8.75 0 0 0 -5.475,-8.0970003 l 0.304,-1.219 A 10,10 0 0 1 22,11.986989 a 10,10 0 0 1 -6.419,9.33 z m 0.575,-4.68 -0.675,-1.076 A 5,5 0 0 0 17,11.986989 5,5 0 0 0 15.488,8.4109887 l 0.672,-1.078 a 6.25,6.25 0 0 1 2.09,4.6540003 6.25,6.25 0 0 1 -2.095,4.65 z"
     id="path2"
     inkscape:connector-curvature="0"
     style="color:#31363b;fill:#808080" />
</svg>
