<?xml version="1.0" encoding="UTF-8" standalone="no"?>
<svg
   xmlns:dc="http://purl.org/dc/elements/1.1/"
   xmlns:cc="http://creativecommons.org/ns#"
   xmlns:rdf="http://www.w3.org/1999/02/22-rdf-syntax-ns#"
   xmlns:svg="http://www.w3.org/2000/svg"
   xmlns="http://www.w3.org/2000/svg"
   xmlns:sodipodi="http://sodipodi.sourceforge.net/DTD/sodipodi-0.dtd"
   xmlns:inkscape="http://www.inkscape.org/namespaces/inkscape"
   width="24"
   height="24"
   version="1"
   id="svg4"
   sodipodi:docname="audio-input-microphone-symbolic.svg"
   inkscape:version="0.92.4 (5da689c313, 2019-01-14)">
  <metadata
     id="metadata10">
    <rdf:RDF>
      <cc:Work
         rdf:about="">
        <dc:format>image/svg+xml</dc:format>
        <dc:type
           rdf:resource="http://purl.org/dc/dcmitype/StillImage" />
        <dc:title></dc:title>
      </cc:Work>
    </rdf:RDF>
  </metadata>
  <defs
     id="defs8" />
  <sodipodi:namedview
     pagecolor="#ffffff"
     bordercolor="#666666"
     borderopacity="1"
     objecttolerance="10"
     gridtolerance="10"
     guidetolerance="10"
     inkscape:pageopacity="0"
     inkscape:pageshadow="2"
     inkscape:window-width="640"
     inkscape:window-height="480"
     id="namedview6"
     showgrid="false"
     inkscape:zoom="9.8333333"
     inkscape:cx="10.220339"
     inkscape:cy="12"
     inkscape:window-x="0"
     inkscape:window-y="25"
     inkscape:window-maximized="0"
     inkscape:current-layer="svg4" />
  <path
     d="m 12.005,3.955 a 5.55,5.68 0 0 0 -5.55,5.68 5.55,5.68 0 0 0 5.55,5.68 5.55,5.68 0 0 0 5.55,-5.68 5.55,5.68 0 0 0 -5.55,-5.68 z m -8.49,6.07 a 8.49,8.68 0 0 0 0,0.06 8.49,8.68 0 0 0 7.43,8.6 v 5.36 h 2.17 v -5.36 a 8.49,8.68 0 0 0 7.38,-8.6 8.49,8.68 0 0 0 0,-0.06 h -1.96 a 6.53,6.68 0 0 1 0,0.06 6.53,6.68 0 0 1 -6.53,6.68 6.53,6.68 0 0 1 -6.53,-6.68 6.53,6.68 0 0 1 0,-0.06 h -1.97 z"
     id="path2"
     inkscape:connector-curvature="0"
     style="fill:#808080" />
</svg>
