<?xml version="1.0" encoding="UTF-8" standalone="no"?>
<svg
   xmlns:dc="http://purl.org/dc/elements/1.1/"
   xmlns:cc="http://creativecommons.org/ns#"
   xmlns:rdf="http://www.w3.org/1999/02/22-rdf-syntax-ns#"
   xmlns:svg="http://www.w3.org/2000/svg"
   xmlns="http://www.w3.org/2000/svg"
   xmlns:sodipodi="http://sodipodi.sourceforge.net/DTD/sodipodi-0.dtd"
   xmlns:inkscape="http://www.inkscape.org/namespaces/inkscape"
   height="24"
   width="24"
   version="1.1"
   id="svg4"
   sodipodi:docname="drive-harddisk-usb-symbolic.svg"
   inkscape:version="0.92.4 (5da689c313, 2019-01-14)">
  <metadata
     id="metadata10">
    <rdf:RDF>
      <cc:Work
         rdf:about="">
        <dc:format>image/svg+xml</dc:format>
        <dc:type
           rdf:resource="http://purl.org/dc/dcmitype/StillImage" />
        <dc:title></dc:title>
      </cc:Work>
    </rdf:RDF>
  </metadata>
  <defs
     id="defs8" />
  <sodipodi:namedview
     pagecolor="#ffffff"
     bordercolor="#666666"
     borderopacity="1"
     objecttolerance="10"
     gridtolerance="10"
     guidetolerance="10"
     inkscape:pageopacity="0"
     inkscape:pageshadow="2"
     inkscape:window-width="640"
     inkscape:window-height="480"
     id="namedview6"
     showgrid="false"
     inkscape:zoom="9.8333333"
     inkscape:cx="10.220339"
     inkscape:cy="12"
     inkscape:window-x="0"
     inkscape:window-y="25"
     inkscape:window-maximized="0"
     inkscape:current-layer="svg4" />
  <path
     d="m 20.575,2.874 a 0.452,0.452 0 0 0 -0.132,0.025 l -3.17,1.051 a 0.468,0.468 0 0 0 -0.181,0.78 l 0.46,0.46 -7.55,7.541 A 0.74,0.74 0 0 0 9.92,12.814 L 9.904,12.83 9.879,12.855 9.369,13.372 9.518,10.316 10.668,9.15 A 1.963,1.963 0 1 0 9.485,7.959 L 8.088,9.355 a 0.838,0.838 0 0 0 -0.246,0.55 l -0.247,5.233 -0.854,0.855 a 2.703,2.703 0 0 0 -3.146,0.5 2.686,2.686 0 0 0 0,3.837 2.694,2.694 0 0 0 3.836,0 2.703,2.703 0 0 0 0.501,-3.146 l 1.002,-1.002 a 0.83,0.83 0 0 0 0.148,-0.148 l 1.824,-1.824 5.224,-0.246 a 0.838,0.838 0 0 0 0.56,-0.247 l 1.519,-1.52 0.328,0.33 a 0.468,0.468 0 0 0 0.666,0 l 1.856,-1.85 a 0.468,0.468 0 0 0 0,-0.656 L 19.203,8.164 a 0.46,0.46 0 0 0 -0.657,0 l -1.865,1.848 a 0.468,0.468 0 0 0 0,0.658 l 0.328,0.328 -1.29,1.298 -3.047,0.148 6.063,-6.07 0.46,0.468 a 0.468,0.468 0 0 0 0.772,-0.181 l 1.068,-3.18 A 0.468,0.468 0 0 0 20.706,2.882 0.435,0.435 0 0 0 20.575,2.874 Z"
     id="path2"
     inkscape:connector-curvature="0"
     style="fill:#808080" />
</svg>
