<?xml version="1.0" encoding="UTF-8" standalone="no"?>
<svg
   xmlns:dc="http://purl.org/dc/elements/1.1/"
   xmlns:cc="http://creativecommons.org/ns#"
   xmlns:rdf="http://www.w3.org/1999/02/22-rdf-syntax-ns#"
   xmlns:svg="http://www.w3.org/2000/svg"
   xmlns="http://www.w3.org/2000/svg"
   xmlns:sodipodi="http://sodipodi.sourceforge.net/DTD/sodipodi-0.dtd"
   xmlns:inkscape="http://www.inkscape.org/namespaces/inkscape"
   width="24"
   height="24"
   viewBox="0 0 6.35 6.35"
   version="1.1"
   id="svg4"
   sodipodi:docname="input-keyboard-symbolic.svg"
   inkscape:version="0.92.4 (5da689c313, 2019-01-14)">
  <metadata
     id="metadata10">
    <rdf:RDF>
      <cc:Work
         rdf:about="">
        <dc:format>image/svg+xml</dc:format>
        <dc:type
           rdf:resource="http://purl.org/dc/dcmitype/StillImage" />
        <dc:title></dc:title>
      </cc:Work>
    </rdf:RDF>
  </metadata>
  <defs
     id="defs8" />
  <sodipodi:namedview
     pagecolor="#ffffff"
     bordercolor="#666666"
     borderopacity="1"
     objecttolerance="10"
     gridtolerance="10"
     guidetolerance="10"
     inkscape:pageopacity="0"
     inkscape:pageshadow="2"
     inkscape:window-width="640"
     inkscape:window-height="480"
     id="namedview6"
     showgrid="false"
     inkscape:zoom="9.8333333"
     inkscape:cx="10.220339"
     inkscape:cy="12"
     inkscape:window-x="0"
     inkscape:window-y="25"
     inkscape:window-maximized="0"
     inkscape:current-layer="svg4" />
  <path
     d="M 5.847,1.312 H 0.503 v 3.72 L 5.847,5.038 Z M 2.918,2.109 h 0.53 v 0.532 h -0.53 z m 0,0.799 h 0.53 V 3.44 H 2.918 Z M 2.117,2.108 H 2.648 V 2.641 H 2.12 Z m 0,0.8 H 2.648 V 3.44 H 2.12 Z M 1.852,3.44 H 1.322 V 2.908 h 0.53 z m 0,-0.8 H 1.322 V 2.111 h 0.53 z M 4.244,4.503 H 2.119 V 3.971 h 2.128 z m 0,-1.063 H 3.714 V 2.908 h 0.53 z m 0,-0.8 H 3.714 V 2.111 h 0.53 z m 0.802,0.8 H 4.514 V 2.908 h 0.532 z m 0,-0.8 H 4.514 V 2.111 h 0.532 z"
     id="path2"
     inkscape:connector-curvature="0"
     style="fill:#808080" />
</svg>
