<?xml version="1.0" encoding="UTF-8" standalone="no"?>
<svg
   xmlns:dc="http://purl.org/dc/elements/1.1/"
   xmlns:cc="http://creativecommons.org/ns#"
   xmlns:rdf="http://www.w3.org/1999/02/22-rdf-syntax-ns#"
   xmlns:svg="http://www.w3.org/2000/svg"
   xmlns="http://www.w3.org/2000/svg"
   xmlns:sodipodi="http://sodipodi.sourceforge.net/DTD/sodipodi-0.dtd"
   xmlns:inkscape="http://www.inkscape.org/namespaces/inkscape"
   width="24"
   height="24"
   viewBox="0 0 6.35 6.35"
   version="1.1"
   id="svg4"
   sodipodi:docname="input-gaming-symbolic.svg"
   inkscape:version="0.92.4 (5da689c313, 2019-01-14)">
  <metadata
     id="metadata10">
    <rdf:RDF>
      <cc:Work
         rdf:about="">
        <dc:format>image/svg+xml</dc:format>
        <dc:type
           rdf:resource="http://purl.org/dc/dcmitype/StillImage" />
        <dc:title></dc:title>
      </cc:Work>
    </rdf:RDF>
  </metadata>
  <defs
     id="defs8" />
  <sodipodi:namedview
     pagecolor="#ffffff"
     bordercolor="#666666"
     borderopacity="1"
     objecttolerance="10"
     gridtolerance="10"
     guidetolerance="10"
     inkscape:pageopacity="0"
     inkscape:pageshadow="2"
     inkscape:window-width="640"
     inkscape:window-height="480"
     id="namedview6"
     showgrid="false"
     inkscape:zoom="9.8333333"
     inkscape:cx="10.220339"
     inkscape:cy="12"
     inkscape:window-x="0"
     inkscape:window-y="25"
     inkscape:window-maximized="0"
     inkscape:current-layer="svg4" />
  <path
     d="m 1.15,1.37 c -0.06,0 -0.1,0.02 -0.1,0.07 L 0.45,4.47 C 0.37,4.77 1,5.12 1.41,4.89 L 2.38,3.48 h 1.58 l 0.97,1.4 C 5.34,5.12 5.97,4.77 5.89,4.48 L 5.29,1.44 C 5.29,1.39 5.25,1.37 5.19,1.37 Z m 0.7,0.35 H 2.03 A 0.09,0.09 0 0 1 2.11,1.81 V 2.07 H 2.38 A 0.09,0.09 0 0 1 2.47,2.16 V 2.34 A 0.09,0.09 0 0 1 2.37,2.42 H 2.11 V 2.69 A 0.09,0.09 0 0 1 2.03,2.78 H 1.85 A 0.09,0.09 0 0 1 1.76,2.68 V 2.42 H 1.5 A 0.09,0.09 0 0 1 1.41,2.34 V 2.16 A 0.09,0.09 0 0 1 1.5,2.07 H 1.76 V 1.81 A 0.09,0.09 0 0 1 1.84,1.72 Z m 2.54,0 A 0.18,0.18 0 0 1 4.4,1.72 0.18,0.18 0 0 1 4.58,1.9 0.18,0.18 0 0 1 4.4,2.07 0.18,0.18 0 0 1 4.23,1.9 0.18,0.18 0 0 1 4.39,1.72 Z M 4.04,2.07 a 0.18,0.18 0 0 1 0.01,0 A 0.18,0.18 0 0 1 4.23,2.25 0.18,0.18 0 0 1 4.05,2.42 0.18,0.18 0 0 1 3.87,2.25 0.18,0.18 0 0 1 4.04,2.07 Z m 0.7,0 a 0.18,0.18 0 0 1 0.01,0 A 0.18,0.18 0 0 1 4.93,2.25 0.18,0.18 0 0 1 4.75,2.42 0.18,0.18 0 0 1 4.58,2.25 0.18,0.18 0 0 1 4.74,2.07 Z M 4.39,2.42 A 0.18,0.18 0 0 1 4.4,2.42 0.18,0.18 0 0 1 4.58,2.6 0.18,0.18 0 0 1 4.4,2.78 0.18,0.18 0 0 1 4.23,2.6 0.18,0.18 0 0 1 4.39,2.42 Z"
     id="path2"
     inkscape:connector-curvature="0"
     style="fill:#808080" />
</svg>
