<?xml version="1.0" encoding="UTF-8" standalone="no"?>
<svg
   xmlns:dc="http://purl.org/dc/elements/1.1/"
   xmlns:cc="http://creativecommons.org/ns#"
   xmlns:rdf="http://www.w3.org/1999/02/22-rdf-syntax-ns#"
   xmlns:svg="http://www.w3.org/2000/svg"
   xmlns="http://www.w3.org/2000/svg"
   xmlns:sodipodi="http://sodipodi.sourceforge.net/DTD/sodipodi-0.dtd"
   xmlns:inkscape="http://www.inkscape.org/namespaces/inkscape"
   width="24"
   height="24"
   version="1"
   id="svg4"
   sodipodi:docname="printer-network-symbolic.svg"
   inkscape:version="0.92.4 (5da689c313, 2019-01-14)">
  <metadata
     id="metadata10">
    <rdf:RDF>
      <cc:Work
         rdf:about="">
        <dc:format>image/svg+xml</dc:format>
        <dc:type
           rdf:resource="http://purl.org/dc/dcmitype/StillImage" />
        <dc:title></dc:title>
      </cc:Work>
    </rdf:RDF>
  </metadata>
  <defs
     id="defs8" />
  <sodipodi:namedview
     pagecolor="#ffffff"
     bordercolor="#666666"
     borderopacity="1"
     objecttolerance="10"
     gridtolerance="10"
     guidetolerance="10"
     inkscape:pageopacity="0"
     inkscape:pageshadow="2"
     inkscape:window-width="640"
     inkscape:window-height="480"
     id="namedview6"
     showgrid="false"
     inkscape:zoom="9.8333333"
     inkscape:cx="10.220339"
     inkscape:cy="12"
     inkscape:window-x="0"
     inkscape:window-y="25"
     inkscape:window-maximized="0"
     inkscape:current-layer="svg4" />
  <path
     d="M 3.428,2.715 C 2.638,2.715 2,3.35 2,4.143 V 7 H 22 V 4.143 C 22,3.352 21.364,2.715 20.572,2.715 Z M 2,8.427 v 7.144 c 0,0.79 0.72,1.074 1.428,1.428 h 1.43 v 2.143 A 2.155,2.155 0 0 0 7,21.285 h 10 a 2.155,2.155 0 0 0 2.143,-2.142 V 17 h 1.429 C 21.362,17 22,16.364 22,15.572 V 8.427 Z m 4.285,2.858 h 11.43 v 7.857 A 0.697,0.697 0 0 1 17,19.856 H 7 A 0.697,0.697 0 0 1 6.285,19.142 Z"
     class="ColorScheme-Text error"
     id="path2"
     inkscape:connector-curvature="0"
     style="color:#ff2155;fill:#808080" />
</svg>
