<?xml version="1.0" encoding="UTF-8" standalone="no"?>
<svg
   xmlns:dc="http://purl.org/dc/elements/1.1/"
   xmlns:cc="http://creativecommons.org/ns#"
   xmlns:rdf="http://www.w3.org/1999/02/22-rdf-syntax-ns#"
   xmlns:svg="http://www.w3.org/2000/svg"
   xmlns="http://www.w3.org/2000/svg"
   xmlns:sodipodi="http://sodipodi.sourceforge.net/DTD/sodipodi-0.dtd"
   xmlns:inkscape="http://www.inkscape.org/namespaces/inkscape"
   height="24"
   width="24"
   version="1.1"
   id="svg4"
   sodipodi:docname="printer-symbolic.svg"
   inkscape:version="0.92.4 (5da689c313, 2019-01-14)">
  <metadata
     id="metadata10">
    <rdf:RDF>
      <cc:Work
         rdf:about="">
        <dc:format>image/svg+xml</dc:format>
        <dc:type
           rdf:resource="http://purl.org/dc/dcmitype/StillImage" />
        <dc:title></dc:title>
      </cc:Work>
    </rdf:RDF>
  </metadata>
  <defs
     id="defs8" />
  <sodipodi:namedview
     pagecolor="#ffffff"
     bordercolor="#666666"
     borderopacity="1"
     objecttolerance="10"
     gridtolerance="10"
     guidetolerance="10"
     inkscape:pageopacity="0"
     inkscape:pageshadow="2"
     inkscape:window-width="640"
     inkscape:window-height="480"
     id="namedview6"
     showgrid="false"
     inkscape:zoom="9.8333333"
     inkscape:cx="10.220339"
     inkscape:cy="12"
     inkscape:window-x="0"
     inkscape:window-y="25"
     inkscape:window-maximized="0"
     inkscape:current-layer="svg4" />
  <path
     d="m 6.04,2.47 a 0.1,0.1 0 0 0 -0.1,0.1 v 3.82 c 0,0.05 0.05,0.1 0.1,0.1 H 17.9 A 0.1,0.1 0 0 0 18,6.39 V 2.57 A 0.1,0.1 0 0 0 17.9,2.47 Z M 2.03,7.6 a 0.1,0.1 0 0 0 -0.1,0.1 v 8.73 c 0,0.05 0.05,0.1 0.1,0.1 h 2.95 v 5 h 14.17 v -5 h 2.82 a 0.1,0.1 0 0 0 0.1,-0.1 V 7.7 c 0,-0.05 -0.05,-0.1 -0.1,-0.1 z m 16.55,1.33 a 1.39,1.39 0 0 1 1.4,1.39 1.39,1.39 0 0 1 -1.4,1.39 1.39,1.39 0 0 1 -1.39,-1.4 1.39,1.39 0 0 1 1.4,-1.38 z M 6.2,16.54 h 11.6 v 3.6 H 6.2 Z"
     id="path2"
     inkscape:connector-curvature="0"
     style="fill:#808080;paint-order:markers fill stroke" />
</svg>
