<?xml version="1.0" encoding="UTF-8" standalone="no"?>
<svg
   xmlns:dc="http://purl.org/dc/elements/1.1/"
   xmlns:cc="http://creativecommons.org/ns#"
   xmlns:rdf="http://www.w3.org/1999/02/22-rdf-syntax-ns#"
   xmlns:svg="http://www.w3.org/2000/svg"
   xmlns="http://www.w3.org/2000/svg"
   xmlns:sodipodi="http://sodipodi.sourceforge.net/DTD/sodipodi-0.dtd"
   xmlns:inkscape="http://www.inkscape.org/namespaces/inkscape"
   height="24"
   width="24"
   version="1.1"
   id="svg4"
   sodipodi:docname="aptdaemon-delete.svg"
   inkscape:version="0.92.4 (5da689c313, 2019-01-14)">
  <metadata
     id="metadata10">
    <rdf:RDF>
      <cc:Work
         rdf:about="">
        <dc:format>image/svg+xml</dc:format>
        <dc:type
           rdf:resource="http://purl.org/dc/dcmitype/StillImage" />
        <dc:title></dc:title>
      </cc:Work>
    </rdf:RDF>
  </metadata>
  <defs
     id="defs8" />
  <sodipodi:namedview
     pagecolor="#ffffff"
     bordercolor="#666666"
     borderopacity="1"
     objecttolerance="10"
     gridtolerance="10"
     guidetolerance="10"
     inkscape:pageopacity="0"
     inkscape:pageshadow="2"
     inkscape:window-width="1085"
     inkscape:window-height="480"
     id="namedview6"
     showgrid="false"
     inkscape:zoom="9.8333333"
     inkscape:cx="1.0677966"
     inkscape:cy="12"
     inkscape:window-x="0"
     inkscape:window-y="25"
     inkscape:window-maximized="0"
     inkscape:current-layer="svg4" />
  <path
     d="M 12,1.14 A 10.82,10.86 0 0 0 1.18,12 10.82,10.86 0 0 0 12,22.86 10.82,10.86 0 0 0 22.82,12 10.82,10.86 0 0 0 12,1.14 Z m 0.06,2.31 a 8.5,8.5 0 0 1 0,17 8.5,8.5 0 0 1 0,-17 z m 0,1.56 a 6.95,6.95 0 0 0 -6.95,6.94 c 0,1.72 0.64,3.3 1.68,4.52 L 16.57,6.69 A 6.9,6.9 0 0 0 12.06,5 Z m 5.57,2.82 -9.7,9.7 a 6.9,6.9 0 0 0 4.13,1.36 6.95,6.95 0 0 0 6.93,-6.94 6.9,6.9 0 0 0 -1.36,-4.12 z"
     id="path2"
     inkscape:connector-curvature="0"
     style="fill:#5beedc;fill-opacity:0.98000004;paint-order:markers fill stroke" />
</svg>
