<?xml version="1.0" encoding="UTF-8" standalone="no"?>
<svg
   xmlns:dc="http://purl.org/dc/elements/1.1/"
   xmlns:cc="http://creativecommons.org/ns#"
   xmlns:rdf="http://www.w3.org/1999/02/22-rdf-syntax-ns#"
   xmlns:svg="http://www.w3.org/2000/svg"
   xmlns="http://www.w3.org/2000/svg"
   xmlns:sodipodi="http://sodipodi.sourceforge.net/DTD/sodipodi-0.dtd"
   xmlns:inkscape="http://www.inkscape.org/namespaces/inkscape"
   height="24"
   width="24"
   version="1.1"
   id="svg4"
   sodipodi:docname="aptdaemon-resolve.svg"
   inkscape:version="0.92.4 (5da689c313, 2019-01-14)">
  <metadata
     id="metadata10">
    <rdf:RDF>
      <cc:Work
         rdf:about="">
        <dc:format>image/svg+xml</dc:format>
        <dc:type
           rdf:resource="http://purl.org/dc/dcmitype/StillImage" />
        <dc:title></dc:title>
      </cc:Work>
    </rdf:RDF>
  </metadata>
  <defs
     id="defs8" />
  <sodipodi:namedview
     pagecolor="#ffffff"
     bordercolor="#666666"
     borderopacity="1"
     objecttolerance="10"
     gridtolerance="10"
     guidetolerance="10"
     inkscape:pageopacity="0"
     inkscape:pageshadow="2"
     inkscape:window-width="1085"
     inkscape:window-height="480"
     id="namedview6"
     showgrid="false"
     inkscape:zoom="9.8333333"
     inkscape:cx="1.0677966"
     inkscape:cy="12"
     inkscape:window-x="0"
     inkscape:window-y="25"
     inkscape:window-maximized="0"
     inkscape:current-layer="svg4" />
  <path
     d="M 12,1.14 A 10.82,10.86 0 0 0 1.18,12 10.82,10.86 0 0 0 12,22.86 10.82,10.86 0 0 0 22.82,12 10.82,10.86 0 0 0 12,1.14 Z m 2,3.03 a 5.39,5.39 0 0 1 0,10.78 5.36,5.36 0 0 1 -3.51,-1.3 l -0.23,0.23 v 0.65 L 6.12,18.67 4.88,17.43 9.02,13.29 H 9.68 L 9.9,13.06 A 5.34,5.34 0 0 1 8.6,9.56 5.39,5.39 0 0 1 14,4.16 Z m 0,1.66 a 3.73,3.73 0 1 0 0,7.46 3.73,3.73 0 0 0 0,-7.46 z"
     id="path2"
     inkscape:connector-curvature="0"
     style="fill:#5beedc;fill-opacity:0.97000002;paint-order:markers fill stroke" />
</svg>
