<?xml version="1.0" encoding="UTF-8" standalone="no"?>
<svg
   xmlns:dc="http://purl.org/dc/elements/1.1/"
   xmlns:cc="http://creativecommons.org/ns#"
   xmlns:rdf="http://www.w3.org/1999/02/22-rdf-syntax-ns#"
   xmlns:svg="http://www.w3.org/2000/svg"
   xmlns="http://www.w3.org/2000/svg"
   xmlns:sodipodi="http://sodipodi.sourceforge.net/DTD/sodipodi-0.dtd"
   xmlns:inkscape="http://www.inkscape.org/namespaces/inkscape"
   width="24"
   height="24"
   version="1"
   id="svg4"
   sodipodi:docname="dialog-error.svg"
   inkscape:version="0.92.4 (5da689c313, 2019-01-14)">
  <metadata
     id="metadata10">
    <rdf:RDF>
      <cc:Work
         rdf:about="">
        <dc:format>image/svg+xml</dc:format>
        <dc:type
           rdf:resource="http://purl.org/dc/dcmitype/StillImage" />
        <dc:title></dc:title>
      </cc:Work>
    </rdf:RDF>
  </metadata>
  <defs
     id="defs8" />
  <sodipodi:namedview
     pagecolor="#ffffff"
     bordercolor="#666666"
     borderopacity="1"
     objecttolerance="10"
     gridtolerance="10"
     guidetolerance="10"
     inkscape:pageopacity="0"
     inkscape:pageshadow="2"
     inkscape:window-width="1085"
     inkscape:window-height="480"
     id="namedview6"
     showgrid="false"
     inkscape:zoom="9.8333333"
     inkscape:cx="1.0677966"
     inkscape:cy="12"
     inkscape:window-x="0"
     inkscape:window-y="25"
     inkscape:window-maximized="0"
     inkscape:current-layer="svg4" />
  <path
     d="M 12,0.16 A 11.84,11.84 0 0 0 0.16,12 11.84,11.84 0 0 0 12,23.84 11.84,11.84 0 0 0 23.84,12 11.84,11.84 0 0 0 12,0.16 Z m -0.03,1.76 a 10.18,10.18 0 0 1 3.56,0.65 L 12,4.2 8.1,2.7 a 10.18,10.18 0 0 1 3.87,-0.78 z m 3.87,0.77 a 10.18,10.18 0 0 1 5.4,5.23 L 17.46,6.46 Z m -8,0.12 -1.4,3.84 -3.92,1.66 a 10.18,10.18 0 0 1 5.32,-5.5 z m 0.3,4.4 c 0.21,0 0.42,0.1 0.59,0.26 L 12,10.83 15.27,7.47 a 0.82,0.82 0 0 1 1.19,0 0.88,0.88 0 0 1 0,1.22 l -3.27,3.35 3.27,3.36 a 0.88,0.88 0 0 1 0,1.22 0.81,0.81 0 0 1 -0.6,0.25 0.8,0.8 0 0 1 -0.59,-0.25 L 12,13.26 8.73,16.62 a 0.8,0.8 0 0 1 -0.6,0.25 0.81,0.81 0 0 1 -0.59,-0.25 0.88,0.88 0 0 1 0,-1.22 L 10.81,12.04 7.54,8.7 a 0.88,0.88 0 0 1 0,-1.22 0.83,0.83 0 0 1 0.6,-0.25 z m 13.19,0.91 a 10.18,10.18 0 0 1 0.82,3.98 10.18,10.18 0 0 1 -0.69,3.65 l -1.65,-3.82 1.52,-3.8 z M 2.49,8.4 4.19,12.33 2.65,16.19 A 10.18,10.18 0 0 1 1.78,12.11 10.18,10.18 0 0 1 2.5,8.4 Z m 18.89,7.59 a 10.18,10.18 0 0 1 -5.18,5.37 l 1.45,-3.73 z M 2.7,16.3 6.54,17.78 8.16,21.54 A 10.18,10.18 0 0 1 2.7,16.3 Z m 9.55,3.7 3.58,1.51 A 10.18,10.18 0 0 1 11.97,22.28 10.18,10.18 0 0 1 8.5,21.66 l 3.75,-1.65 z"
     id="path2"
     inkscape:connector-curvature="0"
     style="fill:#5beedc" />
</svg>
