<?xml version="1.0" encoding="UTF-8" standalone="no"?>
<svg
   xmlns:dc="http://purl.org/dc/elements/1.1/"
   xmlns:cc="http://creativecommons.org/ns#"
   xmlns:rdf="http://www.w3.org/1999/02/22-rdf-syntax-ns#"
   xmlns:svg="http://www.w3.org/2000/svg"
   xmlns="http://www.w3.org/2000/svg"
   xmlns:sodipodi="http://sodipodi.sourceforge.net/DTD/sodipodi-0.dtd"
   xmlns:inkscape="http://www.inkscape.org/namespaces/inkscape"
   width="24"
   height="24"
   version="1"
   id="svg4"
   sodipodi:docname="dialog-info.svg"
   inkscape:version="0.92.4 (5da689c313, 2019-01-14)">
  <metadata
     id="metadata10">
    <rdf:RDF>
      <cc:Work
         rdf:about="">
        <dc:format>image/svg+xml</dc:format>
        <dc:type
           rdf:resource="http://purl.org/dc/dcmitype/StillImage" />
        <dc:title></dc:title>
      </cc:Work>
    </rdf:RDF>
  </metadata>
  <defs
     id="defs8" />
  <sodipodi:namedview
     pagecolor="#ffffff"
     bordercolor="#666666"
     borderopacity="1"
     objecttolerance="10"
     gridtolerance="10"
     guidetolerance="10"
     inkscape:pageopacity="0"
     inkscape:pageshadow="2"
     inkscape:window-width="1085"
     inkscape:window-height="480"
     id="namedview6"
     showgrid="false"
     inkscape:zoom="9.8333333"
     inkscape:cx="1.0677966"
     inkscape:cy="12"
     inkscape:window-x="0"
     inkscape:window-y="25"
     inkscape:window-maximized="0"
     inkscape:current-layer="svg4" />
  <path
     d="M 12,0.16 A 11.84,11.84 0 0 0 0.16,12 11.84,11.84 0 0 0 12,23.84 11.84,11.84 0 0 0 23.84,12 11.84,11.84 0 0 0 12,0.16 Z M 11.97,1.92 A 10.18,10.18 0 0 1 22.15,12.1 10.18,10.18 0 0 1 11.97,22.28 10.18,10.18 0 0 1 1.78,12.1 10.18,10.18 0 0 1 11.97,1.92 Z M 12,3.22 A 8.82,8.78 0 0 0 3.18,12 8.82,8.78 0 0 0 12,20.78 8.82,8.78 0 0 0 20.82,12 8.82,8.78 0 0 0 12,3.22 Z m 1.02,2.98 c 0.43,-0.01 0.8,0.33 0.86,0.75 0.2,0.8 -0.66,1.61 -1.44,1.29 C 11.47,7.79 12,6.15 13.02,6.2 Z m -0.44,3.62 c 0.5,0.04 0.74,0.72 0.49,1.29 -0.37,1.65 -0.95,3.25 -1.26,4.91 0.15,0.66 0.96,-0.14 1.33,-0.3 0.28,-0.33 0.35,0.03 0.46,0.28 -0.76,0.53 -1.5,1.1 -2.35,1.45 -0.8,0.55 -1.57,-0.21 -1.23,-1.06 0.32,-1.54 0.75,-3.06 1.1,-4.6 0.1,-0.82 -0.99,0.02 -1.31,0.22 -0.26,0.33 -0.39,0.09 -0.5,-0.21 0.88,-0.64 1.71,-1.35 2.7,-1.78 0.22,-0.16 0.4,-0.22 0.57,-0.2 z"
     id="path2"
     inkscape:connector-curvature="0"
     style="fill:#5beedc" />
</svg>
