<?xml version="1.0" encoding="UTF-8" standalone="no"?>
<svg
   xmlns:dc="http://purl.org/dc/elements/1.1/"
   xmlns:cc="http://creativecommons.org/ns#"
   xmlns:rdf="http://www.w3.org/1999/02/22-rdf-syntax-ns#"
   xmlns:svg="http://www.w3.org/2000/svg"
   xmlns="http://www.w3.org/2000/svg"
   xmlns:sodipodi="http://sodipodi.sourceforge.net/DTD/sodipodi-0.dtd"
   xmlns:inkscape="http://www.inkscape.org/namespaces/inkscape"
   width="24"
   height="24"
   version="1"
   id="svg4"
   sodipodi:docname="image-loading.svg"
   inkscape:version="0.92.4 (5da689c313, 2019-01-14)">
  <metadata
     id="metadata10">
    <rdf:RDF>
      <cc:Work
         rdf:about="">
        <dc:format>image/svg+xml</dc:format>
        <dc:type
           rdf:resource="http://purl.org/dc/dcmitype/StillImage" />
        <dc:title></dc:title>
      </cc:Work>
    </rdf:RDF>
  </metadata>
  <defs
     id="defs8" />
  <sodipodi:namedview
     pagecolor="#ffffff"
     bordercolor="#666666"
     borderopacity="1"
     objecttolerance="10"
     gridtolerance="10"
     guidetolerance="10"
     inkscape:pageopacity="0"
     inkscape:pageshadow="2"
     inkscape:window-width="1085"
     inkscape:window-height="480"
     id="namedview6"
     showgrid="false"
     inkscape:zoom="9.8333333"
     inkscape:cx="1.0677966"
     inkscape:cy="12"
     inkscape:window-x="0"
     inkscape:window-y="25"
     inkscape:window-maximized="0"
     inkscape:current-layer="svg4" />
  <path
     d="M 12,1.16 A 10.84,10.84 0 0 0 1.16,12 10.84,10.84 0 0 0 12,22.84 10.84,10.84 0 0 0 22.84,12 10.84,10.84 0 0 0 12,1.16 Z m -0.03,1.6 a 9.32,9.32 0 0 1 9.32,9.33 9.32,9.32 0 0 1 -9.32,9.33 9.32,9.32 0 0 1 -9.32,-9.33 9.32,9.32 0 0 1 9.32,-9.32 z M 6.77,9.91 A 2.1,2.1 0 0 0 4.67,12 2.1,2.1 0 0 0 6.77,14.1 2.1,2.1 0 0 0 8.86,12 2.1,2.1 0 0 0 6.76,9.9 Z m 5.23,0 A 2.1,2.1 0 0 0 9.9,12 2.1,2.1 0 0 0 12,14.1 2.1,2.1 0 0 0 14.1,12 2.1,2.1 0 0 0 12,9.9 Z m 5.23,0 a 2.1,2.1 0 0 0 -2.09,2.09 2.1,2.1 0 0 0 2.1,2.1 2.1,2.1 0 0 0 2.09,-2.1 2.1,2.1 0 0 0 -2.1,-2.1 z"
     id="path2"
     inkscape:connector-curvature="0"
     style="fill:#5beedc" />
</svg>
