<?xml version="1.0" encoding="UTF-8" standalone="no"?>
<svg
   xmlns:dc="http://purl.org/dc/elements/1.1/"
   xmlns:cc="http://creativecommons.org/ns#"
   xmlns:rdf="http://www.w3.org/1999/02/22-rdf-syntax-ns#"
   xmlns:svg="http://www.w3.org/2000/svg"
   xmlns="http://www.w3.org/2000/svg"
   xmlns:sodipodi="http://sodipodi.sourceforge.net/DTD/sodipodi-0.dtd"
   xmlns:inkscape="http://www.inkscape.org/namespaces/inkscape"
   width="24"
   height="24"
   viewBox="0 0 6.35 6.35"
   version="1.1"
   id="svg6"
   sodipodi:docname="image-missing.svg"
   inkscape:version="0.92.4 (5da689c313, 2019-01-14)">
  <metadata
     id="metadata12">
    <rdf:RDF>
      <cc:Work
         rdf:about="">
        <dc:format>image/svg+xml</dc:format>
        <dc:type
           rdf:resource="http://purl.org/dc/dcmitype/StillImage" />
        <dc:title></dc:title>
      </cc:Work>
    </rdf:RDF>
  </metadata>
  <defs
     id="defs10" />
  <sodipodi:namedview
     pagecolor="#ffffff"
     bordercolor="#666666"
     borderopacity="1"
     objecttolerance="10"
     gridtolerance="10"
     guidetolerance="10"
     inkscape:pageopacity="0"
     inkscape:pageshadow="2"
     inkscape:window-width="1085"
     inkscape:window-height="480"
     id="namedview8"
     showgrid="false"
     inkscape:zoom="9.8333333"
     inkscape:cx="1.0677966"
     inkscape:cy="12"
     inkscape:window-x="0"
     inkscape:window-y="25"
     inkscape:window-maximized="0"
     inkscape:current-layer="svg6" />
  <path
     d="M 3.04,0.43 A 2.76,2.76 0 0 0 1.47,1.02 2.76,2.76 0 0 0 1.03,1.45 2.76,2.76 0 0 0 0.43,3.05 Z M 3.71,0.47 3.08,1.1 c 0.04,0 0.07,-0.03 0.11,-0.03 0.13,0 0.24,0.04 0.32,0.1 0.08,0.05 0.13,0.13 0.13,0.22 v 0.15 l 0.8,-0.8 A 2.76,2.76 0 0 0 3.71,0.47 Z M 4.88,1.01 3.64,2.25 V 3.24 L 5.37,1.51 A 2.76,2.76 0 0 0 4.87,1.01 Z M 2.75,1.44 0.48,3.7 A 2.76,2.76 0 0 0 0.73,4.43 L 2.75,2.42 Z m 2.9,0.51 -2.01,2 V 4 c 0,0.07 -0.03,0.14 -0.09,0.2 A 0.48,0.48 0 0 1 3.32,4.3 0.46,0.46 0 0 1 3.65,4.75 c 0,0.06 -0.02,0.12 -0.04,0.18 A 0.46,0.46 0 0 1 3.53,5.06 L 5.89,2.7 A 2.76,2.76 0 0 0 5.64,1.95 Z M 2.75,3.15 1,4.87 A 2.76,2.76 0 0 0 1.5,5.36 L 2.8,4.09 C 2.79,4.06 2.76,4.03 2.76,3.99 Z M 5.92,3.38 3.38,5.92 A 2.76,2.76 0 0 0 5.92,3.38 Z M 2.75,4.85 1.95,5.65 A 2.76,2.76 0 0 0 2.7,5.89 L 3.5,5.09 A 0.45,0.45 0 0 1 3.37,5.18 0.45,0.45 0 0 1 2.87,5.08 0.47,0.47 0 0 1 2.77,4.93 Z"
     id="path2"
     inkscape:connector-curvature="0"
     style="fill:#5beedc;fill-opacity:0.3" />
  <path
     d="M 3.19,1.25 A 0.28,0.28 0 0 0 2.91,1.54 v 2.32 a 0.28,0.28 0 1 0 0.56,0 V 1.54 A 0.28,0.28 0 0 0 3.19,1.25 Z m 0,3.21 a 0.285,0.285 0 1 0 0,0.57 0.285,0.285 0 1 0 0,-0.57 z"
     id="path4"
     inkscape:connector-curvature="0"
     style="fill:#5beedc" />
</svg>
