<?xml version="1.0" encoding="UTF-8" standalone="no"?>
<svg
   xmlns:dc="http://purl.org/dc/elements/1.1/"
   xmlns:cc="http://creativecommons.org/ns#"
   xmlns:rdf="http://www.w3.org/1999/02/22-rdf-syntax-ns#"
   xmlns:svg="http://www.w3.org/2000/svg"
   xmlns="http://www.w3.org/2000/svg"
   xmlns:sodipodi="http://sodipodi.sourceforge.net/DTD/sodipodi-0.dtd"
   xmlns:inkscape="http://www.inkscape.org/namespaces/inkscape"
   width="24"
   height="24"
   version="1"
   id="svg4"
   sodipodi:docname="laptoptrusted.svg"
   inkscape:version="0.92.4 (5da689c313, 2019-01-14)">
  <metadata
     id="metadata10">
    <rdf:RDF>
      <cc:Work
         rdf:about="">
        <dc:format>image/svg+xml</dc:format>
        <dc:type
           rdf:resource="http://purl.org/dc/dcmitype/StillImage" />
        <dc:title></dc:title>
      </cc:Work>
    </rdf:RDF>
  </metadata>
  <defs
     id="defs8" />
  <sodipodi:namedview
     pagecolor="#ffffff"
     bordercolor="#666666"
     borderopacity="1"
     objecttolerance="10"
     gridtolerance="10"
     guidetolerance="10"
     inkscape:pageopacity="0"
     inkscape:pageshadow="2"
     inkscape:window-width="1138"
     inkscape:window-height="480"
     id="namedview6"
     showgrid="false"
     inkscape:zoom="9.8333333"
     inkscape:cx="1.0677966"
     inkscape:cy="12"
     inkscape:window-x="0"
     inkscape:window-y="25"
     inkscape:window-maximized="0"
     inkscape:current-layer="svg4" />
  <path
     d="M 12,0.229 V 0.23 A 11.773,11.773 0 0 0 0.227,12.002 11.773,11.773 0 0 0 12,23.772 11.773,11.773 0 0 0 23.773,12 11.773,11.773 0 0 0 12,0.229 Z M 6.96,6.357 h 10.233 c 1.086,0 1.96,0.874 1.96,1.96 v 6.263 a 1.947,1.947 0 0 1 -0.995,1.697 h 1.594 v 1.535 H 4.254 V 16.277 H 6 A 1.945,1.945 0 0 1 5.004,14.58 V 8.316 c 0,-1.085 0.871,-1.959 1.957,-1.959 z M 7.98,7.37 A 1.647,1.647 0 0 0 6.33,9.018 v 5.273 a 1.647,1.647 0 0 0 1.65,1.648 h 8.252 a 1.647,1.647 0 0 0 1.647,-1.648 V 9.016 A 1.647,1.647 0 0 0 16.23,7.369 H 7.98 Z m 2.841,8.736 v 0.502 h 2.436 V 16.106 H 10.82 Z"
     id="path2"
     inkscape:connector-curvature="0"
     style="fill:#5beedc;stroke-width:1.87199998" />
</svg>
