<?xml version="1.0" encoding="UTF-8" standalone="no"?>
<svg
   xmlns:dc="http://purl.org/dc/elements/1.1/"
   xmlns:cc="http://creativecommons.org/ns#"
   xmlns:rdf="http://www.w3.org/1999/02/22-rdf-syntax-ns#"
   xmlns:svg="http://www.w3.org/2000/svg"
   xmlns="http://www.w3.org/2000/svg"
   xmlns:sodipodi="http://sodipodi.sourceforge.net/DTD/sodipodi-0.dtd"
   xmlns:inkscape="http://www.inkscape.org/namespaces/inkscape"
   width="48"
   height="48"
   viewBox="0 0 12.7 12.7"
   version="1.1"
   id="svg4"
   sodipodi:docname="osd-rotate-cw.svg"
   inkscape:version="0.92.4 (5da689c313, 2019-01-14)">
  <metadata
     id="metadata10">
    <rdf:RDF>
      <cc:Work
         rdf:about="">
        <dc:format>image/svg+xml</dc:format>
        <dc:type
           rdf:resource="http://purl.org/dc/dcmitype/StillImage" />
        <dc:title></dc:title>
      </cc:Work>
    </rdf:RDF>
  </metadata>
  <defs
     id="defs8" />
  <sodipodi:namedview
     pagecolor="#ffffff"
     bordercolor="#666666"
     borderopacity="1"
     objecttolerance="10"
     gridtolerance="10"
     guidetolerance="10"
     inkscape:pageopacity="0"
     inkscape:pageshadow="2"
     inkscape:window-width="1138"
     inkscape:window-height="480"
     id="namedview6"
     showgrid="false"
     inkscape:zoom="4.9166667"
     inkscape:cx="2.1355932"
     inkscape:cy="24"
     inkscape:window-x="0"
     inkscape:window-y="25"
     inkscape:window-maximized="0"
     inkscape:current-layer="svg4" />
  <path
     d="m 10.374,1.413 a 0.903,0.903 0 0 1 0.903,0.903 v 6.136 a 0.91,0.91 0 0 1 -0.903,0.903 h -2.27 v 1.092 h 2.102 v 0.84 H 2.368 v -0.84 H 4.532 V 9.334 H 2.326 A 0.903,0.903 0 0 1 1.423,8.43 V 2.316 A 0.903,0.903 0 0 1 2.326,1.413 Z M 9.68,2.295 H 2.957 A 0.693,0.693 0 0 0 2.263,2.988 v 4.77 A 0.693,0.693 0 0 0 2.957,8.452 H 9.68 A 0.693,0.693 0 0 0 10.374,7.758 V 2.988 A 0.693,0.693 0 0 0 9.68,2.295 Z m -3.648,0.83 a 2.641,2.645 0 0 1 2.492,1.79 L 8.646,4.87 9.309,4.625 8.676,5.994 7.31,5.36 7.978,5.114 8.128,5.059 A 2.219,2.222 0 0 0 6.033,3.547 2.219,2.222 0 0 0 3.813,5.769 2.219,2.222 0 0 0 4.867,7.656 L 4.593,7.986 A 2.641,2.645 0 0 1 3.391,5.77 2.641,2.645 0 0 1 6.031,3.125 Z"
     class="ColorScheme-Text"
     id="path2"
     inkscape:connector-curvature="0"
     style="fill:#5beedc;stroke-width:2.10100007" />
</svg>
