<?xml version="1.0" encoding="UTF-8" standalone="no"?>
<svg
   xmlns:dc="http://purl.org/dc/elements/1.1/"
   xmlns:cc="http://creativecommons.org/ns#"
   xmlns:rdf="http://www.w3.org/1999/02/22-rdf-syntax-ns#"
   xmlns:svg="http://www.w3.org/2000/svg"
   xmlns="http://www.w3.org/2000/svg"
   xmlns:sodipodi="http://sodipodi.sourceforge.net/DTD/sodipodi-0.dtd"
   xmlns:inkscape="http://www.inkscape.org/namespaces/inkscape"
   width="48"
   height="48"
   viewBox="0 0 12.7 12.7"
   version="1.1"
   id="svg4"
   sodipodi:docname="osd-duplicate.svg"
   inkscape:version="0.92.4 (5da689c313, 2019-01-14)">
  <metadata
     id="metadata10">
    <rdf:RDF>
      <cc:Work
         rdf:about="">
        <dc:format>image/svg+xml</dc:format>
        <dc:type
           rdf:resource="http://purl.org/dc/dcmitype/StillImage" />
        <dc:title></dc:title>
      </cc:Work>
    </rdf:RDF>
  </metadata>
  <defs
     id="defs8" />
  <sodipodi:namedview
     pagecolor="#ffffff"
     bordercolor="#666666"
     borderopacity="1"
     objecttolerance="10"
     gridtolerance="10"
     guidetolerance="10"
     inkscape:pageopacity="0"
     inkscape:pageshadow="2"
     inkscape:window-width="1138"
     inkscape:window-height="480"
     id="namedview6"
     showgrid="false"
     inkscape:zoom="4.9166667"
     inkscape:cx="2.1355932"
     inkscape:cy="24"
     inkscape:window-x="0"
     inkscape:window-y="25"
     inkscape:window-maximized="0"
     inkscape:current-layer="svg4" />
  <path
     class="ColorScheme-Text"
     d="M 5.19,1.168 A 0.674,0.674 0 0 0 4.516,1.842 V 4.169 H 1.51 A 0.674,0.674 0 0 0 0.837,4.843 v 4.575 c 0,0.376 0.313,0.673 0.673,0.673 h 1.693 v 0.814 H 1.635 v 0.627 H 7.478 V 10.905 H 5.865 v -0.83 H 7.51 A 0.674,0.674 0 0 0 8.184,9.401 v -0.87 h 2.975 V 7.905 H 9.545 V 7.075 H 11.19 A 0.674,0.674 0 0 0 11.864,6.4 V 1.842 A 0.674,0.674 0 0 0 11.19,1.168 Z m 0.517,0.658 h 5.013 a 0.517,0.517 0 0 1 0.517,0.517 V 5.899 A 0.517,0.517 0 0 1 10.72,6.416 H 8.184 V 5.912 h 1.832 A 0.26,0.26 0 0 0 10.276,5.65 V 2.52 A 0.26,0.26 0 0 0 10.016,2.259 H 6.364 A 0.26,0.26 0 0 0 6.104,2.52 V 4.17 H 5.19 V 2.343 A 0.517,0.517 0 0 1 5.707,1.826 Z m 0.657,1.28 v 0.001 h 3.652 c 0.035,0 0.065,0.03 0.065,0.065 V 5.65 A 0.065,0.065 0 0 1 10.016,5.715 H 8.184 V 4.843 A 0.674,0.674 0 0 0 7.51,4.169 H 6.3 V 3.172 C 6.3,3.137 6.328,3.107 6.364,3.107 Z M 2.027,4.828 H 7.04 A 0.517,0.517 0 0 1 7.557,5.345 V 8.9 A 0.517,0.517 0 0 1 7.04,9.418 H 2.027 A 0.517,0.517 0 0 1 1.509,8.9 V 5.344 A 0.517,0.517 0 0 1 2.027,4.827 Z m 0.657,0.433 a 0.26,0.26 0 0 0 -0.26,0.262 v 3.13 a 0.26,0.26 0 0 0 0.26,0.26 h 3.652 a 0.26,0.26 0 0 0 0.26,-0.26 V 5.52 A 0.26,0.26 0 0 0 6.336,5.259 Z m 0,0.848 h 3.652 c 0.035,0 0.064,0.03 0.064,0.066 V 8.65 A 0.065,0.065 0 0 1 6.336,8.715 H 2.684 A 0.065,0.065 0 0 1 2.619,8.65 V 6.173 c 0,-0.035 0.029,-0.065 0.065,-0.065 z"
     id="path2"
     inkscape:connector-curvature="0"
     style="fill:#5beedc;stroke-width:1.56700003" />
</svg>
