<?xml version="1.0" encoding="UTF-8" standalone="no"?>
<svg
   xmlns:dc="http://purl.org/dc/elements/1.1/"
   xmlns:cc="http://creativecommons.org/ns#"
   xmlns:rdf="http://www.w3.org/1999/02/22-rdf-syntax-ns#"
   xmlns:svg="http://www.w3.org/2000/svg"
   xmlns="http://www.w3.org/2000/svg"
   xmlns:sodipodi="http://sodipodi.sourceforge.net/DTD/sodipodi-0.dtd"
   xmlns:inkscape="http://www.inkscape.org/namespaces/inkscape"
   width="48"
   height="48"
   viewBox="0 0 12.7 12.7"
   version="1.1"
   id="svg4"
   sodipodi:docname="osd-rotate-flip.svg"
   inkscape:version="0.92.4 (5da689c313, 2019-01-14)">
  <metadata
     id="metadata10">
    <rdf:RDF>
      <cc:Work
         rdf:about="">
        <dc:format>image/svg+xml</dc:format>
        <dc:type
           rdf:resource="http://purl.org/dc/dcmitype/StillImage" />
        <dc:title></dc:title>
      </cc:Work>
    </rdf:RDF>
  </metadata>
  <defs
     id="defs8" />
  <sodipodi:namedview
     pagecolor="#ffffff"
     bordercolor="#666666"
     borderopacity="1"
     objecttolerance="10"
     gridtolerance="10"
     guidetolerance="10"
     inkscape:pageopacity="0"
     inkscape:pageshadow="2"
     inkscape:window-width="1138"
     inkscape:window-height="480"
     id="namedview6"
     showgrid="false"
     inkscape:zoom="4.9166667"
     inkscape:cx="2.1355932"
     inkscape:cy="24"
     inkscape:window-x="0"
     inkscape:window-y="25"
     inkscape:window-maximized="0"
     inkscape:current-layer="svg4" />
  <path
     d="M 2.326,1.412 A 0.903,0.903 0 0 0 1.423,2.316 V 8.45 c 0,0.505 0.42,0.904 0.903,0.904 h 2.27 v 1.092 H 2.493 v 0.84 h 7.838 v -0.84 H 8.168 V 9.334 h 2.206 A 0.903,0.903 0 0 0 11.277,8.43 V 2.316 A 0.903,0.903 0 0 0 10.374,1.412 Z M 3.02,2.295 h 6.723 a 0.693,0.693 0 0 1 0.694,0.693 v 4.77 A 0.693,0.693 0 0 1 9.743,8.451 H 3.02 A 0.693,0.693 0 0 1 2.326,7.758 V 2.988 A 0.693,0.693 0 0 1 3.02,2.295 Z M 6.35,3.532 5.504,4.378 H 6.128 V 6.735 H 5.504 L 6.35,7.58 7.195,6.735 H 6.572 V 4.378 h 0.623 z"
     class="ColorScheme-Text"
     id="path2"
     inkscape:connector-curvature="0"
     style="fill:#5beedc;stroke-width:2.10100007" />
</svg>
