<?xml version="1.0" encoding="UTF-8" standalone="no"?>
<svg
   xmlns:dc="http://purl.org/dc/elements/1.1/"
   xmlns:cc="http://creativecommons.org/ns#"
   xmlns:rdf="http://www.w3.org/1999/02/22-rdf-syntax-ns#"
   xmlns:svg="http://www.w3.org/2000/svg"
   xmlns="http://www.w3.org/2000/svg"
   xmlns:sodipodi="http://sodipodi.sourceforge.net/DTD/sodipodi-0.dtd"
   xmlns:inkscape="http://www.inkscape.org/namespaces/inkscape"
   width="24"
   height="24"
   version="1"
   id="svg4"
   sodipodi:docname="smartphonedisconnected.svg"
   inkscape:version="0.92.4 (5da689c313, 2019-01-14)">
  <metadata
     id="metadata10">
    <rdf:RDF>
      <cc:Work
         rdf:about="">
        <dc:format>image/svg+xml</dc:format>
        <dc:type
           rdf:resource="http://purl.org/dc/dcmitype/StillImage" />
        <dc:title></dc:title>
      </cc:Work>
    </rdf:RDF>
  </metadata>
  <defs
     id="defs8" />
  <sodipodi:namedview
     pagecolor="#ffffff"
     bordercolor="#666666"
     borderopacity="1"
     objecttolerance="10"
     gridtolerance="10"
     guidetolerance="10"
     inkscape:pageopacity="0"
     inkscape:pageshadow="2"
     inkscape:window-width="1138"
     inkscape:window-height="480"
     id="namedview6"
     showgrid="false"
     inkscape:zoom="9.8333333"
     inkscape:cx="1.0677966"
     inkscape:cy="12"
     inkscape:window-x="0"
     inkscape:window-y="25"
     inkscape:window-maximized="0"
     inkscape:current-layer="svg4" />
  <path
     d="m 8.977,3.81 c -1.204,0 -2.184,1.01 -2.184,2.25 v 12 c 0,1.24 0.98,2.25 2.184,2.25 h 5.826 c 0.605,0 1.152,-0.257 1.549,-0.668 A 4,4 0 0 0 18,20 4,4 0 0 0 22,16 4,4 0 0 0 18,12 4,4 0 0 0 16.988,12.133 V 6.06 c 0,-1.241 -0.98,-2.25 -2.185,-2.25 z M 8.068,6.06 h 7.645 v 6.665 A 4,4 0 0 0 14,16 4,4 0 0 0 14.043,16.559 H 8.068 Z M 16,14 h 0.707 L 18,15.293 19.293,14 H 20 v 0.707 L 18.707,16 20,17.293 V 18 H 19.293 L 18,16.707 16.707,18 H 16 V 17.293 L 17.293,16 16,14.707 Z m -5.566,4.059 h 2.914 v 0.748 h -2.914 z"
     id="path2"
     inkscape:connector-curvature="0"
     style="fill:#5beedc;stroke-width:1.87199998" />
</svg>
