<?xml version="1.0" encoding="UTF-8" standalone="no"?>
<svg
   xmlns:dc="http://purl.org/dc/elements/1.1/"
   xmlns:cc="http://creativecommons.org/ns#"
   xmlns:rdf="http://www.w3.org/1999/02/22-rdf-syntax-ns#"
   xmlns:svg="http://www.w3.org/2000/svg"
   xmlns="http://www.w3.org/2000/svg"
   xmlns:sodipodi="http://sodipodi.sourceforge.net/DTD/sodipodi-0.dtd"
   xmlns:inkscape="http://www.inkscape.org/namespaces/inkscape"
   width="24"
   height="24"
   version="1"
   id="svg4"
   sodipodi:docname="tablettrusted.svg"
   inkscape:version="0.92.4 (5da689c313, 2019-01-14)">
  <metadata
     id="metadata10">
    <rdf:RDF>
      <cc:Work
         rdf:about="">
        <dc:format>image/svg+xml</dc:format>
        <dc:type
           rdf:resource="http://purl.org/dc/dcmitype/StillImage" />
        <dc:title></dc:title>
      </cc:Work>
    </rdf:RDF>
  </metadata>
  <defs
     id="defs8" />
  <sodipodi:namedview
     pagecolor="#ffffff"
     bordercolor="#666666"
     borderopacity="1"
     objecttolerance="10"
     gridtolerance="10"
     guidetolerance="10"
     inkscape:pageopacity="0"
     inkscape:pageshadow="2"
     inkscape:window-width="1138"
     inkscape:window-height="480"
     id="namedview6"
     showgrid="false"
     inkscape:zoom="9.8333333"
     inkscape:cx="1.0677966"
     inkscape:cy="12"
     inkscape:window-x="0"
     inkscape:window-y="25"
     inkscape:window-maximized="0"
     inkscape:current-layer="svg4" />
  <path
     d="M 12,0.229 V 0.23 A 11.773,11.773 0 0 0 0.227,12.002 11.773,11.773 0 0 0 12,23.772 11.773,11.773 0 0 0 23.773,12 11.773,11.773 0 0 0 12,0.229 Z M 5.645,6.004 h 12.488 a 1.389,1.389 0 0 1 1.388,1.389 l -0.007,8.324 c 0,0.765 -0.616,1.387 -1.383,1.387 H 5.646 c -0.767,0 -1.388,-0.62 -1.388,-1.387 V 7.393 a 1.389,1.389 0 0 1 1.387,-1.39 z m 1.388,1.389 v 8.324 h 9.713 V 7.393 Z M 5.423,10.3 a 0.336,0.336 0 0 0 -0.335,0.338 v 1.76 a 0.338,0.338 0 1 0 0.676,0 v -1.76 A 0.337,0.337 0 0 0 5.426,10.3 H 5.424 Z"
     id="path2"
     inkscape:connector-curvature="0"
     style="fill:#5beedc;stroke-width:1.87199998" />
</svg>
