<?xml version="1.0" encoding="UTF-8" standalone="no"?>
<svg
   xmlns:dc="http://purl.org/dc/elements/1.1/"
   xmlns:cc="http://creativecommons.org/ns#"
   xmlns:rdf="http://www.w3.org/1999/02/22-rdf-syntax-ns#"
   xmlns:svg="http://www.w3.org/2000/svg"
   xmlns="http://www.w3.org/2000/svg"
   xmlns:sodipodi="http://sodipodi.sourceforge.net/DTD/sodipodi-0.dtd"
   xmlns:inkscape="http://www.inkscape.org/namespaces/inkscape"
   version="1"
   viewBox="0 0 24 24"
   id="svg6"
   sodipodi:docname="appointment-soon-symbolic.svg"
   inkscape:version="0.92.4 (5da689c313, 2019-01-14)">
  <metadata
     id="metadata12">
    <rdf:RDF>
      <cc:Work
         rdf:about="">
        <dc:format>image/svg+xml</dc:format>
        <dc:type
           rdf:resource="http://purl.org/dc/dcmitype/StillImage" />
        <dc:title></dc:title>
      </cc:Work>
    </rdf:RDF>
  </metadata>
  <defs
     id="defs10" />
  <sodipodi:namedview
     pagecolor="#ffffff"
     bordercolor="#666666"
     borderopacity="1"
     objecttolerance="10"
     gridtolerance="10"
     guidetolerance="10"
     inkscape:pageopacity="0"
     inkscape:pageshadow="2"
     inkscape:window-width="1085"
     inkscape:window-height="480"
     id="namedview8"
     showgrid="false"
     inkscape:zoom="9.8333333"
     inkscape:cx="1.0677966"
     inkscape:cy="12"
     inkscape:window-x="0"
     inkscape:window-y="25"
     inkscape:window-maximized="0"
     inkscape:current-layer="svg6" />
  <path
     style="color:#000000;font-weight:400;font-variant-ligatures:normal;font-variant-position:normal;font-variant-caps:normal;font-variant-numeric:normal;font-variant-alternates:normal;font-feature-settings:normal;text-indent:0;text-decoration:none;text-decoration-line:none;text-decoration-style:solid;text-decoration-color:#000000;text-transform:none;text-orientation:mixed;white-space:normal;shape-padding:0;overflow:visible;isolation:auto;mix-blend-mode:normal;fill:#808080"
     d="m 11.36,2 a 9.39,9.39 0 0 0 -9.37,9.37 9.39,9.39 0 0 0 11.24,9.18 v -2.57 a 6.96,6.96 0 0 1 -1.87,0.26 6.85,6.85 0 0 1 -6.87,-6.87 c 0,-3.8 3.06,-6.87 6.87,-6.87 a 6.85,6.85 0 0 1 6.6,8.74 h 2.58 A 9.36,9.36 0 0 0 11.36,2 Z m 3.7,5 a 0.62,0.62 0 0 0 -0.09,0.01 v 0.01 a 0.62,0.62 0 0 0 -0.3,0.2 L 11.34,10.52 9.28,8.47 A 0.62,0.62 0 1 0 8.42,9.32 l 2.5,2.5 a 0.62,0.62 0 0 0 0.85,0 L 15.52,8.08 A 0.62,0.62 0 0 0 15.07,7 Z"
     font-weight="400"
     overflow="visible"
     id="path2"
     inkscape:connector-curvature="0" />
  <path
     style="color:#bebebe;overflow:visible;fill:#808080;marker:none"
     d="m 16,14.96 v 5.3 h 2.67 v -5.3 z m 0,6.62 v 1.33 h 2.67 v -1.33 z"
     overflow="visible"
     id="path4"
     inkscape:connector-curvature="0" />
</svg>
