<?xml version="1.0" encoding="UTF-8" standalone="no"?>
<svg
   xmlns:dc="http://purl.org/dc/elements/1.1/"
   xmlns:cc="http://creativecommons.org/ns#"
   xmlns:rdf="http://www.w3.org/1999/02/22-rdf-syntax-ns#"
   xmlns:svg="http://www.w3.org/2000/svg"
   xmlns="http://www.w3.org/2000/svg"
   xmlns:sodipodi="http://sodipodi.sourceforge.net/DTD/sodipodi-0.dtd"
   xmlns:inkscape="http://www.inkscape.org/namespaces/inkscape"
   width="24"
   height="24"
   version="1"
   id="svg8"
   sodipodi:docname="contact-new-symbolic.svg"
   inkscape:version="0.92.4 (5da689c313, 2019-01-14)">
  <metadata
     id="metadata14">
    <rdf:RDF>
      <cc:Work
         rdf:about="">
        <dc:format>image/svg+xml</dc:format>
        <dc:type
           rdf:resource="http://purl.org/dc/dcmitype/StillImage" />
        <dc:title></dc:title>
      </cc:Work>
    </rdf:RDF>
  </metadata>
  <defs
     id="defs12" />
  <sodipodi:namedview
     pagecolor="#ffffff"
     bordercolor="#666666"
     borderopacity="1"
     objecttolerance="10"
     gridtolerance="10"
     guidetolerance="10"
     inkscape:pageopacity="0"
     inkscape:pageshadow="2"
     inkscape:window-width="1085"
     inkscape:window-height="480"
     id="namedview10"
     showgrid="false"
     inkscape:zoom="9.8333333"
     inkscape:cx="1.0677966"
     inkscape:cy="12"
     inkscape:window-x="0"
     inkscape:window-y="25"
     inkscape:window-maximized="0"
     inkscape:current-layer="svg8" />
  <g
     id="g6"
     style="color:#000000;fill:#808080">
    <path
       d="M 9.83,0.384 C 8.543,0.298 7.283,1.053 6.534,2.069 5.804,3.386 6.4,4.952 5.944,6.341 c -0.277,0.995 0,2.055 0.723,2.775 0.621,0.781 1.384,1.8 0.959,2.85 -0.616,1.18 -1.839,1.873 -2.952,2.502 -0.295,0.12 -0.675,0.326 -0.99,0.57 -0.284,0.08 -0.509,0.294 -0.509,0.602 v 2.802 c 0,0.37 0.295,0.669 0.67,0.669 h 7.31 a 2.722,2.722 0 0 1 2.722,-2.708 h 2.63 V 14.984 C 15.03,14.187 13.377,13.408 12.55,11.851 12.266,10.614 13.136,9.531 13.898,8.671 14.65,7.716 14.353,6.456 14.091,5.385 13.981,4.202 14.361,2.8 13.481,1.831 12.525,0.863 11.147,0.466 9.833,0.384 Z"
       overflow="visible"
       style="overflow:visible;isolation:auto;mix-blend-mode:normal;marker:none"
       id="path2"
       inkscape:connector-curvature="0" />
    <path
       d="m 17.45,14.825 v 3.061 h -3.066 v 3.042 l 3.067,0.022 v 3.06 h 3.066 v -3.06 h 3.067 v -3.064 h -3.067 v -3.06 z"
       overflow="visible"
       style="overflow:visible;isolation:auto;mix-blend-mode:normal;marker:none"
       id="path4"
       inkscape:connector-curvature="0" />
  </g>
</svg>
