<?xml version="1.0" encoding="UTF-8" standalone="no"?>
<svg
   xmlns:dc="http://purl.org/dc/elements/1.1/"
   xmlns:cc="http://creativecommons.org/ns#"
   xmlns:rdf="http://www.w3.org/1999/02/22-rdf-syntax-ns#"
   xmlns:svg="http://www.w3.org/2000/svg"
   xmlns="http://www.w3.org/2000/svg"
   xmlns:sodipodi="http://sodipodi.sourceforge.net/DTD/sodipodi-0.dtd"
   xmlns:inkscape="http://www.inkscape.org/namespaces/inkscape"
   width="24"
   height="24"
   version="1"
   id="svg4"
   sodipodi:docname="document-properties-symbolic.svg"
   inkscape:version="0.92.4 (5da689c313, 2019-01-14)">
  <metadata
     id="metadata10">
    <rdf:RDF>
      <cc:Work
         rdf:about="">
        <dc:format>image/svg+xml</dc:format>
        <dc:type
           rdf:resource="http://purl.org/dc/dcmitype/StillImage" />
        <dc:title></dc:title>
      </cc:Work>
    </rdf:RDF>
  </metadata>
  <defs
     id="defs8" />
  <sodipodi:namedview
     pagecolor="#ffffff"
     bordercolor="#666666"
     borderopacity="1"
     objecttolerance="10"
     gridtolerance="10"
     guidetolerance="10"
     inkscape:pageopacity="0"
     inkscape:pageshadow="2"
     inkscape:window-width="1085"
     inkscape:window-height="480"
     id="namedview6"
     showgrid="false"
     inkscape:zoom="9.8333333"
     inkscape:cx="1.0677966"
     inkscape:cy="12"
     inkscape:window-x="0"
     inkscape:window-y="25"
     inkscape:window-maximized="0"
     inkscape:current-layer="svg4" />
  <path
     d="M 12,1 C 11.653,1 11.308,1.018 10.968,1.05 L 10.33,4.34 A 7.876,7.876 0 0 0 8.808,4.83 L 6.402,2.525 C 5.79,2.886 5.259,3.332 4.732,3.801 L 6.155,6.796 A 7.947,7.947 0 0 0 5.223,8.073 L 1.933,7.632 A 10.859,10.859 0 0 0 1.294,9.643 l 2.897,1.572 a 7.584,7.584 0 0 0 -0.047,0.786 c 0,0.271 0.02,0.521 0.047,0.785 l -2.897,1.572 c 0.153,0.699 0.359,1.37 0.638,2.013 l 3.291,-0.442 c 0.267,0.456 0.583,0.885 0.932,1.276 l -1.424,2.997 c 0.528,0.468 1.06,0.915 1.67,1.276 L 8.808,19.17 a 7.8,7.8 0 0 0 1.522,0.491 l 0.638,3.291 a 11.186,11.186 0 0 0 2.062,0 l 0.64,-3.29 a 7.786,7.786 0 0 0 1.52,-0.492 l 2.408,2.31 c 0.61,-0.362 1.143,-0.81 1.67,-1.278 l -1.425,-2.997 c 0.35,-0.391 0.667,-0.82 0.934,-1.276 l 3.289,0.442 a 10.859,10.859 0 0 0 0.64,-2.013 l -2.898,-1.572 c 0.027,-0.264 0.049,-0.514 0.049,-0.785 0,-0.272 -0.022,-0.522 -0.05,-0.786 L 22.706,9.643 A 10.856,10.856 0 0 0 22.066,7.63 l -3.29,0.442 A 7.947,7.947 0 0 0 17.843,6.794 L 19.267,3.8 C 18.741,3.332 18.208,2.886 17.598,2.524 L 15.19,4.83 A 7.88,7.88 0 0 0 13.67,4.34 L 13.03,1.05 A 11.186,11.186 0 0 0 12,1 Z m 0,6.286 a 4.7145,4.7145 0 1 1 0,9.429 4.7145,4.7145 0 0 1 0,-9.429 z"
     overflow="visible"
     id="path2"
     inkscape:connector-curvature="0"
     style="overflow:visible;fill:#808080" />
</svg>
