<?xml version="1.0" encoding="UTF-8" standalone="no"?>
<svg
   xmlns:dc="http://purl.org/dc/elements/1.1/"
   xmlns:cc="http://creativecommons.org/ns#"
   xmlns:rdf="http://www.w3.org/1999/02/22-rdf-syntax-ns#"
   xmlns:svg="http://www.w3.org/2000/svg"
   xmlns="http://www.w3.org/2000/svg"
   xmlns:sodipodi="http://sodipodi.sourceforge.net/DTD/sodipodi-0.dtd"
   xmlns:inkscape="http://www.inkscape.org/namespaces/inkscape"
   width="24"
   height="24"
   version="1"
   id="svg4"
   sodipodi:docname="document-save-symbolic.svg"
   inkscape:version="0.92.4 (5da689c313, 2019-01-14)">
  <metadata
     id="metadata10">
    <rdf:RDF>
      <cc:Work
         rdf:about="">
        <dc:format>image/svg+xml</dc:format>
        <dc:type
           rdf:resource="http://purl.org/dc/dcmitype/StillImage" />
        <dc:title></dc:title>
      </cc:Work>
    </rdf:RDF>
  </metadata>
  <defs
     id="defs8" />
  <sodipodi:namedview
     pagecolor="#ffffff"
     bordercolor="#666666"
     borderopacity="1"
     objecttolerance="10"
     gridtolerance="10"
     guidetolerance="10"
     inkscape:pageopacity="0"
     inkscape:pageshadow="2"
     inkscape:window-width="1085"
     inkscape:window-height="480"
     id="namedview6"
     showgrid="false"
     inkscape:zoom="9.8333333"
     inkscape:cx="1.0677966"
     inkscape:cy="12"
     inkscape:window-x="0"
     inkscape:window-y="25"
     inkscape:window-maximized="0"
     inkscape:current-layer="svg4" />
  <path
     d="m 5.152,1.457 c -0.76,0 -1.735,0.586 -1.826,1.307 l -1.805,14.37 c -0.013,0 -0.021,0.003 -0.021,0.014 h 21 c 0,-0.01 -0.008,-0.014 -0.021,-0.014 L 20.674,2.764 C 20.584,2.043 19.609,1.457 18.848,1.457 Z m 3.652,1.911 h 6.392 v 5.479 h 2.84 L 12,15.237 5.964,8.847 h 2.84 z M 22.5,17.891 1.5,17.893 c 0.424,3.693 0.213,3.635 1.05,3.635 6.681,0 18.557,0.044 18.859,0 0.77,0 0.665,-0.55 1.091,-3.637 z"
     id="path2"
     inkscape:connector-curvature="0"
     style="fill:#808080" />
</svg>
