<?xml version="1.0" encoding="UTF-8" standalone="no"?>
<svg
   xmlns:dc="http://purl.org/dc/elements/1.1/"
   xmlns:cc="http://creativecommons.org/ns#"
   xmlns:rdf="http://www.w3.org/1999/02/22-rdf-syntax-ns#"
   xmlns:svg="http://www.w3.org/2000/svg"
   xmlns="http://www.w3.org/2000/svg"
   xmlns:sodipodi="http://sodipodi.sourceforge.net/DTD/sodipodi-0.dtd"
   xmlns:inkscape="http://www.inkscape.org/namespaces/inkscape"
   width="24"
   height="24"
   version="1"
   id="svg4"
   sodipodi:docname="folder-new-symbolic.svg"
   inkscape:version="0.92.4 (5da689c313, 2019-01-14)">
  <metadata
     id="metadata10">
    <rdf:RDF>
      <cc:Work
         rdf:about="">
        <dc:format>image/svg+xml</dc:format>
        <dc:type
           rdf:resource="http://purl.org/dc/dcmitype/StillImage" />
        <dc:title></dc:title>
      </cc:Work>
    </rdf:RDF>
  </metadata>
  <defs
     id="defs8" />
  <sodipodi:namedview
     pagecolor="#ffffff"
     bordercolor="#666666"
     borderopacity="1"
     objecttolerance="10"
     gridtolerance="10"
     guidetolerance="10"
     inkscape:pageopacity="0"
     inkscape:pageshadow="2"
     inkscape:window-width="1085"
     inkscape:window-height="480"
     id="namedview6"
     showgrid="false"
     inkscape:zoom="9.8333333"
     inkscape:cx="1.0677966"
     inkscape:cy="12"
     inkscape:window-x="0"
     inkscape:window-y="25"
     inkscape:window-maximized="0"
     inkscape:current-layer="svg4" />
  <path
     d="M 2.67,3.476 A 1.67,1.67 0 0 0 0.994,5.148 V 7.94 c 0,0.043 0.011,0.083 0.014,0.125 v 8.168 H 0.992 v 2.616 a 1.67,1.67 0 0 0 1.674,1.674 H 21.33 a 1.67,1.67 0 0 0 1.674,-1.674 v -2.24 h 0.004 V 5.343 H 10.888 L 9.018,3.476 Z m 0.78,3.745 h 19.526 l 0.009,1.275 H 4.215 v 2.473 c 0,0.473 -0.313,0.854 -0.702,0.854 -0.388,0 -0.7,-0.381 -0.7,-0.854 V 8.075 c 0,-0.042 0.015,-0.079 0.02,-0.12 C 2.828,7.922 2.813,7.893 2.813,7.859 A 0.63,0.63 0 0 1 3.373,7.237 C 3.4,7.235 3.423,7.221 3.451,7.221 Z m 13.083,4.014 H 20.2 v 2.75 h 2.75 v 3.668 H 20.2 v 2.75 h -3.667 v -2.75 h -2.74 v -3.667 h 2.74 z"
     id="path2"
     inkscape:connector-curvature="0"
     style="fill:#808080;fill-opacity:0.99500002" />
</svg>
