<?xml version="1.0" encoding="UTF-8" standalone="no"?>
<svg
   xmlns:dc="http://purl.org/dc/elements/1.1/"
   xmlns:cc="http://creativecommons.org/ns#"
   xmlns:rdf="http://www.w3.org/1999/02/22-rdf-syntax-ns#"
   xmlns:svg="http://www.w3.org/2000/svg"
   xmlns="http://www.w3.org/2000/svg"
   xmlns:sodipodi="http://sodipodi.sourceforge.net/DTD/sodipodi-0.dtd"
   xmlns:inkscape="http://www.inkscape.org/namespaces/inkscape"
   width="24"
   height="24"
   version="1"
   id="svg4"
   sodipodi:docname="folder-move-symbolic.svg"
   inkscape:version="0.92.4 (5da689c313, 2019-01-14)">
  <metadata
     id="metadata10">
    <rdf:RDF>
      <cc:Work
         rdf:about="">
        <dc:format>image/svg+xml</dc:format>
        <dc:type
           rdf:resource="http://purl.org/dc/dcmitype/StillImage" />
        <dc:title></dc:title>
      </cc:Work>
    </rdf:RDF>
  </metadata>
  <defs
     id="defs8" />
  <sodipodi:namedview
     pagecolor="#ffffff"
     bordercolor="#666666"
     borderopacity="1"
     objecttolerance="10"
     gridtolerance="10"
     guidetolerance="10"
     inkscape:pageopacity="0"
     inkscape:pageshadow="2"
     inkscape:window-width="1085"
     inkscape:window-height="480"
     id="namedview6"
     showgrid="false"
     inkscape:zoom="9.8333333"
     inkscape:cx="1.0677966"
     inkscape:cy="12"
     inkscape:window-x="0"
     inkscape:window-y="25"
     inkscape:window-maximized="0"
     inkscape:current-layer="svg4" />
  <path
     d="m 1.922,0.592 c -0.76,0 -1.372,0.61 -1.372,1.368 v 2.285 c 0,0.036 0.01,0.069 0.011,0.104 v 6.683 H 0.55 v 2.139 c 0,0.76 0.61,1.371 1.369,1.371 h 3.62 v 5.395 H 5.524 v 2.14 c 0,0.465 0.267,0.813 0.62,1.06 l 9.533,-9.533 H 8.16 v 2.024 c 0,0.387 -0.254,0.7 -0.572,0.7 -0.318,0 -0.574,-0.313 -0.574,-0.7 v -2.367 c 0,-0.034 0.011,-0.066 0.015,-0.1 -0.004,-0.028 -0.015,-0.05 -0.015,-0.078 0,-0.266 0.202,-0.475 0.459,-0.508 0.022,-0.002 0.04,-0.025 0.062,-0.025 h 15.979 l 0.023,0.002 V 11.015 H 18.563 V 2.12 H 8.646 L 7.116,0.591 H 1.921 Z M 2.525,3.52 h 14.02 c 0.367,0 0.662,0.296 0.662,0.664 v 0.6 H 2.916 c -0.021,0 -0.04,0.009 -0.06,0.01 A 0.503,0.503 0 0 0 2.424,5.303 c 0,0.028 0.012,0.053 0.015,0.08 C 2.435,5.416 2.424,5.446 2.424,5.48 v 2.37 c 0,0.387 0.241,0.697 0.54,0.697 0.3,0 0.542,-0.31 0.542,-0.697 V 5.826 h 13.701 v 5.19 H 13.621 L 12.091,9.488 6.896,9.496 c -0.759,0 -1.37,0.61 -1.37,1.37 v 2.228 h -3 A 0.664,0.664 0 0 1 1.861,12.43 V 4.182 C 1.861,3.814 2.158,3.52 2.525,3.52 Z m 21.015,10.082 -0.02,0.002 h -4.652 l -9.844,9.841 h 4.721 L 23.54,13.65 Z m 0,3.175 -6.67,6.67 h 5.297 c 0.76,0 1.37,-0.612 1.37,-1.37 v -1.833 h 0.003 z"
     id="path2"
     inkscape:connector-curvature="0"
     style="fill:#808080" />
</svg>
