<?xml version="1.0" encoding="UTF-8" standalone="no"?>
<svg
   xmlns:dc="http://purl.org/dc/elements/1.1/"
   xmlns:cc="http://creativecommons.org/ns#"
   xmlns:rdf="http://www.w3.org/1999/02/22-rdf-syntax-ns#"
   xmlns:svg="http://www.w3.org/2000/svg"
   xmlns="http://www.w3.org/2000/svg"
   xmlns:sodipodi="http://sodipodi.sourceforge.net/DTD/sodipodi-0.dtd"
   xmlns:inkscape="http://www.inkscape.org/namespaces/inkscape"
   width="24"
   height="24"
   version="1.1"
   id="svg4"
   sodipodi:docname="mail-archive-symbolic.svg"
   inkscape:version="0.92.4 (5da689c313, 2019-01-14)">
  <metadata
     id="metadata10">
    <rdf:RDF>
      <cc:Work
         rdf:about="">
        <dc:format>image/svg+xml</dc:format>
        <dc:type
           rdf:resource="http://purl.org/dc/dcmitype/StillImage" />
        <dc:title></dc:title>
      </cc:Work>
    </rdf:RDF>
  </metadata>
  <defs
     id="defs8" />
  <sodipodi:namedview
     pagecolor="#ffffff"
     bordercolor="#666666"
     borderopacity="1"
     objecttolerance="10"
     gridtolerance="10"
     guidetolerance="10"
     inkscape:pageopacity="0"
     inkscape:pageshadow="2"
     inkscape:window-width="640"
     inkscape:window-height="480"
     id="namedview6"
     showgrid="false"
     inkscape:zoom="9.8333333"
     inkscape:cx="10.220339"
     inkscape:cy="12"
     inkscape:window-x="0"
     inkscape:window-y="25"
     inkscape:window-maximized="0"
     inkscape:current-layer="svg4" />
  <path
     d="m 7.111,3.441 v 1.221 h 9.778 V 3.442 H 7.11 Z M 5.605,4.94 a 9.58,9.5 0 0 0 -3.19,7.055 9.58,9.5 0 0 0 9.59,9.512 9.58,9.5 0 0 0 9.58,-9.5 9.58,9.5 0 0 0 -3.13,-7.014 v 11.193 h -3.85 a 2.56,2.56 0 0 1 -4.4,1.82 2.56,2.56 0 0 1 -0.75,-1.82 H 5.605 V 4.939 Z m 1.506,0.946 v 1.222 h 9.778 V 5.885 H 7.11 Z m 0,2.445 v 6.111 h 9.778 V 8.332 H 7.11 Z M 8.334,9.551 12,11.386 15.666,9.552 v 1.222 L 12,12.607 8.334,10.773 Z"
     id="path2"
     inkscape:connector-curvature="0"
     style="fill:#808080;fill-rule:evenodd" />
</svg>
