<?xml version="1.0" encoding="UTF-8" standalone="no"?>
<svg
   xmlns:dc="http://purl.org/dc/elements/1.1/"
   xmlns:cc="http://creativecommons.org/ns#"
   xmlns:rdf="http://www.w3.org/1999/02/22-rdf-syntax-ns#"
   xmlns:svg="http://www.w3.org/2000/svg"
   xmlns="http://www.w3.org/2000/svg"
   xmlns:sodipodi="http://sodipodi.sourceforge.net/DTD/sodipodi-0.dtd"
   xmlns:inkscape="http://www.inkscape.org/namespaces/inkscape"
   width="24"
   height="24"
   version="1.1"
   id="svg4"
   sodipodi:docname="zoom-original-symbolic.svg"
   inkscape:version="0.92.4 (5da689c313, 2019-01-14)">
  <metadata
     id="metadata10">
    <rdf:RDF>
      <cc:Work
         rdf:about="">
        <dc:format>image/svg+xml</dc:format>
        <dc:type
           rdf:resource="http://purl.org/dc/dcmitype/StillImage" />
        <dc:title></dc:title>
      </cc:Work>
    </rdf:RDF>
  </metadata>
  <defs
     id="defs8" />
  <sodipodi:namedview
     pagecolor="#ffffff"
     bordercolor="#666666"
     borderopacity="1"
     objecttolerance="10"
     gridtolerance="10"
     guidetolerance="10"
     inkscape:pageopacity="0"
     inkscape:pageshadow="2"
     inkscape:window-width="1085"
     inkscape:window-height="480"
     id="namedview6"
     showgrid="false"
     inkscape:zoom="9.8333333"
     inkscape:cx="1.0677966"
     inkscape:cy="12"
     inkscape:window-x="0"
     inkscape:window-y="25"
     inkscape:window-maximized="0"
     inkscape:current-layer="svg4" />
  <path
     d="m 1.552,9.737 2.79,2.79 2.792,-2.79 H 1.553 M 9.683,3.459 A 6.292,6.292 0 0 0 3.39,9.737 h 1.938 a 4.357,4.357 0 0 1 4.354,-4.341 4.358,4.358 0 1 1 -2.47,7.946 l -1.334,1.354 c 1.012,0.704 2.474,1.351 3.804,1.351 a 6.254,6.254 0 0 0 4.09,-1.516 l 0.267,0.267 v 0.765 l 4.841,4.832 1.443,-1.443 -4.832,-4.842 h -0.77 l -0.266,-0.266 a 6.233,6.233 0 0 0 1.52,-4.09 6.294,6.294 0 0 0 -6.293,-6.295 m 0,4.885 a 1.406,1.406 0 1 0 0,2.812 1.406,1.406 0 0 0 0,-2.812"
     id="path2"
     inkscape:connector-curvature="0"
     style="fill:#808080" />
</svg>
