<?xml version="1.0" encoding="UTF-8" standalone="no"?>
<svg
   xmlns:dc="http://purl.org/dc/elements/1.1/"
   xmlns:cc="http://creativecommons.org/ns#"
   xmlns:rdf="http://www.w3.org/1999/02/22-rdf-syntax-ns#"
   xmlns:svg="http://www.w3.org/2000/svg"
   xmlns="http://www.w3.org/2000/svg"
   xmlns:sodipodi="http://sodipodi.sourceforge.net/DTD/sodipodi-0.dtd"
   xmlns:inkscape="http://www.inkscape.org/namespaces/inkscape"
   width="24"
   height="24"
   version="1.1"
   id="svg4"
   sodipodi:docname="zoom-best-fit-symbolic.svg"
   inkscape:version="0.92.4 (5da689c313, 2019-01-14)">
  <metadata
     id="metadata10">
    <rdf:RDF>
      <cc:Work
         rdf:about="">
        <dc:format>image/svg+xml</dc:format>
        <dc:type
           rdf:resource="http://purl.org/dc/dcmitype/StillImage" />
        <dc:title></dc:title>
      </cc:Work>
    </rdf:RDF>
  </metadata>
  <defs
     id="defs8" />
  <sodipodi:namedview
     pagecolor="#ffffff"
     bordercolor="#666666"
     borderopacity="1"
     objecttolerance="10"
     gridtolerance="10"
     guidetolerance="10"
     inkscape:pageopacity="0"
     inkscape:pageshadow="2"
     inkscape:window-width="1085"
     inkscape:window-height="480"
     id="namedview6"
     showgrid="false"
     inkscape:zoom="9.8333333"
     inkscape:cx="1.0677966"
     inkscape:cy="12"
     inkscape:window-x="0"
     inkscape:window-y="25"
     inkscape:window-maximized="0"
     inkscape:current-layer="svg4" />
  <path
     d="m 7.255,12.255 v -2 h 1 v 1 h 1 v 1 h -2 m 5,0 v -2 h -1 v 1 h -1 v 1 h 2 m 0,-5 v 2 h -1 v -1 h -1 v -1 h 2 m -5,0 v 2 h 1 v -1 h 1 v -1 h -2 m 2.5,-4 a 6.5,6.5 0 1 0 0,13 6.46,6.46 0 0 0 4.224,-1.565 l 0.276,0.275 v 0.79 l 5,4.99 1.49,-1.49 -4.99,-5 H 14.96 L 14.684,13.98 a 6.437,6.437 0 0 0 1.571,-4.225 6.5,6.5 0 0 0 -6.5,-6.5 m 0,2 a 4.5,4.5 0 1 1 0,9 4.5,4.5 0 0 1 0,-9 z"
     id="path2"
     inkscape:connector-curvature="0"
     style="fill:#808080" />
</svg>
