<?xml version="1.0" encoding="UTF-8" standalone="no"?>
<svg
   xmlns:dc="http://purl.org/dc/elements/1.1/"
   xmlns:cc="http://creativecommons.org/ns#"
   xmlns:rdf="http://www.w3.org/1999/02/22-rdf-syntax-ns#"
   xmlns:svg="http://www.w3.org/2000/svg"
   xmlns="http://www.w3.org/2000/svg"
   xmlns:xlink="http://www.w3.org/1999/xlink"
   xmlns:sodipodi="http://sodipodi.sourceforge.net/DTD/sodipodi-0.dtd"
   xmlns:inkscape="http://www.inkscape.org/namespaces/inkscape"
   width="48"
   height="48"
   viewBox="0 0 12.7 12.7"
   version="1.1"
   id="svg16"
   sodipodi:docname="face-tired.svg"
   inkscape:version="0.92.4 (5da689c313, 2019-01-14)">
  <metadata
     id="metadata20">
    <rdf:RDF>
      <cc:Work
         rdf:about="">
        <dc:format>image/svg+xml</dc:format>
        <dc:type
           rdf:resource="http://purl.org/dc/dcmitype/StillImage" />
        <dc:title></dc:title>
      </cc:Work>
    </rdf:RDF>
  </metadata>
  <sodipodi:namedview
     pagecolor="#ffffff"
     bordercolor="#666666"
     borderopacity="1"
     objecttolerance="10"
     gridtolerance="10"
     guidetolerance="10"
     inkscape:pageopacity="0"
     inkscape:pageshadow="2"
     inkscape:window-width="1087"
     inkscape:window-height="480"
     id="namedview18"
     showgrid="false"
     inkscape:zoom="4.9166667"
     inkscape:cx="2.1355932"
     inkscape:cy="24"
     inkscape:window-x="0"
     inkscape:window-y="25"
     inkscape:window-maximized="0"
     inkscape:current-layer="svg16" />
  <defs
     id="defs8">
    <linearGradient
       id="a">
      <stop
         offset="0"
         stop-color="#5beedc"
         stop-opacity="0"
         id="stop2" />
      <stop
         offset="1"
         stop-color="#5beedc"
         id="stop4" />
    </linearGradient>
    <radialGradient
       xlink:href="#a"
       id="b"
       cx="5.72"
       cy="10.09"
       fx="5.72"
       fy="10.09"
       r="3.14"
       gradientTransform="matrix(0.81413315,0.03776981,-0.01825007,0.4698176,1.1300044,4.0599793)"
       gradientUnits="userSpaceOnUse" />
  </defs>
  <path
     d="m 6.32,0.05 a 6.29,6.29 0 0 0 -6.3,6.3 6.29,6.29 0 0 0 6.3,6.28 6.29,6.29 0 0 0 6.29,-6.3 A 6.29,6.29 0 0 0 6.3,0.06 Z M 6.3,0.98 A 5.4,5.4 0 0 1 11.7,6.38 5.4,5.4 0 0 1 6.3,11.8 5.4,5.4 0 0 1 0.9,6.4 5.4,5.4 0 0 1 6.3,0.98 Z m 1.97,1.3 a 0.6,0.6 0 0 0 -0.15,0 C 7.8,2.32 7.48,2.62 7.15,3.38 7.1,3.51 7.19,3.68 7.35,3.58 7.94,2.51 8.39,2.58 9.2,3.22 9.36,3.24 9.36,3 9.31,2.97 8.97,2.65 8.62,2.32 8.27,2.27 Z M 4.86,2.88 C 4.54,2.87 4.17,3.1 3.7,3.78 3.62,3.91 3.69,4.1 3.86,4.02 4.64,3.08 5.06,3.22 5.75,4.01 5.9,4.06 5.95,3.82 5.9,3.79 5.58,3.35 5.27,2.91 4.86,2.89 Z M 8.02,4.83 A 1.66,3.12 74.44 0 0 6.53,5 1.66,3.12 74.44 0 0 3.9,7.42 1.66,3.12 74.44 0 0 7.28,8.25 1.66,3.12 74.44 0 0 9.93,5.83 1.66,3.12 74.44 0 0 8.03,4.83 Z M 7.79,5.17 A 1.3,2.65 74.39 0 1 9.46,5.87 1.3,2.65 74.39 0 1 7.3,7.84 1.3,2.65 74.39 0 1 4.36,7.34 1.3,2.65 74.39 0 1 6.52,5.37 1.3,2.65 74.39 0 1 7.79,5.17 Z M 9.55,7.61 C 9.5,7.6 9.46,7.61 9.43,7.64 9.03,8.07 8.55,8.34 8.03,8.47 7.93,8.49 7.91,8.6 7.95,8.67 L 7.96,8.69 C 8,8.75 8.09,8.74 8.18,8.72 A 2.8,2.8 0 0 0 9.58,7.9 C 9.64,7.83 9.7,7.76 9.66,7.7 L 9.64,7.67 A 0.15,0.15 0 0 0 9.54,7.61 Z"
     id="path10"
     inkscape:connector-curvature="0"
     style="fill:#5beedc" />
  <path
     d="M 5.32,8.43 4.92,7.92 4.71,8.26 C 4.25,8.72 4.07,9.13 3.93,9.53 c -0.16,0.6 0.21,1.1 0.68,1.19 0.48,0.1 1.12,-0.21 1,-0.83 A 3.34,3.34 0 0 1 5.31,8.43 Z M 4.6,9.25 H 4.66 C 4.76,9.31 4.77,9.52 4.67,9.73 4.57,9.93 4.4,10.05 4.29,10 4.19,9.95 4.18,9.74 4.28,9.53 4.36,9.37 4.48,9.25 4.6,9.25 Z"
     id="path12"
     inkscape:connector-curvature="0"
     style="opacity:0.75;fill:#008080" />
  <ellipse
     cx="5.2900205"
     cy="8.1599579"
     rx="3.0400116"
     ry="1.6499915"
     transform="matrix(0.96841626,-0.24933904,0.21931112,0.97565498,0,0)"
     id="ellipse14"
     style="fill:url(#b)" />
</svg>
