<?xml version="1.0" encoding="UTF-8" standalone="no"?>
<svg
   xmlns:dc="http://purl.org/dc/elements/1.1/"
   xmlns:cc="http://creativecommons.org/ns#"
   xmlns:rdf="http://www.w3.org/1999/02/22-rdf-syntax-ns#"
   xmlns:svg="http://www.w3.org/2000/svg"
   xmlns="http://www.w3.org/2000/svg"
   xmlns:sodipodi="http://sodipodi.sourceforge.net/DTD/sodipodi-0.dtd"
   xmlns:inkscape="http://www.inkscape.org/namespaces/inkscape"
   width="48"
   height="48"
   viewBox="0 0 12.7 12.7"
   version="1.1"
   id="svg4"
   sodipodi:docname="face-angel.svg"
   inkscape:version="0.92.4 (5da689c313, 2019-01-14)">
  <metadata
     id="metadata10">
    <rdf:RDF>
      <cc:Work
         rdf:about="">
        <dc:format>image/svg+xml</dc:format>
        <dc:type
           rdf:resource="http://purl.org/dc/dcmitype/StillImage" />
        <dc:title></dc:title>
      </cc:Work>
    </rdf:RDF>
  </metadata>
  <defs
     id="defs8" />
  <sodipodi:namedview
     pagecolor="#ffffff"
     bordercolor="#666666"
     borderopacity="1"
     objecttolerance="10"
     gridtolerance="10"
     guidetolerance="10"
     inkscape:pageopacity="0"
     inkscape:pageshadow="2"
     inkscape:window-width="1087"
     inkscape:window-height="480"
     id="namedview6"
     showgrid="false"
     inkscape:zoom="4.9166667"
     inkscape:cx="2.1355932"
     inkscape:cy="24"
     inkscape:window-x="0"
     inkscape:window-y="25"
     inkscape:window-maximized="0"
     inkscape:current-layer="svg4" />
  <path
     d="M 6.34,0.07 A 6.29,6.29 0 0 0 3.97,0.54 5.48,1.49 0 0 0 0.86,1.88 5.48,1.49 0 0 0 1.37,2.5 6.29,6.29 0 0 0 0.05,6.37 6.29,6.29 0 0 0 6.35,12.65 6.29,6.29 0 0 0 12.63,6.36 6.29,6.29 0 0 0 11.3,2.5 5.48,1.49 0 0 0 11.82,1.88 5.48,1.49 0 0 0 8.7,0.54 6.29,6.29 0 0 0 6.34,0.07 Z M 6.32,1 6.33,1.01 A 5.4,5.4 0 0 1 9.99,2.45 4.74,0.93 0 0 1 6.34,2.78 4.74,0.93 0 0 1 2.66,2.44 5.4,5.4 0 0 1 6.32,1 Z M 2.65,1.27 A 6.29,6.29 0 0 0 1.75,2.07 4.74,0.93 0 0 1 1.6,1.85 4.74,0.93 0 0 1 2.65,1.27 Z m 7.38,0 a 4.74,0.93 0 0 1 1.04,0.58 4.74,0.93 0 0 1 -0.14,0.22 6.29,6.29 0 0 0 -0.9,-0.8 z m -7.79,1.6 a 5.48,1.49 0 0 0 4.1,0.5 5.48,1.49 0 0 0 4.06,-0.5 5.4,5.4 0 0 1 1.33,3.54 5.4,5.4 0 0 1 -5.4,5.41 A 5.4,5.4 0 0 1 0.92,6.42 5.4,5.4 0 0 1 2.24,2.87 Z M 8.34,4 A 0.66,1.55 0 0 0 7.69,5.54 0.66,1.55 0 0 0 8.34,7.09 0.66,1.55 0 0 0 9,5.54 0.66,1.55 0 0 0 8.34,4 Z M 4.36,4.03 A 0.66,1.55 0 0 0 3.7,5.57 0.66,1.55 0 0 0 4.36,7.12 0.66,1.55 0 0 0 5,5.57 0.66,1.55 0 0 0 4.35,4.03 Z m 3.97,0.41 a 0.2,0.3 0 0 1 0.2,0.3 0.2,0.3 0 0 1 -0.2,0.3 0.2,0.3 0 0 1 -0.2,-0.3 0.2,0.3 0 0 1 0.2,-0.3 z M 4.34,4.47 a 0.2,0.3 0 0 1 0.2,0.3 0.2,0.3 0 0 1 -0.2,0.3 0.2,0.3 0 0 1 -0.2,-0.3 0.2,0.3 0 0 1 0.2,-0.3 z m 5.2,3.36 c -0.02,0 -0.03,0 -0.05,0.02 -2,1.95 -4.09,2.21 -6.29,0 -0.07,-0.07 -0.07,0.09 -0.07,0.2 0,0.1 0,0.1 0.07,0.19 2.1,2.13 4.2,2.08 6.3,0 0.06,-0.09 0.04,-0.12 0.04,-0.22 0,-0.08 0.02,-0.18 0,-0.19 z m -3.97,2.63 c -0.06,0.14 -0.1,0.27 0,0.4 0.59,0.25 1.1,0.18 1.6,0 a 0.4,0.4 0 0 0 0,-0.4 c -0.5,0.2 -1.02,0.26 -1.6,0 z"
     id="path2"
     inkscape:connector-curvature="0"
     style="fill:#5beedc" />
</svg>
