<?xml version="1.0" encoding="UTF-8" standalone="no"?>
<svg
   xmlns:dc="http://purl.org/dc/elements/1.1/"
   xmlns:cc="http://creativecommons.org/ns#"
   xmlns:rdf="http://www.w3.org/1999/02/22-rdf-syntax-ns#"
   xmlns:svg="http://www.w3.org/2000/svg"
   xmlns="http://www.w3.org/2000/svg"
   xmlns:sodipodi="http://sodipodi.sourceforge.net/DTD/sodipodi-0.dtd"
   xmlns:inkscape="http://www.inkscape.org/namespaces/inkscape"
   width="48"
   height="48"
   viewBox="0 0 12.7 12.7"
   version="1.1"
   id="svg12"
   sodipodi:docname="face-glasses.svg"
   inkscape:version="0.92.4 (5da689c313, 2019-01-14)">
  <metadata
     id="metadata18">
    <rdf:RDF>
      <cc:Work
         rdf:about="">
        <dc:format>image/svg+xml</dc:format>
        <dc:type
           rdf:resource="http://purl.org/dc/dcmitype/StillImage" />
        <dc:title></dc:title>
      </cc:Work>
    </rdf:RDF>
  </metadata>
  <defs
     id="defs16" />
  <sodipodi:namedview
     pagecolor="#ffffff"
     bordercolor="#666666"
     borderopacity="1"
     objecttolerance="10"
     gridtolerance="10"
     guidetolerance="10"
     inkscape:pageopacity="0"
     inkscape:pageshadow="2"
     inkscape:window-width="1087"
     inkscape:window-height="480"
     id="namedview14"
     showgrid="false"
     inkscape:zoom="4.9166667"
     inkscape:cx="2.1355932"
     inkscape:cy="24"
     inkscape:window-x="0"
     inkscape:window-y="25"
     inkscape:window-maximized="0"
     inkscape:current-layer="svg12" />
  <path
     style="overflow:visible;fill:#5beedc;marker:none"
     d="M 6.34,0.07 A 6.29,6.29 0 0 0 0.05,6.37 6.29,6.29 0 0 0 6.35,12.65 6.29,6.29 0 0 0 12.63,6.36 6.29,6.29 0 0 0 6.34,0.07 Z M 6.32,1 6.33,1.01 a 5.4,5.4 0 0 1 5.4,5.4 5.4,5.4 0 0 1 -5.4,5.41 A 5.4,5.4 0 0 1 0.92,6.42 5.4,5.4 0 0 1 6.32,1 Z M 3.7,4.03 A 0.66,0.71 0 0 0 3.04,4.74 0.66,0.71 0 0 0 3.7,5.46 0.66,0.71 0 0 0 4.37,4.74 0.66,0.71 0 0 0 3.7,4.04 Z m 5.16,0 A 0.66,0.71 0 0 0 8.19,4.74 0.66,0.71 0 0 0 8.86,5.46 0.66,0.71 0 0 0 9.52,4.74 0.66,0.71 0 0 0 8.86,4.04 Z M 3.68,4.25 a 0.23,0.1 0 0 1 0.02,0 0.23,0.1 0 0 1 0.23,0.09 0.23,0.1 0 0 1 -0.23,0.1 0.23,0.1 0 0 1 -0.23,-0.1 0.23,0.1 0 0 1 0.21,-0.1 z m 5.16,0 a 0.23,0.1 0 0 1 0.02,0 0.23,0.1 0 0 1 0.22,0.09 0.23,0.1 0 0 1 -0.22,0.1 0.23,0.1 0 0 1 -0.23,-0.1 0.23,0.1 0 0 1 0.2,-0.1 z M 9.51,7.49 9.47,7.51 c -2,1.95 -4.09,2.2 -6.29,0 -0.07,-0.07 -0.07,0.09 -0.07,0.2 0,0.1 0,0.1 0.07,0.18 2.1,2.14 4.2,2.09 6.3,0 C 9.54,7.81 9.52,7.79 9.52,7.67 9.52,7.6 9.53,7.5 9.51,7.49 Z m -3.96,2.63 c -0.06,0.14 -0.1,0.27 0,0.39 0.59,0.26 1.1,0.19 1.6,0 a 0.4,0.4 0 0 0 0,-0.39 c -0.5,0.2 -1.03,0.26 -1.6,0 z"
     overflow="visible"
     id="path2"
     inkscape:connector-curvature="0" />
  <g
     transform="matrix(0.20866,0,0,0.19956,1.42,2.39)"
     id="g10"
     style="fill:none;stroke:#5beedc;stroke-width:1.96000004;stroke-linecap:round;stroke-linejoin:round">
    <circle
       style="overflow:visible;marker:none"
       cx="11.49"
       cy="12.47"
       r="9.5500002"
       overflow="visible"
       id="circle4" />
    <circle
       transform="translate(24.16)"
       style="overflow:visible;marker:none"
       cx="11.49"
       cy="12.47"
       r="9.5500002"
       overflow="visible"
       id="circle6" />
    <path
       d="m 21.04,12.47 a 9.55,9.55 0 0 1 -7.83,9.39"
       style="overflow:visible;stroke-width:3.38000011;marker:none"
       transform="matrix(-0.3786,-0.4377,0.45191,-0.3667,22.26,21.46)"
       overflow="visible"
       id="path8"
       inkscape:connector-curvature="0" />
  </g>
</svg>
