<?xml version="1.0" encoding="UTF-8" standalone="no"?>
<svg
   xmlns:dc="http://purl.org/dc/elements/1.1/"
   xmlns:cc="http://creativecommons.org/ns#"
   xmlns:rdf="http://www.w3.org/1999/02/22-rdf-syntax-ns#"
   xmlns:svg="http://www.w3.org/2000/svg"
   xmlns="http://www.w3.org/2000/svg"
   xmlns:sodipodi="http://sodipodi.sourceforge.net/DTD/sodipodi-0.dtd"
   xmlns:inkscape="http://www.inkscape.org/namespaces/inkscape"
   width="48"
   height="48"
   viewBox="0 0 12.7 12.7"
   version="1.1"
   id="svg4"
   sodipodi:docname="face-sick.svg"
   inkscape:version="0.92.4 (5da689c313, 2019-01-14)">
  <metadata
     id="metadata10">
    <rdf:RDF>
      <cc:Work
         rdf:about="">
        <dc:format>image/svg+xml</dc:format>
        <dc:type
           rdf:resource="http://purl.org/dc/dcmitype/StillImage" />
        <dc:title></dc:title>
      </cc:Work>
    </rdf:RDF>
  </metadata>
  <defs
     id="defs8" />
  <sodipodi:namedview
     pagecolor="#ffffff"
     bordercolor="#666666"
     borderopacity="1"
     objecttolerance="10"
     gridtolerance="10"
     guidetolerance="10"
     inkscape:pageopacity="0"
     inkscape:pageshadow="2"
     inkscape:window-width="1087"
     inkscape:window-height="480"
     id="namedview6"
     showgrid="false"
     inkscape:zoom="4.9166667"
     inkscape:cx="2.1355932"
     inkscape:cy="24"
     inkscape:window-x="0"
     inkscape:window-y="25"
     inkscape:window-maximized="0"
     inkscape:current-layer="svg4" />
  <path
     style="overflow:visible;fill:#5beedc;marker:none"
     d="M 6.34,0.07 A 6.29,6.29 0 0 0 0.05,6.37 6.29,6.29 0 0 0 6.35,12.65 6.29,6.29 0 0 0 12.63,6.36 6.29,6.29 0 0 0 6.34,0.07 Z M 6.32,1 6.33,1.01 a 5.4,5.4 0 0 1 5.4,5.4 5.4,5.4 0 0 1 -5.4,5.41 A 5.4,5.4 0 0 1 0.92,6.42 5.4,5.4 0 0 1 6.32,1 Z M 5.23,3.77 A 9.2,9.2 0 0 0 3.27,4.36 C 3.13,4.83 3.27,5.58 3.52,5.73 3.88,5.95 4.5,5.56 4.91,4.88 5.14,4.48 5.25,4.08 5.23,3.77 Z m 2.22,0 C 7.43,4.08 7.55,4.49 7.78,4.87 8.18,5.57 8.8,5.95 9.16,5.73 9.42,5.58 9.55,4.83 9.41,4.36 A 9.2,9.2 0 0 0 7.45,3.76 Z M 3.66,4.54 a 0.2,0.3 0 0 1 0.2,0.3 0.2,0.3 0 0 1 -0.2,0.3 0.2,0.3 0 0 1 -0.19,-0.3 0.2,0.3 0 0 1 0.2,-0.3 z m 5.36,0 a 0.2,0.3 0 0 1 0.2,0.3 0.2,0.3 0 0 1 -0.2,0.3 0.2,0.3 0 0 1 -0.2,-0.3 0.2,0.3 0 0 1 0.2,-0.3 z M 3.2,5.9 3.05,5.92 c 0.02,0.24 0.1,0.48 0.3,0.54 0.38,0.13 0.87,0 1.33,-0.37 L 4.48,5.98 C 4.12,6.19 3.72,6.33 3.46,6.24 3.32,6.19 3.24,6.06 3.2,5.9 Z m 6.28,0 C 9.44,6.06 9.36,6.2 9.23,6.24 8.96,6.33 8.56,6.19 8.2,5.98 L 8,6.09 C 8.46,6.46 8.95,6.59 9.33,6.46 9.53,6.4 9.61,6.16 9.63,5.92 Z M 3.41,7.24 C 3.3,7.24 3.23,7.26 3.21,7.25 5.08,7.8 6.18,9.55 8.28,9.53 8.58,9.53 8.9,9.49 9.25,9.4 L 9.38,8.96 C 6.82,9.65 6.08,7.9 3.9,7.3 A 1.59,1.59 0 0 0 3.41,7.24 Z m 2,1.71 -0.12,0.3 C 5.84,9.68 6.4,10.07 7.12,10.06 7.17,9.91 7.17,9.86 7.21,9.71 6.49,9.74 5.96,9.36 5.41,8.95 Z"
     overflow="visible"
     id="path2"
     inkscape:connector-curvature="0" />
</svg>
