<?xml version="1.0" encoding="UTF-8" standalone="no"?>
<svg
   xmlns:dc="http://purl.org/dc/elements/1.1/"
   xmlns:cc="http://creativecommons.org/ns#"
   xmlns:rdf="http://www.w3.org/1999/02/22-rdf-syntax-ns#"
   xmlns:svg="http://www.w3.org/2000/svg"
   xmlns="http://www.w3.org/2000/svg"
   xmlns:sodipodi="http://sodipodi.sourceforge.net/DTD/sodipodi-0.dtd"
   xmlns:inkscape="http://www.inkscape.org/namespaces/inkscape"
   width="48"
   height="48"
   viewBox="0 0 12.7 12.7"
   version="1.1"
   id="svg4"
   sodipodi:docname="face-smirk.svg"
   inkscape:version="0.92.4 (5da689c313, 2019-01-14)">
  <metadata
     id="metadata10">
    <rdf:RDF>
      <cc:Work
         rdf:about="">
        <dc:format>image/svg+xml</dc:format>
        <dc:type
           rdf:resource="http://purl.org/dc/dcmitype/StillImage" />
        <dc:title></dc:title>
      </cc:Work>
    </rdf:RDF>
  </metadata>
  <defs
     id="defs8" />
  <sodipodi:namedview
     pagecolor="#ffffff"
     bordercolor="#666666"
     borderopacity="1"
     objecttolerance="10"
     gridtolerance="10"
     guidetolerance="10"
     inkscape:pageopacity="0"
     inkscape:pageshadow="2"
     inkscape:window-width="1087"
     inkscape:window-height="480"
     id="namedview6"
     showgrid="false"
     inkscape:zoom="4.9166667"
     inkscape:cx="2.1355932"
     inkscape:cy="24"
     inkscape:window-x="0"
     inkscape:window-y="25"
     inkscape:window-maximized="0"
     inkscape:current-layer="svg4" />
  <path
     d="M 6.34,0.07 A 6.29,6.29 0 0 0 0.05,6.37 6.29,6.29 0 0 0 6.35,12.65 6.29,6.29 0 0 0 12.63,6.36 6.29,6.29 0 0 0 6.34,0.07 Z M 6.32,1 6.33,1.01 a 5.4,5.4 0 0 1 5.4,5.4 5.4,5.4 0 0 1 -5.4,5.41 A 5.4,5.4 0 0 1 0.92,6.42 5.4,5.4 0 0 1 6.32,1 Z M 4.5,2.43 C 4.19,2.41 3.81,2.64 3.35,3.33 3.27,3.45 3.33,3.63 3.5,3.56 4.28,2.61 4.71,2.76 5.4,3.55 5.54,3.6 5.59,3.36 5.54,3.33 5.23,2.89 4.91,2.45 4.5,2.43 Z m 3.65,0 C 7.74,2.45 7.42,2.89 7.11,3.33 7.06,3.36 7.11,3.6 7.26,3.55 7.94,2.76 8.36,2.61 9.15,3.56 9.32,3.64 9.38,3.46 9.3,3.33 8.83,2.64 8.46,2.41 8.15,2.43 Z M 4.47,3.57 A 0.66,1.55 0 0 0 3.82,5.12 0.66,1.55 0 0 0 4.47,6.66 0.66,1.55 0 0 0 5.13,5.12 0.66,1.55 0 0 0 4.47,3.57 Z m 3.7,0 A 0.66,1.55 0 0 0 7.52,5.12 0.66,1.55 0 0 0 8.17,6.66 0.66,1.55 0 0 0 8.83,5.12 0.66,1.55 0 0 0 8.17,3.57 Z M 4.46,4 A 0.2,0.3 0 0 1 4.66,4.3 0.2,0.3 0 0 1 4.46,4.6 0.2,0.3 0 0 1 4.26,4.3 0.2,0.3 0 0 1 4.46,4 Z M 8.19,4 A 0.2,0.3 0 0 1 8.39,4.3 0.2,0.3 0 0 1 8.19,4.6 0.2,0.3 0 0 1 7.99,4.3 0.2,0.3 0 0 1 8.19,4 Z M 9.85,6.25 C 8.7,9.18 6.72,9.65 4.35,9 l 0.13,0.3 c 2.34,0.76 4.28,0.47 5.5,-2.74 z M 8.36,9.49 c -0.52,0.55 -1.12,0.62 -1.74,0.63 l 0.1,0.32 c 0.62,0 1.21,-0.13 1.74,-0.63 z"
     id="path2"
     inkscape:connector-curvature="0"
     style="fill:#5beedc" />
</svg>
