<?xml version="1.0" encoding="UTF-8" standalone="no"?>
<svg
   xmlns:dc="http://purl.org/dc/elements/1.1/"
   xmlns:cc="http://creativecommons.org/ns#"
   xmlns:rdf="http://www.w3.org/1999/02/22-rdf-syntax-ns#"
   xmlns:svg="http://www.w3.org/2000/svg"
   xmlns="http://www.w3.org/2000/svg"
   xmlns:sodipodi="http://sodipodi.sourceforge.net/DTD/sodipodi-0.dtd"
   xmlns:inkscape="http://www.inkscape.org/namespaces/inkscape"
   width="48"
   height="48"
   viewBox="0 0 12.7 12.7"
   version="1.1"
   id="svg8"
   sodipodi:docname="face-kiss.svg"
   inkscape:version="0.92.4 (5da689c313, 2019-01-14)">
  <metadata
     id="metadata14">
    <rdf:RDF>
      <cc:Work
         rdf:about="">
        <dc:format>image/svg+xml</dc:format>
        <dc:type
           rdf:resource="http://purl.org/dc/dcmitype/StillImage" />
        <dc:title></dc:title>
      </cc:Work>
    </rdf:RDF>
  </metadata>
  <defs
     id="defs12" />
  <sodipodi:namedview
     pagecolor="#ffffff"
     bordercolor="#666666"
     borderopacity="1"
     objecttolerance="10"
     gridtolerance="10"
     guidetolerance="10"
     inkscape:pageopacity="0"
     inkscape:pageshadow="2"
     inkscape:window-width="1087"
     inkscape:window-height="480"
     id="namedview10"
     showgrid="false"
     inkscape:zoom="4.9166667"
     inkscape:cx="2.1355932"
     inkscape:cy="24"
     inkscape:window-x="0"
     inkscape:window-y="25"
     inkscape:window-maximized="0"
     inkscape:current-layer="svg8" />
  <path
     d="m 3.5,8.31 c 1.43,-0.14 0.72,-1.7 1.85,-1.7 0.85,0 0.69,0.56 1,0.56 0.28,0 0.14,-0.56 1,-0.56 1.13,0 0.42,1.56 1.84,1.7 -1.7,0.14 -1.13,1.99 -2.84,1.99 -1.71,0 -1.14,-1.85 -2.84,-2 z"
     id="path2"
     inkscape:connector-curvature="0"
     style="opacity:0.75;fill:#ff2a2a" />
  <path
     d="M 3.51,8.3 C 4.94,8.16 4.23,6.6 5.36,6.6 c 0.85,0 0.69,0.56 1,0.56 0.28,0 0.14,-0.56 1,-0.56 1.13,0 0.42,1.56 1.84,1.7 -1.7,0.14 -1.13,1.99 -2.84,1.99 -1.71,0 -1.14,-1.85 -2.84,-2 z"
     id="path4"
     inkscape:connector-curvature="0"
     style="fill:none;stroke:#5beedc;stroke-width:0.34;stroke-linecap:round;stroke-linejoin:round" />
  <path
     d="m 6.32,0.05 a 6.29,6.29 0 0 0 -6.3,6.3 6.29,6.29 0 0 0 6.3,6.28 6.29,6.29 0 0 0 6.29,-6.3 A 6.29,6.29 0 0 0 6.3,0.06 Z M 6.3,0.98 A 5.4,5.4 0 0 1 11.7,6.38 5.4,5.4 0 0 1 6.3,11.8 5.4,5.4 0 0 1 0.9,6.4 5.4,5.4 0 0 1 6.3,0.98 Z M 4.58,3 C 3.99,3.02 3.38,3.28 2.7,4.09 L 2.47,4.37 2.74,4.13 C 3.78,3.33 4.54,3.2 5.24,3.53 5.34,3.58 5.41,3.37 5.38,3.23 5.36,3.09 5.26,3.07 5.15,3.05 A 2.63,2.63 0 0 0 4.58,3 Z M 8.07,3 C 7.87,3 7.68,3.01 7.49,3.05 7.39,3.07 7.29,3.09 7.26,3.23 7.24,3.37 7.3,3.58 7.4,3.53 8.11,3.2 8.87,3.33 9.9,4.13 10.07,4.26 10.17,4.37 10.17,4.37 10.18,4.36 10.05,4.21 9.95,4.09 9.27,3.28 8.65,3.02 8.07,2.99 Z M 7.94,4.66 C 7.64,4.66 7.36,4.75 7.09,4.86 6.96,4.92 6.84,4.98 6.84,5.12 6.84,5.26 6.97,5.43 7.09,5.37 7.7,5.06 8.3,4.93 8.89,5.37 8.99,5.45 9.14,5.26 9.14,5.12 9.14,4.98 9.01,4.93 8.88,4.87 A 1.92,1.92 0 0 0 7.94,4.66 Z m -3.25,0 C 4.39,4.65 4.08,4.71 3.74,4.87 3.62,4.93 3.49,4.98 3.49,5.12 c 0,0.14 0.14,0.34 0.25,0.25 0.58,-0.43 1.19,-0.3 1.8,0 C 5.66,5.44 5.79,5.27 5.79,5.12 5.79,4.98 5.66,4.92 5.54,4.87 5.26,4.75 4.98,4.67 4.69,4.66 Z m 0.96,3.19 c -0.4,0.35 -2.1,0.5 -2.1,0.5 0,0 1.57,-0.15 1.92,-0.15 0.35,0 0.88,0.52 0.88,0.52 0,0 0.53,-0.52 0.88,-0.52 0.35,0 1.93,0.15 1.93,0.15 0,0 -1.63,-0.15 -2.11,-0.5 -0.52,0.35 -0.7,0.7 -0.7,0.7 0,0 -0.18,-0.35 -0.7,-0.7 z"
     id="path6"
     inkscape:connector-curvature="0"
     style="fill:#5beedc" />
</svg>
