<?xml version="1.0" encoding="UTF-8" standalone="no"?>
<svg
   xmlns:dc="http://purl.org/dc/elements/1.1/"
   xmlns:cc="http://creativecommons.org/ns#"
   xmlns:rdf="http://www.w3.org/1999/02/22-rdf-syntax-ns#"
   xmlns:svg="http://www.w3.org/2000/svg"
   xmlns="http://www.w3.org/2000/svg"
   xmlns:sodipodi="http://sodipodi.sourceforge.net/DTD/sodipodi-0.dtd"
   xmlns:inkscape="http://www.inkscape.org/namespaces/inkscape"
   width="48"
   height="48"
   viewBox="0 0 12.7 12.7"
   version="1.1"
   id="svg21"
   sodipodi:docname="face-smile-big.svg"
   inkscape:version="0.92.4 (5da689c313, 2019-01-14)">
  <metadata
     id="metadata25">
    <rdf:RDF>
      <cc:Work
         rdf:about="">
        <dc:format>image/svg+xml</dc:format>
        <dc:type
           rdf:resource="http://purl.org/dc/dcmitype/StillImage" />
        <dc:title></dc:title>
      </cc:Work>
    </rdf:RDF>
  </metadata>
  <sodipodi:namedview
     pagecolor="#ffffff"
     bordercolor="#666666"
     borderopacity="1"
     objecttolerance="10"
     gridtolerance="10"
     guidetolerance="10"
     inkscape:pageopacity="0"
     inkscape:pageshadow="2"
     inkscape:window-width="1087"
     inkscape:window-height="480"
     id="namedview23"
     showgrid="false"
     inkscape:zoom="4.9166667"
     inkscape:cx="2.1355932"
     inkscape:cy="24"
     inkscape:window-x="0"
     inkscape:window-y="25"
     inkscape:window-maximized="0"
     inkscape:current-layer="svg21" />
  <defs
     id="defs17">
    <radialGradient
       id="a"
       gradientUnits="userSpaceOnUse"
       cy="10.05"
       cx="12.05"
       gradientTransform="matrix(2.4092 0 0 1.2046 -5.02 23.4)"
       r="9.55">
      <stop
         offset="0"
         id="stop2" />
      <stop
         stop-opacity="0"
         offset="1"
         id="stop4" />
    </radialGradient>
    <linearGradient
       id="b"
       y2="9.67"
       gradientUnits="userSpaceOnUse"
       y1="8.31"
       x2="19.35"
       x1="19.1">
      <stop
         stop-color="#edd400"
         offset="0"
         id="stop7" />
      <stop
         stop-color="#fce94f"
         stop-opacity="0"
         offset="1"
         id="stop9" />
    </linearGradient>
    <radialGradient
       id="c"
       gradientUnits="userSpaceOnUse"
       cy="10.05"
       cx="12.05"
       gradientTransform="matrix(2.4092 0 0 1.2046 -5.02 23.4)"
       r="9.55">
      <stop
         offset="0"
         id="stop12" />
      <stop
         stop-opacity="0"
         offset="1"
         id="stop14" />
    </radialGradient>
  </defs>
  <path
     d="m 6.32,0.05 a 6.29,6.29 0 0 0 -6.3,6.3 6.29,6.29 0 0 0 6.3,6.28 6.29,6.29 0 0 0 6.29,-6.3 A 6.29,6.29 0 0 0 6.3,0.06 Z M 6.3,0.98 A 5.4,5.4 0 0 1 11.7,6.38 5.4,5.4 0 0 1 6.3,11.8 5.4,5.4 0 0 1 0.9,6.4 5.4,5.4 0 0 1 6.3,0.98 Z M 4.22,2.82 C 3.9,2.8 3.52,3.04 3.06,3.72 2.98,3.85 3.05,4.03 3.21,3.96 4,3.01 4.43,3.16 5.11,3.94 5.26,3.99 5.31,3.76 5.26,3.72 4.94,3.28 4.62,2.84 4.22,2.82 Z m 4.37,0 C 8.28,2.8 7.91,3.04 7.44,3.72 7.36,3.85 7.42,4.03 7.59,3.96 8.37,3.01 8.8,3.16 9.49,3.94 9.63,3.99 9.68,3.76 9.64,3.72 9.32,3.28 9,2.84 8.59,2.82 Z M 3.07,5.56 C 3.02,5.58 3.04,5.67 3.04,5.79 c 0,0.15 0.02,0.2 0.1,0.33 2.2,3.29 4.3,2.9 6.37,0 C 9.6,6 9.63,5.97 9.63,5.82 9.63,5.67 9.65,5.53 9.51,5.57 a 10.37,10.37 0 0 1 -6.44,0 z m 0.65,0.5 h 0.06 c 0.34,0.1 0.67,0.18 0.99,0.23 L 4.72,7.02 4.2,6.97 A 7.03,7.03 0 0 1 3.78,6.46 C 3.71,6.36 3.69,6.32 3.69,6.21 3.69,6.13 3.68,6.07 3.72,6.05 Z m 5.1,0 c 0.12,-0.03 0.1,0.07 0.1,0.18 0,0.1 -0.03,0.13 -0.1,0.22 C 8.68,6.64 8.53,6.8 8.39,6.96 L 7.89,7.01 7.84,6.27 C 8.17,6.21 8.5,6.14 8.82,6.06 Z M 7.8,6.28 7.74,7.03 7.12,7.14 C 7.32,7.12 7.64,7.16 7.75,7.18 L 7.78,7.52 C 7.31,7.89 6.83,8.1 6.35,8.12 L 6.42,7.26 7.12,7.14 6.42,7.11 6.35,6.41 c 0.5,0 0.98,-0.05 1.45,-0.13 z M 4.8,6.3 C 5.33,6.4 5.83,6.42 6.3,6.42 L 6.23,7.11 5.49,7.15 6.23,7.26 6.31,8.12 C 5.81,8.13 5.32,7.95 4.82,7.56 L 4.86,7.19 C 4.96,7.18 5.29,7.14 5.49,7.15 L 4.86,7.05 4.81,6.3 Z M 8.3,7.06 C 8.15,7.21 8,7.34 7.86,7.46 L 7.88,7.17 c 0.04,0 0.21,-0.06 0.42,-0.11 z m -4.02,0 0.45,0.13 0.02,0.32 A 4.79,4.79 0 0 1 4.28,7.06 Z m 1.05,1.7 c -0.08,0.18 -0.12,0.34 0,0.5 0.73,0.32 1.37,0.23 1.97,0 a 0.52,0.52 0 0 0 0,-0.5 c -0.61,0.26 -1.26,0.33 -1.97,0 z"
     id="path19"
     inkscape:connector-curvature="0"
     style="fill:#5beedc" />
</svg>
