<?xml version="1.0" encoding="UTF-8" standalone="no"?>
<svg
   xmlns:dc="http://purl.org/dc/elements/1.1/"
   xmlns:cc="http://creativecommons.org/ns#"
   xmlns:rdf="http://www.w3.org/1999/02/22-rdf-syntax-ns#"
   xmlns:svg="http://www.w3.org/2000/svg"
   xmlns="http://www.w3.org/2000/svg"
   xmlns:sodipodi="http://sodipodi.sourceforge.net/DTD/sodipodi-0.dtd"
   xmlns:inkscape="http://www.inkscape.org/namespaces/inkscape"
   width="48"
   height="48"
   viewBox="0 0 12.7 12.7"
   version="1.1"
   id="svg4"
   sodipodi:docname="face-sad.svg"
   inkscape:version="0.92.4 (5da689c313, 2019-01-14)">
  <metadata
     id="metadata10">
    <rdf:RDF>
      <cc:Work
         rdf:about="">
        <dc:format>image/svg+xml</dc:format>
        <dc:type
           rdf:resource="http://purl.org/dc/dcmitype/StillImage" />
        <dc:title></dc:title>
      </cc:Work>
    </rdf:RDF>
  </metadata>
  <defs
     id="defs8" />
  <sodipodi:namedview
     pagecolor="#ffffff"
     bordercolor="#666666"
     borderopacity="1"
     objecttolerance="10"
     gridtolerance="10"
     guidetolerance="10"
     inkscape:pageopacity="0"
     inkscape:pageshadow="2"
     inkscape:window-width="1087"
     inkscape:window-height="480"
     id="namedview6"
     showgrid="false"
     inkscape:zoom="4.9166667"
     inkscape:cx="2.1355932"
     inkscape:cy="24"
     inkscape:window-x="0"
     inkscape:window-y="25"
     inkscape:window-maximized="0"
     inkscape:current-layer="svg4" />
  <path
     d="M 6.34,0.07 A 6.29,6.29 0 0 0 0.05,6.37 6.29,6.29 0 0 0 6.35,12.65 6.29,6.29 0 0 0 12.63,6.36 6.29,6.29 0 0 0 6.34,0.07 Z M 6.32,1 6.33,1.01 a 5.4,5.4 0 0 1 5.4,5.4 5.4,5.4 0 0 1 -5.4,5.41 A 5.4,5.4 0 0 1 0.92,6.42 5.4,5.4 0 0 1 6.32,1 Z M 4.42,3.4 A 7.71,7.71 0 0 1 3.2,5.72 c 0.14,0.62 0.41,1.06 0.73,1.06 0.44,0 0.8,-0.86 0.8,-1.9 0,-0.6 -0.11,-1.14 -0.3,-1.48 z m 3.82,0 c -0.18,0.34 -0.3,0.88 -0.3,1.47 0,1.05 0.36,1.9 0.8,1.9 0.32,0 0.6,-0.43 0.73,-1.05 A 7.5,7.5 0 0 1 8.24,3.4 Z M 8.5,5.55 A 0.21,0.33 0 0 1 8.71,5.88 0.21,0.33 0 0 1 8.5,6.2 0.21,0.33 0 0 1 8.29,5.88 0.21,0.33 0 0 1 8.49,5.55 Z M 4.14,5.58 A 0.21,0.33 0 0 1 4.35,5.91 0.21,0.33 0 0 1 4.15,6.23 0.21,0.33 0 0 1 3.93,5.91 0.21,0.33 0 0 1 4.14,5.58 Z m 2.21,1.8 C 5.3,7.37 4.25,7.89 3.2,8.96 3.13,9.04 3.13,9.04 3.13,9.15 c 0,0.1 0,0.27 0.07,0.19 2.2,-2.2 4.29,-1.95 6.3,0 0.01,0.02 0.02,0.02 0.03,0.02 0.03,-0.01 0,-0.1 0,-0.18 C 9.53,9.07 9.56,9.04 9.49,8.96 8.45,7.9 7.4,7.38 6.35,7.37 Z M 6.4,8.42 C 6.14,8.41 5.86,8.46 5.57,8.59 c -0.1,0.12 -0.06,0.25 0,0.39 0.58,-0.26 1.1,-0.2 1.6,0 a 0.4,0.4 0 0 0 0,-0.4 C 6.92,8.49 6.67,8.43 6.4,8.42 Z"
     id="path2"
     inkscape:connector-curvature="0"
     style="fill:#5beedc" />
</svg>
