<?xml version="1.0" encoding="UTF-8" standalone="no"?>
<svg
   xmlns:dc="http://purl.org/dc/elements/1.1/"
   xmlns:cc="http://creativecommons.org/ns#"
   xmlns:rdf="http://www.w3.org/1999/02/22-rdf-syntax-ns#"
   xmlns:svg="http://www.w3.org/2000/svg"
   xmlns="http://www.w3.org/2000/svg"
   xmlns:sodipodi="http://sodipodi.sourceforge.net/DTD/sodipodi-0.dtd"
   xmlns:inkscape="http://www.inkscape.org/namespaces/inkscape"
   width="48"
   height="48"
   viewBox="0 0 12.7 12.7"
   version="1.1"
   id="svg4"
   sodipodi:docname="face-monkey.svg"
   inkscape:version="0.92.4 (5da689c313, 2019-01-14)">
  <metadata
     id="metadata10">
    <rdf:RDF>
      <cc:Work
         rdf:about="">
        <dc:format>image/svg+xml</dc:format>
        <dc:type
           rdf:resource="http://purl.org/dc/dcmitype/StillImage" />
        <dc:title></dc:title>
      </cc:Work>
    </rdf:RDF>
  </metadata>
  <defs
     id="defs8" />
  <sodipodi:namedview
     pagecolor="#ffffff"
     bordercolor="#666666"
     borderopacity="1"
     objecttolerance="10"
     gridtolerance="10"
     guidetolerance="10"
     inkscape:pageopacity="0"
     inkscape:pageshadow="2"
     inkscape:window-width="1087"
     inkscape:window-height="480"
     id="namedview6"
     showgrid="false"
     inkscape:zoom="4.9166667"
     inkscape:cx="2.1355932"
     inkscape:cy="24"
     inkscape:window-x="0"
     inkscape:window-y="25"
     inkscape:window-maximized="0"
     inkscape:current-layer="svg4" />
  <path
     d="M 6.34,0.07 A 6.29,6.29 0 0 0 4.03,0.52 2.52,2.43 0 0 0 2.64,0.12 2.52,2.43 0 0 0 0.12,2.55 2.52,2.43 0 0 0 0.55,3.9 6.29,6.29 0 0 0 0.05,6.36 6.29,6.29 0 0 0 6.35,12.64 6.29,6.29 0 0 0 12.63,6.35 6.29,6.29 0 0 0 12.14,3.92 2.52,2.43 0 0 0 12.6,2.54 2.52,2.43 0 0 0 10.07,0.12 2.52,2.43 0 0 0 8.67,0.52 6.29,6.29 0 0 0 6.35,0.07 Z m 3.73,0.95 A 1.58,1.52 0 0 1 11.66,2.55 1.58,1.52 0 0 1 11.6,2.93 6.29,6.29 0 0 0 9.73,1.06 1.58,1.52 0 0 1 10.07,1.02 Z m -7.43,0 A 1.58,1.52 0 0 1 2.97,1.06 6.29,6.29 0 0 0 1.1,2.89 1.58,1.52 0 0 1 1.06,2.55 1.58,1.52 0 0 1 2.64,1.02 Z M 3,2.82 C 4.07,2.79 5.39,3.7 6.34,5.17 7.61,3.22 9.51,2.25 10.64,3.16 a 5.4,5.4 0 0 1 1.08,2.96 C 11.7,6.72 11.47,7.4 10.46,7.65 a 3.54,3.54 0 0 1 -1.2,3.3 5.4,5.4 0 0 1 -2.93,0.87 5.4,5.4 0 0 1 -2.88,-0.83 C 2.69,10.22 2.02,9.39 2.22,7.65 1.12,7.38 0.95,6.6 0.96,5.95 L 0.94,6.02 a 5.4,5.4 0 0 1 1,-2.78 C 2.24,2.96 2.61,2.82 3,2.81 Z M 3.7,4.29 A 0.9,0.97 0 0 0 2.8,5.27 0.9,0.97 0 0 0 3.7,6.25 0.9,0.97 0 0 0 4.62,5.27 0.9,0.97 0 0 0 3.7,4.31 Z m 5.16,0 A 0.9,0.97 0 0 0 7.94,5.27 0.9,0.97 0 0 0 8.86,6.25 0.9,0.97 0 0 0 9.76,5.27 0.9,0.97 0 0 0 8.86,4.31 Z M 3.67,4.59 A 0.32,0.14 0 0 1 3.7,4.59 0.32,0.14 0 0 1 4.01,4.72 0.32,0.14 0 0 1 3.7,4.86 0.32,0.14 0 0 1 3.38,4.72 0.32,0.14 0 0 1 3.68,4.58 Z m 5.15,0 h 0.01 a 0.32,0.14 0 0 1 0.03,0 0.32,0.14 0 0 1 0.3,0.13 A 0.32,0.14 0 0 1 8.86,4.86 0.32,0.14 0 0 1 8.55,4.72 0.32,0.14 0 0 1 8.82,4.58 Z M 5.72,6.95 A 0.3,0.59 76.61 0 0 5.49,6.98 0.3,0.59 76.61 0 0 4.99,7.41 0.3,0.59 76.61 0 0 5.63,7.56 0.3,0.59 76.61 0 0 6.13,7.14 0.3,0.59 76.61 0 0 5.71,6.95 Z m 1.27,0 A 0.59,0.3 13.39 0 0 6.57,7.14 0.59,0.3 13.39 0 0 7.07,7.56 0.59,0.3 13.39 0 0 7.71,7.41 0.59,0.3 13.39 0 0 7.21,6.98 0.59,0.3 13.39 0 0 6.99,6.95 Z M 9.51,7.49 9.47,7.51 c -2,1.95 -4.09,2.2 -6.29,0 -0.07,-0.07 -0.07,0.09 -0.07,0.2 0,0.1 0,0.1 0.07,0.18 2.1,2.14 4.2,2.09 6.3,0 C 9.54,7.81 9.52,7.79 9.52,7.67 9.52,7.6 9.53,7.5 9.51,7.49 Z m -3.96,2.63 c -0.06,0.14 -0.1,0.27 0,0.39 0.59,0.26 1.1,0.19 1.6,0 a 0.4,0.4 0 0 0 0,-0.39 c -0.5,0.2 -1.03,0.26 -1.6,0 z"
     id="path2"
     inkscape:connector-curvature="0"
     style="fill:#5beedc" />
</svg>
