<?xml version="1.0" encoding="UTF-8" standalone="no"?>
<svg
   xmlns:dc="http://purl.org/dc/elements/1.1/"
   xmlns:cc="http://creativecommons.org/ns#"
   xmlns:rdf="http://www.w3.org/1999/02/22-rdf-syntax-ns#"
   xmlns:svg="http://www.w3.org/2000/svg"
   xmlns="http://www.w3.org/2000/svg"
   xmlns:sodipodi="http://sodipodi.sourceforge.net/DTD/sodipodi-0.dtd"
   xmlns:inkscape="http://www.inkscape.org/namespaces/inkscape"
   width="48"
   height="48"
   viewBox="0 0 12.7 12.7"
   version="1.1"
   id="svg4"
   sodipodi:docname="face-cool.svg"
   inkscape:version="0.92.4 (5da689c313, 2019-01-14)">
  <metadata
     id="metadata10">
    <rdf:RDF>
      <cc:Work
         rdf:about="">
        <dc:format>image/svg+xml</dc:format>
        <dc:type
           rdf:resource="http://purl.org/dc/dcmitype/StillImage" />
        <dc:title></dc:title>
      </cc:Work>
    </rdf:RDF>
  </metadata>
  <defs
     id="defs8" />
  <sodipodi:namedview
     pagecolor="#ffffff"
     bordercolor="#666666"
     borderopacity="1"
     objecttolerance="10"
     gridtolerance="10"
     guidetolerance="10"
     inkscape:pageopacity="0"
     inkscape:pageshadow="2"
     inkscape:window-width="1087"
     inkscape:window-height="480"
     id="namedview6"
     showgrid="false"
     inkscape:zoom="4.9166667"
     inkscape:cx="2.1355932"
     inkscape:cy="24"
     inkscape:window-x="0"
     inkscape:window-y="25"
     inkscape:window-maximized="0"
     inkscape:current-layer="svg4" />
  <path
     d="M 6.34,0.07 A 6.29,6.29 0 0 0 0.05,6.37 6.29,6.29 0 0 0 6.35,12.65 6.29,6.29 0 0 0 12.63,6.36 6.29,6.29 0 0 0 6.34,0.07 Z M 6.32,1 6.33,1.01 a 5.4,5.4 0 0 1 4.82,2.97 C 10.87,3.88 10.55,3.84 10.2,3.84 9.19,3.84 7.98,4.25 7.01,4.88 6.61,4.65 6.17,4.55 5.65,4.89 A 6.27,6.27 0 0 0 2.45,3.84 C 2.1,3.84 1.78,3.89 1.5,3.99 A 5.4,5.4 0 0 1 6.32,1 Z m -4,3.21 C 2.94,4.17 4.22,4.56 4.46,4.91 4.16,4.63 2.97,4.41 2.38,4.46 1.45,4.51 1.13,5.03 1.13,5.03 c 0,0 0.16,-0.75 1.19,-0.82 z m 8.02,0 c 1.02,0.07 1.18,0.82 1.18,0.82 0,0 -0.32,-0.52 -1.25,-0.57 C 9.67,4.42 8.48,4.63 8.19,4.91 8.42,4.56 9.71,4.17 10.34,4.21 Z M 6.29,5.09 c 0.15,0 0.28,0.04 0.42,0.11 a 0.6,0.6 0 0 0 0.08,0.42 c 1.16,1.54 3.84,1.27 4.9,0.2 a 5.4,5.4 0 0 1 0.04,0.59 5.4,5.4 0 0 1 -5.4,5.41 5.4,5.4 0 0 1 -5.41,-5.4 5.4,5.4 0 0 1 0.03,-0.6 C 2.01,6.89 4.7,7.16 5.86,5.62 A 0.6,0.6 0 0 0 5.94,5.19 C 6.06,5.12 6.18,5.09 6.29,5.09 Z M 9.53,7.38 9.49,7.4 C 7.49,9.34 5.4,9.6 3.2,7.4 3.13,7.32 3.13,7.48 3.13,7.59 c 0,0.1 0,0.1 0.07,0.19 2.1,2.13 4.2,2.09 6.3,0 0.06,-0.08 0.04,-0.11 0.04,-0.22 0,-0.08 0.02,-0.17 0,-0.18 z M 5.57,10 c -0.06,0.13 -0.1,0.26 0,0.39 0.59,0.25 1.1,0.19 1.6,0 a 0.4,0.4 0 0 0 0,-0.4 c -0.5,0.2 -1.02,0.27 -1.6,0 z"
     id="path2"
     inkscape:connector-curvature="0"
     style="fill:#5beedc" />
</svg>
