<?xml version="1.0" encoding="UTF-8" standalone="no"?>
<svg
   xmlns:dc="http://purl.org/dc/elements/1.1/"
   xmlns:cc="http://creativecommons.org/ns#"
   xmlns:rdf="http://www.w3.org/1999/02/22-rdf-syntax-ns#"
   xmlns:svg="http://www.w3.org/2000/svg"
   xmlns="http://www.w3.org/2000/svg"
   xmlns:sodipodi="http://sodipodi.sourceforge.net/DTD/sodipodi-0.dtd"
   xmlns:inkscape="http://www.inkscape.org/namespaces/inkscape"
   width="24"
   height="24"
   viewBox="0 0 6.35 6.35"
   version="1.1"
   id="svg10"
   sodipodi:docname="applications-utilities-symbolic.svg"
   inkscape:version="0.92.4 (5da689c313, 2019-01-14)">
  <metadata
     id="metadata16">
    <rdf:RDF>
      <cc:Work
         rdf:about="">
        <dc:format>image/svg+xml</dc:format>
        <dc:type
           rdf:resource="http://purl.org/dc/dcmitype/StillImage" />
        <dc:title></dc:title>
      </cc:Work>
    </rdf:RDF>
  </metadata>
  <defs
     id="defs14" />
  <sodipodi:namedview
     pagecolor="#ffffff"
     bordercolor="#666666"
     borderopacity="1"
     objecttolerance="10"
     gridtolerance="10"
     guidetolerance="10"
     inkscape:pageopacity="0"
     inkscape:pageshadow="2"
     inkscape:window-width="1085"
     inkscape:window-height="480"
     id="namedview12"
     showgrid="false"
     inkscape:zoom="9.8333333"
     inkscape:cx="1.0677966"
     inkscape:cy="12"
     inkscape:window-x="0"
     inkscape:window-y="25"
     inkscape:window-maximized="0"
     inkscape:current-layer="svg10" />
  <g
     transform="matrix(0.70317793,0.69743326,-0.69743326,0.70317793,205.84917,-205.71081)"
     id="g8"
     style="fill:#808080">
    <path
       d="m 1.944,292.838 a 0.422,0.422 0 0 0 -0.058,10e-4 l 0.773,0.787 0.923,0.183 c 1.658,0.33 1.88,-0.056 1.88,-0.056 0,0 -0.08,-0.237 -0.935,-0.407 l -2.524,-0.5 a 0.398,0.398 0 0 0 -0.06,-0.007 z m 2.433,0.641 0.626,0.124 c -0.034,0.128 -0.477,0.044 -0.626,-0.124 z"
       id="path2"
       inkscape:connector-curvature="0"
       style="opacity:0.8" />
    <path
       d="m 3.413,291.348 c -0.145,-0.015 -0.47,0.198 -0.626,0.354 l -0.97,0.97 a 0.45,0.45 0 0 0 -0.054,0.064 l 0.632,0.631 a 0.46,0.46 0 0 0 0.063,-0.053 l 0.44,-0.44 c 0.209,-0.209 0.354,-0.39 0.453,-0.552 L 3.26,292.23 3.03,292.46 a 0.133,0.133 0 0 1 -0.189,0 l -0.033,-0.032 a 0.133,0.133 0 0 1 0,-0.188 l 0.353,-0.353 a 0.113,0.113 0 0 1 0.16,0 l 0.162,0.163 c 0.085,-0.25 0.075,-0.586 -0.02,-0.681 a 0.08,0.08 0 0 0 -0.05,-0.021 z m -0.294,0.234 c 0.088,0.1 -0.214,0.416 -0.437,0.447 z m -0.517,3.783 -0.238,-0.07 c -0.691,-0.206 -0.828,-0.024 -0.828,-0.024 0,0 0.123,0.369 0.926,0.608 l 0.82,0.243 a 0.352,0.352 0 0 0 0.078,0.015"
       id="path4"
       inkscape:connector-curvature="0" />
    <rect
       transform="rotate(-45)"
       x="-206.828"
       y="207.95"
       width="0.93699998"
       height="4.4000001"
       rx="0.44800001"
       ry="0.44800001"
       id="rect6" />
  </g>
</svg>
