<?xml version="1.0" encoding="UTF-8" standalone="no"?>
<svg
   xmlns:dc="http://purl.org/dc/elements/1.1/"
   xmlns:cc="http://creativecommons.org/ns#"
   xmlns:rdf="http://www.w3.org/1999/02/22-rdf-syntax-ns#"
   xmlns:svg="http://www.w3.org/2000/svg"
   xmlns="http://www.w3.org/2000/svg"
   xmlns:sodipodi="http://sodipodi.sourceforge.net/DTD/sodipodi-0.dtd"
   xmlns:inkscape="http://www.inkscape.org/namespaces/inkscape"
   width="24"
   height="24"
   viewBox="0 0 6.35 6.35"
   version="1.1"
   id="svg4"
   sodipodi:docname="applications-games-symbolic.svg"
   inkscape:version="0.92.4 (5da689c313, 2019-01-14)">
  <metadata
     id="metadata10">
    <rdf:RDF>
      <cc:Work
         rdf:about="">
        <dc:format>image/svg+xml</dc:format>
        <dc:type
           rdf:resource="http://purl.org/dc/dcmitype/StillImage" />
        <dc:title></dc:title>
      </cc:Work>
    </rdf:RDF>
  </metadata>
  <defs
     id="defs8" />
  <sodipodi:namedview
     pagecolor="#ffffff"
     bordercolor="#666666"
     borderopacity="1"
     objecttolerance="10"
     gridtolerance="10"
     guidetolerance="10"
     inkscape:pageopacity="0"
     inkscape:pageshadow="2"
     inkscape:window-width="1085"
     inkscape:window-height="480"
     id="namedview6"
     showgrid="false"
     inkscape:zoom="9.8333333"
     inkscape:cx="12"
     inkscape:cy="12"
     inkscape:window-x="0"
     inkscape:window-y="25"
     inkscape:window-maximized="0"
     inkscape:current-layer="svg4" />
  <path
     d="m 1.538,1.715 c -0.043,0 -0.072,0.02 -0.082,0.058 L 0.97500003,4.218 C 0.91100003,4.458 1.417,4.745 1.752,4.552 l 0.78,-1.135 h 1.276 l 0.78,1.135 C 4.922,4.745 5.428,4.458 5.365,4.218 L 4.885,1.773 C 4.875,1.736 4.845,1.715 4.802,1.715 Z M 2.101,2 a 0.07,0.07 0 0 1 0.005,0 h 0.142 a 0.07,0.07 0 0 1 0.071,0.071 v 0.213 h 0.213 a 0.07,0.07 0 0 1 0.07,0.07 V 2.496 A 0.07,0.07 0 0 1 2.532,2.567 H 2.319 V 2.78 A 0.07,0.07 0 0 1 2.249,2.851 H 2.106 A 0.07,0.07 0 0 1 2.036,2.781 V 2.567 H 1.823 A 0.07,0.07 0 0 1 1.752,2.497 V 2.354 a 0.07,0.07 0 0 1 0.07,-0.07 H 2.036 V 2.07 A 0.07,0.07 0 0 1 2.1,2 Z M 4.152,2 A 0.142,0.142 0 0 1 4.163,2 0.142,0.142 0 0 1 4.305,2.142 0.142,0.142 0 0 1 4.163,2.284 0.142,0.142 0 0 1 4.021,2.142 0.142,0.142 0 0 1 4.152,2 Z M 3.869,2.284 a 0.142,0.142 0 0 1 0.01,0 A 0.142,0.142 0 0 1 4.021,2.425 0.142,0.142 0 0 1 3.879,2.567 0.142,0.142 0 0 1 3.737,2.425 0.142,0.142 0 0 1 3.869,2.284 Z m 0.567,0 a 0.142,0.142 0 0 1 0.01,0 A 0.142,0.142 0 0 1 4.588,2.425 0.142,0.142 0 0 1 4.446,2.567 0.142,0.142 0 0 1 4.305,2.425 0.142,0.142 0 0 1 4.435,2.284 Z M 4.152,2.567 a 0.142,0.142 0 0 1 0.011,0 A 0.142,0.142 0 0 1 4.305,2.709 0.142,0.142 0 0 1 4.163,2.851 0.142,0.142 0 0 1 4.021,2.709 0.142,0.142 0 0 1 4.152,2.567 Z"
     id="path2"
     inkscape:connector-curvature="0"
     style="fill:#808080" />
</svg>
