<?xml version="1.0" encoding="UTF-8" standalone="no"?>
<svg
   xmlns:dc="http://purl.org/dc/elements/1.1/"
   xmlns:cc="http://creativecommons.org/ns#"
   xmlns:rdf="http://www.w3.org/1999/02/22-rdf-syntax-ns#"
   xmlns:svg="http://www.w3.org/2000/svg"
   xmlns="http://www.w3.org/2000/svg"
   xmlns:sodipodi="http://sodipodi.sourceforge.net/DTD/sodipodi-0.dtd"
   xmlns:inkscape="http://www.inkscape.org/namespaces/inkscape"
   width="24"
   height="24"
   viewBox="0 0 6.35 6.35"
   version="1.1"
   id="svg4"
   sodipodi:docname="applications-multimedia-symbolic.svg"
   inkscape:version="0.92.4 (5da689c313, 2019-01-14)">
  <metadata
     id="metadata10">
    <rdf:RDF>
      <cc:Work
         rdf:about="">
        <dc:format>image/svg+xml</dc:format>
        <dc:type
           rdf:resource="http://purl.org/dc/dcmitype/StillImage" />
        <dc:title></dc:title>
      </cc:Work>
    </rdf:RDF>
  </metadata>
  <defs
     id="defs8" />
  <sodipodi:namedview
     pagecolor="#ffffff"
     bordercolor="#666666"
     borderopacity="1"
     objecttolerance="10"
     gridtolerance="10"
     guidetolerance="10"
     inkscape:pageopacity="0"
     inkscape:pageshadow="2"
     inkscape:window-width="1085"
     inkscape:window-height="480"
     id="namedview6"
     showgrid="false"
     inkscape:zoom="9.8333333"
     inkscape:cx="1.0677966"
     inkscape:cy="12"
     inkscape:window-x="0"
     inkscape:window-y="25"
     inkscape:window-maximized="0"
     inkscape:current-layer="svg4" />
  <path
     d="M 1.408,1.35 1.395,1.355 1.39,1.368 v 2.9 C 1.399,4.319 1.37,4.391 1.408,4.428 H 2.556 A 0.62,0.62 0 0 0 2.319,4.896 C 2.302,5.162 2.559,5.383 2.817,5.359 3.167,5.341 3.488,5.001 3.451,4.639 V 4.428 H 3.986 A 0.582,0.582 0 0 0 3.948,4.56 c -0.052,0.233 0.11,0.468 0.333,0.534 0.417,0.137 0.884,-0.266 0.834,-0.697 0,-0.808 0.004,-1.616 0,-2.425 C 5.105,1.892 5.043,1.812 4.955,1.815 4.668,1.861 4.38,1.905 4.093,1.949 V 1.35 Z M 1.854,1.47 H 3.63 V 2.02 C 3.511,2.04 3.392,2.057 3.274,2.076 3.121,2.153 3.176,2.347 3.166,2.484 V 2.876 H 1.856 V 1.47 Z M 1.528,1.488 H 1.714 V 1.675 H 1.528 Z m 2.239,0 H 3.953 V 1.675 H 3.767 Z M 1.527,1.861 H 1.714 V 2.048 H 1.528 V 1.86 Z m 2.24,0 H 3.953 V 1.97 L 3.767,1.999 V 1.86 Z M 1.527,2.234 H 1.714 V 2.422 H 1.528 V 2.234 Z M 4.836,2.56 V 4.024 A 0.738,0.738 0 0 0 4.093,4.258 V 2.67 C 4.34,2.632 4.588,2.595 4.836,2.56 Z M 1.528,2.608 H 1.714 V 2.794 H 1.528 Z M 3.953,2.692 V 2.794 H 3.767 V 2.72 Z M 3.629,2.74 V 2.876 H 3.45 V 2.766 L 3.628,2.74 Z M 1.528,2.98 H 1.714 V 3.168 H 1.528 Z m 2.239,0 H 3.953 V 3.168 H 3.767 Z M 1.854,2.997 H 3.165 V 4.262 A 0.687,0.687 0 0 0 2.752,4.306 H 1.854 v -1.31 z m 1.597,0 h 0.178 v 1.27 a 0.18,0.18 0 0 1 0,0.04 H 3.451 Z M 1.528,3.354 H 1.714 V 3.541 H 1.528 Z m 2.239,0 H 3.953 V 3.541 H 3.767 Z M 1.527,3.727 H 1.714 V 3.913 H 1.528 V 3.727 Z m 2.24,0 H 3.953 V 3.913 H 3.767 Z M 1.527,4.1 H 1.714 V 4.287 H 1.528 V 4.1 Z m 2.24,0 H 3.953 V 4.287 H 3.767 Z"
     id="path2"
     inkscape:connector-curvature="0"
     style="fill:#808080" />
</svg>
