<?xml version="1.0" encoding="UTF-8" standalone="no"?>
<svg
   xmlns:dc="http://purl.org/dc/elements/1.1/"
   xmlns:cc="http://creativecommons.org/ns#"
   xmlns:rdf="http://www.w3.org/1999/02/22-rdf-syntax-ns#"
   xmlns:svg="http://www.w3.org/2000/svg"
   xmlns="http://www.w3.org/2000/svg"
   xmlns:sodipodi="http://sodipodi.sourceforge.net/DTD/sodipodi-0.dtd"
   xmlns:inkscape="http://www.inkscape.org/namespaces/inkscape"
   width="24"
   height="24"
   viewBox="0 0 6.35 6.35"
   version="1.1"
   id="svg4"
   sodipodi:docname="applications-system-symbolic.svg"
   inkscape:version="0.92.4 (5da689c313, 2019-01-14)">
  <metadata
     id="metadata10">
    <rdf:RDF>
      <cc:Work
         rdf:about="">
        <dc:format>image/svg+xml</dc:format>
        <dc:type
           rdf:resource="http://purl.org/dc/dcmitype/StillImage" />
        <dc:title></dc:title>
      </cc:Work>
    </rdf:RDF>
  </metadata>
  <defs
     id="defs8" />
  <sodipodi:namedview
     pagecolor="#ffffff"
     bordercolor="#666666"
     borderopacity="1"
     objecttolerance="10"
     gridtolerance="10"
     guidetolerance="10"
     inkscape:pageopacity="0"
     inkscape:pageshadow="2"
     inkscape:window-width="1085"
     inkscape:window-height="480"
     id="namedview6"
     showgrid="false"
     inkscape:zoom="9.8333333"
     inkscape:cx="1.0677966"
     inkscape:cy="12"
     inkscape:window-x="0"
     inkscape:window-y="25"
     inkscape:window-maximized="0"
     inkscape:current-layer="svg4" />
  <path
     d="M 2.498,0.948 2.283,1.468 A 1.325,1.325 0 0 0 2.016,1.498 L 1.696,1.038 A 1.804,1.804 0 0 0 1.378,1.192 L 1.512,1.734 A 1.337,1.337 0 0 0 1.316,1.913 L 0.788,1.73 A 1.827,1.827 0 0 0 0.615,2.04 L 1.04,2.397 A 1.276,1.276 0 0 0 1.006,2.525 1.3,1.3 0 0 0 0.988,2.656 L 0.458,2.818 C 0.459,2.938 0.47,3.056 0.495,3.171 L 1.052,3.208 C 1.081,3.293 1.119,3.374 1.163,3.45 L 0.828,3.897 c 0.071,0.095 0.144,0.186 0.233,0.266 l 0.474,-0.3 C 1.607,3.915 1.686,3.959 1.769,3.995 L 1.764,4.559 a 1.882,1.882 0 0 0 0.34,0.07 L 2.32,4.107 C 2.41,4.105 2.5,4.096 2.587,4.077 l 0.32,0.462 C 3.019,4.499 3.122,4.444 3.225,4.384 L 3.09,3.841 C 3.161,3.788 3.228,3.729 3.287,3.663 L 3.815,3.846 A 1.827,1.827 0 0 0 3.985,3.54 L 4.086,3.752 A 0.78,0.78 0 0 0 3.995,3.878 L 3.671,3.834 A 1.066,1.066 0 0 0 3.609,4.032 L 3.893,4.186 A 0.744,0.744 0 0 0 3.889,4.263 c 0,0.026 0.002,0.051 0.004,0.077 L 3.609,4.494 C 3.624,4.563 3.644,4.629 3.671,4.692 L 3.995,4.648 A 0.778,0.778 0 0 0 4.086,4.774 L 3.946,5.068 C 3.998,5.114 4.05,5.157 4.11,5.192 L 4.347,4.966 a 0.757,0.757 0 0 0 0.149,0.048 l 0.063,0.323 a 1.098,1.098 0 0 0 0.202,0 L 4.824,5.014 A 0.744,0.744 0 0 0 4.973,4.966 L 5.209,5.192 C 5.269,5.157 5.322,5.113 5.373,5.067 L 5.233,4.773 A 0.794,0.794 0 0 0 5.325,4.648 L 5.648,4.692 A 1.066,1.066 0 0 0 5.711,4.494 L 5.426,4.34 a 0.728,0.728 0 0 0 0,-0.154 L 5.711,4.032 A 1.066,1.066 0 0 0 5.648,3.835 L 5.325,3.878 A 0.78,0.78 0 0 0 5.233,3.752 L 5.373,3.458 A 1.071,1.071 0 0 0 5.209,3.333 L 4.973,3.56 A 0.774,0.774 0 0 0 4.823,3.512 L 4.761,3.189 A 1.098,1.098 0 0 0 4.66,3.182 c -0.034,0 -0.068,0.004 -0.101,0.007 L 4.496,3.512 A 0.773,0.773 0 0 0 4.346,3.559 L 4.11,3.333 C 4.05,3.369 3.998,3.413 3.947,3.458 L 3.98,3.529 3.563,3.179 A 1.28,1.28 0 0 0 3.597,3.052 C 3.607,3.007 3.611,2.965 3.615,2.92 L 4.146,2.759 A 1.827,1.827 0 0 0 4.108,2.405 L 3.551,2.368 A 1.337,1.337 0 0 0 3.44,2.126 L 3.775,1.68 A 1.839,1.839 0 0 0 3.543,1.414 L 3.068,1.713 A 1.326,1.326 0 0 0 2.834,1.581 L 2.838,1.017 A 1.882,1.882 0 0 0 2.67,0.975 C 2.613,0.963 2.555,0.957 2.498,0.948 Z M 2.27,1.996 A 0.793,0.793 0 0 1 2.46,2.011 0.79339161,0.79339161 0 1 1 2.144,3.566 0.793,0.793 0 0 1 2.27,1.996 Z M 4.653,3.8 a 0.463,0.463 0 0 1 0.007,0 0.463,0.463 0 1 1 0,0.925 A 0.463,0.463 0 0 1 4.653,3.8 Z"
     id="path2"
     inkscape:connector-curvature="0"
     style="fill:#808080" />
</svg>
