<?xml version="1.0" encoding="UTF-8" standalone="no"?>
<svg
   xmlns:dc="http://purl.org/dc/elements/1.1/"
   xmlns:cc="http://creativecommons.org/ns#"
   xmlns:rdf="http://www.w3.org/1999/02/22-rdf-syntax-ns#"
   xmlns:svg="http://www.w3.org/2000/svg"
   xmlns="http://www.w3.org/2000/svg"
   xmlns:sodipodi="http://sodipodi.sourceforge.net/DTD/sodipodi-0.dtd"
   xmlns:inkscape="http://www.inkscape.org/namespaces/inkscape"
   width="24"
   height="24"
   version="1"
   id="svg4"
   sodipodi:docname="applications-engineering-symbolic.svg"
   inkscape:version="0.92.4 (5da689c313, 2019-01-14)">
  <metadata
     id="metadata10">
    <rdf:RDF>
      <cc:Work
         rdf:about="">
        <dc:format>image/svg+xml</dc:format>
        <dc:type
           rdf:resource="http://purl.org/dc/dcmitype/StillImage" />
        <dc:title></dc:title>
      </cc:Work>
    </rdf:RDF>
  </metadata>
  <defs
     id="defs8" />
  <sodipodi:namedview
     pagecolor="#ffffff"
     bordercolor="#666666"
     borderopacity="1"
     objecttolerance="10"
     gridtolerance="10"
     guidetolerance="10"
     inkscape:pageopacity="0"
     inkscape:pageshadow="2"
     inkscape:window-width="1085"
     inkscape:window-height="480"
     id="namedview6"
     showgrid="false"
     inkscape:zoom="9.8333333"
     inkscape:cx="1.0677966"
     inkscape:cy="12"
     inkscape:window-x="0"
     inkscape:window-y="25"
     inkscape:window-maximized="0"
     inkscape:current-layer="svg4" />
  <path
     d="M 11.79,2.5 C 10.85,2.5 6.68,3.44 6.68,3.44 6.28,3.67 6.23,4.09 6.23,4.82 h 5.1 c 0,-0.56 0.35,-0.46 0.92,-0.46 v 1.88 h -0.5 c -0.47,0 -0.46,-0.05 -0.46,-0.46 h -5.1 c 0,0.72 0.04,1.14 0.45,1.37 l 4.87,0.94 c 0.18,0.09 0.23,0.23 0.23,0.46 v 2.32 h -0.46 a 0.465,0.465 0 1 0 0,0.93 h 0.97 v 9.7 h 2.78 v -9.7 h 0.42 V 8.99 h 0.97 v 0.24 c 0,0.12 0.1,0.23 0.23,0.23 h 0.48 c 0.12,0 0.22,-0.1 0.22,-0.24 V 7.82 A 0.22,0.22 0 0 0 17.13,7.6 H 16.64 A 0.22,0.22 0 0 0 16.42,7.83 V 8.06 H 15.46 V 6.24 h -0.43 v -1.4 c 0.15,0 0.3,-0.02 0.46,-0.05 v 0.5 h 2.32 c 0,-0.33 -0.42,-0.66 -0.95,-0.92 0.54,-0.26 0.95,-0.6 0.95,-0.94 H 15.03 V 2.5 H 11.8 Z"
     id="path2"
     inkscape:connector-curvature="0"
     style="fill:#808080" />
</svg>
