<?xml version="1.0" encoding="UTF-8" standalone="no"?>
<svg
   xmlns:dc="http://purl.org/dc/elements/1.1/"
   xmlns:cc="http://creativecommons.org/ns#"
   xmlns:rdf="http://www.w3.org/1999/02/22-rdf-syntax-ns#"
   xmlns:svg="http://www.w3.org/2000/svg"
   xmlns="http://www.w3.org/2000/svg"
   xmlns:sodipodi="http://sodipodi.sourceforge.net/DTD/sodipodi-0.dtd"
   xmlns:inkscape="http://www.inkscape.org/namespaces/inkscape"
   width="24"
   height="24"
   version="1.1"
   id="svg4"
   sodipodi:docname="budgie-caffeine-cup-full.svg"
   inkscape:version="0.92.4 (5da689c313, 2019-01-14)">
  <metadata
     id="metadata10">
    <rdf:RDF>
      <cc:Work
         rdf:about="">
        <dc:format>image/svg+xml</dc:format>
        <dc:type
           rdf:resource="http://purl.org/dc/dcmitype/StillImage" />
        <dc:title></dc:title>
      </cc:Work>
    </rdf:RDF>
  </metadata>
  <defs
     id="defs8" />
  <sodipodi:namedview
     pagecolor="#ffffff"
     bordercolor="#666666"
     borderopacity="1"
     objecttolerance="10"
     gridtolerance="10"
     guidetolerance="10"
     inkscape:pageopacity="0"
     inkscape:pageshadow="2"
     inkscape:window-width="640"
     inkscape:window-height="480"
     id="namedview6"
     showgrid="false"
     inkscape:zoom="9.8333333"
     inkscape:cx="10.220339"
     inkscape:cy="12"
     inkscape:window-x="0"
     inkscape:window-y="25"
     inkscape:window-maximized="0"
     inkscape:current-layer="svg4" />
  <path
     d="M 7.79,1.15 C 6.14,3.22 5.65,3.51 6.24,4.83 6.78,6.03 8.17,5.88 7.47,8.65 8.62,7.3 9.54,6.35 8.63,4.96 7.71,3.56 7.21,3.45 7.79,1.16 Z m 4.5,0 c -1.65,2.07 -2.14,2.36 -1.55,3.68 0.54,1.2 1.93,1.05 1.23,3.82 1.15,-1.35 2.07,-2.3 1.16,-3.69 -0.92,-1.4 -1.42,-1.51 -0.84,-3.8 z m 4.5,0 c -1.65,2.07 -2.14,2.36 -1.55,3.68 0.54,1.2 1.93,1.05 1.23,3.82 1.15,-1.35 2.07,-2.3 1.16,-3.69 -0.92,-1.4 -1.42,-1.51 -0.84,-3.8 z M 3.63,9.22 a 8.98,8.98 0 0 0 -0.59,3.15 8.98,8.98 0 0 0 4.5,7.78 8.98,8.98 0 0 0 8.97,0 8.98,8.98 0 0 0 4.5,-7.78 8.98,8.98 0 0 0 -0.58,-3.15 z"
     id="path2"
     inkscape:connector-curvature="0"
     style="fill:#5beedc" />
</svg>
