<?xml version="1.0" encoding="UTF-8" standalone="no"?>
<svg
   xmlns:dc="http://purl.org/dc/elements/1.1/"
   xmlns:cc="http://creativecommons.org/ns#"
   xmlns:rdf="http://www.w3.org/1999/02/22-rdf-syntax-ns#"
   xmlns:svg="http://www.w3.org/2000/svg"
   xmlns="http://www.w3.org/2000/svg"
   xmlns:sodipodi="http://sodipodi.sourceforge.net/DTD/sodipodi-0.dtd"
   xmlns:inkscape="http://www.inkscape.org/namespaces/inkscape"
   width="24"
   height="24"
   id="svg7"
   version="1.1"
   sodipodi:docname="camera-off.svg"
   inkscape:version="0.92.4 (5da689c313, 2019-01-14)">
  <metadata
     id="metadata8">
    <rdf:RDF>
      <cc:Work
         rdf:about="">
        <dc:format>image/svg+xml</dc:format>
        <dc:type
           rdf:resource="http://purl.org/dc/dcmitype/StillImage" />
        <dc:title></dc:title>
      </cc:Work>
    </rdf:RDF>
  </metadata>
  <sodipodi:namedview
     pagecolor="#ffffff"
     bordercolor="#666666"
     borderopacity="1"
     objecttolerance="10"
     gridtolerance="10"
     guidetolerance="10"
     inkscape:pageopacity="0"
     inkscape:pageshadow="2"
     inkscape:window-width="1087"
     inkscape:window-height="480"
     id="namedview6"
     showgrid="false"
     inkscape:zoom="9.8333333"
     inkscape:cx="1.0677966"
     inkscape:cy="12"
     inkscape:window-x="0"
     inkscape:window-y="25"
     inkscape:window-maximized="0"
     inkscape:current-layer="svg7" />
  <defs
     id="defs3">
    <style
       id="current-color-scheme" />
  </defs>
  <path
     d="m 20.797,1.945 -3.33,3.33 A 7.688,7.688 0 0 0 12,3 7.715,7.715 0 0 0 4.285,10.715 c 0,2.134 1.027,3.916 2.43,5.312 l -4.77,4.77 1.258,1.258 L 22.055,3.203 Z M 19.125,8.133 6.258,21 h 13.457 v -1.285 c 0,0 -0.001,-2.572 -2.572,-2.572 H 16.26 a 7.711,7.711 0 0 0 3.455,-6.428 c 0,-0.934 -0.253,-1.777 -0.59,-2.582 z M 12,8.148 a 2.571,2.571 0 0 1 1.828,0.766 l -3.633,3.633 A 2.571,2.571 0 0 1 9.428,10.719 2.571,2.571 0 0 1 12,8.149 Z"
     id="rect815"
     inkscape:connector-curvature="0"
     style="fill:#5beedc;stroke-width:0.62400001" />
</svg>
