<?xml version="1.0" encoding="UTF-8" standalone="no"?>
<svg
   xmlns:dc="http://purl.org/dc/elements/1.1/"
   xmlns:cc="http://creativecommons.org/ns#"
   xmlns:rdf="http://www.w3.org/1999/02/22-rdf-syntax-ns#"
   xmlns:svg="http://www.w3.org/2000/svg"
   xmlns="http://www.w3.org/2000/svg"
   xmlns:sodipodi="http://sodipodi.sourceforge.net/DTD/sodipodi-0.dtd"
   xmlns:inkscape="http://www.inkscape.org/namespaces/inkscape"
   width="24"
   height="24"
   id="svg7"
   version="1.1"
   sodipodi:docname="camera-ready.svg"
   inkscape:version="0.92.4 (5da689c313, 2019-01-14)">
  <metadata
     id="metadata8">
    <rdf:RDF>
      <cc:Work
         rdf:about="">
        <dc:format>image/svg+xml</dc:format>
        <dc:type
           rdf:resource="http://purl.org/dc/dcmitype/StillImage" />
        <dc:title></dc:title>
      </cc:Work>
    </rdf:RDF>
  </metadata>
  <sodipodi:namedview
     pagecolor="#ffffff"
     bordercolor="#666666"
     borderopacity="1"
     objecttolerance="10"
     gridtolerance="10"
     guidetolerance="10"
     inkscape:pageopacity="0"
     inkscape:pageshadow="2"
     inkscape:window-width="1087"
     inkscape:window-height="480"
     id="namedview6"
     showgrid="false"
     inkscape:zoom="9.8333333"
     inkscape:cx="1.0677966"
     inkscape:cy="12"
     inkscape:window-x="0"
     inkscape:window-y="25"
     inkscape:window-maximized="0"
     inkscape:current-layer="svg7" />
  <defs
     id="defs3">
    <style
       id="current-color-scheme" />
  </defs>
  <path
     d="m 12,3 c -4.2605,0 -7.7143,3.4538 -7.7143,7.7143 0,2.6833 1.3768,5.0465 3.4554,6.4286 h -0.884 c -2.5714,0 -2.5714,2.5714 -2.5714,2.5714 V 21 h 15.4286 v -1.2857 c 0,0 0,-2.5714 -2.5714,-2.5714 h -0.884 c 2.0786,-1.382 3.4554,-3.7453 3.4554,-6.4286 C 19.7143,6.4538 16.2605,3 12,3 Z m 0,5.1479 A 2.5714,2.5714 0 0 1 14.5714,10.7193 2.5714,2.5714 0 0 1 12,13.2907 2.5714,2.5714 0 0 1 9.4286,10.7193 2.5714,2.5714 0 0 1 12,8.148 Z"
     id="path5"
     inkscape:connector-curvature="0"
     style="color:#dfdfdf;fill:#5beedc;fill-opacity:0.30199998;stroke-width:1.28569996" />
</svg>
