<?xml version="1.0" encoding="UTF-8" standalone="no"?>
<svg
   xmlns:dc="http://purl.org/dc/elements/1.1/"
   xmlns:cc="http://creativecommons.org/ns#"
   xmlns:rdf="http://www.w3.org/1999/02/22-rdf-syntax-ns#"
   xmlns:svg="http://www.w3.org/2000/svg"
   xmlns="http://www.w3.org/2000/svg"
   xmlns:sodipodi="http://sodipodi.sourceforge.net/DTD/sodipodi-0.dtd"
   xmlns:inkscape="http://www.inkscape.org/namespaces/inkscape"
   width="24"
   height="24"
   version="1.1"
   id="svg7"
   sodipodi:docname="cisco-tray-connected.svg"
   inkscape:version="0.92.5 (2060ec1f9f, 2020-04-08)">
  <metadata
     id="metadata8">
    <rdf:RDF>
      <cc:Work
         rdf:about="">
        <dc:format>image/svg+xml</dc:format>
        <dc:type
           rdf:resource="http://purl.org/dc/dcmitype/StillImage" />
        <dc:title></dc:title>
      </cc:Work>
    </rdf:RDF>
  </metadata>
  <sodipodi:namedview
     pagecolor="#ffffff"
     bordercolor="#666666"
     borderopacity="1"
     objecttolerance="10"
     gridtolerance="10"
     guidetolerance="10"
     inkscape:pageopacity="0"
     inkscape:pageshadow="2"
     inkscape:window-width="1085"
     inkscape:window-height="480"
     id="namedview6"
     showgrid="false"
     inkscape:zoom="9.8333333"
     inkscape:cx="1.0677966"
     inkscape:cy="12"
     inkscape:window-x="0"
     inkscape:window-y="25"
     inkscape:window-maximized="0"
     inkscape:current-layer="svg7" />
  <defs
     id="defs3">
    <style
       id="current-color-scheme"
       type="text/css" />
  </defs>
  <path
     d="M 11.941,3.059 A 8.913,8.913 0 0 0 4.168,7.579 8.92,8.92 0 0 1 10.302,6.578 L 10.308,6.562 A 8.835,8.835 0 0 1 11.236,4.786 C 11.27,4.736 11.3,4.684 11.334,4.635 11.504,4.394 11.686,4.161 11.878,3.939 11.909,3.902 11.938,3.863 11.97,3.827 12.198,3.571 12.438,3.325 12.694,3.096 A 9.09,9.09 0 0 0 11.941,3.059 Z m 3.606,0.757 a 6.572,6.572 0 0 0 -0.914,0.585 c -0.072,0.054 -0.138,0.114 -0.208,0.17 -0.24,0.196 -0.469,0.405 -0.679,0.631 -0.033,0.036 -0.067,0.07 -0.1,0.107 a 6.746,6.746 0 0 0 -1.218,1.974 8.924,8.924 0 0 1 4.6,5.162 3.24,3.24 0 0 1 1.62,-0.445 c 0.838,0 1.593,0.327 2.178,0.847 0.026,-0.28 0.056,-0.56 0.056,-0.847 A 8.918,8.918 0 0 0 15.547,3.816 Z M 8.588,8.647 A 6.69,6.69 0 0 0 3.02,11.603 C 3.014,11.735 3,11.866 3,12 a 8.922,8.922 0 0 0 8.941,8.941 c 0.134,0 0.263,-0.014 0.395,-0.02 h 0.002 a 6.674,6.674 0 0 0 1.838,-1.883 V 17.48 C 14.043,17.402 13.902,17.337 13.773,17.253 13.736,17.23 13.701,17.205 13.666,17.181 a 8.92,8.92 0 0 1 -0.915,-0.696 l -0.01,-0.009 a 8.938,8.938 0 0 1 -0.822,-0.827 l -0.102,-0.12 a 8.89,8.89 0 0 1 -0.655,-0.871 l -0.044,-0.066 a 8.895,8.895 0 0 1 -0.543,-0.989 c -0.032,-0.065 -0.06,-0.132 -0.09,-0.198 A 8.84,8.84 0 0 1 10.099,12.39 C 10.091,12.366 10.082,12.344 10.075,12.32 A 8.937,8.937 0 0 1 9.791,10.943 9.062,9.062 0 0 1 9.706,9.763 c 0,-0.34 0.02,-0.677 0.057,-1.008 A 6.776,6.776 0 0 0 8.588,8.646 Z m 3.368,0.908 c -0.002,0.07 -0.015,0.138 -0.015,0.21 0,0.278 0.022,0.55 0.055,0.818 0.01,0.083 0.024,0.164 0.037,0.245 0.031,0.196 0.07,0.39 0.118,0.58 0.02,0.08 0.038,0.158 0.06,0.236 0.075,0.254 0.159,0.503 0.26,0.742 0.109,0.255 0.234,0.499 0.372,0.736 l 0.056,0.094 c 0.13,0.215 0.27,0.422 0.422,0.62 l 0.043,0.059 c 0.343,0.437 0.737,0.83 1.177,1.17 l 0.055,0.041 c 0.117,0.09 0.245,0.165 0.368,0.247 h 0.33 A 6.683,6.683 0 0 0 11.956,9.555 Z m 6.691,3.563 c -1.238,0 -2.235,1.018 -2.235,2.27 v 1.083 h -1.118 v 4.47 H 22 v -4.47 h -1.118 v -1.083 c 0,-1.252 -0.997,-2.27 -2.235,-2.27 z m 0,1.117 c 0.62,0 1.118,0.495 1.118,1.118 v 1.118 h -2.236 v -1.118 c 0,-0.623 0.499,-1.118 1.118,-1.118 z"
     id="path5"
     inkscape:connector-curvature="0"
     style="color:#dfdfdf;fill:#5beedc;fill-opacity:1;stroke-width:1.11800003" />
</svg>
