<?xml version="1.0" encoding="UTF-8" standalone="no"?>
<svg
   xmlns:dc="http://purl.org/dc/elements/1.1/"
   xmlns:cc="http://creativecommons.org/ns#"
   xmlns:rdf="http://www.w3.org/1999/02/22-rdf-syntax-ns#"
   xmlns:svg="http://www.w3.org/2000/svg"
   xmlns="http://www.w3.org/2000/svg"
   xmlns:sodipodi="http://sodipodi.sourceforge.net/DTD/sodipodi-0.dtd"
   xmlns:inkscape="http://www.inkscape.org/namespaces/inkscape"
   width="24"
   height="24"
   version="1.1"
   id="svg7"
   sodipodi:docname="discord-tray-unread.svg"
   inkscape:version="0.92.4 (5da689c313, 2019-01-14)">
  <metadata
     id="metadata8">
    <rdf:RDF>
      <cc:Work
         rdf:about="">
        <dc:format>image/svg+xml</dc:format>
        <dc:type
           rdf:resource="http://purl.org/dc/dcmitype/StillImage" />
        <dc:title></dc:title>
      </cc:Work>
    </rdf:RDF>
  </metadata>
  <sodipodi:namedview
     pagecolor="#ffffff"
     bordercolor="#666666"
     borderopacity="1"
     objecttolerance="10"
     gridtolerance="10"
     guidetolerance="10"
     inkscape:pageopacity="0"
     inkscape:pageshadow="2"
     inkscape:window-width="1138"
     inkscape:window-height="480"
     id="namedview6"
     showgrid="false"
     inkscape:zoom="9.8333333"
     inkscape:cx="1.0677966"
     inkscape:cy="12"
     inkscape:window-x="0"
     inkscape:window-y="25"
     inkscape:window-maximized="0"
     inkscape:current-layer="svg7" />
  <defs
     id="defs3">
    <style
       id="current-color-scheme"
       type="text/css" />
  </defs>
  <path
     d="m 9.924,5.313 c 0,0 -2.187,-0.048 -4.503,1.654 C 3.104,8.67 2,12.192 2,17.267 c 0,0 2.456,2.29 6.011,2.402 0,0 0.596,-0.7 1.079,-1.305 -2.043,-0.604 -2.817,-2.413 -2.817,-2.413 1.882,1.052 3.162,1.491 5.114,1.51 1.952,-0.019 4.336,-0.458 6.218,-1.51 0,0 -0.774,1.809 -2.817,2.413 a 64.416,64.416 0 0 0 1.079,1.305 c 0.765,-0.024 1.45,-0.183 2.1,-0.364 a 3.427,3.427 0 0 1 -0.058,-0.1 3.427,3.427 0 0 1 -0.14,-0.312 3.427,3.427 0 0 1 -0.108,-0.326 3.427,3.427 0 0 1 -0.075,-0.334 3.427,3.427 0 0 1 -0.041,-0.339 3.427,3.427 0 0 1 -0.009,-0.244 3.427,3.427 0 0 1 0.017,-0.34 3.427,3.427 0 0 1 0.052,-0.34 3.427,3.427 0 0 1 0.084,-0.331 3.427,3.427 0 0 1 0.119,-0.322 3.427,3.427 0 0 1 0.149,-0.31 3.427,3.427 0 0 1 0.179,-0.291 3.427,3.427 0 0 1 0.207,-0.272 3.427,3.427 0 0 1 0.233,-0.253 3.427,3.427 0 0 1 0.258,-0.224 3.427,3.427 0 0 1 0.279,-0.2 3.427,3.427 0 0 1 0.297,-0.17 3.427,3.427 0 0 1 0.313,-0.141 3.427,3.427 0 0 1 0.324,-0.108 3.427,3.427 0 0 1 0.334,-0.075 3.427,3.427 0 0 1 0.34,-0.041 3.427,3.427 0 0 1 0.242,-0.009 3.427,3.427 0 0 1 0.343,0.017 3.427,3.427 0 0 1 0.18,0.028 c -0.4,-3.321 -1.254,-5.997 -3.03,-7.3 C 16.14,5.265 13.953,5.313 13.953,5.313 l -0.161,0.19 c 2.895,0.811 4.214,2.62 4.214,2.62 0,0 -0.354,-0.19 -0.949,-0.444 -1.805,-0.867 -4.014,-1.262 -5.67,-1.262 -1.657,0 -2.761,0.395 -4.566,1.262 -0.596,0.255 -0.95,0.444 -0.95,0.444 0,0 1.32,-1.809 4.215,-2.62 z m -0.746,6.626 c 0.926,0 1.673,0.738 1.657,1.656 0,0.919 -0.731,1.657 -1.657,1.657 -0.91,0 -1.656,-0.738 -1.656,-1.657 0,-0.918 0.73,-1.656 1.656,-1.656 z m 5.522,0 c 0.925,0 1.656,0.738 1.656,1.656 0,0.919 -0.747,1.657 -1.656,1.657 a 1.647,1.647 0 0 1 -1.657,-1.657 c -0.016,-0.918 0.731,-1.656 1.657,-1.656 z m 6.263,3.503 a 2.209,2.209 0 0 0 -2.208,2.208 2.209,2.209 0 0 0 2.208,2.209 2.209,2.209 0 0 0 2.209,-2.209 2.209,2.209 0 0 0 -2.209,-2.208 z"
     id="path5"
     inkscape:connector-curvature="0"
     style="fill:#5beedc;stroke-width:1.10399997" />
</svg>
