<?xml version="1.0" encoding="UTF-8" standalone="no"?>
<svg
   xmlns:dc="http://purl.org/dc/elements/1.1/"
   xmlns:cc="http://creativecommons.org/ns#"
   xmlns:rdf="http://www.w3.org/1999/02/22-rdf-syntax-ns#"
   xmlns:svg="http://www.w3.org/2000/svg"
   xmlns="http://www.w3.org/2000/svg"
   xmlns:sodipodi="http://sodipodi.sourceforge.net/DTD/sodipodi-0.dtd"
   xmlns:inkscape="http://www.inkscape.org/namespaces/inkscape"
   width="24"
   height="24"
   version="1.1"
   id="svg7"
   sodipodi:docname="discord-tray.svg"
   inkscape:version="0.92.4 (5da689c313, 2019-01-14)">
  <metadata
     id="metadata8">
    <rdf:RDF>
      <cc:Work
         rdf:about="">
        <dc:format>image/svg+xml</dc:format>
        <dc:type
           rdf:resource="http://purl.org/dc/dcmitype/StillImage" />
        <dc:title></dc:title>
      </cc:Work>
    </rdf:RDF>
  </metadata>
  <sodipodi:namedview
     pagecolor="#ffffff"
     bordercolor="#666666"
     borderopacity="1"
     objecttolerance="10"
     gridtolerance="10"
     guidetolerance="10"
     inkscape:pageopacity="0"
     inkscape:pageshadow="2"
     inkscape:window-width="1138"
     inkscape:window-height="480"
     id="namedview6"
     showgrid="false"
     inkscape:zoom="9.8333333"
     inkscape:cx="1.0677966"
     inkscape:cy="12"
     inkscape:window-x="0"
     inkscape:window-y="25"
     inkscape:window-maximized="0"
     inkscape:current-layer="svg7" />
  <defs
     id="defs3">
    <style
       id="current-color-scheme"
       type="text/css" />
  </defs>
  <path
     d="m 9.973,5.278 c 0,0 -2.2,-0.048 -4.531,1.664 C 3.112,8.655 2,12.2 2,17.305 c 0,0 2.471,2.305 6.048,2.417 0,0 0.6,-0.704 1.085,-1.313 -2.055,-0.608 -2.834,-2.428 -2.834,-2.428 1.894,1.059 3.182,1.5 5.145,1.519 1.964,-0.018 4.363,-0.46 6.257,-1.52 0,0 -0.779,1.821 -2.834,2.43 a 64.815,64.815 0 0 0 1.085,1.312 C 19.529,19.61 22,17.305 22,17.305 22,12.199 20.889,8.655 18.558,6.942 16.228,5.23 14.027,5.278 14.027,5.278 l -0.163,0.19 c 2.914,0.817 4.24,2.637 4.24,2.637 0,0 -0.355,-0.19 -0.954,-0.447 -1.817,-0.872 -4.039,-1.27 -5.706,-1.27 -1.666,0 -2.777,0.398 -4.594,1.27 -0.599,0.257 -0.955,0.447 -0.955,0.447 0,0 1.327,-1.82 4.24,-2.636 z m -0.75,6.666 c 0.93,0 1.682,0.743 1.666,1.667 0,0.924 -0.735,1.667 -1.667,1.667 A 1.668,1.668 0 0 1 7.556,13.611 c 0,-0.924 0.735,-1.667 1.666,-1.667 z m 5.555,0 c 0.931,0 1.666,0.743 1.666,1.667 0,0.924 -0.751,1.667 -1.666,1.667 a 1.657,1.657 0 0 1 -1.667,-1.667 c -0.016,-0.924 0.735,-1.667 1.667,-1.667 z"
     id="path5"
     inkscape:connector-curvature="0"
     style="color:#ffffff;fill:#5beedc;stroke-width:1.11099994" />
</svg>
