<?xml version="1.0" encoding="UTF-8" standalone="no"?>
<svg
   xmlns:dc="http://purl.org/dc/elements/1.1/"
   xmlns:cc="http://creativecommons.org/ns#"
   xmlns:rdf="http://www.w3.org/1999/02/22-rdf-syntax-ns#"
   xmlns:svg="http://www.w3.org/2000/svg"
   xmlns="http://www.w3.org/2000/svg"
   xmlns:sodipodi="http://sodipodi.sourceforge.net/DTD/sodipodi-0.dtd"
   xmlns:inkscape="http://www.inkscape.org/namespaces/inkscape"
   width="24"
   height="24"
   version="1.1"
   id="svg7"
   sodipodi:docname="discord-tray-deafened.svg"
   inkscape:version="0.92.4 (5da689c313, 2019-01-14)">
  <metadata
     id="metadata8">
    <rdf:RDF>
      <cc:Work
         rdf:about="">
        <dc:format>image/svg+xml</dc:format>
        <dc:type
           rdf:resource="http://purl.org/dc/dcmitype/StillImage" />
        <dc:title></dc:title>
      </cc:Work>
    </rdf:RDF>
  </metadata>
  <sodipodi:namedview
     pagecolor="#ffffff"
     bordercolor="#666666"
     borderopacity="1"
     objecttolerance="10"
     gridtolerance="10"
     guidetolerance="10"
     inkscape:pageopacity="0"
     inkscape:pageshadow="2"
     inkscape:window-width="1138"
     inkscape:window-height="480"
     id="namedview6"
     showgrid="false"
     inkscape:zoom="9.8333333"
     inkscape:cx="1.0677966"
     inkscape:cy="12"
     inkscape:window-x="0"
     inkscape:window-y="25"
     inkscape:window-maximized="0"
     inkscape:current-layer="svg7" />
  <defs
     id="defs3">
    <style
       id="current-color-scheme"
       type="text/css" />
  </defs>
  <path
     d="m 4.828,3.223 -1.605,1.605 2.47,2.47 a 7.893,7.893 0 0 0 -1.587,4.755 v 5.297 c 0,0 0,2.65 2.65,2.65 H 9.782 V 13.188 H 6.376 v -1.135 c 0,-1.093 0.4,-2.14 1.03,-3.043 l 6.918,6.919 V 20 h 3.026 c 1.35,-0.152 1.886,-0.851 2.495,-1.76 l -3.867,-3.868 -1.184,-1.184 z m 7.225,0.882 A 7.868,7.868 0 0 0 8.729,4.85 l 1.792,1.792 a 4.836,4.836 0 0 1 1.532,-0.266 c 2.94,0 5.677,2.736 5.677,5.677 v 1.135 H 17.064 L 20,16.124 V 12.053 A 7.937,7.937 0 0 0 12.053,4.105 Z"
     id="path5"
     inkscape:connector-curvature="0"
     style="color:#ffffff;fill:#5beedc;stroke-width:1.13499999" />
</svg>
