<?xml version="1.0" encoding="UTF-8" standalone="no"?>
<svg
   xmlns:dc="http://purl.org/dc/elements/1.1/"
   xmlns:cc="http://creativecommons.org/ns#"
   xmlns:rdf="http://www.w3.org/1999/02/22-rdf-syntax-ns#"
   xmlns:svg="http://www.w3.org/2000/svg"
   xmlns="http://www.w3.org/2000/svg"
   xmlns:sodipodi="http://sodipodi.sourceforge.net/DTD/sodipodi-0.dtd"
   xmlns:inkscape="http://www.inkscape.org/namespaces/inkscape"
   width="24"
   height="24"
   id="svg9"
   version="1.1"
   sodipodi:docname="disk-quota.svg"
   inkscape:version="0.92.4 (5da689c313, 2019-01-14)">
  <metadata
     id="metadata8">
    <rdf:RDF>
      <cc:Work
         rdf:about="">
        <dc:format>image/svg+xml</dc:format>
        <dc:type
           rdf:resource="http://purl.org/dc/dcmitype/StillImage" />
        <dc:title></dc:title>
      </cc:Work>
    </rdf:RDF>
  </metadata>
  <sodipodi:namedview
     pagecolor="#ffffff"
     bordercolor="#666666"
     borderopacity="1"
     objecttolerance="10"
     gridtolerance="10"
     guidetolerance="10"
     inkscape:pageopacity="0"
     inkscape:pageshadow="2"
     inkscape:window-width="1138"
     inkscape:window-height="480"
     id="namedview6"
     showgrid="false"
     inkscape:zoom="9.8333333"
     inkscape:cx="1.0677966"
     inkscape:cy="12"
     inkscape:window-x="0"
     inkscape:window-y="25"
     inkscape:window-maximized="0"
     inkscape:current-layer="svg9" />
  <defs
     id="defs3">
    <style
       id="current-color-scheme" />
  </defs>
  <path
     d="M 3.52,4.25 A 1.52,1.52 0 0 0 1.99,5.77 v 2.54 l 0.02,0.12 v 7.42 H 1.99 v 2.38 c 0,0.84 0.68,1.52 1.52,1.52 H 20.48 A 1.52,1.52 0 0 0 22,18.23 V 8.816 L 21.98,8.82 H 4.93 v 2.24 c 0,0.43 -0.29,0.78 -0.64,0.78 -0.36,0 -0.64,-0.35 -0.64,-0.78 V 8.43 L 3.67,8.33 3.65,8.23 c 0,-0.3 0.22,-0.52 0.51,-0.56 L 4.23,7.66 V 7.65 H 21.98 L 22,7.63 V 5.95 H 11 L 9.3,4.25 Z m 12.683,5.633 h 4.735 v 2.347 h -4.735 z m 0,3.252 h 4.735 v 2.345 h -4.735 z m 0,3.252 h 4.734 v 0.883 h -0.01 c 0.002,0.017 0.01,0.032 0.01,0.05 v 0.479 a 0.932,0.932 0 0 1 -0.933,0.933 h -3.801 z"
     id="path880"
     inkscape:connector-curvature="0"
     style="fill:#5beedc;stroke-width:2.3599999" />
</svg>
