<?xml version="1.0" encoding="UTF-8" standalone="no"?>
<svg
   xmlns:dc="http://purl.org/dc/elements/1.1/"
   xmlns:cc="http://creativecommons.org/ns#"
   xmlns:rdf="http://www.w3.org/1999/02/22-rdf-syntax-ns#"
   xmlns:svg="http://www.w3.org/2000/svg"
   xmlns="http://www.w3.org/2000/svg"
   xmlns:sodipodi="http://sodipodi.sourceforge.net/DTD/sodipodi-0.dtd"
   xmlns:inkscape="http://www.inkscape.org/namespaces/inkscape"
   height="24"
   width="24"
   version="1.1"
   id="svg4"
   sodipodi:docname="dropboxstatus-x.svg"
   inkscape:version="0.92.4 (5da689c313, 2019-01-14)">
  <metadata
     id="metadata10">
    <rdf:RDF>
      <cc:Work
         rdf:about="">
        <dc:format>image/svg+xml</dc:format>
        <dc:type
           rdf:resource="http://purl.org/dc/dcmitype/StillImage" />
        <dc:title></dc:title>
      </cc:Work>
    </rdf:RDF>
  </metadata>
  <defs
     id="defs8" />
  <sodipodi:namedview
     pagecolor="#ffffff"
     bordercolor="#666666"
     borderopacity="1"
     objecttolerance="10"
     gridtolerance="10"
     guidetolerance="10"
     inkscape:pageopacity="0"
     inkscape:pageshadow="2"
     inkscape:window-width="1138"
     inkscape:window-height="480"
     id="namedview6"
     showgrid="false"
     inkscape:zoom="9.8333333"
     inkscape:cx="1.0677966"
     inkscape:cy="12"
     inkscape:window-x="0"
     inkscape:window-y="25"
     inkscape:window-maximized="0"
     inkscape:current-layer="svg4" />
  <path
     d="m 8,4.002 -5,3 4,2.984 -4.01,3.008 5.01,3.008 4,-3 -5,-3 5,-3 5,3.015 -5,2.985 1.777,1.334 A 5,5 0 0 1 18,12.002 a 5.003,5.003 0 0 1 2.98,0.994 l 0.03,-0.018 -4.01,-2.976 4,-3 -5,-3 -4,2.984 z m 10,9 a 4,4 0 1 0 0,8 4,4 0 0 0 0,-8 z m -6,1 -4,3 -1,-0.6 v 0.6 l 5,3 1.476,-0.885 A 5,5 0 0 1 13,17.002 5,5 0 0 1 13.396,15.049 Z m 4.353,0.646 1.647,1.647 1.646,-1.647 0.707,0.707 -1.646,1.647 1.646,1.646 -0.707,0.707 L 18,17.71 l -1.647,1.646 -0.707,-0.707 1.647,-1.646 -1.647,-1.647 0.707,-0.707 z"
     id="path2"
     inkscape:connector-curvature="0"
     style="color:#000000;fill:#5beedc" />
</svg>
