<?xml version="1.0" encoding="UTF-8" standalone="no"?>
<svg
   xmlns:dc="http://purl.org/dc/elements/1.1/"
   xmlns:cc="http://creativecommons.org/ns#"
   xmlns:rdf="http://www.w3.org/1999/02/22-rdf-syntax-ns#"
   xmlns:svg="http://www.w3.org/2000/svg"
   xmlns="http://www.w3.org/2000/svg"
   xmlns:sodipodi="http://sodipodi.sourceforge.net/DTD/sodipodi-0.dtd"
   xmlns:inkscape="http://www.inkscape.org/namespaces/inkscape"
   height="24"
   width="24"
   version="1.1"
   id="svg4"
   sodipodi:docname="firewall-applet-error.svg"
   inkscape:version="0.92.4 (5da689c313, 2019-01-14)">
  <metadata
     id="metadata10">
    <rdf:RDF>
      <cc:Work
         rdf:about="">
        <dc:format>image/svg+xml</dc:format>
        <dc:type
           rdf:resource="http://purl.org/dc/dcmitype/StillImage" />
        <dc:title></dc:title>
      </cc:Work>
    </rdf:RDF>
  </metadata>
  <defs
     id="defs8" />
  <sodipodi:namedview
     pagecolor="#ffffff"
     bordercolor="#666666"
     borderopacity="1"
     objecttolerance="10"
     gridtolerance="10"
     guidetolerance="10"
     inkscape:pageopacity="0"
     inkscape:pageshadow="2"
     inkscape:window-width="1138"
     inkscape:window-height="480"
     id="namedview6"
     showgrid="false"
     inkscape:zoom="9.8333333"
     inkscape:cx="1.0677966"
     inkscape:cy="12"
     inkscape:window-x="0"
     inkscape:window-y="25"
     inkscape:window-maximized="0"
     inkscape:current-layer="svg4" />
  <path
     d="M 12,1 C 7.26,1.88 7.4,4.52 3,5 2.966,5.311 3.033,5.511 3.008,5.813 H 12 Z m 1.375,0.457 v 4.355 h 7.617 C 20.968,5.511 21.033,5.312 21,5 17.144,4.58 16.594,2.552 13.375,1.457 Z M 3.02,7.187 c -0.053,1.448 -0.118,2.91 0.037,4.125 H 5.125 V 7.189 H 3.02 Z m 3.48,0 v 4.125 h 11 V 7.189 h -11 z m 12.375,0 v 4.125 h 2.063 c 0.154,-1.214 0.092,-2.677 0.04,-4.124 h -2.103 z m -15.637,5.5 c 0.313,1.559 0.784,2.94 1.428,4.126 H 12 V 12.688 H 3.238 Z m 11.114,1.442 c -0.554,0 -1,0.446 -1,1 v 6 c 0,0.554 0.446,1 1,1 h 6 c 0.554,0 1,-0.446 1,-1 v -6 c 0,-0.554 -0.446,-1 -1,-1 z m 1,1 2,2 2,-2 1,1 -2,2 2,2 -1,1 -2,-2 -2,2 -1,-1 2,-2 -2,-2 z M 5.748,18.188 C 7.355,20.33 9.428,21.945 12,23 V 18.187 H 5.748 Z"
     id="path2"
     inkscape:connector-curvature="0"
     style="fill:#5beedc" />
</svg>
