<?xml version="1.0" encoding="UTF-8" standalone="no"?>
<svg
   xmlns:dc="http://purl.org/dc/elements/1.1/"
   xmlns:cc="http://creativecommons.org/ns#"
   xmlns:rdf="http://www.w3.org/1999/02/22-rdf-syntax-ns#"
   xmlns:svg="http://www.w3.org/2000/svg"
   xmlns="http://www.w3.org/2000/svg"
   xmlns:sodipodi="http://sodipodi.sourceforge.net/DTD/sodipodi-0.dtd"
   xmlns:inkscape="http://www.inkscape.org/namespaces/inkscape"
   width="24"
   height="24"
   version="1.1"
   id="svg4"
   sodipodi:docname="battery-good.svg"
   inkscape:version="0.92.4 (5da689c313, 2019-01-14)">
  <metadata
     id="metadata10">
    <rdf:RDF>
      <cc:Work
         rdf:about="">
        <dc:format>image/svg+xml</dc:format>
        <dc:type
           rdf:resource="http://purl.org/dc/dcmitype/StillImage" />
        <dc:title></dc:title>
      </cc:Work>
    </rdf:RDF>
  </metadata>
  <defs
     id="defs8" />
  <sodipodi:namedview
     pagecolor="#ffffff"
     bordercolor="#666666"
     borderopacity="1"
     objecttolerance="10"
     gridtolerance="10"
     guidetolerance="10"
     inkscape:pageopacity="0"
     inkscape:pageshadow="2"
     inkscape:window-width="1087"
     inkscape:window-height="480"
     id="namedview6"
     showgrid="false"
     inkscape:zoom="9.8333333"
     inkscape:cx="1.0677966"
     inkscape:cy="12"
     inkscape:window-x="0"
     inkscape:window-y="25"
     inkscape:window-maximized="0"
     inkscape:current-layer="svg4" />
  <path
     d="M 12,1.08 C 5.9,1.08 1,5.92 1,11.95 a 10.91,10.91 0 0 0 11,10.89 c 6.1,0 11,-4.86 11,-10.9 A 10.91,10.91 0 0 0 12,1.09 Z M 12,3.8 A 8.18,8.18 0 0 1 20.25,11.96 8.19,8.19 0 0 1 12,20.11 8.18,8.18 0 0 1 3.75,11.95 8.18,8.18 0 0 1 12,3.8 Z m 0,1.81 A 6.33,6.33 0 0 0 6.54,8.81 H 17.46 A 6.33,6.33 0 0 0 12,5.61 Z m -6.16,4.81 c -0.15,0.48 -0.25,0.99 -0.25,1.54 0,0.6 0.18,1.13 0.34,1.7 h 12.14 c 0.16,-0.56 0.34,-1.1 0.34,-1.7 0,-0.55 -0.1,-1.06 -0.24,-1.54 H 5.83 Z m 0.9,4.96 a 6.2,6.2 0 0 0 10.53,0 z"
     id="path2"
     inkscape:connector-curvature="0"
     style="fill:#5beedc" />
</svg>
