<?xml version="1.0" encoding="UTF-8" standalone="no"?>
<svg
   xmlns:dc="http://purl.org/dc/elements/1.1/"
   xmlns:cc="http://creativecommons.org/ns#"
   xmlns:rdf="http://www.w3.org/1999/02/22-rdf-syntax-ns#"
   xmlns:svg="http://www.w3.org/2000/svg"
   xmlns="http://www.w3.org/2000/svg"
   xmlns:sodipodi="http://sodipodi.sourceforge.net/DTD/sodipodi-0.dtd"
   xmlns:inkscape="http://www.inkscape.org/namespaces/inkscape"
   width="24"
   height="24"
   version="1.1"
   id="svg4"
   sodipodi:docname="battery-caution-charging.svg"
   inkscape:version="0.92.4 (5da689c313, 2019-01-14)">
  <metadata
     id="metadata10">
    <rdf:RDF>
      <cc:Work
         rdf:about="">
        <dc:format>image/svg+xml</dc:format>
        <dc:type
           rdf:resource="http://purl.org/dc/dcmitype/StillImage" />
        <dc:title></dc:title>
      </cc:Work>
    </rdf:RDF>
  </metadata>
  <defs
     id="defs8" />
  <sodipodi:namedview
     pagecolor="#ffffff"
     bordercolor="#666666"
     borderopacity="1"
     objecttolerance="10"
     gridtolerance="10"
     guidetolerance="10"
     inkscape:pageopacity="0"
     inkscape:pageshadow="2"
     inkscape:window-width="1087"
     inkscape:window-height="480"
     id="namedview6"
     showgrid="false"
     inkscape:zoom="9.8333333"
     inkscape:cx="1.0677966"
     inkscape:cy="12"
     inkscape:window-x="0"
     inkscape:window-y="25"
     inkscape:window-maximized="0"
     inkscape:current-layer="svg4" />
  <path
     d="m 11.99,1.09 a 10.9,10.9 0 0 0 -11,10.86 10.9,10.9 0 0 0 11,10.87 c 0.47,0 0.87,-0.2 1.32,-0.26 l 1.8,-3.09 A 8.32,8.32 0 0 1 11.99,20.1 8.17,8.17 0 0 1 3.75,11.95 8.17,8.17 0 0 1 11.99,3.8 8.2,8.2 0 0 1 19.6,8.9 l 1.98,-1.97 a 10.87,10.87 0 0 0 -9.6,-5.85 z m 0,4.36 c -0.73,0 -1.33,0.6 -1.33,1.32 v 6.55 a 1.32,1.32 0 0 0 2.64,0 V 6.76 c 0,-0.71 -0.6,-1.3 -1.32,-1.3 z m 9.6,4.63 -7.27,6.78 h 4.15 l -3.11,5.8 7.27,-7.74 H 19.5 Z m -9.6,5.83 a 1.31,1.31 0 0 0 -1.33,1.33 1.31,1.31 0 0 0 1.33,1.3 1.31,1.31 0 0 0 1.3,-1.31 1.31,1.31 0 0 0 -1.31,-1.32 z"
     id="path2"
     inkscape:connector-curvature="0"
     style="fill:#5beedc" />
</svg>
