<?xml version="1.0" encoding="UTF-8" standalone="no"?>
<svg
   xmlns:dc="http://purl.org/dc/elements/1.1/"
   xmlns:cc="http://creativecommons.org/ns#"
   xmlns:rdf="http://www.w3.org/1999/02/22-rdf-syntax-ns#"
   xmlns:svg="http://www.w3.org/2000/svg"
   xmlns="http://www.w3.org/2000/svg"
   xmlns:sodipodi="http://sodipodi.sourceforge.net/DTD/sodipodi-0.dtd"
   xmlns:inkscape="http://www.inkscape.org/namespaces/inkscape"
   height="24"
   width="24"
   version="1.1"
   id="svg6"
   sodipodi:docname="gpm-keyboard-080.svg"
   inkscape:version="0.92.4 (5da689c313, 2019-01-14)">
  <metadata
     id="metadata12">
    <rdf:RDF>
      <cc:Work
         rdf:about="">
        <dc:format>image/svg+xml</dc:format>
        <dc:type
           rdf:resource="http://purl.org/dc/dcmitype/StillImage" />
        <dc:title></dc:title>
      </cc:Work>
    </rdf:RDF>
  </metadata>
  <defs
     id="defs10" />
  <sodipodi:namedview
     pagecolor="#ffffff"
     bordercolor="#666666"
     borderopacity="1"
     objecttolerance="10"
     gridtolerance="10"
     guidetolerance="10"
     inkscape:pageopacity="0"
     inkscape:pageshadow="2"
     inkscape:window-width="1087"
     inkscape:window-height="480"
     id="namedview8"
     showgrid="false"
     inkscape:zoom="9.8333333"
     inkscape:cx="1.0677966"
     inkscape:cy="12"
     inkscape:window-x="0"
     inkscape:window-y="25"
     inkscape:window-maximized="0"
     inkscape:current-layer="svg6" />
  <path
     d="M 22.1,4.96 H 1.9 v 14.06 l 20.2,0.02 z M 11.03,7.97 h 2 v 2.01 h -2 z m 0,3.02 h 2 V 13 h -2 z M 8,7.97 h 2.01 v 2.01 h -2 z m 0,3.02 h 2.01 V 13 h -2 z M 7,13 H 5 V 10.99 H 7 Z M 7,9.98 H 5 v -2 h 2 z m 9.04,7.04 H 8.01 v -2.01 h 8.04 z m 0,-4.02 h -2 v -2.01 h 2 z m 0,-3.02 h -2 v -2 h 2 z M 19.07,13 h -2.01 v -2.01 h 2.01 z m 0,-3.02 h -2.01 v -2 h 2.01 z"
     id="path2"
     inkscape:connector-curvature="0"
     style="fill:#5beedc;fill-opacity:0.3" />
  <path
     d="m 1.9,4.96 v 14.06 l 20.2,0.02 -0.04,-6.07 -2.99,-3 V 10 H 17.06 V 7.98 h 0.01 l -3,-3 z M 5,7.98 h 2 v 2 H 5 Z m 3.01,0 h 2.01 v 2 h -2 z m 3.02,0 h 2 v 2 h -2 z m 3.01,0 h 2.01 v 2 h -2 z M 5,10.99 H 7 V 13 H 5 Z m 3.01,0 h 2.01 V 13 h -2 z m 3.02,0 h 2 V 13 h -2 z m 3.01,0 h 2.01 V 13 h -2 z m 3.02,0 h 2.01 V 13 h -2.01 z m -9.05,4.02 h 8.04 v 2.01 H 8.01 Z"
     id="path4"
     inkscape:connector-curvature="0"
     style="fill:#5beedc" />
</svg>
