<?xml version="1.0" encoding="UTF-8" standalone="no"?>
<svg
   xmlns:dc="http://purl.org/dc/elements/1.1/"
   xmlns:cc="http://creativecommons.org/ns#"
   xmlns:rdf="http://www.w3.org/1999/02/22-rdf-syntax-ns#"
   xmlns:svg="http://www.w3.org/2000/svg"
   xmlns="http://www.w3.org/2000/svg"
   xmlns:sodipodi="http://sodipodi.sourceforge.net/DTD/sodipodi-0.dtd"
   xmlns:inkscape="http://www.inkscape.org/namespaces/inkscape"
   height="24"
   width="24"
   version="1.1"
   id="svg4"
   sodipodi:docname="network-cellular-signal-excellent.svg"
   inkscape:version="0.92.4 (5da689c313, 2019-01-14)">
  <metadata
     id="metadata10">
    <rdf:RDF>
      <cc:Work
         rdf:about="">
        <dc:format>image/svg+xml</dc:format>
        <dc:type
           rdf:resource="http://purl.org/dc/dcmitype/StillImage" />
        <dc:title></dc:title>
      </cc:Work>
    </rdf:RDF>
  </metadata>
  <defs
     id="defs8" />
  <sodipodi:namedview
     pagecolor="#ffffff"
     bordercolor="#666666"
     borderopacity="1"
     objecttolerance="10"
     gridtolerance="10"
     guidetolerance="10"
     inkscape:pageopacity="0"
     inkscape:pageshadow="2"
     inkscape:window-width="1087"
     inkscape:window-height="480"
     id="namedview6"
     showgrid="false"
     inkscape:zoom="9.8333333"
     inkscape:cx="1.0677966"
     inkscape:cy="12"
     inkscape:window-x="0"
     inkscape:window-y="25"
     inkscape:window-maximized="0"
     inkscape:current-layer="svg4" />
  <path
     style="color:#bebebe;overflow:visible;fill:#5beedc;stroke-width:1.13;marker:none"
     d="m 18.23,3 a 0.56,0.56 0 0 0 -0.56,0.57 v 15.86 c 0,0.32 0.25,0.57 0.56,0.57 h 1.14 c 0.31,0 0.56,-0.25 0.56,-0.57 V 3.57 A 0.56,0.56 0 0 0 19.37,3 Z m -3.4,3.4 a 0.56,0.56 0 0 0 -0.56,0.57 v 12.46 c 0,0.32 0.25,0.57 0.56,0.57 h 1.14 c 0.31,0 0.56,-0.25 0.56,-0.57 V 6.97 A 0.56,0.56 0 0 0 15.97,6.4 Z m -3.4,3.4 a 0.56,0.56 0 0 0 -0.56,0.57 v 9.06 c 0,0.32 0.25,0.57 0.56,0.57 h 1.14 c 0.31,0 0.56,-0.25 0.56,-0.57 V 10.37 A 0.56,0.56 0 0 0 12.57,9.8 Z m -3.4,3.4 a 0.56,0.56 0 0 0 -0.56,0.57 v 5.66 c 0,0.32 0.25,0.57 0.56,0.57 h 1.14 c 0.31,0 0.56,-0.25 0.56,-0.57 V 13.77 A 0.56,0.56 0 0 0 9.17,13.2 Z m -3.4,3.4 a 0.56,0.56 0 0 0 -0.56,0.57 v 2.26 c 0,0.32 0.25,0.57 0.56,0.57 h 1.14 c 0.31,0 0.56,-0.25 0.56,-0.57 V 17.17 A 0.56,0.56 0 0 0 5.77,16.6 Z"
     overflow="visible"
     id="path2"
     inkscape:connector-curvature="0" />
</svg>
