<?xml version="1.0" encoding="UTF-8" standalone="no"?>
<svg
   xmlns:dc="http://purl.org/dc/elements/1.1/"
   xmlns:cc="http://creativecommons.org/ns#"
   xmlns:rdf="http://www.w3.org/1999/02/22-rdf-syntax-ns#"
   xmlns:svg="http://www.w3.org/2000/svg"
   xmlns="http://www.w3.org/2000/svg"
   xmlns:sodipodi="http://sodipodi.sourceforge.net/DTD/sodipodi-0.dtd"
   xmlns:inkscape="http://www.inkscape.org/namespaces/inkscape"
   height="24"
   width="24"
   version="1.1"
   id="svg4"
   sodipodi:docname="haguichi-connected.svg"
   inkscape:version="0.92.4 (5da689c313, 2019-01-14)">
  <metadata
     id="metadata10">
    <rdf:RDF>
      <cc:Work
         rdf:about="">
        <dc:format>image/svg+xml</dc:format>
        <dc:type
           rdf:resource="http://purl.org/dc/dcmitype/StillImage" />
        <dc:title></dc:title>
      </cc:Work>
    </rdf:RDF>
  </metadata>
  <defs
     id="defs8" />
  <sodipodi:namedview
     pagecolor="#ffffff"
     bordercolor="#666666"
     borderopacity="1"
     objecttolerance="10"
     gridtolerance="10"
     guidetolerance="10"
     inkscape:pageopacity="0"
     inkscape:pageshadow="2"
     inkscape:window-width="1087"
     inkscape:window-height="480"
     id="namedview6"
     showgrid="false"
     inkscape:zoom="9.8333333"
     inkscape:cx="1.0677966"
     inkscape:cy="12"
     inkscape:window-x="0"
     inkscape:window-y="25"
     inkscape:window-maximized="0"
     inkscape:current-layer="svg4" />
  <path
     d="M 15.54,2.57 A 3.54,3.54 0 0 0 12,6.1 c 0,0.44 0.11,0.84 0.26,1.22 l -2,1.66 A 3.5,3.5 0 0 0 4.94,12 a 3.54,3.54 0 0 0 5.34,3.02 l 1.99,1.66 c -0.15,0.38 -0.26,0.78 -0.26,1.22 a 3.54,3.54 0 1 0 1.73,-3.03 l -1.99,-1.65 c 0.15,-0.39 0.26,-0.78 0.26,-1.22 0,-0.44 -0.11,-0.83 -0.26,-1.22 l 2,-1.65 A 3.5,3.5 0 0 0 19.08,6.1 3.54,3.54 0 0 0 15.55,2.57 Z"
     style="color:#000000;overflow:visible;fill:#5beedc;marker:none"
     overflow="visible"
     id="path2"
     inkscape:connector-curvature="0" />
</svg>
