<?xml version="1.0" encoding="UTF-8" standalone="no"?>
<svg
   xmlns:dc="http://purl.org/dc/elements/1.1/"
   xmlns:cc="http://creativecommons.org/ns#"
   xmlns:rdf="http://www.w3.org/1999/02/22-rdf-syntax-ns#"
   xmlns:svg="http://www.w3.org/2000/svg"
   xmlns="http://www.w3.org/2000/svg"
   xmlns:sodipodi="http://sodipodi.sourceforge.net/DTD/sodipodi-0.dtd"
   xmlns:inkscape="http://www.inkscape.org/namespaces/inkscape"
   width="24"
   height="24"
   version="1.1"
   id="svg4"
   sodipodi:docname="megasynching.svg"
   inkscape:version="0.92.4 (5da689c313, 2019-01-14)">
  <metadata
     id="metadata10">
    <rdf:RDF>
      <cc:Work
         rdf:about="">
        <dc:format>image/svg+xml</dc:format>
        <dc:type
           rdf:resource="http://purl.org/dc/dcmitype/StillImage" />
        <dc:title></dc:title>
      </cc:Work>
    </rdf:RDF>
  </metadata>
  <defs
     id="defs8" />
  <sodipodi:namedview
     pagecolor="#ffffff"
     bordercolor="#666666"
     borderopacity="1"
     objecttolerance="10"
     gridtolerance="10"
     guidetolerance="10"
     inkscape:pageopacity="0"
     inkscape:pageshadow="2"
     inkscape:window-width="1087"
     inkscape:window-height="480"
     id="namedview6"
     showgrid="false"
     inkscape:zoom="9.8333333"
     inkscape:cx="1.0677966"
     inkscape:cy="12"
     inkscape:window-x="0"
     inkscape:window-y="25"
     inkscape:window-maximized="0"
     inkscape:current-layer="svg4" />
  <path
     style="font-weight:400;font-size:21.33300018px;line-height:1.25;font-family:'1 Punk';-inkscape-font-specification:'1 Punk';letter-spacing:0;word-spacing:0;fill:#5beedc"
     d="M 12,1.14 A 10.86,10.86 0 0 0 1.14,12 10.86,10.86 0 0 0 12,22.86 a 10.86,10.86 0 0 0 2.217,-0.233 6,6 0 0 1 -0.049,-0.05 6,6 0 0 1 -0.363,-0.48 6,6 0 0 1 -0.313,-0.51 6,6 0 0 1 -0.262,-0.54 6,6 0 0 1 -0.084,-0.229 8.97,8.97 0 0 1 -1.126,0.082 8.97,8.97 0 0 1 -8.97,-8.97 8.97,8.97 0 0 1 8.97,-8.97 8.97,8.97 0 0 1 8.98,8.97 8.97,8.97 0 0 1 -0.088,1.183 6,6 0 0 1 0.02,0.006 6,6 0 0 1 0.547,0.244 6,6 0 0 1 0.521,0.3 6,6 0 0 1 0.486,0.347 6,6 0 0 1 0.149,0.13 A 10.86,10.86 0 0 0 22.859,12 10.86,10.86 0 0 0 12,1.14 Z M 7.135,7.628 v 8.746 H 9.273 V 9.977 l 2.016,4.716 h 1.43 l 2.015,-4.716 v 4.293 a 6,6 0 0 1 0.159,-0.149 6,6 0 0 1 0.476,-0.363 6,6 0 0 1 0.512,-0.313 6,6 0 0 1 0.539,-0.261 6,6 0 0 1 0.447,-0.163 V 7.627 h -2.865 l -2.004,4.68 -1.992,-4.68 H 7.135 Z m 11.623,6.084 a 5,5 0 0 0 -5,5 5,5 0 0 0 5,5 5,5 0 0 0 5,-5 5,5 0 0 0 -5,-5 z m 0,1.666 a 3.333,3.333 0 0 1 3.332,3.334 h -0.95 a 2.378,2.378 0 0 0 -4.066,-1.684 l -0.222,0.223 0.656,0.688 H 15.49 v -2.022 l 0.696,0.656 0.216,-0.222 a 3.339,3.339 0 0 1 2.356,-0.973 z m -3.334,3.334 h 0.949 a 2.378,2.378 0 0 0 4.068,1.684 l 0.221,-0.223 -0.654,-0.69 h 2.015 v 2.024 l -0.693,-0.656 -0.217,0.222 a 3.339,3.339 0 0 1 -5.69,-2.361 z"
     font-weight="400"
     font-size="21.333"
     letter-spacing="0"
     word-spacing="0"
     id="path2"
     inkscape:connector-curvature="0" />
</svg>
