<?xml version="1.0" encoding="UTF-8" standalone="no"?>
<svg
   xmlns:dc="http://purl.org/dc/elements/1.1/"
   xmlns:cc="http://creativecommons.org/ns#"
   xmlns:rdf="http://www.w3.org/1999/02/22-rdf-syntax-ns#"
   xmlns:svg="http://www.w3.org/2000/svg"
   xmlns="http://www.w3.org/2000/svg"
   xmlns:sodipodi="http://sodipodi.sourceforge.net/DTD/sodipodi-0.dtd"
   xmlns:inkscape="http://www.inkscape.org/namespaces/inkscape"
   width="24"
   height="24"
   version="1.1"
   id="svg4"
   sodipodi:docname="megauptodate.svg"
   inkscape:version="0.92.4 (5da689c313, 2019-01-14)">
  <metadata
     id="metadata10">
    <rdf:RDF>
      <cc:Work
         rdf:about="">
        <dc:format>image/svg+xml</dc:format>
        <dc:type
           rdf:resource="http://purl.org/dc/dcmitype/StillImage" />
        <dc:title></dc:title>
      </cc:Work>
    </rdf:RDF>
  </metadata>
  <defs
     id="defs8" />
  <sodipodi:namedview
     pagecolor="#ffffff"
     bordercolor="#666666"
     borderopacity="1"
     objecttolerance="10"
     gridtolerance="10"
     guidetolerance="10"
     inkscape:pageopacity="0"
     inkscape:pageshadow="2"
     inkscape:window-width="1087"
     inkscape:window-height="480"
     id="namedview6"
     showgrid="false"
     inkscape:zoom="9.8333333"
     inkscape:cx="1.0677966"
     inkscape:cy="12"
     inkscape:window-x="0"
     inkscape:window-y="25"
     inkscape:window-maximized="0"
     inkscape:current-layer="svg4" />
  <path
     style="font-weight:400;font-size:21.33300018px;line-height:1.25;font-family:'1 Punk';-inkscape-font-specification:'1 Punk';letter-spacing:0;word-spacing:0;fill:#5beedc"
     d="M 12,1.14 A 10.86,10.86 0 0 0 1.14,12 10.86,10.86 0 0 0 12,22.86 10.86,10.86 0 0 0 22.86,12 10.86,10.86 0 0 0 12,1.14 Z m 0.02,1.82 A 8.97,8.97 0 0 1 21,11.93 8.97,8.97 0 0 1 12.02,20.9 8.97,8.97 0 0 1 3.05,11.93 8.97,8.97 0 0 1 12.02,2.96 Z M 7.135,7.628 v 8.746 H 9.273 V 9.977 l 2.016,4.716 h 1.43 l 2.015,-4.716 v 6.396 h 2.133 V 7.627 h -2.865 l -2.004,4.68 -1.992,-4.68 H 7.135 Z"
     font-weight="400"
     font-size="21.333"
     letter-spacing="0"
     word-spacing="0"
     id="path2"
     inkscape:connector-curvature="0" />
</svg>
