<?xml version="1.0" encoding="UTF-8" standalone="no"?>
<svg
   xmlns:dc="http://purl.org/dc/elements/1.1/"
   xmlns:cc="http://creativecommons.org/ns#"
   xmlns:rdf="http://www.w3.org/1999/02/22-rdf-syntax-ns#"
   xmlns:svg="http://www.w3.org/2000/svg"
   xmlns="http://www.w3.org/2000/svg"
   xmlns:sodipodi="http://sodipodi.sourceforge.net/DTD/sodipodi-0.dtd"
   xmlns:inkscape="http://www.inkscape.org/namespaces/inkscape"
   width="24"
   height="24"
   version="1.1"
   id="svg4"
   sodipodi:docname="microphone-sensitivity-muted.svg"
   inkscape:version="0.92.4 (5da689c313, 2019-01-14)">
  <metadata
     id="metadata10">
    <rdf:RDF>
      <cc:Work
         rdf:about="">
        <dc:format>image/svg+xml</dc:format>
        <dc:type
           rdf:resource="http://purl.org/dc/dcmitype/StillImage" />
        <dc:title></dc:title>
      </cc:Work>
    </rdf:RDF>
  </metadata>
  <defs
     id="defs8" />
  <sodipodi:namedview
     pagecolor="#ffffff"
     bordercolor="#666666"
     borderopacity="1"
     objecttolerance="10"
     gridtolerance="10"
     guidetolerance="10"
     inkscape:pageopacity="0"
     inkscape:pageshadow="2"
     inkscape:window-width="1087"
     inkscape:window-height="480"
     id="namedview6"
     showgrid="false"
     inkscape:zoom="9.8333333"
     inkscape:cx="1.0677966"
     inkscape:cy="12"
     inkscape:window-x="0"
     inkscape:window-y="25"
     inkscape:window-maximized="0"
     inkscape:current-layer="svg4" />
  <path
     d="M 4.91,2.8 3.38,4.26 6.73,7.8 A 5.55,5.68 0 0 0 6.45,9.56 5.55,5.68 0 0 0 12,15.23 5.55,5.68 0 0 0 13.54,15 l 1.06,1.12 A 6.53,6.68 0 0 1 12,16.68 6.53,6.68 0 0 1 5.47,10 6.53,6.68 0 0 1 5.47,9.94 H 3.5 a 8.49,8.68 0 0 0 0,0.06 8.49,8.68 0 0 0 7.43,8.6 v 5.36 H 13.1 V 18.6 a 8.49,8.68 0 0 0 2.92,-0.98 l 2.52,2.67 1.53,-1.45 L 4.9,2.81 Z M 12,3.88 A 5.55,5.68 0 0 0 8.7,5 l 7.65,8.08 A 5.55,5.68 0 0 0 17.55,9.56 5.55,5.68 0 0 0 12,3.87 Z m 6.53,6.07 a 6.53,6.68 0 0 1 0,0.06 6.53,6.68 0 0 1 -1.3,4 l 1.36,1.44 A 8.49,8.68 0 0 0 20.5,10 a 8.49,8.68 0 0 0 0,-0.06 h -1.96 z"
     id="path2"
     inkscape:connector-curvature="0"
     style="fill:#5beedc" />
</svg>
