<?xml version="1.0" encoding="UTF-8" standalone="no"?>
<svg
   xmlns:dc="http://purl.org/dc/elements/1.1/"
   xmlns:cc="http://creativecommons.org/ns#"
   xmlns:rdf="http://www.w3.org/1999/02/22-rdf-syntax-ns#"
   xmlns:svg="http://www.w3.org/2000/svg"
   xmlns="http://www.w3.org/2000/svg"
   xmlns:sodipodi="http://sodipodi.sourceforge.net/DTD/sodipodi-0.dtd"
   xmlns:inkscape="http://www.inkscape.org/namespaces/inkscape"
   width="24"
   height="24"
   id="svg9"
   version="1.1"
   sodipodi:docname="network-cellular-3g.svg"
   inkscape:version="0.92.4 (5da689c313, 2019-01-14)">
  <metadata
     id="metadata8">
    <rdf:RDF>
      <cc:Work
         rdf:about="">
        <dc:format>image/svg+xml</dc:format>
        <dc:type
           rdf:resource="http://purl.org/dc/dcmitype/StillImage" />
        <dc:title></dc:title>
      </cc:Work>
    </rdf:RDF>
  </metadata>
  <sodipodi:namedview
     pagecolor="#ffffff"
     bordercolor="#666666"
     borderopacity="1"
     objecttolerance="10"
     gridtolerance="10"
     guidetolerance="10"
     inkscape:pageopacity="0"
     inkscape:pageshadow="2"
     inkscape:window-width="1087"
     inkscape:window-height="480"
     id="namedview6"
     showgrid="false"
     inkscape:zoom="9.8333333"
     inkscape:cx="1.0677966"
     inkscape:cy="12"
     inkscape:window-x="0"
     inkscape:window-y="25"
     inkscape:window-maximized="0"
     inkscape:current-layer="svg9" />
  <defs
     id="defs3">
    <style
       id="current-color-scheme" />
  </defs>
  <path
     d="m 4.5,5.75 v 2.5 h 2.97 l -1.56,3.2 C 5.54,12.2 6.17,13.23 7,13.25 h 1.25 v 2.5 H 4.5 v 2.5 h 3.75 a 2.5,2.5 0 0 0 2.5,-2.5 v -2.5 c 0,-0.67 -0.25,-1.22 -0.66,-1.68 -0.28,-0.3 -0.77,-0.4 -1.21,-0.55 L 10.59,7.54 C 10.96,6.8 10.33,5.77 9.5,5.74 h -5 z m 10,0 c 0,0 -2.5,0 -2.5,2.5 v 7.5 c 0,2.5 2.5,2.5 2.5,2.5 H 17 c 2.5,0 2.5,-2.54 2.5,-2.54 v -4.92 l -1.25,-0.04 -2.5,0.04 v 2.46 H 17 v 2.5 H 14.5 V 8.25 H 17 V 9.5 h 2.5 V 8.25 c 0,0 0,-2.5 -2.5,-2.5 z"
     id="path822"
     inkscape:connector-curvature="0"
     style="color:#ffffff;fill:#5beedc;stroke-width:1.25" />
</svg>
