<?xml version="1.0" encoding="UTF-8" standalone="no"?>
<svg
   xmlns:dc="http://purl.org/dc/elements/1.1/"
   xmlns:cc="http://creativecommons.org/ns#"
   xmlns:rdf="http://www.w3.org/1999/02/22-rdf-syntax-ns#"
   xmlns:svg="http://www.w3.org/2000/svg"
   xmlns="http://www.w3.org/2000/svg"
   xmlns:sodipodi="http://sodipodi.sourceforge.net/DTD/sodipodi-0.dtd"
   xmlns:inkscape="http://www.inkscape.org/namespaces/inkscape"
   width="24"
   height="24"
   version="1.1"
   id="svg4"
   sodipodi:docname="network-idle.svg"
   inkscape:version="0.92.4 (5da689c313, 2019-01-14)">
  <metadata
     id="metadata10">
    <rdf:RDF>
      <cc:Work
         rdf:about="">
        <dc:format>image/svg+xml</dc:format>
        <dc:type
           rdf:resource="http://purl.org/dc/dcmitype/StillImage" />
        <dc:title></dc:title>
      </cc:Work>
    </rdf:RDF>
  </metadata>
  <defs
     id="defs8" />
  <sodipodi:namedview
     pagecolor="#ffffff"
     bordercolor="#666666"
     borderopacity="1"
     objecttolerance="10"
     gridtolerance="10"
     guidetolerance="10"
     inkscape:pageopacity="0"
     inkscape:pageshadow="2"
     inkscape:window-width="1087"
     inkscape:window-height="480"
     id="namedview6"
     showgrid="false"
     inkscape:zoom="9.8333333"
     inkscape:cx="1.0677966"
     inkscape:cy="12"
     inkscape:window-x="0"
     inkscape:window-y="25"
     inkscape:window-maximized="0"
     inkscape:current-layer="svg4" />
  <path
     d="M 18.73,4.02 14.86,7.89 A 4.8,4.8 0 0 0 12.18,7.07 4.8,4.8 0 0 0 8.77,8.5 l 0.45,0.45 -0.4,0.4 -0.49,-0.5 a 4.8,4.8 0 0 0 -1.39,3.39 4.8,4.8 0 0 0 0.82,2.67 l -4.06,4.05 1.38,1.39 4.07,-4.07 a 4.8,4.8 0 0 0 2.59,0.76 4.8,4.8 0 0 0 3.37,-1.39 l -0.45,-0.45 0.4,-0.4 0.49,0.49 A 4.8,4.8 0 0 0 16.98,11.87 4.8,4.8 0 0 0 16.22,9.29 L 20.1,5.4 Z m -8.48,5.95 0.58,0.59 -0.4,0.4 -0.58,-0.59 z m 1.6,1.61 0.59,0.58 -0.4,0.4 -0.58,-0.58 z m 1.61,1.6 0.58,0.6 -0.4,0.4 -0.58,-0.6 z"
     id="path2"
     inkscape:connector-curvature="0"
     style="fill:#5beedc;fill-opacity:0.3" />
</svg>
