<?xml version="1.0" encoding="UTF-8" standalone="no"?>
<svg
   xmlns:dc="http://purl.org/dc/elements/1.1/"
   xmlns:cc="http://creativecommons.org/ns#"
   xmlns:rdf="http://www.w3.org/1999/02/22-rdf-syntax-ns#"
   xmlns:svg="http://www.w3.org/2000/svg"
   xmlns="http://www.w3.org/2000/svg"
   xmlns:sodipodi="http://sodipodi.sourceforge.net/DTD/sodipodi-0.dtd"
   xmlns:inkscape="http://www.inkscape.org/namespaces/inkscape"
   width="24"
   height="24"
   version="1.1"
   id="svg28"
   sodipodi:docname="network-wireless-secure-signal-good.svg"
   inkscape:version="0.92.4 (5da689c313, 2019-01-14)">
  <metadata
     id="metadata32">
    <rdf:RDF>
      <cc:Work
         rdf:about="">
        <dc:format>image/svg+xml</dc:format>
        <dc:type
           rdf:resource="http://purl.org/dc/dcmitype/StillImage" />
        <dc:title></dc:title>
      </cc:Work>
    </rdf:RDF>
  </metadata>
  <sodipodi:namedview
     pagecolor="#ffffff"
     bordercolor="#666666"
     borderopacity="1"
     objecttolerance="10"
     gridtolerance="10"
     guidetolerance="10"
     inkscape:pageopacity="0"
     inkscape:pageshadow="2"
     inkscape:window-width="1087"
     inkscape:window-height="480"
     id="namedview30"
     showgrid="false"
     inkscape:zoom="9.8333333"
     inkscape:cx="1.0677966"
     inkscape:cy="12"
     inkscape:window-x="0"
     inkscape:window-y="25"
     inkscape:window-maximized="0"
     inkscape:current-layer="svg28" />
  <defs
     id="defs14">
    <clipPath
       id="a">
      <ellipse
         cx="23.62"
         cy="24.5"
         rx="21.01"
         ry="21.05"
         fill="#ccc"
         stroke-width=".3"
         stroke-linecap="round"
         stroke-linejoin="round"
         id="ellipse2" />
    </clipPath>
    <clipPath
       id="d">
      <ellipse
         cx="23.62"
         cy="24.5"
         rx="21.01"
         ry="21.05"
         fill="#ccc"
         stroke-width=".3"
         stroke-linecap="round"
         stroke-linejoin="round"
         id="ellipse5" />
    </clipPath>
    <clipPath
       id="c">
      <ellipse
         cx="23.62"
         cy="24.5"
         rx="21.01"
         ry="21.05"
         fill="#ccc"
         stroke-width=".3"
         stroke-linecap="round"
         stroke-linejoin="round"
         id="ellipse8" />
    </clipPath>
    <clipPath
       id="b">
      <ellipse
         cx="7.99"
         cy="40.18"
         rx="7.55"
         ry="7.49"
         fill="#ccc"
         stroke-width=".38"
         stroke-linecap="round"
         stroke-linejoin="round"
         id="ellipse11" />
    </clipPath>
  </defs>
  <g
     id="g26"
     style="fill:#5beedc">
    <path
       clip-path="url(#a)"
       d="M 25.85,9.43 H -2.4 L 3.13,3.9 h 22.72"
       transform="matrix(0.39615,0,0,0.39615,2.93,2.7)"
       id="path16"
       inkscape:connector-curvature="0"
       style="fill-opacity:0.3" />
    <path
       transform="matrix(0.28012035,-0.28012035,0.28012035,0.28012035,-1.2277792,7.7158788)"
       clip-path="url(#b)"
       d="m 2.12,33.97 v 11.9 h 11.91 z"
       id="path18"
       inkscape:connector-curvature="0" />
    <path
       transform="matrix(0.28012035,-0.28012035,0.28012035,0.28012035,-1.2277792,7.7158788)"
       clip-path="url(#c)"
       d="M 2.12,26.7 V 19.12 L 28.88,45.88 H 21.3 Z"
       id="path20"
       inkscape:connector-curvature="0" />
    <path
       transform="matrix(0.37086,0,0,0.39615,3.58,2.7)"
       d="m 25.85,19.81 h -26.2 l -5.1,-5.1 h 31.3"
       clip-path="url(#d)"
       id="path22"
       inkscape:connector-curvature="0" />
    <path
       d="m 16.6,4.38 c -0.9,0 -1.64,0.73 -1.64,1.64 v 0.65 h -0.99 v 3.94 c 0,0.37 0.3,0.66 0.66,0.66 h 3.94 a 0.66,0.66 0 0 0 0.65,-0.66 L 19.26,6.69 18.56,6.67 H 18.24 V 6.02 c 0,-0.9 -0.74,-1.64 -1.64,-1.64 z m 0,0.62 c 0.56,0 1.01,0.46 1.01,1.02 V 6.67 H 15.58 V 6.02 C 15.58,5.46 16.04,5 16.6,5 Z"
       id="path24"
       inkscape:connector-curvature="0" />
  </g>
</svg>
