<?xml version="1.0" encoding="UTF-8" standalone="no"?>
<svg
   xmlns:dc="http://purl.org/dc/elements/1.1/"
   xmlns:cc="http://creativecommons.org/ns#"
   xmlns:rdf="http://www.w3.org/1999/02/22-rdf-syntax-ns#"
   xmlns:svg="http://www.w3.org/2000/svg"
   xmlns="http://www.w3.org/2000/svg"
   xmlns:sodipodi="http://sodipodi.sourceforge.net/DTD/sodipodi-0.dtd"
   xmlns:inkscape="http://www.inkscape.org/namespaces/inkscape"
   height="24"
   width="24"
   version="1.1"
   id="svg4"
   sodipodi:docname="network-wireless-hotspot.svg"
   inkscape:version="0.92.4 (5da689c313, 2019-01-14)">
  <metadata
     id="metadata10">
    <rdf:RDF>
      <cc:Work
         rdf:about="">
        <dc:format>image/svg+xml</dc:format>
        <dc:type
           rdf:resource="http://purl.org/dc/dcmitype/StillImage" />
        <dc:title></dc:title>
      </cc:Work>
    </rdf:RDF>
  </metadata>
  <defs
     id="defs8" />
  <sodipodi:namedview
     pagecolor="#ffffff"
     bordercolor="#666666"
     borderopacity="1"
     objecttolerance="10"
     gridtolerance="10"
     guidetolerance="10"
     inkscape:pageopacity="0"
     inkscape:pageshadow="2"
     inkscape:window-width="1087"
     inkscape:window-height="480"
     id="namedview6"
     showgrid="false"
     inkscape:zoom="9.8333333"
     inkscape:cx="1.0677966"
     inkscape:cy="12"
     inkscape:window-x="0"
     inkscape:window-y="25"
     inkscape:window-maximized="0"
     inkscape:current-layer="svg4" />
  <path
     d="M 17.87,4.41 V 6 A 8.8,8.8 0 0 1 20,11.96 c 0,2.5 -0.85,4.32 -2.18,5.95 v 1.6 h 1.5 A 11.59,11.59 0 0 0 22.16,11.97 11.3,11.3 0 0 0 19.4,4.41 Z M 4.6,4.5 a 11.3,11.3 0 0 0 -2.76,7.55 l 0.01,-0.01 a 11.59,11.59 0 0 0 2.85,7.55 h 1.48 v -1.6 A 8.98,8.98 0 0 1 4,12.04 8.8,8.8 0 0 1 6.13,6.1 V 4.5 Z m 9.57,2.16 V 8.8 a 5.1,5.1 0 0 1 1.06,3.24 5.1,5.1 0 0 1 -1.09,3.24 v 2.16 h 1.07 c 1.33,-1.07 2.17,-3.1 2.18,-5.39 l 0.01,0.01 c 0,-2.34 -0.79,-4.34 -2.15,-5.4 z M 8.75,6.74 C 7.39,7.8 6.6,9.81 6.6,12.14 h 0.02 c 0,2.3 0.85,4.32 2.18,5.39 H 9.86 V 15.37 A 5.06,5.06 0 0 1 8.77,12.14 5.14,5.14 0 0 1 9.83,8.9 V 6.74 Z m 3.3,3.82 a 1.51,1.51 0 0 0 -1.51,1.51 1.51,1.51 0 0 0 1.51,1.51 1.51,1.51 0 0 0 1.51,-1.51 1.51,1.51 0 0 0 -1.5,-1.5 z"
     id="path2"
     inkscape:connector-curvature="0"
     style="fill:#5beedc" />
</svg>
