<?xml version="1.0" encoding="UTF-8" standalone="no"?>
<svg
   xmlns:dc="http://purl.org/dc/elements/1.1/"
   xmlns:cc="http://creativecommons.org/ns#"
   xmlns:rdf="http://www.w3.org/1999/02/22-rdf-syntax-ns#"
   xmlns:svg="http://www.w3.org/2000/svg"
   xmlns="http://www.w3.org/2000/svg"
   xmlns:sodipodi="http://sodipodi.sourceforge.net/DTD/sodipodi-0.dtd"
   xmlns:inkscape="http://www.inkscape.org/namespaces/inkscape"
   width="24"
   height="24"
   version="1.1"
   id="svg4"
   sodipodi:docname="protonmail-indicator.svg"
   inkscape:version="0.92.4 (5da689c313, 2019-01-14)">
  <metadata
     id="metadata10">
    <rdf:RDF>
      <cc:Work
         rdf:about="">
        <dc:format>image/svg+xml</dc:format>
        <dc:type
           rdf:resource="http://purl.org/dc/dcmitype/StillImage" />
        <dc:title></dc:title>
      </cc:Work>
    </rdf:RDF>
  </metadata>
  <defs
     id="defs8" />
  <sodipodi:namedview
     pagecolor="#ffffff"
     bordercolor="#666666"
     borderopacity="1"
     objecttolerance="10"
     gridtolerance="10"
     guidetolerance="10"
     inkscape:pageopacity="0"
     inkscape:pageshadow="2"
     inkscape:window-width="1138"
     inkscape:window-height="480"
     id="namedview6"
     showgrid="false"
     inkscape:zoom="9.8333333"
     inkscape:cx="1.0677966"
     inkscape:cy="12"
     inkscape:window-x="0"
     inkscape:window-y="25"
     inkscape:window-maximized="0"
     inkscape:current-layer="svg4" />
  <path
     d="M 12,1.913 A 6.85,6.54 0 0 0 5.152,8.396 H 4.004 l 7.836,7.7 h 0.76 l 7.86,-7.7 H 18.846 A 6.85,6.54 0 0 0 12,1.913 Z m 0,1.713 a 5.056,4.828 0 0 1 5.055,4.77 H 6.947 A 5.056,4.828 0 0 1 12,3.626 Z m -8.85,5.67 a 9.46,9.46 0 0 0 -0.61,3.33 9.46,9.46 0 0 0 1.24,4.66 l 3.72,-3.7 z m 17.82,0.35 -3.97,3.95 3.38,3.39 a 9.46,9.46 0 0 0 1.08,-4.36 9.46,9.46 0 0 0 -0.49,-2.98 z m -12.55,4.8 -3.94,3.91 a 9.46,9.46 0 0 0 7.52,3.73 9.46,9.46 0 0 0 7.74,-4.02 l -3.68,-3.61 -2.9,2.9 h -1.84 l -2.9,-2.9 z"
     id="path2"
     inkscape:connector-curvature="0"
     style="fill:#5beedc" />
</svg>
