<?xml version="1.0" encoding="UTF-8" standalone="no"?>
<svg
   xmlns:dc="http://purl.org/dc/elements/1.1/"
   xmlns:cc="http://creativecommons.org/ns#"
   xmlns:rdf="http://www.w3.org/1999/02/22-rdf-syntax-ns#"
   xmlns:svg="http://www.w3.org/2000/svg"
   xmlns="http://www.w3.org/2000/svg"
   xmlns:sodipodi="http://sodipodi.sourceforge.net/DTD/sodipodi-0.dtd"
   xmlns:inkscape="http://www.inkscape.org/namespaces/inkscape"
   width="24"
   height="24"
   version="1"
   id="svg7"
   sodipodi:docname="rhythmbox-playing.svg"
   inkscape:version="0.92.4 (5da689c313, 2019-01-14)">
  <metadata
     id="metadata8">
    <rdf:RDF>
      <cc:Work
         rdf:about="">
        <dc:format>image/svg+xml</dc:format>
        <dc:type
           rdf:resource="http://purl.org/dc/dcmitype/StillImage" />
        <dc:title></dc:title>
      </cc:Work>
    </rdf:RDF>
  </metadata>
  <sodipodi:namedview
     pagecolor="#ffffff"
     bordercolor="#666666"
     borderopacity="1"
     objecttolerance="10"
     gridtolerance="10"
     guidetolerance="10"
     inkscape:pageopacity="0"
     inkscape:pageshadow="2"
     inkscape:window-width="1087"
     inkscape:window-height="480"
     id="namedview6"
     showgrid="false"
     inkscape:zoom="9.8333333"
     inkscape:cx="1.0677966"
     inkscape:cy="12"
     inkscape:window-x="0"
     inkscape:window-y="25"
     inkscape:window-maximized="0"
     inkscape:current-layer="svg7" />
  <defs
     id="defs3">
    <style
       id="current-color-scheme" />
  </defs>
  <path
     d="m 11.23,1.97 a 6.97,6.97 0 0 0 -6.85,7.1 v 5.88 a 6.97,6.97 0 0 0 6.85,7.1 c 3.8,0 6.87,-3.16 6.87,-7.1 V 9.08 A 6.97,6.97 0 0 0 11.23,1.98 Z M 8.41,5.32 a 1.11,1.11 0 0 1 0.05,0 1.115,1.115 0 1 1 0,2.23 1.1152802,1.1152802 0 0 1 -0.05,-2.23 z m 5.56,0 a 1.11,1.11 0 0 1 0.05,0 1.11,1.11 0 1 1 0,2.22 1.1102815,1.1102815 0 0 1 -0.05,-2.22 z m -2.73,5.57 a 4.05,3.93 0 0 1 4.05,3.93 4.05,3.93 0 0 1 -4.05,3.94 4.05,3.93 0 0 1 -4.04,-3.94 4.05,3.93 0 0 1 4.04,-3.93 z m 0,1.94 a 2.05,1.99 0 0 0 -2.05,2 2.05,1.99 0 0 0 2.04,1.98 2.05,1.99 0 0 0 2.05,-1.99 2.05,1.99 0 0 0 -2.05,-1.99 z m 8.34,3.33 a 0.68,0.76 0 0 0 -0.7,0.76 v 4.03 a 0.68,0.76 0 0 0 1.02,0.66 l 1.54,-1 L 23,19.6 a 0.68,0.76 0 0 0 0,-1.32 l -1.55,-1.01 -1.54,-1 a 0.68,0.76 0 0 0 -0.32,-0.1 z"
     id="path5"
     inkscape:connector-curvature="0"
     style="fill:#5beedc" />
</svg>
