<?xml version="1.0" encoding="UTF-8" standalone="no"?>
<svg
   xmlns:dc="http://purl.org/dc/elements/1.1/"
   xmlns:cc="http://creativecommons.org/ns#"
   xmlns:rdf="http://www.w3.org/1999/02/22-rdf-syntax-ns#"
   xmlns:svg="http://www.w3.org/2000/svg"
   xmlns="http://www.w3.org/2000/svg"
   xmlns:sodipodi="http://sodipodi.sourceforge.net/DTD/sodipodi-0.dtd"
   xmlns:inkscape="http://www.inkscape.org/namespaces/inkscape"
   width="24"
   height="24"
   version="1.1"
   id="svg14"
   sodipodi:docname="simplescreenrecorder-panel.svg"
   inkscape:version="0.92.4 (5da689c313, 2019-01-14)">
  <metadata
     id="metadata20">
    <rdf:RDF>
      <cc:Work
         rdf:about="">
        <dc:format>image/svg+xml</dc:format>
        <dc:type
           rdf:resource="http://purl.org/dc/dcmitype/StillImage" />
        <dc:title></dc:title>
      </cc:Work>
    </rdf:RDF>
  </metadata>
  <defs
     id="defs18" />
  <sodipodi:namedview
     pagecolor="#ffffff"
     bordercolor="#666666"
     borderopacity="1"
     objecttolerance="10"
     gridtolerance="10"
     guidetolerance="10"
     inkscape:pageopacity="0"
     inkscape:pageshadow="2"
     inkscape:window-width="1136"
     inkscape:window-height="480"
     id="namedview16"
     showgrid="false"
     inkscape:zoom="9.8333333"
     inkscape:cx="1.0677966"
     inkscape:cy="12"
     inkscape:window-x="0"
     inkscape:window-y="25"
     inkscape:window-maximized="0"
     inkscape:current-layer="svg14" />
  <g
     id="g12"
     style="fill:#5beedc">
    <g
       id="g8"
       style="stroke-width:1.00179994">
      <path
         d="m 41,12 a 9,11 0 0 1 -0.04492,1.0977 9,11 0 0 1 -0.13477,1.0879 9,11 0 0 1 -0.22266,1.0645 9,11 0 0 1 -0.30859,1.0332 9,11 0 0 1 -0.39062,0.99024 9,11 0 0 1 -0.4707,0.9375 9,11 0 0 1 -0.54492,0.875 9,11 0 0 1 -0.61328,0.80469 9,11 0 0 1 -0.67578,0.72656 9,11 0 0 1 -0.73047,0.63867 9,11 0 0 1 -0.78125,0.54688 9,11 0 0 1 -0.63672,0.34961 c 4.3722,-1.4456 7.5547,-5.406 7.5547,-10.252 a 10.91,10.95 0 0 0 -10.691,-10.881 9,11 0 0 1 0.58984,0.035156 9,11 0 0 1 0.88867,0.16406 9,11 0 0 1 0.87305,0.27344 9,11 0 0 1 0.84375,0.37695 9,11 0 0 1 0.81055,0.47656 9,11 0 0 1 0.76758,0.57617 9,11 0 0 1 0.7168,0.66406 9,11 0 0 1 0.6582,0.75 9,11 0 0 1 0.59375,0.82617 9,11 0 0 1 0.52148,0.89453 9,11 0 0 1 0.44922,0.95312 9,11 0 0 1 0.36719,1.0039 9,11 0 0 1 0.2832,1.043 9,11 0 0 1 0.19727,1.0742 9,11 0 0 1 0.10742,1.0918 9,11 0 0 1 0.02344,0.77734 z"
         id="path2"
         inkscape:connector-curvature="0" />
      <path
         d="M 9.2148,1.5527 C 4.5118,2.7922 1,6.8395 1,11.9097 A 10.91,10.95 0 0 0 9.4746,22.5507 9,11 0 0 1 9.33983,22.50773 9,11 0 0 1 8.49608,22.13078 9,11 0 0 1 7.68553,21.65422 9,11 0 0 1 6.91795,21.07805 9,11 0 0 1 6.20115,20.41399 9,11 0 0 1 5.54295,19.66399 9,11 0 0 1 4.9492,18.83782 9,11 0 0 1 4.42772,17.94329 9,11 0 0 1 3.9785,16.99017 a 9,11 0 0 1 -0.36719,-1.0039 9,11 0 0 1 -0.2832,-1.043 9,11 0 0 1 -0.19727,-1.0742 9,11 0 0 1 -0.10742,-1.0918 9,11 0 0 1 -0.023438,-0.77734 9,11 0 0 1 0.044922,-1.0977 9,11 0 0 1 0.13477,-1.0879 9,11 0 0 1 0.22266,-1.0645 9,11 0 0 1 0.30859,-1.0332 9,11 0 0 1 0.39062,-0.99023 9,11 0 0 1 0.4707,-0.9375 9,11 0 0 1 0.54492,-0.875 9,11 0 0 1 0.61328,-0.80469 9,11 0 0 1 0.67578,-0.72656 9,11 0 0 1 0.73047,-0.63867 9,11 0 0 1 0.78125,-0.54688 9,11 0 0 1 0.82031,-0.44922 9,11 0 0 1 0.47656,-0.19531 z"
         id="path4"
         inkscape:connector-curvature="0" />
      <path
         d="m 14.796,1.5527 c 4.703,1.2395 8.2148,5.2868 8.2148,10.357 a 10.91,10.95 0 0 1 -8.4746,10.641 9,11 0 0 0 0.13477,-0.04297 9,11 0 0 0 0.84375,-0.37695 9,11 0 0 0 0.81055,-0.47656 9,11 0 0 0 0.76758,-0.57617 9,11 0 0 0 0.7168,-0.66406 9,11 0 0 0 0.6582,-0.75 9,11 0 0 0 0.59375,-0.82617 9,11 0 0 0 0.52148,-0.89453 9,11 0 0 0 0.44922,-0.95312 9,11 0 0 0 0.36719,-1.0039 9,11 0 0 0 0.2832,-1.043 9,11 0 0 0 0.19727,-1.0742 9,11 0 0 0 0.10742,-1.0918 9,11 0 0 0 0.02344,-0.77734 A 9,11 0 0 0 20.9659,10.90223 9,11 0 0 0 20.83113,9.81433 9,11 0 0 0 20.60847,8.74983 9,11 0 0 0 20.29988,7.71663 9,11 0 0 0 19.90926,6.7264 9,11 0 0 0 19.43856,5.7889 9,11 0 0 0 18.89364,4.9139 9,11 0 0 0 18.28036,4.10921 9,11 0 0 0 17.60458,3.38265 9,11 0 0 0 16.87411,2.74398 9,11 0 0 0 16.09286,2.1971 9,11 0 0 0 15.27255,1.74788 9,11 0 0 0 14.79599,1.55257 Z"
         id="path6"
         inkscape:connector-curvature="0" />
    </g>
    <circle
       cx="12"
       cy="12"
       r="6"
       style="fill-rule:evenodd;paint-order:normal"
       id="circle10" />
  </g>
</svg>
