<?xml version="1.0" encoding="UTF-8" standalone="no"?>
<svg
   xmlns:dc="http://purl.org/dc/elements/1.1/"
   xmlns:cc="http://creativecommons.org/ns#"
   xmlns:rdf="http://www.w3.org/1999/02/22-rdf-syntax-ns#"
   xmlns:svg="http://www.w3.org/2000/svg"
   xmlns="http://www.w3.org/2000/svg"
   xmlns:sodipodi="http://sodipodi.sourceforge.net/DTD/sodipodi-0.dtd"
   xmlns:inkscape="http://www.inkscape.org/namespaces/inkscape"
   width="24"
   height="24"
   version="1.1"
   id="svg7"
   sodipodi:docname="teams-tray-activity.svg"
   inkscape:version="0.92.5 (2060ec1f9f, 2020-04-08)">
  <metadata
     id="metadata8">
    <rdf:RDF>
      <cc:Work
         rdf:about="">
        <dc:format>image/svg+xml</dc:format>
        <dc:type
           rdf:resource="http://purl.org/dc/dcmitype/StillImage" />
        <dc:title></dc:title>
      </cc:Work>
    </rdf:RDF>
  </metadata>
  <sodipodi:namedview
     pagecolor="#ffffff"
     bordercolor="#666666"
     borderopacity="1"
     objecttolerance="10"
     gridtolerance="10"
     guidetolerance="10"
     inkscape:pageopacity="0"
     inkscape:pageshadow="2"
     inkscape:window-width="1087"
     inkscape:window-height="480"
     id="namedview6"
     showgrid="false"
     inkscape:zoom="9.8333333"
     inkscape:cx="1.0677966"
     inkscape:cy="12"
     inkscape:window-x="0"
     inkscape:window-y="25"
     inkscape:window-maximized="0"
     inkscape:current-layer="svg7" />
  <defs
     id="defs3">
    <style
       id="current-color-scheme"
       type="text/css" />
  </defs>
  <path
     d="M 12,2 A 10,10 0 0 0 2,12 10,10 0 0 0 12,22 10,10 0 0 0 14.457,21.68 5.5,5.5 0 0 1 14.373,21.492 5.5,5.5 0 0 1 14.201,20.971 5.5,5.5 0 0 1 14.081,20.436 5.5,5.5 0 0 1 14.014,19.889 5.5,5.5 0 0 1 14,19.5 a 5.5,5.5 0 0 1 0.027,-0.549 5.5,5.5 0 0 1 0.082,-0.543 5.5,5.5 0 0 1 0.137,-0.533 5.5,5.5 0 0 1 0.188,-0.518 5.5,5.5 0 0 1 0.24,-0.494 5.5,5.5 0 0 1 0.287,-0.468 5.5,5.5 0 0 1 0.332,-0.438 5.5,5.5 0 0 1 0.375,-0.402 5.5,5.5 0 0 1 0.414,-0.364 5.5,5.5 0 0 1 0.447,-0.32 5.5,5.5 0 0 1 0.477,-0.273 5.5,5.5 0 0 1 0.502,-0.225 5.5,5.5 0 0 1 0.521,-0.172 5.5,5.5 0 0 1 0.535,-0.12 5.5,5.5 0 0 1 0.547,-0.067 A 5.5,5.5 0 0 1 19.5,14 a 5.5,5.5 0 0 1 0.549,0.027 5.5,5.5 0 0 1 0.543,0.082 5.5,5.5 0 0 1 0.533,0.137 5.5,5.5 0 0 1 0.518,0.188 5.5,5.5 0 0 1 0.043,0.021 A 10,10 0 0 0 22,12 10,10 0 0 0 12,2 Z M 7,7 h 10 v 3 h -3 v 7 H 10 V 10 H 7 Z m 12.5,9 A 3.5,3.5 0 0 0 16,19.5 3.5,3.5 0 0 0 19.5,23 3.5,3.5 0 0 0 23,19.5 3.5,3.5 0 0 0 19.5,16 Z"
     id="path820"
     stroke-miterlimit="4"
     inkscape:connector-curvature="0"
     style="opacity:1;vector-effect:none;fill:#5beedc;fill-opacity:1;fill-rule:nonzero;stroke:none;stroke-width:0.37799999;stroke-linecap:round;stroke-linejoin:round;stroke-miterlimit:4;stroke-dasharray:none;stroke-dashoffset:0;stroke-opacity:1;paint-order:stroke fill markers" />
</svg>
