<?xml version="1.0" encoding="UTF-8" standalone="no"?>
<svg
   xmlns:dc="http://purl.org/dc/elements/1.1/"
   xmlns:cc="http://creativecommons.org/ns#"
   xmlns:rdf="http://www.w3.org/1999/02/22-rdf-syntax-ns#"
   xmlns:svg="http://www.w3.org/2000/svg"
   xmlns="http://www.w3.org/2000/svg"
   xmlns:sodipodi="http://sodipodi.sourceforge.net/DTD/sodipodi-0.dtd"
   xmlns:inkscape="http://www.inkscape.org/namespaces/inkscape"
   width="24"
   height="24"
   version="1"
   id="svg4"
   sodipodi:docname="input-touchpad-off.svg"
   inkscape:version="0.92.4 (5da689c313, 2019-01-14)">
  <metadata
     id="metadata10">
    <rdf:RDF>
      <cc:Work
         rdf:about="">
        <dc:format>image/svg+xml</dc:format>
        <dc:type
           rdf:resource="http://purl.org/dc/dcmitype/StillImage" />
        <dc:title></dc:title>
      </cc:Work>
    </rdf:RDF>
  </metadata>
  <defs
     id="defs8" />
  <sodipodi:namedview
     pagecolor="#ffffff"
     bordercolor="#666666"
     borderopacity="1"
     objecttolerance="10"
     gridtolerance="10"
     guidetolerance="10"
     inkscape:pageopacity="0"
     inkscape:pageshadow="2"
     inkscape:window-width="1138"
     inkscape:window-height="480"
     id="namedview6"
     showgrid="false"
     inkscape:zoom="9.8333333"
     inkscape:cx="1.0677966"
     inkscape:cy="12"
     inkscape:window-x="0"
     inkscape:window-y="25"
     inkscape:window-maximized="0"
     inkscape:current-layer="svg4" />
  <path
     class="ColorScheme-Text"
     d="M 4.084,2.958 A 1.145,1.295 0 0 0 2.937,4.257 v 8.69 l 18.122,0.048 V 4.257 a 1.145,1.295 0 0 0 -1.147,-1.3 H 4.087 Z M 9.205,4.37 12,7.165 14.79,4.37 15.8,5.375 13.005,8.169 15.8,10.959 14.795,11.969 12,9.174 9.21,11.97 8.2,10.964 10.995,8.169 8.2,5.38 Z m -6.268,9.363 v 6.01 c 0,0.72 0.513,1.3 1.147,1.3 h 15.83 a 1.145,1.295 0 0 0 1.148,-1.3 V 13.777 L 2.94,13.733 Z m 1.838,1.73 h 5.927 c 0.47,0 0.845,0.37 0.845,0.83 v 2.495 c 0,0.46 -0.376,0.832 -0.845,0.832 H 4.775 A 0.838,0.838 0 0 1 3.929,18.788 v -2.495 c 0,-0.46 0.377,-0.83 0.846,-0.83 z m 8.523,0 h 5.927 c 0.469,0 0.846,0.37 0.846,0.83 v 2.495 c 0,0.46 -0.377,0.832 -0.846,0.832 h -5.927 a 0.838,0.838 0 0 1 -0.847,-0.832 v -2.495 c 0,-0.46 0.378,-0.83 0.847,-0.83 z"
     id="path2"
     inkscape:connector-curvature="0"
     style="fill:#5beedc;stroke-width:2.52600002" />
</svg>
