<?xml version="1.0" encoding="UTF-8" standalone="no"?>
<svg
   xmlns:dc="http://purl.org/dc/elements/1.1/"
   xmlns:cc="http://creativecommons.org/ns#"
   xmlns:rdf="http://www.w3.org/1999/02/22-rdf-syntax-ns#"
   xmlns:svg="http://www.w3.org/2000/svg"
   xmlns="http://www.w3.org/2000/svg"
   xmlns:sodipodi="http://sodipodi.sourceforge.net/DTD/sodipodi-0.dtd"
   xmlns:inkscape="http://www.inkscape.org/namespaces/inkscape"
   width="24"
   height="24"
   version="1.1"
   id="svg4"
   sodipodi:docname="weather-fog.svg"
   inkscape:version="0.92.4 (5da689c313, 2019-01-14)">
  <metadata
     id="metadata10">
    <rdf:RDF>
      <cc:Work
         rdf:about="">
        <dc:format>image/svg+xml</dc:format>
        <dc:type
           rdf:resource="http://purl.org/dc/dcmitype/StillImage" />
        <dc:title></dc:title>
      </cc:Work>
    </rdf:RDF>
  </metadata>
  <defs
     id="defs8" />
  <sodipodi:namedview
     pagecolor="#ffffff"
     bordercolor="#666666"
     borderopacity="1"
     objecttolerance="10"
     gridtolerance="10"
     guidetolerance="10"
     inkscape:pageopacity="0"
     inkscape:pageshadow="2"
     inkscape:window-width="1087"
     inkscape:window-height="480"
     id="namedview6"
     showgrid="false"
     inkscape:zoom="9.8333333"
     inkscape:cx="1.0677966"
     inkscape:cy="12"
     inkscape:window-x="0"
     inkscape:window-y="25"
     inkscape:window-maximized="0"
     inkscape:current-layer="svg4" />
  <path
     style="color:#000000;font-weight:400;line-height:normal;font-family:'Andale Mono';-inkscape-font-specification:'Andale Mono';text-indent:0;text-align:start;text-decoration:none;text-decoration-line:none;text-transform:none;overflow:visible;fill:#5beedc;marker:none"
     d="m 7.91,3.898 c -1.488,0 -2.92,0.586 -4.07,1.7 a 0.471,0.471 0 0 1 -0.045,0 c -0.021,0.016 0.02,0.027 0,0.045 -0.02,0.017 -0.024,-0.019 -0.043,0 -0.02,0.018 0.018,0.025 0,0.045 -0.018,0.019 -0.028,-0.02 -0.045,0 -0.017,0.02 0.016,0.023 0,0.044 -0.015,0.022 -0.031,0.02 -0.045,0.043 -0.012,0.024 0.011,0.021 0,0.045 -0.011,0.024 -0.035,0.02 -0.045,0.045 -0.008,0.025 0.008,0.02 0,0.045 -0.006,0.026 0.005,0.02 0,0.045 -0.004,0.026 0.003,0.019 0,0.045 -0.002,0.026 0,0.019 0,0.045 V 6.09 c 0.003,0.026 -0.004,0.019 0,0.045 0.005,0.026 -0.006,0.02 0,0.045 0.007,0.025 -0.008,0.017 0,0.043 0.01,0.024 0.034,0.02 0.045,0.045 0.012,0.023 -0.013,0.022 0,0.045 0.013,0.022 0.03,0.022 0.045,0.044 0.016,0.022 -0.017,0.025 0,0.045 0.017,0.02 0.027,-0.02 0.045,0 0.018,0.02 -0.019,0.027 0,0.045 0.019,0.019 0.023,-0.017 0.043,0 0.02,0.018 -0.02,0.029 0,0.045 0.02,0.017 0.024,-0.015 0.045,0 0.022,0.015 0.022,0.032 0.045,0.045 0.023,0.012 0.02,-0.01 0.045,0 0.024,0.011 0.02,0.035 0.045,0.045 0.025,0.008 0.02,-0.007 0.045,0 0.025,0.007 0.019,-0.006 0.044,0 0.026,0.005 0.02,-0.003 0.045,0 0.027,0.003 0.019,0.043 0.045,0.045 0.027,0.002 0.017,0 0.043,0 0.027,0 0.019,0.002 0.045,0 0.027,-0.002 0.019,-0.041 0.045,-0.045 0.026,-0.005 0.02,0.006 0.045,0 0.026,-0.006 0.02,0.007 0.045,0 0.025,-0.009 0.02,0.01 0.045,0 0.024,-0.01 0.02,-0.034 0.045,-0.045 0.023,-0.012 0.022,0.014 0.045,0 0.022,-0.013 0.023,-0.03 0.045,-0.045 0.02,-0.016 0.024,-0.028 0.045,-0.045 0.019,-0.018 0.024,0.02 0.043,0 0.018,-0.019 -0.018,-0.025 0,-0.045 A 0.471,0.471 0 0 1 4.689,6.357 C 5.657,5.421 6.749,4.973 7.91,4.973 c 1.17,0 2.456,0.455 3.799,1.43 1.542,1.118 3.078,1.708 4.56,1.699 1.458,-0.01 2.843,-0.617 3.981,-1.7 0.015,-0.018 0.031,-0.026 0.045,-0.045 0.013,-0.02 -0.012,-0.024 0,-0.045 0.012,-0.02 0.032,0.021 0.043,0 0.01,-0.02 -0.01,-0.023 0,-0.044 0.009,-0.022 -0.008,-0.023 0,-0.045 0.008,-0.022 0.038,0.022 0.045,0 0.007,-0.023 -0.006,-0.02 0,-0.043 0.006,-0.023 -0.005,-0.022 0,-0.045 0.004,-0.023 -0.003,-0.022 0,-0.045 V 6.045 c 0,-0.023 0.002,-0.022 0,-0.045 -0.003,-0.023 0.004,-0.022 0,-0.045 -0.004,-0.023 0.005,-0.022 0,-0.045 -0.006,-0.022 0.007,-0.023 0,-0.045 -0.007,-0.022 -0.037,0.022 -0.045,0 -0.008,-0.022 0.01,-0.023 0,-0.045 -0.01,-0.02 0.011,-0.024 0,-0.045 -0.011,-0.02 -0.03,0.02 -0.043,0 -0.012,-0.02 0.013,-0.023 0,-0.043 -0.014,-0.018 -0.03,-0.027 -0.045,-0.045 -0.016,-0.017 0.017,-0.028 0,-0.044 -0.017,-0.017 -0.028,0.015 -0.045,0 -0.018,-0.015 -0.026,-0.031 -0.045,-0.045 -0.02,-0.014 -0.025,0.012 -0.045,0 -0.02,-0.013 0.02,-0.034 0,-0.045 -0.02,-0.012 -0.024,0.01 -0.045,0 -0.021,-0.01 -0.023,-0.037 -0.045,-0.045 -0.021,-0.009 -0.022,0.007 -0.045,0 -0.022,-0.007 -0.022,0.005 -0.044,0 -0.023,-0.005 -0.022,0.003 -0.045,0 -0.023,-0.004 -0.02,0.002 -0.043,0 -0.024,-0.002 -0.022,0 -0.045,0 h -0.045 c -0.024,0.002 -0.022,-0.003 -0.045,0 -0.023,0.004 -0.022,-0.005 -0.045,0 -0.023,0.005 -0.022,-0.006 -0.045,0 -0.022,0.007 -0.023,-0.008 -0.045,0 -0.022,0.008 0.022,0.036 0,0.045 -0.022,0.009 -0.024,-0.01 -0.045,0 -0.021,0.01 -0.024,-0.01 -0.045,0 -0.02,0.011 -0.025,0.032 -0.045,0.045 -0.019,0.013 -0.026,-0.015 -0.045,0 C 18.438,6.517 17.409,7.02 16.27,7.028 15.11,7.035 13.817,6.563 12.426,5.553 10.93,4.468 9.404,3.898 7.91,3.898 Z m 0,4 c -1.488,0 -2.92,0.586 -4.07,1.7 a 0.471,0.471 0 0 1 -0.045,0 c -0.021,0.016 0.02,0.027 0,0.045 -0.02,0.017 -0.024,-0.019 -0.043,0 -0.02,0.018 0.018,0.025 0,0.044 -0.018,0.02 -0.028,-0.02 -0.045,0 -0.017,0.02 0.016,0.024 0,0.045 -0.015,0.022 -0.031,0.02 -0.045,0.043 -0.012,0.024 0.011,0.021 0,0.045 -0.011,0.024 -0.035,0.02 -0.045,0.045 -0.008,0.025 0.008,0.02 0,0.045 -0.006,0.026 0.005,0.02 0,0.045 -0.004,0.026 0.003,0.019 0,0.045 -0.002,0.026 0,0.019 0,0.045 v 0.045 c 0.003,0.026 -0.004,0.019 0,0.045 0.005,0.026 -0.006,0.02 0,0.045 0.007,0.025 -0.008,0.017 0,0.043 0.01,0.024 0.034,0.02 0.045,0.045 0.012,0.023 -0.013,0.022 0,0.044 0.013,0.023 0.03,0.023 0.045,0.045 0.016,0.022 -0.017,0.025 0,0.045 0.017,0.02 0.027,-0.02 0.045,0 0.018,0.02 -0.019,0.027 0,0.045 0.019,0.019 0.023,-0.017 0.043,0 0.02,0.018 -0.02,0.029 0,0.045 0.02,0.017 0.024,-0.015 0.045,0 0.022,0.015 0.022,0.032 0.045,0.045 0.023,0.012 0.02,-0.01 0.045,0 0.024,0.011 0.02,0.035 0.045,0.045 0.025,0.008 0.02,-0.007 0.045,0 0.025,0.007 0.019,-0.006 0.044,0 0.026,0.005 0.02,-0.003 0.045,0 0.027,0.003 0.019,0.043 0.045,0.045 0.027,0.002 0.017,0 0.043,0 0.027,0 0.019,0.002 0.045,0 0.027,-0.002 0.019,-0.041 0.045,-0.045 0.026,-0.005 0.02,0.006 0.045,0 0.026,-0.006 0.02,0.007 0.045,0 0.025,-0.009 0.02,0.01 0.045,0 0.024,-0.01 0.02,-0.034 0.045,-0.045 0.023,-0.012 0.022,0.014 0.045,0 0.022,-0.013 0.023,-0.03 0.045,-0.045 0.02,-0.016 0.024,-0.028 0.045,-0.045 0.019,-0.018 0.024,0.02 0.043,0 0.018,-0.019 -0.018,-0.025 0,-0.045 A 0.471,0.471 0 0 1 4.689,10.357 C 5.657,9.421 6.749,8.973 7.91,8.973 c 1.17,0 2.456,0.455 3.799,1.43 1.542,1.118 3.078,1.708 4.56,1.699 1.458,-0.01 2.843,-0.617 3.981,-1.7 0.015,-0.018 0.031,-0.026 0.045,-0.045 0.013,-0.02 -0.012,-0.024 0,-0.044 0.012,-0.02 0.032,0.02 0.043,0 0.01,-0.021 -0.01,-0.024 0,-0.045 0.009,-0.022 -0.008,-0.023 0,-0.045 0.008,-0.022 0.038,0.022 0.045,0 0.007,-0.023 -0.006,-0.02 0,-0.043 0.006,-0.023 -0.005,-0.022 0,-0.045 0.004,-0.023 -0.003,-0.022 0,-0.045 v -0.045 c 0,-0.023 0.002,-0.022 0,-0.045 -0.003,-0.023 0.004,-0.022 0,-0.045 -0.004,-0.023 0.005,-0.022 0,-0.045 -0.006,-0.022 0.007,-0.023 0,-0.045 -0.007,-0.022 -0.037,0.022 -0.045,0 -0.008,-0.022 0.01,-0.023 0,-0.045 -0.01,-0.02 0.011,-0.024 0,-0.045 -0.011,-0.02 -0.03,0.02 -0.043,0 -0.012,-0.02 0.013,-0.023 0,-0.043 -0.014,-0.018 -0.03,-0.027 -0.045,-0.044 -0.016,-0.018 0.017,-0.029 0,-0.045 -0.017,-0.017 -0.028,0.015 -0.045,0 -0.018,-0.015 -0.026,-0.031 -0.045,-0.045 -0.02,-0.014 -0.025,0.012 -0.045,0 -0.02,-0.013 0.02,-0.034 0,-0.045 -0.02,-0.012 -0.024,0.01 -0.045,0 -0.021,-0.01 -0.023,-0.037 -0.045,-0.045 -0.021,-0.009 -0.022,0.007 -0.045,0 -0.022,-0.007 -0.022,0.005 -0.044,0 -0.023,-0.005 -0.022,0.003 -0.045,0 -0.023,-0.004 -0.02,0.002 -0.043,0 -0.024,-0.002 -0.022,0 -0.045,0 h -0.045 c -0.024,0.002 -0.022,-0.003 -0.045,0 -0.023,0.004 -0.022,-0.005 -0.045,0 -0.023,0.005 -0.022,-0.006 -0.045,0 -0.022,0.007 -0.023,-0.008 -0.045,0 -0.022,0.008 0.022,0.036 0,0.045 -0.022,0.009 -0.024,-0.01 -0.045,0 -0.021,0.01 -0.024,-0.01 -0.045,0 -0.02,0.011 -0.025,0.032 -0.045,0.045 -0.019,0.013 -0.026,-0.015 -0.045,0 -0.96,0.919 -1.989,1.422 -3.128,1.43 C 15.11,11.035 13.817,10.563 12.426,9.553 10.93,8.468 9.404,7.898 7.91,7.898 Z m 0,4 c -1.488,0 -2.92,0.586 -4.07,1.7 a 0.471,0.471 0 0 1 -0.045,0 c -0.021,0.016 0.02,0.027 0,0.045 -0.02,0.017 -0.024,-0.019 -0.043,0 -0.02,0.018 0.018,0.025 0,0.044 -0.018,0.02 -0.028,-0.02 -0.045,0 -0.017,0.02 0.016,0.024 0,0.045 -0.015,0.022 -0.031,0.02 -0.045,0.043 -0.012,0.024 0.011,0.021 0,0.045 -0.011,0.024 -0.035,0.02 -0.045,0.045 -0.008,0.025 0.008,0.02 0,0.045 -0.006,0.026 0.005,0.02 0,0.045 -0.004,0.026 0.003,0.019 0,0.045 -0.002,0.026 0,0.019 0,0.045 v 0.045 c 0.003,0.026 -0.004,0.019 0,0.045 0.005,0.026 -0.006,0.02 0,0.045 0.007,0.025 -0.008,0.017 0,0.043 0.01,0.024 0.034,0.02 0.045,0.045 0.012,0.023 -0.013,0.022 0,0.044 0.013,0.023 0.03,0.023 0.045,0.045 0.016,0.022 -0.017,0.025 0,0.045 0.017,0.02 0.027,-0.02 0.045,0 0.018,0.02 -0.019,0.027 0,0.045 0.019,0.019 0.023,-0.017 0.043,0 0.02,0.018 -0.02,0.029 0,0.045 0.02,0.017 0.024,-0.015 0.045,0 0.022,0.015 0.022,0.032 0.045,0.045 0.023,0.012 0.02,-0.01 0.045,0 0.024,0.011 0.02,0.035 0.045,0.045 0.025,0.008 0.02,-0.007 0.045,0 0.025,0.007 0.019,-0.006 0.044,0 0.026,0.005 0.02,-0.003 0.045,0 0.027,0.003 0.019,0.043 0.045,0.045 0.027,0.002 0.017,0 0.043,0 0.027,0 0.019,0.002 0.045,0 0.027,-0.002 0.019,-0.041 0.045,-0.045 0.026,-0.005 0.02,0.006 0.045,0 0.026,-0.006 0.02,0.007 0.045,0 0.025,-0.009 0.02,0.01 0.045,0 0.024,-0.01 0.02,-0.034 0.045,-0.045 0.023,-0.012 0.022,0.014 0.045,0 0.022,-0.013 0.023,-0.03 0.045,-0.045 0.02,-0.016 0.024,-0.028 0.045,-0.045 0.019,-0.018 0.024,0.02 0.043,0 0.018,-0.019 -0.018,-0.025 0,-0.045 a 0.471,0.471 0 0 1 0.044,-0.045 c 0.968,-0.936 2.06,-1.384 3.221,-1.384 1.17,0 2.456,0.455 3.799,1.43 1.542,1.118 3.078,1.708 4.56,1.699 1.458,-0.01 2.843,-0.617 3.981,-1.7 0.015,-0.018 0.031,-0.026 0.045,-0.045 0.013,-0.02 -0.012,-0.024 0,-0.044 0.012,-0.02 0.032,0.02 0.043,0 0.01,-0.021 -0.01,-0.024 0,-0.045 0.009,-0.022 -0.008,-0.023 0,-0.045 0.008,-0.022 0.038,0.022 0.045,0 0.007,-0.023 -0.006,-0.02 0,-0.043 0.006,-0.023 -0.005,-0.022 0,-0.045 0.004,-0.023 -0.003,-0.022 0,-0.045 v -0.045 c 0,-0.023 0.002,-0.022 0,-0.045 -0.003,-0.023 0.004,-0.022 0,-0.045 -0.004,-0.023 0.005,-0.022 0,-0.045 -0.006,-0.022 0.007,-0.023 0,-0.045 -0.007,-0.022 -0.037,0.022 -0.045,0 -0.008,-0.022 0.01,-0.023 0,-0.045 -0.01,-0.02 0.011,-0.024 0,-0.045 -0.011,-0.02 -0.03,0.02 -0.043,0 -0.012,-0.02 0.013,-0.023 0,-0.043 -0.014,-0.018 -0.03,-0.027 -0.045,-0.044 -0.016,-0.018 0.017,-0.029 0,-0.045 -0.017,-0.017 -0.028,0.015 -0.045,0 -0.018,-0.015 -0.026,-0.031 -0.045,-0.045 -0.02,-0.014 -0.025,0.012 -0.045,0 -0.02,-0.013 0.02,-0.034 0,-0.045 -0.02,-0.012 -0.024,0.01 -0.045,0 -0.021,-0.01 -0.023,-0.037 -0.045,-0.045 -0.021,-0.009 -0.022,0.007 -0.045,0 -0.022,-0.007 -0.022,0.005 -0.044,0 -0.023,-0.005 -0.022,0.003 -0.045,0 -0.023,-0.004 -0.02,0.002 -0.043,0 -0.024,-0.002 -0.022,0 -0.045,0 h -0.045 c -0.024,0.002 -0.022,-0.003 -0.045,0 -0.023,0.004 -0.022,-0.005 -0.045,0 -0.023,0.005 -0.022,-0.006 -0.045,0 -0.022,0.007 -0.023,-0.008 -0.045,0 -0.022,0.008 0.022,0.036 0,0.045 -0.022,0.009 -0.024,-0.01 -0.045,0 -0.021,0.01 -0.024,-0.01 -0.045,0 -0.02,0.011 -0.025,0.032 -0.045,0.045 -0.019,0.013 -0.026,-0.015 -0.045,0 -0.96,0.919 -1.989,1.422 -3.128,1.43 -1.16,0.007 -2.453,-0.465 -3.844,-1.475 C 10.931,12.468 9.404,11.898 7.91,11.898 Z m 0,4 c -1.488,0 -2.92,0.586 -4.07,1.7 a 0.471,0.471 0 0 1 -0.045,0 c -0.021,0.016 0.02,0.027 0,0.045 -0.02,0.017 -0.024,-0.019 -0.043,0 -0.02,0.018 0.018,0.025 0,0.044 -0.018,0.02 -0.028,-0.02 -0.045,0 -0.017,0.02 0.016,0.024 0,0.045 -0.015,0.022 -0.031,0.02 -0.045,0.043 -0.012,0.024 0.011,0.021 0,0.045 -0.011,0.024 -0.035,0.02 -0.045,0.045 -0.008,0.025 0.008,0.02 0,0.045 -0.006,0.026 0.005,0.02 0,0.045 -0.004,0.026 0.003,0.019 0,0.045 -0.002,0.026 0,0.019 0,0.045 v 0.045 c 0.003,0.026 -0.004,0.019 0,0.045 0.005,0.026 -0.006,0.02 0,0.045 0.007,0.025 -0.008,0.017 0,0.043 0.01,0.024 0.034,0.02 0.045,0.045 0.012,0.023 -0.013,0.022 0,0.044 0.013,0.023 0.03,0.023 0.045,0.045 0.016,0.022 -0.017,0.025 0,0.045 0.017,0.02 0.027,-0.02 0.045,0 0.018,0.02 -0.019,0.027 0,0.045 0.019,0.019 0.023,-0.017 0.043,0 0.02,0.018 -0.02,0.029 0,0.045 0.02,0.017 0.024,-0.015 0.045,0 0.022,0.015 0.022,0.032 0.045,0.045 0.023,0.012 0.02,-0.01 0.045,0 0.024,0.011 0.02,0.035 0.045,0.045 0.025,0.008 0.02,-0.007 0.045,0 0.025,0.007 0.019,-0.006 0.044,0 0.026,0.005 0.02,-0.003 0.045,0 0.027,0.003 0.019,0.043 0.045,0.045 0.027,0.002 0.017,0 0.043,0 0.027,0 0.019,0.002 0.045,0 0.027,-0.002 0.019,-0.041 0.045,-0.045 0.026,-0.005 0.02,0.006 0.045,0 0.026,-0.006 0.02,0.007 0.045,0 0.025,-0.009 0.02,0.01 0.045,0 0.024,-0.01 0.02,-0.034 0.045,-0.045 0.023,-0.012 0.022,0.014 0.045,0 0.022,-0.013 0.023,-0.03 0.045,-0.045 0.02,-0.016 0.024,-0.028 0.045,-0.045 0.019,-0.018 0.024,0.02 0.043,0 0.018,-0.019 -0.018,-0.025 0,-0.045 a 0.471,0.471 0 0 1 0.044,-0.045 c 0.968,-0.936 2.06,-1.384 3.221,-1.384 1.17,0 2.456,0.455 3.799,1.43 1.542,1.118 3.078,1.708 4.56,1.699 1.458,-0.01 2.843,-0.617 3.981,-1.7 0.015,-0.018 0.031,-0.026 0.045,-0.045 0.013,-0.02 -0.012,-0.024 0,-0.044 0.012,-0.02 0.032,0.02 0.043,0 0.01,-0.021 -0.01,-0.024 0,-0.045 0.009,-0.022 -0.008,-0.023 0,-0.045 0.008,-0.022 0.038,0.022 0.045,0 0.007,-0.023 -0.006,-0.02 0,-0.043 0.006,-0.023 -0.005,-0.022 0,-0.045 0.004,-0.023 -0.003,-0.022 0,-0.045 v -0.045 c 0,-0.023 0.002,-0.022 0,-0.045 -0.003,-0.023 0.004,-0.022 0,-0.045 -0.004,-0.023 0.005,-0.022 0,-0.045 -0.006,-0.022 0.007,-0.023 0,-0.045 -0.007,-0.022 -0.037,0.022 -0.045,0 -0.008,-0.022 0.01,-0.023 0,-0.045 -0.01,-0.02 0.011,-0.024 0,-0.045 -0.011,-0.02 -0.03,0.02 -0.043,0 -0.012,-0.02 0.013,-0.023 0,-0.043 -0.014,-0.018 -0.03,-0.027 -0.045,-0.044 -0.016,-0.018 0.017,-0.029 0,-0.045 -0.017,-0.017 -0.028,0.015 -0.045,0 -0.018,-0.015 -0.026,-0.031 -0.045,-0.045 -0.02,-0.014 -0.025,0.012 -0.045,0 -0.02,-0.013 0.02,-0.034 0,-0.045 -0.02,-0.012 -0.024,0.01 -0.045,0 -0.021,-0.01 -0.023,-0.037 -0.045,-0.045 -0.021,-0.009 -0.022,0.007 -0.045,0 -0.022,-0.007 -0.022,0.005 -0.044,0 -0.023,-0.005 -0.022,0.003 -0.045,0 -0.023,-0.004 -0.02,0.002 -0.043,0 -0.024,-0.002 -0.022,0 -0.045,0 h -0.045 c -0.024,0.002 -0.022,-0.003 -0.045,0 -0.023,0.004 -0.022,-0.005 -0.045,0 -0.023,0.005 -0.022,-0.006 -0.045,0 -0.022,0.007 -0.023,-0.008 -0.045,0 -0.022,0.008 0.022,0.036 0,0.045 -0.022,0.009 -0.024,-0.01 -0.045,0 -0.021,0.01 -0.024,-0.01 -0.045,0 -0.02,0.011 -0.025,0.032 -0.045,0.045 -0.019,0.013 -0.026,-0.015 -0.045,0 -0.96,0.919 -1.989,1.422 -3.128,1.43 -1.16,0.007 -2.453,-0.465 -3.844,-1.475 C 10.931,16.468 9.404,15.898 7.91,15.898 Z"
     font-weight="400"
     overflow="visible"
     id="path2"
     inkscape:connector-curvature="0" />
</svg>
