<?xml version="1.0" encoding="UTF-8" standalone="no"?>
<svg
   xmlns:dc="http://purl.org/dc/elements/1.1/"
   xmlns:cc="http://creativecommons.org/ns#"
   xmlns:rdf="http://www.w3.org/1999/02/22-rdf-syntax-ns#"
   xmlns:svg="http://www.w3.org/2000/svg"
   xmlns="http://www.w3.org/2000/svg"
   xmlns:sodipodi="http://sodipodi.sourceforge.net/DTD/sodipodi-0.dtd"
   xmlns:inkscape="http://www.inkscape.org/namespaces/inkscape"
   width="24"
   height="24"
   version="1.1"
   id="svg4"
   sodipodi:docname="weather-clear-night.svg"
   inkscape:version="0.92.4 (5da689c313, 2019-01-14)">
  <metadata
     id="metadata10">
    <rdf:RDF>
      <cc:Work
         rdf:about="">
        <dc:format>image/svg+xml</dc:format>
        <dc:type
           rdf:resource="http://purl.org/dc/dcmitype/StillImage" />
        <dc:title></dc:title>
      </cc:Work>
    </rdf:RDF>
  </metadata>
  <defs
     id="defs8" />
  <sodipodi:namedview
     pagecolor="#ffffff"
     bordercolor="#666666"
     borderopacity="1"
     objecttolerance="10"
     gridtolerance="10"
     guidetolerance="10"
     inkscape:pageopacity="0"
     inkscape:pageshadow="2"
     inkscape:window-width="1087"
     inkscape:window-height="480"
     id="namedview6"
     showgrid="false"
     inkscape:zoom="9.8333333"
     inkscape:cx="1.0677966"
     inkscape:cy="12"
     inkscape:window-x="0"
     inkscape:window-y="25"
     inkscape:window-maximized="0"
     inkscape:current-layer="svg4" />
  <path
     style="color:#000000;overflow:visible;isolation:auto;mix-blend-mode:normal;fill:#5beedc;fill-rule:evenodd"
     d="m 12.332,3 a 9,9 0 0 0 -0.078,0.004 9,9 0 0 0 -1.129,0.09 9,9 0 0 0 -0.146,0.02 8.03,8.243 0 0 0 -0.004,0.003 9,9 0 1 0 9.681,12.332 7.5,7.5 0 0 1 -0.02,0.01 9,9 0 0 0 0.005,-0.01 7.5,7.5 0 0 1 -1.293,0.606 7.5,7.5 0 0 1 -0.051,0.021 7.5,7.5 0 0 1 -0.05,0.018 A 7.5,7.5 0 0 1 16.832,16.5 7.5,7.5 0 0 1 9.332,9 7.5,7.5 0 0 1 11.18,4.088 8,8 0 0 1 11.2,4.084 7.5,7.5 0 0 1 12.36,3 Z M 9.934,4.355 a 8.03,8.243 0 0 0 -0.059,0.079 8.03,8.243 0 0 0 -0.42,0.7 8.03,8.243 0 0 0 -0.35,0.741 8.03,8.243 0 0 0 -0.277,0.775 8.03,8.243 0 0 0 -0.2,0.797 8.03,8.243 0 0 0 -0.12,0.815 8.03,8.243 0 0 0 -0.041,0.824 8.03,8.243 0 0 0 0.02,0.582 8.03,8.243 0 0 0 0.097,0.818 8.03,8.243 0 0 0 0.176,0.803 8.03,8.243 0 0 0 0.252,0.783 8.03,8.243 0 0 0 0.328,0.752 8.03,8.243 0 0 0 0.4,0.715 8.03,8.243 0 0 0 0.467,0.67 8.03,8.243 0 0 0 0.53,0.62 8.03,8.243 0 0 0 0.585,0.562 8.03,8.243 0 0 0 0.64,0.498 8.03,8.243 0 0 0 0.684,0.43 8.03,8.243 0 0 0 0.723,0.359 8.03,8.243 0 0 0 0.754,0.281 8.03,8.243 0 0 0 0.777,0.205 8.03,8.243 0 0 0 0.795,0.123 8.03,8.243 0 0 0 0.801,0.041 8.03,8.243 0 0 0 0.268,-0.006 8.03,8.243 0 0 0 0.799,-0.07 8.03,8.243 0 0 0 0.789,-0.152 8.03,8.243 0 0 0 0.123,-0.038 8,8 0 0 1 -0.131,0.168 8,8 0 0 1 -0.553,0.579 8,8 0 0 1 -0.607,0.52 8,8 0 0 1 -0.657,0.456 8,8 0 0 1 -0.699,0.39 8,8 0 0 1 -0.732,0.317 8,8 0 0 1 -0.764,0.242 8,8 0 0 1 -0.781,0.166 8,8 0 0 1 -0.795,0.086 8,8 0 0 1 -0.8,0.006 A 8,8 0 0 1 11.16,19.92 8,8 0 0 1 10.375,19.768 8,8 0 0 1 9.609,19.538 8,8 0 0 1 8.869,19.232 8,8 0 0 1 8.164,18.854 8,8 0 0 1 7.502,18.408 8,8 0 0 1 6.885,17.898 8,8 0 0 1 6.325,17.328 8,8 0 0 1 5.822,16.707 8,8 0 0 1 5.385,16.037 8,8 0 0 1 5.015,15.328 8,8 0 0 1 4.719,14.584 8,8 0 0 1 4.5,13.816 8,8 0 0 1 4.357,13.029 8,8 0 0 1 4.293,12.23 8,8 0 0 1 4.311,11.432 8,8 0 0 1 4.408,10.639 8,8 0 0 1 4.582,9.857 8,8 0 0 1 4.836,9.1 8,8 0 0 1 5.162,8.37 8,8 0 0 1 5.561,7.676 8,8 0 0 1 6.025,7.026 8,8 0 0 1 6.553,6.424 8,8 0 0 1 7.139,5.879 8,8 0 0 1 7.775,5.396 8,8 0 0 1 8.457,4.979 8,8 0 0 1 9.177,4.631 8,8 0 0 1 9.927,4.357 8,8 0 0 1 9.934,4.355 Z"
     overflow="visible"
     id="path2"
     inkscape:connector-curvature="0" />
</svg>
