<?xml version="1.0" encoding="UTF-8" standalone="no"?>
<svg
   xmlns:dc="http://purl.org/dc/elements/1.1/"
   xmlns:cc="http://creativecommons.org/ns#"
   xmlns:rdf="http://www.w3.org/1999/02/22-rdf-syntax-ns#"
   xmlns:svg="http://www.w3.org/2000/svg"
   xmlns="http://www.w3.org/2000/svg"
   xmlns:sodipodi="http://sodipodi.sourceforge.net/DTD/sodipodi-0.dtd"
   xmlns:inkscape="http://www.inkscape.org/namespaces/inkscape"
   width="24"
   height="24"
   version="1.1"
   id="svg4"
   sodipodi:docname="weather-clear.svg"
   inkscape:version="0.92.4 (5da689c313, 2019-01-14)">
  <metadata
     id="metadata10">
    <rdf:RDF>
      <cc:Work
         rdf:about="">
        <dc:format>image/svg+xml</dc:format>
        <dc:type
           rdf:resource="http://purl.org/dc/dcmitype/StillImage" />
        <dc:title></dc:title>
      </cc:Work>
    </rdf:RDF>
  </metadata>
  <defs
     id="defs8" />
  <sodipodi:namedview
     pagecolor="#ffffff"
     bordercolor="#666666"
     borderopacity="1"
     objecttolerance="10"
     gridtolerance="10"
     guidetolerance="10"
     inkscape:pageopacity="0"
     inkscape:pageshadow="2"
     inkscape:window-width="1087"
     inkscape:window-height="480"
     id="namedview6"
     showgrid="false"
     inkscape:zoom="9.8333333"
     inkscape:cx="1.0677966"
     inkscape:cy="12"
     inkscape:window-x="0"
     inkscape:window-y="25"
     inkscape:window-maximized="0"
     inkscape:current-layer="svg4" />
  <path
     d="m 11.662,1.988 c -0.179,0 -0.318,0.161 -0.318,0.34 v 1.99 c 0,0.2 0.139,0.338 0.318,0.338 h 0.676 c 0.179,0 0.318,-0.139 0.318,-0.318 v -2.01 c 0,-0.199 -0.139,-0.34 -0.318,-0.34 z M 5.392,4.576 A 0.338,0.338 0 0 0 5.154,4.696 L 4.695,5.154 a 0.338,0.338 0 0 0 0,0.477 L 6.09,7.045 a 0.338,0.338 0 0 0 0.476,0 L 7.045,6.566 a 0.338,0.338 0 0 0 0,-0.457 L 5.65,4.695 A 0.318,0.318 0 0 0 5.393,4.595 V 4.576 Z m 13.215,0 a 0.318,0.318 0 0 0 -0.238,0.12 L 16.955,6.09 a 0.338,0.338 0 0 0 0,0.476 l 0.479,0.479 a 0.338,0.338 0 0 0 0.457,0 L 19.305,5.65 a 0.338,0.338 0 0 0 0,-0.496 l -0.46,-0.459 a 0.338,0.338 0 0 0 -0.238,-0.1 z M 12,5.957 A 6.044,6.044 0 0 0 5.957,12 6.044,6.044 0 0 0 12,18.043 6.044,6.044 0 0 0 18.043,12 6.044,6.044 0 0 0 12,5.957 Z m 0,1 A 5.044,5.044 0 0 1 17.043,12 5.044,5.044 0 0 1 12,17.043 5.044,5.044 0 0 1 6.957,12 5.044,5.044 0 0 1 12,6.957 Z m -9.672,4.387 c -0.199,0 -0.34,0.139 -0.34,0.318 v 0.676 c 0,0.179 0.161,0.318 0.34,0.318 h 1.99 c 0.2,0 0.338,-0.139 0.338,-0.318 v -0.676 c 0,-0.179 -0.139,-0.318 -0.318,-0.318 z m 17.334,0 c -0.179,0 -0.318,0.139 -0.318,0.318 v 0.676 c 0,0.179 0.139,0.318 0.318,0.318 h 2.01 c 0.199,0 0.34,-0.139 0.34,-0.318 v -0.676 c 0,-0.179 -0.161,-0.318 -0.34,-0.318 z M 6.328,16.855 a 0.338,0.338 0 0 0 -0.219,0.1 L 4.695,18.35 a 0.338,0.338 0 0 0 0,0.496 l 0.46,0.459 a 0.338,0.338 0 0 0 0.476,0 L 7.045,17.91 a 0.338,0.338 0 0 0 0,-0.476 L 6.566,16.955 a 0.338,0.338 0 0 0 -0.218,-0.1 z m 11.34,0 a 0.338,0.338 0 0 0 -0.234,0.1 l -0.479,0.479 a 0.338,0.338 0 0 0 0,0.457 l 1.414,1.414 a 0.338,0.338 0 0 0 0.477,0 l 0.459,-0.46 a 0.338,0.338 0 0 0 0,-0.476 L 17.91,16.955 a 0.338,0.338 0 0 0 -0.238,-0.1 z m -6.006,2.489 c -0.179,0 -0.318,0.139 -0.318,0.318 v 2.01 c 0,0.199 0.139,0.34 0.318,0.34 h 0.676 c 0.179,0 0.318,-0.161 0.318,-0.34 v -1.99 c 0,-0.2 -0.139,-0.338 -0.318,-0.338 z"
     id="path2"
     inkscape:connector-curvature="0"
     style="fill:#5beedc" />
</svg>
