<?xml version="1.0" encoding="UTF-8" standalone="no"?>
<svg
   xmlns:dc="http://purl.org/dc/elements/1.1/"
   xmlns:cc="http://creativecommons.org/ns#"
   xmlns:rdf="http://www.w3.org/1999/02/22-rdf-syntax-ns#"
   xmlns:svg="http://www.w3.org/2000/svg"
   xmlns="http://www.w3.org/2000/svg"
   xmlns:sodipodi="http://sodipodi.sourceforge.net/DTD/sodipodi-0.dtd"
   xmlns:inkscape="http://www.inkscape.org/namespaces/inkscape"
   width="24"
   height="24"
   version="1.1"
   id="svg4"
   sodipodi:docname="weather-clouds.svg"
   inkscape:version="0.92.4 (5da689c313, 2019-01-14)">
  <metadata
     id="metadata10">
    <rdf:RDF>
      <cc:Work
         rdf:about="">
        <dc:format>image/svg+xml</dc:format>
        <dc:type
           rdf:resource="http://purl.org/dc/dcmitype/StillImage" />
        <dc:title></dc:title>
      </cc:Work>
    </rdf:RDF>
  </metadata>
  <defs
     id="defs8" />
  <sodipodi:namedview
     pagecolor="#ffffff"
     bordercolor="#666666"
     borderopacity="1"
     objecttolerance="10"
     gridtolerance="10"
     guidetolerance="10"
     inkscape:pageopacity="0"
     inkscape:pageshadow="2"
     inkscape:window-width="1087"
     inkscape:window-height="480"
     id="namedview6"
     showgrid="false"
     inkscape:zoom="9.8333333"
     inkscape:cx="1.0677966"
     inkscape:cy="12"
     inkscape:window-x="0"
     inkscape:window-y="25"
     inkscape:window-maximized="0"
     inkscape:current-layer="svg4" />
  <path
     d="m 11.662,1.988 c -0.179,0 -0.318,0.161 -0.318,0.34 v 1.99 c 0,0.2 0.14,0.338 0.318,0.338 h 0.676 c 0.179,0 0.318,-0.14 0.318,-0.318 v -2.01 c 0,-0.199 -0.14,-0.34 -0.318,-0.34 z M 5.392,4.576 A 0.338,0.338 0 0 0 5.154,4.696 L 4.695,5.154 a 0.338,0.338 0 0 0 0,0.477 L 6.09,7.045 a 0.338,0.338 0 0 0 0.476,0 L 7.045,6.566 a 0.338,0.338 0 0 0 0,-0.457 L 5.65,4.695 A 0.318,0.318 0 0 0 5.393,4.595 V 4.576 Z m 13.215,0 a 0.318,0.318 0 0 0 -0.238,0.12 L 16.955,6.09 a 0.338,0.338 0 0 0 0,0.476 l 0.479,0.479 a 0.338,0.338 0 0 0 0.457,0 L 19.305,5.65 a 0.338,0.338 0 0 0 0,-0.496 l -0.46,-0.459 a 0.338,0.338 0 0 0 -0.238,-0.1 z M 12,5.957 A 6.044,6.044 0 0 0 5.957,12 a 6.044,6.044 0 0 0 1.389,3.848 3.556,3.556 0 0 0 -0.84,1.06 0.338,0.338 0 0 0 -0.158,-0.053 h -0.02 a 0.338,0.338 0 0 0 -0.219,0.1 L 4.695,18.35 a 0.338,0.338 0 0 0 0,0.496 l 0.46,0.459 a 0.338,0.338 0 0 0 0.476,0 l 0.484,-0.479 a 3.556,3.556 0 0 0 3.541,3.272 h 8 A 4.444,4.444 0 0 0 22.102,17.652 4.444,4.444 0 0 0 19.219,13.498 5.333,5.333 0 0 0 18.008,11.369 6.044,6.044 0 0 0 12,5.957 Z m 0,1 a 5.044,5.044 0 0 1 4.762,3.416 5.333,5.333 0 0 0 -2.66,-0.719 5.333,5.333 0 0 0 -5.334,5.332 5.333,5.333 0 0 0 0.003,0.116 3.556,3.556 0 0 0 -0.57,0.203 A 5.044,5.044 0 0 1 6.957,12 5.044,5.044 0 0 1 12,6.957 Z m 2.102,3.586 a 4.444,4.444 0 0 1 4.373,3.654 3.556,3.556 0 0 1 2.738,3.457 3.556,3.556 0 0 1 -3.557,3.555 h -8 A 2.667,2.667 0 0 1 6.99,18.543 2.667,2.667 0 0 1 9.656,15.875 2.667,2.667 0 0 1 9.752,15.881 4.444,4.444 0 0 1 9.656,14.986 4.444,4.444 0 0 1 14.102,10.543 Z m -11.774,0.8 c -0.199,0 -0.34,0.14 -0.34,0.32 v 0.675 c 0,0.179 0.161,0.318 0.34,0.318 h 1.99 c 0.2,0 0.338,-0.14 0.338,-0.318 V 11.662 A 0.314,0.314 0 0 0 4.338,11.344 h -2.01 z m 17.334,0 a 0.314,0.314 0 0 0 -0.318,0.32 v 0.675 c 0,0.179 0.14,0.318 0.318,0.318 h 2.01 c 0.199,0 0.34,-0.14 0.34,-0.318 v -0.676 c 0,-0.179 -0.161,-0.318 -0.34,-0.318 h -2.01 z"
     id="path2"
     inkscape:connector-curvature="0"
     style="fill:#5beedc" />
</svg>
