<?xml version="1.0" encoding="UTF-8" standalone="no"?>
<svg
   xmlns:dc="http://purl.org/dc/elements/1.1/"
   xmlns:cc="http://creativecommons.org/ns#"
   xmlns:rdf="http://www.w3.org/1999/02/22-rdf-syntax-ns#"
   xmlns:svg="http://www.w3.org/2000/svg"
   xmlns="http://www.w3.org/2000/svg"
   xmlns:sodipodi="http://sodipodi.sourceforge.net/DTD/sodipodi-0.dtd"
   xmlns:inkscape="http://www.inkscape.org/namespaces/inkscape"
   width="24"
   height="24"
   version="1.1"
   id="svg6"
   sodipodi:docname="weather-storm.svg"
   inkscape:version="0.92.4 (5da689c313, 2019-01-14)">
  <metadata
     id="metadata12">
    <rdf:RDF>
      <cc:Work
         rdf:about="">
        <dc:format>image/svg+xml</dc:format>
        <dc:type
           rdf:resource="http://purl.org/dc/dcmitype/StillImage" />
        <dc:title></dc:title>
      </cc:Work>
    </rdf:RDF>
  </metadata>
  <defs
     id="defs10" />
  <sodipodi:namedview
     pagecolor="#ffffff"
     bordercolor="#666666"
     borderopacity="1"
     objecttolerance="10"
     gridtolerance="10"
     guidetolerance="10"
     inkscape:pageopacity="0"
     inkscape:pageshadow="2"
     inkscape:window-width="1087"
     inkscape:window-height="480"
     id="namedview8"
     showgrid="false"
     inkscape:zoom="9.8333333"
     inkscape:cx="1.0677966"
     inkscape:cy="12"
     inkscape:window-x="0"
     inkscape:window-y="25"
     inkscape:window-maximized="0"
     inkscape:current-layer="svg6" />
  <path
     d="m 12,1.967 a 6,6 0 0 0 -6,6 6,6 0 0 0 0.004,0.129 4,4 0 0 0 -3.004,3.87 4,4 0 0 0 4,4 v -1 a 3,3 0 0 1 -3,-3 3,3 0 0 1 3,-3 A 3,3 0 0 1 7.107,8.973 5,5 0 0 1 7,7.967 a 5,5 0 0 1 5,-5 5,5 0 0 1 4.92,4.111 4,4 0 0 1 3.08,3.889 4,4 0 0 1 -3,3.869 v 1.03 a 5,5 0 0 0 4,-4.9 A 5,5 0 0 0 17.758,6.291 6,6 0 0 0 12,1.967 Z"
     id="path2"
     inkscape:connector-curvature="0"
     style="fill:#5beedc" />
  <path
     d="m 15,10 -6,6 h 6 l -5,6"
     id="path4"
     inkscape:connector-curvature="0"
     style="fill:none;stroke:#5beedc" />
</svg>
