<?xml version="1.0" encoding="UTF-8" standalone="no"?>
<svg
   xmlns:dc="http://purl.org/dc/elements/1.1/"
   xmlns:cc="http://creativecommons.org/ns#"
   xmlns:rdf="http://www.w3.org/1999/02/22-rdf-syntax-ns#"
   xmlns:svg="http://www.w3.org/2000/svg"
   xmlns="http://www.w3.org/2000/svg"
   xmlns:sodipodi="http://sodipodi.sourceforge.net/DTD/sodipodi-0.dtd"
   xmlns:inkscape="http://www.inkscape.org/namespaces/inkscape"
   width="24"
   height="24"
   version="1.1"
   id="svg8"
   sodipodi:docname="audio-volume-medium.svg"
   inkscape:version="0.92.4 (5da689c313, 2019-01-14)">
  <metadata
     id="metadata14">
    <rdf:RDF>
      <cc:Work
         rdf:about="">
        <dc:format>image/svg+xml</dc:format>
        <dc:type
           rdf:resource="http://purl.org/dc/dcmitype/StillImage" />
        <dc:title></dc:title>
      </cc:Work>
    </rdf:RDF>
  </metadata>
  <defs
     id="defs12" />
  <sodipodi:namedview
     pagecolor="#ffffff"
     bordercolor="#666666"
     borderopacity="1"
     objecttolerance="10"
     gridtolerance="10"
     guidetolerance="10"
     inkscape:pageopacity="0"
     inkscape:pageshadow="2"
     inkscape:window-width="1087"
     inkscape:window-height="480"
     id="namedview10"
     showgrid="false"
     inkscape:zoom="9.8333333"
     inkscape:cx="1.0677966"
     inkscape:cy="12"
     inkscape:window-x="0"
     inkscape:window-y="25"
     inkscape:window-maximized="0"
     inkscape:current-layer="svg8" />
  <path
     class="ColorScheme-Text"
     d="M 15.324,8.291 14.785,9.152 A 4,4 0 0 1 16,12.01 4,4 0 0 1 14.79,14.871 l 0.538,0.863 A 5,5 0 0 0 17,12.01 5,5 0 0 0 15.324,8.291 Z"
     id="path2"
     inkscape:connector-curvature="0"
     style="color:#31363b;fill:#5beedc" />
  <path
     class="ColorScheme-Text"
     d="M 14.865,4.547 14.621,5.523 A 7,7 0 0 1 19,12.01 7,7 0 0 1 14.62,18.488 l 0.243,0.975 A 8,8 0 0 0 20,12.01 8,8 0 0 0 14.865,4.547 Z"
     id="path4"
     inkscape:connector-curvature="0"
     style="color:#31363b;opacity:0.25;fill:#5beedc" />
  <path
     d="M 11.962,20 A 8,8 0 0 1 4,11.975 8,8 0 0 1 12.011,4 L 12,12 Z"
     id="path6"
     inkscape:connector-curvature="0"
     style="fill:#5beedc;fill-rule:evenodd" />
</svg>
