<svg xmlns="http://www.w3.org/2000/svg" width="32" height="32" version="1.1">
 <defs id="nova">
  <style id="current-color-scheme" type="text/css">
   .ColorScheme-Background {color:#181818; } .ColorScheme-ButtonBackground { color:#343434; } .ColorScheme-Highlight { color:#4285f4; } .ColorScheme-Text { color:#dfdfdf; } .ColorScheme-ViewBackground { color:#242424; } .ColorScheme-NegativeText { color:#f44336; } .ColorScheme-PositiveText { color:#4caf50; } .ColorScheme-NeutralText { color:#ff9800; }
  </style>
 </defs>
 <g id="22-22-audio-volume-low" transform="translate(-293.0004,397)">
  <path style="opacity:0.001" d="m 325.0004,-419 h 22 c 0,0 0,0 0,0 v 22 c 0,0 0,0 0,0 h -22 c 0,0 0,0 0,0 v -22 c 0,0 0,0 0,0 z"/>
  <path style="fill:currentColor" class="ColorScheme-Text" transform="translate(293.0004,-397)" d="M 42 -19 L 37 -14 A 3 3 0 0 0 34 -11 A 3 3 0 0 0 37 -8 L 42 -3 L 42 -19 z"/>
  <path style="opacity:0.3;fill:currentColor" class="ColorScheme-Text" d="m 337.0004,-416 v 2 c 2.86838,0.84571 5,3.06286 5,6 0,2.93714 -2.13163,5.15429 -5,6 v 2 c 3.89455,-0.89143 7,-4.11429 7,-8 0,-3.88571 -3.10545,-7.10857 -7,-8 z"/>
  <path style="opacity:0.3;fill:currentColor" class="ColorScheme-Text" d="m 337.0004,-412 v 8 c 0,0 3.0002,-1 3,-4 -2e-4,-3 -3,-4 -3,-4 z"/>
 </g>
 <g id="22-22-audio-volume-medium" transform="translate(-261.0004,397)">
  <path style="opacity:0.001" d="m 325.0004,-419 h 22 c 0,0 0,0 0,0 v 22 c 0,0 0,0 0,0 h -22 c 0,0 0,0 0,0 v -22 c 0,0 0,0 0,0 z"/>
  <path style="fill:currentColor" class="ColorScheme-Text" transform="translate(261.0004,-397)" d="M 74 -19 L 69 -14 A 3 3 0 0 0 66 -11 A 3 3 0 0 0 69 -8 L 74 -3 L 74 -19 z"/>
  <path style="opacity:0.3;fill:currentColor" class="ColorScheme-Text" d="m 337.0004,-416 v 2 c 2.86838,0.84571 5,3.06286 5,6 0,2.93714 -2.13163,5.15429 -5,6 v 2 c 3.89455,-0.89143 7,-4.11429 7,-8 0,-3.88571 -3.10545,-7.10857 -7,-8 z"/>
  <path style="fill:currentColor" class="ColorScheme-Text" d="m 337.0004,-412 v 8 c 0,0 3.0002,-1 3,-4 -2e-4,-3 -3,-4 -3,-4 z"/>
 </g>
 <g id="22-22-audio-volume-high" transform="translate(-229.0004,397)">
  <path style="opacity:0.001" d="m 325.0004,-419 h 22 c 0,0 0,0 0,0 v 22 c 0,0 0,0 0,0 h -22 c 0,0 0,0 0,0 v -22 c 0,0 0,0 0,0 z"/>
  <path style="fill:currentColor" class="ColorScheme-Text" transform="translate(229.0004,-397)" d="M 106 -19 L 101 -14 A 3 3 0 0 0 98 -11 A 3 3 0 0 0 101 -8 L 106 -3 L 106 -19 z"/>
  <path style="fill:currentColor" class="ColorScheme-Text" d="m 337.0004,-416 v 2 c 2.86838,0.84571 5,3.06286 5,6 0,2.93714 -2.13163,5.15429 -5,6 v 2 c 3.89455,-0.89143 7,-4.11429 7,-8 0,-3.88571 -3.10545,-7.10857 -7,-8 z"/>
  <path style="fill:currentColor" class="ColorScheme-Text" d="m 337.0004,-412 v 8 c 0,0 3.0002,-1 3,-4 -2e-4,-3 -3,-4 -3,-4 z"/>
 </g>
 <g id="audio-volume-muted">
  <path style="opacity:0.001" d="M -6.8179997e-7,-4.5e-6 H 32 c 0,0 0,0 0,0 V 31.999996 c 0,0 0,0 0,0 H -6.8179997e-7 c 0,0 0,0 0,0 V -4.5e-6 c 0,0 0,0 0,0 z"/>
  <path style="opacity:0.3;fill:currentColor" class="ColorScheme-Text" d="M 5.1601562 2.0390625 L 3.0390625 4.1601562 L 8.7304688 9.8515625 L 8 11 A 5 5 0 0 0 3 16 A 5 5 0 0 0 8 21 L 15 28 L 15 16.121094 L 18 19.121094 L 18 21.914062 C 18.719924 21.789019 19.410953 21.533524 20.039062 21.160156 L 22.197266 23.318359 C 20.957412 24.203293 19.513235 24.759056 18 24.933594 L 18 27.949219 C 20.309244 27.749486 22.511225 26.885246 24.339844 25.460938 L 26.839844 27.960938 L 28.960938 25.839844 L 26.466797 23.345703 L 24.326172 21.205078 L 22.164062 19.042969 L 18 14.878906 L 15 11.878906 L 10.923828 7.8027344 L 5.1601562 2.0390625 z M 15 4 L 13.119141 5.7558594 L 15 7.6367188 L 15 4 z M 18 4.046875 L 18 7.0605469 C 22.553382 7.5696298 25.997547 11.418249 26 16 C 25.996 16.783917 25.889666 17.563955 25.683594 18.320312 L 28.039062 20.675781 C 28.669269 19.197266 28.996045 17.607218 29 16 C 28.99733 9.7622399 24.216064 4.5666878 18 4.046875 z M 18 10.089844 L 18 10.636719 L 22.980469 15.617188 C 22.800942 12.843564 20.740002 10.556325 18 10.089844 z"/>
 </g>
 <g id="audio-volume-low" transform="translate(32.000001)">
  <path style="opacity:0.001" d="M -6.8179997e-7,-4.5e-6 H 32 c 0,0 0,0 0,0 V 31.999996 c 0,0 0,0 0,0 H -6.8179997e-7 c 0,0 0,0 0,0 V -4.5e-6 c 0,0 0,0 0,0 z"/>
  <path style="fill:currentColor" class="ColorScheme-Text" transform="translate(-32.000001)" d="M 47 4 L 40 11 A 5 5 0 0 0 35 16 A 5 5 0 0 0 40 21 L 47 28 L 47 4 z"/>
  <path style="opacity:0.3;fill:currentColor" class="ColorScheme-Text" transform="translate(-32.000001)" d="M 50 4.046875 L 50 7.0605469 A 9 9 0 0 1 58 16 A 9 9 0 0 1 50 24.933594 L 50 27.949219 A 12 12 0 0 0 61 16 A 12 12 0 0 0 50 4.046875 z M 50 10.089844 L 50 21.914062 A 6 6 0 0 0 55 16 A 6 6 0 0 0 50 10.089844 z"/>
 </g>
 <g id="audio-volume-medium" transform="translate(64.000002)">
  <path style="opacity:0.001" d="M -6.8179997e-7,-4.5e-6 H 32 c 0,0 0,0 0,0 V 31.999996 c 0,0 0,0 0,0 H -6.8179997e-7 c 0,0 0,0 0,0 V -4.5e-6 c 0,0 0,0 0,0 z"/>
  <path style="fill:currentColor" class="ColorScheme-Text" transform="translate(-64.000002)" d="M 79 4 L 72 11 A 5 5 0 0 0 67 16 A 5 5 0 0 0 72 21 L 79 28 L 79 4 z M 82 10.089844 L 82 21.914062 C 84.886117 21.426219 86.999016 18.927056 87 16 C 86.9971 13.07442 84.884662 10.577439 82 10.089844 z"/>
  <path style="opacity:0.3;fill:currentColor" class="ColorScheme-Text" d="M 18,4.046875 V 7.0605469 A 9,9 0 0 1 26,16 9,9 0 0 1 18,24.933594 v 3.015625 A 12,12 0 0 0 29,16 12,12 0 0 0 18,4.046875 Z"/>
 </g>
 <g id="audio-volume-high" transform="translate(96.000003)">
  <path style="opacity:0.001" d="M -6.8179997e-7,-4.5e-6 H 32 c 0,0 0,0 0,0 V 31.999996 c 0,0 0,0 0,0 H -6.8179997e-7 c 0,0 0,0 0,0 V -4.5e-6 c 0,0 0,0 0,0 z"/>
  <path style="fill:currentColor" class="ColorScheme-Text" transform="translate(-96.000003)" d="M 111 4 L 104 11 A 5 5 0 0 0 99 16 A 5 5 0 0 0 104 21 L 111 28 L 111 4 z M 114 4.046875 L 114 7.0605469 C 118.55338 7.5696298 121.99755 11.418249 122 16 C 121.995 20.579513 118.55116 24.424762 114 24.933594 L 114 27.949219 C 120.21457 27.429532 124.9953 22.23626 125 16 C 124.99733 9.7622399 120.21606 4.5666878 114 4.046875 z M 114 10.089844 L 114 21.914062 C 116.88612 21.426219 118.99902 18.927056 119 16 C 118.997 13.07442 116.88466 10.577439 114 10.089844 z"/>
 </g>
 <g id="22-22-audio-radio-symbolic" transform="translate(-5.0000007,58.999996)">
  <rect style="opacity:0.001" width="22" height="22" x="5" y="5"/>
  <path style="fill:currentColor" class="ColorScheme-Text" d="M 11.984375,6.9921855 C 11.432083,7.0007855 10.991355,7.4555205 11,8.0078105 v 3.0000005 h -1 c -1.108,0 -2,0.892 -2,2 V 22 c 0,1.108 0.892,2 2,2 h 12 c 1.108,0 2,-0.892 2,-2 v -8.992189 c 0,-1.108 -0.898672,-2.121413 -2,-2 H 13 V 8.0078105 c 0.0088,-0.56453 -0.45109,-1.024455 -1.015625,-1.015625 z M 10,13.007811 H 22 V 22 H 10 Z m 3.5,1.992188 A 2.5,2.5 0 0 0 11,17.5 2.5,2.5 0 0 0 13.5,20 2.5,2.5 0 0 0 16,17.5 2.5,2.5 0 0 0 13.5,14.999999 Z m 4,0 a 0.50005,0.50005 0 1 0 0,1 h 3 a 0.50005,0.50005 0 1 0 0,-1 z M 17.5,17 a 0.50005,0.50005 0 1 0 0,1 h 3 a 0.50005,0.50005 0 1 0 0,-1 z m 0,2 a 0.50005,0.50005 0 1 0 0,1 h 3 a 0.50005,0.50005 0 1 0 0,-1 z"/>
 </g>
 <g id="audio-radio-symbolic" transform="translate(-1.8179997e-7,31.999996)">
  <rect style="opacity:0.001" width="32" height="32" x="0" y="0"/>
  <path style="fill:currentColor" class="ColorScheme-Text" d="M 9.4765625,2.9785156 A 1.50015,1.50015 0 0 0 8,4.5 V 10 H 7 c -1.662,0 -3,1.338 -3,3 v 12 c 0,1.662 1.338,3 3,3 h 18 c 1.662,0 3,-1.338 3,-3 V 13 c 0,-1.662 -1.338,-3 -3,-3 H 11 V 4.5 A 1.50015,1.50015 0 0 0 9.4765625,2.9785156 Z M 7,13 H 25 V 25 H 7 Z m 5,2 a 4,4 0 0 0 -4,4 4,4 0 0 0 4,4 4,4 0 0 0 4,-4 4,4 0 0 0 -4,-4 z m 6,0 a 1.0001,1.0001 0 1 0 0,2 h 4 a 1.0001,1.0001 0 1 0 0,-2 z m 0,3 a 1.0001,1.0001 0 1 0 0,2 h 4 a 1.0001,1.0001 0 1 0 0,-2 z m 0,3 a 1.0001,1.0001 0 1 0 0,2 h 4 a 1.0001,1.0001 0 1 0 0,-2 z"/>
 </g>
 <g id="22-22-audio-volume-muted" transform="translate(-5.0000007,-27.000005)">
  <path style="opacity:0.001" d="m 5,5 h 22 c 0,0 0,0 0,0 v 22 c 0,0 0,0 0,0 H 5 c 0,0 0,0 0,0 V 5 c 0,0 0,0 0,0 z"/>
  <path style="opacity:0.3;fill:currentColor" class="ColorScheme-Text" transform="translate(5.0000007,27.000005)" d="M 3.40625 -20 L 2 -18.59375 L 5.7929688 -14.792969 L 5 -14 A 3 3 0 0 0 2 -11 A 3 3 0 0 0 5 -8 L 10 -3 L 10 -10.585938 L 12 -8.5859375 L 12 -7 C 12 -7 12.472551 -7.167669 13.039062 -7.546875 L 14.400391 -6.1855469 C 13.697036 -5.6734369 12.892734 -5.263214 12 -5 L 12 -3 C 13.40323 -3.321188 14.696638 -3.9514132 15.785156 -4.8007812 L 18.59375 -2 L 20 -3.40625 L 17.222656 -6.1914062 L 15.839844 -7.5742188 L 14.439453 -8.9746094 L 12 -11.414062 L 10 -13.414062 L 7.2070312 -16.207031 L 3.40625 -20 z M 10 -19 L 8.6210938 -17.621094 L 10 -16.242188 L 10 -19 z M 12 -19 L 12 -17 C 14.86838 -16.15429 17 -13.93714 17 -11 C 17 -10.461519 16.90619 -9.9567701 16.771484 -9.4707031 L 18.3125 -7.9296875 C 18.749051 -8.8775575 19 -9.911385 19 -11 C 19 -14.88571 15.89455 -18.10857 12 -19 z M 12 -15 L 12 -14.242188 L 14.984375 -11.257812 C 14.815427 -14.053028 12 -15 12 -15 z"/>
 </g>
</svg>
