<?xml version="1.0" encoding="UTF-8" standalone="no"?>
<svg
   xmlns:dc="http://purl.org/dc/elements/1.1/"
   xmlns:cc="http://creativecommons.org/ns#"
   xmlns:rdf="http://www.w3.org/1999/02/22-rdf-syntax-ns#"
   xmlns:svg="http://www.w3.org/2000/svg"
   xmlns="http://www.w3.org/2000/svg"
   xmlns:sodipodi="http://sodipodi.sourceforge.net/DTD/sodipodi-0.dtd"
   xmlns:inkscape="http://www.inkscape.org/namespaces/inkscape"
   width="48"
   height="48"
   viewBox="0 0 12.7 12.7"
   version="1.1"
   id="svg4"
   sodipodi:docname="2048.svg"
   inkscape:version="0.92.5 (2060ec1f9f, 2020-04-08)">
  <defs
     id="defs8">
  <style
     id="current-color-scheme"
     type="text/css">
      .ColorScheme-Highlight {
        color:#5beedc;
      }
  </style>
  </defs>
  <path
     class="ColorScheme-Highlight"
     style="fill:#5beedc"
     d="M 24 0 A 24 24 0 0 0 0 24 A 24 24 0 0 0 24 48 A 24 24 0 0 0 48 24 A 24 24 0 0 0 24 0 z M 24 3 A 21 21 0 0 1 45 24 A 21 21 0 0 1 24 45 A 21 21 0 0 1 3 24 A 21 21 0 0 1 24 3 z M 12.5 19 C 10.761353 19.0016 9.2874401 20.279185 9.0390625 22 L 11.087891 22 C 11.299525 21.401408 11.865098 21.000891 12.5 21 C 13.328427 21 14 21.671573 14 22.5 C 13.99994 22.897802 13.841865 23.279289 13.560547 23.560547 L 9 27 L 9 29 L 16 29 L 16 27 L 12 27 L 14.972656 24.972656 C 15.629304 24.317185 15.998824 23.427807 16 22.5 C 16 20.567003 14.432997 19 12.5 19 z M 20.5 19 A 3.5 4.9999996 0 0 0 17 24 A 3.5 4.9999996 0 0 0 20.5 29 A 3.5 4.9999996 0 0 0 24 24 A 3.5 4.9999996 0 0 0 20.5 19 z M 29 19 L 25 25 L 25 27 L 29 27 L 29 29 L 31 29 L 31 27 L 32 27 L 32 25 L 31 25 L 31 19 L 29 19 z M 36 19 A 3 3 0 0 0 33 22 A 3 3 0 0 0 33.767578 24 A 3 3 0 0 0 33 26 A 3 3 0 0 0 36 29 A 3 3 0 0 0 39 26 A 3 3 0 0 0 38.232422 24 A 3 3 0 0 0 39 22 A 3 3 0 0 0 36 19 z M 20.5 21 A 1.5 3 0 0 1 22 24 A 1.5 3 0 0 1 20.5 27 A 1.5 3 0 0 1 19 24 A 1.5 3 0 0 1 20.5 21 z M 36 21 A 0.99999992 0.99999992 0 0 1 37 22 A 0.99999992 0.99999992 0 0 1 36 23 A 0.99999992 0.99999992 0 0 1 35 22 A 0.99999992 0.99999992 0 0 1 36 21 z M 29 22 L 29 25 L 27 25 L 29 22 z M 36 25 A 0.99999992 0.99999992 0 0 1 37 26 A 0.99999992 0.99999992 0 0 1 36 27 A 0.99999992 0.99999992 0 0 1 35 26 A 0.99999992 0.99999992 0 0 1 36 25 z "
     transform="scale(0.26458333)"
     id="path818" />
</svg>
