<?xml version="1.0" encoding="UTF-8" standalone="no"?>
<svg
   xmlns:dc="http://purl.org/dc/elements/1.1/"
   xmlns:cc="http://creativecommons.org/ns#"
   xmlns:rdf="http://www.w3.org/1999/02/22-rdf-syntax-ns#"
   xmlns:svg="http://www.w3.org/2000/svg"
   xmlns="http://www.w3.org/2000/svg"
   xmlns:sodipodi="http://sodipodi.sourceforge.net/DTD/sodipodi-0.dtd"
   xmlns:inkscape="http://www.inkscape.org/namespaces/inkscape"
   width="48"
   height="48"
   viewBox="0 0 12.7 12.7"
   version="1.1"
   id="svg4"
   sodipodi:docname="abricotine.svg"
   inkscape:version="0.92.5 (2060ec1f9f, 2020-04-08)">
  <defs
     id="defs8">
  <style
     id="current-color-scheme"
     type="text/css">
      .ColorScheme-Highlight {
        color:#5beedc;
      }
  </style>
  </defs>
  <path
     class="ColorScheme-Highlight"
     style="fill:#5beedc"
     d="M 24 0 A 24 24 0 0 0 0 24 A 24 24 0 0 0 24 48 A 24 24 0 0 0 48 24 A 24 24 0 0 0 24 0 z M 24 3 A 21 21 0 0 1 45 24 A 21 21 0 0 1 24 45 A 21 21 0 0 1 3 24 A 21 21 0 0 1 24 3 z M 31 9 L 27 11 L 27 17.142578 L 19.794922 21.302734 L 13.267578 17.535156 L 13 22 L 15.792969 23.613281 L 9 27.535156 L 12.732422 30 L 19.792969 25.921875 L 27 30.083984 L 27 39 L 31 37 L 31 32.392578 L 37.248047 36 L 37.517578 31.535156 L 31 27.771484 L 31 19.453125 L 36.980469 16 L 33.248047 13.535156 L 31 14.833984 L 31 9 z M 27 21.761719 L 27 25.462891 L 23.794922 23.613281 L 27 21.761719 z "
     transform="scale(0.26458333)"
     id="path817" />
</svg>
