<?xml version="1.0" encoding="UTF-8" standalone="no"?>
<svg
   xmlns:dc="http://purl.org/dc/elements/1.1/"
   xmlns:cc="http://creativecommons.org/ns#"
   xmlns:rdf="http://www.w3.org/1999/02/22-rdf-syntax-ns#"
   xmlns:svg="http://www.w3.org/2000/svg"
   xmlns="http://www.w3.org/2000/svg"
   xmlns:sodipodi="http://sodipodi.sourceforge.net/DTD/sodipodi-0.dtd"
   xmlns:inkscape="http://www.inkscape.org/namespaces/inkscape"
   width="48"
   height="48"
   viewBox="0 0 12.7 12.7"
   version="1.1"
   id="svg4"
   sodipodi:docname="photoshop.svg"
   inkscape:version="0.92.5 (2060ec1f9f, 2020-04-08)">
  <defs
     id="defs8">
  <style
     id="current-color-scheme"
     type="text/css">
      .ColorScheme-Highlight {
        color:#5beedc;
      }
  </style>
  </defs>
  <path
     class="ColorScheme-Highlight"
     style="fill:#5beedc"
     d="M 24 0 A 24 24 0 0 0 0 24 A 24 24 0 0 0 24 48 A 24 24 0 0 0 48 24 A 24 24 0 0 0 24 0 z M 24 3 A 21 21 0 0 1 45 24 A 21 21 0 0 1 24 45 A 21 21 0 0 1 3 24 A 21 21 0 0 1 24 3 z "
     transform="scale(0.26458333)"
     id="path825" />
  <path
     style="fill:#162d50"
     d="M 11 14 L 11 35 L 13 35 L 13 26 L 17 26 L 19 26 A 5 5 0 0 0 24 21 L 24 19 A 5 5 0 0 0 19 14 L 17 14 L 13 14 L 11 14 z M 13 16 L 17 16 L 19 16 A 3 3 0 0 1 22 19 L 22 21 A 3 3 0 0 1 19 24 L 17 24 L 13 24 L 13 16 z M 31 17 A 5 5 0 0 0 26 22 A 5 5 0 0 0 31 27 L 33 27 A 3 3 0 0 1 36 30 A 3 3 0 0 1 33 33 L 27 33 L 27 35 L 33 35 A 5 5 0 0 0 38 30 A 5 5 0 0 0 33 25 L 31 25 A 3 3 0 0 1 28 22 A 3 3 0 0 1 31 19 L 37 19 L 37 17 L 31 17 z "
     transform="scale(0.26458333)"
     id="path821" />
</svg>
