<?xml version="1.0" encoding="UTF-8" standalone="no"?>
<svg
   xmlns:dc="http://purl.org/dc/elements/1.1/"
   xmlns:cc="http://creativecommons.org/ns#"
   xmlns:rdf="http://www.w3.org/1999/02/22-rdf-syntax-ns#"
   xmlns:svg="http://www.w3.org/2000/svg"
   xmlns="http://www.w3.org/2000/svg"
   xmlns:sodipodi="http://sodipodi.sourceforge.net/DTD/sodipodi-0.dtd"
   xmlns:inkscape="http://www.inkscape.org/namespaces/inkscape"
   width="48"
   height="48"
   viewBox="0 0 12.7 12.7"
   version="1.1"
   id="svg6"
   sodipodi:docname="afl.svg"
   inkscape:version="0.92.5 (2060ec1f9f, 2020-04-08)">
  <metadata
     id="metadata12">
    <rdf:RDF>
      <cc:Work
         rdf:about="">
        <dc:format>image/svg+xml</dc:format>
        <dc:type
           rdf:resource="http://purl.org/dc/dcmitype/StillImage" />
        <dc:title></dc:title>
      </cc:Work>
    </rdf:RDF>
  </metadata>
  <defs
     id="defs10" />
  <sodipodi:namedview
     pagecolor="#ffffff"
     bordercolor="#666666"
     borderopacity="1"
     objecttolerance="10"
     gridtolerance="10"
     guidetolerance="10"
     inkscape:pageopacity="0"
     inkscape:pageshadow="2"
     inkscape:window-width="1085"
     inkscape:window-height="480"
     id="namedview8"
     showgrid="false"
     inkscape:zoom="4.9166667"
     inkscape:cx="2.1355932"
     inkscape:cy="24"
     inkscape:window-x="0"
     inkscape:window-y="25"
     inkscape:window-maximized="0"
     inkscape:current-layer="svg6" />
  <path
     d="M 6.34,0.07 A 6.29,6.29 0 0 0 0.05,6.37 6.29,6.29 0 0 0 6.35,12.65 6.29,6.29 0 0 0 12.63,6.36 6.29,6.29 0 0 0 6.34,0.07 Z M 6.32,1 6.33,1.01 a 5.4,5.4 0 0 1 5.4,5.4 5.4,5.4 0 0 1 -5.4,5.41 A 5.4,5.4 0 0 1 0.92,6.42 5.4,5.4 0 0 1 6.32,1 Z"
     id="path2"
     inkscape:connector-curvature="0"
     style="fill:#5beedc" />
  <path
     d="M 2.802,2.519 2.632,2.56 c -0.2,0.16 -0.14,0.78 0.2,2.1 0.2,0.73 0.36,1.12 0.64,1.53 0.18,0.27 0.27,0.38 0.56,0.67 0.27,0.3 0.6,0.7 0.62,1.05 -0.08,0.69 -0.61,1.05 -0.64,1.63 0,0.7 0.36,1.28 1.06,1.28 a 0.6,0.6 0 0 0 0.28,-0.06 1.28,1.28 0 0 0 1,0.48 1.28,1.28 0 0 0 1,-0.5 c 0.1,0.05 0.19,0.08 0.28,0.08 0.7,0 1.06,-0.57 1.06,-1.28 -0.03,-0.58 -0.56,-0.94 -0.64,-1.63 0.01,-0.34 0.35,-0.75 0.62,-1.05 0.3,-0.3 0.38,-0.4 0.56,-0.67 0.28,-0.41 0.44,-0.8 0.63,-1.54 0.35,-1.3 0.4,-1.93 0.21,-2.1 L 9.982,2.52 h -0.08 c -0.1,0 -0.23,0.05 -0.38,0.12 -0.3,0.15 -0.6,0.37 -0.94,0.7 -0.51,0.48 -0.7,0.76 -1.29,1.98 -0.18,0.36 -0.4,0.8 -0.66,1.19 -0.08,0.05 -0.28,0.05 -0.28,0.05 0,0 -0.2,0 -0.28,-0.05 A 9.26,9.26 0 0 1 5.412,5.31 5.63,5.63 0 0 0 4.122,3.34 3.72,3.72 0 0 0 3.182,2.64 1.13,1.13 0 0 0 2.802,2.52 Z m 0.15,0.49 0.04,0.011 c 0.26,0.13 0.52,0.32 0.84,0.62 0.48,0.47 0.6,0.66 1.2,1.87 0.14,0.29 0.32,0.64 0.53,1 -0.3,0.11 -0.58,0.3 -0.8,0.55 C 4.632,6.87 4.482,6.71 4.352,6.58 V 6.57 L 4.332,6.56 C 4.042,6.27 4.002,6.22 3.832,5.96 3.572,5.58 3.432,5.26 3.252,4.54 3.082,3.9 2.982,3.43 2.952,3.14 Z m 6.8,0 V 3.13 c -0.03,0.3 -0.13,0.77 -0.3,1.41 a 4.16,4.16 0 0 1 -0.57,1.42 c -0.18,0.26 -0.22,0.31 -0.51,0.6 h -0.01 l -0.01,0.02 c -0.13,0.13 -0.28,0.3 -0.41,0.48 -0.22,-0.25 -0.5,-0.44 -0.8,-0.56 0.21,-0.35 0.39,-0.7 0.53,-1 0.6,-1.2 0.72,-1.39 1.2,-1.86 0.32,-0.3 0.58,-0.5 0.84,-0.62 z m -4.43,4.93 A 0.66,0.66 0 0 1 5.916,8.582 0.21,0.21 0 0 0 5.732,8.49 0.21,0.21 0 0 0 5.522,8.7 0.21,0.21 0 0 0 5.634,8.879 C 5.374,8.844 5.072,8.661 5.072,8.419 c 0,-0.27 -0.02,-0.48 0.25,-0.48 z m 2.06,0 c 0.27,0 0.25,0.21 0.25,0.48 0,0.26 -0.36,0.471 -0.62,0.491 a 0.21,0.21 0 0 1 -0.01,0 0.21,0.21 0 0 1 -0.03,0 0.21,0.21 0 0 1 -0.22,-0.21 0.21,0.21 0 0 1 0.03,-0.1 c 0,0.18 0.06,0.31 0.19,0.31 h 0.03 A 0.21,0.21 0 0 0 7.172,8.7 0.21,0.21 0 0 0 6.962,8.49 0.21,0.21 0 0 0 6.8,8.55 C 6.82,8.297 6.988,7.987 7.382,7.94 Z m -1.05,1.4 a 0.9,0.9 0 0 1 0.02,10e-4 0.9,0.9 0 0 1 0.6,0.21 c 0.16,0.2 -0.19,0.6 -0.6,0.64 l 0.04,0.01 v 0.54 c 0,0.06 0.04,0.1 0.1,0.1 h 0.22 a 0.1,0.1 0 0 0 0.1,-0.1 V 10.4 l 0.3,0.21 a 1,1 0 0 1 -0.76,0.36 1,1 0 0 1 -0.74,-0.33 l 0.28,-0.2 v 0.3 c 0,0.06 0.05,0.1 0.1,0.1 h 0.22 a 0.1,0.1 0 0 0 0.1,-0.1 V 10.2 l 0.04,-0.01 C 5.942,10.16 5.592,9.75 5.752,9.55 a 0.9,0.9 0 0 1 0.58,-0.21 z"
     id="path4"
     inkscape:connector-curvature="0"
     style="opacity:0.8;fill:#003380" />
</svg>
