<?xml version="1.0" encoding="UTF-8" standalone="no"?>
<svg
   xmlns:dc="http://purl.org/dc/elements/1.1/"
   xmlns:cc="http://creativecommons.org/ns#"
   xmlns:rdf="http://www.w3.org/1999/02/22-rdf-syntax-ns#"
   xmlns:svg="http://www.w3.org/2000/svg"
   xmlns="http://www.w3.org/2000/svg"
   xmlns:sodipodi="http://sodipodi.sourceforge.net/DTD/sodipodi-0.dtd"
   xmlns:inkscape="http://www.inkscape.org/namespaces/inkscape"
   width="48"
   height="48"
   viewBox="0 0 12.7 12.7"
   version="1.1"
   id="svg4"
   sodipodi:docname="aircrack-ng.svg"
   inkscape:version="0.92.5 (2060ec1f9f, 2020-04-08)">
  <metadata
     id="metadata10">
    <rdf:RDF>
      <cc:Work
         rdf:about="">
        <dc:format>image/svg+xml</dc:format>
        <dc:type
           rdf:resource="http://purl.org/dc/dcmitype/StillImage" />
        <dc:title></dc:title>
      </cc:Work>
    </rdf:RDF>
  </metadata>
  <defs
     id="defs8" />
  <sodipodi:namedview
     pagecolor="#ffffff"
     bordercolor="#666666"
     borderopacity="1"
     objecttolerance="10"
     gridtolerance="10"
     guidetolerance="10"
     inkscape:pageopacity="0"
     inkscape:pageshadow="2"
     inkscape:window-width="1085"
     inkscape:window-height="480"
     id="namedview6"
     showgrid="false"
     inkscape:zoom="4.9166667"
     inkscape:cx="2.1355932"
     inkscape:cy="24"
     inkscape:window-x="0"
     inkscape:window-y="25"
     inkscape:window-maximized="0"
     inkscape:current-layer="svg4" />
  <path
     d="M 6.34,0.075 A 6.295,6.295 0 0 0 0.055,6.36 6.295,6.295 0 0 0 6.34,12.655 6.295,6.295 0 0 0 12.634,6.36 6.295,6.295 0 0 0 6.34,0.075 Z m -0.011,0.94 a 5.408,5.408 0 0 1 5.397,5.387 5.407,5.407 0 0 1 -10.814,0 c 0,-2.987 2.43,-5.387 5.417,-5.387 z m 0.148,1.412 c -0.968,0 -1.852,0.547 -2.284,1.412 L 4.65,4.068 a 2.044,2.044 0 0 1 1.827,-1.13 c 0.773,0 1.48,0.437 1.827,1.13 L 8.759,3.84 A 2.554,2.554 0 0 0 6.477,2.427 Z m 0,1.021 c -0.58,0 -1.111,0.329 -1.37,0.848 l 0.456,0.229 a 1.022,1.022 0 0 1 1.827,0 L 7.846,4.296 A 1.532,1.532 0 0 0 6.476,3.448 Z m -0.004,1.01 c -0.268,0 -0.436,0.172 -0.436,0.44 0,0.268 0.168,0.436 0.436,0.436 0.268,0 0.44,-0.168 0.44,-0.436 0,-0.268 -0.172,-0.44 -0.44,-0.44 z M 3.351,4.675 1.933,8.55 H 2.698 L 3.016,7.579 H 4.502 L 4.82,8.55 H 5.618 L 4.273,4.675 H 3.35 Z m 4.35,0 V 8.55 h 0.72 V 7.104 H 9.075 L 9.902,8.55 h 0.865 L 9.795,6.954 c 0.447,-0.213 0.726,-0.626 0.726,-1.15 0,-0.716 -0.524,-1.129 -1.373,-1.129 H 7.7 Z m -3.937,0.62 0.53,1.642 H 3.229 L 3.765,5.295 Z M 8.422,5.3 h 0.63 c 0.453,0 0.721,0.23 0.721,0.615 0,0.363 -0.223,0.58 -0.625,0.58 H 8.422 Z M 6.115,5.836 V 8.55 h 0.71 V 5.836 Z"
     id="path2"
     inkscape:connector-curvature="0"
     style="fill:#5beedc" />
</svg>
