<?xml version="1.0" encoding="UTF-8" standalone="no"?>
<svg
   xmlns:dc="http://purl.org/dc/elements/1.1/"
   xmlns:cc="http://creativecommons.org/ns#"
   xmlns:rdf="http://www.w3.org/1999/02/22-rdf-syntax-ns#"
   xmlns:svg="http://www.w3.org/2000/svg"
   xmlns="http://www.w3.org/2000/svg"
   xmlns:sodipodi="http://sodipodi.sourceforge.net/DTD/sodipodi-0.dtd"
   xmlns:inkscape="http://www.inkscape.org/namespaces/inkscape"
   width="48"
   height="48"
   viewBox="0 0 12.7 12.7"
   version="1.1"
   id="svg4"
   sodipodi:docname="preferences-desktop-emoticons.svg"
   inkscape:version="0.92.5 (2060ec1f9f, 2020-04-08)">
  <defs
     id="defs8">
  <style
     id="current-color-scheme"
     type="text/css">
      .ColorScheme-Highlight {
        color:#5beedc;
      }
  </style>
  </defs>
  <path
     class="ColorScheme-Highlight"
     style="fill:#5beedc"
     d="M 24 0 A 24 24 0 0 0 0 24 A 24 24 0 0 0 24 48 A 24 24 0 0 0 48 24 A 24 24 0 0 0 24 0 z M 24 3 A 21 21 0 0 1 45 24 A 21 21 0 0 1 24 45 A 21 21 0 0 1 3 24 A 21 21 0 0 1 24 3 z M 15.572266 13.984375 A 3.5905512 3.5905512 0 0 0 11.980469 17.613281 A 3.5905512 3.5905512 0 0 0 15.609375 21.203125 A 3.5905512 3.5905512 0 0 0 19.199219 17.613281 A 3.5905512 3.5905512 0 0 0 15.609375 13.984375 L 15.572266 13.984375 z M 32.390625 13.984375 A 3.5905512 3.5905512 0 0 0 28.800781 17.613281 A 3.5905512 3.5905512 0 0 0 32.390625 21.203125 A 3.5905512 3.5905512 0 0 0 35.980469 17.613281 A 3.5905512 3.5905512 0 0 0 32.390625 13.984375 z M 14.400391 32.011719 A 11.111811 11.981102 0 0 0 24 37.984375 A 11.111811 11.981102 0 0 0 33.638672 32.011719 L 32.277344 32.011719 A 11.111811 11.981102 0 0 1 24.037109 35.980469 A 11.111811 11.981102 0 0 1 15.798828 32.011719 L 14.400391 32.011719 z "
     transform="scale(0.26458333)"
     id="path831" />
</svg>
