<?xml version="1.0" encoding="UTF-8" standalone="no"?>
<svg
   xmlns:dc="http://purl.org/dc/elements/1.1/"
   xmlns:cc="http://creativecommons.org/ns#"
   xmlns:rdf="http://www.w3.org/1999/02/22-rdf-syntax-ns#"
   xmlns:svg="http://www.w3.org/2000/svg"
   xmlns="http://www.w3.org/2000/svg"
   xmlns:sodipodi="http://sodipodi.sourceforge.net/DTD/sodipodi-0.dtd"
   xmlns:inkscape="http://www.inkscape.org/namespaces/inkscape"
   width="48"
   height="48"
   viewBox="0 0 12.7 12.7"
   version="1.1"
   id="svg4"
   sodipodi:docname="anatine.svg"
   inkscape:version="0.92.4 (5da689c313, 2019-01-14)">
  <metadata
     id="metadata10">
    <rdf:RDF>
      <cc:Work
         rdf:about="">
        <dc:format>image/svg+xml</dc:format>
        <dc:type
           rdf:resource="http://purl.org/dc/dcmitype/StillImage" />
        <dc:title></dc:title>
      </cc:Work>
    </rdf:RDF>
  </metadata>
  <defs
     id="defs8" />
  <sodipodi:namedview
     pagecolor="#ffffff"
     bordercolor="#666666"
     borderopacity="1"
     objecttolerance="10"
     gridtolerance="10"
     guidetolerance="10"
     inkscape:pageopacity="0"
     inkscape:pageshadow="2"
     inkscape:window-width="861"
     inkscape:window-height="480"
     id="namedview6"
     showgrid="false"
     inkscape:zoom="4.9166667"
     inkscape:cx="2.1355932"
     inkscape:cy="24"
     inkscape:window-x="0"
     inkscape:window-y="25"
     inkscape:window-maximized="0"
     inkscape:current-layer="svg4" />
  <path
     d="M 6.34,0.07 A 6.29,6.29 0 0 0 0.05,6.37 6.29,6.29 0 0 0 6.35,12.65 6.29,6.29 0 0 0 12.63,6.36 6.29,6.29 0 0 0 6.34,0.07 Z M 6.32,1 6.33,1.01 a 5.4,5.4 0 0 1 5.4,5.4 5.4,5.4 0 0 1 -5.4,5.41 A 5.4,5.4 0 0 1 0.92,6.42 5.4,5.4 0 0 1 6.32,1 Z M 5.96,2.457 C 5.599,2.442 5.218,2.513 4.949,2.647 4.715,2.763 4.506,2.987 4.309,3.336 A 0.863,0.863 0 0 1 4.178,3.524 0.62,0.62 0 0 1 4,3.57 5.228,5.228 0 0 1 3.174,3.448 c 0,0 -0.177,-0.046 -0.197,0.146 C 2.987,3.951 3.264,4.201 3.544,4.44 3.352,4.51 3.292,4.658 3.117,4.794 3.084,4.857 3.122,4.917 3.23,4.969 3.37,5.037 3.514,5.054 3.807,5.04 c 0.3,-0.014 0.34,0.03 0.437,0.11 0.102,0.086 0.142,0.166 0.15,0.352 A 0.928,0.928 0 0 1 4.285,6.04 2.245,2.245 0 0 1 3.909,6.56 C 3.564,6.939 3.319,7.341 3.212,7.707 3.104,8.075 3.173,8.572 3.394,9.014 c 0.105,0.209 0.23,0.38 0.415,0.567 0.458,0.463 1.078,0.717 1.967,0.808 0.039,0.005 0.295,0.005 0.57,0.003 0.53,-0.006 0.685,-0.021 1.068,-0.107 1.417,-0.32 2.346,-1.3 2.61,-2.754 A 4.72,4.72 0 0 0 10.042,6.47 C 9.992,6.128 9.922,5.988 9.794,5.792 9.703,5.653 9.617,5.574 9.497,5.574 9.375,5.574 9.297,5.65 9.164,5.827 9.01,6.035 8.804,6.191 8.66,6.265 8.434,6.38 8.261,6.36 7.853,6.17 A 3.096,3.096 0 0 0 6.693,5.857 c -0.118,-0.01 -0.294,0 -0.314,0 0.043,-0.026 0.5,-0.33 0.663,-0.476 0.208,-0.219 0.33,-0.449 0.41,-0.776 a 2.736,2.736 0 0 0 0,-1.039 C 7.452,3.54 7.518,3.51 7.607,3.497 7.714,3.482 7.725,3.44 7.635,3.387 L 7.57,3.347 7.635,3.295 C 7.705,3.239 7.75,3.165 7.75,3.107 7.75,3.064 7.747,3.064 7.608,3.1 7.411,3.15 7.274,3.102 7.066,2.908 A 1.672,1.672 0 0 0 5.96,2.458 Z"
     id="path2"
     inkscape:connector-curvature="0"
     style="fill:#5beedc" />
</svg>
