<?xml version="1.0" encoding="UTF-8" standalone="no"?>
<svg
   xmlns:dc="http://purl.org/dc/elements/1.1/"
   xmlns:cc="http://creativecommons.org/ns#"
   xmlns:rdf="http://www.w3.org/1999/02/22-rdf-syntax-ns#"
   xmlns:svg="http://www.w3.org/2000/svg"
   xmlns="http://www.w3.org/2000/svg"
   xmlns:sodipodi="http://sodipodi.sourceforge.net/DTD/sodipodi-0.dtd"
   xmlns:inkscape="http://www.inkscape.org/namespaces/inkscape"
   width="48"
   height="48"
   viewBox="0 0 12.7 12.7"
   version="1.1"
   id="svg4"
   sodipodi:docname="apachedirectorystudio.svg"
   inkscape:version="0.92.5 (2060ec1f9f, 2020-04-08)">
  <metadata
     id="metadata10">
    <rdf:RDF>
      <cc:Work
         rdf:about="">
        <dc:format>image/svg+xml</dc:format>
        <dc:type
           rdf:resource="http://purl.org/dc/dcmitype/StillImage" />
        <dc:title></dc:title>
      </cc:Work>
    </rdf:RDF>
  </metadata>
  <defs
     id="defs8" />
  <sodipodi:namedview
     pagecolor="#ffffff"
     bordercolor="#666666"
     borderopacity="1"
     objecttolerance="10"
     gridtolerance="10"
     guidetolerance="10"
     inkscape:pageopacity="0"
     inkscape:pageshadow="2"
     inkscape:window-width="1085"
     inkscape:window-height="480"
     id="namedview6"
     showgrid="false"
     inkscape:zoom="4.9166667"
     inkscape:cx="2.1355932"
     inkscape:cy="24"
     inkscape:window-x="0"
     inkscape:window-y="25"
     inkscape:window-maximized="0"
     inkscape:current-layer="svg4" />
  <path
     d="M 6.34,0.075 A 6.295,6.295 0 0 0 0.055,6.36 6.295,6.295 0 0 0 6.34,12.655 6.295,6.295 0 0 0 12.634,6.36 6.295,6.295 0 0 0 6.34,0.075 Z m -0.011,0.94 a 5.408,5.408 0 0 1 5.397,5.387 5.407,5.407 0 0 1 -0.668,2.602 C 10.847,8.936 10.468,8.834 10.896,8.989 l 0.058,0.016 0.056,0.016 0.034,0.006 A 5.407,5.407 0 0 1 6.92,11.77 C 6.697,11.243 6.904,10.615 7.064,10.09 7.304,9.407 7.54,10.374 7.684,10.618 7.924,11.058 7.802,10.617 7.672,10.422 7.445,10.086 7.698,10.058 7.923,10.277 8.488,10.544 7.671,10.034 7.603,9.833 7.109,9.59 7.971,8.7 8.233,9.183 8.406,9.653 8.271,10.209 8.794,10.486 8.88,10.431 8.387,9.903 8.46,9.592 8.731,9.683 8.94,10.254 9.234,10.425 9.136,10.212 8.963,9.848 9.35,10.137 9.81,10.468 9.327,10.004 9.106,9.937 8.574,9.657 9.269,9.558 9.501,9.76 9.392,9.578 9.646,9.49 9.377,9.512 8.822,9.72 8.414,9.385 8.207,8.89 8.275,8.512 9.047,8.66 9.362,8.763 9.734,8.935 10.072,9.001 10.486,9.217 11.07,9.313 10.216,9.105 10.102,8.925 10.58,8.831 9.957,8.817 9.798,8.759 9.209,8.669 9.788,8.599 10.045,8.609 9.812,8.498 9.242,8.651 8.889,8.546 8.155,8.68 8.784,7.796 9.153,7.873 9.713,8.004 10.29,8.009 10.855,8.086 11.243,8.34 11.175,7.869 10.787,7.978 10.431,7.991 10.41,7.827 10.742,7.71 10.644,7.596 9.89,8.172 9.901,7.775 9.906,7.762 9.301,7.876 9.112,7.723 8.683,7.497 9.45,7.218 9.69,7.395 9.843,7.439 10.72,7.347 10.271,7.525 9.599,7.83 10.501,7.605 10.701,7.4 10.877,7.371 11.646,7.403 11.139,7.328 10.976,7.248 10.077,7.479 10.436,7.183 10.264,7.313 9.764,7.351 9.462,7.276 8.927,7.393 9.16,6.906 9.46,6.797 c 0.426,-0.05 0.841,-0.261 1.286,-0.118 0.244,0.194 0.425,-0.078 0.107,-0.08 -0.605,-0.048 0.243,-0.127 0.403,-0.208 0.025,-0.248 -0.477,0.11 -0.742,0.068 -0.09,0.012 -0.936,0.27 -0.455,-0.12 0.377,-0.286 0.615,-0.757 1.092,-0.86 0.164,-0.328 -0.623,0.282 -0.233,-0.125 0.46,-0.635 -0.614,0.62 -0.24,0.008 0.238,-0.257 0.074,-0.242 0.16,-0.515 0.163,-0.503 -0.095,-0.086 -0.15,0.16 C 10.522,5.37 9.995,5.285 9.769,5.549 9.439,5.857 9.555,5.547 9.663,5.325 9.961,5.022 9.478,5.344 9.653,5.049 9.823,4.567 10.283,4.356 10.458,3.904 10.188,4.127 9.907,4.124 9.665,4.427 9.493,4.313 9.295,4.795 8.945,4.907 9.055,4.544 9.409,4.149 9.723,3.871 9.631,3.425 9.444,4.095 9.24,4.285 9.036,4.279 8.991,4.691 8.769,4.934 8.437,5.296 8.247,5.788 7.846,6.082 7.943,5.714 8.224,5.202 8.432,4.797 8.688,4.424 8.865,3.984 9.166,3.661 9.332,3.487 9.704,2.757 9.331,3.303 9.105,3.656 9.147,3.313 9.285,3.14 9.49,2.736 9.199,2.922 9.149,3.215 8.926,3.733 9.066,3.122 9.059,2.883 8.979,3.243 8.877,2.783 8.885,3.095 8.962,3.88 8.484,4.55 8.132,5.208 7.778,5.9 8.292,4.598 8.092,4.9 7.877,5.396 7.866,6.062 7.377,6.377 7.249,6.093 7.729,5.552 7.842,5.175 7.996,4.719 8.304,4.355 8.552,3.951 8.916,3.451 8.445,3.971 8.288,4.169 8.144,3.88 8.596,3.229 8.53,2.958 8.29,3.47 8.415,2.883 8.454,2.654 8.137,3.371 8.242,4.211 7.864,4.912 7.68,5.286 7.522,5.729 7.236,6.014 7.402,5.554 7.177,5.909 7.037,6.106 7.094,5.635 7.651,5.352 7.681,4.853 7.391,5.3 7.461,4.756 7.461,4.523 7.617,4.073 7.877,3.654 8.056,3.21 8.207,3.097 8.206,2.47 8.068,2.863 7.951,3.475 7.935,2.117 7.865,2.769 8.026,3.227 7.799,3.691 7.535,4.057 7.202,4.393 7.443,3.926 7.551,3.642 7.714,3.044 7.431,3.786 7.283,3.882 7.473,3.402 7.531,2.882 7.618,2.375 7.721,1.862 7.446,2.415 7.482,2.619 7.452,2.985 7.394,3.423 7.176,3.703 7.079,3.233 7.336,2.603 7.218,2.233 7.114,2.826 7.126,2.081 7.038,1.921 6.965,3.164 7.186,4.428 6.906,5.656 6.759,6.209 6.797,6.833 6.548,7.343 6.486,6.66 6.499,5.97 6.494,5.283 6.437,4.819 6.68,4.411 6.714,3.96 6.526,4.048 6.804,3.452 6.732,3.163 6.798,2.708 6.892,2.33 6.795,1.885 6.645,1.961 6.859,2.531 6.63,2.705 6.147,3.12 6.62,2.339 6.58,2.115 6.495,2.227 6.404,2.389 6.403,1.953 6.353,2.143 6.316,2.38 6.246,2.013 6.325,2.476 6.366,2.992 6.222,3.469 6.168,2.977 6.138,2.476 6.039,1.988 5.71,1.484 6.032,2.248 6.026,2.492 5.941,2.63 5.827,1.8 5.69,1.666 5.733,1.898 5.847,2.512 5.637,1.969 5.421,1.389 5.654,2.161 5.584,2.384 5.492,2.301 5.436,1.861 5.211,1.73 5.063,1.88 5.554,2.216 5.495,2.547 5.658,2.724 5.72,3.81 5.549,3.229 5.319,2.694 5.444,3.428 5.454,3.674 5.264,3.212 5.289,2.705 5.214,2.219 5.108,2.337 5.046,2.069 5.037,1.845 5.028,1.301 4.954,2.285 4.797,1.798 4.844,2.241 5.28,2.518 5.223,3.005 5.253,3.695 5.008,2.489 4.983,2.548 5.086,2.95 4.893,2.748 4.847,2.506 4.857,2.199 4.482,2.082 4.747,2.42 5.044,3.015 4.228,2.028 4.525,2.484 4.949,2.894 5.188,3.437 5.395,3.979 5.593,4.461 5.291,4.051 5.149,3.845 4.754,3.45 4.674,2.862 4.412,2.387 4.262,2.369 4.607,2.957 4.62,3.142 4.432,3.123 4.402,2.418 4.108,2.463 4.19,2.628 4.224,2.861 4.053,2.575 4.096,2.822 4.293,3.173 4.383,3.465 4.322,3.754 4.673,4.015 4.691,4.436 4.274,3.976 4.091,3.347 3.923,2.761 3.82,2.404 3.843,2.652 3.923,2.881 4.099,3.631 3.585,2.198 3.65,2.777 3.183,2.619 3.616,2.81 3.752,2.973 4.007,3.77 4.546,4.418 4.998,5.107 5.278,5.481 4.97,5.315 4.826,5.077 4.583,4.834 4.364,4.568 4.281,4.229 4.232,4.601 4.488,4.956 4.406,5.339 4.247,5.229 4.079,4.588 3.962,4.272 3.792,3.874 3.752,3.362 3.399,3.085 2.989,2.765 3.339,3.164 3.498,3.306 3.657,3.503 3.668,3.796 3.752,4.031 3.427,3.866 3.252,3.271 2.959,2.962 3.045,3.152 3.073,3.305 2.882,3.064 2.492,2.73 3.169,3.526 2.91,3.375 2.819,3.58 3.444,3.942 3.636,4.222 3.776,4.332 4.276,5.057 3.875,4.845 3.412,4.528 3.101,4.051 2.684,3.685 2.218,3.336 3.324,4.415 2.865,4.099 2.533,3.823 2.653,4.066 2.896,4.199 3.392,4.466 3.763,4.897 4.148,5.299 4.511,5.715 4.026,5.446 3.866,5.27 3.928,5.459 4.581,5.846 4.72,6.227 5,6.612 4.627,6.377 4.477,6.191 4.113,5.772 3.52,5.488 3.444,4.89 3.274,4.503 3.28,4.727 3.417,4.994 3.589,5.371 3.365,5.144 3.262,4.959 3.334,5.238 2.863,4.802 2.841,4.531 2.744,4.426 2.945,4.895 2.665,4.582 2.709,4.849 3.293,5.156 3.443,5.519 3.693,5.926 3.321,5.685 3.245,5.424 2.925,5.012 3.105,5.411 3.284,5.62 3.533,5.942 3.914,6.36 3.925,6.717 3.424,6.411 3.105,5.902 2.903,5.362 2.66,4.852 2.835,5.407 2.941,5.628 2.859,5.715 2.467,5.113 2.256,4.932 1.759,4.462 2.776,5.504 2.285,5.187 1.799,4.906 2.285,5.314 2.485,5.428 2.852,5.657 2.532,5.666 2.315,5.526 2.32,5.671 2.91,5.774 3.032,6.054 2.964,6.379 2.199,5.938 1.906,5.852 1.936,5.959 2.66,6.262 2.99,6.284 3.473,6.429 3.874,6.864 4.217,7.228 3.837,7.114 3.652,6.832 3.335,6.725 2.989,6.65 3.145,6.735 3.377,6.855 3.722,7.185 4.315,7.255 4.46,7.764 4.127,7.727 3.794,7.331 3.42,7.236 3.041,6.971 2.863,6.457 2.408,6.309 2.687,6.574 2.675,6.795 3.026,6.969 3.451,7.262 2.85,7.14 2.684,7.013 2.251,6.771 2.004,6.291 1.705,5.909 1.391,5.588 1.59,5.957 1.699,6.11 0.929,5.875 2.072,6.268 2.002,6.617 2.616,7.091 1.667,6.807 1.392,6.73 1.39,6.721 1.4,6.97 1.624,6.915 1.884,6.942 2.709,7.055 2.557,7.285 2.323,7.35 1.576,7.324 1.629,7.504 2.146,7.439 2.667,7.323 3.177,7.347 3.637,7.593 4.176,7.754 4.54,8.143 4.426,8.353 3.779,8.308 3.482,8.33 3.282,8.33 2.644,7.596 2.884,7.933 3.218,8.203 2.826,8.144 2.632,8.033 2.52,8 1.776,7.645 2.148,7.876 2.655,8.151 1.974,8.014 1.751,8.092 2.003,8.247 2.724,8.075 3.119,8.328 3.644,8.491 2.754,8.686 2.779,8.667 3.555,8.709 1.969,9.007 2.719,8.958 2.457,9.236 2.844,8.975 2.961,8.903 3.338,8.546 3.893,8.512 4.343,8.751 4.219,9.161 3.535,9.004 3.213,9.256 3.263,9.411 2.282,9.71 2.779,9.679 2.517,10.109 3.285,9.239 3.258,9.505 3.363,9.763 3.733,9.005 4.039,9.131 4.073,9.563 3.446,9.667 3.152,9.899 c 0.23,-0.15 0.377,0.044 0.595,-0.208 0.16,0.162 -0.31,0.746 -0.353,0.801 0.414,-0.185 0.454,-0.619 0.64,-0.98 0.19,0.3 0.24,-0.571 0.555,-0.608 0.167,-0.41 0.542,-0.037 0.668,0.232 0.516,0.496 -0.492,0.574 -0.755,0.818 0.27,0.043 0.096,0.357 -0.193,0.354 -0.387,0.093 -0.258,0.16 0.056,0.047 0.38,-0.23 -0.079,0.46 0.13,0.22 0.293,-0.327 0.47,-0.83 0.942,-0.885 0.545,0.198 0.332,0.93 0.38,1.375 0.088,0.2 -0.105,0.488 -0.164,0.703 A 5.407,5.407 0 0 1 0.913,6.403 c 0,-2.987 2.429,-5.387 5.416,-5.387 z M 4.519,2.08 C 4.514,2.078 4.522,2.099 4.559,2.16 4.682,2.29 4.537,2.087 4.519,2.08 Z M 5.725,2.384 C 5.936,2.428 6.082,3.177 6.033,3.467 6.029,3.539 6.032,3.613 6.012,3.683 5.846,3.238 5.702,2.836 5.682,2.385 A 0.094,0.094 0 0 1 5.725,2.384 Z M 9.459,2.83 C 9.451,2.833 9.442,2.849 9.434,2.885 9.494,2.915 9.484,2.819 9.459,2.83 Z M 6.621,2.84 c 0.013,0 0.02,0.05 0.01,0.187 L 6.618,3.093 6.605,3.145 C 6.483,3.285 6.58,2.84 6.621,2.841 Z M 3.511,2.958 C 3.507,2.965 3.514,3.005 3.547,3.105 3.651,3.221 3.526,2.938 3.511,2.958 Z M 4.367,3.061 C 4.644,3.411 4.88,3.792 5.15,4.148 5.075,4.185 4.956,4.075 4.91,4.016 4.745,3.606 4.365,3.546 4.367,3.061 Z M 6.392,3.149 C 6.517,3.297 6.452,3.957 6.424,4.292 6.41,4.362 6.398,4.434 6.374,4.502 6.203,4.15 6.39,3.582 6.392,3.149 Z M 5.724,3.502 C 5.771,3.515 5.834,3.687 5.88,3.812 6.24,4.458 6.421,5.197 6.343,5.937 6.15,5.899 6.273,4.863 5.998,4.834 6,5.417 5.812,4.793 5.733,4.583 5.583,4.307 5.611,3.994 5.661,3.693 5.672,3.543 5.695,3.493 5.724,3.502 Z m 3.56,0.305 C 9.257,3.822 9.205,3.917 9.185,4.07 9.177,4.12 9.265,4.007 9.228,4.034 9.31,3.86 9.309,3.792 9.283,3.807 Z M 4.885,4.232 C 5.067,4.236 5.463,4.5 5.515,4.731 5.702,5.211 6.149,5.673 6.009,6.22 5.982,6.255 5.994,6.495 5.921,6.452 A 46.74,46.74 0 0 0 4.911,4.569 C 4.745,4.321 4.777,4.23 4.885,4.232 Z M 9.898,4.354 C 9.917,4.35 9.931,4.356 9.938,4.374 L 9.866,4.443 9.809,4.489 C 9.406,4.838 9.764,4.377 9.898,4.354 Z m 0.243,0.491 C 10.087,4.835 10.088,4.964 10.006,5.141 9.764,5.626 10.391,4.857 10.22,4.905 10.184,4.867 10.16,4.849 10.141,4.845 Z m -1,0.073 C 9.229,4.955 8.963,5.441 8.856,5.588 8.641,6.073 8.225,6.414 7.808,6.721 7.5,6.882 7.923,6.288 7.961,6.234 8.327,5.886 8.48,5.334 8.916,5.059 9.043,4.943 9.112,4.906 9.141,4.918 Z M 4.505,5.016 C 4.832,5.191 5.172,5.677 5.437,6.018 L 5.422,6.03 H 5.37 C 4.755,6.13 4.388,5.578 4.505,5.016 Z M 9.317,5.04 C 9.376,4.994 9.289,5.255 9.183,5.375 L 9.143,5.438 C 8.901,5.84 9.103,5.35 9.206,5.205 9.262,5.105 9.298,5.055 9.317,5.04 Z M 2.031,5.346 C 2.024,5.35 2.034,5.366 2.076,5.402 2.216,5.425 2.051,5.333 2.031,5.346 Z m 8.416,0.007 C 10.567,5.708 10.017,6.345 9.619,6.539 9.752,6.281 9.63,6.305 9.505,6.491 L 9.455,6.548 C 9.143,6.958 9.168,6.452 9.301,6.214 9.467,5.712 9.984,5.507 10.447,5.354 Z m -6.77,0.385 c 0.348,0.117 0.644,0.563 0.98,0.793 0.608,0.413 1.126,1.035 1.226,1.783 0.02,0.026 0,0.24 -0.082,0.108 C 5.461,7.947 4.996,7.578 4.658,7.105 4.585,6.973 4.06,6.25 4.205,6.64 4.262,6.836 4.853,7.368 4.511,7.289 4.108,6.857 3.884,6.284 3.678,5.739 Z m 1.33,0.41 A 0.283,0.283 0 0 1 5.129,6.163 C 5.716,6.25 5.932,6.849 5.919,7.369 L 5.926,7.446 5.93,7.51 C 5.8,7.534 5.541,7.026 5.376,6.836 5.318,6.685 4.826,6.182 5.006,6.147 Z m 4.04,0.084 C 9.29,6.3 8.926,6.942 8.876,7.194 8.762,7.28 8.599,7.176 8.479,7.156 8.503,6.863 8.807,6.47 9.048,6.232 Z m -0.51,0.05 C 8.764,6.367 8.459,7.136 8.117,7.067 8.047,7.068 7.977,7.069 7.909,7.079 7.939,6.849 8.272,6.459 8.537,6.282 Z M 1.365,6.289 C 1.355,6.287 1.349,6.294 1.354,6.32 1.455,6.388 1.394,6.296 1.364,6.289 Z M 1.564,6.442 C 1.534,6.448 1.573,6.481 1.751,6.552 1.808,6.567 1.867,6.594 1.928,6.587 1.846,6.497 1.612,6.432 1.564,6.442 Z M 7.502,6.514 C 7.592,6.877 7.244,7.259 7.018,7.541 L 6.947,7.6 C 6.955,7.192 7.198,6.79 7.502,6.514 Z M 2.433,6.574 C 2.418,6.569 2.419,6.581 2.454,6.628 2.661,6.758 2.478,6.589 2.434,6.574 Z m 8.822,0.233 a 0.152,0.152 0 0 0 -0.034,0.012 c 0.035,-0.01 0.04,-0.013 0.034,-0.012 z m -0.316,0.376 a 0.23,0.23 0 0 0 -0.156,0.059 l 0.063,0.01 0.06,0.004 c 0.33,0.053 0.196,-0.077 0.033,-0.073 z M 1.456,7.193 C 1.438,7.196 1.454,7.213 1.536,7.255 1.851,7.299 1.507,7.182 1.456,7.192 Z M 8.662,7.318 C 8.735,7.326 8.794,7.355 8.827,7.415 8.631,7.816 8.002,7.861 7.66,8.183 7.198,8.385 7.934,7.712 7.972,7.603 8.101,7.473 8.443,7.297 8.662,7.318 Z m 2.585,0.286 c -0.147,0 -0.482,0.068 -0.27,0.107 0.055,-0.015 0.134,0.067 0.174,-0.013 0.205,-0.07 0.184,-0.094 0.096,-0.094 z M 4.735,7.646 c 0.31,0.162 0.862,0.569 0.776,0.9 A 1.295,1.295 0 0 1 5.193,8.545 C 5.003,8.361 4.555,7.839 4.735,7.645 Z M 7.349,7.724 C 7.39,8.148 7.264,8.591 6.842,8.775 6.808,8.815 6.688,8.864 6.729,8.755 6.785,8.391 7.135,7.808 7.349,7.725 Z M 1.591,7.853 C 1.579,7.852 1.57,7.863 1.569,7.896 1.679,7.964 1.626,7.856 1.591,7.853 Z m 9.719,0.135 c -0.013,0.002 -0.025,0.016 -0.032,0.054 0.106,0.05 0.07,-0.06 0.032,-0.054 z M 8.368,8.033 C 8.417,8.233 7.812,8.63 7.572,8.853 7.539,8.828 7.487,8.96 7.447,8.912 7.51,8.45 7.919,8.11 8.368,8.033 Z M 4.48,8.39 C 4.684,8.408 4.94,8.539 4.686,8.597 4.554,8.661 3.676,8.434 4.313,8.417 4.349,8.391 4.412,8.384 4.48,8.39 Z M 5.476,8.727 C 5.594,8.749 5.744,8.864 5.681,9.042 5.749,9.347 5.524,9.04 5.461,8.965 5.271,8.773 5.357,8.704 5.476,8.727 Z M 6.969,9.062 C 6.977,9.056 6.989,9.067 7.005,9.114 6.951,9.256 6.943,9.08 6.969,9.062 Z m 2.83,0.007 C 9.769,9.065 9.767,9.085 9.858,9.159 9.97,9.149 9.848,9.075 9.798,9.069 Z M 6.748,9.382 C 6.853,9.372 6.984,9.536 6.794,9.705 6.671,9.951 6.658,9.737 6.661,9.621 6.631,9.455 6.685,9.387 6.748,9.381 Z m 1.679,0.795 c -0.008,-0.003 -0.021,0.005 -0.042,0.034 0.039,0.08 0.066,-0.025 0.042,-0.034 z m -4.75,0.231 c -0.014,0.006 -0.038,0.03 -0.076,0.086 0.06,0.049 0.116,-0.102 0.076,-0.086 z"
     id="path2"
     inkscape:connector-curvature="0"
     style="fill:#5beedc" />
</svg>
