<?xml version="1.0" encoding="UTF-8" standalone="no"?>
<svg
   xmlns:dc="http://purl.org/dc/elements/1.1/"
   xmlns:cc="http://creativecommons.org/ns#"
   xmlns:rdf="http://www.w3.org/1999/02/22-rdf-syntax-ns#"
   xmlns:svg="http://www.w3.org/2000/svg"
   xmlns="http://www.w3.org/2000/svg"
   xmlns:sodipodi="http://sodipodi.sourceforge.net/DTD/sodipodi-0.dtd"
   xmlns:inkscape="http://www.inkscape.org/namespaces/inkscape"
   width="48"
   height="48"
   viewBox="0 0 12.7 12.7"
   version="1.1"
   id="svg4"
   sodipodi:docname="gitkraken.svg"
   inkscape:version="0.92.4 (5da689c313, 2019-01-14)">
  <metadata
     id="metadata10">
    <rdf:RDF>
      <cc:Work
         rdf:about="">
        <dc:format>image/svg+xml</dc:format>
        <dc:type
           rdf:resource="http://purl.org/dc/dcmitype/StillImage" />
        <dc:title></dc:title>
      </cc:Work>
    </rdf:RDF>
  </metadata>
  <defs
     id="defs8" />
  <sodipodi:namedview
     pagecolor="#ffffff"
     bordercolor="#666666"
     borderopacity="1"
     objecttolerance="10"
     gridtolerance="10"
     guidetolerance="10"
     inkscape:pageopacity="0"
     inkscape:pageshadow="2"
     inkscape:window-width="1087"
     inkscape:window-height="480"
     id="namedview6"
     showgrid="false"
     inkscape:zoom="4.9166667"
     inkscape:cx="2.1355932"
     inkscape:cy="24"
     inkscape:window-x="0"
     inkscape:window-y="25"
     inkscape:window-maximized="0"
     inkscape:current-layer="svg4" />
  <path
     d="M 6.34,0.07 A 6.29,6.29 0 0 0 0.05,6.37 6.29,6.29 0 0 0 6.35,12.65 6.29,6.29 0 0 0 12.63,6.36 6.29,6.29 0 0 0 6.34,0.07 Z M 6.33,1.01 a 5.4,5.4 0 0 1 5.4,5.4 5.4,5.4 0 0 1 -5.4,5.41 A 5.4,5.4 0 0 1 0.92,6.42 5.4,5.4 0 0 1 6.32,1 Z M 8.14,3.08 A 0.18,0.18 0 0 0 7.96,3.18 L 7.95,3.27 c 0,0.07 0.03,0.13 0.09,0.16 A 3.54,3.54 0 0 1 7.62,9.82 V 8.34 C 7.85,8.27 8.02,8.06 8.02,7.8 8.02,7.59 7.91,7.41 7.73,7.31 7.86,6.04 8.45,6.38 8.45,5.97 V 5.73 c 0,-0.6 -1.4,-2.6 -2.07,-2.64 H 6.26 C 5.6,3.14 4.19,5.12 4.19,5.73 v 0.24 c 0,0.4 0.58,0.07 0.71,1.34 a 0.56,0.56 0 0 0 -0.27,0.5 c 0,0.24 0.17,0.46 0.4,0.53 V 9.82 A 3.55,3.55 0 0 1 4.61,3.42 0.18,0.18 0 0 0 4.68,3.18 C 4.66,3.12 4.59,3.08 4.52,3.08 A 0.2,0.2 0 0 0 4.43,3.1 3.9,3.9 0 0 0 5.4,10.31 V 8.65 l 0.37,0.1 v 1.98 A 4.25,4.25 0 0 1 2.35,5.02 c 0.04,-0.1 0,-0.2 -0.1,-0.24 A 0.22,0.22 0 0 0 2.19,4.77 0.19,0.19 0 0 0 2.01,4.89 4.61,4.61 0 0 0 6.13,11.13 V 8.79 h 0.39 v 2.34 A 4.61,4.61 0 0 0 10.65,4.9 0.19,0.19 0 0 0 10.4,4.79 0.19,0.19 0 0 0 10.29,4.96 l 0.01,0.06 a 4.23,4.23 0 0 1 -3.41,5.7 V 8.74 L 7.26,8.64 V 10.3 A 3.9,3.9 0 0 0 8.14,3.08 Z M 5.21,7.4 c 0.1,0 0.2,0.05 0.26,0.12 C 5.54,7.59 5.59,7.68 5.59,7.78 5.58,7.89 5.54,7.98 5.47,8.05 A 0.37,0.37 0 0 1 5.21,8.16 C 5.11,8.16 5.01,8.12 4.94,8.05 A 0.35,0.35 0 0 1 4.83,7.78 c 0,-0.1 0.04,-0.2 0.11,-0.26 A 0.37,0.37 0 0 1 5.21,7.4 Z m 2.23,0 c 0.11,0 0.2,0.05 0.27,0.12 0.07,0.07 0.11,0.16 0.11,0.26 0,0.11 -0.04,0.2 -0.11,0.27 A 0.37,0.37 0 0 1 7.44,8.16 C 7.34,8.16 7.24,8.12 7.18,8.05 A 0.37,0.37 0 0 1 7.06,7.78 c 0,-0.1 0.05,-0.2 0.12,-0.26 A 0.37,0.37 0 0 1 7.44,7.4 Z"
     id="path2"
     inkscape:connector-curvature="0"
     style="fill:#5beedc" />
</svg>
