<?xml version="1.0" encoding="UTF-8" standalone="no"?>
<svg
   xmlns:dc="http://purl.org/dc/elements/1.1/"
   xmlns:cc="http://creativecommons.org/ns#"
   xmlns:rdf="http://www.w3.org/1999/02/22-rdf-syntax-ns#"
   xmlns:svg="http://www.w3.org/2000/svg"
   xmlns="http://www.w3.org/2000/svg"
   xmlns:xlink="http://www.w3.org/1999/xlink"
   xmlns:sodipodi="http://sodipodi.sourceforge.net/DTD/sodipodi-0.dtd"
   xmlns:inkscape="http://www.inkscape.org/namespaces/inkscape"
   width="48"
   height="48"
   viewBox="0 0 12.7 12.7"
   version="1.1"
   id="svg4"
   sodipodi:docname="appcode.svg"
   inkscape:version="0.92.5 (2060ec1f9f, 2020-04-08)">
  <defs
     id="defs8">
  <style
     id="current-color-scheme"
     type="text/css">
      .ColorScheme-Highlight {
        color:#5beedc;
      }
  </style>
  </defs>
  <path
     class="ColorScheme-Highlight"
     style="fill:#5beedc"
     d="M 24 0 A 24 24 0 0 0 0 24 A 24 24 0 0 0 24 48 A 24 24 0 0 0 48 24 A 24 24 0 0 0 24 0 z M 24 3 A 21 21 0 0 1 45 24 A 21 21 0 0 1 24 45 A 21 21 0 0 1 3 24 A 21 21 0 0 1 24 3 z M 24 7 A 17.000006 17.000006 0 0 0 7 24 A 17.000006 17.000006 0 0 0 24 41 A 17.000006 17.000006 0 0 0 41 24 A 17.000006 17.000006 0 0 0 24 7 z M 18 19 L 19 19 L 20 19 L 21 19 L 24 29 L 22 29 L 21.400391 27 L 17.599609 27 L 17 29 L 15 29 L 18 19 z M 30 19 C 31.393 19 32.64964 19.569281 33.556641 20.488281 L 32.146484 21.90625 C 31.602484 21.347251 30.842 20.998047 30 20.998047 C 28.343 20.998047 27 22.341047 27 23.998047 C 27 25.655047 28.343 26.998047 30 26.998047 C 30.815 26.998047 31.55275 26.670577 32.09375 26.142578 L 33.509766 27.554688 C 32.606767 28.446685 31.369 29 30 29 C 27.239 28.999999 25 26.760999 25 24 C 25 21.238998 27.239 19 30 19 z M 19.5 20.666016 L 18.199219 25 L 20.800781 25 L 19.5 20.666016 z M 17 32 L 31 32 L 31 34 L 17 34 L 17 32 z "
     transform="scale(0.26458333)"
     id="path833" />
</svg>
