<?xml version="1.0" encoding="UTF-8" standalone="no"?>
<svg
   xmlns:dc="http://purl.org/dc/elements/1.1/"
   xmlns:cc="http://creativecommons.org/ns#"
   xmlns:rdf="http://www.w3.org/1999/02/22-rdf-syntax-ns#"
   xmlns:svg="http://www.w3.org/2000/svg"
   xmlns="http://www.w3.org/2000/svg"
   xmlns:sodipodi="http://sodipodi.sourceforge.net/DTD/sodipodi-0.dtd"
   xmlns:inkscape="http://www.inkscape.org/namespaces/inkscape"
   width="48"
   height="48"
   viewBox="0 0 12.7 12.7"
   version="1.1"
   id="svg4"
   sodipodi:docname="hotspot.svg"
   inkscape:version="0.92.4 (5da689c313, 2019-01-14)">
  <metadata
     id="metadata10">
    <rdf:RDF>
      <cc:Work
         rdf:about="">
        <dc:format>image/svg+xml</dc:format>
        <dc:type
           rdf:resource="http://purl.org/dc/dcmitype/StillImage" />
        <dc:title></dc:title>
      </cc:Work>
    </rdf:RDF>
  </metadata>
  <defs
     id="defs8" />
  <sodipodi:namedview
     pagecolor="#ffffff"
     bordercolor="#666666"
     borderopacity="1"
     objecttolerance="10"
     gridtolerance="10"
     guidetolerance="10"
     inkscape:pageopacity="0"
     inkscape:pageshadow="2"
     inkscape:window-width="1112"
     inkscape:window-height="480"
     id="namedview6"
     showgrid="false"
     inkscape:zoom="4.9166667"
     inkscape:cx="2.1355932"
     inkscape:cy="24"
     inkscape:window-x="0"
     inkscape:window-y="25"
     inkscape:window-maximized="0"
     inkscape:current-layer="svg4" />
  <path
     d="m 6.34,0.07 a 6.29,6.29 0 0 0 0,12.58 6.29,6.29 0 0 0 0,-12.58 z M 6.32,1 A 5.417,5.417 0 0 1 11.73,6.41 5.4,5.4 0 0 1 6.33,11.82 5.4,5.4 0 0 1 0.92,6.42 5.4,5.4 0 0 1 6.32,1 Z M 6.482,1.497 C 6.39,1.537 6.32,1.56 6.156,1.747 5.368,2.86 4.879,4.437 5.116,5.683 V 5.689 H 5.117 C 5.204,6.061 5.221,6.236 5.387,6.533 7.272,6.203 8.521,7.659 8.1,9.23 7.877,10.06 7.193,10.46 6.537,10.61 5.612,10.77 4.832,10.271 4.644,9.57 4.608,9.34 4.664,9.029 4.796,8.95 4.72,8.977 4.627,9.008 4.516,9.113 4.329,9.29 4.324,9.352 4.079,9.42 4.199,9.082 3.541,8.808 3.659,8.083 L 3.633,8.205 c -0.29,1.601 1.35,3.404 3.17,2.916 C 8.036,10.814 8.771,9.908 9.013,8.886 9.154,8.296 9.11,7.687 8.983,7.176 A 3.37,3.37 0 0 0 8.349,5.919 4.332,4.332 0 0 0 8.031,5.561 L 8.028,5.557 8.019,5.55 A 8.112,8.112 0 0 0 7.278,4.908 L 6.558,4.286 6.518,4.243 C 5.886,3.42 6.094,2.099 6.482,1.496 Z M 6.916,2.313 A 2.352,2.352 0 0 0 6.754,2.629 L 6.609,2.909 6.401,3.568 A 0.594,0.594 0 0 0 6.375,3.647 L 6.702,4.182 6.869,4.356 C 6.889,4.378 6.909,4.4 6.931,4.421 L 6.873,4.044 6.868,4.01 6.853,2.664 Z m -0.993,4.6 A 1.766,1.766 0 0 0 5.739,6.927 C 4.815,7.045 4.139,7.85 4.113,8.79 L 4.119,8.796 C 4.171,8.878 4.228,8.965 4.279,9.062 4.308,9.032 4.323,9.019 4.374,8.969 A 0.946,0.946 0 0 1 4.719,8.755 C 4.992,8.639 5.174,9.051 4.912,9.192 4.952,9.166 4.907,9.204 4.889,9.285 A 0.82,0.82 0 0 0 4.879,9.54 c 0.148,0.544 0.745,0.963 1.504,0.829 C 6.944,10.234 7.492,9.902 7.674,9.194 7.794,8.728 7.756,8.286 7.593,7.908 A 1.851,1.851 0 0 0 5.923,6.912 Z"
     id="path2"
     inkscape:connector-curvature="0"
     style="fill:#5beedc" />
</svg>
