<?xml version="1.0" encoding="UTF-8" standalone="no"?>
<svg
   xmlns:dc="http://purl.org/dc/elements/1.1/"
   xmlns:cc="http://creativecommons.org/ns#"
   xmlns:rdf="http://www.w3.org/1999/02/22-rdf-syntax-ns#"
   xmlns:svg="http://www.w3.org/2000/svg"
   xmlns="http://www.w3.org/2000/svg"
   xmlns:sodipodi="http://sodipodi.sourceforge.net/DTD/sodipodi-0.dtd"
   xmlns:inkscape="http://www.inkscape.org/namespaces/inkscape"
   width="48"
   height="48"
   version="1"
   id="svg8"
   sodipodi:docname="vieb.svg"
   inkscape:version="0.92.4 (5da689c313, 2019-01-14)">
  <metadata
     id="metadata14">
    <rdf:RDF>
      <cc:Work
         rdf:about="">
        <dc:format>image/svg+xml</dc:format>
        <dc:type
           rdf:resource="http://purl.org/dc/dcmitype/StillImage" />
        <dc:title></dc:title>
      </cc:Work>
    </rdf:RDF>
  </metadata>
  <defs
     id="defs12" />
  <sodipodi:namedview
     pagecolor="#ffffff"
     bordercolor="#666666"
     borderopacity="1"
     objecttolerance="10"
     gridtolerance="10"
     guidetolerance="10"
     inkscape:pageopacity="0"
     inkscape:pageshadow="2"
     inkscape:window-width="862"
     inkscape:window-height="480"
     id="namedview10"
     showgrid="false"
     inkscape:zoom="4.9166667"
     inkscape:cx="2.1355932"
     inkscape:cy="24"
     inkscape:window-x="0"
     inkscape:window-y="25"
     inkscape:window-maximized="0"
     inkscape:current-layer="svg8" />
  <path
     d="M 24,8 C 23.161,8 22.323,8.312 21.696,8.939 L 8.939,21.698 c -1.253,1.253 -1.251,3.35 0.002,4.603 l 12.757,12.758 c 1.253,1.253 3.352,1.255 4.605,0.003 l 12.758,-12.76 c 1.252,-1.253 1.252,-3.351 0,-4.604 L 26.303,8.938 A 3.25,3.25 0 0 0 24,8 Z"
     id="path2"
     inkscape:connector-curvature="0"
     style="opacity:0.75;fill:#a42a2a" />
  <path
     d="m 11.048,11.81 a 1.52,1.52 0 0 0 -1.524,1.523 c 0,0.845 0.68,1.524 1.524,1.524 h 0.762 v 18.286 c 0,2.69 3.232,4.06 5.166,2.19 L 38.236,14.76 a 1.52,1.52 0 0 0 -0.521,-2.95 h -7.62 a 1.52,1.52 0 0 0 -1.524,1.523 c 0,0.631 0.381,1.17 0.926,1.402 L 17.905,25.952 V 14.857 h 0.762 A 1.52,1.52 0 0 0 20.19,13.333 1.52,1.52 0 0 0 18.667,11.81 Z"
     id="path4"
     inkscape:connector-curvature="0"
     style="fill:#5beedc" />
  <path
     d="M 24,0.229 V 0.232 A 23.773,23.773 0 0 0 0.227,24.006 23.773,23.773 0 0 0 24,47.77 23.773,23.773 0 0 0 47.773,24.001 23.773,23.773 0 0 0 24,0.229 Z m -0.068,3.54 A 20.436,20.436 0 0 1 44.367,24.205 20.436,20.436 0 0 1 23.932,44.643 20.436,20.436 0 0 1 3.5,24.205 20.436,20.436 0 0 1 23.932,3.773 V 3.77 Z"
     id="path6"
     inkscape:connector-curvature="0"
     style="fill:#5beedc" />
</svg>
