<?xml version="1.0" encoding="UTF-8" standalone="no"?>
<svg
   xmlns:dc="http://purl.org/dc/elements/1.1/"
   xmlns:cc="http://creativecommons.org/ns#"
   xmlns:rdf="http://www.w3.org/1999/02/22-rdf-syntax-ns#"
   xmlns:svg="http://www.w3.org/2000/svg"
   xmlns="http://www.w3.org/2000/svg"
   xmlns:sodipodi="http://sodipodi.sourceforge.net/DTD/sodipodi-0.dtd"
   xmlns:inkscape="http://www.inkscape.org/namespaces/inkscape"
   width="48"
   height="48"
   version="1.1"
   viewBox="0 0 12.7 12.7"
   id="svg4"
   sodipodi:docname="Freeter.svg"
   inkscape:version="0.92.4 (5da689c313, 2019-01-14)">
  <metadata
     id="metadata10">
    <rdf:RDF>
      <cc:Work
         rdf:about="">
        <dc:format>image/svg+xml</dc:format>
        <dc:type
           rdf:resource="http://purl.org/dc/dcmitype/StillImage" />
        <dc:title></dc:title>
      </cc:Work>
    </rdf:RDF>
  </metadata>
  <defs
     id="defs8" />
  <sodipodi:namedview
     pagecolor="#ffffff"
     bordercolor="#666666"
     borderopacity="1"
     objecttolerance="10"
     gridtolerance="10"
     guidetolerance="10"
     inkscape:pageopacity="0"
     inkscape:pageshadow="2"
     inkscape:window-width="1136"
     inkscape:window-height="480"
     id="namedview6"
     showgrid="false"
     inkscape:zoom="4.9166667"
     inkscape:cx="2.1355932"
     inkscape:cy="24"
     inkscape:window-x="0"
     inkscape:window-y="25"
     inkscape:window-maximized="0"
     inkscape:current-layer="svg4" />
  <path
     d="M 6.3396014,0.07544763 A 6.2946228,6.2946228 0 0 0 0.05529722,6.3597518 6.2946228,6.2946228 0 0 0 6.3396014,12.654375 6.2946228,6.2946228 0 0 0 12.634224,6.3597518 6.2946228,6.2946228 0 0 0 6.3396014,0.07544763 Z M 6.3189308,0.9942546 6.3292661,1.0149249 A 5.407486,5.407486 0 0 1 11.726169,6.4015091 5.407486,5.407486 0 0 1 6.3186829,11.808995 5.407486,5.407486 0 0 1 0.91146143,6.4015091 5.407486,5.407486 0 0 1 6.3186829,0.99428767 Z M 3.2545653,2.9103959 v 6.87908 H 5.088528 v -6.87908 z m 2.522294,0 V 4.7448878 H 9.445261 V 2.9103959 Z m 0,2.522294 V 7.2671818 H 7.6113512 V 5.4326899 Z"
     id="path2"
     inkscape:connector-curvature="0"
     style="fill:#5beedc;stroke-width:1.04390037" />
</svg>
