<?xml version="1.0" encoding="UTF-8" standalone="no"?>
<svg
   xmlns:dc="http://purl.org/dc/elements/1.1/"
   xmlns:cc="http://creativecommons.org/ns#"
   xmlns:rdf="http://www.w3.org/1999/02/22-rdf-syntax-ns#"
   xmlns:svg="http://www.w3.org/2000/svg"
   xmlns="http://www.w3.org/2000/svg"
   xmlns:sodipodi="http://sodipodi.sourceforge.net/DTD/sodipodi-0.dtd"
   xmlns:inkscape="http://www.inkscape.org/namespaces/inkscape"
   width="48"
   height="48"
   viewBox="0 0 12.7 12.7"
   version="1.1"
   id="svg6"
   sodipodi:docname="gqrx.svg"
   inkscape:version="0.92.5 (2060ec1f9f, 2020-04-08)">
  <metadata
     id="metadata12">
    <rdf:RDF>
      <cc:Work
         rdf:about="">
        <dc:format>image/svg+xml</dc:format>
        <dc:type
           rdf:resource="http://purl.org/dc/dcmitype/StillImage" />
        <dc:title></dc:title>
      </cc:Work>
    </rdf:RDF>
  </metadata>
  <defs
     id="defs10" />
  <sodipodi:namedview
     pagecolor="#ffffff"
     bordercolor="#666666"
     borderopacity="1"
     objecttolerance="10"
     gridtolerance="10"
     guidetolerance="10"
     inkscape:pageopacity="0"
     inkscape:pageshadow="2"
     inkscape:window-width="1085"
     inkscape:window-height="480"
     id="namedview8"
     showgrid="false"
     inkscape:zoom="4.9166667"
     inkscape:cx="2.1355932"
     inkscape:cy="24"
     inkscape:window-x="0"
     inkscape:window-y="25"
     inkscape:window-maximized="0"
     inkscape:current-layer="svg6" />
  <path
     d="M 3.582,2.876 3.392,3.678 2.567,7.588 H 1.053 a 5.407,5.407 0 0 0 0.008,0.045 5.407,5.407 0 0 0 0.08,0.27 H 2.888 L 3.57,4.65 4.55,9.667 4.736,10.527 4.923,9.667 5.344,7.282 H 6.792 L 7.006,6.729 7.682,8.763 8.181,7.889 h 3.323 A 5.407,5.407 0 0 0 11.586,7.573 H 7.944 L 7.777,7.859 7.03,5.618 6.513,6.965 H 5.018 L 4.728,8.6 3.766,3.682 Z m 5.095,0.34 h 0.896 z m 0,0.497 h 0.896 z m 0,0.498 h 0.896 z m 0,0.497 c -0.062,0 -0.112,0.037 -0.112,0.083 v 0.083 c 0,0.046 0.05,0.083 0.112,0.083 h 0.896 c 0.062,0 0.111,-0.037 0.111,-0.083 V 4.791 c 0,-0.046 -0.05,-0.083 -0.111,-0.083 z m 0,0.498 c -0.062,0 -0.112,0.037 -0.112,0.083 v 0.083 c 0,0.046 0.05,0.082 0.112,0.082 h 0.896 c 0.062,0 0.111,-0.036 0.111,-0.082 V 5.289 c 0,-0.046 -0.05,-0.083 -0.111,-0.083 z"
     id="path2"
     inkscape:connector-curvature="0"
     style="opacity:0.75;fill:#d45500;fill-rule:evenodd" />
  <path
     d="M 6.34,0.075 A 6.295,6.295 0 0 0 0.055,6.36 6.295,6.295 0 0 0 6.34,12.655 6.295,6.295 0 0 0 12.634,6.36 6.295,6.295 0 0 0 6.34,0.075 Z m -0.011,0.94 a 5.408,5.408 0 0 1 5.397,5.387 5.407,5.407 0 0 1 -10.814,0 c 0,-2.987 2.43,-5.387 5.417,-5.387 z m 2.348,2.2 c -0.062,0 -0.112,0.038 -0.112,0.084 v 0.082 c 0,0.046 0.05,0.083 0.112,0.083 h 0.896 c 0.062,0 0.111,-0.037 0.111,-0.083 V 3.3 c 0,-0.046 -0.05,-0.083 -0.111,-0.083 z m 0,0.498 c -0.062,0 -0.112,0.037 -0.112,0.083 v 0.083 c 0,0.046 0.05,0.083 0.112,0.083 h 0.896 c 0.062,0 0.111,-0.037 0.111,-0.083 V 3.796 C 9.684,3.75 9.634,3.713 9.573,3.713 Z m 0,0.498 c -0.062,0 -0.112,0.037 -0.112,0.083 v 0.082 c 0,0.046 0.05,0.083 0.112,0.083 h 0.896 c 0.062,0 0.111,-0.037 0.111,-0.083 V 4.294 c 0,-0.046 -0.05,-0.083 -0.111,-0.083 z"
     id="path4"
     inkscape:connector-curvature="0"
     style="fill:#5beedc" />
</svg>
