<?xml version="1.0" encoding="UTF-8" standalone="no"?>
<svg
   xmlns:dc="http://purl.org/dc/elements/1.1/"
   xmlns:cc="http://creativecommons.org/ns#"
   xmlns:rdf="http://www.w3.org/1999/02/22-rdf-syntax-ns#"
   xmlns:svg="http://www.w3.org/2000/svg"
   xmlns="http://www.w3.org/2000/svg"
   xmlns:sodipodi="http://sodipodi.sourceforge.net/DTD/sodipodi-0.dtd"
   xmlns:inkscape="http://www.inkscape.org/namespaces/inkscape"
   width="48"
   height="48"
   version="1.1"
   viewBox="0 0 12.7 12.7"
   id="svg4"
   sodipodi:docname="museeks.svg"
   inkscape:version="0.92.4 (5da689c313, 2019-01-14)">
  <metadata
     id="metadata10">
    <rdf:RDF>
      <cc:Work
         rdf:about="">
        <dc:format>image/svg+xml</dc:format>
        <dc:type
           rdf:resource="http://purl.org/dc/dcmitype/StillImage" />
        <dc:title></dc:title>
      </cc:Work>
    </rdf:RDF>
  </metadata>
  <defs
     id="defs8" />
  <sodipodi:namedview
     pagecolor="#ffffff"
     bordercolor="#666666"
     borderopacity="1"
     objecttolerance="10"
     gridtolerance="10"
     guidetolerance="10"
     inkscape:pageopacity="0"
     inkscape:pageshadow="2"
     inkscape:window-width="1136"
     inkscape:window-height="480"
     id="namedview6"
     showgrid="false"
     inkscape:zoom="4.9166667"
     inkscape:cx="2.1355932"
     inkscape:cy="24"
     inkscape:window-x="0"
     inkscape:window-y="25"
     inkscape:window-maximized="0"
     inkscape:current-layer="svg4" />
  <path
     d="M 6.3396014,0.07544763 C 2.8712222,0.08119453 0.06111798,2.8913726 0.05529722,6.3597518 c -4.61e-6,3.4723479 2.81195628,6.2888022 6.28430418,6.2946232 3.4765812,0 6.2946226,-2.818042 6.2946226,-6.2946232 C 12.628466,2.8874039 9.8119493,0.07544763 6.3396014,0.07544763 Z M 6.3292661,1.0149183 c 2.9741438,0.00572 5.3855259,2.4125198 5.3969029,5.3865842 0,2.9865791 -2.4208806,5.4074865 -5.4074861,5.4074865 -2.986579,0 -5.40722147,-2.420881 -5.40722147,-5.4074865 0,-2.986579 2.43122567,-5.3865842 5.41780467,-5.3865842 z M 3.1244086,2.9139942 V 9.7859305 L 5.058118,8.0935445 6.3562004,9.2298892 7.5540334,8.0320561 V 9.6262565 H 9.626224 V 3.0736682 H 8.0769758 L 8.0351192,3.1237929 6.0533621,5.4770997 3.1244615,2.9139809 Z M 8.207255,3.3537526 H 9.3461925 V 9.3459604 H 7.8341707 V 7.355922 L 6.3438445,8.8462482 5.271052,7.9073067 7.0512785,6.3498036 6.2642588,5.6614723 8.2072814,3.3536203 Z M 3.3916344,3.5247983 6.6203041,6.3499835 3.3916344,9.1751687 V 3.5250628 Z"
     id="path2"
     inkscape:connector-curvature="0"
     style="fill:#5beedc;stroke-width:1.04387391" />
</svg>
