<?xml version="1.0" encoding="UTF-8" standalone="no"?>
<svg
   xmlns:dc="http://purl.org/dc/elements/1.1/"
   xmlns:cc="http://creativecommons.org/ns#"
   xmlns:rdf="http://www.w3.org/1999/02/22-rdf-syntax-ns#"
   xmlns:svg="http://www.w3.org/2000/svg"
   xmlns="http://www.w3.org/2000/svg"
   xmlns:sodipodi="http://sodipodi.sourceforge.net/DTD/sodipodi-0.dtd"
   xmlns:inkscape="http://www.inkscape.org/namespaces/inkscape"
   width="48"
   height="48"
   viewBox="0 0 12.7 12.7"
   version="1.1"
   id="svg10"
   sodipodi:docname="tuxguitar.svg"
   inkscape:version="0.92.4 (5da689c313, 2019-01-14)">
  <metadata
     id="metadata16">
    <rdf:RDF>
      <cc:Work
         rdf:about="">
        <dc:format>image/svg+xml</dc:format>
        <dc:type
           rdf:resource="http://purl.org/dc/dcmitype/StillImage" />
        <dc:title></dc:title>
      </cc:Work>
    </rdf:RDF>
  </metadata>
  <defs
     id="defs14" />
  <sodipodi:namedview
     pagecolor="#ffffff"
     bordercolor="#666666"
     borderopacity="1"
     objecttolerance="10"
     gridtolerance="10"
     guidetolerance="10"
     inkscape:pageopacity="0"
     inkscape:pageshadow="2"
     inkscape:window-width="1087"
     inkscape:window-height="480"
     id="namedview12"
     showgrid="false"
     inkscape:zoom="4.9166667"
     inkscape:cx="2.1355932"
     inkscape:cy="24"
     inkscape:window-x="0"
     inkscape:window-y="25"
     inkscape:window-maximized="0"
     inkscape:current-layer="svg10" />
  <path
     d="M 6.34,0.07 A 6.29,6.29 0 0 0 0.05,6.37 6.29,6.29 0 0 0 6.35,12.65 6.29,6.29 0 0 0 12.63,6.36 6.29,6.29 0 0 0 6.34,0.07 Z M 6.32,1 6.33,1.01 a 5.4,5.4 0 0 1 5.4,5.4 5.4,5.4 0 0 1 -5.4,5.41 A 5.4,5.4 0 0 1 0.92,6.42 5.4,5.4 0 0 1 6.32,1 Z"
     id="path2"
     inkscape:connector-curvature="0"
     style="fill:#5beedc" />
  <path
     style="font-weight:400;font-size:12.61999989px;line-height:1.25;font-family:'Electric Guitar Icons';-inkscape-font-specification:'Electric Guitar Icons';letter-spacing:0;word-spacing:0"
     d="M 17.6,6.56 17.63,6.58 17.62,6.6 17.59,6.57 Z m 0.18,0 0.04,0.03 H 17.81 L 17.77,6.57 V 6.56 Z m -0.34,0 h 0.01 L 17.44,6.59 17.42,6.58 Z M 17.7,6.55 17.73,6.58 V 6.59 L 17.69,6.61 C 17.67,6.6 17.67,6.58 17.69,6.56 Z M 18.8,6 h 0.01 L 18.79,6.03 V 6.02 L 18.8,5.99 Z M 19.7,5.54 19.74,5.57 19.72,5.59 19.7,5.55 Z M 19.54,5.51 19.58,5.54 19.57,5.56 19.53,5.57 V 5.51 Z M 19.1,5.52 19.08,5.51 19.06,5.53 19.08,5.54 Z"
     font-weight="400"
     font-size="12.62"
     letter-spacing="0"
     word-spacing="0"
     id="path4"
     inkscape:connector-curvature="0" />
  <path
     style="font-weight:400;font-size:12.61999989px;line-height:1.25;font-family:'Electric Guitar Icons';-inkscape-font-specification:'Electric Guitar Icons';letter-spacing:0;word-spacing:0"
     d="M 19.11,5.5 19.1,5.52 h 0.01 L 19.13,5.5 Z m 0.83,-0.12 0.02,0.01 V 5.4 L 19.93,5.39 V 5.38 Z M 19.38,5.35 19.36,5.37 V 5.38 L 19.39,5.36 Z M 20.4,4.88 20.42,4.9 20.4,4.92 c -0.01,0 -0.02,-0.02 0,-0.04 z M 18.54,5.82 18.55,5.83 18.57,5.81 18.56,5.8 Z M 18,6.13 18.06,6.12 18.05,6.1 18.01,6.13 Z"
     font-weight="400"
     font-size="12.62"
     letter-spacing="0"
     word-spacing="0"
     id="path6"
     inkscape:connector-curvature="0" />
  <path
     d="M 5.94,2.03 H 5.77 C 4.3,2.15 4.69,3.71 4.67,4.23 4.64,4.61 4.57,4.92 4.3,5.29 4.03,5.62 3.65,6.13 3.43,6.67 A 0.98,0.98 0 0 0 2.97,6.96 C 2.84,7.13 2.81,7.39 2.88,7.76 L 3,8.04 2.98,8.06 C 2.91,8.13 2.81,8.16 2.71,8.2 a 0.5,0.5 0 0 0 -0.3,0.24 0.42,0.42 0 0 0 -0.05,0.2 c 0,0.06 0,0.13 0.02,0.2 0.02,0.12 0.04,0.25 0.01,0.33 -0.09,0.24 -0.1,0.4 -0.04,0.52 0.06,0.12 0.19,0.17 0.33,0.2 0.28,0.06 0.67,0.04 0.97,0.2 0.32,0.17 0.65,0.23 0.91,0.17 A 0.6,0.6 0 0 0 4.98,9.93 c 0.2,0 0.43,-0.09 0.8,-0.1 0.24,-0.02 0.54,0.08 0.9,0.06 0,0.04 0.01,0.08 0.03,0.11 0.14,0.27 0.4,0.4 0.66,0.38 C 7.64,10.36 7.92,10.2 8.16,9.92 L 8.1,9.9 8.15,9.93 C 8.37,9.66 8.73,9.55 8.98,9.41 9.1,9.33 9.2,9.24 9.2,9.11 9.21,8.98 9.13,8.83 8.95,8.63 8.89,8.56 8.87,8.43 8.84,8.3 8.81,8.17 8.77,8.03 8.66,7.94 A 0.44,0.44 0 0 0 8.53,7.86 C 8.68,7.41 8.63,6.96 8.47,6.56 8.37,6.31 8.23,6.06 8.09,5.85 A 0.52,0.52 0 0 0 8.19,5.79 V 5.74 c 0.04,0.02 0.12,0 0.24,-0.1 0,0 0,-0.02 -0.03,-0.03 V 5.59 C 8.46,5.63 8.54,5.61 8.65,5.51 V 5.48 L 8.67,5.46 v 0.03 c 0.01,0 0.1,-0.03 0.24,-0.13 0,-0.01 0,-0.02 -0.02,-0.03 L 8.9,5.32 H 8.91 L 8.93,5.36 C 8.93,5.34 9.01,5.3 9.15,5.22 9.16,5.21 9.17,5.19 9.16,5.15 L 9.19,5.17 C 9.21,5.19 9.29,5.14 9.45,5.04 9.44,4.99 9.39,4.88 9.29,4.72 H 9.23 C 9.07,4.82 8.96,4.88 8.9,4.89 H 8.91 C 8.89,4.93 8.87,4.93 8.85,4.92 V 4.94 L 8.73,4.99 C 8.72,5.03 8.69,5.03 8.67,5.01 V 5.04 C 8.65,5.07 8.62,5.07 8.6,5.05 V 5.08 L 8.55,5.12 8.54,5.08 8.48,5.16 8.5,5.18 8.46,5.16 8.44,5.13 8.4,5.15 V 5.19 L 8.38,5.2 8.37,5.17 8.33,5.2 8.32,5.23 A 0.13,0.13 0 0 0 8.28,5.25 L 8.27,5.23 8.25,5.27 A 0.16,0.16 0 0 0 8.18,5.31 L 8.16,5.28 8.15,5.32 A 0.13,0.13 0 0 0 8.11,5.35 L 8.09,5.32 8.08,5.37 8.01,5.4 V 5.43 C 7.98,5.41 7.95,5.42 7.93,5.45 L 7.92,5.42 7.87,5.44 V 5.48 L 7.86,5.49 7.85,5.46 7.83,5.5 7.71,5.35 C 7.43,5 7.16,4.67 7.17,4.18 7.17,3.43 7.25,2.04 5.93,2.04 Z m 0.18,1.15 c 0.07,0 0.14,0.03 0.2,0.07 0.07,0.05 0.12,0.11 0.16,0.2 A 0.63,0.63 0 0 1 6.41,4.11 2.46,2.46 0 0 0 6.28,4.06 L 6.2,4.02 C 6.22,4 6.25,3.98 6.26,3.95 A 0.4,0.4 0 0 0 6.27,3.65 0.26,0.26 0 0 0 6.21,3.55 0.13,0.13 0 0 0 6.11,3.5 0.14,0.14 0 0 0 6.02,3.54 0.26,0.26 0 0 0 5.95,3.64 0.43,0.43 0 0 0 5.93,3.88 1.06,1.06 0 0 0 5.71,3.81 V 3.73 c 0,-0.1 0.01,-0.2 0.05,-0.28 A 0.47,0.47 0 0 1 5.91,3.25 0.33,0.33 0 0 1 6.11,3.18 Z M 5.09,3.26 c 0.05,0 0.1,0.02 0.14,0.06 A 0.4,0.4 0 0 1 5.35,3.48 0.67,0.67 0 0 1 5.4,3.81 0.62,0.62 0 0 0 5.24,3.89 V 3.79 A 0.4,0.4 0 0 0 5.21,3.68 0.22,0.22 0 0 0 5.16,3.59 0.1,0.1 0 0 0 5.08,3.57 L 5.02,3.6 A 0.22,0.22 0 0 0 4.98,3.7 C 4.97,3.74 4.96,3.78 4.97,3.82 4.97,3.87 4.98,3.9 5,3.94 a 0.22,0.22 0 0 0 0.07,0.1 L 5,4.07 4.95,4.1 A 0.42,0.42 0 0 1 4.85,3.96 0.64,0.64 0 0 1 4.8,3.73 C 4.8,3.65 4.8,3.58 4.83,3.5 A 0.4,0.4 0 0 1 4.93,3.33 C 4.97,3.28 5.02,3.26 5.07,3.26 h 0.01 z m 0.47,0.6 c 0.12,0 0.25,0.03 0.42,0.14 0.1,0.06 0.19,0.07 0.37,0.15 0.1,0.04 0.14,0.08 0.17,0.13 a 0.2,0.2 0 0 1 0,0.17 C 6.48,4.56 6.34,4.68 6.15,4.74 6.05,4.77 5.98,4.84 5.88,4.89 A 0.6,0.6 0 0 1 5.53,4.99 0.46,0.46 0 0 1 5.26,4.88 L 5.05,4.7 C 4.91,4.63 4.83,4.53 4.81,4.45 4.78,4.38 4.81,4.31 4.87,4.25 L 5.04,4.13 C 5.08,4.11 5.09,4.1 5.1,4.08 5.16,4.03 5.26,3.93 5.4,3.88 A 0.5,0.5 0 0 1 5.56,3.85 Z m 5.07,0.1 a 0.1,0.1 0 0 0 -0.06,0.02 l -0.03,0.03 0.01,0.06 0.07,0.04 c -0.01,0.02 0,0.03 0.02,0.05 L 10.63,4.18 C 10.54,4.2 10.5,4.21 10.49,4.2 L 10.46,4.14 h 0.02 C 10.51,4.1 10.52,4.06 10.5,4.04 10.45,3.99 10.4,4 10.35,4.05 l 0.01,0.07 0.04,0.03 h 0.03 c 0.01,0.04 0.01,0.06 0,0.07 -0.06,0.01 -0.1,0.02 -0.12,0.04 L 10.28,4.24 10.27,4.18 10.3,4.17 10.32,4.15 V 4.08 C 10.26,4.04 10.21,4.04 10.16,4.1 v 0.06 l 0.04,0.03 0.04,0.01 0.02,0.05 -0.15,0.04 A 0.13,0.13 0 0 0 10.08,4.25 L 10.13,4.19 V 4.12 L 10.1,4.1 c -0.07,0 -0.1,0 -0.12,0.02 L 9.97,4.14 v 0.07 l 0.04,0.03 h 0.04 V 4.3 C 9.97,4.33 9.91,4.34 9.9,4.33 L 9.89,4.32 C 9.94,4.24 9.94,4.18 9.91,4.16 9.85,4.15 9.81,4.15 9.78,4.17 9.76,4.22 9.76,4.25 9.78,4.27 L 9.8,4.28 c 0.01,0.02 0.03,0.01 0.04,0 L 9.86,4.33 C 9.83,4.36 9.78,4.38 9.71,4.37 L 9.7,4.36 C 9.74,4.28 9.75,4.24 9.73,4.23 9.67,4.18 9.63,4.18 9.58,4.23 L 9.57,4.3 9.65,4.34 c 0.02,0.02 0.02,0.03 0,0.04 L 9.46,4.43 v 0.01 c 0,0.05 -0.02,0.09 -0.04,0.12 L 9.37,4.63 9.34,4.64 c 0,0.04 0.05,0.15 0.17,0.35 0.2,-0.1 0.37,-0.1 0.48,0 0.03,0.01 0.22,-0.14 0.58,-0.47 l 0.05,0.04 c 0.1,0.09 0.22,0.07 0.34,-0.04 0.08,-0.1 0.08,-0.2 0,-0.32 C 10.89,4.15 10.8,4.14 10.68,4.16 L 10.67,4.15 c -0.02,-0.01 0,-0.07 0.02,-0.16 A 0.12,0.12 0 0 0 10.63,3.96 Z M 5.42,4 H 5.36 C 5.34,4.02 5.31,4.03 5.31,4.05 c 0,0.02 0.03,0.03 0.05,0.03 0.02,0 0.03,-0.02 0.05,-0.03 0.01,-0.01 0.05,0 0.05,-0.03 V 4 L 5.42,3.99 Z M 5.7,4 H 5.67 L 5.66,4.02 c 0,0.02 0.03,0.02 0.05,0.03 0.02,0 0.03,0.03 0.05,0.03 0.02,0 0.05,0 0.05,-0.03 C 5.81,4.03 5.78,4.02 5.76,4.01 A 0.14,0.14 0 0 0 5.7,4 Z m 4.94,0.21 0.05,0.04 -0.04,0.05 h -0.01 c -0.01,-0.04 -0.02,-0.06 0,-0.07 z m -0.2,0.06 h 0.03 l 0.02,0.02 V 4.32 A 0.14,0.14 0 0 0 10.46,4.35 L 10.45,4.33 10.43,4.28 h 0.02 z M 6.32,4.3 C 6.28,4.3 6.28,4.34 6.22,4.38 L 6,4.53 C 5.88,4.6 5.68,4.7 5.51,4.7 A 0.65,0.65 0 0 1 5.11,4.54 L 4.98,4.43 C 4.96,4.4 4.95,4.35 4.91,4.35 c -0.02,0 -0.03,0.06 0.03,0.1 0.03,0.03 0.07,0.08 0.13,0.12 0.1,0.08 0.26,0.17 0.44,0.17 0.2,0 0.37,-0.1 0.52,-0.17 C 6.11,4.53 6.21,4.45 6.27,4.4 6.34,4.34 6.37,4.3 6.33,4.29 H 6.32 Z m 3.95,0.01 0.03,0.02 v 0.05 h -0.04 c -0.02,-0.01 -0.02,-0.02 0,-0.04 z m -0.2,0.05 0.03,0.02 c 0.02,0.01 0.02,0.02 0,0.04 0,0.02 -0.02,0.02 -0.03,0 -0.02,0 -0.02,-0.02 -0.01,-0.04 z M 9.89,4.41 9.92,4.42 V 4.47 L 9.9,4.49 9.85,4.45 9.87,4.43 Z m -0.2,0.05 h 0.03 c 0.02,0.02 0.02,0.03 0,0.05 L 9.71,4.53 9.66,4.49 9.68,4.47 Z m -3.15,0.1 c 0.1,0.43 0.33,1 0.51,1.39 H 7.01 L 7.03,5.93 C 7.02,5.9 7,5.9 7,5.92 L 6.97,5.96 H 6.98 L 7,5.94 7.02,5.95 7,5.97 A 0.1,0.1 0 0 0 6.96,5.99 L 6.97,5.96 6.9,5.98 V 6.04 C 6.88,6.02 6.86,6.05 6.84,6.05 L 6.83,6.06 A 0.1,0.1 0 0 0 6.79,6.09 L 6.77,6.08 6.78,6.07 c 0,0 -0.02,-0.02 -0.04,0 L 6.77,6.14 C 6.73,6.12 6.71,6.12 6.69,6.14 H 6.67 L 6.69,6.11 C 6.68,6.1 6.65,6.11 6.62,6.13 L 6.6,6.15 C 6.62,6.17 6.63,6.16 6.65,6.14 H 6.66 V 6.16 A 0.52,0.52 0 0 0 6.54,6.23 L 6.53,6.22 6.54,6.21 6.57,6.19 6.59,6.16 C 6.57,6.16 6.49,6.2 6.32,6.31 L 6.35,6.35 C 6.3,6.35 6.27,6.36 6.26,6.38 V 6.36 L 6.29,6.34 6.3,6.33 6.28,6.31 6.22,6.36 6.21,6.37 6.24,6.39 6.22,6.41 H 6.18 L 6.2,6.39 C 6.08,6.42 6,6.46 5.97,6.5 L 5.98,6.51 A 0.36,0.36 0 0 1 5.92,6.57 H 5.9 L 5.91,6.55 5.94,6.54 5.95,6.53 5.88,6.49 C 5.72,6.32 5.7,6.15 5.82,6 L 5.87,5.95 C 5.88,5.92 5.99,5.85 6.17,5.73 6.21,5.68 6.2,5.63 6.12,5.56 5.97,5.45 5.72,5.51 5.36,5.76 5.02,6.19 4.71,6.44 4.42,6.51 H 4.29 c 0.2,-0.44 0.6,-1.2 0.63,-1.82 l 0.1,0.07 C 5.1,4.8 5.16,4.86 5.23,4.93 A 0.5,0.5 0 0 0 5.58,5.05 C 5.72,5.05 5.83,5 5.92,4.95 L 6.18,4.8 A 0.7,0.7 0 0 0 6.55,4.56 Z m 2.23,0.5 H 8.79 V 5.07 C 8.77,5.09 8.75,5.09 8.74,5.08 L 8.75,5.07 Z M 8.72,5.08 8.73,5.09 8.71,5.12 Z M 8.79,5.1 H 8.8 c 0,0.03 0.02,0.04 0.03,0.05 L 8.82,5.16 8.8,5.15 A 0.13,0.13 0 0 0 8.78,5.11 Z M 8.52,5.2 H 8.55 C 8.53,5.23 8.53,5.25 8.57,5.28 L 8.55,5.3 A 0.16,0.16 0 0 0 8.49,5.22 L 8.51,5.21 Z M 8.84,5.2 8.87,5.22 8.86,5.23 8.83,5.22 Z M 8.7,5.23 8.73,5.25 8.71,5.27 8.68,5.25 Z M 8.87,5.25 8.89,5.26 V 5.27 L 8.86,5.25 Z M 8.4,5.27 H 8.41 V 5.28 A 0.13,0.13 0 0 0 8.36,5.31 V 5.29 A 0.14,0.14 0 0 0 8.4,5.27 Z M 8.26,5.31 8.3,5.37 H 8.28 C 8.26,5.34 8.25,5.33 8.26,5.31 Z M 8.32,5.39 8.33,5.4 c 0,0.03 0.02,0.05 0.03,0.07 H 8.34 C 8.31,5.43 8.31,5.4 8.32,5.39 Z M 8.04,5.45 8.08,5.5 8.07,5.51 8.02,5.48 Z M 8.09,5.53 8.1,5.54 8.08,5.56 H 8.07 Z M 8.13,5.6 8.14,5.61 8.13,5.63 H 8.12 Z M 8.18,5.7 8.2,5.72 8.17,5.71 Z M 7.28,5.71 7.32,5.76 7.31,5.77 7.32,5.78 7.34,5.77 7.31,5.8 C 7.26,5.74 7.25,5.71 7.28,5.71 Z M 4.23,5.86 C 4.27,5.83 4.25,5.91 4.09,6.2 L 3.94,6.56 3.87,6.57 C 3.97,6.29 4.12,6.04 4.23,5.86 Z M 7.08,6 H 7.1 A 0.13,0.13 0 0 0 7.07,6.03 L 7.05,6.02 7.06,6 7.09,5.99 Z M 7.55,6.02 7.57,6.04 C 7.55,6.04 7.55,6.03 7.55,6.02 Z M 7.12,6.08 7.13,6.1 Z m -0.2,0 0.02,0.02 V 6.11 L 6.9,6.1 Z m 0.7,0.03 c 0.1,0.17 0.19,0.35 0.24,0.55 0.04,0.2 0.05,0.4 0,0.59 0.03,0 0.05,0.02 0.08,0.03 0.36,0.17 0.49,0.33 0.42,0.54 H 8.3 C 8.35,7.65 8.23,7.52 7.93,7.39 7.61,7.25 7.35,7.26 7.31,7.55 V 7.59 A 0.49,0.49 0 0 0 7.23,7.63 C 7.08,7.71 7,7.86 6.95,8.03 6.91,8.23 6.89,8.44 6.88,8.69 6.88,8.82 6.82,8.99 6.77,9.16 6.25,9.54 5.52,9.7 4.9,9.28 A 2.75,2.75 0 0 0 4.76,9.08 L 4.74,9.05 C 4.84,8.98 4.94,8.9 5.04,8.78 L 5.26,8.45 5.34,8.35 C 5.44,8.23 5.58,8.14 5.74,8.09 6.16,8.06 6.42,7.98 6.52,7.86 L 6.56,7.81 C 6.64,7.67 6.66,7.59 6.62,7.55 L 6.58,7.52 6.51,7.49 C 6.26,7.59 6.09,7.61 5.99,7.53 5.93,7.48 5.88,7.36 5.83,7.16 5.87,7.15 5.93,7.13 5.99,7.09 6,7.07 5.99,7.02 5.93,6.94 V 6.93 H 5.95 L 6,7.04 C 6.03,7.06 6.06,7.05 6.1,7.02 V 6.97 L 6.12,7 H 6.13 L 6.3,6.89 6.31,6.88 6.29,6.86 V 6.84 l 0.02,0.02 c 0.03,0.02 0.07,0 0.11,-0.05 L 6.4,6.79 6.41,6.78 H 6.42 L 6.44,6.82 C 6.58,6.74 6.66,6.69 6.67,6.67 L 6.64,6.65 6.67,6.62 6.68,6.66 H 6.69 L 6.8,6.6 V 6.56 C 6.84,6.59 6.94,6.54 7.1,6.41 L 7.07,6.38 7.08,6.37 7.1,6.38 V 6.41 L 7.25,6.33 c 0.1,0.2 0.22,0.5 0.28,0.84 0.05,0 0.11,0 0.18,0.02 C 7.85,6.82 7.73,6.42 7.57,6.14 7.59,6.14 7.6,6.12 7.62,6.11 Z M 7.16,6.15 7.17,6.17 H 7.15 Z m -0.2,0 L 6.99,6.17 6.98,6.19 6.95,6.17 Z m -0.1,0 L 6.9,6.18 6.88,6.21 6.85,6.18 Z M 6.78,6.16 6.79,6.18 6.77,6.2 6.76,6.19 Z M 6.61,6.23 6.62,6.24 6.68,6.32 6.67,6.34 6.65,6.32 A 0.23,0.23 0 0 0 6.6,6.24 Z M 6.46,6.23 6.48,6.24 6.46,6.29 6.42,6.27 Z M 7.02,6.26 7.04,6.28 V 6.29 L 7,6.27 Z M 6.39,6.28 H 6.41 V 6.3 A 0.15,0.15 0 0 0 6.36,6.32 H 6.35 V 6.3 A 0.13,0.13 0 0 0 6.39,6.28 Z M 6.96,6.31 6.98,6.33 6.96,6.35 6.94,6.33 Z m 0.1,0 V 6.34 H 7.04 Z M 6.85,6.31 6.88,6.34 6.87,6.35 6.84,6.33 Z M 6.5,6.32 c 0.01,0.01 0.02,0.03 0,0.04 L 6.48,6.34 Z M 6.52,6.39 6.56,6.42 6.53,6.45 V 6.44 C 6.51,6.43 6.51,6.41 6.52,6.39 Z m 0.37,0 0.04,0.03 V 6.43 L 6.88,6.4 Z M 6.15,6.42 V 6.43 A 0.24,0.24 0 0 0 6.09,6.5 L 6.06,6.48 Z M 5.6,6.44 c 0.02,0.02 0.04,0.09 0.05,0.2 L 5.67,6.67 H 5.71 L 5.69,6.7 H 5.66 L 5.64,6.68 C 5.63,6.67 5.56,6.7 5.44,6.78 c 0.02,0.04 0.1,0.2 0.27,0.46 0,0.16 0.05,0.28 0.13,0.34 0.17,0.14 0.38,0.14 0.6,0.01 L 6.48,7.61 6.44,7.68 C 6.36,7.78 6.24,7.86 6.04,7.94 5.64,7.97 5.39,8.04 5.3,8.15 L 5.01,8.52 C 4.85,8.72 4.73,8.84 4.63,8.91 L 4.42,8.59 c 0,-0.04 0,-0.09 0.02,-0.17 A 0.4,0.4 0 0 0 4.62,8.32 C 4.64,8.3 4.52,8.09 4.29,7.7 L 4.27,7.73 4.25,7.71 C 4.28,7.68 4.28,7.66 4.25,7.64 L 4.21,7.62 C 4.23,7.6 4.22,7.57 4.21,7.54 H 4.16 C 4.18,7.51 4.13,7.41 4.01,7.23 H 4 L 3.97,7.21 4.04,7.11 A 0.93,0.93 0 0 1 4.39,6.93 C 4.85,6.86 5.11,6.8 5.18,6.74 5.43,6.52 5.56,6.42 5.6,6.44 Z M 6,6.5 H 6.02 L 6,6.53 Z M 6.12,6.54 H 6.14 L 6.12,6.57 H 6.1 L 6.12,6.55 6.14,6.54 Z m 0.15,0 0.02,0.02 V 6.6 L 6.25,6.57 Z M 5.84,6.56 5.86,6.57 c 0.02,0.02 0.02,0.03 0,0.05 0,-0.02 -0.03,-0.01 -0.04,0 A 0.12,0.12 0 0 0 5.84,6.56 Z m 0.77,0 C 6.63,6.58 6.63,6.59 6.62,6.61 L 6.6,6.59 Z M 6.01,6.59 6.03,6.61 6.02,6.63 H 5.98 Z M 6.15,6.61 6.17,6.63 6.15,6.65 V 6.6 Z M 6.24,6.62 6.26,6.64 6.24,6.66 6.22,6.64 Z m -0.5,0 0.03,0.02 -0.02,0.03 V 6.6 Z m 0.14,0 0.03,0.03 C 5.93,6.67 5.93,6.68 5.92,6.7 L 5.88,6.68 5.87,6.64 Z M 6.32,6.63 6.34,6.64 6.32,6.66 H 6.31 Z m 0.16,0 0.01,0.02 0.03,0.04 H 6.5 A 0.13,0.13 0 0 0 6.47,6.65 Z M 6.05,6.69 H 6.06 L 6.09,6.73 6.08,6.75 6.06,6.74 C 6.06,6.71 6.05,6.7 6.04,6.7 Z M 5.8,6.7 5.81,6.71 c 0.02,0.02 0.02,0.03 0,0.05 V 6.75 C 5.79,6.74 5.79,6.72 5.8,6.7 Z M 5.62,6.71 V 6.72 A 0.17,0.17 0 0 0 5.6,6.78 L 5.56,6.75 Z M 5.94,6.73 5.97,6.76 V 6.77 L 5.92,6.74 Z M 6.02,6.74 6.05,6.76 6.02,6.79 6,6.77 Z M 5.72,6.76 C 5.74,6.81 5.76,6.85 5.79,6.87 L 5.78,6.88 5.75,6.86 5.72,6.8 H 5.7 Z m 0.37,0 0.02,0.02 H 6.08 Z M 5.51,6.77 5.52,6.78 V 6.79 A 0.1,0.1 0 0 0 5.47,6.82 V 6.8 A 0.14,0.14 0 0 0 5.51,6.77 Z M 5.99,6.82 C 6.01,6.84 6.02,6.85 6,6.87 V 6.86 C 5.98,6.85 5.98,6.83 5.99,6.82 Z m -0.37,0 H 5.65 L 5.63,6.84 5.61,6.83 Z m 0.51,0 0.03,0.03 -0.03,0.02 V 6.83 Z M 5.83,6.84 V 6.85 L 5.85,6.88 C 5.84,6.9 5.82,6.9 5.81,6.89 L 5.8,6.88 Z M 5.2,6.86 C 5.19,6.85 5.13,6.87 5.03,6.93 5.02,6.97 5.02,6.99 5.03,7 L 5.07,7.03 5.11,7 5.13,6.96 H 5.21 A 0.13,0.13 0 0 0 5.18,7.01 c -0.05,0 -0.08,0 -0.09,0.02 v 0.01 c 0,0.05 0.09,0.21 0.25,0.5 C 5.36,7.54 5.41,7.53 5.5,7.47 5.52,7.45 5.46,7.3 5.32,7.05 A 0.1,0.1 0 0 0 5.27,7.03 C 5.29,7.01 5.29,6.99 5.27,6.97 L 5.25,6.95 H 5.22 C 5.24,6.92 5.23,6.89 5.2,6.86 Z M 5.9,6.88 5.89,6.91 Z M 6.04,6.9 c 0.02,0 0.02,0.02 0,0.04 L 6.02,6.92 Z m 0.13,0 0.03,0.02 V 6.93 L 6.16,6.91 Z M 5.81,6.92 5.83,6.94 5.81,6.96 c -0.02,0 -0.02,-0.02 0,-0.04 z M 5.71,6.97 5.73,6.99 H 5.7 Z M 5.83,6.98 5.85,6.99 5.88,7.04 5.87,7.06 V 7.05 L 5.82,7 Z M 5.21,7.03 5.25,7.05 5.2,7.11 A 0.1,0.1 0 0 0 5.16,7.1 Z M 5.79,7.11 5.81,7.13 5.78,7.12 Z M 5.27,7.13 5.28,7.18 H 5.24 L 5.22,7.16 5.24,7.14 Z M 5.3,7.21 5.33,7.24 5.3,7.28 5.26,7.26 Z M 4.46,7.29 C 4.44,7.27 4.38,7.29 4.28,7.36 4.27,7.38 4.38,7.58 4.61,7.96 4.63,7.97 4.69,7.94 4.78,7.87 L 4.56,7.47 4.52,7.45 4.47,7.29 Z m 0.88,0 0.03,0.01 V 7.34 L 5.35,7.37 5.33,7.35 c -0.02,0 -0.02,-0.02 0,-0.04 L 5.34,7.3 Z M 4.44,7.37 H 4.46 A 0.12,0.12 0 0 0 4.44,7.43 C 4.43,7.45 4.41,7.45 4.4,7.43 L 4.37,7.42 4.4,7.38 Z m 0.95,0 0.04,0.02 V 7.43 L 5.4,7.45 5.36,7.41 Z M 4.35,7.42 H 4.36 L 4.34,7.45 Z M 4.48,7.46 H 4.51 L 4.49,7.51 c 0,0.02 -0.03,0.01 -0.08,0 L 4.44,7.47 H 4.48 Z M 4.08,7.5 4.1,7.51 4.07,7.55 A 0.1,0.1 0 0 0 4.02,7.54 Z m 0.43,0.04 0.02,0.02 c 0.02,0.01 0.02,0.03 0,0.05 H 4.5 L 4.48,7.59 Z M 4.1,7.62 4.13,7.63 4.1,7.67 4.07,7.65 V 7.64 Z M 4.56,7.64 H 4.58 C 4.6,7.66 4.6,7.67 4.59,7.69 H 4.55 L 4.52,7.67 4.54,7.65 Z M 4.17,7.67 H 4.19 V 7.71 L 4.15,7.75 H 4.13 V 7.7 A 0.17,0.17 0 0 0 4.17,7.66 Z M 4.58,7.72 H 4.61 L 4.63,7.74 4.64,7.77 H 4.58 L 4.59,7.72 Z m 2.7,0 C 7.3,7.94 7.41,8.16 7.6,8.2 7.8,8.26 8.1,8.08 8.22,7.94 H 8.3 c 0.1,0 0.2,0 0.3,0.08 C 8.66,8.08 8.7,8.2 8.73,8.32 8.76,8.46 8.78,8.6 8.87,8.7 9.04,8.9 9.1,9.02 9.09,9.1 9.09,9.18 9.03,9.25 8.92,9.31 8.7,9.44 8.32,9.56 8.06,9.86 7.85,10.12 7.58,10.26 7.36,10.28 A 0.53,0.53 0 0 1 6.8,9.96 C 6.73,9.82 6.76,9.6 6.82,9.37 6.88,9.14 6.97,8.9 6.98,8.71 6.99,8.46 7.01,8.24 7.05,8.08 7.09,7.91 7.15,7.8 7.27,7.73 H 7.29 Z M 3.52,7.74 H 3.57 L 3.67,7.77 3.77,7.83 3.85,7.9 3.93,8 4.25,8.59 C 4.34,8.76 4.51,8.96 4.67,9.16 4.82,9.36 4.93,9.56 4.92,9.71 4.9,9.97 4.75,10.11 4.52,10.16 4.3,10.22 4,10.16 3.69,10 3.35,9.83 2.95,9.84 2.69,9.79 2.57,9.76 2.49,9.72 2.44,9.65 2.4,9.57 2.4,9.45 2.49,9.22 2.53,9.09 2.49,8.95 2.48,8.82 2.46,8.7 2.45,8.58 2.49,8.5 2.55,8.39 2.63,8.35 2.73,8.31 2.83,8.28 2.96,8.25 3.05,8.15 3.15,8.05 3.21,7.95 3.29,7.85 3.35,7.79 3.42,7.75 3.52,7.74 Z m 0.7,0.02 0.02,0.02 0.01,0.03 C 4.22,7.81 4.2,7.83 4.19,7.84 L 4.17,7.8 A 0.17,0.17 0 0 0 4.22,7.76 Z M 4.64,7.8 H 4.67 L 4.7,7.83 4.66,7.88 4.63,7.86 V 7.8 Z M 4.26,7.88 4.29,7.9 4.27,7.91 4.25,7.89 Z M 4.32,7.95 H 4.33 L 4.31,8 4.28,7.99 A 0.1,0.1 0 0 0 4.33,7.95 Z m 0.04,0.1 c 0.02,0 0.04,0.03 0.06,0.07 A 0.13,0.13 0 0 0 4.38,8.15 L 4.35,8.13 H 4.38 V 8.09 L 4.35,8.11 V 8.1 A 0.1,0.1 0 0 0 4.36,8.04 Z"
     id="path8"
     inkscape:connector-curvature="0"
     style="fill:#5beedc" />
</svg>
