<?xml version="1.0" encoding="UTF-8" standalone="no"?>
<svg
   xmlns:dc="http://purl.org/dc/elements/1.1/"
   xmlns:cc="http://creativecommons.org/ns#"
   xmlns:rdf="http://www.w3.org/1999/02/22-rdf-syntax-ns#"
   xmlns:svg="http://www.w3.org/2000/svg"
   xmlns="http://www.w3.org/2000/svg"
   xmlns:sodipodi="http://sodipodi.sourceforge.net/DTD/sodipodi-0.dtd"
   xmlns:inkscape="http://www.inkscape.org/namespaces/inkscape"
   width="48"
   height="48"
   viewBox="0 0 12.7 12.7"
   version="1.1"
   id="svg6"
   sodipodi:docname="armitage.svg"
   inkscape:version="0.92.5 (2060ec1f9f, 2020-04-08)">
  <metadata
     id="metadata12">
    <rdf:RDF>
      <cc:Work
         rdf:about="">
        <dc:format>image/svg+xml</dc:format>
        <dc:type
           rdf:resource="http://purl.org/dc/dcmitype/StillImage" />
        <dc:title></dc:title>
      </cc:Work>
    </rdf:RDF>
  </metadata>
  <defs
     id="defs10" />
  <sodipodi:namedview
     pagecolor="#ffffff"
     bordercolor="#666666"
     borderopacity="1"
     objecttolerance="10"
     gridtolerance="10"
     guidetolerance="10"
     inkscape:pageopacity="0"
     inkscape:pageshadow="2"
     inkscape:window-width="1085"
     inkscape:window-height="480"
     id="namedview8"
     showgrid="false"
     inkscape:zoom="4.9166667"
     inkscape:cx="2.1355932"
     inkscape:cy="24"
     inkscape:window-x="0"
     inkscape:window-y="25"
     inkscape:window-maximized="0"
     inkscape:current-layer="svg6" />
  <path
     d="M 6.345,0.06 A 6.295,6.295 0 0 0 0.06,6.345 6.295,6.295 0 0 0 6.345,12.64 6.295,6.295 0 0 0 12.64,6.345 6.295,6.295 0 0 0 6.345,0.06 Z M 6.335,1 a 5.408,5.408 0 0 1 5.397,5.387 5.4075,5.4075 0 0 1 -10.815,0 C 0.917,3.4 3.347,1 6.334,1 Z M 7.758,3.495 A 5.025,5.025 0 0 1 5.909,4.35 C 3.763,4.352 2.34,5.79 1.122,6.885 L 1.149,6.87 1.073,6.938 C 2.88,5.87 4,5.385 4.703,5.252 4.818,5.192 4.933,5.117 5.047,5.082 5.299,5.003 5.561,4.962 5.825,4.952 6.09,4.941 6.358,4.959 6.621,4.999 6.885,5.039 7.144,5.102 7.391,5.177 A 6.468,6.468 0 0 1 8.686,5.736 C 8.86,5.836 9.009,5.933 9.125,6.021 9.24,6.11 9.324,6.188 9.367,6.249 9.41,6.309 9.414,6.353 9.37,6.371 A 8.999,8.999 0 0 1 8.48,7.417 7.36,7.36 0 0 1 7.55,8.211 6.274,6.274 0 0 1 5.626,9.151 C 5.601,9.159 5.576,9.161 5.551,9.167 5.565,9.177 5.571,9.196 5.587,9.205 7.38,8.965 9.003,7.91 10.5,6.248 L 11.627,5.39 C 11.251,5.66 10.84,5.897 10.367,6.07 10.274,6.004 10.179,5.936 10.087,5.874 L 11.349,4.912 A 5.108,5.108 0 0 1 9.799,5.689 12.542,12.542 0 0 0 9.459,5.48 L 10.715,4.523 A 5.105,5.105 0 0 1 9.153,5.304 9.921,9.921 0 0 0 8.594,5.02 L 9.859,4.057 C 9.387,4.396 8.859,4.68 8.224,4.856 A 7.44,7.44 0 0 0 7.504,4.596 L 8.636,3.734 A 5.13,5.13 0 0 1 7.129,4.496 5.707,5.707 0 0 0 6.577,4.395 Z M 5.655,5.557 a 0.865,0.865 0 0 0 -0.313,0.059 0.613,0.613 0 0 1 0.007,0.006 0.613,0.613 0 0 1 0.035,0.05 0.613,0.613 0 0 1 0.03,0.053 0.613,0.613 0 0 1 0.025,0.056 0.613,0.613 0 0 1 0.02,0.058 0.613,0.613 0 0 1 0.014,0.06 A 0.613,0.613 0 0 1 5.48,5.959 0.613,0.613 0 0 1 5.481,6.004 0.613,0.613 0 0 1 5.478,6.064 0.613,0.613 0 0 1 5.468,6.125 0.613,0.613 0 0 1 5.454,6.185 0.613,0.613 0 0 1 5.433,6.243 0.613,0.613 0 0 1 5.406,6.297 0.613,0.613 0 0 1 5.374,6.349 0.613,0.613 0 0 1 5.337,6.399 0.613,0.613 0 0 1 5.295,6.443 0.613,0.613 0 0 1 5.249,6.483 0.613,0.613 0 0 1 5.199,6.52 0.613,0.613 0 0 1 5.146,6.55 0.613,0.613 0 0 1 5.09,6.575 0.613,0.613 0 0 1 5.032,6.594 0.613,0.613 0 0 1 4.972,6.608 0.613,0.613 0 0 1 4.912,6.615 0.613,0.613 0 0 1 4.868,6.617 0.613,0.613 0 0 1 4.814,6.614 0.865,0.865 0 0 0 5.655,7.286 0.865,0.865 0 0 0 6.52,6.422 0.865,0.865 0 0 0 5.655,5.557 Z"
     id="path2"
     inkscape:connector-curvature="0"
     style="fill:#5beedc" />
  <path
     d="M 6.012,4.946 A 3.165,3.165 0 0 0 5.035,5.078 C 4.484,5.249 3.907,5.736 3.385,6.301 A 2.217,2.217 0 0 0 7.81,6.123 2.225,2.225 0 0 0 7.632,5.258 5.14,5.14 0 0 0 6.012,4.946 Z M 4.868,5.39 A 0.613,0.613 0 0 1 5.481,6.004 0.613,0.613 0 0 1 4.868,6.617 0.613,0.613 0 0 1 4.255,6.004 0.613,0.613 0 0 1 4.868,5.39 Z"
     id="path4"
     inkscape:connector-curvature="0"
     style="opacity:0.75;fill:#5beedc" />
</svg>
