<?xml version="1.0" encoding="UTF-8" standalone="no"?>
<svg
   xmlns:dc="http://purl.org/dc/elements/1.1/"
   xmlns:cc="http://creativecommons.org/ns#"
   xmlns:rdf="http://www.w3.org/1999/02/22-rdf-syntax-ns#"
   xmlns:svg="http://www.w3.org/2000/svg"
   xmlns="http://www.w3.org/2000/svg"
   xmlns:sodipodi="http://sodipodi.sourceforge.net/DTD/sodipodi-0.dtd"
   xmlns:inkscape="http://www.inkscape.org/namespaces/inkscape"
   width="48"
   height="48"
   viewBox="0 0 12.7 12.7"
   version="1.1"
   id="svg11"
   sodipodi:docname="artikulate.svg"
   inkscape:version="0.92.4 (5da689c313, 2019-01-14)">
  <metadata
     id="metadata15">
    <rdf:RDF>
      <cc:Work
         rdf:about="">
        <dc:format>image/svg+xml</dc:format>
        <dc:type
           rdf:resource="http://purl.org/dc/dcmitype/StillImage" />
        <dc:title></dc:title>
      </cc:Work>
    </rdf:RDF>
  </metadata>
  <sodipodi:namedview
     pagecolor="#ffffff"
     bordercolor="#666666"
     borderopacity="1"
     objecttolerance="10"
     gridtolerance="10"
     guidetolerance="10"
     inkscape:pageopacity="0"
     inkscape:pageshadow="2"
     inkscape:window-width="1112"
     inkscape:window-height="480"
     id="namedview13"
     showgrid="false"
     inkscape:zoom="4.9166667"
     inkscape:cx="2.1355932"
     inkscape:cy="24"
     inkscape:window-x="0"
     inkscape:window-y="25"
     inkscape:window-maximized="0"
     inkscape:current-layer="svg11" />
  <defs
     id="defs7">
    <linearGradient
       id="a"
       y1="-434.3"
       x1="-424.95"
       y2="-426.88"
       gradientUnits="userSpaceOnUse"
       x2="-415.03"
       gradientTransform="rotate(5.607 -4692.784 4196.22)">
      <stop
         id="stop2" />
      <stop
         offset="1"
         stop-opacity="0"
         id="stop4" />
    </linearGradient>
  </defs>
  <path
     d="m 6.34,0.07 a 6.29,6.29 0 0 0 -3.392,1 L 5.363,1.087 A 5.4,5.4 0 0 1 6.32,1 5.417,5.417 0 0 1 11.73,6.41 5.4,5.4 0 0 1 11.534,7.84 V 9.897 A 6.29,6.29 0 0 0 6.34,0.07 Z M 1.587,1.587 v 3.97 H 3.97 L 5.557,6.879 V 5.556 H 6.88 V 1.587 Z m 2.651,0.649 c 0.256,0 0.451,0.058 0.585,0.174 0.134,0.115 0.2,0.25 0.198,0.403 A 0.835,0.835 0 0 1 4.924,3.22 0.55,0.55 0 0 1 4.674,3.468 0.377,0.377 0 0 0 4.444,3.782 0.251,0.251 0 0 1 4.358,3.948 0.249,0.249 0 0 1 4.184,4.016 H 4.178 A 0.25,0.25 0 0 1 3.978,3.919 0.257,0.257 0 0 1 3.92,3.699 0.682,0.682 0 0 1 4.203,3.257 C 4.356,3.15 4.433,3.019 4.434,2.864 4.434,2.721 4.334,2.644 4.133,2.635 A 0.345,0.345 0 0 0 3.849,2.745 C 3.776,2.823 3.699,2.84 3.618,2.795 A 0.276,0.276 0 0 1 3.506,2.641 0.257,0.257 0 0 1 3.521,2.432 0.227,0.227 0 0 1 3.663,2.31 C 3.855,2.26 4.046,2.236 4.238,2.236 Z m -3.18,0.71 A 6.29,6.29 0 0 0 6.34,12.65 6.29,6.29 0 0 0 9.878,11.56 H 7.966 A 5.4,5.4 0 0 1 6.33,11.82 5.4,5.4 0 0 1 0.92,6.42 5.4,5.4 0 0 1 1.058,5.21 Z M 4.18,4.198 c 0.108,0 0.194,0.032 0.26,0.097 0.067,0.065 0.101,0.147 0.104,0.248 A 0.326,0.326 0 0 1 4.449,4.793 0.387,0.387 0 0 1 4.176,4.89 0.362,0.362 0 0 1 3.911,4.793 0.343,0.343 0 0 1 3.814,4.543 0.336,0.336 0 0 1 3.918,4.295 0.364,0.364 0 0 1 4.18,4.198 Z M 7.144,5.82 V 7.143 H 5.82 v 3.968 h 5.291 V 7.144 H 8.731 L 7.143,5.82 Z m 1.338,1.887 c 0.045,0 0.085,0.008 0.12,0.024 A 0.197,0.197 0 0 1 8.688,7.81 0.391,0.391 0 0 1 8.742,7.959 c 0.013,0.06 0.019,0.135 0.019,0.225 0,0.065 -0.004,0.127 -0.01,0.188 -0.008,0.06 -0.016,0.126 -0.028,0.2 l -0.144,1.05 h -0.2 L 8.244,8.653 A 14.512,14.512 0 0 1 8.196,8.292 1.46,1.46 0 0 1 8.192,8.18 c 0,-0.164 0.025,-0.284 0.075,-0.36 A 0.245,0.245 0 0 1 8.482,7.707 Z m 0.004,2.116 c 0.044,0 0.085,0.008 0.124,0.025 A 0.314,0.314 0 0 1 8.806,10.144 0.332,0.332 0 0 1 8.713,10.375 0.312,0.312 0 0 1 8.486,10.47 0.332,0.332 0 0 1 8.358,10.445 0.343,0.343 0 0 1 8.184,10.272 0.332,0.332 0 0 1 8.184,10.02 0.314,0.314 0 0 1 8.358,9.848 0.332,0.332 0 0 1 8.486,9.823 Z"
     id="path9"
     inkscape:connector-curvature="0"
     style="fill:#5beedc" />
</svg>
