<?xml version="1.0" encoding="UTF-8" standalone="no"?>
<svg
   xmlns:dc="http://purl.org/dc/elements/1.1/"
   xmlns:cc="http://creativecommons.org/ns#"
   xmlns:rdf="http://www.w3.org/1999/02/22-rdf-syntax-ns#"
   xmlns:svg="http://www.w3.org/2000/svg"
   xmlns="http://www.w3.org/2000/svg"
   xmlns:sodipodi="http://sodipodi.sourceforge.net/DTD/sodipodi-0.dtd"
   xmlns:inkscape="http://www.inkscape.org/namespaces/inkscape"
   width="48"
   height="48"
   viewBox="0 0 12.7 12.7"
   version="1.1"
   id="svg6"
   sodipodi:docname="asleap.svg"
   inkscape:version="0.92.5 (2060ec1f9f, 2020-04-08)">
  <metadata
     id="metadata12">
    <rdf:RDF>
      <cc:Work
         rdf:about="">
        <dc:format>image/svg+xml</dc:format>
        <dc:type
           rdf:resource="http://purl.org/dc/dcmitype/StillImage" />
        <dc:title></dc:title>
      </cc:Work>
    </rdf:RDF>
  </metadata>
  <defs
     id="defs10" />
  <sodipodi:namedview
     pagecolor="#ffffff"
     bordercolor="#666666"
     borderopacity="1"
     objecttolerance="10"
     gridtolerance="10"
     guidetolerance="10"
     inkscape:pageopacity="0"
     inkscape:pageshadow="2"
     inkscape:window-width="1085"
     inkscape:window-height="480"
     id="namedview8"
     showgrid="false"
     inkscape:zoom="4.9166667"
     inkscape:cx="2.1355932"
     inkscape:cy="24"
     inkscape:window-x="0"
     inkscape:window-y="25"
     inkscape:window-maximized="0"
     inkscape:current-layer="svg6" />
  <path
     d="M 6.35,0.061 A 6.29,6.29 0 0 0 6.05,0.076 6.29,6.29 0 0 0 5.795,0.089 6.29,6.29 0 0 0 4.491,0.342 6.29,6.29 0 0 0 4.463,0.352 6.29,6.29 0 0 0 2.799,1.16 6.29,6.29 0 0 0 2.612,1.303 6.29,6.29 0 0 0 1.423,2.442 6.29,6.29 0 0 0 1.296,2.62 6.29,6.29 0 0 0 0.29,4.67 6.29,6.29 0 0 0 0.284,4.695 6.29,6.29 0 0 0 0.061,6.35 6.29,6.29 0 0 0 0.092,6.978 6.29,6.29 0 0 0 0.096,7.003 6.29,6.29 0 0 0 1.302,10.088 6.29,6.29 0 0 0 1.452,10.285 6.29,6.29 0 0 0 6.35,12.639 6.29,6.29 0 0 0 7.083,12.591 6.29,6.29 0 0 0 7.424,12.54 6.29,6.29 0 0 0 11.38,10.114 6.29,6.29 0 0 0 11.544,9.884 6.29,6.29 0 0 0 12.366,8.164 6.29,6.29 0 0 0 12.41,8.031 6.29,6.29 0 0 0 12.528,7.505 6.29,6.29 0 0 0 12.548,7.417 6.29,6.29 0 0 0 12.639,6.35 6.29,6.29 0 0 0 12.567,5.453 6.29,6.29 0 0 0 12.531,5.217 6.29,6.29 0 0 0 12.44,4.812 6.29,6.29 0 0 0 12.4,4.652 6.29,6.29 0 0 0 11.568,2.845 6.29,6.29 0 0 0 11.54,2.799 6.29,6.29 0 0 0 10.206,1.385 6.29,6.29 0 0 0 10.006,1.243 6.29,6.29 0 0 0 8.614,0.483 6.29,6.29 0 0 0 8.36,0.4 6.29,6.29 0 0 0 7.422,0.154 6.29,6.29 0 0 0 7.417,0.154 6.29,6.29 0 0 0 6.35,0.06 Z M 6.332,0.997 A 5.407,5.407 0 0 1 7.272,1.084 1.232,1.232 0 0 1 6.181,2.063 C 6.112,1.633 5.839,1.293 5.488,1.066 a 5.407,5.407 0 0 1 0.844,-0.07 z m 1.217,0.144 a 5.407,5.407 0 0 1 0.624,0.186 c 0.305,0.224 0.515,0.569 0.515,0.975 0,0.442 -0.239,0.823 -0.59,1.039 A 3.466,3.466 0 0 0 7.435,3.043 C 7.29,2.683 7.06,2.368 6.709,2.206 7.137,2.009 7.446,1.612 7.549,1.141 Z M 5.066,1.153 c 0.493,0.16 0.858,0.604 0.858,1.15 0,0.23 -0.079,0.437 -0.193,0.62 A 3.455,3.455 0 0 0 4.748,3.259 C 4.641,2.797 4.366,2.399 3.944,2.206 4.339,2.025 4.614,1.664 4.74,1.242 A 5.407,5.407 0 0 1 5.066,1.152 Z M 4.429,1.346 C 4.244,1.738 3.869,2.025 3.417,2.063 3.407,2.003 3.363,1.958 3.347,1.9 A 5.407,5.407 0 0 1 4.429,1.346 Z m 4.302,0.22 A 5.407,5.407 0 0 1 9.384,1.941 1.233,1.233 0 0 1 8.946,2.063 C 8.916,1.878 8.822,1.722 8.731,1.566 Z m -5.616,0.5 C 3.13,2.145 3.159,2.219 3.159,2.302 A 1.23,1.23 0 0 1 2.068,3.522 C 2.063,3.412 1.995,3.326 1.968,3.222 A 5.407,5.407 0 0 1 3.115,2.066 Z M 9.6,2.106 A 5.407,5.407 0 0 1 10.808,3.379 1.213,1.213 0 0 1 10.361,3.523 1.524,1.524 0 0 0 9.474,2.206 C 9.524,2.183 9.554,2.133 9.6,2.106 Z M 3.435,2.35 C 3.995,2.405 4.427,2.84 4.519,3.389 4.03,3.691 3.622,4.109 3.333,4.607 3.208,4.197 2.944,3.846 2.56,3.669 3.063,3.436 3.416,2.935 3.435,2.35 Z m 2.764,0 c 0.4,0.04 0.73,0.28 0.927,0.608 A 3.488,3.488 0 0 0 6.032,2.883 C 6.112,2.715 6.192,2.546 6.199,2.35 Z m 2.765,0 A 1.241,1.241 0 0 1 9.412,4.69 3.5,3.5 0 0 0 8.315,3.478 C 8.679,3.214 8.949,2.828 8.964,2.35 Z M 6.348,3.2 A 3.152,3.15 0 0 1 9.5,6.35 C 9.5,6.114 9.797,5.779 9.73,5.51 L 9.725,5.493 c 0.22,0.224 0.362,0.525 0.362,0.864 0,0.337 -0.146,0.63 -0.365,0.853 C 9.736,7.154 9.752,7.097 9.764,7.04 9.808,6.817 9.5,6.586 9.5,6.35 A 3.152,3.15 0 0 1 6.348,9.5 3.152,3.15 0 0 1 3.196,6.353 C 3.194,6.495 3.093,6.635 3.016,6.773 2.883,6.627 2.741,6.486 2.56,6.402 2.77,6.304 2.937,6.141 3.081,5.962 3.071,5.938 3.07,5.912 3.059,5.887 3.122,6.037 3.195,6.191 3.196,6.347 A 3.152,3.15 0 0 1 6.348,3.2 Z M 3.196,6.347 a 3.152,3.15 0 0 0 0,0.003 3.152,3.15 0 0 0 0,0.003 V 6.35 Z M 1.776,3.503 c 0.002,0.03 0.017,0.056 0.017,0.086 0,0.425 -0.225,0.785 -0.55,1.01 A 5.407,5.407 0 0 1 1.776,3.503 Z m 9.168,0.089 a 5.407,5.407 0 0 1 0.161,0.28 C 11.019,3.806 10.953,3.715 10.854,3.669 10.89,3.652 10.909,3.611 10.944,3.592 Z M 2.053,3.813 A 1.227,1.227 0 0 1 3.153,4.964 3.452,3.452 0 0 0 2.983,5.447 0.437,0.437 0 0 0 2.98,5.639 1.21,1.21 0 0 1 2.065,6.256 1.524,1.524 0 0 0 1.18,4.973 C 1.64,4.763 1.976,4.33 2.053,3.813 Z m 8.293,0 A 1.23,1.23 0 0 1 11.453,5.035 1.23,1.23 0 0 1 10.359,6.255 1.508,1.508 0 0 0 9.575,5.041 L 9.532,4.937 c 0.427,-0.22 0.741,-0.631 0.814,-1.124 z m -4.08,0.88 c -0.242,0 -0.472,0.053 -0.676,0.15 -0.024,0.011 0.006,0.073 0,0.1 0.228,0.577 0.758,1.407 0.758,1.407 0,0 -0.415,-0.098 -0.83,-0.157 A 3.379,3.379 0 0 0 4.948,6.151 C 4.793,6.157 4.689,6.191 4.689,6.267 a 1.568,1.568 0 0 0 0.462,1.114 1.58,1.58 0 0 0 1.728,0.337 1.577,1.577 0 0 0 0,-2.902 A 1.571,1.571 0 0 0 6.265,4.692 Z M 1.058,5.231 c 0.431,0.196 0.735,0.622 0.735,1.126 0,0.51 -0.313,0.939 -0.752,1.131 A 5.407,5.407 0 0 1 0.925,6.404 5.407,5.407 0 0 1 1.058,5.231 Z m 10.579,0.15 a 5.407,5.407 0 0 1 0.102,1.023 5.407,5.407 0 0 1 -0.096,0.998 c -0.116,-0.437 -0.386,-0.814 -0.79,-1 0.41,-0.19 0.672,-0.576 0.784,-1.02 z m -9.58,1.165 c 0.385,0.04 0.7,0.268 0.896,0.58 0.049,0.213 0.117,0.418 0.203,0.614 0,0.01 0.003,0.018 0.003,0.029 A 1.23,1.23 0 0 1 2.063,8.989 1.524,1.524 0 0 0 1.18,7.741 C 1.65,7.525 1.991,7.078 2.057,6.546 Z m 8.294,0 A 1.23,1.23 0 0 1 10.357,8.989 1.52,1.52 0 0 0 9.526,7.773 L 9.565,7.683 C 9.984,7.453 10.289,7.041 10.351,6.546 Z M 9.404,8.018 A 1.243,1.243 0 0 1 8.958,10.364 C 8.915,9.891 8.632,9.506 8.251,9.264 8.731,8.95 9.127,8.522 9.404,8.018 Z M 1.198,8.081 c 0.352,0.22 0.595,0.599 0.595,1.043 0,0.058 -0.024,0.109 -0.032,0.165 A 5.407,5.407 0 0 1 1.198,8.081 Z m 2.15,0.036 C 3.636,8.605 4.04,9.015 4.521,9.312 A 1.232,1.232 0 0 1 3.429,10.364 1.507,1.507 0 0 0 2.56,9.134 C 2.968,8.946 3.236,8.562 3.348,8.117 Z m 7.768,0.8 a 5.407,5.407 0 0 1 -0.17,0.294 C 10.91,9.191 10.89,9.151 10.854,9.135 10.959,9.086 11.025,8.987 11.116,8.916 Z M 2.06,9.28 a 1.23,1.23 0 0 1 1.098,1.222 c 0,0.084 -0.029,0.16 -0.045,0.24 A 5.407,5.407 0 0 1 1.952,9.564 C 1.983,9.466 2.05,9.385 2.06,9.28 Z m 8.294,0 c 0.165,0.018 0.318,0.072 0.457,0.149 a 5.407,5.407 0 0 1 -1.15,1.232 C 9.593,10.616 9.548,10.542 9.473,10.508 9.952,10.288 10.298,9.827 10.353,9.28 Z M 8,9.413 c 0.404,0.201 0.688,0.607 0.688,1.089 0,0.412 -0.215,0.762 -0.528,0.985 A 5.407,5.407 0 0 1 7.565,11.662 C 7.485,11.151 7.165,10.717 6.709,10.508 7.067,10.344 7.304,10.021 7.447,9.652 7.639,9.588 7.824,9.508 8,9.413 Z M 4.767,9.45 c 0.28,0.143 0.58,0.25 0.898,0.313 0.159,0.206 0.26,0.459 0.26,0.739 0,0.547 -0.37,0.992 -0.865,1.15 A 5.407,5.407 0 0 1 4.768,11.579 C 4.665,11.108 4.373,10.704 3.944,10.508 4.369,10.313 4.662,9.916 4.767,9.45 Z m 2.37,0.288 c -0.195,0.34 -0.533,0.587 -0.943,0.626 A 1.382,1.382 0 0 0 5.997,9.813 c 0.116,0.011 0.232,0.019 0.35,0.019 0.273,0 0.537,-0.035 0.79,-0.094 z m -3.709,0.914 c 0.49,0.045 0.89,0.378 1.05,0.824 A 5.407,5.407 0 0 1 3.334,10.9 c 0.025,-0.086 0.085,-0.156 0.094,-0.248 z m 2.765,0 A 1.234,1.234 0 0 1 7.29,11.724 5.407,5.407 0 0 1 6.332,11.811 5.407,5.407 0 0 1 5.483,11.737 C 5.86,11.495 6.146,11.12 6.193,10.652 Z m 2.765,0 c 0.178,0.016 0.34,0.078 0.49,0.163 a 5.407,5.407 0 0 1 -0.716,0.431 c 0.107,-0.182 0.204,-0.374 0.226,-0.594 z"
     id="path2"
     inkscape:connector-curvature="0"
     style="clip-rule:evenodd;fill:#5beedc;fill-rule:evenodd" />
  <path
     d="M 8.67,6.018 C 7.894,6.111 6.935,6.67 6.182,6.516 5.43,6.361 3.362,5.686 3.362,5.686 c 0,0 0.431,0.546 0.166,0.498 C 3.262,6.136 3.386,7.504 3.566,7.81 3.746,8.115 4.028,8.348 4.357,8.34 4.687,8.331 5.664,7.367 7.344,8.174 8.923,8.933 9.472,7.45 9.48,6.861 9.49,6.114 9.448,5.926 8.67,6.018 Z"
     id="path4"
     inkscape:connector-curvature="0"
     style="opacity:0.4;fill:#5beedc" />
</svg>
