<?xml version="1.0" encoding="UTF-8" standalone="no"?>
<svg
   xmlns:dc="http://purl.org/dc/elements/1.1/"
   xmlns:cc="http://creativecommons.org/ns#"
   xmlns:rdf="http://www.w3.org/1999/02/22-rdf-syntax-ns#"
   xmlns:svg="http://www.w3.org/2000/svg"
   xmlns="http://www.w3.org/2000/svg"
   xmlns:sodipodi="http://sodipodi.sourceforge.net/DTD/sodipodi-0.dtd"
   xmlns:inkscape="http://www.inkscape.org/namespaces/inkscape"
   width="48"
   height="48"
   viewBox="0 0 12.7 12.7"
   version="1.1"
   id="svg4"
   sodipodi:docname="autopsy.svg"
   inkscape:version="0.92.5 (2060ec1f9f, 2020-04-08)">
  <metadata
     id="metadata10">
    <rdf:RDF>
      <cc:Work
         rdf:about="">
        <dc:format>image/svg+xml</dc:format>
        <dc:type
           rdf:resource="http://purl.org/dc/dcmitype/StillImage" />
        <dc:title></dc:title>
      </cc:Work>
    </rdf:RDF>
  </metadata>
  <defs
     id="defs8" />
  <sodipodi:namedview
     pagecolor="#ffffff"
     bordercolor="#666666"
     borderopacity="1"
     objecttolerance="10"
     gridtolerance="10"
     guidetolerance="10"
     inkscape:pageopacity="0"
     inkscape:pageshadow="2"
     inkscape:window-width="1085"
     inkscape:window-height="480"
     id="namedview6"
     showgrid="false"
     inkscape:zoom="4.9166667"
     inkscape:cx="2.1355932"
     inkscape:cy="24"
     inkscape:window-x="0"
     inkscape:window-y="25"
     inkscape:window-maximized="0"
     inkscape:current-layer="svg4" />
  <path
     d="M 6.34,0.075 A 6.295,6.295 0 0 0 0.055,6.36 6.295,6.295 0 0 0 6.34,12.655 6.295,6.295 0 0 0 12.634,6.36 6.295,6.295 0 0 0 6.34,0.075 Z m -0.011,0.94 a 5.408,5.408 0 0 1 5.397,5.387 5.407,5.407 0 0 1 -10.814,0 c 0,-2.987 2.43,-5.387 5.417,-5.387 z M 8.866,1.863 8.869,1.866 8.859,1.867 H 8.857 L 8.849,1.871 H 8.846 A 0.042,0.042 0 0 0 8.838,1.876 c 0,0.001 0,-0.012 -0.002,-0.012 L 8.832,1.867 A 0.196,0.196 0 0 0 8.816,1.879 L 8.812,1.882 8.793,1.899 A 1.125,1.125 0 0 0 8.765,1.928 L 8.763,1.929 C 8.717,1.978 8.675,2.029 8.636,2.086 8.466,2.332 8.354,2.675 8.241,3.262 8.201,3.467 8.147,3.707 8.121,3.795 A 2.16,2.16 0 0 1 7.92,4.262 0.086,0.086 0 0 1 7.91,4.273 0.023,0.023 0 0 1 7.902,4.279 2.14,2.14 0 0 1 7.605,4.266 C 7.263,4.238 6.85,4.256 6.325,4.322 L 5.912,4.374 5.868,4.318 C 5.788,4.212 5.665,3.958 5.495,3.544 5.165,2.737 4.928,2.394 4.535,2.148 4.408,2.068 4.152,1.97 4.073,1.97 A 0.07,0.07 0 0 0 4.039,1.978 0.04,0.04 0 0 0 4.03,1.983 0.043,0.043 0 0 0 4.024,1.991 C 4.004,2.023 4.016,2.094 4.061,2.227 4.086,2.303 4.124,2.495 4.145,2.655 4.192,3.012 4.17,3.231 4.048,3.62 3.916,4.04 3.848,4.317 3.834,4.496 3.813,4.761 3.879,4.94 4.227,5.552 c 0.21,0.37 0.241,0.48 0.229,0.83 -0.01,0.272 -0.01,0.275 -0.108,0.44 A 1.394,1.394 0 0 0 4.25,7.013 c 0,0.01 -0.01,0.026 -0.022,0.04 L 4.214,7.067 A 0.06,0.06 0 0 1 4.203,7.075 C 4.175,7.089 4.133,7.079 4.019,7.037 A 1.615,1.615 0 0 0 2.902,7.032 1.5,1.5 0 0 0 2.864,7.047 L 2.828,7.062 A 1.79,1.79 0 0 0 2.651,7.149 1.27,1.27 0 0 0 2.616,7.169 L 2.583,7.19 A 1.334,1.334 0 0 0 2.55,7.212 L 2.524,7.23 2.517,7.235 2.485,7.258 V 7.26 L 2.454,7.283 2.423,7.309 2.406,7.324 2.393,7.334 V 7.335 A 1.71,1.71 0 0 0 2.333,7.389 L 2.305,7.419 A 1.461,1.461 0 0 0 2.277,7.448 1.592,1.592 0 0 0 4.482,9.743 V 9.742 A 1.656,1.656 0 0 0 4.574,9.656 V 9.654 A 2.004,2.004 0 0 0 4.649,9.572 L 4.687,9.528 4.722,9.484 V 9.483 L 4.732,9.471 4.755,9.441 A 0.955,0.955 0 0 0 4.827,9.329 1.004,1.004 0 0 1 4.919,9.189 V 9.188 A 0.128,0.128 0 0 1 4.93,9.177 L 4.939,9.17 c 0.076,-0.03 0.853,0.11 0.978,0.175 0.022,0.011 0.106,0.156 0.186,0.32 0.08,0.165 0.165,0.337 0.188,0.382 0.048,0.096 0.219,0.177 0.44,0.21 0.208,0.03 0.211,0.03 0.4,-0.056 0.1,-0.044 0.247,-0.098 0.328,-0.121 0.158,-0.044 0.196,-0.04 0.52,0.05 0.071,0.02 0.199,0.035 0.285,0.035 a 0.596,0.596 0 0 0 0.266,-0.06 h 0.001 a 1.155,1.155 0 0 0 0.166,-0.1 H 8.698 L 8.744,9.971 H 8.745 C 8.772,9.95 8.801,9.927 8.831,9.901 L 8.845,9.89 A 4.98,4.98 0 0 0 8.899,9.843 H 8.9 L 8.958,9.791 8.997,9.755 C 9.01,9.745 9.021,9.733 9.031,9.723 H 9.032 A 0.491,0.491 0 0 0 9.11,9.636 C 9.18,9.537 9.171,9.456 9.112,9.296 A 7.962,7.962 0 0 1 9.052,9.127 C 9.05,9.12 9.052,9.111 9.056,9.101 A 0.125,0.125 0 0 1 9.072,9.079 L 9.083,9.065 A 0.714,0.714 0 0 1 9.136,9.015 H 9.137 L 9.147,9.006 9.209,8.956 9.218,8.949 9.228,8.941 A 1.943,1.943 0 0 0 9.305,8.879 L 9.338,8.847 9.354,8.832 9.367,8.818 V 8.817 L 9.392,8.789 9.396,8.781 9.411,8.761 A 0.395,0.395 0 0 0 9.443,8.702 L 9.49,8.593 9.755,8.577 C 9.901,8.569 10.163,8.562 10.338,8.562 10.63,8.561 10.712,8.557 10.755,8.519 a 0.061,0.061 0 0 0 0.01,-0.01 V 8.508 l 0.009,-0.01 V 8.497 L 10.782,8.485 10.79,8.471 A 0.979,0.979 0 0 0 10.797,8.456 V 8.455 C 10.864,8.301 10.816,8.004 10.707,7.954 10.669,7.937 10.529,7.941 10.225,7.966 9.936,7.991 9.789,7.995 9.773,7.979 9.757,7.963 9.757,7.922 9.773,7.852 9.813,7.679 9.803,7.317 9.753,7.12 9.686,6.887 9.617,6.76 9.381,6.448 L 9.208,6.221 9.207,6.22 9.18,6.184 V 6.174 6.173 L 9.198,5.985 C 9.228,5.66 9.219,5.396 9.174,5.311 A 0.596,0.596 0 0 1 9.138,5.231 V 5.224 L 9.135,5.217 9.134,5.216 9.135,5.212 9.137,5.207 c 0,-0.003 0.004,-0.008 0.006,-0.013 V 5.193 L 9.165,5.155 9.169,5.146 9.206,5.086 V 5.083 H 9.208 L 9.254,5.009 C 9.424,4.742 9.55,4.476 9.568,4.342 A 0.684,0.684 0 0 0 9.545,4.058 0.808,0.808 0 0 0 9.53,4.009 V 4.008 A 1.666,1.666 0 0 0 9.41,3.738 C 9.19,3.319 9.16,3.248 9.1,3.025 A 5.78,5.78 0 0 1 8.985,2.319 L 8.975,2.229 8.963,2.134 A 2.143,2.143 0 0 0 8.936,1.975 L 8.934,1.962 8.929,1.943 8.921,1.916 C 8.916,1.901 8.911,1.902 8.905,1.893 L 8.903,1.891 A 0.067,0.067 0 0 0 8.887,1.871 H 8.886 8.885 A 0.03,0.03 0 0 0 8.875,1.866 V 1.865 A 0.034,0.034 0 0 0 8.865,1.863 Z m -4.47,0.553 c 0.042,0 0.162,0.157 0.251,0.329 0.11,0.211 0.211,0.532 0.306,0.967 0.038,0.177 0.087,0.349 0.108,0.381 0.03,0.045 0.035,0.092 0.026,0.195 A 9.136,9.136 0 0 0 5.064,4.667 C 5.058,4.8 5.042,4.921 5.028,4.935 4.992,4.972 4.925,4.905 4.845,4.751 A 0.429,0.429 0 0 0 4.761,4.623 c -0.01,0 -0.024,0.03 -0.032,0.065 A 3.241,3.241 0 0 1 4.705,4.792 0.54,0.54 0 0 0 4.742,4.972 1.8,1.8 0 0 1 4.79,5.128 C 4.79,5.197 4.597,5.039 4.501,4.892 4.371,4.692 4.356,4.58 4.366,3.872 4.371,3.517 4.375,3.044 4.375,2.821 c 0,-0.223 0.01,-0.405 0.021,-0.405 z m 4.45,0.446 c 0.012,0 0.041,0.087 0.064,0.193 0.05,0.233 0.13,0.436 0.31,0.793 0.11,0.22 0.137,0.297 0.145,0.415 C 9.377,4.442 9.332,4.587 9.208,4.765 9.158,4.835 9.102,4.897 9.083,4.9 9.034,4.91 8.923,4.774 8.923,4.705 a 0.68,0.68 0 0 1 0.05,-0.18 C 9.056,4.322 9.045,4.089 8.937,3.731 A 1.86,1.86 0 0 1 8.836,3.15 C 8.828,2.972 8.832,2.862 8.846,2.862 Z M 5.015,3.1 c 0.022,0.003 0.151,0.28 0.267,0.577 0.065,0.167 0.156,0.365 0.202,0.442 0.15,0.25 0.16,0.387 0.045,0.613 -0.096,0.19 -0.075,0.22 0.096,0.14 A 0.849,0.849 0 0 0 5.835,4.719 C 5.959,4.589 5.969,4.584 6.207,4.552 6.361,4.532 6.451,4.532 6.57,4.552 6.758,4.584 7.155,4.711 7.177,4.746 7.194,4.773 7.133,4.769 6.739,4.717 6.544,4.691 6.311,4.703 6.205,4.743 6.175,4.754 6.081,4.818 5.993,4.885 5.799,5.035 5.661,5.101 5.618,5.065 5.602,5.052 5.558,5.047 5.521,5.054 5.483,5.061 5.426,5.074 5.391,5.083 5.306,5.104 5.295,5.058 5.34,4.861 5.415,4.529 5.379,4.244 5.201,3.779 5.119,3.564 4.995,3.119 5.013,3.101 h 0.002 z m 2.68,1.37 C 7.885,4.475 8.229,4.538 8.318,4.605 8.34,4.622 8.48,4.778 8.628,4.952 8.803,5.156 8.899,5.289 8.9,5.324 8.9,5.456 8.797,5.532 8.5,5.617 8.084,5.737 8.038,5.721 8.248,5.537 8.363,5.435 8.372,5.421 8.37,5.324 A 0.742,0.742 0 0 0 8.304,5.081 C 8.262,4.99 8.245,4.921 8.254,4.881 8.266,4.829 8.252,4.804 8.18,4.741 8.073,4.647 8.001,4.617 7.766,4.565 A 0.751,0.751 0 0 1 7.573,4.506 C 7.556,4.479 7.61,4.469 7.696,4.471 Z M 5.889,5.213 c 0.044,0 0.132,0.022 0.296,0.068 0.267,0.075 0.495,0.178 0.556,0.25 0.085,0.1 0.26,0.41 0.252,0.448 C 6.979,6.055 6.916,6.034 6.819,5.921 6.68,5.759 6.51,5.637 6.164,5.451 5.993,5.36 5.855,5.271 5.851,5.249 5.846,5.225 5.854,5.213 5.889,5.213 Z m 2.065,0.145 a 0.222,0.222 0 0 1 0.152,0.056 c 0.036,0.033 0.042,0.06 0.03,0.125 A 0.274,0.274 0 0 1 8.091,5.653 0.268,0.268 0 0 1 7.967,5.696 C 7.88,5.708 7.87,5.704 7.823,5.628 7.756,5.518 7.759,5.459 7.837,5.398 A 0.194,0.194 0 0 1 7.954,5.358 Z M 7.073,5.376 C 7.118,5.378 7.162,5.396 7.197,5.431 7.279,5.513 7.28,5.659 7.2,5.711 7.087,5.786 7.033,5.784 6.966,5.704 6.877,5.598 6.864,5.525 6.921,5.449 A 0.18,0.18 0 0 1 7.073,5.376 Z m 1.792,0.375 c 0.084,0 0.14,0.101 0.14,0.25 0,0.18 -0.054,0.24 -0.283,0.319 C 8.485,6.4 8.355,6.4 8.279,6.315 8.242,6.275 8.242,6.266 8.276,6.199 8.32,6.114 8.382,6.144 8.468,6.212 8.615,6.328 8.856,6.171 8.856,5.972 A 0.609,0.609 0 0 0 8.808,5.763 0.132,0.132 0 0 1 8.865,5.751 Z m -1.405,0 C 7.478,5.753 7.498,5.784 7.513,5.839 7.553,5.983 7.543,6.066 7.481,6.125 7.407,6.195 7.232,6.218 7.188,6.165 7.141,6.109 7.17,6.068 7.277,6.036 7.362,6.011 7.375,5.996 7.397,5.909 7.411,5.854 7.427,5.796 7.433,5.78 7.44,5.759 7.449,5.75 7.46,5.751 Z m -1.425,0.01 c 0.042,0 0.08,0.01 0.095,0.028 0.004,0.005 0.004,0.013 0.001,0.021 L 6.028,5.788 C 6.006,5.873 5.907,6.065 6.148,6.306 6.263,6.394 6.507,6.394 6.592,6.289 6.69,6.203 6.676,6.181 6.738,6.259 6.815,6.358 6.801,6.396 6.663,6.456 A 0.642,0.642 0 0 1 5.915,6.308 C 5.799,6.181 5.765,5.893 5.855,5.804 5.879,5.779 5.965,5.76 6.035,5.761 Z M 8.738,5.796 C 8.69,5.871 8.642,5.984 8.618,5.939 8.58,5.868 8.627,5.798 8.712,5.798 c 0.009,0 0.018,0 0.026,-0.002 z M 7.813,5.822 C 7.823,5.82 7.842,5.834 7.858,5.856 7.914,5.931 7.894,6.29 7.829,6.377 7.777,6.447 7.671,6.477 7.643,6.431 7.633,6.416 7.655,6.351 7.69,6.287 A 0.849,0.849 0 0 0 7.775,6.004 0.829,0.829 0 0 1 7.809,5.824 C 7.81,5.822 7.812,5.822 7.813,5.822 Z M 6.155,5.852 C 6.181,5.854 6.215,5.864 6.244,5.879 6.334,5.926 6.34,5.999 6.256,6.038 6.185,6.07 6.132,6.046 6.089,5.961 l 0.066,-0.11 z m 0.322,0.18 c 0.046,0 0.122,0.07 0.122,0.111 0,0.014 -0.017,0.032 -0.038,0.04 C 6.512,6.201 6.517,6.203 6.473,6.154 6.421,6.097 6.423,6.033 6.477,6.033 Z m 2.608,0.358 0.01,0.002 a 0.61,0.61 0 0 1 0.129,0.15 c 0.05,0.075 0.127,0.172 0.168,0.215 0.094,0.098 0.153,0.23 0.19,0.427 0.032,0.168 0.035,0.598 0.005,0.727 -0.019,0.08 -0.021,0.083 -0.152,0.09 L 9.302,8.007 9.277,7.918 A 0.711,0.711 0 0 1 9.252,7.782 0.185,0.185 0 0 0 9.231,7.702 C 9.214,7.677 9.205,7.68 9.184,7.719 9.142,7.799 9.154,7.929 9.229,8.195 L 9.3,8.447 9.253,8.574 A 0.78,0.78 0 0 1 8.915,8.969 0.942,0.942 0 0 1 8.782,9.037 C 8.65,9.025 8.013,8.773 7.965,8.713 7.945,8.688 7.938,8.619 7.942,8.513 L 7.949,8.349 8.094,8.275 C 8.362,8.139 8.652,7.861 8.762,7.635 8.807,7.542 8.809,7.523 8.781,7.383 A 0.71,0.71 0 0 1 8.818,6.967 C 8.831,6.935 8.821,6.928 8.769,6.932 8.67,6.939 8.675,6.885 8.782,6.787 L 8.881,6.697 8.768,6.684 C 8.706,6.677 8.644,6.654 8.629,6.634 8.615,6.614 8.551,6.587 8.489,6.573 8.295,6.529 8.296,6.51 8.492,6.497 8.593,6.49 8.763,6.46 8.869,6.431 8.961,6.406 9.051,6.389 9.085,6.391 Z M 8.012,6.573 c 0.018,0 0.062,0.04 0.098,0.088 0.079,0.108 0.297,0.457 0.296,0.474 0,0.048 -0.059,0.077 -0.19,0.096 C 8.069,7.252 7.987,7.253 7.585,7.236 L 7.385,7.226 7.502,7.181 C 7.567,7.156 7.702,7.115 7.802,7.091 7.901,7.066 7.994,7.039 8.009,7.03 8.035,7.013 8.029,6.878 7.993,6.661 7.983,6.594 7.986,6.573 8.012,6.573 Z M 5.337,6.635 C 5.435,6.637 5.49,6.66 5.694,6.761 5.954,6.891 6.016,6.952 5.916,6.984 5.877,6.997 5.912,7.015 6.074,7.069 6.188,7.108 6.369,7.183 6.477,7.237 6.661,7.33 6.684,7.35 6.894,7.61 7.164,7.944 7.393,8.16 7.586,8.262 L 7.73,8.34 7.721,8.505 C 7.711,8.667 7.709,8.672 7.605,8.766 A 2.916,2.916 0 0 1 6.954,9.144 C 6.705,9.231 6.509,9.155 6.312,8.896 6.087,8.599 6.072,8.535 6.14,8.179 6.178,7.983 6.163,7.929 6.094,8.005 6.07,8.031 6.039,8.052 6.024,8.052 6.01,8.052 5.952,7.976 5.895,7.882 5.746,7.636 5.571,7.407 5.465,7.323 5.395,7.265 5.38,7.243 5.401,7.218 5.416,7.2 5.421,7.175 5.414,7.163 5.391,7.125 5.178,7.108 5.077,7.135 A 0.497,0.497 0 0 0 4.79,7.428 C 4.775,7.476 4.754,7.511 4.744,7.508 A 2.599,2.599 0 0 1 4.554,7.341 L 4.384,7.182 4.438,7.064 A 0.564,0.564 0 0 1 4.743,6.761 1.313,1.313 0 0 1 5.337,6.635 Z M 3.471,7.18 c 0.488,0.011 0.956,0.3 1.173,0.755 0.11,0.23 0.146,0.383 0.146,0.61 0,0.228 -0.037,0.38 -0.146,0.611 -0.167,0.35 -0.495,0.62 -0.875,0.716 -0.174,0.044 -0.5,0.044 -0.667,0 A 1.399,1.399 0 0 1 2.148,8.887 1.713,1.713 0 0 1 2.148,8.205 1.39,1.39 0 0 1 3.133,7.22 C 3.245,7.191 3.359,7.179 3.471,7.181 Z m 1.74,0.215 c 0.158,0 0.374,0.221 0.617,0.631 0.127,0.216 0.188,0.446 0.134,0.51 C 5.946,8.556 5.89,8.569 5.818,8.569 H 5.7 L 5.715,8.494 A 0.282,0.282 0 0 1 5.765,8.381 C 5.795,8.347 5.787,8.331 5.688,8.236 5.556,8.108 5.526,8.091 5.336,8.042 A 3.57,3.57 0 0 1 5.149,7.99 C 5.123,7.98 5.137,8.007 5.186,8.059 5.286,8.165 5.273,8.217 5.147,8.217 5.055,8.217 5.001,8.185 5.001,8.128 5.001,8.11 4.974,8.028 4.941,7.945 L 4.881,7.794 4.934,7.687 C 5.018,7.517 5.135,7.395 5.211,7.395 Z M 5.195,8.593 c 0.073,0 0.09,0.006 0.065,0.023 -0.047,0.03 -0.165,0.03 -0.165,0 0,-0.013 0.045,-0.023 0.1,-0.023 z m 0.603,0.104 c 0.14,0 0.186,0.062 0.323,0.26 0.171,0.246 0.277,0.347 0.427,0.402 0.06,0.022 0.127,0.055 0.148,0.073 C 6.759,9.485 6.991,9.412 7.303,9.242 7.656,9.049 7.77,9.006 7.896,9.021 8,9.033 8.816,9.241 8.876,9.271 8.922,9.295 8.954,9.429 8.936,9.526 8.924,9.588 8.889,9.628 8.767,9.717 A 4.717,4.717 0 0 1 8.484,9.908 L 8.355,9.987 8.152,9.957 A 0.89,0.89 0 0 1 7.927,9.907 C 7.913,9.893 7.926,9.862 7.96,9.826 7.99,9.793 8.01,9.761 8.002,9.753 7.963,9.714 7.463,9.86 7.098,10.016 c -0.132,0.057 -0.26,0.102 -0.282,0.1 A 0.632,0.632 0 0 1 6.385,9.881 0.964,0.964 0 0 1 6.294,9.686 2.155,2.155 0 0 0 6.094,9.266 C 6.036,9.185 5.819,8.968 5.795,8.968 5.782,8.968 5.78,8.999 5.788,9.038 5.807,9.123 5.807,9.123 5.506,9.073 A 2.626,2.626 0 0 0 5.197,9.039 C 5.062,9.038 5.025,9.019 5.025,8.952 5.025,8.86 5.067,8.807 5.149,8.794 L 5.531,8.731 C 5.651,8.711 5.734,8.698 5.798,8.697 Z M 7.99,9.321 A 0.975,0.975 0 0 0 7.608,9.39 C 7.498,9.446 7.397,9.527 7.397,9.56 7.397,9.585 7.414,9.584 7.47,9.553 7.496,9.54 7.634,9.527 7.776,9.524 8.029,9.52 8.036,9.518 8.086,9.455 8.116,9.42 8.154,9.391 8.173,9.39 8.198,9.39 8.194,9.38 8.16,9.353 8.133,9.332 8.068,9.321 7.99,9.321 Z"
     id="path2"
     inkscape:connector-curvature="0"
     style="fill:#5beedc" />
</svg>
