<?xml version="1.0" encoding="UTF-8" standalone="no"?>
<svg
   xmlns:dc="http://purl.org/dc/elements/1.1/"
   xmlns:cc="http://creativecommons.org/ns#"
   xmlns:rdf="http://www.w3.org/1999/02/22-rdf-syntax-ns#"
   xmlns:svg="http://www.w3.org/2000/svg"
   xmlns="http://www.w3.org/2000/svg"
   xmlns:sodipodi="http://sodipodi.sourceforge.net/DTD/sodipodi-0.dtd"
   xmlns:inkscape="http://www.inkscape.org/namespaces/inkscape"
   width="48"
   height="48"
   viewBox="0 0 12.7 12.7"
   version="1.1"
   id="svg4"
   sodipodi:docname="beef-xss.svg"
   inkscape:version="0.92.5 (2060ec1f9f, 2020-04-08)">
  <metadata
     id="metadata10">
    <rdf:RDF>
      <cc:Work
         rdf:about="">
        <dc:format>image/svg+xml</dc:format>
        <dc:type
           rdf:resource="http://purl.org/dc/dcmitype/StillImage" />
        <dc:title></dc:title>
      </cc:Work>
    </rdf:RDF>
  </metadata>
  <defs
     id="defs8" />
  <sodipodi:namedview
     pagecolor="#ffffff"
     bordercolor="#666666"
     borderopacity="1"
     objecttolerance="10"
     gridtolerance="10"
     guidetolerance="10"
     inkscape:pageopacity="0"
     inkscape:pageshadow="2"
     inkscape:window-width="1085"
     inkscape:window-height="480"
     id="namedview6"
     showgrid="false"
     inkscape:zoom="4.9166667"
     inkscape:cx="2.1355932"
     inkscape:cy="24"
     inkscape:window-x="0"
     inkscape:window-y="25"
     inkscape:window-maximized="0"
     inkscape:current-layer="svg4" />
  <path
     d="M 6.34,0.075 A 6.295,6.295 0 0 0 0.055,6.36 6.295,6.295 0 0 0 6.34,12.655 6.295,6.295 0 0 0 12.634,6.36 6.295,6.295 0 0 0 6.34,0.075 Z m -0.011,0.94 a 5.408,5.408 0 0 1 5.397,5.387 5.407,5.407 0 0 1 -10.814,0 c 0,-2.987 2.43,-5.387 5.417,-5.387 z m 0.54,0.39 c -0.033,0 -0.1,0.313 -0.1,0.468 0,0.478 0.266,0.918 0.983,1.625 0.463,0.457 0.565,0.581 0.565,0.694 0,0.192 -0.226,0.277 -0.937,0.353 C 6.696,4.619 6.4,4.67 6.072,4.77 5.395,4.975 5.066,5.21 4.351,5.998 4.151,6.218 4.14,6.225 4.021,6.225 3.91,6.225 3.887,6.212 3.76,6.079 A 3.131,3.131 0 0 1 3.403,5.544 C 3.135,5.064 2.989,4.873 2.804,4.768 2.677,4.695 2.487,4.635 2.462,4.661 A 0.83,0.83 0 0 0 2.508,4.849 C 2.544,4.966 2.577,5.202 2.602,5.536 2.677,6.503 2.74,6.709 3.047,7 3.233,7.176 3.389,7.264 3.8,7.426 4.032,7.517 4.09,7.552 4.098,7.6 4.103,7.632 4.055,7.794 3.991,7.959 L 3.877,8.258 3.755,8.288 A 0.586,0.586 0 0 0 3.547,8.398 C 3.469,8.467 3.459,8.493 3.459,8.622 c 0,0.13 0.009,0.153 0.088,0.219 0.109,0.09 0.109,0.12 0.004,0.226 -0.142,0.14 -0.2,0.288 -0.214,0.532 -0.014,0.26 0.018,0.398 0.132,0.57 0.115,0.173 0.265,0.268 0.542,0.342 0.15,0.04 0.298,0.103 0.405,0.173 0.093,0.06 0.206,0.124 0.251,0.142 l 0.138,0.056 c 0.03,0.013 0.092,0.029 0.138,0.035 0.198,0.03 0.439,-0.012 0.633,-0.108 0.192,-0.095 0.269,-0.15 0.653,-0.47 C 6.658,9.983 7.083,9.741 7.577,9.571 8.139,9.378 8.354,9.241 8.609,8.915 9.019,8.391 9.099,7.909 8.881,7.271 8.681,6.691 8.757,6.567 9.584,6.111 9.994,5.884 10.287,5.607 10.381,5.357 10.434,5.213 10.441,5.151 10.433,4.875 10.423,4.562 10.423,4.555 10.294,4.296 10.029,3.757 9.724,3.497 8.702,2.932 7.704,2.381 7.302,2.057 6.954,1.522 A 0.823,0.823 0 0 0 6.869,1.405 Z m 0.018,0.276 c 0.027,-0.007 0.075,0.044 0.149,0.151 0.24,0.35 0.57,0.598 1.639,1.233 0.789,0.47 1.093,0.716 1.323,1.071 0.156,0.241 0.288,0.7 0.206,0.714 C 10.188,4.853 10.139,4.782 10.094,4.692 9.884,4.28 9.544,3.946 8.971,3.592 8.711,3.431 8.139,3.112 8.111,3.112 c -0.01,0 0.133,0.145 0.316,0.322 0.686,0.66 0.89,1.016 0.747,1.297 C 9.076,4.922 8.844,5.059 8.413,5.182 8.292,5.217 7.97,5.321 7.697,5.414 7.425,5.507 7.158,5.602 7.105,5.625 6.975,5.681 6.94,5.662 6.94,5.537 6.94,5.301 7.114,4.91 7.267,4.803 7.305,4.776 7.48,4.739 7.72,4.708 8.37,4.624 8.565,4.531 8.564,4.306 8.563,4.096 8.477,3.977 7.939,3.443 7.336,2.843 7.136,2.603 6.987,2.293 A 1.01,1.01 0 0 1 6.863,1.873 C 6.854,1.75 6.861,1.687 6.887,1.681 Z M 2.642,4.792 c 0.033,-0.008 0.105,0.04 0.2,0.14 0.165,0.17 0.321,0.411 0.534,0.823 C 3.645,6.276 3.831,6.426 4.126,6.36 4.193,6.345 4.254,6.339 4.261,6.346 A 0.673,0.673 0 0 1 4.225,6.543 C 4.162,6.774 4.109,6.814 3.885,6.798 3.619,6.778 3.47,6.63 3.188,6.105 L 3.042,5.833 3.033,5.964 C 3.022,6.145 3.1,6.619 3.167,6.769 c 0.03,0.068 0.054,0.128 0.054,0.134 0,0.006 -0.017,0.01 -0.039,0.01 -0.1,0 -0.308,-0.365 -0.386,-0.675 A 8.173,8.173 0 0 1 2.7,5.508 C 2.669,5.198 2.636,4.91 2.626,4.868 2.616,4.822 2.622,4.798 2.642,4.792 Z m 4.397,0.01 C 7.099,4.811 7.071,4.858 7.009,4.952 6.88,5.147 6.823,5.361 6.823,5.65 V 5.916 L 6.668,5.973 C 6.284,6.114 5.977,6.366 5.648,6.81 5.268,7.327 4.667,8.273 4.693,8.315 c 0.009,0.014 0.08,0.033 0.16,0.043 0.361,0.045 0.648,0.228 0.806,0.515 0.067,0.12 0.081,0.18 0.082,0.332 0,0.258 -0.041,0.285 -0.137,0.09 A 1.335,1.335 0 0 0 5.057,8.759 C 4.913,8.689 4.842,8.672 4.612,8.659 A 2.722,2.722 0 0 0 4.117,8.676 C 3.662,8.744 3.671,8.743 3.635,8.676 3.562,8.54 3.662,8.429 3.895,8.389 4.085,8.357 4.098,8.347 4.146,8.199 4.172,8.121 4.241,7.942 4.301,7.802 4.483,7.372 4.525,7.036 4.417,6.866 4.36,6.776 4.368,6.696 4.463,6.428 4.606,6.023 4.79,5.778 5.201,5.448 5.537,5.179 5.979,4.991 6.547,4.878 6.833,4.82 6.979,4.792 7.039,4.801 Z M 6.575,6.404 6.648,6.471 C 6.738,6.555 6.788,6.712 6.763,6.842 6.739,6.969 6.601,7.127 6.458,7.192 6.295,7.266 5.893,7.251 5.893,7.171 5.893,7.16 5.989,7.051 6.107,6.928 6.224,6.806 6.377,6.638 6.447,6.555 Z M 3.952,9.118 C 4.008,9.11 4.002,9.168 3.937,9.296 3.872,9.424 3.865,9.636 3.923,9.749 4.022,9.94 4.422,10.005 4.701,9.875 4.931,9.768 5.021,9.554 4.945,9.299 4.883,9.095 4.979,9.102 5.161,9.315 5.471,9.678 5.267,10.117 4.719,10.259 4.423,10.336 4.044,10.305 3.812,10.184 3.417,9.978 3.402,9.462 3.782,9.206 a 0.53,0.53 0 0 1 0.17,-0.088 z"
     id="path2"
     inkscape:connector-curvature="0"
     style="fill:#5beedc" />
</svg>
