<?xml version="1.0" encoding="UTF-8" standalone="no"?>
<svg
   xmlns:dc="http://purl.org/dc/elements/1.1/"
   xmlns:cc="http://creativecommons.org/ns#"
   xmlns:rdf="http://www.w3.org/1999/02/22-rdf-syntax-ns#"
   xmlns:svg="http://www.w3.org/2000/svg"
   xmlns="http://www.w3.org/2000/svg"
   xmlns:sodipodi="http://sodipodi.sourceforge.net/DTD/sodipodi-0.dtd"
   xmlns:inkscape="http://www.inkscape.org/namespaces/inkscape"
   width="48"
   height="48"
   viewBox="0 0 12.7 12.7"
   version="1.1"
   id="svg4"
   sodipodi:docname="blender.svg"
   inkscape:version="0.92.5 (2060ec1f9f, 2020-04-08)">
  <defs
     id="defs8">
  <style
     id="current-color-scheme"
     type="text/css">
      .ColorScheme-Highlight {
        color:#5beedc;
      }
  </style>
  </defs>
  <path
     class="ColorScheme-Highlight"
     style="fill:#5beedc"
     d="M 24 0 A 24 24 0 0 0 0 24 A 24 24 0 0 0 24 48 A 24 24 0 0 0 48 24 A 24 24 0 0 0 24 0 z M 24 3 A 21 21 0 0 1 45 24 A 21 21 0 0 1 24 45 A 21 21 0 0 1 3 24 A 21 21 0 0 1 24 3 z M 24.099609 8.2695312 C 23.588371 8.2695312 23.077284 8.4656847 22.685547 8.8574219 C 21.902073 9.6408961 21.902073 10.902073 22.685547 11.685547 L 27 16 L 25 16 L 23.5 16 L 11 16 C 9.8920001 16 9 16.892 9 18 C 9 19.108 9.8920001 20 11 20 L 18.34375 20 L 8.8574219 29.484375 C 8.0739476 30.267849 8.0739476 31.530979 8.8574219 32.314453 C 9.6408961 33.097927 10.902073 33.097927 11.685547 32.314453 L 17 27 A 11 11 0 0 0 28 38 A 11 11 0 0 0 39 27 A 11 11 0 0 0 35.726562 19.177734 C 35.640551 19.029001 35.54159 18.88534 35.414062 18.757812 L 25.515625 8.8574219 C 25.123888 8.4656847 24.610848 8.2695312 24.099609 8.2695312 z M 28 20 A 6.9999998 6.9999998 0 0 1 35 27 A 6.9999998 6.9999998 0 0 1 28 34 A 6.9999998 6.9999998 0 0 1 21 27 A 6.9999998 6.9999998 0 0 1 28 20 z M 28 24 A 3 3 0 0 0 25 27 A 3 3 0 0 0 28 30 A 3 3 0 0 0 31 27 A 3 3 0 0 0 28 24 z "
     transform="scale(0.26458333)"
     id="path852" />
</svg>
