<?xml version="1.0" encoding="UTF-8" standalone="no"?>
<svg
   xmlns:dc="http://purl.org/dc/elements/1.1/"
   xmlns:cc="http://creativecommons.org/ns#"
   xmlns:rdf="http://www.w3.org/1999/02/22-rdf-syntax-ns#"
   xmlns:svg="http://www.w3.org/2000/svg"
   xmlns="http://www.w3.org/2000/svg"
   xmlns:sodipodi="http://sodipodi.sourceforge.net/DTD/sodipodi-0.dtd"
   xmlns:inkscape="http://www.inkscape.org/namespaces/inkscape"
   width="48"
   height="48"
   viewBox="0 0 12.7 12.7"
   version="1.1"
   id="svg12"
   sodipodi:docname="blinken.svg"
   inkscape:version="0.92.4 (5da689c313, 2019-01-14)">
  <metadata
     id="metadata18">
    <rdf:RDF>
      <cc:Work
         rdf:about="">
        <dc:format>image/svg+xml</dc:format>
        <dc:type
           rdf:resource="http://purl.org/dc/dcmitype/StillImage" />
        <dc:title></dc:title>
      </cc:Work>
    </rdf:RDF>
  </metadata>
  <defs
     id="defs16" />
  <sodipodi:namedview
     pagecolor="#ffffff"
     bordercolor="#666666"
     borderopacity="1"
     objecttolerance="10"
     gridtolerance="10"
     guidetolerance="10"
     inkscape:pageopacity="0"
     inkscape:pageshadow="2"
     inkscape:window-width="1112"
     inkscape:window-height="480"
     id="namedview14"
     showgrid="false"
     inkscape:zoom="4.9166667"
     inkscape:cx="2.1355932"
     inkscape:cy="24"
     inkscape:window-x="0"
     inkscape:window-y="25"
     inkscape:window-maximized="0"
     inkscape:current-layer="svg12" />
  <path
     d="m 6.34,0.07 a 6.29,6.29 0 1 0 0,12.58 6.29,6.29 0 0 0 0,-12.58 z M 6.32,1 A 5.417,5.417 0 0 1 11.73,6.41 5.4,5.4 0 0 1 6.33,11.82 5.4,5.4 0 0 1 0.92,6.42 5.4,5.4 0 0 1 6.32,1 Z"
     id="path2"
     inkscape:connector-curvature="0"
     style="fill:#5beedc" />
  <path
     d="M 6.35,1.904 A 4.488,4.488 0 0 0 1.852,6.402 H 4.326 A 2.024,2.024 0 0 1 4.336,6.2 2.024,2.024 0 0 1 4.366,6 2.024,2.024 0 0 1 4.416,5.804 2.024,2.024 0 0 1 4.486,5.614 2.024,2.024 0 0 1 4.574,5.431 2.024,2.024 0 0 1 4.679,5.259 2.024,2.024 0 0 1 4.802,5.098 2.024,2.024 0 0 1 4.94,4.95 2.024,2.024 0 0 1 5.092,4.816 2.024,2.024 0 0 1 5.257,4.698 2.024,2.024 0 0 1 5.432,4.598 2.024,2.024 0 0 1 5.617,4.515 2.024,2.024 0 0 1 5.808,4.451 2.024,2.024 0 0 1 6.006,4.407 2.024,2.024 0 0 1 6.206,4.383 2.024,2.024 0 0 1 6.35,4.378 Z"
     id="path4"
     inkscape:connector-curvature="0"
     style="opacity:0.75;fill:#c8ab37" />
  <path
     d="m 6.35,1.904 v 2.474 a 2.024,2.024 0 0 1 0.202,0.01 2.024,2.024 0 0 1 0.2,0.03 2.024,2.024 0 0 1 0.196,0.05 2.024,2.024 0 0 1 0.19,0.07 2.024,2.024 0 0 1 0.182,0.088 2.024,2.024 0 0 1 0.173,0.105 2.024,2.024 0 0 1 0.16,0.123 2.024,2.024 0 0 1 0.15,0.137 2.024,2.024 0 0 1 0.132,0.153 2.024,2.024 0 0 1 0.118,0.164 2.024,2.024 0 0 1 0.101,0.176 2.024,2.024 0 0 1 0.083,0.184 2.024,2.024 0 0 1 0.063,0.193 2.024,2.024 0 0 1 0.045,0.197 2.024,2.024 0 0 1 0.024,0.2 2.024,2.024 0 0 1 0.005,0.144 h 2.474 A 4.488,4.488 0 0 0 6.35,1.904 Z"
     id="path6"
     inkscape:connector-curvature="0"
     style="opacity:0.75;fill:#d40000" />
  <path
     d="M 6.35,8.426 V 10.9 A 4.488,4.488 0 0 0 10.848,6.402 H 8.374 A 2.024,2.024 0 0 1 8.364,6.604 2.024,2.024 0 0 1 8.334,6.804 2.024,2.024 0 0 1 8.284,7 2.024,2.024 0 0 1 8.214,7.19 2.024,2.024 0 0 1 8.126,7.372 2.024,2.024 0 0 1 8.021,7.545 2.024,2.024 0 0 1 7.898,7.706 2.024,2.024 0 0 1 7.76,7.854 2.024,2.024 0 0 1 7.608,7.987 2.024,2.024 0 0 1 7.443,8.105 2.024,2.024 0 0 1 7.268,8.205 2.024,2.024 0 0 1 7.083,8.288 2.024,2.024 0 0 1 6.892,8.352 2.024,2.024 0 0 1 6.694,8.396 2.024,2.024 0 0 1 6.494,8.421 2.024,2.024 0 0 1 6.35,8.426 Z"
     id="path8"
     inkscape:connector-curvature="0"
     style="opacity:0.75;fill:#008000" />
  <path
     d="M 4.326,6.402 H 1.852 A 4.488,4.488 0 0 0 6.35,10.9 V 8.426 A 2.024,2.024 0 0 1 6.148,8.416 2.024,2.024 0 0 1 5.948,8.386 2.024,2.024 0 0 1 5.752,8.336 2.024,2.024 0 0 1 5.562,8.266 2.024,2.024 0 0 1 5.38,8.178 2.024,2.024 0 0 1 5.207,8.072 2.024,2.024 0 0 1 5.047,7.95 2.024,2.024 0 0 1 4.897,7.812 2.024,2.024 0 0 1 4.765,7.66 2.024,2.024 0 0 1 4.647,7.496 2.024,2.024 0 0 1 4.546,7.32 2.024,2.024 0 0 1 4.463,7.135 2.024,2.024 0 0 1 4.4,6.943 2.024,2.024 0 0 1 4.355,6.746 2.024,2.024 0 0 1 4.331,6.545 2.024,2.024 0 0 1 4.326,6.402 Z"
     id="path10"
     inkscape:connector-curvature="0"
     style="opacity:0.75;fill:#008080" />
</svg>
