<?xml version="1.0" encoding="UTF-8" standalone="no"?>
<svg
   xmlns:dc="http://purl.org/dc/elements/1.1/"
   xmlns:cc="http://creativecommons.org/ns#"
   xmlns:rdf="http://www.w3.org/1999/02/22-rdf-syntax-ns#"
   xmlns:svg="http://www.w3.org/2000/svg"
   xmlns="http://www.w3.org/2000/svg"
   xmlns:sodipodi="http://sodipodi.sourceforge.net/DTD/sodipodi-0.dtd"
   xmlns:inkscape="http://www.inkscape.org/namespaces/inkscape"
   width="48"
   height="48"
   viewBox="0 0 12.7 12.7"
   version="1.1"
   id="svg21"
   sodipodi:docname="bovo.svg"
   inkscape:version="0.92.4 (5da689c313, 2019-01-14)">
  <metadata
     id="metadata25">
    <rdf:RDF>
      <cc:Work
         rdf:about="">
        <dc:format>image/svg+xml</dc:format>
        <dc:type
           rdf:resource="http://purl.org/dc/dcmitype/StillImage" />
        <dc:title></dc:title>
      </cc:Work>
    </rdf:RDF>
  </metadata>
  <sodipodi:namedview
     pagecolor="#ffffff"
     bordercolor="#666666"
     borderopacity="1"
     objecttolerance="10"
     gridtolerance="10"
     guidetolerance="10"
     inkscape:pageopacity="0"
     inkscape:pageshadow="2"
     inkscape:window-width="1087"
     inkscape:window-height="480"
     id="namedview23"
     showgrid="false"
     inkscape:zoom="4.9166667"
     inkscape:cx="2.1355932"
     inkscape:cy="24"
     inkscape:window-x="0"
     inkscape:window-y="25"
     inkscape:window-maximized="0"
     inkscape:current-layer="svg21" />
  <defs
     id="defs17">
    <linearGradient
       id="a">
      <stop
         offset="0"
         stop-color="#000019"
         id="stop2" />
      <stop
         offset="1"
         stop-color="#000019"
         stop-opacity=".29"
         id="stop4" />
    </linearGradient>
    <linearGradient
       id="b">
      <stop
         offset="0"
         stop-color="#1f93b9"
         id="stop7" />
      <stop
         offset="1"
         stop-color="#1a5c9b"
         id="stop9" />
    </linearGradient>
    <linearGradient
       id="c">
      <stop
         offset="0"
         stop-color="#dc2b41"
         id="stop12" />
      <stop
         offset="1"
         stop-color="#c61423"
         id="stop14" />
    </linearGradient>
  </defs>
  <path
     d="M 6.34,0.07 A 6.29,6.29 0 0 0 0.05,6.37 6.29,6.29 0 0 0 6.35,12.65 6.29,6.29 0 0 0 12.63,6.36 6.29,6.29 0 0 0 6.34,0.07 Z M 6.33,1.01 A 5.4,5.4 0 0 1 8.21,1.35 V 4.4 H 4.58 V 1.3 A 5.4,5.4 0 0 1 6.33,1.01 Z M 4.31,1.41 V 4.4 h -3 a 5.4,5.4 0 0 1 3,-3 z m 0.85,0 L 4.97,1.6 6.19,2.8 4.97,4.03 5.16,4.22 6.37,3 7.6,4.22 7.79,4.02 6.57,2.82 7.78,1.6 7.59,1.4 6.37,2.63 5.16,1.4 Z M 8.48,1.46 A 5.4,5.4 0 0 1 11.34,4.4 H 8.48 Z M 1.21,4.68 h 3.1 V 8.02 H 1.17 A 5.4,5.4 0 0 1 0.92,6.42 5.4,5.4 0 0 1 1.22,4.68 Z m 3.37,0 H 8.21 V 8.02 H 4.58 Z m 3.9,0 h 2.96 a 5.4,5.4 0 0 1 0.3,1.74 5.4,5.4 0 0 1 -0.25,1.6 h -3 V 4.68 Z M 10.1,4.89 A 1.46,1.46 0 0 0 8.65,6.35 1.46,1.46 0 0 0 10.1,7.81 1.46,1.46 0 0 0 11.56,6.35 1.46,1.46 0 0 0 10.1,4.89 Z M 5.18,4.94 5,5.13 6.22,6.35 5,7.56 5.2,7.75 6.4,6.53 7.62,7.75 7.82,7.56 6.59,6.35 7.8,5.13 7.61,4.94 6.4,6.16 Z m 4.92,0.22 a 1.2,1.2 0 0 1 1.2,1.19 1.2,1.2 0 0 1 -1.2,1.2 1.2,1.2 0 0 1 -1.19,-1.2 1.2,1.2 0 0 1 1.2,-1.2 z M 1.26,8.3 h 3.05 v 3.13 A 5.4,5.4 0 0 1 1.26,8.3 Z m 3.32,0 h 3.63 v 3.18 a 5.4,5.4 0 0 1 -1.88,0.34 5.4,5.4 0 0 1 -1.75,-0.3 z m 3.9,0 h 2.9 a 5.4,5.4 0 0 1 -2.9,3.07 z M 6.4,8.6 A 1.46,1.46 0 0 0 4.94,10.05 1.46,1.46 0 0 0 6.4,11.51 1.46,1.46 0 0 0 7.85,10.05 1.46,1.46 0 0 0 6.4,8.6 Z m 0,0.26 a 1.2,1.2 0 0 1 1.19,1.2 1.2,1.2 0 0 1 -1.2,1.18 A 1.2,1.2 0 0 1 5.21,10.05 1.2,1.2 0 0 1 6.4,8.86 Z"
     id="path19"
     inkscape:connector-curvature="0"
     style="fill:#5beedc" />
</svg>
