<?xml version="1.0" encoding="UTF-8" standalone="no"?>
<svg
   xmlns:dc="http://purl.org/dc/elements/1.1/"
   xmlns:cc="http://creativecommons.org/ns#"
   xmlns:rdf="http://www.w3.org/1999/02/22-rdf-syntax-ns#"
   xmlns:svg="http://www.w3.org/2000/svg"
   xmlns="http://www.w3.org/2000/svg"
   xmlns:sodipodi="http://sodipodi.sourceforge.net/DTD/sodipodi-0.dtd"
   xmlns:inkscape="http://www.inkscape.org/namespaces/inkscape"
   width="48"
   height="48"
   viewBox="0 0 12.7 12.7"
   version="1.1"
   id="svg4"
   sodipodi:docname="system-config-boot.svg"
   inkscape:version="0.92.5 (2060ec1f9f, 2020-04-08)">
  <defs
     id="defs8">
  <style
     id="current-color-scheme"
     type="text/css">
      .ColorScheme-Highlight {
        color:#5beedc;
      }
  </style>
  </defs>
  <path
     class="ColorScheme-Highlight"
     style="fill:#5beedc"
     d="M 24 0 A 24 24 0 0 0 0 24 A 24 24 0 0 0 24 48 A 24 24 0 0 0 48 24 A 24 24 0 0 0 24 0 z M 24 3 A 21 21 0 0 1 45 24 A 21 21 0 0 1 24 45 A 21 21 0 0 1 3 24 A 21 21 0 0 1 24 3 z M 24 6 A 17.999999 17.999999 0 0 0 21.980469 6.1347656 L 21.240234 11.3125 A 13 13 0 0 0 16.966797 13.068359 L 12.794922 9.9394531 A 17.999999 17.999999 0 0 0 11.271484 11.271484 A 17.999999 17.999999 0 0 0 9.9316406 12.785156 L 13.076172 16.978516 A 13 13 0 0 0 11.304688 21.242188 L 6.1347656 21.980469 A 17.999999 17.999999 0 0 0 6 24 A 17.999999 17.999999 0 0 0 6.1230469 26.017578 L 11.3125 26.759766 A 13 13 0 0 0 13.068359 31.033203 L 9.9394531 35.205078 A 17.999999 17.999999 0 0 0 11.271484 36.728516 A 17.999999 17.999999 0 0 0 12.785156 38.068359 L 16.978516 34.923828 A 13 13 0 0 0 21.242188 36.695312 L 21.980469 41.865234 A 17.999999 17.999999 0 0 0 24 42 A 17.999999 17.999999 0 0 0 26.017578 41.876953 L 26.759766 36.6875 A 13 13 0 0 0 31.033203 34.933594 L 35.214844 38.068359 A 17.999999 17.999999 0 0 0 36.728516 36.728516 A 17.999999 17.999999 0 0 0 38.060547 35.205078 L 34.923828 31.021484 A 13 13 0 0 0 36.695312 26.757812 L 41.876953 26.017578 A 17.999999 17.999999 0 0 0 42 24 A 17.999999 17.999999 0 0 0 41.865234 21.980469 L 36.6875 21.240234 A 13 13 0 0 0 34.933594 16.966797 L 38.068359 12.785156 A 17.999999 17.999999 0 0 0 36.728516 11.271484 A 17.999999 17.999999 0 0 0 35.205078 9.9394531 L 31.021484 13.076172 A 13 13 0 0 0 26.757812 11.304688 L 26.017578 6.1230469 A 17.999999 17.999999 0 0 0 24 6 z M 24 14 A 10.000006 10.000006 0 0 1 33.328125 20.410156 L 37 25 L 36 25 L 33.939453 25 A 10.000006 10.000006 0 0 1 24 34 A 10.000006 10.000006 0 0 1 14.671875 27.589844 L 11 23 L 12 23 L 14.060547 23 A 10.000006 10.000006 0 0 1 24 14 z M 24 16 A 7.999999 7.999999 0 0 0 16.070312 23 L 18 23 L 19 23 L 16.355469 26.304688 A 7.999999 7.999999 0 0 0 24 32 A 7.999999 7.999999 0 0 0 31.929688 25 L 30 25 L 29 25 L 31.644531 21.695312 A 7.999999 7.999999 0 0 0 24 16 z "
     transform="scale(0.26458333)"
     id="path838" />
</svg>
