<?xml version="1.0" encoding="UTF-8" standalone="no"?>
<svg
   xmlns:dc="http://purl.org/dc/elements/1.1/"
   xmlns:cc="http://creativecommons.org/ns#"
   xmlns:rdf="http://www.w3.org/1999/02/22-rdf-syntax-ns#"
   xmlns:svg="http://www.w3.org/2000/svg"
   xmlns="http://www.w3.org/2000/svg"
   xmlns:sodipodi="http://sodipodi.sourceforge.net/DTD/sodipodi-0.dtd"
   xmlns:inkscape="http://www.inkscape.org/namespaces/inkscape"
   width="48"
   height="48"
   viewBox="0 0 12.7 12.7"
   version="1.1"
   id="svg6"
   sodipodi:docname="burp.svg"
   inkscape:version="0.92.5 (2060ec1f9f, 2020-04-08)">
  <metadata
     id="metadata12">
    <rdf:RDF>
      <cc:Work
         rdf:about="">
        <dc:format>image/svg+xml</dc:format>
        <dc:type
           rdf:resource="http://purl.org/dc/dcmitype/StillImage" />
        <dc:title></dc:title>
      </cc:Work>
    </rdf:RDF>
  </metadata>
  <defs
     id="defs10" />
  <sodipodi:namedview
     pagecolor="#ffffff"
     bordercolor="#666666"
     borderopacity="1"
     objecttolerance="10"
     gridtolerance="10"
     guidetolerance="10"
     inkscape:pageopacity="0"
     inkscape:pageshadow="2"
     inkscape:window-width="1085"
     inkscape:window-height="480"
     id="namedview8"
     showgrid="false"
     inkscape:zoom="4.9166667"
     inkscape:cx="2.1355932"
     inkscape:cy="24"
     inkscape:window-x="0"
     inkscape:window-y="25"
     inkscape:window-maximized="0"
     inkscape:current-layer="svg6" />
  <path
     d="M 6.34,0.075 A 6.295,6.295 0 0 0 0.055,6.36 6.295,6.295 0 0 0 6.34,12.655 6.295,6.295 0 0 0 12.634,6.36 6.295,6.295 0 0 0 6.34,0.075 Z m -0.011,0.94 a 5.408,5.408 0 0 1 5.397,5.387 5.407,5.407 0 0 1 -10.814,0 c 0,-2.987 2.43,-5.387 5.417,-5.387 z M 6.088,1.861 A 4.498,4.498 0 0 0 1.852,6.35 4.498,4.498 0 0 0 6.266,10.844 V 9.245 a 0.177,0.177 0 0 1 0,-0.01 0.177,0.177 0 0 1 0,-0.017 A 0.177,0.177 0 0 1 6.268,9.2 0.177,0.177 0 0 1 6.272,9.182 0.177,0.177 0 0 1 6.277,9.166 0.177,0.177 0 0 1 6.281,9.156 0.177,0.177 0 0 1 6.29,9.139 0.177,0.177 0 0 1 6.299,9.125 0.177,0.177 0 0 1 6.31,9.111 0.177,0.177 0 0 1 6.322,9.098 0.177,0.177 0 0 1 6.336,9.087 L 8.207,7.405 H 6.382 a 0.177,0.177 0 0 1 -10e-4,0 0.177,0.177 0 0 1 -0.018,0.002 0.177,0.177 0 0 1 -0.017,0 A 0.177,0.177 0 0 1 6.328,7.406 0.177,0.177 0 0 1 6.311,7.402 0.177,0.177 0 0 1 6.303,7.4 0.177,0.177 0 0 1 6.294,7.397 0.177,0.177 0 0 1 6.277,7.392 0.177,0.177 0 0 1 6.261,7.384 0.177,0.177 0 0 1 6.246,7.375 0.177,0.177 0 0 1 6.232,7.365 0.177,0.177 0 0 1 6.219,7.353 0.177,0.177 0 0 1 6.207,7.339 0.177,0.177 0 0 1 6.197,7.325 0.177,0.177 0 0 1 6.187,7.31 0.177,0.177 0 0 1 6.18,7.294 0.177,0.177 0 0 1 6.174,7.277 0.177,0.177 0 0 1 6.17,7.26 0.177,0.177 0 0 1 6.168,7.242 a 0.177,0.177 0 0 1 0,-0.018 0.177,0.177 0 0 1 0,-0.017 A 0.177,0.177 0 0 1 6.172,7.189 0.177,0.177 0 0 1 6.176,7.172 V 5.653 H 4.078 A 0.177,0.177 0 0 1 4.063,5.657 0.177,0.177 0 0 1 4.046,5.659 0.177,0.177 0 0 1 4.028,5.66 0.177,0.177 0 0 1 4.011,5.659 0.177,0.177 0 0 1 3.993,5.656 0.177,0.177 0 0 1 3.976,5.651 0.177,0.177 0 0 1 3.959,5.645 0.177,0.177 0 0 1 3.943,5.637 0.177,0.177 0 0 1 3.928,5.627 0.177,0.177 0 0 1 3.914,5.617 0.177,0.177 0 0 1 3.902,5.604 0.177,0.177 0 0 1 3.89,5.591 0.177,0.177 0 0 1 3.88,5.576 0.177,0.177 0 0 1 3.872,5.561 0.177,0.177 0 0 1 3.865,5.544 0.177,0.177 0 0 1 3.86,5.528 0.177,0.177 0 0 1 3.856,5.51 0.177,0.177 0 0 1 3.854,5.495 0.177,0.177 0 0 1 3.852,5.478 0.177,0.177 0 0 1 3.854,5.46 0.177,0.177 0 0 1 3.856,5.442 0.177,0.177 0 0 1 3.86,5.425 0.177,0.177 0 0 1 3.866,5.408 0.177,0.177 0 0 1 3.874,5.392 0.177,0.177 0 0 1 3.883,5.377 0.177,0.177 0 0 1 3.893,5.363 0.177,0.177 0 0 1 3.906,5.35 0.177,0.177 0 0 1 3.919,5.338 0.177,0.177 0 0 1 3.933,5.328 0.177,0.177 0 0 1 3.949,5.319 L 6.088,3.395 Z"
     id="path2"
     inkscape:connector-curvature="0"
     style="fill:#5beedc" />
  <path
     d="m 6.442,1.857 v 1.598 a 0.177,0.177 0 0 1 0,0.014 0.177,0.177 0 0 1 0,0.018 A 0.177,0.177 0 0 1 6.44,3.504 0.177,0.177 0 0 1 6.436,3.52 0.177,0.177 0 0 1 6.436,3.522 0.177,0.177 0 0 1 6.434,3.53 0.177,0.177 0 0 1 6.428,3.547 0.177,0.177 0 0 1 6.42,3.563 0.177,0.177 0 0 1 6.41,3.578 0.177,0.177 0 0 1 6.4,3.592 0.177,0.177 0 0 1 6.388,3.604 0.177,0.177 0 0 1 6.374,3.616 0.177,0.177 0 0 1 6.36,3.626 L 4.499,5.3 h 1.823 a 0.177,0.177 0 0 1 0.01,-0.002 0.177,0.177 0 0 1 0.019,-0.001 0.177,0.177 0 0 1 0.01,0 0.177,0.177 0 0 1 0.018,0.002 0.177,0.177 0 0 1 0.018,0.004 0.177,0.177 0 0 1 0.017,0.005 0.177,0.177 0 0 1 0.016,0.006 0.177,0.177 0 0 1 0.015,0.009 0.177,0.177 0 0 1 0.015,0.01 0.177,0.177 0 0 1 0.014,0.011 0.177,0.177 0 0 1 0.012,0.013 0.177,0.177 0 0 1 0.004,0.003 0.177,0.177 0 0 1 0,0.002 0.177,0.177 0 0 1 0.009,0.01 0.177,0.177 0 0 1 0.01,0.015 0.177,0.177 0 0 1 0.007,0.015 0.177,0.177 0 0 1 0.007,0.017 0.177,0.177 0 0 1 0.005,0.017 0.177,0.177 0 0 1 0.003,0.017 0.177,0.177 0 0 1 0.002,0.018 0.177,0.177 0 0 1 0,0.018 0.177,0.177 0 0 1 -0.003,0.017 v 1.545 h 2.118 a 0.177,0.177 0 0 1 0.009,-0.002 0.177,0.177 0 0 1 0.007,0 0.177,0.177 0 0 1 0.018,0 0.177,0.177 0 0 1 0.017,0.002 0.177,0.177 0 0 1 0.017,0.004 0.177,0.177 0 0 1 0.017,0.006 0.177,0.177 0 0 1 0.016,0.006 0.177,0.177 0 0 1 0.016,0.01 0.177,0.177 0 0 1 0.014,0.01 0.177,0.177 0 0 1 0.014,0.01 0.177,0.177 0 0 1 0.012,0.014 0.177,0.177 0 0 1 0.01,0.014 0.177,0.177 0 0 1 0.01,0.015 0.177,0.177 0 0 1 0.008,0.016 0.177,0.177 0 0 1 0.006,0.016 0.177,0.177 0 0 1 0.004,0.018 0.177,0.177 0 0 1 0.002,0.01 0.177,0.177 0 0 1 0.002,0.015 0.177,0.177 0 0 1 0,0.003 0.177,0.177 0 0 1 0,0.016 0.177,0.177 0 0 1 0,0.002 0.177,0.177 0 0 1 0,0.004 A 0.177,0.177 0 0 1 8.845,7.258 0.177,0.177 0 0 1 8.841,7.276 0.177,0.177 0 0 1 8.835,7.292 0.177,0.177 0 0 1 8.828,7.309 0.177,0.177 0 0 1 8.819,7.324 0.177,0.177 0 0 1 8.809,7.338 0.177,0.177 0 0 1 8.797,7.351 0.177,0.177 0 0 1 8.784,7.363 0.177,0.177 0 0 1 8.771,7.374 L 6.62,9.307 v 1.531 A 4.498,4.498 0 0 0 10.847,6.35 4.498,4.498 0 0 0 6.441,1.857 Z"
     id="path4"
     inkscape:connector-curvature="0"
     style="opacity:0.8;fill:#ff9955" />
</svg>
