<?xml version="1.0" encoding="UTF-8" standalone="no"?>
<svg
   xmlns:dc="http://purl.org/dc/elements/1.1/"
   xmlns:cc="http://creativecommons.org/ns#"
   xmlns:rdf="http://www.w3.org/1999/02/22-rdf-syntax-ns#"
   xmlns:svg="http://www.w3.org/2000/svg"
   xmlns="http://www.w3.org/2000/svg"
   xmlns:sodipodi="http://sodipodi.sourceforge.net/DTD/sodipodi-0.dtd"
   xmlns:inkscape="http://www.inkscape.org/namespaces/inkscape"
   width="48"
   height="48"
   viewBox="0 0 12.7 12.7"
   version="1.1"
   id="svg4"
   sodipodi:docname="calendar.svg"
   inkscape:version="0.92.5 (2060ec1f9f, 2020-04-08)">
  <defs
     id="defs8">
  <style
     id="current-color-scheme"
     type="text/css">
      .ColorScheme-Highlight {
        color:#5beedc;
      }
  </style>
  </defs>
  <path
     class="ColorScheme-Highlight"
     style="fill:#5beedc"
     d="M 24 0 A 24 24 0 0 0 0 24 A 24 24 0 0 0 24 48 A 24 24 0 0 0 48 24 A 24 24 0 0 0 24 0 z M 143.97656 0.27148438 L 143.97656 0.27539062 A 23.773229 23.773229 0 0 0 120.20312 24.048828 A 23.773229 23.773229 0 0 0 143.97656 47.814453 A 23.773229 23.773229 0 0 0 167.75 24.044922 A 23.773229 23.773229 0 0 0 143.97656 0.27148438 z M 24 3 A 21 21 0 0 1 45 24 A 21 21 0 0 1 24 45 A 21 21 0 0 1 3 24 A 21 21 0 0 1 24 3 z M 143.91016 3.8144531 A 20.435906 20.435906 0 0 1 164.3457 24.25 A 20.435906 20.435906 0 0 1 143.91016 44.685547 A 20.435906 20.435906 0 0 1 123.47656 24.25 A 20.435906 20.435906 0 0 1 143.91016 3.8164062 L 143.91016 3.8144531 z M 135.92773 8.8925781 A 1.9048819 1.9048819 0 0 0 134.01758 10.802734 L 134.01758 13.851562 L 137.83594 13.851562 L 137.83594 10.802734 A 1.9048819 1.9048819 0 0 0 135.92773 8.8925781 z M 152.05469 8.8925781 A 1.9048819 1.9048819 0 0 0 150.14648 10.802734 L 150.14648 13.851562 L 153.96289 13.851562 L 153.96289 10.802734 A 1.9048819 1.9048819 0 0 0 152.05469 8.8925781 z M 16 9 C 14.892 9 14 9.8920001 14 11 L 14 13 L 18 13 L 18 11 C 18 9.8920001 17.108 9 16 9 z M 32 9 C 30.892 9 30 9.8920001 30 11 L 30 13 L 34 13 L 34 11 C 34 9.8920001 33.108 9 32 9 z M 128.77148 14.712891 L 128.77148 19.929688 L 128.81055 19.929688 L 128.81055 33.373047 C 128.81055 34.94911 129.41385 36.299229 130.63086 37.417969 C 131.84787 38.540488 133.31534 39.103516 135.03125 39.103516 L 153.00195 39.103516 C 154.71786 39.103516 156.18156 38.540614 157.40234 37.421875 C 158.61935 36.299355 159.22461 34.94911 159.22461 33.373047 L 159.22461 17.740234 L 159.20508 17.740234 L 159.20508 14.716797 L 128.77539 14.716797 L 128.77148 14.712891 z M 9 15 L 9 20 L 9 34 C 9 36.77 11.23 39 14 39 L 34 39 C 36.77 39 39 36.77 39 34 L 39 20 L 39 15 L 34 15 L 14 15 L 9 15 z M 131.56836 19.929688 L 156.46094 19.929688 L 156.46094 33.373047 A 2.9480315 2.9480315 0 0 1 155.44531 35.621094 A 3.4771654 3.4771654 0 0 1 153.00195 36.554688 L 135.03125 36.554688 A 3.4771654 3.4771654 0 0 1 132.58984 35.621094 A 2.9480315 2.9480315 0 0 1 131.56836 33.373047 L 131.56836 19.929688 z M 11 20 L 37 20 L 37 23 L 37 25 L 37 34 C 37 35.662 35.662 37 34 37 L 14 37 C 12.338 37 11 35.662 11 34 L 11 25 L 11 23 L 11 20 z M 139.33984 22.714844 C 138.93362 22.715524 138.48642 22.77221 137.99805 22.888672 C 137.5067 23.002058 136.98112 23.175572 136.41797 23.402344 L 136.41797 24.820312 C 136.97356 24.510391 137.49095 24.276181 137.97852 24.125 C 138.46985 23.973819 138.93462 23.898437 139.37305 23.898438 C 139.99289 23.898438 140.49717 24.068299 140.87891 24.416016 A 1.7234646 1.7234646 0 0 1 141.46094 25.765625 C 141.46094 26.102003 141.37282 26.445379 141.19141 26.796875 C 141.01377 27.144592 140.69989 27.567636 140.25391 28.070312 C 140.0158 28.338659 139.43796 28.939376 138.51953 29.869141 C 137.60488 30.795124 136.88252 31.532047 136.34961 32.080078 L 136.34961 33.259766 L 142.92578 33.259766 L 142.92578 32.080078 L 138.03125 32.080078 C 139.15755 30.927322 140.03433 30.039003 140.65039 29.396484 C 141.27023 28.753964 141.64247 28.364579 141.75586 28.228516 C 142.17917 27.71072 142.46626 27.264544 142.625 26.882812 A 3.087874 3.087874 0 0 0 142.86523 25.673828 A 2.664567 2.664567 0 0 0 141.91016 23.519531 C 141.26927 22.984205 140.4172 22.716207 139.34766 22.714844 L 139.33984 22.714844 z M 148.39258 22.904297 L 145.91602 23.402344 L 145.91602 24.675781 L 148.40625 24.181641 L 148.40625 32.080078 L 146.11719 32.080078 L 146.11719 33.259766 L 152.08008 33.259766 L 152.08008 32.080078 L 149.79492 32.080078 L 149.79492 22.904297 L 148.39258 22.904297 z M 19.5 23 A 3.5 3.5 0 0 0 16.039062 26 L 17.050781 26 A 2.4999999 2.4999999 0 0 1 17.111328 25.761719 A 2.4999999 2.4999999 0 0 1 17.197266 25.527344 A 2.4999999 2.4999999 0 0 1 17.306641 25.300781 A 2.4999999 2.4999999 0 0 1 17.4375 25.087891 A 2.4999999 2.4999999 0 0 1 17.587891 24.888672 A 2.4999999 2.4999999 0 0 1 17.757812 24.707031 A 2.4999999 2.4999999 0 0 1 17.945312 24.541016 A 2.4999999 2.4999999 0 0 1 18.148438 24.396484 A 2.4999999 2.4999999 0 0 1 18.365234 24.271484 A 2.4999999 2.4999999 0 0 1 18.59375 24.169922 A 2.4999999 2.4999999 0 0 1 18.832031 24.091797 A 2.4999999 2.4999999 0 0 1 19.074219 24.037109 A 2.4999999 2.4999999 0 0 1 19.322266 24.005859 A 2.4999999 2.4999999 0 0 1 19.5 24 A 2.4999999 2.4999999 0 0 1 19.75 24.011719 A 2.4999999 2.4999999 0 0 1 19.996094 24.050781 A 2.4999999 2.4999999 0 0 1 20.238281 24.111328 A 2.4999999 2.4999999 0 0 1 20.472656 24.197266 A 2.4999999 2.4999999 0 0 1 20.699219 24.306641 A 2.4999999 2.4999999 0 0 1 20.912109 24.4375 A 2.4999999 2.4999999 0 0 1 21.111328 24.587891 A 2.4999999 2.4999999 0 0 1 21.292969 24.757812 A 2.4999999 2.4999999 0 0 1 21.458984 24.945312 A 2.4999999 2.4999999 0 0 1 21.603516 25.148438 A 2.4999999 2.4999999 0 0 1 21.728516 25.365234 A 2.4999999 2.4999999 0 0 1 21.830078 25.59375 A 2.4999999 2.4999999 0 0 1 21.908203 25.832031 A 2.4999999 2.4999999 0 0 1 21.962891 26.074219 A 2.4999999 2.4999999 0 0 1 21.994141 26.322266 A 2.4999999 2.4999999 0 0 1 22 26.5 A 2.4999999 2.4999999 0 0 1 21.988281 26.75 A 2.4999999 2.4999999 0 0 1 21.949219 26.996094 A 2.4999999 2.4999999 0 0 1 21.888672 27.238281 A 2.4999999 2.4999999 0 0 1 21.802734 27.472656 A 2.4999999 2.4999999 0 0 1 21.693359 27.699219 A 2.4999999 2.4999999 0 0 1 21.5625 27.912109 A 2.4999999 2.4999999 0 0 1 21.412109 28.111328 A 2.4999999 2.4999999 0 0 1 21.267578 28.267578 L 16 32 L 16 33 L 23 33 L 23 32 L 17.712891 32 L 21.972656 28.972656 A 3.5 3.5 0 0 0 23 26.5 A 3.5 3.5 0 0 0 19.5 23 z M 29 23 L 26 24 L 26 25 L 29 24 L 29 32 L 27 32 L 27 33 L 32 33 L 32 32 L 30 32 L 30 23 L 29 23 z "
     transform="scale(0.26458333)"
     id="path817" />
</svg>
