<?xml version="1.0" encoding="UTF-8" standalone="no"?>
<svg
   xmlns:dc="http://purl.org/dc/elements/1.1/"
   xmlns:cc="http://creativecommons.org/ns#"
   xmlns:rdf="http://www.w3.org/1999/02/22-rdf-syntax-ns#"
   xmlns:svg="http://www.w3.org/2000/svg"
   xmlns="http://www.w3.org/2000/svg"
   xmlns:sodipodi="http://sodipodi.sourceforge.net/DTD/sodipodi-0.dtd"
   xmlns:inkscape="http://www.inkscape.org/namespaces/inkscape"
   width="48"
   height="48"
   viewBox="0 0 12.7 12.7"
   version="1.1"
   id="svg4"
   sodipodi:docname="calf.svg"
   inkscape:version="0.92.5 (2060ec1f9f, 2020-04-08)">
  <metadata
     id="metadata10">
    <rdf:RDF>
      <cc:Work
         rdf:about="">
        <dc:format>image/svg+xml</dc:format>
        <dc:type
           rdf:resource="http://purl.org/dc/dcmitype/StillImage" />
        <dc:title></dc:title>
      </cc:Work>
    </rdf:RDF>
  </metadata>
  <defs
     id="defs8" />
  <sodipodi:namedview
     pagecolor="#ffffff"
     bordercolor="#666666"
     borderopacity="1"
     objecttolerance="10"
     gridtolerance="10"
     guidetolerance="10"
     inkscape:pageopacity="0"
     inkscape:pageshadow="2"
     inkscape:window-width="1085"
     inkscape:window-height="480"
     id="namedview6"
     showgrid="false"
     inkscape:zoom="4.9166667"
     inkscape:cx="2.1355932"
     inkscape:cy="24"
     inkscape:window-x="0"
     inkscape:window-y="25"
     inkscape:window-maximized="0"
     inkscape:current-layer="svg4" />
  <path
     d="M 6.34,0.07 A 6.29,6.29 0 0 0 5.712,0.1 6.29,6.29 0 0 0 5.091,0.194 6.29,6.29 0 0 0 4.637,0.31 6.29,6.29 0 0 0 3.095,0.98 6.29,6.29 0 0 0 2.788,1.167 6.29,6.29 0 0 0 2.288,1.547 6.29,6.29 0 0 0 1.945,1.867 6.29,6.29 0 0 0 0.505,4.017 6.29,6.29 0 0 0 0.477,4.079 6.29,6.29 0 0 0 0.28,4.676 6.29,6.29 0 0 0 0.142,5.29 6.29,6.29 0 0 0 0.066,5.914 6.29,6.29 0 0 0 0.05,6.369 a 6.29,6.29 0 0 0 0.023,0.437 6.29,6.29 0 0 0 0.414,1.838 6.29,6.29 0 0 0 0.064,0.174 6.29,6.29 0 0 0 0.227,0.469 6.29,6.29 0 0 0 2.525,2.572 6.29,6.29 0 0 0 0.193,0.11 6.29,6.29 0 0 0 0.575,0.256 6.29,6.29 0 0 0 0.507,0.168 6.29,6.29 0 0 0 1.772,0.256 6.29,6.29 0 0 0 0.41,-0.021 6.29,6.29 0 0 0 0.218,-0.012 6.29,6.29 0 0 0 0.622,-0.094 6.29,6.29 0 0 0 0.402,-0.104 6.29,6.29 0 0 0 1.243,-0.486 6.29,6.29 0 0 0 0.12,-0.058 6.29,6.29 0 0 0 0.535,-0.33 6.29,6.29 0 0 0 0.5,-0.38 6.29,6.29 0 0 0 0.46,-0.43 6.29,6.29 0 0 0 0.413,-0.473 6.29,6.29 0 0 0 0.221,-0.31 6.29,6.29 0 0 0 0.797,-1.579 6.29,6.29 0 0 0 0.112,-0.34 6.29,6.29 0 0 0 0.043,-0.19 6.29,6.29 0 0 0 0.184,-1.473 6.29,6.29 0 0 0 0,-0.01 A 6.29,6.29 0 0 0 12.599,5.731 6.29,6.29 0 0 0 12.505,5.109 6.29,6.29 0 0 0 12.432,4.825 6.29,6.29 0 0 0 10.102,1.325 6.29,6.29 0 0 0 9.739,1.066 6.29,6.29 0 0 0 9.193,0.753 6.29,6.29 0 0 0 8.62,0.497 6.29,6.29 0 0 0 8.023,0.3 6.29,6.29 0 0 0 7.635,0.213 6.29,6.29 0 0 0 6.863,0.096 6.29,6.29 0 0 0 6.785,0.086 6.29,6.29 0 0 0 6.34,0.07 Z M 6.32,1 6.33,1.01 a 5.4,5.4 0 0 1 1.086,0.11 c 0.051,0.119 0.088,0.267 0.159,0.315 0.227,0.152 0.619,0.102 0.9,0.022 a 5.4,5.4 0 0 1 2.714,2.606 c -0.02,0 -0.047,0.001 -0.065,-10e-4 -0.172,-0.027 -0.5,-0.2 -0.69,-0.18 -0.064,0.007 -0.114,0.036 -0.136,0.099 -0.038,0.105 0.084,0.18 0.083,0.284 -0.002,0.217 -0.19,0.282 -0.124,0.507 0.066,0.222 0.369,0.173 0.538,0.325 0.086,0.078 0.048,0.194 0.227,0.244 0.171,0.048 0.418,-0.022 0.453,-0.223 0.008,-0.044 -0.041,-0.134 -0.02,-0.183 0.01,-0.024 0.037,-0.027 0.054,-0.044 A 5.4,5.4 0 0 1 11.73,6.41 5.4,5.4 0 0 1 11.586,7.635 C 11.567,7.63 11.538,7.629 11.522,7.624 11.362,7.576 11.306,7.428 11.15,7.319 11.002,7.215 10.778,7.169 10.535,7.162 A 2.95,2.95 0 0 0 9.807,7.238 C 9.681,7.268 9.479,7.325 9.456,7.461 9.401,7.773 9.784,7.807 9.993,7.908 a 0.665,0.665 0 0 1 0.31,0.366 c 0.105,0.305 -0.003,0.54 0.372,0.61 a 0.96,0.96 0 0 0 0.433,-0.02 C 11.129,8.856 11.143,8.831 11.161,8.82 A 5.4,5.4 0 0 1 10.613,9.698 L 10.571,9.697 C 10.224,9.676 9.916,9.417 9.497,9.452 9.16,9.48 8.68,9.653 8.691,10.021 c 0.005,0.12 0.12,0.277 0.207,0.386 0.091,0.114 0.279,0.197 0.31,0.325 0.021,0.09 -0.008,0.181 -0.03,0.27 A 5.4,5.4 0 0 1 6.33,11.82 5.4,5.4 0 0 1 4.984,11.645 C 4.842,11.575 4.683,11.507 4.599,11.382 4.523,11.27 4.548,10.966 4.476,10.833 4.421,10.733 4.131,10.584 4.02,10.549 A 0.977,0.977 0 0 0 3.807,10.512 c -0.241,-0.02 -0.54,0.021 -0.655,0.139 -0.031,0.032 -0.024,0.07 -0.04,0.104 A 5.4,5.4 0 0 1 1.626,9.08 C 1.649,9.034 1.684,8.975 1.671,8.924 1.658,8.873 1.561,8.86 1.491,8.834 A 5.4,5.4 0 0 1 0.928,6.654 C 1,6.632 1.051,6.596 1.148,6.589 1.484,6.565 1.933,6.679 2.098,6.325 2.147,6.221 2.184,5.973 2.078,5.817 2.008,5.715 1.598,5.627 1.581,5.471 1.561,5.291 1.875,5.203 1.871,5.004 1.865,4.733 1.537,4.715 1.334,4.639 1.304,4.629 1.272,4.611 1.234,4.601 A 5.4,5.4 0 0 1 2.574,2.512 C 2.661,2.748 2.694,3.032 2.965,3.116 3.278,3.212 3.692,2.946 3.793,2.709 3.831,2.619 3.811,2.495 3.855,2.384 3.964,2.101 4.269,2.052 4.515,1.796 4.629,1.676 4.761,1.441 4.598,1.308 4.592,1.303 4.563,1.308 4.554,1.304 A 5.4,5.4 0 0 1 6.32,1 Z M 8.274,1.896 C 8.084,1.906 7.895,1.951 7.808,2.039 7.485,2.368 8.01,2.843 8.015,3.115 8.022,3.489 7.559,3.705 7.685,4.171 7.718,4.295 7.915,4.455 8.097,4.496 8.796,4.657 8.824,3.729 9.503,3.663 9.724,3.642 10.176,3.748 10.185,3.46 10.19,3.278 9.895,3.178 9.73,3.094 9.566,3.011 9.359,2.923 9.255,2.769 9.179,2.656 9.202,2.354 9.13,2.222 9.075,2.121 8.786,1.972 8.675,1.937 A 0.973,0.973 0 0 0 8.462,1.899 1.507,1.507 0 0 0 8.274,1.896 Z M 6.37,1.931 A 0.3,0.3 0 0 0 6.124,2.033 C 6.096,2.063 6.103,2.177 6.062,2.216 5.914,2.355 5.576,2.296 5.503,2.54 5.442,2.748 5.618,2.841 5.627,3.028 5.635,3.191 5.425,3.331 5.689,3.414 5.891,3.477 6.131,3.288 6.351,3.251 6.534,3.221 6.727,3.275 6.785,3.17 6.815,3.114 6.745,3.062 6.764,2.967 6.798,2.796 7,2.819 7.012,2.702 7.032,2.508 6.73,2.456 6.702,2.399 6.678,2.349 6.729,2.235 6.722,2.196 6.699,2.068 6.537,1.94 6.37,1.931 Z M 5.51,4.085 A 0.645,0.645 0 0 0 5.405,4.09 C 5.242,4.112 4.981,4.32 4.951,4.435 4.831,4.878 5.278,5.122 5.281,5.47 5.286,5.826 4.934,5.999 4.971,6.324 4.999,6.563 5.174,6.651 5.426,6.69 5.756,6.74 6.286,6.59 6.397,6.385 6.47,6.251 6.44,5.987 6.521,5.857 6.611,5.712 6.804,5.609 6.996,5.511 7.176,5.421 7.456,5.32 7.451,5.145 7.441,4.831 6.772,4.985 6.521,4.881 6.197,4.747 6.015,4.101 5.511,4.085 Z M 3.126,4.376 C 2.901,4.396 2.579,4.512 2.586,4.757 2.59,4.837 2.668,4.942 2.726,5.015 2.786,5.091 2.912,5.147 2.932,5.232 2.973,5.404 2.849,5.579 2.85,5.722 2.853,6.037 3.016,6.237 3.388,6.25 3.543,6.255 3.701,6.214 3.761,6.114 3.791,6.066 3.765,5.981 3.816,5.911 3.938,5.748 4.296,5.834 4.313,5.612 4.327,5.432 4.116,5.428 4.12,5.3 4.125,5.156 4.388,5.149 4.452,5.055 4.51,4.97 4.505,4.802 4.465,4.717 4.365,4.5 4.093,4.554 3.843,4.539 3.611,4.525 3.406,4.353 3.126,4.376 Z M 9.09,5.47 C 8.976,5.49 8.914,5.609 8.781,5.646 8.54,5.713 8.121,5.486 8.096,5.803 8.076,6.044 8.502,6.085 8.695,6.184 8.787,6.232 8.805,6.33 8.889,6.414 9.047,6.575 9.419,6.629 9.705,6.617 9.785,6.613 9.917,6.6 9.947,6.519 10.016,6.334 9.784,6.269 9.667,6.183 A 0.417,0.417 0 0 1 9.517,5.923 C 9.487,5.723 9.581,5.593 9.359,5.507 A 0.599,0.599 0 0 0 9.089,5.47 Z M 2.97,7.37 A 7.3,7.3 0 0 0 2.547,7.377 C 2.255,7.392 1.972,7.427 1.872,7.503 1.738,7.604 1.652,7.878 1.706,8.072 1.802,8.42 2.314,8.552 2.45,8.742 2.62,8.98 2.57,9.411 2.905,9.515 3.218,9.611 3.631,9.346 3.732,9.108 3.77,9.019 3.752,8.894 3.794,8.783 3.903,8.5 4.208,8.45 4.454,8.193 4.569,8.075 4.7,7.839 4.538,7.706 4.473,7.653 4.227,7.685 4.062,7.666 3.758,7.628 3.599,7.407 3.276,7.381 A 4.61,4.61 0 0 0 2.97,7.37 Z M 6.23,7.694 A 0.3,0.3 0 0 0 5.984,7.796 C 5.956,7.826 5.963,7.94 5.922,7.978 5.774,8.118 5.437,8.06 5.364,8.303 5.303,8.511 5.479,8.603 5.488,8.79 5.496,8.953 5.285,9.094 5.549,9.176 5.751,9.239 5.991,9.05 6.211,9.013 6.394,8.983 6.587,9.037 6.645,8.933 6.675,8.877 6.605,8.823 6.625,8.729 6.659,8.558 6.86,8.582 6.872,8.466 6.892,8.271 6.59,8.218 6.562,8.161 6.538,8.111 6.591,7.997 6.584,7.958 6.56,7.83 6.397,7.702 6.23,7.694 Z M 7.733,8.212 C 7.669,8.219 7.621,8.247 7.599,8.31 7.561,8.415 7.682,8.49 7.681,8.594 7.678,8.811 7.49,8.878 7.557,9.103 7.622,9.325 7.925,9.276 8.094,9.428 8.18,9.506 8.142,9.622 8.321,9.672 8.493,9.72 8.741,9.649 8.776,9.448 8.783,9.404 8.734,9.314 8.756,9.265 8.824,9.105 9.069,9.13 9.066,8.96 9.062,8.828 8.857,8.842 8.818,8.696 8.797,8.619 8.871,8.533 8.838,8.474 8.776,8.361 8.552,8.411 8.425,8.391 8.253,8.365 7.925,8.191 7.733,8.211 Z M 5.62,9.497 C 5.395,9.516 5.074,9.631 5.082,9.876 c 0.003,0.08 0.08,0.186 0.137,0.259 0.061,0.076 0.188,0.131 0.208,0.216 0.041,0.172 -0.084,0.347 -0.083,0.49 0.003,0.316 0.166,0.516 0.538,0.529 0.155,0.005 0.314,-0.036 0.374,-0.136 0.029,-0.047 0.003,-0.134 0.055,-0.203 0.122,-0.163 0.48,-0.077 0.497,-0.3 C 6.822,10.553 6.611,10.547 6.615,10.419 6.62,10.275 6.882,10.269 6.945,10.175 7.004,10.09 7,9.921 6.96,9.835 6.86,9.619 6.588,9.674 6.338,9.659 6.106,9.646 5.9,9.473 5.62,9.497 Z m 2.017,0.967 c -0.042,0.003 -0.077,0.018 -0.098,0.05 -0.032,0.044 0.04,0.16 0.04,0.182 0.002,0.155 -0.11,0.245 -0.04,0.365 0.042,0.075 0.228,0.097 0.288,0.142 0.071,0.053 0.057,0.136 0.187,0.163 0.093,0.02 0.17,-0.014 0.207,-0.062 C 8.265,11.246 8.219,11.159 8.241,11.122 8.314,10.995 8.537,10.996 8.365,10.838 8.348,10.823 8.297,10.819 8.283,10.778 8.255,10.698 8.358,10.696 8.303,10.635 8.247,10.573 8.137,10.594 8.054,10.574 7.953,10.55 7.763,10.456 7.637,10.464 Z"
     id="path2"
     inkscape:connector-curvature="0"
     style="fill:#5beedc" />
</svg>
