<?xml version="1.0" encoding="UTF-8" standalone="no"?>
<svg
   xmlns:dc="http://purl.org/dc/elements/1.1/"
   xmlns:cc="http://creativecommons.org/ns#"
   xmlns:rdf="http://www.w3.org/1999/02/22-rdf-syntax-ns#"
   xmlns:svg="http://www.w3.org/2000/svg"
   xmlns="http://www.w3.org/2000/svg"
   xmlns:sodipodi="http://sodipodi.sourceforge.net/DTD/sodipodi-0.dtd"
   xmlns:inkscape="http://www.inkscape.org/namespaces/inkscape"
   width="48"
   height="48"
   viewBox="0 0 12.7 12.7"
   version="1.1"
   id="svg12"
   sodipodi:docname="flow.svg"
   inkscape:version="0.92.4 (5da689c313, 2019-01-14)">
  <metadata
     id="metadata18">
    <rdf:RDF>
      <cc:Work
         rdf:about="">
        <dc:format>image/svg+xml</dc:format>
        <dc:type
           rdf:resource="http://purl.org/dc/dcmitype/StillImage" />
        <dc:title></dc:title>
      </cc:Work>
    </rdf:RDF>
  </metadata>
  <defs
     id="defs16" />
  <sodipodi:namedview
     pagecolor="#ffffff"
     bordercolor="#666666"
     borderopacity="1"
     objecttolerance="10"
     gridtolerance="10"
     guidetolerance="10"
     inkscape:pageopacity="0"
     inkscape:pageshadow="2"
     inkscape:window-width="1087"
     inkscape:window-height="480"
     id="namedview14"
     showgrid="false"
     inkscape:zoom="4.9166667"
     inkscape:cx="2.1355932"
     inkscape:cy="24"
     inkscape:window-x="0"
     inkscape:window-y="25"
     inkscape:window-maximized="0"
     inkscape:current-layer="svg12" />
  <path
     d="M 6.34,0.07 A 6.29,6.29 0 0 0 0.05,6.37 6.29,6.29 0 0 0 6.35,12.65 6.29,6.29 0 0 0 12.63,6.36 6.29,6.29 0 0 0 6.34,0.07 Z M 6.33,1.01 a 5.4,5.4 0 0 1 5.4,5.4 5.4,5.4 0 0 1 -5.4,5.41 A 5.4,5.4 0 0 1 0.92,6.42 5.4,5.4 0 0 1 6.32,1 Z"
     id="path2"
     inkscape:connector-curvature="0"
     style="fill:#5beedc" />
  <path
     d="M 6.13,1.81 V 2.26 L 5.76,2.32 A 4.18,4.18 0 0 0 2.53,4.92 C 2.55,4.94 2.63,4.87 2.71,4.79 l 0.16,-0.17 0.4,0.4 0.4,0.39 0.1,-0.22 A 2.87,2.87 0 0 1 5.96,3.58 H 6.13 L 6.14,3.99 6.16,4.4 6.91,3.65 7.66,2.9 6.9,2.13 6.13,1.36 Z"
     id="path4"
     inkscape:connector-curvature="0"
     style="opacity:0.75;fill:#800080" />
  <path
     d="M 7.92,2.72 8.1,2.89 7.7,3.29 7.31,3.7 7.49,3.78 c 0.24,0.1 0.63,0.38 0.86,0.6 0.4,0.4 0.8,1.19 0.8,1.6 V 6.15 L 8.73,6.17 8.33,6.18 9.07,6.94 9.83,7.69 10.59,6.92 11.36,6.15 h -0.9 L 10.43,5.95 A 4.16,4.16 0 0 0 7.8,2.55 c -0.03,0 0.03,0.07 0.12,0.17 z"
     id="path6"
     inkscape:connector-curvature="0"
     style="opacity:0.75;fill:#800000" />
  <path
     d="M 2.1,5.83 1.34,6.59 h 0.89 l 0.06,0.37 c 0.1,0.51 0.2,0.85 0.46,1.36 A 4.44,4.44 0 0 0 4.9,10.2 c 0.03,0 -0.03,-0.09 -0.13,-0.18 L 4.6,9.83 5,9.43 5.4,9.03 5.2,8.95 A 2.92,2.92 0 0 1 3.57,6.85 L 3.54,6.59 3.96,6.57 4.38,6.56 3.63,5.8 2.87,5.05 Z"
     id="path8"
     inkscape:connector-curvature="0"
     style="opacity:0.75;fill:#0000ff" />
  <path
     d="M 8.93,7.53 C 8.85,7.79 8.43,8.33 8.15,8.55 7.81,8.82 7.19,9.11 6.85,9.15 L 6.57,9.18 6.56,8.76 6.54,8.34 5.79,9.09 5.04,9.85 5.8,10.62 6.57,11.38 v -0.89 l 0.2,-0.04 a 4.16,4.16 0 0 0 3.4,-2.63 C 10.18,7.8 10.1,7.85 10,7.95 L 9.82,8.13 9.44,7.74 C 9.24,7.53 9.04,7.36 9.03,7.36 9.01,7.36 8.96,7.44 8.93,7.53 Z"
     id="path10"
     inkscape:connector-curvature="0"
     style="opacity:0.75;fill:#008000" />
</svg>
