<?xml version="1.0" encoding="UTF-8" standalone="no"?>
<svg
   xmlns:dc="http://purl.org/dc/elements/1.1/"
   xmlns:cc="http://creativecommons.org/ns#"
   xmlns:rdf="http://www.w3.org/1999/02/22-rdf-syntax-ns#"
   xmlns:svg="http://www.w3.org/2000/svg"
   xmlns="http://www.w3.org/2000/svg"
   xmlns:sodipodi="http://sodipodi.sourceforge.net/DTD/sodipodi-0.dtd"
   xmlns:inkscape="http://www.inkscape.org/namespaces/inkscape"
   width="48"
   height="48"
   viewBox="0 0 12.7 12.7"
   version="1.1"
   id="svg6"
   sodipodi:docname="cherrytree.svg"
   inkscape:version="0.92.5 (2060ec1f9f, 2020-04-08)">
  <metadata
     id="metadata12">
    <rdf:RDF>
      <cc:Work
         rdf:about="">
        <dc:format>image/svg+xml</dc:format>
        <dc:type
           rdf:resource="http://purl.org/dc/dcmitype/StillImage" />
        <dc:title></dc:title>
      </cc:Work>
    </rdf:RDF>
  </metadata>
  <defs
     id="defs10" />
  <sodipodi:namedview
     pagecolor="#ffffff"
     bordercolor="#666666"
     borderopacity="1"
     objecttolerance="10"
     gridtolerance="10"
     guidetolerance="10"
     inkscape:pageopacity="0"
     inkscape:pageshadow="2"
     inkscape:window-width="1085"
     inkscape:window-height="480"
     id="namedview8"
     showgrid="false"
     inkscape:zoom="4.9166667"
     inkscape:cx="2.1355932"
     inkscape:cy="24"
     inkscape:window-x="0"
     inkscape:window-y="25"
     inkscape:window-maximized="0"
     inkscape:current-layer="svg6" />
  <path
     d="M 3.862,4.871 C 3.194,4.851 2.642,5.186 2.323,5.903 1.869,6.923 2.026,8.293 3.073,8.731 3.638,9.154 4.361,9.104 4.994,8.792 5.212,9.559 5.727,10.196 6.519,10.307 7.661,10.774 8.868,9.832 9.336,8.69 9.862,7.408 9.158,6.423 7.681,6.024 7.05,5.854 6.488,5.848 6.035,6.002 A 2.979,2.979 0 0 0 5.162,5.282 c -0.458,-0.26 -0.9,-0.4 -1.3,-0.411 z"
     id="path2"
     inkscape:connector-curvature="0"
     style="opacity:0.75;fill:#ff0000" />
  <path
     d="M 6.35,0.061 A 6.29,6.29 0 0 0 0.061,6.35 6.29,6.29 0 0 0 6.35,12.639 6.29,6.29 0 0 0 12.639,6.35 6.29,6.29 0 0 0 6.35,0.061 Z M 6.332,0.997 A 5.407,5.407 0 0 1 11.739,6.404 5.407,5.407 0 0 1 6.332,11.811 5.407,5.407 0 0 1 0.925,6.404 5.407,5.407 0 0 1 6.332,0.997 Z m 2.766,1.42 -0.33,0.23 C 5.38,3.792 5.036,5.447 4.582,5.437 4.696,5.663 4.921,5.707 5.22,5.727 4.852,5.327 6.303,3.795 8.509,2.974 7.66,4.18 7.454,6.442 7.156,6.467 7.395,6.628 7.536,6.692 7.787,6.563 7.548,6.301 7.97,4.166 8.764,2.968 L 9.306,2.641 9.098,2.418 Z"
     id="path4"
     inkscape:connector-curvature="0"
     style="fill:#5beedc" />
</svg>
