<?xml version="1.0" encoding="UTF-8" standalone="no"?>
<svg
   xmlns:dc="http://purl.org/dc/elements/1.1/"
   xmlns:cc="http://creativecommons.org/ns#"
   xmlns:rdf="http://www.w3.org/1999/02/22-rdf-syntax-ns#"
   xmlns:svg="http://www.w3.org/2000/svg"
   xmlns="http://www.w3.org/2000/svg"
   xmlns:sodipodi="http://sodipodi.sourceforge.net/DTD/sodipodi-0.dtd"
   xmlns:inkscape="http://www.inkscape.org/namespaces/inkscape"
   width="48"
   height="48"
   viewBox="0 0 12.7 12.7"
   version="1.1"
   id="svg4"
   sodipodi:docname="signal-desktop.svg"
   inkscape:version="0.92.4 (5da689c313, 2019-01-14)">
  <metadata
     id="metadata10">
    <rdf:RDF>
      <cc:Work
         rdf:about="">
        <dc:format>image/svg+xml</dc:format>
        <dc:type
           rdf:resource="http://purl.org/dc/dcmitype/StillImage" />
        <dc:title></dc:title>
      </cc:Work>
    </rdf:RDF>
  </metadata>
  <defs
     id="defs8" />
  <sodipodi:namedview
     pagecolor="#ffffff"
     bordercolor="#666666"
     borderopacity="1"
     objecttolerance="10"
     gridtolerance="10"
     guidetolerance="10"
     inkscape:pageopacity="0"
     inkscape:pageshadow="2"
     inkscape:window-width="1112"
     inkscape:window-height="480"
     id="namedview6"
     showgrid="false"
     inkscape:zoom="4.9166667"
     inkscape:cx="2.1355932"
     inkscape:cy="24"
     inkscape:window-x="0"
     inkscape:window-y="25"
     inkscape:window-maximized="0"
     inkscape:current-layer="svg4" />
  <path
     d="m 6.34,0.07 a 6.29,6.29 0 0 0 0,12.58 6.29,6.29 0 0 0 0,-12.58 z M 6.32,1 A 5.417,5.417 0 0 1 11.73,6.41 5.4,5.4 0 0 1 6.33,11.82 5.4,5.4 0 0 1 0.92,6.42 5.4,5.4 0 0 1 6.32,1 Z M 6.085,2.13 A 4.4,4.4 0 0 0 4.459,2.547 L 4.723,3.005 A 3.878,3.878 0 0 1 6.085,2.659 Z m 0.53,0 V 2.66 C 7.099,2.692 7.559,2.812 7.977,3.005 L 8.241,2.547 A 4.4,4.4 0 0 0 6.615,2.13 Z M 3.995,2.8 A 4.154,4.154 0 0 0 2.775,3.982 L 3.233,4.246 C 3.502,3.855 3.85,3.518 4.258,3.256 L 3.994,2.8 Z m 4.71,0 -0.263,0.456 a 3.61,3.61 0 0 1 1.025,0.99 L 9.924,3.982 A 4.154,4.154 0 0 0 8.706,2.8 Z M 6.35,3.176 a 3.175,2.93 0 0 0 -3.175,2.93 3.175,2.93 0 0 0 1.058,2.18 v 1.12 A 0.122,0.122 0 0 0 4.416,9.512 L 4.966,9.195 5.446,8.917 A 3.175,2.93 0 0 0 6.35,9.04 3.175,2.93 0 0 0 9.525,6.109 3.175,2.93 0 0 0 6.35,3.179 Z M 2.51,4.44 A 3.755,3.755 0 0 0 2.118,6.087 H 2.647 C 2.65,5.593 2.765,5.127 2.967,4.704 L 2.509,4.44 Z m 7.68,0 -0.457,0.264 c 0.202,0.422 0.317,0.89 0.32,1.383 h 0.53 A 3.755,3.755 0 0 0 10.191,4.44 Z M 2.159,6.617 c 0.079,0.542 0.276,1.058 0.573,1.52 L 3.189,7.872 A 3.286,3.286 0 0 1 2.694,6.617 Z m 7.851,0 C 9.938,7.074 9.77,7.501 9.527,7.88 l 0.457,0.264 c 0.29,-0.456 0.487,-0.972 0.563,-1.527 z M 3.512,8.297 3.051,8.563 c 0.042,0.05 0.081,0.1 0.125,0.148 v 0.694 c 0,0.406 0.232,0.752 0.553,0.959 L 3.988,9.916 A 0.629,0.629 0 0 1 3.705,9.405 V 8.5 A 3.71,3.71 0 0 1 3.512,8.296 Z m 5.696,0.01 C 8.934,8.616 8.602,8.877 8.232,9.082 L 8.495,9.537 A 4.22,4.22 0 0 0 9.669,8.573 Z M 7.75,9.308 C 7.395,9.445 7.012,9.528 6.614,9.555 v 0.53 A 4.41,4.41 0 0 0 8.017,9.769 L 7.75,9.309 Z M 5.56,9.46 5.23,9.652 4.68,9.969 a 0.53,0.53 0 0 0 -10e-4,0 0.586,0.586 0 0 1 -0.146,0.058 l -0.305,0.528 c 0.24,0.036 0.49,0.002 0.714,-0.127 a 1.058,1.058 0 0 0 10e-4,0 l 0.55,-0.317 A 1.058,1.058 0 0 0 5.495,10.11 l 0.18,-0.104 c 0.137,0.02 0.273,0.049 0.41,0.068 V 9.55 A 5.858,5.858 0 0 1 5.561,9.46 Z"
     id="path2"
     inkscape:connector-curvature="0"
     style="fill:#5beedc" />
</svg>
