<?xml version="1.0" encoding="UTF-8" standalone="no"?>
<svg
   xmlns:dc="http://purl.org/dc/elements/1.1/"
   xmlns:cc="http://creativecommons.org/ns#"
   xmlns:rdf="http://www.w3.org/1999/02/22-rdf-syntax-ns#"
   xmlns:svg="http://www.w3.org/2000/svg"
   xmlns="http://www.w3.org/2000/svg"
   xmlns:sodipodi="http://sodipodi.sourceforge.net/DTD/sodipodi-0.dtd"
   xmlns:inkscape="http://www.inkscape.org/namespaces/inkscape"
   width="48"
   height="48"
   viewBox="0 0 12.7 12.7"
   version="1.1"
   id="svg6"
   sodipodi:docname="chromium-app-list.svg"
   inkscape:version="0.92.5 (2060ec1f9f, 2020-04-08)">
  <metadata
     id="metadata12">
    <rdf:RDF>
      <cc:Work
         rdf:about="">
        <dc:format>image/svg+xml</dc:format>
        <dc:type
           rdf:resource="http://purl.org/dc/dcmitype/StillImage" />
        <dc:title></dc:title>
      </cc:Work>
    </rdf:RDF>
  </metadata>
  <defs
     id="defs10" />
  <sodipodi:namedview
     pagecolor="#ffffff"
     bordercolor="#666666"
     borderopacity="1"
     objecttolerance="10"
     gridtolerance="10"
     guidetolerance="10"
     inkscape:pageopacity="0"
     inkscape:pageshadow="2"
     inkscape:window-width="1085"
     inkscape:window-height="480"
     id="namedview8"
     showgrid="false"
     inkscape:zoom="4.9166667"
     inkscape:cx="2.1355932"
     inkscape:cy="24"
     inkscape:window-x="0"
     inkscape:window-y="25"
     inkscape:window-maximized="0"
     inkscape:current-layer="svg6" />
  <path
     d="M 6.34,0.075 A 6.295,6.295 0 0 0 0.055,6.36 6.295,6.295 0 0 0 6.34,12.655 6.295,6.295 0 0 0 12.634,6.36 6.295,6.295 0 0 0 6.34,0.075 Z m -0.011,0.94 a 5.408,5.408 0 0 1 5.397,5.387 5.407,5.407 0 0 1 -10.814,0 c 0,-2.987 2.43,-5.387 5.417,-5.387 z"
     id="path2"
     inkscape:connector-curvature="0"
     style="fill:#5beedc" />
  <path
     d="m 6.328,1.807 c -2.549,0 -4.622,2.048 -4.622,4.597 a 4.613,4.613 0 0 0 9.226,0 A 4.614,4.614 0 0 0 6.328,1.807 Z M 4.315,3.704 a 0.61,0.61 0 0 1 0.61,0.611 0.61,0.61 0 0 1 -0.61,0.61 0.61,0.61 0 0 1 -0.61,-0.61 0.61,0.61 0 0 1 0.61,-0.61 z m 2.035,0 A 0.61,0.61 0 0 1 6.96,4.315 0.61,0.61 0 0 1 6.35,4.925 0.61,0.61 0 0 1 5.74,4.315 0.61,0.61 0 0 1 6.35,3.705 Z m 2.035,0 a 0.61,0.61 0 0 1 0.61,0.611 0.61,0.61 0 0 1 -0.61,0.61 0.61,0.61 0 0 1 -0.61,-0.61 0.61,0.61 0 0 1 0.61,-0.61 z M 4.315,5.74 a 0.61,0.61 0 0 1 0.61,0.611 0.61,0.61 0 0 1 -0.61,0.61 0.61,0.61 0 0 1 -0.61,-0.61 0.61,0.61 0 0 1 0.61,-0.61 z m 2.035,0 A 0.61,0.61 0 0 1 6.96,6.351 0.61,0.61 0 0 1 6.35,6.961 0.61,0.61 0 0 1 5.74,6.351 0.61,0.61 0 0 1 6.35,5.741 Z m 2.035,0 a 0.61,0.61 0 0 1 0.61,0.611 0.61,0.61 0 0 1 -0.61,0.61 0.61,0.61 0 0 1 -0.61,-0.61 0.61,0.61 0 0 1 0.61,-0.61 z m -4.07,2.036 a 0.61,0.61 0 0 1 0.61,0.61 0.61,0.61 0 0 1 -0.61,0.61 0.61,0.61 0 0 1 -0.61,-0.61 0.61,0.61 0 0 1 0.61,-0.61 z m 2.035,0 a 0.61,0.61 0 0 1 0.61,0.61 0.61,0.61 0 0 1 -0.61,0.61 0.61,0.61 0 0 1 -0.61,-0.61 0.61,0.61 0 0 1 0.61,-0.61 z m 2.035,0 a 0.61,0.61 0 0 1 0.61,0.61 0.61,0.61 0 0 1 -0.61,0.61 0.61,0.61 0 0 1 -0.61,-0.61 0.61,0.61 0 0 1 0.61,-0.61 z"
     id="path4"
     inkscape:connector-curvature="0"
     style="opacity:0.8;fill:#008080" />
</svg>
