<?xml version="1.0" encoding="UTF-8" standalone="no"?>
<svg
   xmlns:dc="http://purl.org/dc/elements/1.1/"
   xmlns:cc="http://creativecommons.org/ns#"
   xmlns:rdf="http://www.w3.org/1999/02/22-rdf-syntax-ns#"
   xmlns:svg="http://www.w3.org/2000/svg"
   xmlns="http://www.w3.org/2000/svg"
   xmlns:sodipodi="http://sodipodi.sourceforge.net/DTD/sodipodi-0.dtd"
   xmlns:inkscape="http://www.inkscape.org/namespaces/inkscape"
   width="48"
   height="48"
   viewBox="0 0 12.7 12.7"
   version="1.1"
   id="svg10"
   sodipodi:docname="chrome-store.svg"
   inkscape:version="0.92.5 (2060ec1f9f, 2020-04-08)">
  <metadata
     id="metadata16">
    <rdf:RDF>
      <cc:Work
         rdf:about="">
        <dc:format>image/svg+xml</dc:format>
        <dc:type
           rdf:resource="http://purl.org/dc/dcmitype/StillImage" />
        <dc:title></dc:title>
      </cc:Work>
    </rdf:RDF>
  </metadata>
  <defs
     id="defs14" />
  <sodipodi:namedview
     pagecolor="#ffffff"
     bordercolor="#666666"
     borderopacity="1"
     objecttolerance="10"
     gridtolerance="10"
     guidetolerance="10"
     inkscape:pageopacity="0"
     inkscape:pageshadow="2"
     inkscape:window-width="1085"
     inkscape:window-height="480"
     id="namedview12"
     showgrid="false"
     inkscape:zoom="4.9166667"
     inkscape:cx="2.1355932"
     inkscape:cy="24"
     inkscape:window-x="0"
     inkscape:window-y="25"
     inkscape:window-maximized="0"
     inkscape:current-layer="svg10" />
  <path
     d="M 6.34,0.075 A 6.295,6.295 0 0 0 0.055,6.36 6.295,6.295 0 0 0 6.34,12.655 6.295,6.295 0 0 0 12.634,6.36 6.295,6.295 0 0 0 6.34,0.075 Z m -0.011,0.94 a 5.408,5.408 0 0 1 5.397,5.387 5.407,5.407 0 0 1 -10.814,0 c 0,-2.987 2.43,-5.387 5.417,-5.387 z M 6.391,1.42 a 1.69,1.69 0 0 0 -1.67,1.69 v 0.56 h -1.1 a 0.61,0.61 0 0 0 -0.6,0.61 v 4.229 c 0.077,-0.166 0.143,-0.33 0.25,-0.5 V 8.008 L 3.274,8.004 C 3.277,7.999 3.332,7.899 3.449,7.751 3.566,7.603 3.744,7.406 3.989,7.208 A 3.7,3.7 0 0 1 4.939,6.652 3.95,3.95 0 0 1 5.58,6.456 c 0.233,-0.05 0.486,-0.083 0.76,-0.094 0,0 0.137,-0.006 0.36,0.019 0.223,0.025 0.532,0.081 0.877,0.206 a 3.745,3.745 0 0 1 1.63,1.149 c 0.17,0.207 0.33,0.445 0.475,0.72 H 9.676 c 0.002,0.003 0.052,0.105 0.095,0.2 V 4.28 A 0.61,0.61 0 0 0 9.151,3.67 H 8.081 V 3.11 A 1.69,1.69 0 0 0 6.391,1.42 Z m 0.006,0.56 h 0.005 a 1.122,1.122 0 0 1 1.12,1.13 V 3.67 H 5.272 V 3.11 c 0,-0.628 0.497,-1.127 1.125,-1.13 z M 4.972,4.23 c 0.16,0 0.3,0.13 0.3,0.28 A 0.3,0.3 0 0 1 4.972,4.8 0.28,0.28 0 0 1 4.692,4.51 c 0,-0.15 0.12,-0.28 0.28,-0.28 z m 2.81,0 c 0.16,0 0.3,0.13 0.3,0.28 A 0.3,0.3 0 0 1 7.782,4.8 0.28,0.28 0 0 1 7.502,4.51 c 0,-0.15 0.12,-0.28 0.28,-0.28 z M 6.333,8.95 A 1.141,1.141 0 0 0 5.191,10.09 H 7.473 A 1.141,1.141 0 0 0 6.333,8.95 Z"
     id="path2"
     inkscape:connector-curvature="0"
     style="fill:#5beedc" />
  <path
     d="M 4.746,10.09 H 4.968 C 4.968,9.795 5.028,9.556 5.124,9.359 5.612,8.667 6.183,8.685 6.183,8.685 H 9.206 C 8.214,6.807 6.342,6.891 6.342,6.891 4.451,6.966 3.711,8.301 3.711,8.301 c 0,0 0.642,1.113 1.035,1.79 z"
     id="path4"
     inkscape:connector-curvature="0"
     style="opacity:0.9;fill:#e16b5a" />
  <path
     d="M 7.738,10.09 H 9.49 C 9.493,9.257 9.2,8.682 9.2,8.682 9.2,8.682 6.731,8.671 6.252,8.68 6.73,8.662 7.159,8.767 7.577,9.374 c 0.134,0.288 0.162,0.52 0.16,0.717 z"
     id="path6"
     inkscape:connector-curvature="0"
     style="opacity:0.9;fill:#ffd464" />
  <path
     d="M 3.22,10.09 H 4.749 L 3.713,8.3 C 3.296,8.96 3.214,9.558 3.22,10.092 Z"
     id="path8"
     inkscape:connector-curvature="0"
     style="opacity:0.9;fill:#74b340" />
</svg>
