<?xml version="1.0" encoding="UTF-8" standalone="no"?>
<svg
   xmlns:dc="http://purl.org/dc/elements/1.1/"
   xmlns:cc="http://creativecommons.org/ns#"
   xmlns:rdf="http://www.w3.org/1999/02/22-rdf-syntax-ns#"
   xmlns:svg="http://www.w3.org/2000/svg"
   xmlns="http://www.w3.org/2000/svg"
   xmlns:sodipodi="http://sodipodi.sourceforge.net/DTD/sodipodi-0.dtd"
   xmlns:inkscape="http://www.inkscape.org/namespaces/inkscape"
   width="48"
   height="48"
   viewBox="0 0 12.7 12.7"
   version="1.1"
   id="svg12"
   sodipodi:docname="chromium-browser.svg"
   inkscape:version="0.92.4 (5da689c313, 2019-01-14)">
  <metadata
     id="metadata18">
    <rdf:RDF>
      <cc:Work
         rdf:about="">
        <dc:format>image/svg+xml</dc:format>
        <dc:type
           rdf:resource="http://purl.org/dc/dcmitype/StillImage" />
        <dc:title></dc:title>
      </cc:Work>
    </rdf:RDF>
  </metadata>
  <defs
     id="defs16" />
  <sodipodi:namedview
     pagecolor="#ffffff"
     bordercolor="#666666"
     borderopacity="1"
     objecttolerance="10"
     gridtolerance="10"
     guidetolerance="10"
     inkscape:pageopacity="0"
     inkscape:pageshadow="2"
     inkscape:window-width="1087"
     inkscape:window-height="480"
     id="namedview14"
     showgrid="false"
     inkscape:zoom="4.9166667"
     inkscape:cx="2.1355932"
     inkscape:cy="24"
     inkscape:window-x="0"
     inkscape:window-y="25"
     inkscape:window-maximized="0"
     inkscape:current-layer="svg12" />
  <path
     d="m 6.344,0.073 a 6.29,6.29 0 0 0 -6.29,6.29 6.29,6.29 0 0 0 6.29,6.288 6.29,6.29 0 0 0 6.29,-6.289 6.29,6.29 0 0 0 -6.29,-6.29 z M 6.326,1.009 A 5.407,5.407 0 0 1 11.733,6.416 5.407,5.407 0 0 1 6.326,11.823 5.407,5.407 0 0 1 0.92,6.416 5.407,5.407 0 0 1 6.326,1.01 Z M 6.314,4.665 A 1.712,1.712 0 0 0 4.602,6.376 1.712,1.712 0 0 0 6.314,8.088 1.712,1.712 0 0 0 8.025,6.376 1.712,1.712 0 0 0 6.314,4.665 Z"
     id="path2"
     inkscape:connector-curvature="0"
     style="fill:#5beedc" />
  <g
     id="g10"
     style="fill:#2995cc">
    <path
       d="m 6.326,1.576 c 0,0 2.808,-0.126 4.296,2.691 H 6.087 c 0,0 -0.856,-0.027 -1.587,1.01 C 4.29,5.71 4.065,6.159 4.318,7.042 3.953,6.425 2.38,3.692 2.38,3.692 c 0,0 1.11,-2.004 3.946,-2.116 z"
       id="path4"
       inkscape:connector-curvature="0" />
    <path
       d="m 10.476,8.728 c 0,0 -1.295,2.49 -4.483,2.368 L 8.261,7.176 C 8.261,7.176 8.714,6.45 8.179,5.3 7.551,4.389 6.909,4.232 6.192,4.259 c 0.718,-0.014 4.421,0.003 4.421,0.003 0,0 1.184,1.961 -0.137,4.469 z"
       id="path6"
       inkscape:connector-curvature="0"
       style="opacity:0.4" />
    <path
       d="m 2.196,8.747 c 0,0 -1.513,-2.365 0.187,-5.06 L 4.65,7.61 c 0,0 0.403,0.754 1.668,0.867 C 6.8,8.442 7.302,8.411 7.942,7.752 c -0.353,0.624 -1.938,3.35 -1.938,3.35 0,0 -2.294,0.042 -3.808,-2.354 z"
       id="path8"
       inkscape:connector-curvature="0"
       style="opacity:0.7" />
  </g>
</svg>
