<?xml version="1.0" encoding="UTF-8" standalone="no"?>
<svg
   xmlns:dc="http://purl.org/dc/elements/1.1/"
   xmlns:cc="http://creativecommons.org/ns#"
   xmlns:rdf="http://www.w3.org/1999/02/22-rdf-syntax-ns#"
   xmlns:svg="http://www.w3.org/2000/svg"
   xmlns="http://www.w3.org/2000/svg"
   xmlns:sodipodi="http://sodipodi.sourceforge.net/DTD/sodipodi-0.dtd"
   xmlns:inkscape="http://www.inkscape.org/namespaces/inkscape"
   width="48"
   height="48"
   viewBox="0 0 12.7 12.7"
   version="1.1"
   id="svg8"
   sodipodi:docname="cisco-anyconnect.svg"
   inkscape:version="0.92.5 (2060ec1f9f, 2020-04-08)">
  <metadata
     id="metadata14">
    <rdf:RDF>
      <cc:Work
         rdf:about="">
        <dc:format>image/svg+xml</dc:format>
        <dc:type
           rdf:resource="http://purl.org/dc/dcmitype/StillImage" />
        <dc:title></dc:title>
      </cc:Work>
    </rdf:RDF>
  </metadata>
  <defs
     id="defs12" />
  <sodipodi:namedview
     pagecolor="#ffffff"
     bordercolor="#666666"
     borderopacity="1"
     objecttolerance="10"
     gridtolerance="10"
     guidetolerance="10"
     inkscape:pageopacity="0"
     inkscape:pageshadow="2"
     inkscape:window-width="1085"
     inkscape:window-height="480"
     id="namedview10"
     showgrid="false"
     inkscape:zoom="4.9166667"
     inkscape:cx="2.1355932"
     inkscape:cy="24"
     inkscape:window-x="0"
     inkscape:window-y="25"
     inkscape:window-maximized="0"
     inkscape:current-layer="svg8" />
  <path
     d="M 4.699,2.579 A 5.458,5.458 0 0 0 1.739,3.458 5.439,5.439 0 0 0 0.952,7.294 3.82,3.82 0 0 1 4.7,4.216 3.82,3.82 0 0 1 4.732,4.218 5.458,5.458 0 0 1 4.784,3.812 5.458,5.458 0 0 1 4.906,3.28 5.458,5.458 0 0 1 5.08,2.763 5.458,5.458 0 0 1 5.154,2.601 5.458,5.458 0 0 0 4.7,2.579 Z M 6.774,2.993 A 3.82,3.82 0 0 0 6.638,3.274 3.82,3.82 0 0 0 6.508,3.633 3.82,3.82 0 0 0 6.413,4.003 3.82,3.82 0 0 0 6.356,4.381 3.82,3.82 0 0 0 6.345,4.594 3.82,3.82 0 0 1 8.519,8.037 3.82,3.82 0 0 1 8.511,8.204 3.82,3.82 0 0 0 8.669,8.281 3.82,3.82 0 0 0 9.028,8.411 3.82,3.82 0 0 0 9.398,8.506 3.82,3.82 0 0 0 9.776,8.563 3.82,3.82 0 0 0 10.124,8.581 5.458,5.458 0 0 0 10.157,8.037 5.458,5.458 0 0 0 6.774,2.993 Z M 8.08,9.805 A 3.82,3.82 0 0 1 5.434,11.782 5.44,5.44 0 0 0 9.288,10.99 5.458,5.458 0 0 0 9.703,10.198 5.458,5.458 0 0 1 9.228,10.14 5.458,5.458 0 0 1 8.696,10.02 5.458,5.458 0 0 1 8.178,9.848 5.458,5.458 0 0 1 8.08,9.805 Z"
     id="path2"
     inkscape:connector-curvature="0"
     style="opacity:0.8;fill:#318bcf" />
  <path
     d="M 6.336,0.941 C 6.31,0.941 6.285,0.943 6.259,0.944 A 5.458,5.458 0 0 0 4.7,4.762 5.458,5.458 0 0 0 10.158,10.22 5.458,5.458 0 0 0 10.242,10.215 5.436,5.436 0 0 0 11.429,8.361 3.82,3.82 0 0 1 10.158,8.582 3.82,3.82 0 0 1 6.338,4.762 3.82,3.82 0 0 1 8.428,1.356 5.463,5.463 0 0 0 6.338,0.94 Z"
     id="path4"
     inkscape:connector-curvature="0"
     style="opacity:0.8;fill:#7bc450" />
  <path
     d="M 6.34,0.075 A 6.295,6.295 0 0 0 0.055,6.36 6.295,6.295 0 0 0 6.34,12.655 6.295,6.295 0 0 0 12.634,6.36 6.295,6.295 0 0 0 6.34,0.075 Z m -0.01,0.94 a 5.408,5.408 0 0 1 5.396,5.387 5.407,5.407 0 1 1 -10.814,0 c 0,-2.987 2.43,-5.387 5.417,-5.387 z"
     id="path6"
     inkscape:connector-curvature="0"
     style="fill:#5beedc" />
</svg>
