<?xml version="1.0" encoding="UTF-8" standalone="no"?>
<svg
   xmlns:dc="http://purl.org/dc/elements/1.1/"
   xmlns:cc="http://creativecommons.org/ns#"
   xmlns:rdf="http://www.w3.org/1999/02/22-rdf-syntax-ns#"
   xmlns:svg="http://www.w3.org/2000/svg"
   xmlns="http://www.w3.org/2000/svg"
   xmlns:sodipodi="http://sodipodi.sourceforge.net/DTD/sodipodi-0.dtd"
   xmlns:inkscape="http://www.inkscape.org/namespaces/inkscape"
   width="48"
   height="48"
   viewBox="0 0 12.7 12.7"
   version="1.1"
   id="svg6"
   sodipodi:docname="clamav.svg"
   inkscape:version="0.92.4 (5da689c313, 2019-01-14)">
  <metadata
     id="metadata12">
    <rdf:RDF>
      <cc:Work
         rdf:about="">
        <dc:format>image/svg+xml</dc:format>
        <dc:type
           rdf:resource="http://purl.org/dc/dcmitype/StillImage" />
        <dc:title></dc:title>
      </cc:Work>
    </rdf:RDF>
  </metadata>
  <defs
     id="defs10" />
  <sodipodi:namedview
     pagecolor="#ffffff"
     bordercolor="#666666"
     borderopacity="1"
     objecttolerance="10"
     gridtolerance="10"
     guidetolerance="10"
     inkscape:pageopacity="0"
     inkscape:pageshadow="2"
     inkscape:window-width="861"
     inkscape:window-height="480"
     id="namedview8"
     showgrid="false"
     inkscape:zoom="4.9166667"
     inkscape:cx="2.1355932"
     inkscape:cy="24"
     inkscape:window-x="0"
     inkscape:window-y="25"
     inkscape:window-maximized="0"
     inkscape:current-layer="svg6" />
  <path
     style="fill:#5beedc;stroke-width:3.77952766"
     d="M 23.976562 0.27148438 L 23.976562 0.27539062 A 23.773228 23.773228 0 0 0 0.203125 24.048828 A 23.773228 23.773228 0 0 0 23.976562 47.814453 A 23.773228 23.773228 0 0 0 47.75 24.044922 A 23.773228 23.773228 0 0 0 23.976562 0.27148438 z M 23.910156 3.8144531 A 20.435906 20.435906 0 0 1 44.345703 24.25 A 20.435906 20.435906 0 0 1 23.910156 44.685547 A 20.435906 20.435906 0 0 1 3.4765625 24.25 A 20.435906 20.435906 0 0 1 23.910156 3.8164062 L 23.910156 3.8144531 z M 10.884766 11.009766 C 9.5165766 12.65386 10.506588 16.509301 11.693359 17.71875 A 15.068976 15.068976 0 0 0 8.9355469 26.380859 A 15.063307 15.063307 0 1 0 39.060547 26.380859 A 15.068976 15.068976 0 0 0 36.404297 17.865234 C 38.305399 15.767597 38.380481 12.865514 37.378906 11.009766 C 36.195914 12.570711 35.32411 13.832737 33.748047 14.902344 A 15.065197 15.065197 0 0 0 24 11.320312 A 15.061417 15.061417 0 0 0 14.365234 14.820312 C 12.925234 13.769604 11.508388 12.162522 10.884766 11.009766 z M 13.115234 23.931641 L 17.513672 26.130859 C 16.946743 27.816529 17.511172 30.021682 18.951172 32.066406 L 18.960938 32.066406 C 18.110544 30.460107 18.122389 28.592352 18.976562 26.861328 L 23.138672 28.939453 C 21.468121 31.747642 17.957133 33.211462 15.164062 31.654297 A 5.4727559 5.4727559 0 0 1 13.115234 23.931641 z M 34.832031 23.931641 C 36.502582 26.664239 35.58018 30.093352 32.787109 31.654297 C 29.990259 33.215242 26.479272 31.747769 24.8125 28.943359 L 28.970703 26.861328 C 29.828656 28.592352 29.838675 30.460107 28.988281 32.066406 L 29 32.066406 C 30.43622 30.021682 31.004302 27.816529 30.433594 26.130859 L 34.832031 23.931641 z "
     transform="scale(0.26458333)"
     id="path2" />
</svg>
