<?xml version="1.0" encoding="UTF-8" standalone="no"?>
<svg
   xmlns:dc="http://purl.org/dc/elements/1.1/"
   xmlns:cc="http://creativecommons.org/ns#"
   xmlns:rdf="http://www.w3.org/1999/02/22-rdf-syntax-ns#"
   xmlns:svg="http://www.w3.org/2000/svg"
   xmlns="http://www.w3.org/2000/svg"
   xmlns:sodipodi="http://sodipodi.sourceforge.net/DTD/sodipodi-0.dtd"
   xmlns:inkscape="http://www.inkscape.org/namespaces/inkscape"
   width="48"
   height="48"
   viewBox="0 0 12.7 12.7"
   version="1.1"
   id="svg4"
   sodipodi:docname="clang.svg"
   inkscape:version="0.92.5 (2060ec1f9f, 2020-04-08)">
  <metadata
     id="metadata10">
    <rdf:RDF>
      <cc:Work
         rdf:about="">
        <dc:format>image/svg+xml</dc:format>
        <dc:type
           rdf:resource="http://purl.org/dc/dcmitype/StillImage" />
        <dc:title></dc:title>
      </cc:Work>
    </rdf:RDF>
  </metadata>
  <defs
     id="defs8" />
  <sodipodi:namedview
     pagecolor="#ffffff"
     bordercolor="#666666"
     borderopacity="1"
     objecttolerance="10"
     gridtolerance="10"
     guidetolerance="10"
     inkscape:pageopacity="0"
     inkscape:pageshadow="2"
     inkscape:window-width="1085"
     inkscape:window-height="480"
     id="namedview6"
     showgrid="false"
     inkscape:zoom="4.9166667"
     inkscape:cx="2.1355932"
     inkscape:cy="24"
     inkscape:window-x="0"
     inkscape:window-y="25"
     inkscape:window-maximized="0"
     inkscape:current-layer="svg4" />
  <path
     d="M 6.34,0.075 A 6.295,6.295 0 0 0 2.634,1.297 c 0.288,0.23 0.531,0.434 0.72,0.607 A 5.414,5.414 0 0 1 6.329,1.014 5.408,5.408 0 0 1 9.461,2.027 C 9.483,1.94 9.493,1.863 9.598,1.679 9.658,1.574 9.844,1.364 9.948,1.221 A 6.295,6.295 0 0 0 6.34,0.075 Z m 4.575,1.006 C 10.027,2.071 9.893,2.517 9.879,2.672 a 0.145,0.155 0 0 0 -0.11,0.15 0.145,0.155 0 0 0 0.098,0.147 c 0.02,0.19 0.042,0.588 0.036,1.138 A 4.088,4.088 0 0 1 9.676,5.383 C 9.668,5.379 9.661,5.375 9.656,5.376 9.629,5.378 9.514,5.572 9.478,5.657 A 0.171,0.171 0 0 0 9.48,5.804 3.534,3.534 0 0 1 9.477,5.809 0.072,0.072 0 0 0 9.464,5.843 3.534,3.534 0 0 1 9.247,6.263 0.112,0.112 0 0 0 9.237,6.256 0.083,0.083 0 0 0 9.178,6.268 C 9.154,6.287 9.1,6.368 8.921,6.458 A 0.703,0.703 0 0 1 8.755,6.518 C 8.812,6.228 8.859,5.892 8.881,5.501 A 2.634,2.634 0 0 0 8.851,4.9 L 8.852,4.892 8.85,4.896 A 2.13,2.13 0 0 0 8.686,4.363 V 4.36 4.361 C 8.378,3.696 7.77,3.358 7.256,3.341 H 7.19 L 7.191,3.329 C 7.202,3.279 7.204,3.263 7.146,3.312 A 0.449,0.449 0 0 0 7.115,3.342 1.972,1.972 0 0 0 7.042,3.347 0.331,0.331 0 0 1 7.04,3.287 C 7.042,3.249 7.052,3.223 6.995,3.272 A 0.266,0.266 0 0 0 6.92,3.362 L 6.88,3.369 C 6.871,3.348 6.851,3.315 6.854,3.286 6.859,3.225 6.877,3.214 6.835,3.253 A 0.436,0.436 0 0 0 6.721,3.407 L 6.705,3.413 6.672,3.423 C 6.664,3.414 6.634,3.388 6.627,3.331 6.62,3.273 6.621,3.244 6.587,3.304 A 0.59,0.59 0 0 0 6.518,3.485 1.336,1.336 0 0 0 6.471,3.508 0.139,0.139 0 0 1 6.441,3.418 C 6.439,3.344 6.463,3.284 6.407,3.384 A 0.84,0.84 0 0 0 6.331,3.594 1.182,1.182 0 0 0 6.277,3.634 1.26,1.26 0 0 1 6.273,3.546 C 6.271,3.474 6.283,3.394 6.237,3.534 A 0.99,0.99 0 0 0 6.202,3.701 1.079,1.079 0 0 0 5.868,4.513 v 0.008 c 0,0.055 0.003,0.107 0.008,0.156 C 5.886,4.804 5.905,4.91 5.931,4.999 5.882,5.066 5.878,5.355 5.926,5.422 5.963,5.474 6.168,5.595 6.222,5.624 A 0.195,0.195 0 0 1 6.28,5.681 C 6.337,5.78 6.336,5.971 6.292,6.07 6.236,6.193 6.347,6.217 6.439,6.236 A 0.335,0.335 0 0 0 6.625,6.216 L 6.632,6.213 C 6.654,6.203 6.671,6.189 6.678,6.174 6.703,6.125 6.598,6.014 6.555,5.788 6.512,5.561 6.623,5.543 6.623,5.543 c 0,0 0.049,0.012 0.122,0.129 0.057,0.09 0.117,0.161 0.173,0.212 A 0.368,0.368 0 0 1 6.815,5.974 0.313,0.313 0 0 0 6.972,5.929 0.393,0.393 0 0 0 7.008,5.952 0.512,0.512 0 0 1 6.983,5.978 0.262,0.262 0 0 0 7.038,5.967 c 0.014,0.005 0.028,0.009 0.04,0.01 A 0.007,0.007 0 0 0 7.083,5.979 L 7.089,5.978 C 7.173,5.975 7.377,5.787 7.377,5.751 7.377,5.737 7.362,5.721 7.339,5.701 L 7.269,5.643 A 0.577,0.577 0 0 1 7.193,5.567 C 7.12,5.475 7.119,5.353 7.119,5.353 L 7.128,5.343 V 5.344 L 7.129,5.34 C 7.156,5.3 7.209,5.145 6.886,4.782 A 1.569,1.569 0 0 0 6.409,4.418 C 6.388,4.175 6.486,3.948 6.729,3.835 H 6.731 A 0.967,0.967 0 0 1 7.187,3.763 C 7.556,3.782 7.836,3.959 8.028,4.225 8.281,4.593 8.388,5.133 8.305,5.676 8.272,5.709 8.278,5.714 8.299,5.715 A 2.423,2.423 0 0 1 8.271,5.856 L 8.257,5.864 c -0.064,0.038 -0.037,0.037 0,0.047 L 8.254,5.921 C 8.244,5.954 8.232,5.988 8.22,6.021 A 0.47,0.47 0 0 0 8.175,6.036 C 8.105,6.064 8.133,6.067 8.169,6.083 L 8.191,6.095 A 2.992,2.992 0 0 1 8.139,6.218 0.427,0.427 0 0 0 8.097,6.227 C 8.024,6.245 8.052,6.252 8.085,6.273 8.093,6.277 8.1,6.283 8.106,6.287 A 3.458,3.458 0 0 1 8.05,6.398 0.417,0.417 0 0 0 7.972,6.41 C 7.898,6.43 7.926,6.436 7.959,6.456 A 0.337,0.337 0 0 1 8.002,6.487 L 7.958,6.562 7.94,6.592 A 0.311,0.311 0 0 0 7.834,6.603 C 7.76,6.623 7.788,6.629 7.821,6.649 A 0.35,0.35 0 0 1 7.876,6.691 4.57,4.57 0 0 1 7.81,6.785 0.267,0.267 0 0 0 7.692,6.782 C 7.617,6.792 7.643,6.802 7.674,6.826 7.709,6.854 7.726,6.877 7.735,6.887 L 7.703,6.93 C 7.68,6.9 7.626,6.867 7.576,6.831 A 0.437,0.437 0 0 0 7.426,6.764 C 7.401,6.764 7.324,6.903 6.9,6.866 6.477,6.829 6.45,6.788 6.414,6.788 c -0.036,0 -0.116,0.03 -0.118,0.03 A 4.317,4.317 0 0 1 5.404,6.125 c 0,0 0.057,-0.064 -0.024,-0.146 A 1.993,1.993 0 0 0 5.083,5.754 3.684,3.684 0 0 1 4.718,5.087 C 4.472,4.535 4.452,4.153 4.464,3.987 A 0.213,0.213 0 0 0 4.545,3.819 0.213,0.213 0 0 0 4.361,3.609 C 4.253,3.384 3.841,2.827 2.272,1.644 3.8,2.953 4.098,3.465 4.176,3.678 A 0.213,0.213 0 0 0 4.163,3.695 9.661,9.661 0 0 0 3.23,3.043 c -0.67,-0.4 -0.973,-0.45 -0.973,-0.45 0,0 0.106,0.099 0.09,0.148 C 2.33,2.79 1.654,2.644 0.945,3.117 0.27,3.567 0.147,3.886 0.147,3.886 c 0,0 0.284,-0.397 0.816,-0.675 -0.007,0.175 -0.024,1.018 0.23,2.13 0.275,1.201 0.794,2.323 0.835,2.412 0.003,0.09 0.008,0.14 0.008,0.14 0,0 0.077,-0.924 0.39,-1.885 0.09,0.146 0.392,0.578 1.074,1.084 0.842,0.626 1.226,0.794 1.24,0.8 l 0.003,0.123 c 0,0 0.003,-0.058 0.01,-0.135 C 4.776,7.845 4.907,7.657 5.037,7.533 5.189,7.389 5.301,7.319 5.317,7.309 5.333,7.365 5.349,7.413 5.365,7.451 A 5.947,5.947 0 0 1 5.338,7.305 C 5.394,7.31 5.616,7.34 5.961,7.509 6.139,7.596 6.276,7.713 6.374,7.817 A 2.697,2.697 0 0 0 6.366,7.82 c 0,0 0.065,0.057 0.14,0.207 A 1.25,1.25 0 0 0 6.128,8.071 1.492,1.492 0 0 0 6.078,7.974 0.248,0.248 0 0 0 6.058,7.904 C 6.043,7.871 6.007,7.852 5.971,7.831 A 0.207,0.207 0 0 0 5.919,7.793 0.117,0.117 0 0 1 5.89,7.756 C 5.847,7.661 5.477,7.762 5.403,7.849 5.313,7.955 5.295,8.089 5.331,8.163 5.342,8.187 5.368,8.206 5.402,8.22 5.403,8.335 5.473,8.608 5.611,8.805 A 2.6,2.6 0 0 1 5.556,8.464 0.76,0.76 0 0 1 5.563,8.279 c 0.024,0.17 0.09,0.353 0.296,0.58 L 5.862,8.862 5.86,8.859 5.862,8.86 A 1.005,1.005 0 0 1 5.76,8.274 L 5.766,8.247 h 0.002 c 0.02,0.135 0.074,0.275 0.25,0.497 L 6.012,8.732 6.017,8.742 A 0.84,0.84 0 0 1 5.924,8.262 L 5.931,8.209 5.935,8.207 a 0.265,0.265 0 0 1 0.07,0.066 c 0.066,0.089 0.097,0.181 0.11,0.244 A 0.227,0.275 23.56 0 0 6.148,8.714 C 6.019,8.809 5.893,8.897 5.768,8.979 L 5.75,8.991 A 10.193,10.193 0 0 1 5.447,9.18 L 5.431,9.19 5.4,9.207 A 7.004,7.004 0 0 1 5.17,9.335 L 5.1,9.295 H 5.103 L 5.098,9.293 C 4.598,9.005 4.225,8.812 3.798,8.735 3.316,8.648 2.873,8.881 2.772,9.294 a 0.67,0.67 0 0 0 0.344,0.749 l 0.013,0.007 0.022,0.011 0.026,0.014 0.015,0.006 c 0.015,0.007 0.03,0.014 0.047,0.02 l 0.003,10e-4 0.052,0.019 h 10e-4 a 1.181,1.181 0 0 0 0.14,0.037 l 0.014,0.003 c 0.078,0.015 0.162,0.026 0.255,0.03 0.504,0.025 1.114,-0.21 1.717,-0.507 L 5.58,9.769 c 1.316,0.726 2.118,0.82 3.18,0.377 a 3.925,3.925 0 0 1 -0.718,0.16 0.035,0.035 0 0 0 -10e-4,0 c -0.113,0.013 -0.234,0.02 -0.362,0.018 A 0.026,0.026 0 0 0 7.667,10.32 l 0.001,0.004 A 2.863,2.863 0 0 1 7.333,10.299 C 7.328,10.297 7.323,10.297 7.318,10.297 V 10.295 A 0.138,0.138 0 0 0 7.316,10.297 3.284,3.284 0 0 1 6.513,10.07 4.079,4.079 0 0 1 6.128,9.884 C 5.938,9.779 5.768,9.682 5.608,9.59 5.817,9.483 6.023,9.37 6.222,9.262 6.359,9.189 6.484,9.121 6.586,9.064 L 6.618,9.047 6.621,9.046 A 0.006,0.006 0 0 1 6.624,9.045 l 0.08,-0.02 C 6.792,8.997 6.916,8.947 7.063,8.878 7.077,8.938 7.111,8.99 7.163,9.01 7.285,9.057 7.374,9.023 7.433,8.956 A 0.073,0.073 0 0 0 7.443,8.951 L 7.469,8.931 C 7.495,8.916 7.522,8.898 7.547,8.886 A 0.588,0.588 0 0 1 7.634,8.856 L 7.652,8.851 C 7.577,9.004 7.605,9.151 7.605,9.151 7.627,8.958 7.719,8.836 7.808,8.781 A 0.675,0.675 0 0 1 7.912,8.746 c 0.032,0 0.059,0.012 0.074,0.036 0.036,0.062 0.112,0.1 0.188,0.117 C 8.186,8.977 8.151,9.107 7.969,9.345 8.104,9.255 8.194,9.172 8.251,9.097 A 0.455,0.455 0 0 0 8.324,8.971 C 8.33,9.074 8.302,9.231 8.164,9.505 L 8.172,9.498 C 8.199,9.474 8.319,9.361 8.409,9.212 L 8.421,9.194 c 0,-0.003 0.003,-0.005 0.004,-0.007 L 8.428,9.18 C 8.432,9.279 8.423,9.41 8.396,9.586 8.573,9.241 8.564,9.029 8.52,8.904 A 0.301,0.301 0 0 0 8.514,8.882 0.332,0.332 0 0 0 8.509,8.849 L 8.531,8.819 C 8.592,8.733 8.506,8.641 8.451,8.605 8.421,8.585 8.348,8.525 8.217,8.524 8.101,8.384 7.954,8.446 7.721,8.598 A 0.668,0.668 0 0 1 7.636,8.646 0.365,0.365 0 0 0 7.607,8.586 C 7.691,8.536 7.776,8.483 7.863,8.426 8.025,8.32 8.146,8.213 8.236,8.111 8.501,7.843 8.595,7.583 8.864,7.361 L 8.858,7.363 8.888,7.346 C 9.331,7.109 9.565,7.063 9.581,7.06 L 9.579,7.126 9.589,7.062 a 0.928,0.928 0 0 1 0.249,0.177 1.096,1.096 0 0 1 0.186,0.251 l 0.023,0.157 c 0,0 0,-0.06 -0.005,-0.171 0.079,-0.079 0.527,-0.54 0.891,-1.276 a 5.9,5.9 0 0 0 0.526,-1.511 c 0.235,0.673 0.343,1.275 0.343,1.275 0,0 0,-0.069 -0.015,-0.194 0.05,-0.175 0.266,-0.968 0.324,-1.941 0.052,-0.876 -0.034,-1.442 -0.072,-1.641 0.335,0.278 0.513,0.676 0.513,0.676 0,0 -0.077,-0.32 -0.5,-0.769 -0.445,-0.473 -0.87,-0.327 -0.88,-0.376 -0.01,-0.05 0.056,-0.147 0.056,-0.147 0,0 -0.19,0.049 -0.611,0.45 -0.27,0.257 -0.5,0.533 -0.615,0.677 A 0.145,0.155 0 0 0 9.99,2.69 C 10.03,2.52 10.175,2.115 10.915,1.081 Z M 0.393,4.358 A 6.295,6.295 0 0 0 0.055,6.36 6.295,6.295 0 0 0 6.34,12.655 6.295,6.295 0 0 0 12.634,6.36 6.295,6.295 0 0 0 12.486,5.029 c -0.07,0.264 -0.171,0.594 -0.33,0.99 -0.15,0.37 -0.31,0.668 -0.46,0.943 A 5.407,5.407 0 0 1 0.916,6.542 C 0.783,6.168 0.643,5.786 0.542,5.342 0.453,4.955 0.428,4.662 0.393,4.358 Z m 5.78,3.816 a 0.943,0.943 0 0 1 0.157,0.1 0.227,0.275 23.56 0 0 -0.002,0 H 6.327 A 0.227,0.275 23.56 0 0 6.247,8.31 0.493,0.493 0 0 1 6.182,8.194 L 6.174,8.174 Z m -2.51,0.811 c 0.08,0 0.168,0.01 0.264,0.034 L 3.95,9.025 3.961,9.028 A 1.911,1.911 0 0 1 4.11,9.078 11.01,11.01 0 0 1 4.954,9.445 C 4.842,9.499 4.738,9.545 4.66,9.578 4.134,9.795 3.71,9.858 3.447,9.782 2.959,9.643 3.054,8.988 3.664,8.985 Z"
     id="path2"
     inkscape:connector-curvature="0"
     style="fill:#5beedc" />
</svg>
