<?xml version="1.0" encoding="UTF-8" standalone="no"?>
<svg
   xmlns:dc="http://purl.org/dc/elements/1.1/"
   xmlns:cc="http://creativecommons.org/ns#"
   xmlns:rdf="http://www.w3.org/1999/02/22-rdf-syntax-ns#"
   xmlns:svg="http://www.w3.org/2000/svg"
   xmlns="http://www.w3.org/2000/svg"
   xmlns:sodipodi="http://sodipodi.sourceforge.net/DTD/sodipodi-0.dtd"
   xmlns:inkscape="http://www.inkscape.org/namespaces/inkscape"
   width="48"
   height="48"
   viewBox="0 0 12.7 12.7"
   version="1.1"
   id="svg4"
   sodipodi:docname="clion.svg"
   inkscape:version="0.92.5 (2060ec1f9f, 2020-04-08)">
  <defs
     id="defs8">
  <style
     id="current-color-scheme"
     type="text/css">
      .ColorScheme-Highlight {
        color:#5beedc;
      }
  </style>
  </defs>
  <path
     class="ColorScheme-Highlight"
     style="fill:#5beedc"
     d="M 24 0 A 24 24 0 0 0 0 24 A 24 24 0 0 0 24 48 A 24 24 0 0 0 48 24 A 24 24 0 0 0 24 0 z M 24 3 A 21 21 0 0 1 45 24 A 21 21 0 0 1 24 45 A 21 21 0 0 1 3 24 A 21 21 0 0 1 24 3 z M 24 7 A 17.000006 17.000006 0 0 0 7 24 A 17.000006 17.000006 0 0 0 24 41 A 17.000006 17.000006 0 0 0 41 24 A 17.000006 17.000006 0 0 0 24 7 z M 19.998047 18.960938 C 21.391047 18.960938 22.647687 19.530219 23.554688 20.449219 L 22.144531 21.867188 C 21.600531 21.308189 20.840047 20.958984 19.998047 20.958984 C 18.341047 20.958984 16.998047 22.301984 16.998047 23.958984 C 16.998047 25.615984 18.341047 26.958984 19.998047 26.958984 C 20.813047 26.958984 21.550797 26.631516 22.091797 26.103516 L 23.507812 27.515625 C 22.604814 28.407625 21.367047 28.960937 19.998047 28.960938 C 17.237047 28.960937 14.998047 26.721936 14.998047 23.960938 C 14.998047 21.199936 17.237047 18.960937 19.998047 18.960938 z M 26 19 L 28 19 L 28 27 L 33 27 L 33 29 L 28 29 L 26 29 L 26 27 L 26 19 z M 17 32 L 31 32 L 31 34 L 17 34 L 17 32 z "
     transform="scale(0.26458333)"
     id="path843" />
</svg>
