<?xml version="1.0" encoding="UTF-8" standalone="no"?>
<svg
   xmlns:dc="http://purl.org/dc/elements/1.1/"
   xmlns:cc="http://creativecommons.org/ns#"
   xmlns:rdf="http://www.w3.org/1999/02/22-rdf-syntax-ns#"
   xmlns:svg="http://www.w3.org/2000/svg"
   xmlns="http://www.w3.org/2000/svg"
   xmlns:sodipodi="http://sodipodi.sourceforge.net/DTD/sodipodi-0.dtd"
   xmlns:inkscape="http://www.inkscape.org/namespaces/inkscape"
   width="48"
   height="48"
   viewBox="0 0 12.7 12.7"
   version="1.1"
   id="svg4"
   sodipodi:docname="cockos-reaper.svg"
   inkscape:version="0.92.5 (2060ec1f9f, 2020-04-08)">
  <defs
     id="defs8">
  <style
     id="current-color-scheme"
     type="text/css">
      .ColorScheme-Highlight {
        color:#5beedc;
      }
  </style>
  </defs>
  <path
     class="ColorScheme-Highlight"
     style="fill:#5beedc"
     d="M 24 0 A 24 24 0 0 0 0 24 A 24 24 0 0 0 24 48 A 24 24 0 0 0 48 24 A 24 24 0 0 0 24 0 z M 24 3 A 21 21 0 0 1 45 24 A 21 21 0 0 1 24 45 A 21 21 0 0 1 3 24 A 21 21 0 0 1 24 3 z M 21.353516 12.033203 C 18.586116 12.055123 15.805786 12.545559 13.367188 13.480469 L 12 14 L 13.203125 16.277344 C 14.016105 17.870743 15.513019 19.723565 17.886719 22.259766 C 21.561019 26.096765 22.959231 28.406703 23.707031 31.658203 C 24.227321 33.901803 24.162148 38.486643 23.609375 40.339844 C 22.926604 42.550947 23.479002 41.965244 24.519531 39.396484 C 25.592631 36.762583 25.982331 32.111894 25.332031 29.121094 C 24.779311 26.389694 23.023287 23.202707 20.617188 20.503906 C 19.446588 19.203206 18.275825 17.7078 18.015625 17.1875 C 17.560405 16.30955 17.561767 16.212622 18.082031 15.919922 C 19.805531 15.009522 22.763714 14.455078 25.820312 14.455078 C 29.787313 14.487528 33.039106 15.431989 36.128906 17.480469 C 37.234406 18.228349 37.885043 18.55227 37.527344 18.162109 C 36.551854 17.089109 32.843366 14.748391 30.697266 13.837891 C 29.624666 13.382851 27.60984 12.798559 26.244141 12.505859 L 26.242188 12.505859 C 24.669786 12.176919 23.013316 12.020063 21.353516 12.033203 z "
     transform="scale(0.26458333)"
     id="path821" />
</svg>
