<?xml version="1.0" encoding="UTF-8" standalone="no"?>
<svg
   xmlns:dc="http://purl.org/dc/elements/1.1/"
   xmlns:cc="http://creativecommons.org/ns#"
   xmlns:rdf="http://www.w3.org/1999/02/22-rdf-syntax-ns#"
   xmlns:svg="http://www.w3.org/2000/svg"
   xmlns="http://www.w3.org/2000/svg"
   xmlns:sodipodi="http://sodipodi.sourceforge.net/DTD/sodipodi-0.dtd"
   xmlns:inkscape="http://www.inkscape.org/namespaces/inkscape"
   width="48"
   height="48"
   viewBox="0 0 12.7 12.7"
   version="1.1"
   id="svg4"
   sodipodi:docname="visual-studio-code-insiders.svg"
   inkscape:version="0.92.5 (2060ec1f9f, 2020-04-08)">
  <defs
     id="defs8">
  <style
     id="current-color-scheme"
     type="text/css">
      .ColorScheme-Highlight {
        color:#5beedc;
      }
  </style>
  </defs>
  <path
     class="ColorScheme-Highlight"
     style="fill:#5beedc"
     d="M 24 0 A 24 24 0 0 0 0 24 A 24 24 0 0 0 24 48 A 24 24 0 0 0 48 24 A 24 24 0 0 0 24 0 z M 24 3 A 21 21 0 0 1 45 24 A 21 21 0 0 1 24 45 A 21 21 0 0 1 3 24 A 21 21 0 0 1 24 3 z "
     transform="scale(0.26458333)"
     id="path817" />
  <path
     style="fill:#00aa00"
     d="M 6.8791666,2.1166666 7.9478351,8.742102 1.8520833,8.9958332 8.2020833,10.31875 10.054167,9.2604166 8.9958333,2.38125 Z M 5.0270833,3.7041666 3.4840251,5.8084309 2.1166667,5.0270833 1.5875,5.2916666 3.0556274,6.3928913 2.1166667,7.6729166 H 2.6458333 L 3.5527546,6.7659953 5.8208333,8.4666666 6.8791666,7.6729166 6.35,3.96875 Z M 5.2539428,5.064807 5.5769205,7.0042235 4.1372152,6.1815347 Z"
     id="path827"
     inkscape:connector-curvature="0" />
</svg>
