<?xml version="1.0" encoding="UTF-8" standalone="no"?>
<svg
   xmlns:dc="http://purl.org/dc/elements/1.1/"
   xmlns:cc="http://creativecommons.org/ns#"
   xmlns:rdf="http://www.w3.org/1999/02/22-rdf-syntax-ns#"
   xmlns:svg="http://www.w3.org/2000/svg"
   xmlns="http://www.w3.org/2000/svg"
   xmlns:sodipodi="http://sodipodi.sourceforge.net/DTD/sodipodi-0.dtd"
   xmlns:inkscape="http://www.inkscape.org/namespaces/inkscape"
   width="48"
   height="48"
   viewBox="0 0 12.7 12.7"
   version="1.1"
   id="svg4"
   sodipodi:docname="mendeley-desktop.svg"
   inkscape:version="0.92.4 (5da689c313, 2019-01-14)">
  <metadata
     id="metadata10">
    <rdf:RDF>
      <cc:Work
         rdf:about="">
        <dc:format>image/svg+xml</dc:format>
        <dc:type
           rdf:resource="http://purl.org/dc/dcmitype/StillImage" />
        <dc:title></dc:title>
      </cc:Work>
    </rdf:RDF>
  </metadata>
  <defs
     id="defs8" />
  <sodipodi:namedview
     pagecolor="#ffffff"
     bordercolor="#666666"
     borderopacity="1"
     objecttolerance="10"
     gridtolerance="10"
     guidetolerance="10"
     inkscape:pageopacity="0"
     inkscape:pageshadow="2"
     inkscape:window-width="1138"
     inkscape:window-height="480"
     id="namedview6"
     showgrid="false"
     inkscape:zoom="4.9166667"
     inkscape:cx="2.1355932"
     inkscape:cy="24"
     inkscape:window-x="0"
     inkscape:window-y="25"
     inkscape:window-maximized="0"
     inkscape:current-layer="svg4" />
  <path
     d="m 6.344,0.072 a 6.29,6.29 0 0 0 -6.29,6.29 6.29,6.29 0 0 0 6.29,6.289 6.29,6.29 0 0 0 6.29,-6.29 6.29,6.29 0 0 0 -6.29,-6.29 z M 6.326,1.009 A 5.407,5.407 0 0 1 11.733,6.416 5.407,5.407 0 0 1 6.326,11.823 5.407,5.407 0 0 1 0.92,6.416 5.407,5.407 0 0 1 6.326,1.01 Z M 4.106,3.44 C 3.761,3.45 3.428,3.607 3.172,3.844 A 1.5,1.5 0 0 0 2.688,4.769 c -0.019,0.177 0,0.36 0.058,0.528 C 2.804,5.465 2.901,5.62 3.031,5.74 3.185,5.881 3.377,5.97 3.553,6.081 3.641,6.137 3.726,6.198 3.799,6.272 A 0.7,0.7 0 0 1 3.966,6.536 C 3.996,6.624 4.003,6.72 3.99,6.813 A 0.682,0.682 0 0 1 3.894,7.074 0.832,0.832 0 0 1 3.463,7.409 C 3.261,7.481 3.039,7.484 2.844,7.574 A 0.8,0.8 0 0 0 2.48,7.921 0.858,0.858 0 0 0 2.387,8.42 0.91,0.91 0 0 0 2.646,8.953 0.956,0.956 0 0 0 3.977,8.963 0.89,0.89 0 0 0 4.231,8.151 C 4.209,8.04 4.165,7.935 4.125,7.829 A 1.215,1.215 0 0 1 4.037,7.503 0.757,0.757 0 0 1 4.225,6.953 0.942,0.942 0 0 1 4.728,6.661 0.961,0.961 0 0 1 5.106,6.648 0.798,0.798 0 0 1 5.453,6.797 0.69,0.69 0 0 1 5.68,7.1 C 5.725,7.22 5.733,7.357 5.697,7.48 A 1.058,1.058 0 0 1 5.501,7.82 C 5.421,7.923 5.338,8.028 5.291,8.15 A 0.712,0.712 0 0 0 5.269,8.58 0.86,0.86 0 0 0 5.479,8.954 C 5.589,9.07 5.729,9.157 5.88,9.204 6.032,9.252 6.186,9.26 6.345,9.26 6.503,9.26 6.668,9.252 6.82,9.205 A 0.944,0.944 0 0 0 7.22,8.955 0.86,0.86 0 0 0 7.431,8.579 0.712,0.712 0 0 0 7.409,8.15 C 7.362,8.028 7.279,7.923 7.199,7.82 A 1.058,1.058 0 0 1 7.003,7.48 0.611,0.611 0 0 1 7.02,7.1 0.69,0.69 0 0 1 7.247,6.797 0.798,0.798 0 0 1 7.594,6.647 0.961,0.961 0 0 1 7.972,6.661 0.942,0.942 0 0 1 8.475,6.953 C 8.605,7.103 8.68,7.305 8.663,7.503 8.653,7.616 8.616,7.724 8.575,7.829 8.535,7.935 8.491,8.039 8.469,8.15 A 0.89,0.89 0 0 0 8.723,8.962 0.954,0.954 0 0 0 10.054,8.952 0.91,0.91 0 0 0 10.314,8.42 0.858,0.858 0 0 0 10.22,7.921 0.8,0.8 0 0 0 9.856,7.574 C 9.661,7.484 9.439,7.481 9.237,7.409 A 0.832,0.832 0 0 1 8.807,7.074 0.682,0.682 0 0 1 8.71,6.813 0.605,0.605 0 0 1 8.734,6.536 0.7,0.7 0 0 1 8.901,6.272 C 8.974,6.198 9.059,6.137 9.147,6.082 9.323,5.971 9.515,5.882 9.669,5.74 9.799,5.62 9.896,5.465 9.954,5.297 10.012,5.128 10.031,4.947 10.012,4.769 A 1.5,1.5 0 0 0 9.528,3.844 1.468,1.468 0 0 0 8.594,3.44 1.195,1.195 0 0 0 8.087,3.534 C 7.928,3.602 7.785,3.708 7.674,3.844 A 1.93,1.93 0 0 0 7.396,4.374 C 7.323,4.562 7.255,4.753 7.145,4.92 6.963,5.196 6.677,5.459 6.35,5.459 6.023,5.459 5.737,5.196 5.555,4.92 5.445,4.753 5.377,4.562 5.305,4.374 A 1.93,1.93 0 0 0 5.025,3.844 1.087,1.087 0 0 0 4.612,3.534 1.192,1.192 0 0 0 4.106,3.44 Z M 6.35,5.997 A 0.53,0.538 0 0 1 6.88,6.536 0.53,0.538 0 0 1 6.35,7.074 0.53,0.538 0 0 1 5.82,6.536 0.53,0.538 0 0 1 6.35,5.997 Z"
     id="path2"
     inkscape:connector-curvature="0"
     style="fill:#5beedc" />
</svg>
