<?xml version="1.0" encoding="UTF-8" standalone="no"?>
<svg
   xmlns:dc="http://purl.org/dc/elements/1.1/"
   xmlns:cc="http://creativecommons.org/ns#"
   xmlns:rdf="http://www.w3.org/1999/02/22-rdf-syntax-ns#"
   xmlns:svg="http://www.w3.org/2000/svg"
   xmlns="http://www.w3.org/2000/svg"
   xmlns:sodipodi="http://sodipodi.sourceforge.net/DTD/sodipodi-0.dtd"
   xmlns:inkscape="http://www.inkscape.org/namespaces/inkscape"
   width="48"
   height="48"
   viewBox="0 0 12.7 12.7"
   version="1.1"
   id="svg4"
   sodipodi:docname="vidcutter.svg"
   inkscape:version="0.92.4 (5da689c313, 2019-01-14)">
  <metadata
     id="metadata10">
    <rdf:RDF>
      <cc:Work
         rdf:about="">
        <dc:format>image/svg+xml</dc:format>
        <dc:type
           rdf:resource="http://purl.org/dc/dcmitype/StillImage" />
        <dc:title></dc:title>
      </cc:Work>
    </rdf:RDF>
  </metadata>
  <defs
     id="defs8" />
  <sodipodi:namedview
     pagecolor="#ffffff"
     bordercolor="#666666"
     borderopacity="1"
     objecttolerance="10"
     gridtolerance="10"
     guidetolerance="10"
     inkscape:pageopacity="0"
     inkscape:pageshadow="2"
     inkscape:window-width="1109"
     inkscape:window-height="480"
     id="namedview6"
     showgrid="false"
     inkscape:zoom="4.9166667"
     inkscape:cx="2.1355932"
     inkscape:cy="24"
     inkscape:window-x="0"
     inkscape:window-y="25"
     inkscape:window-maximized="0"
     inkscape:current-layer="svg4" />
  <path
     d="m 6.344,0.072 a 6.29,6.29 0 0 0 -6.29000003,6.29 6.29,6.29 0 0 0 0.406,2.203 6.29,6.29 0 0 0 0.09,0.25 6.29,6.29 0 0 0 0.274,0.565 A 6.29,6.29 0 0 0 1.153,9.916 a 6.29,6.29 0 0 0 0.38,0.5 6.29,6.29 0 0 0 0.43,0.46 6.29,6.29 0 0 0 0.472,0.415 6.29,6.29 0 0 0 0.511,0.366 6.29,6.29 0 0 0 0.546,0.313 6.29,6.29 0 0 0 0.335,0.15 6.29,6.29 0 0 0 2.516,0.532 6.29,6.29 0 0 0 6.29,-6.29 A 6.29,6.29 0 0 0 12.103,3.846 6.29,6.29 0 0 0 6.344,0.072 Z M 6.326,1.009 A 5.407,5.407 0 0 1 7.806,1.22 L 7.805,1.221 1.129,7.897 A 5.407,5.407 0 0 1 0.91899997,6.417 5.407,5.407 0 0 1 6.327,1.01 Z M 7.904,1.741 8.692,2.529 7.904,3.317 7.117,2.529 Z m 2.3,0.909 A 5.407,5.407 0 0 1 10.562,3.055 5.407,5.407 0 0 0 10.205,2.65 Z M 6.328,3.317 7.117,4.105 6.328,4.893 5.54,4.105 Z M 9.874,3.711 10.662,4.498 9.874,5.287 9.086,4.498 Z m 1.523,0.84 A 5.407,5.407 0 0 1 11.733,6.416 5.407,5.407 0 0 1 6.326,11.823 5.407,5.407 0 0 1 4.463,11.484 L 11.397,4.552 Z M 4.753,4.893 5.54,5.681 4.753,6.469 3.965,5.681 Z M 8.297,5.287 9.086,6.075 8.297,6.863 7.51,6.075 Z M 3.177,6.469 3.965,7.257 3.177,8.045 2.388,7.257 Z M 6.722,6.863 7.51,7.651 6.722,8.439 5.935,7.651 Z M 1.6,8.045 2.388,8.833 1.822,9.399 A 5.407,5.407 0 0 1 1.284,8.362 Z M 5.146,8.439 5.935,9.227 5.146,10.014 4.358,9.227 Z M 3.57,10.014 4.358,10.802 3.913,11.247 A 5.407,5.407 0 0 1 2.951,10.633 l 0.62,-0.62 z"
     id="path2"
     inkscape:connector-curvature="0"
     style="fill:#5beedc" />
</svg>
