<?xml version="1.0" encoding="UTF-8" standalone="no"?>
<svg
   xmlns:dc="http://purl.org/dc/elements/1.1/"
   xmlns:cc="http://creativecommons.org/ns#"
   xmlns:rdf="http://www.w3.org/1999/02/22-rdf-syntax-ns#"
   xmlns:svg="http://www.w3.org/2000/svg"
   xmlns="http://www.w3.org/2000/svg"
   xmlns:sodipodi="http://sodipodi.sourceforge.net/DTD/sodipodi-0.dtd"
   xmlns:inkscape="http://www.inkscape.org/namespaces/inkscape"
   width="48"
   height="48"
   viewBox="0 0 12.7 12.7"
   version="1.1"
   id="svg4"
   sodipodi:docname="rider.svg"
   inkscape:version="0.92.5 (2060ec1f9f, 2020-04-08)">
  <defs
     id="defs8">
  <style
     id="current-color-scheme"
     type="text/css">
      .ColorScheme-Highlight {
        color:#5beedc;
      }
  </style>
  </defs>
  <path
     class="ColorScheme-Highlight"
     style="fill:#5beedc"
     d="M 24 0 A 24 24 0 0 0 0 24 A 24 24 0 0 0 24 48 A 24 24 0 0 0 48 24 A 24 24 0 0 0 24 0 z M 24 3 A 21 21 0 0 1 45 24 A 21 21 0 0 1 24 45 A 21 21 0 0 1 3 24 A 21 21 0 0 1 24 3 z M 24 7 A 17.000006 17.000006 0 0 0 7 24 A 17.000006 17.000006 0 0 0 24 41 A 17.000006 17.000006 0 0 0 41 24 A 17.000006 17.000006 0 0 0 24 7 z M 25 19 L 27 19 L 28 19 A 4.9999994 4.9999994 0 0 1 33 24 A 4.9999994 4.9999994 0 0 1 28 29 L 27 29 L 25 29 L 25 19 z M 14 19.011719 L 19.058594 19.011719 C 19.968594 19.011719 20.687797 19.229065 21.216797 19.664062 C 21.875797 20.201063 22.205078 21.178936 22.205078 22.085938 C 22.205078 23.385947 21.479453 24.406953 20.005859 24.847656 L 22.519531 29.039062 L 20.285156 29.039062 L 17.914062 25.085938 L 16.048828 25.085938 L 16.048828 29 L 14 29 L 14 19.011719 z M 16.048828 20.738281 L 16.048828 23.400391 L 18.5 23.400391 C 19.058 23.400391 19.465565 23.295889 19.726562 23.087891 C 19.986564 22.879892 20.117186 22.531014 20.117188 22.041016 C 20.117188 21.699014 20.027568 21.417313 19.851562 21.195312 C 19.600567 20.890315 19.202297 20.738281 18.654297 20.738281 L 16.048828 20.738281 z M 27 21 L 27 27 L 28 27 A 3 3 0 0 0 28.212891 26.992188 A 3 3 0 0 0 28.509766 26.957031 A 3 3 0 0 0 28.802734 26.890625 A 3 3 0 0 0 29.087891 26.796875 A 3 3 0 0 0 29.361328 26.673828 A 3 3 0 0 0 29.621094 26.523438 A 3 3 0 0 0 29.865234 26.349609 A 3 3 0 0 0 30.089844 26.152344 A 3 3 0 0 0 30.294922 25.933594 A 3 3 0 0 0 30.476562 25.693359 A 3 3 0 0 0 30.632812 25.4375 A 3 3 0 0 0 30.763672 25.167969 A 3 3 0 0 0 30.865234 24.886719 A 3 3 0 0 0 30.939453 24.595703 A 3 3 0 0 0 30.984375 24.298828 A 3 3 0 0 0 31 24 A 3 3 0 0 0 30.992188 23.787109 A 3 3 0 0 0 30.957031 23.490234 A 3 3 0 0 0 30.890625 23.197266 A 3 3 0 0 0 30.796875 22.912109 A 3 3 0 0 0 30.673828 22.638672 A 3 3 0 0 0 30.523438 22.378906 A 3 3 0 0 0 30.349609 22.134766 A 3 3 0 0 0 30.152344 21.910156 A 3 3 0 0 0 29.933594 21.705078 A 3 3 0 0 0 29.693359 21.523438 A 3 3 0 0 0 29.4375 21.367188 A 3 3 0 0 0 29.167969 21.236328 A 3 3 0 0 0 28.886719 21.134766 A 3 3 0 0 0 28.595703 21.060547 A 3 3 0 0 0 28.298828 21.015625 A 3 3 0 0 0 28 21 L 27 21 z M 17 32 L 31 32 L 31 34 L 17 34 L 17 32 z "
     transform="scale(0.26458333)"
     id="path838" />
</svg>
