<?xml version="1.0" encoding="UTF-8" standalone="no"?>
<svg
   xmlns:dc="http://purl.org/dc/elements/1.1/"
   xmlns:cc="http://creativecommons.org/ns#"
   xmlns:rdf="http://www.w3.org/1999/02/22-rdf-syntax-ns#"
   xmlns:svg="http://www.w3.org/2000/svg"
   xmlns="http://www.w3.org/2000/svg"
   xmlns:sodipodi="http://sodipodi.sourceforge.net/DTD/sodipodi-0.dtd"
   xmlns:inkscape="http://www.inkscape.org/namespaces/inkscape"
   width="48"
   height="48"
   viewBox="0 0 12.7 12.7"
   version="1.1"
   id="svg4"
   sodipodi:docname="audiobook.svg"
   inkscape:version="0.92.5 (2060ec1f9f, 2020-04-08)">
  <defs
     id="defs8">
  <style
     id="current-color-scheme"
     type="text/css">
      .ColorScheme-Highlight {
        color:#5beedc;
      }
  </style>
  </defs>
  <path
     class="ColorScheme-Highlight"
     style="fill:#5beedc"
     d="M 24 0 A 24 24 0 0 0 0 24 A 24 24 0 0 0 24 48 A 24 24 0 0 0 48 24 A 24 24 0 0 0 24 0 z M 24 3 A 21 21 0 0 1 45 24 A 21 21 0 0 1 24 45 A 21 21 0 0 1 3 24 A 21 21 0 0 1 24 3 z M 14 10 C 12.892 10 12 10.892 12 12 L 12 36 C 12 37.108 12.892 38 14 38 L 23 38 L 23 36 L 16 36 L 16 12 L 24 12 L 24 23 L 27 20 L 30 23 L 30 12 L 33 12 C 33.553999 12 34 12.446 34 13 L 34 26 L 36 26 L 36 12 C 36 10.892 35.107999 10 34 10 L 30 10 L 24 10 L 14 10 z M 31 28 A 6 6 0 0 0 25 34 A 6 6 0 0 0 31 40 L 31 28 z M 33.361328 28.492188 L 32.96875 29.404297 A 4.9999996 4.9999996 0 0 1 33.396484 29.611328 A 4.9999996 4.9999996 0 0 1 33.822266 29.873047 A 4.9999996 4.9999996 0 0 1 34.220703 30.175781 A 4.9999996 4.9999996 0 0 1 34.585938 30.515625 A 4.9999996 4.9999996 0 0 1 34.916016 30.892578 A 4.9999996 4.9999996 0 0 1 35.207031 31.298828 A 4.9999996 4.9999996 0 0 1 35.455078 31.732422 A 4.9999996 4.9999996 0 0 1 35.660156 32.1875 A 4.9999996 4.9999996 0 0 1 35.818359 32.662109 A 4.9999996 4.9999996 0 0 1 35.927734 33.150391 A 4.9999996 4.9999996 0 0 1 35.988281 33.646484 A 4.9999996 4.9999996 0 0 1 36 34 A 4.9999996 4.9999996 0 0 1 35.974609 34.5 A 4.9999996 4.9999996 0 0 1 35.900391 34.994141 A 4.9999996 4.9999996 0 0 1 35.777344 35.478516 A 4.9999996 4.9999996 0 0 1 35.605469 35.947266 A 4.9999996 4.9999996 0 0 1 35.388672 36.396484 A 4.9999996 4.9999996 0 0 1 35.126953 36.822266 A 4.9999996 4.9999996 0 0 1 34.824219 37.220703 A 4.9999996 4.9999996 0 0 1 34.484375 37.585938 A 4.9999996 4.9999996 0 0 1 34.107422 37.916016 A 4.9999996 4.9999996 0 0 1 33.701172 38.207031 A 4.9999996 4.9999996 0 0 1 33.267578 38.455078 A 4.9999996 4.9999996 0 0 1 32.966797 38.589844 L 33.363281 39.511719 A 5.9999996 5.9999996 0 0 0 37 34 A 5.9999996 5.9999996 0 0 0 33.361328 28.492188 z M 33.826172 31.173828 L 33.119141 31.880859 A 3 3 0 0 1 33.152344 31.910156 A 3 3 0 0 1 33.349609 32.134766 A 3 3 0 0 1 33.523438 32.378906 A 3 3 0 0 1 33.673828 32.638672 A 3 3 0 0 1 33.796875 32.912109 A 3 3 0 0 1 33.890625 33.197266 A 3 3 0 0 1 33.957031 33.490234 A 3 3 0 0 1 33.992188 33.787109 A 3 3 0 0 1 34 34 A 3 3 0 0 1 33.984375 34.298828 A 3 3 0 0 1 33.939453 34.595703 A 3 3 0 0 1 33.865234 34.886719 A 3 3 0 0 1 33.763672 35.167969 A 3 3 0 0 1 33.632812 35.4375 A 3 3 0 0 1 33.476562 35.693359 A 3 3 0 0 1 33.294922 35.933594 A 3 3 0 0 1 33.119141 36.119141 L 33.826172 36.826172 A 3.9999996 3.9999996 0 0 0 35 34 A 3.9999996 3.9999996 0 0 0 33.826172 31.173828 z "
     transform="scale(0.26458333)"
     id="path845" />
</svg>
