<?xml version="1.0" encoding="UTF-8" standalone="no"?>
<svg
   xmlns:dc="http://purl.org/dc/elements/1.1/"
   xmlns:cc="http://creativecommons.org/ns#"
   xmlns:rdf="http://www.w3.org/1999/02/22-rdf-syntax-ns#"
   xmlns:svg="http://www.w3.org/2000/svg"
   xmlns="http://www.w3.org/2000/svg"
   xmlns:sodipodi="http://sodipodi.sourceforge.net/DTD/sodipodi-0.dtd"
   xmlns:inkscape="http://www.inkscape.org/namespaces/inkscape"
   width="48"
   height="48"
   viewBox="0 0 12.7 12.7"
   version="1.1"
   id="svg4"
   sodipodi:docname="tuxmath.svg"
   inkscape:version="0.92.4 (5da689c313, 2019-01-14)">
  <metadata
     id="metadata10">
    <rdf:RDF>
      <cc:Work
         rdf:about="">
        <dc:format>image/svg+xml</dc:format>
        <dc:type
           rdf:resource="http://purl.org/dc/dcmitype/StillImage" />
        <dc:title></dc:title>
      </cc:Work>
    </rdf:RDF>
  </metadata>
  <defs
     id="defs8" />
  <sodipodi:namedview
     pagecolor="#ffffff"
     bordercolor="#666666"
     borderopacity="1"
     objecttolerance="10"
     gridtolerance="10"
     guidetolerance="10"
     inkscape:pageopacity="0"
     inkscape:pageshadow="2"
     inkscape:window-width="1087"
     inkscape:window-height="480"
     id="namedview6"
     showgrid="false"
     inkscape:zoom="4.9166667"
     inkscape:cx="2.1355932"
     inkscape:cy="24"
     inkscape:window-x="0"
     inkscape:window-y="25"
     inkscape:window-maximized="0"
     inkscape:current-layer="svg4" />
  <path
     d="M 6.34,0.07 A 6.29,6.29 0 0 0 0.05,6.37 6.29,6.29 0 0 0 6.35,12.65 6.29,6.29 0 0 0 12.63,6.36 6.29,6.29 0 0 0 6.34,0.07 Z M 6.32,1 6.33,1.01 a 5.4,5.4 0 0 1 5.4,5.4 5.4,5.4 0 0 1 -5.4,5.41 A 5.4,5.4 0 0 1 0.92,6.42 5.4,5.4 0 0 1 6.32,1 Z M 6.54,1.85 H 6.36 C 4.79,1.99 5.2,3.64 5.19,4.2 a 2,2 0 0 1 -0.4,1.12 5.53,5.53 0 0 0 -1,1.67 2,2 0 0 0 -0.1,0.92 0.69,0.69 0 0 0 -0.05,0.04 C 3.54,8.05 3.48,8.18 3.4,8.26 3.32,8.33 3.22,8.36 3.1,8.4 A 0.53,0.53 0 0 0 2.78,8.65 0.45,0.45 0 0 0 2.74,8.87 c 0,0.07 0,0.14 0.02,0.2 0.02,0.14 0.04,0.27 0.01,0.36 -0.1,0.25 -0.1,0.43 -0.04,0.55 0.07,0.13 0.2,0.18 0.35,0.22 0.3,0.06 0.7,0.04 1.03,0.21 0.34,0.18 0.69,0.25 0.96,0.18 0.2,-0.04 0.37,-0.16 0.45,-0.35 0.22,0 0.46,-0.1 0.84,-0.11 0.26,-0.02 0.58,0.09 0.95,0.07 l 0.04,0.12 a 0.7,0.7 0 0 0 0.7,0.4 c 0.29,-0.03 0.6,-0.2 0.84,-0.49 L 8.84,10.19 8.89,10.23 C 9.12,9.95 9.51,9.83 9.77,9.67 9.9,9.6 10,9.5 10.01,9.36 10.01,9.22 9.93,9.06 9.74,8.85 9.68,8.77 9.65,8.65 9.62,8.5 9.59,8.36 9.55,8.21 9.44,8.12 A 0.47,0.47 0 0 0 9.29,8.03 2,2 0 0 0 9.23,6.66 4.6,4.6 0 0 0 8.43,5.38 C 8.13,5 7.84,4.65 7.85,4.13 7.85,3.33 7.94,1.86 6.54,1.86 Z m 0.18,1.22 c 0.08,0 0.15,0.03 0.22,0.08 a 0.5,0.5 0 0 1 0.17,0.2 C 7.15,3.44 7.17,3.53 7.17,3.63 A 0.67,0.67 0 0 1 7.03,4.05 2.6,2.6 0 0 0 6.9,4 L 6.82,3.98 C 6.84,3.95 6.88,3.93 6.89,3.89 6.91,3.85 6.92,3.79 6.92,3.74 6.92,3.68 6.92,3.64 6.9,3.58 A 0.28,0.28 0 0 0 6.83,3.47 0.14,0.14 0 0 0 6.73,3.42 0.15,0.15 0 0 0 6.63,3.46 0.28,0.28 0 0 0 6.55,3.57 0.46,0.46 0 0 0 6.52,3.82 1.13,1.13 0 0 0 6.3,3.75 V 3.66 c 0,-0.11 0.01,-0.2 0.05,-0.3 A 0.5,0.5 0 0 1 6.51,3.16 0.35,0.35 0 0 1 6.73,3.08 Z M 5.64,3.16 c 0.05,0 0.1,0.02 0.15,0.06 0.05,0.04 0.09,0.1 0.12,0.17 0.04,0.07 0.06,0.15 0.06,0.24 v 0.1 A 0.66,0.66 0 0 0 5.79,3.82 0.42,0.42 0 0 0 5.76,3.6 0.23,0.23 0 0 0 5.7,3.5 0.1,0.1 0 0 0 5.63,3.48 C 5.6,3.48 5.58,3.49 5.56,3.52 a 0.23,0.23 0 0 0 -0.05,0.1 0.4,0.4 0 0 0 0.02,0.26 0.23,0.23 0 0 0 0.08,0.1 L 5.54,4.03 5.5,4.06 A 0.45,0.45 0 0 1 5.4,3.91 0.68,0.68 0 0 1 5.34,3.67 c 0,-0.1 0,-0.17 0.03,-0.25 A 0.43,0.43 0 0 1 5.47,3.23 0.23,0.23 0 0 1 5.64,3.16 Z m 0.5,0.62 c 0.12,0 0.26,0.04 0.44,0.16 0.11,0.07 0.2,0.07 0.4,0.16 0.09,0.04 0.14,0.09 0.17,0.14 a 0.2,0.2 0 0 1 0,0.17 C 7.11,4.53 6.96,4.66 6.76,4.72 6.66,4.76 6.58,4.82 6.47,4.89 6.37,4.94 6.26,4.99 6.1,4.99 A 0.48,0.48 0 0 1 5.82,4.87 C 5.74,4.81 5.68,4.74 5.59,4.69 5.44,4.6 5.36,4.51 5.33,4.42 5.31,4.34 5.33,4.27 5.41,4.22 L 5.58,4.08 5.65,4.03 C 5.71,3.97 5.81,3.86 5.96,3.81 6.01,3.79 6.06,3.78 6.13,3.78 Z M 5.98,3.93 H 5.92 C 5.9,3.95 5.86,3.96 5.87,3.99 l 0.05,0.02 c 0.02,0 0.03,-0.02 0.05,-0.03 0.02,0 0.05,0 0.06,-0.03 L 6.02,3.93 Z m 0.3,0 H 6.25 L 6.23,3.95 c 0.01,0.02 0.05,0.02 0.07,0.03 0.01,0.01 0.03,0.03 0.05,0.03 0.02,0 0.04,0 0.05,-0.02 C 6.4,3.96 6.36,3.95 6.34,3.94 A 0.15,0.15 0 0 0 6.28,3.93 Z M 6.94,4.25 C 6.9,4.25 6.9,4.29 6.84,4.33 L 6.6,4.5 A 1.2,1.2 0 0 1 6.08,4.68 0.7,0.7 0 0 1 5.65,4.51 L 5.52,4.39 C 5.49,4.37 5.49,4.31 5.44,4.31 5.42,4.31 5.41,4.37 5.47,4.42 l 0.14,0.12 c 0.11,0.1 0.27,0.19 0.47,0.19 0.2,0 0.4,-0.1 0.55,-0.19 C 6.72,4.5 6.83,4.42 6.89,4.36 6.96,4.3 6.99,4.26 6.94,4.25 Z m 0.23,0.28 c 0.13,0.53 0.44,1.28 0.64,1.65 0.1,0.2 0.32,0.62 0.4,1.12 0.07,0 0.13,0 0.2,0.03 C 8.65,6.71 8.21,6.04 8.01,5.86 7.92,5.78 7.92,5.74 7.96,5.75 c 0.22,0.19 0.5,0.58 0.61,1.02 0.05,0.2 0.06,0.4 0,0.61 L 8.65,7.42 C 9.03,7.6 9.18,7.77 9.11,7.99 H 9.04 C 9.09,7.81 8.97,7.69 8.64,7.53 8.3,7.39 8.04,7.4 7.99,7.7 L 7.98,7.75 A 0.52,0.52 0 0 0 7.9,7.79 C 7.74,7.87 7.66,8.03 7.6,8.22 7.56,8.42 7.55,8.65 7.53,8.92 7.53,9.05 7.47,9.22 7.42,9.42 6.86,9.82 6.09,9.98 5.44,9.54 A 2.91,2.91 0 0 0 5.19,9.2 C 5.25,9.2 5.31,9.19 5.36,9.17 5.41,9.14 5.46,9.1 5.47,9.05 5.51,8.94 5.47,8.79 5.35,8.61 A 2.34,2.34 0 0 0 4.68,8.05 0.94,0.94 0 0 1 4.26,7.53 C 4.2,7.34 4.21,7.13 4.26,6.93 4.34,6.53 4.58,6.14 4.72,5.9 4.76,5.87 4.74,5.96 4.57,6.26 4.43,6.54 4.15,7.18 4.53,7.69 A 3,3 0 0 1 4.77,6.62 C 4.97,6.15 5.41,5.32 5.45,4.67 l 0.1,0.07 C 5.64,4.79 5.7,4.86 5.77,4.92 A 0.54,0.54 0 0 0 6.14,5.05 C 6.29,5.05 6.41,5 6.51,4.95 6.61,4.88 6.7,4.81 6.78,4.79 6.95,4.73 7.09,4.64 7.17,4.53 Z M 6.67,5.91 6.21,6.01 V 6.25 L 6.68,6.15 V 7.62 H 6.25 V 7.84 H 7.36 V 7.62 H 6.93 V 5.92 H 6.67 Z M 5.1,7.01 V 7.23 H 5.8 V 7 H 5.1 Z M 7.99,7.88 C 8,8.11 8.11,8.34 8.31,8.38 8.53,8.45 8.84,8.26 8.98,8.11 h 0.07 c 0.12,0 0.22,0 0.32,0.08 0.08,0.07 0.11,0.2 0.14,0.33 0.04,0.14 0.06,0.29 0.16,0.4 C 9.85,9.12 9.91,9.25 9.9,9.34 9.9,9.43 9.83,9.49 9.72,9.56 9.48,9.7 9.07,9.83 8.81,10.15 8.58,10.42 8.3,10.57 8.05,10.59 A 0.57,0.57 0 0 1 7.47,10.25 C 7.39,10.1 7.42,9.87 7.49,9.63 7.55,9.38 7.65,9.13 7.66,8.93 7.67,8.66 7.69,8.43 7.73,8.25 7.78,8.08 7.85,7.95 7.97,7.89 Z m -4,0.02 a 0.4,0.4 0 0 1 0.06,0 C 4.19,7.92 4.31,8.02 4.43,8.18 L 4.76,8.79 C 4.86,8.99 5.04,9.19 5.2,9.4 5.37,9.61 5.49,9.82 5.47,9.98 5.45,10.26 5.3,10.41 5.06,10.47 4.82,10.52 4.49,10.47 4.17,10.3 3.81,10.1 3.39,10.13 3.11,10.07 2.98,10.04 2.89,10 2.85,9.92 2.81,9.84 2.8,9.7 2.89,9.46 2.94,9.33 2.9,9.18 2.89,9.05 2.86,8.91 2.85,8.79 2.89,8.7 2.96,8.58 3.05,8.54 3.15,8.5 3.26,8.47 3.39,8.44 3.49,8.33 3.59,8.23 3.66,8.11 3.74,8.03 3.81,7.95 3.88,7.9 3.98,7.9 Z"
     id="path2"
     inkscape:connector-curvature="0"
     style="fill:#5beedc" />
</svg>
