<?xml version="1.0" encoding="UTF-8" standalone="no"?>
<svg
   xmlns:dc="http://purl.org/dc/elements/1.1/"
   xmlns:cc="http://creativecommons.org/ns#"
   xmlns:rdf="http://www.w3.org/1999/02/22-rdf-syntax-ns#"
   xmlns:svg="http://www.w3.org/2000/svg"
   xmlns="http://www.w3.org/2000/svg"
   xmlns:sodipodi="http://sodipodi.sourceforge.net/DTD/sodipodi-0.dtd"
   xmlns:inkscape="http://www.inkscape.org/namespaces/inkscape"
   width="48"
   height="48"
   viewBox="0 0 12.7 12.7"
   version="1.1"
   id="svg4"
   sodipodi:docname="com.github.philip-scott.notes-up.svg"
   inkscape:version="0.92.5 (2060ec1f9f, 2020-04-08)">
  <defs
     id="defs8">
  <style
     id="current-color-scheme"
     type="text/css">
      .ColorScheme-Highlight {
        color:#5beedc;
      }
  </style>
  </defs>
  <path
     class="ColorScheme-Highlight"
     style="fill:#5beedc"
     d="M 24 0 A 24 24 0 0 0 0 24 A 24 24 0 0 0 24 48 A 24 24 0 0 0 48 24 A 24 24 0 0 0 24 0 z M 24 3 A 21 21 0 0 1 45 24 A 21 21 0 0 1 24 45 A 21 21 0 0 1 3 24 A 21 21 0 0 1 24 3 z M 24 6.1679688 L 30 8.4824219 L 24 6.1679688 z M 14 10 C 12.892 10 12 10.892 12 12 L 12 36 C 12 37.108 12.892 38 14 38 L 34 38 C 35.108 38 36 37.108 36 36 L 36 12 C 36 10.892 35.108 10 34 10 L 30 10 L 30 12 L 33 12 C 33.554 12 34 12.446 34 13 L 34 35 C 34 35.554 33.554 36 33 36 L 16 36 L 16 12 L 24 12 L 24 10 L 14 10 z "
     transform="scale(0.26458333)"
     id="path836" />
  <path
     style="fill:#2ad4ff"
     d="M 24 10 L 24 12 L 24 23 L 27 20 L 30 23 L 30 12 L 30 10 L 24 10 z "
     id="path834"
     transform="scale(0.26458333)" />
</svg>
