<?xml version="1.0" encoding="UTF-8" standalone="no"?>
<svg
   xmlns:dc="http://purl.org/dc/elements/1.1/"
   xmlns:cc="http://creativecommons.org/ns#"
   xmlns:rdf="http://www.w3.org/1999/02/22-rdf-syntax-ns#"
   xmlns:svg="http://www.w3.org/2000/svg"
   xmlns="http://www.w3.org/2000/svg"
   xmlns:sodipodi="http://sodipodi.sourceforge.net/DTD/sodipodi-0.dtd"
   xmlns:inkscape="http://www.inkscape.org/namespaces/inkscape"
   width="48"
   height="48"
   viewBox="0 0 12.7 12.7"
   version="1.1"
   id="svg4"
   sodipodi:docname="abiword.svg"
   inkscape:version="0.92.5 (2060ec1f9f, 2020-04-08)">
  <defs
     id="defs8">
  <style
     id="current-color-scheme"
     type="text/css">
      .ColorScheme-Highlight {
        color:#5beedc;
      }
  </style>
  </defs>
  <path
     class="ColorScheme-Highlight"
     style="fill:#5beedc"
     d="M 24 0 A 24 24 0 0 0 0 24 A 24 24 0 0 0 24 48 A 24 24 0 0 0 48 24 A 24 24 0 0 0 24 0 z M 24 3 A 21 21 0 0 1 45 24 A 21 21 0 0 1 24 45 A 21 21 0 0 1 3 24 A 21 21 0 0 1 24 3 z M 24.783203 10.005859 C 23.833497 9.9370199 22.851338 10.671457 22.195312 11.349609 C 19.447112 14.18221 17.773113 17.878066 16.132812 21.447266 C 14.219813 25.671165 12.964369 30.172903 12.042969 34.720703 C 11.719939 36.252303 13.252935 37.365925 14.615234 36.890625 C 18.388535 36.084075 21.933884 34.390719 25.271484 32.449219 C 27.194785 31.288519 29.044431 29.971641 30.644531 28.369141 C 26.019461 30.718898 21.258531 32.924806 16.205078 34.099609 C 14.575878 34.091409 15.379438 31.911528 15.642578 30.923828 C 16.905778 26.727828 18.865515 22.798374 20.728516 18.859375 C 21.466346 17.614775 21.990915 15.900775 23.478516 15.421875 C 24.923516 15.256865 25.872594 16.692534 26.621094 17.740234 C 29.681594 22.557434 32.570569 27.501359 35.105469 32.630859 C 35.747489 33.967859 36.3777 35.311403 37 36.658203 C 35.1496 28.895903 32.657778 21.19664 28.642578 14.306641 C 27.742498 12.945941 26.923384 11.467747 25.708984 10.373047 C 25.413109 10.139532 25.099772 10.028806 24.783203 10.005859 z "
     transform="scale(0.26458333)"
     id="path817" />
</svg>
