<?xml version="1.0" encoding="UTF-8" standalone="no"?>
<svg
   xmlns:dc="http://purl.org/dc/elements/1.1/"
   xmlns:cc="http://creativecommons.org/ns#"
   xmlns:rdf="http://www.w3.org/1999/02/22-rdf-syntax-ns#"
   xmlns:svg="http://www.w3.org/2000/svg"
   xmlns="http://www.w3.org/2000/svg"
   xmlns:sodipodi="http://sodipodi.sourceforge.net/DTD/sodipodi-0.dtd"
   xmlns:inkscape="http://www.inkscape.org/namespaces/inkscape"
   width="48"
   height="48"
   viewBox="0 0 12.7 12.7"
   version="1.1"
   id="svg4"
   sodipodi:docname="glipper.svg"
   inkscape:version="0.92.5 (2060ec1f9f, 2020-04-08)">
  <defs
     id="defs8">
  <style
     id="current-color-scheme"
     type="text/css">
      .ColorScheme-Highlight {
        color:#5beedc;
      }
  </style>
  </defs>
  <path
     class="ColorScheme-Highlight"
     style="fill:#5beedc"
     d="M 24 0 A 24 24 0 0 0 0 24 A 24 24 0 0 0 24 48 A 24 24 0 0 0 48 24 A 24 24 0 0 0 24 0 z M 24 3 A 21 21 0 0 1 45 24 A 21 21 0 0 1 24 45 A 21 21 0 0 1 3 24 A 21 21 0 0 1 24 3 z M 24 8 A 3.9999996 3.9999996 0 0 0 20.132812 11 L 13 11 C 11.892 11 11 11.892 11 13 L 11 38 C 11 39.108003 11.892 40 13 40 L 35 40 C 36.108 40 37 39.108003 37 38 L 37 13 C 37 11.892 36.108 11 35 11 L 27.869141 11 A 3.9999996 3.9999996 0 0 0 24 8 z M 24 10 A 1.9999999 1.9999999 0 0 1 26 12 A 1.9999999 1.9999999 0 0 1 24 14 A 1.9999999 1.9999999 0 0 1 22 12 A 1.9999999 1.9999999 0 0 1 24 10 z M 13 14 L 17 14 L 17 18 L 31 18 L 31 14 L 35 14 L 35 38 L 13 38 L 13 14 z "
     transform="scale(0.26458333)"
     id="path817" />
</svg>
