<?xml version="1.0" encoding="UTF-8" standalone="no"?>
<svg
   xmlns:dc="http://purl.org/dc/elements/1.1/"
   xmlns:cc="http://creativecommons.org/ns#"
   xmlns:rdf="http://www.w3.org/1999/02/22-rdf-syntax-ns#"
   xmlns:svg="http://www.w3.org/2000/svg"
   xmlns="http://www.w3.org/2000/svg"
   xmlns:sodipodi="http://sodipodi.sourceforge.net/DTD/sodipodi-0.dtd"
   xmlns:inkscape="http://www.inkscape.org/namespaces/inkscape"
   width="48"
   height="48"
   viewBox="0 0 12.7 12.7"
   version="1.1"
   id="svg4"
   sodipodi:docname="calibre-viewer.svg"
   inkscape:version="0.92.5 (2060ec1f9f, 2020-04-08)">
  <defs
     id="defs8">
  <style
     id="current-color-scheme"
     type="text/css">
      .ColorScheme-Highlight {
        color:#5beedc;
      }
  </style>
  </defs>
  <path
     class="ColorScheme-Highlight"
     style="fill:#5beedc"
     d="M 24 0 A 24 24 0 0 0 0 24 A 24 24 0 0 0 24 48 A 24 24 0 0 0 38.833984 42.833984 L 38.041016 42.041016 A 8.9999991 8.9999991 0 0 1 37.261719 42.388672 A 8.9999991 8.9999991 0 0 1 36.408203 42.671875 A 8.9999991 8.9999991 0 0 1 35.529297 42.869141 A 8.9999991 8.9999991 0 0 1 34.636719 42.976562 A 8.9999991 8.9999991 0 0 1 34 43 A 8.9999991 8.9999991 0 0 1 33.101562 42.955078 A 8.9999991 8.9999991 0 0 1 33.017578 42.941406 A 21 21 0 0 1 24 45 A 21 21 0 0 1 3 24 A 21 21 0 0 1 24 3 A 21 21 0 0 1 45 24 A 21 21 0 0 1 42.935547 33.019531 A 8.9999991 8.9999991 0 0 1 42.976562 33.363281 A 8.9999991 8.9999991 0 0 1 43 34 A 8.9999991 8.9999991 0 0 1 42.955078 34.898438 A 8.9999991 8.9999991 0 0 1 42.820312 35.787109 A 8.9999991 8.9999991 0 0 1 42.597656 36.660156 A 8.9999991 8.9999991 0 0 1 42.289062 37.503906 A 8.9999991 8.9999991 0 0 1 42.033203 38.033203 L 42.849609 38.849609 A 24 24 0 0 0 48 24 A 24 24 0 0 0 24 0 z M 14 10 C 12.892 10 12 10.892 12 12 L 12 36 C 12 37.108 12.892 38 14 38 L 25 38 L 25 36 L 16 36 L 16 12 L 24 12 L 24 23 L 27 20 L 30 23 L 30 12 L 33 12 C 33.554 12 34 12.446 34 13 L 34 25 L 36 25 L 36 12 C 36 10.892 35.108 10 34 10 L 30 10 L 24 10 L 14 10 z M 34 27 A 6.9999998 6.9999998 0 0 0 27 34 A 6.9999998 6.9999998 0 0 0 34 41 A 6.9999998 6.9999998 0 0 0 38.195312 39.59375 L 43.292969 44.689453 C 43.684705 45.081197 44.315295 45.081197 44.707031 44.689453 C 45.098768 44.297716 45.098768 43.667127 44.707031 43.275391 L 39.607422 38.177734 A 6.9999998 6.9999998 0 0 0 41 34 A 6.9999998 6.9999998 0 0 0 34 27 z M 34 29 A 4.9999996 4.9999996 0 0 1 39 34 A 4.9999996 4.9999996 0 0 1 34 39 A 4.9999996 4.9999996 0 0 1 29 34 A 4.9999996 4.9999996 0 0 1 34 29 z "
     transform="scale(0.26458333)"
     id="path833" />
</svg>
