<?xml version="1.0" encoding="UTF-8" standalone="no"?>
<svg
   xmlns:dc="http://purl.org/dc/elements/1.1/"
   xmlns:cc="http://creativecommons.org/ns#"
   xmlns:rdf="http://www.w3.org/1999/02/22-rdf-syntax-ns#"
   xmlns:svg="http://www.w3.org/2000/svg"
   xmlns="http://www.w3.org/2000/svg"
   xmlns:sodipodi="http://sodipodi.sourceforge.net/DTD/sodipodi-0.dtd"
   xmlns:inkscape="http://www.inkscape.org/namespaces/inkscape"
   width="48"
   height="48"
   version="1"
   id="svg22"
   sodipodi:docname="rawtherapee.svg"
   inkscape:version="0.92.4 (5da689c313, 2019-01-14)">
  <metadata
     id="metadata28">
    <rdf:RDF>
      <cc:Work
         rdf:about="">
        <dc:format>image/svg+xml</dc:format>
        <dc:type
           rdf:resource="http://purl.org/dc/dcmitype/StillImage" />
        <dc:title></dc:title>
      </cc:Work>
    </rdf:RDF>
  </metadata>
  <defs
     id="defs26" />
  <sodipodi:namedview
     pagecolor="#ffffff"
     bordercolor="#666666"
     borderopacity="1"
     objecttolerance="10"
     gridtolerance="10"
     guidetolerance="10"
     inkscape:pageopacity="0"
     inkscape:pageshadow="2"
     inkscape:window-width="1087"
     inkscape:window-height="480"
     id="namedview24"
     showgrid="false"
     inkscape:zoom="4.9166667"
     inkscape:cx="2.1355932"
     inkscape:cy="24"
     inkscape:window-x="0"
     inkscape:window-y="25"
     inkscape:window-maximized="0"
     inkscape:current-layer="svg22" />
  <path
     d="M 24,0.23 A 23.77,23.77 0 0 0 0.23,24 23.77,23.77 0 0 0 24,47.77 23.77,23.77 0 0 0 47.77,24 23.77,23.77 0 0 0 24,0.23 Z M 23.93,3.77 A 20.44,20.44 0 0 1 44.37,24.21 20.44,20.44 0 0 1 23.93,44.64 20.44,20.44 0 0 1 3.5,24.21 20.44,20.44 0 0 1 23.93,3.78 Z"
     id="path2"
     inkscape:connector-curvature="0"
     style="fill:#5beedc" />
  <g
     id="g20"
     style="opacity:0.75">
    <path
       d="m 24,6 c -4.6,0 -9.21,1.76 -12.74,5.28 l 7.64,7.64 a 7.2,7.2 0 0 1 0.08,-0.08 7.2,7.2 0 0 1 0.54,-0.47 7.2,7.2 0 0 1 0.58,-0.42 7.2,7.2 0 0 1 0.63,-0.36 7.2,7.2 0 0 1 0.65,-0.3 7.2,7.2 0 0 1 0.69,-0.22 7.2,7.2 0 0 1 0.7,-0.16 7.2,7.2 0 0 1 0.71,-0.08 7.2,7.2 0 0 1 0.51,-0.02 z"
       id="path4"
       inkscape:connector-curvature="0"
       style="fill:#e647ff" />
    <path
       d="m 24,6 v 10.8 a 7.2,7.2 0 0 1 0.71,0.04 7.2,7.2 0 0 1 0.71,0.11 7.2,7.2 0 0 1 0.7,0.18 7.2,7.2 0 0 1 0.68,0.25 7.2,7.2 0 0 1 0.64,0.3 7.2,7.2 0 0 1 0.62,0.38 7.2,7.2 0 0 1 0.57,0.44 7.2,7.2 0 0 1 0.45,0.42 l 7.64,-7.64 A 17.97,17.97 0 0 0 24,5.99 Z"
       id="path6"
       inkscape:connector-curvature="0"
       style="fill:#ff3636" />
    <path
       d="M 11.28,11.28 A 17.97,17.97 0 0 0 6,24 h 10.8 a 7.2,7.2 0 0 1 0.04,-0.72 7.2,7.2 0 0 1 0.1,-0.71 7.2,7.2 0 0 1 0.18,-0.7 7.2,7.2 0 0 1 0.25,-0.68 7.2,7.2 0 0 1 0.31,-0.64 7.2,7.2 0 0 1 0.38,-0.62 7.2,7.2 0 0 1 0.43,-0.57 7.2,7.2 0 0 1 0.43,-0.46 z"
       id="path8"
       inkscape:connector-curvature="0"
       style="fill:#5964ff" />
    <path
       d="M 16.8,24 H 6 c 0,4.6 1.76,9.21 5.28,12.74 l 7.63,-7.64 a 7.2,7.2 0 0 1 -0.08,-0.08 7.2,7.2 0 0 1 -0.48,-0.54 7.2,7.2 0 0 1 -0.42,-0.58 7.2,7.2 0 0 1 -0.35,-0.63 7.2,7.2 0 0 1 -0.3,-0.65 7.2,7.2 0 0 1 -0.23,-0.69 7.2,7.2 0 0 1 -0.15,-0.7 7.2,7.2 0 0 1 -0.1,-0.71 7.2,7.2 0 0 1 0,-0.51 z"
       id="path10"
       inkscape:connector-curvature="0"
       style="fill:#53bdff" />
    <path
       d="m 36.72,11.28 -7.64,7.64 a 7.2,7.2 0 0 1 0.08,0.07 7.2,7.2 0 0 1 0.47,0.54 7.2,7.2 0 0 1 0.42,0.59 7.2,7.2 0 0 1 0.36,0.62 7.2,7.2 0 0 1 0.3,0.66 7.2,7.2 0 0 1 0.22,0.68 7.2,7.2 0 0 1 0.16,0.7 7.2,7.2 0 0 1 0.08,0.72 7.2,7.2 0 0 1 0.02,0.5 h 10.82 c 0,-4.6 -1.77,-9.2 -5.29,-12.72 z"
       id="path12"
       inkscape:connector-curvature="0"
       style="fill:#ff7221" />
    <path
       d="m 29.08,29.1 7.64,7.64 A 17.97,17.97 0 0 0 42.01,24 H 31.19 a 7.2,7.2 0 0 1 -0.03,0.72 7.2,7.2 0 0 1 -0.11,0.7 7.2,7.2 0 0 1 -0.18,0.7 7.2,7.2 0 0 1 -0.25,0.68 7.2,7.2 0 0 1 -0.3,0.65 7.2,7.2 0 0 1 -0.38,0.61 7.2,7.2 0 0 1 -0.44,0.58 7.2,7.2 0 0 1 -0.42,0.45 z"
       id="path14"
       inkscape:connector-curvature="0"
       style="fill:#ffac29" />
    <path
       d="m 18.9,29.09 -7.64,7.63 A 17.97,17.97 0 0 0 24,42 V 31.2 a 7.2,7.2 0 0 1 -0.72,-0.04 7.2,7.2 0 0 1 -0.7,-0.1 7.2,7.2 0 0 1 -0.7,-0.18 7.2,7.2 0 0 1 -0.68,-0.25 7.2,7.2 0 0 1 -0.65,-0.31 7.2,7.2 0 0 1 -0.61,-0.38 7.2,7.2 0 0 1 -0.58,-0.43 7.2,7.2 0 0 1 -0.45,-0.43 z"
       id="path16"
       inkscape:connector-curvature="0"
       style="fill:#80ffe5" />
    <path
       d="M 24,31.2 V 42 c 4.59,0 9.2,-1.76 12.72,-5.28 l -7.63,-7.63 a 7.2,7.2 0 0 1 -0.08,0.08 7.2,7.2 0 0 1 -0.54,0.48 7.2,7.2 0 0 1 -0.59,0.42 7.2,7.2 0 0 1 -0.62,0.35 7.2,7.2 0 0 1 -0.66,0.3 7.2,7.2 0 0 1 -0.68,0.23 7.2,7.2 0 0 1 -0.7,0.15 7.2,7.2 0 0 1 -0.72,0.1 7.2,7.2 0 0 1 -0.5,0 z"
       id="path18"
       inkscape:connector-curvature="0"
       style="fill:#73ff44" />
  </g>
</svg>
