<?xml version="1.0" encoding="UTF-8" standalone="no"?>
<svg
   xmlns:dc="http://purl.org/dc/elements/1.1/"
   xmlns:cc="http://creativecommons.org/ns#"
   xmlns:rdf="http://www.w3.org/1999/02/22-rdf-syntax-ns#"
   xmlns:svg="http://www.w3.org/2000/svg"
   xmlns="http://www.w3.org/2000/svg"
   xmlns:sodipodi="http://sodipodi.sourceforge.net/DTD/sodipodi-0.dtd"
   xmlns:inkscape="http://www.inkscape.org/namespaces/inkscape"
   width="48"
   height="48"
   viewBox="0 0 12.7 12.7"
   version="1.1"
   id="svg4"
   sodipodi:docname="commix.svg"
   inkscape:version="0.92.5 (2060ec1f9f, 2020-04-08)">
  <metadata
     id="metadata10">
    <rdf:RDF>
      <cc:Work
         rdf:about="">
        <dc:format>image/svg+xml</dc:format>
        <dc:type
           rdf:resource="http://purl.org/dc/dcmitype/StillImage" />
        <dc:title></dc:title>
      </cc:Work>
    </rdf:RDF>
  </metadata>
  <defs
     id="defs8" />
  <sodipodi:namedview
     pagecolor="#ffffff"
     bordercolor="#666666"
     borderopacity="1"
     objecttolerance="10"
     gridtolerance="10"
     guidetolerance="10"
     inkscape:pageopacity="0"
     inkscape:pageshadow="2"
     inkscape:window-width="1085"
     inkscape:window-height="480"
     id="namedview6"
     showgrid="false"
     inkscape:zoom="4.9166667"
     inkscape:cx="2.1355932"
     inkscape:cy="24"
     inkscape:window-x="0"
     inkscape:window-y="25"
     inkscape:window-maximized="0"
     inkscape:current-layer="svg4" />
  <path
     d="M 6.34,0.075 A 6.295,6.295 0 0 0 0.055,6.36 6.295,6.295 0 0 0 6.34,12.655 6.295,6.295 0 0 0 12.634,6.36 6.295,6.295 0 0 0 6.34,0.075 Z m -0.011,0.94 a 5.408,5.408 0 0 1 5.397,5.387 5.407,5.407 0 0 1 -10.814,0 c 0,-2.987 2.43,-5.387 5.417,-5.387 z m 2.166,1.77 -0.169,0.17 0.181,0.194 c 0.1,0.106 0.18,0.205 0.18,0.22 0,0.014 -0.185,0.215 -0.413,0.446 C 7.971,4.122 7.836,4.234 7.766,4.234 7.698,4.234 7.556,4.12 7.252,3.82 L 6.832,3.408 6.562,3.67 6.682,3.793 C 6.764,3.878 6.797,3.945 6.788,4.013 6.778,4.083 6.348,4.549 5.356,5.565 4.173,6.775 3.93,7.042 3.896,7.171 3.863,7.291 3.872,7.445 3.934,7.887 3.991,8.297 4.001,8.47 3.972,8.526 3.934,8.596 3.404,9.253 3.015,9.711 2.921,9.823 2.858,9.914 2.877,9.914 2.895,9.914 3.17,9.687 3.487,9.409 4.285,8.711 4.237,8.741 4.547,8.766 4.688,8.778 4.943,8.809 5.113,8.835 5.669,8.919 5.565,8.993 7.22,7.342 8.017,6.546 8.694,5.895 8.725,5.895 c 0.03,0 0.104,0.047 0.163,0.104 L 8.997,6.103 9.113,5.992 C 9.176,5.931 9.228,5.863 9.228,5.842 9.228,5.821 9.038,5.609 8.804,5.372 8.57,5.135 8.378,4.91 8.378,4.872 c 0,-0.08 0.8,-0.908 0.878,-0.908 0.029,0 0.13,0.072 0.227,0.16 L 9.657,4.286 9.827,4.117 8.495,2.786 Z M 7.023,4.379 c 0.136,0 0.273,0.052 0.377,0.157 l 0.806,0.806 a 0.532,0.532 0 0 1 0,0.754 l -1.589,1.59 a 0.532,0.532 0 0 1 -0.754,0 L 5.057,6.879 a 0.532,0.532 0 0 1 0,-0.754 L 6.646,4.535 A 0.532,0.532 0 0 1 7.023,4.379 Z M 7.468,5.682 6.708,6.442 6.889,6.627 7.651,5.865 Z M 5.493,6.321 V 6.604 L 6.09,6.609 6.1,7.201 h 0.236 v -0.88 z"
     id="path2"
     inkscape:connector-curvature="0"
     style="fill:#5beedc" />
</svg>
