<?xml version="1.0" encoding="UTF-8" standalone="no"?>
<svg
   xmlns:dc="http://purl.org/dc/elements/1.1/"
   xmlns:cc="http://creativecommons.org/ns#"
   xmlns:rdf="http://www.w3.org/1999/02/22-rdf-syntax-ns#"
   xmlns:svg="http://www.w3.org/2000/svg"
   xmlns="http://www.w3.org/2000/svg"
   xmlns:sodipodi="http://sodipodi.sourceforge.net/DTD/sodipodi-0.dtd"
   xmlns:inkscape="http://www.inkscape.org/namespaces/inkscape"
   width="48"
   height="48"
   viewBox="0 0 12.7 12.7"
   version="1.1"
   id="svg4"
   sodipodi:docname="wmtweaks.svg"
   inkscape:version="0.92.5 (2060ec1f9f, 2020-04-08)">
  <defs
     id="defs8">
    <style
       id="current-color-scheme"
       type="text/css">
      .ColorScheme-Highlight {
        color:#5beedc;
      }
  </style>
  </defs>
  <path
     class="ColorScheme-Highlight"
     style="fill:#5beedc"
     d="M 24 0 A 24 24 0 0 0 0 24 A 24 24 0 0 0 24 48 A 24 24 0 0 0 48 24 A 24 24 0 0 0 24 0 z M 24 3 A 21 21 0 0 1 45 24 A 21 21 0 0 1 40.074219 37.515625 L 38.375 35.816406 C 38.761089 35.311574 39 34.687464 39 34 L 39 14 C 39 12.338 37.662001 11 36 11 L 12 11 C 10.337999 11 9 12.338 9 14 L 9 34 C 9 35.662 10.337999 37 12 37 L 33.900391 37 L 37.210938 40.310547 A 21 21 0 0 1 24 45 A 21 21 0 0 1 3 24 A 21 21 0 0 1 24 3 z M 11 16 L 37 16 C 37.554 16 38 16.469577 38 17.052734 L 38 34.947266 C 38 35.094649 37.971441 35.234201 37.919922 35.361328 L 27.0625 24.503906 A 3.9999994 3.9999994 0 0 0 26.03125 20.644531 A 3.9999994 3.9999994 0 0 0 23.142578 19.476562 A 3.9999994 3.9999994 0 0 0 22.169922 19.613281 L 24.617188 22.058594 C 24.813057 22.254464 24.908203 22.510006 24.908203 22.765625 C 24.908203 23.021246 24.813053 23.276788 24.617188 23.472656 L 23.201172 24.886719 C 23.005302 25.082585 22.74976 25.179687 22.494141 25.179688 C 22.23852 25.179688 21.982978 25.082585 21.787109 24.886719 L 19.341797 22.441406 A 3.9999994 3.9999994 0 0 0 20.373047 26.300781 A 3.9999994 3.9999994 0 0 0 24.234375 27.332031 L 32.900391 36 L 11 36 C 10.446 36 10 35.530423 10 34.947266 L 10 17.052734 C 10 16.469577 10.446 16 11 16 z "
     transform="scale(0.26458333)"
     id="path833" />
</svg>
