<?xml version="1.0" encoding="UTF-8" standalone="no"?>
<svg
   xmlns:dc="http://purl.org/dc/elements/1.1/"
   xmlns:cc="http://creativecommons.org/ns#"
   xmlns:rdf="http://www.w3.org/1999/02/22-rdf-syntax-ns#"
   xmlns:svg="http://www.w3.org/2000/svg"
   xmlns="http://www.w3.org/2000/svg"
   xmlns:sodipodi="http://sodipodi.sourceforge.net/DTD/sodipodi-0.dtd"
   xmlns:inkscape="http://www.inkscape.org/namespaces/inkscape"
   width="48"
   height="48"
   viewBox="0 0 12.7 12.7"
   version="1.1"
   id="svg4"
   sodipodi:docname="time-admin.svg"
   inkscape:version="0.92.5 (2060ec1f9f, 2020-04-08)">
  <defs
     id="defs8">
  <style
     id="current-color-scheme"
     type="text/css">
      .ColorScheme-Highlight {
        color:#5beedc;
      }
  </style>
  </defs>
  <path
     class="ColorScheme-Highlight"
     style="fill:#5beedc"
     d="M 24 0 A 24 24 0 0 0 0 24 A 24 24 0 0 0 24 48 A 24 24 0 0 0 48 24 A 24 24 0 0 0 24 0 z M 24 3 A 21 21 0 0 1 45 24 A 21 21 0 0 1 24 45 A 21 21 0 0 1 3 24 A 21 21 0 0 1 24 3 z M 19 9 C 17.892 9 17 9.8920001 17 11 L 17 12 L 17 14 L 19 14 L 20.96875 14 L 20.96875 12.308594 C 20.984402 12.2074 21 12.105713 21 12 L 21 11 C 21 9.8920001 20.108 9 19 9 z M 34 9 C 32.892 9 32 9.8920001 32 11 L 32 12 L 32 14 L 36 14 L 36 11 C 36 9.8920001 35.108 9 34 9 z M 12 15 L 12 21 L 12 25 L 12 26.080078 A 7.9999992 7.9999992 0 0 0 8 33 A 7.9999992 7.9999992 0 0 0 16 41 A 7.9999992 7.9999992 0 0 0 22.244141 38 L 35 38 C 38.324 38 41 35.324 41 32 L 41 25 L 41 21 L 41 15 L 35 15 L 18 15 L 12 15 z M 14.138672 20 L 38.861328 20 C 38.943831 20.320999 39 20.65255 39 21 L 39 32 C 39 34.216 37.216 36 35 36 L 23.412109 36 A 7.9999992 7.9999992 0 0 0 24 33 L 26 33 L 26 32 L 23.929688 32 A 7.9999992 7.9999992 0 0 0 23.296875 29.736328 L 25.119141 28.119141 C 25.682016 27.557423 25.998844 26.795207 26 26 C 26 24.343146 24.656854 23 23 23 C 21.343146 23 20 24.343146 20 26 L 21 26 C 21 24.89543 21.89543 24 23 24 C 24.10457 24 25 24.89543 25 26 C 25 27.224335 23.89682 28.055575 22.886719 28.945312 A 7.9999992 7.9999992 0 0 0 16 25 A 7.9999992 7.9999992 0 0 0 14 25.265625 L 14 21 C 14 20.65255 14.056169 20.320999 14.138672 20 z M 31 23 L 28 24 L 28 25 L 31 24 L 31 32 L 29 32 L 29 33 L 34 33 L 34 32 L 32 32 L 32 23 L 31 23 z M 16 27 A 5.9999995 5.9999995 0 0 1 22 33 A 5.9999995 5.9999995 0 0 1 16 39 A 5.9999995 5.9999995 0 0 1 10 33 A 5.9999995 5.9999995 0 0 1 16 27 z M 15 28 L 15 34 L 16 34 L 19 34 L 19 33 L 16 33 L 16 28 L 15 28 z "
     transform="scale(0.26458333)"
     id="path818" />
</svg>
