<?xml version="1.0" encoding="UTF-8" standalone="no"?>
<svg
   xmlns:dc="http://purl.org/dc/elements/1.1/"
   xmlns:cc="http://creativecommons.org/ns#"
   xmlns:rdf="http://www.w3.org/1999/02/22-rdf-syntax-ns#"
   xmlns:svg="http://www.w3.org/2000/svg"
   xmlns="http://www.w3.org/2000/svg"
   xmlns:sodipodi="http://sodipodi.sourceforge.net/DTD/sodipodi-0.dtd"
   xmlns:inkscape="http://www.inkscape.org/namespaces/inkscape"
   width="48"
   height="48"
   viewBox="0 0 12.7 12.7"
   version="1.1"
   id="svg4"
   sodipodi:docname="crunch.svg"
   inkscape:version="0.92.5 (2060ec1f9f, 2020-04-08)">
  <metadata
     id="metadata10">
    <rdf:RDF>
      <cc:Work
         rdf:about="">
        <dc:format>image/svg+xml</dc:format>
        <dc:type
           rdf:resource="http://purl.org/dc/dcmitype/StillImage" />
        <dc:title></dc:title>
      </cc:Work>
    </rdf:RDF>
  </metadata>
  <defs
     id="defs8" />
  <sodipodi:namedview
     pagecolor="#ffffff"
     bordercolor="#666666"
     borderopacity="1"
     objecttolerance="10"
     gridtolerance="10"
     guidetolerance="10"
     inkscape:pageopacity="0"
     inkscape:pageshadow="2"
     inkscape:window-width="1085"
     inkscape:window-height="480"
     id="namedview6"
     showgrid="false"
     inkscape:zoom="4.9166667"
     inkscape:cx="2.1355932"
     inkscape:cy="24"
     inkscape:window-x="0"
     inkscape:window-y="25"
     inkscape:window-maximized="0"
     inkscape:current-layer="svg4" />
  <path
     d="M 6.34,0.075 A 6.295,6.295 0 0 0 0.055,6.36 6.295,6.295 0 0 0 6.34,12.655 6.295,6.295 0 0 0 12.634,6.36 6.295,6.295 0 0 0 6.34,0.075 Z m -0.011,0.94 a 5.408,5.408 0 0 1 5.397,5.387 5.407,5.407 0 0 1 -10.814,0 c 0,-2.987 2.43,-5.387 5.417,-5.387 z M 5.377,2.325 A 0.479,0.479 0 0 0 4.897,2.803 V 3.815 L 2.961,3.83 A 0.48,0.48 0 0 0 2.486,4.307 L 2.483,4.996 H 2.35 a 0.48,0.48 0 0 0 -0.48,0.48 v 2.573 a 0.48,0.48 0 0 0 0.48,0.48 h 0.133 l 10e-4,0.436 a 0.48,0.48 0 0 0 0.48,0.478 h 0.178 v 0.451 c 0,0.265 0.214,0.48 0.479,0.48 h 0.995 a 0.48,0.48 0 0 0 0.48,-0.48 V 9.44 L 8.064,9.435 v 0.46 c 0,0.264 0.214,0.479 0.48,0.479 h 0.994 a 0.48,0.48 0 0 0 0.48,-0.48 v -0.49 a 0.479,0.479 0 0 0 0.32,-0.452 L 10.337,8.722 V 8.71 L 10.33,4.299 A 0.48,0.48 0 0 0 9.85,3.82 H 9.568 L 9.55,3.821 H 9.547 V 2.804 A 0.48,0.48 0 0 0 9.068,2.324 H 5.377 Z m 0,0.721 H 9.069 V 6.09 H 5.377 Z M 6.43,3.338 V 5.236 H 8.056 V 3.99 H 7.363 V 3.339 H 6.43 Z m 1.11,0.08 V 3.875 H 7.96 L 7.54,3.419 Z M 6.738,4.274 H 7.744 V 4.367 H 6.738 Z m 0,0.16 H 7.744 V 4.527 H 6.738 Z M 5.117,4.535 5.126,5.418 5.134,6.3 6.368,6.306 A 0.549,0.549 0 0 0 6.279,6.422 C 6.092,6.728 5.768,7.109 5.702,7.214 5.637,7.319 5.629,7.43 5.775,7.43 h 0.432 v 0.898 c 0,0.062 0.02,0.111 0.072,0.111 0.052,0 0.109,-0.086 0.144,-0.144 C 6.61,7.989 6.934,7.463 7,7.358 7.065,7.253 7.073,7.142 6.927,7.142 H 6.495 c 0,-0.317 -0.001,-0.452 0,-0.752 A 0.153,0.153 0 0 0 6.475,6.306 L 9.294,6.317 9.303,5.435 9.311,4.552 9.567,4.542 H 9.851 L 9.858,8.952 2.964,8.964 2.956,6.738 2.965,4.552 Z m 1.621,0.06 H 7.744 V 4.688 H 6.738 Z m 0,0.16 H 7.744 V 4.848 H 6.738 Z M 3.603,4.864 V 5.057 H 4.658 V 4.864 Z m 0,0.326 V 5.384 H 4.658 V 5.19 Z m 0,0.327 V 5.711 H 4.658 V 5.517 Z M 2.35,5.717 H 2.738 V 8.05 H 2.35 Z M 3.577,7.07 V 7.264 H 4.633 V 7.07 Z m 0,0.327 V 7.591 H 4.633 V 7.397 Z m 0,0.327 V 7.918 H 4.633 V 7.724 Z m 0,0.327 V 8.244 H 4.633 V 8.05 H 3.577 Z m 0.044,1.093 h 0.995 v 0.33 H 3.621 Z m 4.922,0 h 0.995 v 0.33 H 8.543 Z M 3.621,9.564 H 4.616 V 9.896 H 3.621 Z m 4.922,0 H 9.538 V 9.896 H 8.543 Z"
     id="path2"
     inkscape:connector-curvature="0"
     style="fill:#5beedc" />
</svg>
