<?xml version="1.0" encoding="UTF-8" standalone="no"?>
<svg
   xmlns:dc="http://purl.org/dc/elements/1.1/"
   xmlns:cc="http://creativecommons.org/ns#"
   xmlns:rdf="http://www.w3.org/1999/02/22-rdf-syntax-ns#"
   xmlns:svg="http://www.w3.org/2000/svg"
   xmlns="http://www.w3.org/2000/svg"
   xmlns:sodipodi="http://sodipodi.sourceforge.net/DTD/sodipodi-0.dtd"
   xmlns:inkscape="http://www.inkscape.org/namespaces/inkscape"
   width="48"
   height="48"
   viewBox="0 0 12.7 12.7"
   version="1.1"
   id="svg4"
   sodipodi:docname="cs-desktop.svg"
   inkscape:version="0.92.5 (2060ec1f9f, 2020-04-08)">
  <defs
     id="defs8">
    <style
       id="current-color-scheme"
       type="text/css">
      .ColorScheme-Highlight {
        color:#5beedc;
      }
  </style>
  </defs>
  <path
     d="M 6.35,0 A 6.3499999,6.3499999 0 0 0 0,6.3499999 6.3499999,6.3499999 0 0 0 6.35,12.7 6.3499999,6.3499999 0 0 0 12.7,6.3499999 6.3499999,6.3499999 0 0 0 6.35,0 Z m 0,0.79374999 A 5.5562499,5.5562499 0 0 1 11.90625,6.3499999 5.5562499,5.5562499 0 0 1 6.35,11.90625 5.5562499,5.5562499 0 0 1 0.79374999,6.3499999 5.5562499,5.5562499 0 0 1 6.35,0.79374999 Z M 2.38125,3.175 v 0.79375 h 7.9375 V 3.175 Z m 0,1.0583333 v 0.5291666 4.4979167 c 0,0.1465791 0.118004,0.2645833 0.2645833,0.2645833 h 7.4083337 c 0.146579,0 0.264583,-0.1180042 0.264583,-0.2645833 v -4.7625 -0.2645833 z m 0.5291667,0.79375 H 4.2333333 V 6.3499999 H 2.9104167 Z m 0.031523,1.8949746 H 4.2333333 V 8.2020832 H 2.9419394 Z"
     id="rect829"
     class="ColorScheme-Highlight"
     style="fill:#5beedc"
     inkscape:connector-curvature="0" />
</svg>
