<?xml version="1.0" encoding="UTF-8" standalone="no"?>
<svg
   xmlns:dc="http://purl.org/dc/elements/1.1/"
   xmlns:cc="http://creativecommons.org/ns#"
   xmlns:rdf="http://www.w3.org/1999/02/22-rdf-syntax-ns#"
   xmlns:svg="http://www.w3.org/2000/svg"
   xmlns="http://www.w3.org/2000/svg"
   xmlns:sodipodi="http://sodipodi.sourceforge.net/DTD/sodipodi-0.dtd"
   xmlns:inkscape="http://www.inkscape.org/namespaces/inkscape"
   width="48"
   height="48"
   viewBox="0 0 12.7 12.7"
   version="1.1"
   id="svg4"
   sodipodi:docname="preferences-desktop-screensaver.svg"
   inkscape:version="0.92.5 (2060ec1f9f, 2020-04-08)">
  <defs
     id="defs8">
  <style
     id="current-color-scheme"
     type="text/css">
      .ColorScheme-Highlight {
        color:#5beedc;
      }
  </style>
  </defs>
  <path
     class="ColorScheme-Highlight"
     style="fill:#5beedc"
     d="M 24 0 A 24 24 0 0 0 0 24 A 24 24 0 0 0 24 48 A 24 24 0 0 0 48 24 A 24 24 0 0 0 24 0 z M 24 3 A 21 21 0 0 1 45 24 A 21 21 0 0 1 24 45 A 21 21 0 0 1 3 24 A 21 21 0 0 1 24 3 z M 12 11 C 10.892 11 10 11.892 10 13 L 10 31 C 10 32.108 10.892 33 12 33 L 19 33 L 19 37 L 13 37 L 13 39 L 35 39 L 35 37 L 29 37 L 29 33 L 36 33 C 37.108 33 38 32.108 38 31 L 38 13 C 38 11.892 37.108 11 36 11 L 12 11 z M 13 13 L 35 13 C 35.553999 13 36 13.446 36 14 L 36 30 C 36 30.554 35.553999 31 35 31 L 13 31 C 12.446001 31 12 30.554 12 30 L 12 14 C 12 13.446 12.446001 13 13 13 z M 17 16 L 16.5 17.523438 L 15 18 L 16.476562 18.429688 L 17 20 L 17.546875 18.5 L 19 18 L 17.546875 17.476562 L 17 16 z M 26 17 L 25.5 18.523438 L 24 19 L 25.476562 19.429688 L 26 21 L 26.546875 19.5 L 28 19 L 26.546875 18.476562 L 26 17 z M 31.380859 19.603516 A 4.9999996 4.9999996 0 0 1 31.455078 19.732422 A 4.9999996 4.9999996 0 0 1 31.660156 20.1875 A 4.9999996 4.9999996 0 0 1 31.818359 20.662109 A 4.9999996 4.9999996 0 0 1 31.927734 21.150391 A 4.9999996 4.9999996 0 0 1 31.988281 21.646484 A 4.9999996 4.9999996 0 0 1 32 22 A 4.9999996 4.9999996 0 0 1 31.974609 22.5 A 4.9999996 4.9999996 0 0 1 31.900391 22.994141 A 4.9999996 4.9999996 0 0 1 31.777344 23.478516 A 4.9999996 4.9999996 0 0 1 31.605469 23.947266 A 4.9999996 4.9999996 0 0 1 31.388672 24.396484 A 4.9999996 4.9999996 0 0 1 31.126953 24.822266 A 4.9999996 4.9999996 0 0 1 30.824219 25.220703 A 4.9999996 4.9999996 0 0 1 30.484375 25.585938 A 4.9999996 4.9999996 0 0 1 30.107422 25.916016 A 4.9999996 4.9999996 0 0 1 29.701172 26.207031 A 4.9999996 4.9999996 0 0 1 29.267578 26.455078 A 4.9999996 4.9999996 0 0 1 28.8125 26.660156 A 4.9999996 4.9999996 0 0 1 28.337891 26.818359 A 4.9999996 4.9999996 0 0 1 27.849609 26.927734 A 4.9999996 4.9999996 0 0 1 27.353516 26.988281 A 4.9999996 4.9999996 0 0 1 27 27 A 4.9999996 4.9999996 0 0 1 26.5 26.974609 A 4.9999996 4.9999996 0 0 1 26.005859 26.900391 A 4.9999996 4.9999996 0 0 1 25.521484 26.777344 A 4.9999996 4.9999996 0 0 1 25.052734 26.605469 A 4.9999996 4.9999996 0 0 1 24.619141 26.396484 A 4.9999996 4.9999996 0 0 0 29 29 A 4.9999996 4.9999996 0 0 0 34 24 A 4.9999996 4.9999996 0 0 0 31.380859 19.603516 z M 20 20 L 19.5 21.523438 L 18 22 L 19.476562 22.429688 L 20 24 L 20.546875 22.5 L 22 22 L 20.546875 21.476562 L 20 20 z M 16 24 L 15.5 25.523438 L 14 26 L 15.476562 26.429688 L 16 28 L 16.546875 26.5 L 18 26 L 16.546875 25.476562 L 16 24 z "
     transform="scale(0.26458333)"
     id="path826" />
</svg>
