<?xml version="1.0" encoding="UTF-8" standalone="no"?>
<svg
   xmlns:dc="http://purl.org/dc/elements/1.1/"
   xmlns:cc="http://creativecommons.org/ns#"
   xmlns:rdf="http://www.w3.org/1999/02/22-rdf-syntax-ns#"
   xmlns:svg="http://www.w3.org/2000/svg"
   xmlns="http://www.w3.org/2000/svg"
   xmlns:sodipodi="http://sodipodi.sourceforge.net/DTD/sodipodi-0.dtd"
   xmlns:inkscape="http://www.inkscape.org/namespaces/inkscape"
   width="48"
   height="48"
   viewBox="0 0 12.7 12.7"
   version="1.1"
   id="svg4"
   sodipodi:docname="cs-tablet.svg"
   inkscape:version="0.92.5 (2060ec1f9f, 2020-04-08)">
  <defs
     id="defs8">
  <style
     id="current-color-scheme"
     type="text/css">
      .ColorScheme-Highlight {
        color:#5beedc;
      }
  </style>
  </defs>
  <path
     class="ColorScheme-Highlight"
     style="fill:#5beedc"
     d="M 24 0 A 24 24 0 0 0 0 24 A 24 24 0 0 0 24 48 A 24 24 0 0 0 48 24 A 24 24 0 0 0 24 0 z M 24 3 A 21 21 0 0 1 45 24 A 21 21 0 0 1 24 45 A 21 21 0 0 1 3 24 A 21 21 0 0 1 24 3 z M 35 11 L 40 11 L 35 11 z M 10 12 C 9.4459969 12 9 12.446 9 13 L 9 35 C 9 35.554 9.4459969 36 10 36 L 38 36 C 38.553999 36 39 35.554 39 35 L 39 26 L 37 26 L 37 34 L 15 34 L 15 14 L 35 14 L 35 12 L 10 12 z M 38 14 L 35 17 L 39 21 L 42 18 L 38 14 z M 34 18 L 26 26 L 30 30 L 38 22 L 34 18 z M 25 27 L 24 32 L 29 31 L 25 27 z "
     transform="scale(0.26458333)"
     id="path878" />
</svg>
