<?xml version="1.0" encoding="UTF-8" standalone="no"?>
<svg
   xmlns:dc="http://purl.org/dc/elements/1.1/"
   xmlns:cc="http://creativecommons.org/ns#"
   xmlns:rdf="http://www.w3.org/1999/02/22-rdf-syntax-ns#"
   xmlns:svg="http://www.w3.org/2000/svg"
   xmlns="http://www.w3.org/2000/svg"
   xmlns:sodipodi="http://sodipodi.sourceforge.net/DTD/sodipodi-0.dtd"
   xmlns:inkscape="http://www.inkscape.org/namespaces/inkscape"
   width="48"
   height="48"
   viewBox="0 0 12.7 12.7"
   version="1.1"
   id="svg20"
   sodipodi:docname="darktable.svg"
   inkscape:version="0.92.4 (5da689c313, 2019-01-14)">
  <metadata
     id="metadata26">
    <rdf:RDF>
      <cc:Work
         rdf:about="">
        <dc:format>image/svg+xml</dc:format>
        <dc:type
           rdf:resource="http://purl.org/dc/dcmitype/StillImage" />
        <dc:title></dc:title>
      </cc:Work>
    </rdf:RDF>
  </metadata>
  <defs
     id="defs24" />
  <sodipodi:namedview
     pagecolor="#ffffff"
     bordercolor="#666666"
     borderopacity="1"
     objecttolerance="10"
     gridtolerance="10"
     guidetolerance="10"
     inkscape:pageopacity="0"
     inkscape:pageshadow="2"
     inkscape:window-width="1087"
     inkscape:window-height="480"
     id="namedview22"
     showgrid="false"
     inkscape:zoom="4.9166667"
     inkscape:cx="2.1355932"
     inkscape:cy="24"
     inkscape:window-x="0"
     inkscape:window-y="25"
     inkscape:window-maximized="0"
     inkscape:current-layer="svg20" />
  <g
     transform="translate(0,-284.3)"
     id="g18">
    <path
       d="m 6.344,284.373 a 6.29,6.29 0 0 0 -6.29,6.29 6.29,6.29 0 0 0 6.29,6.288 6.29,6.29 0 0 0 6.29,-6.289 6.29,6.29 0 0 0 -6.29,-6.29 z m -0.018,0.936 a 5.407,5.407 0 0 1 5.407,5.407 5.407,5.407 0 0 1 -5.407,5.407 5.407,5.407 0 0 1 -5.407,-5.407 5.407,5.407 0 0 1 5.407,-5.407 z"
       id="path2"
       inkscape:connector-curvature="0"
       style="fill:#5beedc" />
    <path
       d="m 7.169,286.05 -1.136,3.21 4.47,-0.747 A 4.76,4.76 0 0 0 7.168,286.05"
       id="path4"
       inkscape:connector-curvature="0"
       style="opacity:0.75;fill:#cd7223" />
    <path
       d="m 10.798,289.213 -3.367,0.629 2.887,3.473 c 0.77,-1.202 0.97,-2.716 0.48,-4.102"
       id="path6"
       inkscape:connector-curvature="0"
       style="opacity:0.75;fill:#ffa92d" />
    <path
       d="m 9.884,293.842 -2.232,-2.583 -1.584,4.22 a 4.777,4.777 0 0 0 3.816,-1.637"
       id="path8"
       inkscape:connector-curvature="0"
       style="opacity:0.75;fill:#2b4d37" />
    <path
       d="m 5.406,295.396 1.136,-3.21 -4.47,0.747 a 4.76,4.76 0 0 0 3.335,2.463"
       id="path10"
       inkscape:connector-curvature="0"
       style="opacity:0.75;fill:#375a7d" />
    <path
       d="M 1.807,292.228 5.173,291.6 2.286,288.127 a 4.702,4.702 0 0 0 -0.48,4.101"
       id="path12"
       inkscape:connector-curvature="0"
       style="opacity:0.75;fill:#68377d" />
    <circle
       cx="6.302"
       cy="290.72198"
       r="0.71399999"
       id="circle14"
       style="fill:#5beedc" />
    <path
       d="m 2.71,287.602 2.232,2.582 1.584,-4.22 a 4.777,4.777 0 0 0 -3.816,1.638"
       id="path16"
       inkscape:connector-curvature="0"
       style="opacity:0.75;fill:#bf4231" />
  </g>
</svg>
