<?xml version="1.0" encoding="UTF-8" standalone="no"?>
<svg
   xmlns:dc="http://purl.org/dc/elements/1.1/"
   xmlns:cc="http://creativecommons.org/ns#"
   xmlns:rdf="http://www.w3.org/1999/02/22-rdf-syntax-ns#"
   xmlns:svg="http://www.w3.org/2000/svg"
   xmlns="http://www.w3.org/2000/svg"
   xmlns:sodipodi="http://sodipodi.sourceforge.net/DTD/sodipodi-0.dtd"
   xmlns:inkscape="http://www.inkscape.org/namespaces/inkscape"
   width="48"
   height="48"
   viewBox="0 0 12.7 12.7"
   version="1.1"
   id="svg6"
   sodipodi:docname="dbeaver.svg"
   inkscape:version="0.92.5 (2060ec1f9f, 2020-04-08)">
  <metadata
     id="metadata12">
    <rdf:RDF>
      <cc:Work
         rdf:about="">
        <dc:format>image/svg+xml</dc:format>
        <dc:type
           rdf:resource="http://purl.org/dc/dcmitype/StillImage" />
        <dc:title></dc:title>
      </cc:Work>
    </rdf:RDF>
  </metadata>
  <defs
     id="defs10" />
  <sodipodi:namedview
     pagecolor="#ffffff"
     bordercolor="#666666"
     borderopacity="1"
     objecttolerance="10"
     gridtolerance="10"
     guidetolerance="10"
     inkscape:pageopacity="0"
     inkscape:pageshadow="2"
     inkscape:window-width="1085"
     inkscape:window-height="480"
     id="namedview8"
     showgrid="false"
     inkscape:zoom="4.9166667"
     inkscape:cx="2.1355932"
     inkscape:cy="24"
     inkscape:window-x="0"
     inkscape:window-y="25"
     inkscape:window-maximized="0"
     inkscape:current-layer="svg6" />
  <path
     d="M 6.34,0.075 A 6.295,6.295 0 0 0 0.055,6.36 6.295,6.295 0 0 0 6.34,12.655 6.295,6.295 0 0 0 12.634,6.36 6.295,6.295 0 0 0 6.34,0.075 Z m -0.011,0.94 a 5.408,5.408 0 0 1 5.397,5.387 5.407,5.407 0 0 1 -10.814,0 c 0,-2.987 2.43,-5.387 5.417,-5.387 z M 7.714,2.132 A 1.254,1.254 0 0 0 7.289,2.178 C 7.033,2.264 6.586,2.594 6.297,2.908 L 6.015,3.216 H 5.765 C 5.588,3.216 5.502,3.236 5.475,3.28 5.399,3.4 5.431,3.721 5.541,3.961 5.685,4.273 5.661,4.391 5.306,5.085 5.148,5.395 4.996,5.724 4.967,5.818 a 0.948,0.948 0 0 1 -0.078,0.2 C 4.874,6.035 4.868,5.699 4.875,5.272 4.905,3.448 4.595,2.754 3.69,2.618 A 1.083,1.083 0 0 0 2.583,3.203 c -0.477,0.984 -0.206,2.632 0.744,4.511 0.812,1.607 1.685,2.527 2.656,2.798 0.104,0.03 0.423,0.054 0.71,0.057 0.473,0.003 0.537,-0.006 0.727,-0.103 0.242,-0.124 0.423,-0.134 0.682,-0.038 0.236,0.087 0.654,0.083 0.88,-0.008 C 9.259,10.308 9.333,10.058 9.137,9.894 9.035,9.808 9.051,9.386 9.179,8.796 9.277,8.346 9.286,8.232 9.265,7.737 9.235,7.087 9.123,6.477 8.961,6.092 8.795,5.698 8.807,5.549 9.046,5.033 9.206,4.689 9.253,4.536 9.269,4.311 L 9.289,4.027 9.175,4.25 A 1.03,1.03 0 0 1 8.945,4.558 L 8.827,4.643 8.841,4.335 8.856,4.027 8.766,4.312 A 1.538,1.538 0 0 1 8.561,4.738 C 8.452,4.869 8.426,4.879 8.196,4.878 7.914,4.875 7.535,4.714 7.196,4.453 A 1.528,1.528 0 0 0 6.998,4.313 c 0,0.006 0.038,0.134 0.084,0.283 C 7.209,5.003 7.194,5.122 6.955,5.604 6.673,6.174 6.599,6.484 6.634,6.948 6.664,7.343 6.72,7.588 6.882,8.014 7.127,8.657 7.121,8.988 6.865,8.936 6.578,8.878 5.953,8.334 5.694,7.916 L 5.567,7.71 5.515,7.958 c -0.07,0.34 -0.026,0.926 0.107,1.417 0.06,0.22 0.1,0.408 0.091,0.417 C 5.704,9.802 5.609,9.708 5.501,9.584 5.252,9.297 5.034,8.85 4.92,8.394 4.797,7.906 4.825,7.084 4.986,6.466 5.111,5.985 5.533,4.874 5.626,4.777 5.636,4.767 5.684,4.797 5.735,4.841 5.825,4.922 5.825,4.921 5.777,4.829 5.57,4.431 5.962,3.434 6.573,2.807 7.046,2.321 7.545,2.148 8.139,2.264 L 8.287,2.294 8.117,2.212 A 1.114,1.114 0 0 0 7.714,2.132 Z M 7.15,2.775 A 0.197,0.197 0 0 0 6.979,2.835 C 6.899,2.915 6.9,2.909 6.961,3.115 L 7.011,3.279 7.147,3.194 C 7.223,3.147 7.357,3.083 7.446,3.052 L 7.606,2.996 7.415,2.883 A 0.706,0.706 0 0 0 7.15,2.775 Z M 8.899,2.834 C 8.613,2.818 8.051,2.987 7.998,3.127 7.958,3.234 8.129,3.439 8.355,3.552 8.478,3.614 8.613,3.664 8.656,3.664 8.763,3.664 8.93,3.487 9.028,3.27 9.143,3.016 9.135,2.904 9.002,2.853 A 0.35,0.35 0 0 0 8.899,2.833 Z m 0.026,1.89 C 8.957,4.732 8.933,4.832 8.857,5.052 8.751,5.363 8.657,5.512 8.583,5.482 8.553,5.471 8.516,5.488 8.503,5.522 8.47,5.61 8.235,5.6 8.188,5.509 A 1.097,1.097 0 0 1 8.128,5.232 L 8.107,5.029 h 0.144 c 0.182,0 0.378,-0.082 0.554,-0.232 0.062,-0.052 0.1,-0.08 0.12,-0.074 z"
     id="path2"
     inkscape:connector-curvature="0"
     style="fill:#5beedc" />
  <path
     d="M 5.922,10.508 C 4.975,10.246 4.106,9.308 3.292,7.673 2.605,6.29 2.311,5.193 2.358,4.181 2.396,3.353 2.628,2.896 3.114,2.684 3.388,2.566 3.777,2.581 4.101,2.724 4.474,2.888 4.61,3.079 4.764,3.657 4.837,3.929 4.855,4.154 4.874,4.987 L 4.894,5.988 4.967,5.775 C 5.047,5.542 5.344,4.931 5.495,4.69 5.637,4.462 5.649,4.239 5.532,3.984 A 1.08,1.08 0 0 1 5.433,3.55 c 0,-0.343 0.01,-0.355 0.332,-0.357 L 6.045,3.19 6.205,2.98 C 6.4,2.721 6.766,2.425 7.099,2.256 7.313,2.147 7.396,2.129 7.67,2.131 7.932,2.132 8.026,2.153 8.181,2.24 8.286,2.299 8.333,2.335 8.287,2.32 7.686,2.13 7.16,2.271 6.644,2.763 6.011,3.367 5.579,4.4 5.788,4.808 5.868,4.965 5.851,4.981 5.734,4.854 L 5.651,4.764 5.568,4.928 A 10.285,10.285 0 0 0 4.982,6.543 C 4.883,6.94 4.865,7.104 4.864,7.609 4.862,8.248 4.932,8.589 5.158,9.037 5.271,9.261 5.566,9.676 5.613,9.677 5.631,9.677 5.588,9.563 5.518,9.423 4.958,8.305 5.034,6.833 5.728,5.343 5.868,5.038 5.909,4.983 5.971,5.009 6.097,5.063 6.532,5.086 6.532,5.039 6.532,5.015 6.469,4.984 6.392,4.969 5.907,4.878 5.98,4.439 6.592,3.762 6.992,3.319 7.002,3.299 6.944,3.08 6.859,2.759 7.066,2.676 7.449,2.877 7.645,2.979 7.673,2.982 7.992,2.943 8.178,2.919 8.453,2.877 8.605,2.849 8.757,2.821 8.933,2.81 8.996,2.826 c 0.102,0.026 0.115,0.05 0.115,0.2 0,0.095 0.04,0.291 0.09,0.437 0.073,0.22 0.085,0.342 0.072,0.713 -0.015,0.43 -0.024,0.465 -0.215,0.877 -0.123,0.264 -0.2,0.488 -0.2,0.583 0,0.085 0.057,0.298 0.127,0.474 0.297,0.749 0.376,1.905 0.19,2.774 -0.14,0.657 -0.14,0.874 0.007,1.05 0.092,0.11 0.106,0.154 0.074,0.244 -0.059,0.167 -0.227,0.267 -0.538,0.32 -0.254,0.045 -0.31,0.04 -0.57,-0.044 C 7.78,10.334 7.697,10.336 7.454,10.466 7.269,10.566 7.215,10.573 6.693,10.569 6.363,10.567 6.044,10.541 5.922,10.508 Z M 8.442,5.53 A 0.596,0.596 0 0 0 8.559,5.391 C 8.606,5.311 8.607,5.311 8.582,5.402 8.543,5.546 8.633,5.519 8.713,5.363 8.811,5.173 8.947,4.763 8.921,4.737 8.909,4.725 8.847,4.765 8.783,4.827 A 0.694,0.694 0 0 1 8.279,5.029 h -0.15 l 0.02,0.212 C 8.177,5.546 8.288,5.655 8.443,5.53 Z"
     id="path4"
     inkscape:connector-curvature="0"
     style="opacity:0.5;fill:#5beedc" />
</svg>
