<?xml version="1.0" encoding="UTF-8" standalone="no"?>
<svg
   xmlns:dc="http://purl.org/dc/elements/1.1/"
   xmlns:cc="http://creativecommons.org/ns#"
   xmlns:rdf="http://www.w3.org/1999/02/22-rdf-syntax-ns#"
   xmlns:svg="http://www.w3.org/2000/svg"
   xmlns="http://www.w3.org/2000/svg"
   xmlns:sodipodi="http://sodipodi.sourceforge.net/DTD/sodipodi-0.dtd"
   xmlns:inkscape="http://www.inkscape.org/namespaces/inkscape"
   width="48"
   height="48"
   viewBox="0 0 12.7 12.7"
   version="1.1"
   id="svg4"
   sodipodi:docname="debian-logo.svg"
   inkscape:version="0.92.4 (5da689c313, 2019-01-14)">
  <metadata
     id="metadata10">
    <rdf:RDF>
      <cc:Work
         rdf:about="">
        <dc:format>image/svg+xml</dc:format>
        <dc:type
           rdf:resource="http://purl.org/dc/dcmitype/StillImage" />
        <dc:title></dc:title>
      </cc:Work>
    </rdf:RDF>
  </metadata>
  <defs
     id="defs8" />
  <sodipodi:namedview
     pagecolor="#ffffff"
     bordercolor="#666666"
     borderopacity="1"
     objecttolerance="10"
     gridtolerance="10"
     guidetolerance="10"
     inkscape:pageopacity="0"
     inkscape:pageshadow="2"
     inkscape:window-width="1087"
     inkscape:window-height="480"
     id="namedview6"
     showgrid="false"
     inkscape:zoom="4.9166667"
     inkscape:cx="2.1355932"
     inkscape:cy="24"
     inkscape:window-x="0"
     inkscape:window-y="25"
     inkscape:window-maximized="0"
     inkscape:current-layer="svg4" />
  <path
     d="M 6.34,0.07 A 6.29,6.29 0 0 0 0.05,6.37 6.29,6.29 0 0 0 6.35,12.65 6.29,6.29 0 0 0 12.63,6.36 6.29,6.29 0 0 0 6.34,0.07 Z M 6.33,1.01 a 5.4,5.4 0 0 1 5.4,5.4 5.4,5.4 0 0 1 -5.4,5.41 A 5.4,5.4 0 0 1 0.92,6.42 5.4,5.4 0 0 1 6.32,1 Z M 6.88,1.78 6.46,1.81 6.52,1.82 C 6.62,1.78 6.77,1.8 6.88,1.78 Z M 6.26,1.84 C 6.03,1.85 5.71,1.98 5.81,1.87 5.44,2.03 4.77,2.27 4.39,2.62 V 2.54 C 4.21,2.74 3.63,3.16 3.59,3.42 L 3.54,3.44 C 3.45,3.59 3.4,3.76 3.32,3.91 3.21,4.11 3.15,3.99 3.17,4.02 2.94,4.49 2.83,4.88 2.73,5.2 c 0.07,0.1 0,0.63 0.03,1.05 a 4.7,4.7 0 0 0 3.18,4.58 c 0.26,0.09 0.63,0.08 0.95,0.1 C 6.51,10.82 6.47,10.87 6.09,10.73 5.83,10.61 5.77,10.47 5.59,10.31 l 0.07,0.13 C 5.29,10.31 5.45,10.28 5.15,10.18 l 0.08,-0.1 c -0.12,0 -0.32,-0.2 -0.37,-0.3 H 4.73 C 4.57,9.58 4.49,9.45 4.49,9.34 L 4.45,9.41 C 4.4,9.33 3.87,8.69 4.15,8.84 4.1,8.79 4.03,8.76 3.95,8.63 L 4.01,8.56 C 3.88,8.39 3.77,8.17 3.78,8.1 3.85,8.2 3.9,8.21 3.94,8.23 3.61,7.4 3.59,8.19 3.34,7.39 H 3.39 L 3.29,7.19 3.32,6.96 C 3.08,6.68 3.25,5.78 3.28,5.28 3.31,5.08 3.48,4.86 3.62,4.53 L 3.54,4.51 C 3.69,4.24 4.44,3.41 4.77,3.46 4.94,3.26 4.74,3.46 4.71,3.41 5.07,3.03 5.18,3.14 5.43,3.07 5.69,2.92 5.2,3.14 5.33,3.01 5.78,2.9 5.65,2.75 6.25,2.69 6.31,2.73 6.1,2.75 6.05,2.79 6.43,2.61 7.25,2.65 7.79,2.89 8.41,3.19 9.11,4.04 9.13,4.85 H 9.16 C 9.15,5.18 9.21,5.55 9.1,5.89 L 9.18,5.73 C 9.18,5.97 9.11,6.09 9.03,6.3 L 8.9,6.37 C 8.8,6.57 8.91,6.5 8.84,6.67 8.67,6.82 8.33,7.13 8.22,7.17 8.14,7.16 8.27,7.07 8.29,7.03 8.07,7.18 8.11,7.26 7.77,7.36 L 7.76,7.33 C 6.91,7.73 5.74,6.94 5.76,5.87 5.74,5.94 5.73,5.92 5.71,5.95 5.67,5.39 5.96,4.84 6.47,4.61 6.97,4.37 7.54,4.47 7.89,4.8 7.7,4.54 7.31,4.27 6.86,4.3 6.41,4.3 5.99,4.59 5.85,4.9 5.62,5.04 5.59,5.46 5.49,5.53 5.36,6.53 5.74,6.95 6.4,7.45 6.45,7.49 6.46,7.51 6.46,7.53 7.23,7.82 8.03,7.75 8.7,7.21 8.87,7.08 9.06,6.85 9.11,6.85 9.03,6.97 9.13,6.91 9.06,7.01 9.23,6.74 8.99,6.91 9.24,6.54 l 0.1,0.13 C 9.3,6.44 9.61,6.17 9.58,5.8 9.65,5.7 9.66,5.92 9.58,6.17 9.69,5.89 9.61,5.85 9.64,5.62 L 9.73,5.86 C 9.66,5.59 9.8,5.4 9.83,5.25 9.8,5.23 9.73,5.37 9.71,5.05 9.71,4.91 9.75,4.97 9.76,4.94 9.74,4.92 9.66,4.82 9.62,4.61 9.65,4.56 9.71,4.74 9.75,4.74 9.72,4.58 9.67,4.46 9.67,4.33 9.55,4.07 9.63,4.37 9.53,4.22 9.39,3.8 9.63,4.12 9.65,3.93 9.85,4.23 9.97,4.68 10.02,4.87 9.98,4.64 9.92,4.42 9.84,4.2 9.9,4.23 9.74,3.73 9.92,4.06 9.72,3.36 9.1,2.7 8.52,2.39 8.59,2.45 8.68,2.53 8.65,2.55 8.36,2.37 8.41,2.36 8.37,2.29 8.14,2.19 8.12,2.29 7.97,2.29 7.53,2.05 7.44,2.08 7.04,1.93 L 7.05,2.02 C 6.76,1.92 6.71,2.06 6.4,2.02 6.38,2 6.5,1.97 6.6,1.95 6.32,1.99 6.33,1.9 6.05,1.96 Z M 6.49,1.89 C 6.57,1.91 6.67,1.92 6.65,1.94 6.75,1.92 6.76,1.9 6.49,1.89 Z M 6.65,1.94 6.6,1.95 H 6.65 Z M 2.92,3.74 C 2.95,3.95 2.76,4.04 2.97,3.89 3.07,3.64 2.92,3.83 2.92,3.74 Z M 2.76,4.43 C 2.62,4.6 2.7,4.63 2.68,4.75 2.73,4.6 2.74,4.51 2.76,4.43 Z m 5.4,1.01 C 8.14,5.44 8.12,5.49 8.1,5.54 8.13,5.56 8.15,5.74 8.18,5.62 8.19,5.49 8.18,5.44 8.16,5.44 Z M 9.82,5.9 9.79,5.96 A 2.7,2.7 0 0 1 9.53,6.8 C 9.68,6.52 9.78,6.21 9.82,5.9 Z M 8.06,6 C 8.04,6.1 7.99,6.2 7.93,6.28 7.65,6.46 7.91,6.18 7.93,6.07 7.63,6.45 7.89,6.3 7.88,6.41 7.98,6.28 8.04,6.15 8.06,6.01 Z M 7.44,6.59 C 7.32,6.62 7.19,6.62 7.07,6.61 6.92,6.61 7.1,6.69 7.29,6.71 Z M 5.53,6.61 C 5.56,6.73 5.63,6.84 5.7,6.95 L 5.65,6.81 C 5.59,6.75 5.56,6.68 5.53,6.61 Z M 5.41,6.81 5.39,6.92 c 0.1,0.14 0.18,0.29 0.3,0.4 C 5.61,7.13 5.54,7.06 5.41,6.82 Z m 0.2,0.17 c 0.35,0.63 1.43,1.1 2,0.87 -0.26,0.01 -0.6,0 -0.9,-0.1 C 6.61,7.69 6.45,7.57 6.45,7.53 V 7.59 C 6.23,7.49 6.03,7.33 5.86,7.14 5.95,7.27 6.04,7.39 6.16,7.49 5.96,7.42 5.68,6.99 5.6,6.98 Z"
     id="path2"
     inkscape:connector-curvature="0"
     style="fill:#5beedc" />
</svg>
