<?xml version="1.0" encoding="UTF-8" standalone="no"?>
<svg
   xmlns:dc="http://purl.org/dc/elements/1.1/"
   xmlns:cc="http://creativecommons.org/ns#"
   xmlns:rdf="http://www.w3.org/1999/02/22-rdf-syntax-ns#"
   xmlns:svg="http://www.w3.org/2000/svg"
   xmlns="http://www.w3.org/2000/svg"
   xmlns:sodipodi="http://sodipodi.sourceforge.net/DTD/sodipodi-0.dtd"
   xmlns:inkscape="http://www.inkscape.org/namespaces/inkscape"
   width="48"
   height="48"
   viewBox="0 0 12.7 12.7"
   version="1.1"
   id="svg4"
   sodipodi:docname="gnome-foot.svg"
   inkscape:version="0.92.4 (5da689c313, 2019-01-14)">
  <metadata
     id="metadata10">
    <rdf:RDF>
      <cc:Work
         rdf:about="">
        <dc:format>image/svg+xml</dc:format>
        <dc:type
           rdf:resource="http://purl.org/dc/dcmitype/StillImage" />
        <dc:title></dc:title>
      </cc:Work>
    </rdf:RDF>
  </metadata>
  <defs
     id="defs8" />
  <sodipodi:namedview
     pagecolor="#ffffff"
     bordercolor="#666666"
     borderopacity="1"
     objecttolerance="10"
     gridtolerance="10"
     guidetolerance="10"
     inkscape:pageopacity="0"
     inkscape:pageshadow="2"
     inkscape:window-width="1087"
     inkscape:window-height="480"
     id="namedview6"
     showgrid="false"
     inkscape:zoom="4.9166667"
     inkscape:cx="2.1355932"
     inkscape:cy="24"
     inkscape:window-x="0"
     inkscape:window-y="25"
     inkscape:window-maximized="0"
     inkscape:current-layer="svg4" />
  <path
     d="M 6.34,0.07 A 6.29,6.29 0 0 0 0.05,6.37 6.29,6.29 0 0 0 6.35,12.65 6.29,6.29 0 0 0 12.63,6.36 6.29,6.29 0 0 0 6.34,0.07 Z M 6.32,1 6.33,1.01 a 5.4,5.4 0 0 1 5.4,5.4 5.4,5.4 0 0 1 -5.4,5.41 A 5.4,5.4 0 0 1 0.92,6.42 5.4,5.4 0 0 1 6.32,1 Z M 8.48,3 C 7.16,3 6.91,5.01 7.65,5.01 c 0.75,0 2.15,-2 0.83,-2 z M 6.38,3.24 C 5.63,3.34 5.89,4.76 6.3,4.79 6.7,4.82 7.14,3.13 6.38,3.24 Z M 5.02,3.68 A 0.48,0.48 0 0 0 4.89,3.71 C 4.19,3.98 4.79,5.08 5.19,5.01 5.55,4.94 5.59,3.62 5.02,3.68 Z M 4.09,4.57 A 0.38,0.38 0 0 0 3.89,4.63 C 3.3,4.97 4.09,5.8 4.42,5.67 4.72,5.56 4.53,4.58 4.09,4.57 Z M 6.8,5.24 C 5.76,5.22 4.39,5.76 4.15,6.86 3.9,8.05 5.2,9.69 6.55,9.69 7.22,9.69 7.98,9.06 8.13,8.27 8.23,7.66 6.75,7.9 6.8,8.3 6.84,8.63 6.67,8.8 6.43,8.8 6.11,8.77 5.95,8.58 5.9,8.3 5.85,7.56 8.18,7.03 8,5.88 7.93,5.46 7.42,5.25 6.8,5.24 Z"
     id="path2"
     inkscape:connector-curvature="0"
     style="fill:#5beedc" />
</svg>
