<?xml version="1.0" encoding="UTF-8" standalone="no"?>
<svg
   xmlns:dc="http://purl.org/dc/elements/1.1/"
   xmlns:cc="http://creativecommons.org/ns#"
   xmlns:rdf="http://www.w3.org/1999/02/22-rdf-syntax-ns#"
   xmlns:svg="http://www.w3.org/2000/svg"
   xmlns="http://www.w3.org/2000/svg"
   xmlns:sodipodi="http://sodipodi.sourceforge.net/DTD/sodipodi-0.dtd"
   xmlns:inkscape="http://www.inkscape.org/namespaces/inkscape"
   width="48"
   height="48"
   viewBox="0 0 12.7 12.7"
   version="1.1"
   id="svg4"
   sodipodi:docname="preferences-system-brightness-lock.svg"
   inkscape:version="0.92.5 (2060ec1f9f, 2020-04-08)">
  <defs
     id="defs8">
  <style
     id="current-color-scheme"
     type="text/css">
      .ColorScheme-Highlight {
        color:#5beedc;
      }
  </style>
  </defs>
  <path
     class="ColorScheme-Highlight"
     style="fill:#5beedc"
     d="M 24 0 A 24 24 0 0 0 0 24 A 24 24 0 0 0 24 48 A 24 24 0 0 0 48 24 A 24 24 0 0 0 24 0 z M 24 3 A 21 21 0 0 1 45 24 A 21 21 0 0 1 24 45 A 21 21 0 0 1 3 24 A 21 21 0 0 1 24 3 z M 23 7 L 23 12 L 25 12 L 25 7 L 23 7 z M 12.685547 11.271484 L 11.271484 12.685547 L 14.806641 16.222656 L 16.222656 14.806641 L 12.685547 11.271484 z M 35.314453 11.271484 L 31.777344 14.806641 L 33.193359 16.222656 L 36.728516 12.685547 L 35.314453 11.271484 z M 24 16 A 7.9999994 7.9999994 0 0 0 16 24 A 7.9999994 7.9999994 0 0 0 24 32 A 7.9999994 7.9999994 0 0 0 32 24 A 7.9999994 7.9999994 0 0 0 24 16 z M 24 18 A 6 6 0 0 1 30 24 A 6 6 0 0 1 24 30 L 24 18 z M 7 23 L 7 25 L 12 25 L 12 23 L 7 23 z M 36 23 L 36 25 L 41 25 L 41 23 L 36 23 z M 14.806641 31.777344 L 11.271484 35.314453 L 12.685547 36.728516 L 16.222656 33.193359 L 14.806641 31.777344 z M 33.193359 31.777344 L 31.777344 33.193359 L 35.314453 36.728516 L 36.728516 35.314453 L 33.193359 31.777344 z M 23 36 L 23 41 L 25 41 L 25 36 L 23 36 z "
     transform="scale(0.26458333)"
     id="path831" />
</svg>
