<?xml version="1.0" encoding="UTF-8" standalone="no"?>
<svg
   xmlns:dc="http://purl.org/dc/elements/1.1/"
   xmlns:cc="http://creativecommons.org/ns#"
   xmlns:rdf="http://www.w3.org/1999/02/22-rdf-syntax-ns#"
   xmlns:svg="http://www.w3.org/2000/svg"
   xmlns="http://www.w3.org/2000/svg"
   xmlns:sodipodi="http://sodipodi.sourceforge.net/DTD/sodipodi-0.dtd"
   xmlns:inkscape="http://www.inkscape.org/namespaces/inkscape"
   width="48"
   height="48"
   viewBox="0 0 12.7 12.7"
   version="1.1"
   id="svg4"
   sodipodi:docname="preferences-desktop-display2.svg"
   inkscape:version="0.92.5 (2060ec1f9f, 2020-04-08)">
  <defs
     id="defs8">
  <style
     id="current-color-scheme"
     type="text/css">
      .ColorScheme-Highlight {
        color:#5beedc;
      }
  </style>
  </defs>
  <path
     class="ColorScheme-Highlight"
     style="fill:#5beedc"
     d="M 24 0 A 24 24 0 0 0 0 24 A 24 24 0 0 0 24 48 A 24 24 0 0 0 48 24 A 24 24 0 0 0 24 0 z M 24 3 A 21 21 0 0 1 45 24 A 21 21 0 0 1 24 45 A 21 21 0 0 1 3 24 A 21 21 0 0 1 24 3 z M 13 11 C 11.338 11 10 12.338 10 14 L 10 35 C 10 36.662 11.338 38 13 38 L 35 38 C 36.662 38 38 36.662 38 35 L 38 14 C 38 12.338 36.662 11 35 11 L 13 11 z M 13 13 L 35 13 C 35.553999 13 36 13.446 36 14 L 36 35 C 36 35.554 35.553999 36 35 36 L 13 36 C 12.446001 36 12 35.554 12 35 L 12 14 C 12 13.446 12.446001 13 13 13 z M 22 15 L 19 19 L 21 19 L 21 24 L 17 24 L 17 22 L 13 25 L 17 28 L 17 26 L 21 26 L 21 30 L 19 30 L 22 34 L 25 30 L 23 30 L 23 26 L 30 26 L 30 28 L 34 25 L 30 22 L 30 24 L 23 24 L 23 19 L 25 19 L 22 15 z "
     transform="scale(0.26458333)"
     id="path823" />
</svg>
