<?xml version="1.0" encoding="UTF-8" standalone="no"?>
<svg
   xmlns:dc="http://purl.org/dc/elements/1.1/"
   xmlns:cc="http://creativecommons.org/ns#"
   xmlns:rdf="http://www.w3.org/1999/02/22-rdf-syntax-ns#"
   xmlns:svg="http://www.w3.org/2000/svg"
   xmlns="http://www.w3.org/2000/svg"
   xmlns:sodipodi="http://sodipodi.sourceforge.net/DTD/sodipodi-0.dtd"
   xmlns:inkscape="http://www.inkscape.org/namespaces/inkscape"
   width="48"
   height="48"
   viewBox="0 0 12.7 12.7"
   version="1.1"
   id="svg4"
   sodipodi:docname="distributor-logo-elementary.svg"
   inkscape:version="0.92.4 (5da689c313, 2019-01-14)">
  <metadata
     id="metadata10">
    <rdf:RDF>
      <cc:Work
         rdf:about="">
        <dc:format>image/svg+xml</dc:format>
        <dc:type
           rdf:resource="http://purl.org/dc/dcmitype/StillImage" />
        <dc:title></dc:title>
      </cc:Work>
    </rdf:RDF>
  </metadata>
  <defs
     id="defs8" />
  <sodipodi:namedview
     pagecolor="#ffffff"
     bordercolor="#666666"
     borderopacity="1"
     objecttolerance="10"
     gridtolerance="10"
     guidetolerance="10"
     inkscape:pageopacity="0"
     inkscape:pageshadow="2"
     inkscape:window-width="1087"
     inkscape:window-height="480"
     id="namedview6"
     showgrid="false"
     inkscape:zoom="4.9166667"
     inkscape:cx="2.1355932"
     inkscape:cy="24"
     inkscape:window-x="0"
     inkscape:window-y="25"
     inkscape:window-maximized="0"
     inkscape:current-layer="svg4" />
  <path
     d="m 6.34,0.07 a 6.29,6.29 0 0 0 -6.29,6.3 6.29,6.29 0 0 0 6.3,6.28 6.29,6.29 0 0 0 6.28,-6.29 6.29,6.29 0 0 0 -6.29,-6.29 z m 0.01,0.95 c 0.3,0 0.59,0.02 0.87,0.07 a 5.4,5.4 0 0 1 0.05,0 l 0.32,0.07 a 5.4,5.4 0 0 1 0.2,0.06 l 0.23,0.07 a 5.4,5.4 0 0 1 0.3,0.1 l 0.15,0.06 a 5.4,5.4 0 0 1 0.45,0.22 5.4,5.4 0 0 1 0.43,0.27 l 0.07,0.05 a 5.4,5.4 0 0 1 0.35,0.26 l 0.07,0.06 a 5.4,5.4 0 0 1 0.36,0.34 5.4,5.4 0 0 1 0.67,0.84 5.4,5.4 0 0 1 0.27,0.47 5.4,5.4 0 0 1 0.39,0.98 9.34,9.34 0 0 1 -2.28,2.97 C 8.79,8.31 8.29,8.66 7.75,8.91 7.19,9.16 6.59,9.3 5.98,9.26 5.53,9.24 5.08,9.11 4.68,8.89 5.74,8.32 6.68,7.56 7.46,6.65 7.97,6.05 8.42,5.37 8.59,4.61 8.68,4.22 8.69,3.82 8.61,3.44 A 2.16,2.16 0 0 0 8.08,2.4 C 7.82,2.12 7.48,1.92 7.11,1.82 6.74,1.72 6.34,1.72 5.97,1.78 5.21,1.92 4.54,2.36 4,2.9 A 4.78,4.78 0 0 0 2.56,6.56 3.85,3.85 0 0 0 3.51,8.81 8.8,8.8 0 0 1 1.77,9.23 5.38,5.38 0 0 1 6.35,1.03 Z m 0.03,1.09 c 0.38,0 0.76,0.11 1.07,0.34 0.27,0.2 0.47,0.5 0.58,0.82 0.12,0.32 0.15,0.67 0.1,1 C 8.06,4.95 7.72,5.57 7.3,6.12 A 7.93,7.93 0 0 1 4.2,8.54 C 3.96,8.34 3.76,8.09 3.6,7.82 A 3.23,3.23 0 0 1 3.24,5.92 C 3.31,5.28 3.53,4.65 3.83,4.07 4.17,3.4 4.65,2.77 5.31,2.4 5.64,2.22 6.01,2.1 6.39,2.1 Z m 5.3,3.58 a 5.4,5.4 0 0 1 0.05,0.72 5.4,5.4 0 0 1 -0.02,0.5 L 11.7,7 A 5.4,5.4 0 0 1 11.64,7.4 L 11.59,7.61 A 5.4,5.4 0 0 1 11.53,7.87 5.38,5.38 0 0 1 2.2,9.83 C 2.81,9.69 3.4,9.49 3.98,9.23 4.23,9.43 4.5,9.58 4.8,9.7 5.64,10.02 6.6,9.97 7.45,9.68 A 6.5,6.5 0 0 0 9.73,8.23 9.78,9.78 0 0 0 11.68,5.69 Z"
     id="path2"
     inkscape:connector-curvature="0"
     style="fill:#5beedc" />
</svg>
