<?xml version="1.0" encoding="UTF-8" standalone="no"?>
<svg
   xmlns:dc="http://purl.org/dc/elements/1.1/"
   xmlns:cc="http://creativecommons.org/ns#"
   xmlns:rdf="http://www.w3.org/1999/02/22-rdf-syntax-ns#"
   xmlns:svg="http://www.w3.org/2000/svg"
   xmlns="http://www.w3.org/2000/svg"
   xmlns:sodipodi="http://sodipodi.sourceforge.net/DTD/sodipodi-0.dtd"
   xmlns:inkscape="http://www.inkscape.org/namespaces/inkscape"
   width="48"
   height="48"
   viewBox="0 0 12.7 12.7"
   version="1.1"
   id="svg4"
   sodipodi:docname="distributor-logo-kali-linux.svg"
   inkscape:version="0.92.5 (2060ec1f9f, 2020-04-08)">
  <metadata
     id="metadata10">
    <rdf:RDF>
      <cc:Work
         rdf:about="">
        <dc:format>image/svg+xml</dc:format>
        <dc:type
           rdf:resource="http://purl.org/dc/dcmitype/StillImage" />
        <dc:title></dc:title>
      </cc:Work>
    </rdf:RDF>
  </metadata>
  <defs
     id="defs8" />
  <sodipodi:namedview
     pagecolor="#ffffff"
     bordercolor="#666666"
     borderopacity="1"
     objecttolerance="10"
     gridtolerance="10"
     guidetolerance="10"
     inkscape:pageopacity="0"
     inkscape:pageshadow="2"
     inkscape:window-width="1085"
     inkscape:window-height="480"
     id="namedview6"
     showgrid="false"
     inkscape:zoom="4.9166667"
     inkscape:cx="2.1355932"
     inkscape:cy="24"
     inkscape:window-x="0"
     inkscape:window-y="25"
     inkscape:window-maximized="0"
     inkscape:current-layer="svg4" />
  <path
     d="M 6.34,0.075 A 6.295,6.295 0 0 0 0.055,6.36 6.296,6.296 0 0 0 6.34,12.655 6.295,6.295 0 0 0 12.634,6.36 6.295,6.295 0 0 0 6.34,0.075 Z m -0.011,0.94 a 5.408,5.408 0 0 1 5.397,5.387 5.407,5.407 0 1 1 -10.814,0 c 0,-2.987 2.43,-5.387 5.417,-5.387 z M 6.037,1.859 C 5.887,1.871 5.738,1.882 5.592,1.904 5.924,2.143 6.282,2.343 6.599,2.603 a 11.428,11.428 0 0 1 1.656,1.67 C 8.383,4.413 8.598,4.307 8.763,4.333 8.577,3.99 8.236,3.768 7.973,3.491 A 18.695,18.695 0 0 0 6.037,1.86 Z M 4.919,2.545 c -0.003,0 0.006,0.089 0.02,0.197 0.014,0.11 0.02,0.2 0.011,0.21 A 3.092,3.092 0 0 1 4.565,2.807 c -0.534,-0.22 -0.64,-0.26 -0.64,-0.232 0,0.011 0.026,0.09 0.054,0.17 0.106,0.29 0.11,0.274 -0.045,0.27 -0.072,0 -0.324,-0.02 -0.553,-0.049 A 4.678,4.678 0 0 0 2.954,2.924 c -0.005,0.003 0.06,0.103 0.15,0.217 0.087,0.118 0.154,0.22 0.149,0.224 a 6.16,6.16 0 0 1 -0.5,0.098 9.99,9.99 0 0 0 -0.542,0.109 c -0.044,0.02 -0.025,0.044 0.134,0.17 0.1,0.08 0.185,0.15 0.185,0.156 0,0.006 -0.162,0.112 -0.36,0.238 A 9.03,9.03 0 0 0 1.734,4.426 L 1.656,4.487 1.899,4.554 c 0.13,0.034 0.24,0.073 0.24,0.08 0,0.01 -0.137,0.208 -0.308,0.437 A 7.54,7.54 0 0 0 1.525,5.509 c 0,0.01 0.117,0.025 0.26,0.028 L 2.047,5.545 1.93,6.048 A 7.39,7.39 0 0 0 1.818,6.558 C 1.821,6.561 1.921,6.52 2.038,6.464 2.162,6.405 2.265,6.372 2.276,6.386 c 0.02,0.022 0.226,0.723 0.226,0.77 0,0.011 0.014,0.053 0.028,0.095 L 2.56,7.326 2.694,7.195 2.828,7.061 3.091,7.273 c 0.146,0.114 0.36,0.268 0.477,0.338 0.541,0.3 1.099,0.571 1.67,0.81 1.284,0.536 1.836,0.862 2.33,1.387 0.28,0.296 0.43,0.583 0.542,1.033 l 0.078,0.315 0.022,-0.165 c 0.03,-0.232 0,-0.675 -0.055,-0.84 A 3.57,3.57 0 0 0 7.937,9.705 2.224,2.224 0 0 0 7.512,9.146 C 7.077,8.706 6.631,8.403 5.989,8.11 4.649,7.504 4.252,7.267 3.719,6.76 3.149,6.215 2.935,5.724 3.029,5.182 3.099,4.792 3.382,4.395 3.725,4.212 4.06,4.029 4.235,3.991 4.749,3.977 5.319,3.96 5.601,3.99 6.078,4.202 6.315,4.29 6.343,4.297 6.356,4.301 L 7.503,4.89 A 0.37,0.37 0 0 1 7.628,4.987 C 7.666,5.032 7.656,5.084 7.65,5.166 7.645,5.237 7.648,5.312 7.651,5.383 c 0.018,0.195 0.083,0.361 0.184,0.46 0.087,0.086 0.28,0.208 0.672,0.422 0.19,0.104 0.426,0.242 0.524,0.307 0.23,0.152 0.467,0.344 0.685,0.55 v 0.001 c 0.149,0.142 0.299,0.3 0.42,0.447 0.103,0.123 0.172,0.195 0.187,0.19 0.017,-0.004 0.2,-0.124 0.415,-0.27 0.529,-0.359 0.549,-0.374 0.529,-0.397 A 0.222,0.222 0 0 0 11.191,7.063 2.494,2.494 0 0 1 10.356,6.713 3.57,3.57 0 0 1 10.031,6.467 C 9.917,6.367 9.802,6.277 9.704,6.155 L 9.654,6.09 9.686,6.054 C 9.782,5.948 9.775,5.899 9.623,5.644 9.423,5.309 9.227,4.968 9.145,4.816 A 2.57,2.57 0 0 0 8.998,4.564 0.331,0.331 0 0 0 8.922,4.485 0.183,0.183 0 0 0 8.846,4.449 C 8.664,4.428 8.396,4.499 8.254,4.429 A 0.516,0.516 0 0 1 8.134,4.338 C 8.042,4.249 7.954,4.141 7.883,4.058 A 48.045,48.045 0 0 1 7.5,3.606 C 7.351,3.426 7.242,3.309 7.215,3.302 7.209,3.3 7.209,3.299 7.208,3.308 7.206,3.334 7.216,3.444 7.233,3.57 7.256,3.737 7.269,3.822 7.265,3.857 7.263,3.867 7.263,3.869 7.257,3.872 7.24,3.881 7.204,3.853 7.134,3.806 L 7.13,3.802 H 7.129 C 6.819,3.588 6.394,3.077 6.182,2.831 L 6.228,3.318 C 6.151,3.281 6.072,3.238 6.001,3.207 5.733,3.121 5.628,2.96 5.215,2.715 A 7.294,7.294 0 0 0 4.919,2.545 Z m 4.061,2.66 c 0.007,0 0.013,0.003 0.022,0.007 C 9.07,5.296 9.139,5.393 9.188,5.466 9.284,5.609 9.362,5.738 9.364,5.753 9.366,5.773 9.359,5.775 9.356,5.778 9.331,5.806 9.259,5.804 9.162,5.768 8.995,5.708 8.906,5.637 8.883,5.544 8.859,5.446 8.906,5.26 8.959,5.216 8.967,5.209 8.974,5.206 8.98,5.206 Z"
     id="path2"
     inkscape:connector-curvature="0"
     style="fill:#5beedc" />
</svg>
