<?xml version="1.0" encoding="UTF-8" standalone="no"?>
<svg
   xmlns:dc="http://purl.org/dc/elements/1.1/"
   xmlns:cc="http://creativecommons.org/ns#"
   xmlns:rdf="http://www.w3.org/1999/02/22-rdf-syntax-ns#"
   xmlns:svg="http://www.w3.org/2000/svg"
   xmlns="http://www.w3.org/2000/svg"
   xmlns:sodipodi="http://sodipodi.sourceforge.net/DTD/sodipodi-0.dtd"
   xmlns:inkscape="http://www.inkscape.org/namespaces/inkscape"
   width="48"
   height="48"
   version="1.1"
   viewBox="0 0 12.7 12.7"
   id="svg6"
   sodipodi:docname="distributor-logo-rhel.svg"
   inkscape:version="0.92.4 (5da689c313, 2019-01-14)">
  <metadata
     id="metadata12">
    <rdf:RDF>
      <cc:Work
         rdf:about="">
        <dc:format>image/svg+xml</dc:format>
        <dc:type
           rdf:resource="http://purl.org/dc/dcmitype/StillImage" />
        <dc:title></dc:title>
      </cc:Work>
    </rdf:RDF>
  </metadata>
  <defs
     id="defs10" />
  <sodipodi:namedview
     pagecolor="#ffffff"
     bordercolor="#666666"
     borderopacity="1"
     objecttolerance="10"
     gridtolerance="10"
     guidetolerance="10"
     inkscape:pageopacity="0"
     inkscape:pageshadow="2"
     inkscape:window-width="1136"
     inkscape:window-height="480"
     id="namedview8"
     showgrid="false"
     inkscape:zoom="4.9166667"
     inkscape:cx="2.1355932"
     inkscape:cy="24"
     inkscape:window-x="0"
     inkscape:window-y="25"
     inkscape:window-maximized="0"
     inkscape:current-layer="svg6" />
  <path
     d="M 6.3396014,0.07544763 C 2.8712222,0.08119453 0.06111798,2.8913726 0.05529722,6.3597518 c -4.61e-6,3.4723479 2.81195628,6.2888022 6.28430418,6.2946232 3.4765812,0 6.2946226,-2.818042 6.2946226,-6.2946232 C 12.628466,2.8874039 9.8119493,0.07544763 6.3396014,0.07544763 Z M 6.3292661,1.0149183 c 2.9741438,0.00572 5.3855259,2.4125198 5.3969029,5.3865842 0,2.9865791 -2.4208806,5.4074865 -5.4074861,5.4074865 -2.986579,0 -5.40722147,-2.420881 -5.40722147,-5.4074865 0,-2.986579 2.43122567,-5.3865842 5.41780467,-5.3865842 z M 1.2945733,6.0760691 a 5.1087752,5.0309887 0 0 0 0.01757,0.3245338 5.1087752,5.0309887 0 0 1 -0.01757,-0.3245338 z m 0.01757,0.3245338 A 5.1087752,5.0309887 0 0 0 1.3302294,6.6352113 5.1087752,5.0309887 0 0 1 1.312143,6.4006029 Z m 0.018086,0.2346084 a 5.1087752,5.0309887 0 0 0 0.03979,0.253211 5.1087752,5.0309887 0 0 1 -0.03979,-0.253211 z m 0.03979,0.253211 A 5.1087752,5.0309887 0 0 0 1.4154956,7.139051 5.1087752,5.0309887 0 0 1 1.3700196,6.8884223 Z M 1.4154956,7.139051 A 5.1087752,5.0309887 0 0 0 1.474407,7.3633249 5.1087752,5.0309887 0 0 1 1.4154956,7.139051 Z M 1.474407,7.3633249 A 5.1087752,5.0309887 0 0 0 1.5653564,7.6785455 5.1087752,5.0309887 0 0 1 1.474407,7.3633249 Z M 11.505164,6.254867 a 5.1087752,5.0309887 0 0 1 -0.02635,0.3374453 5.1087752,5.0309887 0 0 0 0.02635,-0.3374453 z M 3.8860537,6.528231 c -0.2861962,-0.00343 -0.428699,0.2517082 -0.4072151,0.4599195 0.02491,0.2413604 0.1836556,0.4347578 0.2573464,0.5632643 0.072998,0.1281784 0.110351,0.2117831 0.2480438,0.2687075 0.098254,0.039885 0.1349966,0.09971 0.1059351,0.1787978 -0.0256,0.068862 -0.1278715,0.084779 -0.1953341,0.087848 C 3.7526392,8.0932453 3.6531228,8.055617 3.5801119,8.0092546 3.4956977,7.9567567 3.4266,7.8830447 3.3532557,7.7575941 3.2674577,7.6195283 3.1332601,7.4330602 2.9765467,7.4330602 c -0.074728,0 -0.1452914,0.019961 -0.207219,0.050643 C 2.5236942,7.610178 2.2315159,7.6846811 1.9166657,7.6847235 H 1.5673407 A 5.1087752,5.0309887 0 0 0 6.4030694,11.10733 5.1087752,5.0309887 0 0 0 10.820233,8.5917566 H 10.07454 c -0.8621073,0 -0.6902361,0.2087854 -0.9327501,0.3079976 -0.026984,0.013294 -0.045476,0.040983 -0.045476,0.072347 0,0.011249 0.00291,0.022834 0.00775,0.032038 0.028368,0.082157 -0.019165,0.1705536 -0.2537269,0.221689 C 8.5023098,9.301167 8.2824438,9.5543304 8.1568477,9.6712748 8.0091221,9.8096818 7.5929748,9.8948475 7.6556009,9.8123488 7.7047281,9.7479183 7.8921407,9.64728 8.0059577,9.430454 8.1083608,9.2371625 8.1993869,9.1816642 8.3242739,8.9968868 8.3612913,8.9426823 8.5034131,8.7519069 8.5449284,8.6015778 8.5912881,8.453966 8.5755138,8.2693712 8.5935026,8.1933309 8.6191031,8.0835593 8.7240358,7.845858 8.7319944,7.7111867 8.7364843,7.635165 8.4094978,7.8197069 8.2545068,7.8197069 c -0.1549909,0 -0.3060132,-0.091532 -0.444415,-0.097667 C 7.6388398,7.7135172 7.5287639,7.8525201 7.373429,7.827975 7.2852074,7.8143386 7.2099238,7.7371368 7.0556155,7.7313398 6.8352362,7.7234992 6.5657985,7.8522634 6.0603449,7.8362405 5.5628551,7.820217 5.103412,7.2168322 5.0407859,7.1210543 4.967095,7.0082162 4.8773839,7.0086475 4.7798227,7.0972836 4.6819148,7.1852353 4.5610335,7.1159524 4.5271276,7.0569775 4.4617393,6.9441394 4.2872858,6.6156316 4.0170967,6.5464175 3.9703931,6.5344865 3.9267242,6.5288213 3.8858413,6.5283308 Z m 7.5698983,0.253211 a 5.1087752,5.0309887 0 0 1 -0.05994,0.3301959 5.1087752,5.0309887 0 0 0 0.05994,-0.3301959 z m -0.09301,0.4759265 a 5.1087752,5.0309887 0 0 1 -0.104901,0.3643267 5.1087752,5.0309887 0 0 0 0.104901,-0.3643267 z m -0.137458,0.461454 A 5.1087752,5.0309887 0 0 1 11.063218,8.1224129 5.1087752,5.0309887 0 0 0 11.225479,7.7188225 Z M 11.045131,8.1611738 A 5.1087752,5.0309887 0 0 1 10.821376,8.5890526 5.1087752,5.0309887 0 0 0 11.045131,8.1611738 Z M 7.3806978,8.3399717 c 0.00342,0 0.0065,0.00189 0.00879,0.00465 0.021718,0.028749 0.059152,0.1262999 0.013436,0.2511446 C 7.3771987,8.6619306 7.3497485,8.70833 7.3006002,8.7626801 7.2408792,8.8284493 7.1251333,8.904151 6.9662504,8.764747 6.8805265,8.6903153 6.8749782,8.6649341 6.7569623,8.6861984 6.6726672,8.7011623 6.6391105,8.5829726 6.6691138,8.4856971 c 0.030575,-0.097276 0.1548958,-0.1753637 0.3100613,-0.050125 0.070008,0.056318 0.1784963,0.1760965 0.2733641,0.069762 0.039719,-0.042928 0.063761,-0.072246 0.1183387,-0.1596793 0.00258,-0.00355 0.00581,-0.00568 0.00982,-0.00568 z"
     id="path2"
     inkscape:connector-curvature="0"
     style="fill:#5beedc;stroke-width:1.04387391" />
  <path
     d="M 7.0443,1.8698 C 6.93162,1.87411 6.81763,1.890651 6.70663,1.919216 6.54328,1.960978 6.3535,2.364896 5.63113,1.993824 c -1.0139,-0.37307 -1.1777,0.28306 -1.2364,0.50723 -0.059338,0.22417 -0.20057,0.86138 -0.20057,0.86138 -0.047003,0.25992 -0.10872,0.7106 1.4844,1.0149 0.74206,0.14132 0.77912,0.33389 0.81245,0.47187 0.059004,0.24757 0.15318,0.53817 0.25919,0.609 0.10601,0.070828 -4.96e-5,0.12929 -0.11772,0.14098 C 6.31679,5.632259 5.14818,5.147954 4.45678,4.754734 3.8914,4.408614 3.88222,4.146814 4.01155,3.882214 3.15749,3.78967 2.51675,3.912976 2.40075,4.318234 c -0.19968,0.69492 1.5251,1.882 3.4896,2.478 2.0615,0.62509 4.1817,0.18853 4.4174,-1.1094 0.10701,-0.58968 -0.38882,-1.1503 -1.2252,-1.339 -0.04867,0.16371 -0.16698,0.54719 -0.475,0.70555 -0.045004,0.023051 -0.061999,-0.01497 -0.041664,-0.050385 0.11667,-0.19845 0.18666,-0.2973 0.22066,-0.37514 0.047003,-0.11459 0.07254,-0.27747 -0.0218,-0.61624 -0.18502,-0.66718 -0.57182,-1.5592 -0.85218,-1.8483 -0.20327,-0.20947 -0.53012,-0.30652 -0.86816,-0.29359 z M 6.995369,2.11688 h 0.028583 c 0.31854,0.00681 0.57343,0.12295 0.56973,0.25968 -0.00403,0.13672 -0.2649,0.24212 -0.58378,0.23593 C 6.907312,2.61001 6.810542,2.596486 6.727462,2.574218 6.717031,2.572058 6.710505,2.564608 6.710505,2.555325 c 0,-0.00897 0.00667,-0.016902 0.01744,-0.01938 0.19812,-0.042068 0.33207,-0.11108 0.32265,-0.17634 C 7.037813,2.273306 6.778805,2.226025 6.470685,2.254475 6.436711,2.257565 6.403809,2.261455 6.371854,2.266102 h -0.00243 c -0.00874,8e-7 -0.015978,-0.00614 -0.015978,-0.013565 0,-0.00557 0.00382,-0.010431 0.00921,-0.012596 0.11134,-0.053821 0.27682,-0.097012 0.46654,-0.11434 0.056846,-0.00557 0.11269,-0.00872 0.16617,-0.00872 z m -2.2227,0.74414 c 0.047473,-0.00199 0.091196,0.024557 0.11191,0.051353 0.050533,0.065287 0.15878,0.17201 0.2994,0.16811 0.14062,-0.0039 0.30274,-0.034397 0.52904,-0.034397 0.22912,0 0.38298,0.088387 0.39145,0.16472 0.00785,0.064637 -0.018859,0.12536 -0.27372,0.14485 -0.53515,0.039952 -0.59073,0.10014 -0.69085,0.21026 -0.14124,0.15623 -0.32798,-0.20202 -0.32798,-0.20202 -0.11205,-0.024361 -0.24706,-0.21089 -0.17392,-0.38466 0.036095,-0.086075 0.087209,-0.11622 0.13468,-0.11821 z"
     id="path4"
     inkscape:connector-curvature="0"
     style="opacity:0.8;fill:#ff2a2a;stroke-width:0.24804001" />
</svg>
