<?xml version="1.0" encoding="UTF-8" standalone="no"?>
<svg
   xmlns:dc="http://purl.org/dc/elements/1.1/"
   xmlns:cc="http://creativecommons.org/ns#"
   xmlns:rdf="http://www.w3.org/1999/02/22-rdf-syntax-ns#"
   xmlns:svg="http://www.w3.org/2000/svg"
   xmlns="http://www.w3.org/2000/svg"
   xmlns:sodipodi="http://sodipodi.sourceforge.net/DTD/sodipodi-0.dtd"
   xmlns:inkscape="http://www.inkscape.org/namespaces/inkscape"
   width="48"
   height="48"
   viewBox="0 0 12.7 12.7"
   version="1.1"
   id="svg4"
   sodipodi:docname="distributor-logo-kaos.svg"
   inkscape:version="0.92.4 (5da689c313, 2019-01-14)">
  <metadata
     id="metadata10">
    <rdf:RDF>
      <cc:Work
         rdf:about="">
        <dc:format>image/svg+xml</dc:format>
        <dc:type
           rdf:resource="http://purl.org/dc/dcmitype/StillImage" />
        <dc:title></dc:title>
      </cc:Work>
    </rdf:RDF>
  </metadata>
  <defs
     id="defs8" />
  <sodipodi:namedview
     pagecolor="#ffffff"
     bordercolor="#666666"
     borderopacity="1"
     objecttolerance="10"
     gridtolerance="10"
     guidetolerance="10"
     inkscape:pageopacity="0"
     inkscape:pageshadow="2"
     inkscape:window-width="1087"
     inkscape:window-height="480"
     id="namedview6"
     showgrid="false"
     inkscape:zoom="4.9166667"
     inkscape:cx="2.1355932"
     inkscape:cy="24"
     inkscape:window-x="0"
     inkscape:window-y="25"
     inkscape:window-maximized="0"
     inkscape:current-layer="svg4" />
  <path
     d="M 6.34,0.07 A 6.29,6.29 0 0 0 0.05,6.37 6.29,6.29 0 0 0 6.35,12.65 6.29,6.29 0 0 0 12.63,6.36 6.29,6.29 0 0 0 6.34,0.07 Z M 6.32,1 6.33,1.01 a 5.4,5.4 0 0 1 5.4,5.4 5.4,5.4 0 0 1 -5.4,5.41 A 5.4,5.4 0 0 1 0.92,6.42 5.4,5.4 0 0 1 6.32,1 Z M 5.42,1.85 A 0.23,0.23 0 0 0 5.23,2.04 L 5.04,3 C 4.7,3.13 4.38,3.31 4.1,3.54 L 3.16,3.22 A 0.23,0.23 0 0 0 2.89,3.32 L 2,4.88 A 0.23,0.23 0 0 0 2.05,5.16 L 2.8,5.82 a 3.57,3.57 0 0 0 0,1.06 L 2.05,7.54 C 1.97,7.61 1.95,7.73 2,7.82 l 0.9,1.56 c 0.06,0.09 0.17,0.13 0.27,0.1 L 4.11,9.16 c 0.28,0.23 0.6,0.4 0.94,0.54 l 0.19,0.97 c 0.02,0.1 0.12,0.18 0.22,0.18 h 1.8 c 0.1,0 0.2,-0.08 0.22,-0.18 L 7.67,9.7 C 8.01,9.57 8.33,9.39 8.61,9.16 l 0.94,0.32 c 0.1,0.03 0.21,-0.01 0.27,-0.1 l 0.9,-1.56 A 0.23,0.23 0 0 0 10.67,7.54 L 9.92,6.88 a 3.58,3.58 0 0 0 0,-1.06 L 10.67,5.16 C 10.75,5.1 10.77,4.97 10.72,4.88 L 9.82,3.32 A 0.23,0.23 0 0 0 9.55,3.22 L 8.61,3.54 C 8.33,3.31 8.01,3.14 7.67,3 L 7.48,2.04 A 0.23,0.23 0 0 0 7.26,1.85 H 5.46 5.44 Z M 6.35,4.1 A 2.25,2.25 0 0 1 8.6,6.35 2.25,2.25 0 0 1 6.35,8.6 2.25,2.25 0 0 1 4.1,6.35 2.25,2.25 0 0 1 6.35,4.1 Z"
     id="path2"
     inkscape:connector-curvature="0"
     style="fill:#5beedc" />
</svg>
