<?xml version="1.0" encoding="UTF-8" standalone="no"?>
<svg
   xmlns:dc="http://purl.org/dc/elements/1.1/"
   xmlns:cc="http://creativecommons.org/ns#"
   xmlns:rdf="http://www.w3.org/1999/02/22-rdf-syntax-ns#"
   xmlns:svg="http://www.w3.org/2000/svg"
   xmlns="http://www.w3.org/2000/svg"
   xmlns:sodipodi="http://sodipodi.sourceforge.net/DTD/sodipodi-0.dtd"
   xmlns:inkscape="http://www.inkscape.org/namespaces/inkscape"
   width="48"
   height="48"
   viewBox="0 0 12.7 12.7"
   version="1.1"
   id="svg4"
   sodipodi:docname="plank.svg"
   inkscape:version="0.92.4 (5da689c313, 2019-01-14)">
  <metadata
     id="metadata10">
    <rdf:RDF>
      <cc:Work
         rdf:about="">
        <dc:format>image/svg+xml</dc:format>
        <dc:type
           rdf:resource="http://purl.org/dc/dcmitype/StillImage" />
        <dc:title></dc:title>
      </cc:Work>
    </rdf:RDF>
  </metadata>
  <defs
     id="defs8" />
  <sodipodi:namedview
     pagecolor="#ffffff"
     bordercolor="#666666"
     borderopacity="1"
     objecttolerance="10"
     gridtolerance="10"
     guidetolerance="10"
     inkscape:pageopacity="0"
     inkscape:pageshadow="2"
     inkscape:window-width="1087"
     inkscape:window-height="480"
     id="namedview6"
     showgrid="false"
     inkscape:zoom="4.9166667"
     inkscape:cx="2.1355932"
     inkscape:cy="24"
     inkscape:window-x="0"
     inkscape:window-y="25"
     inkscape:window-maximized="0"
     inkscape:current-layer="svg4" />
  <path
     d="m 6.344,0.073 a 6.29,6.29 0 0 0 -6.29,6.29 6.29,6.29 0 0 0 6.29,6.288 6.29,6.29 0 0 0 6.29,-6.289 6.29,6.29 0 0 0 -6.29,-6.29 z M 6.326,1.009 A 5.407,5.407 0 0 1 11.733,6.416 5.407,5.407 0 0 1 6.326,11.823 5.407,5.407 0 0 1 0.92,6.416 5.407,5.407 0 0 1 6.326,1.01 Z M 6.35,1.323 c -0.618,0 -1.117,0.5 -1.117,1.117 0,0.465 0.292,0.85 0.698,1.017 v 0.38 H 4.256 a 0.14,0.14 0 0 0 -0.14,0.139 v 0.42 c 0,0.078 0.06,0.139 0.14,0.139 H 5.93 V 9.702 C 5.93,9.845 5.69,9.848 5.555,9.863 5.355,9.861 5.235,9.811 5.045,9.759 A 6.49,6.49 0 0 1 3.809,9.248 C 3.643,9.156 3.481,9.066 3.334,8.947 3.27,8.893 3.196,8.814 3.202,8.724 3.211,8.656 3.245,8.584 3.32,8.572 3.388,8.562 3.448,8.597 3.508,8.62 3.559,8.642 3.595,8.58 3.586,8.537 A 0.709,0.709 0 0 0 3.482,8.223 C 3.361,8.023 3.174,7.875 2.98,7.747 2.773,7.615 2.553,7.47 2.422,7.258 2.396,7.219 2.366,7.155 2.308,7.176 2.227,7.202 2.182,7.282 2.142,7.35 2.03,7.563 1.974,7.793 1.924,8.027 A 1.96,1.96 0 0 0 1.889,8.598 c 0.015,0.19 0.028,0.382 0.105,0.56 0.048,0.115 0.133,0.21 0.218,0.3 C 2.266,9.401 2.322,9.34 2.378,9.284 2.449,9.212 2.538,9.164 2.644,9.179 2.787,9.197 2.916,9.284 3.028,9.366 3.186,9.489 3.334,9.618 3.495,9.737 a 4.6,4.6 0 0 0 0.825,0.476 c 0.24,0.112 0.487,0.224 0.737,0.315 0.045,0.02 0.095,0.018 0.14,0.035 0.45,0.187 0.828,0.404 1.14,0.794 v 0.022 c 0.003,-0.01 0.008,-0.01 0.012,-0.013 0.004,0.01 0.01,0.01 0.013,0.013 0.002,-0.011 -0.002,-0.024 0,-0.036 0.31,-0.385 0.692,-0.595 1.139,-0.78 0.045,-0.017 0.095,-0.016 0.14,-0.036 0.25,-0.09 0.497,-0.202 0.737,-0.314 0.29,-0.138 0.57,-0.281 0.825,-0.476 0.161,-0.12 0.309,-0.248 0.467,-0.37 0.112,-0.083 0.241,-0.17 0.384,-0.188 0.105,-0.014 0.195,0.033 0.266,0.104 0.056,0.056 0.112,0.118 0.166,0.175 0.085,-0.091 0.17,-0.185 0.218,-0.301 0.077,-0.177 0.09,-0.37 0.105,-0.56 C 10.824,8.408 10.816,8.212 10.774,8.027 10.724,7.793 10.668,7.563 10.556,7.35 10.516,7.281 10.471,7.202 10.39,7.175 10.332,7.155 10.302,7.22 10.276,7.258 10.146,7.47 9.925,7.615 9.718,7.747 9.524,7.874 9.338,8.023 9.216,8.223 A 0.709,0.709 0 0 0 9.112,8.537 C 9.103,8.58 9.139,8.642 9.19,8.62 9.25,8.597 9.31,8.561 9.378,8.571 9.453,8.583 9.487,8.656 9.496,8.724 9.502,8.814 9.428,8.892 9.364,8.947 9.217,9.067 9.054,9.155 8.889,9.247 8.495,9.458 8.084,9.633 7.654,9.759 7.464,9.811 7.342,9.862 7.144,9.863 6.972,9.893 6.768,9.801 6.768,9.702 V 4.535 h 1.676 c 0.065,0 0.14,-0.056 0.14,-0.14 V 3.976 A 0.139,0.139 0 0 0 8.444,3.836 H 6.769 V 3.456 C 7.175,3.289 7.467,2.905 7.467,2.44 7.467,1.823 6.967,1.323 6.35,1.323 Z M 6.328,1.868 c 0.3,0 0.546,0.238 0.545,0.537 a 0.5475,0.5475 0 0 1 -1.095,0 c 0,-0.3 0.25,-0.537 0.55,-0.537 z"
     id="path2"
     inkscape:connector-curvature="0"
     style="fill:#5beedc" />
</svg>
