<?xml version="1.0" encoding="UTF-8" standalone="no"?>
<svg
   xmlns:dc="http://purl.org/dc/elements/1.1/"
   xmlns:cc="http://creativecommons.org/ns#"
   xmlns:rdf="http://www.w3.org/1999/02/22-rdf-syntax-ns#"
   xmlns:svg="http://www.w3.org/2000/svg"
   xmlns="http://www.w3.org/2000/svg"
   xmlns:sodipodi="http://sodipodi.sourceforge.net/DTD/sodipodi-0.dtd"
   xmlns:inkscape="http://www.inkscape.org/namespaces/inkscape"
   width="48"
   height="48"
   viewBox="0 0 12.7 12.7"
   version="1.1"
   id="svg6"
   sodipodi:docname="kturtle.svg"
   inkscape:version="0.92.4 (5da689c313, 2019-01-14)">
  <metadata
     id="metadata12">
    <rdf:RDF>
      <cc:Work
         rdf:about="">
        <dc:format>image/svg+xml</dc:format>
        <dc:type
           rdf:resource="http://purl.org/dc/dcmitype/StillImage" />
        <dc:title></dc:title>
      </cc:Work>
    </rdf:RDF>
  </metadata>
  <defs
     id="defs10" />
  <sodipodi:namedview
     pagecolor="#ffffff"
     bordercolor="#666666"
     borderopacity="1"
     objecttolerance="10"
     gridtolerance="10"
     guidetolerance="10"
     inkscape:pageopacity="0"
     inkscape:pageshadow="2"
     inkscape:window-width="1112"
     inkscape:window-height="480"
     id="namedview8"
     showgrid="false"
     inkscape:zoom="4.9166667"
     inkscape:cx="2.1355932"
     inkscape:cy="24"
     inkscape:window-x="0"
     inkscape:window-y="25"
     inkscape:window-maximized="0"
     inkscape:current-layer="svg6" />
  <path
     d="m 6.34,0.07 a 6.29,6.29 0 0 0 0,12.58 6.29,6.29 0 0 0 0,-12.58 z M 6.32,1 A 5.417,5.417 0 0 1 11.73,6.41 5.4,5.4 0 0 1 6.33,11.82 5.4,5.4 0 0 1 0.92,6.42 5.4,5.4 0 0 1 6.32,1 Z m 0.03,2.802 c -1.308,0 -2.361,1.317 -2.361,2.952 0,1.635 1.053,2.95 2.361,2.95 1.308,0 2.361,-1.315 2.361,-2.95 0,-1.635 -1.053,-2.952 -2.361,-2.952 z"
     id="path2"
     inkscape:connector-curvature="0"
     style="fill:#5beedc" />
  <path
     d="m 6.35,2.228 c -0.545,0 -0.984,0.527 -0.984,1.18 V 4.076 C 5.388,4.064 5.407,4.046 5.429,4.034 A 1.929,1.929 0 0 1 6.827,3.862 c 0.154,0.04 0.302,0.097 0.444,0.172 0.022,0.011 0.04,0.03 0.063,0.042 V 3.41 C 7.334,2.756 6.895,2.23 6.35,2.23 Z M 4.17,4 A 0.77,0.77 0 0 0 3.625,5.316 L 4.138,5.829 C 4.157,5.757 4.151,5.673 4.174,5.604 4.294,5.25 4.466,4.932 4.679,4.666 4.751,4.576 4.833,4.502 4.913,4.424 L 4.715,4.226 A 0.769,0.769 0 0 0 4.17,4 Z M 8.53,4 A 0.768,0.768 0 0 0 7.985,4.226 L 7.787,4.424 C 7.867,4.502 7.949,4.576 8.021,4.666 8.234,4.932 8.407,5.25 8.526,5.604 8.549,5.673 8.543,5.757 8.562,5.829 L 9.075,5.317 A 0.77,0.77 0 0 0 8.53,4 Z M 4.22,7.99 3.625,8.585 a 0.77,0.77 0 0 0 0,1.09 0.77,0.77 0 0 0 1.09,0 L 5.124,9.267 C 5.093,9.243 5.058,9.227 5.028,9.202 A 2.566,2.566 0 0 1 4.679,8.842 3.077,3.077 0 0 1 4.22,7.99 Z m 4.26,0 C 8.363,8.305 8.215,8.6 8.02,8.842 A 2.566,2.566 0 0 1 7.672,9.202 C 7.642,9.227 7.607,9.243 7.576,9.267 l 0.409,0.408 a 0.77,0.77 0 0 0 1.09,0 0.77,0.77 0 0 0 0,-1.09 z"
     id="path4"
     inkscape:connector-curvature="0"
     style="fill:none;stroke:#5beedc;stroke-width:0.54100001" />
</svg>
