<?xml version="1.0" encoding="UTF-8" standalone="no"?>
<svg
   xmlns:dc="http://purl.org/dc/elements/1.1/"
   xmlns:cc="http://creativecommons.org/ns#"
   xmlns:rdf="http://www.w3.org/1999/02/22-rdf-syntax-ns#"
   xmlns:svg="http://www.w3.org/2000/svg"
   xmlns="http://www.w3.org/2000/svg"
   xmlns:sodipodi="http://sodipodi.sourceforge.net/DTD/sodipodi-0.dtd"
   xmlns:inkscape="http://www.inkscape.org/namespaces/inkscape"
   width="48"
   height="48"
   viewBox="0 0 12.7 12.7"
   version="1.1"
   id="svg4"
   sodipodi:docname="driftnet.svg"
   inkscape:version="0.92.5 (2060ec1f9f, 2020-04-08)">
  <defs
     id="defs8">
  <style
     id="current-color-scheme"
     type="text/css">
      .ColorScheme-Highlight {
        color:#5beedc;
      }
  </style>
  </defs>
  <path
     class="ColorScheme-Highlight"
     style="fill:#5beedc"
     d="M 24 0 A 24 24 0 0 0 0 24 A 24 24 0 0 0 24 48 A 24 24 0 0 0 48 24 A 24 24 0 0 0 24 0 z M 24 3 A 21 21 0 0 1 37.595703 8 L 29 8 L 29 7 C 29 6.446 28.554 6 28 6 L 20 6 C 19.446 6 19 6.446 19 7 L 19 8 L 10.433594 8 A 21 21 0 0 1 24 3 z M 8.3769531 10 L 19 10 L 19 11 C 19 11.554 19.446 12 20 12 L 22 12 L 22 17 L 14 17 C 13.446 17 13 17.446 13 18 L 13 37 C 13 37.554 13.446 38 14 38 L 34 38 C 34.553999 38 35 37.554 35 37 L 35 18 C 35 17.446 34.553999 17 34 17 L 26 17 L 26 12 L 28 12 C 28.554 12 29 11.554 29 11 L 29 10 L 39.619141 10 A 21 21 0 0 1 45 24 A 21 21 0 0 1 24 45 A 21 21 0 0 1 3 24 A 21 21 0 0 1 8.3769531 10 z M 15 19 L 33 19 L 33 34 L 15 34 L 15 19 z M 29 21 A 1.9999999 1.9999999 0 0 0 27 23 A 1.9999999 1.9999999 0 0 0 29 25 A 1.9999999 1.9999999 0 0 0 31 23 A 1.9999999 1.9999999 0 0 0 29 21 z M 16 25 L 16 32 L 19.488281 32 L 19.5 32 L 20.5 32 L 24 32 L 26 32 L 32 32 L 32 29 L 26 29 L 24 29 L 23.951172 29 C 23.974742 28.835349 24 28.671373 24 28.5 C 24 26.561 22.439 25 20.5 25 L 20 25 L 16 25 z "
     transform="scale(0.26458333)"
     id="path817" />
</svg>
