<?xml version="1.0" encoding="UTF-8" standalone="no"?>
<svg
   xmlns:dc="http://purl.org/dc/elements/1.1/"
   xmlns:cc="http://creativecommons.org/ns#"
   xmlns:rdf="http://www.w3.org/1999/02/22-rdf-syntax-ns#"
   xmlns:svg="http://www.w3.org/2000/svg"
   xmlns="http://www.w3.org/2000/svg"
   xmlns:sodipodi="http://sodipodi.sourceforge.net/DTD/sodipodi-0.dtd"
   xmlns:inkscape="http://www.inkscape.org/namespaces/inkscape"
   width="48"
   height="48"
   viewBox="0 0 12.7 12.7"
   version="1.1"
   id="svg4"
   sodipodi:docname="ekiga.svg"
   inkscape:version="0.92.4 (5da689c313, 2019-01-14)">
  <metadata
     id="metadata10">
    <rdf:RDF>
      <cc:Work
         rdf:about="">
        <dc:format>image/svg+xml</dc:format>
        <dc:type
           rdf:resource="http://purl.org/dc/dcmitype/StillImage" />
        <dc:title></dc:title>
      </cc:Work>
    </rdf:RDF>
  </metadata>
  <defs
     id="defs8" />
  <sodipodi:namedview
     pagecolor="#ffffff"
     bordercolor="#666666"
     borderopacity="1"
     objecttolerance="10"
     gridtolerance="10"
     guidetolerance="10"
     inkscape:pageopacity="0"
     inkscape:pageshadow="2"
     inkscape:window-width="1366"
     inkscape:window-height="717"
     id="namedview6"
     showgrid="false"
     inkscape:zoom="10.854167"
     inkscape:cx="24"
     inkscape:cy="24"
     inkscape:window-x="0"
     inkscape:window-y="25"
     inkscape:window-maximized="1"
     inkscape:current-layer="svg4" />
  <path
     d="m 6.344,0.072 a 6.29,6.29 0 0 0 -6.29,6.29 6.29,6.29 0 0 0 6.29,6.289 6.29,6.29 0 0 0 6.29,-6.29 6.29,6.29 0 0 0 -6.29,-6.29 z M 6.326,1.009 A 5.407,5.407 0 0 1 11.733,6.416 5.407,5.407 0 0 1 6.326,11.823 5.407,5.407 0 0 1 0.92,6.416 5.407,5.407 0 0 1 6.326,1.01 Z m 2.077,1.962 c -0.153,0 -0.3,0.038 -0.424,0.1 0.006,0.008 0.011,0.02 0.016,0.03 l 0.67,1.444 C 8.987,4.525 9.58,5.177 9.58,6.35 9.58,7.523 8.987,8.174 8.664,8.155 L 7.994,9.598 C 7.99,9.608 7.985,9.621 7.979,9.63 8.103,9.69 8.249,9.73 8.403,9.73 8.533,9.729 8.666,9.702 8.79,9.63 9.298,9.336 10.176,8.051 10.176,6.35 10.176,4.649 9.298,3.364 8.79,3.07 A 0.765,0.765 0 0 0 8.403,2.97 Z M 7.697,3.175 A 0.103,0.103 0 0 0 7.66,3.185 L 7.257,3.373 V 3.379 C 7.212,3.399 7.189,3.449 7.21,3.494 l 0.623,1.35 a 0.092,0.092 0 0 0 0.12,0.047 L 8.366,4.702 A 0.09,0.09 0 0 0 8.408,4.582 L 7.78,3.227 A 0.088,0.088 0 0 0 7.697,3.175 Z M 3.647,3.337 3.314,6.35 h 0.67 L 3.649,3.337 Z M 3.983,6.35 4.318,9.363 4.652,6.35 h -0.67 z m 0.67,0 0.334,1.005 0.335,-1.005 h -0.67 z m 0.669,0 h 0.67 L 5.657,4.341 Z m 0.67,0 0.334,2.176 0.335,-2.176 h -0.67 z m 0.67,0 H 7.33 L 6.995,5.345 6.661,6.35 Z m 0.668,0 H 8 L 7.665,5.848 Z M 8,6.35 8.335,7.02 8.67,6.35 Z m 0.67,0 H 9.339 L 9.004,5.848 Z m -5.357,0 h -0.67 l 0.335,0.837 z m -0.67,0 L 2.31,5.011 1.974,6.35 h 0.67 z M 7.921,7.799 A 0.1,0.1 0 0 0 7.833,7.856 L 7.21,9.206 C 7.189,9.251 7.212,9.3 7.257,9.321 V 9.327 L 7.66,9.515 c 0.011,0.005 0.025,0.01 0.037,0.01 A 0.089,0.089 0 0 0 7.78,9.473 L 8.408,8.118 A 0.09,0.09 0 0 0 8.366,7.998 L 7.953,7.809 C 7.942,7.804 7.933,7.799 7.921,7.799 Z"
     id="path2"
     inkscape:connector-curvature="0"
     style="fill:#5beedc" />
</svg>
