<?xml version="1.0" encoding="UTF-8" standalone="no"?>
<svg
   xmlns:dc="http://purl.org/dc/elements/1.1/"
   xmlns:cc="http://creativecommons.org/ns#"
   xmlns:rdf="http://www.w3.org/1999/02/22-rdf-syntax-ns#"
   xmlns:svg="http://www.w3.org/2000/svg"
   xmlns="http://www.w3.org/2000/svg"
   xmlns:sodipodi="http://sodipodi.sourceforge.net/DTD/sodipodi-0.dtd"
   xmlns:inkscape="http://www.inkscape.org/namespaces/inkscape"
   width="48"
   height="48"
   version="1.1"
   viewBox="0 0 12.7 12.7"
   id="svg4"
   sodipodi:docname="electorrent.svg"
   inkscape:version="0.92.4 (5da689c313, 2019-01-14)">
  <metadata
     id="metadata10">
    <rdf:RDF>
      <cc:Work
         rdf:about="">
        <dc:format>image/svg+xml</dc:format>
        <dc:type
           rdf:resource="http://purl.org/dc/dcmitype/StillImage" />
        <dc:title></dc:title>
      </cc:Work>
    </rdf:RDF>
  </metadata>
  <defs
     id="defs8" />
  <sodipodi:namedview
     pagecolor="#ffffff"
     bordercolor="#666666"
     borderopacity="1"
     objecttolerance="10"
     gridtolerance="10"
     guidetolerance="10"
     inkscape:pageopacity="0"
     inkscape:pageshadow="2"
     inkscape:window-width="1136"
     inkscape:window-height="480"
     id="namedview6"
     showgrid="false"
     inkscape:zoom="4.9166667"
     inkscape:cx="2.1355932"
     inkscape:cy="24"
     inkscape:window-x="0"
     inkscape:window-y="25"
     inkscape:window-maximized="0"
     inkscape:current-layer="svg4" />
  <path
     d="M 6.3396014,0.07544763 C 2.8712222,0.08119453 0.06111798,2.8913726 0.05529722,6.3597518 c -4.61e-6,3.4723479 2.81195628,6.2888022 6.28430418,6.2946232 3.4765812,0 6.2946226,-2.818042 6.2946226,-6.2946232 C 12.628466,2.8874039 9.8119493,0.07544763 6.3396014,0.07544763 Z M 6.3292661,1.0149183 c 2.9741438,0.00572 5.3855259,2.4125198 5.3969029,5.3865842 0,2.9865791 -2.4208806,5.4074865 -5.4074861,5.4074865 -2.986579,0 -5.40722147,-2.420881 -5.40722147,-5.4074865 0,-2.986579 2.43122567,-5.3865842 5.41780467,-5.3865842 z M 7.3204093,2.7951448 9.8597687,5.317968 C 9.733408,4.426307 8.4446361,2.9060303 7.3204093,2.7951448 Z M 7.1240406,3.475724 9.2200169,5.6543815 C 9.0487437,4.8076197 8.2058024,3.6290745 7.1240406,3.475724 Z M 5.8042362,4.0839405 c -0.08856,6.879e-4 -0.1850367,0.05086 -0.3064365,0.1483103 L 5.1872357,4.5149281 6.1416816,5.4745597 6.4041952,5.2353 C 6.676104,4.9662222 6.6318583,4.8339322 6.4770579,4.6451543 L 6.0646835,4.2307162 C 5.9739087,4.1320596 5.8927991,4.0832499 5.8042362,4.0839563 Z m 1.1384084,0.014469 1.6221135,1.7037629 C 8.2658885,5.064788 7.8479051,4.403047 6.9426446,4.0984095 Z M 4.9427902,4.7386667 3.9304542,5.6616011 C 3.4097608,6.0637362 3.0116472,6.642796 2.8772935,7.2423608 2.7609471,7.8250982 2.8933165,8.6933969 3.6142017,9.3202398 4.31518,9.9298057 5.1353251,9.990368 5.6760737,9.8266724 6.2167958,9.6629556 6.5592152,9.3176734 6.5592152,9.3176734 c 0.00663,-0.00656 0.013282,-0.013318 0.019637,-0.020154 L 7.9813375,7.7921919 7.0279235,6.8341212 5.7649773,8.2257591 C 5.2244668,8.8213022 4.7552607,8.5157917 4.4963427,8.2960369 4.1983991,7.9936748 3.9989058,7.4295638 4.3723208,7.0888906 L 5.8972805,5.6977819 4.9428346,4.7386794 Z M 7.8396766,6.1225524 C 7.7156997,6.1150526 7.6085157,6.214703 7.4748473,6.3545758 L 7.2536742,6.5917665 8.2070883,7.5498371 8.4582329,7.2806005 C 8.7604626,6.9835036 8.6755669,6.8769573 8.5197266,6.698207 L 8.0903133,6.2662008 C 7.9942707,6.1697799 7.9140712,6.1270423 7.8396846,6.1225418 Z"
     id="path2"
     inkscape:connector-curvature="0"
     style="fill:#5beedc;stroke-width:1.04387391" />
</svg>
