<?xml version="1.0" encoding="UTF-8" standalone="no"?>
<svg
   xmlns:dc="http://purl.org/dc/elements/1.1/"
   xmlns:cc="http://creativecommons.org/ns#"
   xmlns:rdf="http://www.w3.org/1999/02/22-rdf-syntax-ns#"
   xmlns:svg="http://www.w3.org/2000/svg"
   xmlns="http://www.w3.org/2000/svg"
   xmlns:sodipodi="http://sodipodi.sourceforge.net/DTD/sodipodi-0.dtd"
   xmlns:inkscape="http://www.inkscape.org/namespaces/inkscape"
   width="48"
   height="48"
   viewBox="0 0 12.7 12.7"
   version="1.1"
   id="svg4"
   sodipodi:docname="electron.svg"
   inkscape:version="0.92.4 (5da689c313, 2019-01-14)">
  <metadata
     id="metadata10">
    <rdf:RDF>
      <cc:Work
         rdf:about="">
        <dc:format>image/svg+xml</dc:format>
        <dc:type
           rdf:resource="http://purl.org/dc/dcmitype/StillImage" />
        <dc:title></dc:title>
      </cc:Work>
    </rdf:RDF>
  </metadata>
  <defs
     id="defs8" />
  <sodipodi:namedview
     pagecolor="#ffffff"
     bordercolor="#666666"
     borderopacity="1"
     objecttolerance="10"
     gridtolerance="10"
     guidetolerance="10"
     inkscape:pageopacity="0"
     inkscape:pageshadow="2"
     inkscape:window-width="1087"
     inkscape:window-height="480"
     id="namedview6"
     showgrid="false"
     inkscape:zoom="4.9166667"
     inkscape:cx="2.1355932"
     inkscape:cy="24"
     inkscape:window-x="0"
     inkscape:window-y="25"
     inkscape:window-maximized="0"
     inkscape:current-layer="svg4" />
  <path
     d="M 6.3397804,0.07541667 A 6.2948029,6.2948029 0 0 0 0.05541667,6.3597804 6.2948029,6.2948029 0 0 0 6.3502196,12.654583 6.2948029,6.2948029 0 0 0 12.634583,6.3597804 6.2948029,6.2948029 0 0 0 6.3397804,0.07541667 Z M 6.3189021,0.9940612 6.3293413,1.0149395 A 5.4074758,5.4074758 0 0 1 11.726378,6.401537 5.4074758,5.4074758 0 0 1 6.3189021,11.809013 5.4074758,5.4074758 0 0 1 0.91142635,6.401537 5.4074758,5.4074758 0 0 1 6.3189021,0.9940612 Z M 6.1518759,1.86051 A 0.88732711,0.88732711 0 0 0 5.2645488,2.7582763 0.88732711,0.88732711 0 0 0 6.1518759,3.6456034 c 0.2505394,0 0.4802005,-0.1043914 0.6472268,-0.2714177 0.1043914,0.1148306 0.1983437,0.2609785 0.292296,0.438444 A 8.3304357,8.3304357 0 0 0 3.6151642,6.0570453 L 3.30199,5.6812362 C 3.0932071,5.378501 2.9574983,5.0966442 2.9053026,4.8669831 2.8531068,4.6268828 2.8739851,4.4389782 2.9574983,4.2928302 3.0514506,4.1466822 3.1975985,4.0318517 3.4272597,3.9587777 3.66736,3.8857037 3.9805342,3.8543862 4.3354651,3.8961428 4.6173219,3.9274602 4.9304962,3.9900951 5.2541096,4.0840474 L 5.5150882,3.6351642 C 5.1184008,3.5098945 4.7425916,3.4263814 4.3876608,3.395064 3.9700951,3.3533074 3.6047251,3.3741857 3.2811117,3.4785771 2.9679374,3.5829685 2.6860806,3.760434 2.5294934,4.0422908 2.3624672,4.3137085 2.3415889,4.6477611 2.425102,4.9818136 2.4877369,5.2949879 2.6547631,5.6394796 2.8948634,5.9735322 L 3.30199,6.4641719 C 3.0932071,6.7773461 2.9261808,7.0905204 2.8531068,7.4036947 A 0.88732711,0.88732711 0 0 0 2.4042237,8.6668309 0.88732711,0.88732711 0 0 0 3.6256034,9.0008835 0.88732711,0.88732711 0 0 0 3.9492168,7.7795038 0.88732711,0.88732711 0 0 0 3.3959423,7.3619381 C 3.448138,7.1949118 3.5420902,7.0174464 3.66736,6.8295418 A 8.2156051,8.2156051 0 0 0 7.3941338,8.7712223 C 7.331499,8.9800052 7.258425,9.1679098 7.185351,9.334936 a 2.4010028,2.4010028 0 0 1 -0.511518,0.751618 c -0.1774654,0.167027 -0.3444917,0.240101 -0.5219571,0.240101 -0.1670263,0 -0.3444917,-0.07307 -0.5219572,-0.240101 C 5.4524533,9.919528 5.2749879,9.6689886 5.1288399,9.334936 5.0035702,9.0739575 4.9096179,8.7816615 4.8261048,8.4476089 H 4.3041476 c 0.093952,0.4071266 0.2087829,0.7724966 0.36537,1.09611 0.1670263,0.3758091 0.3758092,0.6889831 0.6263486,0.9186441 0.2401003,0.229662 0.5323962,0.37581 0.8560097,0.37581 0.3131742,0 0.6263485,-0.146148 0.8664488,-0.37581 C 7.2688641,10.232702 7.4672078,9.919528 7.6446732,9.5437189 7.7386255,9.334936 7.8221387,9.0948358 7.8952127,8.8442963 c 0.3966874,0.041757 0.7516182,0.020878 1.0647925,-0.073074 l 0.1148306,0.073074 A 0.88732711,0.88732711 0 0 0 10.296215,8.5311221 0.88732711,0.88732711 0 0 0 9.9621629,7.3097424 0.88732711,0.88732711 0 0 0 8.7512223,7.6229167 0.88732711,0.88732711 0 0 0 8.6677092,8.3223392 C 8.4798046,8.3640958 8.2605826,8.3640958 8.0204824,8.3536566 A 8.3199965,8.3199965 0 0 0 7.7803821,4.1466822 4.6767358,4.6767358 0 0 1 8.3649741,4.0422908 c 0.3549308,-0.031317 0.6681051,0 0.9082054,0.062635 0.2296611,0.073074 0.3758091,0.1879045 0.4697614,0.3340525 0.083513,0.146148 0.1043914,0.3340526 0.052196,0.5741529 C 9.7429409,5.2532313 9.607232,5.5350882 9.38801,5.8273842 9.2314229,6.0570453 9.02264,6.2971456 8.7616615,6.5268067 L 9.0330792,6.9756898 C 9.3462535,6.7042721 9.5967929,6.4119761 9.8055757,6.1196802 10.045676,5.7856276 10.212702,5.451575 10.285776,5.1279616 10.35885,4.7939091 10.337972,4.4598565 10.181385,4.1884388 A 1.2840145,1.2840145 0 0 0 9.4193275,3.6247251 C 9.1061532,3.5203337 8.7199049,3.4994554 8.3127784,3.541212 a 5.2195712,5.2195712 0 0 0 -0.73074,0.1252697 C 7.4254512,3.3533074 7.2479858,3.0923288 7.0287638,2.8939851 A 0.88732711,0.88732711 0 0 0 6.1518759,1.86051 Z m 0,0.5428354 A 0.35493084,0.35493084 0 0 1 6.5068067,2.7165197 0.73073997,0.73073997 0 0 1 6.454611,2.9461808 0.35493084,0.35493084 0 0 1 6.1518759,3.1132071 0.35493084,0.35493084 0 0 1 5.796945,2.7582763 c 0,-0.2087829 0.1565872,-0.3549309 0.3549309,-0.3549309 z M 7.3001815,4.2823911 A 7.8293568,7.8293568 0 0 1 7.5194035,8.2910218 7.6832089,7.6832089 0 0 1 3.9700951,6.4328544 7.7876003,7.7876003 0 0 1 7.2897424,4.2928302 Z M 6.3502196,5.7021145 A 0.62634855,0.64722683 0 0 0 5.723871,6.3493413 0.62634855,0.64722683 0 0 0 6.3502196,6.9965681 0.62634855,0.64722683 0 0 0 6.9765681,6.3493413 0.62634855,0.64722683 0 0 0 6.3502196,5.7021145 Z m 3.1630601,2.0147544 c 0.062635,0 0.1252697,0.020878 0.1879046,0.052196 0.1670263,0.1043914 0.2296611,0.3131742 0.1252697,0.4906397 A 0.35493084,0.35493084 0 0 1 9.3775709,8.4058524 0.70986169,0.70986169 0 0 1 9.2001055,8.2388261 0.35493084,0.35493084 0 0 1 9.5132797,7.7168689 Z M 3.1975985,7.8734561 A 0.35493084,0.35493084 0 0 1 3.3541857,8.5311221 0.35493084,0.35493084 0 0 1 2.9679374,7.9360909 0.7620574,0.7620574 0 0 1 3.1975985,7.8734561 Z"
     id="path2"
     inkscape:connector-curvature="0"
     style="fill:#5beedc;stroke-width:1.0439142" />
</svg>
