<?xml version="1.0" encoding="UTF-8" standalone="no"?>
<svg
   xmlns:dc="http://purl.org/dc/elements/1.1/"
   xmlns:cc="http://creativecommons.org/ns#"
   xmlns:rdf="http://www.w3.org/1999/02/22-rdf-syntax-ns#"
   xmlns:svg="http://www.w3.org/2000/svg"
   xmlns="http://www.w3.org/2000/svg"
   xmlns:sodipodi="http://sodipodi.sourceforge.net/DTD/sodipodi-0.dtd"
   xmlns:inkscape="http://www.inkscape.org/namespaces/inkscape"
   width="48"
   height="48"
   viewBox="0 0 12.7 12.7"
   version="1.1"
   id="svg4"
   sodipodi:docname="image-viewer.svg"
   inkscape:version="0.92.5 (2060ec1f9f, 2020-04-08)">
  <defs
     id="defs8">
  <style
     id="current-color-scheme"
     type="text/css">
      .ColorScheme-Highlight {
        color:#5beedc;
      }
  </style>
  </defs>
  <path
     class="ColorScheme-Highlight"
     style="fill:#5beedc"
     d="M 24 0 A 24 24 0 0 0 0 24 A 24 24 0 0 0 24 48 A 24 24 0 0 0 38.833984 42.833984 L 38.041016 42.041016 A 8.9999992 8.9999992 0 0 1 37.261719 42.388672 A 8.9999992 8.9999992 0 0 1 36.408203 42.671875 A 8.9999992 8.9999992 0 0 1 35.529297 42.869141 A 8.9999992 8.9999992 0 0 1 34.636719 42.976562 A 8.9999992 8.9999992 0 0 1 34 43 A 8.9999992 8.9999992 0 0 1 33.101562 42.955078 A 8.9999992 8.9999992 0 0 1 33.017578 42.941406 A 21 21 0 0 1 24 45 A 21 21 0 0 1 3 24 A 21 21 0 0 1 24 3 A 21 21 0 0 1 45 24 A 21 21 0 0 1 42.935547 33.019531 A 8.9999992 8.9999992 0 0 1 42.976562 33.363281 A 8.9999992 8.9999992 0 0 1 43 34 A 8.9999992 8.9999992 0 0 1 42.955078 34.898438 A 8.9999992 8.9999992 0 0 1 42.820312 35.787109 A 8.9999992 8.9999992 0 0 1 42.597656 36.660156 A 8.9999992 8.9999992 0 0 1 42.289062 37.503906 A 8.9999992 8.9999992 0 0 1 42.033203 38.033203 L 42.849609 38.849609 A 24 24 0 0 0 48 24 A 24 24 0 0 0 24 0 z M 11 11 C 10.446 11 10 11.446 10 12 L 10 37 C 10 37.554 10.446 38 11 38 L 25.941406 38 A 8.9999994 8.9999994 0 0 1 25.611328 37.261719 A 8.9999994 8.9999994 0 0 1 25.328125 36.408203 A 8.9999994 8.9999994 0 0 1 25.130859 35.529297 A 8.9999994 8.9999994 0 0 1 25.023438 34.636719 A 8.9999994 8.9999994 0 0 1 25 34 A 8.9999994 8.9999994 0 0 1 25.044922 33.101562 A 8.9999994 8.9999994 0 0 1 25.060547 33 L 12 33 L 12 13 L 36 13 L 36 25.234375 A 8.9999994 8.9999994 0 0 1 36.660156 25.402344 A 8.9999994 8.9999994 0 0 1 37.503906 25.710938 A 8.9999994 8.9999994 0 0 1 38 25.949219 L 38 12 C 38 11.446 37.554 11 37 11 L 11 11 z M 30.5 16 A 2.4999999 2.4999999 0 0 0 28 18.5 A 2.4999999 2.4999999 0 0 0 30.5 21 A 2.4999999 2.4999999 0 0 0 33 18.5 A 2.4999999 2.4999999 0 0 0 30.5 16 z M 13 21 L 13 31 L 24 31 L 25.527344 31 A 8.9999994 8.9999994 0 0 1 25.710938 30.496094 A 8.9999994 8.9999994 0 0 1 26.101562 29.685547 A 8.9999994 8.9999994 0 0 1 26.572266 28.917969 A 8.9999994 8.9999994 0 0 1 27.117188 28.201172 A 8.9999994 8.9999994 0 0 1 27.730469 27.542969 A 8.9999994 8.9999994 0 0 1 28.40625 26.949219 A 8.9999994 8.9999994 0 0 1 29.136719 26.427734 A 8.9999994 8.9999994 0 0 1 29.880859 26 L 26 26 C 25 23 24 21 20 21 L 13 21 z M 34 27 A 6.9999999 6.9999999 0 0 0 27 34 A 6.9999999 6.9999999 0 0 0 34 41 A 6.9999999 6.9999999 0 0 0 38.195312 39.59375 L 43.292969 44.689453 C 43.684705 45.081194 44.315295 45.081194 44.707031 44.689453 C 45.098768 44.297716 45.098768 43.667127 44.707031 43.275391 L 39.607422 38.177734 A 6.9999999 6.9999999 0 0 0 41 34 A 6.9999999 6.9999999 0 0 0 34 27 z M 34 29 A 4.9999997 4.9999997 0 0 1 39 34 A 4.9999997 4.9999997 0 0 1 34 39 A 4.9999997 4.9999997 0 0 1 29 34 A 4.9999997 4.9999997 0 0 1 34 29 z "
     transform="scale(0.26458333)"
     id="path822" />
</svg>
