<?xml version="1.0" encoding="UTF-8" standalone="no"?>
<svg
   xmlns:dc="http://purl.org/dc/elements/1.1/"
   xmlns:cc="http://creativecommons.org/ns#"
   xmlns:rdf="http://www.w3.org/1999/02/22-rdf-syntax-ns#"
   xmlns:svg="http://www.w3.org/2000/svg"
   xmlns="http://www.w3.org/2000/svg"
   xmlns:sodipodi="http://sodipodi.sourceforge.net/DTD/sodipodi-0.dtd"
   xmlns:inkscape="http://www.inkscape.org/namespaces/inkscape"
   width="48"
   height="48"
   viewBox="0 0 12.7 12.7"
   version="1.1"
   id="svg4"
   sodipodi:docname="web-browser.svg"
   inkscape:version="0.92.5 (2060ec1f9f, 2020-04-08)">
  <defs
     id="defs8">
  <style
     id="current-color-scheme"
     type="text/css">
      .ColorScheme-Highlight {
        color:#5beedc;
      }
  </style>
  </defs>
  <path
     class="ColorScheme-Highlight"
     style="fill:#5beedc"
     d="M 24 0 C 10.745166 0 -4.7369516e-15 10.745166 0 24 C 0.00195131 28.060628 1.0341558 32.054372 3 35.607422 L 3 36 L 3.2402344 36 C 7.5229805 43.417945 15.434503 47.991131 24 48 C 25.714432 47.9951 27.423406 47.806537 29.097656 47.4375 L 29.080078 42.132812 C 28.432115 43.047562 27.735128 43.926455 26.992188 44.765625 C 26.331672 44.863667 25.666852 44.930149 25 44.964844 L 25 36 L 29.058594 36 L 29.048828 33 L 25 33 L 25 26 L 29.027344 26 L 29.015625 23 L 25 23 L 25 16 L 33.873047 16 C 34.487983 18.285635 34.83988 20.634237 34.921875 23 L 37.847656 26 L 44.898438 26 C 44.700439 27.957344 44.228376 29.877156 43.496094 31.703125 L 45.828125 33.908203 C 47.249726 30.797924 47.990221 27.41975 48 24 C 48 10.745166 37.254834 -4.7369516e-15 24 0 z M 25 3.0507812 C 25.632507 3.0801912 26.26336 3.1381932 26.890625 3.2246094 C 29.483261 6.0803775 31.521373 9.3955381 32.900391 13 L 25 13 L 25 3.0507812 z M 22 3.1152344 L 22 13 L 15.072266 13 C 16.446431 9.3982761 18.478504 6.0845663 21.064453 3.2285156 C 21.375415 3.1837619 21.687343 3.1459922 22 3.1152344 z M 16.236328 4.4980469 C 14.385467 7.1117359 12.913221 9.9740359 11.863281 13 L 6.1425781 13 C 8.506108 9.1549622 12.045535 6.1737076 16.236328 4.4980469 z M 31.771484 4.5097656 C 35.962019 6.1816495 39.502688 9.1586882 41.869141 13 L 36.076172 13 C 35.046535 9.9819116 33.597428 7.1238044 31.771484 4.5097656 z M 4.59375 16 L 10.970703 16 C 10.411453 18.293947 10.092674 20.639949 10.019531 23 L 3.0507812 23 C 3.1601363 20.595483 3.6820608 18.227663 4.59375 16 z M 14.101562 16 L 22 16 L 22 23 L 13.052734 23 C 13.134734 20.634237 13.486627 18.285635 14.101562 16 z M 36.949219 16 L 43.396484 16 C 44.316881 18.226111 44.847407 20.593984 44.964844 23 L 37.900391 23 C 37.827251 20.639949 37.508469 18.293947 36.949219 16 z M 31 23 L 31.076172 45.677734 L 36.064453 40.158203 L 38.9375 46.357422 C 39.693406 48.436162 43.812755 47.341086 42.830078 44.582031 L 39.767578 38.382812 L 46.912109 38.042969 L 31 23 z M 3.1152344 26 L 10.099609 26 C 10.238584 28.367158 10.624802 30.713268 11.251953 33 L 5.0507812 33 C 4.0039518 30.796787 3.3489765 28.428037 3.1152344 26 z M 13.101562 26 L 22 26 L 22 33 L 14.369141 33 C 13.680183 30.723046 13.254863 28.374288 13.101562 26 z M 6.796875 36 L 12.230469 36 C 13.217518 38.637148 14.528344 41.141364 16.132812 43.455078 C 12.364672 41.926368 9.1214187 39.336516 6.796875 36 z M 15.449219 36 L 22 36 L 22 44.898438 C 21.654455 44.858824 21.309948 44.810632 20.966797 44.753906 C 18.65135 42.165937 16.786218 39.206815 15.449219 36 z "
     transform="scale(0.26458333)"
     id="path817" />
</svg>
