<?xml version="1.0" encoding="UTF-8" standalone="no"?>
<svg
   xmlns:dc="http://purl.org/dc/elements/1.1/"
   xmlns:cc="http://creativecommons.org/ns#"
   xmlns:rdf="http://www.w3.org/1999/02/22-rdf-syntax-ns#"
   xmlns:svg="http://www.w3.org/2000/svg"
   xmlns="http://www.w3.org/2000/svg"
   xmlns:sodipodi="http://sodipodi.sourceforge.net/DTD/sodipodi-0.dtd"
   xmlns:inkscape="http://www.inkscape.org/namespaces/inkscape"
   width="48"
   height="48"
   viewBox="0 0 12.7 12.7"
   version="1.1"
   id="svg4"
   sodipodi:docname="8tracks.svg"
   inkscape:version="0.92.5 (2060ec1f9f, 2020-04-08)">
  <defs
     id="defs8">
  <style
     id="current-color-scheme"
     type="text/css">
      .ColorScheme-Highlight {
        color:#5beedc;
      }
  </style>
  </defs>
  <path
     class="ColorScheme-Highlight"
     style="fill:#5beedc"
     d="M 24 0 A 24 24 0 0 0 0 24 A 24 24 0 0 0 24 48 A 24 24 0 0 0 48 24 A 24 24 0 0 0 24 0 z M 24 3 A 21 21 0 0 1 45 24 A 21 21 0 0 1 24 45 A 21 21 0 0 1 3 24 A 21 21 0 0 1 24 3 z M 30 10 A 7.9999994 7.9999994 0 0 0 22 18 L 22 19 L 25 19 L 25 18 A 4.9999996 4.9999996 0 0 1 30 13 A 4.9999996 4.9999996 0 0 1 35 18 A 4.9999996 4.9999996 0 0 1 30 23 L 18 23 A 7.9999994 7.9999994 0 0 0 10 31 A 7.9999994 7.9999994 0 0 0 18 39 A 7.9999994 7.9999994 0 0 0 26 31 L 26 30 L 23 30 L 23 31 A 4.9999997 4.9999997 0 0 1 18 36 A 4.9999997 4.9999997 0 0 1 13 31 A 4.9999997 4.9999997 0 0 1 18 26 L 30 26 A 7.9999994 7.9999994 0 0 0 38 18 A 7.9999994 7.9999994 0 0 0 30 10 z "
     transform="scale(0.26458333)"
     id="path817" />
</svg>
