<?xml version="1.0" encoding="UTF-8" standalone="no"?>
<svg
   xmlns:dc="http://purl.org/dc/elements/1.1/"
   xmlns:cc="http://creativecommons.org/ns#"
   xmlns:rdf="http://www.w3.org/1999/02/22-rdf-syntax-ns#"
   xmlns:svg="http://www.w3.org/2000/svg"
   xmlns="http://www.w3.org/2000/svg"
   xmlns:sodipodi="http://sodipodi.sourceforge.net/DTD/sodipodi-0.dtd"
   xmlns:inkscape="http://www.inkscape.org/namespaces/inkscape"
   width="48"
   height="48"
   viewBox="0 0 12.7 12.7"
   version="1.1"
   id="svg4"
   sodipodi:docname="eyewitness.svg"
   inkscape:version="0.92.5 (2060ec1f9f, 2020-04-08)">
  <metadata
     id="metadata10">
    <rdf:RDF>
      <cc:Work
         rdf:about="">
        <dc:format>image/svg+xml</dc:format>
        <dc:type
           rdf:resource="http://purl.org/dc/dcmitype/StillImage" />
        <dc:title></dc:title>
      </cc:Work>
    </rdf:RDF>
  </metadata>
  <defs
     id="defs8" />
  <sodipodi:namedview
     pagecolor="#ffffff"
     bordercolor="#666666"
     borderopacity="1"
     objecttolerance="10"
     gridtolerance="10"
     guidetolerance="10"
     inkscape:pageopacity="0"
     inkscape:pageshadow="2"
     inkscape:window-width="1085"
     inkscape:window-height="480"
     id="namedview6"
     showgrid="false"
     inkscape:zoom="4.9166667"
     inkscape:cx="2.1355932"
     inkscape:cy="24"
     inkscape:window-x="0"
     inkscape:window-y="25"
     inkscape:window-maximized="0"
     inkscape:current-layer="svg4" />
  <path
     d="M 6.34,0.075 A 6.295,6.295 0 0 0 0.055,6.36 6.295,6.295 0 0 0 6.34,12.655 6.295,6.295 0 0 0 12.634,6.36 6.295,6.295 0 0 0 6.34,0.075 Z m -0.011,0.94 a 5.408,5.408 0 0 1 5.397,5.387 5.407,5.407 0 0 1 -10.814,0 c 0,-2.987 2.43,-5.387 5.417,-5.387 z M 6.35,3.208 c -3.77,0 -5.027,3.142 -5.027,3.142 0,0 1.257,3.142 5.027,3.142 3.77,0 5.027,-3.142 5.027,-3.142 0,0 -1.257,-3.142 -5.027,-3.142 z m 0,0.454 c 0.422,0 0.808,0.042 1.162,0.115 a 4.722,4.722 0 0 1 2.352,1.217 c 0.351,0.332 0.597,0.665 0.756,0.915 0.158,0.25 0.228,0.416 0.228,0.416 0,0 -0.07,0.167 -0.228,0.417 A 4.837,4.837 0 0 1 9.256,8.146 C 9.026,8.302 8.766,8.448 8.476,8.573 8.186,8.697 7.866,8.802 7.512,8.874 7.158,8.947 6.772,8.989 6.35,8.989 5.928,8.989 5.542,8.947 5.188,8.874 A 4.963,4.963 0 0 1 4.224,8.573 4.721,4.721 0 0 1 2.836,7.657 4.837,4.837 0 0 1 2.08,6.742 C 1.922,6.492 1.852,6.325 1.852,6.325 c 0,0 0.07,-0.166 0.228,-0.416 A 4.838,4.838 0 0 1 3.444,4.505 C 3.674,4.349 3.934,4.203 4.224,4.078 4.514,3.953 4.834,3.849 5.188,3.777 5.542,3.704 5.928,3.662 6.35,3.662 Z M 6.355,3.929 A 2.403,2.403 0 0 0 4.828,4.474 L 5.713,6.008 5.727,5.984 6.878,3.988 A 2.405,2.405 0 0 0 6.355,3.929 Z M 7.212,4.089 6.327,5.62 H 8.66 A 2.422,2.422 0 0 0 7.212,4.088 Z M 4.574,4.715 A 2.408,2.408 0 0 0 3.986,6.83 h 1.81 L 5.517,6.346 Z m 2.339,1.148 0.07,0.12 1.151,1.995 A 2.408,2.408 0 0 0 8.723,5.863 Z M 6.996,6.685 6.772,7.071 5.83,8.704 A 2.403,2.403 0 0 0 7.882,8.218 Z M 4.05,7.07 A 2.422,2.422 0 0 0 5.498,8.603 L 6.384,7.07 H 4.049 Z"
     id="path2"
     inkscape:connector-curvature="0"
     style="fill:#5beedc" />
</svg>
