<?xml version="1.0" encoding="UTF-8" standalone="no"?>
<svg
   xmlns:dc="http://purl.org/dc/elements/1.1/"
   xmlns:cc="http://creativecommons.org/ns#"
   xmlns:rdf="http://www.w3.org/1999/02/22-rdf-syntax-ns#"
   xmlns:svg="http://www.w3.org/2000/svg"
   xmlns="http://www.w3.org/2000/svg"
   xmlns:sodipodi="http://sodipodi.sourceforge.net/DTD/sodipodi-0.dtd"
   xmlns:inkscape="http://www.inkscape.org/namespaces/inkscape"
   width="48"
   height="48"
   viewBox="0 0 12.7 12.7"
   version="1.1"
   id="svg4"
   sodipodi:docname="ferret-sidejack.svg"
   inkscape:version="0.92.5 (2060ec1f9f, 2020-04-08)">
  <metadata
     id="metadata10">
    <rdf:RDF>
      <cc:Work
         rdf:about="">
        <dc:format>image/svg+xml</dc:format>
        <dc:type
           rdf:resource="http://purl.org/dc/dcmitype/StillImage" />
        <dc:title></dc:title>
      </cc:Work>
    </rdf:RDF>
  </metadata>
  <defs
     id="defs8" />
  <sodipodi:namedview
     pagecolor="#ffffff"
     bordercolor="#666666"
     borderopacity="1"
     objecttolerance="10"
     gridtolerance="10"
     guidetolerance="10"
     inkscape:pageopacity="0"
     inkscape:pageshadow="2"
     inkscape:window-width="1085"
     inkscape:window-height="480"
     id="namedview6"
     showgrid="false"
     inkscape:zoom="4.9166667"
     inkscape:cx="2.1355932"
     inkscape:cy="24"
     inkscape:window-x="0"
     inkscape:window-y="25"
     inkscape:window-maximized="0"
     inkscape:current-layer="svg4" />
  <path
     d="M 6.34,0.075 A 6.295,6.295 0 0 0 0.055,6.36 6.295,6.295 0 0 0 6.34,12.655 6.295,6.295 0 0 0 12.634,6.36 6.295,6.295 0 0 0 6.34,0.075 Z m -0.011,0.94 a 5.408,5.408 0 0 1 5.397,5.387 5.407,5.407 0 0 1 -10.814,0 c 0,-2.987 2.43,-5.387 5.417,-5.387 z M 2.425,3.255 A 0.945,0.945 0 0 0 2.16,3.318 C 1.804,3.465 1.811,4.099 2.181,5.251 2.391,5.921 2.398,6.102 2.209,6.479 A 10,10 0 0 0 1.832,7.422 C 1.574,8.155 1.588,8.385 1.909,8.81 c 0.335,0.44 1.361,1.02 2.855,1.613 0.558,0.223 0.711,0.25 1.43,0.278 0.726,0.028 0.858,0.007 1.333,-0.146 C 8.273,10.304 9.363,9.829 9.907,9.508 10.43,9.215 10.975,8.65 11.037,8.358 11.093,8.106 10.925,7.478 10.583,6.689 10.437,6.333 10.312,6.005 10.312,5.963 c 0,-0.049 0.09,-0.37 0.202,-0.726 C 10.884,4.1 10.891,3.471 10.534,3.325 10.256,3.206 9.83,3.283 8.833,3.625 L 7.939,3.925 7.471,3.835 C 6.843,3.715 5.783,3.715 5.203,3.835 4.75,3.932 4.736,3.932 4.191,3.729 3.647,3.52 2.621,3.249 2.425,3.256 Z m 7.808,0.349 c 0.02,0.004 0.06,0.02 0.106,0.035 0.063,0.028 0.112,0.126 0.112,0.23 0,0.21 -0.182,1.02 -0.272,1.229 -0.105,0.244 -0.216,0.704 -0.216,0.914 0,0.111 0.097,0.405 0.208,0.65 0.447,0.948 0.587,1.59 0.392,1.855 -0.14,0.196 -0.272,0.105 -1.11,-0.81 C 8.958,7.17 8.594,6.835 8.343,6.702 7.631,6.319 7.031,6.479 6.927,7.086 6.843,7.589 7.094,8.119 7.75,8.81 8.009,9.082 8.022,9.124 7.987,9.404 7.959,9.634 7.883,9.76 7.673,9.962 7.345,10.269 6.976,10.381 6.306,10.374 5.726,10.367 5.44,10.297 5.14,10.081 4.889,9.899 4.63,9.382 4.693,9.18 4.721,9.103 4.91,8.845 5.12,8.601 5.65,7.994 5.803,7.666 5.761,7.177 5.706,6.549 5.364,6.361 4.68,6.563 4.31,6.675 4.198,6.765 3.32,7.652 2.796,8.189 2.335,8.622 2.293,8.622 2.251,8.622 2.167,8.545 2.104,8.448 1.958,8.218 2.007,7.952 2.391,6.982 2.81,5.907 2.802,5.992 2.571,5.265 2.314,4.442 2.209,3.911 2.265,3.765 2.328,3.59 2.9,3.675 3.898,4.016 L 4.756,4.309 5.42,4.19 a 5.289,5.289 0 0 1 2.142,0.042 c 0.405,0.084 0.44,0.077 1.012,-0.14 0.32,-0.125 0.823,-0.285 1.11,-0.355 0.285,-0.07 0.53,-0.133 0.537,-0.133 z M 10.011,3.878 A 0.766,0.766 0 0 0 9.753,3.925 c -0.39,0.14 -0.907,0.398 -0.907,0.46 0,0.043 0.125,0.196 0.279,0.35 0.16,0.146 0.35,0.397 0.426,0.551 0.132,0.258 0.153,0.272 0.265,0.167 0.119,-0.104 0.44,-0.858 0.516,-1.2 0.047,-0.23 -0.09,-0.374 -0.32,-0.375 z M 2.553,3.885 c -0.069,0 -0.118,0.01 -0.141,0.033 -0.035,0.028 -0.056,0.126 -0.056,0.21 0,0.216 0.32,1.067 0.488,1.284 L 2.97,5.579 3.103,5.342 C 3.173,5.209 3.36,4.958 3.528,4.79 3.688,4.623 3.821,4.442 3.821,4.386 3.821,4.215 2.921,3.89 2.553,3.885 Z M 4.7,7.183 A 0.353,0.368 0 0 1 5.053,7.551 0.353,0.368 0 0 1 4.7,7.919 0.353,0.368 0 0 1 4.348,7.551 0.353,0.368 0 0 1 4.7,7.183 Z m 3.285,0 A 0.353,0.368 0 0 1 8.338,7.551 0.353,0.368 0 0 1 7.985,7.919 0.353,0.368 0 0 1 7.632,7.551 0.353,0.368 0 0 1 7.985,7.183 Z M 4.7,7.34 A 0.203,0.212 0 0 0 4.497,7.551 0.203,0.212 0 0 0 4.7,7.762 0.203,0.212 0 0 0 4.903,7.551 0.203,0.212 0 0 0 4.7,7.34 Z m 3.285,0 A 0.203,0.212 0 0 0 7.781,7.551 0.203,0.212 0 0 0 7.985,7.762 0.203,0.212 0 0 0 8.188,7.551 0.203,0.212 0 0 0 7.985,7.34 Z M 6.374,8.509 A 1.183,1.183 0 0 0 5.999,8.559 C 5.531,8.699 5.545,9.173 6.027,9.431 6.159,9.501 6.264,9.585 6.264,9.613 6.264,9.69 5.998,9.683 5.838,9.599 5.649,9.494 5.663,9.634 5.858,9.766 6.096,9.934 6.69,9.913 6.878,9.738 7.067,9.557 7.073,9.501 6.898,9.598 A 0.95,0.95 0 0 1 6.564,9.668 L 6.369,9.662 6.536,9.543 C 7.046,9.173 7.157,8.901 6.899,8.663 6.794,8.568 6.589,8.513 6.374,8.509 Z"
     id="path2"
     inkscape:connector-curvature="0"
     style="fill:#5beedc" />
</svg>
