<?xml version="1.0" encoding="UTF-8" standalone="no"?>
<svg
   xmlns:dc="http://purl.org/dc/elements/1.1/"
   xmlns:cc="http://creativecommons.org/ns#"
   xmlns:rdf="http://www.w3.org/1999/02/22-rdf-syntax-ns#"
   xmlns:svg="http://www.w3.org/2000/svg"
   xmlns="http://www.w3.org/2000/svg"
   xmlns:sodipodi="http://sodipodi.sourceforge.net/DTD/sodipodi-0.dtd"
   xmlns:inkscape="http://www.inkscape.org/namespaces/inkscape"
   width="48"
   height="48"
   viewBox="0 0 12.7 12.7"
   version="1.1"
   id="svg4"
   sodipodi:docname="fingerprint-gui.svg"
   inkscape:version="0.92.4 (5da689c313, 2019-01-14)">
  <metadata
     id="metadata10">
    <rdf:RDF>
      <cc:Work
         rdf:about="">
        <dc:format>image/svg+xml</dc:format>
        <dc:type
           rdf:resource="http://purl.org/dc/dcmitype/StillImage" />
        <dc:title></dc:title>
      </cc:Work>
    </rdf:RDF>
  </metadata>
  <defs
     id="defs8" />
  <sodipodi:namedview
     pagecolor="#ffffff"
     bordercolor="#666666"
     borderopacity="1"
     objecttolerance="10"
     gridtolerance="10"
     guidetolerance="10"
     inkscape:pageopacity="0"
     inkscape:pageshadow="2"
     inkscape:window-width="1087"
     inkscape:window-height="480"
     id="namedview6"
     showgrid="false"
     inkscape:zoom="4.9166667"
     inkscape:cx="2.1355932"
     inkscape:cy="24"
     inkscape:window-x="0"
     inkscape:window-y="25"
     inkscape:window-maximized="0"
     inkscape:current-layer="svg4" />
  <path
     d="M 6.35,0.061 A 6.29,6.29 0 0 0 0.061,6.35 6.29,6.29 0 0 0 6.35,12.639 6.29,6.29 0 0 0 12.639,6.35 6.29,6.29 0 0 0 6.35,0.061 Z M 6.332,0.997 A 5.407,5.407 0 0 1 11.739,6.404 5.407,5.407 0 0 1 6.332,11.811 5.407,5.407 0 0 1 0.925,6.404 5.407,5.407 0 0 1 6.332,0.997 Z M 6.213,2.009 C 5.344,2.006 4.599,2.166 3.922,2.505 3.696,2.618 3.662,2.658 3.676,2.78 3.706,3.028 3.834,3.053 4.214,2.882 4.922,2.565 5.266,2.497 6.158,2.496 7.182,2.496 7.559,2.582 8.399,3.017 8.543,3.092 9,3.444 9.17,3.255 9.34,3.086 9.25,2.947 8.815,2.7 7.958,2.212 7.209,2.013 6.213,2.009 Z M 6.187,3.014 A 4.248,4.248 0 0 0 3.054,4.374 C 2.729,4.724 2.35,5.3 2.35,5.443 2.35,5.608 2.418,5.7 2.542,5.7 2.64,5.7 2.739,5.595 2.974,5.241 3.5,4.45 4.183,3.925 5.062,3.635 c 0.682,-0.223 1.48,-0.197 2.248,0 a 4.022,4.022 0 0 1 2.306,1.969 c 0.102,0.2 0.163,0.26 0.262,0.26 0.17,0 0.27,-0.126 0.224,-0.284 C 10.027,5.325 9.625,4.708 9.322,4.38 A 4.261,4.261 0 0 0 6.187,3.014 Z m 0.054,0.998 v 0.001 a 3.412,3.412 0 0 0 -0.74,0.07 C 4.324,4.33 3.34,5.283 3.025,6.483 2.857,7.119 2.935,8.159 3.21,8.991 3.293,9.239 3.332,9.291 3.45,9.305 3.722,9.336 3.748,9.207 3.586,8.645 3.121,7.036 3.522,5.668 4.676,4.922 c 1.14,-0.738 2.708,-0.52 3.6,0.5 0.56,0.64 0.867,1.722 0.623,2.194 C 8.737,7.927 8.345,8.115 8.022,8.034 7.787,7.974 7.507,7.685 7.472,7.464 7.345,6.679 7.167,6.372 6.716,6.162 6.332,5.982 6.011,5.988 5.634,6.179 5.282,6.357 5.013,6.717 4.958,7.081 c -0.02,0.13 -0.01,0.414 0.02,0.63 a 3.258,3.258 0 0 0 2.468,2.729 c 0.165,0.04 0.436,0.07 0.602,0.064 l 0.302,-0.01 c 0.17,-0.086 0.18,-0.286 0,-0.384 L 7.923,10.045 C 7.386,9.964 7.164,9.893 6.795,9.685 5.993,9.234 5.418,8.255 5.418,7.34 c 0,-0.404 0.153,-0.639 0.509,-0.786 0.257,-0.107 0.26,-0.107 0.518,0 0.325,0.134 0.482,0.36 0.522,0.751 0.074,0.717 0.572,1.19 1.254,1.19 0.548,0 1.009,-0.356 1.172,-0.904 C 9.553,7.054 9.338,6.154 8.887,5.468 A 3.224,3.224 0 0 0 6.241,4.012 Z M 6.205,5.052 A 2.876,2.876 0 0 0 5.227,5.232 C 4.783,5.448 4.361,5.882 4.142,6.342 3.976,6.694 3.967,6.748 3.967,7.344 c 0,0.733 0.088,1.122 0.404,1.78 0.272,0.567 0.649,1.062 1.067,1.4 0.363,0.295 0.402,0.309 0.553,0.198 C 6.146,10.609 6.059,10.415 5.747,10.175 5.408,9.915 5.042,9.445 4.795,8.952 4.389,8.142 4.287,7.142 4.551,6.57 4.743,6.154 5.036,5.844 5.409,5.66 5.858,5.44 6.513,5.44 6.961,5.66 7.497,5.923 7.839,6.402 7.96,7.059 8.032,7.451 8.141,7.581 8.309,7.473 8.386,7.423 8.403,7.34 8.396,7.042 8.378,6.316 7.87,5.588 7.127,5.222 6.877,5.102 6.547,5.048 6.205,5.052 Z M 6.203,7.035 A 0.275,0.275 0 0 0 6.068,7.074 C 5.963,7.13 5.955,7.17 5.981,7.473 A 2.252,2.252 0 0 0 7.719,9.46 C 8.135,9.551 8.246,9.549 8.346,9.449 8.545,9.249 8.412,9.091 7.998,9.035 A 1.812,1.812 0 0 1 6.424,7.419 C 6.394,7.164 6.321,7.037 6.203,7.035 Z"
     id="path2"
     inkscape:connector-curvature="0"
     style="fill:#5beedc" />
</svg>
