<?xml version="1.0" encoding="UTF-8" standalone="no"?>
<svg
   xmlns:dc="http://purl.org/dc/elements/1.1/"
   xmlns:cc="http://creativecommons.org/ns#"
   xmlns:rdf="http://www.w3.org/1999/02/22-rdf-syntax-ns#"
   xmlns:svg="http://www.w3.org/2000/svg"
   xmlns="http://www.w3.org/2000/svg"
   xmlns:sodipodi="http://sodipodi.sourceforge.net/DTD/sodipodi-0.dtd"
   xmlns:inkscape="http://www.inkscape.org/namespaces/inkscape"
   width="48"
   height="48"
   viewBox="0 0 12.7 12.7"
   version="1.1"
   id="svg4"
   sodipodi:docname="firefox.svg"
   inkscape:version="0.92.5 (2060ec1f9f, 2020-04-08)">
  <defs
     id="defs8">
  <style
     id="current-color-scheme"
     type="text/css">
      .ColorScheme-Highlight {
        color:#5beedc;
      }
  </style>
  </defs>
  <path
     class="ColorScheme-Highlight"
     style="fill:#5beedc"
     d="M 24 0 A 24 24 0 0 0 0 24 A 24 24 0 0 0 24 48 A 24 24 0 0 0 48 24 A 24 24 0 0 0 24 0 z M 24 3 A 21 21 0 0 1 45 24 A 21 21 0 0 1 24 45 A 21 21 0 0 1 3 24 A 21 21 0 0 1 24 3 z "
     transform="scale(0.26458333)"
     id="path817" />
  <path
     d="m 8.0320002,2.5240001 a 0.063,0.063 0 0 0 -0.036,0.01 c 0.43,0.3900001 0.764,0.8970002 0.9429998,1.4930001 0.2380002,0.7900001 0.2740002,1.6330002 0.084,2.3719999 A 1.857,1.857 0 0 0 7.095,4.843 C 7.7460001,5.148 8.1630001,5.8030001 8.164,6.5230002 8.164,7.487 7.425,8.3050002 6.473,8.393 A 2.602,2.602 0 0 1 5.4349999,8.1280003 l -0.075,-0.04 -0.077,-0.043 L 5.245,8.022 A 2.25,2.25 0 0 1 5.1259999,7.942 L 5.113001,7.9319988 A 2.14,2.14 0 0 1 4.9969999,7.8420002 l -0.018,-0.014999 A 2.03,2.03 0 0 1 4.6640004,7.4850008 l -0.004,-0.005 a 1.644,1.644 0 0 1 -0.072,-0.112 v -0.00101 l -0.005,-0.009 -0.00101,-0.00101 a 1.513,1.513 0 0 1 -0.066,-0.1280001 l -0.00201,-0.003 a 1.379,1.379 0 0 1 -0.048,-0.1220002 C 4.310983,6.6519877 4.3609832,6.4619878 4.782983,6.1809876 c 0.057,-0.037 0.1200002,-0.07 0.1900002,-0.1 0.071,-0.03 0.15,-0.056 0.237,-0.079 a 3.0300001,3.0300001 0 0 1 0.652,-0.082 c 0.3609999,-0.2380001 0.472,-0.366 0.495,-0.455 a 0.158,0.158 0 0 0 0,-0.08 2.98,2.98 0 0 1 -0.9300001,-0.4879999 c -0.1469999,-0.1170001 -0.3159999,-0.286 -0.5420001,-0.438 -0.085,-0.2829999 -0.1489998,-0.6000001 -0.037,-1.194 -0.421,0.1389999 -0.7900001,0.523 -1.0830002,0.8519999 h -0.021 C 3.5639999,3.772 3.598,3.3200001 3.581,2.9100002 a 4.422,4.422 0 0 0 -1.714,3.19 3.3850001,3.3850001 0 0 0 -0.015,0.3139999 c 0,2.456 2.0140001,4.4459999 4.498,4.4459999 2.4840001,0 4.498,-1.9899999 4.498,-4.4459999 A 4.3999999,4.3999999 0 0 0 9.6940002,3.442 c 0.015999,-0.00101 -0.067,-0.065 -0.11,-0.05 A 3.2800002,3.2800002 0 0 1 10.041,4.7960001 l 0.003,0.029 c 0.005,0.054 0.006,0.11 0.008,0.165 a 4.3999999,4.3999999 0 0 0 -1.937,-2.44 c 0.011001,-0.004 -0.04,-0.026 -0.083,-0.025 z"
     id="path4"
     inkscape:connector-curvature="0"
     style="fill:#ff6600" />
</svg>
