<?xml version="1.0" encoding="UTF-8" standalone="no"?>
<svg
   xmlns:dc="http://purl.org/dc/elements/1.1/"
   xmlns:cc="http://creativecommons.org/ns#"
   xmlns:rdf="http://www.w3.org/1999/02/22-rdf-syntax-ns#"
   xmlns:svg="http://www.w3.org/2000/svg"
   xmlns="http://www.w3.org/2000/svg"
   xmlns:sodipodi="http://sodipodi.sourceforge.net/DTD/sodipodi-0.dtd"
   xmlns:inkscape="http://www.inkscape.org/namespaces/inkscape"
   width="48"
   height="48"
   viewBox="0 0 12.7 12.7"
   version="1.1"
   id="svg4"
   sodipodi:docname="org.kde.plasma.folder.svg"
   inkscape:version="0.92.5 (2060ec1f9f, 2020-04-08)">
  <defs
     id="defs8">
    <style
       id="current-color-scheme"
       type="text/css">
      .ColorScheme-Highlight {
        color:#5beedc;
      }
  </style>
  </defs>
  <path
     class="ColorScheme-Highlight"
     style="fill:#5beedc"
     d="M 6.35,0 A 6.3499999,6.3499999 0 0 0 0,6.3499999 6.3499999,6.3499999 0 0 0 6.35,12.7 6.3499999,6.3499999 0 0 0 12.7,6.3499999 6.3499999,6.3499999 0 0 0 6.35,0 Z m 0,0.79374999 A 5.5562499,5.5562499 0 0 1 11.90625,6.3499999 5.5562499,5.5562499 0 0 1 6.35,11.90625 5.5562499,5.5562499 0 0 1 0.79374999,6.3499999 5.5562499,5.5562499 0 0 1 6.35,0.79374999 Z M 2.6458333,3.175 c -0.2931584,0 -0.5291666,0.2360083 -0.5291666,0.5291666 v 5.2916666 c 0,0.2931583 0.2360082,0.5291667 0.5291666,0.5291667 h 7.4083337 c 0.293158,0 0.529167,-0.2360084 0.529167,-0.5291667 V 5.5562499 5.2916666 H 5.8208333 L 4.7625,6.3499999 H 4.4979166 2.9104167 c -0.1465792,0 -0.2645834,-0.1180041 -0.2645834,-0.2645833 0,-0.1465792 0.1180042,-0.2645833 0.2645834,-0.2645833 H 4.4979166 L 5.55625,4.7624999 H 6.35 10.583334 V 4.4979166 c 0,-0.2931583 -0.236009,-0.5291666 -0.529167,-0.5291666 H 5.8208333 L 5.0270833,3.175 Z"
     id="path839"
     inkscape:connector-curvature="0" />
</svg>
