<?xml version="1.0" encoding="UTF-8" standalone="no"?>
<svg
   xmlns:dc="http://purl.org/dc/elements/1.1/"
   xmlns:cc="http://creativecommons.org/ns#"
   xmlns:rdf="http://www.w3.org/1999/02/22-rdf-syntax-ns#"
   xmlns:svg="http://www.w3.org/2000/svg"
   xmlns="http://www.w3.org/2000/svg"
   xmlns:sodipodi="http://sodipodi.sourceforge.net/DTD/sodipodi-0.dtd"
   xmlns:inkscape="http://www.inkscape.org/namespaces/inkscape"
   width="48"
   height="48"
   version="1.1"
   viewBox="0 0 12.7 12.7"
   id="svg4"
   sodipodi:docname="freetube.svg"
   inkscape:version="0.92.4 (5da689c313, 2019-01-14)">
  <metadata
     id="metadata10">
    <rdf:RDF>
      <cc:Work
         rdf:about="">
        <dc:format>image/svg+xml</dc:format>
        <dc:type
           rdf:resource="http://purl.org/dc/dcmitype/StillImage" />
        <dc:title></dc:title>
      </cc:Work>
    </rdf:RDF>
  </metadata>
  <defs
     id="defs8" />
  <sodipodi:namedview
     pagecolor="#ffffff"
     bordercolor="#666666"
     borderopacity="1"
     objecttolerance="10"
     gridtolerance="10"
     guidetolerance="10"
     inkscape:pageopacity="0"
     inkscape:pageshadow="2"
     inkscape:window-width="1136"
     inkscape:window-height="480"
     id="namedview6"
     showgrid="false"
     inkscape:zoom="4.9166667"
     inkscape:cx="2.1355932"
     inkscape:cy="24"
     inkscape:window-x="0"
     inkscape:window-y="25"
     inkscape:window-maximized="0"
     inkscape:current-layer="svg4" />
  <path
     d="M 6.3396014,0.07544763 C 2.8712222,0.08119453 0.06111798,2.8913726 0.05529722,6.3597518 c -4.61e-6,3.4723479 2.81195628,6.2888022 6.28430418,6.2946232 3.4765812,0 6.2946226,-2.818042 6.2946226,-6.2946232 C 12.628466,2.8874039 9.8119493,0.07544763 6.3396014,0.07544763 Z M 6.3292661,1.0149183 c 2.9741438,0.00572 5.3855259,2.4125198 5.3969029,5.3865842 0,2.9865791 -2.4208806,5.4074865 -5.4074861,5.4074865 -2.986579,0 -5.40722147,-2.420881 -5.40722147,-5.4074865 0,-2.986579 2.43122567,-5.3865842 5.41780467,-5.3865842 z M 3.930478,3.1398397 c -0.1891667,0 -0.3410701,0.2192204 -0.3410701,0.4914308 v 5.15931 c 0,0.7370405 0.6827487,1.2283395 1.0242157,1.2283395 H 4.9551964 V 9.5274888 8.7905805 3.6312705 c 0,-0.2722263 -0.1524114,-0.4914308 -0.3415728,-0.4914308 z m 2.0070774,0 c -0.2722263,0 -0.4914309,0.1748529 -0.4914309,0.3917106 v 0.7823631 c 0,0.2168498 0.2192204,0.3917107 0.4914309,0.3917107 h 2.948215 c 0.7370405,0 1.2288416,-0.7826541 1.2288416,-1.1740738 V 3.1398397 H 9.6231813 8.8857704 Z M 5.6404321,5.5965179 A 0.18934139,0.19795611 0 0 0 5.4461298,5.7949529 V 7.0713397 8.3472238 A 0.18934139,0.19795611 0 0 0 5.7303417,8.5182695 L 6.7876298,7.8800761 7.8443888,7.2418827 a 0.18934139,0.19795611 0 0 0 0,-0.3426047 L 6.7876298,6.2610846 5.7303417,5.6233939 a 0.18934139,0.19795611 0 0 0 -0.089915,-0.026871 z"
     id="path2"
     inkscape:connector-curvature="0"
     style="fill:#5beedc;stroke-width:1.04387391" />
</svg>
