<?xml version="1.0" encoding="UTF-8" standalone="no"?>
<svg
   xmlns:dc="http://purl.org/dc/elements/1.1/"
   xmlns:cc="http://creativecommons.org/ns#"
   xmlns:rdf="http://www.w3.org/1999/02/22-rdf-syntax-ns#"
   xmlns:svg="http://www.w3.org/2000/svg"
   xmlns="http://www.w3.org/2000/svg"
   xmlns:sodipodi="http://sodipodi.sourceforge.net/DTD/sodipodi-0.dtd"
   xmlns:inkscape="http://www.inkscape.org/namespaces/inkscape"
   width="48"
   height="48"
   viewBox="0 0 12.7 12.7"
   version="1.1"
   id="svg14"
   sodipodi:docname="frescobaldi.svg"
   inkscape:version="0.92.5 (2060ec1f9f, 2020-04-08)">
  <metadata
     id="metadata20">
    <rdf:RDF>
      <cc:Work
         rdf:about="">
        <dc:format>image/svg+xml</dc:format>
        <dc:type
           rdf:resource="http://purl.org/dc/dcmitype/StillImage" />
        <dc:title></dc:title>
      </cc:Work>
    </rdf:RDF>
  </metadata>
  <defs
     id="defs18" />
  <sodipodi:namedview
     pagecolor="#ffffff"
     bordercolor="#666666"
     borderopacity="1"
     objecttolerance="10"
     gridtolerance="10"
     guidetolerance="10"
     inkscape:pageopacity="0"
     inkscape:pageshadow="2"
     inkscape:window-width="1085"
     inkscape:window-height="480"
     id="namedview16"
     showgrid="false"
     inkscape:zoom="4.9166667"
     inkscape:cx="2.1355932"
     inkscape:cy="24"
     inkscape:window-x="0"
     inkscape:window-y="25"
     inkscape:window-maximized="0"
     inkscape:current-layer="svg14" />
  <path
     d="M 6.34,0.075 A 6.295,6.295 0 0 0 0.055,6.36 6.295,6.295 0 0 0 6.34,12.655 6.295,6.295 0 0 0 12.634,6.36 6.295,6.295 0 0 0 6.34,0.075 Z m -0.01,0.94 a 5.408,5.408 0 0 1 5.396,5.387 5.407,5.407 0 1 1 -10.814,0 c 0,-2.987 2.43,-5.387 5.417,-5.387 z"
     id="path2"
     inkscape:connector-curvature="0"
     style="fill:#5beedc" />
  <path
     d="M 4.113,2.999 C 4.037,2.995 3.983,3.012 3.954,3.052 3.772,3.322 3.871,4.141 4.001,4.937 L 4.007,4.976 4.008,4.982 C 4.369,4.91 4.854,4.867 5.218,4.828 5.021,4.848 4.784,4.869 4.552,4.895 4.554,4.562 4.554,4.203 4.584,3.915 4.599,3.771 4.622,3.645 4.656,3.548 4.69,3.452 4.736,3.385 4.796,3.36 A 0.13,0.13 0 0 1 4.843,3.351 C 4.94,3.349 5.075,3.436 5.23,3.575 5.386,3.715 5.561,3.905 5.74,4.11 5.797,4.012 5.857,3.92 5.916,3.817 5.178,3.41 4.442,3.015 4.113,3 Z m 6.031,1.196 C 9.459,4.211 8.271,4.681 7.812,4.725 7.794,4.727 7.73,4.689 7.707,4.685 7.677,4.871 7.653,5.051 7.625,5.224 7.91,5.164 8.232,5.085 8.529,5.024 8.825,4.964 9.096,4.92 9.281,4.931 9.403,4.939 9.488,4.971 9.515,5.037 9.549,5.12 9.495,5.254 9.39,5.417 A 5.038,5.038 0 0 1 8.948,5.975 C 9.091,6.067 9.204,6.153 9.34,6.245 9.897,5.485 10.832,4.459 10.523,4.267 10.434,4.212 10.303,4.191 10.144,4.195 Z M 3.31,7.615 C 2.8,8.225 2.309,8.853 2.52,9.136 2.745,9.436 3.957,9.18 4.917,8.992 4.836,8.665 4.759,8.312 4.679,8.192 A 14.861,14.861 0 0 1 3.309,7.616 Z M 9.073,7.872 C 8.531,8.167 7.963,8.446 7.817,8.545 7.801,8.555 7.723,8.613 7.69,8.637 7.68,8.807 7.663,8.963 7.627,9.085 7.592,9.208 7.539,9.295 7.46,9.328 A 0.436,0.436 0 0 1 7.207,9.332 1.628,1.628 0 0 1 6.911,9.227 C 7.768,9.661 8.893,10.267 9.086,9.982 9.306,9.659 9.187,8.68 9.073,7.872 Z"
     id="path4"
     inkscape:connector-curvature="0"
     style="opacity:0.8;fill:#ee4075;fill-rule:evenodd" />
  <path
     d="M 6.82,2.648 C 6.588,2.603 6.122,3.45 5.736,4.118 5.84,4.237 5.94,4.34 6.043,4.462 6.253,4.304 6.42,4.186 6.702,3.966 A 8.41,8.41 0 0 1 7.26,3.562 C 7.12,3.093 6.97,2.677 6.82,2.648 Z M 3.166,4.925 C 2.612,4.927 2.158,4.96 2.121,5.102 2.061,5.331 2.532,5.907 3.069,6.495 3.362,6.372 3.706,6.252 3.986,6.131 A 5.954,5.954 0 0 1 3.634,5.551 C 3.549,5.381 3.505,5.245 3.538,5.173 3.563,5.118 3.643,5.072 3.758,5.034 3.873,4.996 4.023,4.966 4.189,4.941 L 4.199,4.94 C 3.865,4.935 3.498,4.924 3.166,4.925 Z M 8.94,5.97 C 8.717,6.222 8.476,6.485 8.26,6.718 8.333,6.788 8.394,6.857 8.43,6.922 8.466,6.987 8.478,7.047 8.452,7.102 8.423,7.166 8.337,7.211 8.217,7.242 8.097,7.275 7.942,7.294 7.777,7.308 A 0.071,0.071 0 0 0 7.769,7.319 C 7.729,7.415 7.713,7.579 7.706,7.773 7.7,7.967 7.702,8.191 7.698,8.408 7.696,8.495 7.683,8.562 7.678,8.644 l 0.137,-0.1 C 8.116,8.34 10.16,7.4 10.228,7.043 10.266,6.849 9.598,6.397 8.94,5.97 Z M 4.663,8.176 4.677,8.19 C 4.881,8.491 5.043,9.984 5.4,10.052 5.618,10.094 6.28,9.65 6.892,9.212 6.789,9.165 6.688,9.125 6.581,9.065 6.239,8.875 5.897,8.645 5.704,8.565 A 42.65,42.65 0 0 0 4.664,8.176 Z"
     id="path6"
     inkscape:connector-curvature="0"
     style="opacity:0.8;fill:#fc69a4;fill-rule:evenodd" />
  <path
     d="M 4.843,3.351 A 0.13,0.13 0 0 0 4.796,3.361 C 4.553,3.459 4.556,4.229 4.552,4.895 5.016,4.844 5.5,4.814 5.649,4.758 5.706,4.737 5.919,4.556 6.043,4.462 5.589,3.927 5.092,3.345 4.843,3.352 Z m 4.438,1.58 C 8.912,4.909 8.196,5.104 7.625,5.224 7.61,5.317 7.591,5.425 7.579,5.508 7.543,5.762 7.527,5.959 7.555,6.035 7.583,6.112 7.662,6.198 7.762,6.289 7.862,6.38 7.983,6.477 8.097,6.572 8.159,6.624 8.201,6.674 8.254,6.725 8.811,6.125 9.626,5.308 9.514,5.037 9.488,4.97 9.404,4.939 9.281,4.931 Z m -5.293,1.2 C 3.378,6.394 2.441,6.652 2.47,6.948 2.527,7.535 5.317,8.402 5.704,8.564 6.09,8.726 7.071,9.485 7.459,9.328 7.847,9.17 7.607,7.703 7.77,7.319 7.771,7.315 7.782,7.305 7.783,7.302 7.726,7.307 7.68,7.317 7.62,7.321 7.227,7.344 6.812,7.345 6.66,7.401 6.585,7.43 6.5,7.507 6.408,7.605 6.318,7.703 6.222,7.822 6.127,7.933 6.032,8.043 5.937,8.146 5.847,8.213 5.757,8.28 5.674,8.311 5.6,8.277 5.453,8.209 5.248,8.009 5.066,7.787 4.884,7.565 4.724,7.322 4.668,7.169 4.611,7.017 4.296,6.592 4.011,6.168 4.001,6.155 3.997,6.144 3.988,6.131 Z"
     id="path8"
     inkscape:connector-curvature="0"
     style="opacity:0.8;fill:#ff96bf;fill-rule:evenodd" />
  <path
     d="M 7.748,3.36 C 7.454,3.225 5.952,4.645 5.649,4.758 5.346,4.872 3.674,4.878 3.539,5.173 3.404,5.469 4.555,6.864 4.668,7.169 4.781,7.475 5.306,8.141 5.6,8.277 5.894,8.412 6.357,7.515 6.66,7.402 6.964,7.288 8.319,7.399 8.453,7.102 8.588,6.807 7.668,6.34 7.555,6.035 7.442,5.73 8.042,3.495 7.748,3.36 Z M 6.331,4.941 c 0.103,0.02 0.21,0.101 0.313,0.193 0.102,0.091 0.2,0.192 0.285,0.25 0.06,0.04 0.165,0.076 0.26,0.118 0.096,0.042 0.182,0.09 0.205,0.157 C 7.426,5.752 7.401,5.882 7.365,6.012 7.33,6.142 7.283,6.275 7.27,6.372 7.261,6.443 7.278,6.546 7.285,6.645 7.292,6.744 7.288,6.838 7.237,6.892 7.166,6.966 7.034,7.014 6.895,7.052 6.757,7.092 6.612,7.122 6.515,7.163 6.445,7.193 6.358,7.26 6.269,7.317 6.181,7.374 6.091,7.42 6.017,7.407 5.914,7.387 5.807,7.305 5.704,7.214 5.601,7.122 5.503,7.021 5.419,6.964 5.358,6.924 5.253,6.888 5.159,6.846 5.063,6.804 4.977,6.756 4.954,6.688 4.922,6.595 4.946,6.466 4.982,6.335 5.018,6.205 5.065,6.073 5.078,5.975 5.087,5.905 5.069,5.801 5.063,5.702 5.056,5.604 5.06,5.509 5.111,5.456 5.181,5.382 5.314,5.334 5.452,5.295 5.591,5.255 5.736,5.225 5.832,5.185 5.902,5.155 5.99,5.087 6.078,5.031 6.167,4.974 6.257,4.928 6.331,4.941 Z"
     id="path10"
     inkscape:connector-curvature="0"
     style="opacity:0.8;fill:#ffcbdb;fill-rule:evenodd" />
  <path
     d="M 7.27,6.372 C 7.252,6.514 7.339,6.785 7.237,6.892 7.095,7.04 6.709,7.082 6.515,7.163 6.375,7.223 6.165,7.433 6.017,7.406 5.811,7.369 5.587,7.078 5.419,6.964 5.297,6.882 5,6.822 4.954,6.688 4.89,6.502 5.052,6.171 5.077,5.975 5.095,5.834 5.009,5.563 5.111,5.455 5.253,5.307 5.639,5.266 5.832,5.185 5.972,5.125 6.182,4.915 6.331,4.941 6.537,4.979 6.761,5.269 6.929,5.383 7.051,5.465 7.347,5.525 7.394,5.66 7.458,5.845 7.295,6.177 7.27,6.372 Z"
     id="path12"
     inkscape:connector-curvature="0"
     style="opacity:0.8;fill:#ff940a;fill-rule:evenodd" />
</svg>
