<?xml version="1.0" encoding="UTF-8" standalone="no"?>
<svg
   xmlns:dc="http://purl.org/dc/elements/1.1/"
   xmlns:cc="http://creativecommons.org/ns#"
   xmlns:rdf="http://www.w3.org/1999/02/22-rdf-syntax-ns#"
   xmlns:svg="http://www.w3.org/2000/svg"
   xmlns="http://www.w3.org/2000/svg"
   xmlns:sodipodi="http://sodipodi.sourceforge.net/DTD/sodipodi-0.dtd"
   xmlns:inkscape="http://www.inkscape.org/namespaces/inkscape"
   width="48"
   height="48"
   viewBox="0 0 12.7 12.7"
   version="1.1"
   id="svg4"
   sodipodi:docname="frogr.svg"
   inkscape:version="0.92.4 (5da689c313, 2019-01-14)">
  <metadata
     id="metadata10">
    <rdf:RDF>
      <cc:Work
         rdf:about="">
        <dc:format>image/svg+xml</dc:format>
        <dc:type
           rdf:resource="http://purl.org/dc/dcmitype/StillImage" />
        <dc:title></dc:title>
      </cc:Work>
    </rdf:RDF>
  </metadata>
  <defs
     id="defs8" />
  <sodipodi:namedview
     pagecolor="#ffffff"
     bordercolor="#666666"
     borderopacity="1"
     objecttolerance="10"
     gridtolerance="10"
     guidetolerance="10"
     inkscape:pageopacity="0"
     inkscape:pageshadow="2"
     inkscape:window-width="1112"
     inkscape:window-height="480"
     id="namedview6"
     showgrid="false"
     inkscape:zoom="4.9166667"
     inkscape:cx="2.1355932"
     inkscape:cy="24"
     inkscape:window-x="0"
     inkscape:window-y="25"
     inkscape:window-maximized="0"
     inkscape:current-layer="svg4" />
  <path
     d="m 6.34,0.07 a 6.29,6.29 0 0 0 0,12.58 6.29,6.29 0 0 0 0,-12.58 z M 6.32,1 A 5.417,5.417 0 0 1 11.73,6.41 5.4,5.4 0 0 1 6.33,11.82 5.4,5.4 0 0 1 0.92,6.42 5.4,5.4 0 0 1 6.32,1 Z M 3.682,2.838 A 0.38,0.376 0 0 0 3.365,3.015 0.38,0.376 0 0 0 3.346,3.048 0.38,0.376 0 0 0 3.331,3.082 0.38,0.376 0 0 0 3.32,3.118 0.38,0.376 0 0 0 3.312,3.155 0.38,0.376 0 0 0 3.308,3.193 a 0.38,0.376 0 0 0 0,0.025 V 3.595 H 2.927 a 0.38,0.376 0 0 0 -0.026,0.75 0.38,0.376 0 0 0 0.026,0.001 h 0.38 V 4.972 A 0.38,0.376 0 0 0 3.309,5.01 0.38,0.376 0 0 0 3.374,5.184 0.38,0.376 0 0 0 3.397,5.214 0.38,0.376 0 0 0 3.423,5.242 0.38,0.376 0 0 0 3.55,5.322 0.38,0.376 0 0 0 3.688,5.348 H 4.575 V 7.352 H 3.688 A 0.38,0.376 0 0 0 3.308,7.728 V 8.354 H 2.927 a 0.38,0.376 0 1 0 0,0.751 h 0.38 v 0.376 a 0.3805,0.37649474 0 1 0 0.761,0 V 8.103 h 0.507 v 0.132 c 0,0.76 0.633,1.372 1.42,1.372 h 0.71 c 0.786,0 1.42,-0.612 1.42,-1.372 V 8.103 h 0.506 v 1.378 a 0.38,0.376 0 1 0 0.76,0 V 9.105 h 0.381 a 0.38,0.376 0 1 0 0,-0.751 H 9.392 V 7.728 A 0.38,0.376 0 0 0 9.012,7.352 H 8.124 V 5.348 H 9.011 A 0.38,0.376 0 0 0 9.391,4.972 V 4.346 h 0.381 a 0.38,0.376 0 1 0 0,-0.751 H 9.392 V 3.219 A 0.38,0.376 0 0 0 9.006,2.838 0.38,0.376 0 0 0 8.631,3.218 V 4.597 H 8.124 V 4.464 C 8.124,4.411 8.12,4.359 8.114,4.307 L 8.104,4.315 A 0.88,0.88 0 0 1 7.429,4.447 0.883,0.883 0 0 1 6.924,4.146 0.886,0.886 0 0 1 6.726,3.678 0.882,0.882 0 0 1 6.828,3.171 0.88,0.88 0 0 1 6.87,3.103 1.498,1.498 0 0 0 6.705,3.093 h -0.71 c -0.062,0 -0.122,0.006 -0.18,0.013 A 0.87,0.87 0 0 1 5.943,3.412 0.865,0.865 0 0 1 5.638,4.264 0.889,0.889 0 0 1 4.583,4.318 1.352,1.352 0 0 0 4.575,4.464 V 4.597 H 4.068 V 3.218 A 0.38,0.376 0 0 0 4.024,3.038 0.38,0.376 0 0 0 4.004,3.006 0.38,0.376 0 0 0 3.982,2.976 0.38,0.376 0 0 0 3.682,2.838 Z m 1.393,0.25 a 0.504,0.504 0 0 0 -0.507,0.5 c 0,0.277 0.227,0.501 0.507,0.501 0.28,0 0.506,-0.224 0.506,-0.5 0,-0.277 -0.227,-0.501 -0.506,-0.501 z m 2.533,0 a 0.504,0.504 0 0 0 -0.507,0.5 c 0,0.277 0.227,0.501 0.507,0.501 0.28,0 0.506,-0.224 0.506,-0.5 0,-0.277 -0.226,-0.501 -0.506,-0.501 z"
     id="path2"
     inkscape:connector-curvature="0"
     style="fill:#5beedc" />
</svg>
