<?xml version="1.0" encoding="UTF-8" standalone="no"?>
<svg
   xmlns:dc="http://purl.org/dc/elements/1.1/"
   xmlns:cc="http://creativecommons.org/ns#"
   xmlns:rdf="http://www.w3.org/1999/02/22-rdf-syntax-ns#"
   xmlns:svg="http://www.w3.org/2000/svg"
   xmlns="http://www.w3.org/2000/svg"
   xmlns:sodipodi="http://sodipodi.sourceforge.net/DTD/sodipodi-0.dtd"
   xmlns:inkscape="http://www.inkscape.org/namespaces/inkscape"
   width="48"
   height="48"
   viewBox="0 0 12.7 12.7"
   version="1.1"
   id="svg4"
   sodipodi:docname="frostwire.svg"
   inkscape:version="0.92.4 (5da689c313, 2019-01-14)">
  <metadata
     id="metadata10">
    <rdf:RDF>
      <cc:Work
         rdf:about="">
        <dc:format>image/svg+xml</dc:format>
        <dc:type
           rdf:resource="http://purl.org/dc/dcmitype/StillImage" />
        <dc:title></dc:title>
      </cc:Work>
    </rdf:RDF>
  </metadata>
  <defs
     id="defs8" />
  <sodipodi:namedview
     pagecolor="#ffffff"
     bordercolor="#666666"
     borderopacity="1"
     objecttolerance="10"
     gridtolerance="10"
     guidetolerance="10"
     inkscape:pageopacity="0"
     inkscape:pageshadow="2"
     inkscape:window-width="1112"
     inkscape:window-height="480"
     id="namedview6"
     showgrid="false"
     inkscape:zoom="4.9166667"
     inkscape:cx="2.1355932"
     inkscape:cy="24"
     inkscape:window-x="0"
     inkscape:window-y="25"
     inkscape:window-maximized="0"
     inkscape:current-layer="svg4" />
  <path
     d="m 6.34,0.07 a 6.29,6.29 0 0 0 0,12.58 6.29,6.29 0 0 0 0,-12.58 z M 6.32,1 a 5.417,5.417 0 0 1 5.16,3.81 C 10.697,5.046 10.032,5.413 9.292,5.895 A 5.867,5.867 0 0 1 8.688,5.322 C 8.624,5.444 8.469,5.779 8.413,5.87 8.62,6.078 8.706,6.203 8.871,6.326 8.673,6.473 8.675,6.519 8.202,6.95 8.301,7.143 8.355,7.327 8.454,7.515 8.683,7.261 8.852,7.057 9.345,6.719 9.979,7.063 10.531,7.422 11.558,7.743 A 5.4,5.4 0 0 1 6.33,11.82 5.4,5.4 0 0 1 1.13,7.908 C 1.953,7.672 2.649,7.291 3.416,6.791 3.663,6.991 3.814,7.165 4.012,7.373 4.076,7.251 4.235,6.906 4.292,6.816 4.085,6.608 4.002,6.491 3.837,6.368 4.035,6.222 4.033,6.175 4.506,5.744 4.406,5.552 4.353,5.367 4.255,5.179 4.025,5.433 3.848,5.637 3.355,5.974 2.725,5.632 2.143,5.284 1.12,4.966 A 5.4,5.4 0 0 1 6.32,1 Z M 3.89,2.58 C 3.738,2.596 3.617,2.761 3.716,2.953 4.15,3.86 4.408,4.505 4.859,5.501 4.939,5.311 4.989,5.179 5.109,4.895 4.645,3.947 4.579,3.547 4.149,2.739 4.08,2.619 3.981,2.571 3.889,2.58 Z M 8.87,2.613 C 8.776,2.609 8.673,2.669 8.611,2.818 8.043,4.133 7,6.793 6.532,7.862 6.267,8.42 6.742,8.642 6.922,8.335 7.522,7.047 8.427,4.58 9.086,3.007 9.168,2.798 9.029,2.62 8.871,2.613 Z m -2.877,1.7 C 5.899,4.309 5.804,4.369 5.743,4.518 5.173,5.833 4.12,8.501 3.654,9.57 3.388,10.127 3.859,10.289 4.064,9.93 4.664,8.642 5.553,6.28 6.211,4.706 6.293,4.497 6.151,4.32 5.992,4.313 Z M 6.946,4.564 C 6.851,4.56 6.756,4.611 6.695,4.76 6.127,6.075 5.925,6.722 5.459,7.791 5.193,8.349 5.643,8.541 5.823,8.131 6.424,6.843 6.506,6.531 7.164,4.957 7.246,4.748 7.104,4.571 6.946,4.564 Z m 4.711,0.978 A 5.417,5.417 0 0 1 11.73,6.41 5.4,5.4 0 0 1 11.684,7.084 C 11.128,6.904 10.381,6.661 9.9,6.314 10.278,6.038 10.786,5.766 11.657,5.542 Z M 0.988,5.588 C 1.549,5.773 2.316,6.031 2.8,6.38 2.412,6.662 1.89,6.935 0.977,7.16 A 5.4,5.4 0 0 1 0.92,6.42 5.4,5.4 0 0 1 0.988,5.588 Z M 7.83,7.067 C 7.75,7.257 7.692,7.382 7.571,7.666 8.036,8.614 8.11,9.022 8.539,9.829 8.723,10.151 9.131,9.923 8.973,9.616 8.539,8.709 8.281,8.063 7.83,7.066 Z"
     id="path2"
     inkscape:connector-curvature="0"
     style="fill:#5beedc" />
</svg>
