<?xml version="1.0" encoding="UTF-8" standalone="no"?>
<svg
   xmlns:dc="http://purl.org/dc/elements/1.1/"
   xmlns:cc="http://creativecommons.org/ns#"
   xmlns:rdf="http://www.w3.org/1999/02/22-rdf-syntax-ns#"
   xmlns:svg="http://www.w3.org/2000/svg"
   xmlns="http://www.w3.org/2000/svg"
   xmlns:sodipodi="http://sodipodi.sourceforge.net/DTD/sodipodi-0.dtd"
   xmlns:inkscape="http://www.inkscape.org/namespaces/inkscape"
   width="48"
   height="48"
   viewBox="0 0 12.7 12.7"
   version="1.1"
   id="svg4"
   sodipodi:docname="accessories-calculator.svg"
   inkscape:version="0.92.5 (2060ec1f9f, 2020-04-08)">
  <defs
     id="defs8">
    <style
       id="current-color-scheme"
       type="text/css">
      .ColorScheme-Highlight {
        color:#5beedc;
      }
  </style>
  </defs>
  <path
     class="ColorScheme-Highlight"
     style="fill:#5beedc"
     d="M 24 0 A 24 24 0 0 0 0 24 A 24 24 0 0 0 24 48 A 24 24 0 0 0 48 24 A 24 24 0 0 0 24 0 z M 24 3 A 21 21 0 0 1 45 24 A 21 21 0 0 1 24 45 A 21 21 0 0 1 3 24 A 21 21 0 0 1 24 3 z M 14 8 C 13.471182 8 13.044922 8.4754726 13.044922 9.0664062 L 13.044922 38.933594 C 13.044922 39.524527 13.471182 40 14 40 L 34.044922 40 C 34.57374 40 35 39.524527 35 38.933594 L 35 9.0664062 C 35 8.4754726 34.57374 8 34.044922 8 L 14 8 z M 15 11 L 33 11 L 33 17 L 15 17 L 15 11 z M 15 20 L 19 20 L 19 24 L 15 24 L 15 20 z M 22 20 L 26 20 L 26 24 L 22 24 L 22 20 z M 29 20 L 33 20 L 33 24 L 29 24 L 29 20 z M 15 27 L 19 27 L 19 31 L 15 31 L 15 27 z M 22 27 L 26 27 L 26 31 L 22 31 L 22 27 z M 29 27 L 33 27 L 33 31 L 29 31 L 29 27 z M 15 34 L 26 34 L 26 38 L 15 38 L 15 34 z M 29 34 L 33 34 L 33 38 L 29 38 L 29 34 z "
     transform="scale(0.26458333)"
     id="path851" />
</svg>
