<?xml version="1.0" encoding="UTF-8" standalone="no"?>
<svg
   xmlns:dc="http://purl.org/dc/elements/1.1/"
   xmlns:cc="http://creativecommons.org/ns#"
   xmlns:rdf="http://www.w3.org/1999/02/22-rdf-syntax-ns#"
   xmlns:svg="http://www.w3.org/2000/svg"
   xmlns="http://www.w3.org/2000/svg"
   xmlns:sodipodi="http://sodipodi.sourceforge.net/DTD/sodipodi-0.dtd"
   xmlns:inkscape="http://www.inkscape.org/namespaces/inkscape"
   width="48"
   height="48"
   viewBox="0 0 12.7 12.7"
   version="1.1"
   id="svg4"
   sodipodi:docname="gbrainy.svg"
   inkscape:version="0.92.5 (2060ec1f9f, 2020-04-08)">
  <defs
     id="defs8">
  <style
     id="current-color-scheme"
     type="text/css">
      .ColorScheme-Highlight {
        color:#5beedc;
      }
  </style>
  </defs>
  <path
     class="ColorScheme-Highlight"
     style="fill:#5beedc"
     d="M 24 0 A 24 24 0 0 0 0 24 A 24 24 0 0 0 24 48 A 24 24 0 0 0 48 24 A 24 24 0 0 0 24 0 z M 24 3 A 21 21 0 0 1 45 24 A 21 21 0 0 1 24 45 A 21 21 0 0 1 3 24 A 21 21 0 0 1 24 3 z M 22.796875 12.513672 C 22.087117 12.505272 21.314235 12.571942 20.427734 12.78125 A 7.1747868 7.1747868 0 0 0 18.78125 13.421875 C 16.665 13.421875 15.844175 14.346252 15.539062 14.945312 C 14.809769 14.878332 14.192605 15.029042 13.707031 15.396484 A 2.5469423 2.5469423 0 0 0 12.8125 16.828125 A 3.1571666 3.1571666 0 0 0 11.103516 18.380859 C 10.619801 19.392008 10.80327 20.477594 10.931641 20.96875 C 10.611645 21.485952 10.508259 21.986062 10.615234 22.451172 A 1.6278849 1.6278849 0 0 0 11.123047 23.300781 A 2.6688011 2.6688011 0 0 0 11.771484 25.1875 C 12.899842 26.495389 15.146037 26.682753 15.587891 26.705078 C 15.704168 28.165524 16.810406 29.603919 19.257812 29.964844 L 19.277344 29.966797 C 19.300588 29.966797 19.57172 29.994141 20.03125 29.994141 C 20.447058 29.994141 21.012253 29.973505 21.689453 29.892578 C 23.131294 31.25535 23.58002 33.10421 23.912109 34.470703 C 24.030246 34.96558 24.135581 35.398196 24.269531 35.726562 A 0.52371383 0.52371383 0 0 0 24.839844 36.044922 L 27.205078 35.650391 A 0.52371383 0.52371383 0 0 0 27.621094 34.990234 A 5.4827165 5.4827165 0 0 1 27.412109 33.574219 C 27.565596 33.624449 27.724487 33.668888 27.878906 33.707031 C 29.134703 34.023306 30.412392 33.957478 31.476562 33.515625 C 32.595616 33.053305 33.349659 32.236688 33.605469 31.224609 C 33.6399 31.082284 33.665913 30.940037 33.683594 30.794922 C 34.576605 30.673062 35.648574 30.140806 36.474609 28.556641 C 36.474609 28.544546 36.479903 28.535697 36.486328 28.527344 C 36.509591 28.474315 37.037082 27.266253 37.193359 25.789062 C 37.385914 23.965834 36.923828 22.533457 35.845703 21.597656 A 2.3515961 2.3515961 0 0 0 35.082031 19.023438 C 34.965754 18.093218 34.089224 17.502282 33.371094 17.214844 A 3.0994929 3.0994929 0 0 0 32.384766 15.097656 C 31.424779 14.226039 30.049594 14.109375 29.378906 14.109375 L 29.357422 14.109375 C 28.702522 12.993031 27.205601 12.940727 26.333984 13.103516 A 11.873328 11.873328 0 0 0 24.796875 12.6875 A 16.07141 16.07141 0 0 0 22.796875 12.513672 z M 22.699219 13.509766 C 23.350373 13.489281 23.986501 13.550103 24.597656 13.712891 C 25.099974 13.815214 25.614217 13.956258 26.123047 14.136719 A 0.52371383 0.52371383 0 0 0 26.417969 14.154297 C 26.43286 14.147796 28.159626 13.755304 28.541016 14.822266 A 0.52371383 0.52371383 0 0 0 29.082031 15.166016 C 29.098775 15.166016 30.744072 15.02013 31.683594 15.875 A 1.9767174 1.9767174 0 0 1 32.300781 17.050781 C 31.593814 17.085201 30.49489 17.330905 29.921875 18.464844 A 0.52371383 0.52371383 0 0 0 30.855469 18.935547 C 31.338253 17.982071 32.536235 18.079423 32.753906 18.105469 C 32.945532 18.16873 34.090596 18.574936 34.046875 19.275391 A 0.52371383 0.52371383 0 0 0 34.326172 19.777344 C 34.328972 19.777344 34.514763 19.881005 34.673828 20.099609 C 34.88685 20.390769 34.956208 20.742117 34.880859 21.152344 L 34.849609 21.199219 C 34.035674 21.287588 32.814017 21.799776 32.648438 23.308594 A 0.52371383 0.52371383 0 0 0 33.689453 23.421875 C 33.793637 22.465609 34.617127 22.278374 34.96875 22.240234 C 37.259882 23.920211 35.641108 27.839707 35.533203 28.091797 C 34.965768 29.176433 34.257408 29.728973 33.367188 29.777344 C 32.983935 29.458279 31.982166 28.748677 30.232422 28.330078 A 0.52440579 0.52440579 0 0 0 29.986328 29.349609 C 31.481191 29.706813 32.33793 30.293017 32.652344 30.548828 C 32.652344 30.69115 32.627135 30.833963 32.591797 30.970703 C 32.222499 32.446963 30.221342 33.22284 28.136719 32.697266 A 5.3636481 5.3636481 0 0 1 27.142578 32.34375 A 0.52371383 0.52371383 0 0 0 26.396484 32.765625 A 7.1757169 7.1757169 0 0 0 26.484375 34.710938 L 25.111328 34.941406 A 20.161588 20.161588 0 0 1 24.927734 34.226562 C 24.622622 32.955883 24.180099 31.121446 22.875 29.619141 C 23.962427 29.354028 25.004016 29.182306 25.986328 29.097656 A 0.52371383 0.52371383 0 1 0 25.900391 28.056641 A 22.20249 22.20249 0 0 0 21.759766 28.826172 A 11.54403 11.54403 0 0 1 19.394531 28.923828 C 17.126654 28.584298 16.495696 27.216237 16.644531 26.146484 A 0.52371383 0.52371383 0 0 0 16.001953 25.568359 L 15.623047 25.658203 C 14.959803 25.628434 13.310582 25.370034 12.566406 24.505859 A 1.7004421 1.7004421 0 0 1 12.1875 23.119141 A 0.52371383 0.52371383 0 0 0 11.916016 22.591797 C 11.913215 22.591797 11.686859 22.454094 11.634766 22.21875 C 11.567785 21.935962 11.757411 21.599743 11.925781 21.367188 A 0.52371383 0.52371383 0 0 0 11.996094 20.878906 C 11.992394 20.867746 11.605856 19.754717 12.044922 18.830078 C 12.289569 18.318457 12.761415 17.941539 13.441406 17.708984 A 0.51720231 0.51720231 0 0 0 13.791016 17.257812 C 13.793815 17.252219 13.860968 16.586558 14.34375 16.226562 C 14.678627 15.976335 15.156699 15.914414 15.773438 16.039062 A 0.52371383 0.52371383 0 0 0 16.394531 15.607422 C 16.394531 15.596272 16.626227 14.506889 18.669922 14.46875 C 18.978755 14.89107 19.660337 16.002712 19.154297 16.998047 A 0.52371383 0.52371383 0 0 0 20.083984 17.472656 A 2.6948472 2.6948472 0 0 0 20.378906 16.373047 C 20.660765 16.25398 21.100572 16.12238 21.453125 16.226562 C 21.679167 16.293543 21.85433 16.459868 21.988281 16.732422 A 0.5241947 0.5241947 0 1 0 22.929688 16.273438 A 1.9190438 1.9190438 0 0 0 21.748047 15.224609 A 2.5264774 2.5264774 0 0 0 20.244141 15.302734 A 4.6650531 4.6650531 0 0 0 19.707031 14.134766 C 19.95075 14.02686 20.280341 13.901898 20.693359 13.794922 A 10.483579 10.483579 0 0 1 22.699219 13.509766 z M 25.292969 15.005859 A 2.7850786 2.7850786 0 0 0 24.636719 15.087891 A 0.52371383 0.52371383 0 0 0 24.916016 16.09375 A 1.6511404 1.6511404 0 0 1 26.042969 16.226562 C 26.339711 16.401445 26.544531 16.720065 26.654297 17.177734 A 0.52371383 0.52371383 0 0 0 27.279297 17.568359 A 0.52371383 0.52371383 0 0 0 27.667969 16.939453 C 27.494018 16.195277 27.125932 15.655655 26.576172 15.330078 A 2.4650829 2.4650829 0 0 0 25.292969 15.009766 L 25.292969 15.005859 z M 14.832031 17.970703 A 0.52371383 0.52371383 0 0 0 14.361328 18.628906 C 14.484117 19.073551 14.477047 19.442282 14.349609 19.753906 L 14.339844 19.773438 A 1.1655656 1.1655656 0 0 1 14.087891 20.142578 A 1.6539311 1.6539311 0 0 1 13.4375 20.544922 A 0.52371383 0.52371383 0 0 0 13.712891 21.554688 A 2.7181027 2.7181027 0 0 0 14.908203 20.798828 C 15.257035 21.057427 15.670775 21.191406 16.119141 21.191406 A 2.3776422 2.3776422 0 0 0 16.5 21.160156 C 17.093481 21.061561 17.536634 20.782743 17.585938 20.753906 A 0.52371383 0.52371383 0 1 0 17.021484 19.875 C 17.018685 19.875 16.710814 20.065555 16.335938 20.126953 A 0.98882385 0.98882385 0 0 1 15.416016 19.857422 A 2.8864726 2.8864726 0 0 0 15.371094 18.359375 A 0.52371383 0.52371383 0 0 0 14.884766 17.970703 A 0.52371383 0.52371383 0 0 0 14.832031 17.970703 z M 23.259766 19.447266 A 0.52371383 0.52371383 0 0 0 22.738281 20.0625 C 22.741981 20.091338 22.876495 20.810611 23.376953 21.517578 C 23.49602 21.685015 23.641619 21.864833 23.818359 22.033203 C 23.725341 22.57087 22.903279 22.86263 22.882812 22.869141 A 0.52371383 0.52371383 0 0 0 23.21875 23.857422 C 23.701534 23.697423 24.408057 23.289734 24.71875 22.636719 C 25.126187 22.822762 25.614203 22.945312 26.201172 22.945312 L 26.316406 22.945312 A 0.52445862 0.52445862 0 0 0 26.302734 21.896484 L 26.291016 21.896484 C 24.191517 21.948573 23.782184 19.962163 23.761719 19.869141 A 0.52371383 0.52371383 0 0 0 23.261719 19.447266 L 23.259766 19.447266 z M 27.6875 19.791016 A 0.52371383 0.52371383 0 0 0 27.451172 20.765625 C 27.456766 20.768425 27.981991 21.086582 28.326172 21.667969 C 28.761515 22.400052 28.721257 23.228638 28.203125 24.132812 A 0.5237661 0.5237661 0 1 0 29.111328 24.652344 C 30.018293 23.065389 29.660611 21.837648 29.199219 21.087891 A 3.9069237 3.9069237 0 0 0 27.982422 19.863281 A 0.52371383 0.52371383 0 0 0 27.738281 19.791016 A 0.52371383 0.52371383 0 0 0 27.736328 19.791016 A 0.52371383 0.52371383 0 0 0 27.6875 19.791016 z M 18.726562 22.060547 L 18.673828 22.0625 A 0.52371383 0.52371383 0 0 0 18.222656 22.646484 C 18.310096 23.364614 17.748197 23.883144 17.417969 24.125 A 3.2557699 3.2557699 0 0 0 15.597656 23.880859 A 0.52371383 0.52371383 0 0 0 15.777344 24.908203 C 15.786641 24.908203 16.668901 24.76313 17.197266 25.222656 C 17.499586 25.484048 17.643976 25.920563 17.632812 26.521484 A 0.52371383 0.52371383 0 0 0 18.679688 26.546875 C 18.694569 25.842691 18.543115 25.264961 18.232422 24.820312 C 18.744043 24.392413 19.397346 23.620727 19.257812 22.515625 A 0.52371383 0.52371383 0 0 0 18.730469 22.060547 L 18.726562 22.060547 z M 31.244141 24.371094 A 0.52371383 0.52371383 0 0 0 30.777344 25.134766 A 2.8343802 2.8343802 0 0 0 32.154297 26.363281 C 31.991508 27.003273 31.88702 28.133141 32.833984 28.923828 A 0.52092317 0.52092317 0 0 0 33.570312 28.859375 A 0.52371383 0.52371383 0 0 0 33.503906 28.119141 C 32.92717 27.636356 33.090661 26.845486 33.205078 26.488281 C 33.675769 26.430611 34.162024 26.228391 34.650391 25.873047 A 0.52371383 0.52371383 0 0 0 34.044922 25.021484 C 33.536092 25.38799 33.071684 25.522616 32.667969 25.427734 C 32.056814 25.288201 31.706753 24.660438 31.701172 24.646484 A 0.52371383 0.52371383 0 0 0 31.244141 24.371094 z M 25.099609 24.925781 A 0.52371383 0.52371383 0 0 0 24.685547 25.1875 A 1.8892768 1.8892768 0 0 1 23.085938 26.205078 A 2.6836846 2.6836846 0 0 1 22.0625 26.050781 A 0.52374362 0.52374362 0 0 0 21.664062 27.019531 C 21.725461 27.04372 22.257505 27.25 22.957031 27.25 L 23.091797 27.25 A 2.9069374 2.9069374 0 0 0 25.585938 25.710938 A 0.52371383 0.52371383 0 0 0 25.152344 24.925781 A 0.52371383 0.52371383 0 0 0 25.150391 24.925781 A 0.52371383 0.52371383 0 0 0 25.099609 24.925781 z "
     transform="scale(0.26458333)"
     id="path817" />
</svg>
