<?xml version="1.0" encoding="UTF-8" standalone="no"?>
<svg
   xmlns:dc="http://purl.org/dc/elements/1.1/"
   xmlns:cc="http://creativecommons.org/ns#"
   xmlns:rdf="http://www.w3.org/1999/02/22-rdf-syntax-ns#"
   xmlns:svg="http://www.w3.org/2000/svg"
   xmlns="http://www.w3.org/2000/svg"
   xmlns:sodipodi="http://sodipodi.sourceforge.net/DTD/sodipodi-0.dtd"
   xmlns:inkscape="http://www.inkscape.org/namespaces/inkscape"
   width="48"
   height="48"
   viewBox="0 0 12.7 12.7"
   version="1.1"
   id="svg4"
   sodipodi:docname="gelemental.svg"
   inkscape:version="0.92.5 (2060ec1f9f, 2020-04-08)">
  <defs
     id="defs8">
  <style
     id="current-color-scheme"
     type="text/css">
      .ColorScheme-Highlight {
        color:#5beedc;
      }
  </style>
  </defs>
  <path
     class="ColorScheme-Highlight"
     style="fill:#5beedc"
     d="M 24 0 A 24 24 0 0 0 0 24 A 24 24 0 0 0 24 48 A 24 24 0 0 0 48 24 A 24 24 0 0 0 24 0 z M 24 3 A 21 21 0 0 1 45 24 A 21 21 0 0 1 24 45 A 21 21 0 0 1 3 24 A 21 21 0 0 1 24 3 z M 17.5 11 C 16.669 11 16 11.669 16 12.5 C 16 13.331 16.669 14 17.5 14 L 18 14 L 18 19 L 18 21 L 10 35 C 10 36.662 11.338 38 13 38 L 35 38 C 36.662 38 38 36.662 38 35 L 30 21 L 30 17 L 30 14 L 30.5 14 C 31.331 14 32 13.331 32 12.5 C 32 11.669 31.331 11 30.5 11 L 17.5 11 z M 21 14 L 27 14 L 27 21 L 35 35 L 13 35 L 21 21 L 21 14 z "
     transform="scale(0.26458333)"
     id="path829" />
  <path
     style="fill:#aa00d4"
     d="M 20 6 A 0.9999999 0.9999999 0 0 0 19 7 A 0.9999999 0.9999999 0 0 0 20 8 A 0.9999999 0.9999999 0 0 0 21 7 A 0.9999999 0.9999999 0 0 0 20 6 z M 26.5 6 A 1.5 1.5 0 0 0 25 7.5 A 1.5 1.5 0 0 0 26.5 9 A 1.5 1.5 0 0 0 28 7.5 A 1.5 1.5 0 0 0 26.5 6 z M 22 25 L 17 33 L 31 33 L 26 25 L 22 25 z "
     transform="scale(0.26458333)"
     id="path823" />
</svg>
