<?xml version="1.0" encoding="UTF-8" standalone="no"?>
<svg
   xmlns:dc="http://purl.org/dc/elements/1.1/"
   xmlns:cc="http://creativecommons.org/ns#"
   xmlns:rdf="http://www.w3.org/1999/02/22-rdf-syntax-ns#"
   xmlns:svg="http://www.w3.org/2000/svg"
   xmlns="http://www.w3.org/2000/svg"
   xmlns:sodipodi="http://sodipodi.sourceforge.net/DTD/sodipodi-0.dtd"
   xmlns:inkscape="http://www.inkscape.org/namespaces/inkscape"
   width="48"
   height="48"
   viewBox="0 0 12.7 12.7"
   version="1.1"
   id="svg4"
   sodipodi:docname="gimp.svg"
   inkscape:version="0.92.4 (5da689c313, 2019-01-14)">
  <metadata
     id="metadata10">
    <rdf:RDF>
      <cc:Work
         rdf:about="">
        <dc:format>image/svg+xml</dc:format>
        <dc:type
           rdf:resource="http://purl.org/dc/dcmitype/StillImage" />
        <dc:title></dc:title>
      </cc:Work>
    </rdf:RDF>
  </metadata>
  <defs
     id="defs8" />
  <sodipodi:namedview
     pagecolor="#ffffff"
     bordercolor="#666666"
     borderopacity="1"
     objecttolerance="10"
     gridtolerance="10"
     guidetolerance="10"
     inkscape:pageopacity="0"
     inkscape:pageshadow="2"
     inkscape:window-width="1087"
     inkscape:window-height="480"
     id="namedview6"
     showgrid="false"
     inkscape:zoom="4.9166667"
     inkscape:cx="2.1355932"
     inkscape:cy="24"
     inkscape:window-x="0"
     inkscape:window-y="25"
     inkscape:window-maximized="0"
     inkscape:current-layer="svg4" />
  <path
     d="m 6.344,0.073 a 6.29,6.29 0 0 0 -6.29,6.29 6.29,6.29 0 0 0 6.29,6.288 6.29,6.29 0 0 0 6.29,-6.289 6.29,6.29 0 0 0 -6.29,-6.29 z M 6.326,1.009 A 5.407,5.407 0 0 1 11.733,6.416 5.407,5.407 0 0 1 6.326,11.823 5.407,5.407 0 0 1 0.92,6.416 5.407,5.407 0 0 1 6.326,1.01 Z m 3.812,1.953 C 10.069,2.951 10.008,2.99 9.97,3.035 A 0.492,0.492 0 0 0 9.884,3.204 C 9.845,3.324 9.702,3.769 9.185,4.21 8.669,4.65 7.779,5.306 6.235,5.345 5.296,5.357 4.648,4.873 4.275,4.132 4.181,3.947 4.045,3.603 4.045,3.822 v 0.34 L 4.04,5.915 4.061,6.213 C 3.972,6.464 4.175,6.685 3.654,7.076 3.787,7.789 3.311,8.077 3.224,8.083 3.479,8.339 3.814,8.627 4.214,8.861 5.01,9.331 6.031,9.7 7.023,9.717 8.015,9.735 8.985,9.388 9.627,8.427 10.269,7.467 10.582,5.633 10.326,3.245 a 0.49,0.49 0 0 0 -0.05,-0.17 c -0.025,-0.05 -0.068,-0.1 -0.138,-0.11 z M 5.17,5.382 c 0.25,0 0.501,0.08 0.692,0.245 0.05,0.042 0.095,0.09 0.134,0.144 A 0.883,0.883 0 0 1 6.131,5.627 C 6.322,5.462 6.573,5.383 6.823,5.383 c 0.25,0 0.5,0.08 0.692,0.244 A 0.938,0.938 0 0 1 7.833,6.357 0.938,0.938 0 0 1 7.515,7.089 1.062,1.062 0 0 1 6.823,7.333 c -0.25,0 -0.501,-0.08 -0.692,-0.244 A 0.892,0.892 0 0 1 5.996,6.945 0.884,0.884 0 0 1 5.862,7.089 1.062,1.062 0 0 1 5.17,7.333 c -0.25,0 -0.5,-0.08 -0.692,-0.244 A 0.938,0.938 0 0 1 4.16,6.358 C 4.16,6.04 4.287,5.791 4.478,5.627 4.669,5.462 4.92,5.383 5.17,5.383 Z M 2.153,5.6 A 0.86,0.86 0 0 0 1.631,5.76 C 1.201,6.067 1.09,6.763 1.621,7.491 2.151,8.219 2.852,8.331 3.282,8.025 3.712,7.718 3.825,7.023 3.294,6.295 2.946,5.817 2.524,5.604 2.154,5.601 Z M 5.148,5.942 A 0.51,0.51 0 0 0 4.808,6.067 0.49,0.49 0 0 0 4.651,6.439 0.49,0.49 0 0 0 4.808,6.812 0.51,0.51 0 0 0 5.148,6.936 0.51,0.51 0 0 0 5.488,6.812 0.49,0.49 0 0 0 5.645,6.439 0.49,0.49 0 0 0 5.488,6.067 0.51,0.51 0 0 0 5.148,5.942 Z m 1.789,0 A 0.51,0.51 0 0 0 6.597,6.067 0.49,0.49 0 0 0 6.44,6.439 0.49,0.49 0 0 0 6.598,6.812 0.51,0.51 0 0 0 6.937,6.936 0.51,0.51 0 0 0 7.277,6.812 0.49,0.49 0 0 0 7.434,6.439 0.49,0.49 0 0 0 7.277,6.067 0.51,0.51 0 0 0 6.937,5.942 Z m 0.895,1.79 c 0,0 0.331,0.135 0.503,0.355 C 8.506,8.307 8.275,8.443 8.229,8.725 8.129,8.478 8.067,8.385 8.042,8.286 7.86,8.536 7.548,8.716 7.127,8.725 6.68,8.735 6.11,8.561 5.447,8.328 c 0.425,0 0.813,0.02 1.166,0 0.585,-0.036 1.1,-0.1 1.36,-0.3 C 7.863,7.886 7.832,7.732 7.832,7.732 Z"
     id="path2"
     inkscape:connector-curvature="0"
     style="fill:#5beedc" />
</svg>
