<?xml version="1.0" encoding="UTF-8" standalone="no"?>
<svg
   xmlns:dc="http://purl.org/dc/elements/1.1/"
   xmlns:cc="http://creativecommons.org/ns#"
   xmlns:rdf="http://www.w3.org/1999/02/22-rdf-syntax-ns#"
   xmlns:svg="http://www.w3.org/2000/svg"
   xmlns="http://www.w3.org/2000/svg"
   xmlns:sodipodi="http://sodipodi.sourceforge.net/DTD/sodipodi-0.dtd"
   xmlns:inkscape="http://www.inkscape.org/namespaces/inkscape"
   width="48"
   height="48"
   viewBox="0 0 12.7 12.7"
   version="1.1"
   id="svg10"
   sodipodi:docname="gitlab.svg"
   inkscape:version="0.92.4 (5da689c313, 2019-01-14)">
  <metadata
     id="metadata16">
    <rdf:RDF>
      <cc:Work
         rdf:about="">
        <dc:format>image/svg+xml</dc:format>
        <dc:type
           rdf:resource="http://purl.org/dc/dcmitype/StillImage" />
        <dc:title></dc:title>
      </cc:Work>
    </rdf:RDF>
  </metadata>
  <defs
     id="defs14" />
  <sodipodi:namedview
     pagecolor="#ffffff"
     bordercolor="#666666"
     borderopacity="1"
     objecttolerance="10"
     gridtolerance="10"
     guidetolerance="10"
     inkscape:pageopacity="0"
     inkscape:pageshadow="2"
     inkscape:window-width="861"
     inkscape:window-height="480"
     id="namedview12"
     showgrid="false"
     inkscape:zoom="4.9166667"
     inkscape:cx="2.1355932"
     inkscape:cy="24"
     inkscape:window-x="0"
     inkscape:window-y="25"
     inkscape:window-maximized="0"
     inkscape:current-layer="svg10" />
  <path
     d="m 6.344,0.072 a 6.29,6.29 0 0 0 -6.29,6.29 6.29,6.29 0 0 0 6.29,6.289 6.29,6.29 0 0 0 6.29,-6.29 6.29,6.29 0 0 0 -6.29,-6.29 z M 6.326,1.009 A 5.407,5.407 0 0 1 11.733,6.416 5.407,5.407 0 0 1 6.326,11.823 5.407,5.407 0 0 1 0.92,6.416 5.407,5.407 0 0 1 6.326,1.01 Z M 3.533,2.624 A 0.168,0.168 0 0 0 3.37,2.74 L 2.372,5.836 H 4.694 L 3.696,2.74 A 0.168,0.168 0 0 0 3.533,2.624 Z M 4.693,5.836 6.35,10.763 8.006,5.836 H 4.694 Z m 3.313,0 h 2.322 L 9.33,2.74 C 9.279,2.585 9.055,2.585 9.004,2.74 Z"
     id="path2"
     inkscape:connector-curvature="0"
     style="fill:#5beedc" />
  <path
     d="m 2.372,5.837 -0.503,1.44 a 0.334,0.334 0 0 0 0.124,0.377 l 4.357,3.109 z m 3.978,4.926 4.357,-3.11 a 0.334,0.334 0 0 0 0.124,-0.376 l -0.503,-1.44 z"
     id="path4"
     inkscape:connector-curvature="0"
     style="opacity:0.5;fill:#5beedc;fill-rule:evenodd" />
  <path
     d="M 6.35,10.763 1.993,7.653 V 7.654 Z M 10.707,7.654 6.35,10.763 Z"
     id="path6"
     inkscape:connector-curvature="0"
     style="fill:#fc6d26;fill-rule:evenodd" />
  <path
     d="M 2.372,5.837 6.35,10.763 4.694,5.837 Z M 6.35,10.763 10.328,5.837 H 8.006 Z"
     id="path8"
     inkscape:connector-curvature="0"
     style="opacity:0.75;fill:#5beedc;fill-rule:evenodd" />
</svg>
