<?xml version="1.0" encoding="UTF-8" standalone="no"?>
<svg
   xmlns:dc="http://purl.org/dc/elements/1.1/"
   xmlns:cc="http://creativecommons.org/ns#"
   xmlns:rdf="http://www.w3.org/1999/02/22-rdf-syntax-ns#"
   xmlns:svg="http://www.w3.org/2000/svg"
   xmlns="http://www.w3.org/2000/svg"
   xmlns:sodipodi="http://sodipodi.sourceforge.net/DTD/sodipodi-0.dtd"
   xmlns:inkscape="http://www.inkscape.org/namespaces/inkscape"
   width="48"
   height="48"
   version="1.1"
   viewBox="0 0 12.7 12.7"
   id="svg14"
   sodipodi:docname="gitter.svg"
   inkscape:version="0.92.4 (5da689c313, 2019-01-14)">
  <metadata
     id="metadata20">
    <rdf:RDF>
      <cc:Work
         rdf:about="">
        <dc:format>image/svg+xml</dc:format>
        <dc:type
           rdf:resource="http://purl.org/dc/dcmitype/StillImage" />
        <dc:title></dc:title>
      </cc:Work>
    </rdf:RDF>
  </metadata>
  <defs
     id="defs18" />
  <sodipodi:namedview
     pagecolor="#ffffff"
     bordercolor="#666666"
     borderopacity="1"
     objecttolerance="10"
     gridtolerance="10"
     guidetolerance="10"
     inkscape:pageopacity="0"
     inkscape:pageshadow="2"
     inkscape:window-width="1136"
     inkscape:window-height="480"
     id="namedview16"
     showgrid="false"
     inkscape:zoom="4.9166667"
     inkscape:cx="2.1355932"
     inkscape:cy="24"
     inkscape:window-x="0"
     inkscape:window-y="25"
     inkscape:window-maximized="0"
     inkscape:current-layer="svg14" />
  <path
     style="fill:#5beedc;stroke-width:1.04390001"
     d="M 6.3396648,0.07544759 C 2.8712647,0.08119469 0.06109378,2.8914185 0.05529379,6.3598183 c -4.62e-6,3.4725001 2.81187091,6.2889067 6.28437101,6.2947067 3.4764998,0 6.2947062,-2.8182066 6.2947062,-6.2947067 C 12.628612,2.8874185 9.8120646,0.07544759 6.3396648,0.07544759 Z M 6.3293294,1.0149251 c 2.9743,0.00572 5.3856866,2.4125514 5.3970866,5.3867511 0,2.9865002 -2.4209218,5.4074218 -5.407422,5.4074218 -2.9865,0 -5.40742174,-2.4209216 -5.40742174,-5.4074218 0,-2.9864999 2.43125714,-5.3867511 5.41775714,-5.3867511 z M 3.4023763,3.0726806 V 7.6579303 H 4.3847454 V 3.0726806 Z m 1.6376261,1.3099975 v 5.5676188 h 0.982369 V 4.3826781 Z m 1.6376261,0 v 5.5676188 h 0.982369 V 4.3826781 Z m 1.637626,0 V 7.6579303 H 9.2976236 V 4.3826781 Z"
     id="path2"
     inkscape:connector-curvature="0" />
</svg>
