<?xml version="1.0" encoding="UTF-8" standalone="no"?>
<svg
   xmlns:dc="http://purl.org/dc/elements/1.1/"
   xmlns:cc="http://creativecommons.org/ns#"
   xmlns:rdf="http://www.w3.org/1999/02/22-rdf-syntax-ns#"
   xmlns:svg="http://www.w3.org/2000/svg"
   xmlns="http://www.w3.org/2000/svg"
   xmlns:sodipodi="http://sodipodi.sourceforge.net/DTD/sodipodi-0.dtd"
   xmlns:inkscape="http://www.inkscape.org/namespaces/inkscape"
   width="48"
   height="48"
   viewBox="0 0 12.7 12.7"
   version="1.1"
   id="svg4"
   sodipodi:docname="gnome-subtitles.svg"
   inkscape:version="0.92.5 (2060ec1f9f, 2020-04-08)">
  <defs
     id="defs8">
  <style
     id="current-color-scheme"
     type="text/css">
      .ColorScheme-Highlight {
        color:#5beedc;
      }
  </style>
  </defs>
  <path
     class="ColorScheme-Highlight"
     style="fill:#5beedc"
     d="M 24 0 A 24 24 0 0 0 0 24 A 24 24 0 0 0 24 48 A 24 24 0 0 0 48 24 A 24 24 0 0 0 24 0 z M 24 3 A 21 21 0 0 1 45 24 A 21 21 0 0 1 24 45 A 21 21 0 0 1 3 24 A 21 21 0 0 1 24 3 z M 10 12 L 10 32 L 20 32 L 18 39 L 28 32 L 38 32 L 38 12 L 10 12 z M 12 14 L 16 14 L 16 18 L 12 18 L 12 14 z M 32 14 L 36 14 L 36 18 L 32 18 L 32 14 z M 12 20 L 16 20 L 16 24 L 12 24 L 12 20 z M 32 20 L 36 20 L 36 24 L 32 24 L 32 20 z M 12 26 L 16 26 L 16 30 L 12 30 L 12 26 z M 32 26 L 36 26 L 36 30 L 32 30 L 32 26 z "
     transform="scale(0.26458333)"
     id="path817" />
</svg>
