<?xml version="1.0" encoding="UTF-8" standalone="no"?>
<svg
   xmlns:dc="http://purl.org/dc/elements/1.1/"
   xmlns:cc="http://creativecommons.org/ns#"
   xmlns:rdf="http://www.w3.org/1999/02/22-rdf-syntax-ns#"
   xmlns:svg="http://www.w3.org/2000/svg"
   xmlns="http://www.w3.org/2000/svg"
   xmlns:sodipodi="http://sodipodi.sourceforge.net/DTD/sodipodi-0.dtd"
   xmlns:inkscape="http://www.inkscape.org/namespaces/inkscape"
   width="48"
   height="48"
   viewBox="0 0 12.7 12.7"
   version="1.1"
   id="svg4"
   sodipodi:docname="pcbcalculator.svg"
   inkscape:version="0.92.5 (2060ec1f9f, 2020-04-08)">
  <defs
     id="defs8">
  <style
     id="current-color-scheme"
     type="text/css">
      .ColorScheme-Highlight {
        color:#5beedc;
      }
  </style>
  </defs>
  <path
     class="ColorScheme-Highlight"
     style="fill:#5beedc"
     d="M 6.35,0 A 6.3499999,6.3499999 0 0 0 0,6.3499999 6.3499999,6.3499999 0 0 0 6.35,12.7 6.3499999,6.3499999 0 0 0 12.7,6.3499999 6.3499999,6.3499999 0 0 0 6.35,0 Z m 0,0.79374999 A 5.5562499,5.5562499 0 0 1 11.90625,6.3499999 5.5562499,5.5562499 0 0 1 6.35,11.90625 5.5562499,5.5562499 0 0 1 0.79374999,6.3499999 5.5562499,5.5562499 0 0 1 6.35,0.79374999 Z"
     id="path817"
     inkscape:connector-curvature="0" />
  <path
     inkscape:connector-curvature="0"
     style="fill:#008033"
     d="m 3.7041664,2.1166667 c -0.1399159,0 -0.2526977,0.1258022 -0.2526977,0.2821533 v 7.90236 c 0,0.156351 0.1127818,0.282153 0.2526977,0.282153 h 5.3035523 c 0.139917,0 0.2526977,-0.125802 0.2526977,-0.282153 V 2.39882 c 0,-0.1563511 -0.1127807,-0.2821533 -0.2526977,-0.2821533 z m 0.2645833,0.79375 h 4.7625001 v 1.5875 H 3.9687497 Z m 0,2.38125 H 5.0270831 V 6.35 H 3.9687497 Z m 1.8520834,0 H 6.8791664 V 6.35 H 5.8208331 Z m 1.8520833,0 H 8.7312498 V 6.35 H 7.6729164 Z M 3.9687497,7.14375 H 5.0270831 V 8.2020834 H 3.9687497 Z m 1.8520834,0 H 6.8791664 V 8.2020834 H 5.8208331 Z m 1.8520833,0 H 8.7312498 V 8.2020834 H 7.6729164 Z M 3.9687497,8.9958334 H 6.8791664 V 10.054167 H 3.9687497 Z m 3.7041667,0 H 8.7312498 V 10.054167 H 7.6729164 Z"
     id="path833" />
</svg>
