<?xml version="1.0" encoding="UTF-8" standalone="no"?>
<svg
   xmlns:dc="http://purl.org/dc/elements/1.1/"
   xmlns:cc="http://creativecommons.org/ns#"
   xmlns:rdf="http://www.w3.org/1999/02/22-rdf-syntax-ns#"
   xmlns:svg="http://www.w3.org/2000/svg"
   xmlns="http://www.w3.org/2000/svg"
   xmlns:sodipodi="http://sodipodi.sourceforge.net/DTD/sodipodi-0.dtd"
   xmlns:inkscape="http://www.inkscape.org/namespaces/inkscape"
   width="48"
   height="48"
   version="1"
   id="svg4"
   sodipodi:docname="chess.svg"
   inkscape:version="0.92.4 (5da689c313, 2019-01-14)">
  <metadata
     id="metadata10">
    <rdf:RDF>
      <cc:Work
         rdf:about="">
        <dc:format>image/svg+xml</dc:format>
        <dc:type
           rdf:resource="http://purl.org/dc/dcmitype/StillImage" />
        <dc:title></dc:title>
      </cc:Work>
    </rdf:RDF>
  </metadata>
  <defs
     id="defs8" />
  <sodipodi:namedview
     pagecolor="#ffffff"
     bordercolor="#666666"
     borderopacity="1"
     objecttolerance="10"
     gridtolerance="10"
     guidetolerance="10"
     inkscape:pageopacity="0"
     inkscape:pageshadow="2"
     inkscape:window-width="1087"
     inkscape:window-height="480"
     id="namedview6"
     showgrid="false"
     inkscape:zoom="4.9166667"
     inkscape:cx="2.1355932"
     inkscape:cy="24"
     inkscape:window-x="0"
     inkscape:window-y="25"
     inkscape:window-maximized="0"
     inkscape:current-layer="svg4" />
  <path
     d="M 24,0.23 A 23.77,23.77 0 0 0 0.23,24.01 23.77,23.77 0 0 0 24,47.77 23.77,23.77 0 0 0 47.77,24 23.77,23.77 0 0 0 24,0.23 Z M 23.93,3.77 A 20.44,20.44 0 0 1 44.37,24.21 20.44,20.44 0 0 1 23.93,44.64 20.44,20.44 0 0 1 3.5,24.21 20.44,20.44 0 0 1 23.93,3.77 Z M 24,6.34 a 4.315,4.315 0 1 0 0,8.63 4.315,4.315 0 0 0 0,-8.63 z m -3.04,8.87 a 0.77,0.77 0 0 0 -0.76,0.77 v 0.48 c 0,0.42 0.34,0.76 0.76,0.76 h 6.08 c 0.42,0 0.76,-0.34 0.76,-0.76 v -0.48 a 0.77,0.77 0 0 0 -0.76,-0.77 z m -1.18,2.29 c -0.37,0 -0.68,0.3 -0.68,0.67 v 0.66 c 0,0.37 0.3,0.68 0.68,0.68 h 8.44 c 0.37,0 0.68,-0.3 0.68,-0.68 v -0.66 c 0,-0.37 -0.3,-0.67 -0.68,-0.67 z m 1.76,2.45 c 0,0 1.16,6.41 -4.63,12.3 -0.23,0.24 -0.36,0.51 -0.36,0.79 v 1.17 h 14.9 v -1.17 c 0,-0.28 -0.13,-0.55 -0.36,-0.78 -5.8,-5.9 -4.63,-12.3 -4.63,-12.3 h -4.92 z m -6.4,14.62 a 0.5,0.5 0 0 0 -0.5,0.5 v 1.09 c 0,0.28 0.23,0.5 0.5,0.5 h 17.71 a 0.5,0.5 0 0 0 0.5,-0.5 v -1.09 a 0.5,0.5 0 0 0 -0.5,-0.5 h -17.7 z m -1.8,2.63 c -0.38,0 -0.68,0.3 -0.68,0.67 v 0.75 c 0,0.37 0.3,0.67 0.67,0.67 h 21.34 c 0.37,0 0.67,-0.3 0.67,-0.67 v -0.75 c 0,-0.37 -0.3,-0.67 -0.67,-0.67 H 13.33 Z"
     id="path2"
     inkscape:connector-curvature="0"
     style="fill:#5beedc" />
</svg>
