<?xml version="1.0" encoding="UTF-8" standalone="no"?>
<svg
   xmlns:dc="http://purl.org/dc/elements/1.1/"
   xmlns:cc="http://creativecommons.org/ns#"
   xmlns:rdf="http://www.w3.org/1999/02/22-rdf-syntax-ns#"
   xmlns:svg="http://www.w3.org/2000/svg"
   xmlns="http://www.w3.org/2000/svg"
   xmlns:sodipodi="http://sodipodi.sourceforge.net/DTD/sodipodi-0.dtd"
   xmlns:inkscape="http://www.inkscape.org/namespaces/inkscape"
   width="48"
   height="48"
   viewBox="0 0 12.7 12.7"
   version="1.1"
   id="svg4"
   sodipodi:docname="preferences-system.svg"
   inkscape:version="0.92.5 (2060ec1f9f, 2020-04-08)">
  <defs
     id="defs8">
    <style
       id="current-color-scheme"
       type="text/css">
      .ColorScheme-Highlight {
        color:#5beedc;
      }
  </style>
  </defs>
  <path
     class="ColorScheme-Highlight"
     style="fill:#5beedc"
     d="M 24 0 A 24 24 0 0 0 0 24 A 24 24 0 0 0 24 48 A 24 24 0 0 0 48 24 A 24 24 0 0 0 24 0 z M 24 3 A 21 21 0 0 1 45 24 A 21 21 0 0 1 24 45 A 21 21 0 0 1 3 24 A 21 21 0 0 1 24 3 z M 33.09375 9.125 A 5.9999996 5.9999996 0 0 0 28.761719 10.876953 A 5.9999996 5.9999996 0 0 0 27.232422 16.744141 L 25.023438 18.953125 L 25.65625 19.585938 C 26.243856 20.173541 26.705667 20.831221 27.035156 21.517578 C 27.364646 22.203936 27.563048 22.918141 27.626953 23.621094 C 27.669718 24.091511 27.561385 24.533327 27.482422 24.980469 L 27.947266 24.515625 L 31.533203 20.927734 A 5.9999996 5.9999996 0 0 0 37.248047 19.361328 A 5.9999996 5.9999996 0 0 0 38.794922 13.572266 L 35.267578 17.099609 C 34.83667 17.530521 34.275254 17.746094 33.712891 17.746094 C 33.150531 17.746094 32.589115 17.530521 32.158203 17.099609 L 31.025391 15.966797 C 30.59449 15.535886 30.378906 14.974471 30.378906 14.412109 C 30.378906 13.849747 30.594482 13.288333 31.025391 12.857422 L 34.552734 9.328125 A 5.9999996 5.9999996 0 0 0 33.095703 9.125 A 5.9999996 5.9999996 0 0 1 33.09375 9.125 z M 14.099609 12.097656 C 13.332752 12.097656 12.566121 12.39091 11.978516 12.978516 C 10.803304 14.153727 10.803304 16.047445 11.978516 17.222656 L 20.464844 25.707031 C 21.390505 26.632693 22.756517 26.817699 23.871094 26.285156 L 31.777344 34.193359 L 31.777344 35.607422 L 35.314453 37.728516 L 36.728516 36.314453 L 34.607422 32.777344 L 33.193359 32.777344 L 25.285156 24.871094 C 25.817699 23.756517 25.632693 22.390505 24.707031 21.464844 L 16.222656 12.978516 C 15.63505 12.39091 14.866467 12.097656 14.099609 12.097656 z M 17.953125 26.023438 L 12.050781 31.923828 C 10.87557 33.09904 10.87557 34.992759 12.050781 36.167969 C 13.225992 37.343183 15.11971 37.343183 16.294922 36.167969 L 23.734375 28.728516 L 23.980469 28.482422 C 23.533327 28.561385 23.091511 28.669718 22.621094 28.626953 C 21.918141 28.563048 21.203936 28.364646 20.517578 28.035156 C 19.831221 27.705667 19.173541 27.243856 18.585938 26.65625 L 17.953125 26.023438 z M 14.144531 32.046875 A 1.9999999 1.9999999 0 0 1 15.587891 32.630859 A 1.9999999 1.9999999 0 0 1 15.587891 35.460938 A 1.9999999 1.9999999 0 0 1 12.757812 35.460938 A 1.9999999 1.9999999 0 0 1 12.757812 32.630859 A 1.9999999 1.9999999 0 0 1 14.144531 32.046875 z "
     transform="scale(0.26458333)"
     id="path842" />
</svg>
