<?xml version="1.0" encoding="UTF-8" standalone="no"?>
<svg
   xmlns:dc="http://purl.org/dc/elements/1.1/"
   xmlns:cc="http://creativecommons.org/ns#"
   xmlns:rdf="http://www.w3.org/1999/02/22-rdf-syntax-ns#"
   xmlns:svg="http://www.w3.org/2000/svg"
   xmlns="http://www.w3.org/2000/svg"
   xmlns:sodipodi="http://sodipodi.sourceforge.net/DTD/sodipodi-0.dtd"
   xmlns:inkscape="http://www.inkscape.org/namespaces/inkscape"
   width="48"
   height="48"
   viewBox="0 0 12.7 12.7"
   version="1.1"
   id="svg4"
   sodipodi:docname="gnomebaker.svg"
   inkscape:version="0.92.5 (2060ec1f9f, 2020-04-08)">
  <defs
     id="defs8">
  <style
     id="current-color-scheme"
     type="text/css">
      .ColorScheme-Highlight {
        color:#5beedc;
      }
  </style>
  </defs>
  <path
     class="ColorScheme-Highlight"
     style="fill:#5beedc"
     d="M 6.3499999,0 A 6.3499999,6.3499999 0 0 0 3.6666667e-8,6.3499999 6.3499999,6.3499999 0 0 0 6.3499999,12.7 6.3499999,6.3499999 0 0 0 10.837064,10.837064 L 8.406722,8.406722 A 2.9104166,2.9104166 0 0 1 6.3499999,9.2604166 2.9104166,2.9104166 0 0 1 3.4395833,6.3499999 2.9104166,2.9104166 0 0 1 6.3499999,3.4395833 Z m 0,4.4979166 A 1.8520833,1.8520833 0 0 0 4.4979166,6.3499999 1.8520833,1.8520833 0 0 0 6.3499999,8.2020832 1.8520833,1.8520833 0 0 0 7.658964,7.658964 1.8520833,1.8520833 0 0 0 8.2020832,6.3499999 1.8520833,1.8520833 0 0 0 6.3499999,4.4979166 Z m 0,0.79375 A 1.0583332,1.0583332 0 0 1 7.4083332,6.3499999 1.0583332,1.0583332 0 0 1 7.0977579,7.0977579 1.0583332,1.0583332 0 0 1 6.3499999,7.4083332 1.0583332,1.0583332 0 0 1 5.2916666,6.3499999 1.0583332,1.0583332 0 0 1 6.3499999,5.2916666 Z"
     id="path833"
     inkscape:connector-curvature="0" />
  <path
     style="fill:#87de87"
     d="M 24 0 L 24 13 A 11 11 0 0 1 35 24 A 11 11 0 0 1 31.773438 31.773438 L 40.958984 40.958984 A 24 24 0 0 0 48 24 A 24 24 0 0 0 24 0 z "
     id="path835"
     transform="scale(0.26458333)" />
</svg>
