<?xml version="1.0" encoding="UTF-8" standalone="no"?>
<svg
   xmlns:dc="http://purl.org/dc/elements/1.1/"
   xmlns:cc="http://creativecommons.org/ns#"
   xmlns:rdf="http://www.w3.org/1999/02/22-rdf-syntax-ns#"
   xmlns:svg="http://www.w3.org/2000/svg"
   xmlns="http://www.w3.org/2000/svg"
   xmlns:sodipodi="http://sodipodi.sourceforge.net/DTD/sodipodi-0.dtd"
   xmlns:inkscape="http://www.inkscape.org/namespaces/inkscape"
   width="48"
   height="48"
   viewBox="0 0 12.7 12.7"
   version="1.1"
   id="svg12"
   sodipodi:docname="gnome-tetravex.svg"
   inkscape:version="0.92.4 (5da689c313, 2019-01-14)">
  <metadata
     id="metadata18">
    <rdf:RDF>
      <cc:Work
         rdf:about="">
        <dc:format>image/svg+xml</dc:format>
        <dc:type
           rdf:resource="http://purl.org/dc/dcmitype/StillImage" />
        <dc:title></dc:title>
      </cc:Work>
    </rdf:RDF>
  </metadata>
  <defs
     id="defs16" />
  <sodipodi:namedview
     pagecolor="#ffffff"
     bordercolor="#666666"
     borderopacity="1"
     objecttolerance="10"
     gridtolerance="10"
     guidetolerance="10"
     inkscape:pageopacity="0"
     inkscape:pageshadow="2"
     inkscape:window-width="1112"
     inkscape:window-height="480"
     id="namedview14"
     showgrid="false"
     inkscape:zoom="4.9166667"
     inkscape:cx="2.1355932"
     inkscape:cy="24"
     inkscape:window-x="0"
     inkscape:window-y="25"
     inkscape:window-maximized="0"
     inkscape:current-layer="svg12" />
  <path
     d="m 6.34,0.07 a 6.29,6.29 0 1 0 0,12.58 6.29,6.29 0 0 0 0,-12.58 z M 6.32,1 A 5.417,5.417 0 0 1 11.73,6.41 5.4,5.4 0 0 1 6.33,11.82 5.4,5.4 0 0 1 0.92,6.42 5.4,5.4 0 0 1 6.32,1 Z"
     id="path2"
     inkscape:connector-curvature="0"
     style="fill:#5beedc" />
  <path
     d="M 3.24,2.874 A 0.364,0.364 0 0 0 2.98,2.981 L 6.35,6.35 9.72,2.98 A 0.363,0.363 0 0 0 9.46,2.874 Z m 0,0"
     id="path4"
     inkscape:connector-curvature="0"
     style="opacity:0.75;fill:#0066ff" />
  <path
     d="M 6.35,6.35 2.98,9.72 a 0.364,0.364 0 0 0 0.26,0.106 h 6.22 c 0.102,0 0.193,-0.04 0.26,-0.107 z m 0,0"
     id="path6"
     inkscape:connector-curvature="0"
     style="opacity:0.75;fill:#aa0088" />
  <path
     d="M 9.72,2.98 6.35,6.35 9.72,9.72 A 0.362,0.362 0 0 0 9.826,9.46 V 3.24 A 0.363,0.363 0 0 0 9.719,2.98 Z m 0,0"
     id="path8"
     inkscape:connector-curvature="0"
     style="opacity:0.75;fill:#37c837" />
  <path
     d="M 2.98,2.98 A 0.365,0.365 0 0 0 2.874,3.24 v 6.22 c 0,0.102 0.04,0.193 0.107,0.26 l 3.37,-3.37 z m 0,0"
     id="path10"
     inkscape:connector-curvature="0"
     style="opacity:0.75;fill:#ff2a2a" />
</svg>
