<?xml version="1.0" encoding="UTF-8" standalone="no"?>
<svg
   xmlns:dc="http://purl.org/dc/elements/1.1/"
   xmlns:cc="http://creativecommons.org/ns#"
   xmlns:rdf="http://www.w3.org/1999/02/22-rdf-syntax-ns#"
   xmlns:svg="http://www.w3.org/2000/svg"
   xmlns="http://www.w3.org/2000/svg"
   xmlns:sodipodi="http://sodipodi.sourceforge.net/DTD/sodipodi-0.dtd"
   xmlns:inkscape="http://www.inkscape.org/namespaces/inkscape"
   width="48"
   height="48"
   viewBox="0 0 12.7 12.7"
   version="1.1"
   id="svg4"
   sodipodi:docname="preferences-desktop-peripherals.svg"
   inkscape:version="0.92.5 (2060ec1f9f, 2020-04-08)">
  <defs
     id="defs8">
  <style
     id="current-color-scheme"
     type="text/css">
      .ColorScheme-Highlight {
        color:#5beedc;
      }
  </style>
  </defs>
  <path
     class="ColorScheme-Highlight"
     style="fill:#5beedc"
     d="M 24 0 A 24 24 0 0 0 0 24 A 24 24 0 0 0 24 48 A 24 24 0 0 0 48 24 A 24 24 0 0 0 24 0 z M 24 3 A 21 21 0 0 1 26.095703 3.1054688 A 21 21 0 0 1 28.171875 3.4179688 A 21 21 0 0 1 30.205078 3.9375 A 21 21 0 0 1 32.177734 4.6582031 A 21 21 0 0 1 34.068359 5.5703125 A 21 21 0 0 1 35.857422 6.6679688 A 21 21 0 0 1 37.529297 7.9375 A 21 21 0 0 1 39.064453 9.3691406 A 21 21 0 0 1 40.449219 10.945312 A 21 21 0 0 1 41.669922 12.654297 A 21 21 0 0 1 42.714844 14.474609 A 21 21 0 0 1 43.572266 16.390625 A 21 21 0 0 1 44.234375 18.382812 A 21 21 0 0 1 44.695312 20.431641 A 21 21 0 0 1 44.947266 22.513672 A 21 21 0 0 1 45 24 A 21 21 0 0 1 44.894531 26.095703 A 21 21 0 0 1 44.582031 28.171875 A 21 21 0 0 1 44.0625 30.205078 A 21 21 0 0 1 43.341797 32.177734 A 21 21 0 0 1 42.429688 34.068359 A 21 21 0 0 1 41.332031 35.857422 A 21 21 0 0 1 40.0625 37.529297 A 21 21 0 0 1 38.630859 39.064453 A 21 21 0 0 1 37.054688 40.449219 A 21 21 0 0 1 35.345703 41.669922 A 21 21 0 0 1 33.525391 42.714844 A 21 21 0 0 1 31.609375 43.572266 A 21 21 0 0 1 29.617188 44.234375 A 21 21 0 0 1 27.568359 44.695312 A 21 21 0 0 1 25.486328 44.947266 A 21 21 0 0 1 24 45 A 21 21 0 0 1 21.904297 44.894531 A 21 21 0 0 1 19.828125 44.582031 A 21 21 0 0 1 17.794922 44.0625 A 21 21 0 0 1 15.822266 43.341797 A 21 21 0 0 1 13.931641 42.429688 A 21 21 0 0 1 12.142578 41.332031 A 21 21 0 0 1 10.470703 40.0625 A 21 21 0 0 1 8.9355469 38.630859 A 21 21 0 0 1 7.5507812 37.054688 A 21 21 0 0 1 6.3300781 35.345703 A 21 21 0 0 1 5.2851562 33.525391 A 21 21 0 0 1 4.4277344 31.609375 A 21 21 0 0 1 3.765625 29.617188 A 21 21 0 0 1 3.3046875 27.568359 A 21 21 0 0 1 3.0527344 25.486328 A 21 21 0 0 1 3 24 A 21 21 0 0 1 3.1054688 21.904297 A 21 21 0 0 1 3.4179688 19.828125 A 21 21 0 0 1 3.9375 17.794922 A 21 21 0 0 1 4.6582031 15.822266 A 21 21 0 0 1 5.5703125 13.931641 A 21 21 0 0 1 6.6679688 12.142578 A 21 21 0 0 1 7.9375 10.470703 A 21 21 0 0 1 9.3691406 8.9355469 A 21 21 0 0 1 10.945312 7.5507812 A 21 21 0 0 1 12.654297 6.3300781 A 21 21 0 0 1 14.474609 5.2851562 A 21 21 0 0 1 16.390625 4.4277344 A 21 21 0 0 1 18.382812 3.765625 A 21 21 0 0 1 20.431641 3.3046875 A 21 21 0 0 1 22.513672 3.0527344 A 21 21 0 0 1 24 3 z M 12 12 C 10.338 12 9 13.338 9 15 L 9 33 C 9 34.662 10.338 36 12 36 L 23 36 L 25.501953 36 C 26.867836 37.820813 29.038534 39 31.5 39 C 35.655001 39 39 35.655001 39 31.5 L 39 28 L 30 28 L 24 28 L 24 31.5 C 24 32.379183 24.158078 33.217365 24.433594 34 L 12 34 C 11.722998 34 11.473718 33.887783 11.292969 33.707031 C 11.11222 33.526283 11 33.277 11 33 L 11 15 C 11 14.722998 11.112217 14.473719 11.292969 14.292969 C 11.473717 14.112217 11.723 14 12 14 L 34 14 C 34.277002 14 34.526282 14.112217 34.707031 14.292969 C 34.88778 14.473717 35 14.723 35 15 L 35 17.017578 C 34.377962 16.6958 33.708133 16.44878 33 16.300781 L 33 25 L 38.724609 25 L 39 25 L 39 23.5 C 39 21.540688 38.236107 19.807084 37 18.511719 L 37 15 C 37 13.338 35.662 12 34 12 L 12 12 z M 30 16.300781 C 26.595304 17.012357 24 19.877849 24 23.5 L 24 25 L 24.275391 25 L 30 25 L 30 17 L 30 16.300781 z "
     transform="scale(0.26458333)"
     id="path816" />
</svg>
