<?xml version="1.0" encoding="UTF-8" standalone="no"?>
<svg
   xmlns:dc="http://purl.org/dc/elements/1.1/"
   xmlns:cc="http://creativecommons.org/ns#"
   xmlns:rdf="http://www.w3.org/1999/02/22-rdf-syntax-ns#"
   xmlns:svg="http://www.w3.org/2000/svg"
   xmlns="http://www.w3.org/2000/svg"
   xmlns:sodipodi="http://sodipodi.sourceforge.net/DTD/sodipodi-0.dtd"
   xmlns:inkscape="http://www.inkscape.org/namespaces/inkscape"
   width="48"
   height="48"
   viewBox="0 0 12.7 12.7"
   version="1.1"
   id="svg4"
   sodipodi:docname="kubrick.svg"
   inkscape:version="0.92.4 (5da689c313, 2019-01-14)">
  <metadata
     id="metadata10">
    <rdf:RDF>
      <cc:Work
         rdf:about="">
        <dc:format>image/svg+xml</dc:format>
        <dc:type
           rdf:resource="http://purl.org/dc/dcmitype/StillImage" />
        <dc:title></dc:title>
      </cc:Work>
    </rdf:RDF>
  </metadata>
  <defs
     id="defs8" />
  <sodipodi:namedview
     pagecolor="#ffffff"
     bordercolor="#666666"
     borderopacity="1"
     objecttolerance="10"
     gridtolerance="10"
     guidetolerance="10"
     inkscape:pageopacity="0"
     inkscape:pageshadow="2"
     inkscape:window-width="862"
     inkscape:window-height="480"
     id="namedview6"
     showgrid="false"
     inkscape:zoom="4.9166667"
     inkscape:cx="2.1355932"
     inkscape:cy="24"
     inkscape:window-x="0"
     inkscape:window-y="25"
     inkscape:window-maximized="0"
     inkscape:current-layer="svg4" />
  <path
     d="m 6.34,0.07 a 6.29,6.29 0 1 0 0,12.58 6.29,6.29 0 0 0 0,-12.58 z M 6.32,1 A 5.417,5.417 0 0 1 11.73,6.41 5.4,5.4 0 0 1 6.33,11.82 5.4,5.4 0 0 1 0.92,6.42 5.4,5.4 0 0 1 6.32,1 Z M 6.35,2.646 A 0.155,0.155 0 0 0 6.284,2.661 L 3.029,4.21 A 0.155,0.155 0 0 0 2.955,4.343 v 3.704 c 0,0.055 0.03,0.107 0.077,0.134 l 3.24,1.851 h 10e-4 a 0.154,0.154 0 0 0 0.154,10e-4 L 9.667,8.181 A 0.155,0.155 0 0 0 9.746,8.047 V 4.344 A 0.155,0.155 0 0 0 9.671,4.212 L 6.417,2.66 A 0.157,0.157 0 0 0 6.35,2.645 Z M 4.768,3.725 5.991,4.307 4.619,4.96 3.455,4.35 Z m 3.164,0 L 9.246,4.35 8.081,4.96 6.709,4.307 Z M 9.437,4.599 V 6.102 L 8.202,6.749 V 5.246 Z M 4.807,5.407 6.196,6.135 V 7.638 L 4.806,6.911 V 5.407 Z M 3.263,6.451 4.498,7.098 V 8.664 L 3.263,7.958 Z M 7.893,7.26 V 8.84 L 6.505,9.634 V 7.987 L 7.894,7.26 Z"
     id="path2"
     inkscape:connector-curvature="0"
     style="fill:#5beedc" />
</svg>
