<?xml version="1.0" encoding="UTF-8" standalone="no"?>
<svg
   xmlns:dc="http://purl.org/dc/elements/1.1/"
   xmlns:cc="http://creativecommons.org/ns#"
   xmlns:rdf="http://www.w3.org/1999/02/22-rdf-syntax-ns#"
   xmlns:svg="http://www.w3.org/2000/svg"
   xmlns="http://www.w3.org/2000/svg"
   xmlns:sodipodi="http://sodipodi.sourceforge.net/DTD/sodipodi-0.dtd"
   xmlns:inkscape="http://www.inkscape.org/namespaces/inkscape"
   width="48"
   height="48"
   viewBox="0 0 12.7 12.7"
   version="1.1"
   id="svg4"
   sodipodi:docname="goland.svg"
   inkscape:version="0.92.5 (2060ec1f9f, 2020-04-08)">
  <defs
     id="defs8">
  <style
     id="current-color-scheme"
     type="text/css">
      .ColorScheme-Highlight {
        color:#5beedc;
      }
  </style>
  </defs>
  <path
     class="ColorScheme-Highlight"
     style="fill:#5beedc"
     d="M 24 0 A 24 24 0 0 0 0 24 A 24 24 0 0 0 24 48 A 24 24 0 0 0 48 24 A 24 24 0 0 0 24 0 z M 24 3 A 21 21 0 0 1 45 24 A 21 21 0 0 1 24 45 A 21 21 0 0 1 3 24 A 21 21 0 0 1 24 3 z M 24 7 A 17.000006 17.000006 0 0 0 7 24 A 17.000006 17.000006 0 0 0 24 41 A 17.000006 17.000006 0 0 0 41 24 A 17.000006 17.000006 0 0 0 24 7 z M 20 19 A 4.9999994 4.9999994 0 0 1 23.533203 20.466797 L 22.119141 21.880859 A 3 3 0 0 0 20 21 A 3 3 0 0 0 17 24 A 3 3 0 0 0 20 27 A 3 3 0 0 0 22 26.230469 L 22 25.279297 L 22 25 L 20 25 L 20 23 L 24 23 L 24 23.279297 L 24 24 L 24 25 L 24 25.279297 L 24 26.990234 L 24 27 L 23.992188 27 A 4.9999994 4.9999994 0 0 1 20 29 A 4.9999994 4.9999994 0 0 1 15 24 A 4.9999994 4.9999994 0 0 1 20 19 z M 29 19 C 31.216 19 33 20.784 33 23 L 33 25 C 33 27.216 31.216 29 29 29 C 26.784 29 25 27.216 25 25 L 25 23 C 25 20.784 26.784 19 29 19 z M 29 21 C 27.892 21 27 21.892 27 23 L 27 25 C 27 26.108 27.892 27 29 27 C 30.108 27 31 26.108 31 25 L 31 23 C 31 21.892 30.108 21 29 21 z M 17 32 L 31 32 L 31 34 L 17 34 L 17 32 z "
     transform="scale(0.26458333)"
     id="path829" />
</svg>
