<?xml version="1.0" encoding="UTF-8" standalone="no"?>
<svg
   xmlns:dc="http://purl.org/dc/elements/1.1/"
   xmlns:cc="http://creativecommons.org/ns#"
   xmlns:rdf="http://www.w3.org/1999/02/22-rdf-syntax-ns#"
   xmlns:svg="http://www.w3.org/2000/svg"
   xmlns="http://www.w3.org/2000/svg"
   xmlns:sodipodi="http://sodipodi.sourceforge.net/DTD/sodipodi-0.dtd"
   xmlns:inkscape="http://www.inkscape.org/namespaces/inkscape"
   width="48"
   height="48"
   viewBox="0 0 12.7 12.7"
   version="1.1"
   id="svg4"
   sodipodi:docname="golismero.svg"
   inkscape:version="0.92.5 (2060ec1f9f, 2020-04-08)">
  <metadata
     id="metadata10">
    <rdf:RDF>
      <cc:Work
         rdf:about="">
        <dc:format>image/svg+xml</dc:format>
        <dc:type
           rdf:resource="http://purl.org/dc/dcmitype/StillImage" />
        <dc:title></dc:title>
      </cc:Work>
    </rdf:RDF>
  </metadata>
  <defs
     id="defs8" />
  <sodipodi:namedview
     pagecolor="#ffffff"
     bordercolor="#666666"
     borderopacity="1"
     objecttolerance="10"
     gridtolerance="10"
     guidetolerance="10"
     inkscape:pageopacity="0"
     inkscape:pageshadow="2"
     inkscape:window-width="1085"
     inkscape:window-height="480"
     id="namedview6"
     showgrid="false"
     inkscape:zoom="4.9166667"
     inkscape:cx="2.1355932"
     inkscape:cy="24"
     inkscape:window-x="0"
     inkscape:window-y="25"
     inkscape:window-maximized="0"
     inkscape:current-layer="svg4" />
  <path
     d="M 6.34,0.075 A 6.295,6.295 0 0 0 0.055,6.36 6.295,6.295 0 0 0 6.34,12.655 6.295,6.295 0 0 0 12.634,6.36 6.295,6.295 0 0 0 6.34,0.075 Z m -0.011,0.94 a 5.408,5.408 0 0 1 5.397,5.387 5.407,5.407 0 0 1 -10.814,0 c 0,-2.987 2.43,-5.387 5.417,-5.387 z m 4.264,2.496 c -0.016,0 -0.052,0.02 -0.11,0.063 A 4.571,4.571 0 0 1 8.74,4.396 C 7.973,4.568 7.281,4.557 5.827,4.354 4.473,4.164 3.872,4.182 3.309,4.426 2.59,4.737 2.035,5.491 1.662,6.664 1.593,6.882 1.595,6.871 1.632,6.87 1.648,6.87 1.696,6.78 1.74,6.671 1.84,6.421 2.092,6.093 2.294,5.95 2.488,5.812 2.75,5.701 3.064,5.624 3.31,5.564 3.381,5.562 5.194,5.561 c 1.666,0 1.911,-0.007 2.187,-0.053 1.335,-0.226 2.24,-0.73 3.01,-1.68 0.167,-0.206 0.235,-0.314 0.202,-0.317 z M 9.72,5.395 A 1.7,1.7 0 0 0 9.373,5.51 7.213,7.213 0 0 1 8.703,5.738 C 8.519,5.788 8.359,5.839 8.348,5.85 8.338,5.86 8.353,5.953 8.383,6.054 8.453,6.296 8.478,6.814 8.433,7.093 8.291,7.973 7.702,8.696 6.85,9.035 6.094,9.335 5.03,9.362 3.868,9.11 3.632,9.058 3.557,9.062 3.656,9.12 3.82,9.215 4.25,9.395 4.552,9.496 5.332,9.755 6.046,9.824 6.756,9.707 A 3.406,3.406 0 0 0 8.595,8.773 C 9.261,8.128 9.649,7.285 9.758,6.239 9.789,5.941 9.773,5.439 9.731,5.397 9.731,5.396 9.727,5.395 9.721,5.395 Z M 5.921,5.928 A 0.843,0.843 0 0 0 5.391,6.115 C 5.361,6.109 5.047,6.096 4.673,6.085 L 3.968,6.067 3.931,6.154 C 3.868,6.304 3.829,6.633 3.845,6.862 3.909,7.772 4.538,8.524 5.417,8.742 5.691,8.809 6.115,8.809 6.402,8.741 6.992,8.6 7.488,8.2 7.762,7.641 7.907,7.347 7.955,7.165 7.974,6.837 7.988,6.577 7.943,6.241 7.872,6.086 7.853,6.044 7.832,6.025 7.757,6.023 A 2.382,2.382 0 0 0 7.463,6.05 C 7.342,6.066 7.063,6.086 6.842,6.095 L 6.446,6.113 A 0.843,0.843 0 0 0 5.921,5.928 Z M 6.605,6.231 A 0.27,0.27 0 0 1 6.796,6.305 C 6.814,6.321 6.829,6.335 6.84,6.348 A 0.156,0.156 0 0 1 6.879,6.453 C 6.947,6.448 7.032,6.443 7.07,6.438 7.184,6.425 7.254,6.418 7.3,6.418 7.358,6.42 7.375,6.434 7.39,6.465 7.445,6.579 7.48,6.827 7.468,7.019 A 1.263,1.263 0 0 1 7.304,7.611 1.58,1.58 0 0 1 6.244,8.423 c -0.223,0.05 -0.553,0.05 -0.766,0 C 4.794,8.263 4.304,7.708 4.254,7.037 A 1.36,1.36 0 0 1 4.321,6.516 L 4.349,6.451 4.899,6.465 5.134,6.472 A 0.843,0.843 0 0 0 5.078,6.772 0.843,0.843 0 0 0 5.921,7.614 0.843,0.843 0 0 0 6.764,6.771 0.843,0.843 0 0 0 6.762,6.733 0.18,0.18 0 0 1 6.676,6.77 0.417,0.417 0 0 1 6.546,6.765 0.295,0.295 0 0 1 6.43,6.71 0.257,0.257 0 0 1 6.356,6.614 0.252,0.252 0 0 1 6.336,6.49 0.301,0.301 0 0 1 6.451,6.281 0.268,0.268 0 0 1 6.605,6.231 Z"
     id="path2"
     inkscape:connector-curvature="0"
     style="fill:#5beedc" />
</svg>
