<?xml version="1.0" encoding="UTF-8" standalone="no"?>
<svg
   xmlns:dc="http://purl.org/dc/elements/1.1/"
   xmlns:cc="http://creativecommons.org/ns#"
   xmlns:rdf="http://www.w3.org/1999/02/22-rdf-syntax-ns#"
   xmlns:svg="http://www.w3.org/2000/svg"
   xmlns="http://www.w3.org/2000/svg"
   xmlns:sodipodi="http://sodipodi.sourceforge.net/DTD/sodipodi-0.dtd"
   xmlns:inkscape="http://www.inkscape.org/namespaces/inkscape"
   width="48"
   height="48"
   version="1.1"
   viewBox="0 0 12.7 12.7"
   id="svg4"
   sodipodi:docname="google-earth.svg"
   inkscape:version="0.92.4 (5da689c313, 2019-01-14)">
  <metadata
     id="metadata10">
    <rdf:RDF>
      <cc:Work
         rdf:about="">
        <dc:format>image/svg+xml</dc:format>
        <dc:type
           rdf:resource="http://purl.org/dc/dcmitype/StillImage" />
        <dc:title></dc:title>
      </cc:Work>
    </rdf:RDF>
  </metadata>
  <defs
     id="defs8" />
  <sodipodi:namedview
     pagecolor="#ffffff"
     bordercolor="#666666"
     borderopacity="1"
     objecttolerance="10"
     gridtolerance="10"
     guidetolerance="10"
     inkscape:pageopacity="0"
     inkscape:pageshadow="2"
     inkscape:window-width="1136"
     inkscape:window-height="480"
     id="namedview6"
     showgrid="false"
     inkscape:zoom="4.9166667"
     inkscape:cx="2.1355932"
     inkscape:cy="24"
     inkscape:window-x="0"
     inkscape:window-y="25"
     inkscape:window-maximized="0"
     inkscape:current-layer="svg4" />
  <path
     d="M 6.392782,0.01912014 C 5.3975643,0.01798991 4.403696,0.24641817 3.5294972,0.6945135 1.8832276,1.538312 0.8215209,2.8250969 0.24394276,4.669828 0.11410013,5.0841074 0.02121138,5.2959037 0.01915295,6.1596515 c -7.98e-4,0.4874887 0.0499104,0.8425815 0.10283431,1.1146491 0.29823457,2.0481932 1.58306154,3.7752924 3.35699104,4.6865054 0.6417388,0.342578 1.3321339,0.571281 2.0520561,0.666107 1.9467002,0.256298 3.8985863,-0.412242 5.2855146,-1.809675 1.928656,-1.943763 2.41334,-4.8703882 1.208178,-7.2949993 C 11.302107,2.0683716 9.9198874,0.85685979 8.3997165,0.34410375 7.7555172,0.12693913 7.0740649,0.01946409 6.3931418,0.01906722 Z M 6.329222,1.0149199 c 0.5136292,9.878e-4 1.0099019,0.075051 1.4805103,0.209804 0.2308064,0.130258 0.4492304,0.2777296 0.651105,0.4459496 0.5158251,0.4298102 0.8769504,0.8382952 1.4681015,1.6587843 0.8628752,1.1979653 1.2705132,1.6467988 1.6293372,1.7523133 0.107718,0.4222697 0.166201,0.86433 0.167944,1.3198044 0,0.2075313 -0.0129,0.4119511 -0.03565,0.6134023 C 11.394262,6.8856829 11.032396,6.7073771 10.784167,6.5571221 9.9615349,6.0591561 8.9257836,5.2153576 7.465011,3.8528499 6.0279976,2.5125406 5.5975789,2.1669462 5.0445273,1.9103565 4.6822114,1.7421789 4.2511842,1.654415 3.7918997,1.6421518 4.5495246,1.242636 5.4128227,1.0148061 6.329169,1.0148061 Z M 2.5036597,4.267931 C 2.7465547,4.269151 3.0337193,4.317206 3.275175,4.3712812 3.939456,4.5198746 4.4129484,5.0051884 6.1334327,6.2315961 8.0811384,7.6200855 8.4272355,7.6190272 9.7544746,8.1498011 10.123961,8.297569 10.848302,8.2873801 11.390003,8.2640044 11.15223,8.910929 10.795571,9.4985612 10.344594,10.002374 9.6350961,10.096845 9.1771611,9.9308187 8.3690279,9.9062578 6.7091324,9.8557415 5.3451431,9.5054191 3.1105004,8.5549419 2.5252759,8.3059906 2.1326921,8.2117816 1.8480569,8.21284 1.6000449,8.2136226 1.4365027,8.289801 1.2961695,8.3962891 1.0505652,7.7785213 0.91170829,7.106885 0.91170829,6.4015941 c 0,-0.6288538 0.11300471,-1.2291064 0.31109311,-1.7890106 0.351574,-0.227269 0.7027775,-0.2679402 1.0562564,-0.3286613 0.067775,-0.011614 0.1438256,-0.016426 0.2247898,-0.01602 z m 1.7032338,6.598361 c 0.1748265,-1.93e-4 0.4299425,0.04947 0.8516301,0.149342 0.3550663,0.08384 0.8776647,0.189249 1.1616649,0.23409 0.5204289,0.08233 1.6404754,0.105593 2.3517723,0.06304 -0.6865851,0.315564 -1.4479405,0.496087 -2.2530575,0.496087 -0.9371688,0 -1.8184319,-0.238881 -2.586878,-0.658354 0.020853,-0.03979 0.051059,-0.07873 0.1054192,-0.133325 0.099874,-0.100299 0.1946542,-0.150699 0.369486,-0.150892 z"
     id="path2"
     inkscape:connector-curvature="0"
     style="fill:#5beedc;stroke-width:1.04387391" />
</svg>
