<?xml version="1.0" encoding="UTF-8" standalone="no"?>
<svg
   xmlns:dc="http://purl.org/dc/elements/1.1/"
   xmlns:cc="http://creativecommons.org/ns#"
   xmlns:rdf="http://www.w3.org/1999/02/22-rdf-syntax-ns#"
   xmlns:svg="http://www.w3.org/2000/svg"
   xmlns="http://www.w3.org/2000/svg"
   xmlns:sodipodi="http://sodipodi.sourceforge.net/DTD/sodipodi-0.dtd"
   xmlns:inkscape="http://www.inkscape.org/namespaces/inkscape"
   width="48"
   height="48"
   viewBox="0 0 12.7 12.7"
   version="1.1"
   id="svg4"
   sodipodi:docname="system-help.svg"
   inkscape:version="0.92.5 (2060ec1f9f, 2020-04-08)">
  <defs
     id="defs8">
  <style
     id="current-color-scheme"
     type="text/css">
      .ColorScheme-Highlight {
        color:#5beedc;
      }
  </style>
  </defs>
  <path
     class="ColorScheme-Highlight"
     style="fill:#5beedc"
     d="M 24 0 A 24 24 0 0 0 0 24 A 24 24 0 0 0 24 48 A 24 24 0 0 0 48 24 A 24 24 0 0 0 24 0 z M 24 3 A 21 21 0 0 1 45 24 A 21 21 0 0 1 24 45 A 21 21 0 0 1 3 24 A 21 21 0 0 1 24 3 z M 24 9 A 8.9999992 8.9999992 0 0 0 15 18 L 19 18 A 4.9999997 4.9999997 0 0 1 24 13 A 4.9999997 4.9999997 0 0 1 29 18 A 4.9999997 4.9999997 0 0 1 24 23 C 22.892 23 22 23.892 22 25 L 22 30 C 22 31.108 22.892 32 24 32 C 25.108 32 26 31.108 26 30 L 26 26.765625 A 8.9999992 8.9999992 0 0 0 33 18 A 8.9999992 8.9999992 0 0 0 24 9 z M 24 34 A 3 3 0 0 0 21 37 A 3 3 0 0 0 24 40 A 3 3 0 0 0 27 37 A 3 3 0 0 0 24 34 z "
     transform="scale(0.26458333)"
     id="path817" />
</svg>
