<?xml version="1.0" encoding="UTF-8" standalone="no"?>
<svg
   xmlns:dc="http://purl.org/dc/elements/1.1/"
   xmlns:cc="http://creativecommons.org/ns#"
   xmlns:rdf="http://www.w3.org/1999/02/22-rdf-syntax-ns#"
   xmlns:svg="http://www.w3.org/2000/svg"
   xmlns="http://www.w3.org/2000/svg"
   xmlns:sodipodi="http://sodipodi.sourceforge.net/DTD/sodipodi-0.dtd"
   xmlns:inkscape="http://www.inkscape.org/namespaces/inkscape"
   width="48"
   height="48"
   viewBox="0 0 12.7 12.7"
   version="1.1"
   id="svg4"
   sodipodi:docname="rambox.svg"
   inkscape:version="0.92.5 (2060ec1f9f, 2020-04-08)">
  <metadata
     id="metadata10">
    <rdf:RDF>
      <cc:Work
         rdf:about="">
        <dc:format>image/svg+xml</dc:format>
        <dc:type
           rdf:resource="http://purl.org/dc/dcmitype/StillImage" />
        <dc:title></dc:title>
      </cc:Work>
    </rdf:RDF>
  </metadata>
  <defs
     id="defs8" />
  <sodipodi:namedview
     pagecolor="#ffffff"
     bordercolor="#666666"
     borderopacity="1"
     objecttolerance="10"
     gridtolerance="10"
     guidetolerance="10"
     inkscape:pageopacity="0"
     inkscape:pageshadow="2"
     inkscape:window-width="1085"
     inkscape:window-height="480"
     id="namedview6"
     showgrid="false"
     inkscape:zoom="4.9166667"
     inkscape:cx="2.1355932"
     inkscape:cy="24"
     inkscape:window-x="0"
     inkscape:window-y="25"
     inkscape:window-maximized="0"
     inkscape:current-layer="svg4" />
  <path
     d="M 6.34,0.075 A 6.295,6.295 0 0 0 0.055,6.36 6.295,6.295 0 0 0 6.34,12.655 6.295,6.295 0 0 0 12.634,6.36 6.295,6.295 0 0 0 6.34,0.075 Z m -0.011,0.94 a 5.408,5.408 0 0 1 5.397,5.387 5.407,5.407 0 0 1 -4.846,5.372 2.817,2.817 0 0 0 0.105,-1.48 C 6.916,10.021 6.738,9.533 6.749,9.514 c 0.012,-0.02 0.303,0.01 0.55,0.01 0.293,0 0.507,0.01 0.662,-0.036 0.13,-0.04 0.287,-0.104 0.38,-0.1 C 8.754,9.409 9.276,9.221 9.414,8.853 9.457,8.738 9.638,8.591 9.685,8.525 9.763,8.418 9.803,8.33 9.753,8.161 9.683,7.922 9.395,7.781 9.091,7.503 8.861,7.293 8.745,7.27 8.734,7.045 8.725,6.879 8.769,6.763 8.68,6.678 8.578,6.582 8.32,6.644 8.303,6.642 8.196,6.517 8.095,6.387 8.291,6.207 8.441,6.071 8.527,6.01 8.527,5.861 8.527,5.715 8.44,5.672 8.311,5.559 8.226,5.484 8.135,5.423 8.108,5.423 8.081,5.423 7.944,5.313 7.804,5.18 7.533,4.921 7.341,4.958 7.13,4.958 6.96,4.958 6.874,4.792 6.874,4.544 7.101,3.719 7.773,3.078 8.114,2.888 7.25,2.765 6.62,3.195 6.047,3.716 6.02,3.413 6.428,2.67 6.461,2.474 5.848,2.796 5.498,3.584 5.221,4.13 5.045,3.892 5.083,3.391 5.015,3.095 4.473,3.809 4.235,5.037 4.017,5.752 3.708,6.767 3.315,7.39 2.754,7.752 2.42,7.968 2.122,8.079 1.475,8.225 1.392,8.25 1.328,8.263 1.252,8.281 A 5.407,5.407 0 0 1 0.912,6.402 c 0,-2.987 2.43,-5.387 5.417,-5.387 z"
     id="path2"
     inkscape:connector-curvature="0"
     style="fill:#5beedc" />
</svg>
