<?xml version="1.0" encoding="UTF-8" standalone="no"?>
<svg
   xmlns:dc="http://purl.org/dc/elements/1.1/"
   xmlns:cc="http://creativecommons.org/ns#"
   xmlns:rdf="http://www.w3.org/1999/02/22-rdf-syntax-ns#"
   xmlns:svg="http://www.w3.org/2000/svg"
   xmlns="http://www.w3.org/2000/svg"
   xmlns:sodipodi="http://sodipodi.sourceforge.net/DTD/sodipodi-0.dtd"
   xmlns:inkscape="http://www.inkscape.org/namespaces/inkscape"
   width="48"
   height="48"
   viewBox="0 0 12.7 12.7"
   version="1.1"
   id="svg4"
   sodipodi:docname="hashcat.svg"
   inkscape:version="0.92.5 (2060ec1f9f, 2020-04-08)">
  <metadata
     id="metadata10">
    <rdf:RDF>
      <cc:Work
         rdf:about="">
        <dc:format>image/svg+xml</dc:format>
        <dc:type
           rdf:resource="http://purl.org/dc/dcmitype/StillImage" />
        <dc:title></dc:title>
      </cc:Work>
    </rdf:RDF>
  </metadata>
  <defs
     id="defs8" />
  <sodipodi:namedview
     pagecolor="#ffffff"
     bordercolor="#666666"
     borderopacity="1"
     objecttolerance="10"
     gridtolerance="10"
     guidetolerance="10"
     inkscape:pageopacity="0"
     inkscape:pageshadow="2"
     inkscape:window-width="1085"
     inkscape:window-height="480"
     id="namedview6"
     showgrid="false"
     inkscape:zoom="4.9166667"
     inkscape:cx="2.1355932"
     inkscape:cy="24"
     inkscape:window-x="0"
     inkscape:window-y="25"
     inkscape:window-maximized="0"
     inkscape:current-layer="svg4" />
  <path
     d="M 6.34,0.075 A 6.295,6.295 0 0 0 0.055,6.36 6.295,6.295 0 0 0 6.34,12.655 6.295,6.295 0 0 0 12.634,6.36 6.295,6.295 0 0 0 6.34,0.075 Z m -0.011,0.94 a 5.408,5.408 0 0 1 5.397,5.387 5.407,5.407 0 0 1 -3.395,5.016 C 8.322,11.105 8.232,10.841 7.952,10.408 8.155,10.08 8.189,9.61 7.951,8.987 7.836,8.687 7.807,8.48 7.821,8.349 A 0.33,0.33 0 0 1 7.946,8.097 C 8.092,7.972 8.415,7.907 8.716,7.727 A 0.201,0.201 0 0 0 8.618,7.351 0.201,0.201 0 0 0 8.509,7.381 C 8.302,7.505 7.958,7.557 7.684,7.791 a 0.78,0.78 0 0 0 -0.265,0.52 c -0.022,0.223 0.028,0.484 0.156,0.82 0.163,0.427 0.18,0.7 0.118,0.897 L 7.628,9.938 C 7.198,9.344 6.898,8.1 6.795,6.482 L 6.763,5.981 6.895,5.947 C 7.053,5.907 7.365,5.697 7.541,5.511 7.737,5.304 7.911,4.875 7.951,4.505 7.994,4.102 8.095,3.959 8.655,3.509 8.865,3.34 9.04,3.175 9.041,3.143 9.046,3.064 9.035,3.066 8.669,3.198 8.071,3.413 7.994,3.41 7.125,3.128 6.731,2.981 6.545,2.913 6.375,2.91 6.183,2.907 6.01,2.987 5.575,3.128 4.706,3.41 4.629,3.413 4.031,3.198 3.665,3.066 3.655,3.064 3.659,3.143 3.66,3.175 3.834,3.34 4.045,3.509 c 0.56,0.45 0.662,0.593 0.705,0.996 0.04,0.37 0.214,0.799 0.41,1.006 0.175,0.185 0.487,0.397 0.645,0.436 l 0.132,0.034 -0.032,0.5 C 5.802,8.101 5.502,9.343 5.072,9.938 4.525,10.692 4.373,11.016 4.366,11.437 A 5.407,5.407 0 0 1 0.912,6.402 c 0,-2.987 2.43,-5.387 5.417,-5.387 z M 5.303,4.929 c 0.015,0.002 0.037,0.02 0.067,0.06 0.032,0.043 0.186,0.128 0.342,0.188 0.211,0.082 0.283,0.133 0.283,0.201 0,0.132 -0.242,0.143 -0.44,0.021 A 0.672,0.672 0 0 1 5.328,5.133 C 5.275,5.006 5.27,4.926 5.303,4.929 Z m 2.101,0.012 c 0.031,0 0.02,0.065 -0.032,0.192 C 7.256,5.41 6.773,5.62 6.699,5.426 6.658,5.318 6.711,5.271 6.971,5.185 7.103,5.141 7.254,5.063 7.305,5.012 7.352,4.964 7.385,4.941 7.405,4.941 Z"
     id="path2"
     inkscape:connector-curvature="0"
     style="fill:#5beedc" />
</svg>
