<?xml version="1.0" encoding="UTF-8" standalone="no"?>
<svg
   xmlns:dc="http://purl.org/dc/elements/1.1/"
   xmlns:cc="http://creativecommons.org/ns#"
   xmlns:rdf="http://www.w3.org/1999/02/22-rdf-syntax-ns#"
   xmlns:svg="http://www.w3.org/2000/svg"
   xmlns="http://www.w3.org/2000/svg"
   xmlns:sodipodi="http://sodipodi.sourceforge.net/DTD/sodipodi-0.dtd"
   xmlns:inkscape="http://www.inkscape.org/namespaces/inkscape"
   width="48"
   height="48"
   viewBox="0 0 12.7 12.7"
   version="1.1"
   id="svg4"
   sodipodi:docname="helm_icon.svg"
   inkscape:version="0.92.5 (2060ec1f9f, 2020-04-08)">
  <defs
     id="defs8">
  <style
     id="current-color-scheme"
     type="text/css">
      .ColorScheme-Highlight {
        color:#5beedc;
      }
  </style>
  </defs>
  <path
     class="ColorScheme-Highlight"
     style="fill:#5beedc"
     d="M 24 0 A 24 24 0 0 0 0 24 A 24 24 0 0 0 24 48 A 24 24 0 0 0 48 24 A 24 24 0 0 0 24 0 z M 24 3 A 21 21 0 0 1 45 24 A 21 21 0 0 1 24 45 A 21 21 0 0 1 3 24 A 21 21 0 0 1 24 3 z M 24 7.5996094 C 14.611161 7.5996128 7.000003 15.210771 7 24.599609 C 7.006274 28.599322 8.4226589 32.468741 11 35.527344 L 11 27.599609 L 11 24.599609 L 21 16.599609 L 21 19.599609 L 21 25.599609 L 21 26.599609 L 21 30.599609 C 23 31.599609 25 31.599609 27 30.599609 L 27 26.599609 L 27 25.599609 L 27 19.599609 L 27 16.599609 L 37 24.599609 L 37 27.599609 L 37 35.552734 C 39.582958 32.487454 40.999686 28.608052 41 24.599609 C 40.999996 15.210771 33.388839 7.5996128 24 7.5996094 z M 18 22 L 14 25.199219 L 14 30.599609 L 14 33.599609 L 14 35.326172 C 16.903275 37.4474 20.404367 38.593464 24 38.599609 C 27.596068 38.592428 31.097201 37.444886 34 35.322266 L 34 33.599609 L 34 30.599609 L 34 25.199219 L 30 22 L 30 30.599609 L 30 32.599609 C 26 34.599609 22 34.599609 18 32.599609 L 18 30.599609 L 18 22 z "
     transform="scale(0.26458333)"
     id="path817" />
</svg>
