<?xml version="1.0" encoding="UTF-8" standalone="no"?>
<svg
   xmlns:dc="http://purl.org/dc/elements/1.1/"
   xmlns:cc="http://creativecommons.org/ns#"
   xmlns:rdf="http://www.w3.org/1999/02/22-rdf-syntax-ns#"
   xmlns:svg="http://www.w3.org/2000/svg"
   xmlns="http://www.w3.org/2000/svg"
   xmlns:sodipodi="http://sodipodi.sourceforge.net/DTD/sodipodi-0.dtd"
   xmlns:inkscape="http://www.inkscape.org/namespaces/inkscape"
   width="48"
   height="48"
   viewBox="0 0 12.7 12.7"
   version="1.1"
   id="svg4"
   sodipodi:docname="help-hint.svg"
   inkscape:version="0.92.5 (2060ec1f9f, 2020-04-08)">
  <defs
     id="defs8">
    <style
       id="current-color-scheme"
       type="text/css">
      .ColorScheme-Highlight {
        color:#5beedc;
      }
  </style>
  </defs>
  <path
     class="ColorScheme-Highlight"
     style="fill:#5beedc"
     d="M 6.35,0 A 6.3499999,6.3499999 0 0 0 0,6.3499999 6.3499999,6.3499999 0 0 0 6.35,12.7 6.3499999,6.3499999 0 0 0 12.7,6.3499999 6.3499999,6.3499999 0 0 0 6.35,0 Z m 0,0.79374999 A 5.5562499,5.5562499 0 0 1 11.90625,6.3499999 5.5562499,5.5562499 0 0 1 6.35,11.90625 5.5562499,5.5562499 0 0 1 0.79374999,6.3499999 5.5562499,5.5562499 0 0 1 6.35,0.79374999 Z m 0,1.05833331 c -0.4397375,0 -0.79375,0.3540125 -0.79375,0.79375 v 4.7624999 c 0,0.4397375 0.3540125,0.79375 0.79375,0.79375 0.4397374,0 0.7937499,-0.3540125 0.7937499,-0.79375 V 2.6458333 c 0,-0.4397375 -0.3540125,-0.79375 -0.7937499,-0.79375 z m 0,6.8791666 A 1.0583333,1.0583333 0 0 0 5.2916666,9.7895832 1.0583333,1.0583333 0 0 0 6.35,10.847917 1.0583333,1.0583333 0 0 0 7.4083333,9.7895832 1.0583333,1.0583333 0 0 0 6.35,8.7312499 Z"
     id="path817"
     inkscape:connector-curvature="0" />
</svg>
