<?xml version="1.0" encoding="UTF-8" standalone="no"?>
<svg
   xmlns:dc="http://purl.org/dc/elements/1.1/"
   xmlns:cc="http://creativecommons.org/ns#"
   xmlns:rdf="http://www.w3.org/1999/02/22-rdf-syntax-ns#"
   xmlns:svg="http://www.w3.org/2000/svg"
   xmlns="http://www.w3.org/2000/svg"
   xmlns:sodipodi="http://sodipodi.sourceforge.net/DTD/sodipodi-0.dtd"
   xmlns:inkscape="http://www.inkscape.org/namespaces/inkscape"
   width="48"
   height="48"
   viewBox="0 0 12.7 12.7"
   version="1.1"
   id="svg4"
   sodipodi:docname="homebank.svg"
   inkscape:version="0.92.4 (5da689c313, 2019-01-14)">
  <metadata
     id="metadata10">
    <rdf:RDF>
      <cc:Work
         rdf:about="">
        <dc:format>image/svg+xml</dc:format>
        <dc:type
           rdf:resource="http://purl.org/dc/dcmitype/StillImage" />
        <dc:title></dc:title>
      </cc:Work>
    </rdf:RDF>
  </metadata>
  <defs
     id="defs8" />
  <sodipodi:namedview
     pagecolor="#ffffff"
     bordercolor="#666666"
     borderopacity="1"
     objecttolerance="10"
     gridtolerance="10"
     guidetolerance="10"
     inkscape:pageopacity="0"
     inkscape:pageshadow="2"
     inkscape:window-width="1087"
     inkscape:window-height="480"
     id="namedview6"
     showgrid="false"
     inkscape:zoom="4.9166667"
     inkscape:cx="2.1355932"
     inkscape:cy="24"
     inkscape:window-x="0"
     inkscape:window-y="25"
     inkscape:window-maximized="0"
     inkscape:current-layer="svg4" />
  <path
     d="M 6.34,0.07 A 6.29,6.29 0 0 0 0.05,6.37 6.29,6.29 0 0 0 6.35,12.65 6.29,6.29 0 0 0 12.63,6.36 6.29,6.29 0 0 0 6.34,0.07 Z M 6.33,1.01 a 5.4,5.4 0 0 1 5.4,5.4 5.4,5.4 0 0 1 -5.4,5.41 A 5.4,5.4 0 0 1 0.92,6.42 5.4,5.4 0 0 1 6.32,1 Z m 0,0.53 -4.94,4.93 0.96,0.96 0.8,-0.8 v 3.82 H 9.5 V 6.63 l 0.8,0.8 0.95,-0.96 -4.93,-4.93 z m 1.9,0.64 V 2.65 L 9.51,3.93 V 2.18 H 8.24 Z M 6.02,4.5 H 6.7 v 0.68 h 1 V 5.86 H 6.69 v 0.67 c 0.16,0 0.33,0.03 0.5,0.1 0.15,0.07 0.3,0.19 0.39,0.35 0.1,0.17 0.13,0.36 0.13,0.58 0,0.2 -0.02,0.37 -0.1,0.53 C 7.55,8.25 7.41,8.39 7.27,8.46 7.07,8.56 6.89,8.57 6.69,8.58 V 9.26 H 6 V 8.58 H 4.99 V 7.9 H 6 V 7.22 A 1.3,1.3 0 0 1 5.5,7.12 0.83,0.83 0 0 1 5.11,6.78 C 5.03,6.62 5,6.42 5,6.2 5,6.03 4.98,5.73 5.21,5.5 5.4,5.3 5.65,5.22 6.01,5.2 V 4.5 Z m 0,1.38 C 5.82,5.91 5.72,5.96 5.71,5.98 5.69,5.99 5.68,6.03 5.68,6.2 5.68,6.34 5.71,6.41 5.73,6.44 5.75,6.48 5.76,6.49 5.8,6.5 5.84,6.52 5.92,6.53 6.02,6.54 Z M 6.7,7.22 V 7.89 C 6.84,7.88 6.94,7.87 6.97,7.85 7,7.84 6.99,7.85 7.01,7.81 A 0.7,0.7 0 0 0 7.04,7.56 0.52,0.52 0 0 0 7,7.31 C 6.98,7.28 6.97,7.27 6.93,7.26 A 0.8,0.8 0 0 0 6.7,7.22 Z"
     id="path2"
     inkscape:connector-curvature="0"
     style="fill:#5beedc" />
</svg>
