<?xml version="1.0" encoding="UTF-8" standalone="no"?>
<svg
   xmlns:dc="http://purl.org/dc/elements/1.1/"
   xmlns:cc="http://creativecommons.org/ns#"
   xmlns:rdf="http://www.w3.org/1999/02/22-rdf-syntax-ns#"
   xmlns:svg="http://www.w3.org/2000/svg"
   xmlns="http://www.w3.org/2000/svg"
   xmlns:sodipodi="http://sodipodi.sourceforge.net/DTD/sodipodi-0.dtd"
   xmlns:inkscape="http://www.inkscape.org/namespaces/inkscape"
   width="48"
   height="48"
   viewBox="0 0 12.7 12.7"
   version="1.1"
   id="svg4"
   sodipodi:docname="hub.svg"
   inkscape:version="0.92.5 (2060ec1f9f, 2020-04-08)">
  <defs
     id="defs8">
  <style
     id="current-color-scheme"
     type="text/css">
      .ColorScheme-Highlight {
        color:#5beedc;
      }
  </style>
  </defs>
  <path
     class="ColorScheme-Highlight"
     style="fill:#5beedc"
     d="M 24 0 A 24 24 0 0 0 0 24 A 24 24 0 0 0 24 48 A 24 24 0 0 0 48 24 A 24 24 0 0 0 24 0 z M 24 3 A 21 21 0 0 1 45 24 A 21 21 0 0 1 24 45 A 21 21 0 0 1 3 24 A 21 21 0 0 1 24 3 z M 24 7 A 17.000006 17.000006 0 0 0 7 24 A 17.000006 17.000006 0 0 0 24 41 A 17.000006 17.000006 0 0 0 41 24 A 17.000006 17.000006 0 0 0 24 7 z M 15 19 L 17 19 L 17 23 L 21 23 L 21 19 L 23 19 L 23 29 L 21 29 L 21 25 L 17 25 L 17 29 L 15 29 L 15 25 L 15 23 L 15 19 z M 25 19 L 27 19 L 29 19 A 3 3 0 0 1 32 22 A 3 3 0 0 1 31.232422 24 A 3 3 0 0 1 32 26 A 3 3 0 0 1 29 29 L 27 29 L 25 29 L 25 19 z M 27 21 L 27 23 L 29 23 A 0.99999991 0.99999991 0 0 0 30 22 A 0.99999991 0.99999991 0 0 0 29 21 L 27 21 z M 27 25 L 27 27 L 29 27 A 0.99999991 0.99999991 0 0 0 30 26 A 0.99999991 0.99999991 0 0 0 29 25 L 27 25 z M 17 32 L 31 32 L 31 34 L 17 34 L 17 32 z "
     transform="scale(0.26458333)"
     id="path898" />
</svg>
