<?xml version="1.0" encoding="UTF-8" standalone="no"?>
<svg
   xmlns:dc="http://purl.org/dc/elements/1.1/"
   xmlns:cc="http://creativecommons.org/ns#"
   xmlns:rdf="http://www.w3.org/1999/02/22-rdf-syntax-ns#"
   xmlns:svg="http://www.w3.org/2000/svg"
   xmlns="http://www.w3.org/2000/svg"
   xmlns:sodipodi="http://sodipodi.sourceforge.net/DTD/sodipodi-0.dtd"
   xmlns:inkscape="http://www.inkscape.org/namespaces/inkscape"
   width="48"
   height="48"
   viewBox="0 0 12.7 12.7"
   version="1.1"
   id="svg8"
   sodipodi:docname="icq.svg"
   inkscape:version="0.92.5 (2060ec1f9f, 2020-04-08)">
  <metadata
     id="metadata14">
    <rdf:RDF>
      <cc:Work
         rdf:about="">
        <dc:format>image/svg+xml</dc:format>
        <dc:type
           rdf:resource="http://purl.org/dc/dcmitype/StillImage" />
        <dc:title></dc:title>
      </cc:Work>
    </rdf:RDF>
  </metadata>
  <defs
     id="defs12" />
  <sodipodi:namedview
     pagecolor="#ffffff"
     bordercolor="#666666"
     borderopacity="1"
     objecttolerance="10"
     gridtolerance="10"
     guidetolerance="10"
     inkscape:pageopacity="0"
     inkscape:pageshadow="2"
     inkscape:window-width="1085"
     inkscape:window-height="480"
     id="namedview10"
     showgrid="false"
     inkscape:zoom="4.9166667"
     inkscape:cx="2.1355932"
     inkscape:cy="24"
     inkscape:window-x="0"
     inkscape:window-y="25"
     inkscape:window-maximized="0"
     inkscape:current-layer="svg8" />
  <path
     d="M 6.34,0.075 A 6.295,6.295 0 0 0 0.055,6.36 6.295,6.295 0 0 0 6.34,12.655 6.295,6.295 0 0 0 12.634,6.36 6.295,6.295 0 0 0 6.34,0.075 Z m -0.011,0.94 a 5.408,5.408 0 0 1 5.397,5.387 5.407,5.407 0 0 1 -10.814,0 c 0,-2.987 2.43,-5.387 5.417,-5.387 z M 7.635,1.95 C 7.428,1.951 7.221,2.005 7.048,2.116 6.57,2.413 6.524,2.687 6.664,4.238 L 6.734,4.984 6.955,5.112 7.177,5.241 7.416,4.979 C 7.976,4.372 8.57,3.574 8.634,3.335 8.722,2.991 8.674,2.582 8.512,2.355 8.326,2.093 7.98,1.949 7.635,1.95 Z M 4.753,2.184 A 0.451,0.451 0 0 0 4.367,2.332 C 4.244,2.46 4.227,2.536 4.227,2.868 4.232,3.416 4.372,3.673 5.054,4.378 5.579,4.926 5.784,5.066 5.9,4.949 5.917,4.932 5.853,4.495 5.766,3.982 5.638,3.259 5.562,2.973 5.434,2.74 5.244,2.405 4.989,2.208 4.753,2.184 Z m 4.96,2.1 C 9.52,4.284 9.269,4.326 9.159,4.372 8.937,4.472 7.585,5.59 7.538,5.719 7.521,5.765 7.526,5.824 7.556,5.853 7.614,5.905 9.159,5.719 9.549,5.613 10.132,5.456 10.564,4.996 10.441,4.669 10.336,4.401 10.109,4.279 9.713,4.284 Z m -6.43,0.06 A 1.218,1.218 0 0 0 2.67,4.483 C 2.355,4.646 2.18,4.85 2.093,5.153 2.012,5.427 2.053,5.614 2.251,5.847 2.501,6.144 2.7,6.167 3.761,6.034 4.273,5.964 4.728,5.911 4.763,5.911 4.856,5.911 5.095,5.445 5.031,5.386 4.816,5.188 3.813,4.5 3.638,4.425 A 1.042,1.042 0 0 0 3.283,4.343 Z M 9.425,6.56 C 9.1,6.56 8.686,6.585 8.232,6.634 L 7.625,6.698 7.544,6.896 C 7.497,7.007 7.48,7.118 7.503,7.136 8.43,7.952 9.2,8.54 9.398,8.598 10.121,8.791 10.814,8.062 10.61,7.322 10.54,7.042 10.319,6.762 10.08,6.64 9.983,6.587 9.749,6.561 9.425,6.56 Z M 6.99,7.543 C 6.967,7.543 6.932,7.567 6.909,7.596 6.891,7.626 6.798,7.666 6.704,7.689 6.564,7.719 6.535,7.753 6.559,7.852 6.57,7.922 6.629,8.214 6.681,8.505 6.809,9.222 6.967,9.613 7.235,9.881 7.952,10.598 8.565,9.519 7.952,8.621 7.765,8.341 7.049,7.543 6.99,7.543 Z M 5.523,7.628 C 5.424,7.641 5.264,7.81 4.769,8.412 4.186,9.112 4.081,9.269 4.052,9.496 c -0.11,0.705 0.315,1.254 0.962,1.254 0.42,0 0.938,-0.374 1.026,-0.74 C 6.08,9.858 6.034,8.663 5.97,8.056 5.935,7.788 5.912,7.724 5.807,7.701 5.743,7.683 5.632,7.654 5.562,7.631 A 0.092,0.092 0 0 0 5.522,7.628 Z"
     id="path2"
     inkscape:connector-curvature="0"
     style="fill:#5beedc" />
  <path
     d="M 5.83,5.573 C 5.492,5.748 5.305,6.028 5.305,6.36 c 0,0.309 0.094,0.501 0.38,0.775 0.192,0.187 0.244,0.204 0.541,0.204 0.292,0 0.362,-0.023 0.577,-0.198 C 7.107,6.896 7.194,6.698 7.159,6.29 7.136,6.034 7.095,5.929 6.961,5.789 6.629,5.433 6.256,5.363 5.83,5.573 Z"
     id="path4"
     inkscape:connector-curvature="0"
     style="opacity:0.75;fill:#ffd42a" />
  <path
     d="M 4.011,6.786 C 3.405,6.914 2.939,7.147 2.758,7.421 c -0.17,0.25 -0.17,0.367 0,0.565 0.122,0.14 0.18,0.158 0.484,0.158 0.449,0 0.71,-0.134 1.27,-0.67 C 4.962,7.054 4.962,7.048 4.897,6.856 4.816,6.634 4.752,6.628 4.011,6.786 Z"
     id="path6"
     inkscape:connector-curvature="0"
     style="opacity:0.75;fill:#ff2a2a" />
</svg>
