<?xml version="1.0" encoding="UTF-8" standalone="no"?>
<svg
   xmlns:dc="http://purl.org/dc/elements/1.1/"
   xmlns:cc="http://creativecommons.org/ns#"
   xmlns:rdf="http://www.w3.org/1999/02/22-rdf-syntax-ns#"
   xmlns:svg="http://www.w3.org/2000/svg"
   xmlns="http://www.w3.org/2000/svg"
   xmlns:sodipodi="http://sodipodi.sourceforge.net/DTD/sodipodi-0.dtd"
   xmlns:inkscape="http://www.inkscape.org/namespaces/inkscape"
   width="48"
   height="48"
   viewBox="0 0 12.7 12.7"
   version="1.1"
   id="svg4"
   sodipodi:docname="idevice.svg"
   inkscape:version="0.92.5 (2060ec1f9f, 2020-04-08)">
  <defs
     id="defs8">
  <style
     id="current-color-scheme"
     type="text/css">
      .ColorScheme-Highlight {
        color:#5beedc;
      }
  </style>
  </defs>
  <path
     class="ColorScheme-Highlight"
     style="fill:#5beedc"
     d="M 24 0 A 24 24 0 0 0 0 24 A 24 24 0 0 0 24 48 A 24 24 0 0 0 48 24 A 24 24 0 0 0 24 0 z M 24 3 A 21 21 0 0 1 45 24 A 21 21 0 0 1 24 45 A 21 21 0 0 1 3 24 A 21 21 0 0 1 24 3 z M 15 8 C 14.446 8 14 8.4459999 14 9 L 14 39 C 14 39.553999 14.446 40 15 40 L 33 40 C 33.554 40 34 39.553999 34 39 L 34 9 C 34 8.4459999 33.554 8 33 8 L 15 8 z M 15 10 L 33 10 L 33 33 L 15 33 L 15 10 z M 24 12 L 21 16 L 23 16 L 23 25.5 L 20 24 L 20 22.912109 A 1.5 1.5 0 0 0 21 21.5 A 1.5 1.5 0 0 0 19.5 20 A 1.5 1.5 0 0 0 18 21.5 A 1.5 1.5 0 0 0 19 22.912109 L 19 24 L 19 25 L 23 27 L 23 27.271484 A 1.9999999 1.9999999 0 0 0 22 29 A 1.9999999 1.9999999 0 0 0 24 31 A 1.9999999 1.9999999 0 0 0 26 29 A 1.9999999 1.9999999 0 0 0 25 27.269531 L 25 26 L 29 24 L 29 23 L 29 22 L 29 21 L 30 21 L 30 18 L 27 18 L 27 21 L 28 21 L 28 22 L 28 23 L 25 24.5 L 25 23.5 L 25 23 L 25 16 L 27 16 L 24 12 z M 19 36 L 29 36 L 29 38 L 19 38 L 19 36 z "
     transform="scale(0.26458333)"
     id="path817-3" />
</svg>
