<?xml version="1.0" encoding="UTF-8" standalone="no"?>
<svg
   xmlns:dc="http://purl.org/dc/elements/1.1/"
   xmlns:cc="http://creativecommons.org/ns#"
   xmlns:rdf="http://www.w3.org/1999/02/22-rdf-syntax-ns#"
   xmlns:svg="http://www.w3.org/2000/svg"
   xmlns="http://www.w3.org/2000/svg"
   xmlns:sodipodi="http://sodipodi.sourceforge.net/DTD/sodipodi-0.dtd"
   xmlns:inkscape="http://www.inkscape.org/namespaces/inkscape"
   width="48"
   height="48"
   viewBox="0 0 12.7 12.7"
   version="1.1"
   id="svg6"
   sodipodi:docname="im.vector.svg"
   inkscape:version="0.92.4 (5da689c313, 2019-01-14)">
  <metadata
     id="metadata12">
    <rdf:RDF>
      <cc:Work
         rdf:about="">
        <dc:format>image/svg+xml</dc:format>
        <dc:type
           rdf:resource="http://purl.org/dc/dcmitype/StillImage" />
        <dc:title></dc:title>
      </cc:Work>
    </rdf:RDF>
  </metadata>
  <defs
     id="defs10" />
  <sodipodi:namedview
     pagecolor="#ffffff"
     bordercolor="#666666"
     borderopacity="1"
     objecttolerance="10"
     gridtolerance="10"
     guidetolerance="10"
     inkscape:pageopacity="0"
     inkscape:pageshadow="2"
     inkscape:window-width="1112"
     inkscape:window-height="480"
     id="namedview8"
     showgrid="false"
     inkscape:zoom="4.9166667"
     inkscape:cx="2.1355932"
     inkscape:cy="24"
     inkscape:window-x="0"
     inkscape:window-y="25"
     inkscape:window-maximized="0"
     inkscape:current-layer="svg6" />
  <path
     d="m 6.34,0.07 a 6.29,6.29 0 0 0 0,12.58 6.29,6.29 0 0 0 0,-12.58 z M 6.32,1 A 5.417,5.417 0 0 1 11.73,6.41 5.4,5.4 0 0 1 6.33,11.82 5.4,5.4 0 0 1 0.92,6.42 5.4,5.4 0 0 1 6.32,1 Z M 3.425,4.073 A 0.627,0.627 0 0 0 2.798,4.699 0.627,0.627 0 0 0 3.425,5.326 0.627,0.627 0 0 0 4.052,4.699 0.627,0.627 0 0 0 3.425,4.073 Z m 5.85,0 A 0.627,0.627 0 0 0 8.648,4.699 0.627,0.627 0 0 0 9.275,5.326 0.627,0.627 0 0 0 9.902,4.699 0.627,0.627 0 0 0 9.275,4.073 Z M 3.41,4.49 a 0.209,0.209 0 0 1 0.015,0 A 0.209,0.209 0 0 1 3.634,4.698 0.209,0.209 0 0 1 3.425,4.908 0.209,0.209 0 0 1 3.215,4.698 0.209,0.209 0 0 1 3.41,4.49 Z m 5.85,0 a 0.209,0.209 0 0 1 0.015,0 0.209,0.209 0 0 1 0.21,0.208 0.209,0.209 0 0 1 -0.21,0.21 A 0.209,0.209 0 0 1 9.066,4.698 0.209,0.209 0 0 1 9.26,4.49 Z M 4.098,5.289 a 0.887,0.887 0 0 1 -0.34,0.247 l 1.94,3.358 A 0.887,0.887 0 0 1 6.043,8.657 L 4.098,5.29 Z M 8.605,5.304 6.67,8.66 A 0.887,0.887 0 0 1 7.017,8.897 L 8.95,5.545 A 0.887,0.887 0 0 1 8.606,5.306 Z M 6.34,8.883 A 0.627,0.627 0 0 0 5.713,9.51 0.627,0.627 0 0 0 6.34,10.137 0.627,0.627 0 0 0 6.966,9.51 0.627,0.627 0 0 0 6.34,8.883 Z M 6.325,9.301 a 0.209,0.209 0 0 1 0.015,0 A 0.209,0.209 0 0 1 6.549,9.51 0.209,0.209 0 0 1 6.339,9.719 0.209,0.209 0 0 1 6.131,9.51 0.209,0.209 0 0 1 6.325,9.301 Z"
     id="path2"
     inkscape:connector-curvature="0"
     style="fill:#5beedc" />
  <path
     style="color:#000000;overflow:visible;opacity:0.5;isolation:auto;mix-blend-mode:normal;solid-color:#000000;solid-opacity:1;fill:#5beedc;marker:none"
     d="M 6.339,2.563 A 0.627,0.627 0 0 0 5.712,3.19 0.627,0.627 0 0 0 6.339,3.817 0.627,0.627 0 0 0 6.965,3.19 0.627,0.627 0 0 0 6.339,2.563 Z M 6.324,2.981 a 0.209,0.209 0 0 1 0.015,0 A 0.209,0.209 0 0 1 6.548,3.19 0.209,0.209 0 0 1 6.338,3.399 0.209,0.209 0 0 1 6.13,3.19 0.209,0.209 0 0 1 6.324,2.981 Z M 7.247,3.246 A 0.89,0.89 0 0 1 7.114,3.699 l 1.31,0.757 A 0.887,0.887 0 0 1 8.67,4.068 Z M 5.47,3.26 4.04,4.086 A 0.887,0.887 0 0 1 4.268,4.463 L 5.598,3.694 A 0.89,0.89 0 0 1 5.47,3.26 Z M 3.677,5.567 A 0.887,0.887 0 0 1 3.419,5.606 0.887,0.887 0 0 1 3.263,5.592 V 7.195 A 0.887,0.887 0 0 1 3.419,7.18 0.887,0.887 0 0 1 3.677,7.218 Z m 5.35,0.004 V 7.215 A 0.887,0.887 0 0 1 9.27,7.18 0.887,0.887 0 0 1 9.477,7.206 V 5.581 A 0.887,0.887 0 0 1 9.27,5.606 0.887,0.887 0 0 1 9.026,5.571 Z M 3.425,7.421 A 0.627,0.627 0 0 0 2.798,8.047 0.627,0.627 0 0 0 3.425,8.673 0.627,0.627 0 0 0 4.052,8.047 0.627,0.627 0 0 0 3.425,7.42 Z m 5.85,0 A 0.627,0.627 0 0 0 8.648,8.047 0.627,0.627 0 0 0 9.275,8.673 0.627,0.627 0 0 0 9.902,8.047 0.627,0.627 0 0 0 9.275,7.42 Z M 3.41,7.838 a 0.209,0.209 0 0 1 0.015,0 A 0.209,0.209 0 0 1 3.634,8.047 0.209,0.209 0 0 1 3.425,8.256 0.209,0.209 0 0 1 3.215,8.046 0.209,0.209 0 0 1 3.41,7.838 Z m 5.85,0 a 0.209,0.209 0 0 1 0.015,0 0.209,0.209 0 0 1 0.21,0.209 A 0.209,0.209 0 0 1 9.275,8.256 0.209,0.209 0 0 1 9.066,8.046 0.209,0.209 0 0 1 9.26,7.838 Z M 4.288,8.246 A 0.887,0.887 0 0 1 4.116,8.614 L 5.474,9.398 A 0.887,0.887 0 0 1 5.61,9.01 Z M 8.404,8.253 7.1,9.006 a 0.887,0.887 0 0 1 0.139,0.408 l 1.35,-0.78 A 0.887,0.887 0 0 1 8.403,8.254 Z"
     overflow="visible"
     id="path4"
     inkscape:connector-curvature="0" />
</svg>
