<?xml version="1.0" encoding="UTF-8" standalone="no"?>
<svg
   xmlns:dc="http://purl.org/dc/elements/1.1/"
   xmlns:cc="http://creativecommons.org/ns#"
   xmlns:rdf="http://www.w3.org/1999/02/22-rdf-syntax-ns#"
   xmlns:svg="http://www.w3.org/2000/svg"
   xmlns="http://www.w3.org/2000/svg"
   xmlns:sodipodi="http://sodipodi.sourceforge.net/DTD/sodipodi-0.dtd"
   xmlns:inkscape="http://www.inkscape.org/namespaces/inkscape"
   width="48"
   height="48"
   viewBox="0 0 12.7 12.7"
   version="1.1"
   id="svg4"
   sodipodi:docname="preferences-web-browser-stylesheets.svg"
   inkscape:version="0.92.5 (2060ec1f9f, 2020-04-08)">
  <defs
     id="defs8">
  <style
     id="current-color-scheme"
     type="text/css">
      .ColorScheme-Highlight {
        color:#5beedc;
      }
  </style>
  </defs>
  <path
     class="ColorScheme-Highlight"
     style="fill:#5beedc"
     d="M 24 0 A 24 24 0 0 0 0 24 A 24 24 0 0 0 24 48 A 24 24 0 0 0 48 24 A 24 24 0 0 0 24 0 z M 24 3 A 21 21 0 0 1 45 24 A 21 21 0 0 1 24 45 A 21 21 0 0 1 3 24 A 21 21 0 0 1 24 3 z M 21.599609 10.074219 C 20.360079 10.074219 19.176593 10.178369 18.050781 10.386719 C 16.936341 10.584103 16.093983 10.9735 15.525391 11.554688 C 14.865824 12.234567 14.462287 13.006749 14.314453 13.873047 C 14.166619 14.728379 14.09375 15.627254 14.09375 16.570312 L 14.09375 18.314453 C 14.09375 19.674212 13.962724 20.711051 13.701172 21.423828 C 13.450991 22.125639 12.962173 22.607915 12.234375 22.871094 C 11.517949 23.123307 10.459283 23.248047 9.0605469 23.248047 L 9.0605469 24.761719 C 10.459283 24.761719 11.517949 24.893071 12.234375 25.15625 C 12.962173 25.408463 13.450991 25.890739 13.701172 26.603516 C 13.962724 27.305327 14.09375 28.337506 14.09375 29.697266 L 14.09375 31.439453 C 14.09375 32.371546 14.166619 33.272374 14.314453 34.138672 C 14.462287 35.00497 14.865824 35.777152 15.525391 36.457031 C 16.093983 37.038219 16.936341 37.427616 18.050781 37.625 C 19.176593 37.83335 20.360079 37.9375 21.599609 37.9375 L 21.599609 36.556641 C 21.406288 36.556641 21.07562 36.534098 20.609375 36.490234 C 20.154501 36.446371 19.682348 36.353493 19.193359 36.210938 C 18.715742 36.068382 18.328871 35.842199 18.033203 35.535156 C 17.646561 35.140387 17.407381 34.61032 17.316406 33.941406 C 17.236803 33.272492 17.197266 32.564034 17.197266 31.818359 L 17.197266 30.552734 C 17.197266 29.313599 17.089112 28.260829 16.873047 27.394531 C 16.656982 26.517267 16.213907 25.797537 15.542969 25.238281 C 14.87203 24.679025 13.854855 24.262426 12.490234 23.988281 C 13.854855 23.70317 14.87203 23.293184 15.542969 22.755859 C 16.213907 22.207569 16.656982 21.499111 16.873047 20.632812 C 17.089112 19.766514 17.197266 18.709086 17.197266 17.458984 L 17.197266 16.191406 C 17.197266 15.445732 17.236803 14.739226 17.316406 14.070312 C 17.407381 13.401399 17.646561 12.869378 18.033203 12.474609 C 18.328871 12.167567 18.715742 11.943337 19.193359 11.800781 C 19.682348 11.658226 20.154501 11.565348 20.609375 11.521484 C 21.07562 11.477621 21.406288 11.455078 21.599609 11.455078 L 21.599609 10.074219 z M 26.408203 10.074219 L 26.408203 11.455078 C 26.612896 11.455078 26.943564 11.477621 27.398438 11.521484 C 27.853311 11.565348 28.325464 11.658226 28.814453 11.800781 C 29.303442 11.943337 29.690313 12.167567 29.974609 12.474609 C 30.34988 12.858412 30.582853 13.374502 30.673828 14.021484 C 30.776175 14.668467 30.826172 15.359041 30.826172 16.09375 C 30.826172 16.324032 30.821919 16.554874 30.810547 16.785156 L 30.810547 17.458984 C 30.810547 18.709086 30.918701 19.773127 31.134766 20.650391 C 31.362202 21.516689 31.811483 22.218535 32.482422 22.755859 C 33.15336 23.293184 34.170536 23.70317 35.535156 23.988281 C 34.181907 24.262426 33.164732 24.679025 32.482422 25.238281 C 31.811483 25.786571 31.362202 26.499689 31.134766 27.376953 C 30.918701 28.243251 30.810547 29.302633 30.810547 30.552734 L 30.810547 31.226562 C 30.821919 31.456844 30.826172 31.687687 30.826172 31.917969 C 30.826172 32.652677 30.776175 33.343252 30.673828 33.990234 C 30.582853 34.637217 30.34988 35.151353 29.974609 35.535156 C 29.690313 35.842199 29.303442 36.068382 28.814453 36.210938 C 28.325464 36.353493 27.853311 36.446371 27.398438 36.490234 C 26.943564 36.534098 26.612896 36.556641 26.408203 36.556641 L 26.408203 37.9375 C 27.659105 37.9375 28.842591 37.83335 29.957031 37.625 C 31.071471 37.427616 31.918083 37.038219 32.498047 36.457031 C 33.168985 35.777152 33.572522 35.00497 33.708984 34.138672 C 33.856818 33.272374 33.931641 32.371546 33.931641 31.439453 L 33.931641 29.597656 C 33.931641 28.248863 34.062666 27.229908 34.324219 26.539062 C 34.597143 25.837251 35.092168 25.364294 35.808594 25.123047 C 36.536391 24.881799 37.586898 24.761719 38.962891 24.761719 L 38.962891 23.248047 C 37.586898 23.248047 36.536391 23.127966 35.808594 22.886719 C 35.092168 22.634505 34.597143 22.163502 34.324219 21.472656 C 34.062666 20.781811 33.931641 19.760903 33.931641 18.412109 L 33.931641 16.570312 C 33.931641 15.627254 33.856818 14.728379 33.708984 13.873047 C 33.572522 13.006749 33.168985 12.234567 32.498047 11.554688 C 31.918083 10.9735 31.071471 10.584103 29.957031 10.386719 C 28.842591 10.178369 27.659105 10.074219 26.408203 10.074219 z "
     transform="scale(0.26458333)"
     id="path841" />
</svg>
