<?xml version="1.0" encoding="UTF-8" standalone="no"?>
<svg
   xmlns:dc="http://purl.org/dc/elements/1.1/"
   xmlns:cc="http://creativecommons.org/ns#"
   xmlns:rdf="http://www.w3.org/1999/02/22-rdf-syntax-ns#"
   xmlns:svg="http://www.w3.org/2000/svg"
   xmlns="http://www.w3.org/2000/svg"
   xmlns:sodipodi="http://sodipodi.sourceforge.net/DTD/sodipodi-0.dtd"
   xmlns:inkscape="http://www.inkscape.org/namespaces/inkscape"
   width="48"
   height="48"
   viewBox="0 0 12.7 12.7"
   version="1.1"
   id="svg4"
   sodipodi:docname="acetoneiso.svg"
   inkscape:version="0.92.5 (2060ec1f9f, 2020-04-08)">
  <defs
     id="defs8">
  <style
     id="current-color-scheme"
     type="text/css">
      .ColorScheme-Highlight {
        color:#5beedc;
      }
  </style>
  </defs>
  <path
     class="ColorScheme-Highlight"
     style="fill:#5beedc"
     d="M 24 0 A 24 24 0 0 0 0 24 A 24 24 0 0 0 24 48 A 24 24 0 0 0 27.988281 47.640625 A 14 14 0 0 1 27.21875 46.564453 A 14 14 0 0 1 26.523438 45.349609 A 14 14 0 0 1 25.951172 44.072266 A 14 14 0 0 1 25.509766 42.744141 A 14 14 0 0 1 25.203125 41.378906 A 14 14 0 0 1 25.035156 39.990234 A 14 14 0 0 1 25 39 A 14 14 0 0 1 25.070312 37.601562 A 14 14 0 0 1 25.279297 36.21875 A 14 14 0 0 1 25.623047 34.869141 A 11 11 0 0 1 24 35 A 11 11 0 0 1 13 24 A 11 11 0 0 1 24 13 A 11 11 0 0 1 35 24 A 11 11 0 0 1 34.863281 25.640625 A 14 14 0 0 1 35.255859 25.509766 A 14 14 0 0 1 36.621094 25.203125 A 14 14 0 0 1 38.009766 25.035156 A 14 14 0 0 1 39 25 A 14 14 0 0 1 40.398438 25.070312 A 14 14 0 0 1 41.78125 25.279297 A 14 14 0 0 1 43.136719 25.625 A 14 14 0 0 1 44.451172 26.105469 A 14 14 0 0 1 45.712891 26.712891 A 14 14 0 0 1 46.904297 27.445312 A 14 14 0 0 1 47.658203 28.017578 A 24 24 0 0 0 48 24 A 24 24 0 0 0 24 0 z M 24 17 A 6.9999998 6.9999998 0 0 0 17 24 A 6.9999998 6.9999998 0 0 0 24 31 A 6.9999998 6.9999998 0 0 0 31 24 A 6.9999998 6.9999998 0 0 0 24 17 z M 24 20 A 3.9999996 3.9999996 0 0 1 28 24 A 3.9999996 3.9999996 0 0 1 24 28 A 3.9999996 3.9999996 0 0 1 20 24 A 3.9999996 3.9999996 0 0 1 24 20 z M 39 27 L 39 30 A 8.9999993 8.9999993 0 0 0 30 39 A 8.9999993 8.9999993 0 0 0 39 48 A 8.9999993 8.9999993 0 0 0 48 39 L 46 39 A 6.9999997 6.9999997 0 0 1 39 46 A 6.9999997 6.9999997 0 0 1 32 39 A 6.9999997 6.9999997 0 0 1 39 32 L 39 35 L 43 31 L 39 27 z "
     transform="scale(0.26458333)"
     id="path861" />
</svg>
