<?xml version="1.0" encoding="UTF-8" standalone="no"?>
<svg
   xmlns:dc="http://purl.org/dc/elements/1.1/"
   xmlns:cc="http://creativecommons.org/ns#"
   xmlns:rdf="http://www.w3.org/1999/02/22-rdf-syntax-ns#"
   xmlns:svg="http://www.w3.org/2000/svg"
   xmlns="http://www.w3.org/2000/svg"
   xmlns:sodipodi="http://sodipodi.sourceforge.net/DTD/sodipodi-0.dtd"
   xmlns:inkscape="http://www.inkscape.org/namespaces/inkscape"
   width="48"
   height="48"
   viewBox="0 0 12.7 12.7"
   version="1.1"
   id="svg12"
   sodipodi:docname="jadx.svg"
   inkscape:version="0.92.5 (2060ec1f9f, 2020-04-08)">
  <metadata
     id="metadata18">
    <rdf:RDF>
      <cc:Work
         rdf:about="">
        <dc:format>image/svg+xml</dc:format>
        <dc:type
           rdf:resource="http://purl.org/dc/dcmitype/StillImage" />
        <dc:title></dc:title>
      </cc:Work>
    </rdf:RDF>
  </metadata>
  <defs
     id="defs16" />
  <sodipodi:namedview
     pagecolor="#ffffff"
     bordercolor="#666666"
     borderopacity="1"
     objecttolerance="10"
     gridtolerance="10"
     guidetolerance="10"
     inkscape:pageopacity="0"
     inkscape:pageshadow="2"
     inkscape:window-width="1085"
     inkscape:window-height="480"
     id="namedview14"
     showgrid="false"
     inkscape:zoom="4.9166667"
     inkscape:cx="2.1355932"
     inkscape:cy="24"
     inkscape:window-x="0"
     inkscape:window-y="25"
     inkscape:window-maximized="0"
     inkscape:current-layer="svg12" />
  <path
     d="M 6.34,0.075 A 6.295,6.295 0 0 0 0.055,6.36 6.295,6.295 0 0 0 6.34,12.655 6.295,6.295 0 0 0 12.634,6.36 6.295,6.295 0 0 0 6.34,0.075 Z m -0.01,0.94 a 5.408,5.408 0 0 1 5.396,5.387 5.407,5.407 0 1 1 -10.814,0 c 0,-2.987 2.43,-5.387 5.417,-5.387 z"
     id="path2"
     inkscape:connector-curvature="0"
     style="fill:#5beedc" />
  <path
     d="m 6.926,5.686 -0.445,0.5 c 0.26,0.016 0.505,0.052 0.704,0.157 0.048,0.026 0.068,0.084 0.112,0.115 z m -0.74,0.831 -0.417,0.47 v 2.162 h 0.433 c 0.216,0 0.405,-0.028 0.567,-0.083 A 1.01,1.01 0 0 0 7.174,8.816 C 7.282,8.704 7.363,8.566 7.417,8.399 7.47,8.232 7.497,8.037 7.497,7.815 7.497,7.591 7.471,7.396 7.418,7.233 A 0.961,0.961 0 0 0 6.802,6.596 1.523,1.523 0 0 0 6.292,6.517 Z m -0.818,0.92 -2.38,2.677 H 9.054 L 8.552,9.07 8.292,9.512 H 7.868 L 8.368,8.686 7.905,7.724 c 0,0.03 0.016,0.046 0.016,0.077 0,0.284 -0.037,0.532 -0.11,0.746 A 1.356,1.356 0 0 1 7.48,9.085 C 7.334,9.227 7.158,9.334 6.955,9.405 a 2.111,2.111 0 0 1 -0.7,0.107 H 5.368 Z"
     id="path4"
     inkscape:connector-curvature="0"
     style="opacity:0.75;fill:#461bbc" />
  <path
     d="M 7.994,4.517 6.926,5.686 7.291,6.452 c 0.172,0.12 0.335,0.25 0.438,0.446 0.122,0.229 0.176,0.52 0.183,0.855 L 8.362,8.696 8.926,7.763 7.935,6.155 H 8.381 L 9.163,7.471 9.949,6.155 h 0.424 L 9.386,7.753 10.299,9.263 10.877,9.177 10.564,4.993 Z M 9.149,8.054 8.545,9.082 8.742,9.494 9.885,9.324 Z"
     id="path6"
     inkscape:connector-curvature="0"
     style="opacity:0.75;fill:#008275" />
  <path
     d="m 6.865,3.714 -0.454,0.235 0.63,1.61 0.732,-0.8 z M 6.067,4.127 5.553,4.394 5.316,5.02 H 6.402 Z M 5.028,4.666 3.255,5.584 V 6.4 c 0,0.163 -0.021,0.305 -0.062,0.425 A 0.72,0.72 0 0 1 3.01,7.123 0.802,0.802 0 0 1 2.725,7.298 C 2.667,7.318 2.596,7.318 2.531,7.328 L 4.147,8.81 6.73,5.906 6.53,5.4 H 5.17 L 4.762,6.45 H 4.325 Z M 2.822,5.808 1.577,6.453 2.126,6.957 c 0.015,0.002 0.028,0.006 0.043,0.009 0.057,0.01 0.118,0.014 0.182,0.014 0.08,0 0.156,-0.016 0.226,-0.048 A 0.373,0.373 0 0 0 2.755,6.766 0.684,0.684 0 0 0 2.822,6.433 Z"
     id="path8"
     inkscape:connector-curvature="0"
     style="opacity:0.75;fill:#f15a29" />
  <path
     d="M 2.738,2.438 V 5.852 L 2.822,5.808 V 3.056 H 3.255 V 5.584 L 5.028,4.665 5.554,3.326 Z M 5.854,3.484 A 4.3,4.3 0 0 1 5.705,3.993 L 5.553,4.393 6.067,4.127 6.017,3.993 A 15.682,15.682 0 0 1 5.902,3.65 2.77,2.77 0 0 0 5.854,3.484 Z m 0.4,0.063 0.157,0.402 0.423,-0.22 z M 6.894,3.749 7.773,4.759 7.993,4.517 8.172,4.55 8.42,4.23 Z"
     id="path10"
     inkscape:connector-curvature="0"
     style="opacity:0.75;fill:#9e1f63" />
</svg>
