<?xml version="1.0" encoding="UTF-8" standalone="no"?>
<svg
   xmlns:dc="http://purl.org/dc/elements/1.1/"
   xmlns:cc="http://creativecommons.org/ns#"
   xmlns:rdf="http://www.w3.org/1999/02/22-rdf-syntax-ns#"
   xmlns:svg="http://www.w3.org/2000/svg"
   xmlns="http://www.w3.org/2000/svg"
   xmlns:sodipodi="http://sodipodi.sourceforge.net/DTD/sodipodi-0.dtd"
   xmlns:inkscape="http://www.inkscape.org/namespaces/inkscape"
   width="48"
   height="48"
   viewBox="0 0 12.7 12.7"
   version="1.1"
   id="svg6"
   sodipodi:docname="javasnoop.svg"
   inkscape:version="0.92.5 (2060ec1f9f, 2020-04-08)">
  <metadata
     id="metadata12">
    <rdf:RDF>
      <cc:Work
         rdf:about="">
        <dc:format>image/svg+xml</dc:format>
        <dc:type
           rdf:resource="http://purl.org/dc/dcmitype/StillImage" />
        <dc:title></dc:title>
      </cc:Work>
    </rdf:RDF>
  </metadata>
  <defs
     id="defs10" />
  <sodipodi:namedview
     pagecolor="#ffffff"
     bordercolor="#666666"
     borderopacity="1"
     objecttolerance="10"
     gridtolerance="10"
     guidetolerance="10"
     inkscape:pageopacity="0"
     inkscape:pageshadow="2"
     inkscape:window-width="1085"
     inkscape:window-height="480"
     id="namedview8"
     showgrid="false"
     inkscape:zoom="4.9166667"
     inkscape:cx="2.1355932"
     inkscape:cy="24"
     inkscape:window-x="0"
     inkscape:window-y="25"
     inkscape:window-maximized="0"
     inkscape:current-layer="svg6" />
  <path
     d="M 6.34,0.075 A 6.295,6.295 0 0 0 2.007,1.824 l 0.75,0.554 A 5.394,5.394 0 0 1 6.33,1.015 5.408,5.408 0 0 1 9.92,2.395 l 0.773,-0.57 A 6.295,6.295 0 0 0 6.34,0.075 Z M 1.617,2.23 A 6.295,6.295 0 0 0 0.055,6.36 6.295,6.295 0 0 0 6.34,12.655 6.295,6.295 0 0 0 12.634,6.36 6.295,6.295 0 0 0 11.082,2.237 c -0.008,0.282 0,0.376 -0.033,0.786 -0.018,0.22 -0.056,0.427 -0.085,0.643 a 5.408,5.408 0 0 1 0.762,2.736 5.407,5.407 0 0 1 -10.814,0 C 0.912,5.366 1.219,4.409 1.726,3.59 1.701,3.398 1.666,3.218 1.651,3.023 1.618,2.61 1.625,2.513 1.617,2.231 Z"
     id="path2"
     inkscape:connector-curvature="0"
     style="fill:#5beedc" />
  <path
     d="m 2.381,2.837 c 0,0 0,2.41 0.425,2.834 0.087,0.087 0.176,0.157 0.267,0.216 A 3.544,3.544 0 0 0 2.806,7.231 3.544,3.544 0 0 0 6.35,10.774 3.544,3.544 0 0 0 9.894,7.231 3.544,3.544 0 0 0 9.626,5.887 C 9.717,5.829 9.806,5.758 9.894,5.671 10.319,5.246 10.319,2.837 10.319,2.837 L 8.339,4.299 A 3.544,3.544 0 0 0 6.35,3.687 3.544,3.544 0 0 0 4.362,4.301 Z M 4.366,6.238 5.925,7.372 5.216,7.798 3.656,6.664 Z m 3.968,0 0.71,0.426 -1.56,1.134 -0.709,-0.426 z"
     id="path4"
     inkscape:connector-curvature="0"
     style="opacity:0.8;fill:#b73c0d" />
</svg>
