<?xml version="1.0" encoding="UTF-8" standalone="no"?>
<svg
   xmlns:dc="http://purl.org/dc/elements/1.1/"
   xmlns:cc="http://creativecommons.org/ns#"
   xmlns:rdf="http://www.w3.org/1999/02/22-rdf-syntax-ns#"
   xmlns:svg="http://www.w3.org/2000/svg"
   xmlns="http://www.w3.org/2000/svg"
   xmlns:sodipodi="http://sodipodi.sourceforge.net/DTD/sodipodi-0.dtd"
   xmlns:inkscape="http://www.inkscape.org/namespaces/inkscape"
   width="48"
   height="48"
   version="1"
   id="svg11"
   sodipodi:docname="jetbrains-toolbox.svg"
   inkscape:version="0.92.4 (5da689c313, 2019-01-14)">
  <metadata
     id="metadata15">
    <rdf:RDF>
      <cc:Work
         rdf:about="">
        <dc:format>image/svg+xml</dc:format>
        <dc:type
           rdf:resource="http://purl.org/dc/dcmitype/StillImage" />
        <dc:title></dc:title>
      </cc:Work>
    </rdf:RDF>
  </metadata>
  <sodipodi:namedview
     pagecolor="#ffffff"
     bordercolor="#666666"
     borderopacity="1"
     objecttolerance="10"
     gridtolerance="10"
     guidetolerance="10"
     inkscape:pageopacity="0"
     inkscape:pageshadow="2"
     inkscape:window-width="1087"
     inkscape:window-height="480"
     id="namedview13"
     showgrid="false"
     inkscape:zoom="4.9166667"
     inkscape:cx="2.1355932"
     inkscape:cy="24"
     inkscape:window-x="0"
     inkscape:window-y="25"
     inkscape:window-maximized="0"
     inkscape:current-layer="svg11" />
  <defs
     id="defs7">
    <linearGradient
       id="a">
      <stop
         offset="0"
         stop-color="#040000"
         id="stop2" />
      <stop
         offset="1"
         stop-opacity="0"
         id="stop4" />
    </linearGradient>
  </defs>
  <path
     d="M 24,0.23 A 23.77,23.77 0 0 0 0.23,24.01 23.77,23.77 0 0 0 24,47.77 23.77,23.77 0 0 0 47.77,24 23.77,23.77 0 0 0 24,0.23 Z M 23.93,3.77 A 20.44,20.44 0 0 1 44.37,24.21 20.44,20.44 0 0 1 23.93,44.64 20.44,20.44 0 0 1 3.5,24.21 20.44,20.44 0 0 1 23.93,3.77 Z M 24,6.27 c -0.05,0 -0.09,0.02 -0.13,0.03 L 23.8,6.31 23.78,6.32 8.38,12.35 a 0.54,0.54 0 0 0 -0.33,0.63 0.54,0.54 0 0 0 -0.02,0.15 v 19.82 c 0,0.2 0.1,0.39 0.29,0.48 l 15.42,8.23 0.08,0.03 0.04,0.01 0.14,0.02 c 0.05,0 0.1,0 0.14,-0.02 l 0.04,-0.01 0.08,-0.03 15.42,-8.23 c 0.18,-0.1 0.3,-0.28 0.3,-0.48 V 13.13 L 39.95,12.98 A 0.54,0.54 0 0 0 39.62,12.35 L 24.2,6.3 24.12,6.29 Z M 24,7.41 38.35,13.03 24,19.66 9.65,13.03 24,7.4 Z M 9.12,14 23.45,20.63 V 40.27 L 9.12,32.62 V 13.99 Z m 23.35,10.15 v 3.11 l -6.01,3.09 v -3.28 l 6,-2.92 z"
     id="path9"
     inkscape:connector-curvature="0"
     style="fill:#5beedc" />
</svg>
