<?xml version="1.0" encoding="UTF-8" standalone="no"?>
<svg
   xmlns:dc="http://purl.org/dc/elements/1.1/"
   xmlns:cc="http://creativecommons.org/ns#"
   xmlns:rdf="http://www.w3.org/1999/02/22-rdf-syntax-ns#"
   xmlns:svg="http://www.w3.org/2000/svg"
   xmlns="http://www.w3.org/2000/svg"
   xmlns:sodipodi="http://sodipodi.sourceforge.net/DTD/sodipodi-0.dtd"
   xmlns:inkscape="http://www.inkscape.org/namespaces/inkscape"
   width="48"
   height="48"
   viewBox="0 0 12.7 12.7"
   version="1.1"
   id="svg6"
   sodipodi:docname="john.svg"
   inkscape:version="0.92.5 (2060ec1f9f, 2020-04-08)">
  <metadata
     id="metadata12">
    <rdf:RDF>
      <cc:Work
         rdf:about="">
        <dc:format>image/svg+xml</dc:format>
        <dc:type
           rdf:resource="http://purl.org/dc/dcmitype/StillImage" />
        <dc:title></dc:title>
      </cc:Work>
    </rdf:RDF>
  </metadata>
  <defs
     id="defs10" />
  <sodipodi:namedview
     pagecolor="#ffffff"
     bordercolor="#666666"
     borderopacity="1"
     objecttolerance="10"
     gridtolerance="10"
     guidetolerance="10"
     inkscape:pageopacity="0"
     inkscape:pageshadow="2"
     inkscape:window-width="1085"
     inkscape:window-height="480"
     id="namedview8"
     showgrid="false"
     inkscape:zoom="4.9166667"
     inkscape:cx="2.1355932"
     inkscape:cy="24"
     inkscape:window-x="0"
     inkscape:window-y="25"
     inkscape:window-maximized="0"
     inkscape:current-layer="svg6" />
  <path
     d="M 6.34,0.075 A 6.295,6.295 0 0 0 0.055,6.36 6.295,6.295 0 0 0 6.34,12.655 6.295,6.295 0 0 0 12.634,6.36 6.295,6.295 0 0 0 6.34,0.075 Z m -0.01,0.94 a 5.408,5.408 0 0 1 5.396,5.387 5.407,5.407 0 1 1 -10.814,0 c 0,-2.987 2.43,-5.387 5.417,-5.387 z"
     id="path2"
     inkscape:connector-curvature="0"
     style="fill:#5beedc" />
  <path
     d="m 1.99,8.057 a 4.586,4.586 0 0 0 0.138,0.332 4.586,4.586 0 0 0 0.216,0.404 4.586,4.586 0 0 0 0.256,0.381 4.586,4.586 0 0 0 0.293,0.353 4.586,4.586 0 0 0 0.326,0.322 4.586,4.586 0 0 0 0.356,0.288 4.586,4.586 0 0 0 0.384,0.251 4.586,4.586 0 0 0 0.407,0.211 4.586,4.586 0 0 0 0.425,0.17 4.586,4.586 0 0 0 0.441,0.126 4.586,4.586 0 0 0 0.451,0.082 4.586,4.586 0 0 0 0.457,0.036 4.586,4.586 0 0 0 0.458,-0.01 4.586,4.586 0 0 0 0.455,-0.054 4.586,4.586 0 0 0 0.448,-0.1 4.586,4.586 0 0 0 0.435,-0.145 4.586,4.586 0 0 0 0.418,-0.188 4.586,4.586 0 0 0 0.398,-0.228 4.586,4.586 0 0 0 0.373,-0.266 4.586,4.586 0 0 0 0.344,-0.303 4.586,4.586 0 0 0 0.313,-0.335 4.586,4.586 0 0 0 0.273,-0.36 C 9.915,8.65 9.702,8.072 9.388,7.221 9.278,6.921 9.162,6.644 9.132,6.606 9.072,6.529 8.882,6.422 8.805,6.422 8.778,6.422 8.749,6.406 8.742,6.386 A 3.369,3.369 0 0 1 8.728,5.993 C 8.728,5.796 8.72,5.631 8.71,5.627 A 8.647,8.647 0 0 1 8.28,5.122 C 8.228,5.057 8.219,5.054 7.997,5.042 L 7.767,5.028 7.561,4.892 A 1.579,1.579 0 0 0 7.293,4.74 C 7.233,4.725 7.231,4.72 7.241,4.615 7.248,4.542 7.299,4.408 7.393,4.215 7.883,3.209 7.92,3.124 7.904,3.043 7.883,2.927 7.793,2.853 7.499,2.709 6.803,2.367 6.093,2.149 5.673,2.149 5.485,2.149 5.464,2.176 5.43,2.467 A 32.291,32.291 0 0 1 5.222,3.794 L 5.198,3.912 H 5.054 c -0.255,0 -0.486,0.123 -0.486,0.259 0,0.11 0.13,0.21 0.309,0.236 l 0.097,0.014 -0.228,0.294 0.012,0.35 c 0.006,0.193 0.018,0.39 0.027,0.436 L 4.8,5.585 4.6,5.571 C 4.3,5.551 4.307,5.536 4.312,6.125 4.314,6.381 4.322,6.649 4.33,6.721 L 4.34,6.817 3.256,7.39 Z M 5.314,3.954 a 0.325,0.325 0 0 1 0.067,0.007 c 0.265,0.042 1.115,0.37 1.547,0.596 L 7.132,4.664 7.126,4.796 A 0.585,0.585 0 0 1 7.096,4.971 C 7.061,5.037 6.986,5.021 6.849,4.921 6.402,4.591 5.85,4.274 5.454,4.121 5.311,4.066 5.29,4.051 5.29,4.001 5.29,3.969 5.291,3.956 5.314,3.954 Z m 1.838,1.175 0.09,0.014 c 0.05,0.008 0.1,0.02 0.11,0.026 0.01,0.006 0.01,0.061 0.004,0.123 -0.013,0.107 -0.01,0.116 0.08,0.214 0.083,0.09 0.094,0.113 0.094,0.21 0,0.214 0.099,0.42 0.318,0.66 0.179,0.197 0.192,0.25 0.063,0.25 -0.084,0 -0.146,0.031 -0.178,0.09 -0.027,0.05 -0.006,0.104 0.08,0.208 a 0.99,0.99 0 0 1 0.109,0.183 c 0.09,0.19 0.309,0.853 0.309,0.935 0,0.042 -0.01,0.075 -0.022,0.075 A 0.447,0.447 0 0 1 8.098,7.997 2.03,2.03 0 0 0 7.552,7.513 C 7.196,7.319 6.987,7.163 6.929,7.052 6.896,6.988 6.897,6.987 7.156,6.688 7.5,6.29 7.5,6.264 7.158,6.056 L 7.046,5.988 7.119,5.958 C 7.159,5.94 7.197,5.911 7.204,5.893 7.211,5.875 7.181,5.779 7.136,5.68 7.046,5.479 7.039,5.437 7.091,5.379 A 0.323,0.323 0 0 0 7.14,5.233 Z m 0.549,0.163 c 0.04,0 0.1,0.053 0.1,0.09 C 7.801,5.447 7.763,5.456 7.723,5.4 7.688,5.35 7.676,5.292 7.701,5.292 Z"
     id="path4"
     inkscape:connector-curvature="0"
     style="opacity:0.8;fill:#ff2a2a" />
</svg>
