<?xml version="1.0" encoding="UTF-8" standalone="no"?>
<svg
   xmlns:dc="http://purl.org/dc/elements/1.1/"
   xmlns:cc="http://creativecommons.org/ns#"
   xmlns:rdf="http://www.w3.org/1999/02/22-rdf-syntax-ns#"
   xmlns:svg="http://www.w3.org/2000/svg"
   xmlns="http://www.w3.org/2000/svg"
   xmlns:sodipodi="http://sodipodi.sourceforge.net/DTD/sodipodi-0.dtd"
   xmlns:inkscape="http://www.inkscape.org/namespaces/inkscape"
   width="48"
   height="48"
   viewBox="0 0 12.7 12.7"
   version="1.1"
   id="svg4"
   sodipodi:docname="jsql.svg"
   inkscape:version="0.92.5 (2060ec1f9f, 2020-04-08)">
  <defs
     id="defs8">
  <style
     id="current-color-scheme"
     type="text/css">
      .ColorScheme-Highlight {
        color:#5beedc;
      }
  </style>
  </defs>
  <path
     class="ColorScheme-Highlight"
     style="fill:#5beedc"
     d="M 24 0 A 24 24 0 0 0 0 24 A 24 24 0 0 0 24 48 A 24 24 0 0 0 27.875 47.65625 C 28.195232 47.873881 28.581976 48 29 48 L 46 48 C 47.107999 48 48 47.108003 48 46 L 48 29 C 48 28.591093 47.87892 28.212575 47.669922 27.896484 A 24 24 0 0 0 48 24 A 24 24 0 0 0 24 0 z M 24 3 A 21 21 0 0 1 45 24 A 21 21 0 0 1 44.757812 27 L 29 27 C 28.308044 27 27.698664 27.347776 27.339844 27.878906 C 27.339562 27.879323 27.340125 27.880442 27.339844 27.880859 A 12 3 0 0 1 27.210938 27.890625 A 12 3 0 0 1 26.039062 27.957031 A 12 3 0 0 1 24.849609 27.992188 A 12 3 0 0 1 24 28 A 12 3 0 0 1 22.802734 27.984375 A 12 3 0 0 1 21.615234 27.939453 A 12 3 0 0 1 20.453125 27.865234 A 12 3 0 0 1 19.326172 27.763672 A 12 3 0 0 1 18.246094 27.632812 A 12 3 0 0 1 17.224609 27.476562 A 12 3 0 0 1 16.269531 27.294922 A 12 3 0 0 1 15.392578 27.089844 A 12 3 0 0 1 14.599609 26.865234 A 12 3 0 0 1 13.902344 26.621094 A 12 3 0 0 1 13.304688 26.361328 A 12 3 0 0 1 12.816406 26.087891 A 12 3 0 0 1 12.4375 25.802734 A 12 3 0 0 1 12.173828 25.509766 A 12 3 0 0 1 12.029297 25.212891 A 12 3 0 0 1 12 25 L 12 29 A 12 3 0 0 0 24 32 A 12 3 0 0 0 27 31.900391 L 27 33.902344 A 12 3 0 0 1 26.039062 33.957031 A 12 3 0 0 1 24.849609 33.992188 A 12 3 0 0 1 24 34 A 12 3 0 0 1 22.802734 33.984375 A 12 3 0 0 1 21.615234 33.939453 A 12 3 0 0 1 20.453125 33.865234 A 12 3 0 0 1 19.326172 33.763672 A 12 3 0 0 1 18.246094 33.632812 A 12 3 0 0 1 17.224609 33.476562 A 12 3 0 0 1 16.269531 33.294922 A 12 3 0 0 1 15.392578 33.089844 A 12 3 0 0 1 14.599609 32.865234 A 12 3 0 0 1 13.902344 32.621094 A 12 3 0 0 1 13.304688 32.361328 A 12 3 0 0 1 12.816406 32.087891 A 12 3 0 0 1 12.4375 31.802734 A 12 3 0 0 1 12.173828 31.509766 A 12 3 0 0 1 12.029297 31.212891 A 12 3 0 0 1 12 31 L 12 35 A 12 3 0 0 0 24 38 A 12 3 0 0 0 27 37.900391 L 27 44.763672 A 21 21 0 0 1 24 45 A 21 21 0 0 1 3 24 A 21 21 0 0 1 24 3 z M 24 10 A 12 3 0 0 0 12 13 L 12 17 A 12 3 0 0 0 24 20 A 12 3 0 0 0 36 17 L 36 13 A 12 3 0 0 0 24 10 z M 12 19 L 12 23 A 12 3 0 0 0 24 26 A 12 3 0 0 0 36 23 L 36 19 A 12 3 0 0 1 35.939453 19.298828 A 12 3 0 0 1 35.761719 19.595703 A 12 3 0 0 1 35.464844 19.886719 A 12 3 0 0 1 35.052734 20.167969 A 12 3 0 0 1 34.53125 20.4375 A 12 3 0 0 1 33.904297 20.693359 A 12 3 0 0 1 33.177734 20.933594 A 12 3 0 0 1 32.361328 21.152344 A 12 3 0 0 1 31.458984 21.349609 A 12 3 0 0 1 30.484375 21.523438 A 12 3 0 0 1 29.443359 21.673828 A 12 3 0 0 1 28.347656 21.796875 A 12 3 0 0 1 27.210938 21.890625 A 12 3 0 0 1 26.039062 21.957031 A 12 3 0 0 1 24.849609 21.992188 A 12 3 0 0 1 24 22 A 12 3 0 0 1 22.802734 21.984375 A 12 3 0 0 1 21.615234 21.939453 A 12 3 0 0 1 20.453125 21.865234 A 12 3 0 0 1 19.326172 21.763672 A 12 3 0 0 1 18.246094 21.632812 A 12 3 0 0 1 17.224609 21.476562 A 12 3 0 0 1 16.269531 21.294922 A 12 3 0 0 1 15.392578 21.089844 A 12 3 0 0 1 14.599609 20.865234 A 12 3 0 0 1 13.902344 20.621094 A 12 3 0 0 1 13.304688 20.361328 A 12 3 0 0 1 12.816406 20.087891 A 12 3 0 0 1 12.4375 19.802734 A 12 3 0 0 1 12.173828 19.509766 A 12 3 0 0 1 12.029297 19.212891 A 12 3 0 0 1 12 19 z M 34 29 L 34.744141 29 L 37.007812 31.083984 A 1.5 1.5 0 0 1 37.5 31 A 1.5 1.5 0 0 1 37.935547 31.064453 L 40 29 L 41 29 L 41 30 L 38.933594 32.066406 A 1.5 1.5 0 0 1 39 32.5 A 1.5 1.5 0 0 1 38.816406 33.21875 C 39.336397 33.390144 39.809674 33.657849 40.224609 34 L 42 34 L 44 32 L 45 32 L 45 33 L 43 35 L 42 35 L 41 35 L 37.5 36.75 L 34 35 L 33 35 L 32 35 L 30 33 L 30 32 L 31 32 L 33 34 L 34.775391 34 C 35.190953 33.657333 35.664626 33.388153 36.185547 33.216797 A 1.5 1.5 0 0 1 36 32.5 A 1.5 1.5 0 0 1 36.064453 32.064453 L 34 30 L 34 29 z M 33.275391 36.136719 L 37 38 L 37 45.898438 C 35.271728 45.699256 33.841467 44.565994 33.271484 43 L 32 43 L 30 46 L 29 46 L 29 45 L 31 42 L 32 42 L 33.046875 42 C 33.027977 41.834343 33 41.671485 33 41.5 L 33 39 L 30 41 L 29 41 L 29 40 L 32 38 L 33 38 L 33 37.5 C 33 37.015517 33.134981 36.573329 33.275391 36.136719 z M 41.724609 36.136719 C 41.865019 36.573329 42 37.015517 42 37.5 L 42 38 L 43 38 L 46 40 L 46 41 L 45 41 L 42 39 L 42 41.5 C 42 41.671477 41.972023 41.834336 41.953125 42 L 43 42 L 44 42 L 46 45 L 46 46 L 45 46 L 43 43 L 41.728516 43 C 41.158533 44.565994 39.728268 45.699253 38 45.898438 L 38 38 L 41.724609 36.136719 z "
     transform="scale(0.26458333)"
     id="path979" />
</svg>
