<?xml version="1.0" encoding="UTF-8" standalone="no"?>
<svg
   xmlns:dc="http://purl.org/dc/elements/1.1/"
   xmlns:cc="http://creativecommons.org/ns#"
   xmlns:rdf="http://www.w3.org/1999/02/22-rdf-syntax-ns#"
   xmlns:svg="http://www.w3.org/2000/svg"
   xmlns="http://www.w3.org/2000/svg"
   xmlns:sodipodi="http://sodipodi.sourceforge.net/DTD/sodipodi-0.dtd"
   xmlns:inkscape="http://www.inkscape.org/namespaces/inkscape"
   width="48"
   height="48"
   viewBox="0 0 12.7 12.7"
   version="1.1"
   id="svg16"
   sodipodi:docname="rcracki-mt.svg"
   inkscape:version="0.92.5 (2060ec1f9f, 2020-04-08)">
  <metadata
     id="metadata22">
    <rdf:RDF>
      <cc:Work
         rdf:about="">
        <dc:format>image/svg+xml</dc:format>
        <dc:type
           rdf:resource="http://purl.org/dc/dcmitype/StillImage" />
        <dc:title></dc:title>
      </cc:Work>
    </rdf:RDF>
  </metadata>
  <defs
     id="defs20" />
  <sodipodi:namedview
     pagecolor="#ffffff"
     bordercolor="#666666"
     borderopacity="1"
     objecttolerance="10"
     gridtolerance="10"
     guidetolerance="10"
     inkscape:pageopacity="0"
     inkscape:pageshadow="2"
     inkscape:window-width="1085"
     inkscape:window-height="480"
     id="namedview18"
     showgrid="false"
     inkscape:zoom="4.9166667"
     inkscape:cx="2.1355932"
     inkscape:cy="24"
     inkscape:window-x="0"
     inkscape:window-y="25"
     inkscape:window-maximized="0"
     inkscape:current-layer="svg16" />
  <path
     d="M 6.34,0.075 A 6.295,6.295 0 0 0 0.055,6.36 6.295,6.295 0 0 0 6.34,12.655 6.295,6.295 0 0 0 12.634,6.36 6.295,6.295 0 0 0 6.34,0.075 Z m -0.01,0.94 a 5.408,5.408 0 0 1 5.396,5.387 5.407,5.407 0 1 1 -10.814,0 c 0,-2.987 2.43,-5.387 5.417,-5.387 z"
     id="path2"
     inkscape:connector-curvature="0"
     style="fill:#5beedc" />
  <circle
     r="1.512"
     cy="3.0999999"
     cx="6.085"
     id="circle4"
     style="opacity:0.8;fill:#367bf0;paint-order:stroke fill markers" />
  <circle
     cx="9.0380001"
     cy="4.585"
     r="1.544"
     id="circle6"
     style="opacity:0.8;fill:#0ca15e;paint-order:stroke fill markers" />
  <circle
     cx="3.6700001"
     cy="8.1400003"
     r="1.544"
     id="circle8"
     style="opacity:0.8;fill:#d41919;paint-order:stroke fill markers" />
  <circle
     cx="6.5609999"
     cy="9.5679998"
     r="1.544"
     id="circle10"
     style="opacity:0.8;fill:#fd7d00;paint-order:stroke fill markers" />
  <circle
     cx="9.1859999"
     cy="7.77"
     r="1.544"
     id="circle12"
     style="opacity:0.8;fill:#f8de68;paint-order:stroke fill markers" />
  <circle
     cx="3.5139999"
     cy="4.9349999"
     r="1.544"
     id="circle14"
     style="opacity:0.8;fill:#8c42ab;paint-order:stroke fill markers" />
</svg>
