<?xml version="1.0" encoding="UTF-8" standalone="no"?>
<svg
   xmlns:dc="http://purl.org/dc/elements/1.1/"
   xmlns:cc="http://creativecommons.org/ns#"
   xmlns:rdf="http://www.w3.org/1999/02/22-rdf-syntax-ns#"
   xmlns:svg="http://www.w3.org/2000/svg"
   xmlns="http://www.w3.org/2000/svg"
   xmlns:sodipodi="http://sodipodi.sourceforge.net/DTD/sodipodi-0.dtd"
   xmlns:inkscape="http://www.inkscape.org/namespaces/inkscape"
   width="48"
   height="48"
   viewBox="0 0 12.7 12.7"
   version="1.1"
   id="svg4"
   sodipodi:docname="kali-web-application-trans.svg"
   inkscape:version="0.92.5 (2060ec1f9f, 2020-04-08)">
  <defs
     id="defs8">
    <style
       id="current-color-scheme"
       type="text/css">
      .ColorScheme-Highlight {
        color:#5beedc;
      }
  </style>
  </defs>
  <path
     class="ColorScheme-Highlight"
     style="fill:#5beedc"
     d="M 24 0 A 24 24 0 0 0 0 24 A 24 24 0 0 0 3 35.607422 L 3 36 L 3.2402344 36 A 24 24 0 0 0 24 48 A 24 24 0 0 0 48 24 A 24 24 0 0 0 24 0 z M 25 3.0507812 A 21 21 0 0 1 26.890625 3.2246094 A 30.985071 31.038582 0 0 1 32.900391 13 L 25 13 L 25 3.0507812 z M 22 3.1152344 L 22 13 L 15.072266 13 A 30.985071 31.038582 0 0 1 21.064453 3.2285156 A 21 21 0 0 1 22 3.1152344 z M 16.236328 4.4980469 A 33.975352 33.988343 0 0 0 11.863281 13 L 6.1425781 13 A 21 21 0 0 1 16.236328 4.4980469 z M 31.771484 4.5097656 A 21 21 0 0 1 41.869141 13 L 36.076172 13 A 33.975352 33.988343 0 0 0 31.771484 4.5097656 z M 4.59375 16 L 10.970703 16 A 33.975352 33.988343 0 0 0 10.019531 23 L 3.0507812 23 A 21 21 0 0 1 4.59375 16 z M 14.101562 16 L 22 16 L 22 23 L 13.052734 23 A 30.985071 31.038582 0 0 1 14.101562 16 z M 25 16 L 33.873047 16 A 30.985071 31.038582 0 0 1 34.921875 23 L 25 23 L 25 16 z M 36.949219 16 L 43.396484 16 A 21 21 0 0 1 44.964844 23 L 37.900391 23 A 33.975352 33.988343 0 0 0 36.949219 16 z M 3.1152344 26 L 10.099609 26 A 33.975352 33.988343 0 0 0 11.251953 33 L 5.0507812 33 A 21 21 0 0 1 3.1152344 26 z M 13.101562 26 L 22 26 L 22 33 L 14.369141 33 A 30.985071 31.038582 0 0 1 13.101562 26 z M 25 26 L 34.871094 26 A 30.985071 31.038582 0 0 1 33.634766 33 L 25 33 L 25 26 z M 37.847656 26 L 44.898438 26 A 21 21 0 0 1 42.945312 33 L 36.685547 33 A 33.975352 33.988343 0 0 0 37.847656 26 z M 6.796875 36 L 12.230469 36 A 33.975352 33.988343 0 0 0 16.132812 43.455078 A 21 21 0 0 1 6.796875 36 z M 15.449219 36 L 22 36 L 22 44.898438 A 21 21 0 0 1 20.966797 44.753906 A 30.985071 31.038582 0 0 1 15.449219 36 z M 25 36 L 32.560547 36 A 30.985071 31.038582 0 0 1 26.992188 44.765625 A 21 21 0 0 1 25 44.964844 L 25 36 z M 35.701172 36 L 41.224609 36 A 21 21 0 0 1 31.75 43.509766 A 33.975352 33.988343 0 0 0 35.701172 36 z "
     transform="scale(0.26458333)"
     id="path817" />
</svg>
