<?xml version="1.0" encoding="UTF-8" standalone="no"?>
<svg
   xmlns:dc="http://purl.org/dc/elements/1.1/"
   xmlns:cc="http://creativecommons.org/ns#"
   xmlns:rdf="http://www.w3.org/1999/02/22-rdf-syntax-ns#"
   xmlns:svg="http://www.w3.org/2000/svg"
   xmlns="http://www.w3.org/2000/svg"
   xmlns:xlink="http://www.w3.org/1999/xlink"
   xmlns:sodipodi="http://sodipodi.sourceforge.net/DTD/sodipodi-0.dtd"
   xmlns:inkscape="http://www.inkscape.org/namespaces/inkscape"
   width="48"
   height="48"
   viewBox="0 0 12.7 12.7"
   version="1.1"
   id="svg16"
   sodipodi:docname="istanbul.svg"
   inkscape:version="0.92.4 (5da689c313, 2019-01-14)">
  <metadata
     id="metadata20">
    <rdf:RDF>
      <cc:Work
         rdf:about="">
        <dc:format>image/svg+xml</dc:format>
        <dc:type
           rdf:resource="http://purl.org/dc/dcmitype/StillImage" />
        <dc:title></dc:title>
      </cc:Work>
    </rdf:RDF>
  </metadata>
  <sodipodi:namedview
     pagecolor="#ffffff"
     bordercolor="#666666"
     borderopacity="1"
     objecttolerance="10"
     gridtolerance="10"
     guidetolerance="10"
     inkscape:pageopacity="0"
     inkscape:pageshadow="2"
     inkscape:window-width="1087"
     inkscape:window-height="480"
     id="namedview18"
     showgrid="false"
     inkscape:zoom="4.9166667"
     inkscape:cx="2.1355932"
     inkscape:cy="24"
     inkscape:window-x="0"
     inkscape:window-y="25"
     inkscape:window-maximized="0"
     inkscape:current-layer="svg16" />
  <defs
     id="defs8">
    <radialGradient
       id="b"
       cx="22.5"
       cy="28.116"
       r="14.538"
       fx="22.5"
       fy="28.116"
       gradientTransform="matrix(0.34637,0,0,0.3467,-3.7,281.799)"
       gradientUnits="userSpaceOnUse"
       xlink:href="#a" />
    <linearGradient
       id="a">
      <stop
         offset="0"
         stop-color="#ef2929"
         id="stop3" />
      <stop
         offset="1"
         stop-color="#c00"
         id="stop5" />
    </linearGradient>
  </defs>
  <g
     transform="translate(0,-284.3)"
     id="g14">
    <path
       d="m 6.344,284.373 a 6.29,6.29 0 0 0 -6.29,6.29 6.29,6.29 0 0 0 6.29,6.288 6.29,6.29 0 0 0 6.29,-6.289 6.29,6.29 0 0 0 -6.29,-6.29 z m -0.018,0.936 a 5.407,5.407 0 0 1 5.407,5.407 5.407,5.407 0 0 1 -5.407,5.407 5.407,5.407 0 0 1 -5.407,-5.407 5.407,5.407 0 0 1 5.407,-5.407 z m 0.6,3.583 v 3.73 l 3.73,-1.865 z"
       id="path10"
       inkscape:connector-curvature="0"
       style="fill:#5beedc" />
    <ellipse
       cx="4.0939999"
       cy="290.64999"
       overflow="visible"
       rx="2.05"
       ry="2.046"
       style="overflow:visible;opacity:0.75;fill:url(#b);fill-rule:evenodd;marker:none"
       id="ellipse12" />
  </g>
</svg>
