<?xml version="1.0" encoding="UTF-8" standalone="no"?>
<svg
   xmlns:dc="http://purl.org/dc/elements/1.1/"
   xmlns:cc="http://creativecommons.org/ns#"
   xmlns:rdf="http://www.w3.org/1999/02/22-rdf-syntax-ns#"
   xmlns:svg="http://www.w3.org/2000/svg"
   xmlns="http://www.w3.org/2000/svg"
   xmlns:sodipodi="http://sodipodi.sourceforge.net/DTD/sodipodi-0.dtd"
   xmlns:inkscape="http://www.inkscape.org/namespaces/inkscape"
   width="48"
   height="48"
   viewBox="0 0 12.7 12.7"
   version="1.1"
   id="svg4"
   sodipodi:docname="mimikatz.svg"
   inkscape:version="0.92.5 (2060ec1f9f, 2020-04-08)">
  <metadata
     id="metadata10">
    <rdf:RDF>
      <cc:Work
         rdf:about="">
        <dc:format>image/svg+xml</dc:format>
        <dc:type
           rdf:resource="http://purl.org/dc/dcmitype/StillImage" />
        <dc:title></dc:title>
      </cc:Work>
    </rdf:RDF>
  </metadata>
  <defs
     id="defs8" />
  <sodipodi:namedview
     pagecolor="#ffffff"
     bordercolor="#666666"
     borderopacity="1"
     objecttolerance="10"
     gridtolerance="10"
     guidetolerance="10"
     inkscape:pageopacity="0"
     inkscape:pageshadow="2"
     inkscape:window-width="1085"
     inkscape:window-height="480"
     id="namedview6"
     showgrid="false"
     inkscape:zoom="4.9166667"
     inkscape:cx="2.1355932"
     inkscape:cy="24"
     inkscape:window-x="0"
     inkscape:window-y="25"
     inkscape:window-maximized="0"
     inkscape:current-layer="svg4" />
  <path
     d="M 6.34,0.075 A 6.295,6.295 0 0 0 0.055,6.36 6.295,6.295 0 0 0 6.34,12.655 6.295,6.295 0 0 0 12.634,6.36 6.295,6.295 0 0 0 6.34,0.075 Z m -0.011,0.94 a 5.408,5.408 0 0 1 5.397,5.387 5.407,5.407 0 0 1 -10.814,0 c 0,-2.987 2.43,-5.387 5.417,-5.387 z M 5.193,2.968 5.073,2.969 c -0.122,0.003 -0.22,0.006 -0.3,0.01 -0.08,0.004 -0.145,0.01 -0.2,0.018 H 4.572 A 0.95,0.95 0 0 0 4.422,3.031 1.556,1.556 0 0 0 4.272,3.09 4.874,4.874 0 0 1 3.672,3.286 2.867,2.867 0 0 0 3.402,3.366 0.592,0.592 0 0 0 3.249,3.438 C 3.207,3.476 3.186,3.486 3.172,3.471 A 0.067,0.067 0 0 1 3.159,3.447 C 3.157,3.439 3.152,3.435 3.146,3.434 c -0.02,0 -0.052,0.034 -0.09,0.098 A 0.793,0.793 0 0 1 2.834,3.754 0.331,0.331 0 0 0 2.741,3.826 C 2.728,3.845 2.733,3.859 2.753,3.871 2.773,3.883 2.772,3.901 2.748,3.927 A 0.785,0.785 0 0 1 2.603,4.033 0.765,0.765 0 0 0 2.467,4.132 C 2.448,4.152 2.454,4.162 2.483,4.164 2.5,4.164 2.511,4.166 2.516,4.172 2.521,4.177 2.52,4.186 2.513,4.198 A 0.825,0.825 0 0 1 2.381,4.328 0.846,0.846 0 0 0 2.226,4.495 C 2.22,4.506 2.218,4.515 2.221,4.518 2.235,4.532 2.201,4.61 2.147,4.692 A 0.579,0.579 0 0 0 2.046,4.94 0.426,0.426 0 0 1 1.988,5.131 V 5.132 A 0.908,0.908 0 0 0 1.9,5.328 C 1.886,5.378 1.879,5.404 1.884,5.407 1.889,5.41 1.907,5.389 1.94,5.349 L 1.945,5.344 C 1.972,5.311 1.99,5.29 1.996,5.294 L 1.997,5.295 C 2.003,5.302 2,5.331 1.992,5.39 A 0.936,0.936 0 0 1 1.962,5.514 L 1.96,5.52 C 1.95,5.554 1.936,5.587 1.923,5.621 L 1.917,5.638 1.902,5.68 A 0.648,0.648 0 0 0 1.851,5.812 c 0,0.012 0.018,0 0.052,-0.028 a 0.33,0.33 0 0 1 0.04,-0.03 C 1.969,5.738 1.967,5.76 1.949,5.834 1.934,5.894 1.909,5.979 1.894,6.021 1.883,6.052 1.879,6.069 1.884,6.072 1.888,6.076 1.9,6.067 1.923,6.046 L 1.932,6.039 C 1.961,6.014 1.996,5.993 2.012,5.993 2.06,5.993 2.054,6.192 2.005,6.222 1.979,6.238 1.981,6.275 2.011,6.322 2.017,6.332 2.019,6.34 2.023,6.348 L 2.031,6.364 V 6.365 C 2.042,6.404 2.03,6.439 1.99,6.496 A 0.375,0.375 0 0 0 1.921,6.637 C 1.922,6.648 1.927,6.653 1.934,6.649 A 0.091,0.091 0 0 0 1.963,6.618 C 1.979,6.593 1.989,6.583 1.995,6.587 2.001,6.592 2.003,6.612 2.003,6.649 L 2.004,6.652 V 6.665 C 2.006,6.664 2.005,6.663 2.006,6.661 2.01,6.706 2.03,6.738 2.056,6.732 c 0.033,-0.006 0.057,0.05 0.065,0.15 0.013,0.152 0.017,0.156 0.09,0.09 0.09,-0.082 0.162,-0.01 0.083,0.084 -0.04,0.047 -0.04,0.061 -10e-4,0.061 0.034,0 0.041,0.044 0.024,0.135 L 2.292,7.388 2.293,7.385 V 7.388 L 2.323,7.334 2.357,7.273 C 2.447,7.114 2.467,7.13 2.434,7.335 2.432,7.35 2.434,7.348 2.432,7.36 A 0.439,0.439 0 0 0 2.422,7.471 L 2.425,7.48 c 0.004,0.004 0.01,0.004 0.018,0 V 7.478 C 2.454,7.471 2.469,7.458 2.489,7.44 2.611,7.332 2.657,7.35 2.635,7.498 A 0.281,0.281 0 0 0 2.633,7.58 0.044,0.044 0 0 0 2.639,7.597 V 7.601 C 2.644,7.606 2.65,7.608 2.658,7.603 2.68,7.589 2.723,7.628 2.753,7.69 2.797,7.782 2.812,7.79 2.825,7.73 2.849,7.629 2.919,7.64 2.919,7.745 2.919,7.87 3.039,8.116 3.17,8.262 3.252,8.352 3.29,8.45 3.31,8.615 3.326,8.741 3.35,8.914 3.363,8.999 3.379,9.101 3.375,9.146 3.325,9.206 V 9.207 A 0.79,0.79 0 0 1 3.258,9.275 L 3.128,9.396 H 3.13 3.129 L 3.339,9.382 3.359,9.38 c 0.192,-0.013 0.253,0 0.363,0.081 0.073,0.054 0.199,0.123 0.279,0.153 0.08,0.03 0.163,0.07 0.184,0.09 0.01,0.008 0.013,0.007 0.02,0.012 0.007,0.005 0.018,0.013 0.023,0.014 0.001,0 0,-0.003 0.002,-0.004 0.004,-0.002 0.005,-0.01 0.003,-0.02 V 9.705 C 4.231,9.698 4.221,9.68 4.217,9.67 4.207,9.642 4.198,9.615 4.167,9.56 L 4.159,9.556 C 4.145,9.53 4.145,9.522 4.126,9.49 l -0.128,-0.218 0.2,0.115 c 0.109,0.062 0.273,0.128 0.365,0.146 0.091,0.017 0.208,0.045 0.26,0.061 0.043,0.013 0.07,0.017 0.083,0.013 H 4.907 C 4.947,9.592 4.857,9.501 4.665,9.372 A 2.358,2.358 0 0 0 4.388,9.22 2.822,2.822 0 0 0 4.079,9.092 2.53,2.53 0 0 1 3.839,8.999 C 3.776,8.971 3.735,8.946 3.732,8.933 A 2.573,2.573 0 0 1 3.695,8.693 V 8.698 L 3.693,8.688 C 3.671,8.508 3.68,8.48 3.79,8.382 a 0.773,0.773 0 0 0 0.172,-0.23 c 0.049,-0.12 0.224,-0.244 0.34,-0.244 0.032,0 0.14,0.053 0.243,0.118 0.17,0.107 0.195,0.146 0.286,0.437 l 0.1,0.32 -0.14,0.145 C 4.71,9.012 4.671,9.053 4.683,9.063 4.689,9.068 4.707,9.066 4.739,9.056 A 2.98,2.98 0 0 0 4.879,9.009 L 4.91,9 C 5.048,8.953 5.068,8.956 5.124,9.029 5.19,9.115 5.425,9.275 5.588,9.364 L 5.59,9.368 c 0.014,0.008 0.022,0.01 0.034,0.016 l 0.003,0.002 c 0.025,0.013 0.049,0.026 0.067,0.033 a 0.28,0.28 0 0 0 0.02,0.007 L 5.73,9.429 c 0.012,0.002 0.02,0 0.02,-0.007 A 0.576,0.576 0 0 0 5.665,9.282 L 5.659,9.278 5.646,9.258 C 5.482,9.042 5.509,8.968 5.696,9.116 a 0.388,0.388 0 0 0 0.19,0.083 c 0.046,0 0.165,0.04 0.264,0.09 0.051,0.026 0.1,0.045 0.138,0.056 C 6.326,9.355 6.352,9.358 6.361,9.35 6.392,9.32 6.329,9.244 6.213,9.153 A 2.294,2.294 0 0 0 6.003,9.01 3.196,3.196 0 0 0 5.742,8.866 L 5.359,8.679 5.221,8.313 5.186,8.211 5.175,8.177 C 5.129,8.04 5.097,7.923 5.107,7.907 5.145,7.845 5.231,7.86 5.345,7.95 5.453,8.035 5.693,8.069 5.646,7.992 5.609,7.932 5.712,7.944 5.834,8.012 5.891,8.046 5.984,8.072 6.041,8.07 6.143,8.068 6.143,8.067 6.021,8.01 5.903,7.955 5.91,7.954 6.146,7.979 6.283,7.993 6.406,8.022 6.42,8.042 6.434,8.063 6.504,8.031 6.576,7.97 6.659,7.9 6.698,7.884 6.682,7.926 6.644,8.024 6.755,8.008 6.931,7.889 7.022,7.827 7.082,7.807 7.083,7.837 7.083,7.865 7.121,7.841 7.165,7.784 7.21,7.727 7.247,7.697 7.248,7.718 c 0,0.06 0.208,-0.15 0.208,-0.212 0,-0.03 0.087,-0.095 0.192,-0.144 C 7.753,7.312 7.848,7.242 7.86,7.205 7.93,6.996 7.984,6.91 8.048,6.91 8.152,6.91 8.205,6.78 8.206,6.528 8.207,6.406 8.22,6.328 8.237,6.353 8.336,6.5 8.815,6.582 8.974,6.478 9.021,6.448 9.176,6.42 9.32,6.416 L 9.582,6.408 9.522,6.503 a 0.769,0.769 0 0 0 -0.05,0.1 C 9.466,6.615 9.464,6.626 9.459,6.638 L 9.458,6.643 C 9.45,6.663 9.44,6.685 9.436,6.702 9.432,6.716 9.432,6.724 9.435,6.727 9.441,6.734 9.472,6.69 9.516,6.608 L 9.52,6.602 C 9.651,6.36 9.722,6.352 9.69,6.588 9.688,6.608 9.69,6.605 9.687,6.62 V 6.618 A 0.571,0.571 0 0 0 9.678,6.712 c 0,0.002 0.004,-0.007 0.005,-0.008 L 9.684,6.702 C 9.687,6.7 9.69,6.702 9.698,6.68 L 9.697,6.674 C 9.702,6.663 9.702,6.668 9.71,6.646 9.753,6.533 9.757,6.532 9.802,6.612 c 0.026,0.047 0.11,0.193 0.188,0.326 0.18,0.308 0.427,0.973 0.547,1.474 0.078,0.323 0.123,0.479 0.14,0.479 v 0.002 c 0.001,0 0,0 0,0 h 0.001 C 10.682,8.891 10.683,8.876 10.684,8.858 10.686,8.828 10.684,8.781 10.677,8.7 10.675,8.678 10.668,8.644 10.665,8.62 10.622,8.25 10.475,7.584 10.283,6.902 10.193,6.585 10.12,6.317 10.12,6.306 c 0,-0.044 0.08,-0.015 0.233,0.085 l 0.161,0.104 -0.12,-0.111 H 10.393 V 6.383 L 10.333,6.328 C 10.231,6.235 10.159,6.15 10.171,6.138 c 0.012,-0.012 0.12,0.016 0.242,0.062 0.046,0.017 0.073,0.025 0.101,0.033 h -0.006 l 0.017,0.004 0.03,0.008 c 0.006,0 0.015,0.003 0.018,0.004 0.008,0 0.007,-0.003 0.008,-0.005 0.001,-0.002 0.005,-10e-4 0.004,-0.003 H 10.584 A 0.584,0.584 0 0 0 10.438,6.148 H 10.44 L 10.39,6.122 H 10.389 L 10.224,6.039 10.411,6.038 c 0.104,-0.001 0.252,0.017 0.33,0.04 0.04,0.01 0.071,0.017 0.09,0.018 0.01,0 0.015,0 0.018,-0.003 0.003,-0.002 0.002,-0.005 -0.004,-0.01 A 0.302,0.302 0 0 0 10.765,6.036 1.166,1.166 0 0 0 10.368,5.953 0.406,0.406 0 0 1 10.27,5.943 C 10.26,5.942 10.251,5.94 10.244,5.936 10.24,5.934 10.235,5.932 10.232,5.929 A 0.075,0.075 0 0 1 10.212,5.906 L 10.207,5.896 A 0.29,0.29 0 0 1 10.191,5.838 C 10.178,5.775 10.182,5.719 10.199,5.713 10.209,5.709 10.215,5.68 10.219,5.641 V 5.639 A 1.646,1.646 0 0 0 10.213,5.392 V 5.39 c -0.002,-0.01 0,-0.018 -10e-4,-0.028 V 5.36 L 10.202,5.288 10.201,5.283 10.196,5.251 A 0.3,0.3 0 0 0 10.166,5.146 C 10.143,5.117 10.135,5.054 10.148,5.003 10.156,4.97 10.158,4.947 10.151,4.933 V 4.932 C 10.143,4.918 10.127,4.912 10.101,4.912 A 0.072,0.072 0 0 1 10.059,4.901 C 10.051,4.894 10.049,4.885 10.055,4.875 10.067,4.855 10.038,4.828 9.991,4.815 A 0.108,0.108 0 0 1 9.937,4.785 0.038,0.038 0 0 1 9.927,4.767 0.027,0.027 0 0 1 9.932,4.747 C 9.947,4.723 9.977,4.713 9.998,4.727 h 0.004 c 0.02,0.01 0.035,0.002 0.035,-0.02 0,-0.013 -0.01,-0.03 -0.025,-0.047 A 0.27,0.27 0 0 0 9.954,4.61 0.247,0.247 0 0 1 9.895,4.56 C 9.88,4.541 9.871,4.523 9.871,4.51 9.871,4.496 9.861,4.48 9.844,4.466 A 0.189,0.189 0 0 0 9.779,4.43 0.435,0.435 0 0 1 9.63,4.344 0.218,0.218 0 0 0 9.572,4.304 0.15,0.15 0 0 0 9.512,4.288 H 9.51 C 9.493,4.288 9.48,4.283 9.473,4.277 9.466,4.27 9.465,4.261 9.471,4.251 9.478,4.239 9.466,4.229 9.441,4.22 H 9.44 A 0.62,0.62 0 0 0 9.32,4.199 4.915,4.915 0 0 0 8.476,4.21 1.848,1.848 0 0 0 8.306,4.235 0.354,0.354 0 0 0 8.203,4.268 C 8.197,4.271 8.188,4.272 8.177,4.27 A 0.184,0.184 0 0 1 8.137,4.255 H 8.136 A 0.516,0.516 0 0 1 8.035,4.186 0.879,0.879 0 0 0 7.915,4.104 0.47,0.47 0 0 0 7.809,4.054 0.14,0.14 0 0 1 7.745,4.022 C 7.731,4.008 7.725,3.992 7.731,3.978 A 0.032,0.032 0 0 0 7.729,3.952 0.094,0.094 0 0 0 7.708,3.924 0.31,0.31 0 0 0 7.616,3.868 1.144,1.144 0 0 1 7.501,3.813 L 7.467,3.791 C 7.449,3.779 7.427,3.766 7.417,3.757 A 7.734,7.734 0 0 0 7.217,3.596 0.6,0.6 0 0 1 7.127,3.511 C 7.106,3.486 7.096,3.465 7.101,3.456 7.107,3.447 7.097,3.433 7.077,3.418 A 0.385,0.385 0 0 0 6.987,3.373 2.222,2.222 0 0 1 6.78,3.285 0.345,0.345 0 0 0 6.692,3.258 0.6,0.6 0 0 0 6.582,3.248 0.307,0.307 0 0 1 6.494,3.235 C 6.471,3.228 6.457,3.218 6.457,3.208 6.457,3.197 6.439,3.184 6.411,3.172 6.405,3.169 6.395,3.168 6.388,3.166 A 0.5,0.5 0 0 0 6.301,3.142 1.2,1.2 0 0 1 6.17,3.114 0.532,0.532 0 0 1 6.073,3.078 0.73,0.73 0 0 0 5.813,3.039 0.666,0.666 0 0 1 5.68,3.027 C 5.676,3.027 5.674,3.025 5.67,3.024 A 0.173,0.173 0 0 1 5.64,3.014 C 5.63,3.009 5.625,3.004 5.625,2.999 5.625,2.994 5.614,2.989 5.596,2.985 L 5.576,2.983 A 0.703,0.703 0 0 0 5.522,2.976 C 5.499,2.974 5.46,2.974 5.43,2.973 5.385,2.971 5.348,2.968 5.288,2.968 Z M 3.695,8.694 V 8.692 Z M 9.466,5.1 A 0.264,0.264 0 0 1 9.73,5.364 0.264,0.264 0 0 1 9.712,5.46 0.264,0.264 0 0 1 9.688,5.507 0.264,0.264 0 0 1 9.684,5.513 0.264,0.264 0 0 1 9.655,5.547 0.264,0.264 0 0 1 9.65,5.553 0.264,0.264 0 0 1 9.601,5.59 0.264,0.264 0 0 1 9.466,5.628 0.264,0.264 0 0 1 9.332,5.591 0.264,0.264 0 0 1 9.286,5.557 0.264,0.264 0 0 1 9.273,5.544 0.264,0.264 0 0 1 9.221,5.461 0.264,0.264 0 0 1 9.221,5.46 0.264,0.264 0 0 1 9.203,5.364 0.264,0.264 0 0 1 9.466,5.1 Z m 0,0.126 a 0.139,0.139 0 0 0 -0.134,0.103 0.139,0.139 0 0 0 0,0.003 0.139,0.139 0 0 0 -0.001,0.003 0.139,0.139 0 0 0 -0.002,0.008 0.139,0.139 0 0 0 -0.001,0.011 0.139,0.139 0 0 0 0,0.002 0.139,0.139 0 0 0 0,0.008 0.139,0.139 0 0 0 0.038,0.096 0.139,0.139 0 0 0 0.1,0.043 A 0.139,0.139 0 0 0 9.566,5.46 0.139,0.139 0 0 0 9.6,5.401 0.139,0.139 0 0 0 9.605,5.364 0.139,0.139 0 0 0 9.601,5.329 0.264,0.264 0 0 0 9.6,5.329 0.139,0.139 0 0 0 9.466,5.226 Z"
     id="path2"
     inkscape:connector-curvature="0"
     style="fill:#5beedc" />
</svg>
