<?xml version="1.0" encoding="UTF-8" standalone="no"?>
<svg
   xmlns:dc="http://purl.org/dc/elements/1.1/"
   xmlns:cc="http://creativecommons.org/ns#"
   xmlns:rdf="http://www.w3.org/1999/02/22-rdf-syntax-ns#"
   xmlns:svg="http://www.w3.org/2000/svg"
   xmlns="http://www.w3.org/2000/svg"
   xmlns:sodipodi="http://sodipodi.sourceforge.net/DTD/sodipodi-0.dtd"
   xmlns:inkscape="http://www.inkscape.org/namespaces/inkscape"
   width="48"
   height="48"
   viewBox="0 0 12.7 12.7"
   version="1.1"
   id="svg4"
   sodipodi:docname="pixiewps.svg"
   inkscape:version="0.92.5 (2060ec1f9f, 2020-04-08)">
  <metadata
     id="metadata10">
    <rdf:RDF>
      <cc:Work
         rdf:about="">
        <dc:format>image/svg+xml</dc:format>
        <dc:type
           rdf:resource="http://purl.org/dc/dcmitype/StillImage" />
        <dc:title></dc:title>
      </cc:Work>
    </rdf:RDF>
  </metadata>
  <defs
     id="defs8" />
  <sodipodi:namedview
     pagecolor="#ffffff"
     bordercolor="#666666"
     borderopacity="1"
     objecttolerance="10"
     gridtolerance="10"
     guidetolerance="10"
     inkscape:pageopacity="0"
     inkscape:pageshadow="2"
     inkscape:window-width="1085"
     inkscape:window-height="480"
     id="namedview6"
     showgrid="false"
     inkscape:zoom="4.9166667"
     inkscape:cx="2.1355932"
     inkscape:cy="24"
     inkscape:window-x="0"
     inkscape:window-y="25"
     inkscape:window-maximized="0"
     inkscape:current-layer="svg4" />
  <path
     d="M 6.34,0.075 A 6.295,6.295 0 0 0 0.055,6.36 6.295,6.295 0 0 0 6.34,12.655 6.295,6.295 0 0 0 12.634,6.36 6.295,6.295 0 0 0 6.34,0.075 Z m -0.011,0.94 a 5.408,5.408 0 0 1 5.397,5.387 5.407,5.407 0 0 1 -10.814,0 c 0,-2.987 2.43,-5.387 5.417,-5.387 z M 4.364,1.852 A 0.127,0.127 0 0 0 4.304,1.868 C 4.175,1.936 4.142,2.174 4.163,2.861 l 0.003,0.222 c 0,0.064 0.047,0.212 0.105,0.328 C 4.401,3.671 4.39,3.91 4.244,3.977 4.161,4.014 4.054,3.982 3.687,3.811 3.103,3.538 2.565,3.356 2.508,3.411 2.482,3.438 2.487,3.526 2.52,3.637 c 0.03,0.1 0.055,0.227 0.055,0.28 0,0.055 0.06,0.168 0.133,0.252 0.074,0.085 0.18,0.243 0.235,0.353 0.056,0.11 0.17,0.244 0.253,0.299 0.083,0.055 0.195,0.167 0.249,0.25 C 3.529,5.2 3.535,5.232 3.48,5.307 3.396,5.422 3.4,5.541 3.496,5.759 3.556,5.894 3.6,5.937 3.67,5.927 3.722,5.919 3.814,5.964 3.875,6.025 3.975,6.125 4.014,6.133 4.261,6.108 4.727,6.058 4.688,6.26 4.212,6.354 3.932,6.409 3.772,6.51 3.804,6.609 3.814,6.639 3.864,6.669 3.918,6.676 3.971,6.684 4.025,6.728 4.037,6.774 4.059,6.86 4.381,6.929 4.785,6.935 4.923,6.937 4.96,6.956 4.96,7.023 4.96,7.07 4.992,7.121 5.032,7.137 5.087,7.157 5.058,7.212 4.902,7.38 4.529,7.781 4.428,7.94 4.492,8.019 4.559,8.099 4.706,8.112 4.75,8.042 4.765,8.016 4.841,7.995 4.918,7.995 A 0.98,0.98 0 0 0 5.226,7.925 C 5.446,7.832 5.473,7.864 5.278,7.988 L 5.124,8.087 h 0.142 c 0.181,0.002 0.33,-0.103 0.37,-0.26 0.022,-0.091 0.05,-0.113 0.11,-0.088 a 1.6,1.6 0 0 0 0.15,0.052 C 5.992,7.818 6.316,7.507 6.316,7.388 6.316,7.33 6.364,7.27 6.434,7.238 6.552,7.184 6.568,7.151 6.554,7.001 6.548,6.955 6.577,6.919 6.618,6.919 c 0.05,0 0.073,-0.044 0.073,-0.14 0,-0.077 0.02,-0.14 0.043,-0.14 0.062,0 0.079,0.167 0.047,0.462 -0.02,0.193 -0.053,0.273 -0.14,0.34 -0.332,0.26 -0.81,0.74 -0.899,0.905 -0.075,0.14 -0.1,0.271 -0.102,0.53 -10e-4,0.329 0.005,0.348 0.15,0.478 0.084,0.075 0.153,0.155 0.153,0.177 0,0.022 -0.08,0.063 -0.176,0.092 A 1.15,1.15 0 0 0 5.431,9.81 l -0.16,0.135 0.207,0.292 0.876,0.015 c 0.481,0.008 0.99,0.04 1.132,0.07 0.142,0.03 0.336,0.068 0.433,0.083 0.161,0.024 0.176,0.039 0.176,0.179 0,0.159 0.069,0.264 0.173,0.264 0.033,0 0.06,-0.05 0.06,-0.114 0,-0.16 0.165,-0.26 0.429,-0.26 0.3,0 0.672,-0.084 0.79,-0.18 C 9.604,10.247 9.654,10.138 9.67,10.021 9.696,9.827 9.697,9.825 9.807,9.898 9.949,9.991 9.947,9.959 9.797,9.739 9.68,9.568 9.677,9.547 9.707,9.084 9.744,8.542 9.766,8.596 9.261,7.972 A 11.73,11.73 0 0 1 8.709,7.206 C 8.447,6.808 8.422,6.746 8.422,6.518 8.422,6.286 8.405,6.248 8.205,6.024 A 3.051,3.051 0 0 1 7.828,5.449 C 7.696,5.177 7.672,5.083 7.693,4.918 7.737,4.575 7.903,4.258 8.102,4.131 8.284,4.016 8.32,3.955 8.235,3.902 8.209,3.886 8.188,3.835 8.188,3.788 A 0.215,0.215 0 0 0 8.117,3.644 0.142,0.142 0 0 1 8.073,3.497 C 8.096,3.427 8.076,3.411 7.963,3.411 7.86,3.411 7.771,3.355 7.612,3.191 7.412,2.986 7.382,2.971 7.112,2.951 6.934,2.939 6.804,2.951 6.772,2.984 6.742,3.013 6.651,3.037 6.568,3.037 A 0.484,0.484 0 0 0 6.285,3.147 1.72,1.72 0 0 1 6.048,3.312 C 5.99,3.342 5.942,3.395 5.942,3.429 A 0.443,0.443 0 0 1 5.847,3.614 L 5.751,3.736 5.414,3.244 C 5.228,2.974 4.977,2.59 4.854,2.392 4.62,2.012 4.478,1.852 4.364,1.852 Z M 4.695,2.87 C 4.878,2.86 5.257,3.205 5.534,3.645 5.704,3.913 5.907,4.431 5.962,4.732 6,4.939 5.961,4.95 5.685,4.805 5.431,4.672 5.032,4.358 4.752,4.071 4.531,3.844 4.52,3.819 4.502,3.533 4.481,3.205 4.55,2.92 4.662,2.877 A 0.117,0.117 0 0 1 4.695,2.87 Z M 3.423,3.933 C 3.57,3.936 3.777,3.997 3.995,4.109 4.415,4.325 5.425,4.926 5.427,4.96 5.428,4.997 4.775,5.096 4.572,5.09 A 2.01,2.01 0 0 1 4.246,5.044 C 3.811,4.941 3.376,4.605 3.249,4.274 3.183,4.099 3.181,4.054 3.233,3.991 3.268,3.949 3.334,3.931 3.423,3.933 Z m 2.774,0.523 c 0.024,-0.002 0.1,0.02 0.181,0.053 0.094,0.04 0.24,0.071 0.326,0.071 0.086,0 0.197,0.03 0.247,0.067 C 7.039,4.712 7.037,4.719 6.893,4.869 6.81,4.955 6.702,5.119 6.652,5.235 6.592,5.371 6.552,5.421 6.536,5.375 6.376,4.923 6.304,4.738 6.243,4.619 6.203,4.541 6.178,4.469 6.189,4.459 6.191,4.457 6.193,4.456 6.197,4.456 Z M 4.596,5.241 C 4.849,5.242 5.153,5.289 5.48,5.377 L 5.684,5.432 5.52,5.516 C 5.217,5.672 4.796,5.723 4.34,5.659 3.944,5.604 3.859,5.379 4.198,5.285 4.309,5.254 4.443,5.239 4.596,5.241 Z m 1.266,0.42 C 5.912,5.654 5.626,6.209 5.48,6.401 5.356,6.563 4.967,6.778 4.794,6.778 A 0.356,0.356 0 0 1 4.614,6.718 0.183,0.183 0 0 1 4.546,6.543 C 4.559,6.453 4.694,6.349 5.194,6.046 5.541,5.836 5.842,5.662 5.862,5.66 Z m 0.364,0.136 c 0.024,0 0.044,0.173 0.043,0.385 0,0.443 -0.103,0.717 -0.391,1.049 -0.286,0.327 -0.824,0.52 -0.824,0.294 0,-0.053 0.076,-0.216 0.17,-0.363 0.3,-0.47 0.957,-1.365 1.002,-1.365 z M 7.959,7.46 8.082,7.621 c 0.068,0.09 0.365,0.409 0.66,0.71 0.535,0.547 0.536,0.547 0.47,0.68 L 9.147,9.146 8.82,8.993 A 7.244,7.244 0 0 0 8.188,8.738 4.62,4.62 0 0 1 7.705,8.546 C 7.54,8.463 7.529,8.446 7.558,8.307 7.575,8.225 7.649,8.063 7.722,7.947 7.795,7.832 7.878,7.674 7.907,7.598 Z"
     id="path2"
     inkscape:connector-curvature="0"
     style="fill:#5beedc" />
</svg>
