<?xml version="1.0" encoding="UTF-8" standalone="no"?>
<svg
   xmlns:dc="http://purl.org/dc/elements/1.1/"
   xmlns:cc="http://creativecommons.org/ns#"
   xmlns:rdf="http://www.w3.org/1999/02/22-rdf-syntax-ns#"
   xmlns:svg="http://www.w3.org/2000/svg"
   xmlns="http://www.w3.org/2000/svg"
   xmlns:sodipodi="http://sodipodi.sourceforge.net/DTD/sodipodi-0.dtd"
   xmlns:inkscape="http://www.inkscape.org/namespaces/inkscape"
   width="48"
   height="48"
   viewBox="0 0 12.7 12.7"
   version="1.1"
   id="svg4"
   sodipodi:docname="jd-gui.svg"
   inkscape:version="0.92.5 (2060ec1f9f, 2020-04-08)">
  <defs
     id="defs8">
  <style
     id="current-color-scheme"
     type="text/css">
      .ColorScheme-Highlight {
        color:#5beedc;
      }
  </style>
  </defs>
  <path
     class="ColorScheme-Highlight"
     style="fill:#5beedc"
     d="M 24 0 A 24 24 0 0 0 0 24 A 24 24 0 0 0 24 48 A 24 24 0 0 0 48 24 A 24 24 0 0 0 24 0 z M 24 3 A 21 21 0 0 1 45 24 A 21 21 0 0 1 24 45 A 21 21 0 0 1 3 24 A 21 21 0 0 1 24 3 z M 27 6 C 30 11 17 12 25 22 C 20 11 33 12 27 6 z M 31 11 C 22 18 31 15 26 23 C 33 17 25 18 31 11 z M 31.519531 11.779297 C 31.514831 11.781997 31.512432 11.784409 31.507812 11.787109 C 31.508069 11.787045 31.519531 11.783203 31.519531 11.783203 L 31.519531 11.779297 z M 15 24 L 15 25 A 5.9999995 5.9999995 0 0 0 9 31 A 5.9999995 5.9999995 0 0 0 15 37 A 5.9999995 5.9999995 0 0 0 16.587891 36.779297 C 18.04387 38.732835 20.365469 40 23 40 L 29 40 C 33.432 40 37 36.432 37 32 L 37 24 L 29 24 L 23 24 L 15 24 z M 15 27 L 15 32 C 15 33.046022 15.204454 34.04086 15.566406 34.955078 A 3.9999994 3.9999994 0 0 1 15 35 A 3.9999994 3.9999994 0 0 1 11 31 A 3.9999994 3.9999994 0 0 1 15 27 z "
     transform="scale(0.26458333)"
     id="path837" />
</svg>
