<?xml version="1.0" encoding="UTF-8" standalone="no"?>
<svg
   xmlns:dc="http://purl.org/dc/elements/1.1/"
   xmlns:cc="http://creativecommons.org/ns#"
   xmlns:rdf="http://www.w3.org/1999/02/22-rdf-syntax-ns#"
   xmlns:svg="http://www.w3.org/2000/svg"
   xmlns="http://www.w3.org/2000/svg"
   xmlns:sodipodi="http://sodipodi.sourceforge.net/DTD/sodipodi-0.dtd"
   xmlns:inkscape="http://www.inkscape.org/namespaces/inkscape"
   width="48"
   height="48"
   viewBox="0 0 12.7 12.7"
   version="1.1"
   id="svg4"
   sodipodi:docname="ncrack.svg"
   inkscape:version="0.92.5 (2060ec1f9f, 2020-04-08)">
  <metadata
     id="metadata10">
    <rdf:RDF>
      <cc:Work
         rdf:about="">
        <dc:format>image/svg+xml</dc:format>
        <dc:type
           rdf:resource="http://purl.org/dc/dcmitype/StillImage" />
        <dc:title></dc:title>
      </cc:Work>
    </rdf:RDF>
  </metadata>
  <defs
     id="defs8" />
  <sodipodi:namedview
     pagecolor="#ffffff"
     bordercolor="#666666"
     borderopacity="1"
     objecttolerance="10"
     gridtolerance="10"
     guidetolerance="10"
     inkscape:pageopacity="0"
     inkscape:pageshadow="2"
     inkscape:window-width="1085"
     inkscape:window-height="480"
     id="namedview6"
     showgrid="false"
     inkscape:zoom="4.9166667"
     inkscape:cx="2.1355932"
     inkscape:cy="24"
     inkscape:window-x="0"
     inkscape:window-y="25"
     inkscape:window-maximized="0"
     inkscape:current-layer="svg4" />
  <path
     d="M 6.34,0.075 A 6.295,6.295 0 0 0 0.055,6.36 6.295,6.295 0 0 0 6.34,12.655 6.295,6.295 0 0 0 12.634,6.36 6.295,6.295 0 0 0 6.34,0.075 Z m -0.011,0.94 a 5.408,5.408 0 0 1 5.397,5.387 5.407,5.407 0 0 1 -10.814,0 c 0,-2.987 2.43,-5.387 5.417,-5.387 z M 4.467,2.172 A 3.44,3.44 0 0 0 4.113,2.235 C 3.973,2.271 3.919,2.302 3.796,2.425 3.736,2.485 3.679,2.545 3.67,2.56 A 0.505,0.505 0 0 0 3.634,2.662 C 3.624,2.703 3.594,2.783 3.567,2.84 3.469,3.049 3.443,3.202 3.477,3.362 3.483,3.384 3.479,3.392 3.46,3.41 3.434,3.435 3.43,3.484 3.45,3.512 3.461,3.526 3.46,3.533 3.447,3.564 c -0.016,0.035 -0.016,0.037 0,0.073 a 0.277,0.277 0 0 1 0.018,0.117 c 0,0.127 0.015,0.306 0.03,0.383 0.009,0.04 0.034,0.117 0.056,0.173 0.05,0.125 0.05,0.164 0.012,0.29 A 0.477,0.477 0 0 0 3.54,4.872 c 0.019,0.07 0.066,0.175 0.1,0.219 0.022,0.03 0.023,0.034 0.013,0.062 A 1.195,1.195 0 0 0 3.625,5.286 0.902,0.902 0 0 1 3.585,5.442 c -0.032,0.075 -0.03,0.125 0.01,0.225 0.038,0.1 0.081,0.258 0.088,0.332 0.01,0.098 0.084,0.281 0.128,0.318 0.013,0.01 0.019,0.03 0.023,0.076 0.004,0.033 0.01,0.073 0.014,0.088 0.01,0.03 0.061,0.082 0.13,0.132 a 0.519,0.519 0 0 1 0.14,0.148 c 0.003,0.014 -0.002,0.021 -0.02,0.03 a 0.243,0.243 0 0 0 -0.05,0.04 L 4.022,6.859 4.004,6.837 A 0.077,0.077 0 0 0 3.958,6.81 0.155,0.155 0 0 1 3.913,6.798 C 3.851,6.764 3.468,6.31 3.401,6.191 3.376,6.147 3.348,6.129 3.256,6.098 A 1.136,1.136 0 0 0 2.897,6.035 H 2.788 L 2.753,6.069 C 2.734,6.089 2.684,6.158 2.643,6.225 2.549,6.375 2.54,6.393 2.528,6.449 A 0.762,0.762 0 0 1 2.496,6.55 C 2.484,6.58 2.466,6.641 2.454,6.685 L 2.434,6.765 2.385,6.79 a 0.205,0.205 0 0 0 -0.05,0.032 c 0,0.004 0.018,0.016 0.042,0.028 0.025,0.011 0.053,0.03 0.064,0.041 L 2.46,6.911 2.428,6.949 C 2.41,6.97 2.395,6.995 2.395,7.004 c 0,0.01 -0.007,0.028 -0.017,0.042 A 0.168,0.168 0 0 0 2.354,7.101 C 2.346,7.144 2.268,7.321 2.213,7.425 l -0.048,0.09 -0.09,0.029 c -0.071,0.023 -0.09,0.032 -0.09,0.046 0,0.023 0.043,0.03 0.156,0.025 0.077,-0.004 0.1,-0.008 0.142,-0.028 A 0.757,0.757 0 0 0 2.514,7.344 L 2.564,7.251 A 0.137,0.137 0 0 0 2.582,7.199 c 0,-0.011 0.012,-0.032 0.026,-0.046 A 0.226,0.226 0 0 0 2.648,7.085 0.72,0.72 0 0 1 2.762,6.882 C 2.783,6.864 2.8,6.86 2.878,6.855 2.928,6.852 3.03,6.85 3.103,6.852 L 3.236,6.855 3.139,6.912 C 2.995,6.997 2.958,7.035 2.907,7.156 A 9.548,9.548 0 0 1 2.763,7.469 3.617,3.617 0 0 0 2.629,7.779 C 2.592,7.892 2.569,7.929 2.533,7.94 L 2.475,7.957 C 2.43,7.97 2.276,8.063 2.285,8.071 a 0.584,0.584 0 0 0 0.191,0.04 c 0.05,0 0.064,-0.003 0.094,-0.023 A 0.836,0.836 0 0 1 2.654,8.041 C 2.734,8.004 2.877,7.844 2.953,7.709 2.977,7.665 3.012,7.61 3.03,7.586 A 0.523,0.523 0 0 0 3.1,7.425 C 3.151,7.265 3.157,7.255 3.196,7.248 3.248,7.239 3.546,7.223 3.589,7.226 L 3.629,7.229 3.585,7.252 A 0.63,0.63 0 0 1 3.507,7.286 c -0.037,0.012 -0.06,0.039 -0.06,0.07 0,0.01 -0.014,0.035 -0.03,0.053 A 0.452,0.452 0 0 0 3.359,7.5 3.297,3.297 0 0 1 3.27,7.668 C 3.236,7.728 3.197,7.812 3.183,7.854 A 0.564,0.564 0 0 1 3.137,7.962 2.89,2.89 0 0 0 2.911,8.458 C 2.89,8.535 2.867,8.559 2.672,8.712 A 2.071,2.071 0 0 0 2.53,8.829 C 2.528,8.845 2.644,8.847 2.699,8.834 a 0.41,0.41 0 0 0 0.18,-0.1 C 2.954,8.673 2.989,8.654 3.03,8.645 3.07,8.638 3.087,8.618 3.148,8.503 3.205,8.395 3.274,8.29 3.326,8.233 3.368,8.185 3.369,8.183 3.363,8.136 L 3.357,8.089 3.388,8.076 C 3.415,8.065 3.425,8.05 3.468,7.962 3.495,7.907 3.522,7.842 3.528,7.817 A 0.319,0.319 0 0 1 3.557,7.742 0.316,0.316 0 0 0 3.585,7.671 C 3.591,7.649 3.601,7.628 3.608,7.624 3.615,7.621 3.676,7.601 3.745,7.58 L 3.954,7.517 C 4.047,7.489 4.103,7.485 4.145,7.505 4.161,7.512 4.212,7.555 4.26,7.598 4.392,7.721 4.402,7.722 4.417,7.624 L 4.432,7.528 4.437,7.498 4.51,7.57 C 4.6,7.659 4.658,7.702 4.696,7.71 A 0.282,0.282 0 0 1 4.815,7.773 C 4.884,7.828 4.895,7.829 4.96,7.781 4.997,7.754 5.033,7.753 5.081,7.777 5.128,7.799 5.192,7.863 5.174,7.869 A 1.141,1.141 0 0 0 5.024,7.925 0.819,0.819 0 0 1 4.787,7.991 0.275,0.275 0 0 0 4.635,8.047 0.266,0.266 0 0 0 4.583,8.129 C 4.563,8.179 4.559,8.184 4.493,8.221 4.409,8.267 4.378,8.294 4.351,8.348 A 0.87,0.87 0 0 0 4.297,8.602 C 4.29,8.678 4.3,8.705 4.363,8.785 c 0.024,0.031 0.064,0.09 0.09,0.133 0.047,0.08 0.068,0.101 0.177,0.173 0.066,0.043 0.12,0.093 0.224,0.207 0.052,0.056 0.065,0.065 0.112,0.079 0.03,0.008 0.101,0.039 0.16,0.069 0.106,0.054 0.11,0.056 0.241,0.191 0.08,0.082 0.176,0.17 0.238,0.217 0.12,0.09 0.14,0.114 0.17,0.196 0.034,0.09 0.058,0.134 0.099,0.176 0.065,0.068 0.13,0.09 0.33,0.112 0.154,0.017 0.233,0.033 0.39,0.077 0.318,0.09 0.647,0.129 0.869,0.106 0.16,-0.017 0.26,-0.057 0.462,-0.182 0.097,-0.06 0.185,-0.13 0.189,-0.15 0.002,-0.014 -0.006,-0.015 -0.06,-0.015 -0.036,0 -0.12,0.007 -0.186,0.015 -0.092,0.012 -0.19,0.015 -0.399,0.015 -0.252,0 -0.284,-0.001 -0.366,-0.02 C 6.927,10.146 6.884,10.124 6.873,10.063 6.863,10.013 6.837,9.989 6.769,9.968 A 0.26,0.26 0 0 1 6.708,9.945 C 6.708,9.942 6.727,9.918 6.75,9.892 A 0.214,0.214 0 0 0 6.805,9.802 L 6.819,9.749 C 6.823,9.736 6.903,9.73 7.153,9.723 A 14.04,14.04 0 0 0 8.08,9.666 C 8.405,9.642 8.418,9.639 8.418,9.599 8.418,9.534 8.278,9.474 7.723,9.301 7.161,9.126 7.015,9.067 6.653,8.869 6.273,8.659 6.237,8.647 5.99,8.647 A 0.95,0.95 0 0 0 5.727,8.667 C 5.552,8.707 5.386,8.694 5.284,8.635 L 5.246,8.612 5.306,8.564 a 0.653,0.653 0 0 1 0.1,-0.066 C 5.428,8.488 5.491,8.452 5.545,8.42 L 5.643,8.36 h 0.13 c 0.126,0 0.132,0 0.154,-0.021 a 0.712,0.712 0 0 0 0.112,-0.22 0.48,0.48 0 0 1 0.03,-0.08 c 0.026,-0.04 0.207,-0.11 0.279,-0.11 0.021,0 0.033,-0.007 0.046,-0.026 A 0.165,0.165 0 0 1 6.442,7.863 L 6.472,7.846 6.53,7.876 C 6.585,7.904 6.59,7.905 6.68,7.903 L 6.773,7.9 6.879,7.95 A 0.608,0.608 0 0 0 6.989,7.997 0.243,0.243 0 0 0 6.961,7.928 0.249,0.249 0 0 1 6.931,7.844 C 6.934,7.828 6.941,7.834 6.977,7.881 7.037,7.959 7.05,7.955 7.024,7.869 7.005,7.809 7.007,7.77 7.027,7.759 7.042,7.752 7.049,7.755 7.072,7.782 a 0.235,0.235 0 0 1 0.037,0.053 c 0.005,0.013 0.015,0.022 0.027,0.022 0.019,0 0.02,-0.003 0.013,-0.09 C 7.144,7.694 7.145,7.679 7.155,7.679 c 0.014,0 0.07,0.05 0.07,0.063 0,0.004 0.003,0.008 0.008,0.008 0.005,0 0.006,-0.04 0.003,-0.098 C 7.23,7.536 7.226,7.538 7.33,7.582 A 0.209,0.209 0 0 0 7.45,7.605 C 7.507,7.601 7.513,7.597 7.61,7.479 7.684,7.389 7.835,7.345 8.112,7.331 8.248,7.324 8.27,7.321 8.321,7.299 8.372,7.277 8.388,7.275 8.481,7.275 c 0.163,0 0.243,0.025 0.27,0.083 a 0.32,0.32 0 0 0 0.05,0.07 c 0.03,0.031 0.041,0.037 0.073,0.037 0.02,0 0.056,0.009 0.082,0.021 a 0.83,0.83 0 0 0 0.188,0.045 c 0.079,0.013 0.181,0.034 0.228,0.046 0.104,0.028 0.55,0.174 0.64,0.21 0.08,0.031 0.105,0.054 0.23,0.206 0.1,0.121 0.135,0.154 0.182,0.167 a 0.74,0.74 0 0 1 0.108,0.053 c 0.082,0.047 0.145,0.07 0.17,0.06 0.023,-0.009 0.019,-0.07 -0.009,-0.134 A 1.29,1.29 0 0 0 10.519,7.855 0.724,0.724 0 0 1 10.361,7.558 2.448,2.448 0 0 0 10.284,7.36 C 10.258,7.306 10.247,7.293 10.215,7.277 10.175,7.257 10.103,7.207 9.946,7.094 9.729,6.938 9.611,6.901 9.291,6.888 9.151,6.883 9.143,6.884 9.104,6.903 9.067,6.923 9.064,6.923 9.055,6.908 9.018,6.844 8.972,6.828 8.888,6.853 8.823,6.873 8.79,6.872 8.748,6.85 A 0.749,0.749 0 0 0 8.498,6.796 C 8.353,6.783 8.318,6.773 8.288,6.742 A 0.24,0.24 0 0 0 8.244,6.705 0.956,0.956 0 0 0 8.031,6.669 0.246,0.246 0 0 0 7.885,6.739 0.417,0.417 0 0 1 7.717,6.824 2.793,2.793 0 0 0 7.551,6.891 a 0.734,0.734 0 0 1 -0.1,0.04 c -0.007,0 -0.023,0.014 -0.037,0.03 A 0.11,0.11 0 0 1 7.296,7.001 C 7.255,6.99 7.242,6.977 7.242,6.945 A 0.322,0.322 0 0 0 7.228,6.872 C 7.213,6.822 7.216,6.802 7.252,6.714 7.284,6.636 7.3,6.577 7.322,6.45 7.341,6.335 7.357,6.304 7.392,6.308 7.411,6.31 7.417,6.318 7.422,6.342 7.477,6.612 7.508,6.712 7.555,6.759 7.586,6.791 7.616,6.795 7.665,6.775 7.7,6.76 7.705,6.734 7.684,6.691 7.666,6.656 7.654,6.581 7.638,6.414 7.615,6.154 7.606,6.08 7.593,6.05 7.576,6.007 7.523,5.986 7.433,5.986 7.371,5.986 7.357,5.989 7.317,6.012 A 0.886,0.886 0 0 0 7.106,6.218 C 7.093,6.24 7.056,6.336 7.024,6.431 c -0.06,0.177 -0.09,0.24 -0.108,0.24 -0.017,0 -0.04,-0.03 -0.04,-0.056 A 0.84,0.84 0 0 1 6.9,6.5 C 6.978,6.193 6.981,6.117 6.93,5.956 L 6.894,5.843 H 6.811 C 6.751,5.843 6.724,5.847 6.71,5.857 6.68,5.877 6.655,5.972 6.636,6.136 6.618,6.284 6.611,6.324 6.603,6.324 6.599,6.324 6.44,6.237 6.433,6.231 A 3.504,3.504 0 0 1 6.4,6.054 C 6.353,5.785 6.34,5.76 6.244,5.723 A 0.703,0.703 0 0 1 6.128,5.663 L 6.075,5.628 5.91,5.723 5.906,5.888 A 1.03,1.03 0 0 1 5.892,6.068 C 5.882,6.084 5.878,6.082 5.834,6.045 A 0.386,0.386 0 0 0 5.737,5.985 0.624,0.624 0 0 1 5.671,5.959 0.7,0.7 0 0 0 5.592,5.921 0.936,0.936 0 0 1 5.362,5.695 C 5.347,5.659 5.304,5.621 5.28,5.62 5.253,5.62 5.193,5.584 5.12,5.525 A 1.516,1.516 0 0 0 4.989,5.43 0.225,0.225 0 0 1 4.921,5.371 0.572,0.572 0 0 0 4.745,5.219 1.26,1.26 0 0 1 4.511,5.056 1.232,1.232 0 0 0 4.358,4.948 0.517,0.517 0 0 1 4.273,4.892 C 4.25,4.864 4.24,4.814 4.241,4.733 4.242,4.634 4.218,4.55 4.176,4.511 A 0.71,0.71 0 0 0 4.081,4.444 C 4.024,4.41 4.009,4.395 3.991,4.36 3.97,4.318 3.969,4.316 3.981,4.227 L 3.999,4.073 A 0.532,0.532 0 0 0 3.963,3.819 C 3.935,3.734 3.935,3.733 3.948,3.679 A 0.19,0.19 0 0 0 3.95,3.569 0.218,0.218 0 0 1 3.944,3.5 0.546,0.546 0 0 1 3.991,3.431 0.429,0.429 0 0 0 4.079,3.201 0.323,0.323 0 0 1 4.184,2.966 C 4.206,2.956 4.354,2.918 4.358,2.922 L 4.422,3.041 C 4.492,3.171 4.556,3.27 4.636,3.366 4.705,3.448 4.8,3.54 4.856,3.578 4.904,3.611 4.935,3.666 4.935,3.719 4.935,3.749 4.928,3.76 4.898,3.789 4.784,3.9 4.702,4.101 4.688,4.299 a 0.647,0.647 0 0 0 0.024,0.228 c 0.011,0.041 0.026,0.044 0.026,0.004 0,-0.04 0.035,-0.106 0.063,-0.12 A 0.566,0.566 0 0 1 4.952,4.4 C 5.118,4.399 5.252,4.387 5.298,4.368 5.418,4.32 5.473,4.132 5.425,3.932 A 1.282,1.282 0 0 0 5.289,3.605 C 5.28,3.593 5.282,3.581 5.298,3.542 5.323,3.481 5.323,3.45 5.292,3.299 5.234,3.019 5.193,2.91 5.096,2.781 4.974,2.617 4.69,2.319 4.605,2.266 A 0.657,0.657 0 0 1 4.527,2.206 C 4.505,2.186 4.48,2.172 4.467,2.172 Z m 1.64,3.866 C 6.111,6.041 6.117,6.048 6.125,6.063 6.146,6.097 6.153,6.128 6.139,6.128 6.134,6.128 6.125,6.121 6.117,6.113 6.099,6.092 6.091,6.063 6.098,6.044 6.101,6.038 6.103,6.035 6.108,6.038 Z M 2.917,6.371 A 0.471,0.471 0 0 1 2.984,6.372 C 3.08,6.379 3.095,6.385 3.142,6.432 L 3.18,6.472 3.012,6.478 C 2.92,6.481 2.831,6.488 2.814,6.493 c -0.043,0.011 -0.045,0.01 -0.045,0 0,-0.015 0.082,-0.097 0.11,-0.113 A 0.092,0.092 0 0 1 2.917,6.37 Z"
     id="path2"
     inkscape:connector-curvature="0"
     style="fill:#5beedc" />
</svg>
