<?xml version="1.0" encoding="UTF-8" standalone="no"?>
<svg
   xmlns:dc="http://purl.org/dc/elements/1.1/"
   xmlns:cc="http://creativecommons.org/ns#"
   xmlns:rdf="http://www.w3.org/1999/02/22-rdf-syntax-ns#"
   xmlns:svg="http://www.w3.org/2000/svg"
   xmlns="http://www.w3.org/2000/svg"
   xmlns:sodipodi="http://sodipodi.sourceforge.net/DTD/sodipodi-0.dtd"
   xmlns:inkscape="http://www.inkscape.org/namespaces/inkscape"
   width="48"
   height="48"
   viewBox="0 0 12.7 12.7"
   version="1.1"
   id="svg4"
   sodipodi:docname="dex2jar.svg"
   inkscape:version="0.92.5 (2060ec1f9f, 2020-04-08)">
  <metadata
     id="metadata10">
    <rdf:RDF>
      <cc:Work
         rdf:about="">
        <dc:format>image/svg+xml</dc:format>
        <dc:type
           rdf:resource="http://purl.org/dc/dcmitype/StillImage" />
        <dc:title></dc:title>
      </cc:Work>
    </rdf:RDF>
  </metadata>
  <defs
     id="defs8" />
  <sodipodi:namedview
     pagecolor="#ffffff"
     bordercolor="#666666"
     borderopacity="1"
     objecttolerance="10"
     gridtolerance="10"
     guidetolerance="10"
     inkscape:pageopacity="0"
     inkscape:pageshadow="2"
     inkscape:window-width="1085"
     inkscape:window-height="480"
     id="namedview6"
     showgrid="false"
     inkscape:zoom="4.9166667"
     inkscape:cx="2.1355932"
     inkscape:cy="24"
     inkscape:window-x="0"
     inkscape:window-y="25"
     inkscape:window-maximized="0"
     inkscape:current-layer="svg4" />
  <path
     d="M 6.34,0.075 A 6.295,6.295 0 0 0 0.055,6.36 6.295,6.295 0 0 0 6.34,12.655 6.295,6.295 0 0 0 12.634,6.36 6.295,6.295 0 0 0 6.34,0.075 Z m -0.011,0.94 a 5.408,5.408 0 0 1 5.397,5.387 5.407,5.407 0 0 1 -10.814,0 c 0,-2.987 2.43,-5.387 5.417,-5.387 z M 4.758,1.642 A 0.132,0.132 0 0 0 4.661,1.672 0.132,0.132 0 0 0 4.645,1.859 l 0.486,0.58 A 2.381,2.249 0 0 0 3.975,4.236 l 4.752,0.02 A 2.381,2.249 0 0 0 7.57,2.438 L 8.055,1.86 A 0.132,0.132 0 0 0 8.039,1.674 0.132,0.132 0 0 0 7.852,1.69 L 7.327,2.316 A 2.381,2.249 0 0 0 6.35,2.118 2.381,2.249 0 0 0 5.375,2.318 L 4.848,1.69 A 0.132,0.132 0 0 0 4.758,1.643 Z M 5.556,2.91 A 0.265,0.265 0 0 1 5.821,3.175 0.265,0.265 0 0 1 5.556,3.44 0.265,0.265 0 0 1 5.292,3.175 0.265,0.265 0 0 1 5.556,2.91 Z m 1.588,0 A 0.265,0.265 0 0 1 7.408,3.175 0.265,0.265 0 0 1 7.144,3.44 0.265,0.265 0 0 1 6.879,3.175 0.265,0.265 0 0 1 7.144,2.91 Z M 3.969,4.762 V 7.144 H 4.498 V 6.543 A 0.53,0.53 0 0 1 4.478,6.53 0.53,0.53 0 0 1 4.434,6.5 0.53,0.53 0 0 1 4.394,6.465 0.53,0.53 0 0 1 4.358,6.426 0.53,0.53 0 0 1 4.326,6.384 0.53,0.53 0 0 1 4.298,6.339 0.53,0.53 0 0 1 4.276,6.292 0.53,0.53 0 0 1 4.257,6.242 0.53,0.53 0 0 1 4.244,6.19 0.53,0.53 0 0 1 4.236,6.138 0.53,0.53 0 0 1 4.233,6.085 0.53,0.53 0 0 1 4.233,6.061 0.53,0.53 0 0 1 4.239,6.009 0.53,0.53 0 0 1 4.249,5.957 0.53,0.53 0 0 1 4.265,5.907 0.53,0.53 0 0 1 4.285,5.857 0.53,0.53 0 0 1 4.311,5.811 0.53,0.53 0 0 1 4.341,5.767 0.53,0.53 0 0 1 4.374,5.727 0.53,0.53 0 0 1 4.412,5.69 0.53,0.53 0 0 1 4.453,5.657 0.53,0.53 0 0 1 4.498,5.628 v 0.457 h 0.53 V 5.628 a 0.53,0.53 0 0 1 0.02,0.012 0.53,0.53 0 0 1 0.043,0.031 0.53,0.53 0 0 1 0.04,0.035 0.53,0.53 0 0 1 0.036,0.039 0.53,0.53 0 0 1 0.032,0.042 0.53,0.53 0 0 1 0.028,0.045 0.53,0.53 0 0 1 0.023,0.047 0.53,0.53 0 0 1 0.018,0.05 0.53,0.53 0 0 1 0.013,0.052 0.53,0.53 0 0 1 0.008,0.052 0.53,0.53 0 0 1 0.003,0.052 0.53,0.53 0 0 1 0,0.025 A 0.53,0.53 0 0 1 5.286,6.162 0.53,0.53 0 0 1 5.276,6.215 0.53,0.53 0 0 1 5.26,6.265 0.53,0.53 0 0 1 5.24,6.314 0.53,0.53 0 0 1 5.214,6.36 0.53,0.53 0 0 1 5.184,6.404 0.53,0.53 0 0 1 5.151,6.444 0.53,0.53 0 0 1 5.113,6.482 0.53,0.53 0 0 1 5.072,6.514 0.53,0.53 0 0 1 5.027,6.544 v 0.6 H 5.603 A 0.794,0.794 0 0 1 5.619,7.099 0.794,0.794 0 0 1 5.653,7.028 0.794,0.794 0 0 1 5.695,6.96 0.794,0.794 0 0 1 5.743,6.897 0.794,0.794 0 0 1 5.797,6.839 0.794,0.794 0 0 1 5.857,6.787 0.794,0.794 0 0 1 5.921,6.741 0.794,0.794 0 0 1 5.99,6.701 0.794,0.794 0 0 1 6.062,6.668 0.794,0.794 0 0 1 6.138,6.644 0.794,0.794 0 0 1 6.215,6.626 0.794,0.794 0 0 1 6.294,6.616 0.794,0.794 0 0 1 6.35,6.615 h 0.794 v 0.529 h 0.264 v -0.53 h 0.53 v 0.53 H 8.731 V 4.762 H 3.97 Z M 2.91,5.027 a 0.528,0.528 0 0 0 -0.529,0.53 v 2.116 a 0.5295,0.5295 0 1 0 1.059,0 V 5.556 A 0.528,0.528 0 0 0 2.91,5.027 Z m 6.88,0 a 0.528,0.528 0 0 0 -0.53,0.53 v 2.116 a 0.5295,0.5295 0 1 0 1.059,0 V 5.556 A 0.528,0.528 0 0 0 9.789,5.027 Z M 7.144,5.821 H 8.379 V 5.83 a 0.131,0.131 0 0 1 0.088,0.123 v 0.642 a 0.1325,0.1325 0 1 1 -0.265,0 V 6.35 H 7.144 V 5.82 Z M 6.35,6.879 A 0.53,0.53 0 0 0 5.82,7.409 0.53,0.53 0 0 0 6.35,7.937 V 7.761 A 0.353,0.353 0 0 1 5.997,7.408 0.353,0.353 0 0 1 6.35,7.055 H 6.703 V 7.937 H 6.879 V 6.88 H 6.35 Z M 3.969,7.673 v 0.53 c 0,0.292 0.236,0.528 0.529,0.528 h 0.264 v 1.588 a 0.5295,0.5295 0 1 0 1.059,0 V 8.73 h 1.058 v 1.588 a 0.529,0.529 0 1 0 1.058,0 V 8.73 h 0.265 c 0.293,0 0.53,-0.236 0.53,-0.529 V 7.671 H 7.143 v 0.53 H 6.35 A 0.794,0.794 0 0 1 6.27,8.197 0.794,0.794 0 0 1 6.192,8.185 0.794,0.794 0 0 1 6.115,8.165 0.794,0.794 0 0 1 6.041,8.139 0.794,0.794 0 0 1 5.97,8.104 0.794,0.794 0 0 1 5.902,8.063 0.794,0.794 0 0 1 5.838,8.015 0.794,0.794 0 0 1 5.781,7.96 0.794,0.794 0 0 1 5.728,7.9 0.794,0.794 0 0 1 5.682,7.836 0.794,0.794 0 0 1 5.642,7.768 0.794,0.794 0 0 1 5.61,7.695 0.794,0.794 0 0 1 5.602,7.672 H 3.968 Z"
     id="path2"
     inkscape:connector-curvature="0"
     style="fill:#5beedc" />
</svg>
