<?xml version="1.0" encoding="UTF-8" standalone="no"?>
<svg
   xmlns:dc="http://purl.org/dc/elements/1.1/"
   xmlns:cc="http://creativecommons.org/ns#"
   xmlns:rdf="http://www.w3.org/1999/02/22-rdf-syntax-ns#"
   xmlns:svg="http://www.w3.org/2000/svg"
   xmlns="http://www.w3.org/2000/svg"
   xmlns:sodipodi="http://sodipodi.sourceforge.net/DTD/sodipodi-0.dtd"
   xmlns:inkscape="http://www.inkscape.org/namespaces/inkscape"
   width="48"
   height="48"
   viewBox="0 0 12.7 12.7"
   version="1.1"
   id="svg4"
   sodipodi:docname="netsniff-ng.svg"
   inkscape:version="0.92.5 (2060ec1f9f, 2020-04-08)">
  <metadata
     id="metadata10">
    <rdf:RDF>
      <cc:Work
         rdf:about="">
        <dc:format>image/svg+xml</dc:format>
        <dc:type
           rdf:resource="http://purl.org/dc/dcmitype/StillImage" />
        <dc:title></dc:title>
      </cc:Work>
    </rdf:RDF>
  </metadata>
  <defs
     id="defs8" />
  <sodipodi:namedview
     pagecolor="#ffffff"
     bordercolor="#666666"
     borderopacity="1"
     objecttolerance="10"
     gridtolerance="10"
     guidetolerance="10"
     inkscape:pageopacity="0"
     inkscape:pageshadow="2"
     inkscape:window-width="1085"
     inkscape:window-height="480"
     id="namedview6"
     showgrid="false"
     inkscape:zoom="4.9166667"
     inkscape:cx="2.1355932"
     inkscape:cy="24"
     inkscape:window-x="0"
     inkscape:window-y="25"
     inkscape:window-maximized="0"
     inkscape:current-layer="svg4" />
  <path
     d="M 6.34,0.075 A 6.295,6.295 0 0 0 0.055,6.36 6.295,6.295 0 0 0 6.34,12.655 6.295,6.295 0 0 0 12.634,6.36 6.295,6.295 0 0 0 6.34,0.075 Z m -0.011,0.94 a 5.408,5.408 0 0 1 5.397,5.387 5.407,5.407 0 0 1 -2.851,4.76 V 6.13 6.134 L 9.058,6.027 C 9.168,5.963 9.335,5.833 9.431,5.737 9.541,5.627 9.643,5.486 9.711,5.35 A 2.18,2.18 0 0 0 9.861,4.925 C 9.885,4.81 9.904,4.635 9.904,4.537 9.904,4.438 9.884,4.275 9.861,4.174 A 2.46,2.46 0 0 0 9.741,3.818 3.515,3.515 0 0 0 9.504,3.404 4.65,4.65 0 0 0 9.088,2.894 C 8.957,2.756 8.84,2.648 8.818,2.643 H 8.815 c -0.009,0.01 0.002,0.104 0.027,0.21 0.024,0.104 0.06,0.334 0.08,0.51 C 8.948,3.603 8.948,3.75 8.924,3.938 8.906,4.078 8.862,4.258 8.827,4.34 8.789,4.43 8.697,4.552 8.595,4.65 8.414,4.797 8.219,4.968 7.977,4.97 H 4.7 C 4.487,4.963 4.242,4.779 4.104,4.65 A 1.078,1.078 0 0 1 3.871,4.34 1.878,1.878 0 0 1 3.774,3.938 2.177,2.177 0 0 1 3.778,3.364 C 3.798,3.187 3.833,2.957 3.857,2.852 3.881,2.747 3.892,2.652 3.883,2.643 H 3.88 C 3.858,2.648 3.742,2.756 3.61,2.893 3.47,3.041 3.283,3.271 3.195,3.404 A 3.518,3.518 0 0 0 2.957,3.818 2.468,2.468 0 0 0 2.837,4.174 1.9,1.9 0 0 0 2.795,4.537 c 0,0.098 0.02,0.273 0.044,0.388 0.024,0.115 0.091,0.306 0.15,0.425 0.066,0.136 0.169,0.278 0.279,0.388 0.096,0.095 0.263,0.225 0.373,0.29 L 3.823,6.134 V 6.13 h 10e-4 v 5.061 A 5.407,5.407 0 0 1 0.912,6.401 c 0,-2.987 2.43,-5.387 5.417,-5.387 z M 4.496,6.479 5.202,6.665 A 0.258,0.258 0 0 0 5.075,6.885 0.258,0.258 0 0 0 5.333,7.144 0.258,0.258 0 0 0 5.591,6.886 0.258,0.258 0 0 0 5.556,6.757 l 0.556,0.146 c 0,0 0.099,0.75 -0.744,0.734 C 4.525,7.62 4.496,6.479 4.496,6.479 Z m 3.595,0 c 0,0 -0.028,1.14 -0.87,1.158 C 6.377,7.654 6.475,6.903 6.475,6.903 L 7.032,6.757 A 0.258,0.258 0 0 0 6.996,6.886 0.258,0.258 0 0 0 7.254,7.144 0.258,0.258 0 0 0 7.512,6.886 0.258,0.258 0 0 0 7.386,6.664 Z"
     id="path2"
     inkscape:connector-curvature="0"
     style="fill:#5beedc" />
</svg>
