<?xml version="1.0" encoding="UTF-8" standalone="no"?>
<svg
   xmlns:dc="http://purl.org/dc/elements/1.1/"
   xmlns:cc="http://creativecommons.org/ns#"
   xmlns:rdf="http://www.w3.org/1999/02/22-rdf-syntax-ns#"
   xmlns:svg="http://www.w3.org/2000/svg"
   xmlns="http://www.w3.org/2000/svg"
   xmlns:sodipodi="http://sodipodi.sourceforge.net/DTD/sodipodi-0.dtd"
   xmlns:inkscape="http://www.inkscape.org/namespaces/inkscape"
   width="48"
   height="48"
   viewBox="0 0 12.7 12.7"
   version="1.1"
   id="svg6"
   sodipodi:docname="sidguesser.svg"
   inkscape:version="0.92.5 (2060ec1f9f, 2020-04-08)">
  <metadata
     id="metadata12">
    <rdf:RDF>
      <cc:Work
         rdf:about="">
        <dc:format>image/svg+xml</dc:format>
        <dc:type
           rdf:resource="http://purl.org/dc/dcmitype/StillImage" />
        <dc:title></dc:title>
      </cc:Work>
    </rdf:RDF>
  </metadata>
  <defs
     id="defs10" />
  <sodipodi:namedview
     pagecolor="#ffffff"
     bordercolor="#666666"
     borderopacity="1"
     objecttolerance="10"
     gridtolerance="10"
     guidetolerance="10"
     inkscape:pageopacity="0"
     inkscape:pageshadow="2"
     inkscape:window-width="1085"
     inkscape:window-height="480"
     id="namedview8"
     showgrid="false"
     inkscape:zoom="4.9166667"
     inkscape:cx="2.1355932"
     inkscape:cy="24"
     inkscape:window-x="0"
     inkscape:window-y="25"
     inkscape:window-maximized="0"
     inkscape:current-layer="svg6" />
  <path
     style="font-variant-ligatures:normal;font-variant-position:normal;font-variant-caps:normal;font-variant-numeric:normal;font-variant-alternates:normal;font-feature-settings:normal;text-indent:0;text-decoration:none;text-decoration-line:none;text-decoration-style:solid;text-decoration-color:#000000;text-transform:none;text-orientation:mixed;white-space:normal;shape-padding:0;opacity:0.8;isolation:auto;mix-blend-mode:normal;fill:#ff2a2a;paint-order:stroke fill markers"
     d="M 4.73,3.46 C 4.259,3.46 3.811,3.555 3.41,3.725 H 3.409 L 3.392,3.732 A 3.33,3.33 0 0 0 3.325,3.762 L 3.303,3.772 A 3.302,3.302 0 0 0 3.221,3.812 L 3.191,3.826 3.133,3.856 3.105,3.872 3.027,3.917 3.005,3.93 2.945,3.967 C 2.935,3.972 2.927,3.978 2.918,3.984 L 2.844,4.032 2.822,4.048 A 3.211,3.211 0 0 0 2.674,4.158 L 2.657,4.171 A 3.086,3.086 0 0 0 2.521,4.286 L 2.503,4.302 2.499,4.305 2.439,4.362 2.415,4.386 A 3.177,3.177 0 0 0 2.373,4.428 L 2.349,4.453 A 3.012,3.012 0 0 0 2.232,4.583 L 2.209,4.611 A 2.885,2.885 0 0 0 2.157,4.676 L 2.137,4.702 A 2.71,2.71 0 0 0 2.102,4.749 L 2.081,4.779 A 2.87,2.87 0 0 0 2.034,4.847 L 2.018,4.87 A 3.046,3.046 0 0 0 1.984,4.924 L 1.966,4.954 A 2.737,2.737 0 0 0 1.923,5.027 L 1.913,5.044 1.881,5.104 1.864,5.138 A 2.458,2.458 0 0 0 1.791,5.295 L 1.778,5.325 1.754,5.386 1.744,5.411 C 1.734,5.438 1.725,5.464 1.717,5.491 1.713,5.501 1.709,5.511 1.706,5.523 a 2.36,2.36 0 0 0 -0.02,0.06 L 1.679,5.61 A 2.51,2.51 0 0 0 1.657,5.694 L 1.65,5.722 1.635,5.786 1.629,5.816 A 2.695,2.695 0 0 0 1.595,6.033 L 1.593,6.048 A 2.18,2.18 0 0 0 1.587,6.105 v 0.01 A 2.29,2.29 0 0 0 1.582,6.181 L 1.581,6.197 1.579,6.249 A 0.16,0.16 0 0 0 1.578,6.267 L 1.577,6.334 V 6.4 l 0.002,0.017 c 0,0.018 0,0.035 0.002,0.053 v 0.015 l 0.006,0.066 v 0.01 L 1.593,6.619 1.595,6.633 1.603,6.696 V 6.7 a 2.474,2.474 0 0 0 0.026,0.151 l 0.007,0.03 0.014,0.065 0.007,0.027 a 2.6,2.6 0 0 0 0.088,0.283 l 0.01,0.026 a 2.79,2.79 0 0 0 0.158,0.34 l 0.01,0.019 0.002,0.002 0.042,0.072 a 2.834,2.834 0 0 0 0.051,0.081 l 0.016,0.025 c 0.015,0.023 0.03,0.046 0.047,0.069 l 0.02,0.027 0.036,0.049 0.02,0.026 0.052,0.065 0.02,0.025 a 2.87,2.87 0 0 0 0.12,0.133 l 0.021,0.022 0.045,0.046 0.024,0.023 0.06,0.056 0.003,0.003 0.019,0.017 0.051,0.045 0.025,0.02 0.06,0.05 0.016,0.013 0.068,0.052 0.023,0.017 0.062,0.044 0.017,0.011 c 0.025,0.018 0.05,0.034 0.075,0.05 l 0.026,0.017 0.06,0.037 0.022,0.013 0.08,0.045 0.025,0.014 0.06,0.032 0.03,0.014 c 0.026,0.014 0.054,0.027 0.081,0.04 l 0.023,0.01 0.065,0.03 0.019,0.007 c 0.402,0.17 0.85,0.265 1.32,0.265 h 3.24 c 0.345,0 0.679,-0.052 0.99,-0.146 A 3.668,3.668 0 0 0 9.049,9.033 H 9.051 A 3.304,3.304 0 0 0 9.601,8.791 V 8.79 L 9.602,8.789 C 9.666,8.753 9.729,8.715 9.791,8.675 L 9.792,8.674 9.852,8.634 9.853,8.632 C 9.913,8.592 9.972,8.548 10.029,8.503 L 10.03,8.502 a 2.84,2.84 0 0 0 0.051,-0.041 l 0.01,-0.008 a 3.21,3.21 0 0 0 0.048,-0.04 l 0.002,-0.004 h 10e-4 A 3.801,3.801 0 0 0 10.247,8.313 L 10.25,8.31 10.295,8.266 10.303,8.257 a 2.932,2.932 0 0 0 0.14,-0.15 l 0.01,-0.01 0.035,-0.043 0.008,-0.01 0.038,-0.047 c 0,-0.002 0.003,-0.004 0.004,-0.006 a 2.99,2.99 0 0 0 0.082,-0.11 3.2,3.2 0 0 0 0.037,-0.054 l 0.01,-0.015 0.03,-0.047 0.005,-0.007 a 3.075,3.075 0 0 0 0.07,-0.117 l 0.006,-0.012 0.024,-0.045 0.01,-0.018 a 1.96,1.96 0 0 0 0.086,-0.178 l 0.006,-0.016 0.02,-0.047 A 0.12,0.12 0 0 0 10.93,7.31 l 0.02,-0.05 c 0,-0.004 0.002,-0.008 0.004,-0.012 a 2.227,2.227 0 0 0 0.043,-0.127 l 0.005,-0.015 0.015,-0.05 c 0,-0.005 0.002,-0.01 0.004,-0.016 l 0.014,-0.052 c 0,-0.004 0.003,-0.01 0.004,-0.014 l 0.015,-0.065 h 10e-4 l 10e-4,-0.002 c 0.005,-0.021 0.01,-0.042 0.013,-0.063 l 0.003,-0.017 0.01,-0.05 0.003,-0.02 L 11.092,6.709 11.095,6.69 11.103,6.624 11.109,6.557 11.11,6.54 11.114,6.487 V 6.47 l 0.003,-0.051 10e-4,-0.02 10e-4,-0.067 V 6.263 C 11.117,6.257 11.117,6.251 11.117,6.244 c 0,-0.017 0,-0.033 -0.002,-0.05 L 11.114,6.173 11.111,6.125 V 6.105 A 3.089,3.089 0 0 1 11.104,6.038 L 11.096,5.972 11.093,5.953 11.086,5.905 11.082,5.885 11.073,5.835 11.071,5.818 11.057,5.755 V 5.753 H 11.056 L 11.04,5.688 c 0,-0.005 -0.003,-0.01 -0.004,-0.016 l -0.014,-0.05 c 0,-0.005 -0.002,-0.01 -0.004,-0.016 L 11.003,5.555 10.998,5.542 A 2.531,2.531 0 0 0 10.955,5.414 L 10.95,5.402 10.931,5.353 10.924,5.335 10.904,5.29 10.898,5.274 A 2.605,2.605 0 0 0 10.842,5.152 L 10.837,5.144 A 1.817,1.817 0 0 0 10.812,5.094 L 10.804,5.079 A 1.78,1.78 0 0 0 10.779,5.033 L 10.772,5.02 A 2.847,2.847 0 0 0 10.702,4.904 L 10.698,4.897 A 3.176,3.176 0 0 0 10.667,4.85 L 10.657,4.834 A 2.41,2.41 0 0 0 10.627,4.791 L 10.62,4.781 A 3.764,3.764 0 0 0 10.54,4.672 L 10.531,4.662 A 3.948,3.948 0 0 0 10.452,4.566 L 10.443,4.555 A 2.936,2.936 0 0 0 10.35,4.452 L 10.348,4.45 A 2.663,2.663 0 0 0 10.304,4.404 L 10.294,4.395 A 3.1,3.1 0 0 0 10.252,4.354 L 10.246,4.347 A 3.197,3.197 0 0 0 10.141,4.252 3.164,3.164 0 0 0 10.089,4.208 L 10.08,4.2 A 3.698,3.698 0 0 0 9.91,4.07 2.919,2.919 0 0 0 9.853,4.03 L 9.846,4.025 A 3.1,3.1 0 0 0 9.793,3.99 L 9.786,3.985 A 3.358,3.358 0 0 0 9.599,3.873 H 9.598 L 9.597,3.871 A 3.359,3.359 0 0 0 8.958,3.601 3.426,3.426 0 0 0 7.967,3.456 Z m 0,0.97 h 3.238 c 0.529,0 1.007,0.172 1.372,0.46 0.063,0.05 0.123,0.102 0.179,0.159 H 9.52 a 2,2 0 0 1 0.184,0.214 v 0.001 a 1.857,1.857 0 0 1 0.125,0.195 l 0.004,0.005 a 2.118,2.118 0 0 1 0.08,0.163 V 5.631 H 9.914 L 9.93,5.668 c 0,0.004 0.002,0.007 0.004,0.01 l 0.014,0.037 0.003,0.01 0.013,0.037 C 9.965,5.765 9.965,5.768 9.967,5.77 9.976,5.798 9.985,5.826 9.992,5.854 l 0.01,0.035 c 0,0.005 0.002,0.011 0.004,0.017 l 0.007,0.031 0.005,0.021 0.006,0.03 0.005,0.022 0.005,0.031 0.004,0.024 c 0,0.008 0.002,0.016 0.004,0.024 l 0.002,0.027 c 10e-4,0.01 0.003,0.018 0.003,0.028 l 0.003,0.025 0.002,0.03 0.002,0.025 v 0.033 c 0.002,0.007 0.002,0.014 0.002,0.022 v 0.11 l -10e-4,0.022 -10e-4,0.033 -0.002,0.024 c 0,0.01 0,0.02 -0.002,0.031 l -0.003,0.026 -0.003,0.027 -0.002,0.027 -0.008,0.048 c 0,0.01 -0.003,0.02 -0.005,0.03 0,0.007 -0.002,0.015 -0.004,0.023 l -0.006,0.03 -0.005,0.02 c -0.003,0.011 -0.004,0.022 -0.008,0.033 0,0.005 -0.002,0.01 -0.004,0.016 L 9.992,6.814 C 9.985,6.844 9.976,6.872 9.966,6.901 V 6.905 H 9.964 L 9.951,6.943 c 0,0.004 -0.002,0.007 -0.004,0.01 L 9.934,6.989 9.929,7 9.915,7.036 9.911,7.044 A 1.885,1.885 0 0 1 9.853,7.165 L 9.832,7.205 9.831,7.206 9.83,7.208 A 2.22,2.22 0 0 1 9.808,7.248 H 9.806 A 1.85,1.85 0 0 1 9.704,7.404 H 9.703 L 9.702,7.406 A 1.495,1.495 0 0 1 9.674,7.442 L 9.673,7.444 A 1.913,1.913 0 0 1 9.517,7.62 L 9.516,7.621 V 7.622 C 9.46,7.678 9.4,7.732 9.337,7.781 8.973,8.069 8.494,8.241 7.966,8.241 H 4.729 A 2.268,2.268 0 0 1 3.557,7.92 L 3.555,7.919 A 2.305,2.305 0 0 1 3.286,7.722 L 3.281,7.718 A 1.976,1.976 0 0 1 3.175,7.618 L 3.148,7.591 3.14,7.582 A 1.935,1.935 0 0 1 3.087,7.523 L 3.082,7.517 A 2.005,2.005 0 0 1 3.056,7.487 L 3.047,7.476 A 1.883,1.883 0 0 1 2.943,7.333 L 2.933,7.317 A 1.842,1.842 0 0 1 2.901,7.267 L 2.889,7.247 A 2.063,2.063 0 0 1 2.86,7.197 L 2.845,7.169 A 1.588,1.588 0 0 1 2.823,7.125 L 2.811,7.1 A 1.157,1.157 0 0 1 2.787,7.046 L 2.775,7.018 A 1.706,1.706 0 0 1 2.747,6.947 L 2.739,6.922 A 1.72,1.72 0 0 1 2.705,6.815 L 2.7,6.795 A 1.547,1.547 0 0 1 2.676,6.691 L 2.672,6.67 A 1.664,1.664 0 0 1 2.663,6.62 C 2.663,6.613 2.661,6.607 2.66,6.6 A 2.159,2.159 0 0 1 2.655,6.558 L 2.652,6.538 A 1.747,1.747 0 0 1 2.647,6.481 L 2.646,6.464 2.643,6.418 a 0.14,0.14 0 0 1 0,-0.019 C 2.641,6.379 2.641,6.359 2.641,6.339 V 6.338 6.336 L 2.642,6.276 2.643,6.256 2.646,6.211 V 6.194 L 2.652,6.137 2.655,6.117 2.66,6.075 2.663,6.055 2.673,6.004 2.676,5.986 2.686,5.941 C 2.686,5.933 2.689,5.926 2.69,5.918 A 1.745,1.745 0 0 1 2.72,5.809 L 2.728,5.786 A 1.798,1.798 0 0 1 2.774,5.658 L 2.787,5.628 A 2.42,2.42 0 0 1 2.799,5.602 L 2.812,5.574 2.823,5.549 A 1.9,1.9 0 0 1 2.845,5.506 L 2.861,5.477 A 1.12,1.12 0 0 1 2.888,5.428 L 2.901,5.407 2.931,5.36 2.943,5.34 2.963,5.312 C 2.966,5.306 2.971,5.301 2.975,5.295 A 1.882,1.882 0 0 1 3.141,5.092 L 3.147,5.085 3.177,5.055 3.185,5.047 c 0.03,-0.03 0.062,-0.06 0.096,-0.09 L 3.286,4.953 A 2.122,2.122 0 0 1 3.556,4.755 2.24,2.24 0 0 1 4.729,4.433 Z"
     id="path2"
     inkscape:connector-curvature="0" />
  <path
     d="M 6.34,0.075 A 6.295,6.295 0 0 0 0.055,6.36 6.295,6.295 0 0 0 6.34,12.655 6.295,6.295 0 0 0 12.634,6.36 6.295,6.295 0 0 0 6.34,0.075 Z m -0.011,0.94 a 5.408,5.408 0 0 1 5.397,5.387 5.407,5.407 0 0 1 -10.814,0 c 0,-2.987 2.43,-5.387 5.417,-5.387 z M 6.35,2.645 A 2.117,2.117 0 0 0 4.233,4.762 H 5.292 C 5.292,4.18 5.768,3.704 6.35,3.704 a 1.058,1.058 0 0 1 1.058,1.058 c 0,0.292 -0.116,0.556 -0.312,0.747 L 6.44,6.175 A 2.133,2.133 0 0 0 5.82,7.673 V 7.937 H 6.88 C 6.88,7.144 7.117,6.827 7.498,6.44 L 7.975,5.953 C 8.276,5.651 8.467,5.228 8.467,4.763 A 2.117,2.117 0 0 0 6.35,2.645 Z m -0.53,6.35 v 1.06 h 1.06 v -1.06 z"
     id="path4"
     inkscape:connector-curvature="0"
     style="fill:#5beedc" />
</svg>
