<?xml version="1.0" encoding="UTF-8" standalone="no"?>
<svg
   xmlns:dc="http://purl.org/dc/elements/1.1/"
   xmlns:cc="http://creativecommons.org/ns#"
   xmlns:rdf="http://www.w3.org/1999/02/22-rdf-syntax-ns#"
   xmlns:svg="http://www.w3.org/2000/svg"
   xmlns="http://www.w3.org/2000/svg"
   xmlns:sodipodi="http://sodipodi.sourceforge.net/DTD/sodipodi-0.dtd"
   xmlns:inkscape="http://www.inkscape.org/namespaces/inkscape"
   width="48"
   height="48"
   viewBox="0 0 12.7 12.7"
   version="1.1"
   id="svg4"
   sodipodi:docname="pyrit.svg"
   inkscape:version="0.92.5 (2060ec1f9f, 2020-04-08)">
  <metadata
     id="metadata10">
    <rdf:RDF>
      <cc:Work
         rdf:about="">
        <dc:format>image/svg+xml</dc:format>
        <dc:type
           rdf:resource="http://purl.org/dc/dcmitype/StillImage" />
        <dc:title></dc:title>
      </cc:Work>
    </rdf:RDF>
  </metadata>
  <defs
     id="defs8" />
  <sodipodi:namedview
     pagecolor="#ffffff"
     bordercolor="#666666"
     borderopacity="1"
     objecttolerance="10"
     gridtolerance="10"
     guidetolerance="10"
     inkscape:pageopacity="0"
     inkscape:pageshadow="2"
     inkscape:window-width="1085"
     inkscape:window-height="480"
     id="namedview6"
     showgrid="false"
     inkscape:zoom="4.9166667"
     inkscape:cx="2.1355932"
     inkscape:cy="24"
     inkscape:window-x="0"
     inkscape:window-y="25"
     inkscape:window-maximized="0"
     inkscape:current-layer="svg4" />
  <path
     d="m 6.34,0.075 a 6.295,6.295 0 0 0 -6.285,6.285 6.295,6.295 0 0 0 1.819,4.419 6.295,6.295 0 0 0 0.208,0.2 6.295,6.295 0 0 0 0.375,0.326 6.295,6.295 0 0 0 0.492,0.352 6.295,6.295 0 0 0 0.31,0.178 6.295,6.295 0 0 0 3.081,0.82 A 6.295,6.295 0 0 0 12.634,6.36 6.295,6.295 0 0 0 6.34,0.075 Z M 6.329,1.015 A 5.408,5.408 0 0 1 11.726,6.402 5.407,5.407 0 0 1 10.937,9.201 2.35,2.35 0 0 1 10.588,9.27 0.636,0.636 0 0 1 10.444,9.247 0.915,0.915 0 0 0 10.164,9.219 0.804,0.804 0 0 0 9.704,9.332 L 9.633,9.37 9.365,9.365 V 9.358 C 9.367,9.338 9.377,9.287 9.4,9.213 9.424,9.139 9.46,9.041 9.507,8.919 A 1.27,1.27 0 0 1 9.671,8.599 C 9.759,8.48 9.816,8.357 9.866,8.179 9.897,8.071 9.915,8.009 9.927,7.974 9.938,7.943 9.94,7.944 9.942,7.942 a 2.549,2.549 0 0 1 0.21,-0.016 C 10.4,7.917 10.427,7.909 10.615,7.779 10.89,7.589 11.018,7.321 11.059,6.865 11.078,6.65 11.088,6.571 11.118,6.41 V 5.726 a 0.047,0.047 0 0 0 -0.015,0 c -0.022,0.003 -0.031,0.015 -0.035,0.02 -0.01,0.013 -0.008,0.016 -0.01,0.02 C 11.054,5.78 11.053,5.789 11.05,5.806 11.049,5.819 11.046,5.824 11.044,5.837 11.041,5.818 11.039,5.812 11.037,5.79 L 11.023,5.7 A 0.326,0.326 0 0 0 11.008,5.635 1.664,1.664 0 0 1 10.978,5.527 1.47,1.47 0 0 0 10.811,5.147 0.974,0.974 0 0 0 10.525,4.88 1.154,1.154 0 0 0 10.302,4.793 L 10.199,4.765 10.159,4.647 A 1.758,1.758 0 0 0 10.033,4.36 0.5,0.5 0 0 0 9.893,4.181 C 9.896,4.178 9.901,4.165 9.925,4.136 10.02,4.022 10.049,3.941 10.042,3.813 A 0.46,0.46 0 0 0 9.987,3.599 C 9.886,3.4 9.69,3.253 9.421,3.164 9.291,3.121 9.271,3.118 9.045,3.121 A 1.219,1.219 0 0 1 8.83,3.116 C 8.797,3.109 8.78,3.096 8.722,3.055 A 3.415,3.415 0 0 0 8.264,2.806 2.595,2.595 0 0 0 7.284,2.606 V 2.603 2.604 H 7.224 A 3.046,3.046 0 0 0 6.043,2.87 C 6.005,2.89 5.986,2.89 5.987,2.891 A 0.109,0.109 0 0 1 5.977,2.868 0.308,0.308 0 0 0 5.922,2.771 C 5.899,2.745 5.869,2.723 5.83,2.723 5.81,2.723 5.803,2.728 5.793,2.732 A 1.04,1.04 0 0 0 5.675,2.793 L 5.543,2.873 C 5.527,2.883 5.518,2.883 5.502,2.907 a 0.053,0.053 0 0 0 -0.01,0.032 c 0,0.016 0.012,0.037 0.023,0.045 0.023,0.017 0.032,0.012 0.04,0.012 0.034,-10e-4 0.066,-0.012 0.123,-0.03 a 0.393,0.393 0 0 1 0.12,-0.024 c 0.022,0 0.03,0.005 0.05,0.022 0.003,0.003 0.008,0.02 0.01,0.022 C 5.857,2.99 5.853,2.999 5.844,3.012 A 0.465,0.465 0 0 1 5.774,3.08 1.77,1.77 0 0 1 5.502,3.257 0.432,0.432 0 0 1 5.402,3.303 C 5.387,3.305 5.378,3.303 5.346,3.29 A 0.464,0.464 0 0 0 5.173,3.266 C 5.153,3.266 5.156,3.265 5.142,3.263 L 5.171,3.24 C 5.189,3.224 5.24,3.188 5.276,3.165 A 0.69,0.69 0 0 0 5.345,3.115 L 5.355,3.103 C 5.359,3.097 5.37,3.085 5.361,3.057 A 0.06,0.06 0 0 0 5.333,3.024 0.054,0.054 0 0 0 5.31,3.018 C 5.3,3.018 5.295,3.02 5.291,3.021 A 0.641,0.641 0 0 0 5.215,3.059 C 5.18,3.08 5.104,3.125 5.045,3.158 4.987,3.192 4.929,3.226 4.905,3.243 L 4.813,3.309 4.902,3.371 C 4.908,3.376 4.906,3.372 4.906,3.374 A 0.09,0.09 0 0 1 4.892,3.411 1.3,1.3 0 0 1 4.701,3.632 C 4.573,3.76 4.514,3.828 4.481,3.895 4.453,3.955 4.435,4.01 4.451,4.065 c 0.018,0.057 0.058,0.1 0.121,0.16 a 0.544,0.544 0 0 1 0.1,0.116 c 0.017,0.03 0.023,0.054 0.023,0.09 A 0.976,0.976 0 0 1 4.63,4.673 L 4.59,4.68 A 4.083,4.083 0 0 1 4.165,4.726 C 4.147,4.729 4.137,4.726 4.112,4.742 4.083,4.76 4.069,4.805 4.083,4.835 c 0.013,0.03 0.044,0.046 0.076,0.046 -0.01,0 -0.005,-0.001 0.003,0.005 a 0.492,0.492 0 0 1 0.106,0.14 c 0.013,0.027 0.026,0.05 0.038,0.068 a 0.12,0.12 0 0 0 0.021,0.025 0.076,0.076 0 0 0 0.02,0.01 L 4.323,5.134 4.321,5.158 a 0.074,0.074 0 0 0 -0.01,0.027 c -0.001,0.015 0,0.028 0,0.047 V 5.269 C 4.312,5.28 4.309,5.291 4.324,5.312 L 4.32,5.321 a 3.32,3.32 0 0 0 0.022,0.373 c 0.002,0.005 0,0.007 0.01,0.022 a 0.07,0.07 0 0 0 0.04,0.032 C 4.387,5.752 4.382,5.754 4.372,5.763 4.368,5.768 4.359,5.776 4.356,5.796 4.353,5.816 4.368,5.841 4.379,5.848 4.401,5.863 4.406,5.858 4.414,5.86 h 0.024 c 0.005,0 0.013,0.004 0.02,0.007 C 4.455,5.872 4.454,5.875 4.448,5.881 4.428,5.904 4.396,5.936 4.349,5.978 A 0.511,0.511 0 0 1 4.121,6.114 1.508,1.508 0 0 1 3.739,6.201 C 3.714,6.205 3.697,6.215 3.674,6.226 A 0.594,0.594 0 0 0 3.604,6.269 C 3.561,6.299 3.514,6.329 3.474,6.349 3.435,6.369 3.395,6.377 3.401,6.377 A 0.118,0.118 0 0 0 3.359,6.385 0.066,0.066 0 0 0 3.317,6.421 c -0.01,0.024 10e-4,0.057 0.015,0.07 A 0.087,0.087 0 0 0 3.373,6.513 C 3.398,6.52 3.415,6.519 3.447,6.521 L 3.556,6.523 A 0.458,0.458 0 0 0 3.802,6.478 0.372,0.372 0 0 1 3.886,6.446 c 10e-4,0 0.005,0.004 0.011,0.013 0.012,0.014 0.015,0.024 0.015,0.036 A 0.094,0.094 0 0 1 3.895,6.545 C 3.882,6.567 3.877,6.573 3.83,6.579 A 1.504,1.504 0 0 1 3.56,6.571 1.83,1.83 0 0 0 3.461,6.565 H 3.43 c -0.004,0 -0.008,0 -0.017,0.003 -0.004,0.001 -0.01,0 -0.025,0.015 A 0.059,0.059 0 0 0 3.372,6.623 C 3.373,6.64 3.382,6.651 3.387,6.657 3.402,6.674 3.405,6.67 3.409,6.671 L 3.417,6.674 3.434,6.678 3.484,6.687 3.637,6.71 A 27.274,27.274 0 0 1 4.056,6.77 L 4.054,6.776 A 0.146,0.146 0 0 1 3.997,6.834 C 3.965,6.85 3.957,6.853 3.94,6.852 A 0.48,0.48 0 0 1 3.833,6.824 0.638,0.638 0 0 0 3.633,6.788 c -0.07,0 -0.144,-0.006 -0.387,-0.03 A 0.084,0.084 0 0 0 3.205,6.762 0.084,0.084 0 0 0 3.165,6.798 C 3.149,6.824 3.145,6.849 3.134,6.895 3.091,7.078 2.948,7.33 2.78,7.512 A 2.274,2.274 0 0 0 2.663,7.65 l -0.01,0.015 c -0.004,0.006 -0.01,0.006 -0.01,0.033 0,0.019 0.016,0.05 0.037,0.06 0.022,0.011 0.039,0.01 0.055,0.008 A 0.692,0.692 0 0 0 2.866,7.731 0.567,0.567 0 0 1 2.946,7.71 C 2.96,7.708 2.96,7.709 2.962,7.71 H 2.96 c 0,0.008 -0.01,0.032 -0.034,0.059 A 0.327,0.327 0 0 0 2.86,7.899 C 2.84,7.963 2.817,8.065 2.775,8.253 A 1.749,1.749 0 0 1 2.727,8.42 C 2.686,8.504 2.68,8.595 2.702,8.745 c 0.035,0.247 0.113,0.527 0.194,0.676 0.03,0.057 0.052,0.121 0.08,0.255 0.027,0.13 0.038,0.216 0.036,0.272 -0.002,0.055 -0.013,0.08 -0.04,0.11 -0.013,0.013 -0.027,0.016 -0.032,0.052 a 0.073,0.073 0 0 0 0.021,0.055 c 0.011,0.01 0.019,0.011 0.025,0.014 0.007,0.003 0.015,0 0.022,0.002 v 0.035 a 0.394,0.394 0 0 0 -0.029,0.006 c -0.038,0.007 -0.07,0.01 -0.096,0.045 a 0.085,0.085 0 0 0 -0.014,0.062 c 0.003,0.017 0.009,0.031 0.017,0.045 0.004,0.008 0.009,0.02 0.027,0.031 0.018,0.011 0.046,0.01 0.06,0.004 0.028,-0.012 0.04,-0.027 0.067,-0.051 l 0.021,-0.02 0.053,0.052 v -0.082 a 0.129,0.129 0 0 0 0.022,-0.004 l 0.027,-0.01 A 1.32,1.32 0 0 0 3.291,10.233 L 3.311,10.22 3.348,10.215 3.338,10.168 A 0.055,0.055 0 0 0 3.325,10.133 C 3.308,10.116 3.295,10.118 3.29,10.117 H 3.278 v 10e-4 l -0.057,0.007 0.002,0.01 A 2.088,2.088 0 0 0 3.105,10.184 L 3.081,10.195 3.074,10.201 3.052,10.179 c 0.01,-0.003 0.022,-0.005 0.031,-0.011 A 0.24,0.24 0 0 0 3.148,10.088 0.252,0.252 0 0 0 3.186,9.99 C 3.191,9.951 3.191,9.904 3.19,9.814 3.19,9.682 3.18,9.578 3.16,9.474 A 7.43,7.43 0 0 1 3.117,9.232 1.223,1.223 0 0 0 3.075,9.051 1.378,1.378 0 0 1 3.029,8.678 C 3.028,8.538 3.046,8.398 3.068,8.351 3.135,8.204 3.18,7.984 3.197,7.745 A 1.7,1.7 0 0 1 3.237,7.426 C 3.244,7.405 3.249,7.399 3.249,7.4 l 0.01,0.002 C 3.274,7.406 3.266,7.398 3.27,7.412 A 0.41,0.41 0 0 1 3.266,7.532 C 3.257,7.598 3.242,7.736 3.231,7.842 3.221,7.948 3.206,8.085 3.198,8.146 3.189,8.215 3.182,8.376 3.181,8.516 3.18,8.639 3.179,8.702 3.183,8.748 a 0.333,0.333 0 0 0 0.28,0.275 0.251,0.251 0 0 0 0.25,-0.12 0.992,0.992 0 0 0 0.084,-0.228 C 3.824,8.575 3.85,8.453 3.873,8.32 3.893,8.202 3.925,8.062 3.937,8.027 A 0.26,0.26 0 0 1 3.98,7.946 C 3.993,7.931 4.001,7.928 4.003,7.928 4.005,7.93 4.025,7.936 4.04,7.946 c 0.01,0.006 0.018,0.013 0.023,0.018 0.002,0.003 0.001,0 0.002,10e-4 A 0.957,0.957 0 0 1 4.035,8.084 C 4.011,8.157 3.979,8.285 3.96,8.377 A 4.571,4.571 0 0 1 3.936,8.495 L 3.926,8.532 3.924,8.542 3.927,8.536 C 3.919,8.549 3.92,8.55 3.919,8.555 L 3.915,8.569 A 30.881,30.881 0 0 0 3.724,9.549 0.151,0.151 0 0 0 3.72,9.493 C 3.715,9.477 3.712,9.462 3.703,9.445 A 0.102,0.102 0 0 0 3.66,9.404 C 3.622,9.386 3.59,9.39 3.54,9.394 3.496,9.397 3.477,9.396 3.477,9.396 L 3.462,9.377 A 0.431,0.431 0 0 1 3.421,9.288 1.469,1.469 0 0 1 3.376,9.128 0.28,0.28 0 0 0 3.306,9 C 3.299,8.994 3.292,8.987 3.282,8.982 L 3.276,8.974 H 3.25 a 0.062,0.062 0 0 0 -0.043,0.017 0.1,0.1 0 0 0 -0.019,0.021 0.35,0.35 0 0 0 -0.043,0.16 1.174,1.174 0 0 0 0.1,0.33 c 0.036,0.071 0.11,0.136 0.188,0.174 0.072,0.036 0.15,0.033 0.21,-10e-4 A 0.166,0.166 0 0 0 3.721,9.57 L 3.71,9.633 A 6.23,6.23 0 0 1 3.67,9.85 3.68,3.68 0 0 0 3.635,10.038 1.126,1.126 0 0 1 3.615,10.136 v 0.001 a 1.031,1.031 0 0 1 -0.11,0.057 1.803,1.803 0 0 0 -0.302,0.16 1.134,1.134 0 0 0 -0.136,0.116 0.177,0.177 0 0 0 -0.014,0.017 c -0.004,0.006 -0.013,0.009 -0.013,0.038 0,0.023 0.013,0.037 0.021,0.043 0.008,0.007 0.014,0.009 0.018,0.01 0.01,0.005 0.018,0.006 0.027,0.007 a 0.382,0.382 0 0 0 0.059,0.005 c 0.037,0 0.067,0.004 0.085,0.01 0.005,0 0.005,0.002 0.008,0.003 L 3.256,10.61 a 0.946,0.946 0 0 1 -0.033,0.085 c -0.01,0.024 -0.035,0.073 -0.049,0.103 A 5.407,5.407 0 0 1 2.538,10.257 c 0.006,10e-4 0.013,0.009 0.02,0.01 0.011,0 0.025,0.002 0.042,-0.007 A 0.071,0.071 0 0 0 2.635,10.21 C 2.639,10.176 2.625,10.162 2.613,10.142 2.577,10.087 2.552,9.957 2.51,9.446 2.466,8.894 2.497,7.902 2.567,7.546 L 2.595,7.403 a 0.27,0.27 0 0 1 0.063,-0.1 C 2.698,7.259 2.748,7.193 2.776,7.151 A 4.172,4.172 0 0 0 3.074,6.539 0.753,0.753 0 0 0 3.11,6.445 C 3.112,6.437 3.136,6.37 3.158,6.315 L 3.184,6.253 C 3.19,6.242 3.192,6.242 3.194,6.24 A 0.648,0.648 0 0 1 3.314,6.227 1.02,1.02 0 0 0 3.586,6.166 C 3.679,6.134 3.766,6.102 3.833,6.076 A 0.937,0.937 0 0 0 3.975,6.014 L 3.994,6 C 3.998,5.996 4.007,5.993 4.012,5.968 A 0.062,0.062 0 0 0 3.999,5.923 C 3.997,5.92 3.995,5.92 3.993,5.919 4.021,5.907 4.059,5.896 4.081,5.885 4.116,5.868 4.14,5.859 4.161,5.834 4.182,5.809 4.186,5.778 4.187,5.752 4.189,5.72 4.183,5.689 4.174,5.642 A 3.165,3.165 0 0 0 4.084,5.295 0.152,0.152 0 0 0 4.074,5.275 C 4.072,5.271 4.068,5.264 4.059,5.257 L 4.051,5.249 4.041,5.246 A 0.065,0.065 0 0 0 3.991,5.252 0.058,0.058 0 0 0 3.971,5.274 C 3.964,5.286 3.962,5.296 3.959,5.306 a 0.528,0.528 0 0 0 -0.01,0.08 0.78,0.78 0 0 1 -0.01,0.072 L 3.936,5.477 A 0.176,0.176 0 0 0 3.906,5.438 0.086,0.086 0 0 0 3.886,5.423 0.058,0.058 0 0 0 3.837,5.418 C 3.822,5.423 3.82,5.427 3.817,5.43 A 0.112,0.112 0 0 0 3.807,5.438 L 3.79,5.458 A 4.316,4.316 0 0 0 3.625,5.687 3.823,3.823 0 0 1 3.478,5.857 L 3.392,5.951 3.365,5.981 a 0.403,0.403 0 0 0 -0.009,0.01 c 0,0.003 -0.002,0.004 -0.004,0.007 A 0.047,0.047 0 0 0 3.349,6.004 C 3.347,6.007 3.343,6.009 3.343,6.028 c 0,0.015 0.011,0.037 0.024,0.046 0.003,0.002 0.005,0.001 0.007,0.003 A 0.88,0.88 0 0 1 3.214,6.081 C 3.158,6.076 3.131,6.071 3.1,6.077 A 0.084,0.084 0 0 0 3.051,6.106 C 3.04,6.121 3.038,6.133 3.036,6.141 a 0.303,0.303 0 0 0 -0.01,0.075 c 0,-0.007 -0.005,0.023 -0.014,0.055 A 2.506,2.506 0 0 1 2.879,6.619 C 2.829,6.717 2.683,6.963 2.649,7.008 A 24.95,24.95 0 0 1 2.539,7.152 0.717,0.717 0 0 0 2.414,7.384 2.37,2.37 0 0 0 2.34,7.767 C 2.305,8.024 2.304,8.059 2.304,8.635 A 44.012,44.012 0 0 0 2.313,9.683 C 2.303,9.688 2.291,9.691 2.282,9.698 A 0.361,0.361 0 0 0 2.234,9.735 C 2.208,9.76 2.132,9.752 2.096,9.769 A 5.407,5.407 0 0 1 0.912,6.402 c 0,-2.987 2.43,-5.387 5.417,-5.387 z M 7.3,2.816 c 0.289,0.003 0.588,0.059 0.84,0.163 0.248,0.102 0.44,0.218 0.674,0.409 0.073,0.059 0.109,0.093 0.16,0.106 A 0.11,0.11 0 0 0 9.052,3.483 C 9.072,3.47 9.086,3.455 9.101,3.438 9.161,3.369 9.196,3.332 9.215,3.317 9.233,3.301 9.225,3.305 9.244,3.305 c 0.015,0 0.012,10e-4 0.012,10e-4 0,0 0.008,0.007 0.02,0.027 a 0.27,0.27 0 0 0 0.083,0.089 0.62,0.62 0 0 0 0.143,0.06 c 0.055,0.017 0.123,0.044 0.132,0.049 0.046,0.023 0.16,0.123 0.208,0.188 0.04,0.054 0.049,0.079 0.041,0.113 A 0.5,0.5 0 0 1 9.763,4.005 1.865,1.865 0 0 1 9.637,4.135 0.063,0.063 0 0 0 9.635,4.105 0.106,0.106 0 0 0 9.623,4.079 0.375,0.375 0 0 0 9.585,4.029 1.677,1.677 0 0 0 9.461,3.903 4.151,4.151 0 0 0 9.095,3.6 2.958,2.958 0 0 0 8.224,3.188 3.22,3.22 0 0 0 6.714,3.168 C 6.538,3.21 6.216,3.308 6.109,3.356 L 5.91,3.444 A 4.482,4.482 0 0 0 5.565,3.613 L 5.545,3.621 A 0.079,0.079 0 0 0 5.521,3.581 0.089,0.089 0 0 0 5.475,3.561 C 5.447,3.557 5.419,3.566 5.383,3.586 5.347,3.606 5.295,3.639 5.207,3.696 L 5.014,3.823 5.177,3.843 A 10.028,10.028 0 0 0 4.802,4.097 0.303,0.303 0 0 1 4.765,4.12 L 4.756,4.123 A 0.034,0.034 0 0 1 4.75,4.109 0.117,0.117 0 0 1 4.76,4.033 C 4.77,4.013 4.845,3.936 4.976,3.837 5.03,3.797 5.107,3.737 5.149,3.703 5.256,3.617 5.264,3.611 5.359,3.583 A 0.399,0.399 0 0 0 5.482,3.529 0.155,0.155 0 0 0 5.538,3.435 c 0.004,-0.017 0,-0.009 0.004,-0.012 A 0.48,0.48 0 0 1 5.616,3.388 C 5.644,3.377 5.672,3.365 5.695,3.354 L 5.725,3.34 5.749,3.325 A 4.295,4.295 0 0 1 6.404,2.99 C 6.497,2.954 6.704,2.894 6.844,2.862 A 2,2 0 0 1 7.243,2.817 H 7.3 Z M 7.31,2.868 A 3.416,3.416 0 0 0 6.564,2.976 0.194,0.194 0 0 0 6.537,2.988 c -0.01,0.005 -0.02,0.01 -0.03,0.027 -0.007,0.011 -0.013,0.04 0,0.06 C 6.52,3.095 6.536,3.099 6.545,3.101 6.564,3.105 6.575,3.102 6.587,3.1 6.597,3.097 6.659,3.088 6.713,3.08 L 6.946,3.047 a 3.588,3.588 0 0 1 1.018,0.038 l 0.04,0.005 a 0.07,0.07 0 0 0 0.013,0 C 8.022,3.091 8.023,3.095 8.045,3.086 8.05,3.083 8.058,3.079 8.065,3.07 A 0.06,0.06 0 0 0 8.076,3.03 C 8.073,3.005 8.063,3 8.058,2.996 8.05,2.988 8.046,2.988 8.042,2.986 A 0.428,0.428 0 0 0 8.017,2.973 1.375,1.375 0 0 0 7.701,2.902 2.897,2.897 0 0 0 7.311,2.868 Z m 0.191,0.57 h 0.09 l 0.023,0.033 c 0.09,0.13 0.3,0.5 0.39,0.685 L 8.134,4.426 8.177,4.23 C 8.182,4.208 8.182,4.185 8.183,4.155 c 0,-0.03 0,-0.064 -0.003,-0.096 V 4.057 L 8.194,4.072 8.238,4.12 C 8.249,4.132 8.255,4.14 8.271,4.15 A 0.056,0.056 0 0 0 8.32,4.155 0.06,0.06 0 0 0 8.357,4.117 C 8.363,4.097 8.361,4.09 8.361,4.08 A 0.992,0.992 0 0 0 8.307,3.82 0.938,0.938 0 0 0 8.188,3.549 C 8.186,3.537 8.183,3.533 8.18,3.528 A 0.174,0.174 0 0 0 8.169,3.508 L 8.161,3.498 8.184,3.511 a 0.987,0.987 0 0 1 0.131,0.101 c 0.15,0.144 0.219,0.311 0.219,0.54 a 0.762,0.762 0 0 0 0.009,0.124 c 0,0.005 0.002,0.01 0.004,0.017 0.003,0.006 0.002,0.016 0.025,0.03 0.017,0.01 0.037,0.01 0.05,0.006 0.012,-0.004 0.02,-0.01 0.026,-0.015 A 0.17,0.17 0 0 0 8.68,4.28 0.48,0.48 0 0 0 8.733,4.183 V 4.182 A 0.468,0.468 0 0 1 8.825,4.316 L 8.832,4.334 8.812,4.336 A 0.316,0.316 0 0 0 8.762,4.342 C 8.746,4.345 8.734,4.347 8.716,4.362 A 0.062,0.062 0 0 0 8.694,4.405 C 8.693,4.425 8.704,4.442 8.712,4.45 8.728,4.467 8.742,4.47 8.757,4.475 8.752,4.473 8.787,4.492 8.805,4.506 8.83,4.527 8.835,4.549 8.818,4.579 A 0.103,0.103 0 0 0 8.806,4.613 C 8.805,4.62 8.803,4.629 8.808,4.645 8.81,4.65 8.818,4.656 8.823,4.662 L 8.77,4.7 A 0.34,0.34 0 0 1 8.724,4.73 L 8.716,4.734 8.71,4.728 A 0.349,0.349 0 0 1 8.675,4.684 C 8.671,4.677 8.672,4.671 8.649,4.658 A 0.055,0.055 0 0 0 8.621,4.651 0.061,0.061 0 0 0 8.586,4.665 C 8.569,4.679 8.569,4.69 8.567,4.697 c -0.006,0.028 -0.002,0.041 0,0.076 0.004,0.04 0.002,0.051 0.002,0.057 -0.012,0 -0.023,0 -0.034,0.004 A 0.073,0.073 0 0 0 8.512,4.844 0.056,0.056 0 0 0 8.484,4.894 C 8.485,4.911 8.488,4.913 8.49,4.918 L 8.497,4.935 8.522,4.981 C 8.543,5.02 8.574,5.074 8.617,5.147 8.665,5.229 8.88,5.651 8.915,5.731 a 1.86,1.86 0 0 1 0.132,0.42 l 0.008,0.027 c 0,0.004 0.002,0.007 0.003,0.011 10e-4,0.004 -0.004,0.005 0.014,0.022 A 0.06,0.06 0 0 0 9.145,6.219 0.098,0.098 0 0 0 9.173,6.195 C 9.197,6.165 9.195,6.138 9.193,6.107 A 0.695,0.695 0 0 0 9.177,5.991 4.458,4.458 0 0 0 9.09,5.679 C 9.093,5.681 9.095,5.685 9.099,5.687 9.115,5.698 9.148,5.746 9.171,5.82 9.194,5.895 9.212,5.995 9.219,6.107 L 9.227,6.237 9.193,6.27 A 0.807,0.807 0 0 0 9.087,6.395 10.668,10.668 0 0 0 8.617,7.179 L 8.394,7.575 A 0.173,0.173 0 0 0 8.377,7.62 0.076,0.076 0 0 0 8.374,7.648 C 8.375,7.654 8.377,7.662 8.382,7.672 A 0.06,0.06 0 0 0 8.412,7.697 0.066,0.066 0 0 0 8.449,7.701 0.824,0.824 0 0 0 8.327,7.807 0.17,0.17 0 0 0 8.294,7.857 0.078,0.078 0 0 0 8.287,7.892 c 10e-4,0.014 0.008,0.032 0.02,0.044 0.018,0.019 0.033,0.017 0.041,0.017 0.009,0 0.015,0 0.021,-0.002 L 8.384,7.946 A 0.25,0.25 0 0 0 8.378,7.961 0.103,0.103 0 0 0 8.37,7.996 c 0,0.008 0,0.017 0.006,0.032 A 0.068,0.068 0 0 0 8.427,8.06 C 8.451,8.06 8.45,8.056 8.454,8.054 A 0.132,0.132 0 0 0 8.463,8.049 L 8.48,8.036 8.525,8.002 c 0.024,-0.02 0.037,-0.026 0.042,-0.029 0.013,0.011 0.03,0.021 0.046,0.02 0.022,0 0.033,-0.01 0.045,-0.017 A 0.762,0.762 0 0 0 8.748,7.9 0.476,0.476 0 0 0 8.904,7.679 C 8.931,7.609 8.951,7.539 8.961,7.481 A 0.434,0.434 0 0 0 8.969,7.402 0.134,0.134 0 0 0 8.958,7.35 C 8.96,7.347 8.959,7.347 8.968,7.338 A 0.297,0.297 0 0 0 9.028,7.242 C 9.048,7.197 9.068,7.132 9.106,7.017 9.113,6.994 9.12,6.974 9.128,6.955 A 0.448,0.448 0 0 1 9.121,7.098 8.74,8.74 0 0 0 9.034,7.71 7.82,7.82 0 0 1 8.989,8.038 4.491,4.491 0 0 0 8.944,8.366 L 8.936,8.398 8.929,8.408 8.892,8.455 8.739,8.641 A 298.685,298.685 0 0 1 7.673,9.921 L 7.658,9.934 A 0.682,0.682 0 0 1 7.552,9.971 c -0.06,0.016 -0.14,0.034 -0.232,0.052 a 8.24,8.24 0 0 1 -0.636,0.096 c -0.168,0.018 -0.352,0.04 -0.412,0.047 A 0.585,0.585 0 0 1 6.103,10.174 C 6.097,10.171 6.095,10.17 6.087,10.157 A 0.503,0.503 0 0 1 6.058,10.087 1.346,1.346 0 0 0 6.021,10 C 6.018,9.994 6.017,9.99 6.009,9.98 6.017,9.99 6.01,9.98 6.006,9.973 A 1.643,1.643 0 0 1 5.95,9.846 22.214,22.214 0 0 0 5.776,9.447 8.341,8.341 0 0 1 5.59,9 2.383,2.383 0 0 0 5.053,8.146 0.162,0.162 0 0 1 5.005,8.078 L 5.004,8.056 5.003,7.998 5.001,7.798 V 7.172 L 5.005,6.316 5.062,6.194 A 7.73,7.73 0 0 0 5.402,5.13 C 5.412,5.085 5.43,5.018 5.441,4.987 a 0.484,0.484 0 0 0 0.02,-0.079 c 0.002,-0.01 0.003,-0.02 0,-0.036 A 0.056,0.056 0 0 0 5.444,4.842 0.065,0.065 0 0 0 5.398,4.826 C 5.371,4.829 5.365,4.839 5.357,4.846 A 0.858,0.858 0 0 0 5.284,4.949 L 5.224,5.049 5.186,5.05 C 5.14,5.053 5.136,5.052 5.106,5.032 5.083,5.017 5.083,5.012 5.082,5.007 5.082,5.002 5.086,4.982 5.108,4.947 A 0.304,0.304 0 0 1 5.297,4.821 0.223,0.223 0 0 0 5.441,4.744 C 5.524,4.651 5.548,4.586 5.547,4.45 A 0.448,0.448 0 0 0 5.529,4.292 C 5.512,4.244 5.482,4.199 5.43,4.118 A 0.516,0.516 0 0 1 5.39,4.047 L 5.387,4.043 C 5.389,4.041 5.395,4.033 5.405,4.024 A 0.76,0.76 0 0 1 5.478,3.972 3.3,3.3 0 0 1 5.746,3.822 C 5.937,3.724 6.001,3.702 6.07,3.702 6.1,3.702 6.09,3.696 6.12,3.718 6.15,3.74 6.204,3.793 6.313,3.896 a 12.571,12.571 0 0 1 0.468,0.469 l 0.012,0.01 c 0.004,0.003 10e-4,0.004 0.018,0.012 a 0.063,0.063 0 0 0 0.049,0 0.065,0.065 0 0 0 0.026,-0.022 C 6.893,4.355 6.894,4.345 6.896,4.336 6.908,4.337 6.919,4.337 6.932,4.333 A 0.059,0.059 0 0 0 6.972,4.278 C 6.972,4.257 6.967,4.255 6.964,4.25 L 6.957,4.237 A 1.966,1.966 0 0 0 6.762,3.995 L 6.713,3.949 6.647,3.998 6.597,3.953 A 6.855,6.855 0 0 0 6.351,3.726 L 6.236,3.628 C 6.246,3.622 6.253,3.616 6.288,3.604 A 1.353,1.353 0 0 1 6.392,3.572 C 6.396,3.574 6.406,3.578 6.42,3.587 a 0.902,0.902 0 0 1 0.09,0.078 c 0.073,0.072 0.173,0.18 0.296,0.323 0.077,0.09 0.175,0.21 0.214,0.26 a 0.82,0.82 0 0 0 0.077,0.09 c 0.01,0.01 0.015,0.02 0.044,0.026 C 7.155,4.367 7.185,4.36 7.198,4.344 7.211,4.326 7.21,4.314 7.21,4.304 7.21,4.278 7.203,4.258 7.195,4.226 A 2.169,2.169 0 0 0 7.08,3.9 0.925,0.925 0 0 0 6.788,3.538 0.492,0.492 0 0 1 6.73,3.491 c 0,0 -0.004,0 0.007,-0.003 a 0.486,0.486 0 0 1 0.12,-0.02 C 6.962,3.46 6.937,3.455 7.037,3.506 7.184,3.582 7.314,3.696 7.47,3.891 L 7.488,3.913 C 7.494,3.919 7.492,3.929 7.525,3.937 A 0.07,0.07 0 0 0 7.582,3.916 C 7.589,3.906 7.589,3.9 7.59,3.896 7.6,3.9 7.604,3.9 7.618,3.914 A 0.43,0.43 0 0 0 7.654,3.945 L 7.671,3.957 C 7.679,3.961 7.688,3.967 7.708,3.965 7.728,3.963 7.752,3.94 7.757,3.925 7.761,3.91 7.759,3.902 7.759,3.895 A 0.206,0.206 0 0 0 7.748,3.854 C 7.714,3.755 7.629,3.646 7.504,3.524 A 1.697,1.697 0 0 1 7.425,3.441 C 7.445,3.439 7.46,3.438 7.502,3.438 Z M 9.242,3.453 H 9.23 L 9.222,3.454 9.216,3.457 A 0.088,0.088 0 0 0 9.171,3.489 0.06,0.06 0 0 0 9.167,3.543 c 0.005,0.011 0.01,0.017 0.014,0.023 a 1.096,1.096 0 0 0 0.13,0.102 c 0.076,0.05 0.162,0.1 0.225,0.12 0.03,0.011 0.052,0.02 0.086,0.013 A 0.078,0.078 0 0 0 9.669,3.767 0.083,0.083 0 0 0 9.679,3.723 C 9.679,3.692 9.664,3.68 9.653,3.67 A 0.271,0.271 0 0 0 9.613,3.639 2.541,2.541 0 0 0 9.323,3.479 C 9.291,3.464 9.27,3.454 9.243,3.453 Z M 5.986,3.924 5.961,3.933 A 0.063,0.063 0 0 0 5.926,3.97 c -0.005,0.016 -0.001,0.026 0,0.032 0.005,0.013 0.01,0.017 0.013,0.021 a 0.901,0.901 0 0 0 0.09,0.08 H 6.03 L 6.008,4.094 A 5.853,5.853 0 0 1 5.888,4.039 2.937,2.937 0 0 0 5.698,3.957 C 5.692,3.956 5.689,3.954 5.676,3.954 A 0.299,0.299 0 0 0 5.567,3.98 0.331,0.331 0 0 0 5.52,4.002 0.104,0.104 0 0 0 5.498,4.018 0.058,0.058 0 0 0 5.481,4.079 c 0.006,0.02 0.01,0.02 0.013,0.022 L 5.502,4.108 5.517,4.121 5.564,4.155 5.712,4.253 A 6.262,6.262 0 0 1 6.03,4.471 L 6.05,4.484 A 0.2,0.2 0 0 0 6.059,4.489 C 6.062,4.491 6.061,4.494 6.081,4.496 A 0.057,0.057 0 0 0 6.131,4.472 C 6.136,4.463 6.137,4.459 6.138,4.455 A 0.337,0.337 0 0 0 6.143,4.408 L 6.14,4.318 A 0.622,0.622 0 0 0 6.124,4.186 L 6.119,4.175 6.214,4.252 6.299,4.325 6.326,4.349 6.332,4.356 c 0.006,0.008 0.007,0.007 0.01,0.01 A 0.584,0.584 0 0 0 6.35,4.373 l 0.025,0.025 a 7.041,7.041 0 0 0 0.154,0.137 0.54,0.54 0 0 0 0.04,0.03 L 6.582,4.569 C 6.585,4.57 6.59,4.572 6.598,4.571 A 0.055,0.055 0 0 0 6.651,4.519 L 6.65,4.501 A 0.532,0.532 0 0 0 6.615,4.42 1.087,1.087 0 0 0 6.533,4.29 2.742,2.742 0 0 0 6.307,4.032 C 6.286,4.012 6.277,3.998 6.251,3.985 A 0.085,0.085 0 0 0 6.191,3.975 0.072,0.072 0 0 0 6.153,3.997 C 6.146,3.994 6.135,3.99 6.102,3.974 A 0.885,0.885 0 0 0 6.032,3.944 L 6.004,3.934 5.998,3.933 Z M 4.836,4.278 4.855,4.28 C 4.892,4.286 4.903,4.293 4.902,4.29 L 4.901,4.308 C 4.897,4.329 4.878,4.408 4.86,4.468 4.84,4.533 4.817,4.624 4.808,4.68 4.805,4.7 4.801,4.712 4.798,4.723 L 4.787,4.718 C 4.78,4.715 4.779,4.713 4.777,4.712 A 1.32,1.32 0 0 0 4.822,4.41 0.723,0.723 0 0 1 4.836,4.278 Z m 4.876,0.075 0.006,0.004 c 0.01,0.009 0.023,0.025 0.037,0.045 A 1.08,1.08 0 0 1 9.89,4.722 C 9.893,4.739 9.893,4.75 9.893,4.757 A 0.393,0.393 0 0 1 9.778,4.76 V 4.754 L 9.766,4.697 A 0.791,0.791 0 0 0 9.708,4.529 0.96,0.96 0 0 0 9.65,4.419 L 9.637,4.407 V 4.406 a 0.214,0.214 0 0 1 0.066,-0.05 l 0.01,-0.003 z m -0.18,0.264 0.01,0.01 0.005,0.005 -0.009,0.015 A 1.567,1.567 0 0 1 9.373,4.882 C 9.348,4.909 9.336,4.915 9.326,4.922 9.326,4.917 9.325,4.905 9.342,4.871 a 0.987,0.987 0 0 1 0.19,-0.254 z m 1.194,0.231 -0.003,0.001 c -0.007,0 -0.017,0 -0.032,0.012 -0.016,0.012 -0.023,0.043 -0.02,0.057 0.007,0.028 0.016,0.03 0.025,0.038 a 0.72,0.72 0 0 0 0.073,0.059 c 0.146,0.105 0.265,0.295 0.278,0.423 0.003,0.02 0.004,0.039 0.007,0.053 l 0.004,0.02 0.004,0.012 0.008,0.012 a 0.05,0.05 0 0 0 0.043,0.02 h 0.004 V 5.087 L 11.069,5.039 A 0.71,0.71 0 0 0 10.774,4.857 C 10.757,4.852 10.747,4.847 10.727,4.848 Z M 4.598,4.889 4.614,4.89 a 0.055,0.055 0 0 1 0.037,0.017 c 0.012,0.01 0.014,0.012 0.019,0.02 A 0.245,0.245 0 0 1 4.689,4.988 C 4.703,5.058 4.721,5.192 4.755,5.45 L 4.795,5.752 4.801,5.819 4.703,5.679 4.662,5.859 A 0.557,0.557 0 0 1 4.631,5.949 0.592,0.592 0 0 1 4.467,6.106 C 4.457,6.111 4.445,6.116 4.432,6.128 A 0.092,0.092 0 0 0 4.406,6.178 C 4.401,6.212 4.409,6.239 4.418,6.293 a 17.009,17.009 0 0 1 0.023,0.503 c 0.007,0.247 0.012,0.382 0.027,0.476 a 0.406,0.406 0 0 0 0.093,0.206 c 0.033,0.04 0.05,0.068 0.056,0.082 0.006,0.014 0.005,0.011 0.001,0.022 A 0.016,0.016 0 0 0 4.617,7.587 0.485,0.485 0 0 1 4.537,7.603 L 4.499,7.607 4.449,7.554 C 4.416,7.518 4.399,7.498 4.372,7.482 A 0.093,0.093 0 0 0 4.324,7.47 C 4.308,7.47 4.296,7.475 4.286,7.48 A 0.511,0.511 0 0 1 4.022,7.467 0.565,0.565 0 0 1 3.971,7.442 C 3.956,7.435 3.942,7.424 3.945,7.427 3.943,7.425 3.939,7.418 3.94,7.41 3.94,7.402 3.944,7.396 3.946,7.395 L 3.965,7.381 C 3.971,7.375 3.985,7.371 3.989,7.339 A 0.062,0.062 0 0 0 3.975,7.296 C 3.967,7.286 3.961,7.284 3.955,7.281 3.946,7.276 3.941,7.275 3.935,7.273 3.872,7.253 3.839,7.234 3.822,7.213 3.804,7.193 3.792,7.163 3.786,7.104 3.782,7.07 3.782,7.054 3.782,7.053 L 3.785,7.051 c 0,10e-4 0.036,-0.012 0.068,-0.012 0.068,0 0.11,-0.008 0.232,-0.044 L 4.105,6.989 C 4.109,6.998 4.112,7.005 4.111,7.014 A 0.071,0.071 0 0 1 4.086,7.054 0.379,0.379 0 0 0 4.054,7.087 L 4.041,7.103 C 4.039,7.107 4.036,7.111 4.033,7.122 a 0.057,0.057 0 0 0 0,0.023 c 0.002,0.01 0.01,0.026 0.022,0.034 L 4.067,7.186 4.081,7.192 4.118,7.21 c 0.012,0.005 0.05,0.037 0.063,0.057 a 0.547,0.547 0 0 0 0.043,0.056 c 0.003,0.003 0.005,0.006 0.013,0.01 0.004,0.002 0.009,0.005 0.02,0.007 A 0.06,0.06 0 0 0 4.302,7.325 C 4.314,7.313 4.315,7.305 4.316,7.3 L 4.318,7.291 V 7.282 7.269 L 4.313,7.236 A 2.864,2.864 0 0 0 4.296,7.135 C 4.226,6.749 4.212,6.582 4.228,6.447 A 0.43,0.43 0 0 1 4.273,6.277 0.936,0.936 0 0 1 4.426,6.097 2.32,2.32 0 0 0 4.571,5.935 C 4.581,5.921 4.588,5.918 4.595,5.892 4.609,5.835 4.575,5.786 4.536,5.759 A 0.16,0.16 0 0 0 4.473,5.735 C 4.485,5.723 4.495,5.709 4.495,5.692 4.495,5.681 4.494,5.679 4.493,5.675 L 4.49,5.66 A 0.884,0.884 0 0 0 4.48,5.622 L 4.478,5.612 A 0.117,0.117 0 0 1 4.504,5.609 c 0.057,0 0.073,0.007 0.1,0.04 L 4.619,5.665 4.628,5.673 C 4.631,5.675 4.635,5.68 4.651,5.684 A 0.055,0.055 0 0 0 4.715,5.649 C 4.721,5.631 4.718,5.626 4.717,5.621 4.716,5.611 4.714,5.608 4.712,5.601 A 0.907,0.907 0 0 1 4.697,5.531 0.363,0.363 0 0 0 4.675,5.444 0.093,0.093 0 0 0 4.665,5.426 V 5.422 5.395 C 4.663,5.386 4.663,5.375 4.655,5.359 A 0.082,0.082 0 0 0 4.611,5.321 C 4.602,5.318 4.595,5.318 4.587,5.318 L 4.65,5.322 4.638,5.222 C 4.637,5.214 4.636,5.204 4.63,5.189 A 0.083,0.083 0 0 0 4.589,5.149 C 4.556,5.137 4.537,5.142 4.497,5.144 c -0.02,0 -0.042,0 -0.058,-0.002 C 4.422,5.141 4.405,5.134 4.415,5.139 4.408,5.136 4.401,5.132 4.389,5.129 A 0.062,0.062 0 0 0 4.414,5.109 C 4.407,5.119 4.402,5.123 4.399,5.125 L 4.41,5.123 A 0.561,0.561 0 0 1 4.477,5.119 c 0.048,0 0.07,0.003 0.1,-0.006 A 0.076,0.076 0 0 0 4.622,5.072 C 4.629,5.051 4.626,5.039 4.625,5.03 A 0.08,0.08 0 0 0 4.61,4.99 0.082,0.082 0 0 0 4.566,4.963 C 4.538,4.955 4.512,4.956 4.463,4.955 H 4.405 c 0,-0.012 10e-4,-0.017 0.013,-0.026 A 0.235,0.235 0 0 1 4.516,4.897 0.54,0.54 0 0 1 4.598,4.889 Z m 5.596,0.133 a 0.366,0.366 0 0 1 0.129,0.045 0.55,0.55 0 0 1 0.138,0.105 c 0.036,0.04 0.062,0.077 0.074,0.102 l 0.003,0.01 a 0.221,0.221 0 0 1 -0.03,0.007 l -0.16,0.02 0.14,0.152 A 0.924,0.924 0 0 1 10.6,5.63 c 0.044,0.09 0.046,0.095 0.05,0.202 l 0.008,0.174 0.08,-0.004 -0.002,0.039 -0.004,0.162 0.102,-0.02 h 0.003 a 0.246,0.246 0 0 1 0.006,0.072 C 10.84,6.355 10.809,6.537 10.767,6.68 A 3.137,3.137 0 0 1 10.64,7.055 0.301,0.301 0 0 1 10.6,7.125 L 10.599,7.126 A 0.128,0.128 0 0 1 10.587,7.07 c 0,-0.014 0.002,-0.025 -0.009,-0.048 A 0.064,0.064 0 0 0 10.538,6.99 0.06,0.06 0 0 0 10.493,6.998 c -0.01,0.006 -0.015,0.013 -0.021,0.02 V 7.012 L 10.477,6.897 A 12.625,12.625 0 0 0 10.475,6.145 C 10.474,6.131 10.474,6.12 10.472,6.11 c 0,-0.005 0,-0.01 -0.002,-0.015 A 0.018,0.018 0 0 1 10.467,6.089 L 10.47,6.06 10.43,6.048 h -10e-4 a 0.062,0.062 0 0 0 -0.05,0.008 c -0.01,0.007 -0.013,0.014 -0.016,0.02 a 0.104,0.104 0 0 0 -0.012,0.025 0.552,0.552 0 0 0 -0.015,0.068 c -0.01,0.055 -0.019,0.132 -0.027,0.226 -0.007,0.078 -0.022,0.228 -0.034,0.333 -0.011,0.1 -0.017,0.163 -0.015,0.215 a 0.38,0.38 0 0 0 0.031,0.134 0.182,0.182 0 0 0 0.028,0.048 c 0.008,0.01 0.02,0.018 0.034,0.024 -0.01,0.009 -0.018,0.022 -0.027,0.03 a 0.19,0.19 0 0 1 -0.065,0.032 c 0.003,0 -0.026,-0.01 -0.031,-0.015 C 10.215,7.183 10.208,7.17 10.177,7.163 a 0.072,0.072 0 0 0 -0.05,0.01 c -0.013,0.01 -0.018,0.017 -0.022,0.024 a 0.14,0.14 0 0 0 0.008,0.16 c 0.02,0.026 0.047,0.036 0.074,0.042 a 0.315,0.315 0 0 0 0.087,0.005 0.685,0.685 0 0 0 0.206,-0.05 c 0.125,-0.05 0.158,-0.074 0.222,-0.152 -0.01,0.021 -0.02,0.043 -0.035,0.068 A 1.225,1.225 0 0 1 10.511,7.481 1.045,1.045 0 0 1 10.253,7.659 0.351,0.351 0 0 1 10.058,7.712 C 10.004,7.715 9.974,7.715 9.943,7.727 A 0.162,0.162 0 0 0 9.873,7.787 4.07,4.07 0 0 0 9.74,8.011 L 9.687,8.1 C 9.687,8.09 9.685,8.087 9.684,8.074 9.683,8.069 9.684,8.064 9.678,8.053 9.675,8.047 9.671,8.036 9.655,8.027 A 0.064,0.064 0 0 0 9.603,8.026 C 9.58,8.038 9.582,8.046 9.579,8.051 A 0.512,0.512 0 0 0 9.557,8.125 3.005,3.005 0 0 0 9.521,8.329 2.431,2.431 0 0 1 9.393,8.705 L 9.318,8.871 C 9.298,8.917 9.261,8.993 9.238,9.037 L 9.222,9.067 9.213,9.047 A 0.805,0.805 0 0 0 9.156,8.924 0.4,0.4 0 0 1 9.136,8.884 H 9.135 c 0,-0.002 0,-0.003 0.002,-0.004 A 0.524,0.524 0 0 1 9.179,8.836 0.655,0.655 0 0 0 9.273,8.734 0.483,0.483 0 0 0 9.328,8.53 C 9.34,8.434 9.348,8.306 9.352,8.14 L 9.361,7.866 9.697,7.859 9.723,7.777 A 0.53,0.53 0 0 1 9.79,7.68 0.675,0.675 0 0 0 9.983,7.28 5.454,5.454 0 0 0 10.116,6.275 71.107,71.107 0 0 1 10.194,5.035 Z M 3.817,5.175 a 0.06,0.06 0 0 0 -0.009,0 L 3.781,5.178 3.775,5.188 C 3.772,5.191 3.768,5.191 3.765,5.193 a 0.164,0.164 0 0 0 -0.034,0.031 3.1,3.1 0 0 1 -0.1,0.11 C 3.573,5.395 3.343,5.644 3.169,5.832 A 0.226,0.226 0 0 0 3.111,5.94 C 3.107,5.96 3.101,5.973 3.11,6 a 0.073,0.073 0 0 0 0.032,0.039 0.07,0.07 0 0 0 0.035,0.007 c 0.03,0 0.04,-0.01 0.053,-0.02 A 0.428,0.428 0 0 0 3.274,5.991 C 3.305,5.962 3.344,5.923 3.386,5.877 3.471,5.785 3.572,5.663 3.662,5.542 L 3.852,5.287 C 3.862,5.274 3.873,5.264 3.874,5.235 A 0.064,0.064 0 0 0 3.85,5.187 0.056,0.056 0 0 0 3.817,5.176 Z M 5.113,5.222 C 5.108,5.236 5.106,5.242 5.091,5.271 A 0.435,0.435 0 0 0 5.029,5.466 0.535,0.535 0 0 0 5.083,5.678 C 5.09,5.694 5.089,5.693 5.088,5.702 A 0.484,0.484 0 0 1 5.064,5.779 l -0.073,0.2 A 0.767,0.767 0 0 1 4.961,6.051 V 6.044 A 1.418,1.418 0 0 1 5.016,5.728 L 5.053,5.62 5.019,5.521 A 0.58,0.58 0 0 1 4.996,5.302 C 4.998,5.295 4.999,5.292 5.016,5.276 A 0.243,0.243 0 0 1 5.042,5.252 L 5.047,5.249 5.056,5.247 A 0.468,0.468 0 0 0 5.114,5.222 Z m 4.412,0.005 v 0.002 c 0,0.012 0.002,0.022 0.002,0.053 0,0.056 -0.006,0.145 -0.012,0.187 C 9.497,5.594 9.465,5.941 9.448,6.189 9.44,6.3 9.425,6.494 9.413,6.617 9.401,6.747 9.391,6.987 9.39,7.172 V 7.508 L 9.437,7.609 A 0.453,0.453 0 0 1 9.473,7.7 V 7.702 L 9.468,7.707 c -0.009,0.008 -0.015,0.009 -0.034,0 A 0.139,0.139 0 0 1 9.374,7.644 C 9.363,7.624 9.359,7.615 9.354,7.554 A 8.568,8.568 0 0 1 9.341,7.193 16.838,16.838 0 0 0 9.327,6.796 L 9.325,6.768 A 0.043,0.043 0 0 1 9.323,6.757 0.013,0.013 0 0 1 9.323,6.75 L 9.321,6.749 V 6.686 a 6.41,6.41 0 0 1 0.04,-0.52 L 9.394,5.921 C 9.401,5.867 9.417,5.765 9.428,5.697 9.44,5.627 9.454,5.523 9.461,5.463 9.479,5.321 9.5,5.26 9.525,5.229 Z M 4.467,5.309 c 0.01,0 0.021,0 0.036,0.002 l 0.05,0.004 a 3.053,3.053 0 0 1 -0.121,0 L 4.431,5.314 C 4.434,5.313 4.437,5.311 4.444,5.31 H 4.467 Z M 9.902,5.314 9.898,5.367 H 9.902 A 0.396,0.396 0 0 1 9.918,5.43 c 0.003,0.016 0.003,0.011 0,0.012 A 0.706,0.706 0 0 1 9.72,5.448 L 9.726,5.445 A 0.27,0.27 0 0 0 9.762,5.415 0.268,0.268 0 0 1 9.897,5.366 Z M 4.47,5.466 a 0.09,0.09 0 0 1 0.01,0 L 4.514,5.469 C 4.503,5.473 4.502,5.474 4.486,5.478 4.452,5.486 4.444,5.483 4.445,5.484 V 5.467 Z m 5.349,0.146 a 0.14,0.14 0 0 1 0.045,0.007 v 0 c 0,0.01 -0.003,0.025 -0.006,0.042 A 2.149,2.149 0 0 1 9.835,5.783 L 9.805,5.916 9.777,5.923 C 9.741,5.933 9.713,5.938 9.689,5.942 A 0.19,0.19 0 0 0 9.704,5.903 1.03,1.03 0 0 0 9.73,5.782 C 9.736,5.742 9.744,5.704 9.75,5.674 l 0.011,-0.05 c 0.001,0 0.003,-0.003 0.009,-0.005 A 0.156,0.156 0 0 1 9.819,5.612 Z M 8.236,5.64 8.215,5.641 C 8.091,5.642 7.979,5.651 7.906,5.674 A 0.942,0.942 0 0 0 7.684,5.777 1.911,1.911 0 0 1 7.434,5.892 C 7.324,5.934 7.209,5.972 7.162,5.981 A 0.363,0.363 0 0 0 7.095,6 C 7.075,6.008 7.058,6.012 7.039,6.038 6.99,6.104 6.967,6.211 6.946,6.358 6.926,6.507 6.914,6.69 6.914,6.887 c 0,0.128 0,0.202 0.016,0.263 0.016,0.062 0.05,0.105 0.097,0.156 0.016,0.017 0.03,0.033 0.042,0.044 l 0.015,0.015 0.008,0.006 c 0.001,10e-4 0.002,0.003 0.006,0.005 0.003,0.002 0.004,0.008 0.028,0.008 0.003,0 0.006,-0.004 0.01,-0.005 L 7.086,7.432 7.16,7.436 C 7.165,7.443 7.168,7.452 7.174,7.46 7.183,7.471 7.184,7.475 7.188,7.483 A 0.27,0.27 0 0 1 7.127,7.471 C 7.089,7.461 7.07,7.452 7.04,7.454 A 0.09,0.09 0 0 0 6.996,7.469 C 6.99,7.473 6.988,7.477 6.984,7.48 L 6.979,7.47 A 0.367,0.367 0 0 0 6.935,7.393 C 6.928,7.386 6.923,7.37 6.888,7.37 6.858,7.37 6.858,7.378 6.851,7.382 A 0.592,0.592 0 0 0 6.781,7.44 C 6.733,7.487 6.745,7.482 6.684,7.487 A 0.446,0.446 0 0 0 6.634,7.494 C 6.619,7.497 6.607,7.498 6.59,7.509 A 0.06,0.06 0 0 0 6.564,7.543 0.065,0.065 0 0 0 6.574,7.595 C 6.59,7.617 6.603,7.619 6.617,7.624 6.631,7.63 6.637,7.629 6.647,7.63 a 1.472,1.472 0 0 0 0.12,0.005 c 0.026,0 0.03,0.003 0.046,0.004 -0.01,0.007 -0.02,0.014 -0.032,0.02 -0.06,0.036 -0.08,0.042 -0.117,0.042 A 0.16,0.16 0 0 1 6.589,7.69 0.376,0.376 0 0 1 6.506,7.624 C 6.46,7.582 6.421,7.553 6.373,7.544 6.326,7.534 6.277,7.558 6.245,7.592 6.243,7.595 6.229,7.601 6.219,7.607 A 0.09,0.09 0 0 0 6.233,7.587 0.214,0.214 0 0 0 6.246,7.537 0.363,0.363 0 0 1 6.276,7.455 0.2,0.2 0 0 0 6.296,7.413 C 6.297,7.406 6.301,7.399 6.3,7.384 A 0.054,0.054 0 0 0 6.289,7.353 0.063,0.063 0 0 0 6.244,7.33 C 6.208,7.33 6.207,7.343 6.201,7.349 A 0.392,0.392 0 0 0 6.115,7.512 c -0.006,0.032 -0.01,0.069 0.022,0.1 A 0.064,0.064 0 0 0 6.175,7.627 C 6.169,7.627 6.16,7.63 6.159,7.63 A 0.084,0.084 0 0 1 6.132,7.617 0.5,0.5 0 0 1 6.054,7.544 0.36,0.36 0 0 0 6.014,7.502 C 6.005,7.496 6,7.49 5.99,7.486 A 0.059,0.059 0 0 0 5.92,7.494 C 5.898,7.517 5.905,7.524 5.905,7.531 V 7.547 L 5.908,7.579 C 5.912,7.603 5.918,7.634 5.926,7.667 5.935,7.703 5.935,7.712 5.939,7.732 5.925,7.716 5.913,7.703 5.895,7.677 A 0.956,0.956 0 0 0 5.842,7.603 C 5.836,7.597 5.836,7.593 5.821,7.583 5.808,7.576 5.777,7.572 5.758,7.584 5.739,7.596 5.735,7.61 5.733,7.619 5.727,7.637 5.727,7.651 5.727,7.669 c 0,0.036 0.005,0.086 0.014,0.151 0,0.007 0,0.012 0.002,0.018 C 5.728,7.826 5.72,7.82 5.699,7.801 A 0.996,0.996 0 0 0 5.645,7.751 C 5.63,7.738 5.621,7.729 5.601,7.721 A 0.058,0.058 0 0 0 5.539,7.731 0.057,0.057 0 0 0 5.522,7.769 c -0.001,0.009 0,0.015 10e-4,0.02 0.005,0.02 0.012,0.031 0.022,0.049 L 5.621,7.972 C 5.674,8.068 5.735,8.163 5.793,8.237 A 0.216,0.216 0 0 0 5.847,8.285 C 5.856,8.289 5.867,8.297 5.893,8.29 5.921,8.283 5.923,8.27 5.929,8.262 A 0.121,0.121 0 0 0 5.94,8.24 0.275,0.275 0 0 0 5.955,8.19 C 5.96,8.163 5.97,8.151 5.975,8.148 A 0.12,0.12 0 0 0 6.021,8.094 0.196,0.196 0 0 0 6.031,8.019 c 0,-0.01 0.002,-0.015 0.003,-0.022 L 6.152,8.074 6.132,7.875 C 6.127,7.832 6.132,7.812 6.13,7.81 A 0.282,0.282 0 0 1 6.174,7.807 c 0.056,0 0.1,-0.006 0.135,-0.036 0.007,-0.007 0.02,-0.013 0.053,-0.008 0.033,0.004 0.08,0.02 0.139,0.05 0.161,0.082 0.23,0.1 0.366,0.1 0.055,0 0.086,0 0.116,-0.006 A 0.152,0.152 0 0 0 7.055,7.865 0.157,0.157 0 0 0 7.101,7.766 L 7.178,7.767 C 7.242,7.77 7.29,7.767 7.332,7.75 A 0.154,0.154 0 0 0 7.42,7.656 0.247,0.247 0 0 0 7.295,7.366 L 7.321,7.339 7.206,7.332 A 0.07,0.07 0 0 0 7.177,7.338 c 0.001,-0.005 0.002,-0.01 0.001,-0.013 0,-0.008 0,-0.012 -0.002,-0.017 A 1.59,1.59 0 0 1 7.124,7.066 c 0.01,0.007 0.023,0.014 0.04,0.012 A 0.057,0.057 0 0 0 7.201,7.056 L 7.203,7.053 h 0.091 l 0.02,-0.21 C 7.323,6.753 7.33,6.655 7.33,6.614 c 0,-0.017 0.003,-0.022 0.005,-0.03 0.002,0 0.002,0.002 0.005,0.002 A 0.06,0.06 0 0 0 7.376,6.571 C 7.38,6.568 7.38,6.564 7.382,6.561 7.405,6.576 7.434,6.6 7.461,6.621 L 7.562,6.694 7.58,6.702 c 0.005,0.001 0.01,0.003 0.019,0.003 0.009,0 0.025,0 0.04,-0.016 A 0.052,0.052 0 0 0 7.656,6.649 0.082,0.082 0 0 0 7.653,6.633 L 7.647,6.617 A 1.22,1.22 0 0 0 7.512,6.439 L 7.5,6.43 A 0.057,0.057 0 0 0 7.485,6.422 L 7.475,6.414 A 0.82,0.82 0 0 1 7.435,6.378 C 7.398,6.343 7.395,6.332 7.395,6.325 c 0,0 0.004,-0.012 0.032,-0.028 A 0.335,0.335 0 0 1 7.553,6.263 C 7.595,6.259 7.62,6.259 7.649,6.245 A 0.1,0.1 0 0 0 7.685,6.214 C 7.694,6.201 7.698,6.19 7.702,6.179 A 0.121,0.121 0 0 1 7.716,6.156 C 7.721,6.149 7.728,6.146 7.72,6.15 A 0.094,0.094 0 0 0 7.742,6.134 L 7.748,6.122 7.751,6.172 7.76,6.245 7.865,6.246 7.873,6.18 A 0.372,0.372 0 0 0 7.877,6.121 L 7.874,6.095 C 7.873,6.087 7.872,6.078 7.86,6.063 V 6.036 L 7.81,6.033 A 0.063,0.063 0 0 0 7.769,6.047 C 7.763,6.053 7.761,6.057 7.759,6.063 A 0.122,0.122 0 0 0 7.746,6.037 0.064,0.064 0 0 1 7.75,5.996 0.155,0.155 0 0 1 7.8,5.931 0.22,0.22 0 0 1 7.91,5.883 C 7.961,5.873 8.045,5.867 8.193,5.861 8.33,5.855 8.457,5.846 8.55,5.836 A 1.455,1.455 0 0 0 8.7,5.811 0.078,0.078 0 0 0 8.72,5.802 C 8.728,5.797 8.747,5.785 8.747,5.755 8.747,5.73 8.734,5.719 8.729,5.715 A 0.056,0.056 0 0 0 8.717,5.705 L 8.702,5.699 A 1.485,1.485 0 0 0 8.575,5.669 1.93,1.93 0 0 0 8.239,5.643 L 8.238,5.642 Z M 5.662,5.731 c -0.018,0 -0.033,0 -0.048,0.003 C 5.607,5.735 5.6,5.736 5.589,5.741 A 0.06,0.06 0 0 0 5.569,5.755 0.06,0.06 0 0 0 5.555,5.793 c 0,0.038 0.03,0.068 0.067,0.068 H 5.615 a 1.228,1.228 0 0 1 0.044,0.017 c 0.03,0.011 0.069,0.028 0.11,0.047 0.09,0.04 0.167,0.08 0.219,0.114 0.018,0.012 0.03,0.022 0.041,0.031 L 5.897,6.092 A 3.432,3.432 0 0 0 5.447,6.204 0.405,0.405 0 0 0 5.386,6.232 C 5.379,6.237 5.37,6.242 5.362,6.263 a 0.062,0.062 0 0 0 0.022,0.066 c 0.01,0.009 0.019,0.013 0.029,0.018 0.02,0.01 0.043,0.018 0.07,0.026 a 0.59,0.59 0 0 0 0.16,0.03 c 0.027,0 0.044,0.005 0.074,-0.011 A 0.079,0.079 0 0 0 5.75,6.351 C 5.754,6.337 5.753,6.327 5.753,6.318 a 0.26,0.26 0 0 1 0.01,-0.047 h 0.015 l 0.014,0.001 0.001,0.012 c 0,0.036 0.011,0.058 0.038,0.08 0.006,0.005 0.012,0.01 0.023,0.015 A 0.07,0.07 0 0 0 5.899,6.381 C 5.931,6.371 5.937,6.351 5.944,6.338 A 0.168,0.168 0 0 0 5.965,6.254 V 6.253 A 0.563,0.563 0 0 1 6.07,6.233 0.305,0.305 0 0 1 6.184,6.231 0.317,0.317 0 0 1 6.28,6.295 C 6.3,6.31 6.323,6.325 6.35,6.33 a 0.424,0.424 0 0 0 0.096,0.008 c 0.067,0 0.113,0.003 0.138,0.008 L 6.597,6.35 V 6.356 L 6.596,6.41 A 6.515,6.515 0 0 1 6.554,6.946 0.916,0.916 0 0 1 6.51,7.172 0.049,0.049 0 0 1 6.486,7.196 0.344,0.344 0 0 1 6.423,7.219 0.732,0.732 0 0 0 6.364,7.239 C 6.346,7.246 6.334,7.25 6.317,7.263 A 0.203,0.203 0 0 0 6.305,7.273 L 6.297,7.28 A 0.056,0.056 0 0 0 6.289,7.292 0.05,0.05 0 0 0 6.285,7.329 0.06,0.06 0 0 0 6.319,7.366 c 0.01,0.004 0.015,0.004 0.02,0.004 0.007,0 0.01,-0.002 0.013,-0.002 A 0.16,0.16 0 0 0 6.367,7.363 C 6.361,7.365 6.381,7.361 6.402,7.358 L 6.473,7.349 C 6.52,7.345 6.55,7.343 6.583,7.327 6.614,7.31 6.632,7.285 6.661,7.25 A 0.362,0.362 0 0 0 6.741,7.09 C 6.757,7.021 6.764,6.93 6.772,6.77 6.786,6.51 6.792,6.369 6.787,6.287 6.784,6.247 6.784,6.217 6.751,6.187 A 0.079,0.079 0 0 0 6.692,6.172 0.114,0.114 0 0 0 6.653,6.186 0.21,0.21 0 0 1 6.585,6.191 0.249,0.249 0 0 1 6.498,6.169 L 6.363,6.094 A 0.688,0.688 0 0 1 6.255,6.022 h 0.062 a 2.158,2.158 0 0 1 0.14,0.013 c 0.009,10e-4 0.017,0.004 0.008,0 0.013,0.006 0.027,0.01 0.048,0.006 a 0.063,0.063 0 0 0 0.034,-0.02 0.063,0.063 0 0 0 0,-0.08 A 0.122,0.122 0 0 0 6.527,5.921 0.68,0.68 0 0 0 6.351,5.826 2.087,2.087 0 0 0 6.017,5.762 3.214,3.214 0 0 0 5.662,5.732 Z M 9.681,6.167 9.722,6.168 9.784,6.17 9.783,6.188 A 0.29,0.29 0 0 1 9.778,6.234 L 9.775,6.239 9.762,6.245 A 0.504,0.504 0 0 1 9.63,6.255 C 9.625,6.255 9.629,6.257 9.627,6.256 9.626,6.249 9.626,6.234 9.629,6.212 9.632,6.186 9.636,6.174 9.637,6.17 9.641,6.169 9.653,6.167 9.681,6.167 Z m -5.03,0.252 c 0.001,0.01 0.004,0.02 0.005,0.043 a 13.778,13.778 0 0 1 0.01,0.614 V 7.097 C 4.659,7.073 4.651,7.049 4.646,7.018 A 3.716,3.716 0 0 1 4.612,6.457 C 4.615,6.443 4.617,6.441 4.62,6.437 A 0.168,0.168 0 0 1 4.65,6.419 Z m 5,0.053 0.033,10e-4 C 9.721,6.475 9.737,6.478 9.738,6.478 L 9.742,6.485 A 0.383,0.383 0 0 1 9.757,6.569 L 9.758,6.584 9.697,6.586 a 0.644,0.644 0 0 1 -0.086,0 L 9.609,6.578 A 0.295,0.295 0 0 1 9.616,6.476 0.35,0.35 0 0 1 9.652,6.473 Z M 9.769,6.819 A 0.046,0.046 0 0 1 9.776,6.834 0.09,0.09 0 0 1 9.773,6.89 0.85,0.85 0 0 1 9.672,6.894 C 9.608,6.894 9.585,6.888 9.582,6.89 L 9.585,6.87 9.588,6.858 A 0.57,0.57 0 0 1 9.671,6.84 C 9.709,6.833 9.745,6.826 9.769,6.82 Z M 3.546,7.052 c 0.023,0 0.037,0.002 0.04,0.003 H 3.587 A 0.76,0.76 0 0 1 3.61,7.209 0.82,0.82 0 0 0 3.668,7.49 0.72,0.72 0 0 0 3.743,7.63 C 3.769,7.667 3.796,7.697 3.838,7.707 3.855,7.711 3.86,7.71 3.871,7.71 L 3.91,7.708 4.019,7.699 A 0.675,0.675 0 0 0 3.915,7.723 0.255,0.255 0 0 0 3.868,7.743 0.088,0.088 0 0 0 3.828,7.783 C 3.818,7.799 3.816,7.811 3.811,7.831 L 3.796,7.896 C 3.746,8.133 3.632,8.445 3.556,8.567 A 0.447,0.447 0 0 1 3.486,8.654 C 3.469,8.669 3.452,8.676 3.448,8.679 3.446,8.679 3.438,8.677 3.428,8.668 A 0.128,0.128 0 0 1 3.396,8.623 1.071,1.071 0 0 1 3.367,8.319 C 3.369,8.175 3.383,8.002 3.408,7.839 3.416,7.789 3.431,7.661 3.443,7.548 A 5.138,5.138 0 0 1 3.51,7.104 C 3.517,7.075 3.523,7.059 3.524,7.054 A 0.103,0.103 0 0 1 3.546,7.053 Z M 7.423,7.248 A 0.11,0.11 0 0 0 7.409,7.251 L 7.395,7.257 c 0,0 -0.008,0.006 -0.01,0.01 A 0.05,0.05 0 0 0 7.375,7.284 C 7.365,7.31 7.372,7.308 7.372,7.313 l 0.003,0.014 0.008,0.038 0.03,0.114 C 7.439,7.568 7.471,7.677 7.499,7.764 7.535,7.874 7.576,7.98 7.616,8.067 7.656,8.154 7.692,8.221 7.73,8.263 7.746,8.28 7.755,8.293 7.778,8.304 A 0.06,0.06 0 0 0 7.868,8.258 C 7.873,8.234 7.869,8.217 7.865,8.19 A 1.935,1.935 0 0 0 7.844,8.087 C 7.822,7.985 7.78,7.888 7.644,7.611 A 13.162,13.162 0 0 0 7.474,7.277 L 7.466,7.267 C 7.463,7.264 7.462,7.261 7.449,7.254 a 0.05,0.05 0 0 0 -0.015,-0.005 0.048,0.048 0 0 0 -0.011,0 z M 4.317,7.664 4.323,7.674 A 0.945,0.945 0 0 1 4.349,7.912 C 4.334,8.027 4.336,8.168 4.357,8.271 4.386,8.411 4.412,8.459 4.503,8.542 a 0.249,0.249 0 0 1 0.08,0.113 C 4.596,8.695 4.6,8.751 4.593,8.837 A 0.94,0.94 0 0 0 4.629,9.174 C 4.641,9.227 4.651,9.276 4.657,9.311 L 4.659,9.327 4.59,9.341 C 4.526,9.353 4.441,9.365 4.356,9.376 4.272,9.386 4.176,9.4 4.141,9.405 L 4.117,9.407 C 4.117,9.406 4.105,9.381 4.09,9.322 4.063,9.218 4.066,9.06 4.11,8.8 L 4.14,8.628 4.151,8.573 C 4.154,8.559 4.159,8.543 4.155,8.554 4.16,8.542 4.161,8.536 4.165,8.521 L 4.179,8.463 A 19.289,19.289 0 0 0 4.289,7.963 0.743,0.743 0 0 0 4.309,7.807 0.14,0.14 0 0 0 4.297,7.751 0.099,0.099 0 0 0 4.257,7.708 0.215,0.215 0 0 0 4.152,7.688 C 4.122,7.688 4.088,7.691 4.056,7.695 4.136,7.687 4.224,7.677 4.3,7.666 Z M 7.826,7.753 A 0.05,0.05 0 0 0 7.804,7.756 0.058,0.058 0 0 0 7.773,7.782 C 7.763,7.8 7.767,7.807 7.767,7.813 c 0,0.013 0.002,0.02 0.006,0.031 l 0.016,0.06 A 0.94,0.94 0 0 0 7.853,8.055 C 7.857,8.063 7.862,8.07 7.868,8.077 7.875,8.083 7.878,8.099 7.914,8.099 A 0.064,0.064 0 0 0 7.958,8.079 0.06,0.06 0 0 0 7.973,8.047 0.079,0.079 0 0 0 7.967,8.003 L 7.926,7.894 A 0.815,0.815 0 0 0 7.891,7.814 C 7.885,7.804 7.881,7.794 7.875,7.787 A 0.13,0.13 0 0 0 7.865,7.774 C 7.862,7.77 7.86,7.764 7.842,7.757 A 0.055,0.055 0 0 0 7.826,7.753 Z M 8.416,7.897 8.415,7.898 Z M 4.514,7.954 H 4.518 V 7.957 A 1.635,1.635 0 0 1 4.532,8.122 C 4.534,8.138 4.533,8.152 4.533,8.168 4.529,8.144 4.524,8.122 4.521,8.098 A 1.037,1.037 0 0 1 4.514,7.954 Z M 6.751,7.971 H 6.73 A 0.154,0.154 0 0 0 6.68,7.986 0.125,0.125 0 0 0 6.614,8.046 0.105,0.105 0 0 0 6.62,8.137 C 6.615,8.127 6.621,8.143 6.623,8.16 a 0.504,0.504 0 0 1 0.004,0.058 c 0,0.025 0.002,0.05 0.005,0.071 0.002,0.022 0.002,0.037 0.015,0.06 C 6.667,8.387 6.7,8.399 6.73,8.402 6.76,8.406 6.8,8.403 6.825,8.364 6.837,8.346 6.835,8.34 6.836,8.331 A 1.371,1.371 0 0 0 6.842,8.067 0.126,0.126 0 0 0 6.815,8.004 0.093,0.093 0 0 0 6.788,7.984 L 6.785,7.974 Z M 4.758,8.319 4.851,8.512 C 4.934,8.684 4.979,8.78 4.999,8.832 A 0.209,0.209 0 0 1 5.011,8.87 L 5.009,8.873 5.002,8.883 4.989,8.91 4.954,8.989 C 4.927,9.049 4.897,9.121 4.876,9.174 A 0.93,0.93 0 0 1 4.832,9.27 L 4.826,9.255 A 1.562,1.562 0 0 1 4.776,8.95 0.82,0.82 0 0 0 4.728,8.672 0.465,0.465 0 0 1 4.696,8.563 C 4.696,8.548 4.7,8.538 4.721,8.5 A 0.37,0.37 0 0 0 4.758,8.319 Z M 6.864,8.333 6.847,8.35 6.777,8.425 A 0.737,0.737 0 0 1 6.727,8.472 0.6,0.6 0 0 1 6.685,8.433 0.58,0.58 0 0 0 6.625,8.38 C 6.605,8.365 6.595,8.353 6.565,8.346 6.528,8.336 6.503,8.349 6.466,8.365 A 1.93,1.93 0 0 0 6.313,8.445 L 6.069,8.58 A 0.471,0.471 0 0 0 5.999,8.628 0.072,0.072 0 0 0 5.989,8.64 C 5.985,8.645 5.979,8.652 5.979,8.672 A 0.058,0.058 0 0 0 6.022,8.728 0.296,0.296 0 0 0 6.107,8.73 3.944,3.944 0 0 0 6.473,8.64 C 6.511,8.628 6.535,8.621 6.558,8.61 6.577,8.6 6.607,8.598 6.649,8.618 6.672,8.629 6.692,8.642 6.725,8.638 6.757,8.632 6.773,8.615 6.793,8.598 6.843,8.556 6.955,8.547 7.126,8.605 7.24,8.644 7.409,8.668 7.542,8.675 A 0.778,0.778 0 0 0 7.706,8.672 0.138,0.138 0 0 0 7.736,8.664 C 7.746,8.66 7.76,8.654 7.772,8.635 7.783,8.615 7.779,8.585 7.769,8.57 A 0.085,0.085 0 0 0 7.741,8.543 C 7.722,8.532 7.703,8.525 7.674,8.513 A 3.814,3.814 0 0 0 7.437,8.423 L 7.423,8.419 C 7.419,8.418 7.417,8.416 7.404,8.416 c 0.011,0 0.003,0 -0.004,-0.001 A 1.2,1.2 0 0 0 7.028,8.342 L 6.864,8.332 Z M 6.967,8.807 H 6.918 C 6.723,8.809 6.673,8.814 6.56,8.845 6.45,8.875 6.385,8.895 6.34,8.915 A 0.17,0.17 0 0 0 6.284,8.955 0.115,0.115 0 0 0 6.257,9.011 C 6.256,9.011 6.26,9.01 6.247,9.01 A 0.167,0.167 0 0 0 6.199,9.02 0.073,0.073 0 0 0 6.174,9.034 0.058,0.058 0 0 0 6.156,9.096 c 0.008,0.026 0.012,0.022 0.016,0.025 0.004,0.004 0.007,0.008 0.012,0.011 l 0.032,0.025 c 0.026,0.02 0.06,0.043 0.097,0.068 0.059,0.04 0.091,0.068 0.105,0.083 A 0.055,0.055 0 0 0 6.414,9.357 C 6.423,9.379 6.439,9.385 6.447,9.388 6.455,9.391 6.459,9.391 6.464,9.392 6.481,9.393 6.494,9.391 6.514,9.389 6.54,9.385 6.545,9.385 6.554,9.388 A 0.35,0.35 0 0 1 6.617,9.426 C 6.661,9.456 6.695,9.479 6.747,9.483 6.799,9.487 6.86,9.477 6.985,9.459 7.085,9.445 7.122,9.429 7.193,9.368 A 0.43,0.43 0 0 1 7.249,9.326 c 0.015,-0.009 0.027,-0.01 0.017,-0.01 0.017,0 0.037,0.004 0.061,-0.018 A 0.07,0.07 0 0 0 7.347,9.255 C 7.349,9.248 7.347,9.244 7.346,9.239 L 7.348,9.236 A 0.368,0.368 0 0 1 7.393,9.189 L 7.53,9.061 7.694,8.907 H 7.504 A 0.741,0.741 0 0 1 7.369,8.877 0.924,0.924 0 0 0 6.993,8.807 Z m 1.83,0.381 0.011,0.01 a 0.76,0.76 0 0 1 0.07,0.095 C 8.904,9.334 8.943,9.39 8.967,9.422 9.003,9.469 9.017,9.493 9.018,9.5 9.02,9.507 9.019,9.515 9.004,9.552 8.974,9.628 8.899,9.831 8.864,9.935 l -0.07,0.192 -0.092,0.258 a 3.493,3.493 0 0 1 -0.198,0.492 l -0.07,0.125 -0.228,0.393 -0.05,0.087 c -0.001,0 0,0 0,0 A 5.407,5.407 0 0 1 7.758,11.614 L 7.741,11.576 7.579,11.168 A 2.519,2.519 0 0 0 7.518,11.027 C 7.513,11.017 7.512,11.011 7.501,10.998 7.482,10.976 7.465,10.972 7.447,10.968 A 0.239,0.239 0 0 0 7.389,10.96 0.1,0.1 0 0 1 7.356,10.956 C 7.358,10.954 7.361,10.944 7.37,10.932 a 1.84,1.84 0 0 1 0.085,-0.11 C 7.541,10.719 7.687,10.551 7.928,10.276 8.195,9.972 8.298,9.852 8.368,9.769 8.41,9.719 8.48,9.639 8.523,9.592 A 6.305,6.305 0 0 0 8.708,9.384 H 8.72 L 8.714,9.377 A 0.382,0.382 0 0 0 8.766,9.305 0.169,0.169 0 0 0 8.785,9.228 C 8.785,9.213 8.79,9.198 8.795,9.191 8.798,9.188 8.796,9.19 8.796,9.188 Z M 5.251,9.321 c 0.01,0.012 0.02,0.023 0.03,0.039 0.164,0.245 0.306,0.451 0.472,0.684 l 0.076,0.111 a 0.625,0.625 0 0 0 0.112,0.137 0.365,0.365 0 0 0 0.135,0.068 l 0.03,0.01 H 6.104 l -0.02,0.009 c -0.006,0.003 -0.014,0.005 -0.026,0.023 -0.012,0.02 -0.008,0.033 -0.007,0.04 a 0.062,0.062 0 0 0 0.005,0.016 0.732,0.732 0 0 0 0.044,0.067 c 0.027,0.037 0.066,0.084 0.108,0.135 0.085,0.102 0.186,0.217 0.255,0.284 a 0.22,0.22 0 0 1 0.04,0.045 0.163,0.163 0 0 1 0.005,0.053 c 0,0.033 -0.02,0.122 -0.055,0.23 -0.036,0.11 -0.087,0.241 -0.148,0.378 l -0.06,0.136 -0.008,0.019 A 5.407,5.407 0 0 1 6.048,11.798 L 6.024,11.768 5.971,11.694 C 5.586,11.162 5.355,10.737 5.295,10.471 A 0.801,0.801 0 0 0 5.245,10.304 0.184,0.184 0 0 0 5.161,10.215 C 5.104,10.188 5.06,10.125 5.036,10.015 A 12.127,12.127 0 0 0 4.978,9.756 L 4.974,9.736 4.979,9.73 A 0.378,0.378 0 0 1 5.022,9.691 0.33,0.33 0 0 0 5.115,9.591 C 5.145,9.543 5.182,9.466 5.251,9.321 Z m 5.551,0.1 a 5.407,5.407 0 0 1 -0.01,0.016 h -0.049 l 0.06,-0.017 z m -0.148,0.04 0.046,0.06 0.015,0.02 a 5.407,5.407 0 0 1 -0.177,0.233 l 0.013,-0.078 c 0.012,-0.078 0.022,-0.134 0.03,-0.17 0.006,-0.024 0.014,-0.038 0.015,-0.041 10e-4,0 0.007,-0.005 0.02,-0.01 a 0.563,0.563 0 0 1 0.038,-0.014 z m -1.05,0.135 c 0.001,0.038 0.001,0.106 -0.002,0.221 -0.008,0.291 -0.024,0.387 -0.09,0.527 a 0.494,0.494 0 0 0 -0.043,0.125 c -0.01,0.053 -0.021,0.13 -0.042,0.284 l -0.006,0.069 a 5.407,5.407 0 0 1 -0.8,0.466 C 8.7,11.108 8.802,10.9 8.841,10.748 A 0.971,0.971 0 0 1 8.924,10.59 C 9.007,10.462 9.207,10.097 9.355,9.8 9.393,9.724 9.417,9.68 9.433,9.656 L 9.446,9.639 A 1.25,1.25 0 0 0 9.561,9.607 0.45,0.45 0 0 1 9.604,9.596 Z M 8.253,9.651 V 9.652 C 7.905,9.994 7.775,10.117 7.736,10.144 A 0.436,0.436 0 0 0 7.559,10.36 C 7.513,10.463 7.468,10.528 7.316,10.706 A 11.021,11.021 0 0 0 7.16,10.89 0.061,0.061 0 0 0 7.146,10.87 0.072,0.072 0 0 0 7.091,10.854 0.116,0.116 0 0 0 7.018,10.896 L 7.017,10.898 7.01,10.892 C 6.986,10.864 6.95,10.84 6.907,10.85 c 0,-10e-4 0,-0.003 0.002,-0.005 a 3.289,3.289 0 0 1 0.11,-0.175 c 0.067,-0.1 0.151,-0.216 0.209,-0.288 a 0.325,0.325 0 0 1 0.07,-0.068 0.061,0.061 0 0 0 0.026,0.015 c 0.019,0.005 0.035,0 0.046,-0.005 0.022,-0.01 0.034,-0.022 0.052,-0.04 0.01,-0.01 0.012,-0.01 0.019,-0.014 0,0.004 0.003,0.007 0.004,0.01 0.003,0.01 0.011,0.025 0.024,0.033 a 0.058,0.058 0 0 0 0.035,0.007 c 0.018,-0.002 0.025,-0.007 0.033,-0.012 a 0.323,0.323 0 0 0 0.048,-0.037 4.23,4.23 0 0 0 0.176,-0.17 C 7.888,9.972 8.066,9.81 8.227,9.673 Z M 4.542,9.73 c 0.1,0.002 0.152,0.01 0.164,0.016 0.006,0.002 0.005,0.002 0.008,0.009 a 0.26,0.26 0 0 1 0.012,0.05 c 0.007,0.039 0.025,0.107 0.042,0.163 0.016,0.05 0.033,0.135 0.037,0.175 0.005,0.055 0.026,0.168 0.047,0.265 0.022,0.094 0.057,0.252 0.078,0.35 a 15.576,15.576 0 0 1 0.084,0.387 l 0.003,0.01 a 0.045,0.045 0 0 0 0.003,0.008 v 10e-4 l 0.002,0.01 0.01,0.038 0.025,0.123 c 0.008,0.045 0.02,0.095 0.032,0.15 l -0.1,0.047 c -0.012,0.006 -0.016,0.014 -0.02,0.02 L 4.966,11.556 4.964,11.557 4.963,11.56 4.925,11.62 A 5.407,5.407 0 0 1 4.632,11.536 C 4.627,11.486 4.625,11.421 4.618,11.385 4.604,11.312 4.59,11.261 4.55,11.227 A 0.24,0.24 0 0 0 4.48,11.186 l 10e-4,-0.009 -0.05,-0.006 a 0.056,0.056 0 0 0 -0.012,0 V 11.17 H 4.404 a 0.058,0.058 0 0 0 -0.033,0.02 c -0.013,0.013 -0.014,0.02 -0.015,0.026 l -0.002,0.011 v 0.016 l 0.003,0.035 0.014,0.104 0.012,0.062 A 5.407,5.407 0 0 1 3.371,10.927 c 0.029,-0.06 0.066,-0.12 0.078,-0.155 a 0.556,0.556 0 0 1 0.06,-0.132 c 0.013,-0.013 0.018,-0.014 0.06,-0.019 0.132,-0.015 0.225,-0.05 0.29,-0.118 a 0.397,0.397 0 0 0 0.043,-0.051 c 0.012,-0.018 0.021,-0.03 0.026,-0.056 a 10.646,10.646 0 0 1 0.1,-0.544 L 4.042,9.796 C 4.047,9.785 4.038,9.79 4.064,9.781 A 1.648,1.648 0 0 1 4.541,9.729 Z M 4.493,9.87 A 0.633,0.633 0 0 0 4.359,9.89 C 4.296,9.902 4.209,9.923 4.092,9.951 L 4.075,9.956 c -0.005,0.001 -0.01,0 -0.022,0.01 -0.006,0.005 -0.022,0.015 -0.023,0.043 0,0.014 0.006,0.029 0.013,0.036 a 0.05,0.05 0 0 0 0.016,0.013 c 0.016,0.01 0.02,0.007 0.026,0.008 0.025,0.003 0.059,0.003 0.125,0.003 0.074,10e-4 0.117,0 0.154,-0.006 A 0.473,0.473 0 0 0 4.543,9.978 0.064,0.064 0 0 0 4.554,9.965 C 4.558,9.959 4.566,9.95 4.564,9.929 A 0.07,0.07 0 0 0 4.529,9.877 C 4.515,9.871 4.504,9.871 4.493,9.87 Z M 2.324,9.913 C 2.34,9.914 2.348,9.918 2.349,9.918 V 9.925 L 2.345,9.93 C 2.338,9.938 2.3,9.972 2.279,9.992 A 5.407,5.407 0 0 1 2.234,9.937 C 2.266,9.928 2.306,9.912 2.324,9.913 Z m 4.6,0.462 c 0.004,0.005 0.005,0.008 0.013,0.015 A 0.08,0.08 0 0 0 7,10.402 0.095,0.095 0 0 0 7.034,10.382 4.184,4.184 0 0 1 6.772,10.766 l -0.01,0.008 v -10e-4 c 0.003,-0.01 0.004,-0.017 0.005,-0.028 0,-0.01 0.002,-0.029 -0.015,-0.048 a 0.065,0.065 0 0 0 -0.05,-0.021 c -0.012,0 -0.02,0.002 -0.028,0.003 L 6.672,10.68 C 6.647,10.647 6.613,10.637 6.577,10.636 v -0.007 c 0.001,-0.005 0.005,-0.009 0,-0.002 0.009,-0.011 0.017,-0.02 0.022,-0.041 A 0.06,0.06 0 0 0 6.592,10.542 0.062,0.062 0 0 0 6.552,10.515 C 6.527,10.51 6.516,10.517 6.504,10.523 6.494,10.527 6.486,10.533 6.477,10.539 6.479,10.53 6.479,10.523 6.485,10.51 a 0.155,0.155 0 0 1 0.04,-0.05 c 0.016,-0.013 0.033,-0.017 0.033,-0.017 l 0.01,0.005 a 0.043,0.043 0 0 1 0.013,0.015 c 0.004,0.011 0.014,0.027 0.032,0.036 a 0.065,0.065 0 0 0 0.047,0.003 c 0.022,-0.008 0.032,-0.018 0.045,-0.03 a 0.067,0.067 0 0 1 0.032,-0.015 c 0.01,-0.001 0.012,0.002 0.006,-0.003 0.016,0.016 0.043,0.02 0.058,0.017 0.015,-0.003 0.024,-0.01 0.033,-0.015 a 0.326,0.326 0 0 0 0.055,-0.05 c 0.023,-0.023 0.03,-0.027 0.036,-0.03 z m -1.686,0.538 0.052,0.073 c 0.063,0.095 0.135,0.206 0.171,0.27 l 0.108,0.182 c 0.037,0.061 0.084,0.142 0.103,0.176 0.02,0.038 0.059,0.106 0.088,0.154 l 0.004,0.008 A 5.407,5.407 0 0 1 5.422,11.728 L 5.389,11.591 A 18.05,18.05 0 0 1 5.295,11.167 8.675,8.675 0 0 0 5.238,10.913 Z m 2.118,0.034 z m -2.335,0.216 z m 0.08,0.375 0.025,0.115 0.004,0.022 A 5.407,5.407 0 0 1 5.102,11.67 L 5.094,11.628 a 0.365,0.365 0 0 0 -0.017,-0.05 z"
     id="path2"
     inkscape:connector-curvature="0"
     style="fill:#5beedc" />
</svg>
