<?xml version="1.0" encoding="UTF-8" standalone="no"?>
<svg
   xmlns:dc="http://purl.org/dc/elements/1.1/"
   xmlns:cc="http://creativecommons.org/ns#"
   xmlns:rdf="http://www.w3.org/1999/02/22-rdf-syntax-ns#"
   xmlns:svg="http://www.w3.org/2000/svg"
   xmlns="http://www.w3.org/2000/svg"
   xmlns:sodipodi="http://sodipodi.sourceforge.net/DTD/sodipodi-0.dtd"
   xmlns:inkscape="http://www.inkscape.org/namespaces/inkscape"
   width="48"
   height="48"
   viewBox="0 0 12.7 12.7"
   version="1.1"
   id="svg4"
   sodipodi:docname="whatweb.svg"
   inkscape:version="0.92.5 (2060ec1f9f, 2020-04-08)">
  <metadata
     id="metadata10">
    <rdf:RDF>
      <cc:Work
         rdf:about="">
        <dc:format>image/svg+xml</dc:format>
        <dc:type
           rdf:resource="http://purl.org/dc/dcmitype/StillImage" />
        <dc:title></dc:title>
      </cc:Work>
    </rdf:RDF>
  </metadata>
  <defs
     id="defs8" />
  <sodipodi:namedview
     pagecolor="#ffffff"
     bordercolor="#666666"
     borderopacity="1"
     objecttolerance="10"
     gridtolerance="10"
     guidetolerance="10"
     inkscape:pageopacity="0"
     inkscape:pageshadow="2"
     inkscape:window-width="1085"
     inkscape:window-height="480"
     id="namedview6"
     showgrid="false"
     inkscape:zoom="4.9166667"
     inkscape:cx="2.1355932"
     inkscape:cy="24"
     inkscape:window-x="0"
     inkscape:window-y="25"
     inkscape:window-maximized="0"
     inkscape:current-layer="svg4" />
  <path
     d="M 6.35,0.061 A 6.29,6.29 0 0 0 0.061,6.35 6.29,6.29 0 0 0 6.35,12.639 6.29,6.29 0 0 0 12.639,6.35 6.29,6.29 0 0 0 6.35,0.061 Z M 6.332,0.997 A 5.407,5.407 0 0 1 11.739,6.404 5.407,5.407 0 0 1 6.332,11.811 5.407,5.407 0 0 1 0.925,6.404 5.407,5.407 0 0 1 6.332,0.997 Z M 4.088,2.562 3.628,3.008 3.168,3.454 3.175,3.866 c 0.007,0.35 -0.041,0.535 -0.316,1.2 -0.185,0.433 -0.35,0.837 -0.37,0.892 -0.02,0.055 0.26,-0.11 0.624,-0.363 0.364,-0.26 0.666,-0.453 0.666,-0.44 0,0.063 -0.227,0.577 -0.618,1.42 -0.487,1.05 -0.638,1.586 -0.638,2.3 0,0.597 0.15,1.056 0.418,1.296 0.145,0.124 0.152,0.124 0.611,-0.116 0.79,-0.412 1.983,-0.748 2.052,-0.57 0.014,0.041 -0.028,0.302 -0.096,0.577 -0.09,0.357 -0.103,0.494 -0.048,0.467 0.63,-0.24 1.112,-0.337 1.88,-0.364 L 8.184,10.123 8.28,9.89 C 8.362,9.705 8.37,9.376 8.335,8.168 8.307,7.166 8.315,6.542 8.369,6.268 8.459,5.787 8.918,4.82 9.604,3.674 9.864,3.234 10.078,2.871 10.064,2.871 10.057,2.871 9.446,2.946 8.712,3.042 7.381,3.214 7.381,3.214 7.182,3.44 6.901,3.763 6.482,4.655 6.345,5.238 6.228,5.725 6.222,5.746 5.988,5.787 5.858,5.807 5.741,5.814 5.728,5.801 5.672,5.753 6.029,4.497 6.372,3.523 l 0.33,-0.96 H 4.088 Z m 0.11,0.467 0.926,0.006 C 5.707,3.042 6.036,3.07 6.016,3.111 5.844,3.571 5.481,4.806 5.391,5.238 5.275,5.787 5.165,7.468 5.241,7.468 5.268,7.468 5.351,7.235 5.439,6.946 5.59,6.411 5.693,6.288 6.049,6.199 L 6.235,6.151 6.283,6.831 C 6.331,7.523 6.433,8.168 6.448,7.894 6.516,6.501 6.825,4.936 7.148,4.291 7.464,3.667 7.484,3.653 8.184,3.564 8.534,3.516 8.904,3.468 9.007,3.447 9.199,3.407 9.199,3.413 8.787,4.195 7.971,5.739 7.772,6.575 7.862,8.003 7.889,8.483 7.916,9.053 7.923,9.28 L 7.93,9.677 7.21,9.698 C 6.811,9.705 6.386,9.733 6.27,9.767 L 6.043,9.815 V 9.499 c 0,-0.178 -0.048,-0.652 -0.11,-1.05 L 5.817,7.722 5.7,7.955 C 5.631,8.085 5.522,8.367 5.453,8.58 5.343,8.95 5.316,8.978 5.089,9.02 A 5.902,5.902 0 0 0 3.519,9.554 L 3.086,9.788 3.016,9.623 C 2.914,9.341 2.948,8.553 3.086,8.01 3.161,7.729 3.394,7.139 3.607,6.693 4.279,5.265 4.485,4.463 4.341,3.763 L 4.28,3.454 4.225,3.831 C 4.177,4.154 4.129,4.251 3.889,4.463 3.587,4.744 3.456,4.792 3.539,4.6 3.573,4.538 3.607,4.284 3.621,4.037 3.655,3.633 3.676,3.564 3.929,3.31 L 4.197,3.029 Z M 3.83,6.746 C 3.82,6.705 3.721,6.881 3.58,7.228 3.189,8.168 2.99,9.191 3.148,9.444 3.196,9.513 3.271,9.492 3.511,9.362 3.676,9.266 4.067,9.122 4.383,9.039 4.691,8.957 4.931,8.875 4.918,8.861 4.89,8.834 3.958,8.944 3.594,9.019 L 3.367,9.059 V 8.765 C 3.367,8.442 3.559,7.571 3.744,7.063 3.811,6.873 3.837,6.77 3.83,6.746 Z"
     id="path2"
     inkscape:connector-curvature="0"
     style="fill:#5beedc" />
</svg>
