<?xml version="1.0" encoding="UTF-8" standalone="no"?>
<svg
   xmlns:dc="http://purl.org/dc/elements/1.1/"
   xmlns:cc="http://creativecommons.org/ns#"
   xmlns:rdf="http://www.w3.org/1999/02/22-rdf-syntax-ns#"
   xmlns:svg="http://www.w3.org/2000/svg"
   xmlns="http://www.w3.org/2000/svg"
   xmlns:sodipodi="http://sodipodi.sourceforge.net/DTD/sodipodi-0.dtd"
   xmlns:inkscape="http://www.inkscape.org/namespaces/inkscape"
   width="48"
   height="48"
   viewBox="0 0 12.7 12.7"
   version="1.1"
   id="svg4"
   sodipodi:docname="yara.svg"
   inkscape:version="0.92.5 (2060ec1f9f, 2020-04-08)">
  <metadata
     id="metadata10">
    <rdf:RDF>
      <cc:Work
         rdf:about="">
        <dc:format>image/svg+xml</dc:format>
        <dc:type
           rdf:resource="http://purl.org/dc/dcmitype/StillImage" />
        <dc:title></dc:title>
      </cc:Work>
    </rdf:RDF>
  </metadata>
  <defs
     id="defs8" />
  <sodipodi:namedview
     pagecolor="#ffffff"
     bordercolor="#666666"
     borderopacity="1"
     objecttolerance="10"
     gridtolerance="10"
     guidetolerance="10"
     inkscape:pageopacity="0"
     inkscape:pageshadow="2"
     inkscape:window-width="1085"
     inkscape:window-height="480"
     id="namedview6"
     showgrid="false"
     inkscape:zoom="4.9166667"
     inkscape:cx="2.1355932"
     inkscape:cy="24"
     inkscape:window-x="0"
     inkscape:window-y="25"
     inkscape:window-maximized="0"
     inkscape:current-layer="svg4" />
  <path
     d="M 6.34,0.075 A 6.295,6.295 0 0 0 0.055,6.36 6.295,6.295 0 0 0 6.34,12.655 6.295,6.295 0 0 0 12.634,6.36 6.295,6.295 0 0 0 6.34,0.075 Z m -0.011,0.94 a 5.408,5.408 0 0 1 5.397,5.387 5.407,5.407 0 0 1 -10.814,0 c 0,-2.987 2.43,-5.387 5.417,-5.387 z M 6.915,1.628 C 6.635,1.636 6.358,1.694 6.081,1.775 5.411,2.029 5.068,2.474 4.975,2.966 4.845,3.651 5.157,4.509 5.403,5.346 5.449,5.553 5.275,5.506 4.885,5.666 4.529,5.816 4.397,5.734 4.298,6.019 4.25,6.229 4.218,6.438 4.202,6.642 4.187,6.957 4.282,6.848 5.08,7.211 5.182,7.269 4.95,7.501 4.694,7.837 4.077,8.534 3.698,9.421 3.882,10.09 c 0.102,0.367 0.47,0.823 0.872,0.835 H 6.177 C 6.321,10.913 6.225,10.652 6.491,10.145 6.632,9.889 6.475,9.768 6.384,9.775 5.797,9.799 5.72,9.796 5.6,9.603 A 0.478,0.478 0 0 1 5.602,9.074 C 5.746,8.848 5.789,8.701 5.897,8.536 6.124,8.191 6.392,7.878 6.701,7.38 6.834,7.177 6.906,6.894 6.621,6.774 6.466,6.708 5.898,6.532 5.441,6.364 5.421,6.328 5.886,6.21 6.345,6.066 6.695,5.956 7,5.903 7.051,5.741 7.165,5.403 6.755,4.79 6.601,3.969 6.483,3.171 6.495,2.807 7.477,2.891 7.927,2.933 7.777,2.661 7.797,2.236 7.798,2.002 7.831,1.786 7.767,1.775 A 2.087,2.087 0 0 0 6.915,1.628 Z"
     id="path2"
     inkscape:connector-curvature="0"
     style="fill:#5beedc" />
</svg>
