<?xml version="1.0" encoding="UTF-8" standalone="no"?>
<svg
   xmlns:dc="http://purl.org/dc/elements/1.1/"
   xmlns:cc="http://creativecommons.org/ns#"
   xmlns:rdf="http://www.w3.org/1999/02/22-rdf-syntax-ns#"
   xmlns:svg="http://www.w3.org/2000/svg"
   xmlns="http://www.w3.org/2000/svg"
   xmlns:sodipodi="http://sodipodi.sourceforge.net/DTD/sodipodi-0.dtd"
   xmlns:inkscape="http://www.inkscape.org/namespaces/inkscape"
   width="48"
   height="48"
   viewBox="0 0 12.7 12.7"
   version="1.1"
   id="svg4"
   sodipodi:docname="bettercap.svg"
   inkscape:version="0.92.5 (2060ec1f9f, 2020-04-08)">
  <metadata
     id="metadata10">
    <rdf:RDF>
      <cc:Work
         rdf:about="">
        <dc:format>image/svg+xml</dc:format>
        <dc:type
           rdf:resource="http://purl.org/dc/dcmitype/StillImage" />
        <dc:title></dc:title>
      </cc:Work>
    </rdf:RDF>
  </metadata>
  <defs
     id="defs8" />
  <sodipodi:namedview
     pagecolor="#ffffff"
     bordercolor="#666666"
     borderopacity="1"
     objecttolerance="10"
     gridtolerance="10"
     guidetolerance="10"
     inkscape:pageopacity="0"
     inkscape:pageshadow="2"
     inkscape:window-width="1085"
     inkscape:window-height="480"
     id="namedview6"
     showgrid="false"
     inkscape:zoom="4.9166667"
     inkscape:cx="2.1355932"
     inkscape:cy="24"
     inkscape:window-x="0"
     inkscape:window-y="25"
     inkscape:window-maximized="0"
     inkscape:current-layer="svg4" />
  <path
     d="M 6.34,0.075 A 6.295,6.295 0 0 0 0.055,6.36 6.295,6.295 0 0 0 6.34,12.655 6.295,6.295 0 0 0 12.634,6.36 6.295,6.295 0 0 0 6.34,0.075 Z m -0.011,0.94 a 5.408,5.408 0 0 1 5.397,5.387 5.407,5.407 0 0 1 -10.814,0 c 0,-2.987 2.43,-5.387 5.417,-5.387 z M 6.238,2.914 C 6.046,2.913 6.024,3.019 6.145,3.249 6.293,3.529 6.25,3.779 6.065,3.825 L 6.067,3.827 6.062,3.829 C 5.771,3.895 5.609,4.037 5.83,4.022 5.928,4.12 5.926,4.138 5.804,4.227 A 0.58,0.58 0 0 1 5.514,4.323 C 5.391,4.318 5.293,4.43 5.168,4.486 5.142,4.498 5.116,4.578 5.112,4.599 5.051,4.873 5.182,4.899 5.632,4.704 6.324,4.404 7.392,4.287 7.464,4.502 7.478,4.545 7.369,4.704 7.222,4.856 7.004,5.08 6.904,5.091 6.703,5.131 5.679,5.337 5.903,5.023 6.659,4.939 6.891,4.859 6.923,4.762 6.744,4.669 6.518,4.549 5.423,4.831 5.423,5.007 c 0,0.042 0.054,0.116 0.12,0.164 0.111,0.08 0.102,0.102 -0.114,0.28 C 5.01,5.797 5.381,5.936 5.968,5.653 6.268,5.507 6.776,5.471 7.414,5.548 7.564,5.566 7.586,5.543 7.586,5.37 7.586,5.208 7.637,5.142 7.861,5.017 A 4.31,4.31 0 0 1 8.196,4.843 C 8.332,4.796 8.136,4.503 7.85,4.324 6.949,4.169 7.353,4.105 7.91,4.019 8.05,3.994 8.198,3.933 8.239,3.885 8.352,3.752 7.929,3.469 7.479,3.375 7.339,3.319 6.983,3.363 6.971,3.421 6.955,3.504 7.015,3.205 6.986,3.174 A 0.995,0.995 0 0 0 6.607,2.981 1.563,1.563 0 0 0 6.237,2.914 Z m 0.888,0.61 A 0.278,0.278 0 0 1 7.182,3.527 C 7.382,3.565 7.364,3.704 7.147,3.814 6.09,4.259 6.685,3.828 6.952,3.567 L 7.126,3.523 Z M 5.909,3.606 C 5.865,3.608 5.776,3.641 5.611,3.711 5.416,3.793 5.271,3.818 5.21,3.78 5.055,3.684 4.953,3.708 4.87,3.859 4.767,4.048 4.841,4.305 5.015,4.359 5.027,4.363 5.027,4.37 5.036,4.374 5.141,4.355 5.234,4.352 5.433,4.158 5.49,4.095 5.542,4.026 5.599,3.963 L 5.936,3.691 C 5.952,3.635 5.953,3.605 5.909,3.606 Z M 2.28,6.386 C 1.88,6.414 1.715,6.762 1.716,7.534 1.716,8.518 1.95,8.99 2.524,9.164 2.956,9.294 3.127,9.291 4.53,9.136 6.057,8.966 6.655,8.967 8.22,9.143 9.565,9.293 10.074,9.279 10.382,9.081 10.827,8.794 10.984,8.39 10.984,7.521 10.986,6.266 10.614,6.123 9.097,6.791 7.885,7.324 7.381,7.464 6.553,7.501 5.627,7.543 5.185,7.44 3.711,6.835 3.163,6.61 2.604,6.411 2.466,6.393 A 0.932,0.932 0 0 0 2.28,6.386 Z m 0.63,0.859 c 0.328,0 1.844,0.764 1.998,1.008 C 4.991,8.385 3.898,8.26 3.243,8.062 2.543,7.851 2.296,7.245 2.91,7.245 Z m 6.979,0.002 c 0.125,-0.003 0.215,0.03 0.274,0.1 0.256,0.302 -0.376,0.701 -1.386,0.875 -0.315,0.055 -0.662,0.1 -0.77,0.1 -0.28,0 -0.157,-0.125 0.494,-0.498 0.667,-0.383 1.113,-0.57 1.388,-0.577 z"
     id="path2"
     inkscape:connector-curvature="0"
     style="fill:#5beedc" />
</svg>
