<?xml version="1.0" encoding="UTF-8" standalone="no"?>
<svg
   xmlns:dc="http://purl.org/dc/elements/1.1/"
   xmlns:cc="http://creativecommons.org/ns#"
   xmlns:rdf="http://www.w3.org/1999/02/22-rdf-syntax-ns#"
   xmlns:svg="http://www.w3.org/2000/svg"
   xmlns="http://www.w3.org/2000/svg"
   xmlns:sodipodi="http://sodipodi.sourceforge.net/DTD/sodipodi-0.dtd"
   xmlns:inkscape="http://www.inkscape.org/namespaces/inkscape"
   width="48"
   height="48"
   viewBox="0 0 12.7 12.7"
   version="1.1"
   id="svg4"
   sodipodi:docname="binwalk.svg"
   inkscape:version="0.92.5 (2060ec1f9f, 2020-04-08)">
  <metadata
     id="metadata10">
    <rdf:RDF>
      <cc:Work
         rdf:about="">
        <dc:format>image/svg+xml</dc:format>
        <dc:type
           rdf:resource="http://purl.org/dc/dcmitype/StillImage" />
        <dc:title></dc:title>
      </cc:Work>
    </rdf:RDF>
  </metadata>
  <defs
     id="defs8" />
  <sodipodi:namedview
     pagecolor="#ffffff"
     bordercolor="#666666"
     borderopacity="1"
     objecttolerance="10"
     gridtolerance="10"
     guidetolerance="10"
     inkscape:pageopacity="0"
     inkscape:pageshadow="2"
     inkscape:window-width="1085"
     inkscape:window-height="480"
     id="namedview6"
     showgrid="false"
     inkscape:zoom="4.9166667"
     inkscape:cx="2.1355932"
     inkscape:cy="24"
     inkscape:window-x="0"
     inkscape:window-y="25"
     inkscape:window-maximized="0"
     inkscape:current-layer="svg4" />
  <path
     d="M 6.34,0.075 A 6.295,6.295 0 0 0 0.055,6.36 6.295,6.295 0 0 0 6.34,12.655 6.295,6.295 0 0 0 12.634,6.36 6.295,6.295 0 0 0 6.34,0.075 Z m -0.011,0.94 a 5.408,5.408 0 0 1 5.397,5.387 5.407,5.407 0 0 1 -10.814,0 c 0,-2.987 2.43,-5.387 5.417,-5.387 z m 0.827,0.89 V 1.906 C 5.581,1.906 5.386,1.914 5.313,1.981 5.197,2.086 5.191,2.916 5.305,3.042 5.355,3.098 5.439,3.116 6.1,3.122 l -0.034,0.02 v 0.57 L 4.552,3.699 v 0.829 h 0.382 c 0.373,0 0.383,0.002 0.486,0.106 L 5.526,4.739 5.517,5.976 5.507,7.212 5.362,7.223 C 5.14,7.24 5.047,7.117 4.841,6.532 4.571,5.764 4.391,5.512 3.963,5.302 A 1.381,1.381 0 0 0 3.471,5.154 C 3.271,5.134 3.219,5.114 3.111,5.012 2.816,4.733 2.41,4.746 2.148,5.044 1.792,5.449 2.099,6.112 2.642,6.112 2.81,6.112 3.044,6.002 3.142,5.877 3.222,5.776 3.224,5.775 3.425,5.817 3.823,5.901 3.983,6.092 4.209,6.754 4.274,6.946 4.34,7.133 4.354,7.168 4.378,7.226 4.328,7.231 3.58,7.231 2.78,7.231 2.779,7.23 2.711,7.145 2.613,7.019 2.422,6.942 2.211,6.942 1.718,6.942 1.421,7.422 1.638,7.87 A 0.648,0.648 0 0 0 2.671,8.038 L 2.794,7.915 h 1.344 c 1.472,0 1.387,-0.012 1.387,0.213 0,0.198 -0.067,0.236 -0.456,0.256 L 4.714,8.402 4.655,8.744 A 71.17,71.17 0 0 0 4.575,9.206 L 4.556,9.326 6.066,9.29 V 9.654 L 6.107,9.677 C 5.526,9.684 5.406,9.702 5.355,9.748 5.239,9.853 5.233,10.683 5.347,10.81 c 0.07,0.077 0.187,0.082 1.836,0.082 1.574,0 1.768,-0.007 1.842,-0.075 C 9.141,10.712 9.147,9.882 9.033,9.756 8.98,9.698 8.899,9.68 8.157,9.676 V 9.24 L 8.973,9.221 C 9.958,8.999 10.393,8.485 10.396,7.536 10.398,6.828 10.163,6.499 9.462,6.233 9.385,6.203 9.389,6.197 9.549,6.076 9.873,5.833 10.025,5.396 9.955,4.904 A 1.393,1.393 0 0 0 9.68,4.256 C 9.464,4.01 8.988,3.803 8.467,3.731 L 8.157,3.728 V 3.12 C 8.806,3.114 8.93,3.097 8.983,3.049 9.1,2.944 9.106,2.114 8.991,1.988 8.921,1.91 8.804,1.905 7.156,1.905 Z M 5.501,2.177 H 8.795 V 2.854 H 5.5 V 2.177 Z m 0.527,0.135 c -0.211,0 -0.284,0.215 -0.114,0.334 A 0.192,0.192 0 0 0 6.206,2.561 C 6.245,2.461 6.138,2.312 6.028,2.312 Z m 1.128,0 c -0.211,0 -0.284,0.215 -0.114,0.334 A 0.192,0.192 0 0 0 7.334,2.561 C 7.373,2.461 7.266,2.312 7.156,2.312 Z m 1.083,0 c -0.21,0 -0.284,0.215 -0.114,0.334 A 0.192,0.192 0 0 0 8.418,2.561 C 8.456,2.461 8.349,2.312 8.238,2.312 Z M 6.823,3.124 H 7.4 V 3.723 L 6.823,3.718 Z m 0.035,1.43 0.479,0.02 C 7.618,4.586 7.892,4.618 8.004,4.652 8.459,4.792 8.67,5.201 8.481,5.572 8.396,5.739 8.164,5.888 7.891,5.952 7.658,6.006 6.921,6.056 6.885,6.02 6.871,6.005 6.859,5.67 6.859,5.274 V 4.554 Z M 2.625,5.09 c 0.106,0 0.157,0.024 0.238,0.116 C 2.92,5.27 2.967,5.363 2.967,5.413 2.967,5.559 2.87,5.706 2.747,5.749 2.615,5.795 2.614,5.795 2.513,5.754 2.399,5.708 2.282,5.541 2.282,5.424 2.282,5.362 2.323,5.276 2.386,5.206 2.468,5.114 2.518,5.09 2.625,5.09 Z m 4.233,1.7 0.587,0.018 c 0.67,0.02 0.984,0.096 1.2,0.286 0.172,0.15 0.232,0.278 0.232,0.497 0,0.474 -0.388,0.721 -1.249,0.792 C 7.123,8.425 6.916,8.429 6.883,8.396 6.87,8.383 6.858,8.016 6.858,7.581 Z m -4.63,0.458 h 0.02 C 2.332,7.251 2.408,7.295 2.48,7.381 2.596,7.519 2.595,7.664 2.477,7.805 2.399,7.897 2.357,7.915 2.227,7.915 2.098,7.915 2.057,7.897 1.979,7.805 1.825,7.622 1.874,7.387 2.087,7.285 A 0.358,0.358 0 0 1 2.229,7.248 Z M 7.4,9.258 V 9.674 L 7.198,9.673 H 6.823 v -0.4 L 7.4,9.259 Z M 5.543,9.945 h 3.294 v 0.676 H 5.543 Z m 0.526,0.134 c -0.21,0 -0.283,0.215 -0.113,0.334 a 0.192,0.192 0 0 0 0.293,-0.084 c 0.038,-0.1 -0.07,-0.25 -0.18,-0.25 z m 1.128,0 c -0.21,0 -0.283,0.215 -0.113,0.334 a 0.192,0.192 0 0 0 0.293,-0.084 c 0.038,-0.1 -0.069,-0.25 -0.18,-0.25 z m 1.084,0 c -0.211,0 -0.284,0.215 -0.114,0.334 a 0.192,0.192 0 0 0 0.292,-0.084 c 0.039,-0.1 -0.068,-0.25 -0.178,-0.25 z"
     id="path2"
     inkscape:connector-curvature="0"
     style="fill:#5beedc" />
</svg>
