<?xml version="1.0" encoding="UTF-8" standalone="no"?>
<svg
   xmlns:dc="http://purl.org/dc/elements/1.1/"
   xmlns:cc="http://creativecommons.org/ns#"
   xmlns:rdf="http://www.w3.org/1999/02/22-rdf-syntax-ns#"
   xmlns:svg="http://www.w3.org/2000/svg"
   xmlns="http://www.w3.org/2000/svg"
   xmlns:sodipodi="http://sodipodi.sourceforge.net/DTD/sodipodi-0.dtd"
   xmlns:inkscape="http://www.inkscape.org/namespaces/inkscape"
   width="48"
   height="48"
   viewBox="0 0 12.7 12.7"
   version="1.1"
   id="svg4"
   sodipodi:docname="foremost.svg"
   inkscape:version="0.92.5 (2060ec1f9f, 2020-04-08)">
  <metadata
     id="metadata10">
    <rdf:RDF>
      <cc:Work
         rdf:about="">
        <dc:format>image/svg+xml</dc:format>
        <dc:type
           rdf:resource="http://purl.org/dc/dcmitype/StillImage" />
        <dc:title></dc:title>
      </cc:Work>
    </rdf:RDF>
  </metadata>
  <defs
     id="defs8" />
  <sodipodi:namedview
     pagecolor="#ffffff"
     bordercolor="#666666"
     borderopacity="1"
     objecttolerance="10"
     gridtolerance="10"
     guidetolerance="10"
     inkscape:pageopacity="0"
     inkscape:pageshadow="2"
     inkscape:window-width="1085"
     inkscape:window-height="480"
     id="namedview6"
     showgrid="false"
     inkscape:zoom="4.9166667"
     inkscape:cx="2.1355932"
     inkscape:cy="24"
     inkscape:window-x="0"
     inkscape:window-y="25"
     inkscape:window-maximized="0"
     inkscape:current-layer="svg4" />
  <path
     d="M 6.34,0.075 A 6.295,6.295 0 0 0 0.055,6.36 6.295,6.295 0 0 0 6.34,12.655 6.295,6.295 0 0 0 12.634,6.36 6.295,6.295 0 0 0 6.34,0.075 Z m -0.011,0.94 a 5.408,5.408 0 0 1 5.397,5.387 5.407,5.407 0 0 1 -10.814,0 c 0,-2.987 2.43,-5.387 5.417,-5.387 z M 9.115,1.961 8.375,1.973 C 7.968,1.985 6.73,2.003 5.63,2.021 l -2.003,0.03 0.012,0.15 c 0,0.083 0.035,0.58 0.071,1.106 0.12,1.71 0.06,6.709 -0.083,7.27 l -0.042,0.162 0.322,-0.06 C 4.081,10.643 4.499,10.631 4.84,10.655 5.546,10.697 5.594,10.649 5.247,10.308 L 5.044,10.105 5.002,8.371 C 4.978,7.414 4.978,6.607 4.996,6.571 5.026,6.529 5.366,6.506 5.994,6.506 h 0.95 v 0.328 c 0,0.18 0.019,0.33 0.043,0.33 0.107,0 1.572,-0.921 1.53,-0.963 C 8.463,6.147 7.573,5.597 7.202,5.387 L 6.945,5.237 V 5.848 H 4.99 L 4.954,4.67 A 62.592,62.592 0 0 1 4.912,3.085 V 2.68 H 8.086 L 8.069,3.499 8.051,4.324 7.615,4.342 7.178,4.36 7.196,4.103 7.214,3.851 7.531,3.869 c 0.18,0.006 0.31,-0.011 0.31,-0.047 0,-0.054 -1.07,-0.963 -1.135,-0.963 -0.018,0 -0.257,0.227 -0.538,0.508 L 5.66,3.876 H 6.406 V 4.993 L 7.082,5.03 c 0.365,0.024 0.957,0.041 1.316,0.041 h 0.64 v -1.28 c 0,-0.7 0.017,-1.4 0.035,-1.555 z M 8.58,2.206 A 0.33,0.33 0 0 1 8.91,2.536 0.33,0.33 0 0 1 8.58,2.867 0.33,0.33 0 0 1 8.25,2.537 0.33,0.33 0 0 1 8.58,2.206 Z m -4.316,0.14 a 0.33,0.33 0 0 1 0.33,0.33 0.33,0.33 0 0 1 -0.33,0.33 0.33,0.33 0 0 1 -0.33,-0.33 0.33,0.33 0 0 1 0.33,-0.33 z M 6.77,3.285 A 0.33,0.33 0 0 1 7.1,3.615 0.33,0.33 0 0 1 6.77,3.946 0.33,0.33 0 0 1 6.44,3.616 0.33,0.33 0 0 1 6.77,3.285 Z M 8.563,4.189 A 0.33,0.33 0 0 1 8.893,4.52 0.33,0.33 0 0 1 8.563,4.85 0.33,0.33 0 0 1 8.233,4.52 0.33,0.33 0 0 1 8.563,4.19 Z m -4.16,1.672 a 0.33,0.33 0 0 1 0.33,0.33 0.33,0.33 0 0 1 -0.33,0.33 0.33,0.33 0 0 1 -0.33,-0.33 0.33,0.33 0 0 1 0.33,-0.33 z m 3.046,0.017 a 0.33,0.33 0 0 1 0.33,0.33 0.33,0.33 0 0 1 -0.33,0.331 0.33,0.33 0 0 1 -0.331,-0.33 0.33,0.33 0 0 1 0.33,-0.331 z m -3.15,3.776 a 0.33,0.33 0 0 1 0.33,0.33 0.33,0.33 0 0 1 -0.33,0.332 0.33,0.33 0 0 1 -0.33,-0.331 0.33,0.33 0 0 1 0.33,-0.33 z"
     id="path2"
     inkscape:connector-curvature="0"
     style="fill:#5beedc" />
</svg>
