<?xml version="1.0" encoding="UTF-8" standalone="no"?>
<svg
   xmlns:dc="http://purl.org/dc/elements/1.1/"
   xmlns:cc="http://creativecommons.org/ns#"
   xmlns:rdf="http://www.w3.org/1999/02/22-rdf-syntax-ns#"
   xmlns:svg="http://www.w3.org/2000/svg"
   xmlns="http://www.w3.org/2000/svg"
   xmlns:sodipodi="http://sodipodi.sourceforge.net/DTD/sodipodi-0.dtd"
   xmlns:inkscape="http://www.inkscape.org/namespaces/inkscape"
   width="48"
   height="48"
   viewBox="0 0 12.7 12.7"
   version="1.1"
   id="svg4"
   sodipodi:docname="kali-forensics-trans.svg"
   inkscape:version="0.92.5 (2060ec1f9f, 2020-04-08)">
  <metadata
     id="metadata10">
    <rdf:RDF>
      <cc:Work
         rdf:about="">
        <dc:format>image/svg+xml</dc:format>
        <dc:type
           rdf:resource="http://purl.org/dc/dcmitype/StillImage" />
        <dc:title></dc:title>
      </cc:Work>
    </rdf:RDF>
  </metadata>
  <defs
     id="defs8" />
  <sodipodi:namedview
     pagecolor="#ffffff"
     bordercolor="#666666"
     borderopacity="1"
     objecttolerance="10"
     gridtolerance="10"
     guidetolerance="10"
     inkscape:pageopacity="0"
     inkscape:pageshadow="2"
     inkscape:window-width="1085"
     inkscape:window-height="480"
     id="namedview6"
     showgrid="false"
     inkscape:zoom="4.9166667"
     inkscape:cx="2.1355932"
     inkscape:cy="24"
     inkscape:window-x="0"
     inkscape:window-y="25"
     inkscape:window-maximized="0"
     inkscape:current-layer="svg4" />
  <path
     d="M 6.34,0.075 A 6.295,6.295 0 0 0 0.055,6.36 6.295,6.295 0 0 0 6.34,12.655 6.295,6.295 0 0 0 12.634,6.36 6.295,6.295 0 0 0 6.34,0.075 Z m -0.011,0.94 a 5.408,5.408 0 0 1 5.397,5.387 5.407,5.407 0 0 1 -10.814,0 c 0,-2.987 2.43,-5.387 5.417,-5.387 z M 6.045,2.38 A 0.458,0.458 0 0 0 5.586,2.838 v 2.9 a 0.153,0.153 0 1 1 -0.305,0 V 3.45 A 0.458,0.458 0 0 0 4.823,2.993 0.458,0.458 0 0 0 4.365,3.451 V 7.267 L 3.747,6.421 C 3.564,6.138 3.207,6.044 2.945,6.206 2.684,6.371 2.619,6.732 2.799,7.013 l 1.422,2.155 c 0.425,0.646 1.114,1.152 2.401,1.152 2.132,0 2.323,-1.646 2.323,-2.137 V 4.06 A 0.458,0.458 0 0 0 8.487,3.602 0.458,0.458 0 0 0 8.029,4.06 v 1.985 a 0.153,0.153 0 1 1 -0.305,0 v -2.9 A 0.458,0.458 0 0 0 7.266,2.687 0.458,0.458 0 0 0 6.807,3.145 v 2.594 a 0.153,0.153 0 1 1 -0.305,0 v -2.9 A 0.458,0.458 0 0 0 6.045,2.381 Z"
     id="path2"
     inkscape:connector-curvature="0"
     style="fill:#5beedc" />
</svg>
