<?xml version="1.0" encoding="UTF-8" standalone="no"?>
<svg
   xmlns:dc="http://purl.org/dc/elements/1.1/"
   xmlns:cc="http://creativecommons.org/ns#"
   xmlns:rdf="http://www.w3.org/1999/02/22-rdf-syntax-ns#"
   xmlns:svg="http://www.w3.org/2000/svg"
   xmlns="http://www.w3.org/2000/svg"
   xmlns:sodipodi="http://sodipodi.sourceforge.net/DTD/sodipodi-0.dtd"
   xmlns:inkscape="http://www.inkscape.org/namespaces/inkscape"
   width="48"
   height="48"
   viewBox="0 0 12.7 12.7"
   version="1.1"
   id="svg4"
   sodipodi:docname="guymager.svg"
   inkscape:version="0.92.5 (2060ec1f9f, 2020-04-08)">
  <metadata
     id="metadata10">
    <rdf:RDF>
      <cc:Work
         rdf:about="">
        <dc:format>image/svg+xml</dc:format>
        <dc:type
           rdf:resource="http://purl.org/dc/dcmitype/StillImage" />
        <dc:title></dc:title>
      </cc:Work>
    </rdf:RDF>
  </metadata>
  <defs
     id="defs8" />
  <sodipodi:namedview
     pagecolor="#ffffff"
     bordercolor="#666666"
     borderopacity="1"
     objecttolerance="10"
     gridtolerance="10"
     guidetolerance="10"
     inkscape:pageopacity="0"
     inkscape:pageshadow="2"
     inkscape:window-width="1085"
     inkscape:window-height="480"
     id="namedview6"
     showgrid="false"
     inkscape:zoom="4.9166667"
     inkscape:cx="2.1355932"
     inkscape:cy="24"
     inkscape:window-x="0"
     inkscape:window-y="25"
     inkscape:window-maximized="0"
     inkscape:current-layer="svg4" />
  <path
     d="M 6.34,0.075 A 6.295,6.295 0 0 0 0.055,6.36 6.295,6.295 0 0 0 6.34,12.655 6.295,6.295 0 0 0 12.634,6.36 6.295,6.295 0 0 0 6.34,0.075 Z m -0.011,0.94 a 5.408,5.408 0 0 1 5.397,5.387 5.407,5.407 0 0 1 -10.814,0 c 0,-2.987 2.43,-5.387 5.417,-5.387 z M 7.604,2.49 a 0.373,0.373 0 0 0 -0.36,0.306 l -0.24,1.33 A 2.042,2.042 0 0 0 6.282,4.656 L 5.94,3.032 c 0,0 -0.063,-0.298 -0.362,-0.235 L 2.601,3.424 V 3.423 C 2.304,3.486 2.367,3.783 2.367,3.783 l 0.38,1.81 A 0.56,0.56 0 0 0 2.381,6.118 v 3.374 c 0,0.311 0.251,0.562 0.562,0.562 h 6.814 c 0.311,0 0.562,-0.25 0.562,-0.562 V 6.118 A 0.558,0.558 0 0 0 10.131,5.701 L 10.482,3.763 9.882,2.896 7.679,2.496 A 0.373,0.373 0 0 0 7.604,2.491 Z M 7.612,2.862 9.447,3.195 9.314,3.93 7.479,3.597 Z M 4.457,3.678 a 1.217,1.217 0 0 1 1.03,1.877 H 3.361 L 3.274,5.146 A 1.217,1.217 0 0 1 4.214,3.705 1.217,1.217 0 0 1 4.456,3.678 Z M 4.447,4.291 A 0.609,0.609 0 0 0 4.341,4.3 0.609,0.609 0 1 0 4.591,5.49 0.609,0.609 0 0 0 4.448,4.29 Z m 4.782,0.262 z m -1.427,0.56 c 0.33,0 0.607,0.178 0.754,0.442 H 8.19 a 0.572,0.572 0 0 0 -0.776,0 H 7.048 A 0.855,0.855 0 0 1 7.802,5.114 Z M 6.35,6.084 A 1.852,1.852 0 0 1 8.202,7.936 1.852,1.852 0 0 1 6.35,9.79 1.852,1.852 0 0 1 4.498,7.937 1.852,1.852 0 0 1 6.35,6.085 Z m 0.164,0.66 c -0.82,0 -1.345,0.493 -1.345,1.217 0,0.697 0.487,1.165 1.215,1.165 0.367,0 0.68,-0.11 0.94,-0.33 V 7.721 h -1.04 v 0.487 h 0.49 v 0.35 a 0.68,0.68 0 0 1 -0.32,0.067 c -0.417,0 -0.678,-0.27 -0.678,-0.71 0,-0.43 0.25,-0.661 0.72,-0.661 0.198,0 0.428,0.037 0.582,0.09 L 7.238,6.891 A 1.75,1.75 0 0 0 6.514,6.744 Z"
     id="path2"
     inkscape:connector-curvature="0"
     style="fill:#5beedc" />
</svg>
