<?xml version="1.0" encoding="UTF-8" standalone="no"?>
<svg
   xmlns:dc="http://purl.org/dc/elements/1.1/"
   xmlns:cc="http://creativecommons.org/ns#"
   xmlns:rdf="http://www.w3.org/1999/02/22-rdf-syntax-ns#"
   xmlns:svg="http://www.w3.org/2000/svg"
   xmlns="http://www.w3.org/2000/svg"
   xmlns:sodipodi="http://sodipodi.sourceforge.net/DTD/sodipodi-0.dtd"
   xmlns:inkscape="http://www.inkscape.org/namespaces/inkscape"
   width="48"
   height="48"
   viewBox="0 0 12.7 12.7"
   version="1.1"
   id="svg4"
   sodipodi:docname="kali-social-engineering-trans.svg"
   inkscape:version="0.92.5 (2060ec1f9f, 2020-04-08)">
  <metadata
     id="metadata10">
    <rdf:RDF>
      <cc:Work
         rdf:about="">
        <dc:format>image/svg+xml</dc:format>
        <dc:type
           rdf:resource="http://purl.org/dc/dcmitype/StillImage" />
        <dc:title></dc:title>
      </cc:Work>
    </rdf:RDF>
  </metadata>
  <defs
     id="defs8" />
  <sodipodi:namedview
     pagecolor="#ffffff"
     bordercolor="#666666"
     borderopacity="1"
     objecttolerance="10"
     gridtolerance="10"
     guidetolerance="10"
     inkscape:pageopacity="0"
     inkscape:pageshadow="2"
     inkscape:window-width="1085"
     inkscape:window-height="480"
     id="namedview6"
     showgrid="false"
     inkscape:zoom="4.9166667"
     inkscape:cx="2.1355932"
     inkscape:cy="24"
     inkscape:window-x="0"
     inkscape:window-y="25"
     inkscape:window-maximized="0"
     inkscape:current-layer="svg4" />
  <path
     d="M 6.34,0.075 A 6.295,6.295 0 0 0 0.055,6.36 6.295,6.295 0 0 0 6.34,12.655 6.295,6.295 0 0 0 12.634,6.36 6.295,6.295 0 0 0 6.34,0.075 Z m -0.011,0.94 a 5.408,5.408 0 0 1 5.397,5.387 5.407,5.407 0 0 1 -10.814,0 c 0,-2.987 2.43,-5.387 5.417,-5.387 z M 4.143,1.945 A 0.16,0.16 0 0 0 4.061,2.249 L 5.908,3.172 4.525,3.633 V 2.782 a 0.161,0.161 0 1 0 -0.321,0 V 3.74 L 3.333,4.03 a 0.16111875,0.16111875 0 0 0 0.101,0.306 l 0.77,-0.257 v 1.328 a 0.1605,0.1605 0 1 0 0.321,0 V 3.972 L 6.315,3.376 8.518,4.477 A 0.16054984,0.16054984 0 1 0 8.662,4.19 L 6.746,3.232 9.322,2.373 A 0.161,0.161 0 0 0 9.22,2.068 L 6.34,3.028 4.205,1.961 A 0.162,0.162 0 0 0 4.143,1.945 Z M 9.271,2.621 A 0.161,0.161 0 0 0 9.11,2.781 v 3.365 a 0.1605,0.1605 0 1 0 0.321,0 V 2.782 A 0.161,0.161 0 0 0 9.271,2.621 Z M 6.327,3.618 a 0.16,0.16 0 0 0 -0.16,0.161 v 0.876 a 0.1605,0.1605 0 1 0 0.321,0 V 3.779 A 0.16,0.16 0 0 0 6.328,3.619 Z M 3.383,4.491 a 0.16,0.16 0 0 0 -0.16,0.16 v 1.495 a 0.1605,0.1605 0 1 0 0.321,0 V 4.652 A 0.16,0.16 0 0 0 3.384,4.492 Z M 8.29,4.621 A 0.161,0.161 0 0 0 8.129,4.782 v 1.595 c 0,0.089 0.072,0.161 0.16,0.161 0.09,0 0.162,-0.072 0.162,-0.161 V 4.782 A 0.16,0.16 0 0 0 8.29,4.622 Z M 6.327,5.169 a 0.652,0.652 0 0 0 -0.651,0.65 v 0.11 c 0,0.304 0.209,0.56 0.49,0.631 V 6.768 A 0.527,0.527 0 0 0 5.876,7 L 4.866,6.495 a 0.507,0.507 0 1 0 -1.004,0 L 3.161,6.846 A 0.16054984,0.16054984 0 1 0 3.305,7.133 L 4.007,6.782 a 0.505,0.505 0 0 0 0.715,0 l 1.08,0.54 V 8.827 L 4.719,9.383 a 0.505,0.505 0 0 0 -0.86,0.362 0.507,0.507 0 0 0 0.711,0.463 l 0.454,0.496 A 0.16066891,0.16066891 0 0 0 5.261,10.487 L 4.807,9.991 A 0.504,0.504 0 0 0 4.866,9.669 L 5.873,9.152 a 0.525,0.525 0 0 0 0.908,0 l 1.008,0.517 a 0.504,0.504 0 0 0 0.058,0.322 l -0.454,0.496 a 0.16103804,0.16103804 0 0 0 0.238,0.217 L 8.084,10.208 A 0.507,0.507 0 1 0 7.935,9.383 L 6.852,8.827 V 7.567 L 7.808,7.575 A 0.508,0.508 0 0 0 8.796,7.418 0.518,0.518 0 0 0 8.791,7.347 L 9.539,6.973 A 0.16099689,0.16099689 0 1 0 9.395,6.685 L 8.648,7.059 A 0.505,0.505 0 0 0 7.81,7.253 L 6.851,7.246 A 0.526,0.526 0 0 0 6.488,6.768 V 6.56 a 0.653,0.653 0 0 0 0.49,-0.631 v -0.11 a 0.652,0.652 0 0 0 -0.65,-0.65 z m -1.962,1.07 a 0.185,0.185 0 1 1 0,0.37 0.185,0.185 0 0 1 0,-0.37 z M 4.359,7.155 a 0.16,0.16 0 0 0 -0.16,0.16 v 1.52 a 0.16,0.16 0 1 0 0.32,0 v -1.52 a 0.16,0.16 0 0 0 -0.16,-0.16 z m 3.93,0.078 A 0.185,0.185 0 1 1 8.103,7.419 L 8.105,7.417 V 7.414 A 0.185,0.185 0 0 1 8.29,7.233 Z m 0,0.86 a 0.16,0.16 0 0 0 -0.16,0.16 v 0.663 a 0.161,0.161 0 1 0 0.322,0 V 8.254 A 0.16,0.16 0 0 0 8.29,8.093 Z M 4.366,9.56 a 0.186,0.186 0 0 1 0,0.37 0.185,0.185 0 0 1 0,-0.37 z m 3.925,0 a 0.186,0.186 0 1 1 -0.001,0.37 0.186,0.186 0 0 1 0,-0.37 z"
     id="path2"
     inkscape:connector-curvature="0"
     style="fill:#5beedc" />
</svg>
