<?xml version="1.0" encoding="UTF-8" standalone="no"?>
<svg
   xmlns:dc="http://purl.org/dc/elements/1.1/"
   xmlns:cc="http://creativecommons.org/ns#"
   xmlns:rdf="http://www.w3.org/1999/02/22-rdf-syntax-ns#"
   xmlns:svg="http://www.w3.org/2000/svg"
   xmlns="http://www.w3.org/2000/svg"
   xmlns:sodipodi="http://sodipodi.sourceforge.net/DTD/sodipodi-0.dtd"
   xmlns:inkscape="http://www.inkscape.org/namespaces/inkscape"
   width="48"
   height="48"
   viewBox="0 0 12.7 12.7"
   version="1.1"
   id="svg4"
   sodipodi:docname="shellter.svg"
   inkscape:version="0.92.5 (2060ec1f9f, 2020-04-08)">
  <metadata
     id="metadata10">
    <rdf:RDF>
      <cc:Work
         rdf:about="">
        <dc:format>image/svg+xml</dc:format>
        <dc:type
           rdf:resource="http://purl.org/dc/dcmitype/StillImage" />
        <dc:title></dc:title>
      </cc:Work>
    </rdf:RDF>
  </metadata>
  <defs
     id="defs8" />
  <sodipodi:namedview
     pagecolor="#ffffff"
     bordercolor="#666666"
     borderopacity="1"
     objecttolerance="10"
     gridtolerance="10"
     guidetolerance="10"
     inkscape:pageopacity="0"
     inkscape:pageshadow="2"
     inkscape:window-width="1085"
     inkscape:window-height="480"
     id="namedview6"
     showgrid="false"
     inkscape:zoom="4.9166667"
     inkscape:cx="2.1355932"
     inkscape:cy="24"
     inkscape:window-x="0"
     inkscape:window-y="25"
     inkscape:window-maximized="0"
     inkscape:current-layer="svg4" />
  <path
     d="M 6.34,0.075 A 6.295,6.295 0 0 0 0.055,6.36 6.295,6.295 0 0 0 6.34,12.655 6.295,6.295 0 0 0 12.634,6.36 6.295,6.295 0 0 0 6.34,0.075 Z m -0.011,0.94 a 5.408,5.408 0 0 1 0.984,0.096 c -0.004,0.251 0,0.578 0.013,0.677 0.04,0.314 0.117,0.477 0.34,0.73 0.136,0.15 0.17,0.2 0.25,0.348 0.114,0.21 0.173,0.422 0.2,0.712 C 8.131,3.734 8.123,3.94 8.102,3.953 A 3.793,3.793 0 0 1 7.764,3.908 98.824,98.824 0 0 1 7.219,3.823 L 7,3.79 6.883,3.839 a 0.47,0.47 0 0 0 -0.13,0.07 C 6.747,3.919 6.738,4.059 6.733,4.216 L 6.724,4.504 6.761,4.511 6.989,4.551 C 7.093,4.57 7.181,4.586 7.185,4.589 7.209,4.614 7.011,4.872 6.841,5.04 6.704,5.175 6.535,5.255 6.385,5.257 6.327,5.257 6.327,5.257 6.152,5.076 5.962,4.881 5.904,4.796 5.894,4.7 5.886,4.638 5.927,4.348 6.004,3.922 6.049,3.669 6.05,3.646 6.014,3.634 5.98,3.623 5.964,3.64 5.91,3.743 5.872,3.815 5.831,3.859 5.588,4.079 5.434,4.217 5.241,4.393 5.158,4.469 A 1.218,1.218 0 0 1 4.991,4.607 c -0.03,0 -0.06,-0.061 -0.06,-0.118 0,-0.041 0.016,-0.087 0.073,-0.193 0.041,-0.077 0.09,-0.162 0.108,-0.19 L 5.218,3.921 C 5.26,3.847 5.333,3.731 5.38,3.661 5.464,3.536 5.495,3.485 5.495,3.47 5.495,3.456 5.428,3.436 5.404,3.444 5.376,3.453 5.194,3.674 5.029,3.896 4.87,4.111 4.807,4.211 4.762,4.311 4.726,4.397 4.715,4.405 4.694,4.367 4.651,4.288 4.679,4.136 4.834,3.592 4.906,3.336 4.911,3.302 4.866,3.29 4.849,3.286 4.829,3.286 4.821,3.29 A 0.988,0.988 0 0 0 4.755,3.467 C 4.726,3.56 4.663,3.752 4.615,3.896 A 14.83,14.83 0 0 0 4.516,4.207 0.352,0.352 0 0 1 4.486,4.283 C 4.468,4.306 4.466,4.306 4.412,4.274 A 0.462,0.462 0 0 1 4.325,4.208 C 4.297,4.178 4.296,4.172 4.305,4.071 4.313,3.973 4.376,3.595 4.421,3.374 A 0.778,0.778 0 0 1 4.468,3.222 C 4.493,3.167 4.645,2.995 4.934,2.694 5.424,2.181 5.601,1.981 5.636,1.904 5.646,1.886 5.637,1.758 5.609,1.504 5.569,1.12 5.569,1.148 5.559,1.07 5.809,1.035 6.066,1.015 6.328,1.015 Z m -0.983,0.09 0.03,0.153 c 0.06,0.308 0.063,0.347 0.042,0.473 A 1.54,1.54 0 0 1 5.2,2.179 C 5.08,2.345 4.837,2.57 4.504,2.82 4.254,3.009 4.199,3.083 4.144,3.304 4.113,3.434 4.142,3.426 3.816,3.382 3.361,3.319 3.322,3.315 3.295,3.343 A 8.385,8.385 0 0 0 3.068,3.622 C 2.94,3.78 2.868,3.881 2.876,3.888 c 0.006,0.006 0.11,0.028 0.23,0.048 0.47,0.078 0.97,0.165 0.979,0.17 0.005,0.004 0.013,0.025 0.017,0.05 a 0.684,0.684 0 0 0 0.047,0.12 c 0.045,0.093 0.109,0.141 0.24,0.186 0.12,0.04 0.445,0.253 0.445,0.29 0,0.01 -0.139,0.143 -0.308,0.297 -0.544,0.495 -0.678,0.622 -0.678,0.64 0,0.014 0.092,0.038 0.376,0.098 0.206,0.043 0.388,0.08 0.403,0.08 0.028,0 0.36,-0.285 0.885,-0.76 C 5.666,4.967 5.702,4.94 5.722,4.95 5.733,4.958 5.786,5 5.838,5.045 6.002,5.188 6.249,5.39 6.314,5.435 6.366,5.473 6.386,5.479 6.442,5.477 A 0.916,0.916 0 0 0 6.621,5.439 c 0.182,-0.054 0.178,-0.054 0.21,0.007 0.039,0.078 0.14,0.18 0.179,0.18 0.038,0 0.214,-0.1 0.393,-0.224 l 0.28,-0.19 a 22.2,22.2 0 0 0 0.373,-0.27 c 0.16,-0.12 0.238,-0.17 0.262,-0.17 L 8.522,4.802 8.694,4.83 8.698,6.5 C 8.7,8.16 8.7,8.17 8.726,8.17 8.751,8.17 8.751,8.16 8.751,6.503 V 4.836 l 0.03,0.007 C 8.796,4.847 8.9,4.863 9.011,4.881 L 9.215,4.913 9.247,4.876 C 9.279,4.838 9.622,4.276 9.636,4.237 9.641,4.225 9.636,4.214 9.624,4.21 9.614,4.206 9.42,4.173 9.194,4.137 A 20.912,20.912 0 0 1 8.768,4.067 C 8.755,4.064 8.751,3.886 8.751,3.237 8.751,2.562 8.748,2.407 8.734,2.397 8.724,2.389 8.714,2.386 8.71,2.391 8.704,2.395 8.7,2.77 8.7,3.224 V 4.048 H 8.672 c -0.048,0 -0.32,-0.05 -0.33,-0.06 A 15.546,15.546 0 0 1 8.159,2.931 L 8.149,2.839 8.459,2.527 C 8.657,2.33 8.765,2.213 8.758,2.206 A 4.322,4.322 0 0 0 8.423,2.076 C 8.189,1.993 8.095,1.966 8.08,1.974 A 2.846,2.846 0 0 0 7.93,2.088 0.92,0.92 0 0 1 7.79,2.191 C 7.748,2.191 7.666,1.96 7.643,1.777 a 7.339,7.339 0 0 1 -0.01,-0.593 5.408,5.408 0 0 1 4.093,5.218 5.407,5.407 0 0 1 -10.814,0 c 0,-2.651 1.915,-4.839 4.434,-5.297 z M 2.922,3.994 c -0.005,0.003 -0.008,1.08 -0.008,2.39 0,2.374 0,2.382 0.025,2.382 0.025,0 0.026,-0.009 0.026,-2.377 C 2.965,4.417 2.962,4.011 2.948,3.999 2.938,3.991 2.926,3.989 2.922,3.994 Z m 4.47,0.634 a 0.184,0.184 0 0 1 0.047,0 C 7.484,4.632 7.562,4.645 7.715,4.67 7.88,4.698 7.918,4.709 7.922,4.726 7.933,4.784 7.655,5.103 7.574,5.124 7.557,5.128 7.524,5.115 7.483,5.087 7.375,5.015 7.268,5.012 7.133,5.079 A 0.478,0.478 0 0 1 7.047,5.116 C 7.023,5.116 7.034,5.074 7.08,4.99 7.148,4.864 7.306,4.671 7.365,4.638 A 0.085,0.085 0 0 1 7.392,4.628 Z M 9.326,4.827 C 9.319,4.823 9.314,4.825 9.306,4.833 9.302,4.837 9.298,5.903 9.298,7.199 V 9.557 L 9.328,9.552 9.355,9.549 9.359,7.223 C 9.362,5.386 9.358,4.888 9.346,4.86 9.338,4.841 9.332,4.83 9.326,4.827 Z M 5.726,5.02 C 5.723,5.02 5.721,5.023 5.718,5.03 5.714,5.039 5.71,5.663 5.709,6.417 L 5.706,7.787 H 5.762 V 6.42 C 5.762,5.22 5.76,5.05 5.744,5.034 5.736,5.025 5.731,5.021 5.727,5.021 Z m 1.44,0.15 C 7.244,5.16 7.328,5.182 7.369,5.229 7.391,5.253 7.39,5.255 7.337,5.297 7.254,5.363 7.097,5.46 7.071,5.46 7.044,5.46 7.021,5.393 7.021,5.311 7.021,5.236 7.031,5.218 7.09,5.191 A 0.27,0.27 0 0 1 7.165,5.171 Z M 7.05,5.677 C 7.044,5.676 7.037,5.679 7.03,5.685 7.025,5.689 7.021,6.336 7.021,7.122 V 8.551 H 7.098 V 7.126 C 7.098,5.868 7.095,5.702 7.078,5.702 7.068,5.702 7.06,5.695 7.06,5.689 7.06,5.682 7.055,5.677 7.05,5.677 Z M 4.513,5.907 C 4.508,5.907 4.503,5.913 4.498,5.925 4.494,5.937 4.49,6.732 4.49,7.693 V 9.441 H 4.554 V 7.695 C 4.553,6.264 4.55,5.945 4.536,5.927 4.526,5.913 4.519,5.907 4.513,5.907 Z m 1.2,1.905 c -0.071,0 -0.075,0.003 -0.09,0.039 A 0.534,0.534 0 0 1 5.427,8.031 L 5.368,8.059 V 8.14 c 0,0.056 0.005,0.08 0.017,0.08 A 0.498,0.498 0 0 0 5.545,8.138 0.223,0.223 0 0 1 5.6,8.105 c 0.005,0 0.01,0.154 0.01,0.344 v 0.343 h 0.178 v -0.98 z m 3.001,0.37 C 8.647,8.182 8.64,8.184 8.632,8.211 8.622,8.254 8.505,8.365 8.434,8.399 L 8.371,8.429 8.37,8.515 V 8.6 L 8.43,8.575 A 0.834,0.834 0 0 0 8.55,8.505 L 8.61,8.461 v 0.7 H 8.79 V 8.181 H 8.714 Z M 7.056,8.602 A 0.361,0.361 0 0 0 6.932,8.622 C 6.843,8.66 6.785,8.746 6.754,8.882 6.732,8.98 6.744,9.297 6.772,9.387 6.837,9.588 7.104,9.662 7.254,9.52 7.33,9.447 7.376,9.292 7.376,9.103 7.378,8.848 7.306,8.673 7.178,8.619 A 0.343,0.343 0 0 0 7.056,8.603 Z M 7.058,8.755 A 0.085,0.085 0 0 1 7.122,8.778 C 7.165,8.821 7.177,8.898 7.172,9.13 7.168,9.33 7.165,9.353 7.142,9.386 7.106,9.433 7.059,9.45 7.016,9.431 6.96,9.406 6.941,9.341 6.935,9.141 6.929,8.933 6.945,8.829 6.991,8.784 A 0.1,0.1 0 0 1 7.058,8.754 Z M 2.926,8.792 c -0.073,0 -0.075,0 -0.095,0.044 A 0.5,0.5 0 0 1 2.635,9.014 L 2.57,9.046 V 9.13 c 0,0.08 0.002,0.083 0.03,0.074 A 0.512,0.512 0 0 0 2.758,9.117 0.194,0.194 0 0 1 2.804,9.084 c 0.004,0 0.008,0.154 0.008,0.344 V 9.771 H 3.003 V 8.792 Z M 4.471,9.484 A 0.397,0.397 0 0 1 4.423,9.497 C 4.364,9.511 4.278,9.6 4.248,9.68 4.224,9.74 4.218,9.785 4.213,9.943 c -0.007,0.274 0.02,0.378 0.126,0.468 a 0.285,0.285 0 0 0 0.252,0.06 0.267,0.267 0 0 0 0.193,-0.159 C 4.864,10.152 4.866,9.826 4.789,9.661 4.749,9.571 4.729,9.547 4.664,9.514 A 0.408,0.408 0 0 0 4.471,9.484 Z m 4.86,0.11 A 0.302,0.302 0 0 0 9.214,9.618 0.348,0.348 0 0 0 9.05,9.813 c -0.028,0.087 -0.04,0.34 -0.02,0.465 0.018,0.121 0.067,0.212 0.138,0.263 0.047,0.032 0.07,0.038 0.15,0.042 0.22,0.011 0.32,-0.12 0.334,-0.438 C 9.663,9.845 9.599,9.676 9.448,9.614 A 0.302,0.302 0 0 0 9.331,9.594 Z M 4.524,9.637 c 0.047,0 0.087,0.038 0.106,0.106 0.017,0.062 0.017,0.415 0,0.477 -0.019,0.066 -0.053,0.098 -0.107,0.098 -0.097,0 -0.128,-0.096 -0.12,-0.38 C 4.41,9.734 4.425,9.678 4.477,9.651 A 0.099,0.099 0 0 1 4.524,9.637 Z m 4.823,0.112 c 0.015,0.003 0.028,0.01 0.044,0.022 0.054,0.042 0.066,0.102 0.066,0.312 0,0.271 -0.028,0.35 -0.125,0.35 C 9.239,10.433 9.2,10.3 9.212,10.029 9.219,9.864 9.248,9.766 9.296,9.754 A 0.124,0.124 0 0 1 9.347,9.749 Z"
     id="path2"
     inkscape:connector-curvature="0"
     style="fill:#5beedc" />
</svg>
