<?xml version="1.0" encoding="UTF-8" standalone="no"?>
<svg
   xmlns:dc="http://purl.org/dc/elements/1.1/"
   xmlns:cc="http://creativecommons.org/ns#"
   xmlns:rdf="http://www.w3.org/1999/02/22-rdf-syntax-ns#"
   xmlns:svg="http://www.w3.org/2000/svg"
   xmlns="http://www.w3.org/2000/svg"
   xmlns:sodipodi="http://sodipodi.sourceforge.net/DTD/sodipodi-0.dtd"
   xmlns:inkscape="http://www.inkscape.org/namespaces/inkscape"
   width="48"
   height="48"
   viewBox="0 0 12.7 12.7"
   version="1.1"
   id="svg4"
   sodipodi:docname="theharvester.svg"
   inkscape:version="0.92.5 (2060ec1f9f, 2020-04-08)">
  <metadata
     id="metadata10">
    <rdf:RDF>
      <cc:Work
         rdf:about="">
        <dc:format>image/svg+xml</dc:format>
        <dc:type
           rdf:resource="http://purl.org/dc/dcmitype/StillImage" />
        <dc:title></dc:title>
      </cc:Work>
    </rdf:RDF>
  </metadata>
  <defs
     id="defs8" />
  <sodipodi:namedview
     pagecolor="#ffffff"
     bordercolor="#666666"
     borderopacity="1"
     objecttolerance="10"
     gridtolerance="10"
     guidetolerance="10"
     inkscape:pageopacity="0"
     inkscape:pageshadow="2"
     inkscape:window-width="1085"
     inkscape:window-height="480"
     id="namedview6"
     showgrid="false"
     inkscape:zoom="4.9166667"
     inkscape:cx="2.1355932"
     inkscape:cy="24"
     inkscape:window-x="0"
     inkscape:window-y="25"
     inkscape:window-maximized="0"
     inkscape:current-layer="svg4" />
  <path
     d="M 6.34,0.075 A 6.295,6.295 0 0 0 0.055,6.36 6.295,6.295 0 0 0 6.34,12.655 6.295,6.295 0 0 0 12.634,6.36 6.295,6.295 0 0 0 6.34,0.075 Z m -0.011,0.94 a 5.408,5.408 0 0 1 5.397,5.387 5.407,5.407 0 0 1 -10.814,0 c 0,-2.987 2.43,-5.387 5.417,-5.387 z m 0.028,0.79 A 0.284,0.284 0 0 0 6.207,1.842 L 2.517,3.973 A 0.284,0.284 0 0 0 2.375,4.219 V 8.48 a 0.284,0.284 0 0 0 0.142,0.246 l 3.69,2.13 a 0.284,0.284 0 0 0 0.286,0 l 3.69,-2.13 A 0.284,0.284 0 0 0 10.325,8.48 V 4.22 A 0.284,0.284 0 0 0 10.183,3.974 L 6.493,1.844 A 0.284,0.284 0 0 0 6.357,1.806 Z M 6.35,2.415 9.757,4.383 9.756,8.317 6.349,10.284 2.943,8.317 V 4.384 L 6.35,2.416 Z M 6.36,3.276 A 0.284,0.284 0 0 0 6.08,3.564 V 6.255 L 3.746,7.604 a 0.284,0.284 0 1 0 0.283,0.49 l 2.324,-1.34 2.323,1.34 a 0.284,0.284 0 0 0 0.02,0.012 0.284,0.284 0 0 0 0.015,0.007 l 0.011,0.005 a 0.284,0.284 0 0 0 0.01,0.003 l 0.023,0.008 c 0.037,0.01 0.075,0.012 0.111,0.006 a 0.284,0.284 0 0 0 0.004,0 L 8.889,8.131 A 0.284,0.284 0 0 0 8.899,8.128 L 8.905,8.127 A 0.284,0.284 0 0 0 9.048,8.032 V 8.031 A 0.284,0.284 0 0 0 9.059,8.017 0.258,0.258 0 0 0 9.072,7.998 0.284,0.284 0 0 0 9.072,7.996 0.273,0.273 0 0 0 9.108,7.891 V 7.89 c 0,-0.01 0.002,-0.018 0.003,-0.027 a 0.284,0.284 0 0 0 0,-0.002 V 7.837 A 0.284,0.284 0 0 0 9.109,7.82 0.011,0.011 0 0 1 9.108,7.815 0.284,0.284 0 0 0 9.104,7.795 V 7.793 A 0.284,0.284 0 0 0 8.96,7.603 L 6.648,6.269 V 3.564 A 0.284,0.284 0 0 0 6.36,3.276 Z M 3.889,4.64 A 0.291,0.291 0 0 0 3.598,4.93 0.291,0.291 0 0 0 3.888,5.221 0.291,0.291 0 0 0 4.18,4.931 0.291,0.291 0 0 0 3.889,4.64 Z M 8.831,4.732 A 0.291,0.291 0 0 0 8.576,4.884 0.291,0.291 0 0 0 8.694,5.279 0.291,0.291 0 0 0 9.088,5.161 0.291,0.291 0 0 0 8.971,4.767 0.291,0.291 0 0 0 8.831,4.732 Z m -3.72,0.66 A 0.291,0.291 0 0 0 4.821,5.682 0.291,0.291 0 0 0 5.111,5.974 0.291,0.291 0 0 0 5.403,5.683 0.291,0.291 0 0 0 5.112,5.392 Z M 7.587,5.449 A 0.291,0.291 0 0 0 7.332,5.602 0.291,0.291 0 0 0 7.449,5.996 0.291,0.291 0 0 0 7.843,5.879 0.291,0.291 0 0 0 7.726,5.484 0.291,0.291 0 0 0 7.586,5.449 Z M 6.325,7.6 A 0.291,0.291 0 0 0 6.167,7.643 0.291,0.291 0 0 0 6.071,8.043 0.291,0.291 0 0 0 6.471,8.14 0.291,0.291 0 0 0 6.567,7.74 0.291,0.291 0 0 0 6.325,7.6 Z M 6.324,9.037 A 0.291,0.291 0 0 0 6.166,9.08 0.291,0.291 0 0 0 6.07,9.48 0.291,0.291 0 0 0 6.47,9.576 0.291,0.291 0 0 0 6.565,9.176 0.291,0.291 0 0 0 6.324,9.037 Z"
     id="path2"
     inkscape:connector-curvature="0"
     style="fill:#5beedc" />
</svg>
