<?xml version="1.0" encoding="UTF-8" standalone="no"?>
<svg
   xmlns:dc="http://purl.org/dc/elements/1.1/"
   xmlns:cc="http://creativecommons.org/ns#"
   xmlns:rdf="http://www.w3.org/1999/02/22-rdf-syntax-ns#"
   xmlns:svg="http://www.w3.org/2000/svg"
   xmlns="http://www.w3.org/2000/svg"
   xmlns:sodipodi="http://sodipodi.sourceforge.net/DTD/sodipodi-0.dtd"
   xmlns:inkscape="http://www.inkscape.org/namespaces/inkscape"
   width="48"
   height="48"
   viewBox="0 0 12.7 12.7"
   version="1.1"
   id="svg6"
   sodipodi:docname="bed.svg"
   inkscape:version="0.92.5 (2060ec1f9f, 2020-04-08)">
  <metadata
     id="metadata12">
    <rdf:RDF>
      <cc:Work
         rdf:about="">
        <dc:format>image/svg+xml</dc:format>
        <dc:type
           rdf:resource="http://purl.org/dc/dcmitype/StillImage" />
        <dc:title></dc:title>
      </cc:Work>
    </rdf:RDF>
  </metadata>
  <defs
     id="defs10" />
  <sodipodi:namedview
     pagecolor="#ffffff"
     bordercolor="#666666"
     borderopacity="1"
     objecttolerance="10"
     gridtolerance="10"
     guidetolerance="10"
     inkscape:pageopacity="0"
     inkscape:pageshadow="2"
     inkscape:window-width="1085"
     inkscape:window-height="480"
     id="namedview8"
     showgrid="false"
     inkscape:zoom="4.9166667"
     inkscape:cx="2.1355932"
     inkscape:cy="24"
     inkscape:window-x="0"
     inkscape:window-y="25"
     inkscape:window-maximized="0"
     inkscape:current-layer="svg6" />
  <path
     d="m 4.304,2.305 c 0,0 0.26,0.56 0.631,1.64 C 4.928,3.979 4.81,4.04 4.714,4.04 4.618,4.04 4.399,3.82 4.399,3.82 l 0.063,0.189 c 0,0 0.118,0.324 0.126,0.378 0.008,0.055 -0.126,0.222 -0.126,0.222 0,0 -0.076,0.008 -0.126,-0.032 C 4.286,4.537 4.134,4.522 4.083,4.545 4.031,4.568 3.896,4.58 3.736,4.735 3.519,4.901 3.61,5.271 3.61,5.271 L 3.452,5.334 c 0,0 -0.13,0.167 -0.126,0.378 10e-4,0.074 0.04,0.128 0.087,0.17 L 3.503,5.766 3.815,5.429 C 3.858,5.394 3.9,5.357 3.943,5.323 4.083,5.215 4.235,5.121 4.335,4.967 A 0.582,0.582 0 0 1 4.622,4.753 C 4.816,4.676 5.013,4.605 5.202,4.518 A 0.385,0.385 0 0 1 5.439,4.483 c 0.074,0.013 0.144,0.05 0.213,0.1 l 0.07,0.05 c 0.108,0.078 0.2,0.166 0.26,0.27 0.06,0.105 0.088,0.226 0.07,0.371 l -0.01,0.068 c 0.137,-0.073 0.247,-0.032 0.351,0.03 0.115,0.066 0.225,0.14 0.336,0.212 0.093,0.06 0.159,0.133 0.196,0.218 a 0.479,0.479 0 0 1 0.023,0.291 c -0.011,0.06 -0.025,0.12 -0.038,0.18 0.167,0.053 0.3,0.127 0.402,0.218 0.1,0.09 0.168,0.198 0.2,0.316 A 0.7,0.7 0 0 1 7.502,7.191 C 7.462,7.327 7.386,7.47 7.271,7.613 c 0.08,0.075 0.165,0.15 0.245,0.228 0.07,0.07 0.125,0.144 0.152,0.226 a 0.39,0.39 0 0 1 -0.01,0.27 C 7.631,8.407 7.575,8.456 7.535,8.516 7.648,8.501 7.785,8.486 7.805,8.426 7.835,8.34 7.837,7.984 7.837,7.984 L 8.153,8.142 8.847,8.52 8.437,7.731 8.5,7.7 8.752,7.668 8.594,7.479 8.657,7.416 9.288,7.542 8.658,6.974 c 0,0 0.351,0.082 0.378,0.095 0.027,0.012 0.332,-0.041 0.474,-0.252 0.141,-0.211 0,-0.505 0,-0.505 0,0 0.084,-0.187 0.126,-0.316 0.04,-0.129 -0.158,-0.315 -0.158,-0.315 0,0 0.129,-0.207 0.095,-0.379 C 9.538,5.13 9.257,5.082 9.257,5.082 9.257,5.082 9.265,4.823 9.194,4.64 9.124,4.457 8.816,4.356 8.816,4.356 L 9.762,3.914 8.879,4.072 8.531,4.198 8.279,4.23 c 0,0 -0.06,-0.062 -0.063,-0.095 C 8.214,4.102 8.531,3.819 8.531,3.819 L 9.131,3.315 7.837,3.725 7.806,3.63 c 0,0 0.099,-0.385 0.094,-0.41 A 13.76,13.76 0 0 0 7.837,2.968 L 7.617,2.747 7.364,2.652 c 0,0 -0.052,-0.083 -0.063,-0.126 C 7.291,2.483 7.225,2.396 6.954,2.336 6.684,2.277 6.426,2.643 6.418,2.684 6.41,2.724 6.343,2.817 6.323,2.81 A 1.358,1.358 0 0 0 6.007,2.905 C 5.956,2.935 5.923,3.039 5.913,3.125 5.903,3.212 5.693,3.094 5.693,3.094 L 5.376,2.653 5.219,2.431 5.345,3.157 5.313,3.251 H 5.156 c 0,0 -0.304,-0.336 -0.315,-0.346 -0.012,-0.011 -0.537,-0.6 -0.537,-0.6 z"
     id="path2"
     inkscape:connector-curvature="0"
     style="opacity:0.75;fill:#fd7d00" />
  <path
     d="M 6.34,0.075 A 6.295,6.295 0 0 0 0.055,6.36 6.295,6.295 0 0 0 2.202,11.085 C 2.185,11.101 2.192,11.1 2.174,11.116 l 0.086,0.02 A 6.295,6.295 0 0 0 6.34,12.655 6.295,6.295 0 0 0 12.634,6.36 6.295,6.295 0 0 0 6.34,0.075 Z m -0.011,0.94 a 5.408,5.408 0 0 1 5.397,5.387 5.407,5.407 0 0 1 -7.199,5.1 c 0.046,-0.238 0.127,-0.48 0.532,-0.728 0.046,-0.027 0.093,-0.057 0.144,-0.07 0.307,-0.077 0.57,-0.24 0.82,-0.425 C 6.279,10.091 6.51,9.876 6.713,9.632 6.886,9.426 7.042,9.208 7.107,8.946 7.209,8.863 7.31,8.786 7.406,8.704 A 0.895,0.895 0 0 0 7.657,8.337 C 7.734,8.139 7.657,7.979 7.516,7.841 7.436,7.763 7.352,7.688 7.271,7.613 7.731,7.038 7.575,6.485 6.911,6.273 6.923,6.213 6.937,6.153 6.948,6.093 6.992,5.873 6.915,5.705 6.729,5.584 6.619,5.512 6.508,5.438 6.393,5.371 6.289,5.311 6.179,5.269 6.042,5.342 L 6.052,5.274 C 6.089,4.984 5.94,4.79 5.722,4.632 L 5.652,4.582 C 5.548,4.507 5.442,4.464 5.325,4.48 A 0.433,0.433 0 0 0 5.202,4.518 C 5.013,4.605 4.816,4.676 4.622,4.753 A 0.582,0.582 0 0 0 4.335,4.967 C 4.235,5.121 4.083,5.215 3.943,5.323 3.9,5.357 3.858,5.393 3.815,5.429 L 3.503,5.766 C 3.442,5.846 3.384,5.929 3.319,6.006 3.169,6.182 3.015,6.356 2.863,6.53 2.85,6.545 2.838,6.562 2.821,6.572 2.644,6.672 2.591,6.84 2.594,7.025 2.599,7.316 2.617,7.608 2.634,7.898 2.648,8.13 2.664,8.362 2.688,8.593 2.713,8.821 2.614,8.974 2.441,9.111 2.335,9.194 2.147,9.424 1.975,9.62 A 5.407,5.407 0 0 1 0.912,6.402 c 0,-2.987 2.43,-5.387 5.417,-5.387 z m -0.97,3.697 c 0.036,0.01 0.079,0.013 0.107,0.035 0.1,0.078 0.195,0.162 0.292,0.244 0.01,0.01 0.019,0.022 0.026,0.034 C 5.841,5.128 5.809,5.49 5.735,5.581 L 5.555,5.809 C 5.2,5.584 4.923,5.247 4.491,5.172 L 4.479,5.149 C 4.547,5.095 4.609,5.029 4.686,4.99 4.819,4.923 4.958,4.864 5.099,4.817 5.253,4.767 5.391,4.835 5.509,4.925 5.588,4.985 5.645,5.075 5.7,5.139 5.715,5.039 5.643,4.947 5.36,4.712 Z M 4.405,5.337 C 4.535,5.441 4.577,5.577 4.557,5.855 4.637,5.674 4.608,5.52 4.524,5.349 4.882,5.45 5.114,5.716 5.391,5.899 5.356,5.982 5.314,6.054 5.294,6.131 5.254,6.281 5.308,6.405 5.44,6.488 5.608,6.594 5.792,6.653 6,6.686 A 0.79,0.79 0 0 1 5.57,6.882 C 5.266,6.924 4.994,6.825 4.739,6.673 4.607,6.595 4.485,6.497 4.347,6.42 L 4.701,6.8 C 4.691,6.829 4.683,6.865 4.668,6.898 4.611,7.034 4.539,7.063 4.392,7.04 A 2.755,2.755 0 0 0 3.989,7.006 0.323,0.323 0 0 0 3.742,7.119 C 3.996,6.998 4.22,7.112 4.46,7.207 A 1.539,1.539 0 0 1 3.8,7.88 C 3.884,7.89 4.027,7.84 4.187,7.73 4.306,7.65 4.417,7.557 4.541,7.462 4.649,7.528 4.726,7.632 4.781,7.749 4.882,7.963 4.901,8.19 4.875,8.422 A 1.598,1.598 0 0 1 4.465,9.353 0.9,0.9 0 0 1 4.044,9.612 L 4.042,9.636 C 4.078,9.641 4.115,9.651 4.152,9.65 4.196,9.648 4.241,9.637 4.285,9.628 l 0.128,-0.03 0.025,0.169 c -0.237,0.267 -0.52,0.751 -0.9,1.269 a 5.407,5.407 0 0 1 -0.732,-0.53 c 0.115,-0.18 0.19,-0.315 0.298,-0.42 L 3.092,10.072 c -0.087,0.07 -0.258,0.28 -0.342,0.39 A 5.407,5.407 0 0 1 2.136,9.817 C 2.376,9.547 2.655,9.232 2.819,9.095 3.058,9.447 3.384,9.615 3.812,9.564 3.722,9.545 3.631,9.532 3.542,9.506 3.177,9.399 2.934,9.044 2.923,8.663 2.913,8.29 2.866,7.918 2.843,7.544 2.833,7.35 2.837,7.154 2.84,6.959 2.841,6.88 2.889,6.826 2.946,6.769 3.128,6.583 3.298,6.387 3.471,6.193 3.645,5.997 3.817,5.797 3.991,5.6 4.007,5.582 4.028,5.569 4.037,5.562 l 0.147,0.3 0.032,-0.01 C 4.141,5.737 4.066,5.611 4.146,5.482 a 0.31,0.31 0 0 1 0.26,-0.145 z m 1.78,0.215 C 6.21,5.554 6.234,5.559 6.253,5.57 6.394,5.653 6.531,5.744 6.664,5.839 6.694,5.86 6.705,5.907 6.717,5.949 6.57,5.826 6.443,5.678 6.237,5.652 A 0.931,0.931 0 0 1 6.703,6.089 0.739,0.739 0 0 1 6.558,6.437 C 6.243,6.808 5.906,7.158 5.512,7.448 5.345,7.571 5.226,7.564 5.075,7.421 A 0.708,0.708 0 0 1 4.853,7.035 L 4.946,6.959 C 5.161,7.04 5.376,7.081 5.6,7.045 A 0.946,0.946 0 0 0 6.198,6.721 0.448,0.448 0 0 0 6.311,6.368 0.278,0.278 0 0 0 6.124,6.12 C 5.98,6.063 5.844,5.989 5.691,5.916 5.812,5.754 5.892,5.576 6.108,5.555 A 0.474,0.474 0 0 1 6.184,5.552 Z M 5.479,5.966 c 0.034,0.02 0.06,0.037 0.084,0.053 A 0.189,0.189 0 0 1 5.533,6.164 C 5.56,6.129 5.616,6.124 5.625,6.07 L 6.12,6.307 C 6.175,6.403 6.15,6.499 6.089,6.59 5.862,6.616 5.461,6.453 5.396,6.305 5.463,6.292 5.476,6.223 5.516,6.182 A 0.238,0.238 0 0 1 5.375,6.25 C 5.361,6.139 5.402,6.05 5.479,5.966 Z m 1.372,0.545 a 0.324,0.324 0 0 1 0.09,0.02 0.546,0.546 0 0 1 0.357,0.578 C 7.214,6.907 7.155,6.702 6.922,6.645 7.163,6.789 7.192,7.03 7.204,7.277 A 0.096,0.096 0 0 1 7.179,7.345 C 7.086,7.431 7.001,7.533 6.892,7.593 6.592,7.757 6.285,7.907 5.977,8.055 5.761,8.158 5.655,8.125 5.524,7.92 5.48,7.853 5.454,7.775 5.422,7.708 5.895,7.402 6.272,7.019 6.63,6.614 6.693,6.542 6.765,6.505 6.85,6.511 Z M 7.052,7.714 C 7.165,7.83 7.285,7.946 7.397,8.069 7.463,8.14 7.462,8.185 7.411,8.293 7.356,8.143 7.293,8.003 7.113,7.986 7.313,8.07 7.322,8.248 7.337,8.43 7.199,8.576 7.061,8.724 6.856,8.773 A 5.341,5.341 0 0 1 6.301,8.883 C 6.158,8.901 6.031,8.855 5.964,8.708 A 0.494,0.494 0 0 1 5.983,8.251 0.085,0.085 0 0 1 6.02,8.218 Z m -1.6,0.983 c 0.087,0.01 0.173,0.051 0.265,0.126 0.061,0.05 0.12,0.103 0.178,0.158 A 0.32,0.32 0 0 0 6.183,9.07 L 6.809,8.963 C 6.819,8.961 6.83,8.956 6.84,8.953 L 6.857,8.974 C 6.804,9.069 6.759,9.169 6.696,9.256 A 3.5,3.5 0 0 1 5.419,10.372 0.706,0.706 0 0 1 4.713,10.342 C 4.7,10.334 4.683,10.329 4.668,10.322 l -0.014,0.02 0.267,0.226 c -0.061,0.049 -0.134,0.094 -0.19,0.155 -0.308,0.32 -0.397,0.537 -0.44,0.684 A 5.407,5.407 0 0 1 3.609,11.079 c 0.361,-0.464 0.626,-0.886 0.858,-1.113 0.055,0.08 0.047,0.202 0.177,0.23 C 4.577,9.933 4.612,9.682 4.677,9.435 4.754,9.143 4.921,8.915 5.185,8.764 A 0.434,0.434 0 0 1 5.452,8.697 Z"
     id="path4"
     inkscape:connector-curvature="0"
     style="fill:#5beedc" />
</svg>
