<?xml version="1.0" encoding="UTF-8" standalone="no"?>
<svg
   xmlns:dc="http://purl.org/dc/elements/1.1/"
   xmlns:cc="http://creativecommons.org/ns#"
   xmlns:rdf="http://www.w3.org/1999/02/22-rdf-syntax-ns#"
   xmlns:svg="http://www.w3.org/2000/svg"
   xmlns="http://www.w3.org/2000/svg"
   xmlns:sodipodi="http://sodipodi.sourceforge.net/DTD/sodipodi-0.dtd"
   xmlns:inkscape="http://www.inkscape.org/namespaces/inkscape"
   width="48"
   height="48"
   viewBox="0 0 12.7 12.7"
   version="1.1"
   id="svg4"
   sodipodi:docname="medusa.svg"
   inkscape:version="0.92.5 (2060ec1f9f, 2020-04-08)">
  <metadata
     id="metadata10">
    <rdf:RDF>
      <cc:Work
         rdf:about="">
        <dc:format>image/svg+xml</dc:format>
        <dc:type
           rdf:resource="http://purl.org/dc/dcmitype/StillImage" />
        <dc:title></dc:title>
      </cc:Work>
    </rdf:RDF>
  </metadata>
  <defs
     id="defs8" />
  <sodipodi:namedview
     pagecolor="#ffffff"
     bordercolor="#666666"
     borderopacity="1"
     objecttolerance="10"
     gridtolerance="10"
     guidetolerance="10"
     inkscape:pageopacity="0"
     inkscape:pageshadow="2"
     inkscape:window-width="1085"
     inkscape:window-height="480"
     id="namedview6"
     showgrid="false"
     inkscape:zoom="4.9166667"
     inkscape:cx="2.1355932"
     inkscape:cy="24"
     inkscape:window-x="0"
     inkscape:window-y="25"
     inkscape:window-maximized="0"
     inkscape:current-layer="svg4" />
  <path
     d="M 6.34,0.075 A 6.295,6.295 0 0 0 0.055,6.36 6.295,6.295 0 0 0 6.34,12.655 6.295,6.295 0 0 0 10.295,11.25 6.295,6.295 0 0 0 10.635,10.95 6.295,6.295 0 0 0 10.8,10.797 6.295,6.295 0 0 0 10.856,10.745 6.295,6.295 0 0 0 10.94,10.649 6.295,6.295 0 0 0 10.999,10.582 6.295,6.295 0 0 0 11.202,10.35 6.295,6.295 0 0 0 12.031,9.033 6.295,6.295 0 0 0 12.038,9.017 6.295,6.295 0 0 0 12.193,8.671 6.295,6.295 0 0 0 12.633,6.36 6.295,6.295 0 0 0 6.34,0.075 Z m -0.011,0.94 a 5.408,5.408 0 0 1 5.397,5.387 5.407,5.407 0 0 1 -0.464,2.182 1.939,1.939 0 0 1 -0.485,-0.15 C 10.506,8.307 10.514,8.324 10.612,8.117 A 1.68,1.68 0 0 0 10.71,6.954 0.813,0.813 0 0 1 10.682,6.618 1.076,1.076 0 0 0 10.671,6.308 C 10.651,6.21 10.654,6.16 10.685,6.087 a 0.968,0.968 0 0 0 0.039,-0.29 c 0,-0.107 0.022,-0.303 0.047,-0.434 a 0.946,0.946 0 0 0 0.017,-0.42 1.196,1.196 0 0 0 -0.67,-0.878 C 9.969,3.993 9.863,3.909 9.648,3.688 9.343,3.378 9.141,3.249 8.808,3.146 8.559,3.07 8.098,3.042 7.799,3.087 L 7.575,3.121 7.254,2.967 C 6.871,2.785 6.647,2.727 6.331,2.727 6.051,2.729 5.934,2.751 5.607,2.88 5.266,3.014 5.02,3.048 4.701,3.009 4.341,2.961 4.156,2.88 4.081,2.74 A 0.663,0.663 0 0 0 3.91,2.545 0.497,0.497 0 0 1 3.765,2.382 C 3.723,2.27 3.625,2.139 3.585,2.142 A 0.725,0.725 0 0 0 3.449,2.198 C 3.309,2.268 3.292,2.307 3.409,2.288 3.499,2.273 3.505,2.279 3.574,2.422 3.616,2.505 3.656,2.625 3.667,2.69 l 0.02,0.12 H 3.549 A 1.06,1.06 0 0 1 3.32,2.785 C 3.27,2.768 3.236,2.768 3.245,2.782 3.253,2.793 3.236,2.816 3.208,2.827 c -0.03,0.014 0.04,0.028 0.196,0.039 0.134,0.008 0.249,0.023 0.26,0.031 0.008,0.011 0.03,0.095 0.047,0.187 A 0.522,0.522 0 0 1 3.709,3.372 C 3.675,3.484 3.673,3.487 3.572,3.472 L 3.469,3.456 3.566,3.54 c 0.1,0.084 0.207,0.106 0.232,0.045 0.006,-0.017 0.07,-0.112 0.14,-0.207 L 4.066,3.204 4.302,3.314 C 4.78,3.534 5.286,3.624 5.719,3.565 5.85,3.548 6.024,3.526 6.105,3.518 L 6.25,3.5 6.177,3.631 C 6.127,3.721 6.088,3.76 6.047,3.76 5.85,3.76 5.509,3.927 5.154,4.193 4.9,4.386 4.838,4.403 4.724,4.327 A 0.531,0.531 0 0 0 4.55,4.266 C 4.466,4.252 4.43,4.221 4.34,4.096 A 3.115,3.115 0 0 1 4.212,3.903 C 4.182,3.85 4.089,3.903 4.016,4.023 3.941,4.146 3.941,4.151 4.042,4.115 4.114,4.087 4.131,4.09 4.167,4.137 4.223,4.213 4.329,4.431 4.318,4.445 A 0.587,0.587 0 0 1 4.153,4.358 C 4.011,4.269 3.717,4.165 3.44,4.107 3.362,4.09 3.326,4.065 3.32,4.026 A 0.89,0.89 0 0 0 3.164,3.816 1.02,1.02 0 0 1 3.004,3.623 C 2.984,3.57 2.875,3.606 2.839,3.679 2.814,3.721 2.819,3.732 2.861,3.732 c 0.034,0 0.076,0.05 0.126,0.154 0.11,0.22 0.104,0.249 -0.045,0.229 A 0.965,0.965 0 0 1 2.78,4.081 c -0.028,-0.01 -0.044,0 -0.044,0.026 0,0.028 0.044,0.047 0.137,0.058 0.112,0.017 0.142,0.034 0.165,0.09 0.041,0.111 0.03,0.15 -0.073,0.246 C 2.89,4.573 2.878,4.596 2.912,4.61 2.993,4.64 3.032,4.627 3.194,4.512 3.342,4.408 3.367,4.4 3.488,4.414 3.625,4.428 4.042,4.615 4.042,4.66 4.042,4.674 4.014,4.677 3.98,4.668 3.79,4.615 3.801,4.615 3.846,4.668 3.876,4.708 3.879,4.722 3.854,4.73 3.834,4.738 3.818,4.755 3.818,4.77 c 0,0.016 0.019,0.016 0.053,0 C 3.957,4.722 4.223,4.7 4.288,4.736 l 0.058,0.03 -0.064,0.19 c -0.064,0.182 -0.067,0.188 -0.154,0.18 -0.07,-0.009 -0.084,0 -0.07,0.036 0.023,0.059 0.156,0.125 0.249,0.125 0.053,0 0.095,-0.03 0.16,-0.123 L 4.553,5.049 4.64,5.116 c 0.159,0.12 0.472,0.263 0.685,0.31 0.117,0.028 0.223,0.059 0.237,0.073 0.014,0.011 0.031,0.075 0.037,0.14 0.014,0.159 0.053,0.26 0.168,0.422 0.05,0.072 0.092,0.145 0.092,0.16 A 0.54,0.54 0 0 1 5.786,6.36 C 5.716,6.463 5.716,6.475 5.756,6.536 A 0.32,0.32 0 0 0 5.884,6.639 C 5.954,6.667 5.968,6.687 5.954,6.74 5.942,6.788 5.96,6.824 6.018,6.883 6.06,6.925 6.118,7.009 6.144,7.065 6.197,7.182 6.236,7.199 6.259,7.115 6.281,7.025 6.319,7.048 6.384,7.19 6.462,7.36 6.462,7.361 6.437,7.479 L 6.415,7.576 6.362,7.512 C 6.334,7.479 6.303,7.451 6.295,7.451 6.284,7.451 6.284,7.56 6.29,7.691 6.3,7.887 6.312,7.94 6.36,7.985 c 0.03,0.03 0.07,0.1 0.086,0.162 0.014,0.059 0.056,0.14 0.086,0.181 L 6.592,8.404 6.44,8.564 A 4.92,4.92 0 0 0 6.22,8.815 L 6.15,8.907 5.817,8.745 C 5.495,8.589 5.482,8.585 5.213,8.575 L 4.936,8.563 V 8.48 A 0.594,0.594 0 0 0 4.782,8.15 0.689,0.689 0 0 1 4.679,8.001 L 4.623,7.892 4.473,7.903 C 4.327,7.915 4.246,7.951 4.31,7.973 4.427,8.015 4.447,8.06 4.46,8.328 L 4.475,8.597 4.349,8.6 c -0.126,0 -0.408,0.042 -0.341,0.05 0.02,0 0.03,0.014 0.022,0.028 C 4.022,8.692 4.114,8.698 4.246,8.689 4.511,8.673 4.562,8.698 4.52,8.838 4.506,8.882 4.48,8.991 4.46,9.084 4.427,9.244 4.427,9.246 4.346,9.229 4.254,9.212 4.237,9.251 4.318,9.296 4.449,9.363 4.528,9.332 4.724,9.128 4.894,8.952 4.925,8.933 5.023,8.933 c 0.059,0 0.168,0.02 0.24,0.044 0.16,0.056 0.54,0.291 0.54,0.339 0,0.047 -0.29,0.299 -0.445,0.38 C 5.165,9.802 4.928,9.856 4.671,9.853 4.343,9.85 4.31,9.833 4.291,9.696 A 0.406,0.406 0 0 0 4.175,9.466 0.51,0.51 0 0 1 4.052,9.254 C 4.027,9.109 3.893,9.036 3.751,9.089 3.684,9.115 3.697,9.157 3.773,9.157 c 0.036,0 0.078,0.016 0.092,0.033 0.048,0.058 0.062,0.201 0.037,0.316 A 0.42,0.42 0 0 0 3.918,9.738 C 3.943,9.805 3.955,9.866 3.947,9.875 3.941,9.884 3.89,9.875 3.84,9.861 3.7,9.819 3.46,9.794 3.51,9.827 3.544,9.85 3.544,9.861 3.516,9.877 3.493,9.891 3.544,9.903 3.642,9.9 c 0.09,0 0.204,0.014 0.254,0.036 l 0.09,0.037 -0.053,0.09 A 0.746,0.746 0 0 0 3.86,10.247 c -0.028,0.134 -0.093,0.232 -0.143,0.212 -0.129,-0.053 -0.134,-0.05 -0.056,0.034 0.048,0.05 0.095,0.09 0.11,0.09 0.013,0 0.1,-0.07 0.192,-0.154 a 0.884,0.884 0 0 1 0.196,-0.154 c 0.02,0 0.058,-0.025 0.092,-0.056 0.056,-0.053 0.067,-0.053 0.156,-0.017 0.333,0.14 0.906,0.025 1.41,-0.28 0.15,-0.09 0.165,-0.092 0.212,-0.05 0.04,0.037 0.11,0.252 0.11,0.339 0,0.016 -0.32,-0.006 -0.42,-0.034 -0.056,-0.014 -0.05,-0.006 0.022,0.034 0.05,0.03 0.087,0.059 0.079,0.067 -0.008,0.009 0.025,0.008 0.075,0.003 0.05,-0.006 0.14,0.004 0.201,0.014 0.123,0.028 0.12,0.01 0.079,0.344 -0.02,0.16 -0.031,0.182 -0.084,0.19 -0.095,0.014 -0.078,0.053 0.028,0.07 0.103,0.017 0.137,-0.014 0.299,-0.271 0.106,-0.168 0.207,-0.23 0.52,-0.31 0.28,-0.073 0.766,-0.037 0.766,0.058 0,0.023 -0.056,0.14 -0.126,0.257 -0.079,0.137 -0.379,0.764 -0.537,1.12 A 5.407,5.407 0 0 1 0.912,6.402 c 0,-2.987 2.43,-5.387 5.417,-5.387 z m -0.148,1.83 c 0.216,-0.008 0.438,0.023 0.642,0.091 0.5,0.165 0.83,0.38 1.164,0.755 0.464,0.525 0.774,0.794 1.115,0.965 0.615,0.307 0.954,0.665 1.077,1.132 0.042,0.165 0.053,0.503 0.02,0.623 C 10.179,6.473 10.173,6.47 10.053,6.347 9.938,6.229 9.933,6.221 9.997,6.227 10.067,6.235 10.067,6.235 10.064,6.012 10.061,5.83 10.047,5.757 9.985,5.632 9.84,5.321 9.479,5.008 8.971,4.745 8.557,4.532 8.378,4.385 8.081,4.015 7.648,3.467 7.324,3.225 6.812,3.059 6.485,2.956 6.175,2.947 5.727,3.034 a 4.204,4.204 0 0 1 -0.54,0.07 L 4.95,3.118 5.196,3.076 C 5.33,3.053 5.501,3.009 5.574,2.978 5.754,2.897 5.964,2.852 6.181,2.845 Z m 1.627,0.357 h 0.285 c 0.162,0 0.371,0.02 0.483,0.044 0.263,0.062 0.543,0.18 0.744,0.313 0.16,0.112 0.425,0.375 0.484,0.49 L 9.834,4.105 9.757,4.046 A 1.447,1.447 0 0 1 9.577,3.886 C 9.449,3.752 9.133,3.556 8.904,3.47 8.529,3.33 8.096,3.24 8.006,3.288 7.967,3.311 7.936,3.302 7.88,3.26 Z M 6.225,3.828 c 0.196,0.011 0.251,0.028 0.682,0.23 0.296,0.139 0.484,0.24 0.51,0.282 0.024,0.036 0.038,0.07 0.033,0.075 A 1.315,1.315 0 0 1 7.215,4.297 5.698,5.698 0 0 0 6.725,4.057 C 6.468,3.945 6.452,3.942 6.153,3.942 H 5.845 L 5.526,4.119 C 5.353,4.216 5.205,4.289 5.199,4.283 5.188,4.273 5.562,4.015 5.685,3.945 A 0.961,0.961 0 0 1 6.225,3.828 Z M 8.524,3.885 C 8.546,3.88 8.62,3.892 8.851,3.932 c 0.685,0.123 1.277,0.525 1.562,1.056 0.126,0.238 0.227,0.574 0.227,0.755 0,0.182 -0.04,0.271 -0.07,0.168 A 0.811,0.811 0 0 0 10.48,5.749 C 10.425,5.679 10.416,5.651 10.444,5.634 10.523,5.587 10.394,5.232 10.179,4.907 A 2.454,2.454 0 0 0 9.5129997,4.267 c -0.212,-0.126 -0.61,-0.26 -0.797,-0.268 -0.137,-0.006 -0.198,-0.037 -0.201,-0.104 0,-0.005 0.002,-0.008 0.009,-0.01 z M 5.792,4.292 c 0.02,0 0.03,0.064 0.025,0.187 A 0.804,0.804 0 0 1 5.761,4.773 C 5.713,4.871 5.705,4.873 5.521,4.893 5.311,4.916 5.146,4.896 4.984,4.829 L 4.877,4.787 4.992,4.737 C 5.056,4.709 5.179,4.627 5.272,4.557 5.417,4.443 5.708,4.295 5.792,4.292 Z m 0.933,0.175 c 0.05,0.006 0.09,0.041 0.146,0.11 0.056,0.068 0.168,0.227 0.252,0.358 0.103,0.16 0.246,0.327 0.427,0.498 0.266,0.249 0.347,0.366 0.392,0.562 0.008,0.048 0.022,0.086 0.03,0.086 0.043,0 0.28,-0.212 0.292,-0.262 0.01,-0.042 0.103,-0.104 0.31,-0.213 A 6.45,6.45 0 0 0 8.946,5.402 C 8.985,5.377 9.018,5.366 9.018,5.38 A 0.057,0.057 0 0 1 8.99,5.424 C 8.94,5.455 8.848,5.819 8.823,6.087 8.798,6.372 8.713,6.618 8.593,6.744 8.532,6.811 8.42,6.831 8.389,6.78 8.361,6.736 8.319,6.75 8.319,6.803 A 0.133,0.133 0 0 1 8.286,6.887 C 8.263,6.909 8.264,6.929 8.291,6.962 8.322,6.999 8.311,7.038 8.221,7.217 8.017,7.617 7.615,8.016 7.198,8.234 6.938,8.368 6.788,8.388 6.638,8.299 6.549,8.246 6.544,8.237 6.549,8.095 6.555,7.963 6.552,7.952 6.519,7.997 6.485,8.044 6.479,8.041 6.449,7.952 6.426,7.876 6.427,7.829 6.46,7.72 6.536,7.471 6.524,7.337 6.401,7.096 6.326,6.942 6.264,6.859 6.194,6.816 6.141,6.78 6.08,6.738 6.06,6.722 6.01,6.68 6.032,6.599 6.091,6.602 6.116,6.604 6.139,6.596 6.139,6.582 6.139,6.554 6.124,6.552 5.959,6.546 5.806,6.54 5.764,6.467 5.864,6.375 A 0.368,0.368 0 0 0 5.957,6.215 C 5.985,6.087 6.049,5.964 6.116,5.911 6.169,5.869 6.169,5.864 6.127,5.777 6.069,5.667 6.082,5.62 6.205,5.486 6.286,5.396 6.317,5.383 6.421,5.383 6.493,5.383 6.53,5.371 6.516,5.357 6.466,5.31 6.317,5.312 6.239,5.366 6.197,5.391 6.155,5.408 6.147,5.399 6.139,5.394 6.158,5.319 6.189,5.234 A 4.2,4.2 0 0 0 6.345,4.678 C 6.357,4.622 6.399,4.586 6.508,4.533 6.611,4.483 6.674,4.461 6.725,4.467 Z m 3.255,3.46 c 0.047,0 0.137,0.067 0.302,0.232 0.235,0.238 0.472,0.395 0.83,0.557 l 0.07,0.033 a 5.407,5.407 0 0 1 -0.357,0.635 c -0.042,0.019 -0.233,0.09 -0.479,0.17 -0.321,0.112 -0.433,0.157 -0.34,0.149 0.072,-0.011 0.223,-0.048 0.334,-0.087 0.11,-0.04 0.264,-0.087 0.336,-0.11 L 10.761,9.482 A 5.407,5.407 0 0 1 8.418,11.379 C 8.413,11.292 8.39,11.189 8.392,10.836 c 0.003,-0.3 0.02,-0.652 0.039,-0.783 0.042,-0.322 0.112,-0.615 0.14,-0.615 0.014,0 0.14,0.056 0.28,0.123 C 9.136,9.701 9.197,9.698 8.923,9.555 8.629,9.403 8.633,9.404 8.763,9.315 8.825,9.272 8.99,9.115 9.133,8.97 9.418,8.676 9.423,8.676 9.454,8.942 A 0.544,0.544 0 0 0 9.497,9.118 C 9.53,9.138 9.527,9.028 9.493,8.799 L 9.463,8.612 9.616,8.375 C 9.893,7.945 9.907,7.927 9.98,7.927 Z M 8.202,8.655 c 0.055,0.002 0.092,0.01 0.1,0.024 0.023,0.034 -0.296,0.269 -0.5,0.366 A 1.5,1.5 0 0 1 7,9.157 1.612,1.612 0 0 1 6.784,9.115 C 6.744,9.076 7.184,8.852 7.469,8.768 7.704,8.698 8.036,8.649 8.202,8.655 Z M 6.362,9.537 C 6.384,9.543 6.493,9.565 6.6,9.587 6.709,9.61 6.93,9.643 7.092,9.663 L 7.388,9.694 7.176,9.806 C 6.746,10.035 6.653,10.077 6.572,10.094 6.491,10.108 6.485,10.102 6.446,9.99 6.41,9.89 6.382,9.859 6.27,9.806 L 6.133,9.742 6.228,9.635 C 6.278,9.574 6.34,9.532 6.362,9.537 Z m 1.92,0.024 C 8.288,9.566 8.272,9.616 8.249,9.672 a 3.784,3.784 0 0 0 -0.114,0.46 2.17,2.17 0 0 1 -0.372,0.913 c -0.105,0.16 -0.21,0.44 -0.268,0.628 A 5.407,5.407 0 0 1 7.102,11.747 C 7.212,11.561 7.491,11.05 7.55,10.897 7.623,10.715 7.718,10.511 7.765,10.439 7.838,10.321 7.844,10.301 7.81,10.251 7.78,10.206 7.774,10.151 7.793,10 7.824,9.731 7.855,9.667 7.947,9.647 7.989,9.639 8.082,9.614 8.151,9.592 A 0.42,0.42 0 0 1 8.283,9.561 Z m -0.164,1.146 c 0.005,0.006 -0.014,0.117 -0.048,0.246 a 2.927,2.927 0 0 0 -0.09,0.588 5.407,5.407 0 0 1 -0.263,0.082 c 0.103,-0.22 0.279,-0.598 0.311,-0.698 0.042,-0.126 0.081,-0.224 0.09,-0.218 z m 0.117,0.129 c 0.014,-0.038 0.017,0.369 0.019,0.614 a 5.407,5.407 0 0 1 -0.089,0.029 c 0.02,-0.218 0.061,-0.612 0.07,-0.643 z"
     id="path2"
     inkscape:connector-curvature="0"
     style="fill:#5beedc" />
</svg>
