<?xml version="1.0" encoding="UTF-8" standalone="no"?>
<svg
   xmlns:dc="http://purl.org/dc/elements/1.1/"
   xmlns:cc="http://creativecommons.org/ns#"
   xmlns:rdf="http://www.w3.org/1999/02/22-rdf-syntax-ns#"
   xmlns:svg="http://www.w3.org/2000/svg"
   xmlns="http://www.w3.org/2000/svg"
   xmlns:sodipodi="http://sodipodi.sourceforge.net/DTD/sodipodi-0.dtd"
   xmlns:inkscape="http://www.inkscape.org/namespaces/inkscape"
   width="48"
   height="48"
   viewBox="0 0 12.7 12.7"
   version="1.1"
   id="svg4"
   sodipodi:docname="dmitry.svg"
   inkscape:version="0.92.5 (2060ec1f9f, 2020-04-08)">
  <metadata
     id="metadata10">
    <rdf:RDF>
      <cc:Work
         rdf:about="">
        <dc:format>image/svg+xml</dc:format>
        <dc:type
           rdf:resource="http://purl.org/dc/dcmitype/StillImage" />
        <dc:title></dc:title>
      </cc:Work>
    </rdf:RDF>
  </metadata>
  <defs
     id="defs8" />
  <sodipodi:namedview
     pagecolor="#ffffff"
     bordercolor="#666666"
     borderopacity="1"
     objecttolerance="10"
     gridtolerance="10"
     guidetolerance="10"
     inkscape:pageopacity="0"
     inkscape:pageshadow="2"
     inkscape:window-width="1085"
     inkscape:window-height="480"
     id="namedview6"
     showgrid="false"
     inkscape:zoom="4.9166667"
     inkscape:cx="2.1355932"
     inkscape:cy="24"
     inkscape:window-x="0"
     inkscape:window-y="25"
     inkscape:window-maximized="0"
     inkscape:current-layer="svg4" />
  <path
     d="M 6.34,0.075 A 6.295,6.295 0 0 0 0.055,6.36 6.295,6.295 0 0 0 6.34,12.655 6.295,6.295 0 0 0 12.634,6.36 6.295,6.295 0 0 0 6.34,0.075 Z m -0.011,0.94 a 5.408,5.408 0 0 1 5.397,5.387 5.407,5.407 0 0 1 -10.814,0 c 0,-2.987 2.43,-5.387 5.417,-5.387 z M 5.947,2.248 A 3.446,3.446 0 0 0 2.5,5.694 3.446,3.446 0 0 0 3.295,7.894 3.446,3.446 0 0 0 3.455,8.07 3.446,3.446 0 0 1 3.31,7.914 3.446,3.446 0 0 1 3.295,7.894 0.086,0.086 0 0 0 3.285,7.932 V 8.381 L 2.823,8.695 A 0.088,0.088 0 0 0 2.802,8.712 L 2.799,8.716 2.792,8.726 2.788,8.733 c 0,0.003 -0.002,0.004 -0.003,0.007 L 2.781,8.752 A 0.209,0.209 0 0 0 2.779,8.762 V 9.46 c 0,0.03 0.014,0.057 0.038,0.074 0.826,0.571 1.924,0.918 3.129,0.918 1.204,0 2.302,-0.346 3.127,-0.917 A 0.09,0.09 0 0 0 9.113,9.46 V 8.775 H 9.112 A 0.09,0.09 0 0 0 9.072,8.697 L 8.604,8.379 v -0.4 A 0.09,0.09 0 0 0 8.576,7.915 3.446,3.446 0 0 0 8.761,7.674 L 9.705,8.618 10.198,8.125 9.114,7.041 A 3.446,3.446 0 0 0 9.392,5.694 3.446,3.446 0 0 0 5.946,2.248 Z m 0,0.414 A 3.031,3.031 0 0 1 8.979,5.694 3.031,3.031 0 0 1 8.795,6.722 L 6.012,3.938 5.519,4.431 8.466,7.378 A 3.031,3.031 0 0 1 5.946,8.726 3.031,3.031 0 0 1 2.916,5.694 3.031,3.031 0 0 1 5.946,2.662 Z M 6.165,2.87 A 2.784,2.784 0 0 0 3.381,5.654 2.784,2.784 0 0 0 4.038,7.45 3.16,3.16 0 0 1 3.697,6.03 3.16,3.16 0 0 1 6.494,2.893 2.784,2.784 0 0 0 6.165,2.87 Z M 6.044,4.154 6.938,5.048 6.632,5.354 5.738,4.46 Z M 5.786,5.524 5.694,6.114 5.101,6.182 5.691,6.274 5.758,6.867 5.85,6.277 6.444,6.21 5.854,6.117 5.786,5.525 Z M 6.794,6.078 6.629,7.133 5.569,7.253 6.623,7.419 6.743,8.479 6.909,7.424 7.969,7.304 6.915,7.139 6.794,6.079 Z M 4.698,8.906 A 3.446,3.446 0 0 0 5.361,9.09 3.446,3.446 0 0 1 5.025,9.015 3.446,3.446 0 0 1 4.698,8.905 Z"
     id="path2"
     inkscape:connector-curvature="0"
     style="fill:#5beedc" />
</svg>
