<?xml version="1.0" encoding="UTF-8" standalone="no"?>
<svg
   xmlns:dc="http://purl.org/dc/elements/1.1/"
   xmlns:cc="http://creativecommons.org/ns#"
   xmlns:rdf="http://www.w3.org/1999/02/22-rdf-syntax-ns#"
   xmlns:svg="http://www.w3.org/2000/svg"
   xmlns="http://www.w3.org/2000/svg"
   xmlns:sodipodi="http://sodipodi.sourceforge.net/DTD/sodipodi-0.dtd"
   xmlns:inkscape="http://www.inkscape.org/namespaces/inkscape"
   width="48"
   height="48"
   viewBox="0 0 12.7 12.7"
   version="1.1"
   id="svg13"
   sodipodi:docname="pipal.svg"
   inkscape:version="0.92.5 (2060ec1f9f, 2020-04-08)">
  <metadata
     id="metadata17">
    <rdf:RDF>
      <cc:Work
         rdf:about="">
        <dc:format>image/svg+xml</dc:format>
        <dc:type
           rdf:resource="http://purl.org/dc/dcmitype/StillImage" />
        <dc:title></dc:title>
      </cc:Work>
    </rdf:RDF>
  </metadata>
  <sodipodi:namedview
     pagecolor="#ffffff"
     bordercolor="#666666"
     borderopacity="1"
     objecttolerance="10"
     gridtolerance="10"
     guidetolerance="10"
     inkscape:pageopacity="0"
     inkscape:pageshadow="2"
     inkscape:window-width="1085"
     inkscape:window-height="480"
     id="namedview15"
     showgrid="false"
     inkscape:zoom="4.9166667"
     inkscape:cx="2.1355932"
     inkscape:cy="24"
     inkscape:window-x="0"
     inkscape:window-y="25"
     inkscape:window-maximized="0"
     inkscape:current-layer="svg13" />
  <defs
     id="defs7">
    <radialGradient
       id="a"
       cx="222.08"
       cy="700.18"
       r="128.93"
       gradientTransform="matrix(.02278 0 0 .01838 1.291 -6.6)"
       gradientUnits="userSpaceOnUse">
      <stop
         stop-color="#00ba96"
         offset="0"
         id="stop2" />
      <stop
         stop-opacity=".082"
         offset="1"
         id="stop4" />
    </radialGradient>
  </defs>
  <path
     d="M 6.34,0.075 A 6.295,6.295 0 0 0 0.055,6.36 6.295,6.295 0 0 0 6.34,12.655 6.295,6.295 0 0 0 12.634,6.36 6.295,6.295 0 0 0 6.34,0.075 Z m -0.011,0.94 a 5.408,5.408 0 0 1 5.397,5.387 5.407,5.407 0 0 1 -10.814,0 c 0,-2.987 2.43,-5.387 5.417,-5.387 z M 6.1,2.26 A 0.42,0.42 0 0 0 6.02,2.33 C 5.967,2.381 5.91,2.423 5.892,2.423 5.875,2.423 5.848,2.452 5.832,2.486 5.816,2.523 5.767,2.561 5.716,2.578 5.651,2.599 5.616,2.633 5.581,2.711 A 0.553,0.553 0 0 0 5.533,2.86 0.085,0.085 0 0 1 5.493,2.925 C 5.459,2.944 5.453,2.992 5.465,3.237 l 0.013,0.252 c 0,0.06 -0.122,-0.013 -0.117,0.14 0.005,0.14 0.184,0.329 0.207,0.439 0.024,0.092 0.02,0.171 -0.016,0.2 A 0.544,0.544 0 0 1 5.365,4.305 C 5.256,4.312 5.19,4.332 5.14,4.371 A 0.28,0.28 0 0 1 4.981,4.427 c -0.062,0 -0.09,0.013 -0.1,0.045 C 4.873,4.507 4.848,4.514 4.761,4.507 4.654,4.499 4.65,4.501 4.532,4.656 A 0.718,0.718 0 0 0 4.398,4.906 0.422,0.422 0 0 1 4.349,5.048 0.296,0.296 0 0 0 4.315,5.188 0.4,0.4 0 0 1 4.263,5.362 C 4.22,5.432 4.212,5.482 4.218,5.641 4.226,5.821 4.222,5.836 4.169,5.86 4.138,5.873 4.112,5.9 4.112,5.92 4.112,5.94 4.084,6.006 4.049,6.065 4.011,6.13 3.992,6.19 4.002,6.217 A 0.062,0.062 0 0 1 3.981,6.289 C 3.96,6.304 3.934,6.362 3.924,6.418 A 0.4,0.4 0 0 1 3.879,6.551 c -0.014,0.017 -0.02,0.063 -0.01,0.101 0.01,0.039 0.016,0.13 0.015,0.204 a 0.43,0.43 0 0 0 0.052,0.23 C 3.988,7.18 4.02,7.201 4.366,7.381 4.456,7.429 4.592,7.608 4.56,7.639 4.553,7.647 4.474,7.618 4.386,7.574 A 1.66,1.66 0 0 0 3.732,7.42 c -0.244,0 -0.484,0.15 -0.523,0.327 a 5.063,5.063 0 0 1 -0.08,0.27 C 3.044,8.287 3.059,8.367 3.232,8.559 3.4,8.746 3.515,8.823 3.709,8.877 L 3.863,8.92 3.811,8.977 C 3.719,9.074 3.626,9.344 3.612,9.55 3.602,9.72 3.606,9.75 3.659,9.827 3.733,9.933 3.867,10.007 3.985,10.007 4.034,10.006 4.179,9.978 4.307,9.945 4.526,9.887 4.621,9.885 4.685,9.934 4.714,9.956 4.829,9.931 4.92,9.882 5.014,9.832 5.471,9.846 5.684,9.906 c 0.363,0.103 0.593,0.137 0.941,0.142 0.216,0.003 0.426,0.022 0.564,0.05 l 0.219,0.046 0.062,-0.058 c 0.052,-0.05 0.07,-0.053 0.117,-0.028 0.03,0.016 0.077,0.024 0.103,0.017 0.026,-0.007 0.151,0.003 0.278,0.022 0.126,0.019 0.246,0.028 0.267,0.02 a 0.08,0.08 0 0 1 0.07,0.013 c 0.019,0.015 0.062,0.022 0.096,0.015 a 0.326,0.326 0 0 1 0.15,0.023 c 0.048,0.02 0.157,0.053 0.24,0.074 0.25,0.064 0.438,0.055 0.598,-0.026 0.175,-0.09 0.225,-0.174 0.23,-0.392 A 0.616,0.616 0 0 0 9.354,9.274 C 9.179,9.14 9.064,9.097 8.879,9.095 A 0.528,0.528 0 0 0 8.612,9.157 0.539,0.539 0 0 1 8.386,9.219 L 8.284,9.216 8.36,9.189 C 8.401,9.174 8.49,9.129 8.556,9.091 8.622,9.052 8.724,9.007 8.783,8.991 A 0.638,0.638 0 0 0 8.943,8.927 0.2,0.2 0 0 1 9.034,8.891 C 9.072,8.891 9.23,8.745 9.37,8.578 9.413,8.528 9.439,8.45 9.46,8.311 9.487,8.136 9.485,8.101 9.442,7.975 9.345,7.693 9.277,7.61 9.072,7.519 8.922,7.453 8.776,7.45 8.466,7.509 A 0.998,0.998 0 0 1 8.228,7.537 C 8.187,7.495 8.258,7.4 8.378,7.333 8.692,7.161 8.754,7.064 8.753,6.756 A 0.78,0.78 0 0 0 8.625,6.295 0.66,0.66 0 0 1 8.527,6.016 C 8.517,5.932 8.493,5.859 8.472,5.846 8.449,5.831 8.431,5.753 8.419,5.614 8.389,5.248 8.377,5.166 8.346,5.107 8.302,5.023 8.243,4.959 8.22,4.973 8.21,4.979 8.166,4.925 8.124,4.852 A 1.423,1.423 0 0 0 7.913,4.589 0.573,0.573 0 0 0 7.623,4.418 1.203,1.203 0 0 0 7.402,4.376 0.12,0.12 0 0 1 7.302,4.326 C 7.263,4.263 7.199,4.26 7.142,4.318 7.1,4.359 7.092,4.356 7.012,4.263 6.966,4.209 6.927,4.14 6.927,4.109 6.927,4.079 6.962,3.978 7.004,3.886 7.093,3.691 7.121,3.636 7.042,3.582 6.988,3.546 7.01,3.486 7.032,3.38 7.098,3.074 6.954,2.55 6.803,2.55 6.79,2.55 6.771,2.527 6.763,2.5 6.753,2.472 6.731,2.448 6.712,2.448 6.692,2.448 6.66,2.424 6.639,2.395 6.607,2.349 6.572,2.339 6.415,2.335 A 0.622,0.622 0 0 0 6.199,2.353 C 6.157,2.386 6.116,2.355 6.116,2.29 6.116,2.265 6.113,2.254 6.1,2.26 Z M 4.61,6.047 h 3.48 c 0.053,0 0.098,0.043 0.095,0.095 L 8.084,8.117 C 8.081,8.169 8.041,8.212 7.989,8.212 H 4.712 C 4.66,8.212 4.62,8.169 4.617,8.117 L 4.516,6.142 C 4.513,6.09 4.558,6.047 4.611,6.047 Z"
     id="path9"
     inkscape:connector-curvature="0"
     style="fill:#5beedc" />
  <path
     d="m 4.611,6.047 h 3.478 c 0.053,0 0.098,0.043 0.095,0.096 L 8.083,8.117 C 8.08,8.169 8.04,8.212 7.988,8.212 H 4.712 C 4.66,8.212 4.62,8.169 4.617,8.117 L 4.516,6.143 C 4.513,6.09 4.558,6.047 4.611,6.047 Z"
     id="path11"
     inkscape:connector-curvature="0"
     style="opacity:0.75;fill:#ad1fe9" />
</svg>
