<?xml version="1.0" encoding="UTF-8" standalone="no"?>
<svg
   xmlns:dc="http://purl.org/dc/elements/1.1/"
   xmlns:cc="http://creativecommons.org/ns#"
   xmlns:rdf="http://www.w3.org/1999/02/22-rdf-syntax-ns#"
   xmlns:svg="http://www.w3.org/2000/svg"
   xmlns="http://www.w3.org/2000/svg"
   xmlns:sodipodi="http://sodipodi.sourceforge.net/DTD/sodipodi-0.dtd"
   xmlns:inkscape="http://www.inkscape.org/namespaces/inkscape"
   width="48"
   height="48"
   viewBox="0 0 12.7 12.7"
   version="1.1"
   id="svg4"
   sodipodi:docname="msfpc.svg"
   inkscape:version="0.92.5 (2060ec1f9f, 2020-04-08)">
  <metadata
     id="metadata10">
    <rdf:RDF>
      <cc:Work
         rdf:about="">
        <dc:format>image/svg+xml</dc:format>
        <dc:type
           rdf:resource="http://purl.org/dc/dcmitype/StillImage" />
        <dc:title></dc:title>
      </cc:Work>
    </rdf:RDF>
  </metadata>
  <defs
     id="defs8" />
  <sodipodi:namedview
     pagecolor="#ffffff"
     bordercolor="#666666"
     borderopacity="1"
     objecttolerance="10"
     gridtolerance="10"
     guidetolerance="10"
     inkscape:pageopacity="0"
     inkscape:pageshadow="2"
     inkscape:window-width="1085"
     inkscape:window-height="480"
     id="namedview6"
     showgrid="false"
     inkscape:zoom="4.9166667"
     inkscape:cx="2.1355932"
     inkscape:cy="24"
     inkscape:window-x="0"
     inkscape:window-y="25"
     inkscape:window-maximized="0"
     inkscape:current-layer="svg4" />
  <path
     d="M 6.34,0.075 A 6.295,6.295 0 0 0 0.055,6.36 6.295,6.295 0 0 0 6.34,12.655 6.295,6.295 0 0 0 12.634,6.36 6.295,6.295 0 0 0 6.34,0.075 Z M 6.329,1.015 A 5.408,5.408 0 0 1 11.726,6.402 5.407,5.407 0 0 1 1.066,7.673 C 1.344,7.672 1.472,7.663 1.65,7.635 A 5.837,5.837 0 0 0 2.9,7.295 C 3.253,7.157 3.374,7.199 3.46,7.488 3.487,7.578 3.49,7.67 3.492,8.25 3.493,8.612 3.5,9.057 3.508,9.238 3.518,9.47 3.515,9.664 3.498,9.898 a 6.562,6.562 0 0 0 -0.02,0.397 0.474,0.474 0 0 1 -0.012,0.127 c -0.045,0.163 0.147,0.302 0.446,0.323 0.107,0.008 0.143,0.003 0.21,-0.026 0.066,-0.03 0.08,-0.043 0.08,-0.081 0,-0.05 -0.081,-0.17 -0.178,-0.264 C 3.903,10.258 3.856,10.031 3.894,9.752 3.924,9.519 4.008,9.217 4.218,8.575 l 0.014,-0.043 0.02,0.051 c 0.01,0.029 0.06,0.128 0.107,0.222 0.153,0.299 0.154,0.305 0.168,0.798 0.014,0.458 0.026,0.53 0.107,0.665 a 0.432,0.432 0 0 0 0.45,0.175 c 0.1,-0.022 0.197,-0.089 0.197,-0.135 A 0.563,0.563 0 0 0 5.203,10.165 1.414,1.414 0 0 1 4.995,9.698 C 4.939,9.49 4.925,9.102 4.956,8.568 4.969,8.351 4.979,8.078 4.98,7.963 4.98,7.847 4.985,7.753 4.99,7.753 L 5.137,7.771 C 5.491,7.819 5.814,7.636 6.077,7.24 6.137,7.15 6.265,6.922 6.361,6.734 6.605,6.259 6.984,6.004 7.34,5.534 c 0.17,0.244 0.48,0.02 0.727,0.051 0.294,-0.037 0.588,0.035 0.881,0 0.218,-0.06 0.42,-0.196 0.659,-0.118 0.243,0.061 0.474,-0.05 0.694,-0.139 0.248,-0.084 0.26,-0.471 0.194,-0.694 A 7.232,7.232 0 0 1 9.859,4.174 C 9.379,3.809 8.992,3.341 8.527,2.959 8.354,2.923 8.33,2.726 8.517,2.687 8.72,2.524 8.965,2.387 9.082,2.143 9.08,2.064 9.057,2.033 9.022,2.031 8.934,2.027 8.77,2.211 8.696,2.26 8.698,2.032 8.518,2.161 8.394,2.287 8.202,2.469 7.931,2.539 7.748,2.73 7.668,3.026 7.504,2.747 7.411,2.62 7.21,2.556 6.928,2.374 6.751,2.588 6.641,2.865 6.781,3.153 6.885,3.408 6.599,3.512 6.145,3.25 5.82,3.163 5.274,2.956 5.025,2.889 4.587,2.827 4.277,2.783 3.068,2.781 2.515,2.824 L 2.282,2.841 C 2.21,2.919 2.139,2.998 2.07,3.077 A 5.415,5.415 0 0 1 6.329,1.015 Z"
     id="path2"
     inkscape:connector-curvature="0"
     style="fill:#5beedc" />
</svg>
