<?xml version="1.0" encoding="UTF-8" standalone="no"?>
<svg
   xmlns:dc="http://purl.org/dc/elements/1.1/"
   xmlns:cc="http://creativecommons.org/ns#"
   xmlns:rdf="http://www.w3.org/1999/02/22-rdf-syntax-ns#"
   xmlns:svg="http://www.w3.org/2000/svg"
   xmlns="http://www.w3.org/2000/svg"
   xmlns:sodipodi="http://sodipodi.sourceforge.net/DTD/sodipodi-0.dtd"
   xmlns:inkscape="http://www.inkscape.org/namespaces/inkscape"
   width="48"
   height="48"
   viewBox="0 0 12.7 12.7"
   version="1.1"
   id="svg54"
   sodipodi:docname="rainbowcrack.svg"
   inkscape:version="0.92.5 (2060ec1f9f, 2020-04-08)">
  <metadata
     id="metadata60">
    <rdf:RDF>
      <cc:Work
         rdf:about="">
        <dc:format>image/svg+xml</dc:format>
        <dc:type
           rdf:resource="http://purl.org/dc/dcmitype/StillImage" />
        <dc:title></dc:title>
      </cc:Work>
    </rdf:RDF>
  </metadata>
  <defs
     id="defs58" />
  <sodipodi:namedview
     pagecolor="#ffffff"
     bordercolor="#666666"
     borderopacity="1"
     objecttolerance="10"
     gridtolerance="10"
     guidetolerance="10"
     inkscape:pageopacity="0"
     inkscape:pageshadow="2"
     inkscape:window-width="1085"
     inkscape:window-height="480"
     id="namedview56"
     showgrid="false"
     inkscape:zoom="4.9166667"
     inkscape:cx="2.1355932"
     inkscape:cy="24"
     inkscape:window-x="0"
     inkscape:window-y="25"
     inkscape:window-maximized="0"
     inkscape:current-layer="svg54" />
  <g
     id="g50"
     style="color:#000000;opacity:0.8;fill-rule:evenodd">
    <path
       style="solid-color:#000000;fill:#0ca15e"
       d="M 6.6,6.061 6.863,6.362 C 7.914,5.455 10.249,5.378 11.472,6.002 L 10.85,5.685 C 9.5,4.997 7.79,5.032 6.6,6.06 Z"
       id="path2"
       inkscape:connector-curvature="0" />
    <path
       style="solid-color:#000000;fill:#f8de68"
       d="m 6.679,6.074 0.174,0.354 c 1.279,-0.62 3.583,-0.086 4.623,0.85 L 10.956,6.814 C 9.813,5.784 8.124,5.374 6.679,6.074 Z"
       id="path4"
       inkscape:connector-curvature="0" />
    <path
       style="solid-color:#000000;fill:#fd7d00"
       d="m 6.751,6.102 0.075,0.387 c 1.426,-0.277 3.54,0.844 4.314,2.037 L 10.761,7.946 C 9.91,6.636 8.358,5.79 6.751,6.102 Z"
       id="path6"
       inkscape:connector-curvature="0" />
    <path
       style="solid-color:#000000;fill:#d41919"
       d="M 6.856,6.175 6.828,6.568 c 1.478,0.1 3.248,1.746 3.693,3.122 L 10.307,9.034 C 9.819,7.524 8.519,6.288 6.857,6.175 Z"
       id="path8"
       inkscape:connector-curvature="0" />
    <path
       style="solid-color:#000000;fill:#8c42ab"
       d="M 6.86,6.207 6.73,6.579 c 1.429,0.485 2.724,2.552 2.796,4.024 L 9.491,9.915 C 9.412,8.305 8.463,6.751 6.861,6.207 Z"
       id="path10"
       inkscape:connector-curvature="0" />
    <path
       style="solid-color:#000000;fill:#367bf0"
       d="M 6.89,6.296 6.667,6.622 c 1.276,0.85 1.996,3.208 1.676,4.674 L 8.488,10.624 C 8.838,9.021 8.319,7.249 6.89,6.296 Z"
       id="path12"
       inkscape:connector-curvature="0" />
    <path
       style="solid-color:#000000;fill:#0ca15e"
       d="m 6.668,6.622 -0.305,0.26 c 0.917,1.042 0.995,3.35 0.366,4.562 L 7.047,10.833 C 7.742,9.496 7.707,7.803 6.667,6.622 Z"
       id="path14"
       inkscape:connector-curvature="0" />
    <path
       style="solid-color:#000000;fill:#f8de68"
       d="M 6.654,6.7 6.297,6.872 C 6.923,8.14 6.386,10.42 5.442,11.45 L 5.908,10.939 C 6.946,9.805 7.36,8.132 6.654,6.7 Z"
       id="path16"
       inkscape:connector-curvature="0" />
    <path
       style="solid-color:#000000;fill:#fd7d00"
       d="M 6.626,6.772 6.236,6.846 C 6.515,8.259 5.385,10.352 4.181,11.12 L 4.765,10.745 C 6.088,9.901 6.941,8.365 6.626,6.772 Z"
       id="path18"
       inkscape:connector-curvature="0" />
    <path
       style="solid-color:#000000;fill:#d41919"
       d="M 6.552,6.876 6.155,6.848 C 6.054,8.312 4.393,10.068 3.003,10.509 L 3.666,10.295 C 5.191,9.811 6.438,8.523 6.552,6.876 Z"
       id="path20"
       inkscape:connector-curvature="0" />
    <path
       style="solid-color:#000000;fill:#8c42ab"
       d="M 6.52,6.88 6.145,6.752 c -0.49,1.414 -2.58,2.7 -4.066,2.77 L 2.777,9.486 C 4.403,9.408 5.971,8.468 6.52,6.88 Z"
       id="path22"
       inkscape:connector-curvature="0" />
    <path
       style="solid-color:#000000;fill:#367bf0"
       d="M 6.43,6.91 6.1,6.689 C 5.243,7.953 2.858,8.667 1.378,8.349 L 2.062,8.493 C 3.68,8.84 5.47,8.326 6.43,6.91 Z"
       id="path24"
       inkscape:connector-curvature="0" />
    <path
       style="solid-color:#000000;fill:#0ca15e"
       d="M 6.1,6.688 5.837,6.387 C 4.787,7.295 2.451,7.371 1.229,6.747 l 0.622,0.317 c 1.35,0.688 3.058,0.654 4.25,-0.376 z"
       id="path26"
       inkscape:connector-curvature="0" />
    <path
       style="solid-color:#000000;fill:#f8de68"
       d="M 6.022,6.675 5.848,6.321 C 4.568,6.941 2.264,6.407 1.225,5.471 l 0.519,0.464 c 1.144,1.03 2.833,1.44 4.278,0.74 z"
       id="path28"
       inkscape:connector-curvature="0" />
    <path
       style="solid-color:#000000;fill:#fd7d00"
       d="M 5.95,6.648 5.874,6.261 C 4.448,6.537 2.335,5.416 1.561,4.223 l 0.378,0.58 c 0.852,1.31 2.403,2.156 4.01,1.845 z"
       id="path30"
       inkscape:connector-curvature="0" />
    <path
       style="solid-color:#000000;fill:#d41919"
       d="M 5.844,6.574 5.872,6.181 C 4.395,6.081 2.625,4.436 2.179,3.059 l 0.214,0.656 c 0.489,1.51 1.789,2.746 3.451,2.859 z"
       id="path32"
       inkscape:connector-curvature="0" />
    <path
       style="solid-color:#000000;fill:#8c42ab"
       d="M 5.84,6.543 5.97,6.17 C 4.542,5.685 3.247,3.618 3.175,2.147 l 0.034,0.687 c 0.08,1.611 1.028,3.164 2.63,3.709 z"
       id="path34"
       inkscape:connector-curvature="0" />
    <path
       style="solid-color:#000000;fill:#367bf0"
       d="M 5.81,6.453 6.033,6.127 C 4.757,5.277 4.037,2.919 4.358,1.453 L 4.212,2.126 c -0.35,1.602 0.17,3.375 1.598,4.327 z"
       id="path36"
       inkscape:connector-curvature="0" />
    <path
       style="solid-color:#000000;fill:#0ca15e"
       d="M 6.033,6.128 6.337,5.867 C 5.421,4.826 5.343,2.517 5.972,1.306 l -0.318,0.61 c -0.695,1.338 -0.66,3.031 0.38,4.212 z"
       id="path38"
       inkscape:connector-curvature="0" />
    <path
       style="solid-color:#000000;fill:#f8de68"
       d="M 6.046,6.05 6.404,5.877 C 5.778,4.61 6.315,2.33 7.258,1.3 L 6.793,1.811 C 5.754,2.944 5.339,4.618 6.046,6.049 Z"
       id="path40"
       inkscape:connector-curvature="0" />
    <path
       style="solid-color:#000000;fill:#fd7d00"
       d="M 6.074,5.978 6.464,5.903 C 6.186,4.491 7.316,2.397 8.52,1.629 L 7.936,2.005 C 6.613,2.848 5.76,4.385 6.074,5.978 Z"
       id="path42"
       inkscape:connector-curvature="0" />
    <path
       style="solid-color:#000000;fill:#d41919"
       d="M 6.149,5.873 6.545,5.902 C 6.647,4.437 8.308,2.682 9.698,2.241 L 9.034,2.454 C 7.51,2.938 6.263,4.227 6.149,5.874 Z"
       id="path44"
       inkscape:connector-curvature="0" />
    <path
       style="solid-color:#000000;fill:#8c42ab"
       d="m 6.18,5.87 0.376,0.128 c 0.49,-1.415 2.58,-2.7 4.065,-2.771 L 9.923,3.263 C 8.297,3.341 6.73,4.282 6.18,5.87 Z"
       id="path46"
       inkscape:connector-curvature="0" />
    <path
       style="solid-color:#000000;fill:#367bf0"
       d="M 6.27,5.84 6.6,6.06 C 7.458,4.797 9.843,4.083 11.323,4.4 L 10.638,4.257 C 9.021,3.909 7.232,4.424 6.27,5.84 Z"
       id="path48"
       inkscape:connector-curvature="0" />
  </g>
  <path
     d="M 6.34,0.075 A 6.295,6.295 0 0 0 0.055,6.36 6.295,6.295 0 0 0 6.34,12.655 6.295,6.295 0 0 0 12.634,6.36 6.295,6.295 0 0 0 6.34,0.075 Z m -0.011,0.94 a 5.408,5.408 0 0 1 5.397,5.387 5.407,5.407 0 0 1 -10.814,0 c 0,-2.987 2.43,-5.387 5.417,-5.387 z M 6.35,5.353 A 1.022,1.022 0 0 0 5.328,6.375 1.022,1.022 0 0 0 6.35,7.396 1.022,1.022 0 0 0 7.372,6.375 1.022,1.022 0 0 0 6.35,5.353 Z"
     id="path52"
     inkscape:connector-curvature="0"
     style="fill:#5beedc" />
</svg>
