<?xml version="1.0" encoding="UTF-8" standalone="no"?>
<svg
   xmlns:dc="http://purl.org/dc/elements/1.1/"
   xmlns:cc="http://creativecommons.org/ns#"
   xmlns:rdf="http://www.w3.org/1999/02/22-rdf-syntax-ns#"
   xmlns:svg="http://www.w3.org/2000/svg"
   xmlns="http://www.w3.org/2000/svg"
   xmlns:sodipodi="http://sodipodi.sourceforge.net/DTD/sodipodi-0.dtd"
   xmlns:inkscape="http://www.inkscape.org/namespaces/inkscape"
   width="48"
   height="48"
   viewBox="0 0 12.7 12.7"
   version="1.1"
   id="svg4"
   sodipodi:docname="preferences-web-browser-cookies.svg"
   inkscape:version="0.92.5 (2060ec1f9f, 2020-04-08)">
  <defs
     id="defs8">
  <style
     id="current-color-scheme"
     type="text/css">
      .ColorScheme-Highlight {
        color:#5beedc;
      }
  </style>
  </defs>
  <path
     class="ColorScheme-Highlight"
     style="fill:#5beedc"
     d="M 24 0 A 24 24 0 0 0 0 24 A 24 24 0 0 0 24 48 A 24 24 0 0 0 48 24 A 24 24 0 0 0 24 0 z M 24 3 A 21 21 0 0 1 45 24 A 21 21 0 0 1 24 45 A 21 21 0 0 1 3 24 A 21 21 0 0 1 24 3 z M 34.740234 10.837891 A 5.4999997 5.4999997 0 0 1 34.753906 10.875 A 5.4999997 5.4999997 0 0 1 34.890625 11.408203 A 5.4999997 5.4999997 0 0 1 34.972656 11.951172 A 5.4999997 5.4999997 0 0 1 35 12.5 A 5.4999997 5.4999997 0 0 1 34.986328 12.888672 A 5.4999997 5.4999997 0 0 1 34.919922 13.435547 A 5.4999997 5.4999997 0 0 1 34.798828 13.970703 A 5.4999997 5.4999997 0 0 1 34.626953 14.492188 A 5.4999997 5.4999997 0 0 1 34.402344 14.994141 A 5.4999997 5.4999997 0 0 1 34.128906 15.470703 A 5.4999997 5.4999997 0 0 1 33.808594 15.917969 A 5.4999997 5.4999997 0 0 1 33.445312 16.332031 A 5.4999997 5.4999997 0 0 1 33.042969 16.707031 A 5.4999997 5.4999997 0 0 1 32.605469 17.039062 A 5.4999997 5.4999997 0 0 1 32.136719 17.326172 A 5.4999997 5.4999997 0 0 1 31.642578 17.566406 A 5.4999997 5.4999997 0 0 1 31.125 17.753906 A 5.4999997 5.4999997 0 0 1 30.591797 17.890625 A 5.4999997 5.4999997 0 0 1 30.048828 17.972656 A 5.4999997 5.4999997 0 0 1 29.5 18 A 5.4999997 5.4999997 0 0 1 29.431641 18 A 5.4999997 5.4999997 0 0 1 28.882812 17.964844 A 5.4999997 5.4999997 0 0 1 28.341797 17.875 A 5.4999997 5.4999997 0 0 1 27.810547 17.732422 A 5.4999997 5.4999997 0 0 1 27.296875 17.537109 A 5.4999997 5.4999997 0 0 1 26.804688 17.291016 A 8.4999999 8.4999999 0 0 1 26.792969 17.34375 A 8.4999999 8.4999999 0 0 1 26.566406 18.162109 A 8.4999999 8.4999999 0 0 1 26.259766 18.955078 A 8.4999999 8.4999999 0 0 1 25.875 19.712891 A 8.4999999 8.4999999 0 0 1 25.417969 20.427734 A 8.4999999 8.4999999 0 0 1 24.890625 21.09375 A 8.4999999 8.4999999 0 0 1 24.298828 21.705078 A 8.4999999 8.4999999 0 0 1 23.650391 22.253906 A 8.4999999 8.4999999 0 0 1 22.949219 22.734375 A 8.4999999 8.4999999 0 0 1 22.205078 23.142578 A 8.4999999 8.4999999 0 0 1 21.421875 23.474609 A 8.4999999 8.4999999 0 0 1 20.611328 23.726562 A 9.9999995 9.9999995 0 0 1 20.314453 24.615234 A 9.9999995 9.9999995 0 0 1 19.90625 25.527344 A 9.9999995 9.9999995 0 0 1 19.410156 26.394531 A 9.9999995 9.9999995 0 0 1 18.830078 27.208984 A 9.9999995 9.9999995 0 0 1 18.169922 27.960938 A 9.9999995 9.9999995 0 0 1 17.439453 28.642578 A 9.9999995 9.9999995 0 0 1 16.644531 29.248047 A 9.9999995 9.9999995 0 0 1 15.792969 29.771484 A 9.9999995 9.9999995 0 0 1 14.892578 30.207031 A 9.9999995 9.9999995 0 0 1 13.955078 30.550781 A 9.9999995 9.9999995 0 0 1 12.986328 30.798828 A 9.9999995 9.9999995 0 0 1 11.998047 30.949219 A 9.9999995 9.9999995 0 0 1 11 31 A 9.9999995 9.9999995 0 0 1 10.292969 30.974609 A 9.9999995 9.9999995 0 0 1 9.3007812 30.855469 A 9.9999995 9.9999995 0 0 1 8.3730469 30.646484 A 17 17 0 0 0 24 41 A 17 17 0 0 0 41 24 A 17 17 0 0 0 34.740234 10.837891 z M 36.5 20 A 1.5 1.5 0 0 1 38 21.5 A 1.5 1.5 0 0 1 36.5 23 A 1.5 1.5 0 0 1 35 21.5 A 1.5 1.5 0 0 1 36.5 20 z M 29.5 26 A 1.5 1.5 0 0 1 31 27.5 A 1.5 1.5 0 0 1 29.5 29 A 1.5 1.5 0 0 1 28 27.5 A 1.5 1.5 0 0 1 29.5 26 z M 23 27 A 0.99999995 0.99999995 0 0 1 24 28 A 0.99999995 0.99999995 0 0 1 23 29 A 0.99999995 0.99999995 0 0 1 22 28 A 0.99999995 0.99999995 0 0 1 23 27 z M 37 27 A 0.99999995 0.99999995 0 0 1 38 28 A 0.99999995 0.99999995 0 0 1 37 29 A 0.99999995 0.99999995 0 0 1 36 28 A 0.99999995 0.99999995 0 0 1 37 27 z M 19.5 32 A 1.5 1.5 0 0 1 21 33.5 A 1.5 1.5 0 0 1 19.5 35 A 1.5 1.5 0 0 1 18 33.5 A 1.5 1.5 0 0 1 19.5 32 z M 28.5 35 A 1.5 1.5 0 0 1 30 36.5 A 1.5 1.5 0 0 1 28.5 38 A 1.5 1.5 0 0 1 27 36.5 A 1.5 1.5 0 0 1 28.5 35 z M 21 37 A 0.99999995 0.99999995 0 0 1 22 38 A 0.99999995 0.99999995 0 0 1 21 39 A 0.99999995 0.99999995 0 0 1 20 38 A 0.99999995 0.99999995 0 0 1 21 37 z "
     transform="scale(0.26458333)"
     id="path831" />
</svg>
