<?xml version="1.0" encoding="UTF-8" standalone="no"?>
<svg
   xmlns:dc="http://purl.org/dc/elements/1.1/"
   xmlns:cc="http://creativecommons.org/ns#"
   xmlns:rdf="http://www.w3.org/1999/02/22-rdf-syntax-ns#"
   xmlns:svg="http://www.w3.org/2000/svg"
   xmlns="http://www.w3.org/2000/svg"
   xmlns:sodipodi="http://sodipodi.sourceforge.net/DTD/sodipodi-0.dtd"
   xmlns:inkscape="http://www.inkscape.org/namespaces/inkscape"
   width="48"
   height="48"
   viewBox="0 0 12.7 12.7"
   version="1.1"
   id="svg8"
   sodipodi:docname="tnscmd10g.svg"
   inkscape:version="0.92.5 (2060ec1f9f, 2020-04-08)">
  <metadata
     id="metadata14">
    <rdf:RDF>
      <cc:Work
         rdf:about="">
        <dc:format>image/svg+xml</dc:format>
        <dc:type
           rdf:resource="http://purl.org/dc/dcmitype/StillImage" />
        <dc:title></dc:title>
      </cc:Work>
    </rdf:RDF>
  </metadata>
  <defs
     id="defs12" />
  <sodipodi:namedview
     pagecolor="#ffffff"
     bordercolor="#666666"
     borderopacity="1"
     objecttolerance="10"
     gridtolerance="10"
     guidetolerance="10"
     inkscape:pageopacity="0"
     inkscape:pageshadow="2"
     inkscape:window-width="1085"
     inkscape:window-height="480"
     id="namedview10"
     showgrid="false"
     inkscape:zoom="4.9166667"
     inkscape:cx="2.1355932"
     inkscape:cy="24"
     inkscape:window-x="0"
     inkscape:window-y="25"
     inkscape:window-maximized="0"
     inkscape:current-layer="svg8" />
  <path
     style="color:#000000;font-variant-ligatures:normal;font-variant-position:normal;font-variant-caps:normal;font-variant-numeric:normal;font-variant-alternates:normal;font-feature-settings:normal;text-indent:0;text-decoration:none;text-decoration-line:none;text-decoration-style:solid;text-decoration-color:#000000;text-transform:none;text-orientation:mixed;white-space:normal;shape-padding:0;opacity:0.75;isolation:auto;mix-blend-mode:normal;solid-color:#000000;fill:#d41919;paint-order:stroke fill markers"
     d="M 4.996,3.66 H 4.734 C 4.263,3.66 3.817,3.758 3.415,3.928 V 3.925 C 3.363,3.947 3.313,3.971 3.263,3.995 3.252,4.001 3.239,4.005 3.228,4.012 A 3.22,3.22 0 0 0 3,4.137 L 2.928,4.183 a 3.163,3.163 0 0 0 -0.6,0.5 L 2.276,4.743 C 2.235,4.789 2.195,4.837 2.157,4.887 L 2.112,4.945 C 2.062,5.013 2.015,5.083 1.972,5.155 L 1.95,5.193 A 2.755,2.755 0 0 0 1.74,5.648 L 1.725,5.687 C 1.698,5.767 1.675,5.848 1.655,5.931 L 1.644,6 A 2.621,2.621 0 0 0 1.611,6.193 L 1.602,6.265 A 2.624,2.624 0 0 0 1.587,6.529 c 0,0.09 0.007,0.177 0.015,0.264 l 0.01,0.072 C 1.62,6.93 1.631,6.995 1.644,7.059 1.649,7.082 1.652,7.105 1.658,7.129 1.678,7.211 1.7,7.292 1.727,7.372 l 0.015,0.04 a 2.687,2.687 0 0 0 0.215,0.462 l 0.015,0.027 c 0.044,0.073 0.092,0.144 0.142,0.213 0.014,0.02 0.029,0.037 0.043,0.056 a 2.93,2.93 0 0 0 0.34,0.373 L 2.514,8.56 c 0.063,0.057 0.13,0.112 0.198,0.164 0.019,0.015 0.039,0.028 0.058,0.042 0.056,0.041 0.113,0.08 0.171,0.118 l 0.055,0.034 c 0.076,0.046 0.152,0.09 0.232,0.13 0.013,0.006 0.027,0.011 0.04,0.018 0.048,0.023 0.097,0.047 0.147,0.068 L 3.416,9.131 c 0.402,0.17 0.848,0.268 1.319,0.268 h 3.232 c 0.347,0 0.68,-0.054 0.992,-0.149 L 8.957,9.253 A 3.318,3.318 0 0 0 9.442,9.062 L 9.514,9.025 A 3.22,3.22 0 0 0 9.93,8.768 L 9.981,8.731 c 0.143,-0.109 0.274,-0.23 0.394,-0.359 L 10.43,8.31 a 2.923,2.923 0 0 0 0.272,-0.368 l 0.042,-0.066 c 0.044,-0.075 0.085,-0.152 0.122,-0.23 V 7.645 L 10.87,7.637 c 0.034,-0.075 0.065,-0.152 0.092,-0.23 0.01,-0.028 0.018,-0.058 0.027,-0.086 a 2.634,2.634 0 0 0 0.099,-0.44 L 11.1,6.797 a 2.634,2.634 0 0 0 0,-0.535 C 11.097,6.232 11.092,6.204 11.088,6.176 A 2.594,2.594 0 0 0 10.99,5.739 C 10.98,5.709 10.972,5.679 10.962,5.651 A 2.7,2.7 0 0 0 10.866,5.414 V 5.412 A 2.75,2.75 0 0 0 10.746,5.185 L 10.698,5.109 A 2.84,2.84 0 0 0 10.6,4.964 L 10.593,4.954 9.821,5.651 9.832,5.674 c 0.026,0.046 0.05,0.093 0.07,0.141 l 0.03,0.072 a 1.776,1.776 0 0 1 0.093,0.344 c 0.004,0.026 0.01,0.052 0.013,0.079 0.009,0.071 0.014,0.143 0.014,0.217 v 0.004 c 0,0.074 -0.005,0.146 -0.014,0.217 -0.003,0.027 -0.009,0.053 -0.013,0.08 A 1.786,1.786 0 0 1 9.931,7.171 L 9.903,7.243 A 1.801,1.801 0 0 1 9.833,7.384 C 9.823,7.4 9.816,7.417 9.807,7.434 A 1.85,1.85 0 0 1 9.692,7.606 l -0.04,0.05 A 1.92,1.92 0 0 1 9.555,7.769 l -0.06,0.06 A 1.97,1.97 0 0 1 9.216,8.056 2.22,2.22 0 0 1 7.967,8.431 H 4.733 A 2.264,2.264 0 0 1 3.548,8.1 L 3.494,8.064 A 2.036,2.036 0 0 1 3.134,7.759 L 3.12,7.744 3.118,7.742 A 1.895,1.895 0 0 1 2.846,7.343 L 2.822,7.298 A 1.79,1.79 0 0 1 2.735,7.078 L 2.721,7.027 A 1.773,1.773 0 0 1 2.678,6.842 L 2.667,6.776 A 1.794,1.794 0 0 1 2.648,6.531 V 6.529 A 1.8,1.8 0 0 1 2.667,6.285 L 2.678,6.217 C 2.689,6.154 2.703,6.094 2.721,6.034 L 2.735,5.982 A 1.79,1.79 0 0 1 2.822,5.762 L 2.846,5.717 A 1.824,1.824 0 0 1 3.118,5.319 L 3.12,5.316 3.122,5.314 3.134,5.303 C 3.183,5.249 3.235,5.199 3.291,5.151 L 3.348,5.104 C 3.395,5.066 3.444,5.03 3.494,4.997 L 3.548,4.96 A 2.11,2.11 0 0 1 4.401,4.655 C 4.429,4.651 4.457,4.646 4.486,4.643 4.555,4.636 4.625,4.631 4.696,4.63 L 4.733,4.629 H 5.22 L 4.996,3.766 Z"
     id="path2"
     inkscape:connector-curvature="0" />
  <path
     d="M 3.584,3.976 3.861,5.331 Z M 2.074,5.025 3.229,5.787 Z M 3.232,6.49 1.876,6.768 Z M 5.94,7.668 7.173,8.296 Z M 4.726,8.181 4.098,9.413 Z m 0.779,0.038 0.427,1.316 z"
     id="path4"
     inkscape:connector-curvature="0"
     style="fill:#5beedc;stroke:#5beedc;stroke-width:0.31799999;stroke-linecap:round" />
  <path
     d="M 6.34,0.075 A 6.295,6.295 0 0 0 0.055,6.36 6.295,6.295 0 0 0 6.34,12.655 6.295,6.295 0 0 0 12.634,6.36 6.295,6.295 0 0 0 6.34,0.075 Z m -0.011,0.94 a 5.408,5.408 0 0 1 5.397,5.387 5.407,5.407 0 0 1 -10.814,0 c 0,-2.987 2.43,-5.387 5.417,-5.387 z M 8.748,2.49 A 0.5,0.5 0 0 0 8.418,2.636 L 7.79,3.264 C 7.67,3.378 7.4,3.418 6.977,3.333 6.555,3.247 6.067,3.056 5.664,2.919 a 0.5,0.5 0 0 0 -0.43,0.052 c -0.2,0.128 -0.368,0.3 -0.466,0.524 a 0.976,0.976 0 0 0 -0.01,0.742 c 0.099,0.244 0.275,0.432 0.51,0.578 L 4.281,5.737 4.274,5.744 a 1.007,1.007 0 0 0 -0.01,1.422 c 0.39,0.39 1.039,0.386 1.423,-0.009 L 6.044,6.801 a 0.997,0.997 0 0 0 0.173,0.117 c 0.133,0.254 0.372,0.439 0.648,0.51 0.07,0.08 0.14,0.124 0.191,0.155 0.135,0.082 0.179,0.106 0.175,0.102 0.014,0.014 0.03,0.027 0.045,0.04 C 7.6,7.979 8.008,7.953 8.286,7.848 8.562,7.744 8.769,7.6 8.924,7.346 9.297,6.733 9.374,6.521 10.058,5.746 L 10.679,5.124 A 0.5,0.5 0 0 0 10.703,4.442 L 9.148,2.661 A 0.5,0.5 0 0 0 8.748,2.49 Z M 5.504,3.392 C 6.264,3.65 7.531,4.204 8.136,3.624 L 9.691,5.406 C 8.979,6.212 8.861,6.487 8.498,7.086 8.368,7.299 7.896,7.576 7.585,7.332 7.417,7.164 7.163,7.159 7.208,6.951 A 0.5,0.5 0 0 1 6.609,6.534 0.5,0.5 0 0 1 6.189,5.949 l -0.86,0.86 A 0.5,0.5 0 1 1 4.623,6.102 L 6.193,4.634 C 5.053,4.386 4.969,3.734 5.503,3.392 Z m 4.562,1.177 A 0.226,0.226 0 0 1 10.292,4.795 0.226,0.226 0 0 1 10.066,5.021 0.226,0.226 0 0 1 9.84,4.795 0.226,0.226 0 0 1 10.066,4.569 Z M 7.89,6.937 C 7.907,6.951 7.921,6.962 7.937,6.978 L 7.893,6.938 Z"
     id="path6"
     inkscape:connector-curvature="0"
     style="fill:#5beedc" />
</svg>
