<?xml version="1.0" encoding="UTF-8" standalone="no"?>
<svg
   xmlns:dc="http://purl.org/dc/elements/1.1/"
   xmlns:cc="http://creativecommons.org/ns#"
   xmlns:rdf="http://www.w3.org/1999/02/22-rdf-syntax-ns#"
   xmlns:svg="http://www.w3.org/2000/svg"
   xmlns="http://www.w3.org/2000/svg"
   xmlns:sodipodi="http://sodipodi.sourceforge.net/DTD/sodipodi-0.dtd"
   xmlns:inkscape="http://www.inkscape.org/namespaces/inkscape"
   width="48"
   height="48"
   viewBox="0 0 12.7 12.7"
   version="1.1"
   id="svg4"
   sodipodi:docname="apache-users.svg"
   inkscape:version="0.92.5 (2060ec1f9f, 2020-04-08)">
  <defs
     id="defs8">
    <style
       id="current-color-scheme"
       type="text/css">
      .ColorScheme-Highlight {
        color:#5beedc;
      }
  </style>
  </defs>
  <path
     class="ColorScheme-Highlight"
     style="fill:#5beedc"
     d="M 24 0 A 24 24 0 0 0 0 24 A 24 24 0 0 0 24 48 A 24 24 0 0 0 48 24 A 24 24 0 0 0 24 0 z M 24 3 A 21 21 0 0 1 45 24 A 21 21 0 0 1 24 45 A 21 21 0 0 1 3 24 A 21 21 0 0 1 24 3 z "
     transform="scale(0.26458333)"
     id="path821" />
  <path
     style="fill:#bf2d5d"
     d="M 18.722656 23 A 7.9999988 7.9999988 0 0 0 24 25 A 7.9999988 7.9999988 0 0 0 29.28125 23 L 18.722656 23 z M 19 28 C 17.380381 28 16.012184 28.813063 15.099609 30 L 32.900391 30 C 31.987816 28.813063 30.619619 28 29 28 L 19 28 z "
     transform="scale(0.26458333)"
     id="path872" />
  <path
     style="fill:#112d5c"
     d="M 15.099609 30 C 14.451427 30.843057 14 31.849619 14 33 L 14 37 L 34 37 L 34 33 C 34 31.849619 33.548573 30.843057 32.900391 30 L 15.099609 30 z "
     id="path870"
     transform="scale(0.26458333)" />
  <path
     style="fill:#ca2929"
     d="M 16.072266 16 A 7.999999 7.999999 0 0 0 16 17 A 7.999999 7.999999 0 0 0 18.722656 23 L 29.28125 23 A 7.999999 7.999999 0 0 0 32 17 A 7.999999 7.999999 0 0 0 31.929688 16 L 16.072266 16 z "
     id="path862"
     transform="scale(0.26458333)" />
  <path
     style="fill:#fe8a19"
     d="M 16.072266 16 L 31.929688 16 A 7.999999 7.999999 0 0 0 24 9 A 7.999999 7.999999 0 0 0 16.072266 16 z "
     id="path817"
     transform="scale(0.26458333)" />
</svg>
