<?xml version="1.0" encoding="UTF-8" standalone="no"?>
<svg
   xmlns:dc="http://purl.org/dc/elements/1.1/"
   xmlns:cc="http://creativecommons.org/ns#"
   xmlns:rdf="http://www.w3.org/1999/02/22-rdf-syntax-ns#"
   xmlns:svg="http://www.w3.org/2000/svg"
   xmlns="http://www.w3.org/2000/svg"
   xmlns:sodipodi="http://sodipodi.sourceforge.net/DTD/sodipodi-0.dtd"
   xmlns:inkscape="http://www.inkscape.org/namespaces/inkscape"
   width="48"
   height="48"
   viewBox="0 0 12.7 12.7"
   version="1.1"
   id="svg4"
   sodipodi:docname="magictree.svg"
   inkscape:version="0.92.5 (2060ec1f9f, 2020-04-08)">
  <metadata
     id="metadata10">
    <rdf:RDF>
      <cc:Work
         rdf:about="">
        <dc:format>image/svg+xml</dc:format>
        <dc:type
           rdf:resource="http://purl.org/dc/dcmitype/StillImage" />
        <dc:title></dc:title>
      </cc:Work>
    </rdf:RDF>
  </metadata>
  <defs
     id="defs8" />
  <sodipodi:namedview
     pagecolor="#ffffff"
     bordercolor="#666666"
     borderopacity="1"
     objecttolerance="10"
     gridtolerance="10"
     guidetolerance="10"
     inkscape:pageopacity="0"
     inkscape:pageshadow="2"
     inkscape:window-width="1085"
     inkscape:window-height="480"
     id="namedview6"
     showgrid="false"
     inkscape:zoom="4.9166667"
     inkscape:cx="2.1355932"
     inkscape:cy="24"
     inkscape:window-x="0"
     inkscape:window-y="25"
     inkscape:window-maximized="0"
     inkscape:current-layer="svg4" />
  <path
     d="M 6.34,0.075 A 6.295,6.295 0 0 0 0.055,6.36 6.295,6.295 0 0 0 6.34,12.655 6.295,6.295 0 0 0 12.634,6.36 6.295,6.295 0 0 0 6.34,0.075 Z m -0.011,0.94 a 5.408,5.408 0 0 1 5.397,5.387 5.407,5.407 0 0 1 -10.814,0 c 0,-2.987 2.43,-5.387 5.417,-5.387 z M 6.35,1.229 A 0.236,0.236 0 0 0 6.114,1.465 0.236,0.236 0 0 0 6.35,1.702 0.236,0.236 0 0 0 6.586,1.465 0.236,0.236 0 0 0 6.35,1.229 Z M 6.347,1.768 A 0.162,0.162 0 0 0 6.188,1.932 V 7.69 C 6.113,7.59 6.048,7.454 5.991,7.282 5.88,6.94 5.81,6.482 5.743,6 5.677,5.52 5.613,5.015 5.497,4.566 5.381,4.118 5.217,3.718 4.919,3.463 A 0.162,0.162 0 0 0 4.816,3.423 0.162,0.162 0 0 0 4.708,3.708 c 0.213,0.182 0.367,0.52 0.475,0.94 0.108,0.419 0.173,0.913 0.24,1.396 L 5.452,6.252 A 0.236,0.236 0 0 0 5.273,6.169 0.236,0.236 0 0 0 5.066,6.292 2.747,2.747 0 0 0 4.739,5.757 1.873,1.873 0 0 0 3.72,5.107 0.162,0.162 0 0 0 3.672,5.102 0.162,0.162 0 0 0 3.638,5.42 C 4.037,5.525 4.29,5.714 4.487,5.96 4.683,6.205 4.818,6.511 4.949,6.837 5.124,7.273 5.295,7.751 5.627,8.13 5.076,7.93 4.764,7.607 4.457,7.27 4.038,6.811 3.618,6.311 2.723,6.237 a 0.162,0.162 0 0 0 -0.016,0 0.162,0.162 0 0 0 -0.01,0.322 C 3.485,6.624 3.791,7.021 4.218,7.489 4.441,7.733 4.693,7.991 5.043,8.202 4.646,8.16 4.263,8.03 3.865,7.882 3.231,7.646 2.565,7.362 1.796,7.372 1.686,7.373 1.575,7.382 1.46,7.396 a 0.162,0.162 0 1 0 0.041,0.32 c 0.816,-0.104 1.516,0.195 2.25,0.469 0.617,0.229 1.264,0.437 1.989,0.317 0.138,0.04 0.287,0.073 0.448,0.097 v 2.677 a 0.162,0.213 0 1 0 0.324,0 V 8.6 C 6.673,8.576 6.822,8.543 6.96,8.503 7.685,8.623 8.332,8.415 8.948,8.186 9.683,7.913 10.383,7.614 11.198,7.718 A 0.162,0.162 0 1 0 11.24,7.397 2.98,2.98 0 0 0 10.904,7.373 C 10.134,7.363 9.469,7.647 8.835,7.883 8.437,8.031 8.055,8.161 7.657,8.203 8.007,7.992 8.259,7.733 8.482,7.49 8.909,7.022 9.215,6.626 10.004,6.56 A 0.162,0.162 0 0 0 9.988,6.237 0.162,0.162 0 0 0 9.977,6.238 C 9.082,6.312 8.662,6.813 8.242,7.272 7.936,7.608 7.624,7.932 7.073,8.132 7.405,7.752 7.576,7.274 7.751,6.838 7.881,6.512 8.017,6.206 8.213,5.96 8.41,5.715 8.663,5.526 9.062,5.421 A 0.162,0.162 0 0 0 9.023,5.103 0.162,0.162 0 0 0 8.98,5.108 C 8.518,5.229 8.194,5.468 7.961,5.758 A 2.748,2.748 0 0 0 7.634,6.293 0.236,0.236 0 0 0 7.427,6.17 0.236,0.236 0 0 0 7.248,6.253 L 7.278,6.045 C 7.344,5.562 7.408,5.068 7.517,4.648 7.625,4.228 7.779,3.891 7.992,3.709 A 0.162,0.162 0 0 0 7.896,3.424 0.162,0.162 0 0 0 7.781,3.464 C 7.483,3.72 7.319,4.119 7.203,4.567 7.088,5.016 7.023,5.52 6.957,6.001 6.89,6.482 6.821,6.94 6.709,7.281 A 1.409,1.409 0 0 1 6.512,7.689 V 1.932 A 0.162,0.162 0 0 0 6.347,1.768 Z M 5.842,2.828 A 0.236,0.236 0 0 0 5.605,3.064 0.236,0.236 0 0 0 5.842,3.3 0.236,0.236 0 0 0 6.078,3.064 0.236,0.236 0 0 0 5.842,2.828 Z m 1.016,0 A 0.236,0.236 0 0 0 6.622,3.064 0.236,0.236 0 0 0 6.858,3.3 0.236,0.236 0 0 0 7.095,3.064 0.236,0.236 0 0 0 6.858,2.828 Z M 5.883,3.972 A 0.236,0.236 0 0 0 5.647,4.209 0.236,0.236 0 0 0 5.883,4.445 0.236,0.236 0 0 0 6.12,4.209 0.236,0.236 0 0 0 5.883,3.972 Z m 0.934,0 A 0.236,0.236 0 0 0 6.58,4.209 0.236,0.236 0 0 0 6.817,4.445 0.236,0.236 0 0 0 7.053,4.209 0.236,0.236 0 0 0 6.817,3.972 Z M 4.688,4.323 A 0.236,0.236 0 0 0 4.451,4.56 0.236,0.236 0 0 0 4.688,4.796 0.236,0.236 0 0 0 4.924,4.56 0.236,0.236 0 0 0 4.688,4.323 Z m 3.324,0 A 0.236,0.236 0 0 0 7.776,4.56 0.236,0.236 0 0 0 8.012,4.796 0.236,0.236 0 0 0 8.248,4.56 0.236,0.236 0 0 0 8.012,4.323 Z M 5.047,5.151 A 0.236,0.236 0 0 0 4.811,5.387 0.236,0.236 0 0 0 5.047,5.623 0.236,0.236 0 0 0 5.284,5.387 0.236,0.236 0 0 0 5.047,5.151 Z m 2.606,0 A 0.236,0.236 0 0 0 7.416,5.387 0.236,0.236 0 0 0 7.653,5.623 0.236,0.236 0 0 0 7.889,5.387 0.236,0.236 0 0 0 7.653,5.151 Z M 5.916,5.268 A 0.236,0.236 0 0 0 5.68,5.504 0.236,0.236 0 0 0 5.916,5.741 0.236,0.236 0 0 0 6.153,5.504 0.236,0.236 0 0 0 5.916,5.268 Z m 0.868,0 A 0.236,0.236 0 0 0 6.547,5.504 0.236,0.236 0 0 0 6.784,5.741 0.236,0.236 0 0 0 7.02,5.504 0.236,0.236 0 0 0 6.784,5.268 Z M 3.552,5.585 A 0.236,0.236 0 0 0 3.315,5.822 0.236,0.236 0 0 0 3.552,6.058 0.236,0.236 0 0 0 3.788,5.822 0.236,0.236 0 0 0 3.552,5.585 Z m 5.597,0 A 0.236,0.236 0 0 0 8.912,5.822 0.236,0.236 0 0 0 9.149,6.058 0.236,0.236 0 0 0 9.385,5.822 0.236,0.236 0 0 0 9.149,5.585 Z M 4.345,6.12 A 0.236,0.236 0 0 0 4.109,6.357 0.236,0.236 0 0 0 4.345,6.593 0.236,0.236 0 0 0 4.582,6.357 0.236,0.236 0 0 0 4.345,6.12 Z m 4.01,0 A 0.236,0.236 0 0 0 8.118,6.357 0.236,0.236 0 0 0 8.355,6.593 0.236,0.236 0 0 0 8.591,6.357 0.236,0.236 0 0 0 8.355,6.12 Z M 5.49,6.502 c 0.05,0.318 0.108,0.619 0.194,0.88 0.096,0.293 0.234,0.55 0.448,0.7 A 0.162,0.162 0 0 0 6.062,8.09 C 6.058,8.09 6.054,8.093 6.05,8.094 5.641,7.757 5.463,7.25 5.25,6.717 L 5.216,6.636 A 0.236,0.236 0 0 0 5.273,6.643 0.236,0.236 0 0 0 5.49,6.502 Z m 1.72,0 A 0.236,0.236 0 0 0 7.427,6.643 0.236,0.236 0 0 0 7.484,6.636 L 7.451,6.717 C 7.237,7.25 7.059,7.757 6.651,8.094 6.646,8.094 6.642,8.091 6.638,8.09 A 0.162,0.162 0 0 0 6.568,8.081 C 6.782,7.932 6.92,7.675 7.016,7.382 A 5.7,5.7 0 0 0 7.211,6.502 Z M 2.69,6.839 A 0.236,0.236 0 0 0 2.455,7.075 0.236,0.236 0 0 0 2.691,7.312 0.236,0.236 0 0 0 2.927,7.075 0.236,0.236 0 0 0 2.691,6.839 Z m 7.32,0 A 0.236,0.236 0 0 0 9.773,7.075 0.236,0.236 0 0 0 10.009,7.312 0.236,0.236 0 0 0 10.246,7.075 0.236,0.236 0 0 0 10.009,6.839 Z M 4.78,6.998 A 0.236,0.236 0 0 0 4.543,7.234 0.236,0.236 0 0 0 4.78,7.47 0.236,0.236 0 0 0 5.016,7.234 0.236,0.236 0 0 0 4.78,6.998 Z m 3.14,0 A 0.236,0.236 0 0 0 7.684,7.234 0.236,0.236 0 0 0 7.92,7.47 0.236,0.236 0 0 0 8.156,7.234 0.236,0.236 0 0 0 7.92,6.998 Z M 3.651,7.207 A 0.236,0.236 0 0 0 3.415,7.443 0.236,0.236 0 0 0 3.651,7.679 0.236,0.236 0 0 0 3.888,7.443 0.236,0.236 0 0 0 3.651,7.207 Z m 5.397,0 A 0.236,0.236 0 0 0 8.812,7.443 0.236,0.236 0 0 0 9.048,7.679 0.236,0.236 0 0 0 9.284,7.443 0.236,0.236 0 0 0 9.048,7.207 Z M 1.646,7.959 A 0.236,0.236 0 0 0 1.41,8.195 0.236,0.236 0 0 0 1.646,8.432 0.236,0.236 0 0 0 1.883,8.195 0.236,0.236 0 0 0 1.646,7.959 Z m 9.408,0 A 0.236,0.236 0 0 0 10.817,8.195 0.236,0.236 0 0 0 11.054,8.432 0.236,0.236 0 0 0 11.29,8.195 0.236,0.236 0 0 0 11.054,7.959 Z m -8.363,0.1 A 0.236,0.236 0 0 0 2.454,8.295 0.236,0.236 0 0 0 2.691,8.532 0.236,0.236 0 0 0 2.927,8.295 0.236,0.236 0 0 0 2.691,8.059 Z m 7.318,0 A 0.236,0.236 0 0 0 9.773,8.295 0.236,0.236 0 0 0 10.009,8.532 0.236,0.236 0 0 0 10.245,8.295 0.236,0.236 0 0 0 10.009,8.059 Z M 3.685,8.385 A 0.236,0.236 0 0 0 3.449,8.621 0.236,0.236 0 0 0 3.685,8.858 0.236,0.236 0 0 0 3.921,8.621 0.236,0.236 0 0 0 3.685,8.385 Z m 5.33,0 A 0.236,0.236 0 0 0 8.778,8.621 0.236,0.236 0 0 0 9.014,8.858 0.236,0.236 0 0 0 9.251,8.621 0.236,0.236 0 0 0 9.014,8.385 Z m -4.51,0.25 A 0.236,0.236 0 0 0 4.268,8.872 0.236,0.236 0 0 0 4.504,9.108 0.236,0.236 0 0 0 4.74,8.872 0.236,0.236 0 0 0 4.504,8.636 Z m 3.69,0 A 0.236,0.236 0 0 0 7.959,8.872 0.236,0.236 0 0 0 8.196,9.108 0.236,0.236 0 0 0 8.432,8.872 0.236,0.236 0 0 0 8.196,8.636 Z m -2.763,0.1 A 0.236,0.236 0 0 0 5.196,8.972 0.236,0.236 0 0 0 5.432,9.209 0.236,0.236 0 0 0 5.668,8.972 0.236,0.236 0 0 0 5.432,8.736 Z m 1.836,0 A 0.236,0.236 0 0 0 7.032,8.972 0.236,0.236 0 0 0 7.268,9.209 0.236,0.236 0 0 0 7.504,8.972 0.236,0.236 0 0 0 7.268,8.736 Z"
     id="path2"
     inkscape:connector-curvature="0"
     style="fill:#5beedc" />
</svg>
