<?xml version="1.0" encoding="UTF-8" standalone="no"?>
<svg
   xmlns:dc="http://purl.org/dc/elements/1.1/"
   xmlns:cc="http://creativecommons.org/ns#"
   xmlns:rdf="http://www.w3.org/1999/02/22-rdf-syntax-ns#"
   xmlns:svg="http://www.w3.org/2000/svg"
   xmlns="http://www.w3.org/2000/svg"
   xmlns:sodipodi="http://sodipodi.sourceforge.net/DTD/sodipodi-0.dtd"
   xmlns:inkscape="http://www.inkscape.org/namespaces/inkscape"
   width="48"
   height="48"
   viewBox="0 0 12.7 12.7"
   version="1.1"
   id="svg4"
   sodipodi:docname="nethunter.svg"
   inkscape:version="0.92.5 (2060ec1f9f, 2020-04-08)">
  <metadata
     id="metadata10">
    <rdf:RDF>
      <cc:Work
         rdf:about="">
        <dc:format>image/svg+xml</dc:format>
        <dc:type
           rdf:resource="http://purl.org/dc/dcmitype/StillImage" />
        <dc:title></dc:title>
      </cc:Work>
    </rdf:RDF>
  </metadata>
  <defs
     id="defs8" />
  <sodipodi:namedview
     pagecolor="#ffffff"
     bordercolor="#666666"
     borderopacity="1"
     objecttolerance="10"
     gridtolerance="10"
     guidetolerance="10"
     inkscape:pageopacity="0"
     inkscape:pageshadow="2"
     inkscape:window-width="1085"
     inkscape:window-height="480"
     id="namedview6"
     showgrid="false"
     inkscape:zoom="4.9166667"
     inkscape:cx="2.1355932"
     inkscape:cy="24"
     inkscape:window-x="0"
     inkscape:window-y="25"
     inkscape:window-maximized="0"
     inkscape:current-layer="svg4" />
  <path
     d="M 6.34,0.075 A 6.295,6.295 0 0 0 0.055,6.36 6.295,6.295 0 0 0 6.34,12.655 6.295,6.295 0 0 0 12.634,6.36 6.295,6.295 0 0 0 6.34,0.075 Z m -0.011,0.94 a 5.408,5.408 0 0 1 5.397,5.387 5.407,5.407 0 0 1 -10.814,0 c 0,-2.987 2.43,-5.387 5.417,-5.387 z m -3.657,1.75 c -0.007,-0.002 -0.014,0 -0.022,0 C 2.617,2.77 2.573,2.791 2.51,2.854 A 0.31,0.31 0 0 0 2.427,3.053 c 0,0.073 0.026,0.125 0.047,0.158 0.043,0.066 0.077,0.085 0.108,0.104 0.06,0.039 0.116,0.06 0.183,0.08 0.158,0.048 0.634,0.259 1.116,0.5 0.06,0.03 0.114,0.06 0.173,0.091 a 1.723,1.723 0 0 0 -0.3,0.593 L 3.662,4.924 C 3.533,4.934 3.41,4.954 3.302,4.992 3.162,5.042 3.01,5.087 2.939,5.304 A 0.29,0.29 0 0 0 2.926,5.452 c 0.01,0.07 0.07,0.169 0.147,0.21 0.003,0.002 0.005,0 0.008,0.002 -0.002,0 -0.004,0.005 -0.006,0.005 A 0.79,0.79 0 0 0 2.659,5.895 C 2.562,5.988 2.491,6.065 2.455,6.21 A 0.319,0.319 0 0 0 2.567,6.541 C 2.614,6.576 2.657,6.589 2.697,6.596 2.67,6.676 2.612,6.812 2.575,6.866 2.499,6.976 2.445,7.08 2.415,7.193 2.399,7.25 2.383,7.307 2.405,7.403 A 0.314,0.314 0 0 0 2.502,7.567 0.324,0.324 0 0 0 2.704,7.643 L 2.706,7.642 c 0.017,0.163 0.046,0.315 0.103,0.47 l -0.18,0.67 c -0.2,0.746 0.24,1.347 0.986,1.347 h 4.203 c 0.539,0 1.083,-0.314 1.42,-0.769 0.02,0.02 0.039,0.035 0.06,0.056 0.079,0.08 0.155,0.15 0.22,0.203 A 1,1 0 0 0 9.613,9.69 c 0.017,0.011 0.034,0.022 0.065,0.035 0.03,0.013 0.075,0.065 0.223,0.003 0.108,-0.046 0.15,-0.087 0.24,-0.152 A 8.716,8.716 0 0 0 10.7,9.131 C 10.736,9.098 10.766,9.071 10.794,9.041 10.808,9.027 10.821,9.014 10.84,8.988 10.85,8.975 10.86,8.96 10.875,8.923 10.89,8.886 10.928,8.796 10.855,8.677 10.756,8.519 10.692,8.544 10.639,8.53 A 0.632,0.632 0 0 0 10.476,8.51 c 0.061,0 -0.032,-0.01 -0.12,-0.044 A 4.895,4.895 0 0 1 9.7,8.133 L 10.653,4.579 C 10.853,3.832 10.413,3.231 9.667,3.231 H 5.463 c -0.29,0 -0.58,0.092 -0.84,0.246 C 4.203,3.279 3.771,3.097 3.324,2.934 A 5.107,5.107 0 0 0 2.984,2.822 C 2.886,2.794 2.837,2.771 2.72,2.771 2.708,2.771 2.693,2.765 2.672,2.764 Z M 2.72,3.038 c 0.063,0 0.275,0.06 0.512,0.146 1.836,0.67 3.433,1.644 4.756,2.902 0.148,0.142 0.27,0.274 0.27,0.295 0,0.02 -0.072,0.046 -0.159,0.056 C 7.959,6.453 7.904,6.421 7.595,6.135 A 18.489,18.489 0 0 0 5.323,4.373 C 4.687,3.971 3.266,3.259 2.843,3.132 2.746,3.102 2.683,3.062 2.703,3.042 2.705,3.039 2.711,3.038 2.72,3.038 Z m 2.52,1.395 c 0.02,0.001 0.051,0.011 0.094,0.027 0.167,0.063 0.46,0.349 0.53,0.516 0.038,0.093 0.114,0.152 0.253,0.2 0.278,0.094 0.724,0.442 1.248,0.973 L 7.811,6.6 8.117,6.582 8.422,6.564 8.634,6.949 C 8.75,7.16 8.91,7.41 8.991,7.503 c 0.222,0.259 0.272,0.373 0.2,0.46 -0.05,0.06 -0.03,0.096 0.126,0.232 0.23,0.2 0.992,0.582 1.16,0.582 0.068,0 0.134,0.017 0.147,0.038 0.02,0.032 -0.702,0.607 -0.827,0.66 C 9.776,9.483 9.637,9.369 9.49,9.221 9.087,8.818 8.775,8.601 8.074,8.237 7.724,8.055 7.403,7.856 7.356,7.791 7.31,7.726 7.258,7.543 7.242,7.384 7.212,7.101 7.206,7.091 6.995,6.957 6.035,6.351 5.284,6.154 4.832,6.39 4.532,6.547 4.441,6.694 4.444,7.015 4.448,7.527 4.704,7.879 5.375,8.297 5.948,8.653 6.287,9.017 6.567,9.576 6.636,9.713 6.681,9.799 6.725,9.855 H 4.168 C 4.136,9.752 3.827,9.247 3.525,8.808 3.085,8.166 2.996,7.963 2.963,7.528 2.936,7.169 2.9,7.112 2.799,7.274 2.767,7.326 2.724,7.368 2.704,7.368 2.628,7.368 2.674,7.194 2.798,7.015 2.868,6.912 2.951,6.733 2.98,6.617 3.008,6.5 3.049,6.365 3.07,6.316 3.102,6.238 3.091,6.231 2.986,6.257 A 2.113,2.113 0 0 0 2.791,6.317 C 2.669,6.363 2.702,6.224 2.846,6.086 A 0.684,0.684 0 0 1 3.128,5.93 C 3.23,5.91 3.31,5.85 3.377,5.742 A 0.924,0.924 0 0 1 3.571,5.516 C 3.663,5.452 3.66,5.448 3.497,5.417 A 0.606,0.606 0 0 0 3.252,5.414 C 3.205,5.432 3.185,5.421 3.197,5.384 3.232,5.276 3.487,5.186 3.772,5.182 4.095,5.176 4.42,5.083 4.394,5.003 A 0.537,0.537 0 0 0 4.229,4.85 C 4.148,4.795 4.095,4.737 4.111,4.72 4.178,4.653 4.501,4.699 4.711,4.806 4.837,4.869 5.051,4.935 5.189,4.952 5.484,4.989 5.5,4.954 5.324,4.667 5.222,4.502 5.191,4.437 5.232,4.433 a 0.03,0.03 0 0 1 0.008,0 z M 8.403,7.096 8.402,7.348 8.401,7.47 c 0,0.107 0.06,0.208 0.156,0.254 l 0.019,0.01 0.06,0.028 c 0.02,0.009 0.033,0.016 0.06,0.02 A 0.095,0.095 0 0 0 8.759,7.775 0.11,0.11 0 0 0 8.811,7.713 C 8.821,7.677 8.815,7.67 8.814,7.661 8.812,7.618 8.802,7.613 8.794,7.598 A 1.505,1.505 0 0 0 8.677,7.432 Z"
     id="path2"
     inkscape:connector-curvature="0"
     style="fill:#5beedc" />
</svg>
