<?xml version="1.0" encoding="UTF-8" standalone="no"?>
<svg
   xmlns:dc="http://purl.org/dc/elements/1.1/"
   xmlns:cc="http://creativecommons.org/ns#"
   xmlns:rdf="http://www.w3.org/1999/02/22-rdf-syntax-ns#"
   xmlns:svg="http://www.w3.org/2000/svg"
   xmlns="http://www.w3.org/2000/svg"
   xmlns:sodipodi="http://sodipodi.sourceforge.net/DTD/sodipodi-0.dtd"
   xmlns:inkscape="http://www.inkscape.org/namespaces/inkscape"
   width="48"
   height="48"
   viewBox="0 0 12.7 12.7"
   version="1.1"
   id="svg6"
   sodipodi:docname="bbqsql.svg"
   inkscape:version="0.92.5 (2060ec1f9f, 2020-04-08)">
  <metadata
     id="metadata12">
    <rdf:RDF>
      <cc:Work
         rdf:about="">
        <dc:format>image/svg+xml</dc:format>
        <dc:type
           rdf:resource="http://purl.org/dc/dcmitype/StillImage" />
        <dc:title></dc:title>
      </cc:Work>
    </rdf:RDF>
  </metadata>
  <defs
     id="defs10" />
  <sodipodi:namedview
     pagecolor="#ffffff"
     bordercolor="#666666"
     borderopacity="1"
     objecttolerance="10"
     gridtolerance="10"
     guidetolerance="10"
     inkscape:pageopacity="0"
     inkscape:pageshadow="2"
     inkscape:window-width="1085"
     inkscape:window-height="480"
     id="namedview8"
     showgrid="false"
     inkscape:zoom="4.9166667"
     inkscape:cx="2.1355932"
     inkscape:cy="24"
     inkscape:window-x="0"
     inkscape:window-y="25"
     inkscape:window-maximized="0"
     inkscape:current-layer="svg6" />
  <path
     d="M 6.34,0.075 A 6.295,6.295 0 0 0 0.055,6.36 6.295,6.295 0 0 0 6.34,12.655 6.295,6.295 0 0 0 12.634,6.36 6.295,6.295 0 0 0 6.34,0.075 Z m -0.011,0.94 a 5.408,5.408 0 0 1 5.397,5.387 5.407,5.407 0 0 1 -0.097,1.006 H 9.239 A 3.016,3.016 0 0 0 9.375,6.323 L 9.343,5.739 8.986,6.203 A 0.98,0.98 0 0 1 8.82,6.364 C 8.85,6.264 8.878,6.148 8.896,6.021 8.958,5.581 8.919,4.907 8.381,4.188 L 8.156,3.888 8.008,4.233 c -0.17,0.4 -0.447,0.6 -0.704,0.51 C 7.107,4.675 6.947,4.449 6.864,4.123 6.787,3.82 6.743,3.286 6.966,2.465 L 7.061,2.116 6.709,2.196 C 5.521,2.463 4.72,3.307 4.394,4.636 A 5.906,5.906 0 0 0 4.234,6.081 2.37,2.37 0 0 1 3.81,5.65 L 3.542,5.257 3.42,5.717 A 3.04,3.04 0 0 0 3.461,7.408 H 1.013 a 5.407,5.407 0 0 1 -0.1,-1.006 c 0,-2.987 2.429,-5.387 5.416,-5.387 z m -2.202,7.12 c 0.25,0 0.521,0.054 0.725,0.145 L 4.684,8.766 A 1.889,1.889 0 0 0 4.096,8.671 c -0.24,0 -0.377,0.067 -0.377,0.19 0,0.362 1.207,0.092 1.207,0.989 0,0.49 -0.358,0.799 -1.006,0.799 -0.302,0 -0.626,-0.081 -0.876,-0.194 l 0.169,-0.5 c 0.243,0.103 0.51,0.145 0.731,0.145 0.236,0 0.342,-0.063 0.342,-0.176 0,-0.377 -1.2,-0.141 -1.2,-0.972 0,-0.492 0.422,-0.816 1.041,-0.816 z m 2.292,0 c 0.739,0 1.232,0.497 1.232,1.243 0,0.32 -0.088,0.595 -0.247,0.806 L 7.714,10.48 7.334,10.836 7,10.516 c -0.18,0.087 -0.388,0.133 -0.62,0.133 -0.732,0 -1.221,-0.493 -1.221,-1.236 0,-0.767 0.503,-1.277 1.26,-1.277 z m 1.647,0.036 h 0.609 v 1.904 h 1.01 v 0.539 H 8.066 Z M 6.38,8.664 c -0.373,0 -0.595,0.264 -0.595,0.714 0,0.468 0.236,0.743 0.634,0.743 A 0.746,0.746 0 0 0 6.574,10.103 L 6.204,9.751 6.57,9.389 6.964,9.765 A 0.969,0.969 0 0 0 7.024,9.413 C 7.024,8.942 6.784,8.664 6.38,8.664 Z"
     id="path2"
     inkscape:connector-curvature="0"
     style="fill:#5beedc" />
  <text
     style="font-weight:400;font-size:3.17499995px;line-height:1.25;font-family:'Abyssinica SIL';-inkscape-font-specification:'Abyssinica SIL';letter-spacing:0;word-spacing:0;stroke-width:0.26499999"
     x="3.4400001"
     y="10.054"
     font-weight="400"
     font-size="3.175"
     letter-spacing="0"
     word-spacing="0"
     id="text4" />
</svg>
