<?xml version="1.0" encoding="UTF-8" standalone="no"?>
<svg
   xmlns:dc="http://purl.org/dc/elements/1.1/"
   xmlns:cc="http://creativecommons.org/ns#"
   xmlns:rdf="http://www.w3.org/1999/02/22-rdf-syntax-ns#"
   xmlns:svg="http://www.w3.org/2000/svg"
   xmlns="http://www.w3.org/2000/svg"
   xmlns:sodipodi="http://sodipodi.sourceforge.net/DTD/sodipodi-0.dtd"
   xmlns:inkscape="http://www.inkscape.org/namespaces/inkscape"
   width="48"
   height="48"
   viewBox="0 0 12.7 12.7"
   version="1.1"
   id="svg4"
   sodipodi:docname="skipfish.svg"
   inkscape:version="0.92.5 (2060ec1f9f, 2020-04-08)">
  <metadata
     id="metadata10">
    <rdf:RDF>
      <cc:Work
         rdf:about="">
        <dc:format>image/svg+xml</dc:format>
        <dc:type
           rdf:resource="http://purl.org/dc/dcmitype/StillImage" />
        <dc:title></dc:title>
      </cc:Work>
    </rdf:RDF>
  </metadata>
  <defs
     id="defs8" />
  <sodipodi:namedview
     pagecolor="#ffffff"
     bordercolor="#666666"
     borderopacity="1"
     objecttolerance="10"
     gridtolerance="10"
     guidetolerance="10"
     inkscape:pageopacity="0"
     inkscape:pageshadow="2"
     inkscape:window-width="1085"
     inkscape:window-height="480"
     id="namedview6"
     showgrid="false"
     inkscape:zoom="4.9166667"
     inkscape:cx="2.1355932"
     inkscape:cy="24"
     inkscape:window-x="0"
     inkscape:window-y="25"
     inkscape:window-maximized="0"
     inkscape:current-layer="svg4" />
  <path
     d="M 6.34,0.075 A 6.295,6.295 0 0 0 0.055,6.36 6.295,6.295 0 0 0 6.34,12.655 6.295,6.295 0 0 0 12.634,6.36 6.295,6.295 0 0 0 6.34,0.075 Z m -0.011,0.94 a 5.408,5.408 0 0 1 5.397,5.387 5.407,5.407 0 0 1 -10.814,0 c 0,-2.987 2.43,-5.387 5.417,-5.387 z M 7.12,2.407 c -0.252,0 -0.422,0.17 -0.422,0.426 A 0.4,0.4 0 0 0 7.12,3.256 0.4,0.4 0 0 0 7.542,2.833 C 7.542,2.577 7.372,2.407 7.12,2.407 Z M 4.329,2.479 V 5.632 H 5.053 V 4.603 L 5.647,5.632 H 6.585 L 5.851,4.476 6.517,3.541 H 5.667 L 5.054,4.476 V 2.479 Z M 3.192,3.5 c -0.649,0 -0.998,0.247 -0.998,0.704 0,0.806 1.092,0.524 1.092,0.78 0,0.081 -0.116,0.137 -0.3,0.137 C 2.803,5.121 2.539,5.07 2.321,4.993 L 2.164,5.517 c 0.239,0.099 0.558,0.158 0.861,0.158 0.631,0 0.99,-0.26 0.99,-0.712 0,-0.798 -1.118,-0.555 -1.118,-0.794 0,-0.072 0.103,-0.115 0.307,-0.115 0.167,0 0.371,0.03 0.58,0.081 L 3.925,3.602 A 2.63,2.63 0 0 0 3.192,3.5 Z m 5.975,0 A 0.763,0.763 0 0 0 8.553,3.786 L 8.451,3.542 H 7.961 V 9.71 H 8.664 V 8.357 a 0.375,0.375 0 0 1 0.29,-0.124 c 0.213,0 0.303,0.111 0.303,0.346 v 1.13 H 9.995 V 8.455 C 9.995,7.913 9.709,7.593 9.231,7.593 A 0.789,0.789 0 0 0 8.664,7.811 V 5.525 c 0.129,0.098 0.286,0.15 0.465,0.15 0.55,0 0.964,-0.474 0.964,-1.114 0,-0.618 -0.388,-1.062 -0.926,-1.062 z M 6.749,3.542 v 2.09 H 7.486 V 3.542 H 6.75 Z m 2.205,0.572 c 0.24,0 0.389,0.18 0.389,0.486 0,0.29 -0.137,0.46 -0.371,0.46 A 0.408,0.408 0 0 1 8.665,4.929 V 4.233 a 0.392,0.392 0 0 1 0.29,-0.12 z m -3.888,2.37 c -0.251,0 -0.422,0.171 -0.422,0.427 A 0.4,0.4 0 0 0 5.066,7.333 0.4,0.4 0 0 0 5.489,6.911 C 5.489,6.655 5.318,6.484 5.066,6.484 Z m -0.96,0.03 C 3.552,6.514 3.181,6.89 3.181,7.457 V 7.619 H 2.848 v 0.576 h 0.333 v 1.514 h 0.7 V 8.195 H 4.435 V 7.619 H 3.881 V 7.406 C 3.881,7.226 4,7.12 4.213,7.12 c 0.103,0 0.222,0.025 0.278,0.055 L 4.636,6.651 A 1.014,1.014 0 0 0 4.106,6.514 Z m 2.696,1.062 c -0.648,0 -0.998,0.248 -0.998,0.704 0,0.806 1.092,0.525 1.092,0.78 0,0.082 -0.115,0.137 -0.298,0.137 -0.184,0 -0.449,-0.051 -0.666,-0.128 L 5.774,9.594 c 0.24,0.098 0.559,0.157 0.862,0.157 0.631,0 0.99,-0.26 0.99,-0.712 0,-0.797 -1.118,-0.554 -1.118,-0.793 0,-0.073 0.102,-0.115 0.307,-0.115 0.166,0 0.37,0.03 0.58,0.08 L 7.536,7.679 A 2.63,2.63 0 0 0 6.802,7.576 Z M 4.695,7.619 v 2.09 h 0.738 v -2.09 z"
     id="path2"
     inkscape:connector-curvature="0"
     style="fill:#5beedc" />
</svg>
