<?xml version="1.0" encoding="UTF-8" standalone="no"?>
<svg
   xmlns:dc="http://purl.org/dc/elements/1.1/"
   xmlns:cc="http://creativecommons.org/ns#"
   xmlns:rdf="http://www.w3.org/1999/02/22-rdf-syntax-ns#"
   xmlns:svg="http://www.w3.org/2000/svg"
   xmlns="http://www.w3.org/2000/svg"
   xmlns:sodipodi="http://sodipodi.sourceforge.net/DTD/sodipodi-0.dtd"
   xmlns:inkscape="http://www.inkscape.org/namespaces/inkscape"
   width="48"
   height="48"
   viewBox="0 0 12.7 12.7"
   version="1.1"
   id="svg6"
   sodipodi:docname="arping.svg"
   inkscape:version="0.92.5 (2060ec1f9f, 2020-04-08)">
  <metadata
     id="metadata12">
    <rdf:RDF>
      <cc:Work
         rdf:about="">
        <dc:format>image/svg+xml</dc:format>
        <dc:type
           rdf:resource="http://purl.org/dc/dcmitype/StillImage" />
        <dc:title></dc:title>
      </cc:Work>
    </rdf:RDF>
  </metadata>
  <defs
     id="defs10" />
  <sodipodi:namedview
     pagecolor="#ffffff"
     bordercolor="#666666"
     borderopacity="1"
     objecttolerance="10"
     gridtolerance="10"
     guidetolerance="10"
     inkscape:pageopacity="0"
     inkscape:pageshadow="2"
     inkscape:window-width="1085"
     inkscape:window-height="480"
     id="namedview8"
     showgrid="false"
     inkscape:zoom="4.9166667"
     inkscape:cx="2.1355932"
     inkscape:cy="24"
     inkscape:window-x="0"
     inkscape:window-y="25"
     inkscape:window-maximized="0"
     inkscape:current-layer="svg6" />
  <path
     d="M 6.34,0.075 A 6.295,6.295 0 0 0 0.055,6.36 6.295,6.295 0 0 0 6.34,12.655 6.295,6.295 0 0 0 12.634,6.36 6.295,6.295 0 0 0 6.34,0.075 Z m -0.011,0.94 a 5.408,5.408 0 0 1 5.397,5.387 5.407,5.407 0 0 1 -10.814,0 c 0,-2.987 2.43,-5.387 5.417,-5.387 z M 2.137,5.41 1.434,7.387 H 1.961 L 2.081,6.979 H 2.769 L 2.898,7.387 H 3.442 L 2.767,5.41 Z m 1.487,0 V 7.387 H 4.117 V 6.712 h 0.22 L 4.721,7.387 H 5.313 L 4.82,6.609 A 0.66,0.66 0 0 0 5.176,6.008 C 5.176,5.626 4.903,5.41 4.439,5.41 Z M 4.117,5.84 H 4.37 c 0.185,0 0.294,0.089 0.294,0.237 0,0.134 -0.08,0.216 -0.225,0.216 H 4.117 Z M 2.419,5.846 2.633,6.535 H 2.214 l 0.205,-0.69 z m 7.318,1.94 c -0.7,0 -1.148,0.421 -1.148,1.04 0,0.595 0.416,0.993 1.037,0.993 0.313,0 0.581,-0.094 0.803,-0.282 V 8.62 H 9.541 V 9.036 H 9.959 V 9.335 A 0.582,0.582 0 0 1 9.686,9.392 c -0.356,0 -0.579,-0.231 -0.579,-0.607 0,-0.367 0.214,-0.564 0.616,-0.564 0.168,0 0.364,0.032 0.495,0.077 L 10.355,7.911 A 1.495,1.495 0 0 0 9.737,7.786 Z M 5.536,7.814 v 1.977 h 0.5 V 7.814 Z m 0.905,0 V 9.791 H 6.909 V 8.492 l 0.82,1.299 H 8.282 V 7.814 H 7.809 L 7.803,9.101 7.005,7.814 Z"
     id="path2"
     inkscape:connector-curvature="0"
     style="fill:#5beedc" />
  <path
     style="color:#000000;font-variant-ligatures:normal;font-variant-position:normal;font-variant-caps:normal;font-variant-numeric:normal;font-variant-alternates:normal;font-feature-settings:normal;text-indent:0;text-decoration:none;text-decoration-line:none;text-decoration-style:solid;text-decoration-color:#000000;text-transform:none;text-orientation:mixed;white-space:normal;shape-padding:0;clip-rule:evenodd;opacity:0.8;isolation:auto;mix-blend-mode:normal;solid-color:#000000;fill:#54bd8e;fill-rule:evenodd"
     d="M 6.403,1.748 C 6.219,1.758 6.035,1.782 5.853,1.822 A 0.386,0.386 0 0 0 5.685,1.913 0.168,0.168 0 0 0 5.652,1.958 l -0.17,0.35 A 0.029,0.029 0 0 0 5.515,2.349 L 5.603,2.328 A 0.029,0.029 0 0 0 5.623,2.312 L 5.721,2.109 C 5.911,2.066 6.104,2.039 6.297,2.029 A 0.029,0.029 0 0 0 6.322,2.012 L 6.349,1.956 A 0.029,0.029 0 0 0 6.322,1.916 3.38,3.38 0 0 0 5.779,1.989 L 5.802,1.942 C 5.992,1.898 6.185,1.872 6.378,1.862 A 0.029,0.029 0 0 0 6.403,1.845 L 6.43,1.79 a 0.029,0.029 0 0 0 -0.025,-0.041 0.029,0.029 0 0 0 -0.002,0 z M 6.807,1.751 A 0.277,0.277 0 0 0 6.697,1.774 0.223,0.223 0 0 0 6.647,1.805 0.128,0.128 0 0 0 6.611,1.848 L 6.441,2.2 a 0.029,0.029 0 0 0 0.024,0.041 l 0.09,0.004 A 0.029,0.029 0 0 0 6.583,2.229 L 6.679,2.031 C 6.871,2.042 7.062,2.069 7.249,2.11 A 0.029,0.029 0 0 0 7.282,2.094 L 7.309,2.039 A 0.029,0.029 0 0 0 7.311,2.026 0.029,0.029 0 0 0 7.289,1.998 3.733,3.733 0 0 0 6.733,1.92 L 6.76,1.864 C 6.952,1.875 7.143,1.901 7.33,1.943 A 0.029,0.029 0 0 0 7.363,1.927 L 7.39,1.872 A 0.029,0.029 0 0 0 7.37,1.831 3.717,3.717 0 0 0 6.807,1.751 Z M 6.521,1.863 H 6.43 A 0.029,0.029 0 0 0 6.405,1.879 l -0.034,0.07 a 0.029,0.029 0 0 0 0.026,0.042 h 0.09 A 0.029,0.029 0 0 0 6.513,1.974 L 6.547,1.904 A 0.029,0.029 0 0 0 6.521,1.863 Z M 5.633,1.877 a 0.029,0.029 0 0 0 -0.003,0 C 5.451,1.93 5.275,1.999 5.105,2.085 A 0.44,0.44 0 0 0 4.993,2.163 0.483,0.483 0 0 0 4.949,2.209 0.226,0.226 0 0 0 4.919,2.254 C 4.862,2.371 4.804,2.488 4.748,2.606 a 0.029,0.029 0 0 0 0.04,0.037 L 4.87,2.598 A 0.029,0.029 0 0 0 4.883,2.585 l 0.1,-0.206 C 5.163,2.286 5.349,2.211 5.538,2.156 A 0.029,0.029 0 0 0 5.556,2.141 L 5.583,2.085 A 0.029,0.029 0 0 0 5.549,2.045 c -0.17,0.05 -0.336,0.118 -0.5,0.197 L 5.064,2.212 C 5.244,2.119 5.43,2.045 5.619,1.989 A 0.029,0.029 0 0 0 5.637,1.974 L 5.664,1.918 a 0.029,0.029 0 0 0 -0.025,-0.04 0.029,0.029 0 0 0 -0.006,0 z m 1.894,0 A 0.248,0.248 0 0 0 7.467,1.887 0.176,0.176 0 0 0 7.415,1.91 0.112,0.112 0 0 0 7.378,1.953 l -0.17,0.351 a 0.029,0.029 0 0 0 0.018,0.04 L 7.314,2.367 A 0.029,0.029 0 0 0 7.347,2.352 L 7.441,2.159 c 0.185,0.05 0.366,0.114 0.54,0.192 A 0.029,0.029 0 0 0 8.019,2.337 L 8.046,2.282 A 0.029,0.029 0 0 0 8.032,2.242 3.918,3.918 0 0 0 7.494,2.051 l 0.029,-0.06 c 0.184,0.05 0.364,0.115 0.539,0.192 A 0.029,0.029 0 0 0 8.1,2.17 L 8.127,2.114 A 0.029,0.029 0 0 0 8.113,2.075 3.937,3.937 0 0 0 7.592,1.887 0.223,0.223 0 0 0 7.527,1.877 Z M 6.457,1.995 H 6.366 A 0.029,0.029 0 0 0 6.34,2.012 L 6.307,2.081 a 0.029,0.029 0 0 0 -0.003,0.013 0.029,0.029 0 0 0 0.03,0.028 h 0.09 A 0.029,0.029 0 0 0 6.449,2.105 L 6.483,2.036 A 0.029,0.029 0 0 0 6.457,1.995 Z m 1.66,0.232 A 0.029,0.029 0 0 0 8.095,2.243 l -0.034,0.07 a 0.029,0.029 0 0 0 0.013,0.038 l 0.083,0.04 A 0.029,0.029 0 0 0 8.195,2.377 L 8.229,2.307 A 0.029,0.029 0 0 0 8.216,2.269 4.642,4.642 0 0 0 8.133,2.229 0.029,0.029 0 0 0 8.122,2.227 a 0.029,0.029 0 0 0 -0.006,0 z M 8.386,2.238 8.372,2.239 a 0.125,0.125 0 0 0 -0.052,0.017 0.096,0.096 0 0 0 -0.037,0.04 0.029,0.029 0 0 0 0,0.001 L 8.112,2.648 A 0.029,0.029 0 0 0 8.124,2.686 L 8.204,2.73 A 0.029,0.029 0 0 0 8.244,2.717 L 8.334,2.53 c 0.164,0.094 0.322,0.198 0.47,0.315 A 0.029,0.029 0 0 0 8.848,2.835 C 8.856,2.816 8.866,2.798 8.875,2.779 A 0.029,0.029 0 0 0 8.877,2.766 0.029,0.029 0 0 0 8.867,2.744 3.89,3.89 0 0 0 8.387,2.422 l 0.028,-0.06 c 0.164,0.094 0.322,0.2 0.47,0.316 A 0.029,0.029 0 0 0 8.928,2.668 L 8.956,2.612 A 0.029,0.029 0 0 0 8.947,2.577 3.862,3.862 0 0 0 8.489,2.267 0.213,0.213 0 0 0 8.386,2.238 Z M 4.737,2.305 A 0.029,0.029 0 0 0 4.723,2.31 3.332,3.332 0 0 0 4.208,2.751 1.297,1.297 0 0 0 4.124,2.863 L 4.113,2.883 A 0.029,0.029 0 0 0 4.079,2.89 3.918,3.918 0 0 0 3.575,3.635 L 3.551,3.682 3.381,4.034 A 0.029,0.029 0 0 0 3.431,4.06 4.32,4.32 0 0 1 3.489,3.958 0.029,0.029 0 0 0 3.49,3.956 L 3.594,3.742 C 3.696,3.566 3.809,3.409 3.926,3.262 A 0.029,0.029 0 0 0 3.973,3.293 L 4.044,3.218 A 0.029,0.029 0 0 0 4.049,3.211 L 4.152,3 a 3.29,3.29 0 0 1 0.48,-0.408 0.029,0.029 0 0 0 0.042,0.037 l 0.08,-0.05 A 0.029,0.029 0 0 0 4.765,2.566 L 4.799,2.497 A 0.029,0.029 0 0 0 4.792,2.463 L 4.818,2.447 A 0.029,0.029 0 0 0 4.829,2.435 L 4.863,2.365 A 0.029,0.029 0 0 0 4.823,2.328 2.988,2.988 0 0 0 4.753,2.372 L 4.765,2.347 A 0.029,0.029 0 0 0 4.74,2.306 V 2.305 a 0.029,0.029 0 0 0 -0.003,0 z M 8.055,2.358 A 0.029,0.029 0 0 0 8.031,2.375 L 7.997,2.444 A 0.029,0.029 0 0 0 8.011,2.483 C 8.038,2.495 8.066,2.508 8.093,2.522 A 0.029,0.029 0 0 0 8.131,2.509 L 8.165,2.439 A 0.029,0.029 0 0 0 8.152,2.401 L 8.069,2.361 A 0.029,0.029 0 0 0 8.058,2.359 V 2.358 a 0.029,0.029 0 0 0 -0.003,0 z M 4.714,2.424 4.696,2.46 A 0.029,0.029 0 0 0 4.703,2.494 L 4.687,2.504 A 0.029,0.029 0 0 0 4.649,2.474 C 4.671,2.457 4.692,2.439 4.714,2.424 Z M 6.289,2.633 C 6.139,2.64 5.989,2.66 5.843,2.693 A 0.325,0.325 0 0 0 5.746,2.735 0.248,0.248 0 0 0 5.708,2.766 0.13,0.13 0 0 0 5.682,2.801 L 5.542,3.089 A 0.02,0.02 0 0 0 5.565,3.115 L 5.637,3.097 A 0.02,0.02 0 0 0 5.65,3.087 L 5.73,2.919 C 5.886,2.883 6.044,2.861 6.203,2.853 A 0.02,0.02 0 0 0 6.219,2.843 L 6.241,2.797 A 0.02,0.02 0 0 0 6.223,2.769 C 6.072,2.777 5.922,2.799 5.773,2.831 L 5.797,2.783 C 5.952,2.747 6.11,2.725 6.269,2.717 A 0.02,0.02 0 0 0 6.285,2.706 L 6.307,2.66 A 0.02,0.02 0 0 0 6.29,2.633 a 0.02,0.02 0 0 0 -0.001,0 z M 6.605,2.635 V 2.636 L 6.578,2.639 A 0.215,0.215 0 0 0 6.491,2.679 0.102,0.102 0 0 0 6.463,2.712 L 6.323,3 A 0.02,0.02 0 0 0 6.34,3.028 L 6.414,3.031 A 0.02,0.02 0 0 0 6.432,3.02 l 0.08,-0.164 c 0.157,0.01 0.314,0.03 0.468,0.065 A 0.02,0.02 0 0 0 7,2.909 L 7.022,2.864 a 0.02,0.02 0 0 0 0,-0.013 A 0.02,0.02 0 0 0 7.009,2.837 L 7.007,2.836 A 3.01,3.01 0 0 0 6.55,2.772 L 6.576,2.718 c 0.158,0.01 0.315,0.03 0.469,0.065 a 0.02,0.02 0 0 0 0.02,-0.01 L 7.088,2.727 A 0.02,0.02 0 0 0 7.075,2.7 3.01,3.01 0 0 0 6.604,2.635 Z m 2.41,0.04 a 0.1,0.1 0 0 0 -0.05,0.012 0.087,0.087 0 0 0 -0.037,0.04 l -0.17,0.35 a 0.029,0.029 0 0 0 0.006,0.036 l 0.07,0.058 A 0.029,0.029 0 0 0 8.878,3.162 l 0.088,-0.18 c 0.139,0.122 0.27,0.255 0.388,0.397 A 0.029,0.029 0 0 0 9.401,3.373 L 9.429,3.317 A 0.029,0.029 0 0 0 9.424,3.287 3.647,3.647 0 0 0 9.019,2.872 L 9.047,2.814 c 0.14,0.123 0.27,0.256 0.388,0.398 A 0.029,0.029 0 0 0 9.483,3.207 L 9.509,3.151 A 0.029,0.029 0 0 0 9.505,3.12 3.608,3.608 0 0 0 9.122,2.723 0.2,0.2 0 0 0 9.07,2.689 0.144,0.144 0 0 0 9.016,2.676 Z M 6.385,2.726 6.311,2.727 A 0.02,0.02 0 0 0 6.294,2.738 L 6.266,2.795 A 0.02,0.02 0 0 0 6.284,2.823 L 6.358,2.822 A 0.02,0.02 0 0 0 6.375,2.811 L 6.403,2.754 A 0.02,0.02 0 0 0 6.385,2.727 Z M 5.663,2.738 a 0.02,0.02 0 0 0 -0.002,0 A 2.58,2.58 0 0 0 5.233,2.908 0.346,0.346 0 0 0 5.143,2.971 0.368,0.368 0 0 0 5.108,3.008 0.185,0.185 0 0 0 5.084,3.044 L 4.944,3.331 A 0.02,0.02 0 0 0 4.972,3.356 L 5.039,3.32 A 0.02,0.02 0 0 0 5.047,3.31 C 5.075,3.254 5.103,3.198 5.13,3.14 5.277,3.064 5.43,3.004 5.584,2.958 A 0.02,0.02 0 0 0 5.596,2.948 L 5.618,2.903 A 0.02,0.02 0 0 0 5.6,2.875 0.02,0.02 0 0 0 5.595,2.875 2.592,2.592 0 0 0 5.178,3.041 L 5.196,3.004 C 5.343,2.928 5.495,2.867 5.65,2.821 A 0.02,0.02 0 0 0 5.662,2.811 L 5.684,2.766 a 0.02,0.02 0 0 0 -0.017,-0.028 0.02,0.02 0 0 0 -0.004,0 z m 1.542,0 A 0.18,0.18 0 0 0 7.157,2.746 0.132,0.132 0 0 0 7.116,2.765 0.085,0.085 0 0 0 7.086,2.797 L 6.948,3.085 A 0.02,0.02 0 0 0 6.961,3.111 L 7.033,3.13 A 0.02,0.02 0 0 0 7.055,3.12 L 7.133,2.958 C 7.284,3 7.433,3.053 7.576,3.117 A 0.02,0.02 0 0 0 7.601,3.107 L 7.623,3.062 A 0.02,0.02 0 0 0 7.614,3.036 3.181,3.181 0 0 0 7.172,2.878 L 7.199,2.822 C 7.35,2.864 7.499,2.916 7.642,2.98 A 0.02,0.02 0 0 0 7.667,2.971 L 7.689,2.925 A 0.02,0.02 0 0 0 7.68,2.9 3.198,3.198 0 0 0 7.256,2.746 0.181,0.181 0 0 0 7.205,2.739 Z M 6.333,2.834 6.259,2.835 A 0.02,0.02 0 0 0 6.242,2.845 L 6.215,2.903 a 0.02,0.02 0 0 0 -0.002,0.008 0.02,0.02 0 0 0 0.02,0.02 L 6.306,2.93 A 0.02,0.02 0 0 0 6.323,2.919 L 6.351,2.862 A 0.02,0.02 0 0 0 6.333,2.834 Z m 1.352,0.19 A 0.02,0.02 0 0 0 7.671,3.035 L 7.643,3.092 a 0.02,0.02 0 0 0 0.01,0.025 C 7.675,3.127 7.696,3.139 7.718,3.15 A 0.02,0.02 0 0 0 7.744,3.14 L 7.772,3.084 A 0.02,0.02 0 0 0 7.763,3.059 C 7.741,3.048 7.719,3.036 7.696,3.026 a 0.02,0.02 0 0 0 -0.01,-0.002 0.02,0.02 0 0 0 -0.001,0 z m 0.219,0.01 h -0.01 a 0.02,0.02 0 0 0 -0.002,0 0.099,0.099 0 0 0 -0.04,0.014 0.074,0.074 0 0 0 -0.03,0.031 L 7.684,3.367 A 0.02,0.02 0 0 0 7.692,3.392 L 7.757,3.427 A 0.02,0.02 0 0 0 7.784,3.419 L 7.859,3.262 c 0.136,0.077 0.266,0.163 0.388,0.26 A 0.02,0.02 0 0 0 8.275,3.515 L 8.297,3.47 A 0.02,0.02 0 0 0 8.295,3.448 0.02,0.02 0 0 0 8.293,3.446 3.146,3.146 0 0 0 7.898,3.182 L 7.926,3.125 c 0.135,0.078 0.265,0.164 0.387,0.26 A 0.02,0.02 0 0 0 8.342,3.379 L 8.364,3.333 A 0.02,0.02 0 0 0 8.358,3.31 3.17,3.17 0 0 0 7.986,3.057 0.167,0.167 0 0 0 7.903,3.034 Z M 4.933,3.088 A 0.02,0.02 0 0 0 4.923,3.091 2.702,2.702 0 0 0 4.505,3.451 0.944,0.944 0 0 0 4.437,3.542 L 4.426,3.562 A 0.02,0.02 0 0 0 4.4,3.565 3.206,3.206 0 0 0 4.048,4.065 L 4.017,4.122 3.99,4.172 3.97,4.212 3.832,4.499 A 0.02,0.02 0 0 0 3.866,4.516 L 3.913,4.433 A 0.02,0.02 0 0 0 3.914,4.431 L 3.999,4.256 C 4.089,4.099 4.189,3.96 4.294,3.831 L 4.277,3.867 A 0.02,0.02 0 0 0 4.308,3.889 2.62,2.62 0 0 1 4.366,3.827 0.02,0.02 0 0 0 4.369,3.822 L 4.453,3.649 C 4.581,3.517 4.716,3.403 4.858,3.305 a 0.02,0.02 0 0 0 0.001,0 L 4.851,3.32 A 0.02,0.02 0 0 0 4.879,3.344 L 4.945,3.304 A 0.02,0.02 0 0 0 4.953,3.294 L 4.98,3.238 A 0.02,0.02 0 0 0 4.97,3.212 C 4.98,3.207 4.988,3.201 4.997,3.195 A 0.02,0.02 0 0 0 5.004,3.187 L 5.032,3.131 A 0.02,0.02 0 0 0 5.005,3.106 2.624,2.624 0 0 0 4.938,3.148 0.02,0.02 0 0 0 4.936,3.149 C 4.942,3.139 4.946,3.127 4.952,3.116 a 0.02,0.02 0 0 0 -0.017,-0.028 0.02,0.02 0 0 0 -0.002,0 z m 2.7,0.044 A 0.02,0.02 0 0 0 7.619,3.142 C 7.609,3.162 7.599,3.18 7.591,3.199 a 0.02,0.02 0 0 0 0.01,0.026 L 7.667,3.257 A 0.02,0.02 0 0 0 7.693,3.248 L 7.72,3.192 A 0.02,0.02 0 0 0 7.711,3.166 2.523,2.523 0 0 0 7.644,3.133 0.02,0.02 0 0 0 7.634,3.132 a 0.02,0.02 0 0 0 -0.001,0 z M 4.925,3.167 4.903,3.212 A 0.02,0.02 0 0 0 4.913,3.238 1.907,1.907 0 0 0 4.885,3.255 0.02,0.02 0 0 0 4.884,3.257 L 4.885,3.253 A 0.02,0.02 0 0 0 4.858,3.228 2.66,2.66 0 0 0 4.661,3.378 C 4.746,3.302 4.833,3.231 4.923,3.168 a 0.02,0.02 0 0 0 0.002,0 z M 9.479,3.293 A 0.029,0.029 0 0 0 9.453,3.31 L 9.42,3.38 A 0.029,0.029 0 0 0 9.423,3.41 L 9.477,3.48 A 0.029,0.029 0 0 0 9.527,3.476 L 9.56,3.407 A 0.029,0.029 0 0 0 9.558,3.377 L 9.502,3.304 A 0.029,0.029 0 0 0 9.479,3.294 Z M 9.657,3.386 A 0.074,0.074 0 0 0 9.583,3.431 L 9.412,3.782 a 0.029,0.029 0 0 0 0.002,0.03 C 9.432,3.836 9.449,3.861 9.465,3.886 A 0.029,0.029 0 0 0 9.515,3.882 L 9.597,3.715 c 0.097,0.152 0.184,0.31 0.256,0.479 A 0.029,0.029 0 0 0 9.905,4.195 L 9.932,4.139 a 0.029,0.029 0 0 0 0,-0.024 A 3.294,3.294 0 0 0 9.654,3.597 L 9.678,3.547 C 9.776,3.7 9.863,3.859 9.934,4.027 a 0.029,0.029 0 0 0 0.052,0 C 9.996,4.009 10.004,3.99 10.013,3.972 a 0.029,0.029 0 0 0 0,-0.024 A 3.27,3.27 0 0 0 9.755,3.459 0.2,0.2 0 0 0 9.715,3.413 0.117,0.117 0 0 0 9.67,3.388 Z M 8.416,3.391 A 0.076,0.076 0 0 0 8.377,3.4 0.069,0.069 0 0 0 8.348,3.43 L 8.209,3.718 A 0.02,0.02 0 0 0 8.214,3.741 L 8.27,3.788 A 0.02,0.02 0 0 0 8.3,3.782 L 8.374,3.63 c 0.115,0.101 0.223,0.21 0.32,0.329 A 0.02,0.02 0 0 0 8.727,3.955 L 8.748,3.91 A 0.02,0.02 0 0 0 8.746,3.89 2.958,2.958 0 0 0 8.413,3.548 C 8.423,3.53 8.431,3.511 8.44,3.493 8.555,3.594 8.663,3.704 8.76,3.823 A 0.02,0.02 0 0 0 8.792,3.818 L 8.814,3.773 A 0.02,0.02 0 0 0 8.812,3.753 2.95,2.95 0 0 0 8.5,3.429 0.16,0.16 0 0 0 8.458,3.401 0.118,0.118 0 0 0 8.417,3.391 Z M 9.413,3.425 A 0.029,0.029 0 0 0 9.39,3.441 l -0.034,0.07 a 0.029,0.029 0 0 0 0.003,0.03 L 9.414,3.613 A 0.029,0.029 0 0 0 9.462,3.608 L 9.497,3.538 A 0.029,0.029 0 0 0 9.494,3.508 5.848,5.848 0 0 0 9.438,3.436 0.029,0.029 0 0 0 9.416,3.426 a 0.029,0.029 0 0 0 -0.003,0 z m -3.25,0.03 A 2.225,2.225 0 0 0 5.798,3.504 0.204,0.204 0 0 0 5.721,3.538 0.198,0.198 0 0 0 5.691,3.563 0.102,0.102 0 0 0 5.671,3.59 L 5.556,3.826 a 0.01,0.01 0 0 0 0,10e-4 0.01,0.01 0 0 0 0,0.005 0.01,0.01 0 0 0 0.001,0.003 0.01,0.01 0 0 0 0.002,0.002 0.01,0.01 0 0 0 0.002,0.002 0.01,0.01 0 0 0 0.005,0 0.01,0.01 0 0 0 0.002,0 L 5.627,3.824 A 0.01,0.01 0 0 0 5.629,3.823 0.01,0.01 0 0 0 5.631,3.822 0.01,0.01 0 0 0 5.632,3.82 0.01,0.01 0 0 0 5.633,3.819 L 5.701,3.679 C 5.83,3.649 5.961,3.63 6.092,3.624 A 0.01,0.01 0 0 0 6.094,3.623 0.01,0.01 0 0 0 6.096,3.622 0.01,0.01 0 0 0 6.098,3.621 0.01,0.01 0 0 0 6.099,3.619 a 0.01,0.01 0 0 0 0,-0.001 L 6.118,3.581 A 0.01,0.01 0 0 0 6.119,3.578 0.01,0.01 0 0 0 6.118,3.572 0.01,0.01 0 0 0 6.117,3.571 0.01,0.01 0 0 0 6.116,3.569 a 0.01,0.01 0 0 0 -0.002,0 0.01,0.01 0 0 0 -10e-4,-0.002 0.01,0.01 0 0 0 -0.004,0 2.236,2.236 0 0 0 -0.38,0.052 L 5.755,3.566 c 0.13,-0.03 0.26,-0.048 0.39,-0.055 A 0.01,0.01 0 0 0 6.151,3.51 0.01,0.01 0 0 0 6.152,3.509 0.01,0.01 0 0 0 6.154,3.506 L 6.172,3.469 a 0.01,0.01 0 0 0 0.001,-0.003 0.01,0.01 0 0 0 0,-0.006 0.01,0.01 0 0 0 -0.002,-10e-4 0.01,0.01 0 0 0 0,-0.002 0.01,0.01 0 0 0 -0.002,0 0.01,0.01 0 0 0 -0.004,-0.002 0.01,0.01 0 0 0 -0.002,0 z m 0.26,0.002 A 0.182,0.182 0 0 0 6.364,3.471 0.141,0.141 0 0 0 6.332,3.491 0.077,0.077 0 0 0 6.311,3.517 L 6.197,3.752 a 0.01,0.01 0 0 0 0,0.002 0.01,0.01 0 0 0 0,0.005 0.01,0.01 0 0 0 0.001,0.003 0.01,0.01 0 0 0 10e-4,0.002 0.01,0.01 0 0 0 0.002,0 0.01,0.01 0 0 0 0.002,0.002 0.01,0.01 0 0 0 0.002,0 l 0.06,0.003 a 0.01,0.01 0 0 0 0.004,0 A 0.01,0.01 0 0 0 6.272,3.767 0.01,0.01 0 0 0 6.274,3.765 0.01,0.01 0 0 0 6.275,3.763 L 6.342,3.625 c 0.13,0.007 0.26,0.025 0.389,0.053 a 0.01,0.01 0 0 0 0.006,0 0.01,0.01 0 0 0 0.002,-0.002 0.01,0.01 0 0 0 0.002,-0.002 0.01,0.01 0 0 0 0,-10e-4 L 6.759,3.636 a 0.01,0.01 0 0 0 0,-0.001 A 0.01,0.01 0 0 0 6.76,3.629 0.01,0.01 0 0 0 6.758,3.625 0.01,0.01 0 0 0 6.757,3.624 0.01,0.01 0 0 0 6.754,3.623 0.01,0.01 0 0 0 6.754,3.622 2.457,2.457 0 0 0 6.369,3.569 L 6.396,3.512 c 0.13,0.008 0.26,0.026 0.39,0.054 a 0.01,0.01 0 0 0 0.005,0 0.01,0.01 0 0 0 0.002,-0.002 0.01,0.01 0 0 0 0.002,-0.002 0.01,0.01 0 0 0 0,-10e-4 L 6.814,3.523 a 0.01,0.01 0 0 0 0,-0.005 A 0.01,0.01 0 0 0 6.813,3.515 0.01,0.01 0 0 0 6.812,3.513 0.01,0.01 0 0 0 6.81,3.511 0.01,0.01 0 0 0 6.807,3.51 2.461,2.461 0 0 0 6.422,3.457 Z M 6.242,3.532 H 6.181 A 0.01,0.01 0 0 0 6.177,3.533 0.01,0.01 0 0 0 6.175,3.535 0.01,0.01 0 0 0 6.173,3.538 L 6.15,3.584 a 0.01,0.01 0 0 0 -0.001,0.003 0.01,0.01 0 0 0 0.001,0.006 0.01,0.01 0 0 0 10e-4,10e-4 0.01,0.01 0 0 0 0.001,0.002 0.01,0.01 0 0 0 0.002,0 0.01,0.01 0 0 0 0.002,0.002 0.01,0.01 0 0 0 0.003,0 h 0.06 a 0.01,0.01 0 0 0 0.005,-0.002 0.01,0.01 0 0 0 10e-4,0 0.01,0.01 0 0 0 0.003,-0.003 0.01,0.01 0 0 0 0,-10e-4 L 6.251,3.546 a 0.01,0.01 0 0 0 0,-0.005 0.01,0.01 0 0 0 0,-0.005 0.01,0.01 0 0 0 -0.003,-0.002 0.01,0.01 0 0 0 -0.003,-0.002 0.01,0.01 0 0 0 -0.003,0 z m 0.672,0.01 A 0.134,0.134 0 0 0 6.876,3.547 0.109,0.109 0 0 0 6.845,3.562 0.067,0.067 0 0 0 6.823,3.586 L 6.709,3.822 a 0.01,0.01 0 0 0 0,0.005 0.01,0.01 0 0 0 0,0.004 0.01,0.01 0 0 0 0.002,0.002 0.01,0.01 0 0 0 0.003,0.002 0.01,0.01 0 0 0 10e-4,0 l 0.06,0.016 a 0.01,0.01 0 0 0 0.004,0 A 0.01,0.01 0 0 0 6.782,3.849 0.01,0.01 0 0 0 6.784,3.847 0.01,0.01 0 0 0 6.785,3.846 L 6.852,3.709 c 0.126,0.034 0.25,0.078 0.37,0.131 A 0.01,0.01 0 0 0 7.226,3.841 0.01,0.01 0 0 0 7.23,3.84 0.01,0.01 0 0 0 7.232,3.839 0.01,0.01 0 0 0 7.232,3.837 0.01,0.01 0 0 0 7.234,3.836 L 7.252,3.798 a 0.01,0.01 0 0 0 0,-10e-4 0.01,0.01 0 0 0 0,-0.006 A 0.01,0.01 0 0 0 7.251,3.788 0.01,0.01 0 0 0 7.249,3.786 0.01,0.01 0 0 0 7.247,3.786 2.586,2.586 0 0 0 6.878,3.654 L 6.906,3.596 c 0.126,0.035 0.25,0.079 0.37,0.132 a 0.01,0.01 0 0 0 0.006,0 0.01,0.01 0 0 0 0.002,0 0.01,0.01 0 0 0 0.002,-0.002 0.01,0.01 0 0 0 0.001,-10e-4 0.01,0.01 0 0 0 0,-10e-4 L 7.306,3.686 a 0.01,0.01 0 0 0 0,-10e-4 0.01,0.01 0 0 0 0,-0.006 A 0.01,0.01 0 0 0 7.305,3.676 0.01,0.01 0 0 0 7.303,3.674 0.01,0.01 0 0 0 7.301,3.674 2.603,2.603 0 0 0 6.955,3.548 0.148,0.148 0 0 0 6.914,3.542 Z m -1.264,0 A 2.11,2.11 0 0 0 5.3,3.68 0.298,0.298 0 0 0 5.228,3.731 L 5.199,3.761 A 0.154,0.154 0 0 0 5.18,3.789 L 5.066,4.025 a 0.01,0.01 0 0 0 0,0.003 0.01,0.01 0 0 0 0,0.005 0.01,0.01 0 0 0 0.001,0.002 0.01,0.01 0 0 0 10e-4,10e-4 0.01,0.01 0 0 0 0.002,0.001 0.01,0.01 0 0 0 0.003,0.002 0.01,0.01 0 0 0 0.005,-10e-4 0.01,0.01 0 0 0 10e-4,0 l 0.056,-0.03 a 0.01,0.01 0 0 0 0,-0.001 A 0.01,0.01 0 0 0 5.137,4.006 0.01,0.01 0 0 0 5.139,4.003 L 5.207,3.861 C 5.329,3.798 5.455,3.748 5.583,3.71 a 0.01,0.01 0 0 0 0.003,-0.002 0.01,0.01 0 0 0 0.002,-0.002 0.01,0.01 0 0 0 0,-10e-4 L 5.607,3.667 a 0.01,0.01 0 0 0 0,-0.003 0.01,0.01 0 0 0 0,-0.005 A 0.01,0.01 0 0 0 5.605,3.657 0.01,0.01 0 0 0 5.604,3.656 0.01,0.01 0 0 0 5.602,3.655 0.01,0.01 0 0 0 5.598,3.654 a 0.01,0.01 0 0 0 -0.002,0 0.01,0.01 0 0 0 -0.002,0 C 5.474,3.69 5.354,3.739 5.238,3.797 L 5.262,3.75 C 5.383,3.686 5.509,3.636 5.637,3.598 a 0.01,0.01 0 0 0 0.001,0 A 0.01,0.01 0 0 0 5.641,3.596 0.01,0.01 0 0 0 5.643,3.594 L 5.661,3.556 a 0.01,0.01 0 0 0 0,-0.003 0.01,0.01 0 0 0 0,-0.005 0.01,0.01 0 0 0 0,-0.002 A 0.01,0.01 0 0 0 5.658,3.544 0.01,0.01 0 0 0 5.657,3.543 0.01,0.01 0 0 0 5.652,3.542 a 0.01,0.01 0 0 0 -0.001,0 0.01,0.01 0 0 0 -10e-4,0 z M 6.2,3.62 6.138,3.621 a 0.01,0.01 0 0 0 -0.002,0 0.01,0.01 0 0 0 -0.003,0.002 0.01,0.01 0 0 0 -0.002,10e-4 0.01,0.01 0 0 0 0,0.002 0.01,0.01 0 0 0 -0.001,0 L 6.107,3.673 a 0.01,0.01 0 0 0 0,0.002 0.01,0.01 0 0 0 0,0.005 0.01,0.01 0 0 0 10e-4,0.003 0.01,0.01 0 0 0 0.002,0.002 0.01,0.01 0 0 0 0.003,0.002 0.01,0.01 0 0 0 0.003,0 h 0.06 A 0.01,0.01 0 0 0 6.178,3.686 0.01,0.01 0 0 0 6.182,3.685 0.01,0.01 0 0 0 6.184,3.683 0.01,0.01 0 0 0 6.185,3.681 L 6.208,3.634 a 0.01,0.01 0 0 0 0,-0.006 0.01,0.01 0 0 0 -0.001,-0.004 0.01,0.01 0 0 0 -0.003,-0.003 0.01,0.01 0 0 0 -0.003,0 0.01,0.01 0 0 0 -0.002,0 V 3.62 Z M 4.36,3.695 4.358,3.697 4.359,3.695 Z m 2.95,0.08 A 0.01,0.01 0 0 0 7.308,3.776 0.01,0.01 0 0 0 7.304,3.778 0.01,0.01 0 0 0 7.302,3.78 a 0.01,0.01 0 0 0 0,0.001 5.721,5.721 0 0 1 -0.023,0.047 0.01,0.01 0 0 0 0,0.001 0.01,0.01 0 0 0 0,0.005 A 0.01,0.01 0 0 0 7.28,3.837 0.01,0.01 0 0 0 7.281,3.839 0.01,0.01 0 0 0 7.283,3.84 L 7.339,3.867 A 0.01,0.01 0 0 0 7.345,3.868 0.01,0.01 0 0 0 7.348,3.866 0.01,0.01 0 0 0 7.35,3.865 0.01,0.01 0 0 0 7.351,3.863 L 7.374,3.816 a 0.01,0.01 0 0 0 0,-0.003 0.01,0.01 0 0 0 0,-0.005 A 0.01,0.01 0 0 0 7.372,3.805 0.01,0.01 0 0 0 7.37,3.804 2.703,2.703 0 0 0 7.314,3.777 0.01,0.01 0 0 0 7.313,3.776 a 0.01,0.01 0 0 0 -0.002,0 0.01,0.01 0 0 0 -0.001,0 z M 7.496,3.784 H 7.48 A 0.077,0.077 0 0 0 7.45,3.794 0.054,0.054 0 0 0 7.428,3.817 L 7.314,4.053 A 0.01,0.01 0 0 0 7.313,4.058 0.01,0.01 0 0 0 7.314,4.062 0.01,0.01 0 0 0 7.315,4.064 0.01,0.01 0 0 0 7.318,4.066 l 0.053,0.029 a 0.01,0.01 0 0 0 0.004,0.001 0.01,0.01 0 0 0 0.005,0 A 0.01,0.01 0 0 0 7.382,4.094 0.01,0.01 0 0 0 7.383,4.093 0.01,0.01 0 0 0 7.385,4.091 L 7.45,3.956 C 7.563,4.02 7.672,4.093 7.774,4.173 a 0.01,0.01 0 0 0 0.003,0.002 0.01,0.01 0 0 0 0.005,0 0.01,0.01 0 0 0 0.003,-0.002 0.01,0.01 0 0 0 0.002,0 0.01,0.01 0 0 0 0,-0.002 A 0.01,0.01 0 0 0 7.788,4.17 L 7.806,4.133 a 0.01,0.01 0 0 0 0,-0.002 0.01,0.01 0 0 0 0,-0.006 0.01,0.01 0 0 0 0,-0.002 0.01,0.01 0 0 0 -0.002,-0.002 0.01,0.01 0 0 0 -0.001,0 2.588,2.588 0 0 0 -0.327,-0.22 L 7.504,3.844 c 0.113,0.064 0.222,0.137 0.323,0.217 a 0.01,0.01 0 0 0 0.003,0.002 0.01,0.01 0 0 0 0.006,0 0.01,0.01 0 0 0 0.003,-0.002 0.01,0.01 0 0 0 10e-4,0 0.01,0.01 0 0 0 0.001,-0.002 0.01,0.01 0 0 0 0,-0.001 L 7.86,4.02 A 0.01,0.01 0 0 0 7.861,4.018 0.01,0.01 0 0 0 7.861,4.013 0.01,0.01 0 0 0 7.859,4.011 0.01,0.01 0 0 0 7.858,4.009 2.585,2.585 0 0 0 7.55,3.8 0.133,0.133 0 0 0 7.495,3.783 Z M 5.05,3.828 A 0.01,0.01 0 0 0 5.047,3.83 2.207,2.207 0 0 0 4.704,4.124 0.714,0.714 0 0 0 4.649,4.199 L 4.635,4.224 A 0.01,0.01 0 0 0 4.633,4.219 0.01,0.01 0 0 0 4.633,4.217 0.01,0.01 0 0 0 4.631,4.216 0.01,0.01 0 0 0 4.629,4.214 0.01,0.01 0 0 0 4.625,4.214 0.01,0.01 0 0 0 4.62,4.215 0.01,0.01 0 0 0 4.619,4.216 0.01,0.01 0 0 0 4.618,4.217 2.622,2.622 0 0 0 4.33,4.627 C 4.32,4.643 4.313,4.658 4.305,4.673 L 4.283,4.715 4.267,4.746 4.153,4.982 a 0.01,0.01 0 0 0 0,10e-4 0.01,0.01 0 0 0 0,0.006 0.01,0.01 0 0 0 0,0.003 0.01,0.01 0 0 0 0.003,0.003 0.01,0.01 0 0 0 0.002,0 A 0.01,0.01 0 0 0 4.163,4.996 0.01,0.01 0 0 0 4.167,4.995 0.01,0.01 0 0 0 4.168,4.993 0.01,0.01 0 0 0 4.17,4.991 L 4.209,4.923 4.279,4.778 C 4.364,4.631 4.457,4.5 4.557,4.383 l -0.04,0.082 a 0.01,0.01 0 0 0 0,0.005 0.01,0.01 0 0 0 10e-4,0.004 0.01,0.01 0 0 0 0.001,10e-4 0.01,0.01 0 0 0 0.002,0.002 0.01,0.01 0 0 0 0.001,0 0.01,0.01 0 0 0 0.004,10e-4 0.01,0.01 0 0 0 0.004,0 0.01,0.01 0 0 0 0.002,-0.002 0.01,0.01 0 0 0 0.001,0 L 4.581,4.425 a 0.01,0.01 0 0 0 10e-4,-0.002 0.01,0.01 0 0 0 0,-0.001 L 4.652,4.279 C 4.757,4.17 4.869,4.075 4.985,3.995 A 0.01,0.01 0 0 0 4.987,3.994 0.01,0.01 0 0 0 4.988,3.992 L 5.006,3.954 a 0.01,0.01 0 0 0 0,-0.001 0.01,0.01 0 0 0 0,-0.006 0.01,0.01 0 0 0 0,-0.003 A 0.01,0.01 0 0 0 5.004,3.943 0.01,0.01 0 0 0 5.003,3.942 0.01,0.01 0 0 0 5,3.94 0.01,0.01 0 0 0 4.995,3.94 0.01,0.01 0 0 0 4.992,3.941 2.224,2.224 0 0 0 4.692,4.193 L 4.706,4.166 C 4.811,4.056 4.922,3.962 5.039,3.882 a 0.01,0.01 0 0 0 0.002,-0.001 0.01,0.01 0 0 0 0,-0.002 0.01,0.01 0 0 0 10e-4,0 L 5.06,3.841 A 0.01,0.01 0 0 0 5.061,3.839 0.01,0.01 0 0 0 5.061,3.833 0.01,0.01 0 0 0 5.06,3.831 0.01,0.01 0 0 0 5.058,3.83 0.01,0.01 0 0 0 5.055,3.828 a 0.01,0.01 0 0 0 -0.003,0 0.01,0.01 0 0 0 -0.002,0 z M 5.116,3.841 A 0.01,0.01 0 0 0 5.112,3.842 2.038,2.038 0 0 0 5.058,3.876 0.01,0.01 0 0 0 5.057,3.877 0.01,0.01 0 0 0 5.055,3.879 a 0.01,0.01 0 0 0 0,10e-4 L 5.032,3.927 a 0.01,0.01 0 0 0 0,10e-4 0.01,0.01 0 0 0 0,0.005 0.01,0.01 0 0 0 0,0.004 0.01,0.01 0 0 0 0.001,0 0.01,0.01 0 0 0 0.002,0.002 0.01,0.01 0 0 0 10e-4,0 A 0.01,0.01 0 0 0 5.041,3.94 0.01,0.01 0 0 0 5.046,3.939 L 5.1,3.905 A 0.01,0.01 0 0 0 5.102,3.903 0.01,0.01 0 0 0 5.103,3.902 L 5.126,3.854 a 0.01,0.01 0 0 0 0,-0.004 0.01,0.01 0 0 0 0,-0.005 0.01,0.01 0 0 0 -0.001,-0.001 0.01,0.01 0 0 0 -0.002,-0.002 0.01,0.01 0 0 0 -0.001,0 0.01,0.01 0 0 0 -0.004,-10e-4 0.01,0.01 0 0 0 -0.002,0 z m 2.15,0.023 A 0.01,0.01 0 0 0 7.263,3.865 0.01,0.01 0 0 0 7.261,3.866 0.01,0.01 0 0 0 7.259,3.87 L 7.236,3.916 a 0.01,0.01 0 0 0 0,0.003 0.01,0.01 0 0 0 0,0.004 0.01,0.01 0 0 0 0.001,0.003 0.01,0.01 0 0 0 0.002,10e-4 0.01,0.01 0 0 0 0.002,0.002 l 0.055,0.026 a 0.01,0.01 0 0 0 0.002,10e-4 0.01,0.01 0 0 0 0.006,0 A 0.01,0.01 0 0 0 7.305,3.955 0.01,0.01 0 0 0 7.307,3.953 0.01,0.01 0 0 0 7.309,3.951 L 7.331,3.904 a 0.01,0.01 0 0 0 0,-0.005 0.01,0.01 0 0 0 0,-0.004 A 0.01,0.01 0 0 0 7.33,3.894 0.01,0.01 0 0 0 7.328,3.892 0.01,0.01 0 0 0 7.327,3.892 2.396,2.396 0 0 0 7.271,3.865 0.01,0.01 0 0 0 7.267,3.864 Z M 8.792,3.896 A 0.02,0.02 0 0 0 8.777,3.906 L 8.749,3.964 a 0.02,0.02 0 0 0 0.002,0.02 L 8.796,4.042 A 0.02,0.02 0 0 0 8.829,4.039 L 8.856,3.982 A 0.02,0.02 0 0 0 8.854,3.962 L 8.808,3.903 a 0.02,0.02 0 0 0 -0.014,-0.007 0.02,0.02 0 0 0 -0.002,0 z M 5.074,3.928 a 0.01,0.01 0 0 0 0,10e-4 A 0.01,0.01 0 0 0 5.069,3.93 L 5.015,3.965 a 0.01,0.01 0 0 0 -10e-4,0 0.01,0.01 0 0 0 -0.002,0.003 L 4.989,4.015 a 0.01,0.01 0 0 0 -10e-4,0.004 0.01,0.01 0 0 0 10e-4,0.005 0.01,0.01 0 0 0 0.001,0.002 0.01,0.01 0 0 0 0.003,0.002 0.01,0.01 0 0 0 0.004,0 0.01,0.01 0 0 0 0.005,0 L 5.057,3.993 A 0.01,0.01 0 0 0 5.059,3.991 0.01,0.01 0 0 0 5.06,3.99 0.01,0.01 0 0 0 5.06,3.989 C 5.068,3.973 5.076,3.959 5.083,3.942 a 0.01,0.01 0 0 0 0,-0.002 0.01,0.01 0 0 0 0,-0.006 A 0.01,0.01 0 0 0 5.081,3.931 0.01,0.01 0 0 0 5.079,3.93 0.01,0.01 0 0 0 5.077,3.929 a 0.01,0.01 0 0 0 -0.002,0 0.01,0.01 0 0 0 -0.001,0 z m 3.864,0.043 c -0.01,0 -0.02,10e-4 -0.028,0.006 a 0.02,0.02 0 0 0 -10e-4,0 0.06,0.06 0 0 0 -0.027,0.028 0.02,0.02 0 0 0 0,0.001 l -0.14,0.287 a 0.02,0.02 0 0 0 0.002,0.02 l 0.041,0.06 A 0.02,0.02 0 0 0 8.818,4.371 L 8.888,4.227 C 8.969,4.353 9.042,4.485 9.101,4.625 A 0.02,0.02 0 0 0 9.135,4.626 L 9.157,4.581 A 0.02,0.02 0 0 0 9.159,4.574 0.02,0.02 0 0 0 9.159,4.565 0.02,0.02 0 0 0 9.158,4.563 2.72,2.72 0 0 0 8.931,4.14 L 8.954,4.09 c 0.082,0.127 0.154,0.259 0.213,0.399 a 0.02,0.02 0 0 0 0.035,0 L 9.224,4.444 a 0.02,0.02 0 0 0 0,-0.016 A 2.668,2.668 0 0 0 9.014,4.029 0.152,0.152 0 0 0 8.983,3.993 0.09,0.09 0 0 0 8.948,3.973 0.061,0.061 0 0 0 8.938,3.971 Z M 8.74,4.003 A 0.02,0.02 0 0 0 8.725,4.014 L 8.697,4.071 a 0.02,0.02 0 0 0 0.002,0.02 l 0.045,0.06 A 0.02,0.02 0 0 0 8.777,4.147 L 8.804,4.09 A 0.02,0.02 0 0 0 8.802,4.07 L 8.757,4.01 a 0.02,0.02 0 0 0 -0.015,-0.007 0.02,0.02 0 0 0 -0.002,0 z m 1.271,0.068 c -0.008,0 -0.017,0 -0.025,0.004 A 0.072,0.072 0 0 0 9.951,4.112 l -0.17,0.352 a 0.029,0.029 0 0 0 -0.003,0.012 0.029,0.029 0 0 0 0.003,0.01 l 0.032,0.086 a 0.029,0.029 0 0 0 0.053,0.003 l 0.072,-0.15 c 0.057,0.168 0.102,0.341 0.13,0.521 a 0.029,0.029 0 0 0 0.037,0.024 l -0.007,0.013 a 0.029,0.029 0 0 0 -0.002,0.016 l 0.002,0.03 a 0.029,0.029 0 0 0 -0.03,0.016 l -0.034,0.07 A 0.029,0.029 0 0 0 10.031,5.13 c 0.005,0.032 0.008,0.064 0.01,0.095 a 0.029,0.029 0 0 0 0.045,0.021 L 9.995,5.435 A 0.029,0.029 0 0 0 9.992,5.449 l 0.004,0.096 a 0.029,0.029 0 0 0 0.055,0.012 L 10.098,5.46 a 3.34,3.34 0 0 1 -0.046,0.528 0.029,0.029 0 0 0 0.013,0.03 L 9.931,6.293 A 0.029,0.029 0 0 0 9.929,6.299 L 9.906,6.403 A 0.029,0.029 0 0 0 9.939,6.438 4.16,4.16 0 0 1 9.775,6.889 0.029,0.029 0 0 0 9.827,6.913 H 9.828 L 9.855,6.857 C 9.87,6.824 9.879,6.793 9.892,6.761 A 0.029,0.029 0 0 0 9.909,6.746 H 9.91 L 9.936,6.691 A 0.029,0.029 0 0 0 9.937,6.69 4.13,4.13 0 0 0 10.174,5.978 0.14,0.14 0 0 0 10.176,5.938 c 0,-0.006 0,-0.013 -0.009,-0.023 a 0.034,0.034 0 0 0 -0.02,-0.011 l -0.008,0.001 0.007,-0.054 a 0.029,0.029 0 0 0 0.04,-0.012 l 0.027,-0.056 a 0.029,0.029 0 0 0 0.002,-0.008 3.41,3.41 0 0 0 0.052,-0.614 0.66,0.66 0 0 0 -0.005,-0.052 0.029,0.029 0 0 0 0,-0.005 0.029,0.029 0 0 0 0,-0.001 0.102,0.102 0 0 0 -0.017,-0.041 0.041,0.041 0 0 0 -0.021,-0.016 0.042,0.042 0 0 0 -0.03,0.002 C 10.187,5.051 10.184,5.056 10.179,5.06 L 10.192,5.034 A 0.029,0.029 0 0 0 10.194,5.019 1.89,1.89 0 0 0 10.184,4.922 0.029,0.029 0 0 0 10.146,4.898 0.029,0.029 0 0 0 10.149,4.882 C 10.119,4.678 10.068,4.482 10,4.293 l 0.018,-0.035 c 0.056,0.168 0.101,0.341 0.128,0.522 A 0.029,0.029 0 0 0 10.2,4.788 L 10.227,4.732 A 0.029,0.029 0 0 0 10.23,4.715 3.064,3.064 0 0 0 10.096,4.164 0.212,0.212 0 0 0 10.07,4.11 0.1,0.1 0 0 0 10.035,4.077 0.06,0.06 0 0 0 10.011,4.071 Z M 7.908,4.077 A 0.06,0.06 0 0 0 7.878,4.083 0.048,0.048 0 0 0 7.857,4.106 L 7.743,4.341 a 0.01,0.01 0 0 0 0,0.003 0.01,0.01 0 0 0 0,0.005 0.01,0.01 0 0 0 10e-4,0.002 0.01,0.01 0 0 0 0.001,0.002 l 0.047,0.039 a 0.01,0.01 0 0 0 0.001,0.002 0.01,0.01 0 0 0 0.003,0 0.01,0.01 0 0 0 0.006,0 0.01,0.01 0 0 0 0.002,-0.002 0.01,0.01 0 0 0 0.002,-0.002 0.01,0.01 0 0 0 0,-10e-4 L 7.871,4.256 c 0.097,0.085 0.187,0.177 0.27,0.277 a 0.01,0.01 0 0 0 0,10e-4 0.01,0.01 0 0 0 0.002,0.001 0.01,0.01 0 0 0 0.003,10e-4 0.01,0.01 0 0 0 0.005,0 A 0.01,0.01 0 0 0 8.153,4.535 0.01,0.01 0 0 0 8.155,4.533 0.01,0.01 0 0 0 8.156,4.531 L 8.175,4.494 a 0.01,0.01 0 0 0 0,-0.004 0.01,0.01 0 0 0 0,-0.006 0.01,0.01 0 0 0 -0.001,0 A 2.42,2.42 0 0 0 7.898,4.201 L 7.926,4.144 c 0.096,0.085 0.187,0.178 0.269,0.277 a 0.01,0.01 0 0 0 10e-4,10e-4 0.01,0.01 0 0 0 0.003,0.002 0.01,0.01 0 0 0 0.006,0 0.01,0.01 0 0 0 0.003,-0.002 0.01,0.01 0 0 0 10e-4,0 0.01,0.01 0 0 0 0.001,-0.002 0.01,0.01 0 0 0 0,-0.001 L 8.229,4.382 A 0.01,0.01 0 0 0 8.231,4.378 0.01,0.01 0 0 0 8.229,4.373 0.01,0.01 0 0 0 8.229,4.371 2.443,2.443 0 0 0 7.974,4.106 0.126,0.126 0 0 0 7.941,4.085 0.086,0.086 0 0 0 7.909,4.077 Z M 4.611,4.271 4.581,4.335 A 0.01,0.01 0 0 0 4.579,4.331 0.01,0.01 0 0 0 4.577,4.328 0.01,0.01 0 0 0 4.574,4.326 a 0.01,0.01 0 0 0 -0.003,0 0.01,0.01 0 0 0 -0.002,0 C 4.583,4.308 4.596,4.288 4.611,4.271 Z m 3.603,0.22 a 0.01,0.01 0 0 0 0,0.001 A 0.01,0.01 0 0 0 8.211,4.494 0.01,0.01 0 0 0 8.209,4.496 L 8.187,4.543 a 0.01,0.01 0 0 0 -10e-4,0.003 0.01,0.01 0 0 0 0,0.006 0.01,0.01 0 0 0 10e-4,0.001 L 8.224,4.602 A 0.01,0.01 0 0 0 8.227,4.604 0.01,0.01 0 0 0 8.232,4.605 0.01,0.01 0 0 0 8.237,4.604 0.01,0.01 0 0 0 8.238,4.603 0.01,0.01 0 0 0 8.24,4.601 L 8.263,4.554 A 0.01,0.01 0 0 0 8.264,4.549 0.01,0.01 0 0 0 8.263,4.544 a 0.01,0.01 0 0 0 -10e-4,0 L 8.225,4.495 A 0.01,0.01 0 0 0 8.224,4.494 0.01,0.01 0 0 0 8.221,4.492 a 0.01,0.01 0 0 0 -0.003,0 0.01,0.01 0 0 0 -0.004,0 z m 1.012,0.04 A 0.04,0.04 0 0 0 9.208,4.534 0.056,0.056 0 0 0 9.182,4.563 L 9.042,4.85 a 0.02,0.02 0 0 0 0,0.012 0.02,0.02 0 0 0 0,0.003 c 0.01,0.023 0.018,0.047 0.027,0.07 A 0.02,0.02 0 0 0 9.104,4.937 L 9.168,4.804 C 9.216,4.945 9.253,5.09 9.276,5.242 A 0.02,0.02 0 0 0 9.312,5.247 L 9.334,5.202 A 0.02,0.02 0 0 0 9.336,5.19 2.601,2.601 0 0 0 9.215,4.708 l 0.02,-0.04 c 0.047,0.14 0.084,0.286 0.107,0.437 A 0.02,0.02 0 0 0 9.378,5.111 L 9.4,5.065 A 0.02,0.02 0 0 0 9.403,5.054 2.624,2.624 0 0 0 9.292,4.604 0.181,0.181 0 0 0 9.272,4.561 0.076,0.076 0 0 0 9.244,4.535 0.02,0.02 0 0 0 9.243,4.535 0.045,0.045 0 0 0 9.226,4.531 Z M 8.336,4.554 A 0.04,0.04 0 0 0 8.316,4.557 0.043,0.043 0 0 0 8.296,4.578 L 8.181,4.814 a 0.01,0.01 0 0 0 0,0.003 0.01,0.01 0 0 0 0,0.005 0.01,0.01 0 0 0 0.001,0.001 l 0.035,0.05 a 0.01,0.01 0 0 0 0,0.002 0.01,0.01 0 0 0 10e-4,0 0.01,0.01 0 0 0 0.002,0.002 0.01,0.01 0 0 0 0.004,0 0.01,0.01 0 0 0 0.005,0 0.01,0.01 0 0 0 0.002,-10e-4 0.01,0.01 0 0 0 0.002,-0.002 0.01,0.01 0 0 0 0,-10e-4 l 0.062,-0.13 c 0.07,0.108 0.13,0.22 0.181,0.338 a 0.01,0.01 0 0 0 0.002,0.003 0.01,0.01 0 0 0 0.002,0.003 0.01,0.01 0 0 0 0.004,0 0.01,0.01 0 0 0 0.004,0 0.01,0.01 0 0 0 0.003,-0.002 0.01,0.01 0 0 0 0.002,-0.002 0.01,0.01 0 0 0 0,-0.001 L 8.511,5.045 a 0.01,0.01 0 0 0 0.001,-0.004 0.01,0.01 0 0 0 0,-0.003 0.01,0.01 0 0 0 0,-0.002 2.195,2.195 0 0 0 -0.189,-0.35 L 8.349,4.632 c 0.07,0.107 0.13,0.219 0.18,0.337 a 0.01,0.01 0 0 0 0.002,0.003 0.01,0.01 0 0 0 0.002,0.002 0.01,0.01 0 0 0 0.002,0 0.01,0.01 0 0 0 0.006,0 0.01,0.01 0 0 0 0.003,0 0.01,0.01 0 0 0 0.002,-0.002 0.01,0.01 0 0 0 0,-0.001 A 0.01,0.01 0 0 0 8.547,4.97 L 8.565,4.933 a 0.01,0.01 0 0 0 0,-0.002 A 0.01,0.01 0 0 0 8.566,4.925 2.27,2.27 0 0 0 8.393,4.598 0.118,0.118 0 0 0 8.369,4.569 0.069,0.069 0 0 0 8.342,4.555 L 8.335,4.554 Z M 8.174,4.58 A 0.01,0.01 0 0 0 8.171,4.58 0.01,0.01 0 0 0 8.168,4.582 0.01,0.01 0 0 0 8.166,4.585 L 8.144,4.632 a 0.01,0.01 0 0 0 -10e-4,0.002 0.01,0.01 0 0 0 0,0.006 0.01,0.01 0 0 0 10e-4,0.002 L 8.181,4.69 a 0.01,0.01 0 0 0 0.003,0.003 0.01,0.01 0 0 0 0.003,0 0.01,0.01 0 0 0 0.004,0 0.01,0.01 0 0 0 0.003,0 0.01,0.01 0 0 0 10e-4,-0.002 0.01,0.01 0 0 0 0.002,-10e-4 0.01,0.01 0 0 0 0,-0.001 L 8.22,4.642 a 0.01,0.01 0 0 0 0,-0.007 0.01,0.01 0 0 0 0,-0.002 0.01,0.01 0 0 0 0,-0.001 A 1.557,1.557 0 0 0 8.182,4.583 0.01,0.01 0 0 0 8.178,4.581 0.01,0.01 0 0 0 8.175,4.58 a 0.01,0.01 0 0 0 -0.001,0 z m 0.398,0.433 c -0.004,0 -0.008,0 -0.012,0.002 A 0.04,0.04 0 0 0 8.542,5.035 L 8.427,5.271 a 0.01,0.01 0 0 0 -10e-4,0.003 0.01,0.01 0 0 0 0,0.002 0.01,0.01 0 0 0 0,0.003 0.01,0.01 0 0 0 10e-4,0 l 0.022,0.057 a 0.01,0.01 0 0 0 0.002,0.003 0.01,0.01 0 0 0 0.002,0.002 0.01,0.01 0 0 0 0.003,10e-4 0.01,0.01 0 0 0 0.004,0 A 0.01,0.01 0 0 0 8.464,5.34 0.01,0.01 0 0 0 8.467,5.338 L 8.527,5.215 C 8.567,5.335 8.6,5.46 8.619,5.589 a 0.01,0.01 0 0 0 0,0.002 0.01,0.01 0 0 0 0.002,0.002 0.01,0.01 0 0 0 10e-4,0.002 0.01,0.01 0 0 0 0.003,0.002 0.01,0.01 0 0 0 0.005,0 A 0.01,0.01 0 0 0 8.634,5.596 0.01,0.01 0 0 0 8.636,5.594 0.01,0.01 0 0 0 8.637,5.592 L 8.655,5.555 a 0.01,0.01 0 0 0 0.001,-0.003 0.01,0.01 0 0 0 0,-0.003 2.117,2.117 0 0 0 -0.1,-0.397 L 8.58,5.102 c 0.042,0.12 0.074,0.246 0.093,0.375 a 0.01,0.01 0 0 0 0,0.003 0.01,0.01 0 0 0 0.002,0.002 0.01,0.01 0 0 0 0.002,10e-4 0.01,0.01 0 0 0 0.002,0.001 0.01,0.01 0 0 0 0.003,0.001 0.01,0.01 0 0 0 0.005,0 A 0.01,0.01 0 0 0 8.688,5.483 0.01,0.01 0 0 0 8.69,5.481 0.01,0.01 0 0 0 8.691,5.48 L 8.71,5.443 a 0.01,0.01 0 0 0 0,-10e-4 0.01,0.01 0 0 0 0,-0.005 A 2.101,2.101 0 0 0 8.62,5.069 0.124,0.124 0 0 0 8.605,5.036 0.058,0.058 0 0 0 8.585,5.016 0.01,0.01 0 0 0 8.584,5.016 0.035,0.035 0 0 0 8.572,5.013 Z m 1.577,0.101 -0.017,0.037 -0.003,-0.032 a 0.029,0.029 0 0 0 0.02,-0.005 z M 9.345,5.206 A 0.02,0.02 0 0 0 9.329,5.217 c -0.01,0.02 -0.02,0.038 -0.028,0.057 a 0.02,0.02 0 0 0 -0.002,0.01 c 0,0.011 0.002,0.021 0.003,0.032 A 0.02,0.02 0 0 0 9.276,5.325 L 9.249,5.382 A 0.02,0.02 0 0 0 9.246,5.392 L 9.254,5.47 A 0.02,0.02 0 0 0 9.291,5.476 L 9.318,5.419 A 0.02,0.02 0 0 0 9.32,5.409 L 9.317,5.377 A 0.02,0.02 0 0 0 9.343,5.369 L 9.37,5.311 A 0.02,0.02 0 0 0 9.373,5.301 L 9.365,5.223 A 0.02,0.02 0 0 0 9.345,5.206 Z m 0.05,0.12 H 9.394 A 0.03,0.03 0 0 0 9.379,5.329 C 9.366,5.335 9.361,5.345 9.356,5.356 L 9.216,5.643 A 0.02,0.02 0 0 0 9.214,5.653 L 9.218,5.731 A 0.02,0.02 0 0 0 9.254,5.74 L 9.301,5.643 C 9.3,5.79 9.289,5.94 9.262,6.095 a 0.02,0.02 0 0 0 0.013,0.02 l -0.11,0.23 A 0.02,0.02 0 0 0 9.163,6.349 3.66,3.66 0 0 1 9.145,6.434 0.02,0.02 0 0 0 9.175,6.454 C 9.137,6.578 9.094,6.704 9.038,6.832 A 0.02,0.02 0 0 0 9.073,6.848 V 6.847 L 9.096,6.802 C 9.108,6.774 9.116,6.748 9.127,6.721 A 0.02,0.02 0 0 0 9.14,6.711 H 9.141 L 9.163,6.665 C 9.243,6.485 9.303,6.307 9.346,6.132 L 9.356,6.084 A 0.147,0.147 0 0 0 9.359,6.052 c 0,-0.005 0,-0.01 -0.006,-0.016 A 0.02,0.02 0 0 0 9.339,6.028 c -0.004,0 -0.008,0.001 -0.01,0.003 L 9.336,5.972 A 0.02,0.02 0 0 0 9.368,5.969 L 9.39,5.924 A 0.02,0.02 0 0 0 9.391,5.919 C 9.421,5.747 9.434,5.58 9.432,5.417 c 0,-0.016 0,-0.03 -0.004,-0.042 a 0.02,0.02 0 0 0 0,-0.004 A 0.08,0.08 0 0 0 9.415,5.339 0.031,0.031 0 0 0 9.4,5.327 H 9.394 Z M 5.535,5.41 V 7.387 H 6.028 V 6.806 H 6.191 C 6.726,6.806 7.079,6.512 7.079,6.068 7.079,5.655 6.777,5.41 6.273,5.41 H 5.536 Z m 3.832,0.097 c 0,0.07 -0.002,0.142 -0.008,0.214 0.004,-0.07 0.007,-0.14 0.005,-0.207 z m -0.7,0.06 a 0.01,0.01 0 0 0 0,10e-4 A 0.01,0.01 0 0 0 8.665,5.569 0.01,0.01 0 0 0 8.663,5.571 0.01,0.01 0 0 0 8.661,5.573 3.86,3.86 0 0 0 8.639,5.619 0.01,0.01 0 0 0 8.638,5.623 a 0.01,0.01 0 0 0 0,0.002 l 0.007,0.064 a 0.01,0.01 0 0 0 0,0.002 0.01,0.01 0 0 0 0.002,0.003 0.01,0.01 0 0 0 0.004,0.002 0.01,0.01 0 0 0 0.003,0.001 0.01,0.01 0 0 0 0.005,-0.001 0.01,0.01 0 0 0 10e-4,-10e-4 0.01,0.01 0 0 0 0.003,-0.002 0.01,0.01 0 0 0 0,-10e-4 L 8.685,5.645 a 0.01,0.01 0 0 0 10e-4,-0.002 0.01,0.01 0 0 0 0,-0.003 L 8.68,5.576 A 0.01,0.01 0 0 0 8.68,5.573 0.01,0.01 0 0 0 8.678,5.571 0.01,0.01 0 0 0 8.675,5.569 0.01,0.01 0 0 0 8.672,5.568 a 0.01,0.01 0 0 0 -0.002,0 0.01,0.01 0 0 0 -0.002,0 z M 8.626,5.655 a 0.01,0.01 0 0 0 -0.002,10e-4 0.01,0.01 0 0 0 -0.002,0.002 0.01,0.01 0 0 0 -0.002,0 0.01,0.01 0 0 0 0,0.002 0.01,0.01 0 0 0 -10e-4,0 L 8.596,5.708 a 0.01,0.01 0 0 0 0,10e-4 0.01,0.01 0 0 0 0,0.004 l 0.006,0.064 a 0.01,0.01 0 0 0 0.002,0.004 0.01,0.01 0 0 0 0.002,0.002 0.01,0.01 0 0 0 10e-4,10e-4 0.01,0.01 0 0 0 0.003,0.001 0.01,0.01 0 0 0 0.005,0 A 0.01,0.01 0 0 0 8.617,5.784 0.01,0.01 0 0 0 8.619,5.782 0.01,0.01 0 0 0 8.62,5.78 L 8.643,5.734 a 0.01,0.01 0 0 0 0,-0.003 0.01,0.01 0 0 0 0,-0.003 L 8.637,5.664 A 0.01,0.01 0 0 0 8.636,5.661 0.01,0.01 0 0 0 8.635,5.659 0.01,0.01 0 0 0 8.633,5.657 0.01,0.01 0 0 0 8.63,5.656 a 0.01,0.01 0 0 0 -0.003,0 0.01,0.01 0 0 0 -0.001,0 z M 8.71,5.665 H 8.706 A 0.017,0.017 0 0 0 8.7,5.668 C 8.692,5.671 8.687,5.678 8.683,5.687 L 8.569,5.923 a 0.01,0.01 0 0 0 0,0.004 l 0.002,0.065 a 0.01,0.01 0 0 0 0,0.004 0.01,0.01 0 0 0 0.002,0.002 0.01,0.01 0 0 0 0,10e-4 0.01,0.01 0 0 0 0.005,0.003 0.01,0.01 0 0 0 0.005,0 A 0.01,0.01 0 0 0 8.586,6 0.01,0.01 0 0 0 8.588,5.998 0.01,0.01 0 0 0 8.589,5.997 l 0.05,-0.105 c 0.002,0.13 -0.008,0.263 -0.031,0.4 a 0.01,0.01 0 0 0 0,0.002 0.01,0.01 0 0 0 10e-4,0.004 0.01,0.01 0 0 0 10e-4,0.001 0.01,0.01 0 0 0 0.002,0.002 0.01,0.01 0 0 0 0.002,10e-4 0.01,0.01 0 0 0 0.006,0 0.01,0.01 0 0 0 0.002,0 L 8.527,6.498 a 0.01,0.01 0 0 0 0,0.002 L 8.511,6.57 a 0.01,0.01 0 0 0 0,0.006 0.01,0.01 0 0 0 0.002,0.002 0.01,0.01 0 0 0 0.002,0.002 0.01,0.01 0 0 0 10e-4,0.002 0.01,0.01 0 0 0 0.004,0 0.01,0.01 0 0 0 0.005,-10e-4 0.01,0.01 0 0 0 10e-4,-0.001 0.01,0.01 0 0 0 0.002,-0.002 0.01,0.01 0 0 0 0,-0.001 L 8.551,6.53 C 8.518,6.651 8.478,6.774 8.423,6.898 a 0.01,0.01 0 0 0 0,0.006 0.01,0.01 0 0 0 0,0.003 0.01,0.01 0 0 0 0.002,0.002 0.01,0.01 0 0 0 0.002,0.001 0.01,0.01 0 0 0 0.005,10e-4 0.01,0.01 0 0 0 0.005,0 A 0.01,0.01 0 0 0 8.438,6.909 0.01,0.01 0 0 0 8.44,6.906 L 8.441,6.905 8.459,6.868 a 0.01,0.01 0 0 0 0.001,0 l 0.027,-0.07 a 0.01,0.01 0 0 0 10e-4,0 0.01,0.01 0 0 0 0.004,-0.001 0.01,0.01 0 0 0 0.002,-10e-4 0.01,0.01 0 0 0 0.002,-0.002 0.01,0.01 0 0 0 0,-10e-4 H 8.497 L 8.515,6.755 A 2.768,2.768 0 0 0 8.673,6.279 0.123,0.123 0 0 0 8.676,6.255 c 0,-0.003 0,-0.007 -0.004,-0.01 A 0.012,0.012 0 0 0 8.664,6.24 L 8.658,6.243 A 0.017,0.017 0 0 0 8.65,6.25 V 6.252 C 8.675,6.102 8.686,5.954 8.682,5.81 8.688,5.8 8.692,5.788 8.698,5.777 8.699,5.907 8.69,6.041 8.666,6.177 a 0.01,0.01 0 0 0 0,0.005 0.01,0.01 0 0 0 0.002,0.003 0.01,0.01 0 0 0 0,0.001 0.01,0.01 0 0 0 0.004,0.002 0.01,0.01 0 0 0 0.006,0 0.01,0.01 0 0 0 0.002,0 A 0.01,0.01 0 0 0 8.682,6.187 0.01,0.01 0 0 0 8.683,6.185 0.01,0.01 0 0 0 8.684,6.184 L 8.702,6.146 a 0.01,0.01 0 0 0 0,-0.003 C 8.727,6.003 8.738,5.866 8.737,5.733 8.737,5.718 8.736,5.706 8.734,5.696 a 0.01,0.01 0 0 0 0,-0.003 C 8.731,5.684 8.729,5.677 8.726,5.672 A 0.02,0.02 0 0 0 8.716,5.665 Z M 6.028,5.843 h 0.205 c 0.2,0 0.334,0.108 0.334,0.273 0,0.16 -0.112,0.257 -0.288,0.257 h -0.25 v -0.53 z"
     id="path4"
     inkscape:connector-curvature="0" />
</svg>
