<?xml version="1.0" encoding="UTF-8" standalone="no"?>
<svg
   xmlns:dc="http://purl.org/dc/elements/1.1/"
   xmlns:cc="http://creativecommons.org/ns#"
   xmlns:rdf="http://www.w3.org/1999/02/22-rdf-syntax-ns#"
   xmlns:svg="http://www.w3.org/2000/svg"
   xmlns="http://www.w3.org/2000/svg"
   xmlns:sodipodi="http://sodipodi.sourceforge.net/DTD/sodipodi-0.dtd"
   xmlns:inkscape="http://www.inkscape.org/namespaces/inkscape"
   width="48"
   height="48"
   viewBox="0 0 12.7 12.7"
   version="1.1"
   id="svg4"
   sodipodi:docname="cowpatty.svg"
   inkscape:version="0.92.5 (2060ec1f9f, 2020-04-08)">
  <metadata
     id="metadata10">
    <rdf:RDF>
      <cc:Work
         rdf:about="">
        <dc:format>image/svg+xml</dc:format>
        <dc:type
           rdf:resource="http://purl.org/dc/dcmitype/StillImage" />
        <dc:title></dc:title>
      </cc:Work>
    </rdf:RDF>
  </metadata>
  <defs
     id="defs8" />
  <sodipodi:namedview
     pagecolor="#ffffff"
     bordercolor="#666666"
     borderopacity="1"
     objecttolerance="10"
     gridtolerance="10"
     guidetolerance="10"
     inkscape:pageopacity="0"
     inkscape:pageshadow="2"
     inkscape:window-width="1085"
     inkscape:window-height="480"
     id="namedview6"
     showgrid="false"
     inkscape:zoom="4.9166667"
     inkscape:cx="2.1355932"
     inkscape:cy="24"
     inkscape:window-x="0"
     inkscape:window-y="25"
     inkscape:window-maximized="0"
     inkscape:current-layer="svg4" />
  <path
     d="M 6.34,0.075 A 6.295,6.295 0 0 0 0.055,6.36 6.295,6.295 0 0 0 6.34,12.655 6.295,6.295 0 0 0 12.634,6.36 6.295,6.295 0 0 0 6.34,0.075 Z m -0.011,0.94 a 5.408,5.408 0 0 1 5.397,5.387 5.407,5.407 0 0 1 -10.814,0 c 0,-2.987 2.43,-5.387 5.417,-5.387 z M 7.923,2.19 C 7.878,2.19 7.863,2.207 7.84,2.238 7.78,2.32 7.778,2.52 7.837,2.565 7.862,2.583 7.983,2.617 8.106,2.639 8.416,2.693 8.763,2.874 8.989,3.096 9.209,3.313 9.423,3.71 9.456,3.962 9.468,4.055 9.494,4.168 9.512,4.212 H 9.51 c 0.027,0.067 0.06,0.08 0.196,0.08 0.205,0 0.222,-0.04 0.166,-0.372 A 2.127,2.127 0 0 0 9.068,2.622 2.004,2.004 0 0 0 8.181,2.232 1.59,1.59 0 0 0 7.921,2.19 Z M 4.758,2.193 A 0.734,0.734 0 0 0 4.611,2.2 2.167,2.167 0 0 0 3.339,2.867 C 3.004,3.221 2.785,3.717 2.784,4.123 v 0.17 H 2.98 c 0.175,0 0.197,-0.009 0.211,-0.08 C 3.301,3.636 3.401,3.42 3.7,3.12 3.96,2.859 4.257,2.705 4.628,2.638 L 4.877,2.593 4.887,2.438 C 4.9,2.27 4.874,2.203 4.758,2.193 Z M 4.746,2.953 A 0.824,0.824 0 0 0 4.604,2.973 C 4.338,3.029 4.164,3.124 3.94,3.335 3.676,3.585 3.474,4.048 3.547,4.237 c 0.015,0.04 0.072,0.056 0.2,0.056 0.167,0 0.182,-0.007 0.201,-0.099 C 4.031,3.807 4.253,3.524 4.554,3.421 4.65,3.389 4.756,3.362 4.79,3.362 4.863,3.362 4.894,3.292 4.894,3.132 4.894,3 4.861,2.949 4.746,2.952 Z M 7.914,2.97 C 7.834,2.967 7.825,2.986 7.807,3.058 7.765,3.225 7.829,3.338 7.981,3.369 a 0.95,0.95 0 0 1 0.727,0.663 c 0.033,0.114 0.067,0.22 0.076,0.235 0.01,0.016 0.092,0.024 0.183,0.019 L 9.134,4.275 9.129,4.106 C 9.112,3.6 8.557,3.034 8.022,2.98 A 1.716,1.716 0 0 0 7.914,2.97 Z m -3.31,0.786 c -0.178,0 -0.287,0.3 -0.287,0.793 0,0.328 0.056,0.515 0.225,0.754 C 4.629,5.424 4.6,5.413 4.365,5.234 4.195,5.105 3.915,5.008 3.711,5.008 3.372,5.008 2.807,5.286 2.577,5.564 2.359,5.828 2.391,5.981 2.728,6.289 3.131,6.657 3.591,6.774 4.058,6.626 L 4.277,6.557 4.279,6.883 C 4.283,7.415 4.458,7.946 4.833,8.564 L 4.961,8.775 4.888,8.958 a 1.25,1.25 0 0 0 0.06,0.945 C 5.134,10.246 5.494,10.5 5.95,10.611 6.526,10.752 7.278,10.558 7.596,10.185 7.884,9.849 7.977,9.374 7.834,8.967 L 7.76,8.758 7.95,8.442 c 0.337,-0.56 0.486,-1.053 0.486,-1.611 0,-0.248 0.009,-0.289 0.055,-0.27 0.23,0.088 0.48,0.135 0.645,0.121 0.436,-0.036 1.125,-0.542 1.125,-0.826 0,-0.102 -0.03,-0.165 -0.134,-0.281 C 9.827,5.241 9.265,4.981 8.93,5.02 8.717,5.046 8.445,5.17 8.208,5.353 L 8.033,5.488 8.165,5.288 C 8.4,4.933 8.46,4.538 8.345,4.095 8.285,3.863 8.21,3.755 8.11,3.755 8.023,3.755 7.957,3.866 7.866,4.167 7.728,4.619 7.582,4.792 7.249,4.898 7.136,4.934 7.081,4.93 6.873,4.865 6.574,4.772 6.169,4.763 5.898,4.843 5.598,4.933 5.431,4.919 5.256,4.793 5.072,4.659 4.997,4.539 4.856,4.151 4.733,3.81 4.699,3.756 4.605,3.756 Z m 1.7,1.547 C 6.689,5.296 7.086,5.395 7.387,5.601 7.549,5.712 7.757,5.957 7.757,6.036 7.757,6.052 7.686,6.101 7.6,6.146 7.33,6.29 7.054,6.565 6.933,6.811 6.69,7.305 6.759,7.831 7.175,8.653 7.395,9.089 7.417,9.15 7.417,9.35 c 0,0.387 -0.23,0.66 -0.663,0.79 C 6.529,10.206 6.151,10.21 5.95,10.146 5.498,10.004 5.243,9.652 5.303,9.252 5.317,9.162 5.425,8.89 5.544,8.649 5.808,8.115 5.854,7.992 5.896,7.693 5.989,7.035 5.686,6.431 5.138,6.179 5.043,6.135 4.966,6.082 4.966,6.06 4.966,5.999 5.156,5.75 5.292,5.636 5.547,5.421 5.92,5.309 6.305,5.303 Z m -2.58,0.208 c 0.063,0 0.163,0.022 0.222,0.048 0.103,0.044 0.095,0.047 -0.168,0.064 -0.299,0.02 -0.386,0.064 -0.386,0.193 0,0.118 0.056,0.139 0.346,0.127 0.318,-0.013 0.428,0.014 0.365,0.09 A 0.558,0.558 0 0 1 3.959,6.138 C 3.752,6.245 3.369,6.17 3.139,5.977 L 3.016,5.873 3.121,5.763 C 3.239,5.639 3.551,5.508 3.724,5.511 Z m 5.22,0.003 a 0.952,0.952 0 0 1 0.65,0.215 L 9.729,5.84 9.646,5.93 C 9.601,5.98 9.483,6.058 9.384,6.104 9.157,6.211 8.861,6.218 8.7,6.12 8.451,5.968 8.517,5.921 8.962,5.932 9.256,5.94 9.295,5.934 9.329,5.872 9.357,5.818 9.35,5.782 9.298,5.718 9.236,5.642 9.201,5.634 8.922,5.634 8.753,5.634 8.615,5.629 8.615,5.624 8.615,5.618 8.671,5.589 8.74,5.561 A 0.65,0.65 0 0 1 8.945,5.514 Z M 5.084,6.879 C 5.298,6.847 5.462,7.089 5.288,7.262 5.191,7.359 5.053,7.352 4.946,7.246 4.816,7.116 4.832,6.993 4.99,6.91 A 0.292,0.292 0 0 1 5.084,6.879 Z m 2.574,0 C 7.832,6.891 7.927,7.079 7.827,7.265 7.754,7.401 7.449,7.297 7.388,7.115 7.359,7.028 7.455,6.914 7.579,6.886 A 0.28,0.28 0 0 1 7.658,6.88 Z M 5.802,9.128 C 5.764,9.13 5.734,9.156 5.699,9.208 c -0.067,0.103 -0.027,0.24 0.117,0.39 0.065,0.069 0.13,0.099 0.212,0.099 0.108,0 0.118,-0.01 0.118,-0.11 0,-0.14 -0.079,-0.293 -0.2,-0.389 C 5.885,9.15 5.84,9.127 5.802,9.128 Z m 1.18,0.013 C 6.895,9.149 6.692,9.279 6.637,9.371 6.575,9.476 6.556,9.629 6.6,9.672 6.66,9.732 6.806,9.688 6.92,9.575 7.018,9.476 7.04,9.425 7.04,9.308 7.04,9.228 7.027,9.155 7.01,9.145 7.004,9.141 6.994,9.14 6.982,9.141 Z"
     id="path2"
     inkscape:connector-curvature="0"
     style="fill:#5beedc" />
</svg>
