<?xml version="1.0" encoding="UTF-8" standalone="no"?>
<svg
   xmlns:dc="http://purl.org/dc/elements/1.1/"
   xmlns:cc="http://creativecommons.org/ns#"
   xmlns:rdf="http://www.w3.org/1999/02/22-rdf-syntax-ns#"
   xmlns:svg="http://www.w3.org/2000/svg"
   xmlns="http://www.w3.org/2000/svg"
   xmlns:sodipodi="http://sodipodi.sourceforge.net/DTD/sodipodi-0.dtd"
   xmlns:inkscape="http://www.inkscape.org/namespaces/inkscape"
   width="48"
   height="48"
   viewBox="0 0 12.7 12.7"
   version="1.1"
   id="svg8"
   sodipodi:docname="exe2hex.svg"
   inkscape:version="0.92.5 (2060ec1f9f, 2020-04-08)">
  <metadata
     id="metadata14">
    <rdf:RDF>
      <cc:Work
         rdf:about="">
        <dc:format>image/svg+xml</dc:format>
        <dc:type
           rdf:resource="http://purl.org/dc/dcmitype/StillImage" />
        <dc:title></dc:title>
      </cc:Work>
    </rdf:RDF>
  </metadata>
  <defs
     id="defs12" />
  <sodipodi:namedview
     pagecolor="#ffffff"
     bordercolor="#666666"
     borderopacity="1"
     objecttolerance="10"
     gridtolerance="10"
     guidetolerance="10"
     inkscape:pageopacity="0"
     inkscape:pageshadow="2"
     inkscape:window-width="1085"
     inkscape:window-height="480"
     id="namedview10"
     showgrid="false"
     inkscape:zoom="4.9166667"
     inkscape:cx="2.1355932"
     inkscape:cy="24"
     inkscape:window-x="0"
     inkscape:window-y="25"
     inkscape:window-maximized="0"
     inkscape:current-layer="svg8" />
  <path
     d="M 6.34,0.075 A 6.295,6.295 0 0 0 0.055,6.36 6.295,6.295 0 0 0 6.34,12.655 6.295,6.295 0 0 0 12.634,6.36 6.295,6.295 0 0 0 6.34,0.075 Z m -0.011,0.94 a 5.408,5.408 0 0 1 5.397,5.387 5.407,5.407 0 0 1 -10.814,0 c 0,-2.987 2.43,-5.387 5.417,-5.387 z M 5.651,3.835 C 5.621,3.832 5.591,3.861 5.554,3.919 5.46,4.065 5.274,4.557 5.292,4.612 5.302,4.639 5.446,4.72 5.614,4.793 5.781,4.866 5.962,4.927 6.016,4.929 6.118,4.934 6.119,4.918 6.04,4.599 6.018,4.509 6.03,4.485 6.107,4.461 6.159,4.444 6.317,4.379 6.46,4.315 L 6.718,4.199 6.648,4.054 C 6.611,3.974 6.566,3.909 6.55,3.909 6.534,3.909 6.37,3.973 6.187,4.052 L 5.853,4.194 5.775,4.011 C 5.725,3.895 5.689,3.838 5.651,3.834 Z M 4.434,4.34 C 4.426,4.34 4.42,4.341 4.417,4.343 4.363,4.376 4.375,4.514 4.443,4.645 L 4.503,4.762 4.187,4.893 C 3.809,5.049 3.791,5.064 3.824,5.187 3.88,5.4 3.899,5.402 4.259,5.246 4.445,5.165 4.612,5.108 4.63,5.119 A 0.473,0.473 0 0 1 4.71,5.285 C 4.748,5.398 4.778,5.427 4.845,5.417 4.911,5.407 4.963,5.323 5.07,5.057 5.16,4.834 5.196,4.689 5.174,4.653 5.134,4.589 4.548,4.345 4.434,4.34 Z m 3.484,0.159 -1.402,1.84 -0.174,0.036 -0.122,0.15 -0.022,4.193 0.208,0.144 3.962,-1.503 0.1,-0.144 V 5.702 L 10.282,5.552 10.066,5.597 Z M 9.948,6.629 9.955,7.661 8.76,7.974 8.753,6.821 Z M 3.595,6.798 C 3.497,6.794 3.48,6.91 3.592,7.094 3.66,7.205 3.665,7.244 3.625,7.38 3.599,7.467 3.554,7.553 3.525,7.57 3.441,7.623 3.459,7.97 3.554,8.112 a 0.49,0.49 0 0 1 0.081,0.209 c 0,0.057 0.025,0.085 0.072,0.081 A 0.586,0.586 0 0 0 4.014,8.238 C 4.09,8.124 4.014,7.535 3.894,7.298 3.82,7.153 3.857,7.108 4.074,7.079 4.258,7.055 4.531,7.17 4.633,7.315 4.687,7.392 4.684,7.421 4.609,7.592 A 1.66,1.66 0 0 0 4.505,8.079 l -0.02,0.295 0.174,0.207 c 0.095,0.114 0.189,0.207 0.209,0.207 0.02,0 0.048,-0.047 0.062,-0.104 A 0.317,0.317 0 0 1 5.035,8.526 C 5.149,8.446 5.18,8.201 5.092,8.067 A 1.824,1.824 0 0 1 4.949,7.747 L 4.875,7.534 4.972,7.421 C 5.086,7.288 5.094,7.22 5.005,7.131 4.925,7.051 4.892,7.051 4.74,7.129 4.626,7.188 4.611,7.186 4.493,7.099 4.402,7.031 4.303,7.003 4.143,6.999 3.97,6.994 3.887,6.967 3.775,6.882 3.701,6.826 3.64,6.799 3.595,6.798 Z M 8.625,6.842 8.633,8.007 7.161,8.392 7.154,7.079 Z m -5,0.029 h 0.007 c 0.022,0.003 0.06,0.028 0.11,0.078 0.09,0.09 0.095,0.11 0.042,0.154 C 3.733,7.146 3.712,7.133 3.656,7.024 3.606,6.929 3.598,6.876 3.624,6.871 Z m -0.6,0.031 c -0.118,0 -0.127,0.01 -0.127,0.148 0,0.208 0.11,0.414 0.282,0.531 0.175,0.12 0.204,0.123 0.239,0.028 A 0.257,0.257 0 0 1 3.472,7.517 0.564,0.564 0 0 0 3.548,7.357 C 3.59,7.231 3.586,7.206 3.508,7.123 A 0.752,0.752 0 0 0 3.025,6.903 Z m 1.843,0.29 c 0.045,0 0.079,0.019 0.079,0.053 0,0.03 -0.033,0.085 -0.073,0.121 C 4.806,7.427 4.797,7.426 4.747,7.346 4.703,7.276 4.703,7.254 4.749,7.226 A 0.224,0.224 0 0 1 4.868,7.191 Z M 5.254,7.478 A 0.716,0.716 0 0 0 5.076,7.503 C 4.988,7.527 4.983,7.543 5.008,7.716 a 0.732,0.732 0 0 0 0.106,0.287 0.362,0.362 0 0 1 0.079,0.152 c 0,0.03 0.041,0.061 0.092,0.07 L 5.409,8.249 C 5.518,8.268 5.734,8.121 5.789,7.991 5.886,7.758 5.867,7.704 5.649,7.585 A 0.794,0.794 0 0 0 5.254,7.478 Z M 9.956,7.79 9.963,8.818 8.767,9.263 8.761,8.105 Z M 3.719,7.849 C 3.732,7.85 3.744,7.862 3.757,7.884 3.777,7.917 3.785,7.958 3.774,7.976 3.745,8.023 3.686,8.016 3.654,7.964 3.639,7.94 3.648,7.898 3.674,7.872 3.692,7.855 3.706,7.847 3.719,7.849 Z M 8.634,8.139 8.643,9.309 7.169,9.858 7.162,8.526 Z M 4.827,8.184 c 0.04,0 0.079,0.037 0.079,0.091 0,0.088 -0.067,0.109 -0.125,0.04 C 4.744,8.27 4.741,8.238 4.773,8.207 A 0.075,0.075 0 0 1 4.827,8.184 Z M 4.074,8.381 A 0.525,0.525 0 0 0 3.826,8.449 C 3.527,8.614 3.499,8.685 3.631,8.943 3.746,9.168 3.849,9.241 4.097,9.275 4.221,9.292 4.373,9.345 4.439,9.393 4.677,9.57 4.947,9.473 4.947,9.209 4.947,9.026 4.895,8.933 4.65,8.68 4.456,8.479 4.26,8.378 4.074,8.38 Z m 0.015,0.09 C 4.231,8.465 4.434,8.57 4.611,8.753 4.845,8.996 4.916,9.143 4.855,9.259 A 0.366,0.366 0 0 1 4.767,9.371 C 4.685,9.425 4.601,9.404 4.414,9.28 A 0.624,0.624 0 0 0 4.074,9.157 0.338,0.338 0 0 1 3.799,9.039 C 3.592,8.832 3.599,8.582 3.812,8.582 3.858,8.582 3.929,8.552 3.97,8.516 A 0.184,0.184 0 0 1 4.089,8.471 Z m -0.14,0.241 c -0.007,0 -0.012,0 -0.018,0.002 -0.1,0.019 -0.109,0.114 -0.01,0.114 0.054,0 0.1,0.039 0.124,0.103 0.05,0.13 0.082,0.13 0.082,0.003 0,-0.11 -0.093,-0.223 -0.179,-0.222 z m 0.54,0.199 c -0.088,0 -0.137,0.091 -0.1,0.187 0.028,0.074 0.107,0.04 0.107,-0.046 0,-0.082 0.07,-0.074 0.118,0.012 0.022,0.04 0.053,0.057 0.07,0.04 C 4.728,9.06 4.578,8.911 4.489,8.911 Z m -0.51,0.407 c -0.04,0 -0.055,0.015 -0.024,0.048 0.029,0.031 0.158,0.097 0.287,0.147 0.128,0.05 0.28,0.09 0.336,0.092 C 4.66,9.606 4.637,9.581 4.458,9.479 4.294,9.385 4.071,9.317 3.98,9.319 Z"
     id="path2"
     inkscape:connector-curvature="0"
     style="fill:#5beedc" />
  <path
     d="M 2.466,5.582 V 9.26 l 3.886,1.46 3.962,-1.503 V 5.703 L 8.514,3.717 V 2.74 L 4.332,2.19 v 0.813 z"
     id="path4"
     inkscape:connector-curvature="0"
     style="fill:none;stroke:#5beedc;stroke-width:0.30700001" />
  <path
     d="M 2.466,5.582 6.374,6.526 8.514,3.716 4.332,3.003 Z"
     id="path6"
     inkscape:connector-curvature="0"
     style="fill:none;stroke:#5beedc;stroke-width:0.30700001;stroke-linejoin:bevel" />
</svg>
