<?xml version="1.0" encoding="UTF-8" standalone="no"?>
<svg
   xmlns:dc="http://purl.org/dc/elements/1.1/"
   xmlns:cc="http://creativecommons.org/ns#"
   xmlns:rdf="http://www.w3.org/1999/02/22-rdf-syntax-ns#"
   xmlns:svg="http://www.w3.org/2000/svg"
   xmlns="http://www.w3.org/2000/svg"
   xmlns:sodipodi="http://sodipodi.sourceforge.net/DTD/sodipodi-0.dtd"
   xmlns:inkscape="http://www.inkscape.org/namespaces/inkscape"
   width="48"
   height="48"
   viewBox="0 0 12.7 12.7"
   version="1.1"
   id="svg4"
   sodipodi:docname="android-sdk.svg"
   inkscape:version="0.92.5 (2060ec1f9f, 2020-04-08)">
  <metadata
     id="metadata10">
    <rdf:RDF>
      <cc:Work
         rdf:about="">
        <dc:format>image/svg+xml</dc:format>
        <dc:type
           rdf:resource="http://purl.org/dc/dcmitype/StillImage" />
        <dc:title></dc:title>
      </cc:Work>
    </rdf:RDF>
  </metadata>
  <defs
     id="defs8" />
  <sodipodi:namedview
     pagecolor="#ffffff"
     bordercolor="#666666"
     borderopacity="1"
     objecttolerance="10"
     gridtolerance="10"
     guidetolerance="10"
     inkscape:pageopacity="0"
     inkscape:pageshadow="2"
     inkscape:window-width="1085"
     inkscape:window-height="480"
     id="namedview6"
     showgrid="false"
     inkscape:zoom="4.9166667"
     inkscape:cx="2.1355932"
     inkscape:cy="24"
     inkscape:window-x="0"
     inkscape:window-y="25"
     inkscape:window-maximized="0"
     inkscape:current-layer="svg4" />
  <path
     d="M 6.34,0.075 A 6.295,6.295 0 0 0 0.055,6.36 6.295,6.295 0 0 0 6.34,12.655 6.295,6.295 0 0 0 12.634,6.36 6.295,6.295 0 0 0 6.34,0.075 Z m -0.011,0.94 a 5.408,5.408 0 0 1 5.397,5.387 5.407,5.407 0 0 1 -10.814,0 c 0,-2.987 2.43,-5.387 5.417,-5.387 z M 4.75,1.626 A 0.132,0.132 0 0 0 4.666,1.656 0.132,0.132 0 0 0 4.65,1.844 l 0.487,0.58 A 2.381,2.249 0 0 0 3.98,4.221 l 4.751,0.02 A 2.381,2.249 0 0 0 7.574,2.423 L 8.059,1.845 A 0.132,0.132 0 0 0 8.043,1.659 0.132,0.132 0 0 0 7.856,1.675 L 7.331,2.301 A 2.381,2.249 0 0 0 6.355,2.103 2.381,2.249 0 0 0 5.38,2.303 L 4.852,1.675 A 0.132,0.132 0 0 0 4.762,1.628 V 1.627 a 0.132,0.132 0 0 0 -0.013,0 z M 5.561,2.895 A 0.265,0.265 0 0 1 5.827,3.16 0.265,0.265 0 0 1 5.561,3.425 0.265,0.265 0 0 1 5.297,3.16 0.265,0.265 0 0 1 5.561,2.895 Z m 1.588,0 A 0.265,0.265 0 0 1 7.414,3.16 0.265,0.265 0 0 1 7.149,3.425 0.265,0.265 0 0 1 6.884,3.16 0.265,0.265 0 0 1 7.149,2.895 Z M 3.974,4.747 v 3.441 c 0,0.292 0.237,0.528 0.53,0.528 h 0.264 v 1.588 a 0.53,0.53 0 0 0 1.059,0 V 8.715 h 1.057 v 1.588 a 0.53,0.53 0 1 0 1.059,0 V 8.715 H 8.207 A 0.53,0.53 0 0 0 8.737,8.186 V 4.747 Z M 2.916,5.012 a 0.528,0.528 0 0 0 -0.53,0.53 v 2.116 a 0.53,0.53 0 1 0 1.06,0 V 5.54 A 0.528,0.528 0 0 0 2.916,5.011 Z m 6.879,0 a 0.528,0.528 0 0 0 -0.53,0.53 v 2.116 a 0.53,0.53 0 0 0 1.06,0 V 5.54 A 0.528,0.528 0 0 0 9.795,5.011 Z"
     id="path2"
     inkscape:connector-curvature="0"
     style="fill:#5beedc" />
</svg>
