<?xml version="1.0" encoding="UTF-8" standalone="no"?>
<svg
   xmlns:dc="http://purl.org/dc/elements/1.1/"
   xmlns:cc="http://creativecommons.org/ns#"
   xmlns:rdf="http://www.w3.org/1999/02/22-rdf-syntax-ns#"
   xmlns:svg="http://www.w3.org/2000/svg"
   xmlns="http://www.w3.org/2000/svg"
   xmlns:sodipodi="http://sodipodi.sourceforge.net/DTD/sodipodi-0.dtd"
   xmlns:inkscape="http://www.inkscape.org/namespaces/inkscape"
   width="48"
   height="48"
   viewBox="0 0 12.7 12.7"
   version="1.1"
   id="svg4"
   sodipodi:docname="sqlmap.svg"
   inkscape:version="0.92.5 (2060ec1f9f, 2020-04-08)">
  <metadata
     id="metadata10">
    <rdf:RDF>
      <cc:Work
         rdf:about="">
        <dc:format>image/svg+xml</dc:format>
        <dc:type
           rdf:resource="http://purl.org/dc/dcmitype/StillImage" />
        <dc:title></dc:title>
      </cc:Work>
    </rdf:RDF>
  </metadata>
  <defs
     id="defs8" />
  <sodipodi:namedview
     pagecolor="#ffffff"
     bordercolor="#666666"
     borderopacity="1"
     objecttolerance="10"
     gridtolerance="10"
     guidetolerance="10"
     inkscape:pageopacity="0"
     inkscape:pageshadow="2"
     inkscape:window-width="1085"
     inkscape:window-height="480"
     id="namedview6"
     showgrid="false"
     inkscape:zoom="4.9166667"
     inkscape:cx="2.1355932"
     inkscape:cy="24"
     inkscape:window-x="0"
     inkscape:window-y="25"
     inkscape:window-maximized="0"
     inkscape:current-layer="svg4" />
  <path
     d="M 6.34,0.075 A 6.295,6.295 0 0 0 0.055,6.36 6.295,6.295 0 0 0 6.34,12.655 6.295,6.295 0 0 0 12.634,6.36 6.295,6.295 0 0 0 6.34,0.075 Z m -0.011,0.94 a 5.408,5.408 0 0 1 5.397,5.387 5.407,5.407 0 0 1 -10.814,0 c 0,-2.987 2.43,-5.387 5.417,-5.387 z m 2.528,1.827 v 0.26 h 0.78 v -0.26 z m -0.52,0.52 v 1.04 h 0.26 v -1.04 z m 1.56,0 v 1.04 h 0.26 V 3.362 Z M 2.62,4.402 v 0.26 h 2.338 v -0.26 z m 3.118,0 v 0.26 H 8.077 V 4.402 H 5.737 Z M 2.1,4.92 V 5.96 H 2.36 V 4.92 Z m 3.118,0 v 1.04 h 0.26 V 4.92 Z m 3.118,0 v 1.04 h 0.26 V 4.92 Z m 1.56,0 v 1.04 h 0.26 V 4.92 Z M 4.179,5.44 V 5.7 H 4.958 V 5.44 H 4.178 Z M 6.777,5.7 v 0.26 h -0.26 v 0.26 h 0.26 v 0.259 h 0.26 v -0.26 h 0.26 V 5.959 H 7.037 V 5.7 Z M 2.62,5.96 V 6.22 H 3.4 V 5.96 Z M 2.1,6.479 v 1.04 H 2.36 V 6.48 H 2.1 Z m 3.118,0 v 1.04 h 0.26 V 6.48 h -0.26 z m 3.118,0 v 1.04 h 0.26 V 6.48 h -0.26 z m 1.559,0 v 1.04 h 0.26 V 6.48 h -0.26 z m -7.275,1.3 v 0.26 h 2.338 v -0.26 z m 3.118,0 v 0.26 h 0.779 v -0.26 h -0.78 z m 3.118,0 v 0.26 h 0.78 v -0.26 z m -2.08,0.519 v 1.04 h 0.26 v -1.04 z m 1.56,0 v 1.04 h 0.26 v -1.04 z m -1.04,1.3 v 0.259 h 0.78 v -0.26 h -0.78 z"
     id="path2"
     inkscape:connector-curvature="0"
     style="fill:#5beedc" />
</svg>
