<?xml version="1.0" encoding="UTF-8" standalone="no"?>
<svg
   xmlns:dc="http://purl.org/dc/elements/1.1/"
   xmlns:cc="http://creativecommons.org/ns#"
   xmlns:rdf="http://www.w3.org/1999/02/22-rdf-syntax-ns#"
   xmlns:svg="http://www.w3.org/2000/svg"
   xmlns="http://www.w3.org/2000/svg"
   xmlns:sodipodi="http://sodipodi.sourceforge.net/DTD/sodipodi-0.dtd"
   xmlns:inkscape="http://www.inkscape.org/namespaces/inkscape"
   width="48"
   height="48"
   viewBox="0 0 12.7 12.7"
   version="1.1"
   id="svg4"
   sodipodi:docname="kali-sniffing-spoofing-trans.svg"
   inkscape:version="0.92.5 (2060ec1f9f, 2020-04-08)">
  <metadata
     id="metadata10">
    <rdf:RDF>
      <cc:Work
         rdf:about="">
        <dc:format>image/svg+xml</dc:format>
        <dc:type
           rdf:resource="http://purl.org/dc/dcmitype/StillImage" />
        <dc:title></dc:title>
      </cc:Work>
    </rdf:RDF>
  </metadata>
  <defs
     id="defs8" />
  <sodipodi:namedview
     pagecolor="#ffffff"
     bordercolor="#666666"
     borderopacity="1"
     objecttolerance="10"
     gridtolerance="10"
     guidetolerance="10"
     inkscape:pageopacity="0"
     inkscape:pageshadow="2"
     inkscape:window-width="1085"
     inkscape:window-height="480"
     id="namedview6"
     showgrid="false"
     inkscape:zoom="4.9166667"
     inkscape:cx="2.1355932"
     inkscape:cy="24"
     inkscape:window-x="0"
     inkscape:window-y="25"
     inkscape:window-maximized="0"
     inkscape:current-layer="svg4" />
  <path
     d="M 6.34,0.075 A 6.295,6.295 0 0 0 0.055,6.36 6.295,6.295 0 0 0 6.34,12.655 6.295,6.295 0 0 0 12.634,6.36 6.295,6.295 0 0 0 6.34,0.075 Z m -0.011,0.94 a 5.408,5.408 0 0 1 5.397,5.387 5.407,5.407 0 0 1 -10.814,0 c 0,-2.987 2.43,-5.387 5.417,-5.387 z M 8.917,2.84 5.297,3.609 4.127,2.859 3.322,5.114 9.484,5.151 8.917,2.841 Z m -6.85,2.502 a 0.214,0.214 0 1 0 0,0.428 h 8.566 a 0.214,0.214 0 1 0 0,-0.428 z M 4.443,6.516 4.312,6.518 4.283,6.519 4.178,6.524 C 4.165,6.525 4.151,6.525 4.138,6.527 a 6.444,6.444 0 0 0 -0.46,0.05 L 3.621,6.587 A 8.08,8.08 0 0 0 3.509,6.605 L 3.444,6.616 A 7.338,7.338 0 0 0 3.316,6.641 L 3.264,6.651 A 9.815,9.815 0 0 0 3.07,6.693 l 0.08,0.515 0.178,0.007 a 4.75,4.75 0 0 0 -0.012,0.36 c 0,0.861 0.516,1.227 1.335,1.227 0.031,0 0.062,0 0.093,-0.003 H 4.765 A 0.827,0.827 0 0 0 4.837,8.793 L 4.855,8.791 C 5.299,8.741 5.629,8.525 5.815,8.218 6.16,7.732 6.145,7.434 6.351,7.434 c 0.206,0 0.201,0.313 0.534,0.783 v 10e-4 c 0.187,0.307 0.517,0.522 0.96,0.573 a 2.003,2.003 0 0 0 0.09,0.008 H 7.957 C 7.987,8.8 8.018,8.802 8.05,8.802 8.868,8.802 9.384,8.436 9.384,7.576 A 6.934,6.934 0 0 0 9.374,7.216 L 9.552,7.208 9.632,6.693 C 9.565,6.677 9.5,6.664 9.437,6.651 A 4.225,4.225 0 0 0 9.257,6.616 L 9.192,6.605 A 7.638,7.638 0 0 0 9.08,6.586 L 9.023,6.576 A 6.623,6.623 0 0 0 8.711,6.539 L 8.675,6.536 A 5.131,5.131 0 0 0 8.564,6.526 c -0.014,0 -0.028,0 -0.041,-0.002 A 3.616,3.616 0 0 0 8.389,6.518 L 8.259,6.516 c -0.045,0 -0.088,0 -0.13,0.002 L 8.093,6.52 A 3.144,3.144 0 0 0 7.853,6.538 3.887,3.887 0 0 0 7.533,6.584 L 7.5,6.59 7.463,6.598 A 7.683,7.683 0 0 0 7.297,6.633 L 7.069,6.683 7.049,6.688 A 9.424,9.424 0 0 1 6.713,6.758 L 6.693,6.761 C 6.648,6.769 6.603,6.775 6.556,6.782 L 6.518,6.787 C 6.464,6.794 6.409,6.801 6.352,6.806 A 3.948,3.948 0 0 1 6.186,6.787 L 6.148,6.782 A 4.853,4.853 0 0 1 6.011,6.761 L 5.991,6.757 A 4.4,4.4 0 0 1 5.656,6.688 C 5.649,6.688 5.641,6.685 5.634,6.684 A 45.124,45.124 0 0 0 5.241,6.598 L 5.204,6.591 5.169,6.585 A 4.528,4.528 0 0 0 5.049,6.565 L 5.007,6.558 A 4.082,4.082 0 0 0 4.731,6.527 H 4.71 A 4.141,4.141 0 0 0 4.608,6.521 L 4.572,6.519 A 4.026,4.026 0 0 0 4.442,6.516 Z"
     id="path2"
     inkscape:connector-curvature="0"
     style="fill:#5beedc" />
</svg>
