<?xml version="1.0" encoding="UTF-8" standalone="no"?>
<svg
   xmlns:dc="http://purl.org/dc/elements/1.1/"
   xmlns:cc="http://creativecommons.org/ns#"
   xmlns:rdf="http://www.w3.org/1999/02/22-rdf-syntax-ns#"
   xmlns:svg="http://www.w3.org/2000/svg"
   xmlns="http://www.w3.org/2000/svg"
   xmlns:sodipodi="http://sodipodi.sourceforge.net/DTD/sodipodi-0.dtd"
   xmlns:inkscape="http://www.inkscape.org/namespaces/inkscape"
   width="48"
   height="48"
   viewBox="0 0 12.7 12.7"
   version="1.1"
   id="svg4"
   sodipodi:docname="blkcat.svg"
   inkscape:version="0.92.5 (2060ec1f9f, 2020-04-08)">
  <metadata
     id="metadata10">
    <rdf:RDF>
      <cc:Work
         rdf:about="">
        <dc:format>image/svg+xml</dc:format>
        <dc:type
           rdf:resource="http://purl.org/dc/dcmitype/StillImage" />
        <dc:title></dc:title>
      </cc:Work>
    </rdf:RDF>
  </metadata>
  <defs
     id="defs8" />
  <sodipodi:namedview
     pagecolor="#ffffff"
     bordercolor="#666666"
     borderopacity="1"
     objecttolerance="10"
     gridtolerance="10"
     guidetolerance="10"
     inkscape:pageopacity="0"
     inkscape:pageshadow="2"
     inkscape:window-width="1085"
     inkscape:window-height="480"
     id="namedview6"
     showgrid="false"
     inkscape:zoom="4.9166667"
     inkscape:cx="2.1355932"
     inkscape:cy="24"
     inkscape:window-x="0"
     inkscape:window-y="25"
     inkscape:window-maximized="0"
     inkscape:current-layer="svg4" />
  <path
     d="M 6.34,0.07 A 6.29,6.29 0 0 0 0.05,6.37 6.29,6.29 0 0 0 6.35,12.65 6.29,6.29 0 0 0 9.303,11.905 2.646,2.646 0 0 1 9.26,11.906 2.646,2.646 0 0 1 8.996,11.893 2.646,2.646 0 0 1 8.735,11.853 2.646,2.646 0 0 1 8.479,11.788 2.646,2.646 0 0 1 8.23,11.698 2.646,2.646 0 0 1 7.992,11.582 2.646,2.646 0 0 1 7.959,11.562 5.4,5.4 0 0 1 6.329,11.82 5.4,5.4 0 0 1 0.919,6.42 5.4,5.4 0 0 1 6.32,1 l 0.01,0.01 a 5.4,5.4 0 0 1 5.4,5.4 5.4,5.4 0 0 1 -0.21,1.481 2.646,2.646 0 0 1 0.098,0.17 2.646,2.646 0 0 1 0.108,0.24 2.646,2.646 0 0 1 0.084,0.251 2.646,2.646 0 0 1 0.058,0.259 2.646,2.646 0 0 1 0.032,0.262 2.646,2.646 0 0 1 0.006,0.187 2.646,2.646 0 0 1 0,0.023 A 6.29,6.29 0 0 0 12.63,6.36 6.29,6.29 0 0 0 6.34,0.07 Z m 0.05,2.04 c -0.43,0 -0.75,0.2 -0.75,0.44 V 2.86 H 5.62 L 5.13,3.11 A 0.18,0.18 0 0 0 5.08,3.16 1.2,1.2 0 0 0 4.63,3.08 C 4.2,3.08 3.88,3.26 3.88,3.51 v 0.26 c -0.03,0 -0.06,0 -0.08,0.02 L 2.87,4.29 A 0.17,0.17 0 0 0 2.8,4.37 L 2.79,4.39 V 4.41 L 2.77,4.46 v 4.06 c 0,0.06 0.03,0.12 0.09,0.15 l 3.38,1.89 h 0.01 l 0.07,0.02 H 6.33 L 6.39,10.57 6.42,10.56 6.842,10.325 A 2.646,2.646 0 0 1 6.794,10.219 2.646,2.646 0 0 1 6.711,9.969 2.646,2.646 0 0 1 6.653,9.71 2.646,2.646 0 0 1 6.621,9.447 2.646,2.646 0 0 1 6.615,9.26 2.646,2.646 0 0 1 6.628,8.996 2.646,2.646 0 0 1 6.668,8.735 2.646,2.646 0 0 1 6.733,8.479 2.646,2.646 0 0 1 6.823,8.23 2.646,2.646 0 0 1 6.939,7.992 2.646,2.646 0 0 1 7.077,7.766 2.646,2.646 0 0 1 7.237,7.556 2.646,2.646 0 0 1 7.417,7.362 2.646,2.646 0 0 1 7.616,7.188 2.646,2.646 0 0 1 7.831,7.034 2.646,2.646 0 0 1 8.061,6.902 2.646,2.646 0 0 1 8.301,6.794 2.646,2.646 0 0 1 8.552,6.711 2.646,2.646 0 0 1 8.811,6.653 2.646,2.646 0 0 1 9.073,6.621 2.646,2.646 0 0 1 9.26,6.615 2.646,2.646 0 0 1 9.524,6.628 2.646,2.646 0 0 1 9.786,6.668 2.646,2.646 0 0 1 9.93,6.704 V 4.47 A 0.18,0.18 0 0 0 9.84,4.32 H 9.82 C 9.82,4.31 9.82,4.3 9.8,4.29 L 8.87,3.79 H 8.86 V 3.5 C 8.86,3.26 8.53,3.07 8.1,3.07 7.92,3.07 7.76,3.11 7.63,3.17 L 7.61,3.14 7.16,2.92 H 7.15 V 2.55 C 7.15,2.3 6.82,2.12 6.39,2.12 Z M 5.91,2.88 c 0.13,0.06 0.3,0.1 0.48,0.1 0.2,0 0.36,-0.04 0.49,-0.1 V 3.37 C 6.88,3.42 6.7,3.54 6.39,3.54 6.09,3.54 5.91,3.42 5.91,3.37 Z M 5.64,3.24 v 0.13 c 0,0.24 0.32,0.43 0.75,0.43 0.43,0 0.76,-0.19 0.76,-0.43 V 3.3 L 7.36,3.4 7.35,3.5 v 0.81 c 0,0.25 0.32,0.44 0.75,0.44 0.43,0 0.76,-0.19 0.76,-0.44 V 4.2 L 9.39,4.48 6.33,6.18 3.3,4.48 3.88,4.16 v 0.18 c 0,0.24 0.32,0.43 0.75,0.43 0.43,0 0.76,-0.19 0.76,-0.43 V 3.5 A 0.28,0.28 0 0 0 5.36,3.38 Z m -1.49,0.6 c 0.13,0.06 0.3,0.1 0.48,0.1 0.2,0 0.36,-0.04 0.5,-0.1 v 0.49 c 0,0.05 -0.18,0.16 -0.5,0.16 -0.31,0 -0.48,-0.11 -0.48,-0.16 z m 3.47,0 c 0.13,0.06 0.3,0.1 0.48,0.1 0.2,0 0.36,-0.04 0.5,-0.1 V 4.32 C 8.6,4.37 8.42,4.49 8.1,4.49 7.8,4.49 7.62,4.38 7.62,4.32 Z M 6.38,4.02 C 5.95,4.02 5.63,4.2 5.63,4.45 v 0.82 c 0,0.25 0.32,0.43 0.75,0.43 0.43,0 0.76,-0.18 0.76,-0.43 V 4.45 C 7.14,4.2 6.81,4.02 6.38,4.02 Z M 5.9,4.78 c 0.13,0.06 0.3,0.1 0.48,0.1 0.2,0 0.36,-0.04 0.49,-0.1 V 5.27 C 6.87,5.32 6.7,5.44 6.38,5.44 6.08,5.44 5.9,5.32 5.9,5.27 Z m 3.335,2.374 a 2.088,2.088 0 0 0 -2.082,2.081 2.088,2.088 0 0 0 2.082,2.081 c 0.437,0 0.844,-0.137 1.18,-0.368 l 1.393,1.392 a 0.379,0.379 0 1 0 0.535,-0.535 l -1.394,-1.392 c 0.232,-0.336 0.369,-0.741 0.369,-1.178 A 2.088,2.088 0 0 0 9.235,7.155 Z m 0,0.757 A 1.32,1.32 0 0 1 10.56,9.235 1.32,1.32 0 0 1 9.235,10.56 1.32,1.32 0 0 1 7.91,9.235 C 7.91,8.5 8.5,7.911 9.236,7.911 Z"
     id="path2"
     inkscape:connector-curvature="0"
     style="fill:#5beedc" />
</svg>
