<?xml version="1.0" encoding="UTF-8" standalone="no"?>
<svg
   xmlns:dc="http://purl.org/dc/elements/1.1/"
   xmlns:cc="http://creativecommons.org/ns#"
   xmlns:rdf="http://www.w3.org/1999/02/22-rdf-syntax-ns#"
   xmlns:svg="http://www.w3.org/2000/svg"
   xmlns="http://www.w3.org/2000/svg"
   xmlns:sodipodi="http://sodipodi.sourceforge.net/DTD/sodipodi-0.dtd"
   xmlns:inkscape="http://www.inkscape.org/namespaces/inkscape"
   width="48"
   height="48"
   viewBox="0 0 12.7 12.7"
   version="1.1"
   id="svg4"
   sodipodi:docname="galternatives.svg"
   inkscape:version="0.92.5 (2060ec1f9f, 2020-04-08)">
  <defs
     id="defs8">
    <style
       id="current-color-scheme"
       type="text/css">
      .ColorScheme-Highlight {
        color:#5beedc;
      }
  </style>
  </defs>
  <path
     class="ColorScheme-Highlight"
     style="fill:#5beedc"
     d="M 24 0 A 24 24 0 0 0 0 24 A 24 24 0 0 0 24 48 A 24 24 0 0 0 48 24 A 24 24 0 0 0 24 0 z M 24 3 A 21 21 0 0 1 45 24 A 21 21 0 0 1 24 45 A 21 21 0 0 1 3 24 A 21 21 0 0 1 24 3 z M 29 8.5410156 A 3.9999995 3.9999995 0 0 0 27 12 A 3.9999995 3.9999995 0 0 0 29 15.458984 L 29 20.666016 L 27.822266 20.273438 A 4.4999996 4.4999996 0 0 0 27.423828 19.308594 L 28.449219 17.257812 L 27.742188 16.550781 L 25.695312 17.574219 A 4.4999996 4.4999996 0 0 0 24.724609 17.175781 L 24 15 L 23 15 L 22.273438 17.177734 A 4.4999996 4.4999996 0 0 0 21.308594 17.576172 L 19.257812 16.550781 L 18.550781 17.257812 L 19.574219 19.304688 A 4.4999996 4.4999996 0 0 0 19.175781 20.275391 L 18 20.666016 L 18 14 L 19 14 C 19 14.554 19.446 15 20 15 L 21 15 C 21.554 15 22 14.554 22 14 L 22 10 C 22 9.4459999 21.554 9 21 9 L 20 9 C 19.446 9 19 9.4459999 19 10 L 15 10 C 14.446 10 14 10.446 14 11 L 11 13 L 14 13 C 14 13.554 14.446 14 15 14 L 16 14 L 16 22 L 13.287109 22 C 12.893484 21.673399 12.318375 21.681624 11.949219 22.050781 L 7.7070312 26.292969 C 7.3152942 26.684706 7.3152942 27.315295 7.7070312 27.707031 C 8.0987683 28.098768 8.7293563 28.098768 9.1210938 27.707031 L 12 24.828125 L 12 37 C 12 37.554 12.446 38 13 38 L 35 38 C 35.554 38 36 37.554 36 37 L 36 24.828125 L 38.878906 27.707031 C 39.270643 28.098768 39.901232 28.098768 40.292969 27.707031 C 40.684705 27.315295 40.684705 26.684706 40.292969 26.292969 L 36.050781 22.050781 C 35.681624 21.681624 35.106516 21.673399 34.712891 22 L 33 22 L 33 15.458984 A 3.9999995 3.9999995 0 0 0 35 12 A 3.9999995 3.9999995 0 0 0 33 8.5410156 L 33 12 C 33 12.277002 32.887783 12.526281 32.707031 12.707031 C 32.526283 12.88778 32.277 13 32 13 L 30 13 C 29.722998 13 29.473719 12.887783 29.292969 12.707031 C 29.112219 12.526281 29 12.277 29 12 L 29 8.5410156 z M 23.5 19 A 2.4999999 2.4999999 0 0 1 26 21.5 A 2.4999999 2.4999999 0 0 1 25.949219 22 L 21.054688 22 A 2.4999999 2.4999999 0 0 1 21 21.5 A 2.4999999 2.4999999 0 0 1 23.5 19 z "
     transform="scale(0.26458333)"
     id="path817" />
</svg>
