<?xml version="1.0" encoding="UTF-8" standalone="no"?>
<svg
   xmlns:dc="http://purl.org/dc/elements/1.1/"
   xmlns:cc="http://creativecommons.org/ns#"
   xmlns:rdf="http://www.w3.org/1999/02/22-rdf-syntax-ns#"
   xmlns:svg="http://www.w3.org/2000/svg"
   xmlns="http://www.w3.org/2000/svg"
   xmlns:sodipodi="http://sodipodi.sourceforge.net/DTD/sodipodi-0.dtd"
   xmlns:inkscape="http://www.inkscape.org/namespaces/inkscape"
   width="48"
   height="48"
   viewBox="0 0 12.7 12.7"
   version="1.1"
   id="svg4"
   sodipodi:docname="mdk3.svg"
   inkscape:version="0.92.5 (2060ec1f9f, 2020-04-08)">
  <defs
     id="defs8">
  <style
     id="current-color-scheme"
     type="text/css">
      .ColorScheme-Highlight {
        color:#5beedc;
      }
  </style>
  </defs>
  <path
     class="ColorScheme-Highlight"
     style="fill:#5beedc"
     d="M 6.3499999,0 A 6.3499999,6.3499999 0 0 0 -3.6666667e-8,6.3499999 6.3499999,6.3499999 0 0 0 6.3499999,12.7 6.3499999,6.3499999 0 0 0 12.7,6.3499999 6.3499999,6.3499999 0 0 0 6.3499999,0 Z m 0,0.79374999 A 5.5562499,5.5562499 0 0 1 11.90625,6.3499999 5.5562499,5.5562499 0 0 1 10.653096,9.8593464 L 8.4666669,7.6729166 H 8.9958336 L 10.128064,6.6037311 7.4016152,6.6078652 6.3499999,5.5562499 H 10.31875 L 9.7895833,4.4979166 H 5.2916666 L 4.2333332,3.4395833 H 9.2655836 C 8.6377479,2.7817564 7.5359137,2.3817997 6.3499999,2.38125 5.4028252,2.3821551 4.5139223,2.6411422 3.8731486,3.0793986 L 2.8401366,2.0463867 A 5.5562499,5.5562499 0 0 1 6.3499999,0.79374999 Z M 2.0469034,2.8406534 3.7041666,4.4979166 h -0.79375 L 2.3812499,5.5562499 h 2.38125 l 1.0536825,1.0536825 -3.1703491,0.00465 1.0583333,1.0583333 H 6.8791665 L 7.9375002,8.7312499 H 4.4979166 L 6.3499999,10.583333 8.0697912,8.8635416 9.8598633,10.653613 A 5.5562499,5.5562499 0 0 1 6.3499999,11.90625 5.5562499,5.5562499 0 0 1 0.79375003,6.3499999 5.5562499,5.5562499 0 0 1 2.0469034,2.8406534 Z"
     id="path849"
     inkscape:connector-curvature="0" />
</svg>
