<?xml version="1.0" encoding="UTF-8" standalone="no"?>
<svg
   xmlns:dc="http://purl.org/dc/elements/1.1/"
   xmlns:cc="http://creativecommons.org/ns#"
   xmlns:rdf="http://www.w3.org/1999/02/22-rdf-syntax-ns#"
   xmlns:svg="http://www.w3.org/2000/svg"
   xmlns="http://www.w3.org/2000/svg"
   xmlns:sodipodi="http://sodipodi.sourceforge.net/DTD/sodipodi-0.dtd"
   xmlns:inkscape="http://www.inkscape.org/namespaces/inkscape"
   width="48"
   height="48"
   viewBox="0 0 12.7 12.7"
   version="1.1"
   id="svg4"
   sodipodi:docname="kali-menu.svg"
   inkscape:version="0.92.5 (2060ec1f9f, 2020-04-08)">
  <metadata
     id="metadata10">
    <rdf:RDF>
      <cc:Work
         rdf:about="">
        <dc:format>image/svg+xml</dc:format>
        <dc:type
           rdf:resource="http://purl.org/dc/dcmitype/StillImage" />
        <dc:title></dc:title>
      </cc:Work>
    </rdf:RDF>
  </metadata>
  <defs
     id="defs8" />
  <sodipodi:namedview
     pagecolor="#ffffff"
     bordercolor="#666666"
     borderopacity="1"
     objecttolerance="10"
     gridtolerance="10"
     guidetolerance="10"
     inkscape:pageopacity="0"
     inkscape:pageshadow="2"
     inkscape:window-width="1085"
     inkscape:window-height="480"
     id="namedview6"
     showgrid="false"
     inkscape:zoom="4.9166667"
     inkscape:cx="2.1355932"
     inkscape:cy="24"
     inkscape:window-x="0"
     inkscape:window-y="25"
     inkscape:window-maximized="0"
     inkscape:current-layer="svg4" />
  <path
     d="M 6.35,0.061 A 6.29,6.29 0 0 0 3.82,0.597 c 0.264,0.241 0.4,0.41 0.713,0.714 A 5.407,5.407 0 0 1 6.332,0.997 5.407,5.407 0 0 1 11.739,6.404 5.407,5.407 0 0 1 10.873,9.33 c 0.224,0.13 0.45,0.263 0.687,0.364 0.033,0.015 0.061,0.018 0.095,0.032 A 6.29,6.29 0 0 0 12.639,6.35 6.29,6.29 0 0 0 6.35,0.061 Z M 1.743,0.48 c 0.162,0.137 0.331,0.283 0.488,0.425 a 35.633,35.633 0 0 1 2.26,2.26 c 0.672,0.739 0.768,0.799 1.273,0.8 0.257,0 0.32,-0.011 0.31,-0.055 C 6.041,3.764 4.081,1.804 3.093,0.93 A 42.185,42.185 0 0 0 2.577,0.48 Z m -1.31,0.552 v 2.875 l 2.833,1.455 a 0.88,0.88 0 0 1 0.298,0.232 c 0.089,0.107 0.067,0.232 0.052,0.427 -0.013,0.172 -0.004,0.35 0.003,0.519 0.043,0.465 0.198,0.863 0.438,1.1 0.207,0.204 0.672,0.494 1.606,1.006 0.454,0.248 1.018,0.58 1.253,0.736 0.546,0.363 1.113,0.82 1.633,1.312 l 0.002,0.002 c 0.355,0.338 0.713,0.715 1.004,1.067 0.244,0.296 0.41,0.466 0.446,0.456 0.04,-0.01 0.478,-0.299 0.99,-0.647 1.264,-0.857 1.31,-0.892 1.264,-0.948 a 0.535,0.535 0 0 0 -0.182,-0.07 2.137,2.137 0 0 0 -0.12,-0.03 C 11.405,10.417 10.665,10.098 10.079,9.718 A 8.494,8.494 0 0 1 9.303,9.13 C 9.03,8.893 8.756,8.675 8.523,8.384 L 8.401,8.23 8.478,8.145 C 8.709,7.891 8.691,7.772 8.328,7.163 A 66.188,66.188 0 0 1 7.188,5.187 6.135,6.135 0 0 0 6.837,4.585 0.794,0.794 0 0 0 6.654,4.396 0.439,0.439 0 0 0 6.472,4.311 C 6.038,4.26 5.397,4.431 5.058,4.264 A 1.235,1.235 0 0 1 4.771,4.044 C 4.551,3.832 4.341,3.574 4.171,3.377 3.801,2.942 3.389,2.457 3.257,2.296 2.903,1.866 2.641,1.586 2.577,1.569 2.562,1.565 2.563,1.564 2.561,1.584 2.554,1.647 2.578,1.909 2.62,2.21 2.675,2.608 2.705,2.813 2.695,2.895 2.692,2.919 2.692,2.925 2.677,2.933 2.636,2.953 2.551,2.886 2.385,2.773 A 9.29,9.29 0 0 1 0.536,1.156 L 0.453,1.057 Z M 0.3,4.64 A 6.29,6.29 0 0 0 0.06,6.35 6.29,6.29 0 0 0 6.349,12.639 6.29,6.29 0 0 0 8.857,12.113 C 8.666,11.893 8.458,11.675 8.242,11.46 A 5.407,5.407 0 0 1 6.331,11.811 5.407,5.407 0 0 1 0.925,6.404 5.407,5.407 0 0 1 1.104,5.052 Z m 6.493,1.477 c 0.015,0 0.03,0.006 0.051,0.014 C 7.008,6.333 7.171,6.566 7.288,6.739 7.519,7.081 7.706,7.389 7.71,7.423 7.715,7.472 7.697,7.477 7.689,7.486 7.631,7.551 7.46,7.546 7.226,7.462 6.829,7.318 6.616,7.148 6.561,6.927 6.503,6.692 6.616,6.247 6.743,6.141 6.763,6.125 6.778,6.118 6.793,6.117 Z"
     id="path2"
     inkscape:connector-curvature="0"
     style="fill:#5beedc" />
</svg>
