<?xml version="1.0" encoding="UTF-8" standalone="no"?>
<svg
   xmlns:dc="http://purl.org/dc/elements/1.1/"
   xmlns:cc="http://creativecommons.org/ns#"
   xmlns:rdf="http://www.w3.org/1999/02/22-rdf-syntax-ns#"
   xmlns:svg="http://www.w3.org/2000/svg"
   xmlns="http://www.w3.org/2000/svg"
   xmlns:sodipodi="http://sodipodi.sourceforge.net/DTD/sodipodi-0.dtd"
   xmlns:inkscape="http://www.inkscape.org/namespaces/inkscape"
   width="48"
   height="48"
   viewBox="0 0 12.7 12.7"
   version="1.1"
   id="svg4"
   sodipodi:docname="kismet.svg"
   inkscape:version="0.92.5 (2060ec1f9f, 2020-04-08)">
  <metadata
     id="metadata10">
    <rdf:RDF>
      <cc:Work
         rdf:about="">
        <dc:format>image/svg+xml</dc:format>
        <dc:type
           rdf:resource="http://purl.org/dc/dcmitype/StillImage" />
        <dc:title></dc:title>
      </cc:Work>
    </rdf:RDF>
  </metadata>
  <defs
     id="defs8" />
  <sodipodi:namedview
     pagecolor="#ffffff"
     bordercolor="#666666"
     borderopacity="1"
     objecttolerance="10"
     gridtolerance="10"
     guidetolerance="10"
     inkscape:pageopacity="0"
     inkscape:pageshadow="2"
     inkscape:window-width="1085"
     inkscape:window-height="480"
     id="namedview6"
     showgrid="false"
     inkscape:zoom="4.9166667"
     inkscape:cx="2.1355932"
     inkscape:cy="24"
     inkscape:window-x="0"
     inkscape:window-y="25"
     inkscape:window-maximized="0"
     inkscape:current-layer="svg4" />
  <path
     d="M 6.34,0.075 A 6.295,6.295 0 0 0 0.055,6.36 6.295,6.295 0 0 0 6.34,12.655 6.295,6.295 0 0 0 12.634,6.36 6.295,6.295 0 0 0 6.34,0.075 Z m -0.011,0.94 a 5.408,5.408 0 0 1 5.397,5.387 5.407,5.407 0 0 1 -10.814,0 c 0,-2.987 2.43,-5.387 5.417,-5.387 z m 0.05,1.157 A 4.483,4.483 0 0 0 5.469,2.24 C 4.759,2.392 3.971,2.769 3.462,3.204 l -0.19,0.167 0.303,0.333 c 0.166,0.18 0.303,0.352 0.303,0.382 0,0.024 0.162,-0.103 0.358,-0.29 0.592,-0.562 1.248,-0.812 2.115,-0.817 0.861,0 1.62,0.294 2.207,0.867 L 8.818,4.1 8.93,3.948 C 8.989,3.87 9.126,3.708 9.234,3.591 L 9.424,3.381 9.307,3.258 C 8.954,2.881 8.029,2.416 7.325,2.26 A 5.11,5.11 0 0 0 6.378,2.172 Z M 6.293,3.116 C 6.181,3.118 6.07,3.126 5.959,3.141 A 3.071,3.071 0 0 0 4.319,3.909 C 4.158,4.056 4.026,4.208 4.026,4.242 c 0,0.034 0.078,0.225 0.17,0.42 0.265,0.559 0.358,1.004 0.358,1.67 0.005,1.12 -0.333,1.973 -1.082,2.766 -0.23,0.24 -0.23,0.25 0.23,0.577 a 4.55,4.55 0 0 0 4.176,0.587 C 8.352,10.092 8.969,9.744 9.263,9.474 L 9.429,9.318 9.204,9.068 C 8.529,8.319 8.196,7.516 8.152,6.518 8.122,5.818 8.24,5.226 8.524,4.638 L 8.719,4.242 8.411,3.939 C 7.867,3.408 7.076,3.105 6.293,3.116 Z m 0.148,1.58 C 6.626,4.708 6.808,4.744 6.938,4.8 7.056,4.85 7.237,4.986 7.344,5.094 7.624,5.383 7.809,5.979 7.624,5.979 7.579,5.979 7.55,5.936 7.55,5.858 7.55,5.667 7.418,5.388 7.241,5.206 6.551,4.486 5.357,4.829 5.176,5.799 5.127,6.043 5.053,6.029 5.053,5.769 c 0,-0.42 0.402,-0.89 0.882,-1.033 0.137,-0.039 0.322,-0.05 0.506,-0.04 z m -0.07,1.822 c 0.019,0 0.327,0.607 0.684,1.351 0.353,0.744 0.642,1.39 0.632,1.434 C 7.677,9.347 7.52,9.46 7.329,9.553 6.992,9.719 6.977,9.724 6.375,9.724 5.734,9.724 5.405,9.646 5.107,9.411 4.96,9.298 4.931,9.387 5.65,7.894 5.94,7.292 6.179,6.787 6.179,6.768 c 0,-0.054 0.152,-0.25 0.191,-0.25 z"
     id="path2"
     inkscape:connector-curvature="0"
     style="fill:#5beedc" />
</svg>
