<?xml version="1.0" encoding="UTF-8" standalone="no"?>
<svg
   xmlns:dc="http://purl.org/dc/elements/1.1/"
   xmlns:cc="http://creativecommons.org/ns#"
   xmlns:rdf="http://www.w3.org/1999/02/22-rdf-syntax-ns#"
   xmlns:svg="http://www.w3.org/2000/svg"
   xmlns="http://www.w3.org/2000/svg"
   xmlns:sodipodi="http://sodipodi.sourceforge.net/DTD/sodipodi-0.dtd"
   xmlns:inkscape="http://www.inkscape.org/namespaces/inkscape"
   width="48"
   height="48"
   viewBox="0 0 12.7 12.7"
   version="1.1"
   id="svg8"
   sodipodi:docname="netdiscover.svg"
   inkscape:version="0.92.5 (2060ec1f9f, 2020-04-08)">
  <metadata
     id="metadata14">
    <rdf:RDF>
      <cc:Work
         rdf:about="">
        <dc:format>image/svg+xml</dc:format>
        <dc:type
           rdf:resource="http://purl.org/dc/dcmitype/StillImage" />
        <dc:title></dc:title>
      </cc:Work>
    </rdf:RDF>
  </metadata>
  <defs
     id="defs12" />
  <sodipodi:namedview
     pagecolor="#ffffff"
     bordercolor="#666666"
     borderopacity="1"
     objecttolerance="10"
     gridtolerance="10"
     guidetolerance="10"
     inkscape:pageopacity="0"
     inkscape:pageshadow="2"
     inkscape:window-width="1085"
     inkscape:window-height="480"
     id="namedview10"
     showgrid="false"
     inkscape:zoom="2.4583333"
     inkscape:cx="2.1355932"
     inkscape:cy="24"
     inkscape:window-x="0"
     inkscape:window-y="25"
     inkscape:window-maximized="0"
     inkscape:current-layer="svg8" />
  <path
     style="fill:#5beedc;stroke-width:3.77952766"
     d="M 23.962891 0.28320312 A 23.792126 23.792126 0 0 0 0.20703125 24.037109 A 23.792126 23.792126 0 0 0 4.7363281 37.960938 L 4.7363281 31.310547 A 20.435906 20.435906 0 0 1 3.4511719 24.197266 C 3.4511719 12.907817 12.630473 3.8359375 23.919922 3.8359375 A 20.439685 20.439685 0 0 1 44.318359 24.197266 A 20.435906 20.435906 0 0 1 43.173828 30.871094 L 43.173828 38.013672 A 23.792126 23.792126 0 0 0 47.746094 24.037109 A 23.792126 23.792126 0 0 0 23.962891 0.28320312 z M 11.640625 17.158203 C 11.413853 17.158203 11.300244 17.435137 11.458984 17.597656 L 11.972656 18.107422 L 8.1269531 21.951172 A 0.25700787 0.25700787 0 0 0 8.1269531 22.314453 L 9.0097656 23.199219 A 0.25322835 0.25322835 0 0 0 9.3691406 23.199219 L 13.212891 19.355469 L 13.726562 19.869141 A 0.25700787 0.25700787 0 0 0 14.166016 19.691406 L 14.166016 17.416016 A 0.25700787 0.25700787 0 0 0 13.908203 17.162109 L 11.640625 17.162109 L 11.640625 17.158203 z M 34.064453 17.158203 A 0.25700787 0.25700787 0 0 0 33.8125 17.416016 L 33.8125 19.691406 C 33.8125 19.918178 34.087354 20.03166 34.246094 19.869141 L 34.759766 19.355469 L 38.603516 23.199219 A 0.25322835 0.25322835 0 0 0 38.962891 23.199219 L 39.847656 22.314453 A 0.25700787 0.25700787 0 0 0 39.847656 21.951172 L 36.003906 18.107422 L 36.517578 17.597656 A 0.25322835 0.25322835 0 0 0 36.335938 17.162109 L 34.068359 17.162109 L 34.064453 17.158203 z M 15.642578 19.369141 L 15.642578 19.373047 A 0.25322835 0.25322835 0 0 0 15.462891 19.449219 L 11.619141 23.285156 L 11.103516 22.775391 A 0.25322835 0.25322835 0 0 0 10.673828 22.953125 L 10.673828 25.228516 C 10.673828 25.368358 10.785939 25.482422 10.925781 25.482422 L 13.193359 25.482422 C 13.420131 25.482422 13.53374 25.205615 13.375 25.046875 L 12.865234 24.533203 L 16.705078 20.693359 A 0.25322835 0.25322835 0 0 0 16.705078 20.333984 L 15.820312 19.445312 A 0.25322835 0.25322835 0 0 0 15.642578 19.369141 z M 32.337891 19.369141 L 32.337891 19.373047 A 0.25322835 0.25322835 0 0 0 32.15625 19.449219 L 31.384766 20.220703 L 31.271484 20.333984 A 0.25322835 0.25322835 0 0 0 31.271484 20.693359 L 35.111328 24.537109 L 34.597656 25.050781 A 0.25322835 0.25322835 0 0 0 34.783203 25.486328 L 37.050781 25.486328 C 37.194403 25.486328 37.308594 25.372264 37.308594 25.232422 L 37.308594 22.957031 C 37.308594 22.73026 37.031787 22.616777 36.873047 22.779297 L 36.359375 23.289062 L 32.515625 19.445312 A 0.25322835 0.25322835 0 0 0 32.337891 19.369141 z M 6.4433594 27.654297 L 6.4433594 36.861328 L 7.6386719 36.861328 L 7.6386719 37.261719 L 6.4296875 38.195312 L 6.4296875 40.53125 L 18.482422 40.53125 L 18.482422 38.195312 L 17.271484 37.261719 L 17.271484 36.861328 L 18.466797 36.861328 L 18.466797 27.654297 L 6.4472656 27.654297 L 6.4433594 27.654297 z M 29.533203 27.654297 L 29.533203 36.861328 L 30.728516 36.861328 L 30.728516 37.261719 L 29.517578 38.195312 L 29.517578 40.53125 L 41.566406 40.53125 L 41.566406 38.195312 L 40.357422 37.261719 L 40.357422 36.861328 L 41.556641 36.861328 L 41.556641 27.654297 L 29.533203 27.654297 z M 7.2988281 28.486328 L 17.613281 28.486328 L 17.613281 35.576172 L 7.2988281 35.576172 L 7.2988281 28.486328 z M 30.386719 28.486328 L 30.390625 28.486328 L 40.701172 28.486328 L 40.701172 35.576172 L 30.386719 35.576172 L 30.386719 28.486328 z M 9.4824219 42.867188 A 23.792126 23.792126 0 0 0 23.962891 47.830078 A 23.792126 23.792126 0 0 0 38.453125 42.867188 L 32.123047 42.867188 A 20.435906 20.435906 0 0 1 15.605469 42.867188 L 9.4824219 42.867188 z "
     transform="scale(0.26458333)"
     id="path2" />
  <path
     d="M 4.802,1.607 V 4.043 H 5.118 V 4.149 L 4.798,4.396 V 5.014 H 7.986 V 4.396 L 7.666,4.149 V 4.043 H 7.982 V 1.607 Z m 0.226,0.22 H 7.756 V 3.703 H 5.028 Z"
     id="path6"
     inkscape:connector-curvature="0"
     style="opacity:0.75;fill:#d41919;paint-order:stroke fill markers" />
</svg>
