<?xml version="1.0" encoding="UTF-8" standalone="no"?>
<svg
   xmlns:dc="http://purl.org/dc/elements/1.1/"
   xmlns:cc="http://creativecommons.org/ns#"
   xmlns:rdf="http://www.w3.org/1999/02/22-rdf-syntax-ns#"
   xmlns:svg="http://www.w3.org/2000/svg"
   xmlns="http://www.w3.org/2000/svg"
   xmlns:sodipodi="http://sodipodi.sourceforge.net/DTD/sodipodi-0.dtd"
   xmlns:inkscape="http://www.inkscape.org/namespaces/inkscape"
   width="48"
   height="48"
   viewBox="0 0 12.7 12.7"
   version="1.1"
   id="svg4"
   sodipodi:docname="ace.svg"
   inkscape:version="0.92.5 (2060ec1f9f, 2020-04-08)">
  <metadata
     id="metadata10">
    <rdf:RDF>
      <cc:Work
         rdf:about="">
        <dc:format>image/svg+xml</dc:format>
        <dc:type
           rdf:resource="http://purl.org/dc/dcmitype/StillImage" />
        <dc:title></dc:title>
      </cc:Work>
    </rdf:RDF>
  </metadata>
  <defs
     id="defs8" />
  <sodipodi:namedview
     pagecolor="#ffffff"
     bordercolor="#666666"
     borderopacity="1"
     objecttolerance="10"
     gridtolerance="10"
     guidetolerance="10"
     inkscape:pageopacity="0"
     inkscape:pageshadow="2"
     inkscape:window-width="1085"
     inkscape:window-height="480"
     id="namedview6"
     showgrid="false"
     inkscape:zoom="4.9166667"
     inkscape:cx="2.1355932"
     inkscape:cy="24"
     inkscape:window-x="0"
     inkscape:window-y="25"
     inkscape:window-maximized="0"
     inkscape:current-layer="svg4" />
  <path
     d="M 6.35,0.06 V 0.061 A 6.29,6.29 0 0 0 0.06,6.351 6.29,6.29 0 0 0 6.35,12.64 6.29,6.29 0 0 0 12.64,6.35 6.29,6.29 0 0 0 6.35,0.06 Z M 6.332,0.997 a 5.407,5.407 0 0 1 5.407,5.407 5.407,5.407 0 0 1 -1.04,3.18 0.912,0.912 0 0 0 -0.292,-0.045 H 7.557 V 9.249 C 7.557,9.124 7.382,9.024 7.168,9.024 H 6.807 V 8.453 h 3.478 L 10.449,7.382 H 2.251 l 0.182,1.07 H 5.904 V 9.024 H 5.517 c -0.214,0 -0.387,0.1 -0.387,0.225 v 0.29 H 2.202 A 0.954,0.954 0 0 0 1.958,9.572 5.407,5.407 0 0 1 0.925,6.404 5.407,5.407 0 0 1 6.332,0.998 Z M 3.817,2.621 v 10e-4 c -0.237,0 -0.373,0.033 -0.422,0.22 L 2.248,7.095 10.452,7.099 9.212,2.841 C 9.178,2.719 8.994,2.621 8.84,2.621 Z M 4.656,2.993 A 0.615,0.615 0 0 1 4.98,3.073 L 5.87,3.62 C 6.046,3.729 6.041,3.91 5.858,4.023 L 5.71,4.114 5.409,4.299 5.457,4.352 c 0.157,0.175 0.372,0.414 0.78,0.666 0.408,0.25 0.796,0.383 1.079,0.48 L 7.404,5.528 7.853,5.252 A 0.686,0.686 0 0 1 8.506,5.244 l 0.89,0.548 c 0.177,0.11 0.17,0.29 -0.013,0.402 L 9.13,6.348 9.125,6.345 C 9.017,6.396 8.894,6.44 8.762,6.471 8.639,6.501 8.518,6.52 8.392,6.529 8.333,6.533 6.988,6.611 5.319,5.583 4.11,4.839 3.666,4.29 3.784,3.69 A 0.652,0.652 0 0 1 3.876,3.463 0.926,0.926 0 0 1 4.082,3.238 L 4.076,3.234 4.326,3.079 a 0.654,0.654 0 0 1 0.33,-0.087 z m -2.05,7.32 H 5.13 v 0.24 c 0,0.124 0.173,0.226 0.387,0.226 h 1.652 c 0.214,0 0.387,-0.102 0.387,-0.227 v -0.238 h 2.509 A 5.407,5.407 0 0 1 6.332,11.812 5.407,5.407 0 0 1 2.606,10.314 Z"
     id="path2"
     inkscape:connector-curvature="0"
     style="fill:#5beedc" />
</svg>
