<?xml version="1.0" encoding="UTF-8" standalone="no"?>
<svg
   xmlns:dc="http://purl.org/dc/elements/1.1/"
   xmlns:cc="http://creativecommons.org/ns#"
   xmlns:rdf="http://www.w3.org/1999/02/22-rdf-syntax-ns#"
   xmlns:svg="http://www.w3.org/2000/svg"
   xmlns="http://www.w3.org/2000/svg"
   xmlns:sodipodi="http://sodipodi.sourceforge.net/DTD/sodipodi-0.dtd"
   xmlns:inkscape="http://www.inkscape.org/namespaces/inkscape"
   width="48"
   height="48"
   viewBox="0 0 12.7 12.7"
   version="1.1"
   id="svg4"
   sodipodi:docname="jboss-autopwn.svg"
   inkscape:version="0.92.5 (2060ec1f9f, 2020-04-08)">
  <metadata
     id="metadata10">
    <rdf:RDF>
      <cc:Work
         rdf:about="">
        <dc:format>image/svg+xml</dc:format>
        <dc:type
           rdf:resource="http://purl.org/dc/dcmitype/StillImage" />
        <dc:title></dc:title>
      </cc:Work>
    </rdf:RDF>
  </metadata>
  <defs
     id="defs8" />
  <sodipodi:namedview
     pagecolor="#ffffff"
     bordercolor="#666666"
     borderopacity="1"
     objecttolerance="10"
     gridtolerance="10"
     guidetolerance="10"
     inkscape:pageopacity="0"
     inkscape:pageshadow="2"
     inkscape:window-width="1085"
     inkscape:window-height="480"
     id="namedview6"
     showgrid="false"
     inkscape:zoom="4.9166667"
     inkscape:cx="2.1355932"
     inkscape:cy="24"
     inkscape:window-x="0"
     inkscape:window-y="25"
     inkscape:window-maximized="0"
     inkscape:current-layer="svg4" />
  <path
     d="m 6.345,0.065 a 6.29,6.29 0 0 0 -6.29,6.3 6.29,6.29 0 0 0 6.3,6.28 6.29,6.29 0 0 0 6.28,-6.29 6.29,6.29 0 0 0 -6.29,-6.29 z m -0.02,0.93 0.01,0.01 a 5.4,5.4 0 0 1 5.4,5.4 5.4,5.4 0 0 1 -5.4,5.41 5.4,5.4 0 0 1 -5.41,-5.4 5.4,5.4 0 0 1 5.4,-5.42 z m 0.04,0.85 c -1.57,0.14 -1.16,1.79 -1.17,2.35 a 2,2 0 0 1 -0.4,1.12 5.53,5.53 0 0 0 -1,1.67 2,2 0 0 0 -0.1,0.92 0.69,0.69 0 0 0 -0.05,0.04 c -0.1,0.1 -0.16,0.23 -0.24,0.31 -0.08,0.07 -0.18,0.1 -0.3,0.14 a 0.53,0.53 0 0 0 -0.32,0.25 0.45,0.45 0 0 0 -0.04,0.22 c 0,0.07 0,0.14 0.02,0.2 0.02,0.14 0.04,0.27 0.01,0.36 -0.1,0.25 -0.1,0.43 -0.04,0.55 0.07,0.13 0.2,0.18 0.35,0.22 0.3,0.06 0.7,0.04 1.03,0.21 0.34,0.18 0.69,0.25 0.96,0.18 a 0.6,0.6 0 0 0 0.45,-0.35 c 0.22,0 0.46,-0.1 0.84,-0.11 0.26,-0.02 0.58,0.09 0.95,0.07 l 0.04,0.12 a 0.7,0.7 0 0 0 0.7,0.4 c 0.29,-0.03 0.6,-0.2 0.84,-0.49 0.23,-0.28 0.62,-0.4 0.88,-0.56 0.13,-0.07 0.23,-0.17 0.24,-0.31 0,-0.14 -0.08,-0.3 -0.27,-0.51 -0.06,-0.08 -0.09,-0.2 -0.12,-0.35 -0.03,-0.14 -0.07,-0.29 -0.18,-0.38 a 0.47,0.47 0 0 0 -0.15,-0.09 2,2 0 0 0 -0.06,-1.37 4.6,4.6 0 0 0 -0.8,-1.28 c -0.3,-0.38 -0.59,-0.73 -0.58,-1.25 0,-0.8 0.09,-2.27 -1.31,-2.27 v -0.01 z m 0.36,1.22 c 0.08,0 0.15,0.03 0.22,0.08 a 0.5,0.5 0 0 1 0.17,0.2 c 0.04,0.09 0.06,0.18 0.06,0.28 a 0.67,0.67 0 0 1 -0.14,0.42 2.6,2.6 0 0 0 -0.13,-0.05 l -0.08,-0.02 c 0.02,-0.03 0.06,-0.05 0.07,-0.09 0.02,-0.04 0.03,-0.1 0.03,-0.15 0,-0.06 0,-0.1 -0.02,-0.16 a 0.28,0.28 0 0 0 -0.07,-0.11 0.14,0.14 0 0 0 -0.1,-0.05 0.15,0.15 0 0 0 -0.1,0.04 0.28,0.28 0 0 0 -0.08,0.11 0.46,0.46 0 0 0 -0.03,0.25 1.13,1.13 0 0 0 -0.22,-0.07 v -0.09 c 0,-0.11 0.01,-0.2 0.05,-0.3 a 0.5,0.5 0 0 1 0.16,-0.2 0.35,0.35 0 0 1 0.22,-0.08 z M 5.64,3.155 a 0.23,0.23 0 0 1 0.006,0 c 0.05,0 0.1,0.02 0.15,0.06 0.05,0.04 0.09,0.1 0.12,0.17 0.04,0.07 0.06,0.15 0.06,0.24 v 0.1 a 0.66,0.66 0 0 0 -0.18,0.09 0.42,0.42 0 0 0 -0.03,-0.22 0.23,0.23 0 0 0 -0.06,-0.1 0.1,0.1 0 0 0 -0.07,-0.02 c -0.03,0 -0.05,0.01 -0.07,0.04 a 0.23,0.23 0 0 0 -0.05,0.1 0.4,0.4 0 0 0 0.02,0.26 0.23,0.23 0 0 0 0.08,0.1 l -0.07,0.05 -0.04,0.03 a 0.45,0.45 0 0 1 -0.1,-0.15 0.68,0.68 0 0 1 -0.06,-0.24 c 0,-0.1 0,-0.17 0.03,-0.25 a 0.43,0.43 0 0 1 0.1,-0.19 0.23,0.23 0 0 1 0.164,-0.07 z m 0.496,0.62 h 0.01 c 0.12,0 0.26,0.04 0.44,0.16 0.11,0.07 0.2,0.07 0.4,0.16 0.09,0.04 0.14,0.09 0.17,0.14 a 0.2,0.2 0 0 1 0,0.17 c -0.04,0.12 -0.19,0.25 -0.39,0.31 -0.1,0.04 -0.18,0.1 -0.29,0.17 -0.1,0.05 -0.21,0.1 -0.37,0.1 a 0.48,0.48 0 0 1 -0.28,-0.12 c -0.08,-0.06 -0.14,-0.13 -0.23,-0.18 -0.15,-0.09 -0.23,-0.18 -0.26,-0.27 -0.02,-0.08 0,-0.15 0.08,-0.2 l 0.17,-0.14 0.07,-0.05 c 0.06,-0.06 0.16,-0.17 0.31,-0.22 0.05,-0.02 0.1,-0.03 0.17,-0.03 z m -0.21,0.15 c -0.02,0.02 -0.06,0.03 -0.05,0.06 l 0.05,0.02 c 0.02,0 0.03,-0.02 0.05,-0.03 0.02,0 0.05,0 0.06,-0.03 l -0.01,-0.02 h -0.04 z m 0.33,0 -0.02,0.02 c 0.01,0.02 0.05,0.02 0.07,0.03 0.01,0.01 0.03,0.03 0.05,0.03 0.02,0 0.04,0 0.05,-0.02 0,-0.03 -0.04,-0.04 -0.06,-0.05 a 0.15,0.15 0 0 0 -0.06,-0.01 z m 0.69,0.32 c -0.04,0 -0.04,0.04 -0.1,0.08 l -0.24,0.17 a 1.2,1.2 0 0 1 -0.52,0.18 0.7,0.7 0 0 1 -0.43,-0.17 l -0.13,-0.12 c -0.03,-0.02 -0.03,-0.08 -0.08,-0.08 -0.02,0 -0.03,0.06 0.03,0.11 l 0.14,0.12 c 0.11,0.1 0.27,0.19 0.47,0.19 0.2,0 0.4,-0.1 0.55,-0.19 0.09,-0.04 0.2,-0.12 0.26,-0.18 0.07,-0.06 0.1,-0.1 0.05,-0.11 z m 0.23,0.28 c 0.13,0.53 0.44,1.28 0.64,1.65 0.1,0.2 0.32,0.62 0.4,1.12 0.07,0 0.13,0 0.2,0.03 0.24,-0.62 -0.2,-1.29 -0.4,-1.47 -0.09,-0.08 -0.09,-0.12 -0.05,-0.11 0.22,0.19 0.5,0.58 0.61,1.02 0.05,0.2 0.06,0.4 0,0.61 l 0.08,0.04 c 0.38,0.18 0.53,0.35 0.46,0.57 h -0.07 c 0.05,-0.18 -0.07,-0.3 -0.4,-0.46 -0.34,-0.14 -0.6,-0.13 -0.65,0.17 l -0.01,0.05 a 0.52,0.52 0 0 0 -0.08,0.04 c -0.16,0.08 -0.24,0.24 -0.3,0.43 -0.04,0.2 -0.05,0.43 -0.07,0.7 0,0.13 -0.06,0.3 -0.11,0.5 -0.56,0.4 -1.33,0.56 -1.98,0.12 a 2.91,2.91 0 0 0 -0.25,-0.34 c 0.06,0 0.12,-0.01 0.17,-0.03 0.05,-0.03 0.1,-0.07 0.11,-0.12 0.04,-0.11 0,-0.26 -0.12,-0.44 a 2.34,2.34 0 0 0 -0.67,-0.56 0.94,0.94 0 0 1 -0.42,-0.52 c -0.06,-0.19 -0.05,-0.4 0,-0.6 0.08,-0.4 0.32,-0.79 0.46,-1.03 0.04,-0.03 0.02,0.06 -0.15,0.36 -0.14,0.28 -0.42,0.92 -0.04,1.43 a 3,3 0 0 1 0.24,-1.07 c 0.2,-0.47 0.64,-1.3 0.68,-1.95 l 0.1,0.07 c 0.09,0.05 0.15,0.12 0.22,0.18 a 0.54,0.54 0 0 0 0.37,0.13 c 0.15,0 0.27,-0.05 0.37,-0.1 0.1,-0.07 0.19,-0.14 0.27,-0.16 0.17,-0.06 0.31,-0.15 0.39,-0.26 z m 0.34,1.426 -1.372,0.2 V 7.167 L 7.515,7.154 Z M 6.019,6.169 4.985,6.309 4.986,7.172 6.02,7.167 Z M 4.986,7.275 V 8.138 L 6.02,8.28 v -1 L 4.986,7.274 Z M 6.142,7.288 6.144,8.295 7.515,8.489 V 7.29 Z m 1.835,0.591 c 0.02,0.229 0.13,0.456 0.328,0.496 0.22,0.07 0.53,-0.12 0.67,-0.27 h 0.07 c 0.12,0 0.22,0 0.32,0.08 0.08,0.07 0.11,0.2 0.14,0.33 0.04,0.14 0.06,0.29 0.16,0.4 0.18,0.2 0.24,0.33 0.23,0.42 0,0.09 -0.07,0.15 -0.18,0.22 -0.24,0.14 -0.65,0.27 -0.91,0.59 -0.23,0.27 -0.51,0.42 -0.76,0.44 a 0.57,0.57 0 0 1 -0.58,-0.34 c -0.08,-0.15 -0.05,-0.38 0.02,-0.62 0.06,-0.25 0.16,-0.5 0.17,-0.7 0.01,-0.27 0.03,-0.5 0.07,-0.68 0.05,-0.17 0.12,-0.3 0.24,-0.36 z M 4.015,7.893 a 0.4,0.4 0 0 1 0.03,0.002 c 0.14,0.02 0.26,0.12 0.38,0.28 l 0.33,0.61 c 0.1,0.2 0.28,0.4 0.44,0.61 0.17,0.21 0.29,0.42 0.27,0.58 -0.02,0.28 -0.17,0.43 -0.41,0.49 -0.24,0.05 -0.57,0 -0.89,-0.17 -0.36,-0.2 -0.78,-0.17 -1.06,-0.23 -0.13,-0.03 -0.22,-0.07 -0.26,-0.15 -0.04,-0.08 -0.05,-0.22 0.04,-0.46 0.05,-0.13 0.01,-0.28 0,-0.41 -0.03,-0.14 -0.04,-0.26 0,-0.35 0.07,-0.12 0.16,-0.16 0.26,-0.2 0.11,-0.03 0.24,-0.06 0.34,-0.17 0.1,-0.1 0.17,-0.22 0.25,-0.3 0.07,-0.08 0.14,-0.13 0.24,-0.13 a 0.4,0.4 0 0 1 0.04,-0.002 z"
     id="path2"
     inkscape:connector-curvature="0"
     style="fill:#5beedc" />
</svg>
