<?xml version="1.0" encoding="UTF-8" standalone="no"?>
<svg
   xmlns:dc="http://purl.org/dc/elements/1.1/"
   xmlns:cc="http://creativecommons.org/ns#"
   xmlns:rdf="http://www.w3.org/1999/02/22-rdf-syntax-ns#"
   xmlns:svg="http://www.w3.org/2000/svg"
   xmlns="http://www.w3.org/2000/svg"
   xmlns:sodipodi="http://sodipodi.sourceforge.net/DTD/sodipodi-0.dtd"
   xmlns:inkscape="http://www.inkscape.org/namespaces/inkscape"
   width="48"
   height="48"
   viewBox="0 0 12.7 12.7"
   version="1.1"
   id="svg6"
   sodipodi:docname="cutycapt.svg"
   inkscape:version="0.92.5 (2060ec1f9f, 2020-04-08)">
  <metadata
     id="metadata12">
    <rdf:RDF>
      <cc:Work
         rdf:about="">
        <dc:format>image/svg+xml</dc:format>
        <dc:type
           rdf:resource="http://purl.org/dc/dcmitype/StillImage" />
        <dc:title></dc:title>
      </cc:Work>
    </rdf:RDF>
  </metadata>
  <defs
     id="defs10" />
  <sodipodi:namedview
     pagecolor="#ffffff"
     bordercolor="#666666"
     borderopacity="1"
     objecttolerance="10"
     gridtolerance="10"
     guidetolerance="10"
     inkscape:pageopacity="0"
     inkscape:pageshadow="2"
     inkscape:window-width="1085"
     inkscape:window-height="480"
     id="namedview8"
     showgrid="false"
     inkscape:zoom="4.9166667"
     inkscape:cx="2.1355932"
     inkscape:cy="24"
     inkscape:window-x="0"
     inkscape:window-y="25"
     inkscape:window-maximized="0"
     inkscape:current-layer="svg6" />
  <path
     d="M 6.34,0.075 A 6.295,6.295 0 0 0 0.055,6.36 6.295,6.295 0 0 0 6.34,12.655 6.295,6.295 0 0 0 12.634,6.36 6.295,6.295 0 0 0 6.34,0.075 Z m -0.011,0.94 a 5.408,5.408 0 0 1 5.397,5.387 5.407,5.407 0 0 1 -10.814,0 c 0,-2.987 2.43,-5.387 5.417,-5.387 z m 0.96,1.356 c -0.337,0 -0.682,0.013 -0.746,0.016 H 3.532 a 0.487,0.487 0 0 0 -0.093,0 0.513,0.513 0 0 0 -0.404,0.497 v 6.949 c 0,0.26 0.237,0.497 0.497,0.497 h 1.833 c 0.449,0.492 1.07,0.82 1.752,0.891 0.16,0.016 0.448,0.014 0.613,-0.005 a 2.744,2.744 0 0 0 1.21,-0.443 2.79,2.79 0 0 0 1.217,-1.95 c 0.02,-0.14 0.02,-0.571 0,-0.71 a 2.815,2.815 0 0 0 -0.5,-1.26 V 5.499 C 9.66,5.367 9.693,3.855 9.6,3.761 L 8.01,2.425 C 7.963,2.379 7.63,2.369 7.291,2.371 Z m 0.249,0.511 0.021,1.24 C 7.561,4.235 7.665,4.337 7.776,4.334 L 9.064,4.312 H 9.13 l 0.013,0.5 0.017,0.677 V 6.326 A 2.737,2.737 0 0 0 7.366,5.702 2.752,2.752 0 0 0 4.784,7.59 2.601,2.601 0 0 0 4.645,8.467 2.721,2.721 0 0 0 5.004,9.833 H 3.532 V 2.884 h 3.09 z M 7.42,6.779 c 0.005,0 0.04,0.132 0.08,0.293 0.078,0.32 0.101,0.405 0.115,0.423 0.005,0.007 0.04,0.023 0.076,0.037 0.09,0.033 0.165,0.082 0.238,0.127 L 8.828,7.049 8.199,7.964 c 0.044,0.068 0.113,0.122 0.142,0.204 l 0.041,0.114 c 0.003,0.004 0.059,0.017 0.534,0.13 0.106,0.025 0.188,0.049 0.183,0.054 A 8.433,8.433 0 0 1 8.517,8.611 C 8.382,8.643 8.389,8.636 8.34,8.768 A 0.96,0.96 0 0 1 8.238,8.973 0.089,0.089 0 0 1 8.218,8.992 1.33,1.33 0 0 1 8.15,8.9 L 8.084,8.809 8.119,8.704 A 0.558,0.558 0 0 0 8.154,8.464 0.605,0.605 0 0 0 8.077,8.142 L 7.669,8.736 7.142,8.193 7.708,7.808 C 7.683,7.796 7.671,7.764 7.645,7.755 A 0.864,0.864 0 0 0 7.233,7.745 L 7.138,7.767 7.082,7.719 C 6.989,7.639 6.967,7.616 6.973,7.606 A 0.711,0.711 0 0 1 7.095,7.552 C 7.158,7.527 7.218,7.502 7.227,7.495 7.242,7.483 7.271,7.372 7.402,6.824 7.408,6.799 7.416,6.778 7.42,6.778 Z M 6.595,7.957 6.621,7.988 6.696,8.082 6.744,8.143 6.716,8.233 A 0.715,0.715 0 0 0 6.761,8.741 L 7.125,8.211 7.652,8.753 7.118,9.116 C 7.153,9.133 7.186,9.166 7.217,9.174 7.337,9.207 7.565,9.204 7.652,9.169 7.692,9.153 7.7,9.153 7.727,9.167 7.777,9.194 7.886,9.298 7.877,9.311 A 0.755,0.755 0 0 1 7.743,9.373 C 7.636,9.414 7.613,9.427 7.603,9.452 A 8.305,8.305 0 0 0 7.516,9.808 L 7.433,10.163 C 7.425,10.195 7.436,10.232 7.323,9.778 A 3.212,3.212 0 0 0 7.225,9.428 0.397,0.397 0 0 0 7.14,9.389 1.234,1.234 0 0 1 6.9,9.265 L 6.063,9.833 H 6.01 L 6.62,8.945 C 6.591,8.899 6.538,8.863 6.521,8.818 6.471,8.683 6.455,8.651 6.434,8.644 L 6.077,8.558 A 5.084,5.084 0 0 1 5.73,8.468 2.982,2.982 0 0 1 6.078,8.374 C 6.312,8.318 6.44,8.282 6.45,8.271 A 0.92,0.92 0 0 0 6.51,8.134 C 6.536,8.069 6.565,8.003 6.575,7.987 Z"
     id="path2"
     inkscape:connector-curvature="0"
     style="fill:#5beedc" />
  <path
     d="M 7.669,8.737 8.828,7.049 7.142,8.194 Z"
     id="path4"
     inkscape:connector-curvature="0"
     style="opacity:0.75;fill:#fd4747;fill-opacity:0.99599998;stroke:#dc4545;stroke-width:0.026" />
</svg>
