<?xml version="1.0" encoding="UTF-8" standalone="no"?>
<svg
   xmlns:dc="http://purl.org/dc/elements/1.1/"
   xmlns:cc="http://creativecommons.org/ns#"
   xmlns:rdf="http://www.w3.org/1999/02/22-rdf-syntax-ns#"
   xmlns:svg="http://www.w3.org/2000/svg"
   xmlns="http://www.w3.org/2000/svg"
   xmlns:sodipodi="http://sodipodi.sourceforge.net/DTD/sodipodi-0.dtd"
   xmlns:inkscape="http://www.inkscape.org/namespaces/inkscape"
   width="48"
   height="48"
   viewBox="0 0 12.7 12.7"
   version="1.1"
   id="svg4"
   sodipodi:docname="kanagram.svg"
   inkscape:version="0.92.4 (5da689c313, 2019-01-14)">
  <metadata
     id="metadata10">
    <rdf:RDF>
      <cc:Work
         rdf:about="">
        <dc:format>image/svg+xml</dc:format>
        <dc:type
           rdf:resource="http://purl.org/dc/dcmitype/StillImage" />
        <dc:title></dc:title>
      </cc:Work>
    </rdf:RDF>
  </metadata>
  <defs
     id="defs8" />
  <sodipodi:namedview
     pagecolor="#ffffff"
     bordercolor="#666666"
     borderopacity="1"
     objecttolerance="10"
     gridtolerance="10"
     guidetolerance="10"
     inkscape:pageopacity="0"
     inkscape:pageshadow="2"
     inkscape:window-width="1112"
     inkscape:window-height="480"
     id="namedview6"
     showgrid="false"
     inkscape:zoom="4.9166667"
     inkscape:cx="2.1355932"
     inkscape:cy="24"
     inkscape:window-x="0"
     inkscape:window-y="25"
     inkscape:window-maximized="0"
     inkscape:current-layer="svg4" />
  <path
     d="m 6.34,0.07 a 6.29,6.29 0 0 0 0,12.58 6.29,6.29 0 0 0 0,-12.58 z M 6.32,1 A 5.417,5.417 0 0 1 11.73,6.41 5.4,5.4 0 0 1 6.33,11.82 5.4,5.4 0 0 1 0.92,6.42 5.4,5.4 0 0 1 6.32,1 Z M 4.233,4.498 v 2.117 h 0.53 V 4.498 Z M 8.996,4.762 9.657,5.821 8.996,6.879 h 0.529 l 0.397,-0.635 0.397,0.635 h 0.529 L 10.186,5.821 10.848,4.762 h -0.53 L 9.922,5.398 9.525,4.762 H 8.995 Z M 2.376,5.29 2.377,5.292 H 1.852 v 2.116 h 0.53 v -1.17 l 0.793,1.17 h 0.53 V 5.292 H 3.175 V 6.484 L 2.381,5.298 V 5.292 Z m 4.503,0.266 v 1.059 c 0,0 -0.004,0.242 0.103,0.498 0.107,0.257 0.387,0.56 0.823,0.56 0.437,0 0.717,-0.303 0.823,-0.56 C 8.735,6.857 8.731,6.615 8.731,6.615 V 5.556 H 8.202 v 1.059 c 0,0 -0.004,0.154 -0.062,0.295 C 8.081,7.05 8.03,7.144 7.805,7.144 7.58,7.144 7.529,7.05 7.471,6.91 7.412,6.769 7.408,6.615 7.408,6.615 V 5.556 H 6.88 Z M 5.292,6.086 V 8.203 H 6.615 V 7.673 H 5.82 V 6.085 H 5.29 Z"
     id="path2"
     inkscape:connector-curvature="0"
     style="fill:#5beedc" />
</svg>
