<?xml version="1.0" encoding="UTF-8" standalone="no"?>
<svg
   xmlns:dc="http://purl.org/dc/elements/1.1/"
   xmlns:cc="http://creativecommons.org/ns#"
   xmlns:rdf="http://www.w3.org/1999/02/22-rdf-syntax-ns#"
   xmlns:svg="http://www.w3.org/2000/svg"
   xmlns="http://www.w3.org/2000/svg"
   xmlns:sodipodi="http://sodipodi.sourceforge.net/DTD/sodipodi-0.dtd"
   xmlns:inkscape="http://www.inkscape.org/namespaces/inkscape"
   width="48"
   height="48"
   viewBox="0 0 12.7 12.7"
   version="1.1"
   id="svg4"
   sodipodi:docname="kapptemplate.svg"
   inkscape:version="0.92.4 (5da689c313, 2019-01-14)">
  <metadata
     id="metadata10">
    <rdf:RDF>
      <cc:Work
         rdf:about="">
        <dc:format>image/svg+xml</dc:format>
        <dc:type
           rdf:resource="http://purl.org/dc/dcmitype/StillImage" />
        <dc:title></dc:title>
      </cc:Work>
    </rdf:RDF>
  </metadata>
  <defs
     id="defs8" />
  <sodipodi:namedview
     pagecolor="#ffffff"
     bordercolor="#666666"
     borderopacity="1"
     objecttolerance="10"
     gridtolerance="10"
     guidetolerance="10"
     inkscape:pageopacity="0"
     inkscape:pageshadow="2"
     inkscape:window-width="1112"
     inkscape:window-height="480"
     id="namedview6"
     showgrid="false"
     inkscape:zoom="4.9166667"
     inkscape:cx="2.1355932"
     inkscape:cy="24"
     inkscape:window-x="0"
     inkscape:window-y="25"
     inkscape:window-maximized="0"
     inkscape:current-layer="svg4" />
  <path
     d="m 6.34,0.07 a 6.29,6.29 0 0 0 0,12.58 6.29,6.29 0 0 0 0,-12.58 z M 6.32,1 A 5.417,5.417 0 0 1 11.73,6.41 5.4,5.4 0 0 1 6.33,11.82 5.4,5.4 0 0 1 0.92,6.42 5.4,5.4 0 0 1 6.32,1 Z m 0.035,0.576 c -0.15,0 -0.299,0.004 -0.445,0.02 L 5.633,3.022 A 3.41,3.41 0 0 0 4.973,3.233 L 3.933,2.234 C 3.674,2.395 3.432,2.58 3.209,2.787 L 3.825,4.085 V 4.086 A 3.44,3.44 0 0 0 3.615,4.344 V 4.347 A 3.44,3.44 0 0 0 3.422,4.639 L 1.997,4.446 C 1.877,4.726 1.784,5.019 1.721,5.318 l 1.253,0.681 c -0.012,0.113 -0.02,0.226 -0.02,0.34 0,0.117 0.009,0.226 0.02,0.34 L 1.721,7.359 C 1.786,7.661 1.875,7.952 1.997,8.231 L 3.422,8.038 c 0.009,0.015 0.022,0.028 0.031,0.043 0.104,0.17 0.221,0.334 0.352,0.482 0.008,0.009 0.013,0.02 0.02,0.028 L 3.21,9.89 c 0.228,0.203 0.459,0.396 0.724,0.553 l 1.04,-1 c 0.042,0.018 0.089,0.025 0.131,0.041 0.13,0.052 0.264,0.095 0.401,0.13 0.044,0.012 0.084,0.032 0.128,0.042 l 0.277,1.424 c 0.297,0.028 0.595,0.028 0.892,0 L 7.08,9.656 C 7.108,9.649 7.133,9.636 7.16,9.629 7.308,9.593 7.45,9.544 7.589,9.491 7.637,9.472 7.691,9.463 7.738,9.442 l 1.043,1 C 9.044,10.286 9.276,10.093 9.503,9.89 L 8.885,8.59 C 9.025,8.436 9.149,8.26 9.259,8.079 9.269,8.064 9.281,8.052 9.289,8.037 l 1.426,0.193 c 0.12,-0.28 0.212,-0.573 0.276,-0.872 L 9.736,6.678 C 9.749,6.564 9.758,6.455 9.758,6.338 9.758,6.221 9.748,6.111 9.736,5.997 l 1.255,-0.68 A 4.7,4.7 0 0 0 10.715,4.445 L 9.29,4.638 A 3.442,3.442 0 0 0 9.182,4.473 3.388,3.388 0 0 0 8.966,4.182 3.441,3.441 0 0 0 8.886,4.084 L 9.503,2.786 A 4.728,4.728 0 0 0 8.78,2.233 l -1.043,1 A 3.412,3.412 0 0 0 7.079,3.021 L 6.8,1.597 A 4.843,4.843 0 0 0 6.354,1.577 Z m 0,1.904 A 2.86,2.86 0 0 1 8.49,8.24 L 8.487,8.244 A 2.86,2.86 0 0 1 7.577,8.924 2.86,2.86 0 0 1 7.396,8.999 2.859,2.859 0 0 1 5.787,9.141 C 5.737,9.131 5.687,9.118 5.638,9.104 A 2.826,2.826 0 0 1 5.3,8.994 2.858,2.858 0 0 1 5.242,8.974 C 5.203,8.957 5.166,8.936 5.128,8.918 L 5.448,8.54 a 0.26,0.26 0 0 0 0.05,-0.13 c 0.09,-0.11 0.42,-0.52 1.1,-1.2 0.81,-0.8 0.95,-0.4 1.1,-0.26 0.15,0.14 0.13,0.26 0.13,0.26 0.02,0.07 0.07,0.18 0.13,0.23 l 0.24,0.2 c 0.02,0 0.43,-0.44 0.56,-0.59 0.12,-0.12 0.3,-0.38 0.3,-0.38 a 0.08,0.08 0 0 0 0,-0.1 c 0,0 -0.23,-0.25 -0.31,-0.25 C 8.508,6.3 8.398,6.28 8.278,6.1 8.158,5.92 8.158,5.78 8.098,5.67 A 3.4,3.4 0 0 0 7.158,4.84 3.87,3.87 0 0 0 5.188,4.21 l -0.76,0.05 0.4,0.4 0.11,0.03 c 0,0 0.49,0.11 0.87,0.4 0.39,0.27 0.49,0.76 0.2,1.32 -0.18,0.34 -0.29,0.45 -0.52,0.72 -0.28,0.32 -0.52,0.57 -0.63,0.68 A 0.25,0.25 0 0 0 4.738,7.87 L 4.296,8.315 C 4.299,8.319 4.301,8.328 4.305,8.332 A 2.86,2.86 0 0 1 4.205,8.217 2.846,2.846 0 0 1 3.907,7.809 2.859,2.859 0 0 1 3.807,7.636 2.86,2.86 0 0 1 4.043,4.659 L 4.044,4.657 C 4.1,4.582 4.159,4.509 4.221,4.439 V 4.438 L 4.224,4.434 A 2.86,2.86 0 0 1 6.356,3.48 Z"
     id="path2"
     inkscape:connector-curvature="0"
     style="fill:#5beedc" />
</svg>
