<?xml version="1.0" encoding="UTF-8" standalone="no"?>
<svg
   xmlns:dc="http://purl.org/dc/elements/1.1/"
   xmlns:cc="http://creativecommons.org/ns#"
   xmlns:rdf="http://www.w3.org/1999/02/22-rdf-syntax-ns#"
   xmlns:svg="http://www.w3.org/2000/svg"
   xmlns="http://www.w3.org/2000/svg"
   xmlns:sodipodi="http://sodipodi.sourceforge.net/DTD/sodipodi-0.dtd"
   xmlns:inkscape="http://www.inkscape.org/namespaces/inkscape"
   width="48"
   height="48"
   viewBox="0 0 12.7 12.7"
   version="1.1"
   id="svg4"
   sodipodi:docname="texstudio.svg"
   inkscape:version="0.92.5 (2060ec1f9f, 2020-04-08)">
  <defs
     id="defs8">
  <style
     id="current-color-scheme"
     type="text/css">
      .ColorScheme-Highlight {
        color:#5beedc;
      }
  </style>
  </defs>
  <path
     class="ColorScheme-Highlight"
     style="fill:#5beedc"
     d="M 24 0 A 24 24 0 0 0 0 24 A 24 24 0 0 0 24 48 A 24 24 0 0 0 48 24 A 24 24 0 0 0 24 0 z M 24 3 A 21 21 0 0 1 45 24 A 21 21 0 0 1 24 45 A 21 21 0 0 1 3 24 A 21 21 0 0 1 24 3 z M 9 15 L 9 16 L 14 16 L 14 28 L 16 28 L 16 16 L 21 16 L 21 15 L 9 15 z M 27 15 L 31.445312 22.222656 L 27 28 L 28 28 L 31.888672 22.945312 L 35 28 L 38 28 L 33.554688 20.777344 L 38 15 L 37 15 L 33.111328 20.054688 L 30 15 L 27 15 z M 19 20 L 19 21 L 19 33 L 21 33 L 27 33 L 27 32 L 21 32 L 21 27 L 25 27 L 25 26 L 21 26 L 21 21 L 27 21 L 27 20 L 21 20 L 19 20 z "
     transform="scale(0.26458333)"
     id="path817" />
</svg>
