<?xml version="1.0" encoding="UTF-8" standalone="no"?>
<svg
   xmlns:dc="http://purl.org/dc/elements/1.1/"
   xmlns:cc="http://creativecommons.org/ns#"
   xmlns:rdf="http://www.w3.org/1999/02/22-rdf-syntax-ns#"
   xmlns:svg="http://www.w3.org/2000/svg"
   xmlns="http://www.w3.org/2000/svg"
   xmlns:sodipodi="http://sodipodi.sourceforge.net/DTD/sodipodi-0.dtd"
   xmlns:inkscape="http://www.inkscape.org/namespaces/inkscape"
   width="48"
   height="48"
   viewBox="0 0 12.7 12.7"
   version="1.1"
   id="svg6"
   sodipodi:docname="kblackbox.svg"
   inkscape:version="0.92.4 (5da689c313, 2019-01-14)">
  <metadata
     id="metadata12">
    <rdf:RDF>
      <cc:Work
         rdf:about="">
        <dc:format>image/svg+xml</dc:format>
        <dc:type
           rdf:resource="http://purl.org/dc/dcmitype/StillImage" />
        <dc:title></dc:title>
      </cc:Work>
    </rdf:RDF>
  </metadata>
  <defs
     id="defs10" />
  <sodipodi:namedview
     pagecolor="#ffffff"
     bordercolor="#666666"
     borderopacity="1"
     objecttolerance="10"
     gridtolerance="10"
     guidetolerance="10"
     inkscape:pageopacity="0"
     inkscape:pageshadow="2"
     inkscape:window-width="1112"
     inkscape:window-height="480"
     id="namedview8"
     showgrid="false"
     inkscape:zoom="4.9166667"
     inkscape:cx="2.1355932"
     inkscape:cy="24"
     inkscape:window-x="0"
     inkscape:window-y="25"
     inkscape:window-maximized="0"
     inkscape:current-layer="svg6" />
  <path
     d="m 6.34,0.07 a 6.29,6.29 0 1 0 0,12.58 6.29,6.29 0 0 0 0,-12.58 z M 6.32,1 A 5.417,5.417 0 0 1 11.73,6.41 5.4,5.4 0 0 1 6.33,11.82 5.4,5.4 0 0 1 0.92,6.42 5.4,5.4 0 0 1 6.32,1 Z"
     id="path2"
     inkscape:connector-curvature="0"
     style="fill:#5beedc" />
  <path
     d="M 3.08,2.91 A 0.143,0.143 0 0 0 2.936,3.054 V 9.62 C 2.936,9.699 3,9.763 3.079,9.763 H 9.646 C 9.726,9.763 9.79,9.699 9.79,9.62 V 3.054 A 0.143,0.143 0 0 0 9.646,2.91 Z m 3.239,1.075 c 0.382,0 0.689,0.102 0.92,0.305 0.233,0.2 0.35,0.465 0.35,0.797 A 0.944,0.944 0 0 1 7.477,5.535 2.011,2.011 0 0 1 7.084,6.015 L 6.81,6.282 C 6.715,6.382 6.647,6.458 6.605,6.512 A 0.54,0.54 0 0 0 6.518,6.667 1.25,1.25 0 0 0 6.487,6.829 4.046,4.046 0 0 0 6.481,7.084 v 0.38 H 5.883 V 6.991 A 1.3,1.3 0 0 1 5.97,6.475 C 6.028,6.338 6.153,6.18 6.344,6.002 L 6.618,5.722 C 6.738,5.614 6.823,5.512 6.873,5.417 6.927,5.317 6.953,5.216 6.953,5.112 A 0.543,0.543 0 0 0 6.748,4.67 C 6.616,4.554 6.438,4.495 6.213,4.495 6.051,4.495 5.877,4.533 5.691,4.607 5.504,4.678 5.311,4.784 5.111,4.925 V 4.34 C 5.303,4.22 5.498,4.13 5.697,4.073 5.9,4.015 6.107,3.985 6.319,3.985 Z m -0.448,3.94 h 0.628 v 0.79 H 5.871 Z"
     id="path4"
     inkscape:connector-curvature="0"
     style="opacity:0.75;fill:#5beedc" />
</svg>
