<?xml version="1.0" encoding="UTF-8" standalone="no"?>
<svg
   xmlns:dc="http://purl.org/dc/elements/1.1/"
   xmlns:cc="http://creativecommons.org/ns#"
   xmlns:rdf="http://www.w3.org/1999/02/22-rdf-syntax-ns#"
   xmlns:svg="http://www.w3.org/2000/svg"
   xmlns="http://www.w3.org/2000/svg"
   xmlns:sodipodi="http://sodipodi.sourceforge.net/DTD/sodipodi-0.dtd"
   xmlns:inkscape="http://www.inkscape.org/namespaces/inkscape"
   width="48"
   height="48"
   viewBox="0 0 12.7 12.7"
   version="1.1"
   id="svg4"
   sodipodi:docname="cs-panel.svg"
   inkscape:version="0.92.5 (2060ec1f9f, 2020-04-08)">
  <defs
     id="defs8">
  <style
     id="current-color-scheme"
     type="text/css">
      .ColorScheme-Highlight {
        color:#5beedc;
      }
  </style>
  </defs>
  <path
     class="ColorScheme-Highlight"
     style="fill:#5beedc"
     d="M 24 0 A 24 24 0 0 0 0 24 A 24 24 0 0 0 24 48 A 24 24 0 0 0 48 24 A 24 24 0 0 0 24 0 z M 24 3 A 21 21 0 0 1 39.619141 10 L 8.3769531 10 A 21 21 0 0 1 24 3 z M 6.1425781 13 L 12 13 L 12 35 L 6.1308594 35 A 21 21 0 0 1 3 24 A 21 21 0 0 1 6.1425781 13 z M 14 13 L 41.869141 13 A 21 21 0 0 1 45 24 A 21 21 0 0 1 41.857422 35 L 14 35 L 14 13 z M 8.3808594 38 L 39.623047 38 A 21 21 0 0 1 24 45 A 21 21 0 0 1 8.3808594 38 z "
     transform="scale(0.26458333)"
     id="path817" />
</svg>
