<?xml version="1.0" encoding="UTF-8" standalone="no"?>
<svg
   xmlns:dc="http://purl.org/dc/elements/1.1/"
   xmlns:cc="http://creativecommons.org/ns#"
   xmlns:rdf="http://www.w3.org/1999/02/22-rdf-syntax-ns#"
   xmlns:svg="http://www.w3.org/2000/svg"
   xmlns="http://www.w3.org/2000/svg"
   xmlns:sodipodi="http://sodipodi.sourceforge.net/DTD/sodipodi-0.dtd"
   xmlns:inkscape="http://www.inkscape.org/namespaces/inkscape"
   width="48"
   height="48"
   viewBox="0 0 12.7 12.7"
   version="1.1"
   id="svg4"
   sodipodi:docname="kdeconnect.svg"
   inkscape:version="0.92.4 (5da689c313, 2019-01-14)">
  <metadata
     id="metadata10">
    <rdf:RDF>
      <cc:Work
         rdf:about="">
        <dc:format>image/svg+xml</dc:format>
        <dc:type
           rdf:resource="http://purl.org/dc/dcmitype/StillImage" />
        <dc:title></dc:title>
      </cc:Work>
    </rdf:RDF>
  </metadata>
  <defs
     id="defs8" />
  <sodipodi:namedview
     pagecolor="#ffffff"
     bordercolor="#666666"
     borderopacity="1"
     objecttolerance="10"
     gridtolerance="10"
     guidetolerance="10"
     inkscape:pageopacity="0"
     inkscape:pageshadow="2"
     inkscape:window-width="862"
     inkscape:window-height="480"
     id="namedview6"
     showgrid="false"
     inkscape:zoom="4.9166667"
     inkscape:cx="2.1355932"
     inkscape:cy="24"
     inkscape:window-x="0"
     inkscape:window-y="25"
     inkscape:window-maximized="0"
     inkscape:current-layer="svg4" />
  <path
     d="M 6.34,0.07 A 6.29,6.29 0 0 0 0.05,6.37 6.29,6.29 0 0 0 6.35,12.65 6.29,6.29 0 0 0 12.63,6.36 6.29,6.29 0 0 0 6.34,0.07 Z M 6.32,1 6.33,1.01 A 5.4,5.4 0 0 1 9.292,1.9 H 3.34 A 5.4,5.4 0 0 1 6.32,1 Z M 3.31,1.921 V 10.8 H 9.4 V 1.969 a 5.4,5.4 0 0 1 2.33,4.44 5.4,5.4 0 0 1 -5.4,5.411 5.4,5.4 0 0 1 -5.41,-5.4 5.4,5.4 0 0 1 2.39,-4.5 z m 0.35,1.12 H 9.04 V 9.74 H 3.66 v -6.7 z m 2.69,0.928 c -0.075,0 -0.15,0.002 -0.223,0.01 L 5.989,4.691 a 1.705,1.705 0 0 0 -0.33,0.107 l -0.52,-0.5 A 2.364,2.364 0 0 0 4.776,4.574 l 0.309,0.65 A 1.72,1.72 0 0 0 4.883,5.5 L 4.171,5.404 A 2.35,2.35 0 0 0 4.032,5.84 L 4.66,6.18 A 1.642,1.642 0 0 0 4.65,6.35 c 0,0.058 0.004,0.113 0.01,0.17 L 4.032,6.86 C 4.065,7.011 4.11,7.157 4.171,7.296 L 4.883,7.2 c 0.058,0.099 0.126,0.192 0.202,0.276 l -0.309,0.65 c 0.115,0.101 0.23,0.198 0.362,0.276 l 0.521,-0.5 c 0.104,0.047 0.215,0.082 0.33,0.107 l 0.138,0.712 a 2.422,2.422 0 0 0 0.446,0 L 6.711,8.009 C 6.825,7.983 6.936,7.949 7.041,7.902 l 0.52,0.5 C 7.694,8.324 7.809,8.227 7.923,8.126 L 7.615,7.476 A 1.66,1.66 0 0 0 7.817,7.2 L 8.529,7.296 A 2.35,2.35 0 0 0 8.668,6.86 L 8.04,6.52 a 1.48,1.48 0 0 0 0,-0.34 L 8.668,5.84 A 2.35,2.35 0 0 0 8.529,5.404 L 7.817,5.5 A 1.72,1.72 0 0 0 7.615,5.223 L 7.924,4.574 A 2.364,2.364 0 0 0 7.562,4.298 L 7.04,4.798 A 1.706,1.706 0 0 0 6.711,4.691 L 6.573,3.979 A 2.422,2.422 0 0 0 6.349,3.969 Z m 0,1.36 a 1.021,1.021 0 0 1 0,2.042 1.021,1.021 0 0 1 0,-2.042 z"
     id="path2"
     inkscape:connector-curvature="0"
     style="fill:#5beedc" />
</svg>
