<?xml version="1.0" encoding="UTF-8" standalone="no"?>
<svg
   xmlns:dc="http://purl.org/dc/elements/1.1/"
   xmlns:cc="http://creativecommons.org/ns#"
   xmlns:rdf="http://www.w3.org/1999/02/22-rdf-syntax-ns#"
   xmlns:svg="http://www.w3.org/2000/svg"
   xmlns="http://www.w3.org/2000/svg"
   xmlns:sodipodi="http://sodipodi.sourceforge.net/DTD/sodipodi-0.dtd"
   xmlns:inkscape="http://www.inkscape.org/namespaces/inkscape"
   width="48"
   height="48"
   viewBox="0 0 12.7 12.7"
   version="1.1"
   id="svg6"
   sodipodi:docname="kdenlive.svg"
   inkscape:version="0.92.4 (5da689c313, 2019-01-14)">
  <metadata
     id="metadata12">
    <rdf:RDF>
      <cc:Work
         rdf:about="">
        <dc:format>image/svg+xml</dc:format>
        <dc:type
           rdf:resource="http://purl.org/dc/dcmitype/StillImage" />
        <dc:title></dc:title>
      </cc:Work>
    </rdf:RDF>
  </metadata>
  <defs
     id="defs10" />
  <sodipodi:namedview
     pagecolor="#ffffff"
     bordercolor="#666666"
     borderopacity="1"
     objecttolerance="10"
     gridtolerance="10"
     guidetolerance="10"
     inkscape:pageopacity="0"
     inkscape:pageshadow="2"
     inkscape:window-width="862"
     inkscape:window-height="480"
     id="namedview8"
     showgrid="false"
     inkscape:zoom="4.9166667"
     inkscape:cx="2.1355932"
     inkscape:cy="24"
     inkscape:window-x="0"
     inkscape:window-y="25"
     inkscape:window-maximized="0"
     inkscape:current-layer="svg6" />
  <path
     d="m 6.34,0.07 a 6.29,6.29 0 1 0 0,12.58 6.29,6.29 0 0 0 0,-12.58 z M 6.32,1 A 5.417,5.417 0 0 1 11.73,6.41 5.4,5.4 0 0 1 6.33,11.82 5.4,5.4 0 0 1 0.92,6.42 5.4,5.4 0 0 1 6.32,1 Z m 2.01,1.38 c 0,0 -3.63,0.48 -5.707,4.108 l 0.162,0.81 A 8.038,8.038 0 0 1 4.164,5.318 L 5.037,7.307 C 4.694,7.643 4.367,8 4.061,8.362 3.755,8.724 3.471,9.091 3.215,9.447 l 0.174,0.872 c 0,0 3.024,-4.395 7.076,-5.363 l -0.4,-0.483 A 5.607,5.607 0 0 0 9.05,4.7 7.345,7.345 0 0 0 8.042,5.11 L 6.802,3.42 C 7.203,3.23 7.581,3.09 7.911,2.999 8.238,2.907 8.516,2.864 8.724,2.863 L 8.721,2.856 8.328,2.382 Z m -0.128,0.171 0.2,0.23 C 8.301,2.804 8.203,2.829 8.105,2.854 L 7.907,2.624 C 8.003,2.598 8.103,2.574 8.202,2.551 Z M 7.438,2.747 7.632,2.972 C 7.537,3.001 7.444,3.032 7.352,3.062 L 7.162,2.842 C 7.253,2.81 7.344,2.777 7.438,2.747 Z m -0.657,0.24 0.178,0.22 A 8.04,8.04 0 0 0 6.696,3.313 L 6.52,3.095 C 6.605,3.058 6.693,3.022 6.781,2.986 Z M 6.216,3.273 6.377,3.493 C 6.294,3.534 6.214,3.577 6.133,3.619 L 5.971,3.399 C 6.051,3.356 6.133,3.313 6.216,3.273 Z M 6.613,3.51 7.835,5.213 C 7.372,5.456 6.917,5.747 6.477,6.073 6.037,6.398 5.614,6.758 5.212,7.139 L 4.307,5.174 A 9.014,9.014 0 0 1 6.613,3.51 Z M 5.6,3.628 5.753,3.852 A 8.02,8.02 0 0 0 5.521,3.992 L 5.368,3.768 C 5.444,3.72 5.521,3.674 5.6,3.628 Z M 4.939,4.054 5.077,4.288 A 8.777,8.777 0 0 0 4.867,4.464 L 4.727,4.229 C 4.796,4.171 4.867,4.112 4.939,4.054 Z M 4.323,4.576 4.455,4.821 A 8.41,8.41 0 0 0 4.253,5.019 L 4.12,4.772 A 8.43,8.43 0 0 1 4.323,4.576 Z m 5.66,0.04 0.198,0.227 A 8.125,8.125 0 0 0 9.895,4.927 L 9.703,4.705 C 9.796,4.674 9.889,4.643 9.983,4.615 Z M 9.247,4.844 9.437,5.062 C 9.347,5.095 9.255,5.129 9.167,5.165 L 8.98,4.95 C 9.069,4.913 9.158,4.878 9.247,4.844 Z M 3.774,5.129 3.89,5.402 A 8.525,8.525 0 0 0 3.693,5.632 L 3.575,5.355 C 3.638,5.281 3.705,5.205 3.774,5.129 Z M 8.519,5.143 8.694,5.36 C 8.609,5.399 8.524,5.438 8.441,5.478 L 8.266,5.262 Z M 7.857,5.515 8.019,5.735 C 7.939,5.779 7.859,5.822 7.779,5.868 L 7.619,5.649 Z M 3.387,5.583 3.491,5.887 C 3.421,5.977 3.356,6.067 3.295,6.153 L 3.189,5.841 C 3.251,5.757 3.318,5.671 3.387,5.583 Z M 7.173,5.936 7.325,6.159 A 12.03,12.03 0 0 0 7.097,6.306 L 6.945,6.083 C 7.02,6.033 7.096,5.985 7.173,5.936 Z m -4.2,0.209 0.093,0.349 A 8.044,8.044 0 0 0 2.871,6.817 L 2.775,6.452 C 2.835,6.355 2.9,6.252 2.973,6.145 Z m 3.4,0.332 0.14,0.235 A 14.29,14.29 0 0 0 6.299,6.884 L 6.159,6.649 Z M 5.658,7.063 5.789,7.307 5.581,7.493 5.449,7.247 C 5.517,7.186 5.588,7.125 5.659,7.063 Z M 4.898,7.764 5.013,8.032 4.807,8.239 4.692,7.971 4.899,7.764 Z M 4.329,8.347 4.429,8.638 4.22,8.868 4.12,8.575 C 4.187,8.501 4.256,8.425 4.33,8.347 Z M 3.736,9.015 3.821,9.336 3.611,9.599 3.524,9.273 C 3.587,9.195 3.657,9.109 3.736,9.015 Z"
     id="path2"
     inkscape:connector-curvature="0"
     style="fill:#5beedc" />
  <path
     d="M 7.888,6.52 6.27,7.766 4.273,3.906 5.626,2.969 Z"
     id="path4"
     inkscape:connector-curvature="0"
     style="opacity:0.6;fill:#ff2a2a" />
</svg>
