<?xml version="1.0" encoding="UTF-8" standalone="no"?>
<svg
   xmlns:dc="http://purl.org/dc/elements/1.1/"
   xmlns:cc="http://creativecommons.org/ns#"
   xmlns:rdf="http://www.w3.org/1999/02/22-rdf-syntax-ns#"
   xmlns:svg="http://www.w3.org/2000/svg"
   xmlns="http://www.w3.org/2000/svg"
   xmlns:sodipodi="http://sodipodi.sourceforge.net/DTD/sodipodi-0.dtd"
   xmlns:inkscape="http://www.inkscape.org/namespaces/inkscape"
   width="48"
   height="48"
   viewBox="0 0 12.7 12.7"
   version="1.1"
   id="svg6"
   sodipodi:docname="kdesvn.svg"
   inkscape:version="0.92.4 (5da689c313, 2019-01-14)">
  <metadata
     id="metadata12">
    <rdf:RDF>
      <cc:Work
         rdf:about="">
        <dc:format>image/svg+xml</dc:format>
        <dc:type
           rdf:resource="http://purl.org/dc/dcmitype/StillImage" />
        <dc:title></dc:title>
      </cc:Work>
    </rdf:RDF>
  </metadata>
  <defs
     id="defs10" />
  <sodipodi:namedview
     pagecolor="#ffffff"
     bordercolor="#666666"
     borderopacity="1"
     objecttolerance="10"
     gridtolerance="10"
     guidetolerance="10"
     inkscape:pageopacity="0"
     inkscape:pageshadow="2"
     inkscape:window-width="1366"
     inkscape:window-height="717"
     id="namedview8"
     showgrid="false"
     inkscape:zoom="4.9166667"
     inkscape:cx="-42.305085"
     inkscape:cy="24"
     inkscape:window-x="0"
     inkscape:window-y="25"
     inkscape:window-maximized="1"
     inkscape:current-layer="svg6" />
  <path
     style="fill:#5beedc;stroke-width:1"
     d="m 6.3437986,0.07079671 v 0.0010335 A 6.2899998,6.2899998 0 0 0 0.05374349,6.3618855 6.2899998,6.2899998 0 0 0 6.3437986,12.650907 6.2899998,6.2899998 0 0 0 12.633854,6.3608521 6.2899998,6.2899998 0 0 0 6.3437986,0.07079671 Z M 6.3262287,1.0092407 A 5.4070001,5.4070001 0 0 1 11.733134,6.4161458 5.4070001,5.4070001 0 0 1 6.3262287,11.823051 5.4070001,5.4070001 0 0 1 0.91984049,6.4161458 5.4070001,5.4070001 0 0 1 6.3262287,1.0097575 Z m 0.4945436,2.0965128 a 0.52999999,0.52999999 0 0 0 -0.52865,0.5291666 0.52999999,0.52999999 0 0 0 0.082682,0.2842205 L 5.4472128,5.7738078 A 0.52999999,0.52999999 0 0 0 5.0322509,6.0848999 H 3.1031699 A 0.52999999,0.52999999 0 0 0 2.6458333,5.8208333 0.52999999,0.52999999 0 0 0 2.1161499,6.3499999 0.52999999,0.52999999 0 0 0 2.6458333,6.8802 0.52999999,0.52999999 0 0 0 3.1042033,6.6151 H 5.0932291 A 0.52999999,0.52999999 0 0 0 5.3898519,6.8109538 L 6.3722207,8.7762084 A 0.52999999,0.52999999 0 0 0 6.3437986,8.9441569 0.52999999,0.52999999 0 0 0 6.873999,9.4738403 0.52999999,0.52999999 0 0 0 7.2972289,9.2598998 H 8.8030801 A 0.52999999,0.52999999 0 0 0 9.2598999,9.5249999 0.52999999,0.52999999 0 0 0 9.7901,8.9947998 0.52999999,0.52999999 0 0 0 9.2598999,8.4671833 0.52999999,0.52999999 0 0 0 8.8030801,8.7312499 H 7.3582072 A 0.52999999,0.52999999 0 0 0 6.8729653,8.4149903 0.52999999,0.52999999 0 0 0 6.7928669,8.4222248 L 5.8642414,6.6962321 A 0.52999999,0.52999999 0 0 0 5.9402059,6.6151 H 7.4801634 A 0.52999999,0.52999999 0 0 0 7.9369832,6.8791666 0.52999999,0.52999999 0 0 0 8.4671833,6.3499999 0.52999999,0.52999999 0 0 0 7.9369832,5.8197998 0.52999999,0.52999999 0 0 0 7.4801634,6.0848999 H 6.0001504 A 0.52999999,0.52999999 0 0 0 5.8978313,5.9309042 L 6.7830485,4.1620199 a 0.52999999,0.52999999 0 0 0 0.038757,0.00207 A 0.52999999,0.52999999 0 0 0 7.3509724,3.6338867 0.52999999,0.52999999 0 0 0 6.8218057,3.1057535 H 6.821289 Z"
     id="path2"
     inkscape:connector-curvature="0" />
</svg>
