<?xml version="1.0" encoding="UTF-8" standalone="no"?>
<svg
   xmlns:dc="http://purl.org/dc/elements/1.1/"
   xmlns:cc="http://creativecommons.org/ns#"
   xmlns:rdf="http://www.w3.org/1999/02/22-rdf-syntax-ns#"
   xmlns:svg="http://www.w3.org/2000/svg"
   xmlns="http://www.w3.org/2000/svg"
   xmlns:sodipodi="http://sodipodi.sourceforge.net/DTD/sodipodi-0.dtd"
   xmlns:inkscape="http://www.inkscape.org/namespaces/inkscape"
   width="48"
   height="48"
   viewBox="0 0 12.7 12.7"
   version="1.1"
   id="svg4"
   sodipodi:docname="keepassxc-locked.svg"
   inkscape:version="0.92.5 (2060ec1f9f, 2020-04-08)">
  <defs
     id="defs8">
  <style
     id="current-color-scheme"
     type="text/css">
      .ColorScheme-Highlight {
        color:#5beedc;
      }
  </style>
  </defs>
  <path
     class="ColorScheme-Highlight"
     style="fill:#5beedc"
     d="M 24 0 C 10.745166 0 -4.7369516e-15 10.745166 0 24 C 0 37.254834 10.745166 48 24 48 C 37.254834 48 48 37.254834 48 24 C 48 10.745166 37.254834 -4.7369516e-15 24 0 z M 24 3 C 35.59798 3 45 12.40202 45 24 C 45 35.59798 35.59798 45 24 45 C 12.40202 45 3 35.59798 3 24 C 3 12.40202 12.40202 3 24 3 z M 18 12 C 14.134007 12 11 15.134007 11 19 C 11 22.865993 14.134007 26 18 26 C 19.013706 25.9969 20.014641 25.773645 20.933594 25.345703 L 23 27 L 23.001953 27 L 25 28.599609 L 28 28 L 28 30 L 30 30 L 30 32.599609 L 33 32 L 33 35 L 37 35 L 37 31 L 24.664062 21.130859 C 24.88547 20.442197 24.998795 19.723378 25 19 C 25 15.134007 21.865993 12 18 12 z M 16.5 15 C 17.880712 15 19 16.119288 19 17.5 C 19 18.880712 17.880712 20 16.5 20 C 15.119288 20 14 18.880712 14 17.5 C 14 16.119288 15.119288 15 16.5 15 z M 17 27 A 3.9999995 3.9999995 0 0 0 13 31 L 13 32 L 12 32 L 12 40 L 22 40 L 22 32 L 21 32 L 21 31 A 3.9999995 3.9999995 0 0 0 17 27 z M 17 28 A 3 3 0 0 1 20 31 L 20 32 L 14 32 L 14 31 A 3 3 0 0 1 17 28 z "
     transform="scale(0.26458333)"
     id="path817" />
</svg>
