<?xml version="1.0" encoding="UTF-8" standalone="no"?>
<svg
   xmlns:dc="http://purl.org/dc/elements/1.1/"
   xmlns:cc="http://creativecommons.org/ns#"
   xmlns:rdf="http://www.w3.org/1999/02/22-rdf-syntax-ns#"
   xmlns:svg="http://www.w3.org/2000/svg"
   xmlns="http://www.w3.org/2000/svg"
   xmlns:sodipodi="http://sodipodi.sourceforge.net/DTD/sodipodi-0.dtd"
   xmlns:inkscape="http://www.inkscape.org/namespaces/inkscape"
   width="48"
   height="48"
   version="1.1"
   viewBox="0 0 12.7 12.7"
   id="svg4"
   sodipodi:docname="keep.svg"
   inkscape:version="0.92.4 (5da689c313, 2019-01-14)">
  <metadata
     id="metadata10">
    <rdf:RDF>
      <cc:Work
         rdf:about="">
        <dc:format>image/svg+xml</dc:format>
        <dc:type
           rdf:resource="http://purl.org/dc/dcmitype/StillImage" />
        <dc:title></dc:title>
      </cc:Work>
    </rdf:RDF>
  </metadata>
  <defs
     id="defs8" />
  <sodipodi:namedview
     pagecolor="#ffffff"
     bordercolor="#666666"
     borderopacity="1"
     objecttolerance="10"
     gridtolerance="10"
     guidetolerance="10"
     inkscape:pageopacity="0"
     inkscape:pageshadow="2"
     inkscape:window-width="1136"
     inkscape:window-height="480"
     id="namedview6"
     showgrid="false"
     inkscape:zoom="4.9166667"
     inkscape:cx="2.1355932"
     inkscape:cy="24"
     inkscape:window-x="0"
     inkscape:window-y="25"
     inkscape:window-maximized="0"
     inkscape:current-layer="svg4" />
  <path
     d="M 6.3396014,0.07544763 C 2.8712222,0.08119453 0.06111798,2.8913726 0.05529722,6.3597518 c -4.61e-6,3.4723479 2.81195628,6.2888022 6.28430418,6.2946232 3.4765812,0 6.2946226,-2.818042 6.2946226,-6.2946232 C 12.628466,2.8874039 9.8119493,0.07544763 6.3396014,0.07544763 Z M 6.3292661,1.0149183 c 2.9741438,0.00572 5.3855259,2.4125198 5.3969029,5.3865842 0,2.9865791 -2.4208806,5.4074865 -5.4074861,5.4074865 -2.986579,0 -5.40722147,-2.420881 -5.40722147,-5.4074865 0,-2.986579 2.43122567,-5.3865842 5.41780467,-5.3865842 z m 0.02067,1.1017376 c -1.6119272,0 -2.9228152,1.3108616 -2.9228152,2.9228152 0,1.099912 0.6112856,2.0575593 1.5115191,2.5558958 v 2.5848141 h 0.6051209 v 0.403061 H 6.9545017 V 10.180181 H 7.7611532 V 7.5953669 C 8.6613867,7.0971627 9.2726723,6.1394625 9.2726723,5.0394711 c 0,-1.6119272 -1.3108616,-2.9228152 -2.9228152,-2.9228152 z m 0,0.5332874 c 1.3069194,0 2.3620909,1.0557007 2.3620909,2.36262 0,0.9705059 -0.5821289,1.8013136 -1.4169582,2.1652169 v 0.00827 0.01912 H 5.4047773 v -0.01912 -0.00827 C 4.569948,6.8138769 3.9878191,5.9830957 3.9878191,5.0125633 c 0,-1.3069193 1.055198,-2.36262 2.3620909,-2.36262 z M 5.4047773,7.8558194 H 7.2950691 V 8.3198663 H 5.4047773 Z m 0,1.1146491 h 1.8902918 v 0.483176 H 5.4047773 Z"
     id="path2"
     inkscape:connector-curvature="0"
     style="fill:#5beedc;stroke-width:1.04387391" />
</svg>
