<?xml version="1.0" encoding="UTF-8" standalone="no"?>
<svg
   xmlns:dc="http://purl.org/dc/elements/1.1/"
   xmlns:cc="http://creativecommons.org/ns#"
   xmlns:rdf="http://www.w3.org/1999/02/22-rdf-syntax-ns#"
   xmlns:svg="http://www.w3.org/2000/svg"
   xmlns="http://www.w3.org/2000/svg"
   xmlns:sodipodi="http://sodipodi.sourceforge.net/DTD/sodipodi-0.dtd"
   xmlns:inkscape="http://www.inkscape.org/namespaces/inkscape"
   width="48"
   height="48"
   viewBox="0 0 12.7 12.7"
   version="1.1"
   id="svg4"
   sodipodi:docname="keepassxc-dark.svg"
   inkscape:version="0.92.5 (2060ec1f9f, 2020-04-08)">
  <defs
     id="defs8">
  <style
     id="current-color-scheme"
     type="text/css">
      .ColorScheme-Highlight {
        color:#5beedc;
      }
  </style>
  </defs>
  <path
     class="ColorScheme-Highlight"
     style="fill:#5beedc"
     d="M 24 0 C 10.745166 0 0 10.745166 0 24 C 0 37.254834 10.745166 48 24 48 C 37.254834 48 48 37.254834 48 24 C 48 10.745166 37.254834 -4.7369516e-15 24 0 z M 24 3 C 35.59798 3 45 12.40202 45 24 C 45 35.59798 35.59798 45 24 45 C 12.40202 45 3 35.59798 3 24 C 3 12.40202 12.40202 3 24 3 z M 24 6 A 18.000005 18.000005 0 0 0 6 24 A 18.000005 18.000005 0 0 0 24 42 A 18.000005 18.000005 0 0 0 42 24 A 18.000005 18.000005 0 0 0 24 6 z M 18 12 C 21.865993 12 25 15.134007 25 19 C 24.998795 19.723378 24.885471 20.442198 24.664062 21.130859 L 37 31 L 37 35 L 33 35 L 33 32 L 30 32.599609 L 30 30 L 28 30 L 28 28 L 25 28.599609 L 23.001953 27 L 23 27 L 20.933594 25.345703 C 20.014641 25.773644 19.013706 25.9969 18 26 C 14.134007 26 11 22.865993 11 19 C 11 15.134007 14.134007 12 18 12 z M 16.5 15 C 15.119288 15 14 16.119288 14 17.5 C 14 18.880712 15.119288 20 16.5 20 C 17.880712 20 19 18.880712 19 17.5 C 19 16.119288 17.880712 15 16.5 15 z "
     transform="scale(0.26458333)"
     id="path817" />
</svg>
