<?xml version="1.0" encoding="UTF-8" standalone="no"?>
<svg
   xmlns:dc="http://purl.org/dc/elements/1.1/"
   xmlns:cc="http://creativecommons.org/ns#"
   xmlns:rdf="http://www.w3.org/1999/02/22-rdf-syntax-ns#"
   xmlns:svg="http://www.w3.org/2000/svg"
   xmlns="http://www.w3.org/2000/svg"
   xmlns:sodipodi="http://sodipodi.sourceforge.net/DTD/sodipodi-0.dtd"
   xmlns:inkscape="http://www.inkscape.org/namespaces/inkscape"
   width="48"
   height="48"
   viewBox="0 0 12.7 12.7"
   version="1.1"
   id="svg4"
   sodipodi:docname="stock_keyring.svg"
   inkscape:version="0.92.5 (2060ec1f9f, 2020-04-08)">
  <defs
     id="defs8">
  <style
     id="current-color-scheme"
     type="text/css">
      .ColorScheme-Highlight {
        color:#5beedc;
      }
  </style>
  </defs>
  <path
     class="ColorScheme-Highlight"
     style="fill:#5beedc"
     d="M 24,0 C 10.745166,0 0,10.745166 0,24 0,37.254834 10.745166,48 24,48 37.254834,48 48,37.254834 48,24 48,10.745166 37.254834,0 24,0 Z m 0,3 C 35.59798,3 45,12.40202 45,24 45,35.59798 35.59798,45 24,45 12.40202,45 3,35.59798 3,24 3,12.40202 12.40202,3 24,3 Z m -6,9 c -3.865993,0 -7,3.134007 -7,7 0,3.865993 3.134007,7 7,7 1.013706,-0.0031 2.014641,-0.226355 2.933594,-0.654297 L 23,27 h 0.002 L 25,28.599609 28,28 v 2 h 2 v 2.599609 L 33,32 l 0,3 h 4 V 31 L 24.664062,21.130859 C 24.88547,20.442197 24.998795,19.723378 25,19 25,15.134007 21.865993,12 18,12 Z m -1.5,3 C 17.880712,15 19,16.119288 19,17.5 19,18.880712 17.880712,20 16.5,20 15.119288,20 14,18.880712 14,17.5 14,16.119288 15.119288,15 16.5,15 Z"
     transform="scale(0.26458333)"
     id="path817"
     inkscape:connector-curvature="0" />
</svg>
