<?xml version="1.0" encoding="UTF-8" standalone="no"?>
<svg
   xmlns:dc="http://purl.org/dc/elements/1.1/"
   xmlns:cc="http://creativecommons.org/ns#"
   xmlns:rdf="http://www.w3.org/1999/02/22-rdf-syntax-ns#"
   xmlns:svg="http://www.w3.org/2000/svg"
   xmlns="http://www.w3.org/2000/svg"
   xmlns:sodipodi="http://sodipodi.sourceforge.net/DTD/sodipodi-0.dtd"
   xmlns:inkscape="http://www.inkscape.org/namespaces/inkscape"
   width="48"
   height="48"
   viewBox="0 0 12.7 12.7"
   version="1.1"
   id="svg8"
   sodipodi:docname="kgoldrunner.svg"
   inkscape:version="0.92.4 (5da689c313, 2019-01-14)">
  <metadata
     id="metadata14">
    <rdf:RDF>
      <cc:Work
         rdf:about="">
        <dc:format>image/svg+xml</dc:format>
        <dc:type
           rdf:resource="http://purl.org/dc/dcmitype/StillImage" />
        <dc:title></dc:title>
      </cc:Work>
    </rdf:RDF>
  </metadata>
  <defs
     id="defs12" />
  <sodipodi:namedview
     pagecolor="#ffffff"
     bordercolor="#666666"
     borderopacity="1"
     objecttolerance="10"
     gridtolerance="10"
     guidetolerance="10"
     inkscape:pageopacity="0"
     inkscape:pageshadow="2"
     inkscape:window-width="1366"
     inkscape:window-height="717"
     id="namedview10"
     showgrid="false"
     inkscape:zoom="4.9166667"
     inkscape:cx="2.1355932"
     inkscape:cy="24"
     inkscape:window-x="0"
     inkscape:window-y="25"
     inkscape:window-maximized="1"
     inkscape:current-layer="svg8" />
  <path
     style="fill:#5beedc;stroke-width:1"
     d="m 6.3437986,0.07079671 v 0.0010335 A 6.2899998,6.2899998 0 0 0 0.05374349,6.3618855 6.2899998,6.2899998 0 0 0 6.3437986,12.650907 6.2899998,6.2899998 0 0 0 12.633854,6.3608521 6.2899998,6.2899998 0 0 0 6.3437986,0.07079671 Z M 6.3262287,1.0092407 A 5.4070001,5.4070001 0 0 1 11.733134,6.4161458 5.4070001,5.4070001 0 0 1 6.3262287,11.823051 5.4070001,5.4070001 0 0 1 0.91984049,6.4161458 5.4070001,5.4070001 0 0 1 6.3262287,1.0097575 Z M 3.0137695,2.8298013 V 9.6288695 H 3.5801432 V 8.4950886 H 4.7128906 V 9.627836 H 5.279781 V 2.8298013 H 4.7128906 V 3.3972087 H 3.5801432 V 2.8298013 Z M 8.1121662,2.9858642 7.9380167,3.4401 7.4827473,3.2969565 7.7199421,3.7201863 7.3282349,3.9951048 7.7979735,4.0690022 7.7628337,4.554244 8.1121662,4.2240316 8.4609823,4.5547608 8.4268756,4.0690022 8.8971312,3.9951048 8.5038736,3.7201863 8.7410683,3.2969565 8.2868325,3.4401 Z M 3.5801432,3.9640991 H 4.7128906 V 5.6642536 H 3.5801432 Z M 5.55625,5.9319376 V 6.851778 H 7.4377888 V 6.3918578 H 6.5189819 V 5.9319376 Z m 2.8008627,0 V 6.3918578 H 9.2759196 V 6.851778 H 11.11405 V 6.3918578 H 10.19421 V 5.9319376 H 8.3581462 Z M 3.5801432,6.2301106 H 4.7128906 V 7.9297484 H 3.5801432 Z"
     id="path2"
     inkscape:connector-curvature="0" />
  <path
     d="M 6.519,5.93 V 6.39 H 7.438 V 6.85 H 9.275 V 6.39 H 8.357 V 5.93 Z m 3.676,0 v 0.46 h 0.919 V 5.93 Z"
     id="path4"
     inkscape:connector-curvature="0"
     style="opacity:0.75;fill:#5beedc" />
</svg>
