<?xml version="1.0" encoding="UTF-8" standalone="no"?>
<svg
   xmlns:dc="http://purl.org/dc/elements/1.1/"
   xmlns:cc="http://creativecommons.org/ns#"
   xmlns:rdf="http://www.w3.org/1999/02/22-rdf-syntax-ns#"
   xmlns:svg="http://www.w3.org/2000/svg"
   xmlns="http://www.w3.org/2000/svg"
   xmlns:sodipodi="http://sodipodi.sourceforge.net/DTD/sodipodi-0.dtd"
   xmlns:inkscape="http://www.inkscape.org/namespaces/inkscape"
   width="48"
   height="48"
   viewBox="0 0 12.7 12.7"
   version="1.1"
   id="svg4"
   sodipodi:docname="kimagemapeditor.svg"
   inkscape:version="0.92.4 (5da689c313, 2019-01-14)">
  <metadata
     id="metadata10">
    <rdf:RDF>
      <cc:Work
         rdf:about="">
        <dc:format>image/svg+xml</dc:format>
        <dc:type
           rdf:resource="http://purl.org/dc/dcmitype/StillImage" />
        <dc:title></dc:title>
      </cc:Work>
    </rdf:RDF>
  </metadata>
  <defs
     id="defs8" />
  <sodipodi:namedview
     pagecolor="#ffffff"
     bordercolor="#666666"
     borderopacity="1"
     objecttolerance="10"
     gridtolerance="10"
     guidetolerance="10"
     inkscape:pageopacity="0"
     inkscape:pageshadow="2"
     inkscape:window-width="862"
     inkscape:window-height="480"
     id="namedview6"
     showgrid="false"
     inkscape:zoom="4.9166667"
     inkscape:cx="2.1355932"
     inkscape:cy="24"
     inkscape:window-x="0"
     inkscape:window-y="25"
     inkscape:window-maximized="0"
     inkscape:current-layer="svg4" />
  <path
     d="m 6.344,0.072 a 6.29,6.29 0 0 0 -6.29,6.29 6.29,6.29 0 0 0 6.29,6.289 6.29,6.29 0 0 0 6.29,-6.29 6.29,6.29 0 0 0 -6.29,-6.29 z M 6.326,1.009 A 5.407,5.407 0 0 1 7.542,1.153 C 7.633,1.228 7.684,1.313 7.64,1.419 7.18,1.371 7.887,1.561 7.925,1.631 7.927,1.98 7.4,1.814 7.175,1.95 7.469,1.843 7.87,2.392 7.49,2.51 7.814,3.06 7.082,2.847 7.203,2.41 6.729,2.639 7.57,3.018 7.203,3.099 7.21,3.055 7.205,3.032 7.193,3.029 7.16,3.019 7.089,3.139 7.196,3.101 7.157,3.109 7.17,3.13 7.1,3.131 6.93,3.495 6.352,2.672 5.999,3.181 5.784,3.446 5.049,3.848 5.589,4.131 5.392,4.453 4.804,4.869 4.966,4.204 5.147,3.484 4.412,4.142 4.363,4.399 4.511,4.519 4.889,4.122 4.575,4.519 4.295,4.764 5.226,4.693 4.594,4.738 4.463,4.908 4.664,5.488 4.249,5.188 3.522,5.288 4.261,6.14 3.571,6.31 A 1.625,1.625 0 0 0 2.69,7.755 c 0.043,0.699 0.738,1.31 1.44,1.178 0.422,0.097 0.902,0.335 0.723,0.83 0.696,0.264 0.085,1.076 0.56,1.461 0.335,0.795 1.53,0.63 1.917,-0.034 0.32,-0.393 0.827,-0.6 0.557,-1.2 C 8.105,9.395 8.925,9.022 8.9,8.326 8.574,8.269 8.165,8.731 7.963,8.223 7.929,8.186 7.873,8.101 7.827,8.047 A 0.878,0.878 0 0 1 7.672,8.329 0.428,0.428 0 0 1 7.39,8.476 H 5.88 C 5.706,8.146 5.509,7.828 5.326,7.501 A 6.064,6.064 0 0 1 4.852,6.486 C 4.799,6.258 4.817,6.134 4.874,6.078 4.93,6.022 5.027,6.034 5.132,6.077 5.341,6.161 5.584,6.369 5.612,6.401 5.66,5.752 5.594,5.138 5.621,4.548 5.627,4.4 5.671,4.298 5.73,4.239 A 0.218,0.218 0 0 1 5.942,4.18 0.34,0.34 0 0 1 6.143,4.34 0.616,0.616 0 0 1 6.222,4.692 L 6.259,5.656 C 6.302,5.55 6.363,5.494 6.429,5.474 a 0.292,0.292 0 0 1 0.21,0.025 C 6.778,5.564 6.9,5.703 6.926,5.786 A 0.38,0.38 0 0 1 7.16,5.671 0.306,0.306 0 0 1 7.355,5.73 0.464,0.464 0 0 1 7.547,6.03 C 7.712,6.027 7.821,6.07 7.892,6.147 7.962,6.223 7.994,6.331 8.004,6.456 8.026,6.706 7.964,7.026 7.96,7.294 A 3.574,3.574 0 0 1 7.872,7.829 c 0.127,0.187 0.254,0.374 0.406,0.54 0.488,-0.279 1,-0.66 1.161,-1.214 -0.214,-0.25 -0.468,-0.332 0,-0.404 0.683,-0.347 1.11,0.469 1.393,0.873 0.617,0.174 -0.124,-0.706 0.17,-1.05 -0.035,-0.48 0.365,-0.776 0.556,-0.535 0.093,0.14 0.142,0.284 0.172,0.429 A 5.407,5.407 0 0 1 6.325,11.823 5.407,5.407 0 0 1 0.92,6.416 5.407,5.407 0 0 1 2.078,3.082 C 2.149,3.097 2.209,3.144 2.244,3.247 2.46,3.336 2.512,2.543 2.711,3.053 2.637,3.167 2.289,3.35 2.551,3.428 2.869,2.993 3.313,2.628 3.535,2.178 4.041,1.7 2.927,2.263 2.965,2.183 A 5.407,5.407 0 0 1 3.832,1.623 C 3.904,1.633 3.942,1.684 3.904,1.805 4.72,1.72 3.464,1.918 3.69,2.288 4.019,2.196 4.56,1.977 4.743,1.571 4.363,1.615 4.347,1.581 4.751,1.505 4.978,1.557 4.885,1.76 5.241,1.744 4.95,1.865 4.273,2.304 3.848,2.553 3.53,2.822 3.702,3.124 4.062,2.832 4.702,2.817 5.351,2.686 5.747,2.127 5.812,1.845 5.502,1.813 5.537,1.556 A 0.199,0.199 0 0 0 5.472,1.496 C 5.478,1.496 5.486,1.493 5.496,1.481 5.466,1.444 5.454,1.474 5.461,1.49 A 0.46,0.46 0 0 0 5.395,1.46 0.387,0.387 0 0 0 5.469,1.431 C 5.417,1.374 5.353,1.416 5.344,1.444 5,1.348 4.416,1.428 5.003,1.317 5.212,1.27 5.48,1.127 5.316,1.109 a 5.407,5.407 0 0 1 1.01,-0.1 z m 2.351,9.345 c -0.05,-0.007 -0.138,0.037 -0.276,0.16 -0.155,0.068 -0.562,0.757 -0.128,0.615 0.276,-0.071 0.583,-0.749 0.404,-0.775 z m 0.44,0.301 c -0.036,0.005 0.02,0.068 0.02,0.001 -0.01,-0.001 -0.016,-0.003 -0.02,0 z"
     id="path2"
     inkscape:connector-curvature="0"
     style="fill:#5beedc" />
</svg>
