<?xml version="1.0" encoding="UTF-8" standalone="no"?>
<svg
   xmlns:dc="http://purl.org/dc/elements/1.1/"
   xmlns:cc="http://creativecommons.org/ns#"
   xmlns:rdf="http://www.w3.org/1999/02/22-rdf-syntax-ns#"
   xmlns:svg="http://www.w3.org/2000/svg"
   xmlns="http://www.w3.org/2000/svg"
   xmlns:sodipodi="http://sodipodi.sourceforge.net/DTD/sodipodi-0.dtd"
   xmlns:inkscape="http://www.inkscape.org/namespaces/inkscape"
   width="48"
   height="48"
   viewBox="0 0 12.7 12.7"
   version="1.1"
   id="svg4"
   sodipodi:docname="kipi-dngconverter.svg"
   inkscape:version="0.92.4 (5da689c313, 2019-01-14)">
  <metadata
     id="metadata10">
    <rdf:RDF>
      <cc:Work
         rdf:about="">
        <dc:format>image/svg+xml</dc:format>
        <dc:type
           rdf:resource="http://purl.org/dc/dcmitype/StillImage" />
        <dc:title></dc:title>
      </cc:Work>
    </rdf:RDF>
  </metadata>
  <defs
     id="defs8" />
  <sodipodi:namedview
     pagecolor="#ffffff"
     bordercolor="#666666"
     borderopacity="1"
     objecttolerance="10"
     gridtolerance="10"
     guidetolerance="10"
     inkscape:pageopacity="0"
     inkscape:pageshadow="2"
     inkscape:window-width="1087"
     inkscape:window-height="480"
     id="namedview6"
     showgrid="false"
     inkscape:zoom="4.9166667"
     inkscape:cx="2.1355932"
     inkscape:cy="24"
     inkscape:window-x="0"
     inkscape:window-y="25"
     inkscape:window-maximized="0"
     inkscape:current-layer="svg4" />
  <path
     d="M 6.35,0.06 A 6.29,6.29 0 0 0 0.06,6.36 6.29,6.29 0 0 0 6.36,12.64 6.29,6.29 0 0 0 12.64,6.35 6.29,6.29 0 0 0 6.35,0.06 Z M 6.33,1 a 5.4,5.4 0 0 1 3.98,1.75 H 2.35 A 5.4,5.4 0 0 1 6.33,1 Z M 1.98,3.2 h 8.7 a 5.4,5.4 0 0 1 1.06,3.2 5.4,5.4 0 0 1 -0.98,3.1 H 1.91 A 5.4,5.4 0 0 1 0.93,6.4 5.4,5.4 0 0 1 1.98,3.2 Z m 0.3,0.9 H 1.83 V 8.6 H 2.28 C 3.63,8.6 4.08,7.7 4.08,6.36 4.08,5 3.63,4.1 2.28,4.1 Z m 2.7,0 V 8.6 H 5.43 V 5.23 L 6.77,8.6 H 7.22 V 4.1 H 6.77 V 7.48 L 5.44,4.15 5.43,4.1 Z m 5.84,0 c -1.35,0 -2.7,0.45 -2.7,2.24 0,1.8 0.9,2.26 2.25,2.26 h 0.45 V 6.35 H 9.92 V 6.8 h 0.45 V 8.15 C 9.02,8.15 8.57,7.7 8.57,6.36 8.57,5 9.47,4.56 10.82,4.56 Z M 2.28,4.55 c 1.35,0 1.35,1.35 1.35,1.8 0,0.45 0,1.8 -1.35,1.8 z m -0.02,5.4 h 8.15 A 5.4,5.4 0 0 1 6.33,11.81 5.4,5.4 0 0 1 2.26,9.95 Z"
     id="path2"
     inkscape:connector-curvature="0"
     style="fill:#5beedc" />
</svg>
