<?xml version="1.0" encoding="UTF-8" standalone="no"?>
<svg
   xmlns:dc="http://purl.org/dc/elements/1.1/"
   xmlns:cc="http://creativecommons.org/ns#"
   xmlns:rdf="http://www.w3.org/1999/02/22-rdf-syntax-ns#"
   xmlns:svg="http://www.w3.org/2000/svg"
   xmlns="http://www.w3.org/2000/svg"
   xmlns:sodipodi="http://sodipodi.sourceforge.net/DTD/sodipodi-0.dtd"
   xmlns:inkscape="http://www.inkscape.org/namespaces/inkscape"
   width="48"
   height="48"
   viewBox="0 0 12.7 12.7"
   version="1.1"
   id="svg4"
   sodipodi:docname="knavalbattle.svg"
   inkscape:version="0.92.4 (5da689c313, 2019-01-14)">
  <metadata
     id="metadata10">
    <rdf:RDF>
      <cc:Work
         rdf:about="">
        <dc:format>image/svg+xml</dc:format>
        <dc:type
           rdf:resource="http://purl.org/dc/dcmitype/StillImage" />
        <dc:title></dc:title>
      </cc:Work>
    </rdf:RDF>
  </metadata>
  <defs
     id="defs8" />
  <sodipodi:namedview
     pagecolor="#ffffff"
     bordercolor="#666666"
     borderopacity="1"
     objecttolerance="10"
     gridtolerance="10"
     guidetolerance="10"
     inkscape:pageopacity="0"
     inkscape:pageshadow="2"
     inkscape:window-width="862"
     inkscape:window-height="480"
     id="namedview6"
     showgrid="false"
     inkscape:zoom="4.9166667"
     inkscape:cx="2.1355932"
     inkscape:cy="24"
     inkscape:window-x="0"
     inkscape:window-y="25"
     inkscape:window-maximized="0"
     inkscape:current-layer="svg4" />
  <path
     d="m 6.344,0.072 a 6.29,6.29 0 0 0 -6.29,6.29 6.29,6.29 0 0 0 6.29,6.289 6.29,6.29 0 0 0 6.29,-6.29 6.29,6.29 0 0 0 -6.29,-6.29 z M 6.326,1.009 a 5.407,5.407 0 0 1 5.407,5.407 5.407,5.407 0 0 1 -1.544,3.776 2.086,2.086 0 0 1 -0.466,-0.353 c -0.562,0.562 -1.124,0.562 -1.124,0.562 0,0 -0.562,0 -1.125,-0.562 -0.562,0.562 -1.124,0.562 -1.124,0.562 0,0 -0.562,0 -1.124,-0.562 -0.563,0.562 -1.125,0.562 -1.125,0.562 0,0 -0.562,0 -1.124,-0.562 a 2.066,2.066 0 0 1 -0.5,0.37 A 5.407,5.407 0 0 1 0.92,6.417 5.407,5.407 0 0 1 6.326,1.01 Z M 7.673,2.381 A 0.264,0.264 0 0 0 7.408,2.646 V 3.44 H 4.445 C 3.888,3.44 3.44,3.888 3.44,4.445 V 6.384 L 2.808,6.578 C 2.358,6.691 2.358,7.141 2.695,7.365 3.314,7.759 4.101,8.433 4.101,9.221 v 0.618 h 0.056 c 0,0 0.506,0 1.125,-0.562 0.562,0.562 1.124,0.562 1.124,0.562 0,0 0.563,0 1.125,-0.562 0.562,0.562 1.068,0.562 1.068,0.562 H 8.655 V 9.221 c 0,-0.788 0.787,-1.462 1.406,-1.856 0.337,-0.224 0.28,-0.674 -0.113,-0.787 L 9.26,6.382 V 4.445 C 9.26,3.888 8.812,3.44 8.255,3.44 H 8.202 V 2.646 A 0.264,0.264 0 0 0 7.937,2.381 Z M 4.498,3.97 h 3.704 c 0.293,0 0.53,0.236 0.53,0.529 V 6.225 L 8.599,6.185 6.744,5.623 a 2.13,2.13 0 0 0 -0.844,0 L 4.101,6.186 3.969,6.226 V 4.497 c 0,-0.293 0.236,-0.53 0.529,-0.53 z"
     id="path2"
     inkscape:connector-curvature="0"
     style="fill:#5beedc" />
</svg>
