<?xml version="1.0" encoding="UTF-8" standalone="no"?>
<svg
   xmlns:dc="http://purl.org/dc/elements/1.1/"
   xmlns:cc="http://creativecommons.org/ns#"
   xmlns:rdf="http://www.w3.org/1999/02/22-rdf-syntax-ns#"
   xmlns:svg="http://www.w3.org/2000/svg"
   xmlns="http://www.w3.org/2000/svg"
   xmlns:sodipodi="http://sodipodi.sourceforge.net/DTD/sodipodi-0.dtd"
   xmlns:inkscape="http://www.inkscape.org/namespaces/inkscape"
   width="48"
   height="48"
   viewBox="0 0 12.7 12.7"
   version="1.1"
   id="svg17"
   sodipodi:docname="kollision.svg"
   inkscape:version="0.92.4 (5da689c313, 2019-01-14)">
  <metadata
     id="metadata21">
    <rdf:RDF>
      <cc:Work
         rdf:about="">
        <dc:format>image/svg+xml</dc:format>
        <dc:type
           rdf:resource="http://purl.org/dc/dcmitype/StillImage" />
        <dc:title></dc:title>
      </cc:Work>
    </rdf:RDF>
  </metadata>
  <sodipodi:namedview
     pagecolor="#ffffff"
     bordercolor="#666666"
     borderopacity="1"
     objecttolerance="10"
     gridtolerance="10"
     guidetolerance="10"
     inkscape:pageopacity="0"
     inkscape:pageshadow="2"
     inkscape:window-width="862"
     inkscape:window-height="480"
     id="namedview19"
     showgrid="false"
     inkscape:zoom="4.9166667"
     inkscape:cx="2.1355932"
     inkscape:cy="24"
     inkscape:window-x="0"
     inkscape:window-y="25"
     inkscape:window-maximized="0"
     inkscape:current-layer="svg17" />
  <defs
     id="defs7">
    <linearGradient
       id="a"
       gradientUnits="userSpaceOnUse"
       x1="328.083"
       y1="233.5"
       x2="328.083"
       y2=".667"
       gradientTransform="matrix(0.01729,0,0,0.01729,1.894,5.771)">
      <stop
         offset="0"
         stop-color="#42a5f5"
         id="stop2" />
      <stop
         offset="1"
         stop-color="#64b5f6"
         id="stop4" />
    </linearGradient>
  </defs>
  <path
     style="fill:#5beedc;stroke-width:1"
     d="m 6.3437986,0.07079671 v 0.0010335 A 6.2899998,6.2899998 0 0 0 0.05374349,6.3618855 6.2899998,6.2899998 0 0 0 6.3437986,12.650907 6.2899998,6.2899998 0 0 0 12.633854,6.3608521 6.2899998,6.2899998 0 0 0 6.3437986,0.07079671 Z M 6.3262287,1.0092407 A 5.4070001,5.4070001 0 0 1 11.733134,6.4161458 5.4070001,5.4070001 0 0 1 6.3262287,11.823051 5.4070001,5.4070001 0 0 1 0.91984049,6.4161458 5.4070001,5.4070001 0 0 1 6.3262287,1.0097575 Z M 5.0027953,2.8551229 A 2.013,2.013 0 0 0 2.9899983,4.86792 c 0,1.0679999 0.8341564,1.9318777 1.8851562,1.9998777 A 3.4,3.4 0 0 1 5.1107991,6.6869304 c 0.094,-0.068 0.1900666,-0.1358538 0.2640666,-0.1958539 0.073,-0.06 0.1230235,-0.1122441 0.1240234,-0.1462442 0,-0.037 -0.045755,-0.095881 -0.1157552,-0.1658813 -0.07,-0.07 -0.1611474,-0.1510273 -0.2511475,-0.2320274 -0.09,-0.08 -0.1798455,-0.16096 -0.2418456,-0.2299599 -0.062,-0.068 -0.098199,-0.12513 -0.083199,-0.1581298 0.015,-0.032 0.07623,-0.033087 0.1612304,-0.018087 0.086,0.014 0.1959915,0.044481 0.3079914,0.076481 0.112,0.032 0.2247765,0.064749 0.3167767,0.084749 0.093,0.02 0.1642028,0.026168 0.1912027,0.00517 0.03,-0.022 0.046911,-0.09527 0.058911,-0.1932697 0.011,-0.098 0.017771,-0.2200645 0.023771,-0.3410646 0.007,-0.121 0.013939,-0.2397625 0.028939,-0.3317626 0.015,-0.092 0.036347,-0.1548143 0.072347,-0.1638144 0.033,-0.009 0.072722,0.037688 0.1147215,0.1136883 0.042,0.077 0.087292,0.1818712 0.1322917,0.2888713 0.045,0.1069999 0.089775,0.2172734 0.1317749,0.3012736 0.042,0.085 0.081238,0.1449621 0.1152385,0.1529623 0.035,0.01 0.1030687,-0.022931 0.1870686,-0.074931 0.084,-0.052 0.1826366,-0.1243034 0.2816365,-0.1943031 l 0.048059,-0.03204 c 0.022,-0.119 0.037207,-0.2398358 0.037207,-0.3648355 0,-1.1116527 -0.9007596,-2.0122343 -2.0122803,-2.0127971 h -5.167e-4 z"
     id="path9"
     inkscape:connector-curvature="0" />
  <path
     d="M 5.738,6.961 A 1.996,1.996 0 0 0 5.553,7.795 2.013,2.013 0 1 0 7.566,5.782 c -0.182,0 -0.354,0.032 -0.52,0.077 -0.01,0.033 -0.033,0.08 -0.026,0.096 0.016,0.033 0.083,0.066 0.176,0.1 0.093,0.032 0.21,0.066 0.327,0.1 C 7.64,6.188 7.754,6.221 7.84,6.256 7.926,6.291 7.983,6.326 7.984,6.362 7.985,6.397 7.93,6.425 7.847,6.449 A 3.214,3.214 0 0 1 7.537,6.514 C 7.422,6.534 7.306,6.554 7.214,6.575 7.122,6.597 7.055,6.622 7.039,6.653 c -0.016,0.033 0,0.106 0.032,0.2 0.032,0.092 0.08,0.206 0.126,0.318 0.047,0.112 0.091,0.222 0.118,0.311 0.026,0.089 0.034,0.156 0.006,0.18 C 7.295,7.684 7.239,7.658 7.168,7.608 A 3.25,3.25 0 0 1 6.924,7.405 C 6.837,7.328 6.749,7.249 6.674,7.191 6.6,7.133 6.538,7.096 6.504,7.103 6.468,7.11 6.421,7.169 6.368,7.253 6.315,7.335 6.257,7.443 6.198,7.55 6.14,7.656 6.081,7.76 6.028,7.836 5.975,7.912 5.928,7.96 5.893,7.953 5.859,7.946 5.843,7.886 5.839,7.799 5.834,7.712 5.839,7.598 5.845,7.482 5.851,7.366 5.858,7.248 5.857,7.154 5.856,7.059 5.847,6.989 5.82,6.967 5.808,6.957 5.763,6.964 5.738,6.961 Z"
     id="path13"
     style="opacity:0.75;fill:url(#a)"
     inkscape:connector-curvature="0" />
  <path
     d="M 5.893,7.953 C 5.756,7.925 5.926,7.054 5.82,6.967 5.707,6.872 4.84,7.147 4.775,7.017 4.711,6.894 5.496,6.484 5.5,6.345 5.503,6.198 4.748,5.692 4.808,5.559 4.865,5.432 5.675,5.791 5.785,5.707 5.903,5.619 5.827,4.713 5.969,4.677 6.103,4.642 6.328,5.5 6.463,5.534 6.605,5.57 7.266,4.947 7.383,5.034 7.493,5.118 6.963,5.829 7.02,5.954 7.08,6.088 7.98,6.217 7.984,6.363 7.988,6.501 7.102,6.531 7.039,6.653 6.972,6.783 7.433,7.567 7.321,7.661 7.215,7.751 6.641,7.075 6.504,7.103 6.361,7.133 6.035,7.981 5.893,7.953 Z m 0,0"
     id="path15"
     inkscape:connector-curvature="0"
     style="fill:none;stroke:#5beedc;stroke-width:0.055;stroke-linecap:round;stroke-linejoin:round" />
</svg>
