<?xml version="1.0" encoding="UTF-8" standalone="no"?>
<svg
   xmlns:dc="http://purl.org/dc/elements/1.1/"
   xmlns:cc="http://creativecommons.org/ns#"
   xmlns:rdf="http://www.w3.org/1999/02/22-rdf-syntax-ns#"
   xmlns:svg="http://www.w3.org/2000/svg"
   xmlns="http://www.w3.org/2000/svg"
   xmlns:sodipodi="http://sodipodi.sourceforge.net/DTD/sodipodi-0.dtd"
   xmlns:inkscape="http://www.inkscape.org/namespaces/inkscape"
   width="48"
   height="48"
   viewBox="0 0 12.7 12.7"
   version="1.1"
   id="svg4"
   sodipodi:docname="krita.svg"
   inkscape:version="0.92.5 (2060ec1f9f, 2020-04-08)">
  <defs
     id="defs8">
  <style
     id="current-color-scheme"
     type="Highlight/css">
      .ColorScheme-Highlight {
        color:#5beedc;
      }
  </style>
  </defs>
  <path
     class="ColorScheme-Highlight"
     style="fill:#5beedc"
     d="M 24 0 A 24 24 0 0 0 0 24 A 24 24 0 0 0 24 48 A 24 24 0 0 0 48 24 A 24 24 0 0 0 24 0 z M 24 3 A 21 21 0 0 1 45 24 A 21 21 0 0 1 24 45 A 21 21 0 0 1 3 24 A 21 21 0 0 1 24 3 z M 11 12 L 11 13 L 29.695312 31.695312 C 29.88294 35.362439 33.496123 35.121603 34.53125 36.931641 C 35.005249 37.761641 34.074937 38.822859 33.210938 38.880859 C 34.926938 39.446859 36.945954 36.183266 36.251953 34.322266 C 35.653173 32 35 31.406051 32.837891 30.798828 C 32.202729 30.528008 31.132182 30.681192 30.466797 30.466797 L 29.960938 29.960938 L 29.533203 29.488281 L 29.5 29.5 L 12 12 L 11 12 z M 14.9375 25.257812 C 14.498588 25.260246 14.364797 25.894359 14.365234 26.763672 C 14.448237 28.482672 15.535546 33.496391 20.935547 37.150391 C 25.483547 40.22739 33.134 39.747997 33 38 C 31.17 35.726999 28.04 36.442 28 31 C 26.22 31.013 25.042281 30.807641 25.113281 31.556641 C 25.412281 34.694641 20.436812 32.431469 18.507812 29.230469 C 16.571125 26.297031 15.501815 25.254684 14.9375 25.257812 z M 22.029297 29.128906 C 21.734297 29.128906 21.497766 29.225923 21.384766 29.419922 C 21.160764 29.808922 21.524218 30.438125 22.199219 30.828125 C 22.874219 31.218125 23.603125 31.219078 23.828125 30.830078 C 24.052126 30.441078 23.68672 29.811875 23.011719 29.421875 C 22.673719 29.226874 22.029297 29.128906 22.029297 29.128906 z "
     transform="scale(0.26458333)"
     id="path817" />
</svg>
