<?xml version="1.0" encoding="UTF-8" standalone="no"?>
<svg
   xmlns:dc="http://purl.org/dc/elements/1.1/"
   xmlns:cc="http://creativecommons.org/ns#"
   xmlns:rdf="http://www.w3.org/1999/02/22-rdf-syntax-ns#"
   xmlns:svg="http://www.w3.org/2000/svg"
   xmlns="http://www.w3.org/2000/svg"
   xmlns:sodipodi="http://sodipodi.sourceforge.net/DTD/sodipodi-0.dtd"
   xmlns:inkscape="http://www.inkscape.org/namespaces/inkscape"
   width="48"
   height="48"
   viewBox="0 0 12.7 12.7"
   version="1.1"
   id="svg4"
   sodipodi:docname="komodo-ide.svg"
   inkscape:version="0.92.4 (5da689c313, 2019-01-14)">
  <metadata
     id="metadata10">
    <rdf:RDF>
      <cc:Work
         rdf:about="">
        <dc:format>image/svg+xml</dc:format>
        <dc:type
           rdf:resource="http://purl.org/dc/dcmitype/StillImage" />
        <dc:title></dc:title>
      </cc:Work>
    </rdf:RDF>
  </metadata>
  <defs
     id="defs8" />
  <sodipodi:namedview
     pagecolor="#ffffff"
     bordercolor="#666666"
     borderopacity="1"
     objecttolerance="10"
     gridtolerance="10"
     guidetolerance="10"
     inkscape:pageopacity="0"
     inkscape:pageshadow="2"
     inkscape:window-width="1138"
     inkscape:window-height="480"
     id="namedview6"
     showgrid="false"
     inkscape:zoom="4.9166667"
     inkscape:cx="2.1355932"
     inkscape:cy="24"
     inkscape:window-x="0"
     inkscape:window-y="25"
     inkscape:window-maximized="0"
     inkscape:current-layer="svg4" />
  <path
     d="m 6.344,0.072 a 6.29,6.29 0 0 0 -6.29,6.29 6.29,6.29 0 0 0 6.29,6.289 6.29,6.29 0 0 0 6.29,-6.29 6.29,6.29 0 0 0 -6.29,-6.29 z M 6.326,1.009 A 5.407,5.407 0 0 1 11.733,6.416 5.407,5.407 0 0 1 6.326,11.823 5.407,5.407 0 0 1 0.92,6.416 5.407,5.407 0 0 1 6.326,1.01 Z m -0.14,1.64 C 4.814,2.585 3.578,3.412 3.069,4.887 2.873,5.454 2.839,6.316 2.993,6.814 3.126,7.247 3.253,7.45 3.478,7.594 3.576,7.658 3.651,7.742 3.644,7.781 3.637,7.82 3.474,7.915 3.283,7.992 2.907,8.144 2.646,8.354 2.646,8.503 c 0,0.355 0.506,0.674 0.998,0.63 C 3.804,9.118 3.985,9.089 4.048,9.07 4.232,9.012 4.188,9.17 3.947,9.433 3.72,9.679 3.723,9.682 4.06,9.595 4.12,9.58 4.133,9.617 4.121,9.765 4.105,9.969 4.176,10.014 4.262,9.853 4.335,9.717 4.414,9.725 4.414,9.869 c 0,0.065 0.015,0.133 0.034,0.152 0.018,0.018 0.04,0.033 0.047,0.033 0.007,0 0.087,-0.223 0.177,-0.496 L 4.834,9.061 4.674,8.781 C 4.422,8.341 4.569,8.381 5.06,8.883 5.841,9.68 6.324,9.917 7.168,9.916 7.572,9.915 7.754,9.889 8.081,9.783 9.1,9.455 9.794,8.697 9.998,7.69 10.121,7.084 10.048,7.074 9.709,7.65 9.405,8.168 8.855,8.7 8.475,8.844 7.918,9.056 7.312,8.97 6.781,8.606 6.405,8.348 6.103,7.815 6.259,7.686 6.341,7.617 6.457,7.773 6.509,8.023 6.553,8.237 6.616,8.279 6.915,8.293 7.31,8.311 7.323,8.306 7.214,8.186 7.12,8.082 7.12,8.079 7.216,8.009 A 0.375,0.375 0 0 1 7.354,7.938 c 0.022,0 0.04,-0.023 0.04,-0.05 C 7.394,7.86 7.312,7.838 7.211,7.838 7.035,7.838 7.03,7.832 7.059,7.685 7.088,7.543 7.082,7.535 6.961,7.565 6.837,7.596 6.833,7.591 6.866,7.419 6.921,7.123 6.913,6.893 6.844,6.809 6.748,6.695 6.461,6.628 6.063,6.627 5.666,6.627 5.687,6.7 5.873,6.002 5.933,5.782 5.98,5.54 5.98,5.462 5.98,5.152 6.152,5.272 6.353,5.726 6.466,5.982 6.506,6.021 6.829,6.19 7.22,6.395 7.321,6.418 7.272,6.291 7.254,6.245 7.269,6.187 7.304,6.164 7.354,6.131 7.35,6.11 7.281,6.069 7.187,6.014 7.159,5.871 7.243,5.871 c 0.028,0 0.05,-0.034 0.05,-0.075 0,-0.058 -0.055,-0.072 -0.238,-0.063 L 6.816,5.745 6.831,5.559 C 6.849,5.341 6.779,5.194 6.58,5.027 6.31,4.8 6.416,4.714 6.963,4.712 H 7.265 L 6.997,4.441 C 6.799,4.241 6.734,4.14 6.747,4.051 6.769,3.897 7.034,3.812 7.224,3.899 7.35,3.956 7.354,3.971 7.32,4.242 l -0.036,0.283 0.32,0.282 c 0.375,0.331 1.273,1.219 1.472,1.455 0.076,0.09 0.17,0.163 0.21,0.163 0.102,0 0.368,-0.28 0.488,-0.513 C 9.864,5.735 9.869,5.682 9.819,5.438 9.631,4.538 8.771,3.608 7.579,3.022 A 3.535,3.535 0 0 0 6.185,2.65 Z M 6.051,2.957 c 0.176,0 0.355,0.017 0.534,0.053 0.45,0.088 1.45,0.543 1.977,0.898 0.577,0.39 0.946,0.934 0.989,1.457 C 9.576,5.675 9.458,5.983 9.304,6.012 9.198,6.032 7.969,4.852 7.746,4.515 7.482,4.117 7.628,3.986 8.01,4.278 8.18,4.407 8.25,4.5 8.274,4.628 c 0.033,0.177 0.105,0.233 0.3,0.234 0.06,0 0.184,0.046 0.275,0.101 0.327,0.2 0.29,0.097 -0.157,-0.44 C 8.309,4.065 7.935,3.721 7.672,3.589 7.459,3.482 6.927,3.399 6.456,3.401 5.452,3.403 4.648,3.818 4.272,4.53 4.147,4.765 4.136,4.834 4.136,5.366 c 0,0.709 0.098,1.06 0.536,1.935 0.165,0.33 0.292,0.608 0.282,0.618 C 4.944,7.929 4.823,7.819 4.686,7.673 3.861,6.793 3.421,5.743 3.544,4.948 3.724,3.786 4.819,2.958 6.051,2.958 Z"
     id="path2"
     inkscape:connector-curvature="0"
     style="fill:#5beedc" />
</svg>
