<?xml version="1.0" encoding="UTF-8" standalone="no"?>
<svg
   xmlns:dc="http://purl.org/dc/elements/1.1/"
   xmlns:cc="http://creativecommons.org/ns#"
   xmlns:rdf="http://www.w3.org/1999/02/22-rdf-syntax-ns#"
   xmlns:svg="http://www.w3.org/2000/svg"
   xmlns="http://www.w3.org/2000/svg"
   xmlns:sodipodi="http://sodipodi.sourceforge.net/DTD/sodipodi-0.dtd"
   xmlns:inkscape="http://www.inkscape.org/namespaces/inkscape"
   width="48"
   height="48"
   viewBox="0 0 12.7 12.7"
   version="1.1"
   id="svg8"
   sodipodi:docname="kreversi.svg"
   inkscape:version="0.92.4 (5da689c313, 2019-01-14)">
  <metadata
     id="metadata14">
    <rdf:RDF>
      <cc:Work
         rdf:about="">
        <dc:format>image/svg+xml</dc:format>
        <dc:type
           rdf:resource="http://purl.org/dc/dcmitype/StillImage" />
        <dc:title></dc:title>
      </cc:Work>
    </rdf:RDF>
  </metadata>
  <defs
     id="defs12" />
  <sodipodi:namedview
     pagecolor="#ffffff"
     bordercolor="#666666"
     borderopacity="1"
     objecttolerance="10"
     gridtolerance="10"
     guidetolerance="10"
     inkscape:pageopacity="0"
     inkscape:pageshadow="2"
     inkscape:window-width="862"
     inkscape:window-height="480"
     id="namedview10"
     showgrid="false"
     inkscape:zoom="4.9166667"
     inkscape:cx="2.1355932"
     inkscape:cy="24"
     inkscape:window-x="0"
     inkscape:window-y="25"
     inkscape:window-maximized="0"
     inkscape:current-layer="svg8" />
  <path
     d="m 6.344,0.072 a 6.29,6.29 0 0 0 -6.29,6.29 6.29,6.29 0 0 0 6.29,6.289 6.29,6.29 0 0 0 6.29,-6.29 6.29,6.29 0 0 0 -6.29,-6.29 z M 6.326,1.009 A 5.407,5.407 0 0 1 11.733,6.416 5.407,5.407 0 0 1 6.326,11.823 5.407,5.407 0 0 1 0.92,6.416 5.407,5.407 0 0 1 6.326,1.01 Z"
     id="path2"
     inkscape:connector-curvature="0"
     style="fill:#5beedc" />
  <path
     d="m 6.663,2.165 c -1.109,0 -2.007,0.737 -2.007,1.906 0,1.168 0.972,1.829 1.904,2.116 0.911,0.281 2.11,1.16 2.11,2.328 0,1.095 -0.788,1.996 -1.8,2.106 2.068,-0.118 3.712,-1.96 3.712,-4.222 0,-2.338 -1.754,-4.234 -3.919,-4.234 z m 0.11,1.059 A 0.847,0.847 0 0 1 7.62,4.071 0.847,0.847 0 0 1 6.773,4.917 0.847,0.847 0 0 1 5.926,4.071 0.847,0.847 0 0 1 6.773,3.224 Z"
     id="path4"
     inkscape:connector-curvature="0"
     style="opacity:0.75;fill:#d40000" />
  <path
     d="m 6.034,2.165 c -0.07,0 -0.14,0.005 -0.21,0.012 0.07,-0.004 0.14,-0.012 0.21,-0.012 z m -0.21,0.012 c -2.066,0.119 -3.709,1.96 -3.709,4.222 0,2.337 1.755,4.233 3.92,4.233 1.108,0 2.007,-0.736 2.007,-1.905 C 8.042,7.558 7.068,6.897 6.137,6.61 5.225,6.33 4.027,5.45 4.027,4.282 4.027,3.188 4.814,2.288 5.824,2.177 Z M 5.926,7.881 A 0.847,0.847 0 0 1 6.773,8.727 0.847,0.847 0 0 1 5.926,9.574 0.847,0.847 0 0 1 5.08,8.727 0.847,0.847 0 0 1 5.926,7.881 Z"
     id="path6"
     inkscape:connector-curvature="0"
     style="opacity:0.75;fill:#800080" />
</svg>
