<?xml version="1.0" encoding="UTF-8" standalone="no"?>
<svg
   xmlns:dc="http://purl.org/dc/elements/1.1/"
   xmlns:cc="http://creativecommons.org/ns#"
   xmlns:rdf="http://www.w3.org/1999/02/22-rdf-syntax-ns#"
   xmlns:svg="http://www.w3.org/2000/svg"
   xmlns="http://www.w3.org/2000/svg"
   xmlns:sodipodi="http://sodipodi.sourceforge.net/DTD/sodipodi-0.dtd"
   xmlns:inkscape="http://www.inkscape.org/namespaces/inkscape"
   width="48"
   height="48"
   viewBox="0 0 12.7 12.7"
   version="1.1"
   id="svg4"
   sodipodi:docname="kstars.svg"
   inkscape:version="0.92.4 (5da689c313, 2019-01-14)">
  <metadata
     id="metadata10">
    <rdf:RDF>
      <cc:Work
         rdf:about="">
        <dc:format>image/svg+xml</dc:format>
        <dc:type
           rdf:resource="http://purl.org/dc/dcmitype/StillImage" />
        <dc:title></dc:title>
      </cc:Work>
    </rdf:RDF>
  </metadata>
  <defs
     id="defs8" />
  <sodipodi:namedview
     pagecolor="#ffffff"
     bordercolor="#666666"
     borderopacity="1"
     objecttolerance="10"
     gridtolerance="10"
     guidetolerance="10"
     inkscape:pageopacity="0"
     inkscape:pageshadow="2"
     inkscape:window-width="861"
     inkscape:window-height="480"
     id="namedview6"
     showgrid="false"
     inkscape:zoom="4.9166667"
     inkscape:cx="2.1355932"
     inkscape:cy="24"
     inkscape:window-x="0"
     inkscape:window-y="25"
     inkscape:window-maximized="0"
     inkscape:current-layer="svg4" />
  <path
     d="M 6.34,0.07 A 6.29,6.29 0 0 0 0.05,6.37 6.29,6.29 0 0 0 6.35,12.65 6.29,6.29 0 0 0 12.63,6.36 6.29,6.29 0 0 0 6.34,0.07 Z M 6.32,1 6.33,1.01 a 5.4,5.4 0 0 1 5.4,5.4 5.4,5.4 0 0 1 -5.4,5.41 A 5.4,5.4 0 0 1 0.92,6.42 5.4,5.4 0 0 1 6.32,1 Z m 3.586,2.136 -0.508,0.195 0.755,1.97 0.508,-0.195 z M 9.119,3.608 7.314,4.428 7.866,5.88 9.763,5.286 Z M 6.966,4.531 6.458,4.726 7.031,6.22 7.539,6.025 Z M 6.151,4.955 4.224,5.833 4.636,6.901 5.917,6.497 4.381,10.37 a 0.172,0.172 0 0 0 0.098,0.233 c 0.11,0.046 0.204,-0.027 0.233,-0.098 l 1.24,-3.13 v 2.272 c 0,0.106 0.086,0.184 0.184,0.184 A 0.183,0.183 0 0 0 6.32,9.647 V 7.375 l 1.24,3.138 c 0.035,0.09 0.14,0.132 0.233,0.098 0.091,-0.035 0.133,-0.14 0.099,-0.233 L 6.306,6.37 6.653,6.264 Z M 3.87,5.926 3.362,6.121 3.797,7.258 4.306,7.064 Z M 3.064,6.356 2.278,6.716 2.591,7.537 3.419,7.277 3.064,6.355 Z M 1.99,6.976 1.745,7.069 1.96,7.632 2.205,7.538 1.99,6.975 Z"
     id="path2"
     inkscape:connector-curvature="0"
     style="fill:#5beedc" />
</svg>
