<?xml version="1.0" encoding="UTF-8" standalone="no"?>
<svg
   xmlns:dc="http://purl.org/dc/elements/1.1/"
   xmlns:cc="http://creativecommons.org/ns#"
   xmlns:rdf="http://www.w3.org/1999/02/22-rdf-syntax-ns#"
   xmlns:svg="http://www.w3.org/2000/svg"
   xmlns="http://www.w3.org/2000/svg"
   xmlns:sodipodi="http://sodipodi.sourceforge.net/DTD/sodipodi-0.dtd"
   xmlns:inkscape="http://www.inkscape.org/namespaces/inkscape"
   width="48"
   height="48"
   viewBox="0 0 12.7 12.7"
   version="1.1"
   id="svg4"
   sodipodi:docname="kuiviewer.svg"
   inkscape:version="0.92.5 (2060ec1f9f, 2020-04-08)">
  <defs
     id="defs8">
  <style
     id="current-color-scheme"
     type="Highlight/css">
      .ColorScheme-Highlight {
        color:#5beedc;
      }
  </style>
  </defs>
  <path
     class="ColorScheme-Highlight"
     style="fill:#5beedc"
     d="M 24 0 A 24 24 0 0 0 0 24 A 24 24 0 0 0 24 48 A 24 24 0 0 0 48 24 A 24 24 0 0 0 24 0 z M 24 3 A 21 21 0 0 1 45 24 A 21 21 0 0 1 24 45 A 21 21 0 0 1 3 24 A 21 21 0 0 1 24 3 z M 17 12 L 16.162109 15.351562 A 5 5 0 0 0 16.017578 15.416016 L 13.050781 13.636719 L 11.636719 15.050781 L 13.414062 18.011719 A 5 5 0 0 0 13.355469 18.162109 L 10 19 L 10 21 L 13.351562 21.837891 A 5 5 0 0 0 13.416016 21.982422 L 11.636719 24.949219 L 13.050781 26.363281 L 16.011719 24.585938 A 5 5 0 0 0 16.162109 24.644531 L 17 28 L 19 28 L 19.837891 24.648438 A 5 5 0 0 0 19.982422 24.583984 L 22.949219 26.363281 L 24.363281 24.949219 L 22.585938 21.988281 A 5 5 0 0 0 22.644531 21.837891 L 26 21 L 26 19 L 22.648438 18.162109 A 5 5 0 0 0 22.583984 18.017578 L 24.363281 15.050781 L 22.949219 13.636719 L 19.988281 15.414062 A 5 5 0 0 0 19.837891 15.355469 L 19 12 L 17 12 z M 18 17 A 3 3 0 0 1 21 20 A 3 3 0 0 1 18 23 A 3 3 0 0 1 15 20 A 3 3 0 0 1 18 17 z "
     transform="scale(0.26458333)"
     id="path817" />
  <path
     style="fill:#aa8800"
     d="M 29 20 L 28.162109 23.351562 A 5.0000001 5.0000001 0 0 0 28.017578 23.416016 L 25.050781 21.636719 L 23.636719 23.050781 L 25.414062 26.011719 A 5.0000001 5.0000001 0 0 0 25.355469 26.162109 L 22 27 L 22 29 L 25.351562 29.837891 A 5.0000001 5.0000001 0 0 0 25.416016 29.982422 L 23.636719 32.949219 L 25.050781 34.363281 L 28.011719 32.585938 A 5.0000001 5.0000001 0 0 0 28.162109 32.644531 L 29 36 L 31 36 L 31.837891 32.648438 A 5.0000001 5.0000001 0 0 0 31.982422 32.583984 L 34.949219 34.363281 L 36.363281 32.949219 L 34.585938 29.988281 A 5.0000001 5.0000001 0 0 0 34.644531 29.837891 L 38 29 L 38 27 L 34.648438 26.162109 A 5.0000001 5.0000001 0 0 0 34.583984 26.017578 L 36.363281 23.050781 L 34.949219 21.636719 L 31.988281 23.414062 A 5.0000001 5.0000001 0 0 0 31.837891 23.355469 L 31 20 L 29 20 z M 30 25 A 3 3 0 0 1 33 28 A 3 3 0 0 1 30 31 A 3 3 0 0 1 27 28 A 3 3 0 0 1 30 25 z "
     transform="scale(0.26458333)"
     id="path825" />
</svg>
