<?xml version="1.0" encoding="UTF-8" standalone="no"?>
<svg
   xmlns:dc="http://purl.org/dc/elements/1.1/"
   xmlns:cc="http://creativecommons.org/ns#"
   xmlns:rdf="http://www.w3.org/1999/02/22-rdf-syntax-ns#"
   xmlns:svg="http://www.w3.org/2000/svg"
   xmlns="http://www.w3.org/2000/svg"
   xmlns:sodipodi="http://sodipodi.sourceforge.net/DTD/sodipodi-0.dtd"
   xmlns:inkscape="http://www.inkscape.org/namespaces/inkscape"
   width="48"
   height="48"
   viewBox="0 0 12.7 12.7"
   version="1.1"
   id="svg4"
   sodipodi:docname="kwalletmanager.svg"
   inkscape:version="0.92.5 (2060ec1f9f, 2020-04-08)">
  <defs
     id="defs8">
  <style
     id="current-color-scheme"
     type="Highlight/css">
      .ColorScheme-Highlight {
        color:#5beedc;
      }
  </style>
  </defs>
  <path
     class="ColorScheme-Highlight"
     style="fill:#5beedc"
     d="M 24 0 A 24 24 0 0 0 0 24 A 24 24 0 0 0 24 48 A 24 24 0 0 0 48 24 A 24 24 0 0 0 24 0 z M 24 3 A 21 21 0 0 1 45 24 A 21 21 0 0 1 24 45 A 21 21 0 0 1 3 24 A 21 21 0 0 1 24 3 z M 13 13 C 11.892 13 11 13.892 11 15 L 11 33 C 11 34.108 11.892 35 13 35 L 35 35 C 36.108 35 37 34.108 37 33 L 37 15 C 37 13.892 36.108 13 35 13 L 13 13 z M 28 20 L 31 20 L 33 20 L 35 20 L 35 20.609375 L 35 27.390625 L 35 28 L 33 28 L 31 28 L 28 28 C 25.784 28 24 26.216 24 24 C 24 21.784 25.784 20 28 20 z M 28 22 A 1.9999999 1.9999999 0 0 0 26 24 A 1.9999999 1.9999999 0 0 0 28 26 A 1.9999999 1.9999999 0 0 0 30 24 A 1.9999999 1.9999999 0 0 0 28 22 z "
     transform="scale(0.26458333)"
     id="rect849" />
</svg>
