<?xml version="1.0" encoding="UTF-8" standalone="no"?>
<svg
   xmlns:dc="http://purl.org/dc/elements/1.1/"
   xmlns:cc="http://creativecommons.org/ns#"
   xmlns:rdf="http://www.w3.org/1999/02/22-rdf-syntax-ns#"
   xmlns:svg="http://www.w3.org/2000/svg"
   xmlns="http://www.w3.org/2000/svg"
   xmlns:sodipodi="http://sodipodi.sourceforge.net/DTD/sodipodi-0.dtd"
   xmlns:inkscape="http://www.inkscape.org/namespaces/inkscape"
   width="48"
   height="48"
   viewBox="0 0 12.7 12.7"
   version="1.1"
   id="svg17"
   sodipodi:docname="gparted.svg"
   inkscape:version="0.92.4 (5da689c313, 2019-01-14)">
  <metadata
     id="metadata21">
    <rdf:RDF>
      <cc:Work
         rdf:about="">
        <dc:format>image/svg+xml</dc:format>
        <dc:type
           rdf:resource="http://purl.org/dc/dcmitype/StillImage" />
        <dc:title></dc:title>
      </cc:Work>
    </rdf:RDF>
  </metadata>
  <sodipodi:namedview
     pagecolor="#ffffff"
     bordercolor="#666666"
     borderopacity="1"
     objecttolerance="10"
     gridtolerance="10"
     guidetolerance="10"
     inkscape:pageopacity="0"
     inkscape:pageshadow="2"
     inkscape:window-width="1087"
     inkscape:window-height="480"
     id="namedview19"
     showgrid="false"
     inkscape:zoom="4.9166667"
     inkscape:cx="2.1355932"
     inkscape:cy="24"
     inkscape:window-x="0"
     inkscape:window-y="25"
     inkscape:window-maximized="0"
     inkscape:current-layer="svg17" />
  <defs
     id="defs7">
    <linearGradient
       id="a"
       x2="0"
       y1="36"
       y2="12"
       gradientTransform="matrix(0.15434,0,0,0.15434,2.646,2.646)"
       gradientUnits="userSpaceOnUse">
      <stop
         stop-color="#06a370"
         id="stop2" />
      <stop
         offset="1"
         stop-color="#22d1b0"
         id="stop4" />
    </linearGradient>
  </defs>
  <path
     d="m 6.344,0.073 a 6.29,6.29 0 0 0 -6.29,6.29 6.29,6.29 0 0 0 6.29,6.288 6.29,6.29 0 0 0 6.29,-6.289 6.29,6.29 0 0 0 -6.29,-6.29 z M 6.326,1.009 A 5.407,5.407 0 0 1 11.733,6.416 5.407,5.407 0 0 1 6.326,11.823 5.407,5.407 0 0 1 0.92,6.416 5.407,5.407 0 0 1 6.326,1.01 Z"
     id="path9"
     inkscape:connector-curvature="0"
     style="fill:#5beedc" />
  <path
     d="M 6.35,1.323 A 5.016,5.016 0 0 0 1.323,6.35 h 1.76 A 3.26,3.26 0 0 1 6.35,3.082 Z M 9.618,6.35 A 3.26,3.26 0 0 1 6.35,9.618 v 1.76 A 5.016,5.016 0 0 0 11.377,6.35 Z"
     id="path11"
     inkscape:connector-curvature="0"
     style="fill:#5beedc" />
  <path
     d="M 6.35,3.175 A 3.168,3.168 0 0 0 3.175,6.35 c 0,1.759 1.416,3.175 3.175,3.175 1.759,0 3.175,-1.416 3.175,-3.175 H 8.218 A 1.864,1.864 0 0 1 6.35,8.218 1.864,1.864 0 0 1 4.482,6.35 c 0,-1.035 0.833,-1.868 1.868,-1.868 z"
     id="path13"
     inkscape:connector-curvature="0"
     style="opacity:0.75;fill:#5beedc" />
  <path
     d="M 6.35,4.498 A 1.848,1.848 0 0 0 4.498,6.35 c 0,1.026 0.826,1.852 1.852,1.852 1.026,0 1.852,-0.826 1.852,-1.852 A 1.848,1.848 0 0 0 6.35,4.498 m 0,0.772 c 0.599,0 1.08,0.481 1.08,1.08 0,0.599 -0.481,1.08 -1.08,1.08 -0.599,0 -1.08,-0.481 -1.08,-1.08 0,-0.599 0.481,-1.08 1.08,-1.08"
     id="path15"
     style="opacity:0.7;fill:url(#a)"
     inkscape:connector-curvature="0" />
</svg>
