<?xml version="1.0" encoding="UTF-8" standalone="no"?>
<svg
   xmlns:dc="http://purl.org/dc/elements/1.1/"
   xmlns:cc="http://creativecommons.org/ns#"
   xmlns:rdf="http://www.w3.org/1999/02/22-rdf-syntax-ns#"
   xmlns:svg="http://www.w3.org/2000/svg"
   xmlns="http://www.w3.org/2000/svg"
   xmlns:sodipodi="http://sodipodi.sourceforge.net/DTD/sodipodi-0.dtd"
   xmlns:inkscape="http://www.inkscape.org/namespaces/inkscape"
   width="48"
   height="48"
   viewBox="0 0 12.7 12.7"
   version="1.1"
   id="svg6"
   sodipodi:docname="kxstitch.svg"
   inkscape:version="0.92.4 (5da689c313, 2019-01-14)">
  <metadata
     id="metadata12">
    <rdf:RDF>
      <cc:Work
         rdf:about="">
        <dc:format>image/svg+xml</dc:format>
        <dc:type
           rdf:resource="http://purl.org/dc/dcmitype/StillImage" />
        <dc:title></dc:title>
      </cc:Work>
    </rdf:RDF>
  </metadata>
  <defs
     id="defs10" />
  <sodipodi:namedview
     pagecolor="#ffffff"
     bordercolor="#666666"
     borderopacity="1"
     objecttolerance="10"
     gridtolerance="10"
     guidetolerance="10"
     inkscape:pageopacity="0"
     inkscape:pageshadow="2"
     inkscape:window-width="1138"
     inkscape:window-height="480"
     id="namedview8"
     showgrid="false"
     inkscape:zoom="2.4583333"
     inkscape:cx="2.1355932"
     inkscape:cy="24"
     inkscape:window-x="0"
     inkscape:window-y="25"
     inkscape:window-maximized="0"
     inkscape:current-layer="svg6" />
  <path
     style="fill:#5beedc;stroke-width:1"
     d="m 6.3437986,0.07183024 v 0.0010335 A 6.2899998,6.2899998 0 0 0 0.05374349,6.362919 6.2899998,6.2899998 0 0 0 6.3437986,12.650907 6.2899998,6.2899998 0 0 0 12.633854,6.3618855 6.2899998,6.2899998 0 0 0 6.3437986,0.07183024 Z M 6.3262287,1.0092407 A 5.4070001,5.4070001 0 0 1 11.733134,6.4161458 5.4070001,5.4070001 0 0 1 6.3262287,11.823051 5.4070001,5.4070001 0 0 1 0.91984049,6.4161458 5.4070001,5.4070001 0 0 1 6.3262287,1.0097575 Z m 1.1218955,1.0790039 c -0.4030001,0.024 -0.6893279,0.3469964 -0.7653282,0.8629964 -0.024,0.163 -0.022651,0.3095178 -0.00465,0.4475179 -0.094,0.1320001 -0.1592837,0.2461199 -0.1782837,0.2811198 L 2.9502076,9.3348306 c -0.028,0.043 -0.061389,0.096197 -0.027389,0.160197 l 0.034106,0.059945 h 0.068213 c 0.06,0 0.09199,-0.040065 0.12299,-0.079065 L 7.2331503,4.3501219 c 0.2599999,0.22 0.5716944,0.3876834 0.8536945,0.5296834 -0.1259999,0.3900001 -0.292926,0.8193606 -0.4909262,1.2903605 -0.544,1.2920001 -0.2900159,2.3599756 0.091984,2.6039754 A 0.11569177,0.11569177 0 1 0 7.8119263,8.5788044 C 7.5419262,8.4068043 7.3038255,7.4590494 7.8088257,6.2590494 8.0028256,5.7970493 8.1691344,5.3747421 8.2961344,4.9857421 l 0.094051,0.048059 c 0.625,0.331 1.1225799,1.7600519 1.1275797,1.7740521 A 0.116,0.116 0 1 0 9.7358398,6.7329224 C 9.7148398,6.6709223 9.2031557,5.203196 8.4971556,4.830196 A 11.066,11.066 0 0 0 8.3648639,4.7619832 C 8.576864,4.0499831 8.6449407,3.454805 8.5059408,2.9378052 8.3709406,2.4348052 7.9061241,2.0612446 7.4481242,2.0882446 Z m 0.044958,0.2299601 c 0.3040001,0 0.6741326,0.2465451 0.7901329,0.6795451 0.125,0.462 0.063876,1.0052968 -0.1271241,1.6582966 C 7.8890912,4.5200466 7.6068441,4.3662544 7.3778443,4.1692544 7.5308441,3.9712545 7.8317724,3.5358914 7.7917725,3.2178913 A 0.37399999,0.37399999 0 0 0 7.6341594,2.951241 0.41399999,0.41399999 0 0 0 7.3938637,2.8732096 c -0.1799997,0 -0.3506104,0.1175499 -0.4966104,0.2635499 0.003,-0.05 0.00699,-0.099929 0.014986,-0.1519288 0.06,-0.407 0.2598373,-0.6495925 0.5498373,-0.6655924 z M 7.3189329,3.1321086 c 0.04,0 0.077138,0.010073 0.1121381,0.033073 0.058,0.036 0.090085,0.090647 0.095084,0.1586466 0.01,0.167 -0.1832377,0.410265 -0.3772379,0.609265 A 1.178,1.178 0 0 1 6.9318766,3.4917766 c 0.112,-0.2000001 0.2460565,-0.359668 0.3870563,-0.359668 z M 6.7892496,3.7889158 c 0.051,0.1110002 0.1167196,0.2129245 0.1917197,0.3059245 -0.087,0.08 -0.1598539,0.1430827 -0.1958539,0.1720826 h 0.00103 L 6.5582559,4.4550253 6.6481729,4.1739055 c 0.026,-0.082 0.075077,-0.2279896 0.1410767,-0.3849897 z"
     id="path2"
     inkscape:connector-curvature="0" />
</svg>
