<?xml version="1.0" encoding="UTF-8" standalone="no"?>
<svg
   xmlns:dc="http://purl.org/dc/elements/1.1/"
   xmlns:cc="http://creativecommons.org/ns#"
   xmlns:rdf="http://www.w3.org/1999/02/22-rdf-syntax-ns#"
   xmlns:svg="http://www.w3.org/2000/svg"
   xmlns="http://www.w3.org/2000/svg"
   xmlns:sodipodi="http://sodipodi.sourceforge.net/DTD/sodipodi-0.dtd"
   xmlns:inkscape="http://www.inkscape.org/namespaces/inkscape"
   width="48"
   height="48"
   viewBox="0 0 12.7 12.7"
   version="1.1"
   id="svg4"
   sodipodi:docname="labplot.svg"
   inkscape:version="0.92.5 (2060ec1f9f, 2020-04-08)">
  <defs
     id="defs8">
  <style
     id="current-color-scheme"
     type="Highlight/css">
      .ColorScheme-Highlight {
        color:#5beedc;
      }
  </style>
  </defs>
  <path
     class="ColorScheme-Highlight"
     style="fill:#5beedc"
     d="M 24 0 A 24 24 0 0 0 0 24 A 24 24 0 0 0 24 48 A 24 24 0 0 0 48 24 A 24 24 0 0 0 24 0 z M 24 3 A 21 21 0 0 1 45 24 A 21 21 0 0 1 24 45 A 21 21 0 0 1 3 24 A 21 21 0 0 1 24 3 z M 27.095703 12.542969 A 8.0000001 6 45 0 0 23.232422 13.953125 A 8.0000001 6 45 0 0 24.646484 23.853516 A 6.9999999 5.0000001 45 0 1 24.783203 24 L 22 24 L 22 25 L 25.623047 25 A 6.9999999 5.0000001 45 0 1 26.060547 32.337891 A 6.9999999 5.0000001 45 0 1 17.576172 30.923828 L 16.869141 31.630859 A 8.0000001 6 45 0 0 26.767578 33.046875 A 8.0000001 6 45 0 0 25.353516 23.146484 A 6.9999999 5.0000001 45 0 1 23.939453 14.662109 A 6.9999999 5.0000001 45 0 1 32.423828 16.076172 L 33.130859 15.369141 A 8.0000001 6 45 0 0 27.095703 12.542969 z M 4 24 L 4 25 L 8 25 L 8 24 L 4 24 z M 10 24 L 10 25 L 14 25 L 14 24 L 10 24 z M 16 24 L 16 25 L 20 25 L 20 24 L 16 24 z M 28 24 L 28 25 L 32 25 L 32 24 L 28 24 z M 34 24 L 34 25 L 38 25 L 38 24 L 34 24 z M 40 24 L 40 25 L 44 25 L 44 24 L 40 24 z "
     transform="scale(0.26458333)"
     id="path817" />
</svg>
