<?xml version="1.0" encoding="UTF-8" standalone="no"?>
<svg
   xmlns:dc="http://purl.org/dc/elements/1.1/"
   xmlns:cc="http://creativecommons.org/ns#"
   xmlns:rdf="http://www.w3.org/1999/02/22-rdf-syntax-ns#"
   xmlns:svg="http://www.w3.org/2000/svg"
   xmlns="http://www.w3.org/2000/svg"
   xmlns:sodipodi="http://sodipodi.sourceforge.net/DTD/sodipodi-0.dtd"
   xmlns:inkscape="http://www.inkscape.org/namespaces/inkscape"
   width="48"
   height="48"
   viewBox="0 0 12.7 12.7"
   version="1.1"
   id="svg4"
   sodipodi:docname="lastfm.svg"
   inkscape:version="0.92.4 (5da689c313, 2019-01-14)">
  <metadata
     id="metadata10">
    <rdf:RDF>
      <cc:Work
         rdf:about="">
        <dc:format>image/svg+xml</dc:format>
        <dc:type
           rdf:resource="http://purl.org/dc/dcmitype/StillImage" />
        <dc:title></dc:title>
      </cc:Work>
    </rdf:RDF>
  </metadata>
  <defs
     id="defs8" />
  <sodipodi:namedview
     pagecolor="#ffffff"
     bordercolor="#666666"
     borderopacity="1"
     objecttolerance="10"
     gridtolerance="10"
     guidetolerance="10"
     inkscape:pageopacity="0"
     inkscape:pageshadow="2"
     inkscape:window-width="1087"
     inkscape:window-height="480"
     id="namedview6"
     showgrid="false"
     inkscape:zoom="4.9166667"
     inkscape:cx="2.1355932"
     inkscape:cy="24"
     inkscape:window-x="0"
     inkscape:window-y="25"
     inkscape:window-maximized="0"
     inkscape:current-layer="svg4" />
  <path
     d="M 6.34,0.07 A 6.29,6.29 0 0 0 0.05,6.37 6.29,6.29 0 0 0 6.35,12.65 6.29,6.29 0 0 0 12.63,6.36 6.29,6.29 0 0 0 6.34,0.07 Z M 6.33,1.01 a 5.4,5.4 0 0 1 5.4,5.4 5.4,5.4 0 0 1 -5.4,5.41 A 5.4,5.4 0 0 1 0.92,6.42 5.4,5.4 0 0 1 6.32,1 Z M 4.86,3.9 A 2.37,2.37 0 0 0 2.64,5.24 2.47,2.47 0 0 0 4.39,8.76 2.3,2.3 0 0 0 5.94,8.45 C 6.24,8.25 6.57,7.95 6.57,7.87 6.57,7.83 6.5,7.67 6.42,7.47 L 6.28,7.15 6.2,7.27 C 6.06,7.5 5.71,7.81 5.45,7.94 5.23,8.04 5.13,8.06 4.75,8.06 4.35,8.06 4.28,8.05 4.03,7.92 3.68,7.75 3.37,7.42 3.21,7.07 3.11,6.84 3.09,6.75 3.09,6.33 3.09,5.89 3.1,5.82 3.23,5.57 3.38,5.26 3.7,4.92 3.99,4.77 4.29,4.61 4.73,4.55 5.06,4.62 5.7,4.76 6.08,5.1 6.38,5.82 7.11,7.53 7.33,8 7.55,8.25 7.88,8.62 8.15,8.73 8.74,8.73 9.15,8.73 9.24,8.72 9.49,8.6 10.05,8.33 10.32,7.89 10.32,7.27 10.32,6.55 10.02,6.24 8.99,5.89 8.26,5.65 8.11,5.52 8.11,5.16 8.11,4.8 8.34,4.57 8.71,4.57 8.93,4.57 9.06,4.62 9.24,4.8 9.33,4.88 9.39,4.91 9.47,4.89 9.62,4.85 9.88,4.68 9.88,4.62 9.88,4.51 9.43,4.1 9.21,4.02 a 1.37,1.37 0 0 0 -1.43,0.3 c -0.23,0.25 -0.32,0.5 -0.32,0.86 0,0.68 0.33,1.02 1.37,1.4 0.68,0.23 0.82,0.36 0.82,0.74 0,0.45 -0.37,0.77 -0.9,0.77 C 8.44,8.09 8.27,8.03 8.09,7.86 7.93,7.69 7.83,7.5 7.31,6.27 6.82,5.1 6.68,4.83 6.35,4.52 5.92,4.12 5.39,3.92 4.85,3.9 Z"
     id="path2"
     inkscape:connector-curvature="0"
     style="fill:#5beedc" />
</svg>
