<?xml version="1.0" encoding="UTF-8" standalone="no"?>
<svg
   xmlns:dc="http://purl.org/dc/elements/1.1/"
   xmlns:cc="http://creativecommons.org/ns#"
   xmlns:rdf="http://www.w3.org/1999/02/22-rdf-syntax-ns#"
   xmlns:svg="http://www.w3.org/2000/svg"
   xmlns="http://www.w3.org/2000/svg"
   xmlns:sodipodi="http://sodipodi.sourceforge.net/DTD/sodipodi-0.dtd"
   xmlns:inkscape="http://www.inkscape.org/namespaces/inkscape"
   width="48"
   height="48"
   viewBox="0 0 12.7 12.7"
   version="1.1"
   id="svg4"
   sodipodi:docname="latte-dock.svg"
   inkscape:version="0.92.4 (5da689c313, 2019-01-14)">
  <metadata
     id="metadata10">
    <rdf:RDF>
      <cc:Work
         rdf:about="">
        <dc:format>image/svg+xml</dc:format>
        <dc:type
           rdf:resource="http://purl.org/dc/dcmitype/StillImage" />
        <dc:title></dc:title>
      </cc:Work>
    </rdf:RDF>
  </metadata>
  <defs
     id="defs8" />
  <sodipodi:namedview
     pagecolor="#ffffff"
     bordercolor="#666666"
     borderopacity="1"
     objecttolerance="10"
     gridtolerance="10"
     guidetolerance="10"
     inkscape:pageopacity="0"
     inkscape:pageshadow="2"
     inkscape:window-width="1112"
     inkscape:window-height="480"
     id="namedview6"
     showgrid="false"
     inkscape:zoom="4.9166667"
     inkscape:cx="2.1355932"
     inkscape:cy="24"
     inkscape:window-x="0"
     inkscape:window-y="25"
     inkscape:window-maximized="0"
     inkscape:current-layer="svg4" />
  <path
     d="m 6.34,0.07 a 6.29,6.29 0 0 0 0,12.58 6.29,6.29 0 0 0 0,-12.58 z M 6.32,1 A 5.417,5.417 0 0 1 11.73,6.41 5.4,5.4 0 0 1 6.33,11.82 5.4,5.4 0 0 1 0.92,6.42 5.4,5.4 0 0 1 6.32,1 Z M 8.218,2.72 C 7.941,2.72 7.675,2.794 7.42,2.94 7.171,3.081 6.935,3.287 6.714,3.557 a 4.49,4.49 0 0 0 -0.59,0.98 C 5.947,4.919 5.794,5.352 5.667,5.836 A 8.757,8.757 0 0 1 5.401,6.706 3.69,3.69 0 0 1 5.127,7.296 C 4.922,7.218 4.72,7.079 4.521,7.028 A 2.136,2.136 0 0 0 3.922,6.944 1.227,1.227 0 0 0 3.15,7.206 0.99,0.99 0 0 0 2.925,7.442 0.749,0.749 0 0 0 2.85,7.752 c 0,0.119 0.056,0.217 0.167,0.296 0.11,0.079 0.277,0.118 0.499,0.118 0.587,0 1.082,-0.155 1.486,-0.464 0.255,0.112 0.516,0.22 0.782,0.32 0.271,0.096 0.57,0.144 0.897,0.144 0.37,0 0.668,-0.079 0.89,-0.236 C 7.791,7.767 7.919,7.558 8.051,7.254 8.057,7.22 8.05,7.197 8.027,7.186 8.011,7.169 7.991,7.169 7.969,7.186 7.874,7.377 7.805,7.499 7.661,7.601 7.517,7.701 7.307,7.752 7.031,7.752 6.698,7.752 6.393,7.716 6.116,7.642 A 9.811,9.811 0 0 1 5.336,7.381 C 5.678,6.971 5.946,6.388 6.141,5.634 6.257,5.161 6.371,4.767 6.481,4.451 6.592,4.136 6.711,3.886 6.838,3.701 6.966,3.509 7.105,3.401 7.254,3.328 7.409,3.249 7.592,3.21 7.803,3.21 A 0.77,0.77 0 0 1 8.185,3.295 C 8.29,3.345 8.367,3.413 8.417,3.497 A 0.51,0.51 0 0 1 8.5,3.751 C 8.505,3.853 8.492,4.052 8.459,4.154 8.453,4.182 8.462,4.202 8.484,4.213 A 0.071,0.071 0 0 0 8.559,4.204 C 8.614,4.109 8.666,3.889 8.716,3.742 8.766,3.59 8.791,3.458 8.791,3.346 A 0.637,0.637 0 0 0 8.633,2.906 0.519,0.519 0 0 0 8.218,2.721 Z M 3.557,7.223 c 0.238,0 0.462,0.034 0.673,0.102 0.21,0.067 0.418,0.22 0.623,0.31 A 1.002,1.002 0 0 1 4.421,7.889 C 4.266,7.929 4.089,7.948 3.889,7.948 3.662,7.948 3.485,7.911 3.357,7.838 3.236,7.765 3.174,7.598 3.174,7.485 3.174,7.311 3.302,7.223 3.557,7.223 Z M 4.865,8.91 A 0.495,0.495 0 0 0 4.37,9.405 0.495,0.495 0 0 0 4.865,9.9 0.495,0.495 0 0 0 5.36,9.405 0.495,0.495 0 0 0 4.865,8.91 Z m 2.97,0 A 0.495,0.495 0 0 0 7.34,9.405 0.495,0.495 0 0 0 7.835,9.9 0.495,0.495 0 0 0 8.33,9.405 0.495,0.495 0 0 0 7.835,8.91 Z M 6.35,9.405 A 0.495,0.495 0 0 0 5.855,9.9 0.495,0.495 0 0 0 6.35,10.395 0.495,0.495 0 0 0 6.845,9.9 0.495,0.495 0 0 0 6.35,9.405 Z"
     id="path2"
     inkscape:connector-curvature="0"
     style="fill:#5beedc" />
</svg>
