<?xml version="1.0" encoding="UTF-8" standalone="no"?>
<svg
   xmlns:dc="http://purl.org/dc/elements/1.1/"
   xmlns:cc="http://creativecommons.org/ns#"
   xmlns:rdf="http://www.w3.org/1999/02/22-rdf-syntax-ns#"
   xmlns:svg="http://www.w3.org/2000/svg"
   xmlns="http://www.w3.org/2000/svg"
   xmlns:sodipodi="http://sodipodi.sourceforge.net/DTD/sodipodi-0.dtd"
   xmlns:inkscape="http://www.inkscape.org/namespaces/inkscape"
   width="48"
   height="48"
   viewBox="0 0 12.7 12.7"
   version="1.1"
   id="svg4"
   sodipodi:docname="legion.svg"
   inkscape:version="0.92.5 (2060ec1f9f, 2020-04-08)">
  <metadata
     id="metadata10">
    <rdf:RDF>
      <cc:Work
         rdf:about="">
        <dc:format>image/svg+xml</dc:format>
        <dc:type
           rdf:resource="http://purl.org/dc/dcmitype/StillImage" />
        <dc:title></dc:title>
      </cc:Work>
    </rdf:RDF>
  </metadata>
  <defs
     id="defs8" />
  <sodipodi:namedview
     pagecolor="#ffffff"
     bordercolor="#666666"
     borderopacity="1"
     objecttolerance="10"
     gridtolerance="10"
     guidetolerance="10"
     inkscape:pageopacity="0"
     inkscape:pageshadow="2"
     inkscape:window-width="1085"
     inkscape:window-height="480"
     id="namedview6"
     showgrid="false"
     inkscape:zoom="4.9166667"
     inkscape:cx="2.1355932"
     inkscape:cy="24"
     inkscape:window-x="0"
     inkscape:window-y="25"
     inkscape:window-maximized="0"
     inkscape:current-layer="svg4" />
  <path
     d="M 6.34,0.075 A 6.295,6.295 0 0 0 0.055,6.36 6.295,6.295 0 0 0 6.34,12.655 6.295,6.295 0 0 0 8.119,12.395 C 8.103,12.387 8.083,12.382 8.067,12.375 A 10.797,10.797 0 0 1 7.04,11.866 C 6.982,11.833 6.959,11.804 6.903,11.771 A 5.407,5.407 0 0 1 3.278,10.865 4.205,4.205 0 0 1 2.177,10.735 C 2.371,10.65 2.529,10.522 2.689,10.395 A 5.407,5.407 0 0 1 0.912,6.402 c 0,-2.987 2.43,-5.387 5.417,-5.387 a 5.408,5.408 0 0 1 5.397,5.387 5.407,5.407 0 0 1 -1.111,3.269 7.037,7.037 0 0 0 -0.009,0.321 c -0.003,0.29 0.017,0.582 0.094,0.872 0,0.005 0.005,0.01 0.006,0.013 A 6.295,6.295 0 0 0 12.634,6.36 6.295,6.295 0 0 0 6.34,0.075 Z M 6.593,1.857 H 6.594 V 1.858 A 7.36,7.36 0 0 0 6.112,1.874 11.508,11.508 0 0 0 5.676,1.91 0.557,0.557 0 0 0 5.643,1.915 C 5.638,1.916 5.635,1.916 5.632,1.918 c -0.002,0 -0.004,0 -0.007,0.002 -0.002,0 -0.006,0 -0.012,0.011 L 5.61,1.935 V 1.938 L 5.609,1.939 v 0.006 c -0.001,0.004 0,0.008 -0.002,0.015 0,0.012 -0.003,0.03 -0.005,0.052 L 5.585,2.182 5.568,2.352 A 5.313,5.313 0 0 1 5.508,2.231 L 5.44,2.09 5.417,2.045 5.41,2.031 5.407,2.026 c 0,0 0,-0.002 -0.005,-0.006 C 5.39,2.008 5.385,2.012 5.381,2.012 H 5.369 A 1.483,1.483 0 0 0 5.246,2.044 C 4.985,2.124 4.803,2.196 4.674,2.259 H 4.67 L 4.663,2.263 4.643,2.27 4.597,2.29 A 6.041,6.041 0 0 0 4.295,2.442 C 4.293,2.442 4.291,2.443 4.287,2.45 A 0.025,0.025 0 0 0 4.283,2.461 H 4.28 C 4.264,2.46 4.254,2.466 4.238,2.474 A 9.147,9.147 0 0 0 3.904,2.679 L 3.827,2.728 A 0.025,0.025 0 0 0 3.82,2.764 L 3.9,2.879 3.936,2.933 A 0.524,0.524 0 0 0 3.791,2.873 L 3.757,2.868 V 2.867 L 3.753,2.862 A 0.066,0.066 0 0 0 3.72,2.852 C 3.685,2.851 3.653,2.872 3.595,2.913 A 4.595,4.595 0 0 0 2.983,3.51 L 2.923,3.585 A 0.025,0.025 0 0 0 2.9,3.612 C 2.815,3.719 2.71,3.857 2.67,3.919 2.666,3.923 2.664,3.926 2.661,3.932 c 0,0.002 -0.004,0.006 0,0.018 L 2.663,3.955 C 2.589,4.039 2.543,4.111 2.46,4.259 2.39,4.385 2.277,4.613 2.245,4.694 A 16.84,16.84 0 0 1 2.19,4.83 4.505,4.505 0 0 0 1.915,5.835 C 1.875,6.075 1.848,6.448 1.856,6.634 1.872,6.999 1.884,7.114 1.928,7.318 L 1.983,7.565 C 1.999,7.633 2.011,7.68 2.02,7.702 l 0.008,0.023 v 0.01 l 0.024,0.07 c 0.022,0.067 0.049,0.139 0.073,0.2 A 0.97,0.97 0 0 0 2.209,8.176 V 8.177 L 2.211,8.185 2.215,8.193 A 2.926,2.926 0 0 0 2.358,8.429 0.705,0.705 0 0 1 2.468,8.65 C 2.484,8.704 2.486,8.72 2.486,8.841 L 2.485,8.974 2.448,9.087 2.411,9.203 A 0.035,0.035 0 0 0 2.41,9.215 L 2.389,9.283 A 81.972,81.972 0 0 0 2.243,9.776 c 0,0.004 0,0.011 0.006,0.02 a 0.03,0.03 0 0 0 0.025,0.01 L 2.286,9.801 A 1.222,1.222 0 0 0 2.364,9.731 L 2.369,9.726 2.385,9.71 2.443,9.657 2.627,9.486 2.657,9.459 A 0.025,0.025 0 0 0 2.676,9.44 C 2.908,9.225 2.956,9.177 3.026,9.085 3.219,8.84 3.334,8.55 3.369,8.227 A 1.804,1.804 0 0 0 3.347,7.769 0.68,0.68 0 0 1 3.364,7.39 0.333,0.333 0 0 1 3.4,7.317 c 0.01,0 0.014,-0.005 0.018,-0.008 L 3.428,7.296 A 0.19,0.19 0 0 0 3.448,7.265 L 3.467,7.225 A 0.025,0.025 0 0 0 3.47,7.215 l 0.024,-0.03 a 0.562,0.562 0 0 0 0.012,0.08 C 3.508,7.271 3.508,7.273 3.513,7.281 L 3.517,7.283 V 7.307 L 4.06,7.22 4.203,7.197 C 4.217,7.307 4.236,7.407 4.26,7.499 4.129,7.453 4.04,7.399 4.048,7.349 4.064,9.232 3.551,10.121 2.848,10.653 5.264,10.653 4.354,8.547 5.66,8.528 5.518,8.815 5.054,9.08 5.113,9.253 5.213,9.545 6.745,11.075 9.501,11.918 8.861,10.575 9.025,9.393 8.838,8.141 7.564,7.886 6.713,7.579 8.168,7.058 8.673,6.877 9.542,6.995 9.363,7.828 l 0.14,0.245 c 0.16,1.23 -0.355,2.998 0.596,3.595 C 9.364,10.698 9.804,9.728 9.703,8.758 L 10.33,9.108 9.75,7.349 V 3.923 A 4.55,4.55 0 0 1 8.797,5.111 2.585,2.585 0 0 0 7.895,4.589 L 7.902,4.573 8.007,4.352 8.055,4.259 A 17.154,17.154 0 0 0 8.21,3.953 L 8.218,3.933 8.221,3.925 C 8.222,3.923 8.223,3.922 8.223,3.915 8.223,3.904 8.219,3.898 8.216,3.895 A 0.04,0.04 0 0 0 8.206,3.885 0.103,0.103 0 0 0 8.183,3.872 L 8.18,3.87 8.188,3.857 8.228,3.796 C 8.348,3.622 8.54,3.453 8.715,3.364 L 8.752,3.345 C 8.755,3.344 8.757,3.341 8.759,3.339 L 8.769,3.335 A 1.627,1.627 0 0 1 9.027,3.244 C 9.109,3.224 9.239,3.207 9.456,3.191 L 9.588,3.181 A 0.03,0.03 0 0 0 9.602,3.175 H 9.604 L 9.657,3.174 C 9.687,3.173 9.737,3.171 9.767,3.168 L 9.821,3.163 A 0.025,0.025 0 0 0 9.833,3.117 L 9.727,3.037 A 0.024,0.024 0 0 0 9.704,3.021 L 9.665,2.993 9.416,2.809 A 6.222,6.222 0 0 0 8.857,2.445 5.982,5.982 0 0 0 8.312,2.185 5.789,5.789 0 0 0 7.839,2.028 C 7.826,2.025 7.819,2.023 7.809,2.023 c -0.003,0 -0.006,0 -0.009,0.002 L 7.716,2 A 0.116,0.116 0 0 0 7.693,1.99 0.394,0.394 0 0 0 7.663,1.982 H 7.655 L 7.606,1.967 H 7.604 L 7.492,1.944 A 4.433,4.433 0 0 0 6.593,1.856 Z M 6.44,2.125 v 10e-4 c 0.016,0 0.026,10e-4 0.03,0.002 H 6.471 L 6.482,2.145 A 4.336,4.336 0 0 0 6.701,2.537 L 6.715,2.558 A 0.042,0.042 0 0 0 6.725,2.566 0.03,0.03 0 0 0 6.74,2.571 0.024,0.024 0 0 0 6.76,2.561 L 6.764,2.555 A 10.222,10.222 0 0 0 6.818,2.197 l 0.007,-0.06 h 0.069 c 0.085,10e-4 0.293,0.025 0.432,0.05 A 0.41,0.41 0 0 0 7.394,2.195 0.098,0.098 0 0 0 7.438,2.184 L 7.46,2.174 7.471,2.184 A 0.242,0.242 0 0 0 7.63,2.248 h 0.038 l 0.01,0.007 a 0.689,0.689 0 0 0 0.084,0.03 4.937,4.937 0 0 1 0.36,0.12 L 8.145,2.414 H 8.144 A 1.322,1.322 0 0 1 8.132,2.458 L 8.088,2.614 A 4.186,4.186 0 0 0 8.059,2.72 0.045,0.045 0 0 0 8.06,2.75 c 0.005,0.01 0.02,0.02 0.031,0.02 0.013,0 0.016,-0.005 0.02,-0.007 L 8.118,2.755 A 0.627,0.627 0 0 0 8.166,2.68 9.094,9.094 0 0 1 8.272,2.485 L 8.283,2.467 H 8.286 L 8.322,2.482 8.44,2.536 C 8.533,2.581 8.65,2.64 8.757,2.698 A 5.264,5.264 0 0 1 9.152,2.95 L 9.098,2.96 C 8.928,2.987 8.786,3.03 8.643,3.101 L 8.598,3.124 8.583,3.132 8.579,3.134 8.574,3.137 A 0.026,0.026 0 0 0 8.567,3.147 H 8.557 C 8.549,3.15 8.545,3.153 8.538,3.157 A 0.93,0.93 0 0 0 8.447,3.213 1.47,1.47 0 0 0 8.331,3.293 1.599,1.599 0 0 0 8.049,3.586 C 8.044,3.592 8.039,3.596 8.037,3.6 L 8.033,3.605 C 8.027,3.61 8.025,3.615 8.02,3.62 L 8.004,3.644 A 1.945,1.945 0 0 0 7.962,3.712 C 7.956,3.722 7.952,3.725 7.948,3.731 A 0.315,0.315 0 0 1 7.962,3.691 C 7.982,3.643 8.015,3.581 8.051,3.525 8.125,3.409 8.303,3.216 8.441,3.1 8.496,3.078 8.511,3.049 8.555,3.014 L 8.617,2.965 8.664,2.933 A 0.214,0.214 0 0 0 8.704,2.894 C 8.708,2.89 8.715,2.884 8.71,2.867 8.704,2.849 8.692,2.845 8.681,2.84 a 0.19,0.19 0 0 0 -0.037,-0.012 0.5,0.5 0 0 0 -0.1,-0.01 0.604,0.604 0 0 0 -0.23,0.05 c -0.002,0 -0.002,0 -0.003,0.002 A 0.03,0.03 0 0 0 8.299,2.872 L 8.229,2.907 A 1.81,1.81 0 0 0 8.053,3.01 L 8.035,3.023 C 8.03,3.027 8.027,3.029 8.021,3.036 8.024,3.032 8.022,3.034 8.021,3.035 L 8.014,3.04 A 1.332,1.332 0 0 0 7.905,3.125 C 7.901,3.13 7.897,3.133 7.891,3.137 L 7.895,3.095 A 29.472,29.472 0 0 1 7.935,2.644 C 7.94,2.599 7.942,2.569 7.942,2.556 V 2.523 A 0.026,0.026 0 0 0 7.924,2.499 L 7.856,2.477 A 5.144,5.144 0 0 0 7.541,2.392 C 7.419,2.388 7.387,2.36 7.271,2.34 A 4.799,4.799 0 0 0 7.081,2.311 C 7.037,2.306 7.016,2.303 6.999,2.304 A 0.043,0.043 0 0 0 6.971,2.316 C 6.963,2.324 6.961,2.332 6.961,2.336 L 6.915,2.527 6.855,2.776 A 0.663,0.663 0 0 1 6.841,2.828 L 6.835,2.844 6.832,2.847 c -0.003,0.004 -0.01,0.01 -0.008,0.024 0,0.007 0.006,0.013 0.01,0.016 L 6.835,2.892 6.838,2.895 A 0.247,0.247 0 0 0 6.817,2.93 0.037,0.037 0 0 0 6.798,2.915 L 6.788,2.914 6.786,2.911 A 0.312,0.312 0 0 1 6.761,2.881 2.256,2.256 0 0 0 6.672,2.767 2.285,2.285 0 0 0 6.599,2.673 4.107,4.107 0 0 1 6.5,2.554 1.914,1.914 0 0 0 6.33,2.37 0.677,0.677 0 0 0 6.262,2.313 C 6.242,2.299 6.228,2.288 6.205,2.288 A 0.041,0.041 0 0 0 6.179,2.298 0.046,0.046 0 0 0 6.166,2.321 C 6.161,2.338 6.159,2.361 6.155,2.4 6.109,2.802 5.945,3.246 5.767,3.463 A 0.025,0.025 0 0 0 5.752,3.481 L 5.739,3.495 5.719,3.518 5.683,3.476 4.951,2.612 A 0.026,0.026 0 0 0 4.931,2.603 L 4.923,2.604 A 0.014,0.014 0 0 1 4.918,2.606 0.989,0.989 0 0 0 4.874,2.625 3.963,3.963 0 0 0 4.666,2.729 0.108,0.108 0 0 0 4.641,2.749 C 4.634,2.755 4.628,2.769 4.631,2.782 L 4.638,2.815 4.648,2.88 4.664,2.992 A 198.818,198.818 0 0 0 4.771,3.709 C 4.782,3.79 4.786,3.823 4.788,3.85 L 4.764,3.84 A 16.696,16.696 0 0 1 4.094,3.506 0.65,0.65 0 0 0 4.046,3.483 L 4.031,3.478 A 0.027,0.027 0 0 0 4.019,3.477 0.032,0.032 0 0 0 3.999,3.489 C 3.989,3.504 3.995,3.511 3.996,3.516 l 0.005,0.017 a 0.365,0.365 0 0 0 0.01,0.023 c 0.002,0.007 0.003,0.012 0.008,0.019 l 0.003,0.007 0.01,0.02 A 0.542,0.542 0 0 1 4.045,3.645 L 4.05,3.66 4.064,3.695 4.124,3.853 C 4.128,3.861 4.129,3.867 4.132,3.875 L 4.121,3.87 A 14.697,14.697 0 0 1 3.601,3.603 L 3.533,3.567 A 0.026,0.026 0 0 0 3.503,3.572 L 3.457,3.619 C 3.398,3.682 3.297,3.797 3.25,3.854 L 3.214,3.897 A 0.028,0.028 0 0 0 3.209,3.907 L 3.196,3.922 A 1.27,1.27 0 0 0 3.142,3.99 L 3.107,4.039 a 0.025,0.025 0 0 0 10e-4,0.03 L 3.126,4.092 A 10.774,10.774 0 0 0 3.262,4.24 l 0.156,0.166 0.075,0.079 0.168,0.18 A 37.354,37.354 0 0 0 3.294,4.555 9.892,9.892 0 0 1 2.941,4.446 C 2.912,4.436 2.888,4.429 2.864,4.441 2.84,4.451 2.828,4.474 2.811,4.505 A 7.087,7.087 0 0 0 2.701,4.72 L 2.659,4.809 2.646,4.838 2.642,4.848 A 0.024,0.024 0 0 0 2.64,4.856 V 4.858 L 2.637,4.865 2.626,4.89 A 2.757,2.757 0 0 0 2.535,5.12 L 2.53,5.133 2.528,5.137 A 0.058,0.058 0 0 0 2.526,5.194 c 0.01,0.017 0.026,0.03 0.048,0.046 L 2.739,5.36 2.827,5.423 2.869,5.454 2.926,5.497 2.941,5.509 A 6.994,6.994 0 0 0 2.692,5.565 L 2.51,5.607 A 26.23,26.23 0 0 0 2.407,5.631 C 2.396,5.633 2.394,5.638 2.392,5.641 A 0.04,0.04 0 0 0 2.388,5.647 4.448,4.448 0 0 0 2.321,6 L 2.31,6.092 c -10e-4,0.007 0,0.015 0.006,0.02 L 2.31,6.118 A 0.043,0.043 0 0 0 2.303,6.139 L 2.302,6.177 C 2.301,6.194 2.304,6.214 2.317,6.232 A 0.574,0.574 0 0 0 2.383,6.303 0.984,0.984 0 0 1 2.448,6.375 L 2.441,6.389 A 0.703,0.703 0 0 1 2.414,6.436 L 2.331,6.571 2.287,6.642 A 0.024,0.024 0 0 0 2.284,6.656 L 2.289,6.782 2.295,6.908 C 2.296,6.914 2.298,6.92 2.303,6.924 L 2.338,6.961 A 0.21,0.21 0 0 1 2.36,6.987 L 2.363,6.993 2.361,7.009 2.359,7.049 2.358,7.159 c 0,0.038 0,0.078 0.003,0.11 a 0.342,0.342 0 0 0 0.006,0.07 l 0.01,0.035 a 0.02,0.02 0 0 0 0,0.012 l 0.024,0.09 a 0.788,0.788 0 0 0 0.038,0.125 0.22,0.22 0 0 0 0.052,0.067 l 0.03,0.03 0.005,0.005 v 10e-4 l 0.003,0.022 0.007,0.072 c 0.01,0.093 0.016,0.115 0.052,0.187 0.035,0.07 0.063,0.117 0.157,0.255 0.014,0.021 0.044,0.075 0.064,0.115 l 0.028,0.054 0.01,0.018 0.004,0.006 0.004,0.004 c 10e-4,0.002 0.002,0.007 0.018,0.007 0.01,0 0.015,-0.003 0.017,-0.006 A 0.037,0.037 0 0 0 2.895,8.433 L 2.898,8.428 2.901,8.421 A 0.902,0.902 0 0 0 2.944,8.081 1.34,1.34 0 0 0 2.924,7.804 1.242,1.242 0 0 1 2.93,7.362 0.987,0.987 0 0 1 3.103,6.998 L 3.159,6.924 A 0.028,0.028 0 0 0 3.164,6.914 L 3.209,6.869 a 1.651,1.651 0 0 1 0.22,-0.17 C 3.431,6.696 3.432,6.695 3.435,6.694 L 3.44,6.76 3.445,6.838 3.448,6.865 v 0.007 c 0,0.002 0,0.002 -0.004,0.004 A 0.249,0.249 0 0 0 3.401,6.907 1.372,1.372 0 0 0 3.281,7.022 l -0.005,0.01 c -10e-4,0 -0.003,0.002 -0.004,0.005 L 3.269,7.04 3.244,7.07 A 0.884,0.884 0 0 0 3.076,7.444 C 3.058,7.548 3.061,7.654 3.085,7.807 3.115,7.997 3.118,8.094 3.102,8.226 3.094,8.286 3.082,8.361 3.076,8.384 A 1.977,1.977 0 0 1 3.02,8.564 H 3.019 a 0.046,0.046 0 0 0 -0.01,0.014 0.047,0.047 0 0 0 -0.004,0.02 c 0,-0.006 0,0 -0.002,0.005 A 1.476,1.476 0 0 1 2.775,8.971 C 2.764,8.985 2.755,8.993 2.745,9.005 A 0.949,0.949 0 0 0 2.709,8.527 1.048,1.048 0 0 0 2.567,8.257 2.725,2.725 0 0 1 2.373,7.9 0.089,0.089 0 0 1 2.366,7.877 c 0,-10e-4 0.003,-0.008 0.013,-0.025 A 0.143,0.143 0 0 0 2.393,7.822 0.048,0.048 0 0 0 2.394,7.789 0.033,0.033 0 0 0 2.381,7.772 0.037,0.037 0 0 0 2.361,7.767 0.065,0.065 0 0 0 2.331,7.777 c -10e-4,0 0,0 0,0 L 2.325,7.767 A 1.353,1.353 0 0 1 2.287,7.659 2.304,2.304 0 0 0 2.254,7.557 L 2.252,7.551 a 0.041,0.041 0 0 0 0,-0.013 L 2.236,7.476 A 2.946,2.946 0 0 1 2.202,7.315 L 2.184,7.222 2.211,7.172 C 2.228,7.14 2.238,7.12 2.238,7.096 A 0.038,0.038 0 0 0 2.232,7.076 0.035,0.035 0 0 0 2.212,7.062 C 2.196,7.059 2.187,7.064 2.177,7.069 L 2.152,7.078 2.145,7.006 A 4.37,4.37 0 0 1 2.128,6.626 L 2.129,6.585 V 6.567 c 0,10e-4 0.003,-0.006 0.017,-0.018 A 0.766,0.766 0 0 1 2.213,6.501 0.84,0.84 0 0 0 2.293,6.438 C 2.296,6.436 2.298,6.434 2.301,6.429 2.301,6.427 2.304,6.424 2.304,6.419 A 0.027,0.027 0 0 0 2.297,6.396 C 2.291,6.39 2.287,6.39 2.285,6.389 L 2.277,6.386 A 0.933,0.933 0 0 0 2.197,6.372 1.008,1.008 0 0 1 2.133,6.362 2.633,2.633 0 0 1 2.157,6.042 C 2.166,5.983 2.173,5.952 2.165,5.922 V 5.92 L 2.168,5.917 C 2.181,5.904 2.177,5.897 2.177,5.891 a 5.329,5.329 0 0 1 0.09,-0.437 c 10e-4,-0.002 0,-0.003 0.002,-0.005 h 0.002 c 0.012,0 0.032,0.003 0.06,0.007 0.057,0.008 0.149,0.023 0.288,0.046 0.074,0.012 0.117,0.02 0.144,0.022 a 0.118,0.118 0 0 0 0.032,0 C 2.8,5.523 2.805,5.522 2.812,5.516 A 0.034,0.034 0 0 0 2.823,5.494 0.042,0.042 0 0 0 2.81,5.466 0.087,0.087 0 0 0 2.784,5.453 30.63,30.63 0 0 1 2.436,5.344 L 2.308,5.304 2.34,5.203 A 4.554,4.554 0 0 1 2.731,4.329 L 2.736,4.319 2.738,4.315 2.739,4.311 2.74,4.309 2.75,4.293 A 2.011,2.011 0 0 1 2.808,4.203 V 4.201 l 0.02,0.013 0.028,0.018 0.011,0.006 a 0.037,0.037 0 0 0 0.005,0.003 l 0.004,0.001 0.006,0.004 0.03,0.017 0.092,0.055 0.092,0.055 0.03,0.018 A 0.155,0.155 0 0 0 3.135,4.396 L 3.138,4.397 3.14,4.398 H 3.141 V 4.4 c 0.002,0 0.005,10e-4 0.007,0.003 L 3.174,4.419 A 5.86,5.86 0 0 1 3.29,4.492 0.154,0.154 0 0 0 3.302,4.497 C 3.305,4.498 3.308,4.5 3.317,4.5 c 0.004,0 0.01,0 0.016,-0.003 A 0.033,0.033 0 0 0 3.351,4.477 C 3.353,4.467 3.35,4.459 3.348,4.455 A 0.067,0.067 0 0 0 3.338,4.442 0.431,0.431 0 0 0 3.273,4.387 C 3.18,4.319 3.19,4.327 3.013,4.201 L 2.902,4.121 2.872,4.098 2.875,4.094 2.925,4.025 C 2.94,4.003 2.98,3.947 3.013,3.903 L 3.07,3.829 A 0.142,0.142 0 0 0 3.093,3.786 c 0.007,0 0.01,-0.004 0.012,-0.005 L 3.113,3.774 A 0.119,0.119 0 0 0 3.126,3.757 0.32,0.32 0 0 1 3.147,3.729 l 0.04,-0.045 c 0.068,-0.08 0.16,-0.18 0.252,-0.27 l 0.08,-0.08 0.015,0.013 0.14,0.138 a 1.679,1.679 0 0 0 0.11,0.097 0.055,0.055 0 0 0 0.011,0.006 C 3.797,3.589 3.8,3.591 3.805,3.591 A 0.027,0.027 0 0 0 3.826,3.583 0.03,0.03 0 0 0 3.835,3.562 c 0,-0.006 0,-0.011 -0.002,-0.017 A 0.394,0.394 0 0 0 3.821,3.496 6.907,6.907 0 0 0 3.718,3.191 1.05,1.05 0 0 1 3.71,3.164 V 3.162 A 0.109,0.109 0 0 1 3.729,3.147 l 0.021,-0.012 0.168,0.094 0.13,0.073 0.06,0.034 0.068,0.038 0.145,0.081 0.28,0.157 c 0.028,0.017 0.05,0.029 0.066,0.036 0.009,0.003 0.016,0.009 0.032,0.003 a 0.033,0.033 0 0 0 0.02,-0.02 0.034,0.034 0 0 0 0,-0.019 C 4.714,3.592 4.701,3.575 4.681,3.543 A 6.731,6.731 0 0 0 4.507,3.293 L 4.498,3.279 4.494,3.271 4.487,3.261 4.464,3.227 A 65.426,65.426 0 0 1 4.234,2.893 L 4.183,2.817 4.204,2.803 C 4.268,2.762 4.287,2.751 4.33,2.727 4.353,2.715 4.389,2.694 4.411,2.679 L 4.451,2.655 A 0.025,0.025 0 0 0 4.461,2.627 L 4.481,2.626 A 0.085,0.085 0 0 0 4.514,2.61 c 0.002,0 0.003,0 0.005,-0.002 0.002,10e-4 0.004,0.002 0.01,0.002 A 0.032,0.032 0 0 0 4.546,2.6 C 4.548,2.598 4.551,2.598 4.553,2.598 4.563,2.592 4.567,2.586 4.574,2.578 a 0.276,0.276 0 0 0 0.054,-0.01 c 0.002,0 0.004,0 0.005,-0.002 C 4.644,2.559 4.698,2.533 4.745,2.513 A 4.537,4.537 0 0 0 4.875,2.455 L 4.884,2.453 c 0.015,0 0.025,-0.002 0.038,-0.014 -0.004,0.004 0,10e-4 0.003,0 L 4.943,2.43 5.003,2.407 A 4.97,4.97 0 0 1 5.177,2.345 L 5.254,2.319 5.277,2.367 5.329,2.476 a 56.08,56.08 0 0 0 0.282,0.588 l 0.053,0.11 c 0.01,0.02 0.017,0.035 0.025,0.045 a 0.05,0.05 0 0 0 0.014,0.015 c 0.004,0.003 0.01,0.007 0.02,0.006 A 0.031,0.031 0 0 0 5.743,3.225 C 5.749,3.216 5.748,3.214 5.749,3.208 L 5.752,3.187 5.758,3.13 5.778,2.915 C 5.788,2.838 5.797,2.746 5.8,2.711 A 29.988,29.988 0 0 1 5.855,2.161 V 2.16 A 10.458,10.458 0 0 1 6.44,2.125 Z m 1.731,1.74 h 0.001 z m 0.002,0 10e-4,10e-4 z M 6.265,3.939 c 0.037,0.009 0.069,0.04 0.094,0.1 0.226,0.227 0.197,0.195 0.17,0.117 C 6.517,4.116 6.505,4.066 6.526,4.031 6.548,3.996 6.603,3.976 6.724,3.998 L 6.673,4.032 6.658,4.066 C 6.977,4.023 7.224,3.973 7.413,3.969 A 0.612,0.612 0 0 1 7.656,4.002 C 7.722,4.029 7.776,4.073 7.819,4.14 L 7.795,4.188 7.692,4.388 A 6.56,6.56 0 0 0 7.617,4.505 4.07,4.07 0 0 0 6.779,4.385 C 5.81,4.345 4.444,4.956 4.172,6.66 4.172,6.746 4.174,6.827 4.178,6.906 4.081,6.891 3.941,6.886 3.848,6.866 V 6.858 C 3.847,6.788 3.845,6.691 3.845,6.586 V 6.362 a 0.631,0.631 0 0 0 0,-0.157 C 3.982,6.315 4.081,6.353 4.15,6.338 4.218,6.323 4.255,6.256 4.268,6.154 4.294,5.949 4.222,5.607 4.106,5.274 4.175,5.361 4.21,5.378 4.227,5.36 4.245,5.342 4.245,5.287 4.247,5.232 4.25,5.176 4.253,5.119 4.277,5.094 4.301,5.069 4.345,5.076 4.427,5.15 4.371,5.023 4.377,4.984 4.42,4.979 4.464,4.973 4.545,4.999 4.64,5.004 A 0.383,0.383 0 0 0 4.941,4.894 C 5.04,4.799 5.129,4.624 5.183,4.316 5.227,4.396 5.274,4.443 5.325,4.466 5.376,4.491 5.43,4.49 5.485,4.473 5.595,4.439 5.713,4.339 5.825,4.235 5.938,4.13 6.046,4.021 6.139,3.968 6.185,3.942 6.228,3.93 6.265,3.938 Z M 10.24,5.27 C 10.23,5.28 10.22,5.286 10.21,5.296 A 2.643,2.643 0 0 0 9.83,5.838 C 9.816,5.865 9.812,5.897 9.799,5.924 9.912,5.683 10.062,5.465 10.239,5.27 Z M 4.187,7.031 V 7.038 L 4.169,7.04 Z"
     id="path2"
     inkscape:connector-curvature="0"
     style="fill:#5beedc" />
</svg>
