<?xml version="1.0" encoding="UTF-8" standalone="no"?>
<svg
   xmlns:dc="http://purl.org/dc/elements/1.1/"
   xmlns:cc="http://creativecommons.org/ns#"
   xmlns:rdf="http://www.w3.org/1999/02/22-rdf-syntax-ns#"
   xmlns:svg="http://www.w3.org/2000/svg"
   xmlns="http://www.w3.org/2000/svg"
   xmlns:sodipodi="http://sodipodi.sourceforge.net/DTD/sodipodi-0.dtd"
   xmlns:inkscape="http://www.inkscape.org/namespaces/inkscape"
   width="48"
   height="48"
   version="1.1"
   viewBox="0 0 12.7 12.7"
   id="svg4"
   sodipodi:docname="lftp.svg"
   inkscape:version="0.92.4 (5da689c313, 2019-01-14)">
  <metadata
     id="metadata10">
    <rdf:RDF>
      <cc:Work
         rdf:about="">
        <dc:format>image/svg+xml</dc:format>
        <dc:type
           rdf:resource="http://purl.org/dc/dcmitype/StillImage" />
        <dc:title></dc:title>
      </cc:Work>
    </rdf:RDF>
  </metadata>
  <defs
     id="defs8" />
  <sodipodi:namedview
     pagecolor="#ffffff"
     bordercolor="#666666"
     borderopacity="1"
     objecttolerance="10"
     gridtolerance="10"
     guidetolerance="10"
     inkscape:pageopacity="0"
     inkscape:pageshadow="2"
     inkscape:window-width="1136"
     inkscape:window-height="480"
     id="namedview6"
     showgrid="false"
     inkscape:zoom="4.9166667"
     inkscape:cx="2.1355932"
     inkscape:cy="24"
     inkscape:window-x="0"
     inkscape:window-y="25"
     inkscape:window-maximized="0"
     inkscape:current-layer="svg4" />
  <path
     d="M 6.3401306,0.06976181 C 2.8622265,0.06972636 0.04444944,2.8920367 0.0502702,6.3702053 0.05594306,9.8438762 2.8765138,12.655303 6.3501846,12.649747 9.8201513,12.644361 12.630256,9.8298534 12.630256,6.3598867 12.630286,2.8859513 9.814066,0.06976181 6.3403952,0.07002639 Z M 6.319977,0.99991926 c 2.9823457,-1.0332e-4 5.410132,2.42749504 5.409868,5.40986724 0.0023,1.2354034 -0.414862,2.3708485 -1.111025,3.2818503 H 6.2249398 v -0.444415 a 0.28450287,0.27947585 0 0 0 -0.2909321,-0.2795552 0.28450287,0.27947585 0 0 1 -5.167e-4,0 0.28450287,0.27947585 0 0 0 -0.1353909,0.037724 L 4.3759826,9.8115392 a 0.28450287,0.27947585 0 0 0 0,0.4847108 l 0.7110587,0.403061 0.7110588,0.40359 A 0.28450287,0.27947585 0 0 0 6.224947,10.860541 V 10.416126 H 9.9528792 C 8.9943852,11.285588 7.7261475,11.819696 6.3299853,11.819643 3.3436708,11.825176 0.91985338,9.4058005 0.92011796,6.4195654 0.91537246,5.1269069 1.3667555,3.9400804 2.1205439,3.0078063 h 4.3552514 v 0.444415 A 0.28447642,0.27947585 0 0 0 6.902113,3.6940633 L 7.613701,3.2910021 8.3247597,2.8874118 a 0.28447642,0.27947585 0 0 0 0,-0.4842078 L 7.613701,2.0001428 6.902113,1.5970816 A 0.28447642,0.27947585 0 0 0 6.7667222,1.5593578 0.28447642,0.27947585 0 0 0 6.47579,1.838913 V 2.283328 H 2.829613 C 3.7710945,1.4841377 4.9881889,0.9996388 6.320217,0.99969172 Z M 2.6457545,4.4979314 v 3.70412 h 0.52916 v -1.58748 h 1.58748 v -0.52916 h -1.58748 v -1.05832 h 1.58748 v -0.52916 h -1.58748 z m 2.6458,0 v 0.52916 h 0.79374 v 3.17496 h 0.52916 v -3.17496 h 0.79374 v -0.52916 z m 2.6458,0 v 3.70412 h 0.52916 v -1.58748 h 1.5874795 v -2.11664 H 8.4665145 Z m 0.52916,0.52916 h 1.05832 v 1.05832 h -1.05832 z"
     id="path2"
     inkscape:connector-curvature="0"
     style="fill:#5beedc;stroke-width:0.99998009" />
</svg>
