<?xml version="1.0" encoding="UTF-8" standalone="no"?>
<svg
   xmlns:dc="http://purl.org/dc/elements/1.1/"
   xmlns:cc="http://creativecommons.org/ns#"
   xmlns:rdf="http://www.w3.org/1999/02/22-rdf-syntax-ns#"
   xmlns:svg="http://www.w3.org/2000/svg"
   xmlns="http://www.w3.org/2000/svg"
   xmlns:sodipodi="http://sodipodi.sourceforge.net/DTD/sodipodi-0.dtd"
   xmlns:inkscape="http://www.inkscape.org/namespaces/inkscape"
   width="48"
   height="48"
   viewBox="0 0 12.7 12.7"
   version="1.1"
   id="svg4"
   sodipodi:docname="libreoffice-draw.svg"
   inkscape:version="0.92.5 (2060ec1f9f, 2020-04-08)">
  <defs
     id="defs8">
  <style
     id="current-color-scheme"
     type="Highlight/css">
      .ColorScheme-Highlight {
        color:#5beedc;
      }
  </style>
  </defs>
  <path
     class="ColorScheme-Highlight"
     style="fill:#5beedc"
     d="M 24 0 A 24 24 0 0 0 0 24 A 24 24 0 0 0 24 48 A 24 24 0 0 0 48 24 A 24 24 0 0 0 24 0 z M 24 3 A 21 21 0 0 1 45 24 A 21 21 0 0 1 24 45 A 21 21 0 0 1 3 24 A 21 21 0 0 1 24 3 z M 24 9 A 3 3 0 0 0 21 12 A 3 3 0 0 0 23 14.824219 L 23 21.173828 A 3 3 0 0 0 21 24 A 3 3 0 0 0 22.466797 26.574219 A 11 11 0 0 1 13 32 L 13 31 L 10 31 L 10 34 L 13 34 L 13 33 A 12 12 0 0 0 23 27.621094 L 23 33.173828 A 3 3 0 0 0 21 36 A 3 3 0 0 0 24 39 A 3 3 0 0 0 27 36 A 3 3 0 0 0 25 33.175781 L 25 26.826172 A 3 3 0 0 0 27 24 A 3 3 0 0 0 25.533203 21.425781 A 11 11 0 0 1 35 16 L 35 17 L 38 17 L 38 14 L 35 14 L 35 15 A 12 12 0 0 0 25 20.378906 L 25 14.826172 A 3 3 0 0 0 27 12 A 3 3 0 0 0 24 9 z "
     transform="scale(0.26458333)"
     id="path817" />
</svg>
