<?xml version="1.0" encoding="UTF-8" standalone="no"?>
<svg
   xmlns:dc="http://purl.org/dc/elements/1.1/"
   xmlns:cc="http://creativecommons.org/ns#"
   xmlns:rdf="http://www.w3.org/1999/02/22-rdf-syntax-ns#"
   xmlns:svg="http://www.w3.org/2000/svg"
   xmlns="http://www.w3.org/2000/svg"
   xmlns:sodipodi="http://sodipodi.sourceforge.net/DTD/sodipodi-0.dtd"
   xmlns:inkscape="http://www.inkscape.org/namespaces/inkscape"
   width="48"
   height="48"
   viewBox="0 0 12.7 12.7"
   version="1.1"
   id="svg4"
   sodipodi:docname="podcasts-app.svg"
   inkscape:version="0.92.5 (2060ec1f9f, 2020-04-08)">
  <defs
     id="defs8">
  <style
     id="current-color-scheme"
     type="text/css">
      .ColorScheme-Highlight {
        color:#5beedc;
      }
  </style>
  </defs>
  <path
     class="ColorScheme-Highlight"
     style="fill:#5beedc"
     d="M 24 0 A 24 24 0 0 0 0 24 A 24 24 0 0 0 24 48 A 24 24 0 0 0 48 24 A 24 24 0 0 0 24 0 z M 24 3 A 21 21 0 0 1 45 24 A 21 21 0 0 1 24 45 A 21 21 0 0 1 3 24 A 21 21 0 0 1 24 3 z M 24 13 A 6 6 0 0 0 18 19 L 23 19 L 23 21 L 18 21 L 18 23 L 23 23 L 23 25 L 18 25 A 6 6 0 0 0 24 31 A 6 6 0 0 0 30 25 L 25 25 L 25 23 L 30 23 L 30 21 L 25 21 L 25 19 L 30 19 A 6 6 0 0 0 24 13 z M 16 25 A 8.0000001 8.0000001 0 0 0 22.380859 32.824219 L 20 36 L 28 36 L 25.623047 32.832031 A 8.0000001 8.0000001 0 0 0 32 25 L 31 25 A 6.9999999 6.9999999 0 0 1 24 32 A 6.9999999 6.9999999 0 0 1 17 25 L 16 25 z "
     transform="scale(0.26458333)"
     id="path817" />
</svg>
