<?xml version="1.0" encoding="UTF-8" standalone="no"?>
<svg
   xmlns:dc="http://purl.org/dc/elements/1.1/"
   xmlns:cc="http://creativecommons.org/ns#"
   xmlns:rdf="http://www.w3.org/1999/02/22-rdf-syntax-ns#"
   xmlns:svg="http://www.w3.org/2000/svg"
   xmlns="http://www.w3.org/2000/svg"
   xmlns:sodipodi="http://sodipodi.sourceforge.net/DTD/sodipodi-0.dtd"
   xmlns:inkscape="http://www.inkscape.org/namespaces/inkscape"
   width="48"
   height="48"
   viewBox="0 0 12.7 12.7"
   version="1.1"
   id="svg4"
   sodipodi:docname="gnome-disks.svg"
   inkscape:version="0.92.5 (2060ec1f9f, 2020-04-08)">
  <defs
     id="defs8">
  <style
     id="current-color-scheme"
     type="text/css">
      .ColorScheme-Highlight {
        color:#5beedc;
      }
  </style>
  </defs>
  <path
     class="ColorScheme-Highlight"
     style="fill:#5beedc"
     d="M 24 0 A 24 24 0 0 0 0 24 A 24 24 0 0 0 24 48 A 24 24 0 0 0 48 24 A 24 24 0 0 0 24 0 z M 24 3 A 21 21 0 0 1 45 24 A 21 21 0 0 1 24 45 A 21 21 0 0 1 3 24 A 21 21 0 0 1 24 3 z M 12 9 C 11.446 9 11 9.4648807 11 10.042969 L 11 33 L 11 37.5 C 11 38.331 11.446 39 12 39 L 36 39 C 36.554 39 37 38.331 37 37.5 L 37 33 L 37 10.042969 C 37 9.4648807 36.554 9 36 9 L 12 9 z M 27 10.683594 A 6.9999998 6.9999998 0 0 1 31 17 A 6.9999998 6.9999998 0 0 1 27 23.316406 L 27 28 C 27 29.662 25.662 31 24 31 C 22.338 31 21 29.662 21 28 L 21 23.314453 A 6.9999998 6.9999998 0 0 1 17 17 A 6.9999998 6.9999998 0 0 1 21 10.685547 L 21 16.308594 C 21 16.777363 21.188256 17.199975 21.494141 17.505859 C 21.800025 17.811744 22.222637 18 22.691406 18 L 25.308594 18 C 25.777363 18 26.199975 17.811744 26.505859 17.505859 C 26.811744 17.199975 27 16.777363 27 16.308594 L 27 10.683594 z M 24 34 L 26 34 L 26 38 L 24 38 L 24 34 z M 28 34 L 30 34 L 30 38 L 28 38 L 28 34 z M 32 34 L 34 34 L 34 38 L 32 38 L 32 34 z "
     transform="scale(0.26458333)"
     id="path836" />
</svg>
