<?xml version="1.0" encoding="UTF-8" standalone="no"?>
<svg
   xmlns:dc="http://purl.org/dc/elements/1.1/"
   xmlns:cc="http://creativecommons.org/ns#"
   xmlns:rdf="http://www.w3.org/1999/02/22-rdf-syntax-ns#"
   xmlns:svg="http://www.w3.org/2000/svg"
   xmlns="http://www.w3.org/2000/svg"
   xmlns:sodipodi="http://sodipodi.sourceforge.net/DTD/sodipodi-0.dtd"
   xmlns:inkscape="http://www.inkscape.org/namespaces/inkscape"
   width="48"
   height="48"
   viewBox="0 0 12.7 12.7"
   version="1.1"
   id="svg13"
   sodipodi:docname="logisim.svg"
   inkscape:version="0.92.4 (5da689c313, 2019-01-14)">
  <metadata
     id="metadata17">
    <rdf:RDF>
      <cc:Work
         rdf:about="">
        <dc:format>image/svg+xml</dc:format>
        <dc:type
           rdf:resource="http://purl.org/dc/dcmitype/StillImage" />
        <dc:title></dc:title>
      </cc:Work>
    </rdf:RDF>
  </metadata>
  <sodipodi:namedview
     pagecolor="#ffffff"
     bordercolor="#666666"
     borderopacity="1"
     objecttolerance="10"
     gridtolerance="10"
     guidetolerance="10"
     inkscape:pageopacity="0"
     inkscape:pageshadow="2"
     inkscape:window-width="1087"
     inkscape:window-height="480"
     id="namedview15"
     showgrid="false"
     inkscape:zoom="4.9166667"
     inkscape:cx="2.1355932"
     inkscape:cy="24"
     inkscape:window-x="0"
     inkscape:window-y="25"
     inkscape:window-maximized="0"
     inkscape:current-layer="svg13" />
  <defs
     id="defs7">
    <radialGradient
       id="a"
       cx="27"
       cy="24"
       r="11"
       gradientTransform="matrix(.81818 0 0 .9091 388.48 501.98)"
       gradientUnits="userSpaceOnUse">
      <stop
         stop-color="#334545"
         id="stop2" />
      <stop
         offset="1"
         stop-color="#172525"
         id="stop4" />
    </radialGradient>
  </defs>
  <path
     d="M 6.34,0.07 A 6.29,6.29 0 0 0 0.05,6.37 6.29,6.29 0 0 0 6.35,12.65 6.29,6.29 0 0 0 12.63,6.36 6.29,6.29 0 0 0 6.34,0.07 Z M 6.33,1.01 a 5.4,5.4 0 0 1 5.4,5.06 H 9.16 c -0.48,-0.69 -2,-2.5 -4.82,-2.5 0.53,1.6 0.68,2.62 0.45,3.9 H 1.03 A 5.4,5.4 0 0 1 0.92,6.42 5.4,5.4 0 0 1 6.32,1 Z m 2.84,5.62 h 2.55 a 5.4,5.4 0 0 1 -5.4,5.2 5.4,5.4 0 0 1 -5.15,-3.81 h 3.5 C 4.59,8.36 4.48,8.72 4.35,9.13 a 5.84,5.84 0 0 0 4.82,-2.5 z"
     id="path9"
     inkscape:connector-curvature="0"
     style="fill:#5beedc" />
  <path
     d="M 1.18,4.68 C 1.12,4.86 1.08,5.05 1.04,5.24 h 4.31 a 1.93,1.93 0 0 0 0,-0.56 z"
     id="path11"
     inkscape:connector-curvature="0"
     style="opacity:0.75;fill:#5beedc" />
</svg>
