<?xml version="1.0" encoding="UTF-8" standalone="no"?>
<svg
   xmlns:dc="http://purl.org/dc/elements/1.1/"
   xmlns:cc="http://creativecommons.org/ns#"
   xmlns:rdf="http://www.w3.org/1999/02/22-rdf-syntax-ns#"
   xmlns:svg="http://www.w3.org/2000/svg"
   xmlns="http://www.w3.org/2000/svg"
   xmlns:sodipodi="http://sodipodi.sourceforge.net/DTD/sodipodi-0.dtd"
   xmlns:inkscape="http://www.inkscape.org/namespaces/inkscape"
   width="48"
   height="48"
   viewBox="0 0 12.7 12.7"
   version="1.1"
   id="svg4"
   sodipodi:docname="love.svg"
   inkscape:version="0.92.5 (2060ec1f9f, 2020-04-08)">
  <defs
     id="defs8">
  <style
     id="current-color-scheme"
     type="text/css">
      .ColorScheme-Highlight {
        color:#5beedc;
      }
  </style>
  </defs>
  <path
     class="ColorScheme-Highlight"
     style="fill:#5beedc"
     d="M 24 0 A 24 24 0 0 0 0 24 A 24 24 0 0 0 24 48 A 24 24 0 0 0 48 24 A 24 24 0 0 0 24 0 z M 24 3 A 21 21 0 0 1 45 24 A 21 21 0 0 1 24 45 A 21 21 0 0 1 3 24 A 21 21 0 0 1 24 3 z "
     transform="scale(0.26458333)"
     id="path817" />
  <path
     style="fill:#27aae1"
     d="M 11.279297 36.720703 A 18.000005 18.000005 0 0 0 24 42 A 18.000005 18.000005 0 0 0 42 24 A 18.000005 18.000005 0 0 0 36.720703 11.279297 L 31.675781 16.324219 C 35.574149 19.098646 38.942646 26.303188 24.007812 34.996094 C 24.009915 34.997317 24.011569 34.998777 24.013672 35 L 24 35 C 24.0026 34.998487 24.005215 34.997606 24.007812 34.996094 C 21.237963 33.384027 19.273327 31.8464 17.648438 30.351562 L 11.279297 36.720703 z "
     id="path846"
     transform="scale(0.26458333)" />
  <path
     style="fill:#e74a99"
     d="M 11.279297 36.720703 L 17.648438 30.351562 C 8.7310522 22.147903 15.174823 15.979861 18.621094 15.146484 C 19.130508 15.023355 19.605272 14.98179 20.048828 15.005859 C 22.003004 15.111902 23.299257 16.450015 24.007812 17.4375 C 24.877357 16.225907 26.641506 14.481058 29.394531 15.146484 C 30.082431 15.312871 30.883911 15.760653 31.675781 16.324219 L 36.720703 11.279297 A 18.000005 18.000005 0 0 0 24 6 A 18.000005 18.000005 0 0 0 6 24 A 18.000005 18.000005 0 0 0 11.279297 36.720703 z "
     id="path840"
     transform="scale(0.26458333)" />
</svg>
