<?xml version="1.0" encoding="UTF-8" standalone="no"?>
<svg
   xmlns:dc="http://purl.org/dc/elements/1.1/"
   xmlns:cc="http://creativecommons.org/ns#"
   xmlns:rdf="http://www.w3.org/1999/02/22-rdf-syntax-ns#"
   xmlns:svg="http://www.w3.org/2000/svg"
   xmlns="http://www.w3.org/2000/svg"
   xmlns:sodipodi="http://sodipodi.sourceforge.net/DTD/sodipodi-0.dtd"
   xmlns:inkscape="http://www.inkscape.org/namespaces/inkscape"
   width="48"
   height="48"
   viewBox="0 0 12.7 12.7"
   version="1.1"
   id="svg8"
   sodipodi:docname="lutris.svg"
   inkscape:version="0.92.4 (5da689c313, 2019-01-14)">
  <metadata
     id="metadata14">
    <rdf:RDF>
      <cc:Work
         rdf:about="">
        <dc:format>image/svg+xml</dc:format>
        <dc:type
           rdf:resource="http://purl.org/dc/dcmitype/StillImage" />
        <dc:title></dc:title>
      </cc:Work>
    </rdf:RDF>
  </metadata>
  <defs
     id="defs12" />
  <sodipodi:namedview
     pagecolor="#ffffff"
     bordercolor="#666666"
     borderopacity="1"
     objecttolerance="10"
     gridtolerance="10"
     guidetolerance="10"
     inkscape:pageopacity="0"
     inkscape:pageshadow="2"
     inkscape:window-width="862"
     inkscape:window-height="480"
     id="namedview10"
     showgrid="false"
     inkscape:zoom="4.9166667"
     inkscape:cx="2.1355932"
     inkscape:cy="24"
     inkscape:window-x="0"
     inkscape:window-y="25"
     inkscape:window-maximized="0"
     inkscape:current-layer="svg8" />
  <path
     d="M 6.34,0.07 A 6.29,6.29 0 0 0 0.05,6.36 6.29,6.29 0 0 0 6.35,12.65 6.29,6.29 0 0 0 12.63,6.35 6.29,6.29 0 0 0 6.34,0.08 Z M 6.32,1 6.33,1.01 a 5.4,5.4 0 0 1 5.4,5.4 5.4,5.4 0 0 1 -5.4,5.41 A 5.4,5.4 0 0 1 0.92,6.42 5.4,5.4 0 0 1 6.32,1 Z M 5.889,1.805 A 1.836,1.836 0 0 0 5.605,1.821 C 5.208,1.874 4.891,2.033 4.917,2.191 L 5.904,6.574 2.933,8.357 a 0.18,0.18 0 0 0 -0.08,0.194 v 0.81 c 0,0.239 0.132,0.424 0.37,0.504 l 2.964,0.9 c 0.688,0.21 1.138,0.184 1.64,-0.213 L 10.182,8.409 A 0.72,0.72 0 0 0 10.42,7.854 L 10.405,7.045 A 0.188,0.188 0 0 0 10.404,7.001 L 10.403,6.953 10.393,6.955 A 0.208,0.208 0 0 0 10.235,6.822 L 6.945,6.416 6.372,1.98 C 6.352,1.88 6.154,1.811 5.889,1.805 Z M 5.771,1.923 A 0.203,0.474 82.12 0 1 6.128,2.069 0.203,0.474 82.12 0 1 5.686,2.336 0.203,0.474 82.12 0 1 5.189,2.199 0.203,0.474 82.12 0 1 5.631,1.933 0.203,0.474 82.12 0 1 5.771,1.923 Z M 6.99,6.77 8.501,6.956 A 0.56,0.902 82.066 0 0 8.232,7.422 0.56,0.902 82.066 0 0 8.955,7.873 L 7.533,9.105 C 7.241,9.356 6.843,9.44 6.467,9.335 L 3.75,8.562 A 0.158,0.158 0 0 1 3.676,8.511 0.16,0.16 0 0 1 3.643,8.434 0.14,0.14 0 0 1 3.706,8.295 L 3.701,8.297 3.708,8.29 5.983,6.926 6.015,7.07 A 0.82,1.402 81.118 0 0 5.306,7.939 0.82,1.402 81.118 0 0 6.818,8.532 0.82,1.402 81.118 0 0 8.077,7.505 0.82,1.402 81.118 0 0 7.55,6.985 0.74,1.323 81.118 0 1 7.997,7.436 0.74,1.323 81.118 0 1 6.805,8.373 0.74,1.323 81.118 0 1 5.384,7.845 0.74,1.323 81.118 0 1 6.016,7.073 0.661,1.19 81.118 0 0 6.002,7.08 0.556,1.058 81.118 0 1 6.016,7.074 l 0.002,0.01 A 0.476,0.9 81.118 0 0 5.72,7.517 0.476,0.9 81.118 0 0 6.683,7.849 0.476,0.9 81.118 0 0 7.498,7.239 0.476,0.9 81.118 0 0 7.007,6.906 L 7.005,6.891 A 0.556,1.058 81.118 0 1 7.681,7.293 0.556,1.058 81.118 0 1 6.721,8.005 0.556,1.058 81.118 0 1 5.59,7.619 0.556,1.058 81.118 0 1 5.997,7.083 0.661,1.19 81.118 0 0 5.488,7.745 0.661,1.19 81.118 0 0 6.767,8.215 0.661,1.19 81.118 0 0 7.84,7.377 0.661,1.19 81.118 0 0 7.005,6.887 V 6.886 A 0.82,1.402 81.118 0 1 7.392,6.936 0.74,1.323 81.118 0 0 7.004,6.882 L 6.99,6.772 Z M 7.01,6.924 A 0.397,0.714 81.118 0 1 7.315,7.186 0.397,0.714 81.118 0 1 6.67,7.688 0.397,0.714 81.118 0 1 5.903,7.407 0.397,0.714 81.118 0 1 6.029,7.129 L 6.054,7.244 C 6.081,7.35 6.134,7.429 6.24,7.456 6.425,7.509 6.69,7.536 6.928,7.376 A 0.252,0.252 0 0 0 7.034,7.112 L 7.009,6.924 Z"
     id="path2"
     inkscape:connector-curvature="0"
     style="fill:#5beedc" />
  <ellipse
     transform="rotate(-6.921)"
     cx="8.1820002"
     cy="8.3190002"
     rx="0.63499999"
     ry="0.37"
     id="ellipse4"
     style="fill:#ea5514" />
  <ellipse
     transform="rotate(-6.921)"
     cx="8.1899996"
     cy="8.2399998"
     rx="0.52899998"
     ry="0.29100001"
     id="ellipse6"
     style="fill:#f39800" />
</svg>
