<?xml version="1.0" encoding="UTF-8" standalone="no"?>
<svg
   xmlns:dc="http://purl.org/dc/elements/1.1/"
   xmlns:cc="http://creativecommons.org/ns#"
   xmlns:rdf="http://www.w3.org/1999/02/22-rdf-syntax-ns#"
   xmlns:svg="http://www.w3.org/2000/svg"
   xmlns="http://www.w3.org/2000/svg"
   xmlns:sodipodi="http://sodipodi.sourceforge.net/DTD/sodipodi-0.dtd"
   xmlns:inkscape="http://www.inkscape.org/namespaces/inkscape"
   width="48"
   height="48"
   viewBox="0 0 12.7 12.7"
   version="1.1"
   id="svg4"
   sodipodi:docname="logviewer.svg"
   inkscape:version="0.92.4 (5da689c313, 2019-01-14)">
  <metadata
     id="metadata10">
    <rdf:RDF>
      <cc:Work
         rdf:about="">
        <dc:format>image/svg+xml</dc:format>
        <dc:type
           rdf:resource="http://purl.org/dc/dcmitype/StillImage" />
        <dc:title></dc:title>
      </cc:Work>
    </rdf:RDF>
  </metadata>
  <defs
     id="defs8" />
  <sodipodi:namedview
     pagecolor="#ffffff"
     bordercolor="#666666"
     borderopacity="1"
     objecttolerance="10"
     gridtolerance="10"
     guidetolerance="10"
     inkscape:pageopacity="0"
     inkscape:pageshadow="2"
     inkscape:window-width="1087"
     inkscape:window-height="480"
     id="namedview6"
     showgrid="false"
     inkscape:zoom="4.9166667"
     inkscape:cx="2.1355932"
     inkscape:cy="24"
     inkscape:window-x="0"
     inkscape:window-y="25"
     inkscape:window-maximized="0"
     inkscape:current-layer="svg4" />
  <path
     d="m 6.344,0.073 a 6.29,6.29 0 0 0 -6.29,6.29 6.29,6.29 0 0 0 6.29,6.288 6.29,6.29 0 0 0 6.29,-6.289 6.29,6.29 0 0 0 -6.29,-6.29 z M 6.326,1.009 A 5.407,5.407 0 0 1 11.733,6.416 5.407,5.407 0 0 1 6.326,11.823 5.407,5.407 0 0 1 0.92,6.416 5.407,5.407 0 0 1 6.326,1.01 Z M 3.244,2.23 c -0.162,0 -0.29,0.693 -0.29,1.551 v 4.847 h -0.98 c 0,0.644 0.112,1.163 0.447,1.163 h 7.81 c 0.336,0 0.447,-0.519 0.447,-1.163 H 9.738 V 3.78 C 9.738,2.922 9.61,2.23 9.448,2.23 H 9.121 L 9.206,2.423 H 8.818 L 8.733,2.229 H 3.953 L 3.868,2.423 H 3.48 L 3.565,2.229 H 3.245 Z M 3.389,2.812 H 3.778 L 3.741,3.2 H 3.353 Z m 5.514,0 H 9.29 L 9.333,3.2 H 8.945 Z M 6.2,3.057 A 1.763,1.763 0 0 1 7.815,5.382 C 7.696,5.731 7.477,6.018 7.2,6.222 L 7.934,7.717 A 0.32,0.32 0 1 1 7.36,7.998 L 6.626,6.504 A 1.747,1.747 0 0 1 5.583,6.477 1.763,1.763 0 0 1 4.487,4.245 1.764,1.764 0 0 1 6.2,3.057 Z M 3.34,3.587 H 3.728 V 3.974 H 3.34 V 3.586 Z m 5.622,0 H 9.35 V 3.974 H 8.962 V 3.586 Z M 6.18,3.694 A 1.113,1.113 0 0 0 5.091,4.451 1.115,1.115 0 0 0 5.79,5.872 C 6.379,6.073 7.01,5.763 7.21,5.175 A 1.114,1.114 0 0 0 6.513,3.755 1.138,1.138 0 0 0 6.18,3.695 Z M 3.34,4.362 H 3.728 V 4.75 H 3.34 Z m 5.622,0 H 9.35 V 4.75 H 8.962 Z M 3.34,5.137 H 3.728 V 5.525 H 3.34 Z m 5.622,0 H 9.35 V 5.525 H 8.962 Z M 3.34,5.913 H 3.728 V 6.3 H 3.34 Z m 5.622,0 H 9.35 V 6.3 H 8.962 Z M 3.34,6.688 H 3.728 V 7.076 H 3.34 Z m 5.622,0 H 9.35 V 7.076 H 8.962 Z M 3.34,7.464 H 3.728 V 7.851 H 3.34 Z m 5.622,0 H 9.35 V 7.851 H 8.962 Z M 3.34,8.239 H 3.728 V 8.627 H 3.34 Z m 5.622,0 H 9.35 V 8.627 H 8.962 Z M 2.42,9.014 H 2.866 C 2.86,9.214 2.885,9.325 2.922,9.403 H 2.475 C 2.435,9.33 2.427,9.211 2.42,9.014 Z m 7.365,0 h 0.446 C 10.223,9.211 10.216,9.33 10.175,9.403 H 9.74 V 9.373 A 0.853,0.853 0 0 0 9.787,9.014 Z"
     id="path2"
     inkscape:connector-curvature="0"
     style="fill:#5beedc" />
</svg>
