<?xml version="1.0" encoding="UTF-8" standalone="no"?>
<svg
   xmlns:dc="http://purl.org/dc/elements/1.1/"
   xmlns:cc="http://creativecommons.org/ns#"
   xmlns:rdf="http://www.w3.org/1999/02/22-rdf-syntax-ns#"
   xmlns:svg="http://www.w3.org/2000/svg"
   xmlns="http://www.w3.org/2000/svg"
   xmlns:sodipodi="http://sodipodi.sourceforge.net/DTD/sodipodi-0.dtd"
   xmlns:inkscape="http://www.inkscape.org/namespaces/inkscape"
   width="48"
   height="48"
   viewBox="0 0 12.7 12.7"
   version="1.1"
   id="svg4"
   sodipodi:docname="preferences-desktop-launch-feedback.svg"
   inkscape:version="0.92.5 (2060ec1f9f, 2020-04-08)">
  <defs
     id="defs8">
  <style
     id="current-color-scheme"
     type="text/css">
      .ColorScheme-Highlight {
        color:#5beedc;
      }
  </style>
  </defs>
  <path
     class="ColorScheme-Highlight"
     style="fill:#5beedc"
     d="M 24 0 A 24 24 0 0 0 0 24 A 24 24 0 0 0 24 48 A 24 24 0 0 0 48 24 A 24 24 0 0 0 24 0 z M 24 3 A 21 21 0 0 1 45 24 A 21 21 0 0 1 24 45 A 21 21 0 0 1 3 24 A 21 21 0 0 1 24 3 z M 36.849609 11 C 35.602365 11.037799 34.202799 11.604155 33.144531 12.322266 C 30.347681 14.174234 27.248022 17.123757 24.451172 19.882812 A 31.44567 31.44567 0 0 0 8.7285156 27.667969 L 8.6914062 27.744141 L 8.6914062 27.894531 C 8.6914062 28.121303 9.0701037 28.386719 9.296875 28.386719 L 9.3710938 28.386719 C 11.903377 27.555223 15.039983 26.722924 17.572266 27.138672 C 17.194313 27.667805 16.779716 28.309815 16.326172 29.103516 C 15.948219 29.746036 15.645322 30.313931 15.494141 30.880859 C 14.360282 31.258813 12.810802 32.014578 11.828125 33.148438 C 10.58088 34.546862 10.240234 36.134048 10.240234 38.326172 A 7.823622 7.823622 0 0 0 17.498047 32.392578 A 20.031496 20.031496 0 0 0 20.898438 30.464844 C 21.276391 32.959332 20.444777 36.095938 19.613281 38.666016 L 19.613281 38.742188 C 19.613281 39.006754 19.915806 39.307908 20.142578 39.345703 L 20.21875 39.345703 L 20.369141 39.308594 A 31.44567 31.44567 0 0 0 28.117188 23.548828 C 30.914039 20.789772 33.86356 17.689429 35.677734 14.892578 C 36.43364 13.75872 37.037796 12.285039 37 11 L 36.849609 11 z M 15.417969 31.068359 L 15.457031 31.107422 A 1.511811 1.511811 0 0 0 15.457031 31.333984 A 2.0409449 2.0409449 0 0 0 15.003906 31.710938 C 14.512567 32.277866 13.869931 33.186082 13.71875 34.017578 C 14.663632 33.941988 15.872524 33.487432 16.439453 32.996094 A 1.8897638 1.8897638 0 0 0 16.816406 32.582031 C 17.005383 32.582031 17.194522 32.505278 17.345703 32.429688 A 3.7795276 3.7795276 0 0 1 16.173828 34.394531 C 15.191151 35.226027 13.528808 36.17177 11.941406 36.285156 A 7.5590551 7.5590551 0 0 1 13.529297 32.203125 C 14.020636 31.636196 14.775449 31.29513 15.417969 31.068359 z "
     transform="scale(0.26458333)"
     id="path831" />
  <path
     d="m 8.7895833,3.2304184 c -0.26,0.18 -0.5,0.36 -0.74,0.5599999 l 0.4,0.4399999 0.68,-0.6599999 z m -0.34,0.9999998 -0.74,0.7500001 0.45,0.5000001 c 0.25,-0.26 0.5,-0.5199999 0.72,-0.8 z m -1.19,0.2600003 c -0.28,0.25 -0.54,0.5199999 -0.78,0.7699999 0.08,-0.03 0.17,0.02 0.15,0.18 l 0.3,0.3099999 0.78,-0.77 z m -0.33,1.2599998 -0.83,0.8400002 0.43,0.47 c 0.3,-0.2700002 0.59,-0.6400001 0.87,-0.8100002 z m -1.1,0.5500002 -0.41,0.4199998 c -0.17,0.1600002 -0.4,0.33 -0.64,0.3900001 l -0.05,0.07 0.38,0.3799999 0.98,-0.9699998 z m -0.72,1.2599998 -0.5599999,0.5600001 0.3399999,0.3200001 c 0.22,-0.1300001 0.44,-0.2400001 0.64,-0.4 l -0.04,-0.1000001 z"
     id="path4"
     inkscape:connector-curvature="0"
     style="opacity:0.75;fill:#ffffff" />
</svg>
