<?xml version="1.0" encoding="UTF-8" standalone="no"?>
<svg
   xmlns:dc="http://purl.org/dc/elements/1.1/"
   xmlns:cc="http://creativecommons.org/ns#"
   xmlns:rdf="http://www.w3.org/1999/02/22-rdf-syntax-ns#"
   xmlns:svg="http://www.w3.org/2000/svg"
   xmlns="http://www.w3.org/2000/svg"
   xmlns:sodipodi="http://sodipodi.sourceforge.net/DTD/sodipodi-0.dtd"
   xmlns:inkscape="http://www.inkscape.org/namespaces/inkscape"
   width="48"
   height="48"
   viewBox="0 0 12.7 12.7"
   version="1.1"
   id="svg4"
   sodipodi:docname="mcomix.svg"
   inkscape:version="0.92.4 (5da689c313, 2019-01-14)">
  <metadata
     id="metadata10">
    <rdf:RDF>
      <cc:Work
         rdf:about="">
        <dc:format>image/svg+xml</dc:format>
        <dc:type
           rdf:resource="http://purl.org/dc/dcmitype/StillImage" />
        <dc:title></dc:title>
      </cc:Work>
    </rdf:RDF>
  </metadata>
  <defs
     id="defs8" />
  <sodipodi:namedview
     pagecolor="#ffffff"
     bordercolor="#666666"
     borderopacity="1"
     objecttolerance="10"
     gridtolerance="10"
     guidetolerance="10"
     inkscape:pageopacity="0"
     inkscape:pageshadow="2"
     inkscape:window-width="1087"
     inkscape:window-height="480"
     id="namedview6"
     showgrid="false"
     inkscape:zoom="4.9166667"
     inkscape:cx="2.1355932"
     inkscape:cy="24"
     inkscape:window-x="0"
     inkscape:window-y="25"
     inkscape:window-maximized="0"
     inkscape:current-layer="svg4" />
  <path
     d="M 6.34,0.07 A 6.29,6.29 0 0 0 0.05,6.37 6.29,6.29 0 0 0 6.35,12.65 6.29,6.29 0 0 0 12.63,6.36 6.29,6.29 0 0 0 6.34,0.07 Z M 6.33,1.01 a 5.4,5.4 0 0 1 5.4,5.4 5.4,5.4 0 0 1 -5.4,5.41 A 5.4,5.4 0 0 1 0.92,6.42 5.4,5.4 0 0 1 6.32,1 Z M 6.62,2.11 6.54,2.13 A 1.68,1.68 0 0 0 5.84,2.41 1.68,1.68 0 0 0 5.19,3.57 c 0,0.07 -0.01,0.12 -0.02,0.12 L 5.05,3.74 A 3.58,3.58 0 0 0 3.01,5.86 L 2.98,5.94 H 2.92 A 1.33,1.33 0 0 0 2.16,6.24 H 2.15 L 2.13,6.27 C 2.11,6.27 1.98,6.38 1.98,6.4 H 2 L 1.99,6.42 1.95,6.45 1.92,6.48 1.89,6.52 C 1.86,6.55 1.79,6.69 1.74,6.79 1.67,6.97 1.65,7.07 1.65,7.29 A 1,1 0 0 0 1.68,7.6 1.35,1.35 0 0 0 3.06,8.64 h 0.12 l 0.07,0.12 a 3.57,3.57 0 0 0 4.9,1.33 3.63,3.63 0 0 0 1.3,-1.34 L 9.51,8.64 H 9.64 A 1.3518136,1.3518136 0 0 0 9.78,5.94 H 9.72 L 9.66,5.8 A 3.55,3.55 0 0 0 7.2,3.6 2.67,2.67 0 0 1 7.72,3.2 1.07,1.07 0 0 0 7.39,3.07 1.48,1.48 0 0 0 6.42,3.14 0.93,0.93 0 0 1 6.32,3.17 3.4,3.4 0 0 1 6.54,2.34 C 6.57,2.25 6.58,2.24 6.55,2.22 6.53,2.2 6.53,2.2 6.55,2.22 6.58,2.24 6.58,2.24 6.61,2.19 6.64,2.13 6.64,2.12 6.63,2.12 Z M 5.2,5.06 A 1.75,1.75 0 0 1 6.26,5.38 L 6.36,5.44 6.38,5.41 6.7,5.22 C 6.82,5.17 6.96,5.12 7.1,5.09 7.2,5.07 7.26,5.07 7.45,5.07 c 0.2,0 0.23,0 0.36,0.03 A 1.8,1.8 0 0 1 9.19,7.26 1.7,1.7 0 0 1 8.66,8.16 C 8.46,8.34 8.23,8.48 7.98,8.56 L 7.85,8.6 V 8.64 A 2.52,2.52 0 0 1 7.83,9.22 1.53,1.53 0 0 1 6,10.35 L 5.86,10.32 A 1.53,1.53 0 0 1 4.84,8.6 C 4.84,8.59 4.79,8.56 4.71,8.54 A 1.8,1.8 0 0 1 3.47,6.76 c 0,-0.34 0.1,-0.64 0.3,-0.92 A 1.8,1.8 0 0 1 5.2,5.04 Z M 2.81,6.71 v 0.13 a 3.93,3.93 0 0 0 0.1,1.05 L 2.84,7.88 A 0.62,0.62 0 0 1 2.4,7.39 0.67,0.67 0 0 1 2.45,7.03 0.68,0.68 0 0 1 2.81,6.71 Z m 7.06,0 0.03,0.01 0.08,0.04 c 0.1,0.05 0.22,0.18 0.26,0.27 0.08,0.17 0.08,0.37 0,0.53 A 0.65,0.65 0 0 1 9.84,7.88 C 9.78,7.89 9.78,7.89 9.79,7.87 A 4.7,4.7 0 0 0 9.87,6.72 Z M 7.43,7.21 7.33,7.22 C 7.29,7.23 7.28,7.24 7.28,7.25 c 0,0.02 0,0.02 -0.01,0 C 7.23,7.22 7.07,7.38 7.05,7.49 7.03,7.56 7.04,7.71 7.07,7.77 7.11,7.85 7.17,7.91 7.25,7.95 7.31,7.98 7.33,7.99 7.42,7.99 7.54,7.99 7.62,7.96 7.7,7.87 A 0.39,0.39 0 0 0 7.43,7.21 Z m -2.2,0 A 0.3,0.3 0 0 0 5.16,7.23 0.42,0.42 0 0 0 4.9,7.48 C 4.88,7.57 4.89,7.69 4.92,7.76 4.95,7.84 5.04,7.92 5.12,7.96 5.2,8 5.35,8 5.44,7.96 5.73,7.81 5.74,7.4 5.45,7.26 A 0.44,0.44 0 0 0 5.23,7.21 Z M 5.78,9.26 V 9.31 C 5.81,9.45 5.9,9.59 6.02,9.68 6.13,9.75 6.2,9.78 6.36,9.78 6.5,9.78 6.5,9.77 6.59,9.73 6.74,9.65 6.84,9.53 6.89,9.38 6.93,9.24 6.99,9.26 6.35,9.26 Z"
     id="path2"
     inkscape:connector-curvature="0"
     style="fill:#5beedc" />
</svg>
