<?xml version="1.0" encoding="UTF-8" standalone="no"?>
<svg
   xmlns:dc="http://purl.org/dc/elements/1.1/"
   xmlns:cc="http://creativecommons.org/ns#"
   xmlns:rdf="http://www.w3.org/1999/02/22-rdf-syntax-ns#"
   xmlns:svg="http://www.w3.org/2000/svg"
   xmlns="http://www.w3.org/2000/svg"
   xmlns:sodipodi="http://sodipodi.sourceforge.net/DTD/sodipodi-0.dtd"
   xmlns:inkscape="http://www.inkscape.org/namespaces/inkscape"
   width="48"
   height="48"
   viewBox="0 0 12.7 12.7"
   version="1.1"
   id="svg4"
   sodipodi:docname="cs-login.svg"
   inkscape:version="0.92.5 (2060ec1f9f, 2020-04-08)">
  <defs
     id="defs8">
  <style
     id="current-color-scheme"
     type="text/css">
      .ColorScheme-Highlight {
        color:#5beedc;
      }
  </style>
  </defs>
  <path
     class="ColorScheme-Highlight"
     style="fill:#5beedc"
     d="M 24 0 A 24 24 0 0 0 0 24 A 24 24 0 0 0 24 48 A 24 24 0 0 0 48 24 A 24 24 0 0 0 24 0 z M 24 3 A 21 21 0 0 1 45 24 A 21 21 0 0 1 24 45 A 21 21 0 0 1 3 24 A 21 21 0 0 1 24 3 z M 13 15 A 3.9999998 3.9999998 0 0 0 9 19 A 3.9999998 3.9999998 0 0 0 13 23 A 3.9999998 3.9999998 0 0 0 17 19 A 3.9999998 3.9999998 0 0 0 13 15 z M 24 22 C 22.338 22 21 23.338 21 25 C 21 26.662 22.338 28 24 28 L 37 28 C 38.662 28 40 26.662 40 25 C 40 23.338 38.662 22 37 22 L 24 22 z M 11 25 C 9.338 25 8 26.338 8 28 L 8 31 L 18 31 L 18 28 C 18 26.338 16.662 25 15 25 L 11 25 z "
     transform="scale(0.26458333)"
     id="path817" />
</svg>
