<?xml version="1.0" encoding="UTF-8" standalone="no"?>
<svg
   xmlns:dc="http://purl.org/dc/elements/1.1/"
   xmlns:cc="http://creativecommons.org/ns#"
   xmlns:rdf="http://www.w3.org/1999/02/22-rdf-syntax-ns#"
   xmlns:svg="http://www.w3.org/2000/svg"
   xmlns="http://www.w3.org/2000/svg"
   xmlns:sodipodi="http://sodipodi.sourceforge.net/DTD/sodipodi-0.dtd"
   xmlns:inkscape="http://www.inkscape.org/namespaces/inkscape"
   width="48"
   height="48"
   viewBox="0 0 12.7 12.7"
   version="1.1"
   id="svg4"
   sodipodi:docname="grip.svg"
   inkscape:version="0.92.5 (2060ec1f9f, 2020-04-08)">
  <defs
     id="defs8">
  <style
     id="current-color-scheme"
     type="text/css">
      .ColorScheme-Highlight {
        color:#5beedc;
      }
  </style>
  </defs>
  <path
     class="ColorScheme-Highlight"
     style="fill:#5beedc"
     d="M 24 0 A 24 24 0 0 0 0 24 A 24 24 0 0 0 24 48 A 24 24 0 0 0 34.984375 45.314453 L 27 36 L 33 36 L 33 30.314453 A 11 11 0 0 1 24 35 A 11 11 0 0 1 13 24 A 11 11 0 0 1 24 13 A 11 11 0 0 1 34.945312 23 L 45 23 L 45 35.564453 A 24 24 0 0 0 48 24 A 24 24 0 0 0 24 0 z M 24 17 A 6.9999998 6.9999998 0 0 0 17 24 A 6.9999998 6.9999998 0 0 0 24 31 A 6.9999998 6.9999998 0 0 0 31 24 A 6.9999998 6.9999998 0 0 0 24 17 z M 24 20 A 3.9999996 3.9999996 0 0 1 28 24 A 3.9999996 3.9999996 0 0 1 24 28 A 3.9999996 3.9999996 0 0 1 20 24 A 3.9999996 3.9999996 0 0 1 24 20 z M 35 25 L 35 38 L 31 38 L 39 47 L 47 38 L 43 38 L 43 25 L 35 25 z "
     transform="scale(0.26458333)"
     id="path838" />
</svg>
