<?xml version="1.0" encoding="UTF-8" standalone="no"?>
<svg
   xmlns:dc="http://purl.org/dc/elements/1.1/"
   xmlns:cc="http://creativecommons.org/ns#"
   xmlns:rdf="http://www.w3.org/1999/02/22-rdf-syntax-ns#"
   xmlns:svg="http://www.w3.org/2000/svg"
   xmlns="http://www.w3.org/2000/svg"
   xmlns:sodipodi="http://sodipodi.sourceforge.net/DTD/sodipodi-0.dtd"
   xmlns:inkscape="http://www.inkscape.org/namespaces/inkscape"
   width="48"
   height="48"
   viewBox="0 0 12.7 12.7"
   version="1.1"
   id="svg4"
   sodipodi:docname="mfoc.svg"
   inkscape:version="0.92.5 (2060ec1f9f, 2020-04-08)">
  <metadata
     id="metadata10">
    <rdf:RDF>
      <cc:Work
         rdf:about="">
        <dc:format>image/svg+xml</dc:format>
        <dc:type
           rdf:resource="http://purl.org/dc/dcmitype/StillImage" />
        <dc:title></dc:title>
      </cc:Work>
    </rdf:RDF>
  </metadata>
  <defs
     id="defs8" />
  <sodipodi:namedview
     pagecolor="#ffffff"
     bordercolor="#666666"
     borderopacity="1"
     objecttolerance="10"
     gridtolerance="10"
     guidetolerance="10"
     inkscape:pageopacity="0"
     inkscape:pageshadow="2"
     inkscape:window-width="1085"
     inkscape:window-height="480"
     id="namedview6"
     showgrid="false"
     inkscape:zoom="4.9166667"
     inkscape:cx="2.1355932"
     inkscape:cy="24"
     inkscape:window-x="0"
     inkscape:window-y="25"
     inkscape:window-maximized="0"
     inkscape:current-layer="svg4" />
  <path
     d="M 6.34,0.075 A 6.295,6.295 0 0 0 0.055,6.36 6.295,6.295 0 0 0 6.34,12.655 6.295,6.295 0 0 0 12.634,6.36 6.295,6.295 0 0 0 6.34,0.075 Z M 6.329,1.015 Z M 6.612,1.03 A 5.408,5.408 0 0 1 6.882,1.045 5.408,5.408 0 0 0 6.612,1.03 Z M 5.864,1.036 Z m 1.223,0.04 A 5.408,5.408 0 0 1 7.42,1.129 5.408,5.408 0 0 0 7.087,1.076 Z M 5.063,1.164 Z M 7.56,1.165 A 5.408,5.408 0 0 1 7.946,1.267 5.408,5.408 0 0 0 7.56,1.165 Z M 8.036,1.3 A 5.408,5.408 0 0 1 8.452,1.455 5.408,5.408 0 0 0 8.036,1.3 Z M 4.287,1.413 C 4.208,1.445 4.132,1.482 4.055,1.517 4.132,1.482 4.208,1.445 4.287,1.413 Z M 8.545,1.5 A 5.408,5.408 0 0 1 8.937,1.692 5.408,5.408 0 0 0 8.545,1.5 Z M 3.873,1.604 Z M 9.034,1.752 A 5.408,5.408 0 0 1 9.396,1.978 5.408,5.408 0 0 0 9.034,1.752 Z M 3.5,1.813 C 3.414,1.866 3.329,1.918 3.246,1.975 h 0.005 c 1.077,0.01 2.06,0.405 2.817,1.058 A 4.77,4.77 0 0 0 4.91,5.03 H 5.319 A 4.374,4.374 0 0 1 6.351,3.3 4.374,4.374 0 0 1 7.384,5.03 h 0.41 A 4.77,4.77 0 0 0 6.635,3.032 4.359,4.359 0 0 1 9.4,1.98 a 5.408,5.408 0 0 1 2.326,4.422 5.407,5.407 0 0 1 -2.164,4.32 c -0.023,0 -0.044,0.007 -0.067,0.007 -1.094,0 -2.093,-0.4 -2.86,-1.062 0.51,-0.526 0.9,-1.17 1.125,-1.886 H 7.347 A 4.377,4.377 0 0 1 6.35,9.4 4.376,4.376 0 0 1 5.354,7.782 H 4.941 c 0.226,0.716 0.616,1.36 1.125,1.886 a 4.363,4.363 0 0 1 -2.86,1.062 c -0.048,0 -0.094,-0.013 -0.143,-0.015 A 5.407,5.407 0 0 0 9.537,10.74 5.407,5.407 0 0 1 0.912,6.402 5.365,5.365 0 0 1 3.5,1.813 Z M 5.778,4.3 A 0.196,0.196 0 0 0 5.582,4.496 V 5.224 H 5.366 a 0.197,0.197 0 0 0 0,0.393 h 0.216 v 1.768 a 0.196,0.196 0 0 0 0,0.02 c 0.002,0.021 0.008,0.04 0.016,0.06 a 0.196,0.196 0 0 0 0.016,0.03 l 0.001,0.002 a 0.196,0.196 0 0 0 0.022,0.027 l 0.001,0.002 a 0.196,0.196 0 0 0 0.028,0.023 h 0.002 a 0.196,0.196 0 0 0 0.03,0.018 c 0.002,0 0.004,0 0.006,0.002 A 0.196,0.196 0 0 0 5.709,7.571 L 5.722,7.575 A 0.196,0.196 0 0 0 5.729,7.576 L 5.74,7.579 A 0.196,0.196 0 0 0 5.75,7.58 L 5.76,7.582 A 0.196,0.196 0 0 0 5.77,7.583 L 5.778,7.584 H 6.097 A 0.196,0.196 0 0 0 6.289,7.385 V 6.322 L 5.976,6.152 H 5.975 V 5.617 H 6.16 a 0.197,0.197 0 0 0 0,-0.393 H 5.975 V 4.693 h 0.446 a 0.1965,0.1965 0 1 0 0,-0.393 z M 3.635,5.221 A 0.196,0.196 0 0 0 3.607,5.224 H 2.503 A 0.197,0.197 0 0 0 2.306,5.421 V 7.385 A 0.196,0.196 0 0 0 2.503,7.584 H 2.822 A 0.196,0.196 0 0 0 3.014,7.385 V 6.322 L 2.701,6.152 2.7,6.151 V 5.617 h 0.742 v 1.767 c -0.001,0.03 0.006,0.06 0.019,0.086 a 0.196,0.196 0 0 0 0.008,0.016 l 0.01,0.016 a 0.196,0.196 0 0 0 0.013,0.016 0.159,0.159 0 0 0 0.011,0.01 0.196,0.196 0 0 0 0.02,0.017 L 3.53,7.55 A 0.196,0.196 0 0 0 3.555,7.564 0.197,0.197 0 0 0 3.601,7.579 0.196,0.196 0 0 0 3.606,7.581 L 3.62,7.582 A 0.196,0.196 0 0 0 3.629,7.583 L 3.638,7.584 H 3.956 A 0.196,0.196 0 0 0 4.149,7.385 V 6.322 L 3.835,6.152 V 5.617 h 0.722 v 1.768 a 0.197,0.197 0 1 0 0.393,0 V 5.42 A 0.196,0.196 0 0 0 4.753,5.224 H 3.671 A 0.196,0.196 0 0 0 3.635,5.221 Z M 9.124,5.224 A 0.196,0.196 0 0 0 8.927,5.421 v 1.964 c -10e-4,0.11 0.087,0.199 0.197,0.199 h 0.318 c 0.01,0 0.019,-10e-4 0.028,-0.003 h 1.16 A 0.196,0.196 0 0 0 10.827,7.385 V 6.777 a 0.196,0.196 0 1 0 -0.392,0 v 0.411 h -0.8 V 6.322 L 9.322,6.152 H 9.32 V 5.617 h 1.074 v 0.256 a 0.1965,0.1965 0 1 0 0.393,0 V 5.42 A 0.196,0.196 0 0 0 10.591,5.224 Z M 7.037,5.237 A 0.25,0.25 0 0 0 6.79,5.484 V 7.385 C 6.788,7.495 6.877,7.584 6.986,7.584 H 7.304 A 0.195,0.195 0 0 0 7.344,7.579 H 8.427 A 0.25,0.25 0 0 0 8.675,7.332 V 5.484 A 0.25,0.25 0 0 0 8.427,5.237 Z m 0.14,0.389 h 1.11 V 7.191 H 7.497 V 6.321 L 7.184,6.152 H 7.178 V 5.626 Z"
     id="path2"
     inkscape:connector-curvature="0"
     style="fill:#5beedc" />
</svg>
