<?xml version="1.0" encoding="UTF-8" standalone="no"?>
<svg
   xmlns:dc="http://purl.org/dc/elements/1.1/"
   xmlns:cc="http://creativecommons.org/ns#"
   xmlns:rdf="http://www.w3.org/1999/02/22-rdf-syntax-ns#"
   xmlns:svg="http://www.w3.org/2000/svg"
   xmlns="http://www.w3.org/2000/svg"
   xmlns:sodipodi="http://sodipodi.sourceforge.net/DTD/sodipodi-0.dtd"
   xmlns:inkscape="http://www.inkscape.org/namespaces/inkscape"
   width="48"
   height="48"
   viewBox="0 0 12.7 12.7"
   version="1.1"
   id="svg4"
   sodipodi:docname="mfterm.svg"
   inkscape:version="0.92.5 (2060ec1f9f, 2020-04-08)">
  <metadata
     id="metadata10">
    <rdf:RDF>
      <cc:Work
         rdf:about="">
        <dc:format>image/svg+xml</dc:format>
        <dc:type
           rdf:resource="http://purl.org/dc/dcmitype/StillImage" />
        <dc:title></dc:title>
      </cc:Work>
    </rdf:RDF>
  </metadata>
  <defs
     id="defs8" />
  <sodipodi:namedview
     pagecolor="#ffffff"
     bordercolor="#666666"
     borderopacity="1"
     objecttolerance="10"
     gridtolerance="10"
     guidetolerance="10"
     inkscape:pageopacity="0"
     inkscape:pageshadow="2"
     inkscape:window-width="1085"
     inkscape:window-height="480"
     id="namedview6"
     showgrid="false"
     inkscape:zoom="4.9166667"
     inkscape:cx="2.1355932"
     inkscape:cy="24"
     inkscape:window-x="0"
     inkscape:window-y="25"
     inkscape:window-maximized="0"
     inkscape:current-layer="svg4" />
  <path
     d="M 6.34,0.075 A 6.295,6.295 0 0 0 0.055,6.36 6.295,6.295 0 0 0 6.34,12.655 6.295,6.295 0 0 0 12.634,6.36 6.295,6.295 0 0 0 6.34,0.075 Z m -0.011,0.94 a 5.408,5.408 0 0 1 5.397,5.387 5.407,5.407 0 0 1 -10.814,0 c 0,-2.987 2.43,-5.387 5.417,-5.387 z m 0.874,1.089 a 0.251,0.251 0 0 0 0,0.502 2.86,2.86 0 0 1 2.861,2.86 0.251,0.251 0 0 0 0.502,0 3.363,3.363 0 0 0 -3.363,-3.362 z m 0,1.004 a 0.251,0.251 0 0 0 0,0.502 c 1.026,0 1.857,0.831 1.857,1.857 a 0.251,0.251 0 0 0 0.502,0 2.359,2.359 0 0 0 -2.359,-2.36 z m -3.366,0.36 c -0.832,0 -1.506,0.674 -1.506,1.506 v 3.87 c 0,0.832 0.674,1.506 1.506,1.506 h 3.87 c 0.832,0 1.506,-0.674 1.506,-1.506 V 6.776 a 0.251,0.251 0 0 0 -0.501,0 v 2.068 c 0,0.555 -0.45,1.004 -1.005,1.004 H 3.837 C 3.282,9.848 2.833,9.398 2.833,8.844 V 4.974 C 2.833,4.419 3.283,3.97 3.837,3.97 H 5.89 a 0.2515,0.2515 0 0 0 0,-0.503 H 3.837 Z m 3.366,0.644 a 0.251,0.251 0 0 0 0,0.502 c 0.471,0 0.853,0.382 0.853,0.853 a 0.251,0.251 0 0 0 0.502,0 C 8.558,4.719 7.951,4.112 7.203,4.112 Z M 3.75,4.385 A 0.502,0.502 0 0 0 3.248,4.887 v 4.044 c 0,0.278 0.224,0.503 0.502,0.503 H 6.512 A 0.46,0.46 0 0 0 6.867,9.287 L 8.15,8.004 A 0.459,0.459 0 0 0 8.298,7.649 V 7.16 A 0.502,0.502 0 0 0 7.795,6.658 H 6.637 V 6.383 A 0.338,0.338 0 0 0 6.299,6.045 H 5.246 A 0.339,0.339 0 0 0 4.907,6.383 v 1.053 c 0,0.186 0.152,0.338 0.339,0.338 H 6.299 A 0.338,0.338 0 0 0 6.637,7.436 V 7.16 H 7.794 V 7.65 L 6.512,8.93 H 3.75 V 4.887 h 2.14 a 0.251,0.251 0 0 0 0,-0.502 z m 3.453,0.731 a 0.35,0.35 0 0 0 -0.35,0.35 0.35,0.35 0 0 0 0.35,0.352 0.35,0.35 0 0 0 0.35,-0.351 0.35,0.35 0 0 0 -0.35,-0.351 z"
     id="path2"
     inkscape:connector-curvature="0"
     style="fill:#5beedc" />
</svg>
