<?xml version="1.0" encoding="UTF-8" standalone="no"?>
<svg
   xmlns:dc="http://purl.org/dc/elements/1.1/"
   xmlns:cc="http://creativecommons.org/ns#"
   xmlns:rdf="http://www.w3.org/1999/02/22-rdf-syntax-ns#"
   xmlns:svg="http://www.w3.org/2000/svg"
   xmlns="http://www.w3.org/2000/svg"
   xmlns:sodipodi="http://sodipodi.sourceforge.net/DTD/sodipodi-0.dtd"
   xmlns:inkscape="http://www.inkscape.org/namespaces/inkscape"
   width="48"
   height="48"
   viewBox="0 0 12.7 12.7"
   version="1.1"
   id="svg4"
   sodipodi:docname="mintsources-additional.svg"
   inkscape:version="0.92.5 (2060ec1f9f, 2020-04-08)">
  <defs
     id="defs8">
  <style
     id="current-color-scheme"
     type="text/css">
      .ColorScheme-Highlight {
        color:#5beedc;
      }
  </style>
  </defs>
  <path
     class="ColorScheme-Highlight"
     style="fill:#5beedc"
     d="M 24 0 A 24 24 0 0 0 0 24 A 24 24 0 0 0 24 48 A 24 24 0 0 0 48 24 A 24 24 0 0 0 24 0 z M 24 3 A 21 21 0 0 1 45 24 A 21 21 0 0 1 24 45 A 21 21 0 0 1 3 24 A 21 21 0 0 1 24 3 z M 24 7 A 14 14 0 0 0 10 21 A 14 14 0 0 0 20 34.404297 L 20 32.296875 A 12 12 0 0 1 14.271484 28 L 17.4375 28 A 18 18 0 0 0 20 32.259766 L 20 28.681641 A 16 16 0 0 1 19.640625 28 L 20 28 L 23 28 L 25 28 L 28 28 L 28.351562 28 A 16 16 0 0 1 28 28.638672 L 28 32.28125 A 18 18 0 0 0 30.552734 28 L 33.734375 28 A 12 12 0 0 1 28 32.298828 L 28 34.410156 A 14 14 0 0 0 38 21 A 14 14 0 0 0 24 7 z M 23 9.4140625 L 23 14 L 19.648438 14 A 16 16 0 0 1 23 9.4140625 z M 25 9.453125 A 16 16 0 0 1 28.359375 14 L 25 14 L 25 9.453125 z M 27.958984 9.6855469 A 12 12 0 0 1 33.728516 14 L 30.5625 14 A 18 18 0 0 0 27.958984 9.6855469 z M 20.017578 9.6953125 A 18 18 0 0 0 17.447266 14 L 14.265625 14 A 12 12 0 0 1 20.017578 9.6953125 z M 13.105469 16 L 16.71875 16 A 18 18 0 0 0 16.041016 20 L 12.050781 20 A 12 12 0 0 1 13.105469 16 z M 18.822266 16 L 23 16 L 23 20 L 18.050781 20 A 16 16 0 0 1 18.822266 16 z M 25 16 L 29.166016 16 A 16 16 0 0 1 29.955078 20 L 25 20 L 25 16 z M 31.263672 16 L 34.892578 16 A 12 12 0 0 1 35.953125 20 L 31.947266 20 A 18 18 0 0 0 31.263672 16 z M 12.046875 22 L 16.052734 22 A 18 18 0 0 0 16.736328 26 L 13.107422 26 A 12 12 0 0 1 12.046875 22 z M 18.044922 22 L 23 22 L 23 26 L 18.833984 26 A 16 16 0 0 1 18.044922 22 z M 25 22 L 29.949219 22 A 16 16 0 0 1 29.177734 26 L 25 26 L 25 22 z M 31.958984 22 L 35.949219 22 A 12 12 0 0 1 34.894531 26 L 31.28125 26 A 18 18 0 0 0 31.958984 22 z M 22 30 L 22 38 L 19 38 L 24 43 L 29 38 L 26 38 L 26 30 L 22 30 z "
     transform="scale(0.26458333)"
     id="path817" />
</svg>
