<?xml version="1.0" encoding="UTF-8" standalone="no"?>
<svg
   xmlns:dc="http://purl.org/dc/elements/1.1/"
   xmlns:cc="http://creativecommons.org/ns#"
   xmlns:rdf="http://www.w3.org/1999/02/22-rdf-syntax-ns#"
   xmlns:svg="http://www.w3.org/2000/svg"
   xmlns="http://www.w3.org/2000/svg"
   xmlns:sodipodi="http://sodipodi.sourceforge.net/DTD/sodipodi-0.dtd"
   xmlns:inkscape="http://www.inkscape.org/namespaces/inkscape"
   width="48"
   height="48"
   viewBox="0 0 12.7 12.7"
   version="1.1"
   id="svg4"
   sodipodi:docname="apport.svg"
   inkscape:version="0.92.5 (2060ec1f9f, 2020-04-08)">
  <defs
     id="defs8">
  <style
     id="current-color-scheme"
     type="text/css">
      .ColorScheme-Highlight {
        color:#5beedc;
      }
  </style>
  </defs>
  <path
     class="ColorScheme-Highlight"
     style="fill:#5beedc"
     d="M 24 0 A 24 24 0 0 0 0 24 A 24 24 0 0 0 24 48 A 24 24 0 0 0 48 24 A 24 24 0 0 0 24 0 z M 24 3 A 21 21 0 0 1 45 24 A 21 21 0 0 1 24 45 A 21 21 0 0 1 3 24 A 21 21 0 0 1 24 3 z M 10 13.625 L 10 15.625 L 13.111328 19.125 L 10 22.625 L 10 24.625 L 12 24.625 L 15 21.25 L 18 24.625 L 20 24.625 L 20 22.625 L 16.888672 19.125 L 20 15.625 L 20 13.625 L 18 13.625 L 15 17 L 12 13.625 L 10 13.625 z M 28 14 L 28 16 L 31.111328 19.5 L 28 23 L 28 25 L 30 25 L 33 21.625 L 36 25 L 38 25 L 38 23 L 34.888672 19.5 L 38 16 L 38 14 L 36 14 L 33 17.375 L 30 14 L 28 14 z M 15 30 L 15 32 L 15 35 L 17 35 L 17 32 L 31 32 L 31 35 L 33 35 L 33 32 L 33 30 L 15 30 z "
     transform="scale(0.26458333)"
     id="path833" />
</svg>
