<?xml version="1.0" encoding="UTF-8" standalone="no"?>
<svg
   xmlns:dc="http://purl.org/dc/elements/1.1/"
   xmlns:cc="http://creativecommons.org/ns#"
   xmlns:rdf="http://www.w3.org/1999/02/22-rdf-syntax-ns#"
   xmlns:svg="http://www.w3.org/2000/svg"
   xmlns="http://www.w3.org/2000/svg"
   xmlns:sodipodi="http://sodipodi.sourceforge.net/DTD/sodipodi-0.dtd"
   xmlns:inkscape="http://www.inkscape.org/namespaces/inkscape"
   width="48"
   height="48"
   version="1.1"
   viewBox="0 0 12.7 12.7"
   id="svg4"
   sodipodi:docname="mintupload.svg"
   inkscape:version="0.92.4 (5da689c313, 2019-01-14)">
  <metadata
     id="metadata10">
    <rdf:RDF>
      <cc:Work
         rdf:about="">
        <dc:format>image/svg+xml</dc:format>
        <dc:type
           rdf:resource="http://purl.org/dc/dcmitype/StillImage" />
        <dc:title></dc:title>
      </cc:Work>
    </rdf:RDF>
  </metadata>
  <defs
     id="defs8" />
  <sodipodi:namedview
     pagecolor="#ffffff"
     bordercolor="#666666"
     borderopacity="1"
     objecttolerance="10"
     gridtolerance="10"
     guidetolerance="10"
     inkscape:pageopacity="0"
     inkscape:pageshadow="2"
     inkscape:window-width="1136"
     inkscape:window-height="480"
     id="namedview6"
     showgrid="false"
     inkscape:zoom="4.9166667"
     inkscape:cx="2.1355932"
     inkscape:cy="24"
     inkscape:window-x="0"
     inkscape:window-y="25"
     inkscape:window-maximized="0"
     inkscape:current-layer="svg4" />
  <path
     d="M 6.3401306,0.06976181 A 6.2898603,6.2898603 0 0 0 0.0502702,6.3702053 6.2898603,6.2898603 0 0 0 6.3501846,12.649747 6.2898603,6.2898603 0 0 0 12.630256,6.3598867 6.2898603,6.2898603 0 0 0 6.3403952,0.07002639 Z m -0.020154,0.93015745 0.00982,0.009818 A 5.3998132,5.3998132 0 0 1 11.729873,6.4098154 5.3998132,5.3998132 0 0 1 6.3297953,11.819683 5.3998132,5.3998132 0 0 1 0.91992799,6.4196048 5.3998132,5.3998132 0 0 1 6.3200058,0.9999481 Z M 4.2302183,1.7399231 A 0.20999715,0.20999715 0 0 0 4.0700231,1.8200194 L 2.4598156,3.8601693 a 0.19999867,0.19999867 0 0 0 -0.049609,0.129705 v 5.7101656 c 0,0.1199976 0.099805,0.209804 0.209804,0.209804 h 7.4299354 c 0.119998,0 0.209804,-0.099805 0.209804,-0.209804 V 3.9898743 A 0.19999867,0.19999867 0 0 0 10.21996,3.8601693 L 8.6200715,1.8200194 A 0.20999715,0.20999715 0 0 0 8.4500576,1.7399231 H 4.2302712 Z m 0.099733,0.4103106 v 0.00982 h 1.7998588 v 1.63968 H 3.0297263 L 4.3298988,2.1502361 Z m 2.2199854,0.00982 H 8.3497951 L 9.6499676,3.8100523 H 6.5498838 V 2.160052 Z M 2.8402605,4.2301789 H 9.8402536 V 9.5000833 H 2.8402605 Z m 3.5099183,0.4997122 -1.9802226,2.39982 H 5.2401863 V 9.0298188 H 7.4699872 V 7.1297111 h 0.8604141 z"
     id="path2"
     inkscape:connector-curvature="0"
     style="fill:#5beedc;stroke-width:0.99998009" />
</svg>
