<?xml version="1.0" encoding="UTF-8" standalone="no"?>
<svg
   xmlns:dc="http://purl.org/dc/elements/1.1/"
   xmlns:cc="http://creativecommons.org/ns#"
   xmlns:rdf="http://www.w3.org/1999/02/22-rdf-syntax-ns#"
   xmlns:svg="http://www.w3.org/2000/svg"
   xmlns="http://www.w3.org/2000/svg"
   xmlns:sodipodi="http://sodipodi.sourceforge.net/DTD/sodipodi-0.dtd"
   xmlns:inkscape="http://www.inkscape.org/namespaces/inkscape"
   width="48"
   height="48"
   viewBox="0 0 12.7 12.7"
   version="1.1"
   id="svg12"
   sodipodi:docname="minuet.svg"
   inkscape:version="0.92.4 (5da689c313, 2019-01-14)">
  <metadata
     id="metadata18">
    <rdf:RDF>
      <cc:Work
         rdf:about="">
        <dc:format>image/svg+xml</dc:format>
        <dc:type
           rdf:resource="http://purl.org/dc/dcmitype/StillImage" />
        <dc:title></dc:title>
      </cc:Work>
    </rdf:RDF>
  </metadata>
  <defs
     id="defs16" />
  <sodipodi:namedview
     pagecolor="#ffffff"
     bordercolor="#666666"
     borderopacity="1"
     objecttolerance="10"
     gridtolerance="10"
     guidetolerance="10"
     inkscape:pageopacity="0"
     inkscape:pageshadow="2"
     inkscape:window-width="1112"
     inkscape:window-height="480"
     id="namedview14"
     showgrid="false"
     inkscape:zoom="4.9166667"
     inkscape:cx="2.1355932"
     inkscape:cy="24"
     inkscape:window-x="0"
     inkscape:window-y="25"
     inkscape:window-maximized="0"
     inkscape:current-layer="svg12" />
  <path
     d="m 6.34,0.07 a 6.29,6.29 0 0 0 0,12.58 6.29,6.29 0 0 0 0,-12.58 z M 6.32,1 A 5.417,5.417 0 0 1 11.73,6.41 5.4,5.4 0 0 1 6.33,11.82 5.4,5.4 0 0 1 0.92,6.42 5.4,5.4 0 0 1 6.32,1 Z"
     id="path2"
     inkscape:connector-curvature="0"
     style="fill:#5beedc" />
  <path
     d="m 4.014,3.258 v 0.54 H 4.02 V 5.91 c 0,0.205 0.125,0.373 0.305,0.435 V 9.494 H 4.02 A 0.932,0.932 0 0 1 3.083,8.559 V 4.193 A 0.932,0.932 0 0 1 4.014,3.258 Z"
     id="path4"
     inkscape:connector-curvature="0"
     style="opacity:0.75;fill:#00d400" />
  <path
     d="M 4.946,3.258 H 5.89 v 0.565 h 0.004 v 2.112 c 0,0.202 0.127,0.373 0.307,0.435 V 9.494 H 4.623 V 6.351 A 0.464,0.464 0 0 0 4.946,5.913 V 3.72 Z"
     id="path6"
     inkscape:connector-curvature="0"
     style="opacity:0.75;fill:#00ccff" />
  <path
     d="m 6.822,3.258 h 0.932 v 0.565 h 0.003 v 2.112 c 0,0.202 0.127,0.373 0.307,0.435 V 9.494 H 6.5 V 6.376 A 0.464,0.464 0 0 0 6.823,5.938 V 3.745 Z"
     id="path8"
     inkscape:connector-curvature="0"
     style="opacity:0.75;fill:#0055d4" />
  <path
     d="m 8.685,3.258 a 0.932,0.932 0 0 1 0.92,0.935 V 8.559 A 0.932,0.932 0 0 1 8.667,9.494 H 8.363 V 6.376 A 0.464,0.464 0 0 0 8.685,5.938 V 3.745 Z"
     id="path10"
     inkscape:connector-curvature="0"
     style="opacity:0.75;fill:#cc00ff" />
</svg>
