<?xml version="1.0" encoding="UTF-8" standalone="no"?>
<svg
   xmlns:dc="http://purl.org/dc/elements/1.1/"
   xmlns:cc="http://creativecommons.org/ns#"
   xmlns:rdf="http://www.w3.org/1999/02/22-rdf-syntax-ns#"
   xmlns:svg="http://www.w3.org/2000/svg"
   xmlns="http://www.w3.org/2000/svg"
   xmlns:sodipodi="http://sodipodi.sourceforge.net/DTD/sodipodi-0.dtd"
   xmlns:inkscape="http://www.inkscape.org/namespaces/inkscape"
   width="48"
   height="48"
   viewBox="0 0 12.7 12.7"
   version="1.1"
   id="svg4"
   sodipodi:docname="mitmproxy.svg"
   inkscape:version="0.92.5 (2060ec1f9f, 2020-04-08)">
  <metadata
     id="metadata10">
    <rdf:RDF>
      <cc:Work
         rdf:about="">
        <dc:format>image/svg+xml</dc:format>
        <dc:type
           rdf:resource="http://purl.org/dc/dcmitype/StillImage" />
        <dc:title></dc:title>
      </cc:Work>
    </rdf:RDF>
  </metadata>
  <defs
     id="defs8" />
  <sodipodi:namedview
     pagecolor="#ffffff"
     bordercolor="#666666"
     borderopacity="1"
     objecttolerance="10"
     gridtolerance="10"
     guidetolerance="10"
     inkscape:pageopacity="0"
     inkscape:pageshadow="2"
     inkscape:window-width="1085"
     inkscape:window-height="480"
     id="namedview6"
     showgrid="false"
     inkscape:zoom="4.9166667"
     inkscape:cx="2.1355932"
     inkscape:cy="24"
     inkscape:window-x="0"
     inkscape:window-y="25"
     inkscape:window-maximized="0"
     inkscape:current-layer="svg4" />
  <path
     d="M 6.34,0.075 A 6.295,6.295 0 0 0 0.055,6.36 6.295,6.295 0 0 0 6.34,12.655 6.295,6.295 0 0 0 12.634,6.36 6.295,6.295 0 0 0 6.34,0.075 Z m -0.011,0.94 a 5.408,5.408 0 0 1 3.196,1.06 v 8.673 a 5.407,5.407 0 0 1 -6.35,0.05 V 2.026 A 5.412,5.412 0 0 1 6.329,1.015 Z M 6.35,2.117 c -0.55,0 -0.997,0.482 -0.997,1.077 0,0.595 0.446,1.077 0.997,1.077 0.55,0 0.997,-0.482 0.997,-1.077 0,-0.595 -0.446,-1.077 -0.997,-1.077 z m -3.704,0.34 v 7.907 A 5.407,5.407 0 0 1 0.912,6.402 5.35,5.35 0 0 1 2.646,2.457 Z m 7.408,0.065 a 5.408,5.408 0 0 1 1.672,3.88 5.407,5.407 0 0 1 -1.672,3.907 z m -5.58,2.14 c -0.241,0 -0.436,0.211 -0.436,0.471 v 2.413 c 0,0.26 0.195,0.47 0.435,0.47 0.24,0 0.436,-0.21 0.436,-0.47 V 5.87 h 0.29 L 5.213,5.869 v 4.46 c 0,0.286 0.215,0.518 0.48,0.518 0.264,0 0.48,-0.232 0.48,-0.518 V 8.057 h 0.355 v 2.273 c 0,0.286 0.215,0.518 0.48,0.518 0.264,0 0.479,-0.232 0.479,-0.518 V 5.87 l 0.015,0.001 h 0.29 v 1.675 c 0,0.26 0.194,0.47 0.435,0.47 0.24,0 0.435,-0.21 0.435,-0.47 V 5.133 c 0,-0.26 -0.195,-0.47 -0.435,-0.47 H 4.473 Z"
     id="path2"
     inkscape:connector-curvature="0"
     style="fill:#5beedc" />
</svg>
