<?xml version="1.0" encoding="UTF-8" standalone="no"?>
<svg
   xmlns:dc="http://purl.org/dc/elements/1.1/"
   xmlns:cc="http://creativecommons.org/ns#"
   xmlns:rdf="http://www.w3.org/1999/02/22-rdf-syntax-ns#"
   xmlns:svg="http://www.w3.org/2000/svg"
   xmlns="http://www.w3.org/2000/svg"
   xmlns:sodipodi="http://sodipodi.sourceforge.net/DTD/sodipodi-0.dtd"
   xmlns:inkscape="http://www.inkscape.org/namespaces/inkscape"
   width="48"
   height="48"
   viewBox="0 0 12.7 12.7"
   version="1.1"
   id="svg4"
   sodipodi:docname="mono.svg"
   inkscape:version="0.92.4 (5da689c313, 2019-01-14)">
  <metadata
     id="metadata10">
    <rdf:RDF>
      <cc:Work
         rdf:about="">
        <dc:format>image/svg+xml</dc:format>
        <dc:type
           rdf:resource="http://purl.org/dc/dcmitype/StillImage" />
        <dc:title></dc:title>
      </cc:Work>
    </rdf:RDF>
  </metadata>
  <defs
     id="defs8" />
  <sodipodi:namedview
     pagecolor="#ffffff"
     bordercolor="#666666"
     borderopacity="1"
     objecttolerance="10"
     gridtolerance="10"
     guidetolerance="10"
     inkscape:pageopacity="0"
     inkscape:pageshadow="2"
     inkscape:window-width="861"
     inkscape:window-height="480"
     id="namedview6"
     showgrid="false"
     inkscape:zoom="4.9166667"
     inkscape:cx="2.1355932"
     inkscape:cy="24"
     inkscape:window-x="0"
     inkscape:window-y="25"
     inkscape:window-maximized="0"
     inkscape:current-layer="svg4" />
  <path
     d="m 6.344,0.072 a 6.29,6.29 0 0 0 -6.29,6.29 6.29,6.29 0 0 0 6.29,6.289 6.29,6.29 0 0 0 6.29,-6.29 6.29,6.29 0 0 0 -6.29,-6.29 z M 6.326,1.009 a 5.407,5.407 0 0 1 5.407,5.407 5.407,5.407 0 0 1 -5.407,5.407 5.407,5.407 0 0 1 -3.19,-1.05 l 2.3,-2.792 c 0.022,0.006 0.832,0.35 1.8,0.766 C 8.889,9.457 9.001,9.5 9.045,9.44 9.113,9.349 9.345,8.862 9.467,8.553 L 9.573,8.29 9.397,8.195 C 9.147,8.059 8.782,7.755 8.553,7.493 8.343,7.253 7.965,6.678 7.965,6.598 c 0,-0.027 0.12,0.093 0.268,0.269 0.411,0.49 1.359,1.261 1.419,1.152 C 9.722,7.889 9.77,7.507 9.766,7.062 9.763,6.52 9.692,6.097 9.506,5.515 L 9.4,5.19 8.887,5.029 C 8.603,4.939 8.318,4.85 8.255,4.829 8.031,4.759 8.172,4.762 8.497,4.836 8.887,4.924 9.283,4.996 9.527,5.026 9.746,5.053 9.793,5.011 9.816,4.772 9.846,4.465 9.648,3.616 9.447,3.196 9.367,3.027 9.331,2.99 9.171,2.918 8.773,2.732 7.74,2.558 6.95,2.515 A 6.655,6.655 0 0 0 6.579,2.503 C 6.465,2.503 6.361,2.507 6.273,2.517 5.967,2.547 5.655,2.622 5.556,2.685 5.529,2.706 5.726,2.753 6.063,2.815 6.367,2.872 6.588,2.922 6.555,2.931 6.518,2.936 6.045,2.884 5.493,2.814 4.526,2.689 4.489,2.686 4.419,2.748 A 1.723,1.723 0 0 0 4.033,3.41 C 3.993,3.59 3.997,3.61 4.086,3.792 4.239,4.105 4.524,4.335 5.17,4.662 5.476,4.82 5.72,4.949 5.711,4.959 5.701,4.967 5.441,4.869 5.132,4.74 L 4.566,4.507 3.598,4.778 A 24,24 0 0 1 2.878,4.969 L 2.88,4.979 1.002,5.506 A 5.407,5.407 0 0 1 6.326,1.01 Z"
     id="path2"
     inkscape:connector-curvature="0"
     style="fill:#5beedc" />
</svg>
