<?xml version="1.0" encoding="UTF-8" standalone="no"?>
<svg
   xmlns:dc="http://purl.org/dc/elements/1.1/"
   xmlns:cc="http://creativecommons.org/ns#"
   xmlns:rdf="http://www.w3.org/1999/02/22-rdf-syntax-ns#"
   xmlns:svg="http://www.w3.org/2000/svg"
   xmlns="http://www.w3.org/2000/svg"
   xmlns:sodipodi="http://sodipodi.sourceforge.net/DTD/sodipodi-0.dtd"
   xmlns:inkscape="http://www.inkscape.org/namespaces/inkscape"
   width="48"
   height="48"
   viewBox="0 0 12.7 12.7"
   version="1.1"
   id="svg4"
   sodipodi:docname="mps.svg"
   inkscape:version="0.92.5 (2060ec1f9f, 2020-04-08)">
  <defs
     id="defs8">
  <style
     id="current-color-scheme"
     type="text/css">
      .ColorScheme-Highlight {
        color:#5beedc;
      }
  </style>
  </defs>
  <path
     class="ColorScheme-Highlight"
     style="fill:#5beedc"
     d="M 24 0 A 24 24 0 0 0 0 24 A 24 24 0 0 0 24 48 A 24 24 0 0 0 48 24 A 24 24 0 0 0 24 0 z M 24 3 A 21 21 0 0 1 45 24 A 21 21 0 0 1 24 45 A 21 21 0 0 1 3 24 A 21 21 0 0 1 24 3 z M 24 7 A 17.000006 17.000006 0 0 0 7 24 A 17.000006 17.000006 0 0 0 24 41 A 17.000006 17.000006 0 0 0 41 24 A 17.000006 17.000006 0 0 0 24 7 z M 33.773438 18.748047 C 35.138432 18.748047 36.170187 19.131439 36.867188 19.898438 C 37.405183 20.490432 37.675781 21.180797 37.675781 21.966797 L 35.669922 21.966797 C 35.62292 21.570797 35.506314 21.265685 35.320312 21.054688 C 34.986317 20.667689 34.420094 20.474609 33.621094 20.474609 C 33.147094 20.474609 32.758172 20.559574 32.451172 20.726562 C 32.070172 20.939563 31.880859 21.254875 31.880859 21.671875 C 31.880859 22.015876 32.001186 22.274219 32.242188 22.449219 C 32.382184 22.551221 32.614452 22.640844 32.939453 22.714844 L 35.376953 23.3125 C 36.203953 23.5165 36.812172 23.780469 37.201172 24.105469 C 37.73017 24.541469 37.996094 25.172047 37.996094 25.998047 C 37.996094 27.009047 37.661182 27.792609 36.992188 28.349609 C 36.259186 28.961611 35.279684 29.267578 34.054688 29.267578 C 32.429688 29.267578 31.257968 28.867359 30.542969 28.068359 C 30.031968 27.499361 29.775391 26.786875 29.775391 25.921875 L 31.783203 25.921875 C 31.783203 26.330875 31.902532 26.669451 32.144531 26.939453 C 32.506531 27.338453 33.092391 27.537109 33.900391 27.537109 C 34.495391 27.537109 34.967318 27.454108 35.320312 27.287109 C 35.766312 27.07311 35.990234 26.726141 35.990234 26.244141 C 35.990234 25.883143 35.823283 25.608828 35.488281 25.423828 C 35.265282 25.303829 34.828734 25.164814 34.177734 25.007812 L 33.105469 24.755859 C 32.037469 24.505861 31.308968 24.246514 30.917969 23.978516 C 30.258968 23.524516 29.929686 22.805266 29.929688 21.822266 C 29.929688 21.052264 30.161952 20.403 30.626953 19.875 C 31.285953 19.124001 32.333436 18.748047 33.773438 18.748047 z M 10 19.011719 L 12.548828 19.011719 L 14.855469 22.900391 L 17.175781 19.011719 L 19.697266 19.011719 L 19.697266 29 L 17.746094 29 L 17.746094 22.154297 L 14.851562 27 L 11.978516 22.140625 L 11.951172 29 L 10 29 L 10 19.011719 z M 21 19.011719 L 25.568359 19.011719 C 26.535359 19.011719 27.295656 19.295234 27.847656 19.865234 C 28.400654 20.434234 28.675781 21.216031 28.675781 22.207031 C 28.675781 22.912031 28.481796 23.556625 28.091797 24.140625 C 27.533797 24.974625 26.665328 25.392578 25.486328 25.392578 L 23.089844 25.392578 L 23.089844 29 L 21 29 L 21 19.011719 z M 23.089844 20.738281 L 23.089844 23.664062 L 25.027344 23.664062 C 25.696344 23.664062 26.15158 23.46168 26.392578 23.054688 C 26.522583 22.832689 26.587891 22.518328 26.587891 22.111328 C 26.587891 21.621328 26.441295 21.271593 26.154297 21.058594 C 25.866297 20.845591 25.397047 20.738281 24.748047 20.738281 L 23.089844 20.738281 z M 17 32 L 31 32 L 31 34 L 17 34 L 17 32 z "
     transform="scale(0.26458333)"
     id="path843" />
</svg>
