<?xml version="1.0" encoding="UTF-8" standalone="no"?>
<svg
   xmlns:dc="http://purl.org/dc/elements/1.1/"
   xmlns:cc="http://creativecommons.org/ns#"
   xmlns:rdf="http://www.w3.org/1999/02/22-rdf-syntax-ns#"
   xmlns:svg="http://www.w3.org/2000/svg"
   xmlns="http://www.w3.org/2000/svg"
   xmlns:sodipodi="http://sodipodi.sourceforge.net/DTD/sodipodi-0.dtd"
   xmlns:inkscape="http://www.inkscape.org/namespaces/inkscape"
   width="48"
   height="48"
   viewBox="0 0 12.7 12.7"
   version="1.1"
   id="svg6"
   sodipodi:docname="ms-excel.svg"
   inkscape:version="0.92.4 (5da689c313, 2019-01-14)">
  <metadata
     id="metadata12">
    <rdf:RDF>
      <cc:Work
         rdf:about="">
        <dc:format>image/svg+xml</dc:format>
        <dc:type
           rdf:resource="http://purl.org/dc/dcmitype/StillImage" />
        <dc:title></dc:title>
      </cc:Work>
    </rdf:RDF>
  </metadata>
  <defs
     id="defs10" />
  <sodipodi:namedview
     pagecolor="#ffffff"
     bordercolor="#666666"
     borderopacity="1"
     objecttolerance="10"
     gridtolerance="10"
     guidetolerance="10"
     inkscape:pageopacity="0"
     inkscape:pageshadow="2"
     inkscape:window-width="862"
     inkscape:window-height="480"
     id="namedview8"
     showgrid="false"
     inkscape:zoom="4.9166667"
     inkscape:cx="2.1355932"
     inkscape:cy="24"
     inkscape:window-x="0"
     inkscape:window-y="25"
     inkscape:window-maximized="0"
     inkscape:current-layer="svg6" />
  <path
     d="m 6.34,0.07 a 6.29,6.29 0 1 0 0,12.58 6.29,6.29 0 0 0 0,-12.58 z M 6.32,1 A 5.417,5.417 0 0 1 11.73,6.41 5.4,5.4 0 0 1 6.33,11.82 5.4,5.4 0 0 1 0.92,6.42 5.4,5.4 0 0 1 6.32,1 Z"
     id="path2"
     inkscape:connector-curvature="0"
     style="fill:#5beedc" />
  <path
     d="M 6.505,3.05 C 5.331,3.258 4.155,3.459 2.981,3.663 v 5.358 c 1.168,0.204 2.337,0.4 3.503,0.612 L 6.96,9.726 V 8.944 c 0.793,-0.001 1.587,0.003 2.38,0 C 9.468,8.939 9.66,8.935 9.69,8.776 9.737,8.556 9.712,8.329 9.716,8.106 9.716,6.778 9.714,5.45 9.718,4.121 9.712,3.991 9.721,3.847 9.643,3.734 9.53,3.656 9.388,3.666 9.258,3.66 8.492,3.664 7.726,3.663 6.96,3.663 V 2.974 Z M 6.96,3.892 H 9.486 V 8.715 H 6.96 V 8.255 H 7.572 V 7.72 H 6.96 V 7.413 H 7.572 V 6.878 H 6.96 V 6.57 H 7.572 V 6.034 H 6.96 V 5.73 H 7.572 V 5.195 H 6.96 V 4.888 H 7.572 V 4.353 H 6.96 Z m 0.918,0.46 V 4.887 H 8.95 V 4.352 Z M 5.768,5.038 C 5.564,5.456 5.359,5.875 5.151,6.292 5.361,6.721 5.577,7.146 5.788,7.575 A 44.63,44.63 0 0 1 5.235,7.54 C 5.105,7.22 4.947,6.912 4.853,6.578 4.749,6.888 4.6,7.182 4.481,7.487 4.313,7.485 4.146,7.477 3.978,7.471 4.175,7.086 4.365,6.698 4.568,6.315 4.396,5.921 4.206,5.534 4.028,5.142 L 4.534,5.113 C 4.648,5.413 4.773,5.708 4.867,6.015 4.968,5.69 5.119,5.383 5.248,5.069 5.421,5.057 5.595,5.046 5.768,5.038 Z m 2.11,0.156 V 5.729 H 8.95 V 5.194 Z m 0,0.841 V 6.571 H 8.95 V 6.035 Z m 0,0.843 V 7.413 H 8.95 V 6.878 Z m 0,0.842 V 8.255 H 8.95 V 7.72 Z"
     id="path4"
     inkscape:connector-curvature="0"
     style="opacity:0.75;fill:#217821" />
</svg>
