<?xml version="1.0" encoding="UTF-8" standalone="no"?>
<svg
   xmlns:dc="http://purl.org/dc/elements/1.1/"
   xmlns:cc="http://creativecommons.org/ns#"
   xmlns:rdf="http://www.w3.org/1999/02/22-rdf-syntax-ns#"
   xmlns:svg="http://www.w3.org/2000/svg"
   xmlns="http://www.w3.org/2000/svg"
   xmlns:sodipodi="http://sodipodi.sourceforge.net/DTD/sodipodi-0.dtd"
   xmlns:inkscape="http://www.inkscape.org/namespaces/inkscape"
   width="48"
   height="48"
   viewBox="0 0 12.7 12.7"
   version="1.1"
   id="svg6"
   sodipodi:docname="ms-outlook.svg"
   inkscape:version="0.92.4 (5da689c313, 2019-01-14)">
  <metadata
     id="metadata12">
    <rdf:RDF>
      <cc:Work
         rdf:about="">
        <dc:format>image/svg+xml</dc:format>
        <dc:type
           rdf:resource="http://purl.org/dc/dcmitype/StillImage" />
        <dc:title></dc:title>
      </cc:Work>
    </rdf:RDF>
  </metadata>
  <defs
     id="defs10" />
  <sodipodi:namedview
     pagecolor="#ffffff"
     bordercolor="#666666"
     borderopacity="1"
     objecttolerance="10"
     gridtolerance="10"
     guidetolerance="10"
     inkscape:pageopacity="0"
     inkscape:pageshadow="2"
     inkscape:window-width="862"
     inkscape:window-height="480"
     id="namedview8"
     showgrid="false"
     inkscape:zoom="4.9166667"
     inkscape:cx="2.1355932"
     inkscape:cy="24"
     inkscape:window-x="0"
     inkscape:window-y="25"
     inkscape:window-maximized="0"
     inkscape:current-layer="svg6" />
  <path
     d="m 6.34,0.07 a 6.29,6.29 0 1 0 0,12.58 6.29,6.29 0 0 0 0,-12.58 z M 6.32,1 A 5.417,5.417 0 0 1 11.73,6.41 5.4,5.4 0 0 1 6.33,11.82 5.4,5.4 0 0 1 0.92,6.42 5.4,5.4 0 0 1 6.32,1 Z"
     id="path2"
     inkscape:connector-curvature="0"
     style="fill:#5beedc" />
  <path
     d="M 6.96,2.866 2.904,3.651 v 5.332 l 4.057,0.851 z m 0.257,1.477 v 1.363 l 0.476,0.3 c 0.013,0.004 0.04,0.004 0.053,0 l 2.05,-1.382 c 0,-0.163 -0.153,-0.28 -0.239,-0.28 z m -2.24,0.789 c 0.268,0 0.485,0.109 0.65,0.328 0.166,0.22 0.249,0.508 0.249,0.867 0,0.369 -0.086,0.667 -0.257,0.892 A 0.805,0.805 0 0 1 4.948,7.558 0.794,0.794 0 0 1 4.29,7.23 C 4.121,7.01 4.037,6.726 4.037,6.375 c 0,-0.371 0.086,-0.67 0.258,-0.9 A 0.813,0.813 0 0 1 4.978,5.132 Z m 4.82,0.043 c 0,0 -2.083,1.383 -2.01,1.338 0,0 -0.074,0.045 -0.135,0 L 7.217,6.215 v 1.853 h 2.208 c 0.196,0 0.371,-0.115 0.371,-0.388 z m -4.83,0.411 c -0.149,0 -0.267,0.07 -0.354,0.21 -0.087,0.138 -0.13,0.322 -0.13,0.551 0,0.233 0.043,0.416 0.13,0.551 C 4.7,7.034 4.814,7.101 4.956,7.101 A 0.395,0.395 0 0 0 5.303,6.904 C 5.388,6.772 5.431,6.59 5.431,6.357 5.431,6.114 5.39,5.924 5.307,5.789 5.224,5.654 5.11,5.586 4.967,5.586 Z"
     id="path4"
     inkscape:connector-curvature="0"
     style="opacity:0.75;fill:#37abc8" />
</svg>
