<?xml version="1.0" encoding="UTF-8" standalone="no"?>
<svg
   xmlns:dc="http://purl.org/dc/elements/1.1/"
   xmlns:cc="http://creativecommons.org/ns#"
   xmlns:rdf="http://www.w3.org/1999/02/22-rdf-syntax-ns#"
   xmlns:svg="http://www.w3.org/2000/svg"
   xmlns="http://www.w3.org/2000/svg"
   xmlns:sodipodi="http://sodipodi.sourceforge.net/DTD/sodipodi-0.dtd"
   xmlns:inkscape="http://www.inkscape.org/namespaces/inkscape"
   width="48"
   height="48"
   viewBox="0 0 12.7 12.7"
   version="1.1"
   id="svg6"
   sodipodi:docname="ms-powerpoint.svg"
   inkscape:version="0.92.4 (5da689c313, 2019-01-14)">
  <metadata
     id="metadata12">
    <rdf:RDF>
      <cc:Work
         rdf:about="">
        <dc:format>image/svg+xml</dc:format>
        <dc:type
           rdf:resource="http://purl.org/dc/dcmitype/StillImage" />
        <dc:title></dc:title>
      </cc:Work>
    </rdf:RDF>
  </metadata>
  <defs
     id="defs10" />
  <sodipodi:namedview
     pagecolor="#ffffff"
     bordercolor="#666666"
     borderopacity="1"
     objecttolerance="10"
     gridtolerance="10"
     guidetolerance="10"
     inkscape:pageopacity="0"
     inkscape:pageshadow="2"
     inkscape:window-width="862"
     inkscape:window-height="480"
     id="namedview8"
     showgrid="false"
     inkscape:zoom="4.9166667"
     inkscape:cx="2.1355932"
     inkscape:cy="24"
     inkscape:window-x="0"
     inkscape:window-y="25"
     inkscape:window-maximized="0"
     inkscape:current-layer="svg6" />
  <path
     d="m 6.34,0.07 a 6.29,6.29 0 1 0 0,12.58 6.29,6.29 0 0 0 0,-12.58 z M 6.32,1 A 5.417,5.417 0 0 1 11.73,6.41 5.4,5.4 0 0 1 6.33,11.82 5.4,5.4 0 0 1 0.92,6.42 5.4,5.4 0 0 1 6.32,1 Z"
     id="path2"
     inkscape:connector-curvature="0"
     style="fill:#5beedc" />
  <path
     d="M 6.527,3.047 C 5.341,3.249 4.157,3.458 2.972,3.663 v 5.37 C 4.142,9.24 5.315,9.434 6.484,9.648 L 6.962,9.733 V 8.88 C 7.73,8.88 8.498,8.879 9.265,8.883 9.396,8.876 9.542,8.887 9.655,8.806 9.743,8.669 9.72,8.496 9.728,8.342 9.718,6.907 9.733,5.472 9.72,4.039 A 0.266,0.266 0 0 0 9.423,3.742 C 8.603,3.73 7.783,3.742 6.962,3.738 V 2.967 Z M 6.962,3.968 H 9.495 V 8.65 H 6.962 V 8.036 H 8.804 V 7.73 H 6.962 V 7.346 H 8.804 V 7.039 H 6.963 L 6.961,6.589 C 7.265,6.682 7.611,6.68 7.883,6.497 8.177,6.323 8.33,5.991 8.356,5.659 8.019,5.657 7.682,5.658 7.346,5.658 7.345,5.324 7.349,4.99 7.339,4.658 7.213,4.682 7.087,4.708 6.962,4.735 Z M 7.5,4.496 C 7.498,4.831 7.499,5.167 7.499,5.503 c 0.337,0 0.674,0.002 1.01,-0.002 A 1.08,1.08 0 0 0 7.5,4.496 Z M 4.905,5.039 c 0.207,0 0.404,0.037 0.566,0.184 0.33,0.4 0.243,1.14 -0.248,1.38 C 5.049,6.691 4.85,6.679 4.66,6.673 v 0.9 A 81.303,81.303 0 0 0 4.203,7.535 c -0.007,-0.82 -0.009,-1.64 0,-2.46 0.222,0.01 0.468,-0.036 0.702,-0.036 z M 4.808,5.484 C 4.758,5.484 4.707,5.488 4.659,5.49 4.657,5.748 4.655,6.005 4.672,6.262 4.824,6.244 5.022,6.259 5.11,6.102 A 0.557,0.557 0 0 0 5.1,5.598 C 5.03,5.5 4.92,5.483 4.808,5.484 Z"
     id="path4"
     inkscape:connector-curvature="0"
     style="opacity:0.75;fill:#d45500" />
</svg>
