<?xml version="1.0" encoding="UTF-8" standalone="no"?>
<svg
   xmlns:dc="http://purl.org/dc/elements/1.1/"
   xmlns:cc="http://creativecommons.org/ns#"
   xmlns:rdf="http://www.w3.org/1999/02/22-rdf-syntax-ns#"
   xmlns:svg="http://www.w3.org/2000/svg"
   xmlns="http://www.w3.org/2000/svg"
   xmlns:sodipodi="http://sodipodi.sourceforge.net/DTD/sodipodi-0.dtd"
   xmlns:inkscape="http://www.inkscape.org/namespaces/inkscape"
   width="48"
   height="48"
   viewBox="0 0 12.7 12.7"
   version="1.1"
   id="svg8"
   sodipodi:docname="musicbrainz.svg"
   inkscape:version="0.92.4 (5da689c313, 2019-01-14)">
  <metadata
     id="metadata14">
    <rdf:RDF>
      <cc:Work
         rdf:about="">
        <dc:format>image/svg+xml</dc:format>
        <dc:type
           rdf:resource="http://purl.org/dc/dcmitype/StillImage" />
        <dc:title></dc:title>
      </cc:Work>
    </rdf:RDF>
  </metadata>
  <defs
     id="defs12" />
  <sodipodi:namedview
     pagecolor="#ffffff"
     bordercolor="#666666"
     borderopacity="1"
     objecttolerance="10"
     gridtolerance="10"
     guidetolerance="10"
     inkscape:pageopacity="0"
     inkscape:pageshadow="2"
     inkscape:window-width="861"
     inkscape:window-height="480"
     id="namedview10"
     showgrid="false"
     inkscape:zoom="4.9166667"
     inkscape:cx="2.1355932"
     inkscape:cy="24"
     inkscape:window-x="0"
     inkscape:window-y="25"
     inkscape:window-maximized="0"
     inkscape:current-layer="svg8" />
  <path
     d="M 6.34,0.07 A 6.29,6.29 0 0 0 0.05,6.37 6.29,6.29 0 0 0 6.35,12.65 6.29,6.29 0 0 0 12.63,6.36 6.29,6.29 0 0 0 6.34,0.07 Z M 6.32,1 6.33,1.01 a 5.4,5.4 0 0 1 5.4,5.4 5.4,5.4 0 0 1 -5.4,5.41 A 5.4,5.4 0 0 1 0.92,6.42 5.4,5.4 0 0 1 6.32,1 Z M 5.627,5.05 V 6.664 A 0.675,0.675 0 0 0 5.401,6.624 0.675,0.675 0 0 0 4.727,7.299 0.675,0.675 0 0 0 5.401,7.973 0.675,0.675 0 0 0 6.076,7.299 v -1.8 h 1.35 V 6.214 A 0.675,0.675 0 0 0 7.201,6.174 0.675,0.675 0 0 0 6.526,6.849 0.675,0.675 0 0 0 7.201,7.524 0.675,0.675 0 0 0 7.875,6.849 v -1.8 z"
     id="path2"
     inkscape:connector-curvature="0"
     style="fill:#5beedc" />
  <path
     d="M 6.3,1.901 A 4.498,4.498 0 0 0 1.804,6.4 4.498,4.498 0 0 0 6.302,10.898 V 9.548 A 3.149,3.149 0 0 1 5.988,9.533 3.149,3.149 0 0 1 5.677,9.486 3.149,3.149 0 0 1 5.372,9.408 3.149,3.149 0 0 1 5.076,9.3 3.149,3.149 0 0 1 4.792,9.163 3.149,3.149 0 0 1 4.524,8.998 3.149,3.149 0 0 1 4.274,8.808 3.149,3.149 0 0 1 4.044,8.594 3.149,3.149 0 0 1 3.835,8.357 3.149,3.149 0 0 1 3.652,8.101 3.149,3.149 0 0 1 3.496,7.828 3.149,3.149 0 0 1 3.367,7.541 3.149,3.149 0 0 1 3.268,7.241 3.149,3.149 0 0 1 3.199,6.935 3.149,3.149 0 0 1 3.162,6.623 3.149,3.149 0 0 1 3.153,6.4 3.149,3.149 0 0 1 3.169,6.085 3.149,3.149 0 0 1 3.216,5.775 3.149,3.149 0 0 1 3.294,5.47 3.149,3.149 0 0 1 3.402,5.174 3.149,3.149 0 0 1 3.539,4.89 3.149,3.149 0 0 1 3.704,4.622 3.149,3.149 0 0 1 3.894,4.372 3.149,3.149 0 0 1 4.108,4.142 3.149,3.149 0 0 1 4.345,3.934 3.149,3.149 0 0 1 4.6,3.75 3.149,3.149 0 0 1 4.873,3.593 3.149,3.149 0 0 1 5.16,3.464 3.149,3.149 0 0 1 5.46,3.365 3.149,3.149 0 0 1 5.766,3.295 3.149,3.149 0 0 1 6.078,3.258 3.149,3.149 0 0 1 6.301,3.25 Z"
     id="path4"
     inkscape:connector-curvature="0"
     style="opacity:0.75;fill:#736dab" />
  <path
     d="m 6.3,1.901 v 1.35 A 3.149,3.149 0 0 1 6.616,3.266 3.149,3.149 0 0 1 6.926,3.313 3.149,3.149 0 0 1 7.231,3.391 3.149,3.149 0 0 1 7.527,3.499 3.149,3.149 0 0 1 7.811,3.636 3.149,3.149 0 0 1 8.079,3.8 3.149,3.149 0 0 1 8.329,3.991 3.149,3.149 0 0 1 8.559,4.205 3.149,3.149 0 0 1 8.767,4.442 3.149,3.149 0 0 1 8.95,4.698 3.149,3.149 0 0 1 9.107,4.971 3.149,3.149 0 0 1 9.236,5.258 3.149,3.149 0 0 1 9.335,5.557 3.149,3.149 0 0 1 9.405,5.864 3.149,3.149 0 0 1 9.442,6.176 3.149,3.149 0 0 1 9.45,6.399 3.149,3.149 0 0 1 9.434,6.713 3.149,3.149 0 0 1 9.387,7.024 3.149,3.149 0 0 1 9.309,7.329 3.149,3.149 0 0 1 9.201,7.625 3.149,3.149 0 0 1 9.064,7.909 3.149,3.149 0 0 1 8.9,8.177 3.149,3.149 0 0 1 8.709,8.427 3.149,3.149 0 0 1 8.495,8.657 3.149,3.149 0 0 1 8.258,8.866 3.149,3.149 0 0 1 8.002,9.049 3.149,3.149 0 0 1 7.729,9.205 3.149,3.149 0 0 1 7.442,9.334 3.149,3.149 0 0 1 7.143,9.433 3.149,3.149 0 0 1 6.836,9.502 3.149,3.149 0 0 1 6.524,9.539 3.149,3.149 0 0 1 6.301,9.548 v 1.349 c 0.306,0 0.604,-0.032 0.893,-0.09 a 4.498,4.498 0 0 0 0.002,0 4.498,4.498 0 0 0 0.043,-0.011 C 7.512,10.738 7.777,10.656 8.03,10.55 a 4.498,4.498 0 0 0 0.04,-0.016 c 0.252,-0.108 0.492,-0.24 0.719,-0.39 A 4.498,4.498 0 0 0 8.825,10.121 C 9.046,9.971 9.251,9.799 9.442,9.612 A 4.498,4.498 0 0 0 9.497,9.562 C 9.678,9.378 9.841,9.177 9.989,8.964 a 4.498,4.498 0 0 0 0.059,-0.082 c 0.14,-0.21 0.259,-0.434 0.362,-0.667 a 4.498,4.498 0 0 0 0.05,-0.11 c 0.096,-0.234 0.17,-0.479 0.226,-0.73 a 4.498,4.498 0 0 0 0.026,-0.118 c 0.054,-0.278 0.087,-0.564 0.087,-0.858 0,-0.308 -0.032,-0.608 -0.09,-0.899 A 4.498,4.498 0 0 0 10.7,5.47 4.462,4.462 0 0 0 10.452,4.67 4.498,4.498 0 0 0 10.436,4.63 4.486,4.486 0 0 0 10.049,3.917 4.498,4.498 0 0 0 10.022,3.873 4.517,4.517 0 0 0 9.515,3.258 4.498,4.498 0 0 0 9.464,3.203 4.52,4.52 0 0 0 8.868,2.713 4.498,4.498 0 0 0 8.782,2.651 4.49,4.49 0 0 0 8.117,2.291 4.498,4.498 0 0 0 8.007,2.241 4.466,4.466 0 0 0 7.276,2.014 4.498,4.498 0 0 0 7.159,1.988 4.506,4.506 0 0 0 6.301,1.901 Z"
     id="path6"
     inkscape:connector-curvature="0"
     style="opacity:0.75;fill:#ffba58" />
</svg>
