<?xml version="1.0" encoding="UTF-8" standalone="no"?>
<svg
   xmlns:dc="http://purl.org/dc/elements/1.1/"
   xmlns:cc="http://creativecommons.org/ns#"
   xmlns:rdf="http://www.w3.org/1999/02/22-rdf-syntax-ns#"
   xmlns:svg="http://www.w3.org/2000/svg"
   xmlns="http://www.w3.org/2000/svg"
   xmlns:sodipodi="http://sodipodi.sourceforge.net/DTD/sodipodi-0.dtd"
   xmlns:inkscape="http://www.inkscape.org/namespaces/inkscape"
   width="48"
   height="48"
   viewBox="0 0 12.7 12.7"
   version="1.1"
   id="svg4"
   sodipodi:docname="mx-codecs.svg"
   inkscape:version="0.92.5 (2060ec1f9f, 2020-04-08)">
  <defs
     id="defs8">
  <style
     id="current-color-scheme"
     type="text/css">
      .ColorScheme-Highlight {
        color:#5beedc;
      }
  </style>
  </defs>
  <path
     class="ColorScheme-Highlight"
     style="fill:#5beedc"
     d="M 24 0 A 24 24 0 0 0 0 24 A 24 24 0 0 0 24 48 A 24 24 0 0 0 48 24 A 24 24 0 0 0 24 0 z M 24 3 A 21 21 0 0 1 45 24 A 21 21 0 0 1 24 45 A 21 21 0 0 1 3 24 A 21 21 0 0 1 24 3 z M 11 11 C 10.446 11 10 11.446 10 12 L 10 36 C 10 36.554 10.446 37 11 37 L 37 37 C 37.554 37 38 36.554 38 36 L 38 12 C 38 11.446 37.554 11 37 11 L 11 11 z M 12 12 L 36 12 C 36.554 12 37 12.446 37 13 L 37 35 C 37 35.554 36.554 36 36 36 L 12 36 C 11.446 36 11 35.554 11 35 L 11 13 C 11 12.446 11.446 12 12 12 z M 13 14 L 13 17 L 17 17 L 17 14 L 13 14 z M 19 14 L 19 17 L 23 17 L 23 14 L 19 14 z M 25 14 L 25 17 L 29 17 L 29 14 L 25 14 z M 31 14 L 31 17 L 35 17 L 35 14 L 31 14 z M 24 20 A 3.9999996 3.9999996 0 0 0 20 24 A 3.9999996 3.9999996 0 0 0 24 28 A 3.9999996 3.9999996 0 0 0 28 24 A 3.9999996 3.9999996 0 0 0 24 20 z M 23 22 L 26 24 L 23 26 L 23 22 z M 13 31 L 13 34 L 17 34 L 17 31 L 13 31 z M 19 31 L 19 34 L 23 34 L 23 31 L 19 31 z M 25 31 L 25 34 L 29 34 L 29 31 L 25 31 z M 31 31 L 31 34 L 35 34 L 35 31 L 31 31 z "
     transform="scale(0.26458333)"
     id="path844" />
</svg>
