<?xml version="1.0" encoding="UTF-8" standalone="no"?>
<svg
   xmlns:dc="http://purl.org/dc/elements/1.1/"
   xmlns:cc="http://creativecommons.org/ns#"
   xmlns:rdf="http://www.w3.org/1999/02/22-rdf-syntax-ns#"
   xmlns:svg="http://www.w3.org/2000/svg"
   xmlns="http://www.w3.org/2000/svg"
   xmlns:sodipodi="http://sodipodi.sourceforge.net/DTD/sodipodi-0.dtd"
   xmlns:inkscape="http://www.inkscape.org/namespaces/inkscape"
   width="48"
   height="48"
   viewBox="0 0 12.7 12.7"
   version="1.1"
   id="svg4"
   sodipodi:docname="mx-qsi.svg"
   inkscape:version="0.92.5 (2060ec1f9f, 2020-04-08)">
  <defs
     id="defs8">
  <style
     id="current-color-scheme"
     type="Highlight/css">
      .ColorScheme-Highlight {
        color:#5beedc;
      }
  </style>
  </defs>
  <path
     class="ColorScheme-Highlight"
     style="fill:#5beedc"
     d="M 24 0 A 24 24 0 0 0 0 24 A 24 24 0 0 0 24 48 A 24 24 0 0 0 48 24 A 24 24 0 0 0 24 0 z M 24 3 A 21 21 0 0 1 45 24 A 21 21 0 0 1 24 45 A 21 21 0 0 1 3 24 A 21 21 0 0 1 24 3 z M 12 11 C 10.892 11 10 11.892 10 13 L 10 31 C 10 32.108 10.892 33 12 33 L 19 33 L 19 37 L 13 37 L 13 39 L 35 39 L 35 37 L 29 37 L 29 33 L 36 33 C 37.107999 33 38 32.108 38 31 L 38 13 C 38 11.892 37.107999 11 36 11 L 12 11 z M 13 13 L 35 13 C 35.553999 13 36 13.446 36 14 L 36 30 C 36 30.554 35.553999 31 35 31 L 13 31 C 12.446001 31 12 30.554 12 30 L 12 14 C 12 13.446 12.446001 13 13 13 z M 24 15 A 6.9999999 6.9999999 0 0 0 23.503906 15.017578 A 6.9999999 6.9999999 0 0 0 22.810547 15.101562 A 6.9999999 6.9999999 0 0 0 22.126953 15.255859 A 6.9999999 6.9999999 0 0 0 21.462891 15.476562 A 6.9999999 6.9999999 0 0 0 20.824219 15.761719 A 6.9999999 6.9999999 0 0 0 20.21875 16.109375 A 6.9999999 6.9999999 0 0 0 19.648438 16.517578 A 6.9999999 6.9999999 0 0 0 19.123047 16.978516 A 6.9999999 6.9999999 0 0 0 18.646484 17.490234 A 6.9999999 6.9999999 0 0 0 18.222656 18.046875 A 6.9999999 6.9999999 0 0 0 17.857422 18.644531 A 6.9999999 6.9999999 0 0 0 17.552734 19.273438 A 6.9999999 6.9999999 0 0 0 17.3125 19.931641 A 6.9999999 6.9999999 0 0 0 17.138672 20.609375 A 6.9999999 6.9999999 0 0 0 17.035156 21.300781 A 6.9999999 6.9999999 0 0 0 17 22 A 6.9999999 6.9999999 0 0 0 17.017578 22.496094 A 6.9999999 6.9999999 0 0 0 17.101562 23.189453 A 6.9999999 6.9999999 0 0 0 17.255859 23.873047 A 6.9999999 6.9999999 0 0 0 17.476562 24.537109 A 6.9999999 6.9999999 0 0 0 17.761719 25.175781 A 6.9999999 6.9999999 0 0 0 18.109375 25.78125 A 6.9999999 6.9999999 0 0 0 18.517578 26.351562 A 6.9999999 6.9999999 0 0 0 18.978516 26.876953 A 6.9999999 6.9999999 0 0 0 19.490234 27.353516 A 6.9999999 6.9999999 0 0 0 20.046875 27.777344 A 6.9999999 6.9999999 0 0 0 20.644531 28.142578 A 6.9999999 6.9999999 0 0 0 21.273438 28.447266 A 6.9999999 6.9999999 0 0 0 21.931641 28.6875 A 6.9999999 6.9999999 0 0 0 22.609375 28.861328 A 6.9999999 6.9999999 0 0 0 23.300781 28.964844 A 6.9999999 6.9999999 0 0 0 24 29 A 6.9999999 6.9999999 0 0 0 24.496094 28.982422 A 6.9999999 6.9999999 0 0 0 25.189453 28.898438 A 6.9999999 6.9999999 0 0 0 25.873047 28.744141 A 6.9999999 6.9999999 0 0 0 26.537109 28.523438 A 6.9999999 6.9999999 0 0 0 27.175781 28.238281 A 6.9999999 6.9999999 0 0 0 27.78125 27.890625 A 6.9999999 6.9999999 0 0 0 28.351562 27.482422 A 6.9999999 6.9999999 0 0 0 28.876953 27.021484 A 6.9999999 6.9999999 0 0 0 29.353516 26.509766 A 6.9999999 6.9999999 0 0 0 29.777344 25.953125 A 6.9999999 6.9999999 0 0 0 30.142578 25.355469 A 6.9999999 6.9999999 0 0 0 30.447266 24.726562 A 6.9999999 6.9999999 0 0 0 30.6875 24.068359 A 6.9999999 6.9999999 0 0 0 30.861328 23.390625 A 6.9999999 6.9999999 0 0 0 30.964844 22.699219 A 6.9999999 6.9999999 0 0 0 31 22 A 6.9999999 6.9999999 0 0 0 30.982422 21.503906 A 6.9999999 6.9999999 0 0 0 30.898438 20.810547 A 6.9999999 6.9999999 0 0 0 30.744141 20.126953 A 6.9999999 6.9999999 0 0 0 30.523438 19.462891 A 6.9999999 6.9999999 0 0 0 30.238281 18.824219 A 6.9999999 6.9999999 0 0 0 29.890625 18.21875 A 6.9999999 6.9999999 0 0 0 29.482422 17.648438 A 6.9999999 6.9999999 0 0 0 29.021484 17.123047 A 6.9999999 6.9999999 0 0 0 28.509766 16.646484 A 6.9999999 6.9999999 0 0 0 27.953125 16.222656 A 6.9999999 6.9999999 0 0 0 27.355469 15.857422 A 6.9999999 6.9999999 0 0 0 26.726562 15.552734 A 6.9999999 6.9999999 0 0 0 26.068359 15.3125 A 6.9999999 6.9999999 0 0 0 25.390625 15.138672 A 6.9999999 6.9999999 0 0 0 24.699219 15.035156 A 6.9999999 6.9999999 0 0 0 24 15 z M 24 16 A 5.9999997 5.9999997 0 0 1 30 22 A 5.9999997 5.9999997 0 0 1 24 28 A 5.9999997 5.9999997 0 0 1 18 22 A 5.9999997 5.9999997 0 0 1 24 16 z M 23 17 L 23 19 L 25 19 L 25 17 L 23 17 z M 23 21 L 23 27 L 25 27 L 25 21 L 23 21 z "
     transform="scale(0.26458333)"
     id="path831" />
</svg>
