<?xml version="1.0" encoding="UTF-8" standalone="no"?>
<svg
   xmlns:dc="http://purl.org/dc/elements/1.1/"
   xmlns:cc="http://creativecommons.org/ns#"
   xmlns:rdf="http://www.w3.org/1999/02/22-rdf-syntax-ns#"
   xmlns:svg="http://www.w3.org/2000/svg"
   xmlns="http://www.w3.org/2000/svg"
   xmlns:sodipodi="http://sodipodi.sourceforge.net/DTD/sodipodi-0.dtd"
   xmlns:inkscape="http://www.inkscape.org/namespaces/inkscape"
   width="48"
   height="48"
   viewBox="0 0 12.7 12.7"
   version="1.1"
   id="svg4"
   sodipodi:docname="mx-select-sound.svg"
   inkscape:version="0.92.4 (5da689c313, 2019-01-14)">
  <metadata
     id="metadata10">
    <rdf:RDF>
      <cc:Work
         rdf:about="">
        <dc:format>image/svg+xml</dc:format>
        <dc:type
           rdf:resource="http://purl.org/dc/dcmitype/StillImage" />
        <dc:title></dc:title>
      </cc:Work>
    </rdf:RDF>
  </metadata>
  <defs
     id="defs8" />
  <sodipodi:namedview
     pagecolor="#ffffff"
     bordercolor="#666666"
     borderopacity="1"
     objecttolerance="10"
     gridtolerance="10"
     guidetolerance="10"
     inkscape:pageopacity="0"
     inkscape:pageshadow="2"
     inkscape:window-width="1087"
     inkscape:window-height="480"
     id="namedview6"
     showgrid="false"
     inkscape:zoom="4.9166667"
     inkscape:cx="2.1355932"
     inkscape:cy="24"
     inkscape:window-x="0"
     inkscape:window-y="25"
     inkscape:window-maximized="0"
     inkscape:current-layer="svg4" />
  <path
     d="M 6.34,0.07 A 6.29,6.29 0 0 0 0.05,6.37 6.29,6.29 0 0 0 6.35,12.65 6.29,6.29 0 0 0 12.63,6.36 6.29,6.29 0 0 0 6.34,0.07 Z M 6.33,1.01 a 5.4,5.4 0 0 1 5.4,5.4 5.4,5.4 0 0 1 -5.4,5.41 A 5.4,5.4 0 0 1 0.92,6.42 5.4,5.4 0 0 1 6.32,1 Z M 4.77,2.64 a 0.26,0.26 0 0 0 -0.01,0 C 4.56,2.62 4.66,2.84 4.64,2.96 v 4.9 C 4.61,8.02 4.43,7.99 4.32,7.96 3.62,7.89 2.86,8.37 2.76,9.1 2.66,9.64 3.21,10.1 3.72,10.06 4.43,10.02 5,9.3 4.91,8.59 V 4.63 C 4.93,4.49 5.12,4.48 5.21,4.57 5.86,4.95 6.44,5.57 6.5,6.36 6.52,6.51 6.48,6.9 6.49,6.91 A 2.5,2.5 0 0 0 5.83,4.47 3.4,3.4 0 0 1 4.87,2.66 0.26,0.26 0 0 0 4.77,2.64 Z M 7.28,2.66 A 0.13,0.13 0 0 0 7.15,2.79 V 9.86 C 7.15,9.94 7.21,10 7.29,10 H 7.7 C 7.78,10 7.84,9.94 7.84,9.86 V 8.58 L 7.88,8.59 H 8.9 c 0.09,0 0.17,-0.08 0.17,-0.17 V 7.15 C 9.07,7.05 8.99,6.98 8.9,6.98 H 7.84 V 5.68 L 7.88,5.7 H 8.9 C 8.99,5.7 9.07,5.62 9.07,5.52 V 4.25 C 9.07,4.15 8.99,4.08 8.9,4.08 H 7.88 L 7.84,4.09 V 3.33 h 1.7 c 0.07,0 0.13,-0.06 0.13,-0.14 V 2.79 A 0.13,0.13 0 0 0 9.54,2.66 H 7.29 Z m 0.6,1.9 h 0.73 c 0.04,0 0.07,0.03 0.07,0.07 v 0.51 c 0,0.04 -0.03,0.07 -0.07,0.07 H 7.88 A 0.07,0.07 0 0 1 7.82,5.14 v -0.5 c 0,-0.05 0.03,-0.08 0.06,-0.08 z m 0,2.9 h 0.73 c 0.04,0 0.07,0.03 0.07,0.07 v 0.5 c 0,0.05 -0.03,0.08 -0.07,0.08 H 7.88 A 0.07,0.07 0 0 1 7.82,8.04 V 7.53 c 0,-0.04 0.03,-0.07 0.06,-0.07 z"
     id="path2"
     inkscape:connector-curvature="0"
     style="fill:#5beedc" />
</svg>
