<?xml version="1.0" encoding="UTF-8" standalone="no"?>
<svg
   xmlns:dc="http://purl.org/dc/elements/1.1/"
   xmlns:cc="http://creativecommons.org/ns#"
   xmlns:rdf="http://www.w3.org/1999/02/22-rdf-syntax-ns#"
   xmlns:svg="http://www.w3.org/2000/svg"
   xmlns="http://www.w3.org/2000/svg"
   xmlns:sodipodi="http://sodipodi.sourceforge.net/DTD/sodipodi-0.dtd"
   xmlns:inkscape="http://www.inkscape.org/namespaces/inkscape"
   width="48"
   height="48"
   viewBox="0 0 12.7 12.7"
   version="1.1"
   id="svg4"
   sodipodi:docname="nessus.svg"
   inkscape:version="0.92.5 (2060ec1f9f, 2020-04-08)">
  <metadata
     id="metadata10">
    <rdf:RDF>
      <cc:Work
         rdf:about="">
        <dc:format>image/svg+xml</dc:format>
        <dc:type
           rdf:resource="http://purl.org/dc/dcmitype/StillImage" />
        <dc:title></dc:title>
      </cc:Work>
    </rdf:RDF>
  </metadata>
  <defs
     id="defs8" />
  <sodipodi:namedview
     pagecolor="#ffffff"
     bordercolor="#666666"
     borderopacity="1"
     objecttolerance="10"
     gridtolerance="10"
     guidetolerance="10"
     inkscape:pageopacity="0"
     inkscape:pageshadow="2"
     inkscape:window-width="1085"
     inkscape:window-height="480"
     id="namedview6"
     showgrid="false"
     inkscape:zoom="4.9166667"
     inkscape:cx="2.1355932"
     inkscape:cy="24"
     inkscape:window-x="0"
     inkscape:window-y="25"
     inkscape:window-maximized="0"
     inkscape:current-layer="svg4" />
  <path
     d="M 6.34,0.075 A 6.295,6.295 0 0 0 0.055,6.36 6.295,6.295 0 0 0 6.34,12.655 6.295,6.295 0 0 0 12.634,6.36 6.295,6.295 0 0 0 6.34,0.075 Z m -0.011,0.94 a 5.408,5.408 0 0 1 5.397,5.387 5.407,5.407 0 0 1 -10.814,0 c 0,-2.987 2.43,-5.387 5.417,-5.387 z M 5.174,1.587 1.813,4.885 v 0.406 l 1.175,4.56 4.538,1.262 3.361,-3.298 V 7.409 L 10.857,7.296 9.713,2.85 Z m 0.117,0.859 1.082,0.3 -1.884,0.487 z M 7.359,3.163 7.725,3.536 5.975,3.519 Z M 7.963,3.189 9.377,3.582 9.744,5.004 Z M 4.561,3.884 3.596,5.521 4.012,4.026 4.562,3.884 Z M 8.131,3.95 9.59,5.435 9.386,6.169 Z M 5.005,4.036 5.588,4.042 4.196,5.408 Z M 6.313,4.049 7.81,4.063 8.08,4.54 Z M 5.803,4.334 7.913,4.921 8.417,6.875 6.897,8.366 4.787,7.779 4.283,5.825 Z M 3.327,4.372 2.69,6.664 2.347,5.334 Z M 8.09,4.558 9.081,6.313 8.693,6.972 V 6.897 L 8.678,6.838 Z M 4.007,5.728 V 5.803 L 4.61,8.14 3.618,6.385 4.007,5.727 Z m 6.003,0.307 0.342,1.33 -0.98,0.963 z M 3.315,6.53 3.328,6.554 4.568,8.749 3.111,7.264 Z M 9.104,7.18 8.688,8.674 8.138,8.815 9.104,7.179 Z M 8.504,7.292 7.694,8.663 7.112,8.658 7.754,8.028 Z M 2.956,7.696 4.737,9.51 3.322,9.116 2.956,7.695 Z M 4.62,8.16 5.052,8.28 6.386,8.65 4.89,8.637 Z M 4.975,9.164 6.724,9.18 5.341,9.537 Z M 8.211,9.467 7.408,10.254 6.326,9.953 Z"
     id="path2"
     inkscape:connector-curvature="0"
     style="fill:#5beedc" />
</svg>
