<?xml version="1.0" encoding="UTF-8" standalone="no"?>
<svg
   xmlns:dc="http://purl.org/dc/elements/1.1/"
   xmlns:cc="http://creativecommons.org/ns#"
   xmlns:rdf="http://www.w3.org/1999/02/22-rdf-syntax-ns#"
   xmlns:svg="http://www.w3.org/2000/svg"
   xmlns="http://www.w3.org/2000/svg"
   xmlns:sodipodi="http://sodipodi.sourceforge.net/DTD/sodipodi-0.dtd"
   xmlns:inkscape="http://www.inkscape.org/namespaces/inkscape"
   width="48"
   height="48"
   viewBox="0 0 12.7 12.7"
   version="1.1"
   id="svg8"
   sodipodi:docname="minetest.svg"
   inkscape:version="0.92.4 (5da689c313, 2019-01-14)">
  <metadata
     id="metadata14">
    <rdf:RDF>
      <cc:Work
         rdf:about="">
        <dc:format>image/svg+xml</dc:format>
        <dc:type
           rdf:resource="http://purl.org/dc/dcmitype/StillImage" />
        <dc:title></dc:title>
      </cc:Work>
    </rdf:RDF>
  </metadata>
  <defs
     id="defs12" />
  <sodipodi:namedview
     pagecolor="#ffffff"
     bordercolor="#666666"
     borderopacity="1"
     objecttolerance="10"
     gridtolerance="10"
     guidetolerance="10"
     inkscape:pageopacity="0"
     inkscape:pageshadow="2"
     inkscape:window-width="1112"
     inkscape:window-height="480"
     id="namedview10"
     showgrid="false"
     inkscape:zoom="4.9166667"
     inkscape:cx="2.1355932"
     inkscape:cy="24"
     inkscape:window-x="0"
     inkscape:window-y="25"
     inkscape:window-maximized="0"
     inkscape:current-layer="svg8" />
  <path
     d="m 6.34,0.07 a 6.29,6.29 0 0 0 0,12.58 6.29,6.29 0 0 0 0,-12.58 z M 6.32,1 A 5.417,5.417 0 0 1 11.73,6.41 5.4,5.4 0 0 1 6.33,11.82 5.4,5.4 0 0 1 0.92,6.42 5.4,5.4 0 0 1 6.32,1 Z M 6.35,2.441 5.221,3.093 4.093,3.744 V 6.35 L 5.221,7.002 V 9.607 L 6.35,10.259 7.479,9.607 V 7.002 L 8.607,6.35 V 3.744 L 7.479,3.093 6.35,2.44 Z"
     id="path2"
     inkscape:connector-curvature="0"
     style="fill:#5beedc" />
  <path
     style="color:#000000;overflow:visible;opacity:0.4;marker:none"
     d="M 7.479,3.093 6.35,3.744 V 5.047 L 7.479,4.396 Z m 0,1.303 1.128,0.651 V 3.744 Z M 8.607,5.047 7.479,5.698 V 7.002 L 8.607,6.35 Z M 7.479,7.002 6.35,6.35 v 3.909 L 7.479,9.607 V 8.304 Z M 6.35,6.35 V 5.047 L 5.221,5.698 v 1.304 z"
     overflow="visible"
     id="path4"
     inkscape:connector-curvature="0" />
  <path
     style="color:#000000;overflow:visible;opacity:0.2;marker:none"
     d="M 5.221,3.093 V 4.396 L 6.35,5.047 V 3.744 Z M 6.35,5.047 V 6.35 L 7.479,7.002 V 5.698 Z M 5.221,4.396 4.093,3.744 V 5.047 Z M 4.093,5.047 V 6.35 L 5.221,7.002 V 5.698 Z"
     overflow="visible"
     id="path6"
     inkscape:connector-curvature="0" />
</svg>
