<?xml version="1.0" encoding="UTF-8" standalone="no"?>
<svg
   xmlns:dc="http://purl.org/dc/elements/1.1/"
   xmlns:cc="http://creativecommons.org/ns#"
   xmlns:rdf="http://www.w3.org/1999/02/22-rdf-syntax-ns#"
   xmlns:svg="http://www.w3.org/2000/svg"
   xmlns="http://www.w3.org/2000/svg"
   xmlns:sodipodi="http://sodipodi.sourceforge.net/DTD/sodipodi-0.dtd"
   xmlns:inkscape="http://www.inkscape.org/namespaces/inkscape"
   width="48"
   height="48"
   viewBox="0 0 12.7 12.7"
   version="1.1"
   id="svg6"
   sodipodi:docname="openra-ra.svg"
   inkscape:version="0.92.5 (2060ec1f9f, 2020-04-08)">
  <metadata
     id="metadata12">
    <rdf:RDF>
      <cc:Work
         rdf:about="">
        <dc:format>image/svg+xml</dc:format>
        <dc:type
           rdf:resource="http://purl.org/dc/dcmitype/StillImage" />
        <dc:title></dc:title>
      </cc:Work>
    </rdf:RDF>
  </metadata>
  <defs
     id="defs10" />
  <sodipodi:namedview
     pagecolor="#ffffff"
     bordercolor="#666666"
     borderopacity="1"
     objecttolerance="10"
     gridtolerance="10"
     guidetolerance="10"
     inkscape:pageopacity="0"
     inkscape:pageshadow="2"
     inkscape:window-width="1085"
     inkscape:window-height="480"
     id="namedview8"
     showgrid="false"
     inkscape:zoom="4.9166667"
     inkscape:cx="2.1355932"
     inkscape:cy="24"
     inkscape:window-x="0"
     inkscape:window-y="25"
     inkscape:window-maximized="0"
     inkscape:current-layer="svg6" />
  <path
     d="M 6.416,1.15 5.09,4.708 1.344,4.796 4.314,7.065 3.217,10.738 6.371,8.572 9.451,10.738 8.405,7.094 11.355,4.811 7.622,4.708 6.415,1.152 Z M 6.447,4.34 C 6.672,4.444 6.866,4.548 7.017,4.646 7.399,4.894 7.7,5.292 7.747,5.362 8.13,5.94 8.147,6.412 8.075,6.744 8.005,7.077 7.847,7.263 7.847,7.263 A 0.105,0.105 0 0 0 7.855,7.407 7.04,7.04 0 0 0 8.086,7.64 L 8.063,7.665 A 5.184,5.184 0 0 1 7.697,7.995 L 7.67,8.017 7.613,7.962 7.505,7.852 A 0.105,0.105 0 0 0 7.387,7.829 C 6.636,8.169 6.156,8.056 5.84,7.874 A 1.56,1.56 0 0 1 5.483,7.586 L 5.382,7.475 C 5.367,7.46 5.355,7.447 5.335,7.433 A 0.132,0.132 0 0 0 5.289,7.412 0.126,0.126 0 0 0 5.196,7.43 C 5.172,7.447 5.166,7.457 5.156,7.469 A 0.909,0.909 0 0 0 5.127,7.509 L 5.051,7.618 A 2.198,2.198 0 0 1 4.836,7.883 0.57,0.57 0 0 1 4.602,8.041 C 4.535,8.057 4.486,8.051 4.41,7.963 4.328,7.869 4.33,7.816 4.358,7.747 A 0.631,0.631 0 0 1 4.56,7.524 C 4.656,7.451 4.767,7.387 4.855,7.335 4.899,7.309 4.936,7.286 4.968,7.262 A 0.212,0.212 0 0 0 5.015,7.216 0.124,0.124 0 0 0 5.037,7.169 0.126,0.126 0 0 0 5.029,7.089 C 5.023,7.078 5.026,7.085 5.027,7.083 5.027,7.081 5.034,7.07 5.048,7.058 5.071,7.04 5.092,7.032 5.104,7.027 L 5.251,7.035 A 0.105,0.105 0 0 0 5.337,6.998 c 0,0 0.03,-0.034 0.06,-0.053 A 0.083,0.083 0 0 1 5.423,6.934 c 0.17,0.186 0.3,0.314 0.435,0.401 a 0.922,0.922 0 0 0 0.43,0.148 C 6.624,7.517 6.917,7.343 6.917,7.343 A 0.105,0.105 0 0 0 6.942,7.181 L 5.937,6.099 A 0.105,0.105 0 0 0 5.789,6.093 L 5.595,6.27 C 5.545,6.314 5.496,6.36 5.458,6.392 L 5.446,6.402 5.416,6.377 A 3.852,3.852 0 0 1 5.061,6.009 0.327,0.327 0 0 1 5.033,5.973 C 5.054,5.949 5.083,5.919 5.119,5.883 5.199,5.806 5.305,5.708 5.413,5.609 L 5.717,5.334 5.86,5.206 H 5.876 C 5.907,5.204 5.954,5.205 6.006,5.205 6.112,5.205 6.244,5.207 6.361,5.203 6.497,5.198 6.554,5.179 6.591,5.169 6.602,5.177 6.619,5.188 6.625,5.195 L 6.649,5.224 6.642,5.231 A 3.589,3.589 0 0 1 6.506,5.383 C 6.402,5.493 6.294,5.599 6.294,5.599 A 0.105,0.105 0 0 0 6.291,5.745 C 6.764,6.257 7.285,6.817 7.285,6.817 A 0.105,0.105 0 0 0 7.451,6.801 C 7.654,6.476 7.701,5.863 7.221,5.221 7.091,5.047 6.901,4.79 6.687,4.574 6.592,4.478 6.528,4.418 6.447,4.34 Z"
     id="path2"
     inkscape:connector-curvature="0"
     style="opacity:0.8;fill:#d9112b" />
  <path
     d="M 6.34,0.075 A 6.295,6.295 0 0 0 0.055,6.36 6.295,6.295 0 0 0 6.34,12.655 6.295,6.295 0 0 0 12.634,6.36 6.295,6.295 0 0 0 6.34,0.075 Z m -0.011,0.94 a 5.408,5.408 0 0 1 5.397,5.387 5.407,5.407 0 0 1 -10.814,0 c 0,-2.987 2.43,-5.387 5.417,-5.387 z"
     id="path4"
     inkscape:connector-curvature="0"
     style="fill:#5beedc" />
</svg>
