<?xml version="1.0" encoding="UTF-8" standalone="no"?>
<svg
   xmlns:dc="http://purl.org/dc/elements/1.1/"
   xmlns:cc="http://creativecommons.org/ns#"
   xmlns:rdf="http://www.w3.org/1999/02/22-rdf-syntax-ns#"
   xmlns:svg="http://www.w3.org/2000/svg"
   xmlns="http://www.w3.org/2000/svg"
   xmlns:sodipodi="http://sodipodi.sourceforge.net/DTD/sodipodi-0.dtd"
   xmlns:inkscape="http://www.inkscape.org/namespaces/inkscape"
   width="48"
   height="48"
   viewBox="0 0 12.7 12.7"
   version="1.1"
   id="svg4"
   sodipodi:docname="xournal.svg"
   inkscape:version="0.92.4 (5da689c313, 2019-01-14)">
  <metadata
     id="metadata10">
    <rdf:RDF>
      <cc:Work
         rdf:about="">
        <dc:format>image/svg+xml</dc:format>
        <dc:type
           rdf:resource="http://purl.org/dc/dcmitype/StillImage" />
        <dc:title></dc:title>
      </cc:Work>
    </rdf:RDF>
  </metadata>
  <defs
     id="defs8" />
  <sodipodi:namedview
     pagecolor="#ffffff"
     bordercolor="#666666"
     borderopacity="1"
     objecttolerance="10"
     gridtolerance="10"
     guidetolerance="10"
     inkscape:pageopacity="0"
     inkscape:pageshadow="2"
     inkscape:window-width="1112"
     inkscape:window-height="480"
     id="namedview6"
     showgrid="false"
     inkscape:zoom="4.9166667"
     inkscape:cx="2.1355932"
     inkscape:cy="24"
     inkscape:window-x="0"
     inkscape:window-y="25"
     inkscape:window-maximized="0"
     inkscape:current-layer="svg4" />
  <path
     d="m 6.34,0.07 a 6.29,6.29 0 0 0 0,12.58 6.29,6.29 0 0 0 0,-12.58 z M 6.32,1 A 5.417,5.417 0 0 1 11.73,6.41 5.4,5.4 0 0 1 6.33,11.82 5.4,5.4 0 0 1 0.92,6.42 5.4,5.4 0 0 1 6.32,1 Z M 3.86,2.833 A 0.3,0.3 0 0 0 3.565,3.137 v 0.8 a 0.3,0.3 0 1 0 0.6,0 v -0.8 A 0.3,0.3 0 0 0 3.86,2.833 Z m 5.15,0.01 A 0.3,0.3 0 0 0 8.715,3.147 v 0.8 a 0.3,0.3 0 1 0 0.6,0 v -0.8 A 0.3,0.3 0 0 0 9.009,2.843 Z M 5.14,2.853 A 0.3,0.3 0 0 0 4.845,3.156 v 0.79 a 0.3,0.3 0 1 0 0.6,0 V 3.156 A 0.3,0.3 0 0 0 5.14,2.853 Z m 1.3,0 A 0.3,0.3 0 0 0 6.145,3.156 v 0.79 a 0.3,0.3 0 1 0 0.6,0 V 3.156 A 0.3,0.3 0 0 0 6.439,2.853 Z m 1.27,0 A 0.3,0.3 0 0 0 7.415,3.156 v 0.79 a 0.3,0.3 0 1 0 0.6,0 V 3.156 A 0.3,0.3 0 0 0 7.71,2.853 Z M 2.745,3.436 c -0.22,0 -0.4,0.19 -0.4,0.4 v 5.63 a 0.4,0.4 0 0 0 0.4,0.4 h 7.21 a 0.4,0.4 0 0 0 0.4,-0.4 v -5.63 a 0.4,0.4 0 0 0 -0.4,-0.4 h -0.57 v 0.53 a 0.37,0.37 0 1 1 -0.74,0 v -0.53 h -0.55 v 0.53 a 0.37,0.37 0 1 1 -0.74,0 v -0.53 h -0.55 v 0.53 a 0.37,0.37 0 1 1 -0.74,0 v -0.53 h -0.55 v 0.53 a 0.37,0.37 0 1 1 -0.74,0 v -0.53 h -0.55 v 0.53 a 0.37,0.37 0 0 1 -0.74,0 v -0.53 z m 0.16,1.46 h 6.89 v 2.59 l -0.01,1 v 0.46 c 0,0.18 -0.16,0.33 -0.35,0.33 h -6.19 c -0.19,0 -0.34,-0.15 -0.34,-0.33 z m 4.67,0.403 C 7.491,5.294 7.398,5.318 7.344,5.377 7.054,5.695 6.777,6.023 6.51,6.36 6.232,6.05 5.95,5.744 5.654,5.448 5.524,5.318 5.105,5.493 5.248,5.636 5.592,5.981 5.921,6.339 6.243,6.704 5.742,7.364 5.28,8.054 4.857,8.766 4.744,8.955 5.063,8.997 5.221,8.891 V 8.893 L 5.226,8.888 A 0.212,0.212 0 0 0 5.264,8.853 C 5.39,8.738 5.754,8.411 5.952,8.276 c 0,0 -0.15,-0.042 -0.325,-0.005 C 5.903,7.838 6.195,7.414 6.502,7.001 6.819,7.369 7.129,7.744 7.435,8.123 7.55,8.265 7.973,8.098 7.842,7.935 7.492,7.5 7.136,7.07 6.77,6.65 7.072,6.263 7.388,5.886 7.718,5.524 7.836,5.394 7.718,5.307 7.576,5.299 Z"
     id="path2"
     inkscape:connector-curvature="0"
     style="fill:#5beedc" />
</svg>
