<?xml version="1.0" encoding="UTF-8" standalone="no"?>
<svg
   xmlns:dc="http://purl.org/dc/elements/1.1/"
   xmlns:cc="http://creativecommons.org/ns#"
   xmlns:rdf="http://www.w3.org/1999/02/22-rdf-syntax-ns#"
   xmlns:svg="http://www.w3.org/2000/svg"
   xmlns="http://www.w3.org/2000/svg"
   xmlns:sodipodi="http://sodipodi.sourceforge.net/DTD/sodipodi-0.dtd"
   xmlns:inkscape="http://www.inkscape.org/namespaces/inkscape"
   width="48"
   height="48"
   viewBox="0 0 12.7 12.7"
   version="1.1"
   id="svg4"
   sodipodi:docname="xmind.svg"
   inkscape:version="0.92.5 (2060ec1f9f, 2020-04-08)">
  <defs
     id="defs8">
  <style
     id="current-color-scheme"
     type="text/css">
      .ColorScheme-Highlight {
        color:#5beedc;
      }
  </style>
  </defs>
  <path
     class="ColorScheme-Highlight"
     style="fill:#5beedc"
     d="M 24 0 A 24 24 0 0 0 0 24 A 24 24 0 0 0 24 48 A 24 24 0 0 0 48 24 A 24 24 0 0 0 24 0 z M 24 3 A 21 21 0 0 1 45 24 A 21 21 0 0 1 24 45 A 21 21 0 0 1 3 24 A 21 21 0 0 1 24 3 z M 18 15 C 17.934002 15.001 17.860868 15.006125 17.775391 15.011719 C 17.451419 15.032403 11.336346 16.178101 10.947266 16.291016 C 10.535916 16.410324 10.18532 16.661263 10.099609 16.900391 C 9.9534588 17.306765 10.376407 18.628864 10.935547 19.515625 C 13.166171 22.164499 15.643204 22.836316 18.070312 24.263672 C 18.348872 24.590215 18.459056 24.749215 16.322266 25.695312 C 12.982635 27.174101 11.901339 28.430277 11.261719 30.291016 C 11.072829 30.84084 10.985958 32.296236 11.119141 32.662109 C 11.29199 33.136385 11.396296 33.231234 14.623047 32.619141 C 17.864455 32.004236 17.594915 31.968994 17.865234 31.712891 C 18.085415 31.504288 18.099153 31.45377 18.195312 30.466797 C 18.250713 29.90123 18.365278 28.796467 18.449219 28.503906 C 18.643839 27.824495 19.132906 27.115479 19.666016 26.740234 C 21.687837 25.317282 25.493494 26.025462 27.552734 28.208984 C 28.328665 29.031719 28.816228 30.206419 29.205078 31.482422 C 29.42945 32.218661 29.655926 32.538987 30.009766 32.609375 C 30.335277 32.674035 30.344421 32.57219 34.46875 31.789062 C 36.76295 31.353449 37.716582 31.142147 37.851562 31.037109 C 38.141562 30.811238 38.142653 30.257056 37.853516 29.34375 C 37.357735 27.774486 36.497507 26.732355 34.904297 25.525391 C 34.116117 24.928297 33.12261 24.36354 31.4375 23.556641 C 29.83471 22.789155 29.070313 22.582094 29.070312 22.34375 C 29.070312 22.14667 29.699323 22.058139 30.970703 21.677734 C 33.756533 20.84403 35.099609 19.675247 35.099609 17.509766 C 35.099609 16.55946 34.919527 15.791791 34.640625 15.542969 C 34.269715 15.212028 33.61993 15.202706 32.0625 15.484375 C 27.07016 16.387119 27.41388 16.350733 27.181641 16.726562 C 27.058772 16.925313 27.063171 16.97169 27.289062 17.875 C 27.418421 18.392868 27.522255 19.041114 27.521484 19.191406 C 27.519484 19.511055 27.105463 20.045922 26.902344 20.236328 C 26.405334 20.701954 25.277057 21.017578 24.123047 21.017578 C 22.727267 21.017578 21.677413 20.538204 20.632812 19.425781 C 19.877991 18.621974 19.492746 17.843356 18.978516 16.412109 C 18.526946 15.155066 18.46409 14.991935 18 15 z "
     transform="scale(0.26458333)"
     id="path817" />
</svg>
