<?xml version="1.0" encoding="UTF-8" standalone="no"?>
<svg
   xmlns:dc="http://purl.org/dc/elements/1.1/"
   xmlns:cc="http://creativecommons.org/ns#"
   xmlns:rdf="http://www.w3.org/1999/02/22-rdf-syntax-ns#"
   xmlns:svg="http://www.w3.org/2000/svg"
   xmlns="http://www.w3.org/2000/svg"
   xmlns:sodipodi="http://sodipodi.sourceforge.net/DTD/sodipodi-0.dtd"
   xmlns:inkscape="http://www.inkscape.org/namespaces/inkscape"
   width="48"
   height="48"
   viewBox="0 0 12.7 12.7"
   version="1.1"
   id="svg16"
   sodipodi:docname="netbeans.svg"
   inkscape:version="0.92.4 (5da689c313, 2019-01-14)">
  <metadata
     id="metadata22">
    <rdf:RDF>
      <cc:Work
         rdf:about="">
        <dc:format>image/svg+xml</dc:format>
        <dc:type
           rdf:resource="http://purl.org/dc/dcmitype/StillImage" />
        <dc:title></dc:title>
      </cc:Work>
    </rdf:RDF>
  </metadata>
  <defs
     id="defs20" />
  <sodipodi:namedview
     pagecolor="#ffffff"
     bordercolor="#666666"
     borderopacity="1"
     objecttolerance="10"
     gridtolerance="10"
     guidetolerance="10"
     inkscape:pageopacity="0"
     inkscape:pageshadow="2"
     inkscape:window-width="861"
     inkscape:window-height="480"
     id="namedview18"
     showgrid="false"
     inkscape:zoom="4.9166667"
     inkscape:cx="2.1355932"
     inkscape:cy="24"
     inkscape:window-x="0"
     inkscape:window-y="25"
     inkscape:window-maximized="0"
     inkscape:current-layer="svg16" />
  <path
     d="M 6.34,0.07 A 6.29,6.29 0 0 0 0.05,6.37 6.29,6.29 0 0 0 6.35,12.65 6.29,6.29 0 0 0 12.63,6.36 6.29,6.29 0 0 0 6.34,0.07 Z M 6.32,1 6.33,1.01 a 5.4,5.4 0 0 1 5.4,5.4 5.4,5.4 0 0 1 -5.4,5.41 A 5.4,5.4 0 0 1 0.92,6.42 5.4,5.4 0 0 1 6.32,1 Z"
     id="path2"
     inkscape:connector-curvature="0"
     style="fill:#5beedc" />
  <path
     d="m 6.35,1.472 v 0.54 L 6.467,2.085 9.972,4.115 10.089,4.188 10.556,3.911 6.35,1.47 Z m 0,1.095 V 6.072 L 9.388,4.32 Z"
     id="path4"
     inkscape:connector-curvature="0"
     style="opacity:0.8;fill:#add439" />
  <path
     d="M 6.35,1.472 2.144,3.91 2.611,4.187 2.728,4.115 6.233,2.085 6.35,2.011 v -0.54 z m 0,1.095 L 3.312,4.32 6.35,6.072 Z"
     id="path6"
     inkscape:connector-curvature="0"
     style="opacity:0.8;fill:#86b02f;fill-opacity:0.98299997" />
  <path
     d="M 6.116,6.481 3.078,8.246 V 8.249 L 6.116,10 V 6.48 Z m -3.5,2.034 -0.472,0.274 4.206,2.44 V 10.688 L 6.233,10.615 2.728,8.585 Z"
     id="path8"
     inkscape:connector-curvature="0"
     style="opacity:0.8;fill:#eb2f6a" />
  <path
     d="M 2.144,3.91 V 8.79 L 2.616,8.515 2.611,8.512 V 4.188 L 2.144,3.911 Z M 3.078,4.729 V 8.246 L 6.116,6.481 3.078,4.73 Z"
     id="path10"
     inkscape:connector-curvature="0"
     style="opacity:0.8;fill:#ac1248" />
  <path
     d="m 6.584,6.481 v 3.52 L 9.622,8.25 V 8.247 Z m 3.5,2.034 -0.112,0.07 -3.505,2.03 -0.117,0.073 v 0.54 l 4.206,-2.439 z"
     id="path12"
     inkscape:connector-curvature="0"
     style="opacity:0.8;fill:#2e90e8" />
  <path
     d="m 10.556,3.91 -0.467,0.278 v 4.324 l -0.005,0.003 0.472,0.274 V 3.911 Z M 9.622,4.729 6.584,6.48 9.622,8.245 Z"
     id="path14"
     inkscape:connector-curvature="0"
     style="opacity:0.8;fill:#3471b9" />
</svg>
