<?xml version="1.0" encoding="UTF-8" standalone="no"?>
<svg
   xmlns:dc="http://purl.org/dc/elements/1.1/"
   xmlns:cc="http://creativecommons.org/ns#"
   xmlns:rdf="http://www.w3.org/1999/02/22-rdf-syntax-ns#"
   xmlns:svg="http://www.w3.org/2000/svg"
   xmlns="http://www.w3.org/2000/svg"
   xmlns:sodipodi="http://sodipodi.sourceforge.net/DTD/sodipodi-0.dtd"
   xmlns:inkscape="http://www.inkscape.org/namespaces/inkscape"
   width="48"
   height="48"
   viewBox="0 0 12.7 12.7"
   version="1.1"
   id="svg4"
   sodipodi:docname="nextcloud.svg"
   inkscape:version="0.92.4 (5da689c313, 2019-01-14)">
  <metadata
     id="metadata10">
    <rdf:RDF>
      <cc:Work
         rdf:about="">
        <dc:format>image/svg+xml</dc:format>
        <dc:type
           rdf:resource="http://purl.org/dc/dcmitype/StillImage" />
        <dc:title></dc:title>
      </cc:Work>
    </rdf:RDF>
  </metadata>
  <defs
     id="defs8" />
  <sodipodi:namedview
     pagecolor="#ffffff"
     bordercolor="#666666"
     borderopacity="1"
     objecttolerance="10"
     gridtolerance="10"
     guidetolerance="10"
     inkscape:pageopacity="0"
     inkscape:pageshadow="2"
     inkscape:window-width="862"
     inkscape:window-height="480"
     id="namedview6"
     showgrid="false"
     inkscape:zoom="4.9166667"
     inkscape:cx="2.1355932"
     inkscape:cy="24"
     inkscape:window-x="0"
     inkscape:window-y="25"
     inkscape:window-maximized="0"
     inkscape:current-layer="svg4" />
  <path
     d="m 6.34,0.07 a 6.29,6.29 0 1 0 0,12.58 6.29,6.29 0 0 0 0,-12.58 z M 6.32,1 A 5.417,5.417 0 0 1 11.73,6.41 5.4,5.4 0 0 1 6.33,11.82 5.4,5.4 0 0 1 0.92,6.42 5.4,5.4 0 0 1 6.32,1 Z M 6.35,4.762 A 1.587,1.587 0 0 0 4.812,5.962 1.323,1.323 0 0 0 3.547,5.027 1.323,1.323 0 0 0 2.224,6.35 1.323,1.323 0 0 0 3.547,7.673 1.323,1.323 0 0 0 4.812,6.734 1.587,1.587 0 0 0 6.35,7.937 1.587,1.587 0 0 0 7.888,6.737 1.323,1.323 0 0 0 9.153,7.673 1.323,1.323 0 0 0 10.476,6.35 1.323,1.323 0 0 0 9.153,5.027 1.323,1.323 0 0 0 7.888,5.966 1.587,1.587 0 0 0 6.35,4.762 Z m 0,0.794 A 0.794,0.794 0 0 1 7.144,6.35 0.794,0.794 0 0 1 6.35,7.144 0.794,0.794 0 0 1 5.556,6.35 0.794,0.794 0 0 1 6.35,5.556 Z M 3.547,5.821 A 0.53,0.53 0 0 1 4.077,6.35 0.53,0.53 0 0 1 3.547,6.88 0.53,0.53 0 0 1 3.017,6.35 0.53,0.53 0 0 1 3.547,5.82 Z m 5.606,0 A 0.53,0.53 0 0 1 9.683,6.35 0.53,0.53 0 0 1 9.153,6.88 0.53,0.53 0 0 1 8.623,6.35 0.53,0.53 0 0 1 9.153,5.82 Z"
     id="path2"
     inkscape:connector-curvature="0"
     style="fill:#5beedc" />
</svg>
