<?xml version="1.0" encoding="UTF-8" standalone="no"?>
<svg
   xmlns:dc="http://purl.org/dc/elements/1.1/"
   xmlns:cc="http://creativecommons.org/ns#"
   xmlns:rdf="http://www.w3.org/1999/02/22-rdf-syntax-ns#"
   xmlns:svg="http://www.w3.org/2000/svg"
   xmlns="http://www.w3.org/2000/svg"
   xmlns:sodipodi="http://sodipodi.sourceforge.net/DTD/sodipodi-0.dtd"
   xmlns:inkscape="http://www.inkscape.org/namespaces/inkscape"
   width="48"
   height="48"
   viewBox="0 0 12.7 12.7"
   version="1.1"
   id="svg6"
   sodipodi:docname="nikto.svg"
   inkscape:version="0.92.5 (2060ec1f9f, 2020-04-08)">
  <metadata
     id="metadata12">
    <rdf:RDF>
      <cc:Work
         rdf:about="">
        <dc:format>image/svg+xml</dc:format>
        <dc:type
           rdf:resource="http://purl.org/dc/dcmitype/StillImage" />
        <dc:title></dc:title>
      </cc:Work>
    </rdf:RDF>
  </metadata>
  <defs
     id="defs10" />
  <sodipodi:namedview
     pagecolor="#ffffff"
     bordercolor="#666666"
     borderopacity="1"
     objecttolerance="10"
     gridtolerance="10"
     guidetolerance="10"
     inkscape:pageopacity="0"
     inkscape:pageshadow="2"
     inkscape:window-width="1085"
     inkscape:window-height="480"
     id="namedview8"
     showgrid="false"
     inkscape:zoom="4.9166667"
     inkscape:cx="2.1355932"
     inkscape:cy="24"
     inkscape:window-x="0"
     inkscape:window-y="25"
     inkscape:window-maximized="0"
     inkscape:current-layer="svg6" />
  <path
     d="M 6.34,0.075 A 6.295,6.295 0 0 0 0.055,6.36 6.295,6.295 0 0 0 6.34,12.655 6.295,6.295 0 0 0 12.634,6.36 6.295,6.295 0 0 0 6.34,0.075 Z m -0.011,0.94 a 5.408,5.408 0 0 1 5.397,5.387 5.407,5.407 0 0 1 -10.814,0 c 0,-2.987 2.43,-5.387 5.417,-5.387 z"
     id="path2"
     inkscape:connector-curvature="0"
     style="fill:#5beedc" />
  <path
     d="m 6.35,2.117 c -1.462,0 -3.257,1.352 -3.257,3.352 0,3.967 3.223,5.114 3.257,5.114 0,0 3.257,-1.118 3.257,-5.114 0,-1.98 -1.795,-3.352 -3.257,-3.352 z m -2.557,4.28 0.27,0.01 a 1.834,1.834 0 0 1 0.5,0.092 2.232,2.232 0 0 1 0.415,0.18 2.405,2.405 0 0 1 0.195,0.121 l 0.002,0.002 c 0.335,0.23 0.613,0.549 0.72,0.932 L 5.956,7.952 H 5.947 c 0.015,0.08 0.022,0.16 0.02,0.24 L 5.821,7.964 5.731,7.972 5.643,7.978 A 2.07,2.07 0 0 1 5.15,7.945 1.558,1.558 0 0 1 4.54,7.673 1.529,1.529 0 0 1 4.376,7.528 C 4.154,7.302 3.992,7.003 3.877,6.655 Z m 5.114,0 -0.085,0.258 C 8.69,7.056 8.495,7.393 8.216,7.627 A 1.476,1.476 0 0 1 7.55,7.944 2.005,2.005 0 0 1 6.968,7.972 L 6.878,7.964 6.732,8.192 C 6.73,8.112 6.738,8.032 6.752,7.953 L 6.742,7.952 6.804,7.734 C 6.911,7.351 7.189,7.033 7.524,6.802 L 7.527,6.8 A 2.408,2.408 0 0 1 7.857,6.61 C 8.108,6.491 8.377,6.419 8.636,6.408 l 0.27,-0.011 z"
     id="path4"
     inkscape:connector-curvature="0"
     style="opacity:0.8;fill:#00aa88" />
</svg>
