<?xml version="1.0" encoding="UTF-8" standalone="no"?>
<svg
   xmlns:dc="http://purl.org/dc/elements/1.1/"
   xmlns:cc="http://creativecommons.org/ns#"
   xmlns:rdf="http://www.w3.org/1999/02/22-rdf-syntax-ns#"
   xmlns:svg="http://www.w3.org/2000/svg"
   xmlns="http://www.w3.org/2000/svg"
   xmlns:sodipodi="http://sodipodi.sourceforge.net/DTD/sodipodi-0.dtd"
   xmlns:inkscape="http://www.inkscape.org/namespaces/inkscape"
   width="48"
   height="48"
   viewBox="0 0 12.7 12.7"
   version="1.1"
   id="svg4"
   sodipodi:docname="nishang.svg"
   inkscape:version="0.92.5 (2060ec1f9f, 2020-04-08)">
  <metadata
     id="metadata10">
    <rdf:RDF>
      <cc:Work
         rdf:about="">
        <dc:format>image/svg+xml</dc:format>
        <dc:type
           rdf:resource="http://purl.org/dc/dcmitype/StillImage" />
        <dc:title></dc:title>
      </cc:Work>
    </rdf:RDF>
  </metadata>
  <defs
     id="defs8" />
  <sodipodi:namedview
     pagecolor="#ffffff"
     bordercolor="#666666"
     borderopacity="1"
     objecttolerance="10"
     gridtolerance="10"
     guidetolerance="10"
     inkscape:pageopacity="0"
     inkscape:pageshadow="2"
     inkscape:window-width="1085"
     inkscape:window-height="480"
     id="namedview6"
     showgrid="false"
     inkscape:zoom="4.9166667"
     inkscape:cx="2.1355932"
     inkscape:cy="24"
     inkscape:window-x="0"
     inkscape:window-y="25"
     inkscape:window-maximized="0"
     inkscape:current-layer="svg4" />
  <path
     d="M 6.34,0.075 A 6.295,6.295 0 0 0 0.055,6.36 6.295,6.295 0 0 0 6.34,12.655 6.295,6.295 0 0 0 12.634,6.36 6.295,6.295 0 0 0 6.34,0.075 Z m -0.011,0.94 a 5.408,5.408 0 0 1 5.397,5.387 5.407,5.407 0 0 1 -10.814,0 c 0,-2.987 2.43,-5.387 5.417,-5.387 z m -3.67,2.157 a 0.359,0.359 0 0 0 -0.358,0.36 v 5.637 c 0,0.198 0.16,0.359 0.359,0.359 h 7.38 c 0.198,0 0.359,-0.161 0.359,-0.36 V 3.532 A 0.359,0.359 0 0 0 10.04,3.173 H 2.66 Z M 6.556,4.717 H 6.923 L 8.018,7.258 H 7.651 Z M 4.273,4.792 c 0.647,0 1.02,0.316 1.138,0.964 H 5.026 C 4.94,5.343 4.706,5.125 4.228,5.125 c -0.57,0 -0.927,0.465 -0.927,1.222 0,0.737 0.372,1.207 0.96,1.207 0.493,0 0.732,-0.28 0.821,-0.838 h 0.389 c -0.09,0.781 -0.494,1.17 -1.214,1.17 -1.065,0 -1.333,-0.931 -1.333,-1.534 0,-0.616 0.272,-1.56 1.349,-1.56 z M 5.761,5.779 H 6.149 V 6.166 H 5.761 Z m 0,1.442 H 6.149 V 7.608 H 5.761 V 7.22 Z M 7.619,7.616 H 9.776 V 7.983 H 7.619 Z"
     id="path2"
     inkscape:connector-curvature="0"
     style="fill:#5beedc" />
</svg>
