<?xml version="1.0" encoding="UTF-8" standalone="no"?>
<svg
   xmlns:dc="http://purl.org/dc/elements/1.1/"
   xmlns:cc="http://creativecommons.org/ns#"
   xmlns:rdf="http://www.w3.org/1999/02/22-rdf-syntax-ns#"
   xmlns:svg="http://www.w3.org/2000/svg"
   xmlns="http://www.w3.org/2000/svg"
   xmlns:sodipodi="http://sodipodi.sourceforge.net/DTD/sodipodi-0.dtd"
   xmlns:inkscape="http://www.inkscape.org/namespaces/inkscape"
   width="48"
   height="48"
   viewBox="0 0 12.7 12.7"
   version="1.1"
   id="svg8"
   sodipodi:docname="bluefish.svg"
   inkscape:version="0.92.4 (5da689c313, 2019-01-14)">
  <metadata
     id="metadata14">
    <rdf:RDF>
      <cc:Work
         rdf:about="">
        <dc:format>image/svg+xml</dc:format>
        <dc:type
           rdf:resource="http://purl.org/dc/dcmitype/StillImage" />
        <dc:title></dc:title>
      </cc:Work>
    </rdf:RDF>
  </metadata>
  <defs
     id="defs12" />
  <sodipodi:namedview
     pagecolor="#ffffff"
     bordercolor="#666666"
     borderopacity="1"
     objecttolerance="10"
     gridtolerance="10"
     guidetolerance="10"
     inkscape:pageopacity="0"
     inkscape:pageshadow="2"
     inkscape:window-width="1087"
     inkscape:window-height="480"
     id="namedview10"
     showgrid="false"
     inkscape:zoom="4.9166667"
     inkscape:cx="2.1355932"
     inkscape:cy="24"
     inkscape:window-x="0"
     inkscape:window-y="25"
     inkscape:window-maximized="0"
     inkscape:current-layer="svg8" />
  <g
     id="g6"
     style="fill:#5beedc">
    <path
       d="m 6.344,0.073 a 6.29,6.29 0 0 0 -6.29,6.29 6.29,6.29 0 0 0 6.29,6.288 6.29,6.29 0 0 0 6.29,-6.289 6.29,6.29 0 0 0 -6.29,-6.29 z M 6.326,1.009 A 5.407,5.407 0 0 1 11.733,6.416 5.407,5.407 0 0 1 6.326,11.823 5.407,5.407 0 0 1 0.92,6.416 5.407,5.407 0 0 1 6.326,1.01 Z"
       id="path2"
       inkscape:connector-curvature="0" />
    <path
       d="M 5.15,3.797 C 3.203,3.834 1.855,4.914 1.855,6.313 c 0,1.4 1.537,2.572 3.322,2.59 1.616,0.015 3.354,-1.152 3.932,-2.058 0.269,0.44 0.796,1.007 1.736,1.007 0,0 -0.438,-0.794 -0.438,-1.524 0,-0.73 0.438,-1.48 0.438,-1.48 -0.957,0 -1.488,0.58 -1.752,1.017 C 8.509,5.077 6.824,3.812 5.151,3.797 Z M 3.447,4.711 a 0.683,0.858 0 0 1 0.664,0.858 0.6835,0.85862811 0 1 1 -1.367,0 0.683,0.858 0 0 1 0.703,-0.858 z M 3.434,5.295 a 0.228,0.275 0 0 0 -0.08,0.014 0.114,0.137 0 0 1 0.13,0.137 0.114,0.137 0 0 1 -0.227,0 A 0.114,0.137 0 0 1 3.282,5.357 0.228,0.275 0 0 0 3.2,5.569 0.228,0.275 0 0 0 3.655,5.569 0.228,0.275 0 0 0 3.434,5.295 Z M 3.351,5.31 A 0.114,0.137 0 0 0 3.286,5.354 0.228,0.275 0 0 1 3.351,5.31 Z"
       id="path4"
       inkscape:connector-curvature="0" />
  </g>
</svg>
