<?xml version="1.0" encoding="UTF-8" standalone="no"?>
<svg
   xmlns:dc="http://purl.org/dc/elements/1.1/"
   xmlns:cc="http://creativecommons.org/ns#"
   xmlns:rdf="http://www.w3.org/1999/02/22-rdf-syntax-ns#"
   xmlns:svg="http://www.w3.org/2000/svg"
   xmlns="http://www.w3.org/2000/svg"
   xmlns:sodipodi="http://sodipodi.sourceforge.net/DTD/sodipodi-0.dtd"
   xmlns:inkscape="http://www.inkscape.org/namespaces/inkscape"
   width="48"
   height="48"
   version="1"
   id="svg6"
   sodipodi:docname="nootka.svg"
   inkscape:version="0.92.4 (5da689c313, 2019-01-14)">
  <metadata
     id="metadata12">
    <rdf:RDF>
      <cc:Work
         rdf:about="">
        <dc:format>image/svg+xml</dc:format>
        <dc:type
           rdf:resource="http://purl.org/dc/dcmitype/StillImage" />
        <dc:title></dc:title>
      </cc:Work>
    </rdf:RDF>
  </metadata>
  <defs
     id="defs10" />
  <sodipodi:namedview
     pagecolor="#ffffff"
     bordercolor="#666666"
     borderopacity="1"
     objecttolerance="10"
     gridtolerance="10"
     guidetolerance="10"
     inkscape:pageopacity="0"
     inkscape:pageshadow="2"
     inkscape:window-width="862"
     inkscape:window-height="480"
     id="namedview8"
     showgrid="false"
     inkscape:zoom="4.9166667"
     inkscape:cx="2.1355932"
     inkscape:cy="24"
     inkscape:window-x="0"
     inkscape:window-y="25"
     inkscape:window-maximized="0"
     inkscape:current-layer="svg6" />
  <path
     d="m 3.236,15.5 v 1.058 H 44.948 V 15.5 Z m 0,4.235 v 1.058 h 41.712 v -1.058 z m 0,4.235 v 1.059 H 44.948 V 23.97 Z m 0,4.235 v 1.06 h 41.712 v -1.06 z m 0,4.236 v 1.058 h 41.712 v -1.058 z"
     id="path2"
     inkscape:connector-curvature="0"
     style="opacity:0.5;fill:#5beedc;fill-rule:evenodd" />
  <path
     d="M 23.98,0.227 C 10.85,0.247 0.225,10.907 0.246,24.037 0.266,37.152 10.905,47.773 24.02,47.773 37.134,47.753 47.754,37.115 47.754,24 47.754,10.87 37.11,0.227 23.98,0.227 Z m -0.074,3.515 c 11.272,0 20.448,9.176 20.448,20.447 0.02,11.287 -9.124,20.448 -20.41,20.448 C 12.657,44.657 3.496,35.513 3.496,24.227 3.454,12.925 12.605,3.742 23.906,3.742 Z M 15.93,11 c -0.634,0 -1.162,0.503 -1.479,1.107 -1.056,1.714 -1.055,4.94 -0.527,7.157 0,0 -0.529,0.502 -1.057,1.107 -1.056,1.109 -2.22,2.32 -2.642,3.932 -0.529,1.814 -0.106,3.527 1.056,4.838 1.268,1.511 3.17,2.217 5.494,2.015 0.423,1.915 0.74,3.124 0.106,4.233 -0.211,0.403 -0.634,0.806 -1.373,0.806 -0.212,0 -0.316,0 -0.528,-0.101 0.634,-0.303 1.163,-0.908 1.163,-1.614 0,-1.007 -0.846,-1.812 -1.903,-1.812 -1.796,0.1 -1.902,1.812 -1.902,1.812 0,0.605 0.212,1.21 0.635,1.614 0.528,0.504 1.373,0.906 2.324,0.906 1.162,0 2.323,-0.403 2.746,-2.016 0.423,-1.31 -0.316,-3.425 -0.422,-4.13 1.162,-0.504 2.219,-2.016 2.324,-3.024 0.212,-1.109 -0.211,-2.42 -0.95,-3.326 -0.74,-0.806 -1.797,-1.31 -3.065,-1.21 -0.106,-0.2 -0.528,-2.216 -0.528,-2.216 0,0 1.48,-2.116 1.797,-2.52 1.585,-2.418 1.69,-4.335 0.738,-6.25 C 17.622,11.604 16.776,11 15.93,11 Z m 0.213,2.016 c 0.105,0 0.316,0.1 0.421,0.2 0.423,0.202 0.528,0.605 0.528,1.21 -0.106,1.511 -1.48,3.325 -2.219,3.93 -0.317,-1.411 -0.105,-4.032 0.74,-5.04 a 0.586,0.586 0 0 1 0.53,-0.3 z m -1.692,8.867 c 0.106,0.504 0.424,1.312 0.53,1.715 -1.268,0.504 -2.009,2.115 -1.903,3.425 0,0.605 0.21,1.007 0.527,1.41 0.106,0.101 0.213,0.204 0.319,0.204 0.105,0 0.316,-0.103 0.316,-0.203 a 0.295,0.295 0 0 0 0,-0.403 c -0.105,-0.1 -0.105,-0.2 -0.105,-0.402 -0.106,-0.907 0.528,-1.614 1.267,-1.916 0.106,0.605 0.846,3.73 0.952,4.435 -1.374,0.404 -2.854,0 -3.805,-1.007 -0.74,-0.706 -1.057,-1.715 -0.951,-2.723 0.211,-1.613 1.375,-2.922 2.326,-3.93 0.211,-0.201 0.422,-0.404 0.527,-0.605 z m 1.903,3.527 c 1.373,0 1.796,1.109 1.902,1.512 0.317,1.108 0,2.217 -0.951,2.822 -0.212,-0.705 -0.318,-1.51 -0.53,-2.418 -0.105,-0.605 -0.21,-1.311 -0.421,-1.916 z"
     id="path4"
     inkscape:connector-curvature="0"
     style="fill:#5beedc;fill-opacity:0.98999999" />
</svg>
