<?xml version="1.0" encoding="UTF-8" standalone="no"?>
<svg
   xmlns:dc="http://purl.org/dc/elements/1.1/"
   xmlns:cc="http://creativecommons.org/ns#"
   xmlns:rdf="http://www.w3.org/1999/02/22-rdf-syntax-ns#"
   xmlns:svg="http://www.w3.org/2000/svg"
   xmlns="http://www.w3.org/2000/svg"
   xmlns:sodipodi="http://sodipodi.sourceforge.net/DTD/sodipodi-0.dtd"
   xmlns:inkscape="http://www.inkscape.org/namespaces/inkscape"
   width="48"
   height="48"
   viewBox="0 0 12.7 12.7"
   version="1.1"
   id="svg4"
   sodipodi:docname="openbox.svg"
   inkscape:version="0.92.5 (2060ec1f9f, 2020-04-08)">
  <defs
     id="defs8">
  <style
     id="current-color-scheme"
     type="text/css">
      .ColorScheme-Highlight {
        color:#5beedc;
      }
  </style>
  </defs>
  <path
     class="ColorScheme-Highlight"
     style="fill:#5beedc"
     d="M 24 0 A 24 24 0 0 0 0 24 A 24 24 0 0 0 24 48 A 24 24 0 0 0 48 24 A 24 24 0 0 0 24 0 z M 24 3 A 21 21 0 0 1 45 24 A 21 21 0 0 1 24 45 A 21 21 0 0 1 3 24 A 21 21 0 0 1 24 3 z M 12 11 C 10.337999 11 9 12.338 9 14 L 9 34 C 9 35.662 10.337999 37 12 37 L 36 37 C 37.662001 37 39 35.662 39 34 L 39 14 C 39 12.338 37.662001 11 36 11 L 12 11 z M 11 16 L 37 16 C 37.554 16 38 16.469577 38 17.052734 L 38 34.947266 C 38 35.530423 37.554 36 37 36 L 11 36 C 10.446 36 10 35.530423 10 34.947266 L 10 17.052734 C 10 16.469577 10.446 16 11 16 z M 28.4375 18.789062 A 3 3 0 0 0 26.183594 19.662109 A 3 3 0 0 0 25.603516 23.082031 C 25.590249 23.093786 25.573227 23.098629 25.560547 23.111328 L 24.851562 23.820312 A 2.4999999 2.4999999 0 0 1 24.914062 23.878906 A 2.4999999 2.4999999 0 0 1 25.082031 24.064453 A 2.4999999 2.4999999 0 0 1 25.230469 24.265625 A 2.4999999 2.4999999 0 0 1 25.357422 24.480469 A 2.4999999 2.4999999 0 0 1 25.462891 24.707031 A 2.4999999 2.4999999 0 0 1 25.544922 24.943359 A 2.4999999 2.4999999 0 0 1 25.603516 25.185547 A 2.4999999 2.4999999 0 0 1 25.636719 25.433594 A 2.4999999 2.4999999 0 0 1 25.646484 25.683594 A 2.4999999 2.4999999 0 0 1 25.634766 25.865234 L 26.974609 24.525391 C 26.987309 24.512691 26.992114 24.495631 27.003906 24.482422 A 3 3 0 0 0 30.425781 23.904297 A 3 3 0 0 0 31.009766 20.492188 L 28.947266 22.552734 C 28.768827 22.731173 28.53756 22.822266 28.304688 22.822266 C 28.071816 22.822266 27.838595 22.731173 27.660156 22.552734 L 27.533203 22.425781 C 27.354764 22.247342 27.265625 22.016076 27.265625 21.783203 C 27.265625 21.550331 27.354764 21.317111 27.533203 21.138672 L 29.59375 19.078125 A 3 3 0 0 0 28.4375 18.789062 z M 18.197266 19.195312 C 17.813837 19.195312 17.430522 19.342916 17.136719 19.636719 C 16.549113 20.224325 16.549113 21.170207 17.136719 21.757812 L 22.085938 26.707031 C 22.548555 27.169649 23.231913 27.261908 23.789062 26.996094 L 27.388672 30.595703 L 27.388672 32.009766 L 29.509766 32.716797 L 30.216797 32.009766 L 29.509766 29.888672 L 28.095703 29.888672 L 24.496094 26.289062 C 24.761907 25.731913 24.669649 25.048555 24.207031 24.585938 L 19.257812 19.636719 C 18.96401 19.342916 18.580694 19.195312 18.197266 19.195312 z M 21.322266 27.349609 L 17.611328 31.060547 C 17.267372 31.404503 17.267372 31.96073 17.611328 32.304688 L 17.783203 32.474609 C 18.127159 32.818565 18.681434 32.818565 19.025391 32.474609 L 23.363281 28.136719 A 2.4999999 2.4999999 0 0 1 23.359375 28.136719 A 2.4999999 2.4999999 0 0 1 23.109375 28.146484 A 2.4999999 2.4999999 0 0 1 22.861328 28.130859 A 2.4999999 2.4999999 0 0 1 22.613281 28.089844 A 2.4999999 2.4999999 0 0 1 22.373047 28.023438 A 2.4999999 2.4999999 0 0 1 22.138672 27.935547 A 2.4999999 2.4999999 0 0 1 21.916016 27.822266 A 2.4999999 2.4999999 0 0 1 21.705078 27.689453 A 2.4999999 2.4999999 0 0 1 21.507812 27.535156 A 2.4999999 2.4999999 0 0 1 21.378906 27.414062 A 2.4999999 2.4999999 0 0 1 21.322266 27.349609 z "
     transform="scale(0.26458333)"
     id="path833" />
</svg>
