<?xml version="1.0" encoding="UTF-8" standalone="no"?>
<svg
   width="48"
   height="48"
   viewBox="0 0 12.7 12.7"
   version="1.1"
   id="svg4"
   sodipodi:docname="obs.svg"
   inkscape:version="1.2.1 (9c6d41e410, 2022-07-14, custom)"
   xmlns:inkscape="http://www.inkscape.org/namespaces/inkscape"
   xmlns:sodipodi="http://sodipodi.sourceforge.net/DTD/sodipodi-0.dtd"
   xmlns="http://www.w3.org/2000/svg"
   xmlns:svg="http://www.w3.org/2000/svg">
  <sodipodi:namedview
     id="namedview6"
     pagecolor="#ffffff"
     bordercolor="#000000"
     borderopacity="0.25"
     inkscape:showpageshadow="2"
     inkscape:pageopacity="0.0"
     inkscape:pagecheckerboard="0"
     inkscape:deskcolor="#d1d1d1"
     showgrid="false"
     inkscape:zoom="12.757385"
     inkscape:cx="27.905406"
     inkscape:cy="24.965932"
     inkscape:window-width="1768"
     inkscape:window-height="969"
     inkscape:window-x="138"
     inkscape:window-y="54"
     inkscape:window-maximized="0"
     inkscape:current-layer="layer1" />
  <defs
     id="defs8">
    <style
       id="current-color-scheme"
       type="text/css">
      .ColorScheme-Highlight {
        color:#5beedc;
      }
  </style>
    <radialGradient
       id="radial-gradient-7"
       cx="578.89026"
       cy="473.31943"
       r="353.94183"
       gradientTransform="matrix(0.01225107,0,0,0.01344018,0.08277413,-0.35622249)"
       gradientUnits="userSpaceOnUse">
      <stop
         offset="0"
         stop-color="#c2c0c2"
         id="stop372" />
      <stop
         offset="1"
         stop-color="#ebebeb"
         id="stop374" />
    </radialGradient>
  </defs>
  <path
     class="ColorScheme-Highlight"
     style="fill:#5beedc"
     d="M 24,0 C 10.745166,0 0,10.745166 0,24 0,37.254834 10.745166,48 24,48 37.254834,48 48,37.254834 48,24 48,10.745166 37.254834,0 24,0 Z m 0,3 C 35.59798,3 45,12.40202 45,24 45,35.59798 35.59798,45 24,45 12.40202,45 3,35.59798 3,24 3,12.40202 12.40202,3 24,3 Z"
     id="path817"
     inkscape:connector-curvature="0"
     sodipodi:nodetypes="ssssssssss"
     transform="scale(0.26458333)" />
  <g
     inkscape:groupmode="layer"
     id="layer1"
     inkscape:label="Layer 1">
    <path
       class="cls-9"
       d="M 8.4736248,4.7456601 A 2.4409313,2.4409313 0 0 1 5.0771286,5.6088228 2.4838807,2.4838807 0 0 1 4.5268903,5.1460582 2.437002,2.437002 0 0 1 3.9155836,3.4170254 c 0.00348,-0.070929 0.00943,-0.1416542 0.018706,-0.2120637 0.00915,-0.069387 0.021392,-0.1384686 0.036474,-0.2067185 q 0.023233,-0.1050953 0.055704,-0.2078069 0.031511,-0.099966 0.071836,-0.1969165 c 0.027866,-0.067196 0.058935,-0.1329738 0.092451,-0.1975121 0.035295,-0.067964 0.074402,-0.1340832 0.1161557,-0.198275 q 0.057762,-0.088804 0.123052,-0.1722784 c 0.047222,-0.060653 0.097398,-0.1191687 0.1503318,-0.1749021 q 0.080143,-0.08438 0.1674618,-0.1612474 C 4.8070306,1.6370827 4.8691936,1.5882355 4.9332324,1.5420234 q 0.049524,-0.035737 0.1009058,-0.068752 a 2.9940907,2.9940907 0 0 0 -1.3363675,3.963052 q 0.010056,0.020874 0.020432,0.041594 0.00473,0.00941 0.0095,0.018787 a 0.05635939,0.05635939 0 0 0 0.00575,0.011234 c 0.00398,0.00443 0.00495,0.00368 0.011027,0.00354 0.031584,-5.73e-4 0.063191,-4.365e-4 0.094773,2.576e-4 q 0.087526,0.00192 0.1747715,0.00998 A 2.4450339,2.4450339 0 0 1 6.196697,7.5598861 2.4665033,2.4665033 0 0 1 6.204547,8.2969874 2.4348828,2.4348828 0 0 1 5.6390195,9.5448255 2.4770794,2.4770794 0 0 1 5.0292013,10.056727 2.4485283,2.4485283 0 0 1 3.5082249,10.381312 2.4877867,2.4877867 0 0 1 3.2239686,10.331942 c -0.060697,-0.01425 -0.1207954,-0.03102 -0.1802241,-0.04988 A 2.9721585,2.9721585 0 0 0 3.8835201,10.5145 3.0264626,3.0264626 0 0 0 4.6971166,10.5047 2.9835026,2.9835026 0 0 0 6.028421,9.9547797 3.0142837,3.0142837 0 0 0 6.7602204,9.1820517 q 0.012753,-0.019444 0.025212,-0.039079 c 0.00325,-0.00505 0.010426,-0.013106 0.00949,-0.018474 A 0.10406645,0.10406645 0 0 0 6.7820536,9.1006634 Q 6.7575219,9.0546391 6.7349667,9.007592 6.6896623,8.9130552 6.6526163,8.8148567 A 2.4259489,2.4259489 0 0 1 6.5381835,8.4060942 2.4609257,2.4609257 0 0 1 6.5386747,7.4997529 2.4242608,2.4242608 0 0 1 6.8003246,6.7738117 2.4389562,2.4389562 0 0 1 8.9208605,5.5112284 q 0.089885,-6.277e-4 0.1796435,0.00517 0.086567,0.00575 0.1725938,0.017372 0.085169,0.011647 0.1693999,0.029327 0.082456,0.017408 0.1636134,0.040311 0.07951,0.022556 0.157343,0.050452 0.0789,0.028331 0.155692,0.06204 0.07828,0.03418 0.1538909,0.074069 0.07553,0.039727 0.148238,0.084615 c 0.0455,0.028147 0.09023,0.057643 0.133695,0.088836 q 0.06726,0.048261 0.131407,0.1005582 c 0.04414,0.0359 0.08674,0.07374 0.12817,0.1127346 q 0.06617,0.062277 0.127506,0.1294084 0.06122,0.066732 0.117246,0.1380716 c 0.04165,0.052908 0.08133,0.1074695 0.118347,0.1637155 0.03804,0.057778 0.07398,0.1170637 0.107178,0.177821 a 2.4528449,2.4528449 0 0 1 0.123344,0.2617594 2.5356515,2.5356515 0 0 1 0.09767,0.298574 A 2.9860867,2.9860867 0 0 0 10.672735,5.8643985 3.0096373,3.0096373 0 0 0 9.7537581,5.0989314 2.9752717,2.9752717 0 0 0 8.57829,4.7521719 q -0.052274,-0.0042 -0.1046757,-0.00657 z"
       shape-rendering="geometricPrecision"
       id="path394"
       style="display:inline;fill:#5beedc;stroke-width:0.012251;fill-opacity:1" />
  </g>
</svg>
