<?xml version="1.0" encoding="UTF-8" standalone="no"?>
<svg
   xmlns:dc="http://purl.org/dc/elements/1.1/"
   xmlns:cc="http://creativecommons.org/ns#"
   xmlns:rdf="http://www.w3.org/1999/02/22-rdf-syntax-ns#"
   xmlns:svg="http://www.w3.org/2000/svg"
   xmlns="http://www.w3.org/2000/svg"
   xmlns:xlink="http://www.w3.org/1999/xlink"
   xmlns:sodipodi="http://sodipodi.sourceforge.net/DTD/sodipodi-0.dtd"
   xmlns:inkscape="http://www.inkscape.org/namespaces/inkscape"
   width="48"
   height="48"
   viewBox="0 0 12.7 12.7"
   version="1.1"
   id="svg21"
   sodipodi:docname="offensive-security.svg"
   inkscape:version="0.92.5 (2060ec1f9f, 2020-04-08)">
  <metadata
     id="metadata25">
    <rdf:RDF>
      <cc:Work
         rdf:about="">
        <dc:format>image/svg+xml</dc:format>
        <dc:type
           rdf:resource="http://purl.org/dc/dcmitype/StillImage" />
        <dc:title></dc:title>
      </cc:Work>
    </rdf:RDF>
  </metadata>
  <sodipodi:namedview
     pagecolor="#ffffff"
     bordercolor="#666666"
     borderopacity="1"
     objecttolerance="10"
     gridtolerance="10"
     guidetolerance="10"
     inkscape:pageopacity="0"
     inkscape:pageshadow="2"
     inkscape:window-width="1087"
     inkscape:window-height="480"
     id="namedview23"
     showgrid="false"
     inkscape:zoom="4.9166667"
     inkscape:cx="2.1355932"
     inkscape:cy="24"
     inkscape:window-x="0"
     inkscape:window-y="25"
     inkscape:window-maximized="0"
     inkscape:current-layer="svg21" />
  <defs
     id="defs11">
    <linearGradient
       id="a"
       x1="29.088"
       x2="29.088"
       y1="2.582"
       y2="64.479"
       gradientUnits="userSpaceOnUse"
       gradientTransform="matrix(.61733 0 0 .61733 5.558 2.832)">
      <stop
         stop-color="#fd3535"
         offset="0"
         id="stop2" />
      <stop
         stop-color="#e43030"
         offset=".639"
         id="stop4" />
      <stop
         stop-color="#d41919"
         offset=".639"
         id="stop6" />
      <stop
         stop-color="#bf1717"
         offset="1"
         id="stop8" />
    </linearGradient>
    <linearGradient
       inkscape:collect="always"
       xlink:href="#a"
       id="linearGradient832"
       gradientUnits="userSpaceOnUse"
       gradientTransform="matrix(0.16333317,0,0,0.16333317,1.4705356,0.74929056)"
       x1="29.088"
       y1="2.582"
       x2="29.088"
       y2="64.479" />
    <linearGradient
       inkscape:collect="always"
       xlink:href="#a"
       id="linearGradient834"
       gradientUnits="userSpaceOnUse"
       gradientTransform="matrix(0.16333317,0,0,0.16333317,1.4705356,0.74929056)"
       x1="29.088"
       y1="2.582"
       x2="29.088"
       y2="64.479" />
    <linearGradient
       inkscape:collect="always"
       xlink:href="#a"
       id="linearGradient836"
       gradientUnits="userSpaceOnUse"
       gradientTransform="matrix(0.16333317,0,0,0.16333317,1.4705356,0.74929056)"
       x1="29.088"
       y1="2.582"
       x2="29.088"
       y2="64.479" />
  </defs>
  <path
     d="M 4.5298742,1.3120522 A 5.4069569,5.4069569 0 0 1 4.8854697,1.193785 5.4069569,5.4069569 0 0 1 5.4130423,1.0752531 5.4069569,5.4069569 0 0 1 5.9493459,1.0101664 5.4069569,5.4069569 0 0 1 6.3319286,0.99693744 5.4069569,5.4069569 0 0 1 6.8716718,1.02366 5.4069569,5.4069569 0 0 1 7.4061234,1.1048861 5.4069569,5.4069569 0 0 1 7.9297272,1.2382344 5.4069569,5.4069569 0 0 1 8.1683784,1.3255458 V 0.88581384 H 4.5298742 Z"
     id="path13"
     style="clip-rule:evenodd;opacity:0.7;fill:url(#linearGradient832);fill-rule:evenodd;stroke-width:0.26458001"
     inkscape:connector-curvature="0" />
  <path
     d="m 2.6114046,10.318091 a 5.4069569,5.4069569 0 0 0 0.2370637,0.221189 5.4069569,5.4069569 0 0 0 0.4304717,0.327021 5.4069569,5.4069569 0 0 0 0.4608983,0.282836 5.4069569,5.4069569 0 0 0 0.4862981,0.234947 5.4069569,5.4069569 0 0 0 0.5079936,0.185735 5.4069569,5.4069569 0 0 0 0.5233392,0.133084 5.4069569,5.4069569 0 0 0 0.5344516,0.08123 5.4069569,5.4069569 0 0 0 0.5397432,0.02699 5.4069569,5.4069569 0 0 0 0.3831119,-0.01349 5.4069569,5.4069569 0 0 0 0.5363036,-0.06509 5.4069569,5.4069569 0 0 0 0.5270434,-0.119061 5.4069569,5.4069569 0 0 0 0.5132852,-0.169861 5.4069569,5.4069569 0 0 0 0.4934417,-0.221189 5.4069569,5.4069569 0 0 0 0.4688357,-0.268813 5.4069569,5.4069569 0 0 0 0.4392028,-0.31485 5.4069569,5.4069569 0 0 0 0.3926367,-0.344483 L 8.1678492,7.5730733 8.1683784,1.3255458 A 5.4069569,5.4069569 0 0 0 7.9297272,1.2382344 5.4069569,5.4069569 0 0 0 7.4061234,1.1048861 5.4069569,5.4069569 0 0 0 6.8716718,1.02366 5.4069569,5.4069569 0 0 0 6.3319286,0.99693744 5.4069569,5.4069569 0 0 0 5.9493459,1.0101664 5.4069569,5.4069569 0 0 0 5.4130423,1.0752531 5.4069569,5.4069569 0 0 0 4.8854697,1.193785 5.4069569,5.4069569 0 0 0 4.5298742,1.3120522 V 7.6328684 L 2.6114046,10.318355 Z"
     id="path15"
     style="clip-rule:evenodd;opacity:0.7;fill:url(#linearGradient834);fill-rule:evenodd;stroke-width:0.26458001"
     inkscape:connector-curvature="0" />
  <path
     d="m 2.124842,10.998061 a 6.2898603,6.2898603 0 0 0 0.3169669,0.278603 6.2898603,6.2898603 0 0 0 0.5114331,0.365385 6.2898603,6.2898603 0 0 0 0.2997691,0.171977 h 6.2004323 a 6.2898603,6.2898603 0 0 0 0.4476694,-0.274369 6.2898603,6.2898603 0 0 0 0.5005852,-0.380996 6.2898603,6.2898603 0 0 0 0.17674,-0.164568 L 10.085525,10.294279 A 5.4069569,5.4069569 0 0 1 9.6928883,10.639026 5.4069569,5.4069569 0 0 1 9.2536855,10.953877 5.4069569,5.4069569 0 0 1 8.7848498,11.222425 5.4069569,5.4069569 0 0 1 8.2914081,11.443614 5.4069569,5.4069569 0 0 1 7.7781229,11.613739 5.4069569,5.4069569 0 0 1 7.2510795,11.732536 5.4069569,5.4069569 0 0 1 6.7147759,11.797622 5.4069569,5.4069569 0 0 1 6.3319286,11.810851 5.4069569,5.4069569 0 0 1 5.7919208,11.784393 5.4069569,5.4069569 0 0 1 5.2574692,11.702903 5.4069569,5.4069569 0 0 1 4.73413,11.569819 5.4069569,5.4069569 0 0 1 4.2261364,11.384084 5.4069569,5.4069569 0 0 1 3.7398383,11.149137 5.4069569,5.4069569 0 0 1 3.27894,10.866301 5.4069569,5.4069569 0 0 1 2.8484683,10.53928 5.4069569,5.4069569 0 0 1 2.6111401,10.318091 Z"
     id="path17"
     style="clip-rule:evenodd;opacity:0.7;fill:url(#linearGradient836);fill-rule:evenodd;stroke-width:0.26458001"
     inkscape:connector-curvature="0" />
  <path
     d="M 6.35,0.061 A 6.29,6.29 0 0 0 0.061,6.35 6.29,6.29 0 0 0 6.35,12.639 6.29,6.29 0 0 0 12.639,6.35 6.29,6.29 0 0 0 6.35,0.061 Z M 6.332,0.997 A 5.407,5.407 0 0 1 11.739,6.404 5.407,5.407 0 0 1 6.332,11.811 5.407,5.407 0 0 1 0.925,6.404 5.407,5.407 0 0 1 6.332,0.997 Z M 6.17,1.682 C 6.093,1.656 5.994,1.771 5.966,1.829 5.917,1.925 5.889,2.149 5.917,2.235 c 0.03,0.087 0.106,0.154 0.106,0.232 0,0.077 0.01,0.135 -0.077,0.232 C 5.861,2.793 5.685,2.804 5.524,2.886 A 0.078,0.078 0 0 0 5.492,2.916 C 5.43,3.016 5.429,3.341 5.417,3.549 5.413,3.606 5.423,3.667 5.424,3.724 a 1.99,1.99 0 0 1 0,0.134 C 5.42,3.938 5.402,4.018 5.394,4.099 a 0.389,0.389 0 0 0 0.008,0.116 l 0.055,0.243 c 0.03,0.13 0.06,0.261 0.104,0.387 0.005,0.014 0.01,0.028 0.02,0.04 0.02,0.022 0.059,0.02 0.083,0.041 A 0.17,0.17 0 0 1 5.71,4.997 C 5.73,5.051 5.726,5.11 5.744,5.164 5.792,5.309 5.956,5.956 6.004,6.226 6.029,6.366 6.054,6.675 6.08,6.954 6.092,7.078 6.113,7.196 6.12,7.291 6.127,7.397 6.123,7.478 6.122,7.501 6.117,7.583 6.161,7.514 6.17,7.57 6.174,7.592 6.155,7.61 6.123,7.643 6.035,7.733 5.92,7.826 5.869,7.888 5.825,7.944 5.782,8.001 5.865,8.023 A 0.068,0.068 0 0 0 5.852,8.071 C 5.857,8.115 5.883,8.128 5.916,8.149 5.961,8.179 6.072,8.231 6.083,8.269 6.088,8.286 6.065,8.272 6.045,8.287 6.039,8.291 6.011,8.362 6.002,8.377 A 2.254,2.254 0 0 0 5.884,8.573 0.874,0.874 0 0 1 5.794,8.72 C 5.672,8.873 5.558,9.035 5.432,9.184 A 0.22,0.22 0 0 1 5.307,9.251 L 5.264,9.259 A 0.2,0.2 0 0 0 5.199,9.287 C 5.193,9.291 4.969,9.519 4.881,9.593 a 0.089,0.089 0 0 0 -0.03,0.058 c -0.003,0.02 0.002,0.033 0.004,0.05 A 0.362,0.362 0 0 1 4.836,9.863 C 4.829,9.883 4.816,9.902 4.809,9.921 a 0.414,0.414 0 0 0 -0.02,0.087 c -0.011,0.064 -0.025,0.126 -0.03,0.19 a 0.335,0.335 0 0 0 0.008,0.122 c 0.005,0.02 0.015,0.039 0.034,0.054 0.02,0.014 0.134,0.028 0.165,0.029 0.108,0.004 0.226,0.005 0.331,0.014 0.083,0.007 0.169,0.015 0.243,0.028 a 0.893,0.893 0 0 1 0.237,0.078 c 0.052,0.026 0.066,0.06 0.076,0.094 0.01,0.036 -0.026,0.09 -0.057,0.108 -0.022,0.012 -0.173,0.084 -0.21,0.103 a 0.376,0.376 0 0 0 -0.136,0.136 0.479,0.479 0 0 0 0.002,0.255 c 0.022,0.06 0.059,0.109 0.117,0.152 a 0.88,0.88 0 0 0 0.445,0.141 c 0.025,0 0.133,-0.006 0.186,10e-4 0.027,0.004 0.062,0.012 0.089,0.015 a 0.839,0.839 0 0 0 0.225,0.008 c 0.09,-0.012 0.19,-0.04 0.266,-0.066 A 0.829,0.829 0 0 0 7.027,11.34 C 7.101,11.281 7.111,11.234 7.102,11.154 7.094,11.074 6.935,10.907 6.878,10.846 6.834,10.8 6.711,10.685 6.704,10.67 6.698,10.655 6.697,10.655 6.708,10.643 6.719,10.63 6.96,10.517 7.033,10.503 7.066,10.496 7.49,10.483 7.6,10.476 7.68,10.47 7.815,10.451 7.866,10.379 A 0.603,0.603 0 0 0 7.94,10.077 C 7.928,10.022 7.863,9.794 7.893,9.759 7.922,9.725 7.928,9.712 7.927,9.689 7.925,9.663 7.91,9.609 7.906,9.57 7.902,9.53 7.876,9.468 7.868,9.425 7.858,9.383 7.816,9.313 7.76,9.315 7.7,9.32 7.71,9.343 7.658,9.303 A 0.565,0.565 0 0 1 7.511,9.13 C 7.476,9.062 7.365,8.86 7.353,8.826 7.343,8.796 7.29,8.662 7.283,8.631 A 1.753,1.753 0 0 1 7.267,8.414 c 0,-0.05 -0.03,-0.09 0,-0.101 0.03,-0.01 0.114,-0.065 0.119,-0.131 A 0.075,0.075 0 0 0 7.367,8.122 0.111,0.111 0 0 0 7.387,8.079 C 7.407,8.001 7.258,7.798 7.23,7.73 7.217,7.7 7.201,7.649 7.21,7.616 7.212,7.606 7.226,7.617 7.235,7.605 A 0.503,0.503 0 0 0 7.226,7.451 4.026,4.026 0 0 1 7.181,7.111 C 7.179,7.046 7.167,6.659 7.158,6.572 7.148,6.485 7.093,6.092 7.101,5.927 7.12,5.595 7.101,4.883 7.121,4.835 7.14,4.786 7.217,4.805 7.255,4.757 7.294,4.709 7.285,4.68 7.294,4.593 a 0.864,0.864 0 0 0 -0.029,-0.28 0.78,0.78 0 0 1 0,-0.261 C 7.275,3.965 7.197,3.945 7.149,3.888 7.101,3.83 7.159,3.433 7.139,3.298 L 7.132,3.248 A 6.77,6.77 0 0 0 7.084,2.992 C 7.072,2.935 7.064,2.872 7.044,2.818 7.012,2.726 6.876,2.714 6.795,2.69 A 6.392,6.392 0 0 0 6.553,2.621 C 6.514,2.611 6.399,2.515 6.389,2.467 6.379,2.418 6.572,2.138 6.562,1.964 A 0.32,0.32 0 0 0 6.43,1.739 0.294,0.294 0 0 0 6.338,1.687 C 6.293,1.674 6.257,1.71 6.214,1.701 6.198,1.698 6.184,1.687 6.17,1.682 Z m 0.3,3.715 c 0.01,0.002 0.019,0.013 0.026,0.03 0.013,0.036 0.068,0.27 0.074,0.358 0.01,0.132 0.06,0.433 0.058,0.549 -0.003,0.115 0.054,0.497 0.067,0.564 0.014,0.067 0.024,0.172 0.031,0.286 0.008,0.113 0,0.252 -0.002,0.352 0,0.04 0.032,0.027 0.021,0.055 -0.016,0.042 -0.037,0.201 -0.02,0.23 A 0.268,0.268 0 0 0 6.741,7.844 0.067,0.067 0 0 0 6.716,7.89 C 6.71,7.956 6.777,8.065 6.738,8.075 6.711,8.083 6.715,8.105 6.714,8.149 a 4.66,4.66 0 0 0 0,0.3 C 6.719,8.496 6.709,8.541 6.706,8.588 6.699,8.69 6.668,8.834 6.636,8.858 A 0.147,0.147 0 0 1 6.544,8.886 0.102,0.102 0 0 1 6.472,8.847 C 6.389,8.731 6.444,8.535 6.482,8.386 6.483,8.377 6.467,8.369 6.469,8.361 6.482,8.314 6.525,8.295 6.532,8.258 6.555,8.134 6.517,8.116 6.438,8.084 6.404,8.07 6.339,8.069 6.304,8.059 A 1.34,1.34 0 0 1 6.17,7.999 c 0,0 0.093,-0.054 0.142,-0.064 C 6.36,7.925 6.458,7.886 6.506,7.871 6.58,7.847 6.577,7.808 6.585,7.733 6.592,7.664 6.534,7.589 6.528,7.526 6.525,7.491 6.565,7.515 6.562,7.484 6.556,7.422 6.587,7.279 6.575,7.174 6.557,7.014 6.504,6.834 6.495,6.715 6.492,6.663 6.465,6.405 6.455,6.132 6.452,6.042 6.462,5.95 6.462,5.864 6.46,5.624 6.419,5.434 6.432,5.419 6.446,5.402 6.459,5.395 6.469,5.397 Z"
     id="path19"
     inkscape:connector-curvature="0"
     style="clip-rule:evenodd;fill:#5beedc;fill-rule:evenodd" />
</svg>
