<?xml version="1.0" encoding="UTF-8" standalone="no"?>
<svg
   xmlns:dc="http://purl.org/dc/elements/1.1/"
   xmlns:cc="http://creativecommons.org/ns#"
   xmlns:rdf="http://www.w3.org/1999/02/22-rdf-syntax-ns#"
   xmlns:svg="http://www.w3.org/2000/svg"
   xmlns="http://www.w3.org/2000/svg"
   xmlns:sodipodi="http://sodipodi.sourceforge.net/DTD/sodipodi-0.dtd"
   xmlns:inkscape="http://www.inkscape.org/namespaces/inkscape"
   width="48"
   height="48"
   viewBox="0 0 12.7 12.7"
   version="1.1"
   id="svg4"
   sodipodi:docname="libreoffice-base.svg"
   inkscape:version="0.92.5 (2060ec1f9f, 2020-04-08)">
  <defs
     id="defs8">
  <style
     id="current-color-scheme"
     type="text/css">
      .ColorScheme-Highlight {
        color:#5beedc;
      }
  </style>
  </defs>
  <path
     class="ColorScheme-Highlight"
     style="fill:#5beedc"
     d="M 24 0 A 24 24 0 0 0 0 24 A 24 24 0 0 0 24 48 A 24 24 0 0 0 48 24 A 24 24 0 0 0 24 0 z M 24 3 A 21 21 0 0 1 45 24 A 21 21 0 0 1 24 45 A 21 21 0 0 1 3 24 A 21 21 0 0 1 24 3 z M 24 10 A 12 3 0 0 0 12 13 L 12 17 A 12 3 0 0 0 24 20 A 12 3 0 0 0 36 17 L 36 13 A 12 3 0 0 0 24 10 z M 12 19 L 12 23 A 12 3 0 0 0 24 26 A 12 3 0 0 0 36 23 L 36 19 A 12 3 0 0 1 35.939453 19.298828 A 12 3 0 0 1 35.761719 19.595703 A 12 3 0 0 1 35.464844 19.886719 A 12 3 0 0 1 35.052734 20.167969 A 12 3 0 0 1 34.53125 20.4375 A 12 3 0 0 1 33.904297 20.693359 A 12 3 0 0 1 33.177734 20.933594 A 12 3 0 0 1 32.361328 21.152344 A 12 3 0 0 1 31.458984 21.349609 A 12 3 0 0 1 30.484375 21.523438 A 12 3 0 0 1 29.443359 21.673828 A 12 3 0 0 1 28.347656 21.796875 A 12 3 0 0 1 27.210938 21.890625 A 12 3 0 0 1 26.039062 21.957031 A 12 3 0 0 1 24.849609 21.992188 A 12 3 0 0 1 24 22 A 12 3 0 0 1 22.802734 21.984375 A 12 3 0 0 1 21.615234 21.939453 A 12 3 0 0 1 20.453125 21.865234 A 12 3 0 0 1 19.326172 21.763672 A 12 3 0 0 1 18.246094 21.632812 A 12 3 0 0 1 17.224609 21.476562 A 12 3 0 0 1 16.269531 21.294922 A 12 3 0 0 1 15.392578 21.089844 A 12 3 0 0 1 14.599609 20.865234 A 12 3 0 0 1 13.902344 20.621094 A 12 3 0 0 1 13.304688 20.361328 A 12 3 0 0 1 12.816406 20.087891 A 12 3 0 0 1 12.4375 19.802734 A 12 3 0 0 1 12.173828 19.509766 A 12 3 0 0 1 12.029297 19.212891 A 12 3 0 0 1 12 19 z M 12 25 L 12 29 A 12 3 0 0 0 24 32 A 12 3 0 0 0 36 29 L 36 25 A 12 3 0 0 1 35.939453 25.298828 A 12 3 0 0 1 35.761719 25.595703 A 12 3 0 0 1 35.464844 25.886719 A 12 3 0 0 1 35.052734 26.167969 A 12 3 0 0 1 34.53125 26.4375 A 12 3 0 0 1 33.904297 26.693359 A 12 3 0 0 1 33.177734 26.933594 A 12 3 0 0 1 32.361328 27.152344 A 12 3 0 0 1 31.458984 27.349609 A 12 3 0 0 1 30.484375 27.523438 A 12 3 0 0 1 29.443359 27.673828 A 12 3 0 0 1 28.347656 27.796875 A 12 3 0 0 1 27.210938 27.890625 A 12 3 0 0 1 26.039062 27.957031 A 12 3 0 0 1 24.849609 27.992188 A 12 3 0 0 1 24 28 A 12 3 0 0 1 22.802734 27.984375 A 12 3 0 0 1 21.615234 27.939453 A 12 3 0 0 1 20.453125 27.865234 A 12 3 0 0 1 19.326172 27.763672 A 12 3 0 0 1 18.246094 27.632812 A 12 3 0 0 1 17.224609 27.476562 A 12 3 0 0 1 16.269531 27.294922 A 12 3 0 0 1 15.392578 27.089844 A 12 3 0 0 1 14.599609 26.865234 A 12 3 0 0 1 13.902344 26.621094 A 12 3 0 0 1 13.304688 26.361328 A 12 3 0 0 1 12.816406 26.087891 A 12 3 0 0 1 12.4375 25.802734 A 12 3 0 0 1 12.173828 25.509766 A 12 3 0 0 1 12.029297 25.212891 A 12 3 0 0 1 12 25 z M 12 31 L 12 35 A 12 3 0 0 0 24 38 A 12 3 0 0 0 36 35 L 36 31 A 12 3 0 0 1 35.939453 31.298828 A 12 3 0 0 1 35.761719 31.595703 A 12 3 0 0 1 35.464844 31.886719 A 12 3 0 0 1 35.052734 32.167969 A 12 3 0 0 1 34.53125 32.4375 A 12 3 0 0 1 33.904297 32.693359 A 12 3 0 0 1 33.177734 32.933594 A 12 3 0 0 1 32.361328 33.152344 A 12 3 0 0 1 31.458984 33.349609 A 12 3 0 0 1 30.484375 33.523438 A 12 3 0 0 1 29.443359 33.673828 A 12 3 0 0 1 28.347656 33.796875 A 12 3 0 0 1 27.210938 33.890625 A 12 3 0 0 1 26.039062 33.957031 A 12 3 0 0 1 24.849609 33.992188 A 12 3 0 0 1 24 34 A 12 3 0 0 1 22.802734 33.984375 A 12 3 0 0 1 21.615234 33.939453 A 12 3 0 0 1 20.453125 33.865234 A 12 3 0 0 1 19.326172 33.763672 A 12 3 0 0 1 18.246094 33.632812 A 12 3 0 0 1 17.224609 33.476562 A 12 3 0 0 1 16.269531 33.294922 A 12 3 0 0 1 15.392578 33.089844 A 12 3 0 0 1 14.599609 32.865234 A 12 3 0 0 1 13.902344 32.621094 A 12 3 0 0 1 13.304688 32.361328 A 12 3 0 0 1 12.816406 32.087891 A 12 3 0 0 1 12.4375 31.802734 A 12 3 0 0 1 12.173828 31.509766 A 12 3 0 0 1 12.029297 31.212891 A 12 3 0 0 1 12 31 z "
     transform="scale(0.26458333)"
     id="path817" />
</svg>
