<?xml version="1.0" encoding="UTF-8" standalone="no"?>
<svg
   xmlns:dc="http://purl.org/dc/elements/1.1/"
   xmlns:cc="http://creativecommons.org/ns#"
   xmlns:rdf="http://www.w3.org/1999/02/22-rdf-syntax-ns#"
   xmlns:svg="http://www.w3.org/2000/svg"
   xmlns="http://www.w3.org/2000/svg"
   xmlns:sodipodi="http://sodipodi.sourceforge.net/DTD/sodipodi-0.dtd"
   xmlns:inkscape="http://www.inkscape.org/namespaces/inkscape"
   width="48"
   height="48"
   viewBox="0 0 12.7 12.7"
   version="1.1"
   id="svg4"
   sodipodi:docname="okteta.svg"
   inkscape:version="0.92.5 (2060ec1f9f, 2020-04-08)">
  <defs
     id="defs8">
  <style
     id="current-color-scheme"
     type="text/css">
      .ColorScheme-Highlight {
        color:#5beedc;
      }
  </style>
  </defs>
  <path
     class="ColorScheme-Highlight"
     style="fill:#5beedc"
     d="M 24 0 A 24 24 0 0 0 0 24 A 24 24 0 0 0 24 48 A 24 24 0 0 0 48 24 A 24 24 0 0 0 24 0 z M 24 3 A 21 21 0 0 1 25 3.0507812 L 25 10 L 27 10 L 27 3.2421875 A 21 21 0 0 1 30 3.8847656 L 30 10 L 32 10 L 32 4.59375 A 21 21 0 0 1 35 6.1425781 L 35 10 L 37 10 L 37 7.5351562 A 21 21 0 0 1 45 24 A 21 21 0 0 1 36 41.203125 L 36 40 L 34 40 L 34 42.443359 A 21 21 0 0 1 31 43.775391 L 31 40 L 29 40 L 29 44.373047 A 21 21 0 0 1 26 44.884766 L 26 43 C 26 41.338002 24.662 40 23 40 C 21.338 40 20 41.338002 20 43 L 20 44.607422 A 21 21 0 0 1 17 43.771484 L 17 43 C 17 41.338002 15.662002 40 14 40 C 13.093288 40 12.346076 40.438501 11.796875 41.070312 A 21 21 0 0 1 6.796875 36 L 8 36 L 8 27 L 6 27 L 6 34.771484 A 21 21 0 0 1 3 24 A 21 21 0 0 1 3.0898438 22.210938 C 3.6140608 22.660185 4.2523229 23 5 23 C 6.662 23 8 21.662 8 20 L 8 17 C 8 15.513178 6.862908 14.427796 5.4472656 14.185547 A 21 21 0 0 1 8.828125 9.515625 C 9.2161723 9.6981721 9.5412632 10 10 10 C 11.662002 10 13 8.6619996 13 7 L 13 6.1308594 A 21 21 0 0 1 16 4.6035156 L 16 7 C 16 8.6620004 17.338 10 19 10 C 20.662 10 22 8.6620004 22 7 L 22 4 C 22 3.6698602 21.749985 3.4528734 21.652344 3.15625 A 21 21 0 0 1 24 3 z M 19.773438 3.453125 C 19.887294 3.6155186 20 3.7857518 20 4 L 20 7 C 20 7.5540001 19.554 8 19 8 C 18.446 8 18 7.5540001 18 7 L 18 4 C 18 3.9518231 18.043197 3.9227849 18.050781 3.8769531 A 21 21 0 0 0 16.390625 4.4277344 A 21 21 0 0 1 18.050781 3.875 A 21 21 0 0 1 19.773438 3.453125 z M 11 14 L 11 23 L 13 23 L 13 14 L 11 14 z M 16 14 L 16 23 L 18 23 L 18 14 L 16 14 z M 24 14 C 22.338 14 21 15.338 21 17 L 21 20 C 21 21.662 22.338 23 24 23 C 25.662 23 27 21.662 27 20 L 27 17 C 27 15.338 25.662 14 24 14 z M 30 14 L 30 23 L 32 23 L 32 14 L 30 14 z M 38 14 C 36.338002 14 35 15.338 35 17 L 35 20 C 35 21.662 36.338002 23 38 23 C 39.662002 23 41 21.662 41 20 L 41 17 C 41 15.338 39.662002 14 38 14 z M 5 16 C 5.5540001 16 6 16.446 6 17 L 6 20 C 6 20.554 5.5540001 21 5 21 C 4.4460003 21 4 20.554 4 20 L 4 17.623047 A 21 21 0 0 1 4.5214844 16.199219 C 4.6711926 16.110056 4.8123977 16 5 16 z M 24 16 C 24.554 16 25 16.446 25 17 L 25 20 C 25 20.554 24.554 21 24 21 C 23.446 21 23 20.554 23 20 L 23 17 C 23 16.446 23.446 16 24 16 z M 38 16 C 38.554003 16 39 16.446 39 17 L 39 20 C 39 20.554 38.554003 21 38 21 C 37.446 21 37 20.554 37 20 L 37 17 C 37 16.446 37.446 16 38 16 z M 11 27 L 11 36 L 13 36 L 13 27 L 11 27 z M 19 27 C 17.338002 27 16 28.338 16 30 L 16 33 C 16 34.662 17.338002 36 19 36 C 20.662002 36 22 34.662 22 33 L 22 30 C 22 28.338 20.662002 27 19 27 z M 28 27 C 26.338 27 25 28.338 25 30 L 25 33 C 25 34.662 26.338 36 28 36 C 29.662 36 31 34.662 31 33 L 31 30 C 31 28.338 29.662 27 28 27 z M 34 27 L 34 36 L 36 36 L 36 27 L 34 27 z M 39 27 L 39 36 L 41 36 L 41 27 L 39 27 z M 19 29 C 19.554003 29 20 29.446 20 30 L 20 33 C 20 33.554 19.554003 34 19 34 C 18.446001 34 18 33.554 18 33 L 18 30 C 18 29.446 18.446001 29 19 29 z M 28 29 C 28.554 29 29 29.446 29 30 L 29 33 C 29 33.554 28.554 34 28 34 C 27.446 34 27 33.554 27 33 L 27 30 C 27 29.446 27.446 29 28 29 z M 14 42 C 14.527087 42 14.93023 42.415301 14.970703 42.931641 A 21 21 0 0 1 13.541016 42.189453 C 13.686464 42.107121 13.820282 42 14 42 z M 23 42 C 23.554 42 24 42.446001 24 43 L 24 45 A 21 21 0 0 1 22 44.898438 L 22 43 C 22 42.446001 22.446 42 23 42 z "
     transform="scale(0.26458333)"
     id="path817" />
</svg>
