<?xml version="1.0" encoding="UTF-8" standalone="no"?>
<svg
   xmlns:dc="http://purl.org/dc/elements/1.1/"
   xmlns:cc="http://creativecommons.org/ns#"
   xmlns:rdf="http://www.w3.org/1999/02/22-rdf-syntax-ns#"
   xmlns:svg="http://www.w3.org/2000/svg"
   xmlns="http://www.w3.org/2000/svg"
   xmlns:sodipodi="http://sodipodi.sourceforge.net/DTD/sodipodi-0.dtd"
   xmlns:inkscape="http://www.inkscape.org/namespaces/inkscape"
   width="48"
   height="48"
   viewBox="0 0 12.7 12.7"
   version="1.1"
   id="svg4"
   sodipodi:docname="ollydbg.svg"
   inkscape:version="0.92.5 (2060ec1f9f, 2020-04-08)">
  <metadata
     id="metadata10">
    <rdf:RDF>
      <cc:Work
         rdf:about="">
        <dc:format>image/svg+xml</dc:format>
        <dc:type
           rdf:resource="http://purl.org/dc/dcmitype/StillImage" />
        <dc:title></dc:title>
      </cc:Work>
    </rdf:RDF>
  </metadata>
  <defs
     id="defs8" />
  <sodipodi:namedview
     pagecolor="#ffffff"
     bordercolor="#666666"
     borderopacity="1"
     objecttolerance="10"
     gridtolerance="10"
     guidetolerance="10"
     inkscape:pageopacity="0"
     inkscape:pageshadow="2"
     inkscape:window-width="1085"
     inkscape:window-height="480"
     id="namedview6"
     showgrid="false"
     inkscape:zoom="4.9166667"
     inkscape:cx="2.1355932"
     inkscape:cy="24"
     inkscape:window-x="0"
     inkscape:window-y="25"
     inkscape:window-maximized="0"
     inkscape:current-layer="svg4" />
  <path
     d="M 6.34,0.075 A 6.295,6.295 0 0 0 0.055,6.36 6.295,6.295 0 0 0 6.34,12.655 6.295,6.295 0 0 0 12.634,6.36 6.295,6.295 0 0 0 6.34,0.075 Z m -0.011,0.94 a 5.408,5.408 0 0 1 5.397,5.387 5.407,5.407 0 0 1 -10.814,0 c 0,-2.987 2.43,-5.387 5.417,-5.387 z M 3.317,2.744 A 0.151,0.151 0 0 0 3.27,2.752 C 3.24,2.763 3.21,2.832 3.196,2.924 3.176,3.061 3.184,3.092 3.269,3.211 c 0.099,0.14 0.17,0.314 0.17,0.416 a 0.093,0.093 0 0 1 -0.01,0.032 h 0.005 c 0.03,0 0.042,0.011 0.052,0.02 0.01,0.008 0.019,0.017 0.026,0.027 0.016,0.02 0.03,0.045 0.042,0.072 0.02,0.042 0.03,0.097 0.01,0.15 A 1.39,1.39 0 0 1 3.792,4.046 0.069,0.069 0 0 1 3.805,4.028 C 3.821,4.013 3.831,4.012 3.841,4.01 A 0.25,0.25 0 0 1 3.898,4.002 C 3.942,4 4.001,4.001 4.072,4.006 a 1.506,1.506 0 0 0 0.2,0.002 6.912,6.912 0 0 0 0.032,-0.343 L 4.325,3.331 4.225,3.21 4.108,3.07 A 0.06,0.06 0 0 1 4.115,2.985 1.877,1.877 0 0 1 3.938,2.905 C 3.768,2.817 3.454,2.739 3.317,2.744 Z M 6.821,3.21 C 6.763,3.209 6.714,3.22 6.696,3.242 6.621,3.332 6.56,3.767 6.539,4.353 L 6.519,4.939 6.115,5.345 5.737,5.725 a 0.093,0.093 0 0 1 0,0.02 L 5.733,5.757 5.715,5.781 5.702,5.789 5.69,5.794 A 0.062,0.062 0 0 1 5.67,5.795 C 5.645,5.793 5.65,5.79 5.643,5.787 L 5.623,5.777 A 0.67,0.67 0 0 1 5.468,5.673 2.941,2.941 0 0 1 5.228,5.443 0.615,0.615 0 0 1 5.177,5.376 C 5.173,5.369 5.167,5.362 5.167,5.338 c 0,-0.016 0,-0.035 0.014,-0.054 L 5.183,5.281 A 0.255,0.255 0 0 1 5.145,5.247 C 5.091,5.187 5.052,5.182 4.758,5.19 4.444,5.199 4.43,5.202 4.42,5.274 4.412,5.327 4.453,5.396 4.558,5.508 l 0.149,0.16 V 6.736 L 4.597,6.819 C 4.407,6.965 4.115,7.094 3.501,7.307 A 30.159,30.159 0 0 0 2.82,7.547 l 0.001,0.027 c 0,0.01 0,0.02 -0.003,0.03 -0.002,0.011 -0.003,0.024 -0.017,0.04 0.01,-0.01 0.003,-0.004 0,0.006 A 1.16,1.16 0 0 0 2.778,7.821 L 2.768,7.998 A 0.06,0.06 0 0 1 2.72,8.054 0.974,0.974 0 0 1 2.755,8.257 c 0,0.125 0.012,0.15 0.094,0.192 A 0.254,0.254 0 0 1 2.892,8.479 0.06,0.06 0 0 1 2.92,8.449 L 3.01,8.401 C 3.043,8.383 3.147,8.301 3.214,8.231 L 3.342,8.099 A 0.061,0.061 0 0 1 3.386,8.081 h 0.33 c 0.189,0 0.267,0 0.356,-0.04 0.09,-0.04 0.202,-0.13 0.435,-0.32 C 4.714,7.551 4.864,7.446 4.989,7.394 5.114,7.341 5.227,7.349 5.311,7.415 l 0.09,0.07 a 0.061,0.061 0 0 1 -0.01,0.103 c 0.035,0.02 0.08,0.058 0.154,0.123 L 5.73,7.872 5.78,8.515 5.617,8.673 5.454,8.83 v 0.243 c 0,0.21 0.012,0.258 0.082,0.35 C 5.58,9.481 5.646,9.615 5.682,9.72 5.76,9.946 5.79,9.985 5.855,9.934 A 1.054,1.054 0 0 1 5.815,9.642 C 5.815,9.546 5.813,9.494 5.833,9.443 A 0.14,0.14 0 0 1 5.883,9.38 C 5.903,9.366 5.923,9.36 5.946,9.351 A 0.53,0.53 0 0 0 6.037,9.313 0.107,0.107 0 0 0 6.08,9.269 C 6.105,9.225 6.128,9.129 6.166,8.942 6.24,8.569 6.32,8.354 6.451,8.187 6.498,8.128 6.553,8.086 6.619,8.084 6.685,8.082 6.743,8.121 6.795,8.177 c 0.031,0.033 0.053,0.05 0.063,0.092 0.006,0.02 0,0.054 -0.015,0.072 L 6.839,8.345 c 0.116,0.093 0.412,0.374 0.758,0.72 L 8.334,9.802 C 8.514,9.739 8.712,9.688 8.985,9.629 L 9.119,9.601 9.126,9.491 A 0.32,0.32 0 0 0 9.109,9.336 C 9.097,9.314 9.088,9.308 9.047,9.308 A 0.194,0.194 0 0 1 8.897,9.244 0.537,0.537 0 0 1 8.81,9.054 1.974,1.974 0 0 0 8.455,8.418 L 8.319,8.268 A 0.059,0.059 0 0 1 8.311,8.198 4.66,4.66 0 0 0 7.811,7.931 3.848,3.848 0 0 1 7.446,7.741 L 7.346,7.677 7.343,7.683 A 0.059,0.059 0 0 1 7.288,7.715 C 7.257,7.715 7.257,7.708 7.248,7.703 A 1.11,1.11 0 0 1 7.14,7.636 C 7.116,7.619 7.094,7.605 7.075,7.583 A 0.19,0.19 0 0 1 7.033,7.501 C 7.018,7.438 7.019,7.359 7.019,7.203 7.019,7.045 7.017,6.965 7.034,6.898 7.051,6.832 7.091,6.791 7.144,6.741 7.399,6.498 7.938,6.309 8.44,6.271 A 0.948,0.948 0 0 0 8.684,6.236 0.572,0.572 0 0 0 8.844,6.109 C 9.048,5.917 9.221,5.837 9.445,5.837 c 0.072,0 0.1,-0.003 0.13,-0.019 A 0.782,0.782 0 0 0 9.726,5.684 C 9.836,5.573 9.888,5.486 9.898,5.431 A 0.507,0.507 0 0 1 9.914,5.358 0.123,0.123 0 0 1 9.958,5.295 0.094,0.094 0 0 1 9.974,5.286 L 9.969,5.281 C 9.93,5.225 9.871,5.215 9.452,5.196 L 8.979,5.174 8.809,5.39 C 8.505,5.776 8.275,5.89 7.731,5.919 L 7.449,5.934 7.444,5.95 C 7.434,5.975 7.4,5.99 7.383,5.99 7.359,5.991 7.353,5.985 7.343,5.98 A 0.917,0.917 0 0 1 7.253,5.918 2.782,2.782 0 0 1 7.084,5.772 L 6.868,5.57 A 0.06,0.06 0 0 1 6.848,5.522 L 6.871,5.132 C 6.884,4.915 6.915,4.567 6.94,4.354 6.964,4.144 6.994,3.826 7.006,3.65 L 7.029,3.326 A 0.06,0.06 0 0 1 7.061,3.276 C 7.019,3.236 6.911,3.21 6.821,3.21 Z"
     id="path2"
     inkscape:connector-curvature="0"
     style="fill:#5beedc" />
</svg>
