<?xml version="1.0" encoding="UTF-8" standalone="no"?>
<svg
   xmlns:dc="http://purl.org/dc/elements/1.1/"
   xmlns:cc="http://creativecommons.org/ns#"
   xmlns:rdf="http://www.w3.org/1999/02/22-rdf-syntax-ns#"
   xmlns:svg="http://www.w3.org/2000/svg"
   xmlns="http://www.w3.org/2000/svg"
   xmlns:sodipodi="http://sodipodi.sourceforge.net/DTD/sodipodi-0.dtd"
   xmlns:inkscape="http://www.inkscape.org/namespaces/inkscape"
   width="48"
   height="48"
   viewBox="0 0 12.7 12.7"
   version="1.1"
   id="svg11"
   sodipodi:docname="openvas.svg"
   inkscape:version="0.92.5 (2060ec1f9f, 2020-04-08)">
  <metadata
     id="metadata15">
    <rdf:RDF>
      <cc:Work
         rdf:about="">
        <dc:format>image/svg+xml</dc:format>
        <dc:type
           rdf:resource="http://purl.org/dc/dcmitype/StillImage" />
        <dc:title></dc:title>
      </cc:Work>
    </rdf:RDF>
  </metadata>
  <sodipodi:namedview
     pagecolor="#ffffff"
     bordercolor="#666666"
     borderopacity="1"
     objecttolerance="10"
     gridtolerance="10"
     guidetolerance="10"
     inkscape:pageopacity="0"
     inkscape:pageshadow="2"
     inkscape:window-width="1085"
     inkscape:window-height="480"
     id="namedview13"
     showgrid="false"
     inkscape:zoom="4.9166667"
     inkscape:cx="2.1355932"
     inkscape:cy="24"
     inkscape:window-x="0"
     inkscape:window-y="25"
     inkscape:window-maximized="0"
     inkscape:current-layer="svg11" />
  <defs
     id="defs7">
    <linearGradient
       id="a">
      <stop
         stop-color="#fff"
         offset="0"
         id="stop2" />
      <stop
         stop-color="#54bd8e"
         offset="1"
         id="stop4" />
    </linearGradient>
  </defs>
  <path
     d="M 6.34,0.075 A 6.295,6.295 0 0 0 0.055,6.36 6.295,6.295 0 0 0 6.34,12.655 6.295,6.295 0 0 0 12.634,6.36 6.295,6.295 0 0 0 6.34,0.075 Z m -0.011,0.94 a 5.408,5.408 0 0 1 5.397,5.387 5.407,5.407 0 0 1 -10.814,0 c 0,-2.987 2.43,-5.387 5.417,-5.387 z M 5.249,3.168 A 0.275,0.154 4.543 0 0 5.009,3.301 0.275,0.154 4.543 0 0 5.271,3.477 0.275,0.154 4.543 0 0 5.557,3.345 0.275,0.154 4.543 0 0 5.296,3.169 a 0.275,0.154 4.543 0 0 -0.047,0 z M 2.789,3.374 A 0.163,0.291 84.727 0 0 2.732,3.376 0.163,0.291 84.727 0 0 2.456,3.566 0.163,0.291 84.727 0 0 2.762,3.702 0.163,0.291 84.727 0 0 3.037,3.512 0.163,0.291 84.727 0 0 2.789,3.374 Z M 4.953,3.601 A 3.965,2.221 19.25 0 0 2.615,4.765 3.965,2.221 19.25 0 0 5.626,8.169 3.965,2.221 19.25 0 0 10.101,7.379 3.965,2.221 19.25 0 0 7.091,3.974 3.965,2.221 19.25 0 0 4.953,3.601 Z M 7.888,3.823 A 0.275,0.154 26.077 0 0 7.765,3.885 0.275,0.154 26.077 0 0 7.945,4.145 0.275,0.154 26.077 0 0 8.258,4.127 0.275,0.154 26.077 0 0 8.079,3.867 0.275,0.154 26.077 0 0 7.911,3.823 a 0.275,0.154 26.077 0 0 -0.023,0 z M 4.954,3.897 A 3.01,1.686 19.25 0 1 6.578,4.181 3.01,1.686 19.25 0 1 8.864,6.765 3.01,1.686 19.25 0 1 5.466,7.365 3.01,1.686 19.25 0 1 3.181,4.78 3.01,1.686 19.25 0 1 4.954,3.896 Z M 1.702,4.895 a 0.326,0.182 2.351 0 0 -0.31,0.17 0.326,0.182 2.351 0 0 0.317,0.196 0.326,0.182 2.351 0 0 0.333,-0.17 0.326,0.182 2.351 0 0 -0.318,-0.195 0.326,0.182 2.351 0 0 -0.022,0 z M 9.991,5.454 A 0.308,0.173 30.115 0 0 9.847,5.514 0.308,0.173 30.115 0 0 10.027,5.818 0.308,0.173 30.115 0 0 10.38,5.823 0.308,0.173 30.115 0 0 10.2,5.52 0.308,0.173 30.115 0 0 9.99,5.454 Z M 3.128,7.484 A 0.328,0.435 78.437 0 0 3.043,7.488 0.328,0.435 78.437 0 0 2.634,7.871 0.328,0.435 78.437 0 0 3.087,8.145 0.328,0.435 78.437 0 0 3.495,7.762 0.328,0.435 78.437 0 0 3.128,7.484 Z m 7.627,0.373 a 0.415,0.233 28.932 0 0 -0.19,0.086 0.415,0.233 28.932 0 0 0.25,0.404 0.415,0.233 28.932 0 0 0.476,-0.003 0.415,0.233 28.932 0 0 -0.25,-0.404 0.415,0.233 28.932 0 0 -0.286,-0.083 z m -3.229,1.07 a 0.437,0.245 29.208 0 0 -0.201,0.089 0.437,0.245 29.208 0 0 0.262,0.427 0.437,0.245 29.208 0 0 0.5,0 0.437,0.245 29.208 0 0 -0.261,-0.428 0.437,0.245 29.208 0 0 -0.3,-0.088 z"
     id="path9"
     inkscape:connector-curvature="0"
     style="fill:#5beedc" />
</svg>
