<?xml version="1.0" encoding="UTF-8" standalone="no"?>
<svg
   xmlns:dc="http://purl.org/dc/elements/1.1/"
   xmlns:cc="http://creativecommons.org/ns#"
   xmlns:rdf="http://www.w3.org/1999/02/22-rdf-syntax-ns#"
   xmlns:svg="http://www.w3.org/2000/svg"
   xmlns="http://www.w3.org/2000/svg"
   xmlns:sodipodi="http://sodipodi.sourceforge.net/DTD/sodipodi-0.dtd"
   xmlns:inkscape="http://www.inkscape.org/namespaces/inkscape"
   width="48"
   height="48"
   viewBox="0 0 12.7 12.7"
   version="1.1"
   id="svg4"
   sodipodi:docname="libreoffice-writer.svg"
   inkscape:version="0.92.5 (2060ec1f9f, 2020-04-08)">
  <defs
     id="defs8">
  <style
     id="current-color-scheme"
     type="text/css">
      .ColorScheme-Highlight {
        color:#5beedc;
      }
  </style>
  </defs>
  <path
     class="ColorScheme-Highlight"
     style="fill:#5beedc"
     d="M 24 0 A 24 24 0 0 0 0 24 A 24 24 0 0 0 24 48 A 24 24 0 0 0 48 24 A 24 24 0 0 0 24 0 z M 24 3 A 21 21 0 0 1 45 24 A 21 21 0 0 1 24 45 A 21 21 0 0 1 3 24 A 21 21 0 0 1 24 3 z M 11.5 10 C 10.669 10 10 10.669 10 11.5 C 10 12.331 10.669 13 11.5 13 L 23.5 13 C 24.331 13 25 12.331 25 11.5 C 25 10.669 24.331 10 23.5 10 L 11.5 10 z M 37.384766 15.957031 L 33.849609 19.492188 L 39.507812 25.150391 L 43.042969 21.615234 L 37.384766 15.957031 z M 11.5 16 C 10.669 16 10 16.669 10 17.5 C 10 18.331 10.669 19 11.5 19 L 23.5 19 C 24.331 19 25 18.331 25 17.5 C 25 16.669 24.331 16 23.5 16 L 11.5 16 z M 32.435547 20.908203 L 20.414062 32.927734 L 26.072266 38.585938 L 38.091797 26.564453 L 32.435547 20.908203 z M 11.5 22 C 10.669 22 10 22.669 10 23.5 C 10 24.331 10.669 25 11.5 25 L 23.5 25 C 24.331 25 25 24.331 25 23.5 C 25 22.669 24.331 22 23.5 22 L 11.5 22 z M 19 34.341797 L 19 40 L 24.658203 40 L 19 34.341797 z "
     transform="scale(0.26458333)"
     id="path827" />
</svg>
