<?xml version="1.0" encoding="UTF-8" standalone="no"?>
<svg
   xmlns:dc="http://purl.org/dc/elements/1.1/"
   xmlns:cc="http://creativecommons.org/ns#"
   xmlns:rdf="http://www.w3.org/1999/02/22-rdf-syntax-ns#"
   xmlns:svg="http://www.w3.org/2000/svg"
   xmlns="http://www.w3.org/2000/svg"
   xmlns:sodipodi="http://sodipodi.sourceforge.net/DTD/sodipodi-0.dtd"
   xmlns:inkscape="http://www.inkscape.org/namespaces/inkscape"
   width="48"
   height="48"
   viewBox="0 0 12.7 12.7"
   version="1.1"
   id="svg4"
   sodipodi:docname="ophcrack.svg"
   inkscape:version="0.92.5 (2060ec1f9f, 2020-04-08)">
  <metadata
     id="metadata10">
    <rdf:RDF>
      <cc:Work
         rdf:about="">
        <dc:format>image/svg+xml</dc:format>
        <dc:type
           rdf:resource="http://purl.org/dc/dcmitype/StillImage" />
        <dc:title></dc:title>
      </cc:Work>
    </rdf:RDF>
  </metadata>
  <defs
     id="defs8" />
  <sodipodi:namedview
     pagecolor="#ffffff"
     bordercolor="#666666"
     borderopacity="1"
     objecttolerance="10"
     gridtolerance="10"
     guidetolerance="10"
     inkscape:pageopacity="0"
     inkscape:pageshadow="2"
     inkscape:window-width="1085"
     inkscape:window-height="480"
     id="namedview6"
     showgrid="false"
     inkscape:zoom="4.9166667"
     inkscape:cx="2.1355932"
     inkscape:cy="24"
     inkscape:window-x="0"
     inkscape:window-y="25"
     inkscape:window-maximized="0"
     inkscape:current-layer="svg4" />
  <path
     d="M 6.34,0.075 A 6.295,6.295 0 0 0 0.055,6.36 6.295,6.295 0 0 0 6.34,12.655 6.295,6.295 0 0 0 12.634,6.36 6.295,6.295 0 0 0 6.34,0.075 Z m -0.011,0.94 a 5.408,5.408 0 0 1 5.397,5.387 5.407,5.407 0 0 1 -10.814,0 c 0,-2.987 2.43,-5.387 5.417,-5.387 z m 0.003,1.296 c -0.706,0 -1.413,0.01 -1.655,0.031 A 3.58,3.58 0 0 0 3.468,2.644 C 2.392,3.158 1.94,4.254 1.94,6.347 c 0,2.723 0.778,3.84 2.796,4.007 0.527,0.045 2.719,0.045 3.246,0 0.86,-0.072 1.45,-0.3 1.885,-0.732 0.366,-0.37 0.561,-0.74 0.722,-1.37 0.13,-0.518 0.172,-0.963 0.172,-1.905 0,-0.942 -0.042,-1.387 -0.172,-1.904 -0.161,-0.634 -0.356,-1 -0.73,-1.374 C 9.429,2.637 8.846,2.411 7.982,2.339 A 31.888,31.888 0 0 0 6.332,2.311 Z m 2.716,2.61 c 0.091,-0.002 0.191,-0.001 0.301,0 0.476,0.014 0.518,0.018 0.703,0.11 0.246,0.124 0.349,0.302 0.349,0.603 v 0.2 H 9.688 L 9.665,5.73 C 9.634,5.587 9.558,5.559 9.212,5.559 c -0.38,0 -0.455,0.041 -0.455,0.254 0,0.092 0.02,0.164 0.054,0.191 0.031,0.028 0.257,0.065 0.538,0.09 1.031,0.095 1.137,0.177 1.137,0.87 0,0.318 -0.013,0.417 -0.064,0.523 C 10.271,7.796 9.904,7.902 9.065,7.881 8.565,7.871 8.483,7.861 8.356,7.792 8.126,7.672 8.017,7.463 7.996,7.117 l -0.01,-0.17 h 0.72 l 0.01,0.088 c 0.02,0.171 0.116,0.22 0.482,0.23 C 9.64,7.278 9.695,7.248 9.709,6.991 9.716,6.833 9.709,6.789 9.657,6.765 9.623,6.748 9.37,6.713 9.092,6.693 8.332,6.631 8.182,6.569 8.052,6.261 c -0.08,-0.188 -0.08,-0.702 0,-0.89 0.14,-0.33 0.354,-0.44 0.996,-0.45 z M 6.102,4.923 C 6.422,4.916 6.84,4.946 7.01,4.997 7.267,5.072 7.434,5.199 7.547,5.405 7.643,5.576 7.644,5.576 7.654,6.34 7.664,6.984 7.657,7.131 7.606,7.279 A 0.83,0.83 0 0 1 7.119,7.792 C 6.941,7.864 6.869,7.871 6.325,7.871 5.674,7.871 5.561,7.851 5.307,7.679 A 0.78,0.78 0 0 1 5.067,7.385 C 4.975,7.189 4.972,7.173 4.961,6.515 4.948,5.755 4.989,5.497 5.153,5.285 5.273,5.131 5.564,4.987 5.828,4.942 5.9,4.932 5.996,4.925 6.102,4.922 Z m 0.246,0.68 C 6.157,5.597 5.968,5.611 5.931,5.631 5.791,5.7 5.763,5.795 5.75,6.268 5.732,6.816 5.756,7.004 5.86,7.124 5.931,7.206 5.965,7.217 6.229,7.231 6.589,7.248 6.749,7.203 6.825,7.06 6.866,6.977 6.876,6.847 6.865,6.364 6.852,5.6 6.862,5.614 6.348,5.604 Z"
     id="path2"
     inkscape:connector-curvature="0"
     style="fill:#5beedc" />
</svg>
