<?xml version="1.0" encoding="UTF-8" standalone="no"?>
<svg
   xmlns:dc="http://purl.org/dc/elements/1.1/"
   xmlns:cc="http://creativecommons.org/ns#"
   xmlns:rdf="http://www.w3.org/1999/02/22-rdf-syntax-ns#"
   xmlns:svg="http://www.w3.org/2000/svg"
   xmlns="http://www.w3.org/2000/svg"
   xmlns:sodipodi="http://sodipodi.sourceforge.net/DTD/sodipodi-0.dtd"
   xmlns:inkscape="http://www.inkscape.org/namespaces/inkscape"
   width="48"
   height="48"
   viewBox="0 0 12.7 12.7"
   version="1.1"
   id="svg6"
   sodipodi:docname="kblocks.svg"
   inkscape:version="0.92.4 (5da689c313, 2019-01-14)">
  <metadata
     id="metadata12">
    <rdf:RDF>
      <cc:Work
         rdf:about="">
        <dc:format>image/svg+xml</dc:format>
        <dc:type
           rdf:resource="http://purl.org/dc/dcmitype/StillImage" />
        <dc:title></dc:title>
      </cc:Work>
    </rdf:RDF>
  </metadata>
  <defs
     id="defs10" />
  <sodipodi:namedview
     pagecolor="#ffffff"
     bordercolor="#666666"
     borderopacity="1"
     objecttolerance="10"
     gridtolerance="10"
     guidetolerance="10"
     inkscape:pageopacity="0"
     inkscape:pageshadow="2"
     inkscape:window-width="1112"
     inkscape:window-height="480"
     id="namedview8"
     showgrid="false"
     inkscape:zoom="4.9166667"
     inkscape:cx="2.1355932"
     inkscape:cy="24"
     inkscape:window-x="0"
     inkscape:window-y="25"
     inkscape:window-maximized="0"
     inkscape:current-layer="svg6" />
  <path
     d="m 6.34,0.07 a 6.29,6.29 0 0 0 0,12.58 6.29,6.29 0 0 0 0,-12.58 z M 6.32,1 A 5.417,5.417 0 0 1 11.73,6.41 5.4,5.4 0 0 1 6.33,11.82 5.4,5.4 0 0 1 0.92,6.42 5.4,5.4 0 0 1 6.32,1 Z M 3.065,2.91 A 0.155,0.155 0 0 0 2.91,3.065 v 2.786 c 0,0.086 0.07,0.155 0.155,0.155 H 5.851 A 0.154,0.154 0 0 0 6.006,5.851 V 3.065 A 0.154,0.154 0 0 0 5.851,2.91 Z m 3.784,0 A 0.154,0.154 0 0 0 6.694,3.065 v 2.786 c 0,0.086 0.069,0.155 0.155,0.155 H 9.635 A 0.154,0.154 0 0 0 9.79,5.851 V 3.065 A 0.155,0.155 0 0 0 9.635,2.91 Z M 8.242,3.77 A 0.688,0.688 0 0 1 8.93,4.458 0.688,0.688 0 0 1 8.242,5.146 0.688,0.688 0 0 1 7.554,4.458 0.688,0.688 0 0 1 8.242,3.77 Z M 6.849,6.694 A 0.154,0.154 0 0 0 6.694,6.849 v 2.786 c 0,0.085 0.069,0.155 0.155,0.155 H 9.635 C 9.72,9.79 9.79,9.72 9.79,9.635 V 6.849 A 0.154,0.154 0 0 0 9.635,6.694 Z"
     id="path2"
     inkscape:connector-curvature="0"
     style="fill:#5beedc" />
  <path
     d="M 3.065,6.694 A 0.154,0.154 0 0 0 2.91,6.849 v 2.786 c 0,0.085 0.07,0.155 0.155,0.155 h 2.786 c 0.086,0 0.155,-0.07 0.155,-0.155 V 6.849 A 0.154,0.154 0 0 0 5.851,6.694 Z m 1.393,0.86 A 0.688,0.688 0 0 1 5.146,8.242 0.688,0.688 0 0 1 4.458,8.93 0.688,0.688 0 0 1 3.77,8.242 0.688,0.688 0 0 1 4.458,7.554 Z"
     id="path4"
     inkscape:connector-curvature="0"
     style="opacity:0.75;fill:#5beedc" />
</svg>
