<?xml version="1.0" encoding="UTF-8" standalone="no"?>
<svg
   xmlns:dc="http://purl.org/dc/elements/1.1/"
   xmlns:cc="http://creativecommons.org/ns#"
   xmlns:rdf="http://www.w3.org/1999/02/22-rdf-syntax-ns#"
   xmlns:svg="http://www.w3.org/2000/svg"
   xmlns="http://www.w3.org/2000/svg"
   xmlns:sodipodi="http://sodipodi.sourceforge.net/DTD/sodipodi-0.dtd"
   xmlns:inkscape="http://www.inkscape.org/namespaces/inkscape"
   width="48"
   height="48"
   viewBox="0 0 12.7 12.7"
   version="1.1"
   id="svg4"
   sodipodi:docname="distributor-logo-archlinux.svg"
   inkscape:version="0.92.4 (5da689c313, 2019-01-14)">
  <metadata
     id="metadata10">
    <rdf:RDF>
      <cc:Work
         rdf:about="">
        <dc:format>image/svg+xml</dc:format>
        <dc:type
           rdf:resource="http://purl.org/dc/dcmitype/StillImage" />
        <dc:title></dc:title>
      </cc:Work>
    </rdf:RDF>
  </metadata>
  <defs
     id="defs8" />
  <sodipodi:namedview
     pagecolor="#ffffff"
     bordercolor="#666666"
     borderopacity="1"
     objecttolerance="10"
     gridtolerance="10"
     guidetolerance="10"
     inkscape:pageopacity="0"
     inkscape:pageshadow="2"
     inkscape:window-width="1087"
     inkscape:window-height="480"
     id="namedview6"
     showgrid="false"
     inkscape:zoom="4.9166667"
     inkscape:cx="2.1355932"
     inkscape:cy="24"
     inkscape:window-x="0"
     inkscape:window-y="25"
     inkscape:window-maximized="0"
     inkscape:current-layer="svg4" />
  <path
     d="m 6.34,0.07 a 6.29,6.29 0 0 0 -6.29,6.3 6.29,6.29 0 0 0 1.61,4.18 l -0.6,1.1 1.08,-0.62 a 6.29,6.29 0 0 0 4.21,1.62 6.29,6.29 0 0 0 4.2,-1.62 l 1.1,0.61 -0.61,-1.11 A 6.29,6.29 0 0 0 12.63,6.36 6.29,6.29 0 0 0 6.34,0.07 Z M 6.32,1 6.33,1.01 a 5.4,5.4 0 0 1 5.4,5.4 5.4,5.4 0 0 1 -1.2,3.4 C 10.15,9.5 9.7,9.13 8.92,8.72 9.56,8.89 10.02,9.08 10.38,9.3 7.55,4.03 7.32,3.33 6.35,1.06 5.88,2.21 5.59,2.96 5.07,4.09 5.39,4.43 5.79,4.83 6.43,5.28 A 5.62,5.62 0 0 1 4.92,4.41 C 4.37,5.56 3.52,7.16 2.09,9.78 A 5.4,5.4 0 0 1 0.92,6.42 5.4,5.4 0 0 1 6.32,1 Z m 0.1,6.14 c 0.65,0 1.28,1.06 1.25,2.14 0,0.2 -0.02,0.4 -0.06,0.58 0.68,0.13 1.36,0.38 2.12,0.75 A 5.4,5.4 0 0 1 6.33,11.82 5.4,5.4 0 0 1 2.93,10.62 8.56,8.56 0 0 1 5.12,9.85 3.07,3.07 0 0 1 5.04,9.13 V 9.08 C 5.07,8 5.77,7.15 6.42,7.14 Z"
     id="path2"
     inkscape:connector-curvature="0"
     style="fill:#5beedc" />
</svg>
