<?xml version="1.0" encoding="UTF-8" standalone="no"?>
<svg
   xmlns:dc="http://purl.org/dc/elements/1.1/"
   xmlns:cc="http://creativecommons.org/ns#"
   xmlns:rdf="http://www.w3.org/1999/02/22-rdf-syntax-ns#"
   xmlns:svg="http://www.w3.org/2000/svg"
   xmlns="http://www.w3.org/2000/svg"
   xmlns:sodipodi="http://sodipodi.sourceforge.net/DTD/sodipodi-0.dtd"
   xmlns:inkscape="http://www.inkscape.org/namespaces/inkscape"
   width="48"
   height="48"
   viewBox="0 0 12.7 12.7"
   version="1.1"
   id="svg4"
   sodipodi:docname="skrooge.svg"
   inkscape:version="0.92.5 (2060ec1f9f, 2020-04-08)">
  <defs
     id="defs8">
  <style
     id="current-color-scheme"
     type="Highlight/css">
      .ColorScheme-Highlight {
        color:#5beedc;
      }
  </style>
  </defs>
  <path
     class="ColorScheme-Highlight"
     style="fill:#5beedc"
     d="M 24 0 A 24 24 0 0 0 0 24 A 24 24 0 0 0 24 48 A 24 24 0 0 0 48 24 A 24 24 0 0 0 24 0 z M 24 3 A 21 21 0 0 1 45 24 A 21 21 0 0 1 24 45 A 21 21 0 0 1 3 24 A 21 21 0 0 1 24 3 z M 25 12 A 12 12 0 0 0 13.701172 20 L 11 20 L 9 22 L 13.169922 22 A 12 12 0 0 0 13 24 A 12 12 0 0 0 13.181641 26 L 13 26 L 11 28 L 13.701172 28 A 12 12 0 0 0 25 36 A 12 12 0 0 0 35.375 30 L 32.984375 30 A 9.9999999 9.9999999 0 0 1 25 34 A 9.9999999 9.9999999 0 0 1 15.847656 28 L 26 28 L 28 26 L 15.212891 26 A 9.9999999 9.9999999 0 0 1 15 24 A 9.9999999 9.9999999 0 0 1 15.203125 22 L 29 22 L 31 20 L 15.839844 20 A 9.9999999 9.9999999 0 0 1 25 14 A 9.9999999 9.9999999 0 0 1 32.123047 17 L 34.712891 17 A 12 12 0 0 0 25 12 z "
     transform="scale(0.26458333)"
     id="path817" />
</svg>
