<?xml version="1.0" encoding="UTF-8" standalone="no"?>
<svg
   xmlns:dc="http://purl.org/dc/elements/1.1/"
   xmlns:cc="http://creativecommons.org/ns#"
   xmlns:rdf="http://www.w3.org/1999/02/22-rdf-syntax-ns#"
   xmlns:svg="http://www.w3.org/2000/svg"
   xmlns="http://www.w3.org/2000/svg"
   xmlns:sodipodi="http://sodipodi.sourceforge.net/DTD/sodipodi-0.dtd"
   xmlns:inkscape="http://www.inkscape.org/namespaces/inkscape"
   width="48"
   height="48"
   viewBox="0 0 12.7 12.7"
   version="1.1"
   id="svg6"
   sodipodi:docname="lollypop.svg"
   inkscape:version="0.92.4 (5da689c313, 2019-01-14)">
  <metadata
     id="metadata12">
    <rdf:RDF>
      <cc:Work
         rdf:about="">
        <dc:format>image/svg+xml</dc:format>
        <dc:type
           rdf:resource="http://purl.org/dc/dcmitype/StillImage" />
        <dc:title></dc:title>
      </cc:Work>
    </rdf:RDF>
  </metadata>
  <defs
     id="defs10" />
  <sodipodi:namedview
     pagecolor="#ffffff"
     bordercolor="#666666"
     borderopacity="1"
     objecttolerance="10"
     gridtolerance="10"
     guidetolerance="10"
     inkscape:pageopacity="0"
     inkscape:pageshadow="2"
     inkscape:window-width="1087"
     inkscape:window-height="480"
     id="namedview8"
     showgrid="false"
     inkscape:zoom="4.9166667"
     inkscape:cx="2.1355932"
     inkscape:cy="24"
     inkscape:window-x="0"
     inkscape:window-y="25"
     inkscape:window-maximized="0"
     inkscape:current-layer="svg6" />
  <path
     d="m 6.34,0.07 a 6.29,6.29 0 0 0 -6.29,6.3 6.29,6.29 0 0 0 6.3,6.28 6.29,6.29 0 0 0 6.28,-6.29 6.29,6.29 0 0 0 -6.29,-6.29 z m -1.05,1 A 4.85,4.85 0 0 0 4.6,3.96 3,3 0 0 1 6.32,3.41 5.4,5.4 0 0 1 7.73,1.16 5.11,5.11 0 0 1 8.93,1.63 5.48,5.48 0 0 1 10.42,2.83 4.85,4.85 0 0 0 7.58,3.69 3,3 0 0 1 8.9,4.9 C 9.69,4.76 10.71,4.7 11.56,5 A 5.51,5.51 0 0 1 11.51,8 L 11.45,8.16 C 11.05,7.3 10.15,6.56 9.29,6.13 A 3,3 0 0 1 9.3,6.4 3,3 0 0 1 8.9,7.9 5.4,5.4 0 0 1 10.15,10.24 L 10.1,10.3 A 5.56,5.56 0 0 1 7.35,11.73 4.9,4.9 0 0 0 8.04,8.84 3,3 0 0 1 6.31,9.4 5.4,5.4 0 0 1 4.91,11.64 5.54,5.54 0 0 1 4.2,11.4 5.46,5.46 0 0 1 2.22,9.96 C 3.17,10.04 4.25,9.63 5.05,9.11 A 3,3 0 0 1 3.73,7.9 5.4,5.4 0 0 1 1.08,7.8 5.43,5.43 0 0 1 1.19,4.64 c 0.4,0.86 1.3,1.59 2.15,2.02 A 3,3 0 0 1 3.33,6.4 3,3 0 0 1 3.73,4.9 5.4,5.4 0 0 1 2.5,2.56 3.82,3.82 0 0 1 3.4,1.83 5.45,5.45 0 0 1 5.3,1.07 Z"
     id="path2"
     inkscape:connector-curvature="0"
     style="fill:#5beedc" />
  <path
     d="M 5.4,4.86 C 5.3,4.86 5.22,4.94 5.22,5.03 V 7.86 C 5.22,8 5.36,8.08 5.47,8.01 L 6.63,7.31 7.79,6.6 c 0.1,-0.07 0.1,-0.23 0,-0.3 L 6.63,5.6 5.47,4.88 A 0.16,0.16 0 0 0 5.39,4.86 Z"
     id="path4"
     inkscape:connector-curvature="0"
     style="fill:#fa4b8c" />
</svg>
