<?xml version="1.0" encoding="UTF-8" standalone="no"?>
<svg
   xmlns:dc="http://purl.org/dc/elements/1.1/"
   xmlns:cc="http://creativecommons.org/ns#"
   xmlns:rdf="http://www.w3.org/1999/02/22-rdf-syntax-ns#"
   xmlns:svg="http://www.w3.org/2000/svg"
   xmlns="http://www.w3.org/2000/svg"
   xmlns:sodipodi="http://sodipodi.sourceforge.net/DTD/sodipodi-0.dtd"
   xmlns:inkscape="http://www.inkscape.org/namespaces/inkscape"
   width="48"
   height="48"
   viewBox="0 0 12.7 12.7"
   version="1.1"
   id="svg4"
   sodipodi:docname="x.svg"
   inkscape:version="0.92.5 (2060ec1f9f, 2020-04-08)">
  <defs
     id="defs8">
  <style
     id="current-color-scheme"
     type="text/css">
      .ColorScheme-Highlight {
        color:#5beedc;
      }
  </style>
  </defs>
  <path
     class="ColorScheme-Highlight"
     style="fill:#5beedc"
     d="M 24 0 A 24 24 0 0 0 0 24 A 24 24 0 0 0 24 48 A 24 24 0 0 0 48 24 A 24 24 0 0 0 24 0 z M 24 3 A 21 21 0 0 1 45 24 A 21 21 0 0 1 24 45 A 21 21 0 0 1 3 24 A 21 21 0 0 1 24 3 z M 13.392578 11.390625 C 12.88134 11.390625 12.370253 11.586778 11.978516 11.978516 C 11.195041 12.76199 11.195041 14.023166 11.978516 14.806641 L 21.171875 24 L 11.978516 33.193359 C 11.195041 33.976834 11.195041 35.23801 11.978516 36.021484 C 12.76199 36.804959 14.023166 36.804958 14.806641 36.021484 L 24 26.828125 L 33.193359 36.021484 C 33.976834 36.804959 35.23801 36.804959 36.021484 36.021484 C 36.804959 35.23801 36.804959 33.976834 36.021484 33.193359 L 26.828125 24 L 36.021484 14.806641 C 36.804959 14.023166 36.804959 12.76199 36.021484 11.978516 C 35.23801 11.195041 33.976834 11.195041 33.193359 11.978516 L 24 21.171875 L 14.806641 11.978516 C 14.414903 11.586779 13.903816 11.390625 13.392578 11.390625 z "
     transform="scale(0.26458333)"
     id="path817" />
</svg>
