<?xml version="1.0" encoding="UTF-8" standalone="no"?>
<svg
   xmlns:dc="http://purl.org/dc/elements/1.1/"
   xmlns:cc="http://creativecommons.org/ns#"
   xmlns:rdf="http://www.w3.org/1999/02/22-rdf-syntax-ns#"
   xmlns:svg="http://www.w3.org/2000/svg"
   xmlns="http://www.w3.org/2000/svg"
   xmlns:sodipodi="http://sodipodi.sourceforge.net/DTD/sodipodi-0.dtd"
   xmlns:inkscape="http://www.inkscape.org/namespaces/inkscape"
   width="48"
   height="48"
   version="1.1"
   viewBox="0 0 12.7 12.7"
   id="svg4"
   sodipodi:docname="hamster.svg"
   inkscape:version="0.92.4 (5da689c313, 2019-01-14)">
  <metadata
     id="metadata10">
    <rdf:RDF>
      <cc:Work
         rdf:about="">
        <dc:format>image/svg+xml</dc:format>
        <dc:type
           rdf:resource="http://purl.org/dc/dcmitype/StillImage" />
        <dc:title></dc:title>
      </cc:Work>
    </rdf:RDF>
  </metadata>
  <defs
     id="defs8" />
  <sodipodi:namedview
     pagecolor="#ffffff"
     bordercolor="#666666"
     borderopacity="1"
     objecttolerance="10"
     gridtolerance="10"
     guidetolerance="10"
     inkscape:pageopacity="0"
     inkscape:pageshadow="2"
     inkscape:window-width="1136"
     inkscape:window-height="480"
     id="namedview6"
     showgrid="false"
     inkscape:zoom="4.9166667"
     inkscape:cx="2.1355932"
     inkscape:cy="24"
     inkscape:window-x="0"
     inkscape:window-y="25"
     inkscape:window-maximized="0"
     inkscape:current-layer="svg4" />
  <path
     d="M 6.3401306,0.06976181 C 2.8622265,0.06972636 0.04444944,2.8920367 0.0502702,6.3702053 0.05594306,9.8438762 2.8765138,12.655303 6.3501846,12.649747 9.8201513,12.644361 12.630256,9.8298534 12.630256,6.3598867 12.630286,2.8859513 9.814066,0.06976181 6.3403952,0.07002639 Z M 6.319977,0.99991926 C 9.3023227,0.99981594 11.730109,3.4274143 11.729845,6.4097865 11.735378,9.396101 9.3160015,11.819918 6.3297664,11.819654 3.343452,11.825187 0.91963458,9.4058111 0.91989916,6.419576 0.908922,3.4295574 3.329879,0.99965468 6.319977,0.99991926 Z M 3.1413129,2.8984924 c -0.031157,-0.00159 -0.049093,0.018893 -0.049093,0.06356 0,0.031779 0.039655,0.1032259 0.087333,0.1508926 0.039727,0.039729 0.1271148,0.2701362 0.1906828,0.5084963 0.1072634,0.3972669 0.13111,0.8545405 0.089399,1.2190259 -0.020857,0.182248 -0.058155,0.340779 -0.109552,0.4578557 -0.051397,0.1170713 -0.1168333,0.1927968 -0.1943023,0.2067031 -0.063563,0.011915 -0.095479,0.00938 -0.0925,-0.03824 0.00298,-0.047672 0.04079,-0.1407778 0.1162697,-0.3115959 C 3.282842,4.9247757 3.3285297,4.6085153 3.3195922,4.2916807 3.3106531,3.9748462 3.2472189,3.6568739 3.1320102,3.4224825 3.0287208,3.2159038 2.949114,3.106574 2.873632,3.0896938 2.7981526,3.072811 2.7269409,3.1485046 2.6395395,3.3113827 c -0.11124,0.2065815 -0.143659,0.4448384 -0.143659,1.104304 0,0.4767203 0.01225,0.7412474 0.097667,0.9249982 C 2.6789615,5.5244225 2.83803,5.627569 3.1320207,5.782507 3.2670941,5.854015 3.3400864,5.8978798 3.3609433,5.926682 3.3818003,5.955489 3.3506393,5.969533 3.2751613,5.981458 3.1798173,5.997351 2.9652323,5.933468 2.7904508,5.8460671 L 2.4643823,5.6791541 2.3455277,6.0610489 C 2.274017,6.2676277 2.1947012,6.6008715 2.1708625,6.7994917 l -0.047542,0.3736134 0.4201266,0.134875 C 2.7818095,7.3874331 3.115892,7.5228825 3.2906736,7.6102892 3.6879404,7.8089252 4.6178333,8.4684809 4.570156,8.5161582 4.5304293,8.5638302 4.2758107,8.4287065 3.7593506,8.0949997 3.4256358,7.8725276 2.2978371,7.3482756 2.1548052,7.3482756 c -0.063563,0 0.039528,0.897667 0.1348749,1.1280897 l 0.087333,0.2222049 h 1.0247183 c 0.603851,0 1.0487687,0.031911 1.0805447,0.07958 0.031781,0.047669 -0.3175224,0.07958 -0.9849519,0.07958 -0.603851,0 -1.0407519,0.031583 -1.0407519,0.071312 0,0.047669 0.087396,0.1746598 0.1906828,0.3017799 l 0.1906828,0.2149713 0.707434,-0.1353909 c 0.810435,-0.1509614 0.897085,-0.1592322 0.897085,-0.071828 0,0.039727 -0.2937632,0.1277657 -0.6433528,0.2072191 L 3.1479988,9.5884189 3.4017257,9.7393115 c 0.1549354,0.095347 0.2410245,0.1431007 0.3353816,0.1421086 0.094349,-9.869e-4 0.1973952,-0.051059 0.388086,-0.1503767 0.1867167,-0.095347 0.2858258,-0.1423493 0.3384772,-0.1483103 0.052636,-0.00596 0.058911,0.029257 0.058911,0.1007679 0,0.055617 -0.1036704,0.1275752 -0.2387412,0.1514112 -0.1271254,0.031781 -0.2382251,0.087393 -0.2382251,0.1271228 0,0.087404 0.9139386,0.405125 1.1761374,0.405125 0.1032894,0 0.3177342,0.111097 0.4687035,0.238225 0.1906907,0.170829 0.4187508,0.256312 0.6521368,0.256312 0.2333966,0 0.4720901,-0.08549 0.6826428,-0.256312 0.1668521,-0.127128 0.3656761,-0.238225 0.4371656,-0.238225 0.2304174,0 1.1916418,-0.317946 1.1916418,-0.3973993 0,-0.031781 -0.1268581,-0.1109728 -0.2857728,-0.1586448 C 8.1775799,9.7475532 8.1054343,9.6915522 8.1610516,9.6359348 8.216669,9.5803174 8.3521816,9.612161 8.5667057,9.739285 L 8.8922714,9.9222183 9.2338441,9.7558213 9.5676647,9.596142 8.9956163,9.4612697 C 8.6778028,9.389759 8.3596718,9.3346629 8.2881823,9.3346629 c -0.1112347,0 -0.1188573,-0.024287 -0.055292,-0.087848 0.071508,-0.071508 0.2860639,-0.055231 0.8660762,0.048058 L 9.8699791,9.4457653 10.012604,9.262832 c 0.07548,-0.09336 0.127371,-0.165164 0.146241,-0.2206544 0.01886,-0.055493 0.0048,-0.094643 -0.05271,-0.1219555 -0.1152088,-0.054623 -0.4033258,-0.062528 -0.9435982,-0.062528 -0.6833043,0 -0.9774379,-0.024288 -0.9456618,-0.087848 0.039727,-0.055623 0.4131945,-0.079453 1.0567589,-0.06356 l 1.0014881,0.016019 0.09508,-0.230473 c 0.05562,-0.1271256 0.119115,-0.4369805 0.150893,-0.6991793 0.03177,-0.2304175 0.04582,-0.3457002 0.02894,-0.3963409 -0.01689,-0.050654 -0.06467,-0.036102 -0.15606,-0.00827 C 10.036424,7.4913094 9.1701095,7.912018 8.6695506,8.2298315 8.3914505,8.404629 8.1453118,8.5316909 8.1135092,8.5078522 8.0578919,8.4522348 8.0342358,8.4760179 8.6142534,8.0866938 9.2101669,7.6894269 9.606984,7.4906744 10.15522,7.307929 L 10.576379,7.173054 10.528836,6.7994406 C 10.505003,6.6008045 10.425687,6.2675819 10.354171,6.0609978 L 10.227048,5.6791031 9.981071,5.8062258 C 9.6394188,5.9889739 9.2891414,6.0768912 9.2891414,5.9974272 c 0,-0.039729 0.143524,-0.151345 0.3183162,-0.2387411 0.2502794,-0.1271254 0.3993044,-0.2441068 0.4847104,-0.4397584 0.08541,-0.1956543 0.106806,-0.4700793 0.102834,-0.9110548 0,-0.3972669 -0.04146,-0.7467506 -0.108001,-0.9890794 -0.03327,-0.1211671 -0.0727,-0.215347 -0.1162698,-0.2754278 -0.043576,-0.060091 -0.090899,-0.085658 -0.1405581,-0.069762 -0.09336,0.031779 -0.1788296,0.1427965 -0.2495942,0.2997162 -0.070765,0.1569224 -0.1270646,0.359088 -0.1638121,0.5736095 -0.036748,0.2145267 -0.054165,0.4413459 -0.045476,0.6459456 0.0087,0.2045944 0.043486,0.3875568 0.1090361,0.5146874 0.071508,0.1390448 0.110949,0.2420431 0.1198865,0.3105641 0.00895,0.068526 -0.012949,0.1023183 -0.064595,0.1023183 -0.039727,0 -0.1346765,-0.1589623 -0.2061872,-0.3576063 C 9.2380616,4.9244759 9.2041106,4.5750478 9.2229805,4.2254318 9.2418514,3.8758422 9.3136044,3.5258822 9.4327845,3.2875221 9.5281285,3.096834 9.5835475,2.9299952 9.5676568,2.9061565 9.556731,2.8962266 9.5417621,2.8942912 9.5237312,2.8989218 9.4696431,2.9128202 9.3873535,2.9872254 9.2994573,3.09374 9.1822643,3.2357639 9.0552606,3.4346249 8.9718279,3.621339 8.8844292,3.8438111 8.7491071,4.0429472 8.6855524,4.0667859 8.6219897,4.0906227 8.2245482,3.9948254 7.8034427,3.8518146 7.4935666,3.7485253 7.27124,3.68655 7.0567185,3.6507947 6.8421918,3.6150341 6.6356394,3.6058373 6.3575394,3.6058373 c -0.3893295,0 -0.7170647,0.023366 -1.0050865,0.076998 C 5.0644311,3.7364631 4.8165197,3.8199671 4.5860969,3.9391472 4.3556795,4.0583273 4.1985666,4.1043245 4.0724413,4.0616186 3.9463081,4.0189154 3.8510461,3.8877684 3.74378,3.6533717 3.6404907,3.4309023 3.481531,3.1768631 3.3861737,3.0735711 3.302749,2.9861777 3.2295265,2.9280309 3.1768856,2.9071741 c -0.013159,-0.00521 -0.02527,-0.00826 -0.035655,-0.00878 z m 4.8111227,2.9413359 c 0.1784618,-0.0045 0.3305662,0.1315862 0.4795512,0.4195974 0.2304148,0.4608454 0.2379739,1.2390546 0.015503,1.5409668 C 8.2647466,8.03875 8.105652,8.1028869 7.819641,8.0313841 7.5653876,7.9678214 7.3825284,7.6499127 7.2951376,7.1255151 7.2077389,6.5852163 7.3034653,6.2278481 7.5974467,5.9974254 7.7285461,5.896123 7.845382,5.8425138 7.9524602,5.8398151 Z M 4.6711144,5.8594649 C 4.9841919,5.8243763 5.3049423,6.0915174 5.3883643,6.473899 5.4598724,6.8473272 5.3645355,7.5224031 5.1976815,7.776638 4.9354828,8.1818423 4.3715305,8.1501985 4.1967225,7.7290956 3.974253,7.1887968 4.1892211,6.0291691 4.5388244,5.894101 4.5825254,5.876224 4.6263894,5.864489 4.6711144,5.859478 Z m 0.034623,0.8330037 A 0.32019472,0.54434689 0 0 0 4.3863893,7.2371329 0.32019472,0.54434689 0 0 0 4.7057374,7.7812682 0.32019472,0.54434689 0 0 0 5.0261173,7.2371329 0.32019472,0.54434689 0 0 0 4.7057374,6.6924686 Z m 3.2736483,0 A 0.32019472,0.54434689 0 0 0 7.6590058,7.2371329 0.32019472,0.54434689 0 0 0 7.9793857,7.7812682 0.32019472,0.54434689 0 0 0 8.2997656,7.2371329 0.32019472,0.54434689 0 0 0 7.9793857,6.6924686 Z M 5.1438818,8.455127 c 0.053633,0.00496 0.0499,0.076281 -0.057361,0.2113544 C 4.8719941,8.9366176 4.8561696,9.4931616 5.0627502,9.6679696 5.2931677,9.8745484 5.6983508,10.049468 5.8254815,10.00179 5.9923362,9.9382275 5.984584,9.9140158 5.7541692,9.635929 5.6190985,9.4770222 5.5557342,9.3025053 5.5557342,9.0959212 c 0,-0.4131681 0.1266042,-0.4687035 0.1901669,-0.087333 0.05562,0.3495896 0.3493779,0.6433528 0.6433527,0.6433528 0.2383601,0 0.5169364,-0.3177342 0.5725776,-0.6593863 C 6.9856682,8.8336483 7.0332071,8.7222337 7.0729338,8.7460618 7.2159499,8.8334605 7.1446403,9.3181631 6.9380589,9.612138 6.6917508,9.9855662 6.7710692,10.104812 7.1762841,9.9697443 7.7403951,9.7869989 7.9390153,9.2384187 7.6212018,8.7140211 7.5020217,8.5153851 7.4862607,8.4602942 7.5736594,8.4602942 c 0.2065788,0 0.4449177,0.3970023 0.4449177,0.7306906 0,0.5561736 -0.3893559,1.0169922 -0.8660761,1.0169922 -0.095347,0 -0.1989483,0.08786 -0.2625137,0.214972 -0.095344,0.206581 -0.1432594,0.222205 -0.5405369,0.222205 -0.3972669,0 -0.4446796,-0.01563 -0.5400078,-0.222205 -0.063563,-0.127123 -0.166651,-0.214972 -0.261995,-0.214972 -0.2224695,0 -0.59594,-0.206308 -0.738972,-0.4128767 C 4.6177849,9.5170003 4.6414913,8.8731448 4.856018,8.6427221 4.9791721,8.5116227 5.0902216,8.450174 5.1438546,8.4551402 Z"
     id="path2"
     style="fill:#5beedc;stroke-width:0.99998009"
     inkscape:connector-curvature="0" />
</svg>
