<?xml version="1.0" encoding="UTF-8" standalone="no"?>
<svg
   xmlns:dc="http://purl.org/dc/elements/1.1/"
   xmlns:cc="http://creativecommons.org/ns#"
   xmlns:rdf="http://www.w3.org/1999/02/22-rdf-syntax-ns#"
   xmlns:svg="http://www.w3.org/2000/svg"
   xmlns="http://www.w3.org/2000/svg"
   xmlns:sodipodi="http://sodipodi.sourceforge.net/DTD/sodipodi-0.dtd"
   xmlns:inkscape="http://www.inkscape.org/namespaces/inkscape"
   width="48"
   height="48"
   viewBox="0 0 12.7 12.7"
   version="1.1"
   id="svg4"
   sodipodi:docname="trashindicator.svg"
   inkscape:version="0.92.5 (2060ec1f9f, 2020-04-08)">
  <defs
     id="defs8" />
  <style
     id="current-color-scheme"
     type="text/css">
      .ColorScheme-Highlight {
        color:#5beedc;
      }
  </style>
  <path
     d="M 6.35,0 A 6.3499999,6.3499999 0 0 0 0,6.3499999 6.3499999,6.3499999 0 0 0 6.35,12.7 6.3499999,6.3499999 0 0 0 12.7,6.3499999 6.3499999,6.3499999 0 0 0 6.35,0 Z m 0,0.79374999 A 5.5562499,5.5562499 0 0 1 11.90625,6.3499999 5.5562499,5.5562499 0 0 1 6.35,11.90625 5.5562499,5.5562499 0 0 1 0.79374999,6.3499999 5.5562499,5.5562499 0 0 1 6.35,0.79374999 Z M 5.8208333,2.6458333 C 5.527675,2.6458333 5.2916666,2.8818416 5.2916666,3.175 V 3.4395833 H 3.175 V 3.96875 h 0.5291667 v 5.8208332 c 0,0.1465792 0.1180041,0.2645838 0.2645833,0.2645838 h 4.7624999 c 0.1465792,0 0.2645834,-0.1180046 0.2645834,-0.2645838 V 3.96875 H 9.5249999 V 3.4395833 H 7.4083333 V 3.175 c 0,-0.2931584 -0.2360084,-0.5291667 -0.5291667,-0.5291667 z m 0.2645833,0.2645833 h 0.5291667 c 0.1465791,0 0.2645833,0.1180042 0.2645833,0.2645834 V 3.4395833 H 5.8208333 V 3.175 c 0,-0.1465792 0.1180042,-0.2645834 0.2645833,-0.2645834 z M 6.35,5.0270833 c 0.1465791,0 0.2645833,0.1180041 0.2645833,0.2645833 v 2.9104166 c 0,0.1465792 -0.1180042,0.2645834 -0.2645833,0.2645834 -0.1465792,0 -0.2645834,-0.1180042 -0.2645834,-0.2645834 V 5.2916666 C 6.0854166,5.1450874 6.2034208,5.0270833 6.35,5.0270833 Z M 5.0270833,5.5562499 c 0.1465792,0 0.2645833,0.1180042 0.2645833,0.2645834 v 1.8520833 c 0,0.1465791 -0.1180041,0.2645833 -0.2645833,0.2645833 C 4.8805041,7.9374999 4.7625,7.8194957 4.7625,7.6729166 V 5.8208333 c 0,-0.1465792 0.1180041,-0.2645834 0.2645833,-0.2645834 z m 2.6458333,0 c 0.1465792,0 0.2645833,0.1180042 0.2645833,0.2645834 v 1.8520833 c 0,0.1465791 -0.1180041,0.2645833 -0.2645833,0.2645833 -0.1465792,0 -0.2645833,-0.1180042 -0.2645833,-0.2645833 V 5.8208333 c 0,-0.1465792 0.1180041,-0.2645834 0.2645833,-0.2645834 z"
     id="path890"
     class="ColorScheme-Highlight"
     style="fill:#5beedc"
     inkscape:connector-curvature="0" />
</svg>
