<?xml version="1.0" encoding="UTF-8" standalone="no"?>
<svg
   xmlns:dc="http://purl.org/dc/elements/1.1/"
   xmlns:cc="http://creativecommons.org/ns#"
   xmlns:rdf="http://www.w3.org/1999/02/22-rdf-syntax-ns#"
   xmlns:svg="http://www.w3.org/2000/svg"
   xmlns="http://www.w3.org/2000/svg"
   xmlns:sodipodi="http://sodipodi.sourceforge.net/DTD/sodipodi-0.dtd"
   xmlns:inkscape="http://www.inkscape.org/namespaces/inkscape"
   width="48"
   height="48"
   viewBox="0 0 12.7 12.7"
   version="1.1"
   id="svg4"
   sodipodi:docname="inkscape.svg"
   inkscape:version="0.92.4 (5da689c313, 2019-01-14)">
  <metadata
     id="metadata10">
    <rdf:RDF>
      <cc:Work
         rdf:about="">
        <dc:format>image/svg+xml</dc:format>
        <dc:type
           rdf:resource="http://purl.org/dc/dcmitype/StillImage" />
        <dc:title></dc:title>
      </cc:Work>
    </rdf:RDF>
  </metadata>
  <defs
     id="defs8" />
  <sodipodi:namedview
     pagecolor="#ffffff"
     bordercolor="#666666"
     borderopacity="1"
     objecttolerance="10"
     gridtolerance="10"
     guidetolerance="10"
     inkscape:pageopacity="0"
     inkscape:pageshadow="2"
     inkscape:window-width="1087"
     inkscape:window-height="480"
     id="namedview6"
     showgrid="false"
     inkscape:zoom="4.9166667"
     inkscape:cx="2.1355932"
     inkscape:cy="24"
     inkscape:window-x="0"
     inkscape:window-y="25"
     inkscape:window-maximized="0"
     inkscape:current-layer="svg4" />
  <path
     d="m 6.344,0.073 a 6.29,6.29 0 0 0 -6.29,6.29 6.29,6.29 0 0 0 6.29,6.288 6.29,6.29 0 0 0 6.29,-6.289 6.29,6.29 0 0 0 -6.29,-6.29 z M 6.326,1.009 A 5.407,5.407 0 0 1 11.733,6.416 5.407,5.407 0 0 1 6.326,11.823 5.407,5.407 0 0 1 0.92,6.416 5.407,5.407 0 0 1 6.326,1.01 Z m 0,0.473 c -0.352,0 -0.705,0.169 -0.976,0.51 L 1.886,6.362 C 1.876,6.374 1.869,6.386 1.861,6.398 L 1.846,6.418 1.835,6.434 C 1.823,6.453 1.815,6.473 1.806,6.492 1.798,6.508 1.789,6.524 1.782,6.541 1.771,6.568 1.763,6.597 1.755,6.626 L 1.743,6.671 1.741,6.678 a 0.71,0.71 0 0 0 0.01,0.299 L 1.763,7.013 A 0.7,0.7 0 0 0 1.815,7.14 l 0.01,0.023 h 0.003 c 0.123,0.211 0.349,0.355 0.611,0.355 h 1.776 a 0.355,0.355 0 1 1 0,0.71 0.355,0.355 0 1 0 0,0.71 h 1.42 a 0.355,0.355 0 0 1 0,0.71 0.71,0.71 0 1 0 0,1.42 H 7.41 a 0.355,0.355 0 1 0 0,-0.71 0.355,0.355 0 1 1 0,-0.71 h 1.066 a 0.355,0.355 0 1 0 0,-0.71 0.355,0.355 0 1 1 0,-0.71 h 1.42 a 1.065,1.065 0 0 0 1.046,-1.26 C 10.94,6.958 10.939,6.947 10.936,6.937 A 1.065,1.065 0 0 0 10.866,6.726 L 10.846,6.679 C 10.834,6.656 10.818,6.635 10.805,6.614 10.792,6.592 10.78,6.57 10.765,6.549 L 10.751,6.526 7.315,2.011 C 7.045,1.658 6.686,1.481 6.326,1.481 Z M 6.302,1.899 c 0.067,0 0.133,0.035 0.184,0.099 L 7.882,3.74 8.478,4.485 C 8.663,4.717 8.358,4.781 8.249,4.801 7.876,4.871 7.65,4.065 7.274,4.048 6.759,4.025 6.281,4.985 5.891,4.957 5.538,4.931 5.57,4.012 5.261,4.051 5.023,4.081 5.194,4.751 4.885,4.856 4.761,4.89 3.819,4.766 4.147,4.451 L 4.192,4.394 C 4.35,4.194 4.562,3.944 4.725,3.74 L 6.12,1.998 a 0.242,0.242 0 0 1 0.182,-0.1 z M 5.635,7.518 H 6.7 a 0.355,0.355 0 1 1 0,0.71 H 5.635 a 0.355,0.355 0 1 1 0,-0.71 z m 4.261,1.42 A 0.355,0.355 0 0 0 9.541,9.293 0.355,0.355 0 0 0 9.896,9.649 0.355,0.355 0 0 0 10.251,9.293 0.355,0.355 0 0 0 9.896,8.938 Z M 4.215,9.826 A 0.178,0.178 0 0 0 4.037,10.004 0.178,0.178 0 0 0 4.215,10.181 0.178,0.178 0 0 0 4.392,10.004 0.178,0.178 0 0 0 4.215,9.826 Z m 4.971,0 A 0.178,0.178 0 0 0 9.008,10.004 0.178,0.178 0 0 0 9.186,10.181 0.178,0.178 0 0 0 9.364,10.004 0.178,0.178 0 0 0 9.186,9.826 Z"
     id="path2"
     inkscape:connector-curvature="0"
     style="fill:#5beedc" />
</svg>
