<?xml version="1.0" encoding="UTF-8" standalone="no"?>
<svg
   xmlns:dc="http://purl.org/dc/elements/1.1/"
   xmlns:cc="http://creativecommons.org/ns#"
   xmlns:rdf="http://www.w3.org/1999/02/22-rdf-syntax-ns#"
   xmlns:svg="http://www.w3.org/2000/svg"
   xmlns="http://www.w3.org/2000/svg"
   xmlns:sodipodi="http://sodipodi.sourceforge.net/DTD/sodipodi-0.dtd"
   xmlns:inkscape="http://www.inkscape.org/namespaces/inkscape"
   width="48"
   height="48"
   viewBox="0 0 12.7 12.7"
   version="1.1"
   id="svg4"
   sodipodi:docname="org.gnome.Settings.Devel.svg"
   inkscape:version="0.92.5 (2060ec1f9f, 2020-04-08)">
  <metadata
     id="metadata10">
    <rdf:RDF>
      <cc:Work
         rdf:about="">
        <dc:format>image/svg+xml</dc:format>
        <dc:type
           rdf:resource="http://purl.org/dc/dcmitype/StillImage" />
        <dc:title></dc:title>
      </cc:Work>
    </rdf:RDF>
  </metadata>
  <defs
     id="defs8" />
  <sodipodi:namedview
     pagecolor="#ffffff"
     bordercolor="#666666"
     borderopacity="1"
     objecttolerance="10"
     gridtolerance="10"
     guidetolerance="10"
     inkscape:pageopacity="0"
     inkscape:pageshadow="2"
     inkscape:window-width="1087"
     inkscape:window-height="480"
     id="namedview6"
     showgrid="false"
     inkscape:zoom="4.9166667"
     inkscape:cx="2.1355932"
     inkscape:cy="24"
     inkscape:window-x="0"
     inkscape:window-y="25"
     inkscape:window-maximized="0"
     inkscape:current-layer="svg4" />
  <path
     d="M 6.35,0.083 A 6.267,6.267 0 0 0 0.083,6.35 6.267,6.267 0 0 0 6.35,12.618 6.267,6.267 0 0 0 12.617,6.35 6.267,6.267 0 0 0 6.35,0.083 Z M 6.332,1.015 h 0.001 a 5.388,5.388 0 0 1 5.388,5.39 5.388,5.388 0 0 1 -0.4,2.024 L 10.396,8.43 11.02,9.054 a 5.388,5.388 0 0 1 -0.77,1.04 L 8.588,8.43 h -1.81 l 2.491,2.49 A 5.388,5.388 0 0 1 8.046,11.506 L 4.969,8.429 h -1.81 l 3.357,3.356 A 5.388,5.388 0 0 1 6.332,11.792 5.388,5.388 0 0 1 4.32,11.398 L 1.351,8.429 H 1.343 A 5.388,5.388 0 0 1 0.943,6.404 5.388,5.388 0 0 1 6.333,1.015 Z M 6.3,2.28 5.54,2.33 l 0.4,0.4 0.11,0.03 c 0,0 0.49,0.11 0.87,0.4 0.39,0.27 0.49,0.76 0.2,1.32 C 6.94,4.82 6.83,4.93 6.6,5.2 6.32,5.52 6.08,5.77 5.97,5.88 A 0.25,0.25 0 0 0 5.85,5.94 L 4.137,7.664 H 5.668 L 6.56,6.61 A 0.26,0.26 0 0 0 6.61,6.48 C 6.7,6.37 7.03,5.96 7.71,5.28 8.52,4.48 8.66,4.88 8.81,5.02 8.96,5.16 8.94,5.28 8.94,5.28 8.96,5.35 9.01,5.46 9.07,5.51 l 0.24,0.2 C 9.33,5.71 9.74,5.27 9.87,5.12 9.99,5 10.17,4.74 10.17,4.74 a 0.08,0.08 0 0 0 0,-0.1 c 0,0 -0.23,-0.25 -0.31,-0.25 C 9.62,4.37 9.51,4.35 9.39,4.17 9.27,3.99 9.27,3.85 9.21,3.74 A 3.4,3.4 0 0 0 8.27,2.91 3.87,3.87 0 0 0 6.3,2.28 Z M 3.9,2.5 A 2.2,2.2 0 0 0 3.35,2.56 0.1,0.1 0 0 0 3.3,2.58 C 3.28,2.6 3.27,2.63 3.27,2.66 a 0.1,0.1 0 0 0 0.05,0.08 l 1.01,0.57 c 0.1,0.05 0.14,0.16 0.13,0.3 A 1.15,1.15 0 0 1 4.31,4.11 1.14,1.14 0 0 1 3.97,4.51 C 3.85,4.59 3.74,4.61 3.65,4.56 L 2.65,4 A 0.1,0.1 0 0 0 2.53,4 0.1,0.1 0 0 0 2.5,4.09 v 0.03 c 0.16,0.46 0.49,0.89 0.85,1.1 0.3,0.16 0.62,0.2 0.93,0.12 0.21,0.08 0.5,0.23 0.8,0.52 L 5.35,6.09 C 5.63,5.75 5.85,5.54 6.09,5.3 L 5.88,5.07 A 2.5,2.5 0 0 1 5.37,4.15 C 5.47,3.58 5.23,2.99 4.72,2.71 A 1.81,1.81 0 0 0 3.89,2.51 Z M 7.23,6.35 C 6.97,6.64 6.68,6.93 6.36,7.23 l 0.405,0.434 h 1.869 z"
     id="path2"
     inkscape:connector-curvature="0"
     style="fill:#5beedc" />
</svg>
