<?xml version="1.0" encoding="UTF-8" standalone="no"?>
<svg
   xmlns:dc="http://purl.org/dc/elements/1.1/"
   xmlns:cc="http://creativecommons.org/ns#"
   xmlns:rdf="http://www.w3.org/1999/02/22-rdf-syntax-ns#"
   xmlns:svg="http://www.w3.org/2000/svg"
   xmlns="http://www.w3.org/2000/svg"
   xmlns:xlink="http://www.w3.org/1999/xlink"
   xmlns:sodipodi="http://sodipodi.sourceforge.net/DTD/sodipodi-0.dtd"
   xmlns:inkscape="http://www.inkscape.org/namespaces/inkscape"
   width="48"
   height="48"
   viewBox="0 0 12.7 12.7"
   version="1.1"
   id="svg151"
   sodipodi:docname="org.gnome.DiskUtility.Devel.svg"
   inkscape:version="0.92.5 (2060ec1f9f, 2020-04-08)">
  <metadata
     id="metadata155">
    <rdf:RDF>
      <cc:Work
         rdf:about="">
        <dc:format>image/svg+xml</dc:format>
        <dc:type
           rdf:resource="http://purl.org/dc/dcmitype/StillImage" />
        <dc:title></dc:title>
      </cc:Work>
    </rdf:RDF>
  </metadata>
  <sodipodi:namedview
     pagecolor="#ffffff"
     bordercolor="#666666"
     borderopacity="1"
     objecttolerance="10"
     gridtolerance="10"
     guidetolerance="10"
     inkscape:pageopacity="0"
     inkscape:pageshadow="2"
     inkscape:window-width="1087"
     inkscape:window-height="480"
     id="namedview153"
     showgrid="false"
     inkscape:zoom="4.9166667"
     inkscape:cx="2.1355932"
     inkscape:cy="24"
     inkscape:window-x="0"
     inkscape:window-y="25"
     inkscape:window-maximized="0"
     inkscape:current-layer="svg151" />
  <defs
     id="defs147">
    <radialGradient
       id="B"
       cx="128"
       cy="199.58"
       r="16"
       gradientTransform="matrix(.25 0 0 .25 0 53)"
       gradientUnits="userSpaceOnUse">
      <stop
         stop-opacity=".251"
         offset="0"
         id="stop2" />
      <stop
         stop-opacity=".031"
         offset="1"
         id="stop4" />
    </radialGradient>
    <radialGradient
       id="C"
       cx="127.94"
       cy="200.07"
       r="8"
       gradientTransform="translate(-12 34.132) scale(.34391)"
       gradientUnits="userSpaceOnUse">
      <stop
         stop-color="#949390"
         offset="0"
         id="stop7" />
      <stop
         stop-color="#424048"
         offset="1"
         id="stop9" />
    </radialGradient>
    <radialGradient
       id="E"
       cx="128"
       cy="199.58"
       r="16"
       gradientTransform="matrix(.25 0 0 .25 64 53)"
       gradientUnits="userSpaceOnUse">
      <stop
         stop-opacity=".251"
         offset="0"
         id="stop12" />
      <stop
         stop-opacity=".031"
         offset="1"
         id="stop14" />
    </radialGradient>
    <radialGradient
       id="F"
       cx="127.94"
       cy="200.07"
       r="8"
       gradientTransform="translate(52 34.132) scale(.34391)"
       gradientUnits="userSpaceOnUse">
      <stop
         stop-color="#949390"
         offset="0"
         id="stop17" />
      <stop
         stop-color="#424048"
         offset="1"
         id="stop19" />
    </radialGradient>
    <radialGradient
       id="H"
       cx="128"
       cy="199.58"
       r="16"
       gradientTransform="matrix(.25 0 0 .25 64 -7)"
       gradientUnits="userSpaceOnUse">
      <stop
         stop-opacity=".251"
         offset="0"
         id="stop22" />
      <stop
         stop-opacity=".031"
         offset="1"
         id="stop24" />
    </radialGradient>
    <radialGradient
       id="I"
       cx="127.94"
       cy="200.07"
       r="8"
       gradientTransform="translate(52 -25.868) scale(.34391)"
       gradientUnits="userSpaceOnUse">
      <stop
         stop-color="#949390"
         offset="0"
         id="stop27" />
      <stop
         stop-color="#424048"
         offset="1"
         id="stop29" />
    </radialGradient>
    <radialGradient
       id="J"
       cx="128"
       cy="199.58"
       r="16"
       gradientTransform="matrix(.25 0 0 .25 64 -35)"
       gradientUnits="userSpaceOnUse">
      <stop
         stop-opacity=".251"
         offset="0"
         id="stop32" />
      <stop
         stop-opacity=".031"
         offset="1"
         id="stop34" />
    </radialGradient>
    <radialGradient
       id="K"
       cx="127.94"
       cy="200.07"
       r="8"
       gradientTransform="translate(52 -53.868) scale(.34391)"
       gradientUnits="userSpaceOnUse">
      <stop
         stop-color="#949390"
         offset="0"
         id="stop37" />
      <stop
         stop-color="#424048"
         offset="1"
         id="stop39" />
    </radialGradient>
    <radialGradient
       id="L"
       cx="128"
       cy="199.58"
       r="16"
       gradientTransform="matrix(.25 0 0 .25 0 -35)"
       gradientUnits="userSpaceOnUse">
      <stop
         stop-opacity=".251"
         offset="0"
         id="stop42" />
      <stop
         stop-opacity=".031"
         offset="1"
         id="stop44" />
    </radialGradient>
    <radialGradient
       id="M"
       cx="127.94"
       cy="200.07"
       r="8"
       gradientTransform="translate(-12 -53.868) scale(.34391)"
       gradientUnits="userSpaceOnUse">
      <stop
         stop-color="#949390"
         offset="0"
         id="stop47" />
      <stop
         stop-color="#424048"
         offset="1"
         id="stop49" />
    </radialGradient>
    <radialGradient
       id="N"
       cx="128"
       cy="199.58"
       r="16"
       gradientTransform="matrix(.25 0 0 .25 0 -7)"
       gradientUnits="userSpaceOnUse">
      <stop
         stop-opacity=".251"
         offset="0"
         id="stop52" />
      <stop
         stop-opacity=".031"
         offset="1"
         id="stop54" />
    </radialGradient>
    <radialGradient
       id="O"
       cx="127.94"
       cy="200.07"
       r="8"
       gradientTransform="translate(-12 -25.868) scale(.34391)"
       gradientUnits="userSpaceOnUse">
      <stop
         stop-color="#949390"
         offset="0"
         id="stop57" />
      <stop
         stop-color="#424048"
         offset="1"
         id="stop59" />
    </radialGradient>
    <radialGradient
       id="P"
       cx="62.562"
       cy="221.95"
       r="36.044"
       gradientTransform="matrix(.59826 .63515 -.11523 .10854 58.71 2.173)"
       gradientUnits="userSpaceOnUse">
      <stop
         stop-color="#010101"
         offset="0"
         id="stop62" />
      <stop
         stop-color="#010101"
         stop-opacity="0"
         offset="1"
         id="stop64" />
    </radialGradient>
    <radialGradient
       xlink:href="#B"
       id="g"
       gradientUnits="userSpaceOnUse"
       gradientTransform="matrix(.25 0 0 .25 0 53)"
       cx="128"
       cy="199.58"
       r="16" />
    <radialGradient
       xlink:href="#C"
       id="h"
       gradientUnits="userSpaceOnUse"
       gradientTransform="translate(-12 34.132) scale(.34391)"
       cx="127.94"
       cy="200.07"
       r="8" />
    <radialGradient
       xlink:href="#E"
       id="j"
       gradientUnits="userSpaceOnUse"
       gradientTransform="matrix(.25 0 0 .25 64 53)"
       cx="128"
       cy="199.58"
       r="16" />
    <radialGradient
       xlink:href="#F"
       id="k"
       gradientUnits="userSpaceOnUse"
       gradientTransform="translate(52 34.132) scale(.34391)"
       cx="127.94"
       cy="200.07"
       r="8" />
    <radialGradient
       xlink:href="#H"
       id="n"
       gradientUnits="userSpaceOnUse"
       gradientTransform="matrix(.25 0 0 .25 64 -7)"
       cx="128"
       cy="199.58"
       r="16" />
    <radialGradient
       xlink:href="#I"
       id="o"
       gradientUnits="userSpaceOnUse"
       gradientTransform="translate(52 -25.868) scale(.34391)"
       cx="127.94"
       cy="200.07"
       r="8" />
    <radialGradient
       xlink:href="#J"
       id="p"
       gradientUnits="userSpaceOnUse"
       gradientTransform="matrix(.25 0 0 .25 64 -35)"
       cx="128"
       cy="199.58"
       r="16" />
    <radialGradient
       xlink:href="#K"
       id="q"
       gradientUnits="userSpaceOnUse"
       gradientTransform="translate(52 -53.868) scale(.34391)"
       cx="127.94"
       cy="200.07"
       r="8" />
    <radialGradient
       xlink:href="#L"
       id="r"
       gradientUnits="userSpaceOnUse"
       gradientTransform="matrix(.25 0 0 .25 0 -35)"
       cx="128"
       cy="199.58"
       r="16" />
    <radialGradient
       xlink:href="#M"
       id="s"
       gradientUnits="userSpaceOnUse"
       gradientTransform="translate(-12 -53.868) scale(.34391)"
       cx="127.94"
       cy="200.07"
       r="8" />
    <radialGradient
       xlink:href="#N"
       id="t"
       gradientUnits="userSpaceOnUse"
       gradientTransform="matrix(.25 0 0 .25 0 -7)"
       cx="128"
       cy="199.58"
       r="16" />
    <radialGradient
       xlink:href="#O"
       id="u"
       gradientUnits="userSpaceOnUse"
       gradientTransform="translate(-12 -25.868) scale(.34391)"
       cx="127.94"
       cy="200.07"
       r="8" />
    <radialGradient
       xlink:href="#P"
       id="w"
       gradientUnits="userSpaceOnUse"
       gradientTransform="matrix(.59826 .63515 -.11523 .10854 58.71 2.173)"
       cx="62.562"
       cy="221.95"
       r="36.044" />
    <linearGradient
       id="y"
       x1="176"
       x2="495"
       y1="799.96"
       y2="799.96"
       gradientTransform="matrix(.25 0 0 .24306 -20 -80.436)"
       gradientUnits="userSpaceOnUse">
      <stop
         offset="0"
         id="stop80" />
      <stop
         stop-color="#424048"
         offset=".047"
         id="stop82" />
      <stop
         stop-color="#241f31"
         offset=".097"
         id="stop84" />
      <stop
         stop-color="#241f31"
         offset=".9"
         id="stop86" />
      <stop
         stop-color="#424048"
         offset=".95"
         id="stop88" />
      <stop
         offset="1"
         id="stop90" />
    </linearGradient>
    <linearGradient
       id="z"
       x1="177"
       x2="496"
       y1="619.96"
       y2="619.96"
       gradientTransform="matrix(.25 0 0 .24306 -20 -80.436)"
       gradientUnits="userSpaceOnUse">
      <stop
         stop-color="#424048"
         offset="0"
         id="stop93" />
      <stop
         stop-color="#f6f5f4"
         offset=".047"
         id="stop95" />
      <stop
         stop-color="#949390"
         offset=".097"
         id="stop97" />
      <stop
         stop-color="#d5d3cf"
         offset=".9"
         id="stop99" />
      <stop
         stop-color="#f6f5f4"
         offset=".95"
         id="stop101" />
      <stop
         stop-color="#424048"
         offset="1"
         id="stop103" />
    </linearGradient>
    <linearGradient
       id="A"
       x1="347"
       x2="323"
       y1="217"
       y2="-172"
       gradientTransform="matrix(.25 0 0 .25 0 53)"
       gradientUnits="userSpaceOnUse">
      <stop
         stop-color="#f6f5f4"
         offset="0"
         id="stop106" />
      <stop
         stop-color="#fff"
         offset="1"
         id="stop108" />
    </linearGradient>
    <linearGradient
       id="D"
       x1="249"
       x2="249"
       y1="125"
       y2="-112.16"
       gradientTransform="matrix(.25 0 0 .25 0 53)"
       gradientUnits="userSpaceOnUse">
      <stop
         stop-color="#c0bfbc"
         offset="0"
         id="stop111" />
      <stop
         stop-color="#f6f5f4"
         offset="1"
         id="stop113" />
    </linearGradient>
    <linearGradient
       id="G"
       x1="298.66"
       x2="328.1"
       y1="125.79"
       y2="70.897"
       gradientTransform="matrix(.25 0 0 .25 0 53)"
       gradientUnits="userSpaceOnUse">
      <stop
         stop-color="#47454b"
         offset="0"
         id="stop116" />
      <stop
         stop-color="#dfdee0"
         offset="1"
         id="stop118" />
    </linearGradient>
    <linearGradient
       id="Q"
       x1="301.62"
       x2="318.91"
       y1="113.77"
       y2="59.234"
       gradientTransform="matrix(.25 0 0 .25 0 53)"
       gradientUnits="userSpaceOnUse">
      <stop
         stop-color="#5e5c64"
         offset="0"
         id="stop121" />
      <stop
         stop-color="#77767b"
         offset="1"
         id="stop123" />
    </linearGradient>
    <linearGradient
       xlink:href="#y"
       id="d"
       gradientUnits="userSpaceOnUse"
       gradientTransform="matrix(.25 0 0 .24306 -20 -80.436)"
       x1="176"
       y1="799.96"
       x2="495"
       y2="799.96" />
    <linearGradient
       xlink:href="#z"
       id="e"
       gradientUnits="userSpaceOnUse"
       gradientTransform="matrix(.25 0 0 .24306 -20 -80.436)"
       x1="177"
       y1="619.96"
       x2="496"
       y2="619.96" />
    <linearGradient
       xlink:href="#A"
       id="f"
       gradientUnits="userSpaceOnUse"
       gradientTransform="matrix(.25 0 0 .25 0 53)"
       x1="347"
       y1="217"
       x2="323"
       y2="-172" />
    <linearGradient
       xlink:href="#D"
       id="i"
       gradientUnits="userSpaceOnUse"
       gradientTransform="matrix(.25 0 0 .25 0 53)"
       x1="249"
       y1="125"
       x2="249"
       y2="-112.16" />
    <linearGradient
       xlink:href="#G"
       id="m"
       gradientUnits="userSpaceOnUse"
       gradientTransform="matrix(.25 0 0 .25 0 53)"
       x1="298.66"
       y1="125.79"
       x2="328.1"
       y2="70.897" />
    <linearGradient
       xlink:href="#Q"
       id="x"
       gradientUnits="userSpaceOnUse"
       gradientTransform="matrix(.25 0 0 .25 0 53)"
       x1="301.62"
       y1="113.77"
       x2="318.91"
       y2="59.234" />
    <clipPath
       id="b">
      <path
         d="M0 0h128v128H0z"
         id="path132" />
    </clipPath>
    <clipPath
       id="c">
      <path
         d="M0 0h128v128H0z"
         id="path135" />
    </clipPath>
    <clipPath
       id="l">
      <path
         d="M0 0h192v152H0z"
         id="path138" />
    </clipPath>
    <clipPath
       id="v">
      <path
         d="M0 0h192v152H0z"
         id="path141" />
    </clipPath>
    <filter
       id="a"
       x="0%"
       y="0%"
       width="100%"
       height="100%">
      <feColorMatrix
         in="SourceGraphic"
         values="0 0 0 0 1 0 0 0 0 1 0 0 0 0 1 0 0 0 1 0"
         id="feColorMatrix144" />
    </filter>
  </defs>
  <path
     d="M 6.35,0.083 A 6.267,6.267 0 0 0 0.082,6.349 6.267,6.267 0 0 0 6.35,12.617 6.267,6.267 0 0 0 12.617,6.349 6.267,6.267 0 0 0 6.35,0.083 Z M 6.332,1.015 h 0.001 a 5.388,5.388 0 0 1 5.388,5.39 5.388,5.388 0 0 1 -0.4,2.024 L 10.396,8.43 11.02,9.054 a 5.388,5.388 0 0 1 -0.77,1.04 L 8.588,8.43 h -1.81 l 2.491,2.49 A 5.388,5.388 0 0 1 8.046,11.506 L 4.969,8.429 h -1.81 l 3.357,3.356 A 5.388,5.388 0 0 1 6.332,11.792 5.388,5.388 0 0 1 4.32,11.398 L 1.351,8.429 H 1.343 a 5.388,5.388 0 0 1 -0.4,-2.025 5.388,5.388 0 0 1 5.39,-5.39 z M 3.654,2.716 v 10e-4 c -0.253,0 -0.397,0.035 -0.45,0.234 L 1.984,7.478 10.716,7.483 9.396,2.95 C 9.36,2.82 9.165,2.716 9.001,2.716 Z m 2.091,0.317 a 0.119,0.119 0 0 1 0.04,0.004 c 0.431,0.133 0.829,0.43 1.01,0.775 0.144,0.272 0.16,0.58 0.071,0.88 0.076,0.21 0.232,0.481 0.537,0.783 L 8.908,6.962 H 7.183 L 6.54,6.33 C 6.202,5.995 5.908,5.85 5.686,5.784 5.132,5.906 4.579,5.7 4.331,5.23 4.149,4.885 4.128,4.37 4.251,3.918 4.256,3.902 4.258,3.886 4.27,3.874 A 0.114,0.114 0 0 1 4.357,3.839 c 0.03,0.002 0.057,0.018 0.071,0.044 l 0.493,0.95 c 0.044,0.085 0.15,0.117 0.29,0.106 A 1.22,1.22 0 0 0 5.695,4.772 1.26,1.26 0 0 0 6.092,4.437 C 6.174,4.32 6.198,4.205 6.153,4.121 L 5.66,3.18 C 5.642,3.146 5.65,3.106 5.678,3.074 5.691,3.059 5.703,3.044 5.722,3.039 V 3.038 A 0.119,0.119 0 0 1 5.745,3.034 Z"
     id="path149"
     inkscape:connector-curvature="0"
     style="fill:#5beedc" />
</svg>
