<?xml version="1.0" encoding="UTF-8" standalone="no"?>
<svg
   xmlns:dc="http://purl.org/dc/elements/1.1/"
   xmlns:cc="http://creativecommons.org/ns#"
   xmlns:rdf="http://www.w3.org/1999/02/22-rdf-syntax-ns#"
   xmlns:svg="http://www.w3.org/2000/svg"
   xmlns="http://www.w3.org/2000/svg"
   xmlns:sodipodi="http://sodipodi.sourceforge.net/DTD/sodipodi-0.dtd"
   xmlns:inkscape="http://www.inkscape.org/namespaces/inkscape"
   width="48"
   height="48"
   viewBox="0 0 12.7 12.7"
   version="1.1"
   id="svg8"
   sodipodi:docname="openscad.svg"
   inkscape:version="0.92.5 (2060ec1f9f, 2020-04-08)">
  <metadata
     id="metadata14">
    <rdf:RDF>
      <cc:Work
         rdf:about="">
        <dc:format>image/svg+xml</dc:format>
        <dc:type
           rdf:resource="http://purl.org/dc/dcmitype/StillImage" />
        <dc:title></dc:title>
      </cc:Work>
    </rdf:RDF>
  </metadata>
  <defs
     id="defs12" />
  <sodipodi:namedview
     pagecolor="#ffffff"
     bordercolor="#666666"
     borderopacity="1"
     objecttolerance="10"
     gridtolerance="10"
     guidetolerance="10"
     inkscape:pageopacity="0"
     inkscape:pageshadow="2"
     inkscape:window-width="1085"
     inkscape:window-height="480"
     id="namedview10"
     showgrid="false"
     inkscape:zoom="4.9166667"
     inkscape:cx="2.1355932"
     inkscape:cy="24"
     inkscape:window-x="0"
     inkscape:window-y="25"
     inkscape:window-maximized="0"
     inkscape:current-layer="svg8" />
  <path
     d="M 6.34,0.075 A 6.295,6.295 0 0 0 0.055,6.36 6.295,6.295 0 0 0 6.34,12.655 6.295,6.295 0 0 0 12.634,6.36 6.295,6.295 0 0 0 6.34,0.075 Z m -0.01,0.94 a 5.408,5.408 0 0 1 5.396,5.387 5.407,5.407 0 1 1 -10.814,0 c 0,-2.987 2.43,-5.387 5.417,-5.387 z M 6.323,3.385 A 3.064,3.064 0 0 0 3.268,6.22 L 3.724,5.995 A 1.544,0.84 64.81 0 1 3.741,5.99 1.544,0.84 64.81 0 1 3.825,5.972 1.544,0.84 64.81 0 1 3.913,5.969 1.544,0.84 64.81 0 1 4.007,5.98 a 1.544,0.84 64.81 0 1 0.096,0.025 1.544,0.84 64.81 0 1 0.099,0.04 1.544,0.84 64.81 0 1 0.1,0.053 1.544,0.84 64.81 0 1 0.1,0.066 1.544,0.84 64.81 0 1 0.1,0.079 1.544,0.84 64.81 0 1 0.098,0.09 1.544,0.84 64.81 0 1 0.095,0.101 1.544,0.84 64.81 0 1 0.092,0.111 1.544,0.84 64.81 0 1 0.088,0.12 1.544,0.84 64.81 0 1 0.082,0.127 1.544,0.84 64.81 0 1 0.054,0.093 1.544,0.84 64.81 0 1 0.07,0.137 1.544,0.84 64.81 0 1 0.064,0.14 A 1.544,0.84 64.81 0 1 5.201,7.305 1.544,0.84 64.81 0 1 5.248,7.45 1.544,0.84 64.81 0 1 5.285,7.594 1.544,0.84 64.81 0 1 5.313,7.735 1.544,0.84 64.81 0 1 5.332,7.875 1.544,0.84 64.81 0 1 5.34,8.008 1.544,0.84 64.81 0 1 5.339,8.136 1.544,0.84 64.81 0 1 5.327,8.256 1.544,0.84 64.81 0 1 5.306,8.369 1.544,0.84 64.81 0 1 5.275,8.472 1.544,0.84 64.81 0 1 5.235,8.564 1.544,0.84 64.81 0 1 5.185,8.644 1.544,0.84 64.81 0 1 5.127,8.713 1.544,0.84 64.81 0 1 5.087,8.747 1.544,0.84 64.81 0 1 5.017,8.793 v 0.001 l -0.4,0.197 A 3.064,3.064 0 0 0 6.323,9.513 3.064,3.064 0 0 0 9.387,6.449 3.064,3.064 0 0 0 6.323,3.384 Z m 0,0.09 a 1.442,0.721 0 0 1 0.101,10e-4 1.442,0.721 0 0 1 0.144,0.01 1.442,0.721 0 0 1 0.14,0.015 1.442,0.721 0 0 1 0.137,0.022 1.442,0.721 0 0 1 0.131,0.03 A 1.442,0.721 0 0 1 7.101,3.589 1.442,0.721 0 0 1 7.219,3.631 1.442,0.721 0 0 1 7.327,3.678 1.442,0.721 0 0 1 7.425,3.731 1.442,0.721 0 0 1 7.513,3.788 1.442,0.721 0 0 1 7.588,3.85 1.442,0.721 0 0 1 7.651,3.914 1.442,0.721 0 0 1 7.7,3.982 1.442,0.721 0 0 1 7.735,4.052 1.442,0.721 0 0 1 7.757,4.124 1.442,0.721 0 0 1 7.764,4.196 1.442,0.721 0 0 1 7.761,4.246 1.442,0.721 0 0 1 7.743,4.318 1.442,0.721 0 0 1 7.713,4.388 1.442,0.721 0 0 1 7.667,4.457 1.442,0.721 0 0 1 7.607,4.522 1.442,0.721 0 0 1 7.536,4.585 1.442,0.721 0 0 1 7.452,4.644 1.442,0.721 0 0 1 7.357,4.698 1.442,0.721 0 0 1 7.251,4.746 1.442,0.721 0 0 1 7.137,4.79 1.442,0.721 0 0 1 7.014,4.828 1.442,0.721 0 0 1 6.884,4.859 1.442,0.721 0 0 1 6.748,4.884 1.442,0.721 0 0 1 6.608,4.902 1.442,0.721 0 0 1 6.466,4.912 1.442,0.721 0 0 1 6.323,4.916 1.442,0.721 0 0 1 6.22,4.914 1.442,0.721 0 0 1 6.078,4.906 1.442,0.721 0 0 1 5.937,4.89 1.442,0.721 0 0 1 5.8,4.867 1.442,0.721 0 0 1 5.668,4.837 1.442,0.721 0 0 1 5.543,4.802 1.442,0.721 0 0 1 5.426,4.76 1.442,0.721 0 0 1 5.318,4.712 1.442,0.721 0 0 1 5.219,4.66 1.442,0.721 0 0 1 5.132,4.602 1.442,0.721 0 0 1 5.057,4.542 1.442,0.721 0 0 1 4.994,4.476 1.442,0.721 0 0 1 4.944,4.409 1.442,0.721 0 0 1 4.909,4.339 1.442,0.721 0 0 1 4.888,4.267 1.442,0.721 0 0 1 4.88,4.196 1.442,0.721 0 0 1 4.884,4.144 1.442,0.721 0 0 1 4.902,4.074 1.442,0.721 0 0 1 4.933,4.002 1.442,0.721 0 0 1 4.979,3.934 1.442,0.721 0 0 1 5.037,3.868 1.442,0.721 0 0 1 5.109,3.805 1.442,0.721 0 0 1 5.193,3.747 1.442,0.721 0 0 1 5.288,3.693 1.442,0.721 0 0 1 5.393,3.644 1.442,0.721 0 0 1 5.508,3.6 1.442,0.721 0 0 1 5.631,3.563 1.442,0.721 0 0 1 5.761,3.532 1.442,0.721 0 0 1 5.896,3.506 1.442,0.721 0 0 1 6.036,3.489 1.442,0.721 0 0 1 6.178,3.478 1.442,0.721 0 0 1 6.323,3.474 Z m 2.24,2.791 a 0.837,1.357 27.887 0 1 0.06,0.006 0.837,1.357 27.887 0 1 0.084,0.02 0.837,1.357 27.887 0 1 0.077,0.032 0.837,1.357 27.887 0 1 0.072,0.044 0.837,1.357 27.887 0 1 0.048,0.04 0.837,1.357 27.887 0 1 0.058,0.063 0.837,1.357 27.887 0 1 0.051,0.074 0.837,1.357 27.887 0 1 0.043,0.084 0.837,1.357 27.887 0 1 0.033,0.093 0.837,1.357 27.887 0 1 0.024,0.1 0.837,1.357 27.887 0 1 0.014,0.11 A 0.837,1.357 27.887 0 1 9.132,7.045 0.837,1.357 27.887 0 1 9.127,7.165 0.837,1.357 27.887 0 1 9.112,7.286 0.837,1.357 27.887 0 1 9.088,7.411 0.837,1.357 27.887 0 1 9.054,7.538 2.681,2.681 0 0 1 8.962,7.75 2.681,2.681 0 0 1 8.833,7.985 2.681,2.681 0 0 1 8.682,8.206 2.681,2.681 0 0 1 8.509,8.411 2.681,2.681 0 0 1 8.316,8.597 0.837,1.357 27.887 0 1 8.256,8.637 0.837,1.357 27.887 0 1 8.159,8.69 0.837,1.357 27.887 0 1 8.062,8.733 0.837,1.357 27.887 0 1 7.965,8.764 0.837,1.357 27.887 0 1 7.871,8.782 0.837,1.357 27.887 0 1 7.779,8.788 0.837,1.357 27.887 0 1 7.692,8.781 0.837,1.357 27.887 0 1 7.608,8.761 0.837,1.357 27.887 0 1 7.531,8.731 0.837,1.357 27.887 0 1 7.459,8.686 0.837,1.357 27.887 0 1 7.413,8.649 0.837,1.357 27.887 0 1 7.354,8.585 0.837,1.357 27.887 0 1 7.303,8.511 0.837,1.357 27.887 0 1 7.261,8.427 0.837,1.357 27.887 0 1 7.226,8.335 0.837,1.357 27.887 0 1 7.202,8.235 0.837,1.357 27.887 0 1 7.188,8.126 0.837,1.357 27.887 0 1 7.183,8.012 0.837,1.357 27.887 0 1 7.188,7.894 0.837,1.357 27.887 0 1 7.202,7.772 0.837,1.357 27.887 0 1 7.226,7.647 0.837,1.357 27.887 0 1 7.259,7.52 0.837,1.357 27.887 0 1 7.301,7.395 0.837,1.357 27.887 0 1 7.352,7.27 0.837,1.357 27.887 0 1 7.411,7.148 0.837,1.357 27.887 0 1 7.477,7.03 0.837,1.357 27.887 0 1 7.551,6.916 0.837,1.357 27.887 0 1 7.63,6.809 0.837,1.357 27.887 0 1 7.714,6.709 0.837,1.357 27.887 0 1 7.804,6.617 0.837,1.357 27.887 0 1 7.896,6.534 0.837,1.357 27.887 0 1 7.991,6.462 0.837,1.357 27.887 0 1 8.087,6.4 0.837,1.357 27.887 0 1 8.185,6.348 0.837,1.357 27.887 0 1 8.282,6.309 0.837,1.357 27.887 0 1 8.378,6.283 0.837,1.357 27.887 0 1 8.472,6.268 0.837,1.357 27.887 0 1 8.562,6.266 Z M 2.875,6.45 A 1.544,0.84 64.811 0 0 2.789,6.463 1.544,0.84 64.811 0 0 2.739,6.481 1.544,0.84 64.81 0 0 2.667,6.516 1.544,0.84 64.811 0 0 2.657,6.521 1.544,0.84 64.811 0 0 2.647,6.527 1.544,0.84 64.81 0 0 2.6,6.564 1.544,0.84 64.811 0 0 2.57,6.587 1.544,0.84 64.81 0 0 2.522,6.645 1.544,0.84 64.811 0 0 2.494,6.687 1.544,0.84 64.81 0 0 2.472,6.724 1.544,0.84 64.811 0 0 2.448,6.772 1.544,0.84 64.81 0 0 2.43,6.814 1.544,0.84 64.811 0 0 2.412,6.867 1.544,0.84 64.81 0 0 2.397,6.915 1.544,0.84 64.811 0 0 2.384,6.972 1.544,0.84 64.81 0 0 2.374,7.026 1.544,0.84 64.811 0 0 2.366,7.091 1.544,0.84 64.81 0 0 2.361,7.144 1.544,0.84 64.811 0 0 2.359,7.21 1.544,0.84 64.81 0 0 2.358,7.275 a 1.544,0.84 64.811 0 0 0.003,0.06 1.544,0.84 64.81 0 0 0.004,0.073 1.544,0.84 64.811 0 0 0.007,0.064 1.544,0.84 64.81 0 0 0.01,0.073 1.544,0.84 64.811 0 0 0.013,0.07 1.544,0.84 64.81 0 0 0.014,0.07 1.544,0.84 64.811 0 0 0.016,0.069 1.544,0.84 64.81 0 0 0.02,0.078 A 1.544,0.84 64.811 0 0 2.467,7.9 1.544,0.84 64.81 0 0 2.49,7.972 1.544,0.84 64.811 0 0 2.515,8.039 1.544,0.84 64.81 0 0 2.548,8.124 1.544,0.84 64.811 0 0 2.567,8.169 1.544,0.84 64.81 0 0 2.61,8.263 1.544,0.84 64.811 0 0 2.635,8.314 1.544,0.84 64.81 0 0 2.679,8.399 1.544,0.84 64.811 0 0 2.73,8.489 1.544,0.84 64.81 0 0 2.741,8.508 1.544,0.84 64.81 0 0 2.814,8.62 1.544,0.84 64.811 0 0 2.849,8.67 1.544,0.84 64.81 0 0 2.901,8.74 1.544,0.84 64.811 0 0 2.937,8.787 1.544,0.84 64.81 0 0 2.992,8.853 1.544,0.84 64.811 0 0 3.028,8.892 1.544,0.84 64.81 0 0 3.09,8.958 1.544,0.84 64.811 0 0 3.118,8.985 1.544,0.84 64.81 0 0 3.189,9.05 1.544,0.84 64.811 0 0 3.214,9.07 1.544,0.84 64.81 0 0 3.288,9.13 1.544,0.84 64.811 0 0 3.313,9.147 1.544,0.84 64.81 0 0 3.392,9.198 1.544,0.84 64.811 0 0 3.409,9.208 1.544,0.84 64.81 0 0 3.491,9.252 1.544,0.84 64.811 0 0 3.51,9.26 a 1.544,0.84 64.81 0 0 0.08,0.032 1.544,0.84 64.811 0 0 0.015,0.005 1.544,0.84 64.81 0 0 0.084,0.022 1.544,0.84 64.811 0 0 0.01,10e-4 1.544,0.84 64.81 0 0 0.082,0.01 1.544,0.84 64.811 0 0 0.012,0 1.544,0.84 64.81 0 0 0.08,-0.002 1.544,0.84 64.81 0 0 0.002,0 A 1.544,0.84 64.81 0 0 3.955,9.31 1.544,0.84 64.811 0 0 3.963,9.308 1.544,0.84 64.81 0 0 4.029,9.281 1.544,0.84 64.811 0 0 4.086,9.249 1.544,0.84 64.811 0 0 4.152,9.193 1.544,0.84 64.811 0 0 4.194,9.147 1.544,0.84 64.811 0 0 4.245,9.069 1.544,0.84 64.811 0 0 4.289,8.981 1.544,0.84 64.811 0 0 4.323,8.881 1.544,0.84 64.811 0 0 4.347,8.771 1.544,0.84 64.811 0 0 4.361,8.653 1.544,0.84 64.811 0 0 4.366,8.527 1.544,0.84 64.811 0 0 4.36,8.394 1.544,0.84 64.811 0 0 4.345,8.257 1.544,0.84 64.811 0 0 4.319,8.117 1.544,0.84 64.811 0 0 4.284,7.973 1.544,0.84 64.811 0 0 4.24,7.828 1.544,0.84 64.811 0 0 4.187,7.685 1.544,0.84 64.811 0 0 4.126,7.544 1.544,0.84 64.811 0 0 4.057,7.406 1.544,0.84 64.811 0 0 3.981,7.272 1.544,0.84 64.811 0 0 3.924,7.182 1.544,0.84 64.811 0 0 3.838,7.06 1.544,0.84 64.811 0 0 3.748,6.946 1.544,0.84 64.811 0 0 3.652,6.842 1.544,0.84 64.811 0 0 3.555,6.749 1.544,0.84 64.811 0 0 3.455,6.666 1.544,0.84 64.811 0 0 3.355,6.596 1.544,0.84 64.811 0 0 3.255,6.54 1.544,0.84 64.811 0 0 3.156,6.496 1.544,0.84 64.811 0 0 3.059,6.466 1.544,0.84 64.811 0 0 2.965,6.451 1.544,0.84 64.811 0 0 2.875,6.45 Z"
     id="path2"
     inkscape:connector-curvature="0"
     style="fill:#5beedc" />
  <path
     d="M 8.741,3.566 A 0.51,0.51 0 0 0 8.618,3.591 L 8.616,3.588 8.59,3.601 A 0.478,0.478 0 0 0 8.526,3.632 L 8.003,3.889 a 3.064,3.064 0 0 1 0.05,0.03 3.064,3.064 0 0 1 0.243,0.186 3.064,3.064 0 0 1 0.225,0.209 3.064,3.064 0 0 1 0.202,0.23 3.064,3.064 0 0 1 0.178,0.249 3.064,3.064 0 0 1 0.152,0.266 3.064,3.064 0 0 1 0.125,0.28 3.064,3.064 0 0 1 0.097,0.29 3.064,3.064 0 0 1 0.067,0.299 3.064,3.064 0 0 1 0.037,0.304 3.064,3.064 0 0 1 0.008,0.216 3.064,3.064 0 0 1 -0.01,0.207 C 9.54,6.581 9.697,6.489 9.863,6.423 A 0.508,0.508 0 0 0 9.931,6.396 L 9.957,6.382 a 0.483,0.483 0 0 0 0.098,-0.073 0.56,0.56 0 0 0 0.103,-0.136 0.73,0.73 0 0 0 0.065,-0.154 l 0.01,-0.034 A 1.037,1.037 0 0 0 10.266,5.803 0.947,0.947 0 0 0 10.271,5.758 L 10.274,5.683 V 5.63 L 10.272,5.564 10.268,5.5 10.266,5.477 A 2.146,2.146 0 0 0 10.226,5.225 L 10.223,5.215 A 2.502,2.502 0 0 0 10.147,4.948 V 4.944 L 10.144,4.94 A 2.76,2.76 0 0 0 10.035,4.675 L 10.029,4.66 A 2.78,2.78 0 0 0 9.759,4.214 L 9.748,4.197 A 2.379,2.379 0 0 0 9.621,4.043 L 9.602,4.023 A 2.057,2.057 0 0 0 9.485,3.905 L 9.465,3.885 A 1.744,1.744 0 0 0 9.326,3.774 L 9.316,3.767 A 1.379,1.379 0 0 0 9.029,3.611 L 9.017,3.608 A 0.809,0.809 0 0 0 8.741,3.566 Z M 3.913,5.969 A 1.544,0.84 64.81 0 0 3.724,5.995 L 2.738,6.481 A 1.544,0.84 64.811 0 1 2.789,6.463 1.544,0.84 64.811 0 1 2.875,6.45 a 1.544,0.84 64.811 0 1 0.09,0 1.544,0.84 64.811 0 1 0.094,0.016 1.544,0.84 64.811 0 1 0.097,0.03 1.544,0.84 64.811 0 1 0.1,0.044 1.544,0.84 64.811 0 1 0.1,0.057 1.544,0.84 64.811 0 1 0.1,0.07 1.544,0.84 64.811 0 1 0.1,0.082 1.544,0.84 64.811 0 1 0.097,0.093 1.544,0.84 64.811 0 1 0.094,0.105 1.544,0.84 64.811 0 1 0.09,0.113 1.544,0.84 64.811 0 1 0.087,0.122 1.544,0.84 64.811 0 1 0.057,0.09 A 1.544,0.84 64.811 0 1 4.057,7.406 1.544,0.84 64.811 0 1 4.126,7.544 1.544,0.84 64.811 0 1 4.187,7.685 1.544,0.84 64.811 0 1 4.24,7.828 1.544,0.84 64.811 0 1 4.284,7.973 1.544,0.84 64.811 0 1 4.319,8.116 1.544,0.84 64.811 0 1 4.345,8.257 1.544,0.84 64.811 0 1 4.36,8.395 1.544,0.84 64.811 0 1 4.366,8.527 1.544,0.84 64.811 0 1 4.361,8.653 1.544,0.84 64.811 0 1 4.347,8.771 1.544,0.84 64.811 0 1 4.323,8.881 1.544,0.84 64.811 0 1 4.289,8.981 1.544,0.84 64.811 0 1 4.245,9.069 1.544,0.84 64.811 0 1 4.194,9.146 1.544,0.84 64.811 0 1 4.152,9.193 1.544,0.84 64.811 0 1 4.086,9.249 1.544,0.84 64.811 0 1 4.029,9.281 L 5.017,8.794 V 8.793 A 1.544,0.84 64.81 0 0 5.127,8.713 1.544,0.84 64.81 0 0 4.957,6.792 1.544,0.84 64.81 0 0 3.913,5.969 Z"
     id="path4"
     inkscape:connector-curvature="0"
     style="opacity:0.75;fill:#5beedc" />
  <path
     d="M 2.647,6.527 A 1.544,0.84 64.811 0 1 2.657,6.521 L 2.648,6.525 A 1.544,0.84 64.81 0 0 2.647,6.527 Z"
     id="path6"
     inkscape:connector-curvature="0"
     style="fill:#4d4d4d" />
</svg>
