<?xml version="1.0" encoding="UTF-8" standalone="no"?>
<svg
   xmlns:dc="http://purl.org/dc/elements/1.1/"
   xmlns:cc="http://creativecommons.org/ns#"
   xmlns:rdf="http://www.w3.org/1999/02/22-rdf-syntax-ns#"
   xmlns:svg="http://www.w3.org/2000/svg"
   xmlns="http://www.w3.org/2000/svg"
   xmlns:sodipodi="http://sodipodi.sourceforge.net/DTD/sodipodi-0.dtd"
   xmlns:inkscape="http://www.inkscape.org/namespaces/inkscape"
   width="48"
   height="48"
   viewBox="0 0 12.7 12.7"
   version="1.1"
   id="svg4"
   sodipodi:docname="org.gnome.ArchiveManager.Devel.svg"
   inkscape:version="0.92.5 (2060ec1f9f, 2020-04-08)">
  <defs
     id="defs8">
  <style
     id="current-color-scheme"
     type="text/css">
      .ColorScheme-Highlight {
        color:#5beedc;
      }
  </style>
  </defs>
  <path
     class="ColorScheme-Highlight"
     style="fill:#5beedc"
     d="M 24 0 A 24 24 0 0 0 0 24 A 24 24 0 0 0 24 48 A 24 24 0 0 0 48 24 A 24 24 0 0 0 24 0 z M 24 3 L 24 7 L 30 7 L 30 3.8847656 A 21 21 0 0 1 30.003906 3.8867188 A 21 21 0 0 1 31.511719 4.4199219 L 31.507812 4.4140625 A 21 21 0 0 1 45 24 A 21 21 0 0 1 42.226562 34.398438 L 40 32 L 34 32 L 39.597656 38.027344 A 21 21 0 0 1 36.929688 40.539062 L 29 32 L 23 32 L 33.119141 42.896484 A 21 21 0 0 1 29.404297 44.28125 L 18 32 L 12 32 L 24.068359 44.998047 A 21 21 0 0 1 24 45 A 21 21 0 0 1 18.328125 44.199219 L 7 32 L 4.6035156 32 A 21 21 0 0 1 3 24 A 21 21 0 0 1 21.869141 3.1308594 A 21 21 0 0 1 23.917969 3.0019531 A 21 21 0 0 1 24 3 z M 24 7 L 18 7 L 18 11 L 24 11 L 24 7 z M 20 13 L 20 21 L 22 21 L 22 28 L 26 28 L 26 21 L 28 21 L 28 13 L 20 13 z M 22 15 L 26 15 L 26 19 L 22 19 L 22 15 z "
     transform="scale(0.26458333)"
     id="path831" />
</svg>
