<?xml version="1.0" encoding="UTF-8" standalone="no"?>
<svg
   xmlns:dc="http://purl.org/dc/elements/1.1/"
   xmlns:cc="http://creativecommons.org/ns#"
   xmlns:rdf="http://www.w3.org/1999/02/22-rdf-syntax-ns#"
   xmlns:svg="http://www.w3.org/2000/svg"
   xmlns="http://www.w3.org/2000/svg"
   xmlns:sodipodi="http://sodipodi.sourceforge.net/DTD/sodipodi-0.dtd"
   xmlns:inkscape="http://www.inkscape.org/namespaces/inkscape"
   width="48"
   height="48"
   viewBox="0 0 12.7 12.7"
   version="1.1"
   id="svg4"
   sodipodi:docname="preferences-plugin.svg"
   inkscape:version="0.92.5 (2060ec1f9f, 2020-04-08)">
  <defs
     id="defs8">
  <style
     id="current-color-scheme"
     type="text/css">
      .ColorScheme-Highlight {
        color:#5beedc;
      }
  </style>
  </defs>
  <path
     class="ColorScheme-Highlight"
     style="fill:#5beedc"
     d="M 24 0 A 24 24 0 0 0 0 24 A 24 24 0 0 0 24 48 A 24 24 0 0 0 48 24 A 24 24 0 0 0 24 0 z M 24 3 A 21 21 0 0 1 45 24 A 21 21 0 0 1 24 45 A 21 21 0 0 1 3 24 A 21 21 0 0 1 24 3 z M 22.5 5 A 4.4999996 4.4999996 0 0 0 18 9.5 A 4.4999996 4.4999996 0 0 0 19.677734 13 L 13 13 C 11.337998 13 10 14.338 10 16 L 10 22.673828 A 4.4999996 4.4999996 0 0 1 10.271484 22.365234 A 4.4999996 4.4999996 0 0 1 10.601562 22.058594 A 4.4999996 4.4999996 0 0 1 10.958984 21.785156 A 4.4999996 4.4999996 0 0 1 11.341797 21.550781 A 4.4999996 4.4999996 0 0 1 11.748047 21.355469 A 4.4999996 4.4999996 0 0 1 12.169922 21.201172 A 4.4999996 4.4999996 0 0 1 12.605469 21.089844 A 4.4999996 4.4999996 0 0 1 13.050781 21.023438 A 4.4999996 4.4999996 0 0 1 13.5 21 A 4.4999996 4.4999996 0 0 1 13.818359 21.011719 A 4.4999996 4.4999996 0 0 1 14.265625 21.066406 A 4.4999996 4.4999996 0 0 1 14.703125 21.164062 A 4.4999996 4.4999996 0 0 1 15.130859 21.306641 A 4.4999996 4.4999996 0 0 1 15.541016 21.490234 A 4.4999996 4.4999996 0 0 1 15.931641 21.712891 A 4.4999996 4.4999996 0 0 1 16.296875 21.974609 A 4.4999996 4.4999996 0 0 1 16.634766 22.271484 A 4.4999996 4.4999996 0 0 1 16.941406 22.601562 A 4.4999996 4.4999996 0 0 1 17.214844 22.958984 A 4.4999996 4.4999996 0 0 1 17.449219 23.341797 A 4.4999996 4.4999996 0 0 1 17.644531 23.748047 A 4.4999996 4.4999996 0 0 1 17.798828 24.169922 A 4.4999996 4.4999996 0 0 1 17.910156 24.605469 A 4.4999996 4.4999996 0 0 1 17.976562 25.050781 A 4.4999996 4.4999996 0 0 1 18 25.5 A 4.4999996 4.4999996 0 0 1 17.988281 25.818359 A 4.4999996 4.4999996 0 0 1 17.933594 26.265625 A 4.4999996 4.4999996 0 0 1 17.835938 26.703125 A 4.4999996 4.4999996 0 0 1 17.693359 27.130859 A 4.4999996 4.4999996 0 0 1 17.509766 27.541016 A 4.4999996 4.4999996 0 0 1 17.287109 27.931641 A 4.4999996 4.4999996 0 0 1 17.025391 28.296875 A 4.4999996 4.4999996 0 0 1 16.728516 28.634766 A 4.4999996 4.4999996 0 0 1 16.398438 28.941406 A 4.4999996 4.4999996 0 0 1 16.041016 29.214844 A 4.4999996 4.4999996 0 0 1 15.658203 29.449219 A 4.4999996 4.4999996 0 0 1 15.251953 29.644531 A 4.4999996 4.4999996 0 0 1 14.830078 29.798828 A 4.4999996 4.4999996 0 0 1 14.394531 29.910156 A 4.4999996 4.4999996 0 0 1 13.949219 29.976562 A 4.4999996 4.4999996 0 0 1 13.5 30 A 4.4999996 4.4999996 0 0 1 13.181641 29.988281 A 4.4999996 4.4999996 0 0 1 12.734375 29.933594 A 4.4999996 4.4999996 0 0 1 12.296875 29.835938 A 4.4999996 4.4999996 0 0 1 11.869141 29.693359 A 4.4999996 4.4999996 0 0 1 11.458984 29.509766 A 4.4999996 4.4999996 0 0 1 11.068359 29.287109 A 4.4999996 4.4999996 0 0 1 10.703125 29.025391 A 4.4999996 4.4999996 0 0 1 10.365234 28.728516 A 4.4999996 4.4999996 0 0 1 10.058594 28.398438 A 4.4999996 4.4999996 0 0 1 10 28.322266 L 10 35 C 10 36.662 11.337998 38 13 38 L 19.673828 38 A 4.4999996 4.4999996 0 0 1 19.365234 37.728516 A 4.4999996 4.4999996 0 0 1 19.058594 37.398438 A 4.4999996 4.4999996 0 0 1 18.785156 37.041016 A 4.4999996 4.4999996 0 0 1 18.550781 36.658203 A 4.4999996 4.4999996 0 0 1 18.355469 36.251953 A 4.4999996 4.4999996 0 0 1 18.201172 35.830078 A 4.4999996 4.4999996 0 0 1 18.089844 35.394531 A 4.4999996 4.4999996 0 0 1 18.023438 34.949219 A 4.4999996 4.4999996 0 0 1 18 34.5 A 4.4999996 4.4999996 0 0 1 18.011719 34.181641 A 4.4999996 4.4999996 0 0 1 18.066406 33.734375 A 4.4999996 4.4999996 0 0 1 18.164062 33.296875 A 4.4999996 4.4999996 0 0 1 18.306641 32.869141 A 4.4999996 4.4999996 0 0 1 18.490234 32.458984 A 4.4999996 4.4999996 0 0 1 18.712891 32.068359 A 4.4999996 4.4999996 0 0 1 18.974609 31.703125 A 4.4999996 4.4999996 0 0 1 19.271484 31.365234 A 4.4999996 4.4999996 0 0 1 19.601562 31.058594 A 4.4999996 4.4999996 0 0 1 19.958984 30.785156 A 4.4999996 4.4999996 0 0 1 20.341797 30.550781 A 4.4999996 4.4999996 0 0 1 20.748047 30.355469 A 4.4999996 4.4999996 0 0 1 21.169922 30.201172 A 4.4999996 4.4999996 0 0 1 21.605469 30.089844 A 4.4999996 4.4999996 0 0 1 22.050781 30.023438 A 4.4999996 4.4999996 0 0 1 22.5 30 A 4.4999996 4.4999996 0 0 1 22.818359 30.011719 A 4.4999996 4.4999996 0 0 1 23.265625 30.066406 A 4.4999996 4.4999996 0 0 1 23.703125 30.164062 A 4.4999996 4.4999996 0 0 1 24.130859 30.306641 A 4.4999996 4.4999996 0 0 1 24.541016 30.490234 A 4.4999996 4.4999996 0 0 1 24.931641 30.712891 A 4.4999996 4.4999996 0 0 1 25.296875 30.974609 A 4.4999996 4.4999996 0 0 1 25.634766 31.271484 A 4.4999996 4.4999996 0 0 1 25.941406 31.601562 A 4.4999996 4.4999996 0 0 1 26.214844 31.958984 A 4.4999996 4.4999996 0 0 1 26.449219 32.341797 A 4.4999996 4.4999996 0 0 1 26.644531 32.748047 A 4.4999996 4.4999996 0 0 1 26.798828 33.169922 A 4.4999996 4.4999996 0 0 1 26.910156 33.605469 A 4.4999996 4.4999996 0 0 1 26.976562 34.050781 A 4.4999996 4.4999996 0 0 1 27 34.5 A 4.4999996 4.4999996 0 0 1 26.988281 34.818359 A 4.4999996 4.4999996 0 0 1 26.933594 35.265625 A 4.4999996 4.4999996 0 0 1 26.835938 35.703125 A 4.4999996 4.4999996 0 0 1 26.693359 36.130859 A 4.4999996 4.4999996 0 0 1 26.509766 36.541016 A 4.4999996 4.4999996 0 0 1 26.287109 36.931641 A 4.4999996 4.4999996 0 0 1 26.025391 37.296875 A 4.4999996 4.4999996 0 0 1 25.728516 37.634766 A 4.4999996 4.4999996 0 0 1 25.398438 37.941406 A 4.4999996 4.4999996 0 0 1 25.322266 38 L 32 38 C 33.661998 38 35 36.662 35 35 L 35 28.326172 A 4.4999996 4.4999996 0 0 0 38.5 30 A 4.4999996 4.4999996 0 0 0 43 25.5 A 4.4999996 4.4999996 0 0 0 38.5 21 A 4.4999996 4.4999996 0 0 0 35 22.677734 L 35 16 C 35 14.338 33.661998 13 32 13 L 25.326172 13 A 4.4999996 4.4999996 0 0 0 27 9.5 A 4.4999996 4.4999996 0 0 0 22.5 5 z "
     transform="scale(0.26458333)"
     id="path831" />
</svg>
