<?xml version="1.0" encoding="UTF-8" standalone="no"?>
<svg
   xmlns:dc="http://purl.org/dc/elements/1.1/"
   xmlns:cc="http://creativecommons.org/ns#"
   xmlns:rdf="http://www.w3.org/1999/02/22-rdf-syntax-ns#"
   xmlns:svg="http://www.w3.org/2000/svg"
   xmlns="http://www.w3.org/2000/svg"
   xmlns:sodipodi="http://sodipodi.sourceforge.net/DTD/sodipodi-0.dtd"
   xmlns:inkscape="http://www.inkscape.org/namespaces/inkscape"
   width="48"
   height="48"
   viewBox="0 0 12.7 12.7"
   version="1.1"
   id="svg14"
   sodipodi:docname="codeblocks.svg"
   inkscape:version="0.92.4 (5da689c313, 2019-01-14)">
  <metadata
     id="metadata20">
    <rdf:RDF>
      <cc:Work
         rdf:about="">
        <dc:format>image/svg+xml</dc:format>
        <dc:type
           rdf:resource="http://purl.org/dc/dcmitype/StillImage" />
        <dc:title></dc:title>
      </cc:Work>
    </rdf:RDF>
  </metadata>
  <defs
     id="defs18" />
  <sodipodi:namedview
     pagecolor="#ffffff"
     bordercolor="#666666"
     borderopacity="1"
     objecttolerance="10"
     gridtolerance="10"
     guidetolerance="10"
     inkscape:pageopacity="0"
     inkscape:pageshadow="2"
     inkscape:window-width="1087"
     inkscape:window-height="480"
     id="namedview16"
     showgrid="false"
     inkscape:zoom="4.9166667"
     inkscape:cx="2.1355932"
     inkscape:cy="24"
     inkscape:window-x="0"
     inkscape:window-y="25"
     inkscape:window-maximized="0"
     inkscape:current-layer="svg14" />
  <path
     d="M 6.34,0.07 A 6.29,6.29 0 0 0 0.05,6.37 6.29,6.29 0 0 0 6.35,12.65 6.29,6.29 0 0 0 12.63,6.36 6.29,6.29 0 0 0 6.34,0.07 Z M 6.33,1.01 a 5.4,5.4 0 0 1 5.4,5.4 5.4,5.4 0 0 1 -5.4,5.41 A 5.4,5.4 0 0 1 0.92,6.42 5.4,5.4 0 0 1 6.32,1 Z"
     id="path2"
     inkscape:connector-curvature="0"
     style="fill:#5beedc" />
  <g
     id="g12"
     style="opacity:0.75">
    <path
       d="M 6.35,2.91 H 3.28 c -0.2,0 -0.37,0.16 -0.37,0.37 v 3.07 h 3.44 z"
       id="path4"
       inkscape:connector-curvature="0"
       style="opacity:0.75;fill:#d40000" />
    <path
       d="m 6.35,2.91 h 3.07 c 0.2,0 0.37,0.16 0.37,0.37 V 6.35 H 6.35 Z"
       id="path6"
       inkscape:connector-curvature="0"
       style="opacity:0.75;fill:#008000" />
    <path
       d="M 6.35,9.79 H 3.28 A 0.37,0.37 0 0 1 2.91,9.42 V 6.35 h 3.44 z"
       id="path8"
       inkscape:connector-curvature="0"
       style="opacity:0.75;fill:#ffff00" />
    <path
       d="m 6.35,9.79 h 3.07 c 0.2,0 0.37,-0.16 0.37,-0.37 V 6.35 H 6.35 Z"
       id="path10"
       inkscape:connector-curvature="0"
       style="opacity:0.75;fill:#0000ff" />
  </g>
</svg>
