<?xml version="1.0" encoding="UTF-8" standalone="no"?>
<svg
   xmlns:dc="http://purl.org/dc/elements/1.1/"
   xmlns:cc="http://creativecommons.org/ns#"
   xmlns:rdf="http://www.w3.org/1999/02/22-rdf-syntax-ns#"
   xmlns:svg="http://www.w3.org/2000/svg"
   xmlns="http://www.w3.org/2000/svg"
   xmlns:sodipodi="http://sodipodi.sourceforge.net/DTD/sodipodi-0.dtd"
   xmlns:inkscape="http://www.inkscape.org/namespaces/inkscape"
   width="48"
   height="48"
   viewBox="0 0 12.7 12.7"
   version="1.1"
   id="svg6"
   sodipodi:docname="org.gnome.SystemMonitor.Devel.svg"
   inkscape:version="0.92.5 (2060ec1f9f, 2020-04-08)">
  <metadata
     id="metadata12">
    <rdf:RDF>
      <cc:Work
         rdf:about="">
        <dc:format>image/svg+xml</dc:format>
        <dc:type
           rdf:resource="http://purl.org/dc/dcmitype/StillImage" />
        <dc:title></dc:title>
      </cc:Work>
    </rdf:RDF>
  </metadata>
  <defs
     id="defs10" />
  <sodipodi:namedview
     pagecolor="#ffffff"
     bordercolor="#666666"
     borderopacity="1"
     objecttolerance="10"
     gridtolerance="10"
     guidetolerance="10"
     inkscape:pageopacity="0"
     inkscape:pageshadow="2"
     inkscape:window-width="1087"
     inkscape:window-height="480"
     id="namedview8"
     showgrid="false"
     inkscape:zoom="4.9166667"
     inkscape:cx="2.1355932"
     inkscape:cy="24"
     inkscape:window-x="0"
     inkscape:window-y="25"
     inkscape:window-maximized="0"
     inkscape:current-layer="svg6" />
  <path
     d="M 6.35,0.083 A 6.267,6.267 0 0 0 0.084,6.349 6.267,6.267 0 0 0 6.352,12.617 6.267,6.267 0 0 0 12.619,6.349 6.267,6.267 0 0 0 6.35,0.083 Z M 6.333,1.015 a 5.388,5.388 0 0 1 5.388,5.39 5.388,5.388 0 0 1 -0.4,2.024 h -0.925 l 0.624,0.624 a 5.388,5.388 0 0 1 -0.77,1.04 L 8.588,8.429 h -1.81 l 2.491,2.49 A 5.388,5.388 0 0 1 8.046,11.505 L 4.969,8.43 h -1.81 l 3.357,3.356 A 5.388,5.388 0 0 1 6.333,11.793 5.388,5.388 0 0 1 4.32,11.399 L 1.351,8.429 H 1.343 a 5.388,5.388 0 0 1 -0.4,-2.025 5.388,5.388 0 0 1 5.39,-5.39 z"
     id="path2"
     inkscape:connector-curvature="0"
     style="fill:#5beedc" />
  <path
     d="M 0.804,6.104 H 2.938 L 3.588,2.856 4.887,7.728 5.861,4.805 6.835,6.753 7.81,6.103 h 4.086"
     id="path4"
     inkscape:connector-curvature="0"
     style="fill:none;stroke:#5beedc;stroke-width:0.32499999;stroke-linecap:round;stroke-linejoin:round" />
</svg>
