<?xml version="1.0" encoding="UTF-8" standalone="no"?>
<svg
   xmlns:dc="http://purl.org/dc/elements/1.1/"
   xmlns:cc="http://creativecommons.org/ns#"
   xmlns:rdf="http://www.w3.org/1999/02/22-rdf-syntax-ns#"
   xmlns:svg="http://www.w3.org/2000/svg"
   xmlns="http://www.w3.org/2000/svg"
   xmlns:sodipodi="http://sodipodi.sourceforge.net/DTD/sodipodi-0.dtd"
   xmlns:inkscape="http://www.inkscape.org/namespaces/inkscape"
   width="48"
   height="48"
   viewBox="0 0 12.7 12.7"
   version="1.1"
   id="svg4"
   sodipodi:docname="accessories-text-editor.svg"
   inkscape:version="0.92.5 (2060ec1f9f, 2020-04-08)">
  <defs
     id="defs8">
    <style
       id="current-color-scheme"
       type="text/css">
      .ColorScheme-Highlight {
        color:#5beedc;
      }
  </style>
  </defs>
  <path
     class="ColorScheme-Highlight"
     style="fill:#5beedc"
     d="M 24 0 A 24 24 0 0 0 0 24 A 24 24 0 0 0 24 48 A 24 24 0 0 0 48 24 A 24 24 0 0 0 24 0 z M 24 3 A 21 21 0 0 1 45 24 A 21 21 0 0 1 24 45 A 21 21 0 0 1 3 24 A 21 21 0 0 1 24 3 z M 33.777344 8.5644531 L 30.242188 12.099609 L 35.900391 17.757812 L 39.435547 14.222656 L 33.777344 8.5644531 z M 12 13 C 10.892 13 10 13.892 10 15 L 10 36 C 10 37.108 10.892 38 12 38 L 36 38 C 37.108 38 38 37.108 38 36 L 38 19 L 36 21 L 36 35 C 36 35.554 35.554 36 35 36 L 13 36 C 12.446 36 12 35.554 12 35 L 12 16 C 12 15.446 12.446 15 13 15 L 24 15 L 26 13 L 12 13 z M 28.828125 13.515625 L 16.806641 25.535156 L 22.464844 31.193359 L 34.484375 19.171875 L 28.828125 13.515625 z M 15.392578 26.949219 L 15.392578 32.607422 L 21.050781 32.607422 L 15.392578 26.949219 z "
     transform="scale(0.26458333)"
     id="path817" />
</svg>
