<?xml version="1.0" encoding="UTF-8" standalone="no"?>
<svg
   xmlns:dc="http://purl.org/dc/elements/1.1/"
   xmlns:cc="http://creativecommons.org/ns#"
   xmlns:rdf="http://www.w3.org/1999/02/22-rdf-syntax-ns#"
   xmlns:svg="http://www.w3.org/2000/svg"
   xmlns="http://www.w3.org/2000/svg"
   xmlns:sodipodi="http://sodipodi.sourceforge.net/DTD/sodipodi-0.dtd"
   xmlns:inkscape="http://www.inkscape.org/namespaces/inkscape"
   width="48"
   height="48"
   viewBox="0 0 12.7 12.7"
   version="1.1"
   id="svg8"
   sodipodi:docname="konquest.svg"
   inkscape:version="0.92.4 (5da689c313, 2019-01-14)">
  <metadata
     id="metadata14">
    <rdf:RDF>
      <cc:Work
         rdf:about="">
        <dc:format>image/svg+xml</dc:format>
        <dc:type
           rdf:resource="http://purl.org/dc/dcmitype/StillImage" />
        <dc:title></dc:title>
      </cc:Work>
    </rdf:RDF>
  </metadata>
  <defs
     id="defs12" />
  <sodipodi:namedview
     pagecolor="#ffffff"
     bordercolor="#666666"
     borderopacity="1"
     objecttolerance="10"
     gridtolerance="10"
     guidetolerance="10"
     inkscape:pageopacity="0"
     inkscape:pageshadow="2"
     inkscape:window-width="862"
     inkscape:window-height="480"
     id="namedview10"
     showgrid="false"
     inkscape:zoom="4.9166667"
     inkscape:cx="2.1355932"
     inkscape:cy="24"
     inkscape:window-x="0"
     inkscape:window-y="25"
     inkscape:window-maximized="0"
     inkscape:current-layer="svg8" />
  <path
     style="fill:#5beedc;stroke-width:1"
     d="m 6.3437986,0.07183024 a 6.2899998,6.2899998 0 0 0 -4.90461,2.35541176 6.852,2.395 29.364 0 1 0.1240235,-0.018087 6.852,2.395 29.364 0 1 0.398942,-0.013953 6.852,2.395 29.364 0 1 0.2087728,0.00775 6.852,2.395 29.364 0 1 0.4640544,0.045992 6.852,2.395 29.364 0 1 0.021187,0.00413 5.4070001,5.4070001 0 0 1 3.6700602,-1.4433227 5.4070001,5.4070001 0 0 1 5.4069055,5.4063883 5.4070001,5.4070001 0 0 1 -0.115238,1.0996744 6.852,2.395 29.364 0 1 0.07028,0.082166 6.852,2.395 29.364 0 1 0.264066,0.3679362 6.852,2.395 29.364 0 1 0.208773,0.3529499 6.852,2.395 29.364 0 1 0.08785,0.1943034 A 6.2899998,6.2899998 0 0 0 12.633854,6.36188 6.2899998,6.2899998 0 0 0 6.3437984,0.07182474 Z m 0.0062,2.30941976 v 5.167e-4 a 3.969,3.969 0 0 0 -2.3962349,0.809253 c -0.04,0.03 -0.078789,0.058917 -0.1167887,0.089917 a 3.969,3.969 0 0 0 -1.2397175,1.7921386 4.7659998,1.785 29.307 0 0 0.089917,0.1400431 4.7659998,1.785 29.307 0 0 0.2046388,0.2697509 4.7659998,1.785 29.307 0 0 0.2423623,0.2759522 4.7659998,1.785 29.307 0 0 0.2749187,0.2800864 4.7659998,1.785 29.307 0 0 0.306958,0.280086 4.7659998,1.785 29.307 0 0 0.3327961,0.2780194 4.7659998,1.785 29.307 0 0 0.3591512,0.2728516 4.7659998,1.785 29.307 0 0 0.3798218,0.2651 4.7659998,1.785 29.307 0 0 0.3963583,0.2552817 4.7659998,1.785 29.307 0 0 0.409794,0.2418456 4.7659998,1.785 29.307 0 0 0.2961061,0.1607137 4.7659998,1.785 29.307 0 0 0.4216797,0.2139405 4.7659998,1.785 29.307 0 0 0.425297,0.1963703 4.7659998,1.785 29.307 0 0 0.4221964,0.1731161 4.7659998,1.785 29.307 0 0 0.4159951,0.1519287 4.7659998,1.785 29.307 0 0 0.4035931,0.1260904 4.7659998,1.785 29.307 0 0 0.3901569,0.1018027 4.7659998,1.785 29.307 0 0 0.3720703,0.073897 4.7659998,1.785 29.307 0 0 0.3488161,0.047026 4.7659998,1.785 29.307 0 0 0.3038573,0.01912 3.969,3.969 0 0 0 0.8841833,-2.0122803 c 0.01,-0.064 0.01829,-0.1267195 0.02429,-0.1917194 A 3.969,3.969 0 0 0 10.31875,6.3499999 3.969,3.969 0 0 0 6.35,2.38125 Z M 0.44803467,4.1847574 a 6.2899998,6.2899998 0 0 0 -0.39429118,2.1771281 6.2899998,6.2899998 0 0 0 6.29005511,6.2879885 6.2899998,6.2899998 0 0 0 4.9273484,-2.3797 6.852,2.395 29.364 0 1 -0.157097,0.0217 6.852,2.395 29.364 0 1 -0.402042,0.01189 6.852,2.395 29.364 0 1 -0.444934,-0.02894 6.852,2.395 29.364 0 1 -0.13901,-0.0186 A 5.4070001,5.4070001 0 0 1 6.3262287,11.822017 5.4070001,5.4070001 0 0 1 0.91984049,6.4161458 5.4070001,5.4070001 0 0 1 1.0702189,5.1759114 6.852,2.395 29.364 0 1 1.0061401,5.0989134 6.852,2.395 29.364 0 1 0.74207356,4.7309772 6.852,2.395 29.364 0 1 0.53381754,4.3790608 6.852,2.395 29.364 0 1 0.44803467,4.1847574 Z M 2.3967529,6.0259888 A 3.969,3.969 0 0 0 2.38125,6.3499999 3.969,3.969 0 0 0 6.35,10.31875 3.969,3.969 0 0 0 8.6749225,9.559623 5.9579999,2.083 29.364 0 1 8.4062051,9.4877928 5.9579999,2.083 29.364 0 1 7.9090779,9.3322467 5.9579999,2.083 29.364 0 1 7.3959309,9.1462115 5.9579999,2.083 29.364 0 1 6.8729653,8.9317543 5.9579999,2.083 29.364 0 1 6.3448324,8.6919757 5.9579999,2.083 29.364 0 1 5.8172159,8.4289428 5.9579999,2.083 29.364 0 1 5.2942506,8.1452391 5.9579999,2.083 29.364 0 1 4.928898,7.9328491 5.9579999,2.083 29.364 0 1 4.4281534,7.6202065 5.9579999,2.083 29.364 0 1 3.9449788,7.295162 5.9579999,2.083 29.364 0 1 3.486092,6.9597819 5.9579999,2.083 29.364 0 1 3.0561441,6.6197508 5.9579999,2.083 29.364 0 1 2.6587524,6.2750691 5.9579999,2.083 29.364 0 1 2.3967529,6.0259888 Z M 8.6749225,9.559623 a 5.9579999,2.083 29.364 0 0 0.00103,5.167e-4 v -0.00103 a 3.969,3.969 0 0 1 -0.00103,5.167e-4 z"
     id="path2"
     inkscape:connector-curvature="0" />
  <path
     d="m 2.534,2.91 a 5.958,2.083 29.364 0 0 -1.37,0.506 5.958,2.083 29.364 0 0 4.13,4.73 5.958,2.083 29.364 0 0 6.242,1.138 5.958,2.083 29.364 0 0 -1.232,-2.608 3.945,3.945 0 0 1 -0.03,0.245 4.766,1.785 29.307 0 1 0.375,1.516 A 4.766,1.785 29.307 0 1 5.594,7.631 4.766,1.785 29.307 0 1 2.35,3.747 4.766,1.785 29.307 0 1 3.811,3.302 C 3.878,3.245 3.948,3.192 4.019,3.14 A 5.958,2.083 29.364 0 0 2.534,2.91 Z"
     id="path6"
     inkscape:connector-curvature="0"
     style="opacity:0.75;fill:#5beedc" />
</svg>
