<?xml version="1.0" encoding="UTF-8" standalone="no"?>
<svg
   xmlns:dc="http://purl.org/dc/elements/1.1/"
   xmlns:cc="http://creativecommons.org/ns#"
   xmlns:rdf="http://www.w3.org/1999/02/22-rdf-syntax-ns#"
   xmlns:svg="http://www.w3.org/2000/svg"
   xmlns="http://www.w3.org/2000/svg"
   xmlns:sodipodi="http://sodipodi.sourceforge.net/DTD/sodipodi-0.dtd"
   xmlns:inkscape="http://www.inkscape.org/namespaces/inkscape"
   width="48"
   height="48"
   version="1"
   id="svg4"
   sodipodi:docname="org.kde.activeWindowControl.svg"
   inkscape:version="0.92.4 (5da689c313, 2019-01-14)">
  <metadata
     id="metadata10">
    <rdf:RDF>
      <cc:Work
         rdf:about="">
        <dc:format>image/svg+xml</dc:format>
        <dc:type
           rdf:resource="http://purl.org/dc/dcmitype/StillImage" />
        <dc:title></dc:title>
      </cc:Work>
    </rdf:RDF>
  </metadata>
  <defs
     id="defs8" />
  <sodipodi:namedview
     pagecolor="#ffffff"
     bordercolor="#666666"
     borderopacity="1"
     objecttolerance="10"
     gridtolerance="10"
     guidetolerance="10"
     inkscape:pageopacity="0"
     inkscape:pageshadow="2"
     inkscape:window-width="862"
     inkscape:window-height="480"
     id="namedview6"
     showgrid="false"
     inkscape:zoom="4.9166667"
     inkscape:cx="2.1355932"
     inkscape:cy="24"
     inkscape:window-x="0"
     inkscape:window-y="25"
     inkscape:window-maximized="0"
     inkscape:current-layer="svg4" />
  <path
     d="M 23.98,0.227 A 23.773,23.773 0 0 0 0.246,24.037 23.773,23.773 0 0 0 24.02,47.773 23.773,23.773 0 0 0 47.754,24 23.773,23.773 0 0 0 23.98,0.227 Z m -0.074,3.515 0.037,0.037 a 20.41,20.41 0 0 1 20.41,20.41 20.41,20.41 0 0 1 -7.685,15.995 V 21.119 A 4.525,4.525 0 0 0 32.133,16.584 H 4.967 A 20.41,20.41 0 0 1 23.907,3.742 Z m -7.476,18.07 c 0.855,-0.045 1.837,0.348 2.619,1.13 l 3.385,3.384 3.386,-3.385 c 1.25,-1.25 3.012,-1.502 3.95,-0.564 0.937,0.938 0.686,2.699 -0.565,3.95 l -3.385,3.386 3.385,3.385 c 1.25,1.25 1.502,3.011 0.565,3.949 -0.938,0.938 -2.7,0.688 -3.95,-0.563 l -3.386,-3.386 -3.385,3.386 c -1.25,1.25 -3.014,1.5 -3.951,0.563 -0.938,-0.938 -0.686,-2.699 0.564,-3.95 l 3.387,-3.384 -3.387,-3.387 c -1.25,-1.25 -1.502,-3.011 -0.564,-3.949 0.351,-0.352 0.819,-0.537 1.332,-0.564 z"
     id="path2"
     inkscape:connector-curvature="0"
     style="fill:#5beedc" />
</svg>
