<?xml version="1.0" encoding="UTF-8" standalone="no"?>
<svg
   xmlns:dc="http://purl.org/dc/elements/1.1/"
   xmlns:cc="http://creativecommons.org/ns#"
   xmlns:rdf="http://www.w3.org/1999/02/22-rdf-syntax-ns#"
   xmlns:svg="http://www.w3.org/2000/svg"
   xmlns="http://www.w3.org/2000/svg"
   xmlns:sodipodi="http://sodipodi.sourceforge.net/DTD/sodipodi-0.dtd"
   xmlns:inkscape="http://www.inkscape.org/namespaces/inkscape"
   width="48"
   height="48"
   viewBox="0 0 12.7 12.7"
   version="1.1"
   id="svg4"
   sodipodi:docname="warmux.svg"
   inkscape:version="0.92.4 (5da689c313, 2019-01-14)">
  <metadata
     id="metadata10">
    <rdf:RDF>
      <cc:Work
         rdf:about="">
        <dc:format>image/svg+xml</dc:format>
        <dc:type
           rdf:resource="http://purl.org/dc/dcmitype/StillImage" />
        <dc:title></dc:title>
      </cc:Work>
    </rdf:RDF>
  </metadata>
  <defs
     id="defs8" />
  <sodipodi:namedview
     pagecolor="#ffffff"
     bordercolor="#666666"
     borderopacity="1"
     objecttolerance="10"
     gridtolerance="10"
     guidetolerance="10"
     inkscape:pageopacity="0"
     inkscape:pageshadow="2"
     inkscape:window-width="862"
     inkscape:window-height="480"
     id="namedview6"
     showgrid="false"
     inkscape:zoom="4.9166667"
     inkscape:cx="2.1355932"
     inkscape:cy="24"
     inkscape:window-x="0"
     inkscape:window-y="25"
     inkscape:window-maximized="0"
     inkscape:current-layer="svg4" />
  <path
     d="m 6.344,0.072 a 6.29,6.29 0 0 0 -6.29,6.29 6.29,6.29 0 0 0 6.29,6.289 6.29,6.29 0 0 0 6.29,-6.29 6.29,6.29 0 0 0 -6.29,-6.29 z M 6.326,1.009 A 5.407,5.407 0 0 1 11.733,6.416 5.407,5.407 0 0 1 6.326,11.823 5.407,5.407 0 0 1 0.92,6.416 5.407,5.407 0 0 1 6.326,1.01 Z m -0.45,1.51 C 5.798,2.518 5.727,2.521 5.666,2.526 5.086,2.578 4.329,3.095 3.688,3.878 3.068,4.636 2.889,5.241 3.154,5.686 3.452,6.188 3.796,6.474 4.277,6.618 4.689,6.741 4.812,6.815 5.164,7.156 5.733,7.706 5.929,7.768 7.124,7.772 7.63,7.773 8.238,7.752 8.476,7.727 8.829,7.688 8.978,7.643 9.269,7.484 10.041,7.062 10.165,6.774 9.938,5.947 A 16.029,16.029 0 0 1 9.681,4.736 C 9.61,4.327 9.521,3.93 9.483,3.852 9.313,3.509 8.762,3.178 7.814,2.848 7.294,2.668 6.417,2.523 5.875,2.518 Z M 5.538,4.27 c 0.46,0.02 0.564,0.422 0.561,0.767 0,0.487 -0.07,0.675 -0.322,0.86 C 5.59,6.037 5.131,6.065 4.994,5.947 4.85,5.822 4.786,5.59 4.786,5.195 4.786,4.601 5.054,4.27 5.538,4.27 Z m 2.332,0 A 0.82,0.82 0 0 1 8.25,4.377 C 8.4,4.452 8.568,4.574 8.624,4.647 8.758,4.821 8.759,5.213 8.626,5.65 8.428,6.309 8.032,6.575 7.486,6.413 7.277,6.35 7.03,6.055 6.986,5.813 6.913,5.421 7.234,4.592 7.536,4.389 A 0.61,0.61 0 0 1 7.87,4.27 Z M 4.032,6.896 c -0.184,0 -0.38,0.06 -0.568,0.185 C 3.234,7.234 2.784,7.765 2.665,8.026 2.439,8.52 2.815,9.284 3.377,9.475 3.575,9.542 3.578,9.542 3.757,9.455 3.971,9.353 4.076,9.215 4.445,8.545 4.695,8.094 4.761,7.925 4.779,7.695 4.799,7.435 4.786,7.389 4.642,7.203 A 0.762,0.762 0 0 0 4.032,6.896 Z M 5.853,8.21 C 5.428,8.21 5.127,8.476 4.93,9.024 4.76,9.499 4.74,9.902 4.88,10.044 5.126,10.289 6.036,10.488 6.314,10.356 6.43,10.301 6.466,10.22 6.521,9.886 6.574,9.567 6.501,8.854 6.387,8.579 6.285,8.333 6.107,8.209 5.853,8.209 Z m 1.994,0 C 7.809,8.21 7.764,8.212 7.712,8.216 7.397,8.24 7.227,8.346 7.075,8.616 6.974,8.796 6.965,8.863 6.985,9.227 7.011,9.682 7.081,9.915 7.204,9.949 7.336,9.985 7.928,9.932 8.189,9.859 8.509,9.772 8.727,9.597 8.727,9.431 8.727,9.254 8.266,8.413 8.103,8.294 A 0.38,0.38 0 0 0 7.847,8.21 Z"
     id="path2"
     inkscape:connector-curvature="0"
     style="fill:#5beedc" />
</svg>
