<?xml version="1.0" encoding="UTF-8" standalone="no"?>
<svg
   xmlns:dc="http://purl.org/dc/elements/1.1/"
   xmlns:cc="http://creativecommons.org/ns#"
   xmlns:rdf="http://www.w3.org/1999/02/22-rdf-syntax-ns#"
   xmlns:svg="http://www.w3.org/2000/svg"
   xmlns="http://www.w3.org/2000/svg"
   xmlns:sodipodi="http://sodipodi.sourceforge.net/DTD/sodipodi-0.dtd"
   xmlns:inkscape="http://www.inkscape.org/namespaces/inkscape"
   width="48"
   height="48"
   viewBox="0 0 12.7 12.7"
   version="1.1"
   id="svg4"
   sodipodi:docname="ksirk.svg"
   inkscape:version="0.92.4 (5da689c313, 2019-01-14)">
  <metadata
     id="metadata10">
    <rdf:RDF>
      <cc:Work
         rdf:about="">
        <dc:format>image/svg+xml</dc:format>
        <dc:type
           rdf:resource="http://purl.org/dc/dcmitype/StillImage" />
        <dc:title></dc:title>
      </cc:Work>
    </rdf:RDF>
  </metadata>
  <defs
     id="defs8" />
  <sodipodi:namedview
     pagecolor="#ffffff"
     bordercolor="#666666"
     borderopacity="1"
     objecttolerance="10"
     gridtolerance="10"
     guidetolerance="10"
     inkscape:pageopacity="0"
     inkscape:pageshadow="2"
     inkscape:window-width="862"
     inkscape:window-height="480"
     id="namedview6"
     showgrid="false"
     inkscape:zoom="4.9166667"
     inkscape:cx="2.1355932"
     inkscape:cy="24"
     inkscape:window-x="0"
     inkscape:window-y="25"
     inkscape:window-maximized="0"
     inkscape:current-layer="svg4" />
  <path
     d="m 6.344,0.072 a 6.29,6.29 0 0 0 -6.29,6.29 6.29,6.29 0 0 0 6.29,6.289 6.29,6.29 0 0 0 6.29,-6.29 6.29,6.29 0 0 0 -6.29,-6.29 z M 6.326,1.009 A 5.407,5.407 0 0 1 11.733,6.416 5.407,5.407 0 0 1 6.326,11.823 5.407,5.407 0 0 1 0.92,6.416 5.407,5.407 0 0 1 6.326,1.01 Z m 1.87,3.028 A 0.218,0.218 0 0 0 7.978,4.255 V 4.283 L 2.318,4.661 A 0.217,0.217 0 0 0 1.885,4.69 V 5.994 A 0.217,0.217 0 0 0 2.317,6.022 L 3.992,6.134 C 4.053,6.05 4.092,5.949 4.166,5.876 A 2.002,2.002 0 0 1 5.993,5.33 1.995,1.995 0 0 1 7.009,5.876 C 7.146,6.013 7.24,6.186 7.333,6.357 L 7.978,6.4 v 0.03 a 0.218,0.218 0 0 0 0.435,0 C 8.857,6.43 9.22,6.05 9.274,5.559 H 9.5 c 0.12,0 0.217,-0.097 0.217,-0.217 A 0.216,0.216 0 0 0 9.5,5.125 H 9.275 C 9.221,4.634 8.858,4.255 8.413,4.255 A 0.217,0.217 0 0 0 8.195,4.037 Z m 0,2.61 H 7.137 a 1.676,1.676 0 0 0 -1.55,-1.03 c -0.931,0 -1.681,0.75 -1.681,1.681 0,0.931 0.75,1.68 1.68,1.68 0.858,0 1.56,-0.635 1.666,-1.462 h 0.963 c 0.652,0 1.522,1.956 2.174,1.956 0.217,0 0.217,-0.87 0,-0.87 C 9.995,8.602 9.103,6.995 8.415,6.694 8.324,6.646 8.215,6.646 8.215,6.646 H 8.195 Z M 5.504,5.958 V 6.479 C 5.454,6.531 5.419,6.67 5.419,6.836 V 6.893 L 5.379,6.853 C 5.263,6.736 5.139,6.662 5.067,6.66 L 4.698,6.29 C 4.915,6.099 5.195,5.977 5.504,5.958 Z m 0.167,0 c 0.31,0.02 0.589,0.14 0.806,0.332 L 6.107,6.66 C 6.037,6.662 5.912,6.736 5.796,6.852 L 5.756,6.893 V 6.836 C 5.756,6.67 5.72,6.531 5.671,6.479 v -0.52 z m -1.092,0.45 0.37,0.37 c 0.002,0.071 0.076,0.195 0.193,0.313 l 0.04,0.04 H 5.125 C 4.96,7.131 4.82,7.166 4.768,7.215 H 4.248 C 4.266,6.905 4.388,6.626 4.579,6.409 Z m 2.017,0 C 6.787,6.626 6.909,6.906 6.928,7.215 H 6.406 C 6.355,7.165 6.216,7.13 6.05,7.13 H 5.993 L 6.033,7.09 C 6.15,6.973 6.224,6.85 6.226,6.778 Z M 4.247,7.382 H 4.768 C 4.82,7.431 4.96,7.466 5.125,7.466 h 0.057 l -0.04,0.04 C 5.025,7.623 4.951,7.746 4.949,7.818 l -0.37,0.37 A 1.338,1.338 0 0 1 4.247,7.382 Z m 2.16,0 h 0.52 C 6.909,7.691 6.787,7.97 6.595,8.188 L 6.226,7.818 C 6.224,7.747 6.15,7.623 6.033,7.507 L 5.993,7.467 H 6.05 c 0.165,0 0.305,-0.036 0.356,-0.085 z M 5.419,7.704 v 0.057 c 0,0.165 0.036,0.305 0.085,0.356 V 8.638 A 1.336,1.336 0 0 1 4.698,8.306 l 0.37,-0.37 c 0.07,0 0.195,-0.075 0.311,-0.192 z m 0.336,0 0.041,0.04 c 0.116,0.117 0.24,0.191 0.312,0.192 l 0.369,0.37 A 1.336,1.336 0 0 1 5.671,8.638 V 8.118 C 5.721,8.066 5.755,7.926 5.755,7.761 Z"
     id="path2"
     inkscape:connector-curvature="0"
     style="fill:#5beedc" />
</svg>
