<?xml version="1.0" encoding="UTF-8" standalone="no"?>
<svg
   xmlns:dc="http://purl.org/dc/elements/1.1/"
   xmlns:cc="http://creativecommons.org/ns#"
   xmlns:rdf="http://www.w3.org/1999/02/22-rdf-syntax-ns#"
   xmlns:svg="http://www.w3.org/2000/svg"
   xmlns="http://www.w3.org/2000/svg"
   xmlns:sodipodi="http://sodipodi.sourceforge.net/DTD/sodipodi-0.dtd"
   xmlns:inkscape="http://www.inkscape.org/namespaces/inkscape"
   width="48"
   height="48"
   viewBox="0 0 12.7 12.7"
   version="1.1"
   id="svg4"
   sodipodi:docname="org.gnome.Calculator.Devel.svg"
   inkscape:version="0.92.5 (2060ec1f9f, 2020-04-08)">
  <defs
     id="defs8">
  <style
     id="current-color-scheme"
     type="text/css">
      .ColorScheme-Highlight {
        color:#5beedc;
      }
  </style>
  </defs>
  <path
     class="ColorScheme-Highlight"
     style="fill:#5beedc"
     d="M 24 0 A 24 24 0 0 0 0 24 A 24 24 0 0 0 24 48 A 24 24 0 0 0 48 24 A 24 24 0 0 0 24 0 z M 24 3 A 21 21 0 0 1 45 24 A 21 21 0 0 1 42.226562 34.398438 L 40 32 L 34 32 L 39.597656 38.027344 A 21 21 0 0 1 36.929688 40.539062 L 29 32 L 23 32 L 33.119141 42.896484 A 21 21 0 0 1 29.404297 44.28125 L 18 32 L 12 32 L 24.068359 44.998047 A 21 21 0 0 1 24 45 A 21 21 0 0 1 18.328125 44.199219 L 7 32 L 4.6035156 32 A 21 21 0 0 1 3 24 A 21 21 0 0 1 24 3 z M 14 8 C 13.471184 8 13.044922 8.4754732 13.044922 9.0664062 L 13.044922 29 L 15 29 L 15 27 L 19 27 L 19 29 L 22 29 L 22 27 L 26 27 L 26 29 L 29 29 L 29 27 L 33 27 L 33 29 L 35 29 L 35 9.0664062 C 35 8.4754732 34.573742 8 34.044922 8 L 14 8 z M 15 11 L 33 11 L 33 17 L 15 17 L 15 11 z M 15 20 L 19 20 L 19 24 L 15 24 L 15 20 z M 22 20 L 26 20 L 26 24 L 22 24 L 22 20 z M 29 20 L 33 20 L 33 24 L 29 24 L 29 20 z "
     transform="scale(0.26458333)"
     id="path817" />
</svg>
