<?xml version="1.0" encoding="UTF-8" standalone="no"?>
<svg
   xmlns:dc="http://purl.org/dc/elements/1.1/"
   xmlns:cc="http://creativecommons.org/ns#"
   xmlns:rdf="http://www.w3.org/1999/02/22-rdf-syntax-ns#"
   xmlns:svg="http://www.w3.org/2000/svg"
   xmlns="http://www.w3.org/2000/svg"
   xmlns:sodipodi="http://sodipodi.sourceforge.net/DTD/sodipodi-0.dtd"
   xmlns:inkscape="http://www.inkscape.org/namespaces/inkscape"
   width="48"
   height="48"
   viewBox="0 0 12.7 12.7"
   version="1.1"
   id="svg4"
   sodipodi:docname="hedgewars.svg"
   inkscape:version="0.92.4 (5da689c313, 2019-01-14)">
  <metadata
     id="metadata10">
    <rdf:RDF>
      <cc:Work
         rdf:about="">
        <dc:format>image/svg+xml</dc:format>
        <dc:type
           rdf:resource="http://purl.org/dc/dcmitype/StillImage" />
        <dc:title></dc:title>
      </cc:Work>
    </rdf:RDF>
  </metadata>
  <defs
     id="defs8" />
  <sodipodi:namedview
     pagecolor="#ffffff"
     bordercolor="#666666"
     borderopacity="1"
     objecttolerance="10"
     gridtolerance="10"
     guidetolerance="10"
     inkscape:pageopacity="0"
     inkscape:pageshadow="2"
     inkscape:window-width="862"
     inkscape:window-height="480"
     id="namedview6"
     showgrid="false"
     inkscape:zoom="4.9166667"
     inkscape:cx="2.1355932"
     inkscape:cy="24"
     inkscape:window-x="0"
     inkscape:window-y="25"
     inkscape:window-maximized="0"
     inkscape:current-layer="svg4" />
  <path
     d="m 6.344,0.072 a 6.29,6.29 0 0 0 -6.29,6.29 6.29,6.29 0 0 0 6.29,6.289 6.29,6.29 0 0 0 6.29,-6.29 6.29,6.29 0 0 0 -6.29,-6.29 z M 6.326,1.009 A 5.407,5.407 0 0 1 11.733,6.416 5.407,5.407 0 0 1 6.326,11.823 5.407,5.407 0 0 1 0.92,6.416 5.407,5.407 0 0 1 6.326,1.01 Z m -1.3,1.136 V 3.683 L 2.712,3.641 3.846,5.254 2.11,5.941 3.583,7.03 2.484,8.426 4.071,8.546 A 0.885,0.885 0 0 0 4.051,8.723 0.885,0.885 0 0 0 4.937,9.608 0.885,0.885 0 0 0 5.443,9.448 0.967,0.967 0 0 0 5.44,9.514 0.967,0.967 0 0 0 6.407,10.482 0.967,0.967 0 0 0 7.147,10.134 0.967,0.967 0 0 0 7.96,10.578 0.967,0.967 0 0 0 8.927,9.611 0.967,0.967 0 0 0 8.745,9.05 3.048,3.048 0 0 0 9.527,8.244 0.967,0.967 0 0 0 9.61,8.249 0.967,0.967 0 0 0 10.577,7.282 0.967,0.967 0 0 0 10.03,6.413 3.048,3.048 0 0 0 7.401,3.541 L 5.027,2.145 Z M 7.01,3.704 A 2.836,2.836 0 0 1 9.609,7.676 2.688,2.688 0 1 1 5.874,3.94 2.825,2.825 0 0 1 7.009,3.703 Z M 7.733,4.852 A 1.174,0.882 76.108 0 0 7.558,4.872 1.174,0.882 76.108 0 0 6.983,6.224 1.174,0.882 76.108 0 0 8.121,7.152 1.174,0.882 76.108 0 0 8.617,6.726 0.956,0.718 76.108 0 0 9.077,6.806 0.956,0.718 76.108 0 0 9.544,5.706 0.956,0.718 76.108 0 0 8.761,4.936 0.956,0.718 76.108 0 0 8.618,4.951 0.956,0.718 76.108 0 0 8.328,5.131 1.174,0.882 76.108 0 0 7.733,4.852 Z m 1.338,0.73 a 0.298,0.4 0 0 1 0.297,0.401 0.298,0.4 0 0 1 -0.297,0.4 0.298,0.4 0 0 1 -0.298,-0.4 0.298,0.4 0 0 1 0.298,-0.4 z M 8.037,5.624 A 0.34,0.456 0 0 1 8.377,6.08 0.34,0.456 0 0 1 8.037,6.536 0.34,0.456 0 0 1 7.697,6.08 0.34,0.456 0 0 1 8.037,5.624 Z m 2,0.981 A 0.586,0.586 0 0 1 10.3,7.093 0.586,0.586 0 0 1 9.83,7.667 3.048,3.048 0 0 0 10.037,6.605 Z M 9.167,7.231 C 9.117,7.236 8.988,7.353 8.988,7.353 8.674,7.573 8.449,7.537 8.193,7.528 7.996,7.521 8.023,7.664 8.101,7.713 8.128,7.73 8.193,7.739 8.193,7.739 8.773,7.798 9.069,7.535 9.163,7.36 9.215,7.263 9.183,7.236 9.183,7.236 9.179,7.231 9.173,7.23 9.166,7.231 Z M 4.557,8.388 A 3.048,3.048 0 0 0 5.3,9.094 0.556,0.556 0 0 1 5.074,9.142 0.556,0.556 0 0 1 4.519,8.587 0.556,0.556 0 0 1 4.556,8.388 Z m 4.027,0.765 a 0.629,0.629 0 0 1 0.05,0.242 0.629,0.629 0 0 1 -0.63,0.63 A 0.629,0.629 0 0 1 7.403,9.576 3.048,3.048 0 0 0 8.583,9.153 Z M 5.814,9.368 A 3.048,3.048 0 0 0 6.932,9.606 0.597,0.597 0 0 1 6.408,9.916 0.597,0.597 0 0 1 5.814,9.368 Z"
     id="path2"
     inkscape:connector-curvature="0"
     style="fill:#5beedc" />
</svg>
