<?xml version="1.0" encoding="UTF-8" standalone="no"?>
<svg
   xmlns:dc="http://purl.org/dc/elements/1.1/"
   xmlns:cc="http://creativecommons.org/ns#"
   xmlns:rdf="http://www.w3.org/1999/02/22-rdf-syntax-ns#"
   xmlns:svg="http://www.w3.org/2000/svg"
   xmlns="http://www.w3.org/2000/svg"
   xmlns:sodipodi="http://sodipodi.sourceforge.net/DTD/sodipodi-0.dtd"
   xmlns:inkscape="http://www.inkscape.org/namespaces/inkscape"
   width="48"
   height="48"
   viewBox="0 0 12.7 12.7"
   version="1.1"
   id="svg4"
   sodipodi:docname="org.gnome.Podcasts.svg"
   inkscape:version="0.92.5 (2060ec1f9f, 2020-04-08)">
  <defs
     id="defs8">
  <style
     id="current-color-scheme"
     type="text/css">
      .ColorScheme-Highlight {
        color:#5beedc;
      }
  </style>
  </defs>
  <path
     class="ColorScheme-Highlight"
     style="fill:#5beedc"
     d="M 24 0 A 24 24 0 0 0 0 24 A 24 24 0 0 0 24 48 A 24 24 0 0 0 48 24 A 24 24 0 0 0 24 0 z M 24 3 A 21 21 0 0 1 45 24 A 21 21 0 0 1 24 45 A 21 21 0 0 1 3 24 A 21 21 0 0 1 24 3 z "
     transform="scale(0.26458333)"
     id="path827" />
  <path
     style="fill:#ff5555"
     d="M 9 13 C 8.4459999 13 8 13.446 8 14 L 8 34 C 8 34.554 8.4459999 35 9 35 L 11 35 L 14 29 L 34 29 L 37 35 L 39 35 C 39.554 35 40 34.554 40 34 L 40 14 C 40 13.446 39.554 13 39 13 L 9 13 z M 16 18 L 32 18 C 34.215999 18 36 19.784001 36 22 C 36 24.215999 34.215999 26 32 26 L 16 26 C 13.784001 26 12 24.215999 12 22 C 12 19.784001 13.784001 18 16 18 z M 16 20 A 1.9999999 1.9999999 0 0 0 14 22 A 1.9999999 1.9999999 0 0 0 16 24 A 1.9999999 1.9999999 0 0 0 18 22 A 1.9999999 1.9999999 0 0 0 16 20 z M 32 20 A 1.9999999 1.9999999 0 0 0 30 22 A 1.9999999 1.9999999 0 0 0 32 24 A 1.9999999 1.9999999 0 0 0 34 22 A 1.9999999 1.9999999 0 0 0 32 20 z M 15 31 L 13 35 L 35 35 L 33 31 L 15 31 z "
     transform="scale(0.26458333)"
     id="path823" />
</svg>
