<?xml version="1.0" encoding="UTF-8" standalone="no"?>
<svg
   xmlns:dc="http://purl.org/dc/elements/1.1/"
   xmlns:cc="http://creativecommons.org/ns#"
   xmlns:rdf="http://www.w3.org/1999/02/22-rdf-syntax-ns#"
   xmlns:svg="http://www.w3.org/2000/svg"
   xmlns="http://www.w3.org/2000/svg"
   xmlns:sodipodi="http://sodipodi.sourceforge.net/DTD/sodipodi-0.dtd"
   xmlns:inkscape="http://www.inkscape.org/namespaces/inkscape"
   width="48"
   height="48"
   viewBox="0 0 12.7 12.7"
   version="1.1"
   id="svg4"
   sodipodi:docname="gpodder.svg"
   inkscape:version="0.92.4 (5da689c313, 2019-01-14)">
  <metadata
     id="metadata10">
    <rdf:RDF>
      <cc:Work
         rdf:about="">
        <dc:format>image/svg+xml</dc:format>
        <dc:type
           rdf:resource="http://purl.org/dc/dcmitype/StillImage" />
        <dc:title></dc:title>
      </cc:Work>
    </rdf:RDF>
  </metadata>
  <defs
     id="defs8" />
  <sodipodi:namedview
     pagecolor="#ffffff"
     bordercolor="#666666"
     borderopacity="1"
     objecttolerance="10"
     gridtolerance="10"
     guidetolerance="10"
     inkscape:pageopacity="0"
     inkscape:pageshadow="2"
     inkscape:window-width="1138"
     inkscape:window-height="480"
     id="namedview6"
     showgrid="false"
     inkscape:zoom="4.9166667"
     inkscape:cx="2.1355932"
     inkscape:cy="24"
     inkscape:window-x="0"
     inkscape:window-y="25"
     inkscape:window-maximized="0"
     inkscape:current-layer="svg4" />
  <path
     d="m 6.344,0.072 a 6.29,6.29 0 0 0 -6.29,6.29 6.29,6.29 0 0 0 6.29,6.289 6.29,6.29 0 0 0 6.29,-6.29 6.29,6.29 0 0 0 -6.29,-6.29 z M 6.326,1.009 A 5.407,5.407 0 0 1 11.733,6.416 5.407,5.407 0 0 1 6.326,11.823 5.407,5.407 0 0 1 0.92,6.416 5.407,5.407 0 0 1 6.326,1.01 Z m -0.13,1.086 a 2.97,2.97 0 0 0 -0.28,0.02 C 4.425,2.279 3.336,3.507 3.437,4.88 L 3.042,4.925 3.239,6.728 3.564,6.69 A 4.198,4.198 0 0 1 3.57,5.983 C 3.607,5.563 3.7,5.175 3.838,4.835 H 3.818 C 3.741,3.659 4.675,2.612 5.954,2.471 7.162,2.338 8.248,3.065 8.516,4.128 l 0.05,0.07 c 0.276,0.424 0.461,0.984 0.523,1.606 0.009,0.09 0.016,0.179 0.019,0.267 L 9.49,6.027 9.293,4.217 8.936,4.256 C 8.74,2.989 7.564,2.073 6.196,2.096 Z M 6.092,3.6 C 5.859,3.61 5.692,3.86 5.568,4.213 A 0.605,0.605 0 0 0 5.113,4.058 C 4.567,4.12 4.072,4.96 3.979,6.021 3.879,7.152 4.276,8.101 4.864,8.149 5.107,8.169 5.342,8.026 5.543,7.778 5.786,8.361 5.817,9.049 2.983,8.532 2.493,8.442 2.459,8.718 2.433,9.378 2.406,10.038 4.436,10.269 7.106,10.118 8.1,10.037 10.205,10.003 10.263,8.838 10.321,7.674 9.844,8.141 9,8.335 7.555,8.668 7.373,8.332 7.33,7.802 7.485,7.931 7.65,7.999 7.821,7.983 8.409,7.929 8.793,6.973 8.681,5.842 8.569,4.712 8.001,3.838 7.413,3.892 7.114,3.93 6.863,4.209 6.75,4.394 6.584,3.944 6.383,3.589 6.092,3.6 Z m 1.2,0.53 c 0.131,-0.012 0.26,0.027 0.382,0.109 0.123,0.082 0.238,0.205 0.34,0.362 0.102,0.157 0.19,0.347 0.26,0.56 0.07,0.213 0.12,0.45 0.145,0.701 0.025,0.251 0.022,0.493 -0.004,0.714 A 2.346,2.346 0 0 1 8.27,7.172 C 8.2,7.344 8.112,7.486 8.008,7.588 A 0.58,0.58 0 0 1 7.655,7.764 0.587,0.587 0 0 1 7.272,7.654 1.785,1.785 0 0 1 7.005,7.447 2.694,2.694 0 0 1 6.715,6.823 3.759,3.759 0 0 1 6.553,6.033 3.737,3.737 0 0 1 6.557,5.23 C 6.583,4.966 6.659,4.73 6.755,4.52 6.796,4.484 6.855,4.418 6.939,4.306 A 0.58,0.58 0 0 1 7.293,4.13 Z M 5.249,4.277 a 0.581,0.581 0 0 1 0.452,0.172 l 0.208,0.285 c 0.08,0.192 0.152,0.4 0.184,0.65 0.033,0.248 0.038,0.52 0.014,0.802 C 6.082,6.469 6.029,6.736 5.954,6.977 5.937,7.032 5.914,7.08 5.895,7.131 5.917,7.073 5.939,7.015 5.958,6.953 5.897,7.129 5.828,7.298 5.743,7.433 5.643,7.59 5.53,7.715 5.408,7.798 A 0.585,0.585 0 0 1 5.028,7.911 0.58,0.58 0 0 1 4.673,7.74 1.215,1.215 0 0 1 4.406,7.327 2.34,2.34 0 0 1 4.253,6.734 3.307,3.307 0 0 1 4.241,6.021 C 4.261,5.785 4.305,5.561 4.365,5.358 4.425,5.155 4.504,4.972 4.594,4.816 4.684,4.661 4.788,4.532 4.898,4.44 a 0.67,0.67 0 0 1 0.35,-0.163 z m 2.406,1.546 c -0.274,0 -0.497,0.274 -0.497,0.612 0,0.338 0.223,0.612 0.497,0.612 0.275,0 0.497,-0.274 0.497,-0.612 C 8.152,6.097 7.93,5.823 7.655,5.823 Z M 5.005,5.989 C 4.73,5.992 4.51,6.269 4.514,6.607 4.518,6.945 4.743,7.216 5.017,7.212 5.292,7.209 5.512,6.932 5.507,6.594 5.504,6.257 5.279,5.986 5.004,5.989 Z"
     id="path2"
     inkscape:connector-curvature="0"
     style="fill:#5beedc" />
</svg>
