<?xml version="1.0" encoding="UTF-8" standalone="no"?>
<svg
   xmlns:dc="http://purl.org/dc/elements/1.1/"
   xmlns:cc="http://creativecommons.org/ns#"
   xmlns:rdf="http://www.w3.org/1999/02/22-rdf-syntax-ns#"
   xmlns:svg="http://www.w3.org/2000/svg"
   xmlns="http://www.w3.org/2000/svg"
   xmlns:sodipodi="http://sodipodi.sourceforge.net/DTD/sodipodi-0.dtd"
   xmlns:inkscape="http://www.inkscape.org/namespaces/inkscape"
   width="48"
   height="48"
   viewBox="0 0 12.7 12.7"
   version="1.1"
   id="svg4"
   sodipodi:docname="preferences-desktop-keyboard.svg"
   inkscape:version="0.92.5 (2060ec1f9f, 2020-04-08)">
  <defs
     id="defs8">
  <style
     id="current-color-scheme"
     type="text/css">
      .ColorScheme-Highlight {
        color:#5beedc;
      }
  </style>
  </defs>
  <path
     class="ColorScheme-Highlight"
     style="fill:#5beedc"
     d="M 24 0 A 24 24 0 0 0 0 24 A 24 24 0 0 0 24 48 A 24 24 0 0 0 48 24 A 24 24 0 0 0 24 0 z M 24 3 A 21 21 0 0 1 45 24 A 21 21 0 0 1 24 45 A 21 21 0 0 1 3 24 A 21 21 0 0 1 24 3 z M 14 10 C 12.338 10 11 11.338 11 13 L 11 33 C 11 34.662 12.338 36 14 36 L 34 36 C 35.662 36 37 34.662 37 33 L 37 13 C 37 11.338 35.662 10 34 10 L 14 10 z M 14 12 L 34 12 C 34.553999 12 35 12.446 35 13 L 35 31 C 35 31.554 34.553999 32 34 32 L 14 32 C 13.446001 32 13 31.554 13 31 L 13 13 C 13 12.446 13.446001 12 14 12 z M 26.746094 18.929688 C 25.309874 18.929688 23.874302 19.383243 22.513672 20.328125 L 23.232422 21.916016 C 23.799342 21.538063 24.365401 21.235852 24.894531 21.046875 C 25.461461 20.820103 25.952611 20.744141 26.519531 20.744141 C 27.351031 20.744141 28.032206 20.933174 28.410156 21.386719 C 28.901496 21.802467 29.242187 22.406203 29.242188 23.162109 L 29.242188 23.728516 A 8.503937 8.503937 0 0 0 27.804688 23.388672 A 7.4456693 7.4456693 0 0 0 26.369141 23.275391 C 25.688831 23.275391 25.121617 23.350772 24.554688 23.501953 A 4.8 4.8 0 0 0 23.119141 24.220703 A 3.0992126 3.0992126 0 0 0 22.25 25.240234 A 3.3637796 3.3637796 0 0 0 22.173828 28.113281 C 22.362808 28.491234 22.551155 28.870199 22.853516 29.134766 C 23.231465 29.437128 23.609651 29.662586 24.025391 29.851562 A 5.0267717 5.0267717 0 0 0 27.691406 29.625 C 28.371716 29.247047 28.976148 28.794863 29.429688 28.152344 L 29.46875 28.792969 A 1.3606299 1.3606299 0 0 0 29.884766 29.625 C 30.111533 29.813976 30.451438 29.927048 30.867188 29.964844 L 31.396484 29.964844 C 31.585453 29.964844 31.773229 29.966215 32 29.890625 L 32 28 C 31.735441 28 31.433692 27.923933 31.320312 27.810547 A 0.90708661 0.90708661 0 0 1 31.09375 27.244141 L 31.09375 23.275391 C 31.09375 21.876965 30.942828 20.819673 30.111328 20.101562 C 29.355428 19.345658 28.220104 18.929688 26.746094 18.929688 z M 26.595703 24.599609 C 26.973652 24.599609 27.728791 24.711523 28.144531 24.787109 L 29.279297 25.166016 L 29.279297 26.525391 C 29.279297 26.789958 29.01457 27.092855 28.75 27.357422 C 27.9563 28.075532 26.973496 28.150972 26.066406 28.226562 C 25.461676 28.226562 24.706075 28.226189 24.328125 27.923828 A 1.7385827 1.7385827 0 0 1 23.685547 26.601562 C 23.685547 26.034633 24.25281 25.543282 24.744141 25.203125 A 3.0992126 3.0992126 0 0 1 26.595703 24.636719 L 26.595703 24.599609 z "
     transform="scale(0.26458333)"
     id="rect820" />
</svg>
