<?xml version="1.0" encoding="UTF-8" standalone="no"?>
<svg
   xmlns:dc="http://purl.org/dc/elements/1.1/"
   xmlns:cc="http://creativecommons.org/ns#"
   xmlns:rdf="http://www.w3.org/1999/02/22-rdf-syntax-ns#"
   xmlns:svg="http://www.w3.org/2000/svg"
   xmlns="http://www.w3.org/2000/svg"
   xmlns:sodipodi="http://sodipodi.sourceforge.net/DTD/sodipodi-0.dtd"
   xmlns:inkscape="http://www.inkscape.org/namespaces/inkscape"
   width="48"
   height="48"
   viewBox="0 0 12.7 12.7"
   version="1.1"
   id="svg6"
   sodipodi:docname="application-x-clementine.svg"
   inkscape:version="0.92.4 (5da689c313, 2019-01-14)">
  <metadata
     id="metadata12">
    <rdf:RDF>
      <cc:Work
         rdf:about="">
        <dc:format>image/svg+xml</dc:format>
        <dc:type
           rdf:resource="http://purl.org/dc/dcmitype/StillImage" />
        <dc:title></dc:title>
      </cc:Work>
    </rdf:RDF>
  </metadata>
  <defs
     id="defs10" />
  <sodipodi:namedview
     pagecolor="#ffffff"
     bordercolor="#666666"
     borderopacity="1"
     objecttolerance="10"
     gridtolerance="10"
     guidetolerance="10"
     inkscape:pageopacity="0"
     inkscape:pageshadow="2"
     inkscape:window-width="1087"
     inkscape:window-height="480"
     id="namedview8"
     showgrid="false"
     inkscape:zoom="4.9166667"
     inkscape:cx="2.1355932"
     inkscape:cy="24"
     inkscape:window-x="0"
     inkscape:window-y="25"
     inkscape:window-maximized="0"
     inkscape:current-layer="svg6" />
  <path
     d="m 6.35,1.852 c -0.844,0 -1.406,0.562 -1.406,0.562 0,0 0.335,1.14 0.562,1.687 0.241,0.58 0.844,1.687 0.844,1.687 0,0 0.602,-1.106 0.843,-1.687 0.227,-0.548 0.562,-1.687 0.562,-1.687 0,0 -0.562,-0.562 -1.405,-0.562 m -1.789,0.72 c 0,0 -0.796,0 -1.392,0.597 -0.596,0.596 -0.596,1.392 -0.596,1.392 0,0 1.043,0.568 1.59,0.795 0.581,0.24 1.79,0.596 1.79,0.596 0,0 -0.356,-1.208 -0.597,-1.789 C 5.129,3.616 4.561,2.573 4.561,2.573 m 3.578,0 c 0,0 -0.568,1.043 -0.795,1.59 -0.24,0.581 -0.596,1.79 -0.596,1.79 0,0 1.207,-0.356 1.788,-0.597 0.548,-0.227 1.59,-0.795 1.59,-0.795 0,0 0,-0.796 -0.595,-1.392 C 8.934,2.573 8.139,2.573 8.139,2.573 M 2.414,4.944 c 0,0 -0.562,0.563 -0.562,1.406 0,0.843 0.562,1.406 0.562,1.406 0,0 1.14,-0.336 1.687,-0.563 C 4.681,6.953 5.788,6.35 5.788,6.35 5.788,6.35 4.682,5.747 4.1,5.507 3.552,5.28 2.413,4.944 2.413,4.944 m 7.872,0 c 0,0 -1.14,0.336 -1.687,0.563 -0.58,0.24 -1.687,0.843 -1.687,0.843 0,0 1.106,0.603 1.687,0.843 0.548,0.227 1.687,0.563 1.687,0.563 0,0 0.562,-0.563 0.562,-1.406 0,-0.843 -0.562,-1.406 -0.562,-1.406 M 5.952,6.747 c 0,0 -1.207,0.356 -1.788,0.597 -0.548,0.227 -1.59,0.795 -1.59,0.795 0,0 0,0.795 0.595,1.392 0.597,0.596 1.392,0.596 1.392,0.596 0,0 0.568,-1.043 0.795,-1.59 0.24,-0.582 0.596,-1.79 0.596,-1.79 m 0.796,0 c 0,0 0.355,1.208 0.596,1.79 0.227,0.547 0.795,1.59 0.795,1.59 0,0 0.795,0 1.392,-0.596 0.596,-0.597 0.596,-1.392 0.596,-1.392 0,0 -1.043,-0.568 -1.59,-0.795 C 7.955,7.104 6.747,6.748 6.747,6.748 M 6.35,6.912 c 0,0 -0.603,1.106 -0.843,1.688 -0.227,0.548 -0.563,1.687 -0.563,1.687 0,0 0.563,0.562 1.406,0.562 0.843,0 1.406,-0.562 1.406,-0.562 0,0 -0.336,-1.14 -0.563,-1.687 C 6.953,8.02 6.35,6.913 6.35,6.913"
     id="path2"
     inkscape:connector-curvature="0"
     style="opacity:0.75;fill:#aa4400" />
  <path
     d="M 6.35,0.06 A 6.29,6.29 0 0 0 0.06,6.35 6.29,6.29 0 0 0 6.35,12.64 6.29,6.29 0 0 0 12.64,6.35 6.29,6.29 0 0 0 6.35,0.06 Z M 6.332,0.997 A 5.407,5.407 0 0 1 11.739,6.404 5.407,5.407 0 0 1 6.332,11.811 5.407,5.407 0 0 1 0.925,6.404 5.407,5.407 0 0 1 6.332,0.997 Z"
     id="path4"
     inkscape:connector-curvature="0"
     style="fill:#5beedc" />
</svg>
