<?xml version="1.0" encoding="UTF-8" standalone="no"?>
<svg
   xmlns:dc="http://purl.org/dc/elements/1.1/"
   xmlns:cc="http://creativecommons.org/ns#"
   xmlns:rdf="http://www.w3.org/1999/02/22-rdf-syntax-ns#"
   xmlns:svg="http://www.w3.org/2000/svg"
   xmlns="http://www.w3.org/2000/svg"
   xmlns:sodipodi="http://sodipodi.sourceforge.net/DTD/sodipodi-0.dtd"
   xmlns:inkscape="http://www.inkscape.org/namespaces/inkscape"
   width="48"
   height="48"
   viewBox="0 0 12.7 12.7"
   version="1.1"
   id="svg4"
   sodipodi:docname="archive-manager.svg"
   inkscape:version="0.92.5 (2060ec1f9f, 2020-04-08)">
  <defs
     id="defs8">
  <style
     id="current-color-scheme"
     type="text/css">
      .ColorScheme-Highlight {
        color:#5beedc;
      }
  </style>
  </defs>
  <path
     class="ColorScheme-Highlight"
     style="fill:#5beedc"
     d="M 24 0 A 24 24 0 0 0 0 24 A 24 24 0 0 0 24 48 A 24 24 0 0 0 48 24 A 24 24 0 0 0 24 0 z M 24 3 A 21 21 0 0 1 45 24 A 21 21 0 0 1 24 45 A 21 21 0 0 1 3 24 A 21 21 0 0 1 18 3.9121094 L 18 6 L 20 6 L 22 6 L 24 6 L 24 3 z M 24 6 L 24 10 L 30 10 L 30 6 L 24 6 z M 24 10 L 18 10 L 18 14 L 24 14 L 24 10 z M 24 14 L 24 18 L 30 18 L 30 14 L 24 14 z M 24 18 L 18 18 L 18 22 L 24 22 L 24 18 z M 20 24 L 20 32 L 22 32 L 22 39 L 26 39 L 26 32 L 28 32 L 28 24 L 20 24 z M 22 26 L 26 26 L 26 30 L 22 30 L 22 26 z "
     transform="scale(0.26458333)"
     id="path831" />
</svg>
