<?xml version="1.0" encoding="UTF-8" standalone="no"?>
<svg
   xmlns:dc="http://purl.org/dc/elements/1.1/"
   xmlns:cc="http://creativecommons.org/ns#"
   xmlns:rdf="http://www.w3.org/1999/02/22-rdf-syntax-ns#"
   xmlns:svg="http://www.w3.org/2000/svg"
   xmlns="http://www.w3.org/2000/svg"
   xmlns:sodipodi="http://sodipodi.sourceforge.net/DTD/sodipodi-0.dtd"
   xmlns:inkscape="http://www.inkscape.org/namespaces/inkscape"
   width="48"
   height="48"
   viewBox="0 0 12.7 12.7"
   version="1.1"
   id="svg4"
   sodipodi:docname="org.kde.plasma.digitalclock-ng.svg"
   inkscape:version="0.92.4 (5da689c313, 2019-01-14)">
  <metadata
     id="metadata10">
    <rdf:RDF>
      <cc:Work
         rdf:about="">
        <dc:format>image/svg+xml</dc:format>
        <dc:type
           rdf:resource="http://purl.org/dc/dcmitype/StillImage" />
        <dc:title></dc:title>
      </cc:Work>
    </rdf:RDF>
  </metadata>
  <defs
     id="defs8" />
  <sodipodi:namedview
     pagecolor="#ffffff"
     bordercolor="#666666"
     borderopacity="1"
     objecttolerance="10"
     gridtolerance="10"
     guidetolerance="10"
     inkscape:pageopacity="0"
     inkscape:pageshadow="2"
     inkscape:window-width="1087"
     inkscape:window-height="480"
     id="namedview6"
     showgrid="false"
     inkscape:zoom="4.9166667"
     inkscape:cx="2.1355932"
     inkscape:cy="24"
     inkscape:window-x="0"
     inkscape:window-y="25"
     inkscape:window-maximized="0"
     inkscape:current-layer="svg4" />
  <path
     d="M 6.34,0.07 A 6.29,6.29 0 0 0 0.05,6.37 6.29,6.29 0 0 0 6.35,12.65 6.29,6.29 0 0 0 12.63,6.36 6.29,6.29 0 0 0 6.34,0.07 Z M 6.32,1 6.33,1.01 a 5.4,5.4 0 0 1 5.4,5.4 5.4,5.4 0 0 1 -5.4,5.41 A 5.4,5.4 0 0 1 0.92,6.42 5.4,5.4 0 0 1 6.32,1 Z M 6.408,1.638 A 4.748,4.748 0 0 0 4.36,2.07 C 3.902,2.212 3.65,2.669 3.9,3.123 4.098,3.465 4.535,3.583 4.877,3.386 l 0.01,0.017 A 3.334,3.334 0 0 1 4.971,3.36 3.334,3.334 0 0 1 5.281,3.238 3.334,3.334 0 0 1 5.602,3.148 3.334,3.334 0 0 1 5.931,3.091 3.334,3.334 0 0 1 6.263,3.066 a 3.334,3.334 0 0 1 0.333,0.009 3.334,3.334 0 0 1 0.33,0.042 3.334,3.334 0 0 1 0.325,0.075 3.334,3.334 0 0 1 0.316,0.107 3.334,3.334 0 0 1 0.303,0.137 3.334,3.334 0 0 1 0.288,0.167 3.334,3.334 0 0 1 0.27,0.196 3.334,3.334 0 0 1 0.25,0.221 3.334,3.334 0 0 1 0.225,0.245 3.334,3.334 0 0 1 0.2,0.267 3.334,3.334 0 0 1 0.125,0.2 3.334,3.334 0 0 1 0.153,0.297 3.334,3.334 0 0 1 0.12,0.31 3.334,3.334 0 0 1 0.091,0.32 A 3.334,3.334 0 0 1 9.65,5.987 3.334,3.334 0 0 1 9.674,6.32 3.334,3.334 0 0 1 9.665,6.653 3.334,3.334 0 0 1 9.623,6.983 3.334,3.334 0 0 1 9.548,7.308 3.334,3.334 0 0 1 9.441,7.624 3.334,3.334 0 0 1 9.304,7.927 3.334,3.334 0 0 1 9.136,8.216 3.334,3.334 0 0 1 8.941,8.486 3.334,3.334 0 0 1 8.72,8.735 3.334,3.334 0 0 1 8.474,8.96 3.334,3.334 0 0 1 8.208,9.16 3.334,3.334 0 0 1 8.008,9.286 3.334,3.334 0 0 1 7.712,9.438 3.334,3.334 0 0 1 7.402,9.559 3.334,3.334 0 0 1 7.081,9.649 3.334,3.334 0 0 1 6.753,9.707 3.334,3.334 0 0 1 6.42,9.731 3.334,3.334 0 0 1 6.087,9.722 3.334,3.334 0 0 1 5.757,9.681 3.334,3.334 0 0 1 5.432,9.606 3.334,3.334 0 0 1 5.116,9.499 3.334,3.334 0 0 1 4.813,9.361 3.334,3.334 0 0 1 4.525,9.194 3.334,3.334 0 0 1 4.255,8.998 3.334,3.334 0 0 1 4.006,8.778 3.334,3.334 0 0 1 3.78,8.532 3.334,3.334 0 0 1 3.58,8.266 3.334,3.334 0 0 1 3.455,8.066 3.334,3.334 0 0 1 3.453,8.061 H 3.452 A 0.714,0.714 0 1 0 2.247,8.827 4.765,4.765 0 0 0 8.722,10.523 4.764,4.764 0 0 0 10.463,4.013 4.768,4.768 0 0 0 6.408,1.638 Z M 6.651,5.062 A 0.848,0.848 0 0 0 6.12,5.238 L 6.224,5.382 C 6.288,5.341 6.352,5.306 6.418,5.279 a 0.615,0.615 0 0 1 0.236,-0.04 c 0.095,0 0.171,0.023 0.227,0.07 a 0.229,0.229 0 0 1 0.083,0.19 0.287,0.287 0 0 1 -0.11,0.234 C 6.783,5.792 6.677,5.821 6.537,5.821 H 6.37 V 6 H 6.534 A 0.71,0.71 0 0 1 6.885,6.071 C 6.97,6.117 7.012,6.193 7.012,6.3 A 0.313,0.313 0 0 1 6.91,6.547 C 6.843,6.607 6.732,6.637 6.58,6.637 A 1.058,1.058 0 0 1 6.11,6.524 V 6.72 a 0.77,0.77 0 0 0 0.219,0.072 c 0.076,0.014 0.16,0.02 0.248,0.02 A 0.906,0.906 0 0 0 6.947,6.748 0.458,0.458 0 0 0 7.162,6.57 0.503,0.503 0 0 0 7.232,6.305 0.377,0.377 0 0 0 7.129,6.03 0.483,0.483 0 0 0 6.826,5.901 V 5.892 A 0.477,0.477 0 0 0 7.081,5.758 0.38,0.38 0 0 0 7.179,5.483 0.392,0.392 0 0 0 7.048,5.18 C 6.962,5.1 6.829,5.061 6.651,5.061 Z m 1.63,0 A 0.798,0.798 0 0 0 7.886,5.148 0.631,0.631 0 0 0 7.647,5.38 0.998,0.998 0 0 0 7.531,5.702 2.07,2.07 0 0 0 7.499,6.062 c 0,0.17 0.026,0.311 0.077,0.423 a 0.564,0.564 0 0 0 0.21,0.248 c 0.088,0.054 0.185,0.08 0.294,0.08 0.165,0 0.296,-0.05 0.393,-0.151 A 0.58,0.58 0 0 0 8.621,6.241 C 8.621,6.075 8.576,5.948 8.485,5.859 A 0.483,0.483 0 0 0 8.128,5.723 0.477,0.477 0 0 0 7.877,5.783 0.453,0.453 0 0 0 7.724,5.923 H 7.709 C 7.714,5.83 7.726,5.742 7.745,5.659 A 0.68,0.68 0 0 1 7.835,5.439 0.449,0.449 0 0 1 8.01,5.289 0.611,0.611 0 0 1 8.285,5.234 c 0.035,0 0.07,0.002 0.107,0.007 0.037,0.004 0.07,0.012 0.098,0.022 V 5.083 A 0.467,0.467 0 0 0 8.39,5.067 1.384,1.384 0 0 0 8.28,5.062 Z M 3.481,5.086 3.021,5.444 3.13,5.584 3.311,5.437 3.388,5.37 A 0.806,0.806 0 0 0 3.46,5.306 3.857,3.857 0 0 0 3.45,5.599 V 6.79 H 3.656 V 5.086 H 3.48 Z m 1.19,0 -0.46,0.358 0.11,0.14 L 4.501,5.437 4.578,5.37 A 0.805,0.805 0 0 0 4.648,5.306 3.901,3.901 0 0 0 4.642,5.434 C 4.64,5.476 4.64,5.531 4.64,5.599 V 6.79 H 4.845 V 5.086 Z m 1.01,0.391 A 0.155,0.155 0 0 0 5.578,5.513 C 5.55,5.537 5.536,5.579 5.536,5.639 c 0,0.058 0.014,0.099 0.042,0.124 A 0.149,0.149 0 0 0 5.681,5.802 0.16,0.16 0 0 0 5.786,5.763 C 5.816,5.738 5.831,5.697 5.831,5.639 5.831,5.579 5.816,5.537 5.786,5.513 A 0.166,0.166 0 0 0 5.681,5.477 Z m 2.403,0.411 c 0.11,0 0.192,0.032 0.246,0.096 0.056,0.063 0.084,0.149 0.084,0.257 0,0.135 -0.031,0.236 -0.093,0.301 A 0.327,0.327 0 0 1 8.077,6.637 0.314,0.314 0 0 1 7.874,6.573 0.414,0.414 0 0 1 7.752,6.406 0.554,0.554 0 0 1 7.712,6.201 0.27,0.27 0 0 1 7.758,6.055 0.386,0.386 0 0 1 8.085,5.888 Z M 5.681,6.501 A 0.154,0.154 0 0 0 5.578,6.537 C 5.55,6.56 5.536,6.603 5.536,6.662 5.536,6.719 5.55,6.76 5.578,6.785 A 0.149,0.149 0 0 0 5.681,6.823 0.16,0.16 0 0 0 5.786,6.785 C 5.816,6.76 5.831,6.719 5.831,6.662 5.831,6.602 5.816,6.56 5.786,6.537 A 0.165,0.165 0 0 0 5.681,6.501 Z"
     id="path2"
     inkscape:connector-curvature="0"
     style="fill:#5beedc" />
</svg>
