<?xml version="1.0" encoding="UTF-8" standalone="no"?>
<svg
   xmlns:dc="http://purl.org/dc/elements/1.1/"
   xmlns:cc="http://creativecommons.org/ns#"
   xmlns:rdf="http://www.w3.org/1999/02/22-rdf-syntax-ns#"
   xmlns:svg="http://www.w3.org/2000/svg"
   xmlns="http://www.w3.org/2000/svg"
   xmlns:sodipodi="http://sodipodi.sourceforge.net/DTD/sodipodi-0.dtd"
   xmlns:inkscape="http://www.inkscape.org/namespaces/inkscape"
   width="48"
   height="48"
   viewBox="0 0 12.7 12.7"
   version="1.1"
   id="svg4"
   sodipodi:docname="glabels-3.0.svg"
   inkscape:version="0.92.5 (2060ec1f9f, 2020-04-08)">
  <defs
     id="defs8">
  <style
     id="current-color-scheme"
     type="text/css">
      .ColorScheme-Highlight {
        color:#5beedc;
      }
  </style>
  </defs>
  <path
     class="ColorScheme-Highlight"
     style="fill:#5beedc"
     d="M 24 0 A 24 24 0 0 0 0 24 A 24 24 0 0 0 24 48 A 24 24 0 0 0 48 24 A 24 24 0 0 0 24 0 z M 24 3 A 21 21 0 0 1 45 24 A 21 21 0 0 1 24 45 A 21 21 0 0 1 3 24 A 21 21 0 0 1 24 3 z M 9 14 C 8.4459999 14 8 14.446 8 15 L 8 33 C 8 33.554 8.4459999 34 9 34 L 39 34 C 39.553999 34 40 33.554 40 33 L 40 26.015625 L 39.40625 25.419922 L 28.583984 14.583984 L 28 14 L 9 14 z M 11 17 L 28 17 L 28 24 C 28 25.108 28.892 26 30 26 L 37 26 L 37 31 L 11 31 L 11 17 z M 15 19 C 14.446 19 14 19.446 14 20 C 14 20.554 14.446 21 15 21 L 24 21 C 24.554 21 25 20.554 25 20 C 25 19.446 24.554 19 24 19 L 15 19 z M 15 23 C 14.446 23 14 23.446 14 24 C 14 24.554 14.446 25 15 25 L 24 25 C 24.554 25 25 24.554 25 24 C 25 23.446 24.554 23 24 23 L 15 23 z M 15 27 C 14.446 27 14 27.446 14 28 C 14 28.554 14.446 29 15 29 L 24 29 C 24.554 29 25 28.554 25 28 C 25 27.446 24.554 27 24 27 L 15 27 z "
     transform="scale(0.26458333)"
     id="path817" />
</svg>
