<?xml version="1.0" encoding="UTF-8" standalone="no"?>
<svg
   xmlns:dc="http://purl.org/dc/elements/1.1/"
   xmlns:cc="http://creativecommons.org/ns#"
   xmlns:rdf="http://www.w3.org/1999/02/22-rdf-syntax-ns#"
   xmlns:svg="http://www.w3.org/2000/svg"
   xmlns="http://www.w3.org/2000/svg"
   xmlns:sodipodi="http://sodipodi.sourceforge.net/DTD/sodipodi-0.dtd"
   xmlns:inkscape="http://www.inkscape.org/namespaces/inkscape"
   width="48"
   height="48"
   viewBox="0 0 12.7 12.7"
   version="1.1"
   id="svg4"
   sodipodi:docname="menu-editor.svg"
   inkscape:version="0.92.5 (2060ec1f9f, 2020-04-08)">
  <defs
     id="defs8">
  <style
     id="current-color-scheme"
     type="text/css">
      .ColorScheme-Highlight {
        color:#5beedc;
      }
  </style>
  </defs>
  <path
     class="ColorScheme-Highlight"
     style="fill:#5beedc"
     d="M 24 0 C 10.745166 0 -4.7369516e-15 10.745166 0 24 C 0 37.254834 10.745166 48 24 48 C 37.254834 48 48 37.254834 48 24 C 48 10.745166 37.254834 -4.7369516e-15 24 0 z M 24 3 C 35.59798 3 45 12.40202 45 24 C 45 35.59798 35.59798 45 24 45 C 12.40202 45 3 35.59798 3 24 C 3 12.40202 12.40202 3 24 3 z M 11 11 C 10.446 11 10 11.446 10 12 L 10 36 C 10 36.554 10.446 37 11 37 L 29 37 C 29.554 37 30 36.554 30 36 L 30 32 L 28 32 L 28 35 L 12 35 L 12 13 L 28 13 L 28 22 L 30 20 L 30 12 C 30 11.446 29.554 11 29 11 L 11 11 z M 38 14 L 35 17 L 39 21 L 42 18 L 38 14 z M 14 16 L 14 18 L 16 18 L 16 16 L 14 16 z M 18 16 L 18 18 L 26 18 L 26 16 L 18 16 z M 34 18 L 26 26 L 30 30 L 38 22 L 34 18 z M 14 21 L 14 23 L 16 23 L 16 21 L 14 21 z M 18 21 L 18 23 L 26 23 L 26 21 L 18 21 z M 14 26 L 14 28 L 16 28 L 16 26 L 14 26 z M 18 26 L 18 28 L 23 28 L 23 26 L 18 26 z M 25 27 L 24 32 L 29 31 L 25 27 z M 14 31 L 14 33 L 16 33 L 16 31 L 14 31 z M 18 31 L 18 33 L 23 33 L 23 31 L 18 31 z "
     transform="scale(0.26458333)"
     id="path843" />
</svg>
