<?xml version="1.0" encoding="UTF-8" standalone="no"?>
<svg
   xmlns:dc="http://purl.org/dc/elements/1.1/"
   xmlns:cc="http://creativecommons.org/ns#"
   xmlns:rdf="http://www.w3.org/1999/02/22-rdf-syntax-ns#"
   xmlns:svg="http://www.w3.org/2000/svg"
   xmlns="http://www.w3.org/2000/svg"
   xmlns:sodipodi="http://sodipodi.sourceforge.net/DTD/sodipodi-0.dtd"
   xmlns:inkscape="http://www.inkscape.org/namespaces/inkscape"
   width="48"
   height="48"
   viewBox="0 0 12.7 12.7"
   version="1.1"
   id="svg4"
   sodipodi:docname="meld.svg"
   inkscape:version="0.92.5 (2060ec1f9f, 2020-04-08)">
  <defs
     id="defs8">
  <style
     id="current-color-scheme"
     type="Highlight/css">
      .ColorScheme-Highlight {
        color:#5beedc;
      }
  </style>
  </defs>
  <path
     class="ColorScheme-Highlight"
     style="fill:#5beedc"
     d="M 24 0 A 24 24 0 0 0 0 24 A 24 24 0 0 0 24 48 A 24 24 0 0 0 48 24 A 24 24 0 0 0 24 0 z M 24 3 A 21 21 0 0 1 24.900391 3.0449219 L 21.541016 4.5722656 C 15.922039 7.8475834 10.772954 14.434919 11.294922 20.580078 C 11.740687 25.828098 16.091441 31.394214 21.666016 30.78125 C 24.966914 30.418293 27.311921 27.335902 26.830078 23.771484 C 26.371107 22.237398 23.849401 22.409435 23.070312 22.769531 C 23.352463 21.694652 25.257302 20.017455 27.429688 21.03125 C 30.116337 22.58558 32.302847 28.409214 29.234375 32.269531 C 26.234914 36.043025 22.499271 37.586988 18.742188 37.642578 C 14.985104 37.698171 11.188643 36.283316 8.0097656 34.152344 C 6.5288005 33.159575 5.2771562 31.96708 4.1289062 30.710938 A 21 21 0 0 1 3 24 A 21 21 0 0 1 24 3 z M 24.910156 3.0449219 A 21 21 0 0 1 26.990234 3.2402344 A 21 21 0 0 1 39.673828 10.064453 A 21 21 0 0 1 40.988281 11.701172 A 21 21 0 0 1 42.111328 13.421875 A 21 21 0 0 0 40.988281 11.701172 A 21 21 0 0 0 39.673828 10.064453 A 21 21 0 0 0 26.990234 3.2402344 A 21 21 0 0 0 24.910156 3.0449219 z M 28.714844 9.6464844 C 32.471931 9.5908917 36.268387 11.005747 39.447266 13.136719 C 41.081099 14.231963 42.496288 15.525675 43.728516 16.933594 L 43.728516 17 L 43.775391 17 A 21 21 0 0 1 45 24 A 21 21 0 0 1 24 45 A 21 21 0 0 1 22.173828 44.908203 C 28.87689 42.697448 36.785474 34.047912 36.162109 26.708984 C 35.716347 21.460964 31.365592 15.89485 25.791016 16.507812 C 22.490119 16.870769 20.154876 19.908237 20.636719 23.472656 C 21.09569 25.00674 23.607632 24.979237 24.386719 24.619141 C 24.104569 25.694019 22.19973 27.371217 20.027344 26.357422 C 17.340687 24.803091 15.154184 18.879847 18.222656 15.019531 C 21.222117 11.246036 24.957756 9.7020744 28.714844 9.6464844 z M 42.160156 13.509766 A 21 21 0 0 1 43.078125 15.287109 A 21 21 0 0 0 42.160156 13.509766 z M 43.123047 15.384766 A 21 21 0 0 1 43.771484 16.992188 A 21 21 0 0 0 43.123047 15.384766 z M 4.1308594 30.716797 A 21 21 0 0 0 22.171875 44.908203 A 21 21 0 0 1 4.1308594 30.716797 z "
     transform="scale(0.26458333)"
     id="path817" />
</svg>
