<?xml version="1.0" encoding="UTF-8" standalone="no"?>
<svg
   xmlns:dc="http://purl.org/dc/elements/1.1/"
   xmlns:cc="http://creativecommons.org/ns#"
   xmlns:rdf="http://www.w3.org/1999/02/22-rdf-syntax-ns#"
   xmlns:svg="http://www.w3.org/2000/svg"
   xmlns="http://www.w3.org/2000/svg"
   xmlns:sodipodi="http://sodipodi.sourceforge.net/DTD/sodipodi-0.dtd"
   xmlns:inkscape="http://www.inkscape.org/namespaces/inkscape"
   width="48"
   height="48"
   viewBox="0 0 12.7 12.7"
   version="1.1"
   id="svg4"
   sodipodi:docname="org.gnome.Extensions.Devel.svg"
   inkscape:version="0.92.5 (2060ec1f9f, 2020-04-08)">
  <defs
     id="defs8">
  <style
     id="current-color-scheme"
     type="text/css">
      .ColorScheme-Highlight {
        color:#5beedc;
      }
  </style>
  </defs>
  <path
     class="ColorScheme-Highlight"
     style="fill:#5beedc"
     d="M 24 0 A 24 24 0 0 0 0 24 A 24 24 0 0 0 24 48 A 24 24 0 0 0 48 24 A 24 24 0 0 0 24 0 z M 24 3 A 21 21 0 0 1 45 24 A 21 21 0 0 1 42.226562 34.398438 L 40 32 L 34 32 L 39.597656 38.027344 A 21 21 0 0 1 36.929688 40.539062 L 29 32 L 23 32 L 33.119141 42.896484 A 21 21 0 0 1 29.404297 44.28125 L 18 32 L 12 32 L 24.068359 44.998047 A 21 21 0 0 1 24 45 A 21 21 0 0 1 18.328125 44.199219 L 7 32 L 4.6035156 32 A 21 21 0 0 1 3 24 A 21 21 0 0 1 24 3 z M 20.5 7 A 4.4999995 4.4999995 0 0 0 16 11.5 A 4.4999995 4.4999995 0 0 0 17.677734 15 L 11 15 C 9.3379981 15 8 16.338 8 18 L 8 24.673828 A 4.4999995 4.4999995 0 0 1 8.2714844 24.365234 A 4.4999995 4.4999995 0 0 1 8.6015625 24.058594 A 4.4999995 4.4999995 0 0 1 8.9589844 23.785156 A 4.4999995 4.4999995 0 0 1 9.3417969 23.550781 A 4.4999995 4.4999995 0 0 1 9.7480469 23.355469 A 4.4999995 4.4999995 0 0 1 10.169922 23.201172 A 4.4999995 4.4999995 0 0 1 10.605469 23.089844 A 4.4999995 4.4999995 0 0 1 11.050781 23.023438 A 4.4999995 4.4999995 0 0 1 11.5 23 A 4.4999995 4.4999995 0 0 1 11.818359 23.011719 A 4.4999995 4.4999995 0 0 1 12.265625 23.066406 A 4.4999995 4.4999995 0 0 1 12.703125 23.164062 A 4.4999995 4.4999995 0 0 1 13.130859 23.306641 A 4.4999995 4.4999995 0 0 1 13.541016 23.490234 A 4.4999995 4.4999995 0 0 1 13.931641 23.712891 A 4.4999995 4.4999995 0 0 1 14.296875 23.974609 A 4.4999995 4.4999995 0 0 1 14.634766 24.271484 A 4.4999995 4.4999995 0 0 1 14.941406 24.601562 A 4.4999995 4.4999995 0 0 1 15.214844 24.958984 A 4.4999995 4.4999995 0 0 1 15.449219 25.341797 A 4.4999995 4.4999995 0 0 1 15.644531 25.748047 A 4.4999995 4.4999995 0 0 1 15.798828 26.169922 A 4.4999995 4.4999995 0 0 1 15.910156 26.605469 A 4.4999995 4.4999995 0 0 1 15.976562 27.050781 A 4.4999995 4.4999995 0 0 1 16 27.5 A 4.4999995 4.4999995 0 0 1 15.988281 27.818359 A 4.4999995 4.4999995 0 0 1 15.933594 28.265625 A 4.4999995 4.4999995 0 0 1 15.835938 28.703125 A 4.4999995 4.4999995 0 0 1 15.736328 29 L 40.736328 29 A 4.4999995 4.4999995 0 0 0 41 27.5 A 4.4999995 4.4999995 0 0 0 36.5 23 A 4.4999995 4.4999995 0 0 0 33 24.677734 L 33 18 C 33 16.338 31.661998 15 30 15 L 23.326172 15 A 4.4999995 4.4999995 0 0 0 25 11.5 A 4.4999995 4.4999995 0 0 0 20.5 7 z "
     transform="scale(0.26458333)"
     id="path817" />
</svg>
