<?xml version="1.0" encoding="UTF-8" standalone="no"?>
<svg
   xmlns:dc="http://purl.org/dc/elements/1.1/"
   xmlns:cc="http://creativecommons.org/ns#"
   xmlns:rdf="http://www.w3.org/1999/02/22-rdf-syntax-ns#"
   xmlns:svg="http://www.w3.org/2000/svg"
   xmlns="http://www.w3.org/2000/svg"
   xmlns:sodipodi="http://sodipodi.sourceforge.net/DTD/sodipodi-0.dtd"
   xmlns:inkscape="http://www.inkscape.org/namespaces/inkscape"
   width="48"
   height="48"
   viewBox="0 0 12.7 12.7"
   version="1.1"
   id="svg4"
   sodipodi:docname="preferences-desktop-icons.svg"
   inkscape:version="0.92.5 (2060ec1f9f, 2020-04-08)">
  <defs
     id="defs8">
  <style
     id="current-color-scheme"
     type="text/css">
      .ColorScheme-Highlight {
        color:#5beedc;
      }
  </style>
  </defs>
  <path
     class="ColorScheme-Highlight"
     style="fill:#5beedc"
     d="M 24 0 A 24 24 0 0 0 0 24 A 24 24 0 0 0 24 48 A 24 24 0 0 0 48 24 A 24 24 0 0 0 24 0 z M 24 3 A 21 21 0 0 1 45 24 A 21 21 0 0 1 24 45 A 21 21 0 0 1 3 24 A 21 21 0 0 1 24 3 z M 24 5 A 19 19 0 0 0 19 5.6757812 L 19 16 L 29 16 L 29 5.6914062 A 19 19 0 0 0 24 5 z M 16 6.7890625 A 19 19 0 0 0 6.7910156 16 L 16 16 L 16 6.7890625 z M 32 6.7910156 L 32 16 L 41.210938 16 A 19 19 0 0 0 32 6.7910156 z M 5.6914062 19 A 19 19 0 0 0 5 24 A 19 19 0 0 0 5.6757812 29 L 16 29 L 16 19 L 5.6914062 19 z M 19 19 L 19 29 L 29 29 L 29 19 L 19 19 z M 32 19 L 32 29 L 42.308594 29 A 19 19 0 0 0 43 24 A 19 19 0 0 0 42.324219 19 L 32 19 z M 6.7890625 32 A 19 19 0 0 0 16 41.208984 L 16 32 L 6.7890625 32 z M 19 32 L 19 42.308594 A 19 19 0 0 0 24 43 A 19 19 0 0 0 29 42.324219 L 29 32 L 19 32 z M 32 32 L 32 41.210938 A 19 19 0 0 0 41.208984 32 L 32 32 z "
     transform="scale(0.26458333)"
     id="path854" />
</svg>
