<?xml version="1.0" encoding="UTF-8" standalone="no"?>
<svg
   xmlns:dc="http://purl.org/dc/elements/1.1/"
   xmlns:cc="http://creativecommons.org/ns#"
   xmlns:rdf="http://www.w3.org/1999/02/22-rdf-syntax-ns#"
   xmlns:svg="http://www.w3.org/2000/svg"
   xmlns="http://www.w3.org/2000/svg"
   xmlns:sodipodi="http://sodipodi.sourceforge.net/DTD/sodipodi-0.dtd"
   xmlns:inkscape="http://www.inkscape.org/namespaces/inkscape"
   width="48"
   height="48"
   version="1.1"
   viewBox="0 0 12.7 12.7"
   id="svg4"
   sodipodi:docname="pencil.svg"
   inkscape:version="0.92.4 (5da689c313, 2019-01-14)">
  <metadata
     id="metadata10">
    <rdf:RDF>
      <cc:Work
         rdf:about="">
        <dc:format>image/svg+xml</dc:format>
        <dc:type
           rdf:resource="http://purl.org/dc/dcmitype/StillImage" />
        <dc:title></dc:title>
      </cc:Work>
    </rdf:RDF>
  </metadata>
  <defs
     id="defs8" />
  <sodipodi:namedview
     pagecolor="#ffffff"
     bordercolor="#666666"
     borderopacity="1"
     objecttolerance="10"
     gridtolerance="10"
     guidetolerance="10"
     inkscape:pageopacity="0"
     inkscape:pageshadow="2"
     inkscape:window-width="1136"
     inkscape:window-height="480"
     id="namedview6"
     showgrid="false"
     inkscape:zoom="4.9166667"
     inkscape:cx="2.1355932"
     inkscape:cy="24"
     inkscape:window-x="0"
     inkscape:window-y="25"
     inkscape:window-maximized="0"
     inkscape:current-layer="svg4" />
  <path
     d="M 6.3396014,0.07544763 C 2.8712222,0.08119453 0.06111798,2.8913726 0.05529722,6.3597518 c -4.61e-6,3.4723479 2.81195628,6.2888022 6.28430418,6.2946232 3.4765812,0 6.2946226,-2.818042 6.2946226,-6.2946232 C 12.628466,2.8874039 9.8119493,0.07544763 6.3396014,0.07544763 Z M 6.3292661,1.0149183 c 2.9741438,0.00572 5.3855259,2.4125198 5.3969029,5.3865842 0,2.9865791 -2.4208806,5.4074865 -5.4074861,5.4074865 -2.986579,0 -5.40722147,-2.420881 -5.40722147,-5.4074865 0,-2.986579 2.43122567,-5.3865842 5.41780467,-5.3865842 z M 8.6097076,4.6023585 C 8.2027836,4.6040143 7.8438014,4.71662 7.7172793,4.8431686 L 7.5756866,4.9847613 C 7.9423681,5.7536308 9.179941,6.9743764 9.8318397,7.2409143 L 9.9734323,7.0993217 C 10.226514,6.846243 10.424224,5.6629169 9.7889512,5.0276338 9.471323,4.7100055 9.0166422,4.6006811 8.6097182,4.6023479 Z M 7.322473,5.2374563 5.1768879,7.3835441 C 5.4058793,8.0794424 6.5960421,9.3558557 7.433041,9.6396971 L 9.5791287,7.4941121 C 8.8585186,7.1430938 7.6064202,5.9161305 7.3224465,5.2374299 Z M 4.9236849,7.6362445 4.6022731,10.214338 7.1803671,9.8929267 C 6.3156403,9.6275529 5.0913757,8.3586272 4.9236849,7.6362445 Z"
     id="path2"
     inkscape:connector-curvature="0"
     style="fill:#5beedc;stroke-width:1.04387391" />
</svg>
