<?xml version="1.0" encoding="UTF-8" standalone="no"?>
<svg
   xmlns:dc="http://purl.org/dc/elements/1.1/"
   xmlns:cc="http://creativecommons.org/ns#"
   xmlns:rdf="http://www.w3.org/1999/02/22-rdf-syntax-ns#"
   xmlns:svg="http://www.w3.org/2000/svg"
   xmlns="http://www.w3.org/2000/svg"
   xmlns:sodipodi="http://sodipodi.sourceforge.net/DTD/sodipodi-0.dtd"
   xmlns:inkscape="http://www.inkscape.org/namespaces/inkscape"
   width="48"
   height="48"
   viewBox="0 0 12.7 12.7"
   version="1.1"
   id="svg4"
   sodipodi:docname="org.kde.Ikona.svg"
   inkscape:version="0.92.5 (2060ec1f9f, 2020-04-08)">
  <metadata
     id="metadata10">
    <rdf:RDF>
      <cc:Work
         rdf:about="">
        <dc:format>image/svg+xml</dc:format>
        <dc:type
           rdf:resource="http://purl.org/dc/dcmitype/StillImage" />
        <dc:title></dc:title>
      </cc:Work>
    </rdf:RDF>
  </metadata>
  <defs
     id="defs8" />
  <sodipodi:namedview
     pagecolor="#ffffff"
     bordercolor="#666666"
     borderopacity="1"
     objecttolerance="10"
     gridtolerance="10"
     guidetolerance="10"
     inkscape:pageopacity="0"
     inkscape:pageshadow="2"
     inkscape:window-width="1087"
     inkscape:window-height="480"
     id="namedview6"
     showgrid="false"
     inkscape:zoom="4.9166667"
     inkscape:cx="2.1355932"
     inkscape:cy="24"
     inkscape:window-x="0"
     inkscape:window-y="25"
     inkscape:window-maximized="0"
     inkscape:current-layer="svg4" />
  <path
     d="M 6.344,0.077 A 6.267,6.267 0 0 0 0.076,6.344 6.267,6.267 0 0 0 6.344,12.611 6.267,6.267 0 0 0 12.611,6.344 6.267,6.267 0 0 0 6.344,0.077 Z M 6.326,1.009 a 5.388,5.388 0 0 1 5.388,5.39 5.388,5.388 0 0 1 -5.388,5.387 5.388,5.388 0 0 1 -5.39,-5.388 5.388,5.388 0 0 1 5.39,-5.389 z M 3.127,3.544 A 0.766,0.766 0 0 0 2.363,4.309 v 4.054 c 0,0.568 0.488,0.765 0.746,0.79 l 0.01,10e-4 H 9.581 L 9.591,9.153 C 9.849,9.128 10.337,8.931 10.337,8.363 V 4.31 A 0.766,0.766 0 0 0 9.572,3.545 H 8.897 V 4.71 H 3.803 V 3.544 Z m 0,0.418 H 3.386 V 7.575 H 3.1 c 0,0 -0.19,-0.014 -0.318,0.094 H 2.78 V 4.31 c 0,-0.191 0.156,-0.347 0.347,-0.347 z m 6.186,0 h 0.259 c 0.192,0 0.348,0.155 0.348,0.347 v 3.36 C 9.79,7.561 9.6,7.575 9.6,7.575 H 9.314 V 3.962 Z M 6.34,5.507 A 1.365,1.365 0 0 1 7.705,6.872 1.365,1.365 0 0 1 6.34,8.237 1.365,1.365 0 0 1 4.975,6.872 1.365,1.365 0 0 1 6.34,5.507 Z m 0,0.53 A 0.836,0.836 0 0 0 5.504,6.872 0.836,0.836 0 0 0 6.34,7.708 0.836,0.836 0 0 0 7.176,6.872 0.836,0.836 0 0 0 6.34,6.036 Z"
     id="path2"
     inkscape:connector-curvature="0"
     style="fill:#5beedc" />
</svg>
