<?xml version="1.0" encoding="UTF-8" standalone="no"?>
<svg
   xmlns:dc="http://purl.org/dc/elements/1.1/"
   xmlns:cc="http://creativecommons.org/ns#"
   xmlns:rdf="http://www.w3.org/1999/02/22-rdf-syntax-ns#"
   xmlns:svg="http://www.w3.org/2000/svg"
   xmlns="http://www.w3.org/2000/svg"
   xmlns:sodipodi="http://sodipodi.sourceforge.net/DTD/sodipodi-0.dtd"
   xmlns:inkscape="http://www.inkscape.org/namespaces/inkscape"
   width="48"
   height="48"
   viewBox="0 0 12.7 12.7"
   version="1.1"
   id="svg4"
   sodipodi:docname="org.gnome.eog.Devel.svg"
   inkscape:version="0.92.5 (2060ec1f9f, 2020-04-08)">
  <defs
     id="defs8">
  <style
     id="current-color-scheme"
     type="text/css">
      .ColorScheme-Highlight {
        color:#5beedc;
      }
  </style>
  </defs>
  <path
     class="ColorScheme-Highlight"
     style="fill:#5beedc"
     d="M 24 0 A 24 24 0 0 0 0 24 A 24 24 0 0 0 24 48 A 24 24 0 0 0 48 24 A 24 24 0 0 0 24 0 z M 24 3 A 21 21 0 0 1 45 24 A 21 21 0 0 1 42.226562 34.398438 L 40 32 L 34 32 L 39.597656 38.027344 A 21 21 0 0 1 36.929688 40.539062 L 29 32 L 23 32 L 33.119141 42.896484 A 21 21 0 0 1 29.404297 44.28125 L 18 32 L 12 32 L 24.068359 44.998047 A 21 21 0 0 1 24 45 A 21 21 0 0 1 18.328125 44.199219 L 7 32 L 4.6035156 32 A 21 21 0 0 1 3 24 A 21 21 0 0 1 24 3 z M 11 10 C 10.446 10 10 10.446 10 11 L 10 29 L 12 29 L 12 12 L 36 12 L 36 29 L 38 29 L 38 11 C 38 10.446 37.554 10 37 10 L 11 10 z M 30.5 15 A 2.4999999 2.4999999 0 0 0 28 17.5 A 2.4999999 2.4999999 0 0 0 30.5 20 A 2.4999999 2.4999999 0 0 0 33 17.5 A 2.4999999 2.4999999 0 0 0 30.5 15 z M 13 20 L 13 29 L 35 29 L 35 25 L 26 25 C 25 22 24 20 20 20 L 13 20 z "
     transform="scale(0.26458333)"
     id="path817" />
</svg>
