<?xml version="1.0" encoding="UTF-8" standalone="no"?>
<svg
   xmlns:dc="http://purl.org/dc/elements/1.1/"
   xmlns:cc="http://creativecommons.org/ns#"
   xmlns:rdf="http://www.w3.org/1999/02/22-rdf-syntax-ns#"
   xmlns:svg="http://www.w3.org/2000/svg"
   xmlns="http://www.w3.org/2000/svg"
   xmlns:sodipodi="http://sodipodi.sourceforge.net/DTD/sodipodi-0.dtd"
   xmlns:inkscape="http://www.inkscape.org/namespaces/inkscape"
   width="48"
   height="48"
   viewBox="0 0 12.7 12.7"
   version="1.1"
   id="svg4"
   sodipodi:docname="org.kde.plasma.vault.svg"
   inkscape:version="0.92.5 (2060ec1f9f, 2020-04-08)">
  <defs
     id="defs8">
    <style
       id="current-color-scheme"
       type="text/css">
      .ColorScheme-Highlight {
        color:#5beedc;
      }
  </style>
  </defs>
  <path
     class="ColorScheme-Highlight"
     style="fill:#5beedc"
     d="M 24 0 A 24 24 0 0 0 0 24 A 24 24 0 0 0 24 48 A 24 24 0 0 0 48 24 A 24 24 0 0 0 24 0 z M 24 3 A 21 21 0 0 1 45 24 A 21 21 0 0 1 24 45 A 21 21 0 0 1 3 24 A 21 21 0 0 1 24 3 z M 10 12 C 8.8919997 12 8 12.892 8 14 L 8 34 C 8 35.108 8.8919997 36 10 36 L 38 36 C 39.107999 36 40 35.108 40 34 L 40 21 L 40 20 L 22 20 L 18 24 L 17 24 L 11 24 C 10.446 24 10 23.554 10 23 C 10 22.446 10.446 22 11 22 L 17 22 L 21 18 L 24 18 L 40 18 L 40 17 C 40 15.892 39.107999 15 38 15 L 22 15 L 19 12 L 10 12 z M 33 22 A 3 3 0 0 1 36 25 L 36 26 L 37 26 L 37 33 L 29 33 L 29 26 L 30 26 L 30 25 A 3 3 0 0 1 33 22 z M 33 23 A 1.9999999 1.9999999 0 0 0 31 25 L 31 26 L 35 26 L 35 25 A 1.9999999 1.9999999 0 0 0 33 23 z "
     transform="scale(0.26458333)"
     id="path839" />
</svg>
