<?xml version="1.0" encoding="UTF-8" standalone="no"?>
<svg
   xmlns:dc="http://purl.org/dc/elements/1.1/"
   xmlns:cc="http://creativecommons.org/ns#"
   xmlns:rdf="http://www.w3.org/1999/02/22-rdf-syntax-ns#"
   xmlns:svg="http://www.w3.org/2000/svg"
   xmlns="http://www.w3.org/2000/svg"
   xmlns:sodipodi="http://sodipodi.sourceforge.net/DTD/sodipodi-0.dtd"
   xmlns:inkscape="http://www.inkscape.org/namespaces/inkscape"
   width="48"
   height="48"
   viewBox="0 0 12.7 12.7"
   version="1.1"
   id="svg4"
   sodipodi:docname="org.gnome.Calendar.Devel.svg"
   inkscape:version="0.92.5 (2060ec1f9f, 2020-04-08)">
  <metadata
     id="metadata10">
    <rdf:RDF>
      <cc:Work
         rdf:about="">
        <dc:format>image/svg+xml</dc:format>
        <dc:type
           rdf:resource="http://purl.org/dc/dcmitype/StillImage" />
        <dc:title></dc:title>
      </cc:Work>
    </rdf:RDF>
  </metadata>
  <defs
     id="defs8" />
  <sodipodi:namedview
     pagecolor="#ffffff"
     bordercolor="#666666"
     borderopacity="1"
     objecttolerance="10"
     gridtolerance="10"
     guidetolerance="10"
     inkscape:pageopacity="0"
     inkscape:pageshadow="2"
     inkscape:window-width="1087"
     inkscape:window-height="480"
     id="namedview6"
     showgrid="false"
     inkscape:zoom="4.9166667"
     inkscape:cx="2.1355932"
     inkscape:cy="24"
     inkscape:window-x="0"
     inkscape:window-y="25"
     inkscape:window-maximized="0"
     inkscape:current-layer="svg4" />
  <path
     d="M 6.35,0.083 A 6.267,6.267 0 0 0 0.083,6.349 6.267,6.267 0 0 0 6.35,12.617 6.267,6.267 0 0 0 12.617,6.349 6.267,6.267 0 0 0 6.35,0.083 Z M 6.332,1.015 h 0.001 a 5.388,5.388 0 0 1 5.388,5.39 5.388,5.388 0 0 1 -0.4,2.024 L 10.396,8.43 11.02,9.054 a 5.388,5.388 0 0 1 -0.77,1.04 L 8.588,8.43 h -1.81 l 2.491,2.49 A 5.388,5.388 0 0 1 8.046,11.506 L 4.969,8.429 h -1.81 l 3.357,3.356 A 5.388,5.388 0 0 1 6.332,11.792 5.388,5.388 0 0 1 4.32,11.398 L 1.351,8.429 H 1.343 a 5.388,5.388 0 0 1 -0.4,-2.025 5.388,5.388 0 0 1 5.39,-5.39 z M 4.214,1.878 A 0.504,0.504 0 0 0 3.709,2.384 v 0.807 h 1.01 V 2.384 A 0.504,0.504 0 0 0 4.214,1.878 Z m 4.267,0 A 0.504,0.504 0 0 0 7.976,2.384 v 0.807 h 1.01 V 2.384 A 0.504,0.504 0 0 0 8.481,1.878 Z m -6.16,1.54 v 1.38 h 0.01 v 2.893 h 0.73 V 4.799 H 9.647 V 7.69 h 0.731 V 4.219 h -0.005 v -0.8 H 2.321 Z M 5.117,5.536 A 1.55,1.55 0 0 0 4.762,5.582 C 4.632,5.612 4.492,5.657 4.344,5.717 V 6.093 C 4.491,6.011 4.628,5.949 4.757,5.909 4.887,5.869 5.01,5.849 5.126,5.849 a 0.57,0.57 0 0 1 0.398,0.137 0.456,0.456 0 0 1 0.154,0.357 c 0,0.089 -0.023,0.18 -0.071,0.273 A 1.75,1.75 0 0 1 5.359,6.953 C 5.296,7.023 5.143,7.183 4.9,7.428 L 4.642,7.691 H 5.085 C 5.215,7.559 5.375,7.396 5.464,7.303 5.628,7.133 5.726,7.03 5.756,6.994 A 1.51,1.51 0 0 0 5.986,6.638 0.817,0.817 0 0 0 6.05,6.318 0.705,0.705 0 0 0 5.797,5.748 C 5.627,5.607 5.402,5.536 5.119,5.536 Z M 7.512,5.586 6.857,5.717 V 6.054 L 7.516,5.924 V 7.69 H 7.883 V 5.586 h -0.37 z"
     id="path2"
     inkscape:connector-curvature="0"
     style="fill:#5beedc" />
</svg>
