<?xml version="1.0" encoding="UTF-8" standalone="no"?>
<svg
   xmlns:dc="http://purl.org/dc/elements/1.1/"
   xmlns:cc="http://creativecommons.org/ns#"
   xmlns:rdf="http://www.w3.org/1999/02/22-rdf-syntax-ns#"
   xmlns:svg="http://www.w3.org/2000/svg"
   xmlns="http://www.w3.org/2000/svg"
   xmlns:sodipodi="http://sodipodi.sourceforge.net/DTD/sodipodi-0.dtd"
   xmlns:inkscape="http://www.inkscape.org/namespaces/inkscape"
   width="48"
   height="48"
   viewBox="0 0 12.7 12.7"
   version="1.1"
   id="svg6"
   sodipodi:docname="builder.svg"
   inkscape:version="0.92.4 (5da689c313, 2019-01-14)">
  <defs
     id="defs10" />
  <sodipodi:namedview
     pagecolor="#ffffff"
     bordercolor="#666666"
     borderopacity="1"
     objecttolerance="10"
     gridtolerance="10"
     guidetolerance="10"
     inkscape:pageopacity="0"
     inkscape:pageshadow="2"
     inkscape:window-width="1087"
     inkscape:window-height="480"
     id="namedview8"
     showgrid="false"
     inkscape:zoom="4.9166667"
     inkscape:cx="2.1355932"
     inkscape:cy="24"
     inkscape:window-x="0"
     inkscape:window-y="25"
     inkscape:window-maximized="0"
     inkscape:current-layer="svg6" />
  <metadata
     id="metadata2">
    <rdf:RDF>
      <cc:Work>
        <dc:format>image/svg+xml</dc:format>
        <dc:type
           rdf:resource="http://purl.org/dc/dcmitype/StillImage" />
        <dc:title></dc:title>
      </cc:Work>
    </rdf:RDF>
  </metadata>
  <path
     d="M 6.34,0.07 A 6.29,6.29 0 0 0 0.05,6.37 6.29,6.29 0 0 0 6.35,12.65 6.29,6.29 0 0 0 12.63,6.36 6.29,6.29 0 0 0 6.34,0.07 Z M 6.33,1.01 a 5.4,5.4 0 0 1 5.4,5.4 5.4,5.4 0 0 1 -5.4,5.41 5.4,5.4 0 0 1 -0.7,-0.05 L 5.51,7.04 A 1.66,1.66 0 0 0 6,5.36 L 7.27,4.1 7.48,4.06 8,4.58 7.84,4.74 a 0.29,0.29 0 0 0 -0.08,0.2 v 1.13 c 0,0.15 0.12,0.28 0.28,0.28 h 1.12 c 0.3800003,0 0.3800003,-0.56 0,-0.56 H 8.32 V 5.06 L 9.28,4.1 H 10 v 0.84 c 0,0.38 0.57,0.38 0.57,0 V 3.82 A 0.28,0.28 0 0 0 10.29,3.54 H 9.16 A 0.29,0.29 0 0 0 8.96,3.62 L 8.8,3.79 8.28,3.26 C 8.3,3.17 8.32,3.08 8.32,2.98 A 1.1207141,1.1207141 0 0 0 6.08,2.9 L 4.8,4.16 A 1.68,1.68 0 0 0 3.24,7.03 l -0.9,3.05 A 5.4,5.4 0 0 1 0.93000003,6.42 5.4,5.4 0 0 1 6.32,1 Z m 0.86,1.4 a 0.565,0.565 0 1 1 0,1.13 0.565,0.565 0 0 1 0,-1.13 z m 0,0.26 a 0.3,0.3 0 0 0 -0.3,0.3 c 0,0.17 0.13,0.31 0.3,0.31 a 0.3,0.3 0 0 0 0.3,-0.3 0.3,0.3 0 0 0 -0.3,-0.31 z m -2.8,2 a 1.12,1.12 0 1 1 0,2.24 1.125,1.125 0 0 1 0,-2.25 z m 0,0.56 a 0.56,0.56 0 1 0 0,1.12 0.56,0.56 0 0 0 0,-1.12 z"
     id="path4"
     inkscape:connector-curvature="0"
     style="fill:#5beedc" />
</svg>
