<?xml version="1.0" encoding="UTF-8" standalone="no"?>
<svg
   xmlns:dc="http://purl.org/dc/elements/1.1/"
   xmlns:cc="http://creativecommons.org/ns#"
   xmlns:rdf="http://www.w3.org/1999/02/22-rdf-syntax-ns#"
   xmlns:svg="http://www.w3.org/2000/svg"
   xmlns="http://www.w3.org/2000/svg"
   xmlns:sodipodi="http://sodipodi.sourceforge.net/DTD/sodipodi-0.dtd"
   xmlns:inkscape="http://www.inkscape.org/namespaces/inkscape"
   width="48"
   height="48"
   viewBox="0 0 12.7 12.7"
   version="1.1"
   id="svg4"
   sodipodi:docname="parley.svg"
   inkscape:version="0.92.4 (5da689c313, 2019-01-14)">
  <metadata
     id="metadata10">
    <rdf:RDF>
      <cc:Work
         rdf:about="">
        <dc:format>image/svg+xml</dc:format>
        <dc:type
           rdf:resource="http://purl.org/dc/dcmitype/StillImage" />
        <dc:title></dc:title>
      </cc:Work>
    </rdf:RDF>
  </metadata>
  <defs
     id="defs8" />
  <sodipodi:namedview
     pagecolor="#ffffff"
     bordercolor="#666666"
     borderopacity="1"
     objecttolerance="10"
     gridtolerance="10"
     guidetolerance="10"
     inkscape:pageopacity="0"
     inkscape:pageshadow="2"
     inkscape:window-width="1138"
     inkscape:window-height="480"
     id="namedview6"
     showgrid="false"
     inkscape:zoom="4.9166667"
     inkscape:cx="2.1355932"
     inkscape:cy="24"
     inkscape:window-x="0"
     inkscape:window-y="25"
     inkscape:window-maximized="0"
     inkscape:current-layer="svg4" />
  <path
     d="m 6.344,0.072 a 6.29,6.29 0 0 0 -6.29,6.29 6.29,6.29 0 0 0 6.29,6.289 6.29,6.29 0 0 0 6.29,-6.29 6.29,6.29 0 0 0 -6.29,-6.29 z M 6.326,1.009 A 5.407,5.407 0 0 1 11.733,6.416 5.407,5.407 0 0 1 6.326,11.823 5.407,5.407 0 0 1 0.92,6.416 5.407,5.407 0 0 1 6.326,1.01 Z M 4.65,3.003 C 4.137,2.974 3.689,3.064 3.306,3.273 2.971,3.458 2.783,3.684 2.739,3.952 a 1.113,1.113 0 0 0 -0.024,0.24 c 0,0.253 0.04,0.5 0.122,0.738 0.097,0.282 0.223,0.486 0.38,0.613 0.027,0.039 0.054,0.058 0.081,0.058 L 3.314,5.586 C 3.314,5.566 3.301,5.538 3.274,5.499 3.031,5.173 2.909,4.752 2.909,4.236 2.909,4.144 2.917,4.049 2.934,3.952 3.042,3.397 3.519,3.12 4.367,3.12 c 0.388,0 0.777,0.042 1.165,0.124 0.394,0.083 0.8,0.21 1.215,0.38 0.378,0.155 0.736,0.34 1.076,0.554 0.34,0.21 0.664,0.443 0.972,0.7 0.567,0.492 0.85,1.01 0.85,1.555 0,0.443 -0.213,0.761 -0.64,0.956 A 2.742,2.742 0 0 1 8.375,7.593 3.8,3.8 0 0 1 7.597,7.666 C 7.289,7.666 7.049,7.627 6.877,7.549 6.784,7.525 6.727,7.484 6.707,7.425 6.593,7.479 6.536,7.525 6.536,7.564 c 0,0.03 0.027,0.056 0.081,0.08 0.054,0.025 0.124,0.047 0.21,0.066 a 4.16,4.16 0 0 0 0.656,0.051 c 0.605,0 1.123,-0.08 1.555,-0.24 C 9.669,7.297 9.985,6.917 9.985,6.382 9.985,5.789 9.64,5.222 8.949,4.682 A 6.507,6.507 0 0 0 8.131,4.105 8.22,8.22 0 0 0 7.216,3.624 7.76,7.76 0 0 0 5.937,3.194 6.36,6.36 0 0 0 4.65,3.004 Z m 2.817,1.825 c 0.006,0 -0.002,0.01 -0.024,0.029 C 7.157,5.63 6.679,6.54 6.01,7.587 5.276,8.734 4.72,9.371 4.342,9.497 4.234,9.522 4.137,9.537 4.051,9.542 A 0.463,0.463 0 0 1 3.832,9.52 0.923,0.923 0 0 1 3.46,9.279 C 3.411,9.235 3.376,9.213 3.354,9.213 c -0.027,0 -0.04,0.015 -0.04,0.044 0,0.029 0.016,0.066 0.049,0.11 a 0.929,0.929 0 0 0 0.38,0.299 0.74,0.74 0 0 0 0.243,0.036 c 0.102,0 0.2,-0.01 0.291,-0.03 A 0.949,0.949 0 0 0 4.544,9.578 C 5.138,9.291 5.77,8.556 6.439,7.374 A 16.94,16.94 0 0 0 7.499,5.149 C 7.516,5.114 7.519,5.051 7.508,4.959 7.497,4.871 7.483,4.828 7.468,4.828 Z"
     id="path2"
     inkscape:connector-curvature="0"
     style="fill:#5beedc" />
</svg>
