<?xml version="1.0" encoding="UTF-8" standalone="no"?>
<svg
   xmlns:dc="http://purl.org/dc/elements/1.1/"
   xmlns:cc="http://creativecommons.org/ns#"
   xmlns:rdf="http://www.w3.org/1999/02/22-rdf-syntax-ns#"
   xmlns:svg="http://www.w3.org/2000/svg"
   xmlns="http://www.w3.org/2000/svg"
   xmlns:sodipodi="http://sodipodi.sourceforge.net/DTD/sodipodi-0.dtd"
   xmlns:inkscape="http://www.inkscape.org/namespaces/inkscape"
   width="48"
   height="48"
   viewBox="0 0 12.7 12.7"
   version="1.1"
   id="svg4"
   sodipodi:docname="paros.svg"
   inkscape:version="0.92.5 (2060ec1f9f, 2020-04-08)">
  <metadata
     id="metadata10">
    <rdf:RDF>
      <cc:Work
         rdf:about="">
        <dc:format>image/svg+xml</dc:format>
        <dc:type
           rdf:resource="http://purl.org/dc/dcmitype/StillImage" />
        <dc:title></dc:title>
      </cc:Work>
    </rdf:RDF>
  </metadata>
  <defs
     id="defs8" />
  <sodipodi:namedview
     pagecolor="#ffffff"
     bordercolor="#666666"
     borderopacity="1"
     objecttolerance="10"
     gridtolerance="10"
     guidetolerance="10"
     inkscape:pageopacity="0"
     inkscape:pageshadow="2"
     inkscape:window-width="1085"
     inkscape:window-height="480"
     id="namedview6"
     showgrid="false"
     inkscape:zoom="4.9166667"
     inkscape:cx="2.1355932"
     inkscape:cy="24"
     inkscape:window-x="0"
     inkscape:window-y="25"
     inkscape:window-maximized="0"
     inkscape:current-layer="svg4" />
  <path
     d="M 6.34,0.075 A 6.295,6.295 0 0 0 0.055,6.36 6.295,6.295 0 0 0 6.34,12.655 6.295,6.295 0 0 0 12.634,6.36 6.295,6.295 0 0 0 6.34,0.075 Z m -0.011,0.94 a 5.408,5.408 0 0 1 5.397,5.387 5.407,5.407 0 0 1 -10.814,0 c 0,-2.987 2.43,-5.387 5.417,-5.387 z M 4.253,2.529 C 3.88,2.709 3.523,3.02 3.364,3.352 3.269,3.556 3.269,3.594 3.269,6.29 v 2.73 c 0.175,0.392 0.54,0.858 0.911,0.982 0.4,0.124 0.364,0.27 0.364,-1.493 V 6.944 L 6.011,6.93 C 7.431,6.917 7.484,6.913 7.701,6.814 8.093,6.634 8.373,6.301 8.503,5.864 L 8.485,3.48 C 8.255,2.948 8.012,2.776 7.566,2.529 Z M 7.276,3.715 V 5.64 H 4.544 C 4.544,5.2 4.515,4.478 4.61,4.212 4.704,3.946 5.061,3.79 5.159,3.762 5.256,3.736 7.276,3.715 7.276,3.715 Z M 6.29,7.798 A 0.91,0.91 0 0 0 6.196,7.804 C 5.404,7.898 4.94,8.534 5.146,9.242 5.341,9.909 6.191,10.245 6.908,9.935 7.014,9.89 7.16,9.81 7.233,9.758 7.38,9.653 7.375,9.626 7.145,9.362 L 7.014,9.212 6.887,9.302 C 6.685,9.445 6.411,9.502 6.199,9.445 A 0.54,0.54 0 0 1 6.235,8.389 c 0.388,-0.073 0.66,0.096 1.234,0.77 0.604,0.709 0.898,0.88 1.511,0.885 C 9.706,10.05 10.245,9.489 10.174,8.801 10.144,8.517 10.065,8.35 9.869,8.158 9.611,7.906 9.361,7.814 8.932,7.813 8.592,7.813 8.523,7.828 8.284,7.953 7.91,8.148 7.896,8.186 8.106,8.427 l 0.175,0.2 0.166,-0.109 C 8.892,8.224 9.453,8.412 9.5,8.872 9.538,9.248 9.215,9.533 8.823,9.471 8.536,9.425 8.298,9.255 7.957,8.853 7.577,8.405 7.207,8.049 7.027,7.958 A 1.8,1.8 0 0 0 6.29,7.798 Z"
     id="path2"
     inkscape:connector-curvature="0"
     style="fill:#5beedc" />
</svg>
