<?xml version="1.0" encoding="UTF-8" standalone="no"?>
<svg
   xmlns:dc="http://purl.org/dc/elements/1.1/"
   xmlns:cc="http://creativecommons.org/ns#"
   xmlns:rdf="http://www.w3.org/1999/02/22-rdf-syntax-ns#"
   xmlns:svg="http://www.w3.org/2000/svg"
   xmlns="http://www.w3.org/2000/svg"
   xmlns:sodipodi="http://sodipodi.sourceforge.net/DTD/sodipodi-0.dtd"
   xmlns:inkscape="http://www.inkscape.org/namespaces/inkscape"
   width="48"
   height="48"
   viewBox="0 0 12.7 12.7"
   version="1.1"
   id="svg4"
   sodipodi:docname="system-file-manager.svg"
   inkscape:version="0.92.5 (2060ec1f9f, 2020-04-08)">
  <defs
     id="defs8">
  <style
     id="current-color-scheme"
     type="text/css">
      .ColorScheme-Highlight {
        color:#5beedc;
      }
  </style>
  </defs>
  <path
     class="ColorScheme-Highlight"
     style="fill:#5beedc"
     d="M 24 0 A 24 24 0 0 0 0 24 A 24 24 0 0 0 24 48 A 24 24 0 0 0 48 24 A 24 24 0 0 0 24 0 z M 24 3 A 21 21 0 0 1 45 24 A 21 21 0 0 1 24 45 A 21 21 0 0 1 3 24 A 21 21 0 0 1 24 3 z M 15 10 C 14.446 10 14 10.446 14 11 L 14 12 L 33 12 L 33 11 C 33 10.446 32.554 10 32 10 L 15 10 z M 13 13 C 12.446 13 12 13.446 12 14 L 12 16 L 35 16 L 35 14 C 35 13.446 34.554 13 34 13 L 13 13 z M 11 17 C 10.446 17 10 17.446 10 18 L 10 36 C 10 36.554 10.446 37 11 37 L 37 37 C 37.554 37 38 36.554 38 36 L 38 18 C 38 17.446 37.554 17 37 17 L 11 17 z M 18 22 L 30 22 L 30 25 L 18 25 L 18 22 z "
     transform="scale(0.26458333)"
     id="path817" />
</svg>
