<?xml version="1.0" encoding="UTF-8" standalone="no"?>
<svg
   xmlns:dc="http://purl.org/dc/elements/1.1/"
   xmlns:cc="http://creativecommons.org/ns#"
   xmlns:rdf="http://www.w3.org/1999/02/22-rdf-syntax-ns#"
   xmlns:svg="http://www.w3.org/2000/svg"
   xmlns="http://www.w3.org/2000/svg"
   xmlns:sodipodi="http://sodipodi.sourceforge.net/DTD/sodipodi-0.dtd"
   xmlns:inkscape="http://www.inkscape.org/namespaces/inkscape"
   width="48"
   height="48"
   viewBox="0 0 12.7 12.7"
   version="1.1"
   id="svg6"
   sodipodi:docname="phishing-frenzy.svg"
   inkscape:version="0.92.5 (2060ec1f9f, 2020-04-08)">
  <metadata
     id="metadata12">
    <rdf:RDF>
      <cc:Work
         rdf:about="">
        <dc:format>image/svg+xml</dc:format>
        <dc:type
           rdf:resource="http://purl.org/dc/dcmitype/StillImage" />
        <dc:title></dc:title>
      </cc:Work>
    </rdf:RDF>
  </metadata>
  <defs
     id="defs10" />
  <sodipodi:namedview
     pagecolor="#ffffff"
     bordercolor="#666666"
     borderopacity="1"
     objecttolerance="10"
     gridtolerance="10"
     guidetolerance="10"
     inkscape:pageopacity="0"
     inkscape:pageshadow="2"
     inkscape:window-width="1085"
     inkscape:window-height="480"
     id="namedview8"
     showgrid="false"
     inkscape:zoom="4.9166667"
     inkscape:cx="2.1355932"
     inkscape:cy="24"
     inkscape:window-x="0"
     inkscape:window-y="25"
     inkscape:window-maximized="0"
     inkscape:current-layer="svg6" />
  <path
     d="M 6.34,0.075 A 6.295,6.295 0 0 0 3.606,0.713 c 0.02,0.037 0.054,0.064 0.07,0.103 0.063,0.148 0.098,0.311 0.098,0.482 0,0.151 -0.037,0.292 -0.086,0.426 a 5.39,5.39 0 0 1 2.64,-0.71 H 6.33 a 5.408,5.408 0 0 1 5.396,5.388 5.407,5.407 0 0 1 -10.814,0 5.31,5.31 0 0 1 1.003,-3.106 V 2.348 C 1.827,2.296 1.735,2.25 1.663,2.178 A 6.295,6.295 0 0 0 0.055,6.36 6.295,6.295 0 0 0 6.34,12.655 6.295,6.295 0 0 0 12.634,6.36 6.295,6.295 0 0 0 6.34,0.075 Z M 2.57,0.449 A 0.85,0.85 0 0 0 2.368,2.123 v 3.385 c 0,0.885 0.648,1.59 1.487,1.753 C 3.877,7.128 3.933,7.008 3.972,6.881 3.298,6.773 2.772,6.213 2.772,5.508 V 2.123 A 0.85,0.85 0 0 0 2.568,0.449 Z m 0,0.403 a 0.44650028,0.44650028 0 1 1 -10e-4,0.893 0.4465,0.4465 0 0 1 0,-0.893 z M 5.826,4.66 A 0.202,0.202 0 0 0 5.664,4.719 L 5.092,5.291 5.017,5.366 V 5.368 A 0.201,0.201 0 0 0 5.302,5.651 L 5.605,5.347 v 0.162 c 0,0.036 -0.018,0.066 -0.02,0.101 A 1.39,1.39 0 0 1 4.499,6.863 2.732,2.732 0 0 0 4.366,7.293 C 5.282,7.199 6.008,6.449 6.008,5.509 V 4.86 C 6.008,4.845 5.988,4.84 5.985,4.826 5.971,4.763 5.945,4.699 5.884,4.674 A 0.2,0.2 0 0 0 5.826,4.659 Z"
     id="path2"
     inkscape:connector-curvature="0"
     style="fill:#5beedc" />
  <path
     d="M 6.957,4.627 C 6.84,4.627 6.722,4.634 6.602,4.647 6.384,4.672 6.188,4.758 5.985,4.826 5.988,4.84 6.008,4.845 6.008,4.86 V 5.35 A 2.617,2.617 0 0 1 7.043,5.157 C 8.486,5.2 9.611,6.43 9.611,7.873 V 8.067 A 0.53,0.53 0 0 1 9.029,8.593 0.545,0.545 0 0 1 8.552,8.043 V 6.876 A 0.132,0.132 0 0 0 8.42,6.744 H 8.156 a 0.131,0.131 0 0 0 -0.12,0.077 1.451,1.451 0 0 0 -1.071,-0.474 1.456,1.456 0 0 0 0,2.91 C 7.47,9.257 7.916,8.998 8.177,8.606 8.374,8.934 8.739,9.15 9.154,9.122 9.716,9.085 10.14,8.592 10.14,8.029 V 7.802 A 3.178,3.178 0 0 0 6.957,4.627 Z M 5.092,5.29 C 4.56,5.688 4.172,6.234 3.972,6.881 3.932,7.008 3.876,7.128 3.854,7.261 3.847,7.301 3.824,7.333 3.818,7.373 a 3.179,3.179 0 0 0 3.393,3.595 c 0.738,-0.056 1.428,-0.386 1.97,-0.89 L 9.227,10.035 A 0.132,0.132 0 0 0 9.233,9.847 L 9.053,9.654 A 0.132,0.132 0 0 0 8.866,9.647 L 8.769,9.737 A 2.645,2.645 0 0 1 4.327,8.011 C 4.277,7.447 4.397,7.121 4.499,6.862 4.705,6.326 5.106,5.912 5.585,5.608 5.588,5.573 5.605,5.543 5.605,5.508 V 5.346 L 5.302,5.65 A 0.202,0.202 0 0 1 5.017,5.365 Z m 1.873,1.586 a 0.927,0.927 0 0 1 0,1.852 0.927,0.927 0 0 1 0,-1.852 z"
     id="path4"
     inkscape:connector-curvature="0"
     style="opacity:0.8;fill:#ff0000" />
</svg>
