<?xml version="1.0" encoding="UTF-8" standalone="no"?>
<svg
   xmlns:dc="http://purl.org/dc/elements/1.1/"
   xmlns:cc="http://creativecommons.org/ns#"
   xmlns:rdf="http://www.w3.org/1999/02/22-rdf-syntax-ns#"
   xmlns:svg="http://www.w3.org/2000/svg"
   xmlns="http://www.w3.org/2000/svg"
   xmlns:sodipodi="http://sodipodi.sourceforge.net/DTD/sodipodi-0.dtd"
   xmlns:inkscape="http://www.inkscape.org/namespaces/inkscape"
   width="48"
   height="48"
   viewBox="0 0 12.7 12.7"
   version="1.1"
   id="svg4"
   sodipodi:docname="phpstorm.svg"
   inkscape:version="0.92.5 (2060ec1f9f, 2020-04-08)">
  <defs
     id="defs8">
  <style
     id="current-color-scheme"
     type="text/css">
      .ColorScheme-Highlight {
        color:#5beedc;
      }
  </style>
  </defs>
  <path
     class="ColorScheme-Highlight"
     style="fill:#5beedc"
     d="M 24 0 A 24 24 0 0 0 0 24 A 24 24 0 0 0 24 48 A 24 24 0 0 0 48 24 A 24 24 0 0 0 24 0 z M 24 3 A 21 21 0 0 1 45 24 A 21 21 0 0 1 24 45 A 21 21 0 0 1 3 24 A 21 21 0 0 1 24 3 z M 24 7 A 17.000006 17.000006 0 0 0 7 24 A 17.000006 17.000006 0 0 0 24 41 A 17.000006 17.000006 0 0 0 41 24 A 17.000006 17.000006 0 0 0 24 7 z M 28.773438 18.748047 C 30.138435 18.748047 31.170187 19.131438 31.867188 19.898438 C 32.405186 20.490435 32.675781 21.180797 32.675781 21.966797 L 30.669922 21.966797 C 30.622922 21.570797 30.506312 21.265686 30.320312 21.054688 C 29.986315 20.667688 29.420094 20.474609 28.621094 20.474609 C 28.147094 20.474609 27.758172 20.559566 27.451172 20.726562 C 27.070172 20.939562 26.880859 21.254875 26.880859 21.671875 C 26.880859 22.015876 27.001186 22.274219 27.242188 22.449219 C 27.382187 22.551221 27.614453 22.640844 27.939453 22.714844 L 30.376953 23.3125 C 31.203953 23.5165 31.812172 23.780469 32.201172 24.105469 C 32.730172 24.541469 32.996094 25.172047 32.996094 25.998047 C 32.996094 27.009047 32.661185 27.792609 31.992188 28.349609 C 31.259187 28.961609 30.279686 29.267578 29.054688 29.267578 C 27.429688 29.267578 26.257968 28.867359 25.542969 28.068359 C 25.031967 27.499361 24.775391 26.786875 24.775391 25.921875 L 26.783203 25.921875 C 26.783203 26.330875 26.902532 26.669453 27.144531 26.939453 C 27.506531 27.338453 28.092391 27.537109 28.900391 27.537109 C 29.495391 27.537109 29.967315 27.454112 30.320312 27.287109 C 30.766313 27.073109 30.990234 26.726141 30.990234 26.244141 C 30.990234 25.883143 30.823283 25.608828 30.488281 25.423828 C 30.265282 25.303829 29.828734 25.164812 29.177734 25.007812 L 28.105469 24.755859 C 27.037469 24.50586 26.308969 24.246515 25.917969 23.978516 C 25.258969 23.524516 24.929687 22.805266 24.929688 21.822266 C 24.929688 21.052265 25.161952 20.403 25.626953 19.875 C 26.285953 19.124 27.333437 18.748047 28.773438 18.748047 z M 16 19.011719 L 20.568359 19.011719 C 21.535359 19.011719 22.295656 19.295233 22.847656 19.865234 C 23.400656 20.434234 23.675781 21.216031 23.675781 22.207031 C 23.675781 22.912031 23.481796 23.556625 23.091797 24.140625 C 22.533797 24.974625 21.665328 25.392578 20.486328 25.392578 L 18.089844 25.392578 L 18.089844 29 L 16 29 L 16 19.011719 z M 18.089844 20.738281 L 18.089844 23.664062 L 20.027344 23.664062 C 20.696344 23.664062 21.151578 23.461684 21.392578 23.054688 C 21.522579 22.832689 21.587891 22.518328 21.587891 22.111328 C 21.587891 21.621328 21.441295 21.271594 21.154297 21.058594 C 20.866297 20.845595 20.397047 20.738281 19.748047 20.738281 L 18.089844 20.738281 z M 17 32 L 31 32 L 31 34 L 17 34 L 17 32 z "
     transform="scale(0.26458333)"
     id="path843" />
</svg>
