<?xml version="1.0" encoding="UTF-8" standalone="no"?>
<svg
   xmlns:dc="http://purl.org/dc/elements/1.1/"
   xmlns:cc="http://creativecommons.org/ns#"
   xmlns:rdf="http://www.w3.org/1999/02/22-rdf-syntax-ns#"
   xmlns:svg="http://www.w3.org/2000/svg"
   xmlns="http://www.w3.org/2000/svg"
   xmlns:sodipodi="http://sodipodi.sourceforge.net/DTD/sodipodi-0.dtd"
   xmlns:inkscape="http://www.inkscape.org/namespaces/inkscape"
   width="48"
   height="48"
   viewBox="0 0 12.7 12.7"
   version="1.1"
   id="svg4"
   sodipodi:docname="plasma.svg"
   inkscape:version="0.92.5 (2060ec1f9f, 2020-04-08)">
  <defs
     id="defs8">
  <style
     id="current-color-scheme"
     type="text/css">
      .ColorScheme-Highlight {
        color:#5beedc;
      }
  </style>
  </defs>
  <path
     class="ColorScheme-Highlight"
     style="fill:#5beedc"
     d="M 24 0 A 24 24 0 0 0 0 24 A 24 24 0 0 0 24 48 A 24 24 0 0 0 48 24 A 24 24 0 0 0 24 0 z M 24 3 A 21 21 0 0 1 45 24 A 21 21 0 0 1 24 45 A 21 21 0 0 1 3 24 A 21 21 0 0 1 24 3 z M 17.5 12 A 1.5 1.5 0 0 0 16 13.5 A 1.5 1.5 0 0 0 17.5 15 A 1.5 1.5 0 0 0 19 13.5 A 1.5 1.5 0 0 0 17.5 12 z M 28 12 L 25 15 L 30 20 L 25 25 L 28 28 L 36 20 L 28 12 z M 14.5 21 A 2.5 2.5 0 0 0 12 23.5 A 2.5 2.5 0 0 0 14.5 26 A 2.5 2.5 0 0 0 17 23.5 A 2.5 2.5 0 0 0 14.5 21 z M 21 30 A 3 3 0 0 0 18 33 A 3 3 0 0 0 21 36 A 3 3 0 0 0 24 33 A 3 3 0 0 0 21 30 z "
     transform="scale(0.26458333)"
     id="path817" />
</svg>
