<?xml version="1.0" encoding="UTF-8" standalone="no"?>
<svg
   xmlns:dc="http://purl.org/dc/elements/1.1/"
   xmlns:cc="http://creativecommons.org/ns#"
   xmlns:rdf="http://www.w3.org/1999/02/22-rdf-syntax-ns#"
   xmlns:svg="http://www.w3.org/2000/svg"
   xmlns="http://www.w3.org/2000/svg"
   xmlns:sodipodi="http://sodipodi.sourceforge.net/DTD/sodipodi-0.dtd"
   xmlns:inkscape="http://www.inkscape.org/namespaces/inkscape"
   width="48"
   height="48"
   viewBox="0 0 12.7 12.7"
   version="1.1"
   id="svg4"
   sodipodi:docname="preferences-system-search.svg"
   inkscape:version="0.92.5 (2060ec1f9f, 2020-04-08)">
  <defs
     id="defs8">
  <style
     id="current-color-scheme"
     type="text/css">
      .ColorScheme-Highlight {
        color:#5beedc;
      }
  </style>
  </defs>
  <path
     class="ColorScheme-Highlight"
     style="fill:#5beedc"
     d="M 24 0 A 24 24 0 0 0 0 24 A 24 24 0 0 0 24 48 A 24 24 0 0 0 48 24 A 24 24 0 0 0 24 0 z M 24 3 A 21 21 0 0 1 45 24 A 21 21 0 0 1 24 45 A 21 21 0 0 1 3 24 A 21 21 0 0 1 24 3 z M 19.597656 9.7578125 A 11 11 0 0 0 11.978516 12.978516 A 11 11 0 0 0 11.978516 28.535156 A 11 11 0 0 0 25.988281 29.816406 L 27.535156 31.363281 L 33.193359 37.021484 C 33.976834 37.804959 35.23801 37.804959 36.021484 37.021484 C 36.804959 36.23801 36.804959 34.976834 36.021484 34.193359 L 29.65625 27.828125 L 28.814453 26.986328 A 11 11 0 0 0 27.535156 12.978516 A 11 11 0 0 0 19.597656 9.7578125 z M 19.888672 11.757812 A 8.9999992 8.9999992 0 0 1 26.121094 14.392578 A 8.9999992 8.9999992 0 0 1 26.121094 27.121094 A 8.9999992 8.9999992 0 0 1 13.392578 27.121094 A 8.9999992 8.9999992 0 0 1 13.392578 14.392578 A 8.9999992 8.9999992 0 0 1 19.888672 11.757812 z "
     transform="scale(0.26458333)"
     id="path831" />
</svg>
