<?xml version="1.0" encoding="UTF-8" standalone="no"?>
<svg
   xmlns:dc="http://purl.org/dc/elements/1.1/"
   xmlns:cc="http://creativecommons.org/ns#"
   xmlns:rdf="http://www.w3.org/1999/02/22-rdf-syntax-ns#"
   xmlns:svg="http://www.w3.org/2000/svg"
   xmlns="http://www.w3.org/2000/svg"
   xmlns:sodipodi="http://sodipodi.sourceforge.net/DTD/sodipodi-0.dtd"
   xmlns:inkscape="http://www.inkscape.org/namespaces/inkscape"
   width="48"
   height="48"
   viewBox="0 0 12.7 12.7"
   version="1.1"
   id="svg4"
   sodipodi:docname="pling-store.svg"
   inkscape:version="0.92.5 (2060ec1f9f, 2020-04-08)">
  <defs
     id="defs8">
  <style
     id="current-color-scheme"
     type="Highlight/css">
      .ColorScheme-Highlight {
        color:#5beedc;
      }
  </style>
  </defs>
  <path
     class="ColorScheme-Highlight"
     style="fill:#5beedc"
     d="M 24 0 A 24 24 0 0 0 0 24 A 24 24 0 0 0 24 48 A 24 24 0 0 0 48 24 A 24 24 0 0 0 24 0 z M 24 3 A 21 21 0 0 1 45 24 A 21 21 0 0 1 24 45 A 21 21 0 0 1 3 24 A 21 21 0 0 1 24 3 z "
     transform="scale(0.26458333)"
     id="path817" />
  <path
     style="fill:#ffa123"
     d="M 24 5 A 6.9999996 6.9999996 0 0 0 17 12 L 17 14 L 13 14 C 11.892 14 11 14.892 11 16 L 11 37 C 11 38.108 11.892 39 13 39 L 35 39 C 36.108 39 37 38.108 37 37 L 37 16 C 37 14.892 36.108 14 35 14 L 31 14 L 31 12 A 6.9999996 6.9999996 0 0 0 24 5 z M 24 7 A 4.9999994 4.9999994 0 0 1 29 12 L 29 14 L 19 14 L 19 12 A 4.9999994 4.9999994 0 0 1 24 7 z M 18 16 A 1.9999999 1.9999999 0 0 1 20 18 A 1.9999999 1.9999999 0 0 1 18 20 A 1.9999999 1.9999999 0 0 1 16 18 A 1.9999999 1.9999999 0 0 1 18 16 z M 30 16 A 1.9999999 1.9999999 0 0 1 32 18 A 1.9999999 1.9999999 0 0 1 30 20 A 1.9999999 1.9999999 0 0 1 28 18 A 1.9999999 1.9999999 0 0 1 30 16 z M 24.824219 21.001953 C 26.738987 20.948564 28.461161 22.30049 28.898438 24.341797 C 29.403975 26.713322 27.988212 29.12052 25.736328 29.716797 C 25.333199 29.798098 24.861215 29.913554 24.439453 30.035156 L 25.345703 34.277344 C 25.49746 34.989564 24.977676 35.732435 24.181641 35.943359 C 23.385606 36.154285 22.622457 35.751283 22.470703 35.039062 L 20.013672 23.509766 C 19.887859 22.80981 20.621126 21.954521 21.363281 21.792969 C 22.176891 21.574876 23.092565 21.326765 23.994141 21.113281 C 24.272368 21.046134 24.550679 21.00955 24.824219 21.001953 z M 24.798828 23.728516 A 1.5858379 1.8330734 73.65209 0 0 24.257812 23.789062 L 23.214844 24.044922 L 23.925781 27.136719 L 24.939453 26.886719 A 1.5858379 1.8330734 73.65209 0 0 24.96875 26.882812 A 1.5858379 1.8330734 73.65209 0 0 26.394531 24.898438 A 1.5858379 1.8330734 73.65209 0 0 24.798828 23.728516 z "
     transform="scale(0.26458333)"
     id="rect825" />
</svg>
