<?xml version="1.0" encoding="UTF-8" standalone="no"?>
<svg
   xmlns:dc="http://purl.org/dc/elements/1.1/"
   xmlns:cc="http://creativecommons.org/ns#"
   xmlns:rdf="http://www.w3.org/1999/02/22-rdf-syntax-ns#"
   xmlns:svg="http://www.w3.org/2000/svg"
   xmlns="http://www.w3.org/2000/svg"
   xmlns:sodipodi="http://sodipodi.sourceforge.net/DTD/sodipodi-0.dtd"
   xmlns:inkscape="http://www.inkscape.org/namespaces/inkscape"
   width="48"
   height="48"
   viewBox="0 0 12.7 12.7"
   version="1.1"
   id="svg4"
   sodipodi:docname="distributor-logo-pop-os.svg"
   inkscape:version="0.92.4 (5da689c313, 2019-01-14)">
  <metadata
     id="metadata10">
    <rdf:RDF>
      <cc:Work
         rdf:about="">
        <dc:format>image/svg+xml</dc:format>
        <dc:type
           rdf:resource="http://purl.org/dc/dcmitype/StillImage" />
        <dc:title></dc:title>
      </cc:Work>
    </rdf:RDF>
  </metadata>
  <defs
     id="defs8" />
  <sodipodi:namedview
     pagecolor="#ffffff"
     bordercolor="#666666"
     borderopacity="1"
     objecttolerance="10"
     gridtolerance="10"
     guidetolerance="10"
     inkscape:pageopacity="0"
     inkscape:pageshadow="2"
     inkscape:window-width="861"
     inkscape:window-height="480"
     id="namedview6"
     showgrid="false"
     inkscape:zoom="4.9166667"
     inkscape:cx="2.1355932"
     inkscape:cy="24"
     inkscape:window-x="0"
     inkscape:window-y="25"
     inkscape:window-maximized="0"
     inkscape:current-layer="svg4" />
  <path
     d="M 6.34,0.07 A 6.29,6.29 0 0 0 0.05,6.37 6.29,6.29 0 0 0 6.35,12.65 6.29,6.29 0 0 0 12.63,6.36 6.29,6.29 0 0 0 6.34,0.07 Z M 6.32,1 6.33,1.01 a 5.4,5.4 0 0 1 5.4,5.4 5.4,5.4 0 0 1 -5.4,5.41 A 5.4,5.4 0 0 1 0.92,6.42 5.4,5.4 0 0 1 6.32,1 Z M 5.44,2.646 C 4.967,2.658 4.429,2.916 4.154,3.106 3.879,3.296 3.318,3.676 3.307,4.046 3.307,4.293 3.439,4.494 3.56,4.74 3.68,4.987 5.308,8.301 5.792,8.827 6.045,9.097 6.397,9.017 6.474,8.772 6.55,8.525 6.462,8.257 6.364,7.999 L 5.836,6.599 C 6.451,6.375 6.891,5.916 7.156,5.345 V 5.323 C 7.287,5.043 7.32,4.651 7.21,4.147 A 1.973,1.973 0 0 0 6.385,2.927 C 6.11,2.747 5.913,2.635 5.44,2.647 Z M 5.046,3.668 c 0.026,0.003 0.054,0.01 0.086,0.02 0.077,0.023 0.143,0.078 0.198,0.123 0.275,0.224 0.484,0.56 0.583,0.907 a 1.407,1.433 0 0 1 0.022,0.537 c 0,0.09 -0.011,0.157 -0.066,0.247 C 5.814,5.592 5.682,5.658 5.616,5.647 5.55,5.636 5.495,5.592 5.44,5.536 5.21,5.3 5,4.83 4.923,4.606 4.851,4.396 4.653,3.626 5.046,3.668 Z m 3.567,0.83 C 8.457,4.501 8.278,4.542 8.207,4.608 8.112,4.697 8.027,4.874 7.974,5.228 7.794,6.52 7.731,7.58 7.921,7.658 8.08,7.724 8.196,7.613 8.767,6.553 L 9.064,5.967 C 9.18,5.713 9.328,5.36 9.37,5.194 9.413,5.028 9.402,4.895 9.275,4.774 A 0.952,0.994 0 0 0 8.757,4.509 0.702,0.702 0 0 0 8.613,4.498 Z M 8.004,8.202 A 0.469,0.469 0 0 0 7.555,8.53 0.351,0.351 0 0 0 7.677,8.917 0.51,0.51 0 0 0 8.136,8.96 0.368,0.368 0 0 0 8.316,8.723 C 8.38,8.498 8.268,8.207 8.004,8.203 Z M 4.264,9.26 c -0.237,0 -0.428,0.177 -0.428,0.397 0,0.22 0.19,0.397 0.427,0.397 h 4.438 c 0.237,0 0.427,-0.177 0.427,-0.397 0,-0.22 -0.19,-0.397 -0.427,-0.397 H 4.263 Z"
     id="path2"
     inkscape:connector-curvature="0"
     style="fill:#5beedc" />
</svg>
