<?xml version="1.0" encoding="UTF-8" standalone="no"?>
<svg
   xmlns:dc="http://purl.org/dc/elements/1.1/"
   xmlns:cc="http://creativecommons.org/ns#"
   xmlns:rdf="http://www.w3.org/1999/02/22-rdf-syntax-ns#"
   xmlns:svg="http://www.w3.org/2000/svg"
   xmlns="http://www.w3.org/2000/svg"
   xmlns:sodipodi="http://sodipodi.sourceforge.net/DTD/sodipodi-0.dtd"
   xmlns:inkscape="http://www.inkscape.org/namespaces/inkscape"
   width="48"
   height="48"
   viewBox="0 0 12.7 12.7"
   version="1.1"
   id="svg4"
   sodipodi:docname="popcorn-time.svg"
   inkscape:version="0.92.4 (5da689c313, 2019-01-14)">
  <metadata
     id="metadata10">
    <rdf:RDF>
      <cc:Work
         rdf:about="">
        <dc:format>image/svg+xml</dc:format>
        <dc:type
           rdf:resource="http://purl.org/dc/dcmitype/StillImage" />
        <dc:title></dc:title>
      </cc:Work>
    </rdf:RDF>
  </metadata>
  <defs
     id="defs8" />
  <sodipodi:namedview
     pagecolor="#ffffff"
     bordercolor="#666666"
     borderopacity="1"
     objecttolerance="10"
     gridtolerance="10"
     guidetolerance="10"
     inkscape:pageopacity="0"
     inkscape:pageshadow="2"
     inkscape:window-width="862"
     inkscape:window-height="480"
     id="namedview6"
     showgrid="false"
     inkscape:zoom="4.9166667"
     inkscape:cx="2.1355932"
     inkscape:cy="24"
     inkscape:window-x="0"
     inkscape:window-y="25"
     inkscape:window-maximized="0"
     inkscape:current-layer="svg4" />
  <path
     d="m 6.34,0.07 a 6.29,6.29 0 1 0 0,12.58 6.29,6.29 0 0 0 0,-12.58 z M 6.32,1 A 5.417,5.417 0 0 1 11.73,6.41 5.4,5.4 0 0 1 6.33,11.82 5.4,5.4 0 0 1 0.92,6.42 5.4,5.4 0 0 1 6.32,1 Z M 7.042,2.117 C 6.822,2.117 6.78,2.121 6.644,2.157 6.064,2.311 5.662,2.657 5.323,3.294 5.28,3.374 5.243,3.44 5.24,3.44 5.237,3.44 5.172,3.378 5.095,3.302 4.88,3.089 4.693,2.995 4.455,2.98 A 0.733,0.733 0 0 0 4.032,3.07 0.935,0.935 0 0 0 3.563,3.674 C 3.498,3.951 3.581,4.265 3.786,4.513 L 3.844,4.583 3.801,4.612 A 1.161,1.161 0 0 0 3.497,4.958 0.633,0.633 0 0 0 3.562,5.603 C 3.637,5.705 3.746,5.783 3.83,5.797 3.861,5.802 3.89,5.811 3.892,5.816 A 0.549,0.549 0 0 1 3.883,5.926 C 3.866,6.054 3.888,6.211 3.995,6.273 4.361,6.484 5.652,6.604 7.042,6.557 7.919,6.527 8.542,6.39 8.836,6.247 A 0.054,0.054 0 0 0 8.826,6.261 C 8.75,6.404 8.534,6.511 7.741,6.581 7.381,6.613 6.193,6.626 5.741,6.603 4.791,6.555 4.18,6.456 3.956,6.314 3.916,6.289 3.881,6.273 3.876,6.278 3.871,6.283 3.962,7.07 4.079,8.026 l 0.213,1.738 0.055,0.058 c 0.07,0.073 0.289,0.22 0.443,0.297 0.903,0.559 2.613,0.715 3.676,-0.109 C 8.474,9.995 8.591,8.995 8.706,8.064 8.923,6.314 8.929,6.243 8.869,6.231 8.956,6.185 9.009,6.139 9.025,6.096 9.038,6.059 9.035,6.049 8.995,6.016 L 8.951,5.977 8.988,5.954 C 9.008,5.94 9.058,5.9 9.098,5.863 9.362,5.619 9.301,5.178 8.975,4.969 8.931,4.941 8.899,4.91 8.903,4.9 9.049,4.564 9.079,4.44 9.088,4.128 9.097,3.858 9.079,3.72 9.01,3.508 8.816,2.914 8.29,2.406 7.662,2.208 A 1.688,1.688 0 0 0 7.042,2.117 Z M 6.945,2.455 c 0.227,0 0.328,0.014 0.533,0.079 0.54,0.17 0.992,0.606 1.159,1.117 0.06,0.182 0.074,0.3 0.067,0.533 C 8.696,4.452 8.671,4.559 8.545,4.848 8.541,4.857 8.57,4.883 8.607,4.908 8.887,5.087 8.939,5.466 8.712,5.676 A 0.99,0.99 0 0 1 8.618,5.754 L 8.586,5.774 8.624,5.807 C 8.658,5.836 8.661,5.844 8.65,5.876 8.093,6.368 4.47,6.178 4.325,5.932 4.233,5.879 4.215,5.84 4.23,5.729 A 0.463,0.463 0 0 0 4.237,5.635 C 4.234,5.63 4.21,5.624 4.183,5.619 4.111,5.608 4.017,5.539 3.953,5.452 A 0.544,0.544 0 0 1 3.897,4.897 0.997,0.997 0 0 1 4.158,4.6 L 4.195,4.574 4.146,4.515 A 0.848,0.848 0 0 1 3.954,3.793 0.803,0.803 0 0 1 4.357,3.274 0.631,0.631 0 0 1 4.721,3.197 c 0.204,0.013 0.366,0.093 0.55,0.276 0.067,0.066 0.122,0.12 0.125,0.12 0.002,0 0.034,-0.057 0.07,-0.126 C 5.759,2.919 6.104,2.622 6.603,2.49 6.719,2.459 6.756,2.455 6.945,2.455 Z M 7.87,4.274 A 0.353,0.353 0 0 0 7.557,4.478 0.366,0.366 0 0 0 7.761,4.981 C 7.861,5.015 7.9,5.016 7.991,4.989 8.307,4.894 8.347,4.458 8.052,4.314 A 0.389,0.389 0 0 0 7.87,4.274 Z M 5.354,4.277 A 0.454,0.454 0 0 0 5.225,4.294 0.446,0.446 0 0 0 4.997,4.526 0.366,0.366 0 0 0 5.195,4.974 0.373,0.373 0 0 0 5.345,5.01 0.39,0.39 0 0 0 5.694,4.758 0.36,0.36 0 0 0 5.592,4.377 0.35,0.35 0 0 0 5.354,4.277 Z m 0.101,0.091 c 0.064,0 0.127,0.052 0.127,0.137 0,0.032 -0.013,0.057 -0.041,0.081 C 5.428,4.683 5.274,4.556 5.351,4.431 A 0.123,0.123 0 0 1 5.455,4.368 Z m 2.553,0.006 c 0.02,0 0.04,0.009 0.063,0.022 0.084,0.052 0.084,0.159 0,0.21 C 8.018,4.639 8.008,4.64 7.961,4.621 A 0.127,0.127 0 0 1 7.914,4.421 C 7.944,4.388 7.974,4.372 8.008,4.374 Z M 6.581,5.032 c -0.41,0 -0.528,0.005 -0.544,0.02 -0.013,0.014 -0.02,0.072 -0.02,0.201 0,0.171 0.004,0.189 0.043,0.266 A 0.59,0.59 0 0 0 6.404,5.812 0.663,0.663 0 0 0 6.609,5.827 0.534,0.534 0 0 0 7.104,5.522 C 7.133,5.462 7.14,5.421 7.144,5.272 7.149,5.129 7.144,5.086 7.127,5.062 7.106,5.033 7.087,5.032 6.581,5.032 Z M 8.327,6.62 c 0.007,0 0.012,0.001 0.013,0.002 0.013,0.013 -0.189,3.389 -0.205,3.428 -0.014,0.036 -0.223,0.12 -0.44,0.179 -0.144,0.038 -0.183,0.044 -0.193,0.025 -0.008,-0.014 0.092,-3.55 0.1,-3.559 A 3.15,3.15 0 0 1 7.852,6.668 C 7.987,6.657 8.15,6.639 8.214,6.63 A 0.797,0.797 0 0 1 8.327,6.62 Z m -3.646,0 h 0.015 c 0.036,0.001 0.108,0.008 0.187,0.018 0.106,0.013 0.258,0.027 0.339,0.033 0.08,0.005 0.15,0.017 0.155,0.025 0.013,0.02 0.246,3.555 0.236,3.572 C 5.603,10.282 5.589,10.282 5.509,10.263 5.376,10.233 4.97,10.097 4.962,10.081 L 4.808,8.353 C 4.694,7.061 4.66,6.626 4.674,6.621 h 0.007 z m 1.434,0.1 0.363,0.005 0.363,0.004 0.013,1.806 a 61.978,61.978 0 0 1 0,1.82 C 6.838,10.37 6.495,10.383 6.35,10.375 6.29,10.37 6.246,10.362 6.242,10.351 6.235,10.331 6.115,6.991 6.115,6.821 v -0.1 z"
     id="path2"
     inkscape:connector-curvature="0"
     style="fill:#5beedc" />
</svg>
