<?xml version="1.0" encoding="UTF-8" standalone="no"?>
<svg
   xmlns:dc="http://purl.org/dc/elements/1.1/"
   xmlns:cc="http://creativecommons.org/ns#"
   xmlns:rdf="http://www.w3.org/1999/02/22-rdf-syntax-ns#"
   xmlns:svg="http://www.w3.org/2000/svg"
   xmlns="http://www.w3.org/2000/svg"
   xmlns:sodipodi="http://sodipodi.sourceforge.net/DTD/sodipodi-0.dtd"
   xmlns:inkscape="http://www.inkscape.org/namespaces/inkscape"
   width="48"
   height="48"
   viewBox="0 0 12.7 12.7"
   version="1.1"
   id="svg4"
   sodipodi:docname="postman.svg"
   inkscape:version="0.92.5 (2060ec1f9f, 2020-04-08)">
  <defs
     id="defs8">
  <style
     id="current-color-scheme"
     type="text/css">
      .ColorScheme-Highlight {
        color:#5beedc;
      }
  </style>
  </defs>
  <path
     class="ColorScheme-Highlight"
     style="fill:#5beedc"
     d="M 24 0 A 24 24 0 0 0 0 24 A 24 24 0 0 0 5.1660156 38.833984 L 7.2988281 36.701172 A 21 21 0 0 1 3 24 A 21 21 0 0 1 24 3 A 21 21 0 0 1 45 24 A 21 21 0 0 1 24 45 A 21 21 0 0 1 12.777344 41.720703 L 13.929688 45.753906 A 24 24 0 0 0 24 48 A 24 24 0 0 0 48 24 A 24 24 0 0 0 24 0 z M 33.361328 10.566406 A 4.9999997 4.9999997 0 0 0 29.900391 12.029297 A 4.9999997 4.9999997 0 0 0 29.900391 19.099609 A 4.9999997 4.9999997 0 0 0 36.970703 19.099609 A 4.9999997 4.9999997 0 0 0 36.970703 12.029297 A 4.9999997 4.9999997 0 0 0 33.361328 10.566406 z M 36.263672 12.736328 A 3.9999995 3.9999995 0 0 1 36.263672 18.392578 A 3.9999995 3.9999995 0 0 1 35.462891 19.005859 L 32.728516 16.271484 L 36.263672 12.736328 z M 25.65625 16.923828 C 24.378155 16.923828 23.100437 17.413235 22.121094 18.392578 L 17.878906 22.636719 L 14.34375 26.171875 L 17.878906 29.707031 L 6.5644531 41.021484 L 7.9785156 42.435547 L 11.515625 45.970703 L 10.208984 40.742188 L 23.269531 30.816406 C 23.880414 30.571616 24.452907 30.203343 24.949219 29.707031 L 29.193359 25.464844 C 31.152045 23.506158 31.152045 20.351264 29.193359 18.392578 C 28.214017 17.413235 26.934345 16.923828 25.65625 16.923828 z "
     id="path817"
     transform="scale(0.26458333)" />
  <path
     style="fill:#ff6600"
     d="M 3.9820458,7.1116505 3.2336911,8.2341826 4.7304005,7.8600052 Z M 1.7369819,10.853424 0.61444992,11.975956 H 2.8595139 Z"
     id="path863"
     inkscape:connector-curvature="0" />
</svg>
