<?xml version="1.0" encoding="UTF-8" standalone="no"?>
<svg
   xmlns:dc="http://purl.org/dc/elements/1.1/"
   xmlns:cc="http://creativecommons.org/ns#"
   xmlns:rdf="http://www.w3.org/1999/02/22-rdf-syntax-ns#"
   xmlns:svg="http://www.w3.org/2000/svg"
   xmlns="http://www.w3.org/2000/svg"
   xmlns:sodipodi="http://sodipodi.sourceforge.net/DTD/sodipodi-0.dtd"
   xmlns:inkscape="http://www.inkscape.org/namespaces/inkscape"
   width="48"
   height="48"
   viewBox="0 0 12.7 12.7"
   version="1.1"
   id="svg18"
   sodipodi:docname="y-ppa-manager.svg"
   inkscape:version="0.92.5 (2060ec1f9f, 2020-04-08)">
  <metadata
     id="metadata24">
    <rdf:RDF>
      <cc:Work
         rdf:about="">
        <dc:format>image/svg+xml</dc:format>
        <dc:type
           rdf:resource="http://purl.org/dc/dcmitype/StillImage" />
        <dc:title></dc:title>
      </cc:Work>
    </rdf:RDF>
  </metadata>
  <defs
     id="defs22" />
  <sodipodi:namedview
     pagecolor="#ffffff"
     bordercolor="#666666"
     borderopacity="1"
     objecttolerance="10"
     gridtolerance="10"
     guidetolerance="10"
     inkscape:pageopacity="0"
     inkscape:pageshadow="2"
     inkscape:window-width="1085"
     inkscape:window-height="480"
     id="namedview20"
     showgrid="false"
     inkscape:zoom="4.9166667"
     inkscape:cx="2.1355932"
     inkscape:cy="24"
     inkscape:window-x="0"
     inkscape:window-y="25"
     inkscape:window-maximized="0"
     inkscape:current-layer="svg18" />
  <path
     d="M 6.34,0.075 A 6.295,6.295 0 0 0 0.055,6.36 6.295,6.295 0 0 0 6.34,12.655 6.295,6.295 0 0 0 12.634,6.36 6.295,6.295 0 0 0 6.34,0.075 Z m -0.01,0.94 a 5.408,5.408 0 0 1 5.396,5.387 5.407,5.407 0 1 1 -10.814,0 c 0,-2.987 2.43,-5.387 5.417,-5.387 z"
     id="path2"
     inkscape:connector-curvature="0"
     style="fill:#5beedc" />
  <path
     d="M 4.563,7.355 V 5.345 L 6.35,4.339 8.137,5.345 v 2.01 L 6.35,8.361 Z"
     id="path4"
     inkscape:connector-curvature="0"
     style="fill:#d6ac12" />
  <path
     d="M 6.593,2.04 V 3.808 L 8.439,4.811 9.979,3.888 Z"
     id="path6"
     inkscape:connector-curvature="0"
     style="fill:#8fb635" />
  <path
     d="M 5.977,2.04 V 3.808 L 4.13,4.811 2.591,3.888 Z"
     id="path8"
     inkscape:connector-curvature="0"
     style="fill:#3895bd" />
  <path
     d="m 10.278,4.341 -1.53,0.884 0.055,2.1 1.569,0.872 z"
     id="path10"
     inkscape:connector-curvature="0"
     style="fill:#d18c3b" />
  <path
     d="m 2.422,4.341 1.53,0.884 -0.055,2.1 -1.569,0.872 z"
     id="path12"
     inkscape:connector-curvature="0"
     style="fill:#3941bf" />
  <path
     d="M 6.593,10.66 V 8.891 l 1.846,-1.003 1.54,0.923 z"
     id="path14"
     inkscape:connector-curvature="0"
     style="fill:#a02c35" />
  <path
     d="M 5.977,10.66 V 8.891 L 4.13,7.889 2.591,8.812 Z"
     id="path16"
     inkscape:connector-curvature="0"
     style="fill:#bb3a84" />
</svg>
