<?xml version="1.0" encoding="UTF-8" standalone="no"?>
<svg
   xmlns:dc="http://purl.org/dc/elements/1.1/"
   xmlns:cc="http://creativecommons.org/ns#"
   xmlns:rdf="http://www.w3.org/1999/02/22-rdf-syntax-ns#"
   xmlns:svg="http://www.w3.org/2000/svg"
   xmlns="http://www.w3.org/2000/svg"
   xmlns:sodipodi="http://sodipodi.sourceforge.net/DTD/sodipodi-0.dtd"
   xmlns:inkscape="http://www.inkscape.org/namespaces/inkscape"
   width="48"
   height="48"
   viewBox="0 0 12.7 12.7"
   version="1.1"
   id="svg4"
   sodipodi:docname="preferences-system-network-wakeonlan.svg"
   inkscape:version="0.92.5 (2060ec1f9f, 2020-04-08)">
  <defs
     id="defs8">
  <style
     id="current-color-scheme"
     type="text/css">
      .ColorScheme-Highlight {
        color:#5beedc;
      }
  </style>
  </defs>
  <path
     class="ColorScheme-Highlight"
     style="fill:#5beedc"
     d="M 24 0 A 24 24 0 0 0 0 24 A 24 24 0 0 0 24 48 A 24 24 0 0 0 48 24 A 24 24 0 0 0 24 0 z M 24 3 A 21 21 0 0 1 45 24 A 21 21 0 0 1 24 45 A 21 21 0 0 1 3 24 A 21 21 0 0 1 24 3 z M 22 13 L 22 23 L 26 23 L 26 13 L 22 13 z M 28 13.753906 L 28 14.839844 A 9.9999995 9.9999995 0 0 1 34 24 A 9.9999995 9.9999995 0 0 1 24 34 A 9.9999995 9.9999995 0 0 1 14 24 A 9.9999995 9.9999995 0 0 1 20 14.847656 L 20 13.765625 A 11 11 0 0 0 13 24 A 11 11 0 0 0 24 35 A 11 11 0 0 0 35 24 A 11 11 0 0 0 28 13.753906 z "
     transform="scale(0.26458333)"
     id="path831" />
</svg>
