<?xml version="1.0" encoding="UTF-8" standalone="no"?>
<svg
   xmlns:dc="http://purl.org/dc/elements/1.1/"
   xmlns:cc="http://creativecommons.org/ns#"
   xmlns:rdf="http://www.w3.org/1999/02/22-rdf-syntax-ns#"
   xmlns:svg="http://www.w3.org/2000/svg"
   xmlns="http://www.w3.org/2000/svg"
   xmlns:sodipodi="http://sodipodi.sourceforge.net/DTD/sodipodi-0.dtd"
   xmlns:inkscape="http://www.inkscape.org/namespaces/inkscape"
   width="48"
   height="48"
   viewBox="0 0 12.7 12.7"
   version="1.1"
   id="svg4"
   sodipodi:docname="preferences-virtualization-container.svg"
   inkscape:version="0.92.5 (2060ec1f9f, 2020-04-08)">
  <defs
     id="defs8">
    <style
       id="current-color-scheme"
       type="text/css">
      .ColorScheme-Highlight {
        color:#5beedc;
      }
  </style>
  </defs>
  <path
     class="ColorScheme-Highlight"
     style="fill:#5beedc"
     d="M 24 0 A 24 24 0 0 0 0 24 A 24 24 0 0 0 24 48 A 24 24 0 0 0 48 24 A 24 24 0 0 0 24 0 z M 24 3 A 21 21 0 0 1 45 24 A 21 21 0 0 1 24 45 A 21 21 0 0 1 3 24 A 21 21 0 0 1 24 3 z M 13 10 C 12.446 10 12 10.446 12 11 L 12 12 C 11.446 12 11 12.446 11 13 L 11 35 C 11 35.554 11.446 36 12 36 L 12 37 C 12 37.554 12.446 38 13 38 L 35 38 C 35.554 38 36 37.554 36 37 L 36 36 C 36.554 36 37 35.554 37 35 L 37 13 C 37 12.446 36.554 12 36 12 L 36 11 C 36 10.446 35.554 10 35 10 L 13 10 z M 13 14 L 17 14 L 17 34 L 13 34 L 13 14 z M 18 14 L 20 14 L 20 34 L 18 34 L 18 14 z M 21 14 L 23 14 L 23 34 L 21 34 L 21 14 z M 25 14 L 27 14 L 27 34 L 25 34 L 25 14 z M 28 14 L 30 14 L 30 34 L 28 34 L 28 14 z M 31 14 L 35 14 L 35 34 L 31 34 L 31 14 z "
     transform="scale(0.26458333)"
     id="rect817" />
</svg>
