<?xml version="1.0" encoding="UTF-8" standalone="no"?>
<svg
   xmlns:dc="http://purl.org/dc/elements/1.1/"
   xmlns:cc="http://creativecommons.org/ns#"
   xmlns:rdf="http://www.w3.org/1999/02/22-rdf-syntax-ns#"
   xmlns:svg="http://www.w3.org/2000/svg"
   xmlns="http://www.w3.org/2000/svg"
   xmlns:sodipodi="http://sodipodi.sourceforge.net/DTD/sodipodi-0.dtd"
   xmlns:inkscape="http://www.inkscape.org/namespaces/inkscape"
   width="48"
   height="48"
   viewBox="0 0 12.7 12.7"
   version="1.1"
   id="svg4"
   sodipodi:docname="preferences-system-parental-controls.svg"
   inkscape:version="0.92.5 (2060ec1f9f, 2020-04-08)">
  <defs
     id="defs8">
  <style
     id="current-color-scheme"
     type="text/css">
      .ColorScheme-Highlight {
        color:#5beedc;
      }
  </style>
  </defs>
  <path
     class="ColorScheme-Highlight"
     style="fill:#5beedc"
     d="M 24 0 A 24 24 0 0 0 0 24 A 24 24 0 0 0 24 48 A 24 24 0 0 0 48 24 A 24 24 0 0 0 24 0 z M 24 3 A 21 21 0 0 1 45 24 A 21 21 0 0 1 24 45 A 21 21 0 0 1 3 24 A 21 21 0 0 1 24 3 z M 18.5 8 A 4.4999998 4.4999998 0 0 0 14 12.5 A 4.4999998 4.4999998 0 0 0 18.5 17 A 4.4999998 4.4999998 0 0 0 23 12.5 A 4.4999998 4.4999998 0 0 0 18.5 8 z M 15 18 C 14.759684 18 14.549036 18.096071 14.376953 18.236328 C 14.039293 18.39477 13.730209 18.663485 13.515625 19.035156 L 8.7890625 27.222656 C 8.2980171 28.073172 8.4815045 29.092312 9.2011719 29.507812 C 9.9208393 29.923313 10.895673 29.573172 11.386719 28.722656 L 14 24.195312 L 14 30 C 14 30.064456 14.025567 30.120641 14.037109 30.181641 C 14.014936 30.284578 14 30.390242 14 30.5 L 14 38.5 C 14 39.331 14.669 40 15.5 40 C 16.331 40 17 39.331 17 38.5 L 17 31 L 20 31 L 20 38.226562 L 20 38.5 C 20 39.331 20.669 40 21.5 40 C 22.331 40 23 39.331 23 38.5 L 23 30.5 L 23 30 L 23 24.195312 L 25.613281 28.722656 C 25.774598 29.002066 25.990947 29.222756 26.230469 29.384766 C 26.093911 29.555701 26 29.763216 26 30 C 26 30.554 26.446 31 27 31 L 30 31 L 30 34 L 30 39 C 30 39.554 30.446 40 31 40 C 31.554 40 32 39.554 32 39 L 32 35 L 34 35 L 34 39 C 34 39.554 34.446 40 35 40 C 35.554 40 36 39.554 36 39 L 36 34 L 36 32 L 38.242188 34.242188 C 38.633925 34.633925 39.264513 34.633925 39.65625 34.242188 C 40.047987 33.85045 40.047987 33.219862 39.65625 32.828125 L 36.121094 29.292969 C 35.870119 29.041994 35.5246 28.970406 35.203125 29.041016 C 35.135475 29.026673 35.072047 29 35 29 L 32 29 L 28.285156 29 C 28.562011 28.503228 28.557465 27.822859 28.210938 27.222656 L 23.484375 19.035156 C 23.269791 18.663485 22.960707 18.39477 22.623047 18.236328 C 22.450964 18.096071 22.240316 18 22 18 L 15 18 z M 33 22 A 3 3 0 0 0 30 25 A 3 3 0 0 0 33 28 A 3 3 0 0 0 36 25 A 3 3 0 0 0 33 22 z "
     transform="scale(0.26458333)"
     id="path831" />
</svg>
