<?xml version="1.0" encoding="UTF-8" standalone="no"?>
<svg
   xmlns:dc="http://purl.org/dc/elements/1.1/"
   xmlns:cc="http://creativecommons.org/ns#"
   xmlns:rdf="http://www.w3.org/1999/02/22-rdf-syntax-ns#"
   xmlns:svg="http://www.w3.org/2000/svg"
   xmlns="http://www.w3.org/2000/svg"
   xmlns:sodipodi="http://sodipodi.sourceforge.net/DTD/sodipodi-0.dtd"
   xmlns:inkscape="http://www.inkscape.org/namespaces/inkscape"
   width="48"
   height="48"
   viewBox="0 0 12.7 12.7"
   version="1.1"
   id="svg4"
   sodipodi:docname="preferences-system-windows-move.svg"
   inkscape:version="0.92.5 (2060ec1f9f, 2020-04-08)">
  <defs
     id="defs8">
  <style
     id="current-color-scheme"
     type="text/css">
      .ColorScheme-Highlight {
        color:#5beedc;
      }
  </style>
  </defs>
  <path
     class="ColorScheme-Highlight"
     style="fill:#5beedc"
     d="M 24 0 A 24 24 0 0 0 0 24 A 24 24 0 0 0 24 48 A 24 24 0 0 0 48 24 A 24 24 0 0 0 24 0 z M 24 3 A 21 21 0 0 1 45 24 A 21 21 0 0 1 24 45 A 21 21 0 0 1 3 24 A 21 21 0 0 1 24 3 z M 12 11 C 10.337999 11 9 12.338 9 14 L 9 34 C 9 35.662 10.337999 37 12 37 L 36 37 C 37.662001 37 39 35.662 39 34 L 39 14 C 39 12.338 37.662001 11 36 11 L 12 11 z M 11 16 L 37 16 C 37.554 16 38 16.469577 38 17.052734 L 38 34.947266 C 38 35.530423 37.554 36 37 36 L 11 36 C 10.446 36 10 35.530423 10 34.947266 L 10 17.052734 C 10 16.469577 10.446 16 11 16 z M 24 19 L 21 23 L 27 23 L 24 19 z M 27 23 L 27 29 L 31 26 L 27 23 z M 27 29 L 21 29 L 24 33 L 27 29 z M 21 29 L 21 23 L 17 26 L 21 29 z M 24 25 A 0.99999994 0.99999994 0 0 0 23 26 A 0.99999994 0.99999994 0 0 0 24 27 A 0.99999994 0.99999994 0 0 0 25 26 A 0.99999994 0.99999994 0 0 0 24 25 z "
     transform="scale(0.26458333)"
     id="rect826" />
</svg>
