<?xml version="1.0" encoding="UTF-8" standalone="no"?>
<svg
   xmlns:dc="http://purl.org/dc/elements/1.1/"
   xmlns:cc="http://creativecommons.org/ns#"
   xmlns:rdf="http://www.w3.org/1999/02/22-rdf-syntax-ns#"
   xmlns:svg="http://www.w3.org/2000/svg"
   xmlns="http://www.w3.org/2000/svg"
   xmlns:sodipodi="http://sodipodi.sourceforge.net/DTD/sodipodi-0.dtd"
   xmlns:inkscape="http://www.inkscape.org/namespaces/inkscape"
   width="48"
   height="48"
   viewBox="0 0 12.7 12.7"
   version="1.1"
   id="svg4"
   sodipodi:docname="preferences-desktop-filter.svg"
   inkscape:version="0.92.5 (2060ec1f9f, 2020-04-08)">
  <defs
     id="defs8">
  <style
     id="current-color-scheme"
     type="text/css">
      .ColorScheme-Highlight {
        color:#5beedc;
      }
  </style>
  </defs>
  <path
     class="ColorScheme-Highlight"
     style="fill:#5beedc"
     d="M 24,0 C 10.745166,0 0,10.745166 0,24 0,37.254834 10.745166,48 24,48 37.254834,48 48,37.254834 48,24 48,10.745166 37.254834,0 24,0 Z m 0,3 C 35.59798,3 45,12.40202 45,24 45,35.59798 35.59798,45 24,45 12.40202,45 3,35.59798 3,24 3,12.40202 12.40202,3 24,3 Z m 0,7 c -7.731987,0 -14.0000003,2.686292 -14,6 0.0058,1.912851 2.139473,3.709876 5.744141,4.837891 L 22,28 V 40.000001 L 26,38 V 28 l 6.255859,-7.164062 C 35.859233,19.708329 37.992725,17.912162 38,16 38,12.686292 31.731987,10 24,10 Z m 0,2 c 4.970563,0 9,1.567003 9,3.5 0,1.932997 -4.029437,3.5 -9,3.5 -4.970563,0 -9,-1.567003 -9,-3.5 0,-1.932997 4.029437,-3.5 9,-3.5 z"
     transform="scale(0.26458333)"
     id="path826"
     inkscape:connector-curvature="0"
     sodipodi:nodetypes="sssssssssssccccccccssssss" />
</svg>
