<?xml version="1.0" encoding="UTF-8" standalone="no"?>
<svg
   xmlns:dc="http://purl.org/dc/elements/1.1/"
   xmlns:cc="http://creativecommons.org/ns#"
   xmlns:rdf="http://www.w3.org/1999/02/22-rdf-syntax-ns#"
   xmlns:svg="http://www.w3.org/2000/svg"
   xmlns="http://www.w3.org/2000/svg"
   xmlns:sodipodi="http://sodipodi.sourceforge.net/DTD/sodipodi-0.dtd"
   xmlns:inkscape="http://www.inkscape.org/namespaces/inkscape"
   width="48"
   height="48"
   viewBox="0 0 12.7 12.7"
   version="1.1"
   id="svg4"
   sodipodi:docname="touch.svg"
   inkscape:version="0.92.4 (5da689c313, 2019-01-14)">
  <metadata
     id="metadata10">
    <rdf:RDF>
      <cc:Work
         rdf:about="">
        <dc:format>image/svg+xml</dc:format>
        <dc:type
           rdf:resource="http://purl.org/dc/dcmitype/StillImage" />
        <dc:title></dc:title>
      </cc:Work>
    </rdf:RDF>
  </metadata>
  <defs
     id="defs8" />
  <sodipodi:namedview
     pagecolor="#ffffff"
     bordercolor="#666666"
     borderopacity="1"
     objecttolerance="10"
     gridtolerance="10"
     guidetolerance="10"
     inkscape:pageopacity="0"
     inkscape:pageshadow="2"
     inkscape:window-width="1109"
     inkscape:window-height="480"
     id="namedview6"
     showgrid="false"
     inkscape:zoom="4.9166667"
     inkscape:cx="2.1355932"
     inkscape:cy="24"
     inkscape:window-x="0"
     inkscape:window-y="25"
     inkscape:window-maximized="0"
     inkscape:current-layer="svg4" />
  <path
     d="M 6.34,0.07 A 6.29,6.29 0 0 0 0.04999997,6.37 6.29,6.29 0 0 0 6.35,12.65 6.29,6.29 0 0 0 12.63,6.36 6.29,6.29 0 0 0 6.34,0.07 Z M 6.32,1 6.33,1.01 a 5.4,5.4 0 0 1 5.4,5.4 5.4,5.4 0 0 1 -5.4,5.41 A 5.4,5.4 0 0 1 0.91999997,6.42 5.4,5.4 0 0 1 6.32,1 Z M 5.666,2.15 C 4.72,2.15 3.95,2.92 3.95,3.867 A 1.72,1.72 0 0 0 5.334,5.551 V 7.757 C 4.952,7.351 4.721,6.897 4.474,6.84 4.154,6.766 3.885,7.011 4.106,7.437 c 0.22,0.426 1.278,2.273 1.28,2.275 0.14,0.34 0.59,0.838 1.655,0.838 1.708,0 1.708,-1.525 1.708,-1.525 v -2.2 -0.67 H 8.75 V 6.066 A 0.36,0.36 0 0 0 8.391,5.708 H 8.354 A 0.359,0.359 0 0 0 7.994,6.066 V 6.47 H 7.856 V 6.065 A 0.358,0.358 0 0 0 7.499,5.708 H 7.46 A 0.36,0.36 0 0 0 7.101,6.066 V 6.47 H 6.963 V 6.066 A 0.359,0.359 0 0 0 6.605,5.708 H 6.567 A 0.359,0.359 0 0 0 6.207,6.066 V 6.47 H 6.094 V 5.524 A 1.716,1.716 0 0 0 7.384,3.867 1.72,1.72 0 0 0 5.666,2.15 Z m 0,0.178 c 0.85,0 1.542,0.69 1.542,1.54 0,0.7 -0.473,1.285 -1.113,1.472 V 4.875 A 1.097,1.097 0 0 0 5.667,2.772 c -0.604,0 -1.095,0.492 -1.095,1.095 0,0.487 0.322,0.897 0.763,1.039 V 5.369 A 1.542,1.542 0 0 1 4.127,3.867 c 0,-0.849 0.69,-1.54 1.54,-1.54 z m 0,0.799 A 0.74,0.74 0 0 1 6.094,4.471 L 6.095,4.13 A 0.36,0.36 0 0 0 5.734,3.77 L 5.695,3.769 A 0.36,0.36 0 0 0 5.335,4.13 v 0.397 a 0.74,0.74 0 0 1 0.332,-1.4 z"
     id="path2"
     inkscape:connector-curvature="0"
     style="fill:#5beedc" />
</svg>
