<?xml version="1.0" encoding="UTF-8" standalone="no"?>
<svg
   xmlns:dc="http://purl.org/dc/elements/1.1/"
   xmlns:cc="http://creativecommons.org/ns#"
   xmlns:rdf="http://www.w3.org/1999/02/22-rdf-syntax-ns#"
   xmlns:svg="http://www.w3.org/2000/svg"
   xmlns="http://www.w3.org/2000/svg"
   xmlns:sodipodi="http://sodipodi.sourceforge.net/DTD/sodipodi-0.dtd"
   xmlns:inkscape="http://www.inkscape.org/namespaces/inkscape"
   width="48"
   height="48"
   viewBox="0 0 12.7 12.7"
   version="1.1"
   id="svg4"
   sodipodi:docname="preferences-devices-tree.svg"
   inkscape:version="0.92.5 (2060ec1f9f, 2020-04-08)">
  <defs
     id="defs8">
  <style
     id="current-color-scheme"
     type="text/css">
      .ColorScheme-Highlight {
        color:#5beedc;
      }
  </style>
  </defs>
  <path
     class="ColorScheme-Highlight"
     style="fill:#5beedc"
     d="M 24 0 A 24 24 0 0 0 0 24 A 24 24 0 0 0 24 48 A 24 24 0 0 0 48 24 A 24 24 0 0 0 24 0 z M 24 3 A 21 21 0 0 1 45 24 A 21 21 0 0 1 24 45 A 21 21 0 0 1 3 24 A 21 21 0 0 1 24 3 z M 13 13 C 11.892 13 11 13.892 11 15 L 11 22 C 11 23.108 11.892 24 13 24 L 16 24 L 16 31.5 C 16 31.777002 16.223 32 16.5 32 L 24 32 L 24 35 C 24 36.108 24.892 37 26 37 L 33 37 C 34.108 37 35 36.108 35 35 L 35 28 C 35 26.892 34.108 26 33 26 L 26 26 C 24.892 26 24 26.892 24 28 L 24 31 L 17 31 L 17 24 L 20 24 C 21.108 24 22 23.108 22 22 L 22 19 L 24 19 L 24 22 C 24 23.108 24.892 24 26 24 L 33 24 C 34.108 24 35 23.108 35 22 L 35 15 C 35 13.892 34.108 13 33 13 L 26 13 C 24.892 13 24 13.892 24 15 L 24 18 L 22 18 L 22 15 C 22 13.892 21.108 13 20 13 L 13 13 z M 14 15 L 19 15 C 19.554 15 20 15.446 20 16 L 20 21 C 20 21.554 19.554 22 19 22 L 14 22 C 13.446 22 13 21.554 13 21 L 13 16 C 13 15.446 13.446 15 14 15 z M 27 15 L 32 15 C 32.554 15 33 15.446 33 16 L 33 21 C 33 21.554 32.554 22 32 22 L 27 22 C 26.446 22 26 21.554 26 21 L 26 16 C 26 15.446 26.446 15 27 15 z M 27 28 L 32 28 C 32.554 28 33 28.446 33 29 L 33 34 C 33 34.554 32.554 35 32 35 L 27 35 C 26.446 35 26 34.554 26 34 L 26 29 C 26 28.446 26.446 28 27 28 z "
     transform="scale(0.26458333)"
     id="path831" />
</svg>
