<?xml version="1.0" encoding="UTF-8" standalone="no"?>
<svg
   xmlns:dc="http://purl.org/dc/elements/1.1/"
   xmlns:cc="http://creativecommons.org/ns#"
   xmlns:rdf="http://www.w3.org/1999/02/22-rdf-syntax-ns#"
   xmlns:svg="http://www.w3.org/2000/svg"
   xmlns="http://www.w3.org/2000/svg"
   xmlns:sodipodi="http://sodipodi.sourceforge.net/DTD/sodipodi-0.dtd"
   xmlns:inkscape="http://www.inkscape.org/namespaces/inkscape"
   width="48"
   height="48"
   viewBox="0 0 12.7 12.7"
   version="1.1"
   id="svg4"
   sodipodi:docname="preferences-desktop-font.svg"
   inkscape:version="0.92.5 (2060ec1f9f, 2020-04-08)">
  <defs
     id="defs8">
  <style
     id="current-color-scheme"
     type="text/css">
      .ColorScheme-Highlight {
        color:#5beedc;
      }
  </style>
  </defs>
  <path
     class="ColorScheme-Highlight"
     style="fill:#5beedc"
     d="M 24 0 A 24 24 0 0 0 0 24 A 24 24 0 0 0 24 48 A 24 24 0 0 0 48 24 A 24 24 0 0 0 24 0 z M 24 3 A 21 21 0 0 1 45 24 A 21 21 0 0 1 24 45 A 21 21 0 0 1 3 24 A 21 21 0 0 1 24 3 z M 22 13 L 10 34 L 8 34 L 8 35 L 15 35 L 15 34 L 11 34 L 14.529297 28 L 22.941406 28 L 24 34 L 21 34 L 21 35 L 28 35 L 28 34.398438 A 5.4999999 5.4999999 0 0 0 30.5 35 A 5.4999999 5.4999999 0 0 0 34.363281 33.408203 C 34.867312 34.352836 35.850484 35 37 35 C 38.270713 35 39.149174 34.111099 39.587891 33 L 38.794922 33 C 38.575709 33.555862 38.13558 34 37.5 34 C 36.669 34 36 33.331 36 32.5 L 36 27 L 36 25 C 36 24.446 35.554 24 35 24 C 34.446 24 34 24.446 34 25 L 34 25.263672 A 5.4999999 5.4999999 0 0 0 30.5 24 A 5.4999999 5.4999999 0 0 0 25.650391 26.914062 L 23 13 L 22 13 z M 21 17 L 22.765625 27 L 15.117188 27 L 21 17 z M 31 25 A 3.9999999 4.4999996 0 0 1 34 26.533203 C 34.000539 26.682189 34 26.8116 34 27 L 34 29 L 34 32 C 34 32.143388 34.021749 32.280055 34.041016 32.417969 A 3.9999999 4.4999996 0 0 1 31 34 A 3.9999999 4.4999996 0 0 1 27 29.5 A 3.9999999 4.4999996 0 0 1 31 25 z "
     transform="scale(0.26458333)"
     id="path831" />
</svg>
