<?xml version="1.0" encoding="UTF-8" standalone="no"?>
<svg
   xmlns:dc="http://purl.org/dc/elements/1.1/"
   xmlns:cc="http://creativecommons.org/ns#"
   xmlns:rdf="http://www.w3.org/1999/02/22-rdf-syntax-ns#"
   xmlns:svg="http://www.w3.org/2000/svg"
   xmlns="http://www.w3.org/2000/svg"
   xmlns:sodipodi="http://sodipodi.sourceforge.net/DTD/sodipodi-0.dtd"
   xmlns:inkscape="http://www.inkscape.org/namespaces/inkscape"
   width="48"
   height="48"
   viewBox="0 0 12.7 12.7"
   version="1.1"
   id="svg12"
   sodipodi:docname="chrome-app-list.svg"
   inkscape:version="0.92.5 (2060ec1f9f, 2020-04-08)">
  <metadata
     id="metadata18">
    <rdf:RDF>
      <cc:Work
         rdf:about="">
        <dc:format>image/svg+xml</dc:format>
        <dc:type
           rdf:resource="http://purl.org/dc/dcmitype/StillImage" />
        <dc:title></dc:title>
      </cc:Work>
    </rdf:RDF>
  </metadata>
  <defs
     id="defs16" />
  <sodipodi:namedview
     pagecolor="#ffffff"
     bordercolor="#666666"
     borderopacity="1"
     objecttolerance="10"
     gridtolerance="10"
     guidetolerance="10"
     inkscape:pageopacity="0"
     inkscape:pageshadow="2"
     inkscape:window-width="1085"
     inkscape:window-height="480"
     id="namedview14"
     showgrid="false"
     inkscape:zoom="4.9166667"
     inkscape:cx="2.1355932"
     inkscape:cy="24"
     inkscape:window-x="0"
     inkscape:window-y="25"
     inkscape:window-maximized="0"
     inkscape:current-layer="svg12" />
  <path
     d="M 6.34,0.075 A 6.295,6.295 0 0 0 0.055,6.36 6.295,6.295 0 0 0 6.34,12.655 6.295,6.295 0 0 0 12.634,6.36 6.295,6.295 0 0 0 6.34,0.075 Z m -0.01,0.94 a 5.408,5.408 0 0 1 5.396,5.387 5.407,5.407 0 1 1 -10.814,0 c 0,-2.987 2.43,-5.387 5.417,-5.387 z"
     id="path2"
     inkscape:connector-curvature="0"
     style="fill:#5beedc" />
  <circle
     cx="6.3499999"
     cy="6.3499999"
     r="0.79400003"
     id="circle4"
     style="opacity:0.9;fill:#008080;paint-order:stroke fill markers" />
  <path
     d="M 3.704,5.556 A 0.794,0.794 0 0 0 2.91,6.35 0.794,0.794 0 0 0 3.704,7.144 0.794,0.794 0 0 0 4.498,6.35 0.794,0.794 0 0 0 3.704,5.556 Z m 0,2.646 A 0.794,0.794 0 0 0 2.91,8.996 0.794,0.794 0 0 0 3.704,9.79 0.794,0.794 0 0 0 4.498,8.996 0.794,0.794 0 0 0 3.704,8.202 Z"
     id="path6"
     inkscape:connector-curvature="0"
     style="opacity:0.9;fill:#74b340;paint-order:stroke fill markers" />
  <path
     d="M 8.996,5.556 A 0.794,0.794 0 0 0 8.202,6.35 0.794,0.794 0 0 0 8.996,7.144 0.794,0.794 0 0 0 9.79,6.35 0.794,0.794 0 0 0 8.996,5.556 Z M 6.35,8.202 A 0.794,0.794 0 0 0 5.556,8.996 0.794,0.794 0 0 0 6.35,9.79 0.794,0.794 0 0 0 7.144,8.996 0.794,0.794 0 0 0 6.35,8.202 Z m 2.646,0 A 0.794,0.794 0 0 0 8.202,8.996 0.794,0.794 0 0 0 8.996,9.79 0.794,0.794 0 0 0 9.79,8.996 0.794,0.794 0 0 0 8.996,8.202 Z"
     id="path8"
     inkscape:connector-curvature="0"
     style="opacity:0.9;fill:#ffd464;paint-order:stroke fill markers" />
  <path
     d="M 3.704,2.91 A 0.794,0.794 0 0 0 2.91,3.704 0.794,0.794 0 0 0 3.704,4.498 0.794,0.794 0 0 0 4.498,3.704 0.794,0.794 0 0 0 3.704,2.91 Z m 2.646,0 A 0.794,0.794 0 0 0 5.556,3.704 0.794,0.794 0 0 0 6.35,4.498 0.794,0.794 0 0 0 7.144,3.704 0.794,0.794 0 0 0 6.35,2.91 Z m 2.646,0 A 0.794,0.794 0 0 0 8.202,3.704 0.794,0.794 0 0 0 8.996,4.498 0.794,0.794 0 0 0 9.79,3.704 0.794,0.794 0 0 0 8.996,2.91 Z"
     id="path10"
     inkscape:connector-curvature="0"
     style="opacity:0.9;fill:#e16b5a;paint-order:stroke fill markers" />
</svg>
