<?xml version="1.0" encoding="UTF-8" standalone="no"?>
<svg
   xmlns:dc="http://purl.org/dc/elements/1.1/"
   xmlns:cc="http://creativecommons.org/ns#"
   xmlns:rdf="http://www.w3.org/1999/02/22-rdf-syntax-ns#"
   xmlns:svg="http://www.w3.org/2000/svg"
   xmlns="http://www.w3.org/2000/svg"
   xmlns:sodipodi="http://sodipodi.sourceforge.net/DTD/sodipodi-0.dtd"
   xmlns:inkscape="http://www.inkscape.org/namespaces/inkscape"
   width="48"
   height="48"
   viewBox="0 0 12.7 12.7"
   version="1.1"
   id="svg4"
   sodipodi:docname="cpu.svg"
   inkscape:version="0.92.5 (2060ec1f9f, 2020-04-08)">
  <defs
     id="defs8">
  <style
     id="current-color-scheme"
     type="text/css">
      .ColorScheme-Highlight {
        color:#5beedc;
      }
  </style>
  </defs>
  <path
     class="ColorScheme-Highlight"
     style="fill:#5beedc"
     d="M 24 0 A 24 24 0 0 0 0 24 A 24 24 0 0 0 24 48 A 24 24 0 0 0 48 24 A 24 24 0 0 0 24 0 z M 24 3 A 21 21 0 0 1 45 24 A 21 21 0 0 1 24 45 A 21 21 0 0 1 3 24 A 21 21 0 0 1 24 3 z M 18 6 L 18 11 L 20 11 L 20 6 L 18 6 z M 22 6 L 22 11 L 24 11 L 24 6 L 22 6 z M 26 6 L 26 11 L 28 11 L 28 6 L 26 6 z M 13 13 L 13 35 L 35 35 L 35 13 L 13 13 z M 37 18 L 37 20 L 42 20 L 42 18 L 37 18 z M 6 20 L 6 22 L 11 22 L 11 20 L 6 20 z M 37 22 L 37 24 L 42 24 L 42 22 L 37 22 z M 6 24 L 6 26 L 11 26 L 11 24 L 6 24 z M 37 26 L 37 28 L 42 28 L 42 26 L 37 26 z M 6 28 L 6 30 L 11 30 L 11 28 L 6 28 z M 20 37 L 20 42 L 22 42 L 22 37 L 20 37 z M 24 37 L 24 42 L 26 42 L 26 37 L 24 37 z M 28 37 L 28 42 L 30 42 L 30 37 L 28 37 z "
     transform="scale(0.26458333)"
     id="path861" />
</svg>
