<?xml version="1.0" encoding="UTF-8" standalone="no"?>
<svg
   xmlns:dc="http://purl.org/dc/elements/1.1/"
   xmlns:cc="http://creativecommons.org/ns#"
   xmlns:rdf="http://www.w3.org/1999/02/22-rdf-syntax-ns#"
   xmlns:svg="http://www.w3.org/2000/svg"
   xmlns="http://www.w3.org/2000/svg"
   xmlns:sodipodi="http://sodipodi.sourceforge.net/DTD/sodipodi-0.dtd"
   xmlns:inkscape="http://www.inkscape.org/namespaces/inkscape"
   width="48"
   height="48"
   viewBox="0 0 12.7 12.7"
   version="1.1"
   id="svg4"
   sodipodi:docname="preferences-system-network-ldap.svg"
   inkscape:version="0.92.5 (2060ec1f9f, 2020-04-08)">
  <defs
     id="defs8">
  <style
     id="current-color-scheme"
     type="text/css">
      .ColorScheme-Highlight {
        color:#5beedc;
      }
  </style>
  </defs>
  <path
     class="ColorScheme-Highlight"
     style="fill:#5beedc"
     d="M 24 0 A 24 24 0 0 0 0 24 A 24 24 0 0 0 24 48 A 24 24 0 0 0 48 24 A 24 24 0 0 0 24 0 z M 24 3 A 21 21 0 0 1 45 24 A 21 21 0 0 1 24 45 A 21 21 0 0 1 3 24 A 21 21 0 0 1 24 3 z M 17 10 L 17 11 L 17 36 L 17 37 L 18 37 L 35 37 C 35.554 37 36 36.554 36 36 L 36 11 C 36 10.446 35.554 10 35 10 L 18 10 L 17 10 z M 12 12 L 12 14 L 16 14 L 16 12 L 12 12 z M 19 12 L 34 12 L 34 35 L 19 35 L 19 12 z M 12 16 L 12 18 L 16 18 L 16 16 L 12 16 z M 27 17 A 3 3 0 0 0 24 20 A 3 3 0 0 0 27 23 A 3 3 0 0 0 30 20 A 3 3 0 0 0 27 17 z M 12 20 L 12 22 L 16 22 L 16 20 L 12 20 z M 12 24 L 12 26 L 16 26 L 16 24 L 12 24 z M 23 25 L 23 28.470703 L 31 28.470703 L 31 25 L 23 25 z M 12 28 L 12 30 L 16 30 L 16 28 L 12 28 z M 12 32 L 12 34 L 16 34 L 16 32 L 12 32 z "
     transform="scale(0.26458333)"
     id="path831" />
</svg>
