<?xml version="1.0" encoding="UTF-8" standalone="no"?>
<svg
   xmlns:dc="http://purl.org/dc/elements/1.1/"
   xmlns:cc="http://creativecommons.org/ns#"
   xmlns:rdf="http://www.w3.org/1999/02/22-rdf-syntax-ns#"
   xmlns:svg="http://www.w3.org/2000/svg"
   xmlns="http://www.w3.org/2000/svg"
   xmlns:sodipodi="http://sodipodi.sourceforge.net/DTD/sodipodi-0.dtd"
   xmlns:inkscape="http://www.inkscape.org/namespaces/inkscape"
   width="48"
   height="48"
   viewBox="0 0 12.7 12.7"
   version="1.1"
   id="svg4"
   sodipodi:docname="shares.svg"
   inkscape:version="0.92.5 (2060ec1f9f, 2020-04-08)">
  <defs
     id="defs8">
  <style
     id="current-color-scheme"
     type="text/css">
      .ColorScheme-Highlight {
        color:#5beedc;
      }
  </style>
  </defs>
  <path
     class="ColorScheme-Highlight"
     style="fill:#5beedc"
     d="M 24 0 A 24 24 0 0 0 0 24 A 24 24 0 0 0 24 48 A 24 24 0 0 0 48 24 A 24 24 0 0 0 24 0 z M 24 3 A 21 21 0 0 1 45 24 A 21 21 0 0 1 24 45 A 21 21 0 0 1 3 24 A 21 21 0 0 1 24 3 z M 31.5 10 A 4.4999997 4.4999997 0 0 0 27 14.5 A 4.4999997 4.4999997 0 0 0 27.041016 15.0625 L 27 15 L 15.703125 20.648438 A 4.9999997 4.9999997 0 0 0 12 19 A 4.9999997 4.9999997 0 0 0 7 24 A 4.9999997 4.9999997 0 0 0 12 29 A 4.9999997 4.9999997 0 0 0 15.009766 27.986328 L 15 28 L 27 34 A 4.9999997 4.9999997 0 0 0 32 39 A 4.9999997 4.9999997 0 0 0 37 34 A 4.9999997 4.9999997 0 0 0 32 29 A 4.9999997 4.9999997 0 0 0 28.296875 30.648438 L 17 25 L 16.835938 25.244141 A 4.9999997 4.9999997 0 0 0 17 24 L 28.804688 18.097656 A 4.4999997 4.4999997 0 0 0 31.5 19 A 4.4999997 4.4999997 0 0 0 36 14.5 A 4.4999997 4.4999997 0 0 0 31.5 10 z "
     transform="scale(0.26458333)"
     id="path817" />
</svg>
