<?xml version="1.0" encoding="UTF-8" standalone="no"?>
<svg
   xmlns:dc="http://purl.org/dc/elements/1.1/"
   xmlns:cc="http://creativecommons.org/ns#"
   xmlns:rdf="http://www.w3.org/1999/02/22-rdf-syntax-ns#"
   xmlns:svg="http://www.w3.org/2000/svg"
   xmlns="http://www.w3.org/2000/svg"
   xmlns:sodipodi="http://sodipodi.sourceforge.net/DTD/sodipodi-0.dtd"
   xmlns:inkscape="http://www.inkscape.org/namespaces/inkscape"
   width="48"
   height="48"
   viewBox="0 0 12.7 12.7"
   version="1.1"
   id="svg4"
   sodipodi:docname="proxychains.svg"
   inkscape:version="0.92.5 (2060ec1f9f, 2020-04-08)">
  <metadata
     id="metadata10">
    <rdf:RDF>
      <cc:Work
         rdf:about="">
        <dc:format>image/svg+xml</dc:format>
        <dc:type
           rdf:resource="http://purl.org/dc/dcmitype/StillImage" />
        <dc:title></dc:title>
      </cc:Work>
    </rdf:RDF>
  </metadata>
  <defs
     id="defs8" />
  <sodipodi:namedview
     pagecolor="#ffffff"
     bordercolor="#666666"
     borderopacity="1"
     objecttolerance="10"
     gridtolerance="10"
     guidetolerance="10"
     inkscape:pageopacity="0"
     inkscape:pageshadow="2"
     inkscape:window-width="1085"
     inkscape:window-height="480"
     id="namedview6"
     showgrid="false"
     inkscape:zoom="4.9166667"
     inkscape:cx="2.1355932"
     inkscape:cy="24"
     inkscape:window-x="0"
     inkscape:window-y="25"
     inkscape:window-maximized="0"
     inkscape:current-layer="svg4" />
  <path
     d="m 6.34,0.075 a 6.295,6.295 0 0 0 -6.285,6.285 6.295,6.295 0 0 0 1.287,3.802 6.295,6.295 0 0 0 0.193,0.253 6.295,6.295 0 0 0 0.307,0.33 6.295,6.295 0 0 0 4.498,1.91 A 6.295,6.295 0 0 0 12.634,6.36 6.295,6.295 0 0 0 11.389,2.625 6.295,6.295 0 0 0 11.147,2.307 6.295,6.295 0 0 0 10.728,1.858 6.295,6.295 0 0 0 10.718,1.848 6.295,6.295 0 0 0 6.34,0.074 Z M 6.329,1.015 A 5.408,5.408 0 0 1 9.47,2.034 L 8.861,2.643 A 1.003,1.003 0 0 0 8.027,2.922 L 6.685,4.263 C 6.458,4.491 6.375,4.794 6.407,5.097 l -1.31,1.31 A 1.002,1.002 0 0 0 4.263,6.685 L 2.921,8.027 C 2.693,8.255 2.61,8.558 2.643,8.861 L 1.938,9.566 A 5.407,5.407 0 0 1 0.912,6.402 c 0,-2.987 2.43,-5.387 5.417,-5.387 z m 3.73,1.512 a 5.408,5.408 0 0 1 0.176,0.17 L 9.771,3.161 C 9.737,3.118 9.704,3.074 9.665,3.035 9.645,3.015 9.624,3.001 9.604,2.983 Z m 0.661,0.766 a 5.408,5.408 0 0 1 1.006,3.11 5.407,5.407 0 0 1 -8.526,4.41 L 3.953,10.06 A 0.984,0.984 0 0 0 4.673,9.777 L 6.015,8.436 a 0.983,0.983 0 0 0 0.281,-0.72 l 1.42,-1.42 H 7.718 A 0.983,0.983 0 0 0 8.437,6.014 L 9.779,4.672 a 0.983,0.983 0 0 0 0.281,-0.72 l 0.66,-0.66 z M 8.402,3.502 C 8.38,3.726 8.429,3.97 8.609,4.15 A 0.762,0.762 0 0 0 9.134,4.363 L 8.126,5.37 A 0.763,0.763 0 0 0 7.914,4.844 C 7.734,4.664 7.49,4.615 7.266,4.636 L 8.402,3.501 Z M 9.18,3.505 9.188,3.512 C 9.211,3.535 9.229,3.559 9.248,3.582 9.238,3.586 9.223,3.594 9.213,3.596 9.18,3.603 9.166,3.603 9.157,3.602 9.157,3.592 9.156,3.579 9.163,3.546 9.165,3.535 9.176,3.518 9.18,3.506 Z M 7.366,5.392 c 0,0.01 0.001,0.024 -0.006,0.057 C 7.358,5.459 7.35,5.473 7.346,5.484 7.322,5.465 7.299,5.447 7.276,5.424 L 7.269,5.416 C 7.282,5.411 7.299,5.402 7.309,5.399 A 0.21,0.21 0 0 1 7.366,5.392 Z M 6.747,5.839 c 0.018,0.02 0.033,0.043 0.052,0.062 0.04,0.04 0.083,0.072 0.126,0.106 L 6.007,6.925 C 5.973,6.882 5.94,6.838 5.901,6.799 5.881,6.779 5.86,6.765 5.839,6.747 Z M 4.637,7.265 C 4.616,7.49 4.665,7.735 4.845,7.915 A 0.763,0.763 0 0 0 5.37,8.127 L 4.363,9.134 A 0.763,0.763 0 0 0 4.15,8.609 C 3.97,8.429 3.726,8.38 3.502,8.402 Z M 5.416,7.269 5.424,7.276 C 5.447,7.299 5.465,7.322 5.484,7.346 5.474,7.349 5.458,7.358 5.449,7.36 5.415,7.368 5.402,7.367 5.392,7.366 c 0,-0.01 0,-0.022 0.007,-0.056 C 5.401,7.299 5.411,7.282 5.416,7.269 Z M 3.602,9.157 c 0,0.01 0.001,0.022 -0.006,0.056 C 3.594,9.223 3.585,9.237 3.582,9.247 3.558,9.229 3.535,9.21 3.512,9.187 L 3.505,9.179 C 3.518,9.175 3.535,9.165 3.546,9.163 3.579,9.156 3.593,9.156 3.602,9.157 Z M 2.983,9.604 c 0.018,0.02 0.033,0.042 0.052,0.061 0.04,0.04 0.083,0.072 0.126,0.106 L 2.607,10.325 A 5.407,5.407 0 0 1 2.433,10.154 Z"
     id="path2"
     inkscape:connector-curvature="0"
     style="fill:#5beedc" />
</svg>
