<?xml version="1.0" encoding="UTF-8" standalone="no"?>
<svg
   xmlns:dc="http://purl.org/dc/elements/1.1/"
   xmlns:cc="http://creativecommons.org/ns#"
   xmlns:rdf="http://www.w3.org/1999/02/22-rdf-syntax-ns#"
   xmlns:svg="http://www.w3.org/2000/svg"
   xmlns="http://www.w3.org/2000/svg"
   xmlns:sodipodi="http://sodipodi.sourceforge.net/DTD/sodipodi-0.dtd"
   xmlns:inkscape="http://www.inkscape.org/namespaces/inkscape"
   width="48"
   height="48"
   viewBox="0 0 12.7 12.7"
   version="1.1"
   id="svg4"
   sodipodi:docname="pycharmedu.svg"
   inkscape:version="0.92.5 (2060ec1f9f, 2020-04-08)">
  <defs
     id="defs8">
  <style
     id="current-color-scheme"
     type="text/css">
      .ColorScheme-Highlight {
        color:#5beedc;
      }
  </style>
  </defs>
  <path
     class="ColorScheme-Highlight"
     style="fill:#5beedc"
     d="M 24 0 A 24 24 0 0 0 0 24 A 24 24 0 0 0 24 48 A 24 24 0 0 0 48 24 A 24 24 0 0 0 24 0 z M 24 3 A 21 21 0 0 1 45 24 A 21 21 0 0 1 24 45 A 21 21 0 0 1 3 24 A 21 21 0 0 1 24 3 z M 24 7 A 17.000006 17.000006 0 0 0 7 24 A 17.000006 17.000006 0 0 0 24 41 A 17.000006 17.000006 0 0 0 41 24 A 17.000006 17.000006 0 0 0 24 7 z M 25 19 L 27 19 L 32 19 L 32 21 L 27 21 L 27 23 L 30 23 L 30 25 L 27 25 L 27 27 L 32 27 L 32 29 L 27 29 L 25 29 L 25 19 z M 16 19.011719 L 20.568359 19.011719 C 21.535359 19.011719 22.295656 19.295233 22.847656 19.865234 C 23.400656 20.434234 23.675781 21.216031 23.675781 22.207031 C 23.675781 22.912031 23.481796 23.556625 23.091797 24.140625 C 22.533797 24.974625 21.665328 25.392578 20.486328 25.392578 L 18.089844 25.392578 L 18.089844 29 L 16 29 L 16 19.011719 z M 18.089844 20.738281 L 18.089844 23.664062 L 20.027344 23.664062 C 20.696344 23.664062 21.151578 23.461683 21.392578 23.054688 C 21.522579 22.832689 21.587891 22.518328 21.587891 22.111328 C 21.587891 21.621328 21.441294 21.271594 21.154297 21.058594 C 20.866297 20.845595 20.397047 20.738281 19.748047 20.738281 L 18.089844 20.738281 z M 17 32 L 31 32 L 31 34 L 17 34 L 17 32 z "
     transform="scale(0.26458333)"
     id="path829" />
</svg>
