<?xml version="1.0" encoding="UTF-8" standalone="no"?>
<svg
   xmlns:dc="http://purl.org/dc/elements/1.1/"
   xmlns:cc="http://creativecommons.org/ns#"
   xmlns:rdf="http://www.w3.org/1999/02/22-rdf-syntax-ns#"
   xmlns:svg="http://www.w3.org/2000/svg"
   xmlns="http://www.w3.org/2000/svg"
   xmlns:sodipodi="http://sodipodi.sourceforge.net/DTD/sodipodi-0.dtd"
   xmlns:inkscape="http://www.inkscape.org/namespaces/inkscape"
   width="48"
   height="48"
   viewBox="0 0 12.7 12.7"
   version="1.1"
   id="svg4"
   sodipodi:docname="python.svg"
   inkscape:version="0.92.5 (2060ec1f9f, 2020-04-08)">
  <defs
     id="defs8">
  <style
     id="current-color-scheme"
     type="text/css">
      .ColorScheme-Highlight {
        color:#5beedc;
      }
  </style>
  </defs>
  <path
     class="ColorScheme-Highlight"
     style="fill:#5beedc"
     d="M 24 0 A 24 24 0 0 0 0 24 A 24 24 0 0 0 24 48 A 24 24 0 0 0 48 24 A 24 24 0 0 0 24 0 z M 24 3 A 21 21 0 0 1 45 24 A 21 21 0 0 1 24 45 A 21 21 0 0 1 3 24 A 21 21 0 0 1 24 3 z "
     transform="scale(0.26458333)"
     id="path817" />
  <path
     style="fill:#008080"
     d="m 5.5562499,2.6458333 c -0.5863166,0 -1.0583333,0.4720167 -1.0583333,1.0583333 v 0.79375 H 7.1437499 V 4.7624999 H 4.4979166 3.4395833 c -0.5863167,0 -1.0583333,0.4720167 -1.0583333,1.0583334 v 1.5874999 c 0,0.5863167 0.4720166,1.0583334 1.0583333,1.0583334 H 3.96875 V 7.2098957 C 3.96875,7.0541554 3.999849,6.9057842 4.0566,6.7711629 4.1133508,6.6365416 4.1957873,6.5157026 4.2974122,6.4140788 4.399036,6.312454 4.5198749,6.2300175 4.6544962,6.1732665 c 0.1346214,-0.056751 0.2829925,-0.08785 0.4387329,-0.08785 h 0.4630208 1.5875 c 0.1465792,0 0.2861924,-0.02927 0.4128947,-0.082682 C 7.683347,5.9493215 7.7968945,5.8715216 7.8925414,5.7758747 7.9881882,5.6802279 8.0659882,5.5666803 8.1194009,5.439978 8.1728137,5.3132757 8.2020832,5.1736624 8.2020832,5.0270833 V 3.7041666 c 0,-0.5863166 -0.4720166,-1.0583333 -1.0583333,-1.0583333 z M 5.6885416,3.175 A 0.396875,0.396875 0 0 1 6.0854166,3.571875 0.396875,0.396875 0 0 1 5.6885416,3.96875 0.396875,0.396875 0 0 1 5.2916666,3.571875 0.396875,0.396875 0 0 1 5.6885416,3.175 Z"
     id="path870"
     inkscape:connector-curvature="0" />
  <path
     id="path873"
     d="m 7.14375,10.054167 c 0.5863166,0 1.0583333,-0.4720171 1.0583333,-1.0583338 v -0.79375 H 5.55625 V 7.9374999 h 2.6458333 1.0583333 c 0.5863167,0 1.0583334,-0.4720167 1.0583334,-1.0583333 v -1.5875 c 0,-0.5863167 -0.4720167,-1.0583333 -1.0583334,-1.0583333 H 8.73125 V 5.4901041 C 8.73125,5.6458445 8.700151,5.7942156 8.6434,5.928837 8.586649,6.0634583 8.5042126,6.1842972 8.4025877,6.285921 8.3009639,6.3875459 8.180125,6.4699824 8.0455037,6.5267334 7.9108823,6.5834844 7.7625112,6.6145834 7.6067708,6.6145834 H 7.14375 5.55625 c -0.1465792,0 -0.2861924,0.02927 -0.4128947,0.082682 C 5.0166529,6.7506783 4.9031054,6.8284782 4.8074585,6.9241251 4.7118117,7.019772 4.6340117,7.1333195 4.580599,7.2600218 4.5271862,7.3867242 4.4979167,7.5263374 4.4979167,7.6729166 v 1.3229166 c 0,0.5863167 0.4720166,1.0583338 1.0583333,1.0583338 z M 7.0114583,9.5249999 a 0.396875,0.396875 0 0 1 -0.396875,-0.396875 0.396875,0.396875 0 0 1 0.396875,-0.396875 0.396875,0.396875 0 0 1 0.396875,0.396875 0.396875,0.396875 0 0 1 -0.396875,0.396875 z"
     style="fill:#d4aa00"
     inkscape:connector-curvature="0" />
</svg>
