<?xml version="1.0" encoding="UTF-8" standalone="no"?>
<svg
   xmlns:dc="http://purl.org/dc/elements/1.1/"
   xmlns:cc="http://creativecommons.org/ns#"
   xmlns:rdf="http://www.w3.org/1999/02/22-rdf-syntax-ns#"
   xmlns:svg="http://www.w3.org/2000/svg"
   xmlns="http://www.w3.org/2000/svg"
   xmlns:sodipodi="http://sodipodi.sourceforge.net/DTD/sodipodi-0.dtd"
   xmlns:inkscape="http://www.inkscape.org/namespaces/inkscape"
   width="48"
   height="48"
   viewBox="0 0 12.7 12.7"
   version="1.1"
   id="svg4"
   sodipodi:docname="qelectrotech.svg"
   inkscape:version="0.92.4 (5da689c313, 2019-01-14)">
  <metadata
     id="metadata10">
    <rdf:RDF>
      <cc:Work
         rdf:about="">
        <dc:format>image/svg+xml</dc:format>
        <dc:type
           rdf:resource="http://purl.org/dc/dcmitype/StillImage" />
        <dc:title></dc:title>
      </cc:Work>
    </rdf:RDF>
  </metadata>
  <defs
     id="defs8" />
  <sodipodi:namedview
     pagecolor="#ffffff"
     bordercolor="#666666"
     borderopacity="1"
     objecttolerance="10"
     gridtolerance="10"
     guidetolerance="10"
     inkscape:pageopacity="0"
     inkscape:pageshadow="2"
     inkscape:window-width="1087"
     inkscape:window-height="480"
     id="namedview6"
     showgrid="false"
     inkscape:zoom="4.9166667"
     inkscape:cx="2.1355932"
     inkscape:cy="24"
     inkscape:window-x="0"
     inkscape:window-y="25"
     inkscape:window-maximized="0"
     inkscape:current-layer="svg4" />
  <path
     d="M 6.34,0.07 A 6.29,6.29 0 0 0 0.05,6.37 6.29,6.29 0 0 0 6.35,12.65 6.29,6.29 0 0 0 12.63,6.36 6.29,6.29 0 0 0 6.34,0.07 Z M 6.33,1.01 a 5.4,5.4 0 0 1 5.4,5.4 5.4,5.4 0 0 1 -5.4,5.41 A 5.4,5.4 0 0 1 0.92,6.42 5.4,5.4 0 0 1 6.32,1 Z M 6.28,2.19 c -0.66,0 -1.22,0.5 -1.3,1.14 H 2.68 V 6.35 H 1.93 V 6.73 H 3.82 V 6.35 H 3.06 V 3.7 h 1.9 a 1.32,1.32 0 0 0 2.62,0 H 9.62 V 4.83 H 8.86 v 3.4 h 0.76 v 1.52 h -1.3 a 0.57,0.57 0 1 0 0,0.38 H 10 v -1.9 h 0.75 V 4.83 H 10 V 3.33 H 7.59 A 1.32,1.32 0 0 0 6.29,2.19 Z m 0,0.38 c 0.2,0 0.37,0.06 0.52,0.15 L 6.28,3.24 5.76,2.72 C 5.91,2.62 6.09,2.57 6.28,2.57 Z M 5.5,3 6.02,3.52 5.5,4.04 A 0.95,0.95 0 0 1 5.5,3 Z m 1.58,0 a 0.96,0.96 0 0 1 0,1.04 L 6.56,3.52 Z M 6.29,3.79 6.81,4.31 a 0.95,0.95 0 0 1 -1.04,0 z M 3.45,7.1 H 2.3 v 0.38 h 0.38 v 2.65 h 1.55 c 0.08,0.22 0.28,0.38 0.53,0.38 A 0.57,0.57 0 0 0 5.32,9.82 L 7.32,8.66 7.13,8.33 5.12,9.5 A 0.56,0.56 0 0 0 4.23,9.75 H 3.08 V 7.48 H 3.46 V 7.1 Z m 1.32,2.65 a 0.19,0.19 0 1 1 0,0.38 0.19,0.19 0 0 1 0,-0.38 z m 3.02,0 a 0.19,0.19 0 0 1 0,0.38 0.19,0.19 0 1 1 0,-0.38 z"
     id="path2"
     inkscape:connector-curvature="0"
     style="fill:#5beedc" />
</svg>
