<?xml version="1.0" encoding="UTF-8" standalone="no"?>
<svg
   xmlns:dc="http://purl.org/dc/elements/1.1/"
   xmlns:cc="http://creativecommons.org/ns#"
   xmlns:rdf="http://www.w3.org/1999/02/22-rdf-syntax-ns#"
   xmlns:svg="http://www.w3.org/2000/svg"
   xmlns="http://www.w3.org/2000/svg"
   xmlns:sodipodi="http://sodipodi.sourceforge.net/DTD/sodipodi-0.dtd"
   xmlns:inkscape="http://www.inkscape.org/namespaces/inkscape"
   width="48"
   height="48"
   viewBox="0 0 12.7 12.7"
   version="1.1"
   id="svg4"
   sodipodi:docname="maps.svg"
   inkscape:version="0.92.4 (5da689c313, 2019-01-14)">
  <metadata
     id="metadata10">
    <rdf:RDF>
      <cc:Work
         rdf:about="">
        <dc:format>image/svg+xml</dc:format>
        <dc:type
           rdf:resource="http://purl.org/dc/dcmitype/StillImage" />
        <dc:title></dc:title>
      </cc:Work>
    </rdf:RDF>
  </metadata>
  <defs
     id="defs8" />
  <sodipodi:namedview
     pagecolor="#ffffff"
     bordercolor="#666666"
     borderopacity="1"
     objecttolerance="10"
     gridtolerance="10"
     guidetolerance="10"
     inkscape:pageopacity="0"
     inkscape:pageshadow="2"
     inkscape:window-width="1087"
     inkscape:window-height="480"
     id="namedview6"
     showgrid="false"
     inkscape:zoom="4.9166667"
     inkscape:cx="2.1355932"
     inkscape:cy="24"
     inkscape:window-x="0"
     inkscape:window-y="25"
     inkscape:window-maximized="0"
     inkscape:current-layer="svg4" />
  <path
     d="M 6.34,0.07 A 6.29,6.29 0 0 0 0.05,6.37 6.29,6.29 0 0 0 6.35,12.65 6.29,6.29 0 0 0 12.63,6.36 6.29,6.29 0 0 0 6.34,0.07 Z M 6.33,1.01 a 5.4,5.4 0 0 1 5.4,5.4 5.4,5.4 0 0 1 -5.4,5.41 A 5.4,5.4 0 0 1 0.92,6.42 5.4,5.4 0 0 1 6.32,1 Z m 0,0.8 A 4.61,4.61 0 0 0 6,1.81 4.61,4.61 0 0 0 5.54,1.87 4.61,4.61 0 0 0 5.09,1.97 4.61,4.61 0 0 0 4.66,2.12 4.61,4.61 0 0 0 4.23,2.3 4.61,4.61 0 0 0 3.83,2.53 4.61,4.61 0 0 0 3.46,2.8 4.61,4.61 0 0 0 3.11,3.1 4.61,4.61 0 0 0 2.8,3.44 4.61,4.61 0 0 0 2.52,3.81 4.61,4.61 0 0 0 2.28,4.21 4.61,4.61 0 0 0 2.08,4.61 4.61,4.61 0 0 0 1.92,5.05 4.61,4.61 0 0 0 1.81,5.5 4.61,4.61 0 0 0 1.74,5.96 4.61,4.61 0 0 0 1.71,6.42 4.61,4.61 0 0 0 1.72,6.74 4.61,4.61 0 0 0 1.78,7.2 4.61,4.61 0 0 0 1.88,7.65 4.61,4.61 0 0 0 2.03,8.09 4.61,4.61 0 0 0 2.22,8.51 4.61,4.61 0 0 0 2.44,8.91 4.61,4.61 0 0 0 2.55,9.06 L 5.61,6 A 4.5,4.5 0 0 1 5.27,4.55 2.22,2.22 0 0 1 5.94,2.95 2.32,2.32 0 0 1 7.58,2.29 c 0.31,0 0.62,0.06 0.9,0.17 0.15,0.07 0.27,0.18 0.4,0.28 l 0.1,-0.1 A 4.61,4.61 0 0 0 8.93,2.61 4.61,4.61 0 0 0 8.53,2.37 4.61,4.61 0 0 0 8.13,2.17 4.61,4.61 0 0 0 7.68,2 4.61,4.61 0 0 0 7.23,1.88 4.61,4.61 0 0 0 6.78,1.82 4.61,4.61 0 0 0 6.32,1.79 Z M 7.58,2.68 A 1.9,1.9 0 0 0 5.68,4.95 C 5.91,6.27 6.81,7.21 7.58,7.97 8.34,7.21 9.24,6.27 9.46,4.95 A 2.36,2.36 0 0 0 9.5,4.57 1.9,1.9 0 0 0 7.58,2.67 Z M 9.8,3.39 9.63,3.56 C 9.65,3.6 9.69,3.63 9.7,3.67 A 2.22,2.22 0 0 1 9.84,5.01 4.58,4.58 0 0 1 8.96,7.08 C 8.79,7.31 8.6,7.48 8.42,7.68 l 1.55,1.55 a 4.61,4.61 0 0 0 0.16,-0.2 4.61,4.61 0 0 0 0.24,-0.4 4.61,4.61 0 0 0 0.2,-0.42 A 4.61,4.61 0 0 0 10.73,7.78 4.61,4.61 0 0 0 10.85,7.33 4.61,4.61 0 0 0 10.92,6.88 4.61,4.61 0 0 0 10.94,6.42 4.61,4.61 0 0 0 10.93,6.09 4.61,4.61 0 0 0 10.87,5.63 4.61,4.61 0 0 0 10.77,5.18 4.61,4.61 0 0 0 10.63,4.74 4.61,4.61 0 0 0 10.43,4.32 4.61,4.61 0 0 0 10.21,3.92 4.61,4.61 0 0 0 9.94,3.55 4.61,4.61 0 0 0 9.8,3.39 Z M 7.58,3.8 a 0.8,0.8 0 1 1 0,1.6 0.8,0.8 0 0 1 0,-1.6 z M 5.9,7.3 3.3,9.9 a 4.61,4.61 0 0 0 0.04,0.05 4.61,4.61 0 0 0 0.37,0.28 4.61,4.61 0 0 0 0.4,0.24 4.61,4.61 0 0 0 0.41,0.2 4.61,4.61 0 0 0 0.43,0.16 4.61,4.61 0 0 0 0.45,0.12 4.61,4.61 0 0 0 0.46,0.07 4.61,4.61 0 0 0 0.46,0.02 4.61,4.61 0 0 0 0.32,-0.01 4.61,4.61 0 0 0 0.46,-0.06 4.61,4.61 0 0 0 0.45,-0.1 4.61,4.61 0 0 0 0.44,-0.14 4.61,4.61 0 0 0 0.42,-0.2 4.61,4.61 0 0 0 0.4,-0.22 4.61,4.61 0 0 0 0.06,-0.04 L 5.9,7.29 Z"
     id="path2"
     inkscape:connector-curvature="0"
     style="fill:#5beedc" />
</svg>
