<?xml version="1.0" encoding="UTF-8" standalone="no"?>
<svg
   xmlns:dc="http://purl.org/dc/elements/1.1/"
   xmlns:cc="http://creativecommons.org/ns#"
   xmlns:rdf="http://www.w3.org/1999/02/22-rdf-syntax-ns#"
   xmlns:svg="http://www.w3.org/2000/svg"
   xmlns="http://www.w3.org/2000/svg"
   xmlns:sodipodi="http://sodipodi.sourceforge.net/DTD/sodipodi-0.dtd"
   xmlns:inkscape="http://www.inkscape.org/namespaces/inkscape"
   width="48"
   height="48"
   viewBox="0 0 12.7 12.7"
   version="1.1"
   id="svg4"
   sodipodi:docname="postscript-viewer.svg"
   inkscape:version="0.92.5 (2060ec1f9f, 2020-04-08)">
  <defs
     id="defs8">
  <style
     id="current-color-scheme"
     type="text/css">
      .ColorScheme-Highlight {
        color:#5beedc;
      }
  </style>
  </defs>
  <path
     class="ColorScheme-Highlight"
     style="fill:#5beedc"
     d="M 24 0 A 24 24 0 0 0 0 24 A 24 24 0 0 0 24 48 A 24 24 0 0 0 48 24 A 24 24 0 0 0 24 0 z M 24 3 A 21 21 0 0 1 45 24 A 21 21 0 0 1 24 45 A 21 21 0 0 1 3 24 A 21 21 0 0 1 24 3 z M 16.978516 10.810547 C 16.615515 10.823547 16.227781 10.922469 15.800781 11.105469 C 11.988388 12.73421 14.801672 16.47688 19.65625 19.898438 L 19.658203 19.904297 C 19.501057 23.394382 18.854132 27.332399 17.972656 30.605469 L 17.953125 30.638672 C 14.243957 32.948748 11.923133 35.343204 13.166016 36.925781 C 13.466016 37.308781 13.705422 37.584828 13.982422 37.673828 L 14.431641 37.304688 C 11.981611 35.859091 15.884621 33.764178 17.130859 33.136719 L 17.173828 33.179688 C 16.678 34.554976 15.353345 37.394106 14.431641 37.304688 C 14.431641 37.304688 14.258376 37.447781 13.984375 37.675781 C 15.425375 38.503784 17.320906 35.915922 18.503906 32.294922 C 21.59597 30.440997 27.119694 27.673582 31.371094 25.785156 L 31.382812 25.785156 C 33.432157 26.382005 36.732024 27.072022 38.322266 26.773438 C 38.667261 26.719436 39.610484 26.457267 39.646484 25.697266 C 39.820388 24.777853 39.137048 23.958275 37.828125 23.679688 C 36.222338 23.320193 33.608901 24.008819 31.720703 24.597656 C 28.021203 23.140013 23.907246 20.749026 20.486328 18.513672 L 20.490234 18.513672 C 20.389234 14.341672 19.474844 11.071078 17.339844 10.830078 C 17.225842 10.817077 17.099517 10.810447 16.978516 10.814453 L 16.978516 10.810547 z M 16.701172 11.492188 C 18.436751 11.46385 19.651169 13.972624 19.695312 17.982422 L 19.695312 17.984375 C 15.548312 15.146375 13.932734 12.329062 15.927734 11.664062 C 16.195109 11.553437 16.453189 11.496236 16.701172 11.492188 z M 20.484375 20.46875 C 23.280654 22.33184 26.620228 24.04806 29.753906 25.226562 C 26.207822 26.408516 22.324008 28.111361 19.166016 29.925781 L 19.15625 29.927734 C 19.15962 29.925797 19.162644 29.923813 19.166016 29.921875 C 19.897716 26.971084 20.383102 23.578708 20.484375 20.46875 z M 36.894531 24.341797 C 37.855433 24.342845 39.229732 24.570558 39.494141 25.783203 C 37.89486 26.710563 34.249339 26.202277 32.826172 25.191406 C 32.925717 25.124307 33.035799 25.059642 33.175781 24.998047 C 33.186612 24.99353 33.200139 24.986919 33.210938 24.982422 C 33.66855 24.788923 34.570466 24.604469 36.248047 24.380859 C 36.418988 24.362347 36.617088 24.341494 36.894531 24.341797 z M 33.779297 24.734375 L 33.777344 24.738281 C 33.776032 24.737861 33.772822 24.73869 33.771484 24.738281 C 33.773811 24.737337 33.776972 24.735318 33.779297 24.734375 z "
     transform="scale(0.26458333)"
     id="path817" />
</svg>
