<?xml version="1.0" encoding="UTF-8" standalone="no"?>
<svg
   xmlns:dc="http://purl.org/dc/elements/1.1/"
   xmlns:cc="http://creativecommons.org/ns#"
   xmlns:rdf="http://www.w3.org/1999/02/22-rdf-syntax-ns#"
   xmlns:svg="http://www.w3.org/2000/svg"
   xmlns="http://www.w3.org/2000/svg"
   xmlns:sodipodi="http://sodipodi.sourceforge.net/DTD/sodipodi-0.dtd"
   xmlns:inkscape="http://www.inkscape.org/namespaces/inkscape"
   width="48"
   height="48"
   viewBox="0 0 12.7 12.7"
   version="1.1"
   id="svg6"
   sodipodi:docname="qtcreator.svg"
   inkscape:version="0.92.4 (5da689c313, 2019-01-14)">
  <metadata
     id="metadata12">
    <rdf:RDF>
      <cc:Work
         rdf:about="">
        <dc:format>image/svg+xml</dc:format>
        <dc:type
           rdf:resource="http://purl.org/dc/dcmitype/StillImage" />
        <dc:title></dc:title>
      </cc:Work>
    </rdf:RDF>
  </metadata>
  <defs
     id="defs10" />
  <sodipodi:namedview
     pagecolor="#ffffff"
     bordercolor="#666666"
     borderopacity="1"
     objecttolerance="10"
     gridtolerance="10"
     guidetolerance="10"
     inkscape:pageopacity="0"
     inkscape:pageshadow="2"
     inkscape:window-width="1087"
     inkscape:window-height="480"
     id="namedview8"
     showgrid="false"
     inkscape:zoom="4.9166667"
     inkscape:cx="2.1355932"
     inkscape:cy="24"
     inkscape:window-x="0"
     inkscape:window-y="25"
     inkscape:window-maximized="0"
     inkscape:current-layer="svg6" />
  <path
     d="m 6.34,0.07 a 6.29,6.29 0 0 0 -6.29,6.3 6.29,6.29 0 0 0 6.3,6.28 6.29,6.29 0 0 0 6.28,-6.29 6.29,6.29 0 0 0 -0.32,-1.96 c -0.04,0.15 -0.06,0.27 -0.13,0.45 l -0.1,0.3 -0.1,0.3 -0.26,0.6 a 5.4,5.4 0 0 1 0.01,0.37 5.4,5.4 0 0 1 -4.7,5.35 C 7.01,11.85 6.97,11.92 6.93,12 6.7,12.32 6.55,12.49 6.46,12.55 6.42,12.59 6.4,12.59 6.38,12.58 6.36,12.57 6.36,12.54 6.36,12.49 6.37,12.32 6.5,11.95 6.49,11.82 a 5.4,5.4 0 0 1 -0.16,0 A 5.4,5.4 0 0 1 0.92,6.42 5.4,5.4 0 0 1 6.32,1 5.4,5.4 0 0 1 10.86,3.46 l 0.4,-0.33 C 11.44,3.02 11.57,2.98 11.66,3 A 6.29,6.29 0 0 0 6.34,0.07 Z m -1.96,2.4 c -0.42,0 -0.78,0.07 -1.1,0.2 A 2.03,2.03 0 0 0 2.06,4.05 3.94,3.94 0 0 0 2.03,6.15 c 0.07,0.3 0.2,0.56 0.36,0.79 A 2.05,2.05 0 0 0 3.85,7.8 c 0.02,0.3 0.1,0.57 0.2,0.78 a 1.7,1.7 0 0 0 1.02,0.85 c 0.2,0.06 0.42,0.1 0.64,0.1 H 6.23 V 9.1 H 6.12 C 6,9.1 5.88,9.08 5.76,9.04 A 0.78,0.78 0 0 1 5.44,8.84 C 5.34,8.74 5.26,8.6 5.2,8.43 5.13,8.26 5.09,8.03 5.07,7.77 A 2.14,2.14 0 0 0 6.39,6.87 C 6.54,6.65 6.65,6.39 6.72,6.1 A 3.61,3.61 0 0 0 6.68,4.06 2.3,2.3 0 0 0 6.21,3.21 C 6,2.98 5.74,2.8 5.43,2.67 5.13,2.54 4.78,2.47 4.38,2.47 Z m 0,0.48 a 1.05,1.05 0 0 1 0.96,0.58 c 0.1,0.2 0.17,0.42 0.21,0.7 a 5.78,5.78 0 0 1 0,1.86 C 5.51,6.37 5.44,6.59 5.34,6.79 A 1.05,1.05 0 0 1 4.38,7.37 C 4.15,7.37 3.96,7.32 3.8,7.22 3.64,7.12 3.51,6.98 3.41,6.79 A 2.3,2.3 0 0 1 3.2,6.09 5.79,5.79 0 0 1 3.2,4.22 C 3.24,3.95 3.31,3.72 3.41,3.53 3.51,3.34 3.64,3.2 3.8,3.11 3.96,3.01 4.15,2.95 4.38,2.95 Z m 3.61,0 C 7.92,3.28 7.81,3.52 7.66,3.68 a 0.93,0.93 0 0 1 -0.72,0.3 v 0.38 h 0.55 v 2.33 c 0,0.16 0.03,0.28 0.05,0.4 L 7.6,7.04 C 7.79,6.79 8.2,6.3 8.6,5.82 V 4.36 H 9.53 V 3.86 H 8.6 V 2.96 H 8 Z m 3.66,0.3 c -0.08,0 -0.2,0.06 -0.34,0.15 -0.2,0.12 -0.43,0.31 -0.7,0.55 -0.26,0.24 -0.69,0.74 -1,1.06 0.5,2.1 -0.11,0.16 -0.17,0.14 A 66,66 0 0 0 7.88,7.05 C 7.81,7.15 7.6,7.3 7.53,7.39 7.46,7.49 7.93,8.83 7.85,8.93 7.79,9.01 7.37,7.65 7.27,7.8 L 7.03,8.15 c -0.14,0.3 -0.54,1.11 -0.34,1.95 0.18,0.76 0.12,0.77 0.2,1.05 l -0.32,0.77 c 0,0.15 -0.28,0.8 0.2,0.11 C 7.12,11.13 7.54,10.27 8,9.44 8.3,8.97 8.78,8.2 9.95,6.21 l 1,-1.6 -0.04,-0.02 c 0.07,-0.06 1.36,-1.08 0.8,-1.33 a 0.15,0.15 0 0 0 -0.06,0 z"
     id="path2"
     inkscape:connector-curvature="0"
     style="fill:#5beedc" />
  <path
     d="m 11.21,4.1 c 0,0 0.82,-0.65 0.88,-0.61 0.06,0.04 0.07,0.18 0.03,0.4 A 5.73,5.73 0 0 1 11.8,4.96 c -0.04,0.09 -0.92,0.13 -0.96,0.23 -0.04,0.1 0.91,-0.05 0.87,0.05 l -0.26,0.58 c -0.17,0.4 -0.26,0.7 -0.47,1.14 L 10.82,7.29 C 10.77,7.39 9.36,7.52 9.31,7.63 9.25,7.73 10.8,7.43 10.74,7.53 10.69,7.64 10.38,8.15 10.33,8.26 A 37.24,37.24 0 0 1 9.32,10 c -0.06,0.09 -1.54,0.14 -1.59,0.22 -0.05,0.08 1.53,-0.07 1.48,0 l -0.36,0.46 c -0.2,0.25 -0.08,0.13 -0.33,0.38 -0.25,0.24 -1.58,0.26 -1.43,0.02 1.08,-2.47 2.68,-4.59 4.12,-7 z"
     id="path4"
     inkscape:connector-curvature="0"
     style="color:#000000;opacity:0.75;fill:#5beedc" />
</svg>
