<?xml version="1.0" encoding="UTF-8" standalone="no"?>
<svg
   xmlns:dc="http://purl.org/dc/elements/1.1/"
   xmlns:cc="http://creativecommons.org/ns#"
   xmlns:rdf="http://www.w3.org/1999/02/22-rdf-syntax-ns#"
   xmlns:svg="http://www.w3.org/2000/svg"
   xmlns="http://www.w3.org/2000/svg"
   xmlns:sodipodi="http://sodipodi.sourceforge.net/DTD/sodipodi-0.dtd"
   xmlns:inkscape="http://www.inkscape.org/namespaces/inkscape"
   width="48"
   height="48"
   viewBox="0 0 12.7 12.7"
   version="1.1"
   id="svg4"
   sodipodi:docname="easymp3gain.svg"
   inkscape:version="0.92.4 (5da689c313, 2019-01-14)">
  <metadata
     id="metadata10">
    <rdf:RDF>
      <cc:Work
         rdf:about="">
        <dc:format>image/svg+xml</dc:format>
        <dc:type
           rdf:resource="http://purl.org/dc/dcmitype/StillImage" />
        <dc:title></dc:title>
      </cc:Work>
    </rdf:RDF>
  </metadata>
  <defs
     id="defs8" />
  <sodipodi:namedview
     pagecolor="#ffffff"
     bordercolor="#666666"
     borderopacity="1"
     objecttolerance="10"
     gridtolerance="10"
     guidetolerance="10"
     inkscape:pageopacity="0"
     inkscape:pageshadow="2"
     inkscape:window-width="862"
     inkscape:window-height="480"
     id="namedview6"
     showgrid="false"
     inkscape:zoom="4.9166667"
     inkscape:cx="2.1355932"
     inkscape:cy="24"
     inkscape:window-x="0"
     inkscape:window-y="25"
     inkscape:window-maximized="0"
     inkscape:current-layer="svg4" />
  <path
     d="m 6.34,0.07 a 6.29,6.29 0 1 0 0,12.58 6.29,6.29 0 0 0 0,-12.58 z M 6.32,1 a 5.412,5.412 0 0 1 4.884,3.1 L 11.047,7.47 10.935,5.238 C 10.941,5.192 10.88,5.144 10.809,5.141 10.737,5.137 10.665,5.177 10.659,5.223 L 10.467,6.012 10.012,3.876 V 3.86 C 9.984,3.78 9.76,3.787 9.745,3.867 V 3.882 L 9.559,8.14 9.403,5.625 C 9.406,5.579 9.347,5.538 9.276,5.536 9.204,5.534 9.138,5.572 9.134,5.618 V 5.633 L 8.696,7.74 8.48,6.036 V 6.013 C 8.46,5.933 8.245,5.927 8.22,6.006 L 8.174,6.162 V 3.61 C 8.159,3.53 7.934,3.524 7.906,3.603 V 3.61 L 7.393,8.097 6.954,6.005 c -0.022,-0.08 -0.246,-0.08 -0.268,0 L 6.396,7.062 H 0.959 A 5.4,5.4 0 0 1 6.32,1 Z M 3.263,3.214 V 4.895 A 0.91,0.91 0 0 0 2.866,4.801 0.93,0.93 0 0 0 1.94,5.727 0.93,0.93 0 0 0 2.866,6.653 0.93,0.93 0 0 0 3.792,5.727 V 3.743 H 5.38 V 4.895 A 0.91,0.91 0 0 0 4.983,4.801 0.93,0.93 0 0 0 4.057,5.727 0.93,0.93 0 0 0 4.983,6.653 0.93,0.93 0 0 0 5.909,5.727 V 3.214 Z m 8.17,1.674 0.182,2.64 a 5.352,5.352 0 0 1 -0.35,1.078 z m -1.465,0.037 0.35,1.69 c 0.022,0.079 0.245,0.079 0.267,0 l 0.127,-0.477 0.155,3.205 A 5.423,5.423 0 0 1 9.71,10.628 Z M 2.866,5.33 c 0.222,0 0.397,0.175 0.397,0.397 A 0.393,0.393 0 0 1 2.866,6.124 0.393,0.393 0 0 1 2.469,5.727 C 2.469,5.505 2.644,5.33 2.866,5.33 Z m 2.117,0 c 0.222,0 0.397,0.175 0.397,0.397 A 0.393,0.393 0 0 1 4.983,6.124 0.393,0.393 0 0 1 4.586,5.727 C 4.586,5.505 4.76,5.33 4.983,5.33 Z M 7.906,5.953 V 7.18 C 7.912,7.292 8.142,7.311 8.174,7.203 L 8.309,6.719 8.532,8.542 v 0.022 c 0.019,0.08 0.242,0.08 0.267,0 V 8.55 L 9.194,6.637 9.439,10.7 c 0.01,0.032 0.054,0.048 0.103,0.054 A 5.4,5.4 0 0 1 0.992,7.299 h 5.523 c 0.061,0 0.122,-0.044 0.134,-0.096 L 6.805,6.6 7.296,8.959 C 7.3,9.005 7.366,9.043 7.438,9.041 7.509,9.038 7.568,8.997 7.564,8.951 V 8.93 L 7.906,5.954 Z"
     id="path2"
     inkscape:connector-curvature="0"
     style="fill:#5beedc" />
</svg>
