<?xml version="1.0" encoding="UTF-8" standalone="no"?>
<svg
   xmlns:dc="http://purl.org/dc/elements/1.1/"
   xmlns:cc="http://creativecommons.org/ns#"
   xmlns:rdf="http://www.w3.org/1999/02/22-rdf-syntax-ns#"
   xmlns:svg="http://www.w3.org/2000/svg"
   xmlns="http://www.w3.org/2000/svg"
   xmlns:sodipodi="http://sodipodi.sourceforge.net/DTD/sodipodi-0.dtd"
   xmlns:inkscape="http://www.inkscape.org/namespaces/inkscape"
   width="48"
   height="48"
   viewBox="0 0 12.7 12.7"
   version="1.1"
   id="svg4"
   sodipodi:docname="octave.svg"
   inkscape:version="0.92.5 (2060ec1f9f, 2020-04-08)">
  <defs
     id="defs8">
  <style
     id="current-color-scheme"
     type="text/css">
      .ColorScheme-Highlight {
        color:#5beedc;
      }
  </style>
  </defs>
  <path
     class="ColorScheme-Highlight"
     style="fill:#5beedc"
     d="M 24 0 A 24 24 0 0 0 0 24 A 24 24 0 0 0 24 48 A 24 24 0 0 0 48 24 A 24 24 0 0 0 24 0 z M 24 3 A 21 21 0 0 1 45 24 A 21 21 0 0 1 24 45 A 21 21 0 0 1 3 24 A 21 21 0 0 1 24 3 z M 24 9 A 15 15 0 0 0 9.5605469 20 L 6 20 L 6 28 L 9.5605469 28 A 15 15 0 0 0 24 39 A 15 15 0 0 0 31.431641 37 L 37 37 L 37 31.431641 A 15 15 0 0 0 39 24 A 15 15 0 0 0 37 16.568359 L 37 11 L 31.431641 11 A 15 15 0 0 0 24 9 z M 24 11 A 13 13 0 0 1 25.296875 11.064453 A 13 13 0 0 1 26.582031 11.259766 A 13 13 0 0 1 27.841797 11.580078 A 13 13 0 0 1 29.0625 12.025391 A 13 13 0 0 1 30.232422 12.591797 A 13 13 0 0 1 31 13.0625 L 31 17 L 34.953125 17 A 13 13 0 0 1 35.585938 18.103516 A 13 13 0 0 1 36.117188 19.289062 A 13 13 0 0 1 36.525391 20.523438 A 13 13 0 0 1 36.810547 21.791016 A 13 13 0 0 1 36.966797 23.080078 A 13 13 0 0 1 37 24 A 13 13 0 0 1 36.935547 25.296875 A 13 13 0 0 1 36.740234 26.582031 A 13 13 0 0 1 36.419922 27.841797 A 13 13 0 0 1 35.974609 29.0625 A 13 13 0 0 1 35.408203 30.232422 A 13 13 0 0 1 34.9375 31 L 31 31 L 31 34.953125 A 13 13 0 0 1 29.896484 35.585938 A 13 13 0 0 1 28.710938 36.117188 A 13 13 0 0 1 27.476562 36.525391 A 13 13 0 0 1 26.208984 36.810547 A 13 13 0 0 1 24.919922 36.966797 A 13 13 0 0 1 24 37 A 13 13 0 0 1 22.703125 36.935547 A 13 13 0 0 1 21.417969 36.740234 A 13 13 0 0 1 20.158203 36.419922 A 13 13 0 0 1 18.9375 35.974609 A 13 13 0 0 1 17.767578 35.408203 A 13 13 0 0 1 16.660156 34.728516 A 13 13 0 0 1 15.625 33.943359 A 13 13 0 0 1 14.673828 33.056641 A 13 13 0 0 1 13.816406 32.080078 A 13 13 0 0 1 13.060547 31.023438 A 13 13 0 0 1 12.414062 29.896484 A 13 13 0 0 1 11.882812 28.710938 A 13 13 0 0 1 11.648438 28 L 14 28 L 14 20 L 11.638672 20 A 13 13 0 0 1 12.025391 18.9375 A 13 13 0 0 1 12.591797 17.767578 A 13 13 0 0 1 13.271484 16.660156 A 13 13 0 0 1 14.056641 15.625 A 13 13 0 0 1 14.943359 14.673828 A 13 13 0 0 1 15.919922 13.816406 A 13 13 0 0 1 16.976562 13.060547 A 13 13 0 0 1 18.103516 12.414062 A 13 13 0 0 1 19.289062 11.882812 A 13 13 0 0 1 20.523438 11.474609 A 13 13 0 0 1 21.791016 11.189453 A 13 13 0 0 1 23.080078 11.033203 A 13 13 0 0 1 24 11 z "
     transform="scale(0.26458333)"
     id="path817" />
</svg>
