<?xml version="1.0" encoding="UTF-8" standalone="no"?>
<svg
   xmlns:dc="http://purl.org/dc/elements/1.1/"
   xmlns:cc="http://creativecommons.org/ns#"
   xmlns:rdf="http://www.w3.org/1999/02/22-rdf-syntax-ns#"
   xmlns:svg="http://www.w3.org/2000/svg"
   xmlns="http://www.w3.org/2000/svg"
   xmlns:sodipodi="http://sodipodi.sourceforge.net/DTD/sodipodi-0.dtd"
   xmlns:inkscape="http://www.inkscape.org/namespaces/inkscape"
   width="48"
   height="48"
   viewBox="0 0 12.7 12.7"
   version="1.1"
   id="svg4"
   sodipodi:docname="quassel.svg"
   inkscape:version="0.92.4 (5da689c313, 2019-01-14)">
  <metadata
     id="metadata10">
    <rdf:RDF>
      <cc:Work
         rdf:about="">
        <dc:format>image/svg+xml</dc:format>
        <dc:type
           rdf:resource="http://purl.org/dc/dcmitype/StillImage" />
        <dc:title></dc:title>
      </cc:Work>
    </rdf:RDF>
  </metadata>
  <defs
     id="defs8" />
  <sodipodi:namedview
     pagecolor="#ffffff"
     bordercolor="#666666"
     borderopacity="1"
     objecttolerance="10"
     gridtolerance="10"
     guidetolerance="10"
     inkscape:pageopacity="0"
     inkscape:pageshadow="2"
     inkscape:window-width="1087"
     inkscape:window-height="480"
     id="namedview6"
     showgrid="false"
     inkscape:zoom="4.9166667"
     inkscape:cx="2.1355932"
     inkscape:cy="24"
     inkscape:window-x="0"
     inkscape:window-y="25"
     inkscape:window-maximized="0"
     inkscape:current-layer="svg4" />
  <path
     d="M 6.35,0.06 A 6.29,6.29 0 0 0 0.06,6.36 6.29,6.29 0 0 0 6.36,12.64 6.29,6.29 0 0 0 12.64,6.35 6.29,6.29 0 0 0 6.35,0.06 Z M 6.33,1 a 5.4,5.4 0 0 1 5.4,5.4 5.4,5.4 0 0 1 -5.4,5.41 A 5.4,5.4 0 0 1 0.93,6.41 5.4,5.4 0 0 1 6.33,1 Z m 0.02,0.65 a 4.76,4.76 0 1 0 0,9.52 4.76,4.76 0 0 0 0,-9.52 z m 0,1 a 3.77,3.77 0 1 1 0,7.53 3.77,3.77 0 0 1 0,-7.54 z M 7.74,6 a 1.79,1.79 0 1 0 0,3.58 1.79,1.79 0 0 0 0,-3.58 z M 7.76,6.44 7.91,6.5 C 7.91,6.53 7.87,6.58 7.86,6.62 7.82,6.7 7.86,6.67 7.9,6.67 7.96,6.69 7.88,6.75 7.85,6.74 7.82,6.68 7.81,6.68 7.74,6.72 7.67,6.75 7.58,6.75 7.55,6.82 7.53,6.87 7.48,6.92 7.47,6.85 7.45,6.81 7.39,6.75 7.45,6.72 7.49,6.69 7.47,6.62 7.42,6.62 7.39,6.58 7.31,6.57 7.37,6.53 L 7.23,6.58 C 7.15,6.58 7.28,6.6 7.3,6.59 7.33,6.63 7.35,6.67 7.4,6.68 7.35,6.77 7.29,6.68 7.22,6.65 7.18,6.62 7.13,6.65 7.1,6.69 L 7.14,6.68 C 7.17,6.68 7.19,6.69 7.2,6.72 7.2,6.78 7.13,6.73 7.1,6.7 L 7.08,6.74 C 7.03,6.78 7,6.74 7.04,6.69 7.08,6.66 7.1,6.63 7.09,6.57 7.11,6.52 7.13,6.67 7.14,6.57 7.2,6.56 7.24,6.51 7.29,6.51 7.34,6.51 7.36,6.45 7.41,6.46 7.5,6.46 7.35,6.54 7.44,6.51 7.54,6.47 7.65,6.45 7.76,6.44 Z M 8.39,6.67 C 8.43,6.69 8.46,6.71 8.5,6.71 8.56,6.71 8.6,6.73 8.53,6.75 8.45,6.74 8.51,6.78 8.55,6.82 8.59,6.82 8.61,6.69 8.65,6.77 8.89,6.99 9.05,7.27 9.1,7.6 9.05,7.7 9.02,7.53 8.94,7.57 8.9,7.56 8.86,7.47 8.87,7.57 8.87,7.61 8.93,7.63 8.95,7.66 8.99,7.57 9.03,7.67 9.02,7.73 9,7.78 8.95,7.81 8.9,7.84 8.84,7.89 8.8,7.94 8.92,7.9 8.92,7.97 8.88,8.03 8.86,8.1 a 0.38,0.38 0 0 0 -0.1,0.16 c 0,0.07 -0.02,0.15 0,0.22 0,0.05 -0.08,0.07 -0.1,0.1 -0.09,0.03 0.05,0.07 0,0.1 C 8.59,8.71 8.64,8.76 8.59,8.79 8.56,8.82 8.53,8.89 8.49,8.89 8.43,8.87 8.41,8.93 8.35,8.92 A 0.58,0.58 0 0 0 8.3,8.68 0.31,0.31 0 0 1 8.3,8.42 C 8.3,8.37 8.25,8.33 8.27,8.29 8.29,8.23 8.23,8.21 8.22,8.17 8.24,8.13 8.25,8.07 8.2,8.04 8.15,8.07 8.12,8.02 8.09,8.04 8.04,8.11 8.02,8.01 7.99,8.06 7.91,8.13 7.84,7.96 7.79,7.91 7.79,7.87 7.74,7.82 7.79,7.78 7.84,7.74 7.75,7.71 7.79,7.67 7.83,7.56 7.92,7.49 7.99,7.41 8.07,7.38 8.16,7.35 8.24,7.39 l 0.1,0.09 C 8.36,7.43 8.42,7.44 8.46,7.46 c 0.04,0 0.1,0.03 0.13,0 C 8.64,7.43 8.67,7.38 8.6,7.36 8.51,7.4 8.49,7.26 8.43,7.29 8.43,7.35 8.41,7.39 8.37,7.32 8.37,7.27 8.35,7.22 8.3,7.21 8.26,7.21 8.38,7.27 8.32,7.31 8.27,7.36 8.3,7.31 8.29,7.28 8.24,7.27 8.22,7.19 8.17,7.22 8.12,7.22 8.12,7.27 8.07,7.28 8.07,7.33 8.03,7.37 7.98,7.38 7.95,7.34 7.9,7.36 7.92,7.28 7.9,7.23 7.97,7.21 8.02,7.2 8.08,7.21 8,7.13 7.99,7.12 8.03,7.12 8.09,7.1 8.1,7.06 8.1,6.99 8.21,7.04 8.18,6.98 8.19,6.92 8.21,6.97 8.23,6.99 8.28,7.02 8.32,6.99 8.35,6.95 8.35,6.92 8.45,6.87 8.42,6.87 8.34,6.91 8.37,6.8 8.4,6.77 8.35,6.76 8.32,6.81 8.3,6.84 8.3,6.87 8.3,6.94 8.27,6.95 8.23,6.95 8.21,6.87 8.17,6.92 8.13,6.97 8.13,6.85 8.14,6.84 8.17,6.8 8.24,6.8 8.22,6.74 8.27,6.7 8.33,6.69 8.39,6.67 Z M 6.93,6.7 C 6.97,6.7 7.02,6.74 6.99,6.79 6.96,6.85 6.86,6.88 6.8,6.92 6.8,6.98 6.86,6.98 6.9,7 6.94,7.03 6.93,7.12 6.96,7.03 6.97,6.98 7.04,6.99 7.03,6.93 7.05,6.9 7.06,6.82 7.11,6.87 7.17,6.88 7.11,6.97 7.18,6.92 7.24,6.91 7.2,7.02 7.24,7.01 7.3,7.02 7.25,7.08 7.31,7.1 7.28,7.17 7.27,7.14 7.26,7.08 A 0.27,0.27 0 0 1 7.13,7.1 C 7.09,7.12 6.99,7.15 7.08,7.15 7.13,7.15 7.21,7.13 7.14,7.19 7.12,7.25 7.04,7.19 7.02,7.26 7.01,7.31 6.92,7.29 6.92,7.34 6.9,7.4 6.86,7.44 6.82,7.46 6.77,7.49 6.8,7.55 6.78,7.6 6.75,7.56 6.73,7.52 6.68,7.52 6.64,7.52 6.62,7.56 6.57,7.55 6.53,7.58 6.48,7.61 6.49,7.67 6.48,7.71 6.5,7.77 6.55,7.77 6.6,7.74 6.68,7.64 6.65,7.77 6.59,7.87 6.73,7.77 6.7,7.87 6.69,7.93 6.79,8 6.82,7.94 6.86,7.91 6.89,7.84 6.93,7.9 c 0.04,0.04 0.09,0.04 0.14,0.03 0.04,0 0.04,0.07 0.06,0.1 0.05,0 0.1,0.03 0.1,0.08 0.07,0.07 0.18,0.1 0.26,0.15 0,0.04 0,0.1 -0.04,0.13 C 7.4,8.43 7.43,8.49 7.44,8.55 7.41,8.58 7.41,8.65 7.35,8.65 7.31,8.65 7.27,8.71 7.3,8.75 L 7.24,8.87 C 7.18,8.87 7.17,8.92 7.14,8.96 7.13,9.06 7,8.96 6.94,8.92 L 6.96,8.78 A 0.2,0.2 0 0 1 6.94,8.64 C 6.96,8.58 6.91,8.54 6.86,8.5 6.8,8.46 6.79,8.4 6.76,8.34 6.71,8.29 6.72,8.24 6.74,8.2 6.72,8.16 6.77,8.13 6.78,8.09 6.78,8.05 6.83,7.99 6.77,7.99 6.72,8.01 6.69,7.96 6.65,7.93 6.62,7.87 6.55,7.88 6.49,7.85 6.43,7.82 6.38,7.78 6.36,7.71 6.39,7.41 6.52,7.11 6.73,6.88 6.78,6.78 6.91,6.8 6.93,6.7 Z m 1.06,0.12 c 0.03,0 0.03,0.05 0.05,0.08 0.03,0.04 0.07,0.07 0,0.1 C 7.97,7.04 7.97,7 7.99,6.95 8,6.9 7.96,6.87 7.97,6.82 Z M 7.91,6.9 c 0.02,0.03 0.05,0.06 0,0.07 C 7.87,7 7.86,6.9 7.91,6.9 Z m 0.72,0.64 c -0.03,0.02 0,0.05 0,0.07 0.03,0.08 0.1,0.14 0.1,0.22 C 8.72,7.9 8.86,7.94 8.8,7.88 8.77,7.84 8.83,7.8 8.77,7.78 8.73,7.7 8.7,7.6 8.63,7.54 Z"
     id="path2"
     inkscape:connector-curvature="0"
     style="fill:#5beedc" />
</svg>
