<?xml version="1.0" encoding="UTF-8" standalone="no"?>
<svg
   xmlns:dc="http://purl.org/dc/elements/1.1/"
   xmlns:cc="http://creativecommons.org/ns#"
   xmlns:rdf="http://www.w3.org/1999/02/22-rdf-syntax-ns#"
   xmlns:svg="http://www.w3.org/2000/svg"
   xmlns="http://www.w3.org/2000/svg"
   xmlns:sodipodi="http://sodipodi.sourceforge.net/DTD/sodipodi-0.dtd"
   xmlns:inkscape="http://www.inkscape.org/namespaces/inkscape"
   width="48"
   height="48"
   version="1.1"
   viewBox="0 0 12.7 12.7"
   id="svg4"
   sodipodi:docname="quimup.svg"
   inkscape:version="0.92.4 (5da689c313, 2019-01-14)">
  <metadata
     id="metadata10">
    <rdf:RDF>
      <cc:Work
         rdf:about="">
        <dc:format>image/svg+xml</dc:format>
        <dc:type
           rdf:resource="http://purl.org/dc/dcmitype/StillImage" />
        <dc:title></dc:title>
      </cc:Work>
    </rdf:RDF>
  </metadata>
  <defs
     id="defs8" />
  <sodipodi:namedview
     pagecolor="#ffffff"
     bordercolor="#666666"
     borderopacity="1"
     objecttolerance="10"
     gridtolerance="10"
     guidetolerance="10"
     inkscape:pageopacity="0"
     inkscape:pageshadow="2"
     inkscape:window-width="1136"
     inkscape:window-height="480"
     id="namedview6"
     showgrid="false"
     inkscape:zoom="4.9166667"
     inkscape:cx="2.1355932"
     inkscape:cy="24"
     inkscape:window-x="0"
     inkscape:window-y="25"
     inkscape:window-maximized="0"
     inkscape:current-layer="svg4" />
  <path
     d="M 6.3396014,0.07544763 C 2.8712222,0.08119457 0.06111798,2.8913726 0.05529722,6.3597518 0.0552946,8.3353971 0.98389365,10.077101 2.4081014,11.231199 L 2.9005641,10.559933 C 1.6956139,9.5681812 0.91155748,8.0840461 0.91155748,6.401529 c 0,-2.9865791 2.43122562,-5.3865842 5.41780472,-5.3865842 0.7807226,0.0015 1.5180277,0.1762182 2.1879443,0.4754238 L 9.5249859,0.96896075 C 8.587526,0.41474502 7.5074311,0.07547409 6.3397072,0.07547409 Z M 10.925831,0.79372942 1.4475172,5.6961322 6.0234283,7.0035278 2.4277861,11.905931 11.252588,6.0232589 6.6766763,5.0424609 10.926096,0.79357067 Z M 10.687606,1.8334494 10.022028,2.4990269 c 1.039483,0.9813272 1.698366,2.3610855 1.704266,3.902555 0,2.986579 -2.4208804,5.4074861 -5.4074859,5.4074861 -0.7585773,0 -1.4790022,-0.158798 -2.1342081,-0.44079 l -0.7828923,0.521407 c 0.8802577,0.470609 1.8700515,0.763023 2.9378964,0.764795 3.4765812,0 6.2946229,-2.8180412 6.2946229,-6.2946224 -0.003,-1.7825284 -0.753762,-3.3829199 -1.946621,-4.52617 z"
     id="path2"
     inkscape:connector-curvature="0"
     style="fill:#5beedc;stroke-width:1.04387391" />
</svg>
