<?xml version="1.0" encoding="UTF-8" standalone="no"?>
<svg
   xmlns:dc="http://purl.org/dc/elements/1.1/"
   xmlns:cc="http://creativecommons.org/ns#"
   xmlns:rdf="http://www.w3.org/1999/02/22-rdf-syntax-ns#"
   xmlns:svg="http://www.w3.org/2000/svg"
   xmlns="http://www.w3.org/2000/svg"
   xmlns:sodipodi="http://sodipodi.sourceforge.net/DTD/sodipodi-0.dtd"
   xmlns:inkscape="http://www.inkscape.org/namespaces/inkscape"
   width="48"
   height="48"
   viewBox="0 0 12.7 12.7"
   version="1.1"
   id="svg4"
   sodipodi:docname="r.svg"
   inkscape:version="0.92.5 (2060ec1f9f, 2020-04-08)">
  <defs
     id="defs8">
  <style
     id="current-color-scheme"
     type="text/css">
      .ColorScheme-Highlight {
        color:#5beedc;
      }
  </style>
  </defs>
  <path
     class="ColorScheme-Highlight"
     style="opacity:0.6;fill:#5beedc"
     d="M 23 9 A 17 13.499999 0 0 0 6 22.5 A 17 13.499999 0 0 0 23 36 A 17 13.499999 0 0 0 40 22.5 A 17 13.499999 0 0 0 23 9 z M 25.5 15 A 12.499999 8.9999996 0 0 1 38 24 A 12.499999 8.9999996 0 0 1 25.5 33 A 12.499999 8.9999996 0 0 1 13 24 A 12.499999 8.9999996 0 0 1 25.5 15 z "
     transform="scale(0.26458333)"
     id="path837" />
  <path
     class="ColorScheme-Highlight"
     style="fill:#5beedc"
     d="M 24 0 A 24 24 0 0 0 0 24 A 24 24 0 0 0 24 48 A 24 24 0 0 0 48 24 A 24 24 0 0 0 24 0 z M 24 3 A 21 21 0 0 1 45 24 A 21 21 0 0 1 24 45 A 21 21 0 0 1 3 24 A 21 21 0 0 1 24 3 z M 19 18 L 19 38 L 24 38 L 24 30 L 24.777344 30 L 31 38 L 36 38 L 29.738281 29.949219 A 6 6 0 0 0 35 24 A 6 6 0 0 0 29 18 L 24 18 L 19 18 z M 24 22 L 29 22 A 2 2 0 0 1 31 24 A 2 2 0 0 1 29 26 L 24 26 L 24 22 z "
     transform="scale(0.26458333)"
     id="path817" />
</svg>
