<?xml version="1.0" encoding="UTF-8" standalone="no"?>
<svg
   xmlns:dc="http://purl.org/dc/elements/1.1/"
   xmlns:cc="http://creativecommons.org/ns#"
   xmlns:rdf="http://www.w3.org/1999/02/22-rdf-syntax-ns#"
   xmlns:svg="http://www.w3.org/2000/svg"
   xmlns="http://www.w3.org/2000/svg"
   xmlns:sodipodi="http://sodipodi.sourceforge.net/DTD/sodipodi-0.dtd"
   xmlns:inkscape="http://www.inkscape.org/namespaces/inkscape"
   width="48"
   height="48"
   viewBox="0 0 12.7 12.7"
   version="1.1"
   id="svg4"
   sodipodi:docname="radare2.svg"
   inkscape:version="0.92.5 (2060ec1f9f, 2020-04-08)">
  <metadata
     id="metadata10">
    <rdf:RDF>
      <cc:Work
         rdf:about="">
        <dc:format>image/svg+xml</dc:format>
        <dc:type
           rdf:resource="http://purl.org/dc/dcmitype/StillImage" />
        <dc:title></dc:title>
      </cc:Work>
    </rdf:RDF>
  </metadata>
  <defs
     id="defs8" />
  <sodipodi:namedview
     pagecolor="#ffffff"
     bordercolor="#666666"
     borderopacity="1"
     objecttolerance="10"
     gridtolerance="10"
     guidetolerance="10"
     inkscape:pageopacity="0"
     inkscape:pageshadow="2"
     inkscape:window-width="1085"
     inkscape:window-height="480"
     id="namedview6"
     showgrid="false"
     inkscape:zoom="4.9166667"
     inkscape:cx="2.1355932"
     inkscape:cy="24"
     inkscape:window-x="0"
     inkscape:window-y="25"
     inkscape:window-maximized="0"
     inkscape:current-layer="svg4" />
  <path
     d="M 6.34,0.075 A 6.295,6.295 0 0 0 0.055,6.36 6.295,6.295 0 0 0 6.34,12.655 6.295,6.295 0 0 0 12.634,6.36 6.295,6.295 0 0 0 6.34,0.075 Z m -0.011,0.94 a 5.408,5.408 0 0 1 5.397,5.387 5.407,5.407 0 0 1 -10.814,0 c 0,-2.987 2.43,-5.387 5.417,-5.387 z M 10.95,4.864 10.054,5.327 C 9.561,5.582 8.909,5.916 8.604,6.068 L 8.051,6.346 9.468,7.044 c 0.779,0.384 1.43,0.7 1.45,0.7 0.017,0.002 0.032,-0.645 0.032,-1.438 z M 2.494,4.876 C 2.239,4.863 2.01,4.979 1.842,5.226 1.707,5.425 1.722,5.759 1.877,5.976 2.019,6.176 2.317,6.303 2.55,6.264 2.935,6.199 3.232,5.761 3.125,5.414 3.098,5.325 3.083,5.244 3.092,5.234 3.141,5.186 3.312,5.344 3.385,5.505 3.46,5.669 3.469,5.805 3.47,6.718 l 10e-4,1.03 H 3.25 c -0.121,0 -0.22,0.02 -0.22,0.044 0,0.028 0.398,0.044 1.106,0.044 0.954,0 1.106,-0.01 1.106,-0.066 0,-0.047 -0.046,-0.067 -0.154,-0.067 H 4.93 V 5.048 H 5.086 C 5.171,5.048 5.24,5.031 5.24,5.011 5.24,4.976 4.324,4.915 3.795,4.915 H 3.558 v 0.64 L 3.303,5.3 C 3.03,5.031 2.749,4.889 2.493,4.876 Z m 5.424,0.006 -2.87,1.435 2.87,1.468 0.013,-0.727 c 0.006,-0.4 0.006,-1.053 0,-1.452 z"
     id="path2"
     inkscape:connector-curvature="0"
     style="fill:#5beedc" />
</svg>
