<?xml version="1.0" encoding="UTF-8" standalone="no"?>
<svg
   xmlns:dc="http://purl.org/dc/elements/1.1/"
   xmlns:cc="http://creativecommons.org/ns#"
   xmlns:rdf="http://www.w3.org/1999/02/22-rdf-syntax-ns#"
   xmlns:svg="http://www.w3.org/2000/svg"
   xmlns="http://www.w3.org/2000/svg"
   xmlns:sodipodi="http://sodipodi.sourceforge.net/DTD/sodipodi-0.dtd"
   xmlns:inkscape="http://www.inkscape.org/namespaces/inkscape"
   width="48"
   height="48"
   viewBox="0 0 12.7 12.7"
   version="1.1"
   id="svg4"
   sodipodi:docname="gx_head.svg"
   inkscape:version="0.92.4 (5da689c313, 2019-01-14)">
  <metadata
     id="metadata10">
    <rdf:RDF>
      <cc:Work
         rdf:about="">
        <dc:format>image/svg+xml</dc:format>
        <dc:type
           rdf:resource="http://purl.org/dc/dcmitype/StillImage" />
        <dc:title></dc:title>
      </cc:Work>
    </rdf:RDF>
  </metadata>
  <defs
     id="defs8" />
  <sodipodi:namedview
     pagecolor="#ffffff"
     bordercolor="#666666"
     borderopacity="1"
     objecttolerance="10"
     gridtolerance="10"
     guidetolerance="10"
     inkscape:pageopacity="0"
     inkscape:pageshadow="2"
     inkscape:window-width="1087"
     inkscape:window-height="480"
     id="namedview6"
     showgrid="false"
     inkscape:zoom="4.9166667"
     inkscape:cx="2.1355932"
     inkscape:cy="24"
     inkscape:window-x="0"
     inkscape:window-y="25"
     inkscape:window-maximized="0"
     inkscape:current-layer="svg4" />
  <path
     d="M 6.35,0.061 A 6.29,6.29 0 0 0 0.061,6.351 6.29,6.29 0 0 0 6.351,12.639 6.29,6.29 0 0 0 12.639,6.351 6.29,6.29 0 0 0 6.351,0.06 Z M 6.332,0.997 A 5.407,5.407 0 0 1 11.739,6.404 5.407,5.407 0 0 1 6.332,11.811 5.407,5.407 0 0 1 0.925,6.404 5.407,5.407 0 0 1 6.332,0.997 Z M 6.269,1.547 C 4.408,1.547 2.956,2.458 1.914,4.28 A 5.164,5.164 0 0 0 1.446,6.448 c 0,0.888 0.23,1.694 0.687,2.417 l 0.658,-0.63 h 0.036 c 0.04,0.01 0.059,0.032 0.059,0.066 v 0.095 c -0.05,0 -0.259,0.198 -0.629,0.594 v 0.036 l 0.694,-0.66 c 0.03,0 0.071,0.042 0.125,0.125 L 2.381,9.209 H 2.418 C 2.418,9.185 2.647,8.956 3.105,8.521 3.158,8.565 3.2,8.587 3.229,8.587 V 8.674 C 2.771,9.138 2.542,9.38 2.542,9.4 h 0.03 c 0,-0.03 0.24,-0.271 0.723,-0.726 L 3.39,8.807 V 8.836 L 2.667,9.59 h 0.028 c 0,-0.03 0.242,-0.27 0.724,-0.725 h 0.03 c 0.029,0 0.06,0.032 0.094,0.095 V 8.99 L 2.856,9.715 v 0.03 L 3.609,9.026 c 0.03,0 0.07,0.042 0.124,0.125 L 3.01,9.905 h 0.036 c 0,-0.029 0.24,-0.271 0.717,-0.725 L 3.791,9.246 3.046,10.03 c 1.028,0.84 2.07,1.26 3.128,1.26 2.036,0 3.563,-0.975 4.581,-2.923 0.273,-0.723 0.41,-1.384 0.41,-1.985 0,-1.563 -0.712,-2.903 -2.134,-4.021 A 5.1,5.1 0 0 0 6.269,1.548 Z m 2.134,1.824 h 0.065 c 0.03,0 0.071,0.052 0.125,0.154 V 3.592 L 8.498,3.716 v 0.029 l 0.029,0.066 c 0.268,-0.127 0.509,-0.19 0.723,-0.19 0.497,0 0.8,0.334 0.906,1.003 C 10.001,5.21 9.708,5.503 9.28,5.503 H 9.155 C 8.989,5.503 8.812,5.483 8.622,5.445 8.354,5.445 8.176,5.601 8.088,5.913 7.888,6.69 7.545,7.349 7.058,7.891 L 6.927,7.986 H 6.897 C 6.459,7.776 6.135,7.671 5.925,7.671 H 5.867 c -0.331,0 -0.677,0.178 -1.038,0.535 -0.044,0 -0.065,-0.02 -0.065,-0.059 0.029,0 1.159,-1.133 3.39,-3.398 0.17,-0.176 0.348,-0.3 0.533,-0.374 V 4.28 C 8.667,4.133 8.605,4.06 8.497,4.06 A 0.32,0.32 0 0 0 8.307,4.214 V 4.345 L 8.403,4.47 A 260.75,260.75 0 0 1 4.735,8.147 C 4.7,8.147 4.659,8.103 4.61,8.016 6.685,5.9 7.752,4.844 7.81,4.844 7.913,4.844 7.964,4.78 7.964,4.654 V 4.594 C 7.93,4.512 7.857,4.47 7.744,4.47 7.647,4.51 7.596,4.55 7.591,4.595 v 0.124 l 0.088,0.125 c -0.93,0.962 -1.41,1.443 -1.44,1.443 0,0.039 -0.167,0.207 -0.503,0.505 0,0.025 -0.252,0.286 -0.753,0.784 C 4.734,7.8 4.61,7.937 4.61,7.986 H 4.581 C 4.547,7.986 4.505,7.945 4.457,7.862 V 7.832 C 6.132,6.113 7,5.254 7.058,5.254 A 0.184,0.184 0 0 0 7.241,5.129 V 5.064 C 7.241,4.951 7.18,4.878 7.058,4.844 6.931,4.878 6.868,4.951 6.868,5.064 V 5.129 L 6.963,5.254 C 6.203,6.04 5.355,6.888 4.42,7.796 H 4.36 C 4.36,7.756 4.339,7.737 4.295,7.737 V 7.671 C 5.64,6.27 6.37,5.57 6.488,5.57 L 6.525,5.504 V 5.379 C 6.491,5.296 6.418,5.255 6.305,5.255 c -0.107,0.03 -0.16,0.102 -0.16,0.22 0,0.048 0.031,0.112 0.094,0.19 C 4.929,6.984 4.262,7.643 4.237,7.643 L 4.106,7.518 c 0,-0.029 0.377,-0.407 1.132,-1.135 A 1.24,1.24 0 0 1 5.801,5.943 V 5.79 C 5.801,5.756 5.76,5.714 5.677,5.665 H 5.553 c -0.034,0 -0.076,0.042 -0.124,0.125 v 0.124 l 0.087,0.125 c 0,0.03 -0.48,0.51 -1.44,1.443 C 4.043,7.482 4.001,7.44 3.952,7.357 4.498,6.757 4.864,6.422 5.049,6.354 A 0.248,0.248 0 0 0 5.078,6.229 C 5.078,6.102 5.005,6.039 4.858,6.039 4.766,6.078 4.715,6.119 4.705,6.163 V 6.325 L 4.764,6.42 V 6.449 C 4.223,6.996 3.952,7.289 3.952,7.328 H 3.923 C 3.889,7.328 3.857,7.296 3.828,7.233 V 7.203 C 4.14,6.963 4.296,6.608 4.296,6.134 4.608,5.948 4.764,5.844 4.764,5.819 c -0.02,0 -0.03,-0.01 -0.03,-0.03 L 4.581,5.819 C 4.498,5.79 4.457,5.697 4.457,5.541 a 0.64,0.64 0 0 1 0.467,-0.22 c 0.054,0 0.096,0.083 0.125,0.25 L 4.954,5.695 V 5.724 H 5.019 C 5.312,5.567 5.458,5.474 5.458,5.446 V 5.409 H 5.268 C 5.214,5.409 5.173,5.326 5.143,5.159 5.294,5.013 5.419,4.94 5.516,4.94 h 0.132 c 0.053,0 0.095,0.083 0.124,0.25 -0.034,0 -0.076,0.043 -0.124,0.131 L 5.706,5.35 C 6.018,5.18 6.174,5.084 6.174,5.065 L 6.144,5.005 5.991,5.035 C 5.938,5.035 5.896,4.952 5.867,4.786 A 0.508,0.508 0 0 1 6.334,4.53 c 0.025,0 0.076,0.073 0.154,0.22 L 6.364,4.91 V 4.94 C 6.72,4.813 6.897,4.718 6.897,4.654 6.668,4.63 6.554,4.537 6.554,4.376 6.694,4.229 6.841,4.156 6.992,4.156 h 0.066 c 0.054,0 0.095,0.083 0.125,0.25 -0.035,0 -0.076,0.04 -0.125,0.124 L 7.116,4.567 C 7.331,4.474 7.489,4.379 7.591,4.281 V 4.215 L 7.431,4.251 H 7.4 c -0.053,0 -0.095,-0.095 -0.124,-0.285 0.156,-0.147 0.312,-0.22 0.468,-0.22 0.063,0 0.114,0.095 0.153,0.286 -0.083,0.03 -0.124,0.06 -0.124,0.095 L 7.81,4.186 8.307,3.936 V 3.84 H 8.117 C 8.034,3.806 7.992,3.733 7.992,3.62 V 3.592 a 0.465,0.465 0 0 1 0.41,-0.22 z m -4.67,3.927 c 0.034,0 0.076,0.041 0.125,0.124 C 3.808,7.427 3.558,7.669 3.105,8.147 3.041,8.181 3.01,8.223 3.01,8.272 H 2.95 c -0.034,0 -0.066,-0.032 -0.095,-0.095 0,-0.025 0.293,-0.318 0.877,-0.88 z m 0.154,0.153 c 0.087,0.034 0.131,0.067 0.131,0.096 0,0.024 -0.294,0.317 -0.884,0.879 H 3.104 C 3.075,8.426 3.044,8.394 3.01,8.33 V 8.301 C 3.536,7.735 3.828,7.451 3.887,7.451 Z m 0.16,0.125 c 0.049,0 0.08,0.054 0.095,0.161 0,0.03 -0.24,0.28 -0.723,0.754 C 3.356,8.531 3.324,8.572 3.324,8.616 H 3.294 C 3.241,8.572 3.2,8.55 3.17,8.55 V 8.455 c 0,-0.025 0.293,-0.318 0.877,-0.88 z m 0.154,0.19 c 0.034,0 0.076,0.042 0.124,0.125 0,0.024 -0.292,0.317 -0.877,0.879 -0.029,0 -0.07,-0.042 -0.124,-0.125 0,-0.024 0.292,-0.317 0.877,-0.879 z m 0.16,0.162 c 0.025,0 0.076,0.05 0.154,0.153 -0.054,0 -0.2,0.137 -0.438,0.41 -0.278,0.293 -0.446,0.44 -0.505,0.44 L 3.485,8.807 c 0,-0.03 0.292,-0.323 0.876,-0.88 z m 0.154,0.183 h 0.066 c 0.04,0.01 0.059,0.032 0.059,0.066 v 0.058 c 0,0.03 -0.293,0.325 -0.877,0.886 h -0.03 c 0,-0.039 -0.032,-0.092 -0.095,-0.16 z m 0.19,0.124 0.03,0.066 c 0,0.025 -0.293,0.317 -0.877,0.879 H 3.828 V 9.12 c 0,-0.024 0.293,-0.32 0.877,-0.886 z"
     font-size="14.983"
     font-weight="400"
     letter-spacing="0"
     style="font-weight:400;font-size:14.9829998px;line-height:1.25;font-family:'Electric Guitar Icons';-inkscape-font-specification:'Electric Guitar Icons';letter-spacing:0;word-spacing:0;fill:#5beedc"
     word-spacing="0"
     id="path2"
     inkscape:connector-curvature="0" />
</svg>
