<?xml version="1.0" encoding="UTF-8" standalone="no"?>
<svg
   xmlns:dc="http://purl.org/dc/elements/1.1/"
   xmlns:cc="http://creativecommons.org/ns#"
   xmlns:rdf="http://www.w3.org/1999/02/22-rdf-syntax-ns#"
   xmlns:svg="http://www.w3.org/2000/svg"
   xmlns="http://www.w3.org/2000/svg"
   xmlns:sodipodi="http://sodipodi.sourceforge.net/DTD/sodipodi-0.dtd"
   xmlns:inkscape="http://www.inkscape.org/namespaces/inkscape"
   width="48"
   height="48"
   viewBox="0 0 12.7 12.7"
   version="1.1"
   id="svg4"
   sodipodi:docname="reaver.svg"
   inkscape:version="0.92.5 (2060ec1f9f, 2020-04-08)">
  <defs
     id="defs8">
  <style
     id="current-color-scheme"
     type="text/css">
      .ColorScheme-Highlight {
        color:#5beedc;
      }
  </style>
  </defs>
  <path
     class="ColorScheme-Highlight"
     style="fill:#5beedc"
     d="M 24 0 A 24 24 0 0 0 0 24 A 24 24 0 0 0 24 48 A 24 24 0 0 0 48 24 A 24 24 0 0 0 24 0 z M 24 3 A 21 21 0 0 1 45 24 A 21 21 0 0 1 24 45 A 21 21 0 0 1 3 24 A 21 21 0 0 1 24 3 z "
     transform="scale(0.26458333)"
     id="path833" />
  <path
     style="fill:#ff5555"
     d="M 24 7 A 17.000006 17.000006 0 0 0 7 24 A 17.000006 17.000006 0 0 0 23 40.951172 L 23 39 L 23 24.824219 A 3.0000056 3.0000056 0 0 1 21 22 A 3.0000056 3.0000056 0 0 1 24 19 A 3.0000056 3.0000056 0 0 1 27 22 A 3.0000056 3.0000056 0 0 1 25 24.826172 L 25 39 L 25 40.964844 A 17.000006 17.000006 0 0 0 41 24 A 17.000006 17.000006 0 0 0 24 7 z M 14.8125 12.8125 L 16.226562 14.226562 A 11.000006 11.000006 0 0 0 13 22 A 11.000006 11.000006 0 0 0 16.226562 29.773438 L 14.8125 31.1875 A 13.000006 13.000006 0 0 1 11 22 A 13.000006 13.000006 0 0 1 14.8125 12.8125 z M 33.1875 12.8125 A 13.000006 13.000006 0 0 1 37 22 A 13.000006 13.000006 0 0 1 33.1875 31.1875 L 31.773438 29.773438 A 11.000006 11.000006 0 0 0 35 22 A 11.000006 11.000006 0 0 0 31.773438 14.226562 L 33.1875 12.8125 z M 18.345703 16.345703 L 19.759766 17.759766 A 6.0000052 6.0000052 0 0 0 18 22 A 6.0000052 6.0000052 0 0 0 19.759766 26.240234 L 18.345703 27.654297 A 8.0000053 8.0000053 0 0 1 16 22 A 8.0000053 8.0000053 0 0 1 18.345703 16.345703 z M 29.654297 16.345703 A 8.0000053 8.0000053 0 0 1 32 22 A 8.0000053 8.0000053 0 0 1 29.654297 27.654297 L 28.240234 26.240234 A 6.0000052 6.0000052 0 0 0 30 22 A 6.0000052 6.0000052 0 0 0 28.240234 17.759766 L 29.654297 16.345703 z "
     transform="scale(0.26458333)"
     id="path860" />
</svg>
