<?xml version="1.0" encoding="UTF-8" standalone="no"?>
<svg
   xmlns:dc="http://purl.org/dc/elements/1.1/"
   xmlns:cc="http://creativecommons.org/ns#"
   xmlns:rdf="http://www.w3.org/1999/02/22-rdf-syntax-ns#"
   xmlns:svg="http://www.w3.org/2000/svg"
   xmlns="http://www.w3.org/2000/svg"
   xmlns:sodipodi="http://sodipodi.sourceforge.net/DTD/sodipodi-0.dtd"
   xmlns:inkscape="http://www.inkscape.org/namespaces/inkscape"
   width="48"
   height="48"
   viewBox="0 0 12.7 12.7"
   version="1.1"
   id="svg4"
   sodipodi:docname="roccat.svg"
   inkscape:version="0.92.4 (5da689c313, 2019-01-14)">
  <metadata
     id="metadata10">
    <rdf:RDF>
      <cc:Work
         rdf:about="">
        <dc:format>image/svg+xml</dc:format>
        <dc:type
           rdf:resource="http://purl.org/dc/dcmitype/StillImage" />
        <dc:title></dc:title>
      </cc:Work>
    </rdf:RDF>
  </metadata>
  <defs
     id="defs8" />
  <sodipodi:namedview
     pagecolor="#ffffff"
     bordercolor="#666666"
     borderopacity="1"
     objecttolerance="10"
     gridtolerance="10"
     guidetolerance="10"
     inkscape:pageopacity="0"
     inkscape:pageshadow="2"
     inkscape:window-width="861"
     inkscape:window-height="480"
     id="namedview6"
     showgrid="false"
     inkscape:zoom="4.9166667"
     inkscape:cx="2.1355932"
     inkscape:cy="24"
     inkscape:window-x="0"
     inkscape:window-y="25"
     inkscape:window-maximized="0"
     inkscape:current-layer="svg4" />
  <path
     d="m 6.344,0.072 a 6.29,6.29 0 0 0 -6.289,6.29 6.29,6.29 0 0 0 6.29,6.29 6.29,6.29 0 0 0 6.29,-6.29 6.29,6.29 0 0 0 -6.292,-6.29 z M 5.821,1.037 C 6.602,1.181 7.375,1.476 7.998,1.908 8.546,2.294 9.001,3.032 9.299,3.618 9.465,3.944 9.32,3.945 8.633,3.7 8.103,3.51 7.502,3.318 7.461,3.364 7.444,3.382 7.398,3.494 7.361,3.611 7.288,3.833 7.103,4.067 7.071,4.035 7.061,4.025 7.081,3.885 7.115,3.722 7.19,3.369 7.194,3.182 7.133,2.901 7.068,2.595 7.029,2.576 6.677,2.681 6.514,2.729 6.163,2.817 5.897,2.875 5.102,3.05 4.658,3.263 4.165,3.56 3.875,3.734 3.812,3.742 3.848,3.597 3.894,3.413 3.765,3.472 3.432,3.789 3.118,4.087 3.022,4.142 3.022,4.023 3.022,3.883 2.939,3.974 2.778,4.289 A 7.438,7.438 0 0 0 2.488,4.937 C 2.392,5.195 2.306,5.327 2.035,5.63 1.51,6.216 1.49,6.34 1.919,6.34 c 0.318,0 0.327,0.082 0.016,0.149 l -0.21,0.045 0.004,0.258 c 0.005,0.351 0.114,0.566 0.34,0.672 0.109,0.05 0.206,0.136 0.254,0.226 0.078,0.146 0.29,0.352 0.36,0.352 0.021,0 0.026,-0.093 0.013,-0.206 C 2.669,7.606 2.762,7.347 2.898,7.274 2.96,7.241 2.996,7.261 3.086,7.379 3.197,7.524 3.397,7.681 3.43,7.649 3.44,7.639 3.4,7.509 3.341,7.36 3.181,6.952 3.195,6.89 3.415,6.698 3.665,6.481 3.93,6.368 4.108,6.401 4.382,6.452 4.932,6.891 4.991,7.129 5.027,7.271 4.941,7.466 4.784,7.598 4.622,7.735 4.326,7.914 4.221,7.914 4.177,7.914 4.051,7.835 3.941,7.739 3.831,7.642 3.731,7.574 3.719,7.586 3.706,7.598 3.718,7.682 3.742,7.772 3.767,7.862 3.788,7.959 3.788,7.989 3.788,8.082 3.55,8.046 3.299,7.914 A 2.943,2.943 0 0 0 3.039,7.786 c -0.077,0 0.212,0.993 0.347,1.173 0.1,0.134 0.202,0.205 0.33,0.214 0.17,0.01 0.389,-0.09 0.715,-0.308 0.541,-0.363 0.93,-0.693 1.473,-0.78 0.297,-0.05 0.45,0.01 0.666,0.26 0.297,0.345 0.976,1.993 0.907,2.174 -0.74,0.476 -1.553,0.59 -2.369,0.597 -0.721,0.02 -1.291,-0.113 -1.897,-0.284 A 5.407,5.407 0 0 1 0.919,6.416 5.407,5.407 0 0 1 5.82,1.037 Z M 3.496,4.726 c 0.022,0 0.038,0.006 0.048,0.015 C 3.64,4.829 3.333,5.18 3.109,5.237 2.719,5.337 2.631,5.269 2.834,5.03 2.952,4.892 3.348,4.719 3.496,4.726 Z m 6.36,0.833 c 0.644,0.037 1.248,0.164 1.841,0.285 A 5.407,5.407 0 0 1 11.734,6.416 5.407,5.407 0 0 1 11.717,6.748 10.017,10.017 0 0 0 11.172,6.533 C 10.381,6.246 9.247,6.086 8.23,6.028 7.796,6.003 7.634,5.916 7.741,5.871 8.421,5.745 8.562,5.559 9.856,5.559 Z m -1.33,1.309 c 0.478,-0.02 2.039,0.14 2.885,0.306 0.027,0.006 0.153,0.028 0.255,0.047 A 5.407,5.407 0 0 1 11.487,8.028 C 11.417,7.991 11.333,7.948 11.294,7.926 10.717,7.614 9.848,7.299 9.019,7.1 8.28,6.923 8.311,6.934 8.392,6.888 a 0.377,0.377 0 0 1 0.134,-0.02 z m 0.45,1.024 c 0.362,0 1.633,0.23 2.265,0.42 l 0.127,0.042 A 5.407,5.407 0 0 1 11.117,8.915 C 10.558,8.635 9.717,8.255 9.177,8.062 8.983,7.993 8.86,7.927 8.882,7.905 8.892,7.895 8.925,7.891 8.977,7.892 Z"
     id="path2"
     inkscape:connector-curvature="0"
     style="fill:#5beedc" />
</svg>
