<?xml version="1.0" encoding="UTF-8" standalone="no"?>
<svg
   xmlns:dc="http://purl.org/dc/elements/1.1/"
   xmlns:cc="http://creativecommons.org/ns#"
   xmlns:rdf="http://www.w3.org/1999/02/22-rdf-syntax-ns#"
   xmlns:svg="http://www.w3.org/2000/svg"
   xmlns="http://www.w3.org/2000/svg"
   xmlns:sodipodi="http://sodipodi.sourceforge.net/DTD/sodipodi-0.dtd"
   xmlns:inkscape="http://www.inkscape.org/namespaces/inkscape"
   width="48"
   height="48"
   viewBox="0 0 12.7 12.7"
   version="1.1"
   id="svg4"
   sodipodi:docname="yarock.svg"
   inkscape:version="0.92.4 (5da689c313, 2019-01-14)">
  <metadata
     id="metadata10">
    <rdf:RDF>
      <cc:Work
         rdf:about="">
        <dc:format>image/svg+xml</dc:format>
        <dc:type
           rdf:resource="http://purl.org/dc/dcmitype/StillImage" />
        <dc:title></dc:title>
      </cc:Work>
    </rdf:RDF>
  </metadata>
  <defs
     id="defs8" />
  <sodipodi:namedview
     pagecolor="#ffffff"
     bordercolor="#666666"
     borderopacity="1"
     objecttolerance="10"
     gridtolerance="10"
     guidetolerance="10"
     inkscape:pageopacity="0"
     inkscape:pageshadow="2"
     inkscape:window-width="1087"
     inkscape:window-height="480"
     id="namedview6"
     showgrid="false"
     inkscape:zoom="4.9166667"
     inkscape:cx="2.1355932"
     inkscape:cy="24"
     inkscape:window-x="0"
     inkscape:window-y="25"
     inkscape:window-maximized="0"
     inkscape:current-layer="svg4" />
  <path
     d="M 6.34,0.07 A 6.29,6.29 0 0 0 0.05,6.37 6.29,6.29 0 0 0 6.35,12.65 6.29,6.29 0 0 0 12.63,6.36 6.29,6.29 0 0 0 6.34,0.07 Z M 6.32,1 6.33,1.01 a 5.4,5.4 0 0 1 5.4,5.4 5.4,5.4 0 0 1 -5.4,5.41 A 5.4,5.4 0 0 1 0.92,6.42 5.4,5.4 0 0 1 6.32,1 Z M 4.438,2.496 A 0.516,0.516 0 0 0 3.907,3.013 v 3.79 A 0.756,0.756 0 0 1 4.436,6.615 H 4.939 V 3.013 A 0.516,0.516 0 0 0 4.439,2.496 Z M 8.28,3.265 A 0.516,0.516 0 0 0 7.748,3.781 v 3.601 c 0,0.416 -0.34,0.769 -0.768,0.769 A 0.77,0.77 0 0 1 6.338,7.798 0.835,0.835 0 0 1 5.658,8.151 H 5.065 a 0.126,0.126 0 0 1 0,-0.252 h 0.63 A 0.504,0.504 0 0 0 6.199,7.358 0.469,0.469 0 0 0 5.947,6.942 V 7.118 A 0.126,0.126 0 0 1 5.821,7.244 H 5.254 a 0.063,0.063 0 0 1 0,-0.126 h 0.504 c 0.038,0 0.063,-0.025 0.063,-0.063 V 6.88 L 5.695,6.867 H 4.411 A 0.518,0.518 0 0 0 3.894,7.383 v 0.504 a 2.317,2.317 0 0 0 2.343,2.318 H 6.488 A 2.319,2.319 0 0 0 8.806,7.887 L 8.78,7.9 V 3.78 A 0.516,0.516 0 0 0 8.279,3.264 Z M 7.008,4.675 A 0.516,0.516 0 0 0 6.476,5.191 v 2.191 a 0.5165,0.5165 0 0 0 1.033,0 V 5.192 A 0.516,0.516 0 0 0 7.008,4.675 Z m -1.285,0 A 0.516,0.516 0 0 0 5.191,5.191 L 5.204,6.615 H 5.708 A 0.756,0.756 0 0 1 6.224,6.803 V 5.191 a 0.516,0.516 0 0 0 -0.5,-0.515 z"
     id="path2"
     inkscape:connector-curvature="0"
     style="fill:#5beedc" />
</svg>
