<?xml version="1.0" encoding="UTF-8" standalone="no"?>
<svg
   xmlns:dc="http://purl.org/dc/elements/1.1/"
   xmlns:cc="http://creativecommons.org/ns#"
   xmlns:rdf="http://www.w3.org/1999/02/22-rdf-syntax-ns#"
   xmlns:svg="http://www.w3.org/2000/svg"
   xmlns="http://www.w3.org/2000/svg"
   xmlns:sodipodi="http://sodipodi.sourceforge.net/DTD/sodipodi-0.dtd"
   xmlns:inkscape="http://www.inkscape.org/namespaces/inkscape"
   width="48"
   height="48"
   viewBox="0 0 12.7 12.7"
   version="1.1"
   id="svg4"
   sodipodi:docname="rocs.svg"
   inkscape:version="0.92.4 (5da689c313, 2019-01-14)">
  <metadata
     id="metadata10">
    <rdf:RDF>
      <cc:Work
         rdf:about="">
        <dc:format>image/svg+xml</dc:format>
        <dc:type
           rdf:resource="http://purl.org/dc/dcmitype/StillImage" />
        <dc:title></dc:title>
      </cc:Work>
    </rdf:RDF>
  </metadata>
  <defs
     id="defs8" />
  <sodipodi:namedview
     pagecolor="#ffffff"
     bordercolor="#666666"
     borderopacity="1"
     objecttolerance="10"
     gridtolerance="10"
     guidetolerance="10"
     inkscape:pageopacity="0"
     inkscape:pageshadow="2"
     inkscape:window-width="1138"
     inkscape:window-height="480"
     id="namedview6"
     showgrid="false"
     inkscape:zoom="4.9166667"
     inkscape:cx="2.1355932"
     inkscape:cy="24"
     inkscape:window-x="0"
     inkscape:window-y="25"
     inkscape:window-maximized="0"
     inkscape:current-layer="svg4" />
  <path
     d="m 6.344,0.072 a 6.29,6.29 0 0 0 -6.29,6.29 6.29,6.29 0 0 0 6.29,6.289 6.29,6.29 0 0 0 6.29,-6.29 6.29,6.29 0 0 0 -6.29,-6.29 z M 6.326,1.009 A 5.407,5.407 0 0 1 11.733,6.416 5.407,5.407 0 0 1 6.326,11.823 5.407,5.407 0 0 1 0.92,6.416 5.407,5.407 0 0 1 6.326,1.01 Z M 6.284,2.315 a 0.397,0.397 0 0 0 -0.397,0.396 0.397,0.397 0 0 0 0.12,0.285 l -0.48,1.04 A 0.397,0.397 0 0 0 5.49,4.034 0.397,0.397 0 0 0 5.183,4.181 l -1.122,-0.4 a 0.397,0.397 0 0 0 -0.116,-0.265 0.397,0.397 0 0 0 -0.56,0 0.397,0.397 0 0 0 0,0.561 0.397,0.397 0 0 0 0.264,0.116 l 0.4,1.121 A 0.397,0.397 0 0 0 3.903,5.622 H 3.638 L 3.341,5.658 2.315,5.781 v 1.27 L 3.34,7.174 A 3.043,3.043 0 0 0 3.666,7.961 L 3.029,8.774 3.926,9.671 4.739,9.034 a 3.043,3.043 0 0 0 0.787,0.325 l 0.123,1.026 h 1.27 L 7.042,9.36 A 3.043,3.043 0 0 0 7.829,9.034 L 8.641,9.671 9.539,8.774 8.901,7.961 8.716,7.726 8.513,7.522 A 0.397,0.397 0 0 0 8.665,7.209 0.397,0.397 0 0 0 8.663,7.173 l 1.04,-0.48 A 0.397,0.397 0 0 0 9.988,6.813 0.397,0.397 0 0 0 10.385,6.416 0.397,0.397 0 0 0 9.988,6.019 0.397,0.397 0 0 0 9.704,6.139 L 8.663,5.659 A 0.397,0.397 0 0 0 8.665,5.622 0.397,0.397 0 0 0 8.519,5.314 l 0.4,-1.121 a 0.397,0.397 0 0 0 0.264,-0.116 0.397,0.397 0 0 0 0,-0.56 0.397,0.397 0 0 0 -0.56,0 0.397,0.397 0 0 0 -0.117,0.264 l -1.12,0.4 A 0.397,0.397 0 0 0 7.078,4.035 0.397,0.397 0 0 0 7.041,4.037 L 6.561,2.997 A 0.397,0.397 0 0 0 6.681,2.712 0.397,0.397 0 0 0 6.284,2.315 Z m 0.037,0.792 0.48,1.04 A 0.397,0.397 0 0 0 6.704,4.299 H 5.864 A 0.397,0.397 0 0 0 5.767,4.147 l 0.48,-1.04 A 0.397,0.397 0 0 0 6.284,3.109 0.397,0.397 0 0 0 6.321,3.107 Z M 3.983,4.033 5.093,4.43 a 0.397,0.397 0 0 0 0,0.001 0.397,0.397 0 0 0 0.04,0.17 L 4.47,5.264 A 0.397,0.397 0 0 0 4.3,5.225 a 0.397,0.397 0 0 0 -0.002,0 L 3.902,4.115 A 0.397,0.397 0 0 0 3.945,4.077 0.397,0.397 0 0 0 3.983,4.033 Z m 4.602,0 A 0.397,0.397 0 0 0 8.622,4.077 0.397,0.397 0 0 0 8.666,4.115 L 8.269,5.225 A 0.397,0.397 0 0 0 8.098,5.265 L 7.435,4.602 a 0.397,0.397 0 0 0 0.04,-0.17 0.397,0.397 0 0 0 0,-0.001 z m -2.721,0.53 h 0.84 a 0.397,0.397 0 0 0 0.374,0.265 0.397,0.397 0 0 0 0.17,-0.039 l 0.663,0.663 a 0.397,0.397 0 0 0 -0.04,0.17 0.397,0.397 0 0 0 0.265,0.375 v 0.84 A 0.397,0.397 0 0 0 7.871,7.21 0.397,0.397 0 0 0 7.965,7.465 1.984,1.984 0 0 1 6.284,8.401 1.984,1.984 0 0 1 4.299,6.416 1.984,1.984 0 0 1 4.341,6.016 0.397,0.397 0 0 0 4.696,5.622 0.397,0.397 0 0 0 4.657,5.452 L 5.319,4.789 A 0.397,0.397 0 0 0 5.49,4.829 0.397,0.397 0 0 0 5.864,4.564 Z m 2.688,1.335 1.041,0.48 A 0.397,0.397 0 0 0 9.591,6.416 0.397,0.397 0 0 0 9.593,6.452 l -1.04,0.48 A 0.397,0.397 0 0 0 8.401,6.836 v -0.84 a 0.397,0.397 0 0 0 0.15,-0.098 z"
     id="path2"
     inkscape:connector-curvature="0"
     style="fill:#5beedc" />
</svg>
