<?xml version="1.0" encoding="UTF-8" standalone="no"?>
<svg
   xmlns:dc="http://purl.org/dc/elements/1.1/"
   xmlns:cc="http://creativecommons.org/ns#"
   xmlns:rdf="http://www.w3.org/1999/02/22-rdf-syntax-ns#"
   xmlns:svg="http://www.w3.org/2000/svg"
   xmlns="http://www.w3.org/2000/svg"
   xmlns:sodipodi="http://sodipodi.sourceforge.net/DTD/sodipodi-0.dtd"
   xmlns:inkscape="http://www.inkscape.org/namespaces/inkscape"
   width="48"
   height="48"
   viewBox="0 0 12.7 12.7"
   version="1.1"
   id="svg4"
   sodipodi:docname="rosegarden.svg"
   inkscape:version="0.92.4 (5da689c313, 2019-01-14)">
  <metadata
     id="metadata10">
    <rdf:RDF>
      <cc:Work
         rdf:about="">
        <dc:format>image/svg+xml</dc:format>
        <dc:type
           rdf:resource="http://purl.org/dc/dcmitype/StillImage" />
        <dc:title></dc:title>
      </cc:Work>
    </rdf:RDF>
  </metadata>
  <defs
     id="defs8" />
  <sodipodi:namedview
     pagecolor="#ffffff"
     bordercolor="#666666"
     borderopacity="1"
     objecttolerance="10"
     gridtolerance="10"
     guidetolerance="10"
     inkscape:pageopacity="0"
     inkscape:pageshadow="2"
     inkscape:window-width="1112"
     inkscape:window-height="480"
     id="namedview6"
     showgrid="false"
     inkscape:zoom="4.9166667"
     inkscape:cx="2.1355932"
     inkscape:cy="24"
     inkscape:window-x="0"
     inkscape:window-y="25"
     inkscape:window-maximized="0"
     inkscape:current-layer="svg4" />
  <path
     d="m 6.34,0.07 a 6.29,6.29 0 0 0 0,12.58 6.29,6.29 0 0 0 0,-12.58 z M 6.32,1 A 5.417,5.417 0 0 1 11.73,6.41 5.4,5.4 0 0 1 6.33,11.82 5.4,5.4 0 0 1 0.92,6.42 5.4,5.4 0 0 1 6.32,1 Z M 6.35,1.852 5.59,2.563 C 5.863,2.727 6.118,2.923 6.35,3.15 6.58,2.925 6.835,2.729 7.11,2.564 Z M 8.82,2.566 A 3.53,3.53 0 0 0 6.726,3.57 c 0.558,0.717 0.861,1.594 0.861,2.517 0,0.102 -0.013,0.201 -0.036,0.296 a 2.11,2.11 0 0 0 0.907,-1.73 c 0,-0.792 0.138,-1.416 0.362,-2.087 z m -4.94,0 V 2.567 C 4.099,3.224 4.242,3.844 4.242,4.653 A 2.11,2.11 0 0 0 6.372,6.762 0.676,0.676 0 0 0 7.025,6.087 3.548,3.548 0 0 0 3.88,2.567 Z M 6.069,7.12 v 3.448 a 0.281,0.281 0 1 0 0.562,0 V 7.254 A 1.261,1.261 0 0 1 6.318,7.286 0.281,0.281 0 0 1 6.068,7.119 Z M 2.982,7.195 A 2.59,2.59 0 0 0 5.554,9.5 h 0.5 A 2.59,2.59 0 0 0 3.482,7.195 Z M 9.218,7.673 A 2.59,2.59 0 0 0 6.646,9.978 h 0.5 A 2.59,2.59 0 0 0 9.718,7.673 Z"
     id="path2"
     inkscape:connector-curvature="0"
     style="fill:#5beedc" />
</svg>
