<?xml version="1.0" encoding="UTF-8" standalone="no"?>
<svg
   xmlns:dc="http://purl.org/dc/elements/1.1/"
   xmlns:cc="http://creativecommons.org/ns#"
   xmlns:rdf="http://www.w3.org/1999/02/22-rdf-syntax-ns#"
   xmlns:svg="http://www.w3.org/2000/svg"
   xmlns="http://www.w3.org/2000/svg"
   xmlns:sodipodi="http://sodipodi.sourceforge.net/DTD/sodipodi-0.dtd"
   xmlns:inkscape="http://www.inkscape.org/namespaces/inkscape"
   width="48"
   height="48"
   viewBox="0 0 12.7 12.7"
   version="1.1"
   id="svg4"
   sodipodi:docname="sage-notebook.svg"
   inkscape:version="0.92.4 (5da689c313, 2019-01-14)">
  <metadata
     id="metadata10">
    <rdf:RDF>
      <cc:Work
         rdf:about="">
        <dc:format>image/svg+xml</dc:format>
        <dc:type
           rdf:resource="http://purl.org/dc/dcmitype/StillImage" />
        <dc:title></dc:title>
      </cc:Work>
    </rdf:RDF>
  </metadata>
  <defs
     id="defs8" />
  <sodipodi:namedview
     pagecolor="#ffffff"
     bordercolor="#666666"
     borderopacity="1"
     objecttolerance="10"
     gridtolerance="10"
     guidetolerance="10"
     inkscape:pageopacity="0"
     inkscape:pageshadow="2"
     inkscape:window-width="1138"
     inkscape:window-height="480"
     id="namedview6"
     showgrid="false"
     inkscape:zoom="4.9166667"
     inkscape:cx="2.1355932"
     inkscape:cy="24"
     inkscape:window-x="0"
     inkscape:window-y="25"
     inkscape:window-maximized="0"
     inkscape:current-layer="svg4" />
  <path
     d="m 6.344,0.072 a 6.29,6.29 0 0 0 -6.29,6.29 6.29,6.29 0 0 0 6.29,6.289 6.29,6.29 0 0 0 6.29,-6.29 6.29,6.29 0 0 0 -6.29,-6.29 z M 6.326,1.009 A 5.407,5.407 0 0 1 11.733,6.416 5.407,5.407 0 0 1 6.326,11.823 5.407,5.407 0 0 1 0.92,6.416 5.407,5.407 0 0 1 6.326,1.01 Z M 5.14,2.646 A 0.279,0.279 0 0 0 4.86,2.923 c 0,0.06 0.024,0.116 0.056,0.161 L 4.219,3.88 C 4.191,3.873 4.165,3.863 4.135,3.863 A 0.345,0.345 0 0 0 3.79,4.203 C 3.79,4.21 3.8,4.213 3.8,4.22 L 3.186,4.623 A 0.28,0.28 0 0 0 3.027,4.57 0.278,0.278 0 0 0 2.748,4.847 c 0,0.093 0.05,0.173 0.121,0.223 L 2.757,7.146 a 0.22,0.22 0 0 0 0.112,0.411 h 0.019 l 1.526,1.549 v 0.009 c 0,0.12 0.093,0.223 0.214,0.223 A 0.236,0.236 0 0 0 4.749,9.303 l 0.838,0.438 c -0.002,0.012 -0.01,0.023 -0.01,0.036 0,0.153 0.125,0.277 0.28,0.277 a 0.273,0.273 0 0 0 0.27,-0.25 L 8.36,9.15 a 0.29,0.29 0 0 0 0.233,0.117 c 0.154,0 0.28,-0.124 0.28,-0.277 A 0.275,0.275 0 0 0 8.807,8.82 L 9.775,6.699 c 0.155,0 0.28,-0.124 0.28,-0.277 A 0.274,0.274 0 0 0 9.831,6.153 L 9.523,5.143 A 0.21,0.21 0 0 0 9.608,4.981 0.22,0.22 0 0 0 9.384,4.766 c -0.01,0 -0.018,0.008 -0.028,0.01 L 7.951,3.076 C 7.953,3.064 7.961,3.052 7.961,3.04 A 0.22,0.22 0 0 0 7.736,2.825 0.205,0.205 0 0 0 7.569,2.914 L 5.401,2.834 A 0.277,0.277 0 0 0 5.141,2.646 Z M 5.4,3.022 7.532,3.102 A 0.21,0.21 0 0 0 7.616,3.218 L 7.56,3.46 A 0.333,0.333 0 0 0 7.337,3.64 L 4.954,3.925 5.112,3.192 C 5.122,3.192 5.129,3.2 5.14,3.2 A 0.28,0.28 0 0 0 5.4,3.022 Z M 7.83,3.236 9.198,4.892 C 9.184,4.921 9.17,4.947 9.17,4.982 c 0,0.06 0.025,0.112 0.065,0.151 L 9.123,5.446 7.933,3.943 A 0.34,0.34 0 0 0 7.979,3.783 0.332,0.332 0 0 0 7.756,3.469 L 7.802,3.245 C 7.812,3.242 7.822,3.241 7.83,3.236 Z M 5,3.281 4.851,3.934 4.396,3.988 4.386,3.979 5.001,3.281 Z M 7.346,4.024 6.657,6.69 C 6.635,6.695 6.612,6.7 6.592,6.708 L 4.823,4.713 5.652,4.623 A 0.227,0.227 0 0 0 5.847,4.739 0.22,0.22 0 0 0 6.062,4.516 c 0,-0.017 -0.006,-0.03 -0.01,-0.045 L 7.243,4.033 7.346,4.023 Z M 6.834,4.077 6.006,4.382 A 0.202,0.202 0 0 0 5.847,4.301 0.22,0.22 0 0 0 5.624,4.516 V 4.525 L 4.804,4.623 4.87,4.301 Z M 7.718,4.122 9.012,5.77 8.742,6.521 7.122,6.897 A 0.39,0.39 0 0 0 7.03,6.789 L 7.718,4.123 Z M 4.758,4.319 4.703,4.579 4.498,4.346 Z M 3.874,4.409 C 3.891,4.429 3.909,4.447 3.93,4.462 L 3.883,4.722 3.297,4.793 V 4.784 Z M 4.117,4.534 H 4.154 L 4.284,4.677 4.089,4.704 Z M 4.367,4.766 4.61,5.035 4.498,5.527 A 0.212,0.212 0 0 0 4.293,5.742 c 0,0.068 0.035,0.12 0.084,0.16 L 3.642,7.012 4.07,4.802 4.368,4.766 Z M 3.865,4.82 3.4,7.227 A 0.275,0.275 0 0 0 3.214,7.37 L 3.083,7.343 A 0.222,0.222 0 0 0 2.953,7.138 L 3.064,5.115 A 0.269,0.269 0 0 0 3.297,4.883 Z M 4.684,5.133 6.341,6.985 6.331,7.021 3.651,7.308 A 0.268,0.268 0 0 0 3.595,7.263 L 4.451,5.947 A 0.22,0.22 0 0 0 4.731,5.741 0.226,0.226 0 0 0 4.601,5.545 Z m 4.635,0.054 c 0.006,10e-4 0.012,-0.002 0.018,0 L 9.589,6.046 9.198,5.536 9.318,5.186 Z M 9.077,5.858 9.467,6.35 8.854,6.493 Z M 9.496,6.628 8.61,8.55 8.629,7.351 A 0.205,0.205 0 0 0 8.797,7.154 C 8.797,7.074 8.743,7.009 8.675,6.975 L 8.741,6.805 9.495,6.627 Z M 8.639,6.833 8.593,6.949 A 0.206,0.206 0 0 0 8.537,7.352 L 8.509,8.721 A 0.287,0.287 0 0 0 8.351,8.855 L 7.131,8.587 A 0.22,0.22 0 0 0 6.909,8.372 0.22,0.22 0 0 0 6.685,8.578 L 6.387,8.65 6.759,7.522 A 0.43,0.43 0 0 0 7.169,7.173 Z M 6.378,7.298 A 0.445,0.445 0 0 0 6.48,7.424 L 6.052,8.73 5.159,8.953 3.716,7.603 C 3.718,7.597 3.724,7.59 3.726,7.585 Z m -3.23,0.233 0.038,0.01 c 0.002,0.01 -0.003,0.024 0,0.035 L 3.149,7.531 Z m 0.224,0.224 c 0.026,0.008 0.054,0.018 0.084,0.018 h 0.018 l 1.22,1.136 A 0.204,0.204 0 0 0 4.517,8.936 Z m 3.331,0.912 a 0.214,0.214 0 0 0 0.206,0.135 c 0.09,0 0.171,-0.047 0.204,-0.126 L 8.174,8.909 6.108,9.509 6.359,8.748 6.703,8.668 Z M 6.024,8.837 5.801,9.508 A 0.26,0.26 0 0 0 5.763,9.518 L 5.233,9.025 Z M 4.907,9.106 5.047,9.24 4.851,9.133 V 9.115 l 0.056,-0.01 z"
     id="path2"
     inkscape:connector-curvature="0"
     style="fill:#5beedc" />
</svg>
