<?xml version="1.0" encoding="UTF-8" standalone="no"?>
<svg
   xmlns:dc="http://purl.org/dc/elements/1.1/"
   xmlns:cc="http://creativecommons.org/ns#"
   xmlns:rdf="http://www.w3.org/1999/02/22-rdf-syntax-ns#"
   xmlns:svg="http://www.w3.org/2000/svg"
   xmlns="http://www.w3.org/2000/svg"
   xmlns:sodipodi="http://sodipodi.sourceforge.net/DTD/sodipodi-0.dtd"
   xmlns:inkscape="http://www.inkscape.org/namespaces/inkscape"
   width="48"
   height="48"
   viewBox="0 0 12.7 12.7"
   version="1.1"
   id="svg6"
   sodipodi:docname="scratch.svg"
   inkscape:version="0.92.4 (5da689c313, 2019-01-14)">
  <metadata
     id="metadata12">
    <rdf:RDF>
      <cc:Work
         rdf:about="">
        <dc:format>image/svg+xml</dc:format>
        <dc:type
           rdf:resource="http://purl.org/dc/dcmitype/StillImage" />
        <dc:title></dc:title>
      </cc:Work>
    </rdf:RDF>
  </metadata>
  <defs
     id="defs10" />
  <sodipodi:namedview
     pagecolor="#ffffff"
     bordercolor="#666666"
     borderopacity="1"
     objecttolerance="10"
     gridtolerance="10"
     guidetolerance="10"
     inkscape:pageopacity="0"
     inkscape:pageshadow="2"
     inkscape:window-width="1138"
     inkscape:window-height="480"
     id="namedview8"
     showgrid="false"
     inkscape:zoom="4.9166667"
     inkscape:cx="2.1355932"
     inkscape:cy="24"
     inkscape:window-x="0"
     inkscape:window-y="25"
     inkscape:window-maximized="0"
     inkscape:current-layer="svg6" />
  <path
     d="m 6.344,0.073 a 6.29,6.29 0 0 0 -6.29,6.29 6.29,6.29 0 0 0 6.29,6.288 6.29,6.29 0 0 0 6.29,-6.289 6.29,6.29 0 0 0 -6.29,-6.29 z M 6.326,1.009 A 5.407,5.407 0 0 1 11.733,6.416 5.407,5.407 0 0 1 6.326,11.823 5.407,5.407 0 0 1 0.92,6.416 5.407,5.407 0 0 1 6.326,1.01 Z"
     id="path2"
     inkscape:connector-curvature="0"
     style="fill:#5beedc" />
  <path
     d="M 7.57,2.287 A 0.792,0.792 0 0 0 6.907,2.645 c -0.05,0.07 -0.058,0.111 -0.083,0.17 a 1.521,1.521 0 0 0 -0.8,-0.26 1.634,1.634 0 0 0 -1.35,0.658 C 4.364,3.621 4.197,4.149 4.114,4.775 V 4.781 A 0.296,0.296 0 0 0 4.111,4.803 V 4.809 C 4.015,5.9 4.034,6.329 4.076,6.602 4.062,6.625 4.064,6.618 4.041,6.658 3.736,7.181 3.735,7.802 3.727,8.33 3.723,8.6 3.731,8.849 3.739,9.04 3.747,9.274 3.722,9.613 3.973,9.903 c 0.088,0.1 0.188,0.181 0.292,0.25 0.203,0.134 0.479,0.262 0.812,0.26 A 0.77,0.77 0 0 0 5.806,9.909 C 5.838,9.826 5.852,9.751 5.862,9.68 6.087,9.733 6.339,9.773 6.653,9.769 a 2.509,2.509 0 0 0 1.52,-0.56 C 8.621,8.849 8.974,8.292 8.974,7.617 V 7.61 7.594 C 8.959,7.178 8.94,6.896 8.895,6.661 8.85,6.416 8.76,6.183 8.579,6.005 A 1.232,1.232 0 0 0 8.347,5.829 C 8.349,5.822 8.352,5.819 8.354,5.811 8.427,5.551 8.465,5.269 8.494,4.986 8.524,4.702 8.544,4.418 8.56,4.188 A 9.048,9.048 0 0 1 8.599,3.794 c 0.002,-0.023 0.015,-0.07 0,-0.01 0.09,-0.36 0.01,-0.71 -0.156,-0.977 A 1.084,1.084 0 0 0 7.656,2.302 0.314,0.314 0 0 0 7.57,2.287 Z M 7.37,3.283 C 7.505,3.28 7.638,3.301 7.72,3.407 7.803,3.512 7.802,3.656 7.756,3.837 7.741,3.897 7.726,4.067 7.716,4.267 7.704,4.467 7.693,4.705 7.673,4.935 7.653,5.166 7.626,5.388 7.575,5.564 A 0.767,0.767 0 0 1 7.476,5.794 0.276,0.276 0 0 1 7.275,5.921 0.321,0.321 0 0 1 6.993,5.808 0.482,0.482 0 0 1 6.912,5.549 C 6.896,5.368 6.912,5.165 6.872,5.027 6.822,4.851 6.767,4.607 6.672,4.414 A 0.706,0.706 0 0 0 6.505,4.184 0.325,0.325 0 0 0 6.279,4.101 C 6.056,4.103 5.954,4.151 5.883,4.227 5.812,4.302 5.766,4.427 5.713,4.595 A 3.47,3.47 0 0 0 5.588,5.082 C 5.564,5.239 5.565,5.393 5.611,5.548 5.659,5.71 5.704,5.786 5.819,5.855 c 0.114,0.069 0.315,0.124 0.65,0.181 0.174,0.03 0.36,0.074 0.54,0.14 0.18,0.066 0.355,0.154 0.51,0.267 C 7.675,6.557 7.809,6.7 7.906,6.874 8.002,7.048 8.06,7.252 8.06,7.486 8.06,7.719 8.012,7.921 7.93,8.094 A 1.184,1.184 0 0 1 7.584,8.52 C 7.441,8.63 7.276,8.71 7.099,8.763 A 2.311,2.311 0 0 1 5.776,8.729 2.201,2.201 0 0 1 5.296,8.5 2.19,2.19 0 0 0 5.266,8.982 C 5.269,9.098 5.271,9.207 5.246,9.306 A 0.298,0.298 0 0 1 5.17,9.446 0.241,0.241 0 0 1 5.007,9.512 0.4,0.4 0 0 1 4.641,9.314 0.607,0.607 0 0 1 4.583,9.023 L 4.57,8.05 A 93.81,93.81 0 0 1 4.563,7.21 C 4.563,7.155 4.561,7.135 4.567,7.095 4.582,6.99 4.646,6.931 4.727,6.868 A 0.516,0.516 0 0 1 5.04,6.753 c 0.086,0 0.158,0.051 0.203,0.109 A 0.645,0.645 0 0 1 5.339,7.058 C 5.386,7.2 5.409,7.362 5.424,7.475 5.434,7.543 5.52,7.73 5.682,7.879 a 1.027,1.027 0 0 0 0.703,0.272 c 0.33,0 0.603,-0.045 0.773,-0.14 A 0.442,0.442 0 0 0 7.343,7.836 0.505,0.505 0 0 0 7.387,7.553 0.78,0.78 0 0 0 7.286,7.223 0.949,0.949 0 0 0 7.041,6.948 C 6.833,6.785 6.531,6.668 6.163,6.623 A 2.057,2.057 0 0 1 5.616,6.488 1.115,1.115 0 0 1 5.201,6.198 1.068,1.068 0 0 1 4.968,5.723 1.976,1.976 0 0 1 4.947,5.056 V 5.055 a 3.52,3.52 0 0 1 0.16,-0.71 C 5.177,4.143 5.267,3.975 5.376,3.84 A 1.025,1.025 0 0 1 6.242,3.453 c 0.18,0.006 0.319,0.068 0.427,0.153 0.108,0.084 0.186,0.189 0.243,0.28 0.058,0.09 0.104,0.17 0.133,0.201 0.011,0.011 0.018,0.014 0.02,0.015 A 0.104,0.104 0 0 0 7.079,4.095 C 7.114,4.075 7.133,4.041 7.147,3.977 7.16,3.913 7.159,3.826 7.157,3.737 7.154,3.65 7.148,3.562 7.164,3.477 A 0.258,0.258 0 0 1 7.222,3.35 0.213,0.213 0 0 1 7.371,3.283 Z"
     id="path4"
     inkscape:connector-curvature="0"
     style="clip-rule:evenodd;opacity:0.75;fill:#ff9001" />
</svg>
