<?xml version="1.0" encoding="UTF-8" standalone="no"?>
<svg
   xmlns:dc="http://purl.org/dc/elements/1.1/"
   xmlns:cc="http://creativecommons.org/ns#"
   xmlns:rdf="http://www.w3.org/1999/02/22-rdf-syntax-ns#"
   xmlns:svg="http://www.w3.org/2000/svg"
   xmlns="http://www.w3.org/2000/svg"
   xmlns:sodipodi="http://sodipodi.sourceforge.net/DTD/sodipodi-0.dtd"
   xmlns:inkscape="http://www.inkscape.org/namespaces/inkscape"
   width="48"
   height="48"
   viewBox="0 0 12.7 12.7"
   version="1.1"
   id="svg6"
   sodipodi:docname="scummvm.svg"
   inkscape:version="0.92.5 (2060ec1f9f, 2020-04-08)">
  <metadata
     id="metadata12">
    <rdf:RDF>
      <cc:Work
         rdf:about="">
        <dc:format>image/svg+xml</dc:format>
        <dc:type
           rdf:resource="http://purl.org/dc/dcmitype/StillImage" />
        <dc:title></dc:title>
      </cc:Work>
    </rdf:RDF>
  </metadata>
  <defs
     id="defs10" />
  <sodipodi:namedview
     pagecolor="#ffffff"
     bordercolor="#666666"
     borderopacity="1"
     objecttolerance="10"
     gridtolerance="10"
     guidetolerance="10"
     inkscape:pageopacity="0"
     inkscape:pageshadow="2"
     inkscape:window-width="1085"
     inkscape:window-height="480"
     id="namedview8"
     showgrid="false"
     inkscape:zoom="4.9166667"
     inkscape:cx="2.1355932"
     inkscape:cy="24"
     inkscape:window-x="0"
     inkscape:window-y="25"
     inkscape:window-maximized="0"
     inkscape:current-layer="svg6" />
  <path
     d="M 6.34,0.075 A 6.295,6.295 0 0 0 0.055,6.36 6.295,6.295 0 0 0 6.34,12.655 6.295,6.295 0 0 0 12.634,6.36 6.295,6.295 0 0 0 6.34,0.075 Z m -0.01,0.94 a 5.408,5.408 0 0 1 5.396,5.387 5.407,5.407 0 1 1 -10.814,0 c 0,-2.987 2.43,-5.387 5.417,-5.387 z m -0.115,1 C 4.572,2.089 3.287,3.282 3.287,4.642 c 0,0.428 0.13,0.83 0.355,1.188 L 3.978,6.367 A 0.624,0.624 0 0 1 3.894,7.135 l -0.758,0.78 a 0.622,0.622 0 0 0 -0.13,0.684 c 0.48,1.095 1.776,1.88 3.3,1.88 1.934,0 3.503,-1.263 3.503,-2.821 0,-0.567 -0.21,-1.094 -0.568,-1.536 0.005,-0.005 -0.1,-0.117 -0.1,-0.117 A 0.624,0.624 0 0 1 9.028,5.199 L 9.572,4.348 C 9.682,4.177 9.738,3.948 9.627,3.778 9.077,2.942 8.017,2.086 6.547,2.016 a 3.607,3.607 0 0 0 -0.332,0 z m 0.103,0.562 c 1.16,0.02 2.168,0.862 2.498,1.175 A 0.206,0.206 0 0 1 8.848,4.014 L 8.441,4.652 A 0.222,0.222 0 0 1 8.12,4.707 C 6.762,3.656 6.38,4.13 6.38,4.13 5.87,4.686 6.546,4.963 6.546,4.963 7.497,5.415 8.151,5.89 8.151,5.89 9.659,6.845 8.936,8.307 8.936,8.307 8.031,10.219 5.738,9.727 5.738,9.727 A 3.336,3.336 0 0 1 3.78,8.545 0.207,0.207 0 0 1 3.79,8.274 L 4.412,7.594 C 4.49,7.51 4.618,7.507 4.714,7.571 5.536,8.119 5.911,8.314 6.442,8.327 7.192,8.227 7.029,7.591 6.607,7.416 5.763,7.066 4.76,6.246 4.76,6.246 3.155,4.961 4.446,3.414 4.446,3.414 5.061,2.78 5.71,2.565 6.317,2.576 Z"
     id="path2"
     inkscape:connector-curvature="0"
     style="fill:#5beedc" />
  <path
     d="M 8.441,4.652 8.848,4.014 A 0.207,0.207 0 0 0 8.816,3.752 C 8.314,3.275 6.236,1.569 4.447,3.416 c 0,0 -1.291,1.545 0.314,2.831 0,0 1.003,0.82 1.847,1.17 C 7.03,7.591 7.194,8.228 6.443,8.327 5.913,8.315 5.537,8.12 4.715,7.572 4.618,7.508 4.491,7.51 4.413,7.595 l -0.622,0.68 a 0.207,0.207 0 0 0 -0.01,0.27 c 0.24,0.3 0.889,0.983 1.958,1.182 0,0 2.293,0.493 3.198,-1.42 0,0 0.723,-1.46 -0.784,-2.416 0,0 -0.655,-0.475 -1.606,-0.927 0,0 -0.676,-0.277 -0.166,-0.833 0,0 0.38,-0.476 1.739,0.575 A 0.222,0.222 0 0 0 8.441,4.652 Z"
     id="path4"
     inkscape:connector-curvature="0"
     style="opacity:0.8;fill:#447821" />
</svg>
