<?xml version="1.0" encoding="UTF-8" standalone="no"?>
<svg
   xmlns:dc="http://purl.org/dc/elements/1.1/"
   xmlns:cc="http://creativecommons.org/ns#"
   xmlns:rdf="http://www.w3.org/1999/02/22-rdf-syntax-ns#"
   xmlns:svg="http://www.w3.org/2000/svg"
   xmlns="http://www.w3.org/2000/svg"
   xmlns:sodipodi="http://sodipodi.sourceforge.net/DTD/sodipodi-0.dtd"
   xmlns:inkscape="http://www.inkscape.org/namespaces/inkscape"
   width="48"
   height="48"
   viewBox="0 0 12.7 12.7"
   version="1.1"
   id="svg6"
   sodipodi:docname="seamonkey.svg"
   inkscape:version="0.92.4 (5da689c313, 2019-01-14)">
  <metadata
     id="metadata12">
    <rdf:RDF>
      <cc:Work
         rdf:about="">
        <dc:format>image/svg+xml</dc:format>
        <dc:type
           rdf:resource="http://purl.org/dc/dcmitype/StillImage" />
        <dc:title></dc:title>
      </cc:Work>
    </rdf:RDF>
  </metadata>
  <defs
     id="defs10" />
  <sodipodi:namedview
     pagecolor="#ffffff"
     bordercolor="#666666"
     borderopacity="1"
     objecttolerance="10"
     gridtolerance="10"
     guidetolerance="10"
     inkscape:pageopacity="0"
     inkscape:pageshadow="2"
     inkscape:window-width="861"
     inkscape:window-height="480"
     id="namedview8"
     showgrid="false"
     inkscape:zoom="4.9166667"
     inkscape:cx="2.1355932"
     inkscape:cy="24"
     inkscape:window-x="0"
     inkscape:window-y="25"
     inkscape:window-maximized="0"
     inkscape:current-layer="svg6" />
  <path
     d="M 2.262,4.885 C 1.73,4.888 1.164,5.012 0.55,5.307 L 0.549,5.308 A 5.822,5.822 0 0 0 0.559,6.35 C 0.926,6.183 1.391,6.018 1.707,6.035 c 0.77,0.043 2.802,1.296 4.119,1.703 1.317,0.406 2.943,-0.9 4.582,-1.293 0.957,-0.229 1.448,-0.002 1.694,0.178 l 0.01,-0.074 A 5.82,5.82 0 0 0 12.171,5.764 C 12.169,5.627 12.162,5.635 12.151,5.498 A 2.257,2.257 0 0 0 11.235,5.604 C 10.646,5.8 8.741,6.296 7.311,6.257 5.477,6.137 4.044,4.879 2.261,4.891 Z"
     id="path2"
     inkscape:connector-curvature="0"
     style="opacity:0.3;fill:#5beedc" />
  <path
     d="M 6.34,0.07 A 6.29,6.29 0 0 0 0.05,6.37 6.29,6.29 0 0 0 1.142,9.9 6.29,6.29 0 0 0 1.45,10.307 c 0.24,-0.11 0.481,-0.22 0.722,-0.436 A 5.4,5.4 0 0 1 1.675,9.162 5.4,5.4 0 0 1 0.92,6.42 5.4,5.4 0 0 1 6.32,1 l 0.01,0.01 a 5.4,5.4 0 0 1 5.4,5.4 5.4,5.4 0 0 1 -5.4,5.41 5.4,5.4 0 0 1 -1.465,-0.206 5.4,5.4 0 0 1 -1.863,-0.945 c -0.25,0.176 -0.505,0.34 -0.785,0.427 A 6.29,6.29 0 0 0 4.478,12.363 6.29,6.29 0 0 0 6.35,12.65 6.29,6.29 0 0 0 12.63,6.36 6.29,6.29 0 0 0 6.34,0.07 Z M 8.247,2.517 C 7.767,2.539 7.314,2.727 7.031,3.117 6.644,3.657 6.441,4.29 6.272,4.907 A 8.363,8.363 0 0 1 5.149,7.338 C 4.12,8.88 2.735,10.222 0.997,10.9 0.957,10.92 0.931,10.956 0.897,10.984 0.831,11.046 0.883,11.157 0.973,11.147 2.191,11.003 3.141,10.139 4.04,9.419 4.763,9.349 5.475,9.207 6.174,9.021 7.156,8.744 8.297,8.361 8.967,7.534 9.635,6.715 9.743,5.708 9.499,4.721 9.416,4.326 8.977,3.921 8.546,3.836 8.535,3.796 8.55,3.617 8.538,3.576 8.632,3.474 8.827,3.396 8.919,3.262 9.022,3.112 9.109,3.007 9.056,2.802 A 0.095,0.095 0 0 0 9.042,2.772 C 8.928,2.609 8.642,2.518 8.455,2.518 a 2.165,2.165 0 0 0 -0.208,0 z"
     id="path4"
     inkscape:connector-curvature="0"
     style="fill:#5beedc" />
</svg>
