<?xml version="1.0" encoding="UTF-8" standalone="no"?>
<svg
   xmlns:dc="http://purl.org/dc/elements/1.1/"
   xmlns:cc="http://creativecommons.org/ns#"
   xmlns:rdf="http://www.w3.org/1999/02/22-rdf-syntax-ns#"
   xmlns:svg="http://www.w3.org/2000/svg"
   xmlns="http://www.w3.org/2000/svg"
   xmlns:sodipodi="http://sodipodi.sourceforge.net/DTD/sodipodi-0.dtd"
   xmlns:inkscape="http://www.inkscape.org/namespaces/inkscape"
   width="48"
   height="48"
   viewBox="0 0 12.7 12.7"
   version="1.1"
   id="svg4"
   sodipodi:docname="reddit.svg"
   inkscape:version="0.92.4 (5da689c313, 2019-01-14)">
  <metadata
     id="metadata10">
    <rdf:RDF>
      <cc:Work
         rdf:about="">
        <dc:format>image/svg+xml</dc:format>
        <dc:type
           rdf:resource="http://purl.org/dc/dcmitype/StillImage" />
        <dc:title></dc:title>
      </cc:Work>
    </rdf:RDF>
  </metadata>
  <defs
     id="defs8" />
  <sodipodi:namedview
     pagecolor="#ffffff"
     bordercolor="#666666"
     borderopacity="1"
     objecttolerance="10"
     gridtolerance="10"
     guidetolerance="10"
     inkscape:pageopacity="0"
     inkscape:pageshadow="2"
     inkscape:window-width="861"
     inkscape:window-height="480"
     id="namedview6"
     showgrid="false"
     inkscape:zoom="4.9166667"
     inkscape:cx="2.1355932"
     inkscape:cy="24"
     inkscape:window-x="0"
     inkscape:window-y="25"
     inkscape:window-maximized="0"
     inkscape:current-layer="svg4" />
  <path
     d="m 6.344,0.072 a 6.29,6.29 0 0 0 -6.29,6.29 6.29,6.29 0 0 0 6.29,6.289 6.29,6.29 0 0 0 6.29,-6.29 6.29,6.29 0 0 0 -6.29,-6.29 z M 6.326,1.009 A 5.407,5.407 0 0 1 11.733,6.416 5.407,5.407 0 0 1 6.326,11.823 5.407,5.407 0 0 1 0.92,6.416 5.407,5.407 0 0 1 6.326,1.01 Z M 6.614,2.784 A 0.305,0.305 0 0 0 6.327,3.053 L 6.055,5.237 A 3.358,2.442 0 0 0 4.009,5.905 0.916,0.916 0 0 0 3.273,5.532 0.916,0.916 0 0 0 2.357,6.448 0.916,0.916 0 0 0 3.005,7.323 3.358,2.442 0 0 0 2.967,7.67 3.358,2.442 0 0 0 6.326,10.112 3.358,2.442 0 0 0 9.684,7.67 3.358,2.442 0 0 0 9.646,7.324 0.916,0.916 0 0 0 10.294,6.448 0.916,0.916 0 0 0 9.378,5.532 0.916,0.916 0 0 0 8.643,5.904 3.358,2.442 0 0 0 6.669,5.244 L 6.895,3.435 8.202,3.622 A 0.61,0.61 0 0 0 8.768,4.006 0.61,0.61 0 0 0 9.378,3.396 0.61,0.61 0 0 0 8.768,2.785 0.61,0.61 0 0 0 8.288,3.019 L 6.675,2.789 A 0.305,0.305 0 0 0 6.614,2.784 Z m -1.51,3.664 a 0.61,0.61 0 0 1 0.61,0.611 0.61,0.61 0 0 1 -0.61,0.61 0.61,0.61 0 0 1 -0.61,-0.61 0.61,0.61 0 0 1 0.61,-0.61 z m 2.443,0 a 0.61,0.61 0 0 1 0.61,0.611 0.61,0.61 0 0 1 -0.61,0.61 0.61,0.61 0 0 1 -0.611,-0.61 0.61,0.61 0 0 1 0.61,-0.61 z m 0.299,1.823 a 0.306,0.306 0 0 1 0.28,0.451 c 0,0 -0.13,0.235 -0.41,0.422 C 7.434,9.332 6.986,9.5 6.325,9.5 5.663,9.5 5.215,9.332 4.935,9.144 A 1.337,1.337 0 0 1 4.526,8.722 0.305,0.305 0 0 1 4.772,8.276 a 0.305,0.305 0 0 1 0.031,0 0.305,0.305 0 0 1 0.269,0.172 c 0,0 0.024,0.071 0.2,0.19 0.177,0.117 0.493,0.254 1.053,0.254 0.56,0 0.875,-0.137 1.052,-0.255 0.177,-0.118 0.201,-0.19 0.201,-0.19 A 0.306,0.306 0 0 1 7.846,8.271 Z"
     id="path2"
     inkscape:connector-curvature="0"
     style="fill:#5beedc" />
</svg>
