<?xml version="1.0" encoding="UTF-8" standalone="no"?>
<svg
   xmlns:dc="http://purl.org/dc/elements/1.1/"
   xmlns:cc="http://creativecommons.org/ns#"
   xmlns:rdf="http://www.w3.org/1999/02/22-rdf-syntax-ns#"
   xmlns:svg="http://www.w3.org/2000/svg"
   xmlns="http://www.w3.org/2000/svg"
   xmlns:sodipodi="http://sodipodi.sourceforge.net/DTD/sodipodi-0.dtd"
   xmlns:inkscape="http://www.inkscape.org/namespaces/inkscape"
   width="48"
   height="48"
   viewBox="0 0 12.7 12.7"
   version="1.1"
   id="svg4"
   sodipodi:docname="ubuntusoftware.svg"
   inkscape:version="0.92.5 (2060ec1f9f, 2020-04-08)">
  <defs
     id="defs8">
  <style
     id="current-color-scheme"
     type="Highlight/css">
      .ColorScheme-Highlight {
        color:#5beedc;
      }
  </style>
  </defs>
  <path
     class="ColorScheme-Highlight"
     style="fill:#5beedc"
     d="M 24 0 A 24 24 0 0 0 0 24 A 24 24 0 0 0 24 48 A 24 24 0 0 0 48 24 A 24 24 0 0 0 24 0 z M 24 3 A 21 21 0 0 1 45 24 A 21 21 0 0 1 24 45 A 21 21 0 0 1 3 24 A 21 21 0 0 1 24 3 z M 24 5 A 6.9999993 6.9999993 0 0 0 17 12 L 17 14 L 13 14 L 11 14 L 11 16 L 11 37 L 11 39 L 13 39 L 35 39 L 37 39 L 37 37 L 37 16 L 37 14 L 35 14 L 31 14 L 31 12 A 6.9999993 6.9999993 0 0 0 24 5 z M 24 7 A 4.9999991 4.9999991 0 0 1 29 12 L 29 14 L 19 14 L 19 12 A 4.9999991 4.9999991 0 0 1 24 7 z M 18 16 A 1.9999999 1.9999999 0 0 1 20 18 A 1.9999999 1.9999999 0 0 1 18 20 A 1.9999999 1.9999999 0 0 1 16 18 A 1.9999999 1.9999999 0 0 1 18 16 z M 30 16 A 1.9999999 1.9999999 0 0 1 32 18 A 1.9999999 1.9999999 0 0 1 30 20 A 1.9999999 1.9999999 0 0 1 28 18 A 1.9999999 1.9999999 0 0 1 30 16 z M 24 22 A 6.9999999 6.9999999 0 0 1 31 29 A 6.9999999 6.9999999 0 0 1 24 36 A 6.9999999 6.9999999 0 0 1 17 29 A 6.9999999 6.9999999 0 0 1 24 22 z "
     transform="scale(0.26458333)"
     id="path817" />
  <path
     style="fill:#ff6600"
     d="M 21.5 25 A 1.5 1.5 0 0 0 20 26.5 A 1.5 1.5 0 0 0 21.5 28 A 1.5 1.5 0 0 0 23 26.5 A 1.5 1.5 0 0 0 21.5 25 z M 26.5 25 A 1.5 1.5 0 0 0 25 26.5 A 1.5 1.5 0 0 0 26.5 28 A 1.5 1.5 0 0 0 28 26.5 A 1.5 1.5 0 0 0 26.5 25 z M 21.5 30 A 1.5 1.5 0 0 0 20 31.5 A 1.5 1.5 0 0 0 21.5 33 A 1.5 1.5 0 0 0 23 31.5 A 1.5 1.5 0 0 0 21.5 30 z M 26.5 30 A 1.5 1.5 0 0 0 25 31.5 A 1.5 1.5 0 0 0 26.5 33 A 1.5 1.5 0 0 0 28 31.5 A 1.5 1.5 0 0 0 26.5 30 z "
     transform="scale(0.26458333)"
     id="path921" />
</svg>
