<?xml version="1.0" encoding="UTF-8" standalone="no"?>
<svg
   xmlns:dc="http://purl.org/dc/elements/1.1/"
   xmlns:cc="http://creativecommons.org/ns#"
   xmlns:rdf="http://www.w3.org/1999/02/22-rdf-syntax-ns#"
   xmlns:svg="http://www.w3.org/2000/svg"
   xmlns="http://www.w3.org/2000/svg"
   xmlns:sodipodi="http://sodipodi.sourceforge.net/DTD/sodipodi-0.dtd"
   xmlns:inkscape="http://www.inkscape.org/namespaces/inkscape"
   width="48"
   height="48"
   viewBox="0 0 12.7 12.7"
   version="1.1"
   id="svg4"
   sodipodi:docname="solfege.svg"
   inkscape:version="0.92.4 (5da689c313, 2019-01-14)">
  <metadata
     id="metadata10">
    <rdf:RDF>
      <cc:Work
         rdf:about="">
        <dc:format>image/svg+xml</dc:format>
        <dc:type
           rdf:resource="http://purl.org/dc/dcmitype/StillImage" />
        <dc:title></dc:title>
      </cc:Work>
    </rdf:RDF>
  </metadata>
  <defs
     id="defs8" />
  <sodipodi:namedview
     pagecolor="#ffffff"
     bordercolor="#666666"
     borderopacity="1"
     objecttolerance="10"
     gridtolerance="10"
     guidetolerance="10"
     inkscape:pageopacity="0"
     inkscape:pageshadow="2"
     inkscape:window-width="1112"
     inkscape:window-height="480"
     id="namedview6"
     showgrid="false"
     inkscape:zoom="4.9166667"
     inkscape:cx="2.1355932"
     inkscape:cy="24"
     inkscape:window-x="0"
     inkscape:window-y="25"
     inkscape:window-maximized="0"
     inkscape:current-layer="svg4" />
  <path
     d="m 6.34,0.07 a 6.29,6.29 0 0 0 0,12.58 6.29,6.29 0 0 0 0,-12.58 z M 6.32,1 A 5.417,5.417 0 0 1 11.73,6.41 5.4,5.4 0 0 1 6.33,11.82 5.4,5.4 0 0 1 0.92,6.42 5.4,5.4 0 0 1 6.32,1 Z M 6.757,2.296 6.725,6.36 C 5.904,5.648 4.513,5.728 3.804,6.562 3.052,7.38 3.023,8.765 3.766,9.596 c 0.588,0.71 1.65,1.023 2.508,0.646 C 7.116,9.893 7.676,8.974 7.601,8.065 7.583,7.312 7.585,6.558 7.585,5.805 7.581,4.992 7.575,4.18 7.574,3.368 7.998,3.913 8.463,4.485 8.564,5.19 8.594,5.579 8.409,5.756 8.274,6.012 8.16,6.227 8.334,6.532 8.594,6.569 9.076,6.635 9.53,6.274 9.657,5.824 A 2.1,2.1 0 0 0 9.347,4.08 C 8.987,3.622 8.439,3.38 7.956,3.079 A 13.374,13.374 0 0 1 6.757,2.296 Z m -0.62,4.18 A 1.085,0.756 84.913 0 1 6.91,7.493 1.085,0.756 84.913 0 1 6.255,8.641 1.085,0.756 84.913 0 1 5.405,7.627 a 1.085,0.756 84.913 0 1 0.657,-1.15 1.085,0.756 84.913 0 1 0.075,0 z M 4.355,6.793 A 1.046,0.732 84.913 0 1 5.105,7.771 1.046,0.732 84.913 0 1 4.467,8.877 1.046,0.732 84.913 0 1 3.643,7.899 1.046,0.732 84.913 0 1 4.281,6.796 1.046,0.732 84.913 0 1 4.355,6.793 Z m 1.61,0.13 A 0.463,0.35 84.913 0 0 5.657,7.415 0.463,0.35 84.913 0 0 6.047,7.844 0.463,0.35 84.913 0 0 6.354,7.354 0.463,0.35 84.913 0 0 6,6.924 a 0.463,0.35 84.913 0 0 -0.034,0 z M 4.183,7.2 A 0.384,0.305 84.913 0 0 3.916,7.61 0.384,0.305 84.913 0 0 4.253,7.966 0.384,0.305 84.913 0 0 4.523,7.555 0.384,0.305 84.913 0 0 4.215,7.2 a 0.384,0.305 84.913 0 0 -0.03,0 z m 2.42,1.745 c -0.507,1.32 -1.86,1.384 -2.207,0.273 0.65,0.176 1.553,0.017 2.207,-0.273 z"
     id="path2"
     inkscape:connector-curvature="0"
     style="fill:#5beedc" />
</svg>
