<?xml version="1.0" encoding="UTF-8" standalone="no"?>
<svg
   xmlns:dc="http://purl.org/dc/elements/1.1/"
   xmlns:cc="http://creativecommons.org/ns#"
   xmlns:rdf="http://www.w3.org/1999/02/22-rdf-syntax-ns#"
   xmlns:svg="http://www.w3.org/2000/svg"
   xmlns="http://www.w3.org/2000/svg"
   xmlns:sodipodi="http://sodipodi.sourceforge.net/DTD/sodipodi-0.dtd"
   xmlns:inkscape="http://www.inkscape.org/namespaces/inkscape"
   width="48"
   height="48"
   viewBox="0 0 12.7 12.7"
   version="1.1"
   id="svg4"
   sodipodi:docname="sound-juicer.svg"
   inkscape:version="0.92.5 (2060ec1f9f, 2020-04-08)">
  <defs
     id="defs8">
  <style
     id="current-color-scheme"
     type="text/css">
      .ColorScheme-Highlight {
        color:#5beedc;
      }
  </style>
  </defs>
  <path
     class="ColorScheme-Highlight"
     style="fill:#5beedc"
     d="M 24 0 A 24 24 0 0 0 0 24 A 24 24 0 0 0 24 48 A 24 24 0 0 0 31.570312 46.753906 C 30.730371 45.866706 30.006542 44.860939 29.523438 43.71875 C 29.003016 42.488336 28.714844 41.13483 28.714844 39.714844 C 28.714844 39.00485 28.856894 38.211275 29.105469 37.365234 C 29.354043 36.519194 29.710711 35.620919 30.142578 34.703125 C 30.64755 33.62997 31.374441 32.572006 32.033203 31.496094 A 11 11 0 0 1 24 35 A 11 11 0 0 1 13 24 A 11 11 0 0 1 24 13 A 11 11 0 0 1 35 24 A 11 11 0 0 1 34.150391 28.232422 C 35.090873 26.954181 36.055415 25.670196 36.851562 24.796875 C 37.87599 23.673148 38.678613 22.984549 39 22.988281 C 39.321387 22.992018 40.12401 23.683466 41.148438 24.808594 C 42.172864 25.933722 43.41979 27.493549 44.625 29.228516 C 45.315948 30.223174 45.86318 31.306307 46.478516 32.369141 A 24 24 0 0 0 48 24 A 24 24 0 0 0 24 0 z M 24 17 A 6.9999998 6.9999998 0 0 0 17 24 A 6.9999998 6.9999998 0 0 0 24 31 A 6.9999998 6.9999998 0 0 0 31 24 A 6.9999998 6.9999998 0 0 0 24 17 z M 24 20 A 3.9999996 3.9999996 0 0 1 28 24 A 3.9999996 3.9999996 0 0 1 24 28 A 3.9999996 3.9999996 0 0 1 20 24 A 3.9999996 3.9999996 0 0 1 24 20 z M 39 26.988281 C 38.000001 26.97664 30.999999 35.581722 31 40 C 31.000001 44.418279 34.581723 48 39 48 C 43.418279 48 47 44.418279 47 40 C 47 35.581722 39.999999 26.99991 39 26.988281 z "
     transform="scale(0.26458333)"
     id="path830" />
</svg>
