<?xml version="1.0" encoding="UTF-8" standalone="no"?>
<svg
   xmlns:dc="http://purl.org/dc/elements/1.1/"
   xmlns:cc="http://creativecommons.org/ns#"
   xmlns:rdf="http://www.w3.org/1999/02/22-rdf-syntax-ns#"
   xmlns:svg="http://www.w3.org/2000/svg"
   xmlns="http://www.w3.org/2000/svg"
   xmlns:sodipodi="http://sodipodi.sourceforge.net/DTD/sodipodi-0.dtd"
   xmlns:inkscape="http://www.inkscape.org/namespaces/inkscape"
   width="48"
   height="48"
   viewBox="0 0 12.7 12.7"
   version="1.1"
   id="svg4"
   sodipodi:docname="sparta.svg"
   inkscape:version="0.92.5 (2060ec1f9f, 2020-04-08)">
  <metadata
     id="metadata10">
    <rdf:RDF>
      <cc:Work
         rdf:about="">
        <dc:format>image/svg+xml</dc:format>
        <dc:type
           rdf:resource="http://purl.org/dc/dcmitype/StillImage" />
        <dc:title></dc:title>
      </cc:Work>
    </rdf:RDF>
  </metadata>
  <defs
     id="defs8" />
  <sodipodi:namedview
     pagecolor="#ffffff"
     bordercolor="#666666"
     borderopacity="1"
     objecttolerance="10"
     gridtolerance="10"
     guidetolerance="10"
     inkscape:pageopacity="0"
     inkscape:pageshadow="2"
     inkscape:window-width="1085"
     inkscape:window-height="480"
     id="namedview6"
     showgrid="false"
     inkscape:zoom="4.9166667"
     inkscape:cx="2.1355932"
     inkscape:cy="24"
     inkscape:window-x="0"
     inkscape:window-y="25"
     inkscape:window-maximized="0"
     inkscape:current-layer="svg4" />
  <path
     d="M 6.34,0.075 A 6.295,6.295 0 0 0 0.055,6.36 6.295,6.295 0 0 0 2.985,11.67 C 3.117,11.452 3.249,11.234 3.305,11.017 3.317,10.975 3.31,10.933 3.319,10.891 A 5.407,5.407 0 0 1 0.912,6.402 c 0,-2.987 2.43,-5.387 5.417,-5.387 a 5.408,5.408 0 0 1 5.397,5.387 5.407,5.407 0 0 1 -0.833,2.87 5.407,5.407 0 0 1 -0.052,0.087 5.407,5.407 0 0 1 -3.592,2.369 c -0.12,0.065 -0.199,0.13 -0.327,0.195 -0.47,0.235 -1.036,0.444 -1.616,0.644 A 6.295,6.295 0 0 0 6.34,12.655 6.295,6.295 0 0 0 12.634,6.36 6.295,6.295 0 0 0 6.34,0.075 Z M 6.356,1.722 C 5.641,1.722 5.06,1.805 4.662,2.003 5.279,2.207 5.737,2.606 6.096,3.125 V 3.882 A 2.91,2.91 0 0 0 5.01,4.742 4.969,4.969 0 0 1 4.07,3.532 v 3.76 L 3.433,9.223 4.12,8.839 C 4.01,9.904 4.493,10.969 3.686,12.033 4.73,11.379 4.165,9.437 4.339,8.086 L 4.494,7.818 C 4.298,6.904 5.251,6.774 5.806,6.973 7.403,7.545 6.468,7.881 5.07,8.162 4.865,9.536 5.045,10.833 4.342,12.307 7.367,11.382 9.048,9.703 9.158,9.382 9.223,9.192 8.714,8.902 8.558,8.587 9.17,8.511 9.758,8.657 10.328,8.96 V 7.305 c -0.007,0.05 -0.099,0.106 -0.231,0.152 a 3.79,3.79 0 0 0 0.094,-0.921 c 0,-0.233 -0.027,-0.46 -0.078,-0.678 0.04,-1.043 -0.148,-2.99 -2.448,-3.981 0.012,0 0.54,0.687 -0.103,0.753 C 6.854,2.702 6.949,1.768 7.115,1.75 6.848,1.733 6.595,1.723 6.357,1.722 Z"
     id="path2"
     inkscape:connector-curvature="0"
     style="fill:#5beedc" />
</svg>
