<?xml version="1.0" encoding="UTF-8" standalone="no"?>
<svg
   xmlns:dc="http://purl.org/dc/elements/1.1/"
   xmlns:cc="http://creativecommons.org/ns#"
   xmlns:rdf="http://www.w3.org/1999/02/22-rdf-syntax-ns#"
   xmlns:svg="http://www.w3.org/2000/svg"
   xmlns="http://www.w3.org/2000/svg"
   xmlns:sodipodi="http://sodipodi.sourceforge.net/DTD/sodipodi-0.dtd"
   xmlns:inkscape="http://www.inkscape.org/namespaces/inkscape"
   width="48"
   height="48"
   viewBox="0 0 12.7 12.7"
   version="1.1"
   id="svg4"
   sodipodi:docname="sqlninja.svg"
   inkscape:version="0.92.5 (2060ec1f9f, 2020-04-08)">
  <metadata
     id="metadata10">
    <rdf:RDF>
      <cc:Work
         rdf:about="">
        <dc:format>image/svg+xml</dc:format>
        <dc:type
           rdf:resource="http://purl.org/dc/dcmitype/StillImage" />
        <dc:title></dc:title>
      </cc:Work>
    </rdf:RDF>
  </metadata>
  <defs
     id="defs8" />
  <sodipodi:namedview
     pagecolor="#ffffff"
     bordercolor="#666666"
     borderopacity="1"
     objecttolerance="10"
     gridtolerance="10"
     guidetolerance="10"
     inkscape:pageopacity="0"
     inkscape:pageshadow="2"
     inkscape:window-width="1085"
     inkscape:window-height="480"
     id="namedview6"
     showgrid="false"
     inkscape:zoom="4.9166667"
     inkscape:cx="2.1355932"
     inkscape:cy="24"
     inkscape:window-x="0"
     inkscape:window-y="25"
     inkscape:window-maximized="0"
     inkscape:current-layer="svg4" />
  <path
     d="M 6.34,0.075 A 6.295,6.295 0 0 0 0.055,6.36 6.295,6.295 0 0 0 6.34,12.655 6.295,6.295 0 0 0 12.634,6.36 6.295,6.295 0 0 0 6.34,0.075 Z m -0.011,0.94 a 5.408,5.408 0 0 1 5.397,5.387 5.407,5.407 0 0 1 -10.814,0 c 0,-2.987 2.43,-5.387 5.417,-5.387 z M 7.428,4.24 7.076,4.265 C 6.283,4.322 6.171,4.338 6.252,4.385 6.32,4.426 6.302,4.443 6.08,4.555 5.429,4.885 5.09,5.569 5.207,6.322 5.304,6.882 5.839,7.475 6.484,7.754 L 6.059,8.006 C 6.389,7.984 6.809,7.946 7.174,7.812 L 7.375,8.458 C 7.652,8.354 7.851,8.283 8.106,8.175 8.134,8.132 7.764,7.632 7.681,7.527 8.16,7.048 8.338,6.787 8.328,6.103 8.32,5.469 7.873,4.653 7.088,4.425 Z M 2.193,4.322 C 2.093,4.334 1.913,4.776 1.81,4.859 1.53,5.182 1.566,5.641 1.888,5.864 2.568,6.31 3.818,5.85 3.966,6.764 3.954,7.428 2.114,7.377 1.657,7.445 2.117,8.578 4.641,7.963 5.162,7.211 5.176,7.189 5.139,7.121 5.081,7.061 5.005,6.981 4.982,6.927 5.001,6.868 A 0.862,0.862 0 0 0 4.981,6.566 C 4.917,6.256 4.698,6.04 4.332,5.926 4.106,5.857 3.972,5.895 3.478,5.85 L 2.871,5.795 C 2.798,5.71 2.756,5.71 2.714,5.611 2.714,5.59 2.89,5.574 3.116,5.574 3.622,5.571 4.636,5.316 5,4.754 4.388,4.761 3.83,5.051 3.124,4.808 3.348,4.718 3.622,4.664 3.868,4.595 3.895,4.403 2.298,4.639 2.193,4.322 Z m 7.473,0 C 9.624,4.322 8.427,4.748 8.391,4.776 8.592,5.602 9.085,6.174 8.823,7.169 8.778,7.409 8.705,7.513 8.406,7.706 8.666,7.727 8.705,7.656 8.636,7.994 8.613,8.075 8.618,8.082 8.684,8.046 9.261,7.7 9.923,7.535 10.824,7.999 c 0.034,0 0.09,-0.166 0.17,-0.505 0.14,-0.603 0.195,-0.55 -0.563,-0.55 -0.252,0 -0.602,0.024 -0.936,0.142 C 9.692,6.229 9.96,5.467 9.735,4.449 9.723,4.379 9.691,4.322 9.665,4.322 Z M 6.732,4.697 c 0.323,0.44 0.506,0.684 0.587,1.288 A 1.86,1.86 0 0 1 7.156,6.931 C 7.063,7.133 7.061,7.134 6.932,7.097 6.769,7.053 6.592,7.062 6.423,7.06 6.58,7.184 6.7,7.271 6.837,7.405 6.841,7.527 6.715,7.6 6.615,7.444 6.341,7.079 6.197,6.611 6.196,6.079 6.2,5.649 6.385,5.097 6.732,4.697 Z"
     id="path2"
     inkscape:connector-curvature="0"
     style="fill:#5beedc" />
</svg>
