<?xml version="1.0" encoding="UTF-8" standalone="no"?>
<svg
   xmlns:dc="http://purl.org/dc/elements/1.1/"
   xmlns:cc="http://creativecommons.org/ns#"
   xmlns:rdf="http://www.w3.org/1999/02/22-rdf-syntax-ns#"
   xmlns:svg="http://www.w3.org/2000/svg"
   xmlns="http://www.w3.org/2000/svg"
   xmlns:sodipodi="http://sodipodi.sourceforge.net/DTD/sodipodi-0.dtd"
   xmlns:inkscape="http://www.inkscape.org/namespaces/inkscape"
   width="48"
   height="48"
   viewBox="0 0 12.7 12.7"
   version="1.1"
   id="svg4"
   sodipodi:docname="stacer.svg"
   inkscape:version="0.92.4 (5da689c313, 2019-01-14)">
  <metadata
     id="metadata10">
    <rdf:RDF>
      <cc:Work
         rdf:about="">
        <dc:format>image/svg+xml</dc:format>
        <dc:type
           rdf:resource="http://purl.org/dc/dcmitype/StillImage" />
        <dc:title></dc:title>
      </cc:Work>
    </rdf:RDF>
  </metadata>
  <defs
     id="defs8" />
  <sodipodi:namedview
     pagecolor="#ffffff"
     bordercolor="#666666"
     borderopacity="1"
     objecttolerance="10"
     gridtolerance="10"
     guidetolerance="10"
     inkscape:pageopacity="0"
     inkscape:pageshadow="2"
     inkscape:window-width="1087"
     inkscape:window-height="480"
     id="namedview6"
     showgrid="false"
     inkscape:zoom="4.9166667"
     inkscape:cx="2.1355932"
     inkscape:cy="24"
     inkscape:window-x="0"
     inkscape:window-y="25"
     inkscape:window-maximized="0"
     inkscape:current-layer="svg4" />
  <path
     d="M 6.34,0.07 A 6.29,6.29 0 0 0 0.05,6.37 6.29,6.29 0 0 0 6.35,12.65 6.29,6.29 0 0 0 12.63,6.36 6.29,6.29 0 0 0 6.34,0.07 Z M 6.32,1 6.33,1.01 a 5.4,5.4 0 0 1 5.4,5.4 5.4,5.4 0 0 1 -5.4,5.41 A 5.4,5.4 0 0 1 0.92,6.42 5.4,5.4 0 0 1 6.32,1 Z m 0.03,0.86 c -2.49,0 -4.49,2 -4.49,4.5 0,1.54 0.78,2.9 1.95,3.7 L 4.21,9.49 A 3.8,3.8 0 0 1 2.57,6.66 H 3.6 V 6.04 H 2.57 C 2.63,5.24 2.94,4.5 3.43,3.92 L 4.2,4.69 4.63,4.25 3.86,3.48 C 4.46,2.96 5.22,2.62 6.06,2.56 V 3.64 H 6.68 V 2.56 c 0.84,0.08 1.6,0.42 2.2,0.95 L 8.13,4.25 8.56,4.69 9.3,3.95 c 0.47,0.58 0.77,1.3 0.83,2.1 H 9.05 v 0.6 h 1.08 A 3.8,3.8 0 0 1 8.5,9.5 l 0.4,0.58 A 4.49,4.49 0 0 0 6.36,1.87 Z m 0,3.8 a 0.7,0.7 0 1 0 0.4,1.25 l 1.8,1.52 A 0.17,0.17 0 0 0 8.79,8.41 0.17,0.17 0 0 0 8.77,8.17 L 6.97,6.65 A 0.69,0.69 0 0 0 6.35,5.66 Z"
     id="path2"
     inkscape:connector-curvature="0"
     style="fill:#5beedc" />
</svg>
