<?xml version="1.0" encoding="UTF-8" standalone="no"?>
<svg
   xmlns:dc="http://purl.org/dc/elements/1.1/"
   xmlns:cc="http://creativecommons.org/ns#"
   xmlns:rdf="http://www.w3.org/1999/02/22-rdf-syntax-ns#"
   xmlns:svg="http://www.w3.org/2000/svg"
   xmlns="http://www.w3.org/2000/svg"
   xmlns:sodipodi="http://sodipodi.sourceforge.net/DTD/sodipodi-0.dtd"
   xmlns:inkscape="http://www.inkscape.org/namespaces/inkscape"
   width="48"
   height="48"
   viewBox="0 0 12.7 12.7"
   version="1.1"
   id="svg4"
   sodipodi:docname="media-optical-data-new.svg"
   inkscape:version="0.92.5 (2060ec1f9f, 2020-04-08)">
  <defs
     id="defs8">
  <style
     id="current-color-scheme"
     type="text/css">
      .ColorScheme-Highlight {
        color:#5beedc;
      }
  </style>
  </defs>
  <path
     class="ColorScheme-Highlight"
     style="fill:#5beedc"
     d="M 24 0 A 24 24 0 0 0 0 24 A 24 24 0 0 0 24 48 A 24 24 0 0 0 28.185547 47.609375 A 14 14 0 0 1 28.095703 47.554688 A 14 14 0 0 1 26.980469 46.707031 A 14 14 0 0 1 25.957031 45.753906 A 14 14 0 0 1 25.033203 44.703125 A 14 14 0 0 1 24.21875 43.564453 A 14 14 0 0 1 23.523438 42.349609 A 14 14 0 0 1 22.951172 41.072266 A 14 14 0 0 1 22.509766 39.744141 A 14 14 0 0 1 22.203125 38.378906 A 14 14 0 0 1 22.035156 36.990234 A 14 14 0 0 1 22 36 A 14 14 0 0 1 22.058594 34.818359 A 11 11 0 0 1 13 24 A 11 11 0 0 1 24 13 A 11 11 0 0 1 34.824219 22.058594 A 14 14 0 0 1 35.009766 22.035156 A 14 14 0 0 1 36 22 A 14 14 0 0 1 37.398438 22.070312 A 14 14 0 0 1 38.78125 22.279297 A 14 14 0 0 1 40.136719 22.625 A 14 14 0 0 1 41.451172 23.105469 A 14 14 0 0 1 42.712891 23.712891 A 14 14 0 0 1 43.904297 24.445312 A 14 14 0 0 1 45.019531 25.292969 A 14 14 0 0 1 46.042969 26.246094 A 14 14 0 0 1 46.966797 27.296875 A 14 14 0 0 1 47.621094 28.210938 A 24 24 0 0 0 48 24 A 24 24 0 0 0 24 0 z M 24 17 A 6.9999996 6.9999996 0 0 0 17 24 A 6.9999996 6.9999996 0 0 0 22.970703 30.917969 A 14 14 0 0 1 23.105469 30.548828 A 14 14 0 0 1 23.712891 29.287109 A 14 14 0 0 1 24.445312 28.095703 A 14 14 0 0 1 24.550781 27.957031 A 3.9999994 3.9999994 0 0 1 24 28 A 3.9999994 3.9999994 0 0 1 20 24 A 3.9999994 3.9999994 0 0 1 24 20 A 3.9999994 3.9999994 0 0 1 28 24 A 3.9999994 3.9999994 0 0 1 27.955078 24.5625 A 14 14 0 0 1 28.435547 24.21875 A 14 14 0 0 1 29.650391 23.523438 A 14 14 0 0 1 30.914062 22.957031 A 6.9999996 6.9999996 0 0 0 24 17 z M 36 24 A 12 12 0 0 0 24 36 A 12 12 0 0 0 36 48 A 12 12 0 0 0 48 36 A 12 12 0 0 0 36 24 z M 29 30 L 43 30 L 43 32 L 29 32 L 29 30 z M 29 35 L 43 35 L 43 37 L 29 37 L 29 35 z M 29 40 L 43 40 L 43 42 L 29 42 L 29 40 z "
     transform="scale(0.26458333)"
     id="path836" />
</svg>
