<?xml version="1.0" encoding="UTF-8" standalone="no"?>
<svg
   xmlns:dc="http://purl.org/dc/elements/1.1/"
   xmlns:cc="http://creativecommons.org/ns#"
   xmlns:rdf="http://www.w3.org/1999/02/22-rdf-syntax-ns#"
   xmlns:svg="http://www.w3.org/2000/svg"
   xmlns="http://www.w3.org/2000/svg"
   xmlns:sodipodi="http://sodipodi.sourceforge.net/DTD/sodipodi-0.dtd"
   xmlns:inkscape="http://www.inkscape.org/namespaces/inkscape"
   width="48"
   height="48"
   viewBox="0 0 12.7 12.7"
   version="1.1"
   id="svg6"
   sodipodi:docname="svgcleaner.svg"
   inkscape:version="0.92.4 (5da689c313, 2019-01-14)">
  <metadata
     id="metadata12">
    <rdf:RDF>
      <cc:Work
         rdf:about="">
        <dc:format>image/svg+xml</dc:format>
        <dc:type
           rdf:resource="http://purl.org/dc/dcmitype/StillImage" />
        <dc:title></dc:title>
      </cc:Work>
    </rdf:RDF>
  </metadata>
  <defs
     id="defs10" />
  <sodipodi:namedview
     pagecolor="#ffffff"
     bordercolor="#666666"
     borderopacity="1"
     objecttolerance="10"
     gridtolerance="10"
     guidetolerance="10"
     inkscape:pageopacity="0"
     inkscape:pageshadow="2"
     inkscape:window-width="1087"
     inkscape:window-height="480"
     id="namedview8"
     showgrid="false"
     inkscape:zoom="4.9166667"
     inkscape:cx="2.1355932"
     inkscape:cy="24"
     inkscape:window-x="0"
     inkscape:window-y="25"
     inkscape:window-maximized="0"
     inkscape:current-layer="svg6" />
  <path
     d="M 8.9,1.66 A 5.4,5.4 0 0 0 8.42,1.43 5.4,5.4 0 0 0 7.92,1.24 5.4,5.4 0 0 0 7.39,1.11 5.4,5.4 0 0 0 6.86,1.03 5.4,5.4 0 0 0 6.32,1 L 6.31,0.99 A 5.4,5.4 0 0 0 5.91,1.01 5.4,5.4 0 0 0 5.37,1.07 5.4,5.4 0 0 0 4.85,1.19 5.4,5.4 0 0 0 4.33,1.36 5.4,5.4 0 0 0 3.84,1.59 5.4,5.4 0 0 0 3.38,1.86 5.4,5.4 0 0 0 2.94,2.17 5.4,5.4 0 0 0 2.54,2.53 5.4,5.4 0 0 0 2.17,2.93 5.4,5.4 0 0 0 1.88,3.3 l 1.93,3.34 0.43,0.19 1.23,-1 0.85,-0.46 3.4,-1.88 0.07,-0.3 z"
     id="path2"
     inkscape:connector-curvature="0"
     style="opacity:0.2;fill:#5beedc" />
  <path
     d="m 6.34,0.07 a 6.29,6.29 0 0 0 -6.29,6.3 6.29,6.29 0 0 0 6.3,6.28 6.29,6.29 0 0 0 3.2,-0.89 L 9.13,11.03 A 5.4,5.4 0 0 1 6.33,11.82 5.4,5.4 0 0 1 0.92,6.42 5.4,5.4 0 0 1 6.32,1 l 0.01,0.01 a 5.4,5.4 0 0 1 5.4,5.4 5.4,5.4 0 0 1 -1.05,3.2 l 0.46,0.8 A 6.29,6.29 0 0 0 12.63,6.36 6.29,6.29 0 0 0 6.34,0.07 Z M 9.4,2.95 A 0.5,0.5 0 0 0 9.1,3 L 4,5.97 A 0.5,0.5 0 1 0 4.5,6.82 L 9.6,3.86 A 0.5,0.5 0 0 0 9.39,2.95 Z M 8.7,4.45 8.61,4.46 A 0.32,0.32 0 0 0 8.51,4.5 L 5.58,6.19 C 5.45,6.27 5.39,6.42 5.46,6.54 5.53,6.66 5.69,6.69 5.83,6.62 l 1.03,-0.6 3.17,5.5 a 0.50606324,0.50606324 0 0 0 0.88,-0.5 L 7.73,5.52 8.76,4.92 A 0.27,0.27 0 0 0 8.88,4.57 0.24,0.24 0 0 0 8.69,4.46 Z m -5,4.14 A 0.55,0.55 0 0 0 3.48,8.63 0.34,0.34 0 0 0 3.34,8.74 0.3,0.3 0 0 0 3.28,8.92 c 0,0.1 0.03,0.18 0.09,0.24 a 0.6,0.6 0 0 0 0.25,0.15 l 0.19,0.08 c 0.04,0.03 0.08,0.05 0.1,0.08 A 0.2,0.2 0 0 1 3.93,9.58 C 3.93,9.65 3.91,9.7 3.86,9.74 A 0.36,0.36 0 0 1 3.64,9.79 0.87,0.87 0 0 1 3.27,9.72 v 0.15 l 0.15,0.05 0.2,0.02 c 0.15,0 0.27,-0.04 0.35,-0.1 A 0.32,0.32 0 0 0 4.1,9.57 0.32,0.32 0 0 0 4.05,9.4 0.34,0.34 0 0 0 3.93,9.28 1.04,1.04 0 0 0 3.73,9.18 1.18,1.18 0 0 1 3.57,9.11 0.26,0.26 0 0 1 3.47,9.03 0.2,0.2 0 0 1 3.45,8.93 C 3.45,8.87 3.47,8.82 3.51,8.79 3.56,8.75 3.61,8.73 3.7,8.73 c 0.06,0 0.11,0 0.16,0.02 L 4.01,8.8 4.07,8.66 A 0.9,0.9 0 0 0 3.7,8.59 Z m 2.36,0 A 0.75,0.75 0 0 0 5.69,8.67 0.56,0.56 0 0 0 5.46,8.91 0.75,0.75 0 0 0 5.38,9.26 c 0,0.14 0.02,0.26 0.07,0.36 0.05,0.1 0.12,0.18 0.21,0.23 0.1,0.06 0.21,0.09 0.35,0.09 A 1.64,1.64 0 0 0 6.47,9.87 V 9.2 H 6.01 v 0.15 h 0.3 v 0.4 A 1.1,1.1 0 0 1 6.05,9.77 0.54,0.54 0 0 1 5.76,9.71 0.4,0.4 0 0 1 5.6,9.51 0.73,0.73 0 0 1 5.55,9.24 C 5.55,9.08 5.6,8.94 5.68,8.86 5.77,8.76 5.89,8.71 6.05,8.71 L 6.23,8.74 6.39,8.79 6.45,8.64 A 0.92,0.92 0 0 0 6.05,8.57 Z M 4.18,8.6 4.65,9.92 H 4.82 L 5.29,8.6 H 5.11 L 4.81,9.44 A 2.44,2.44 0 0 0 4.73,9.74 2.41,2.41 0 0 0 4.65,9.44 L 4.35,8.6 Z"
     id="path4"
     inkscape:connector-curvature="0"
     style="fill:#5beedc" />
</svg>
