<?xml version="1.0" encoding="UTF-8" standalone="no"?>
<svg
   xmlns:dc="http://purl.org/dc/elements/1.1/"
   xmlns:cc="http://creativecommons.org/ns#"
   xmlns:rdf="http://www.w3.org/1999/02/22-rdf-syntax-ns#"
   xmlns:svg="http://www.w3.org/2000/svg"
   xmlns="http://www.w3.org/2000/svg"
   xmlns:sodipodi="http://sodipodi.sourceforge.net/DTD/sodipodi-0.dtd"
   xmlns:inkscape="http://www.inkscape.org/namespaces/inkscape"
   width="48"
   height="48"
   viewBox="0 0 12.7 12.7"
   version="1.1"
   id="svg4"
   sodipodi:docname="SymbolEditor.svg"
   inkscape:version="0.92.4 (5da689c313, 2019-01-14)">
  <metadata
     id="metadata10">
    <rdf:RDF>
      <cc:Work
         rdf:about="">
        <dc:format>image/svg+xml</dc:format>
        <dc:type
           rdf:resource="http://purl.org/dc/dcmitype/StillImage" />
        <dc:title></dc:title>
      </cc:Work>
    </rdf:RDF>
  </metadata>
  <defs
     id="defs8" />
  <sodipodi:namedview
     pagecolor="#ffffff"
     bordercolor="#666666"
     borderopacity="1"
     objecttolerance="10"
     gridtolerance="10"
     guidetolerance="10"
     inkscape:pageopacity="0"
     inkscape:pageshadow="2"
     inkscape:window-width="861"
     inkscape:window-height="480"
     id="namedview6"
     showgrid="false"
     inkscape:zoom="4.9166667"
     inkscape:cx="2.1355932"
     inkscape:cy="24"
     inkscape:window-x="0"
     inkscape:window-y="25"
     inkscape:window-maximized="0"
     inkscape:current-layer="svg4" />
  <path
     style="font-weight:400;font-size:14.9829998px;line-height:1.25;font-family:'Electric Guitar Icons';-inkscape-font-specification:'Electric Guitar Icons';letter-spacing:0;word-spacing:0;fill:#5beedc"
     d="M 6.351,0.06 H 6.35 A 6.29,6.29 0 0 0 0.061,6.35 6.29,6.29 0 0 0 6.351,12.638 6.29,6.29 0 0 0 12.639,6.35 6.29,6.29 0 0 0 6.351,0.06 Z M 6.331,0.997 A 5.407,5.407 0 0 1 11.739,6.404 5.407,5.407 0 0 1 6.332,11.811 5.407,5.407 0 0 1 0.925,6.404 5.407,5.407 0 0 1 6.332,0.997 Z M 2.779,2.778 V 5.694 H 5.695 V 2.778 H 2.778 Z M 8.432,2.811 A 1.458,1.458 0 0 0 6.974,4.269 1.458,1.458 0 0 0 8.432,5.727 1.458,1.458 0 0 0 9.89,4.269 1.458,1.458 0 0 0 8.432,2.811 Z m -5.07,0.55 h 1.75 v 1.75 H 3.36 V 3.36 Z M 3.654,7.006 V 7.881 H 2.779 V 9.047 H 3.654 V 9.922 H 4.82 V 9.047 H 5.695 V 7.881 H 4.82 V 7.006 H 3.653 Z m 4.811,0 -1.459,2.916 H 9.922 L 8.464,7.006 Z m 0,0.698 V 9.61 H 7.512 L 8.465,7.705 Z"
     font-weight="400"
     font-size="14.983"
     letter-spacing="0"
     word-spacing="0"
     id="path2"
     inkscape:connector-curvature="0" />
</svg>
