<?xml version="1.0" encoding="UTF-8" standalone="no"?>
<svg
   xmlns:dc="http://purl.org/dc/elements/1.1/"
   xmlns:cc="http://creativecommons.org/ns#"
   xmlns:rdf="http://www.w3.org/1999/02/22-rdf-syntax-ns#"
   xmlns:svg="http://www.w3.org/2000/svg"
   xmlns="http://www.w3.org/2000/svg"
   xmlns:sodipodi="http://sodipodi.sourceforge.net/DTD/sodipodi-0.dtd"
   xmlns:inkscape="http://www.inkscape.org/namespaces/inkscape"
   width="48"
   height="48"
   viewBox="0 0 12.7 12.7"
   version="1.1"
   id="svg4"
   sodipodi:docname="synaptic.svg"
   inkscape:version="0.92.5 (2060ec1f9f, 2020-04-08)">
  <defs
     id="defs8">
  <style
     id="current-color-scheme"
     type="Highlight/css">
      .ColorScheme-Highlight {
        color:#5beedc;
      }
  </style>
  </defs>
  <path
     class="ColorScheme-Highlight"
     style="fill:#5beedc"
     d="M 24 0 A 24 24 0 0 0 0 24 A 24 24 0 0 0 24 48 A 24 24 0 0 0 48 24 A 24 24 0 0 0 24 0 z M 24 3 A 21 21 0 0 1 45 24 A 21 21 0 0 1 24 45 A 21 21 0 0 1 3 24 A 21 21 0 0 1 24 3 z M 24 5 A 6.9999991 6.9999991 0 0 0 17 12 L 17 14 L 13 14 L 11 14 L 11 16 L 11 37 L 11 39 L 13 39 L 35 39 L 37 39 L 37 37 L 37 16 L 37 14 L 35 14 L 31 14 L 31 12 A 6.9999991 6.9999991 0 0 0 24 5 z M 24 7 A 4.9999989 4.9999989 0 0 1 29 12 L 29 14 L 19 14 L 19 12 A 4.9999989 4.9999989 0 0 1 24 7 z M 18 16 A 1.9999999 1.9999999 0 0 1 20 18 A 1.9999999 1.9999999 0 0 1 18 20 A 1.9999999 1.9999999 0 0 1 16 18 A 1.9999999 1.9999999 0 0 1 18 16 z M 30 16 A 1.9999999 1.9999999 0 0 1 32 18 A 1.9999999 1.9999999 0 0 1 30 20 A 1.9999999 1.9999999 0 0 1 28 18 A 1.9999999 1.9999999 0 0 1 30 16 z M 21 23 L 27 23 L 27 29 L 30 29 L 24 36 L 18 29 L 21 29 L 21 23 z "
     transform="scale(0.26458333)"
     id="path834" />
</svg>
