<?xml version="1.0" encoding="UTF-8" standalone="no"?>
<svg
   xmlns:dc="http://purl.org/dc/elements/1.1/"
   xmlns:cc="http://creativecommons.org/ns#"
   xmlns:rdf="http://www.w3.org/1999/02/22-rdf-syntax-ns#"
   xmlns:svg="http://www.w3.org/2000/svg"
   xmlns="http://www.w3.org/2000/svg"
   xmlns:xlink="http://www.w3.org/1999/xlink"
   xmlns:sodipodi="http://sodipodi.sourceforge.net/DTD/sodipodi-0.dtd"
   xmlns:inkscape="http://www.inkscape.org/namespaces/inkscape"
   width="48"
   height="48"
   viewBox="0 0 12.7 12.7"
   version="1.1"
   id="svg16"
   sodipodi:docname="synfigstudio.svg"
   inkscape:version="0.92.4 (5da689c313, 2019-01-14)">
  <metadata
     id="metadata20">
    <rdf:RDF>
      <cc:Work
         rdf:about="">
        <dc:format>image/svg+xml</dc:format>
        <dc:type
           rdf:resource="http://purl.org/dc/dcmitype/StillImage" />
        <dc:title></dc:title>
      </cc:Work>
    </rdf:RDF>
  </metadata>
  <sodipodi:namedview
     pagecolor="#ffffff"
     bordercolor="#666666"
     borderopacity="1"
     objecttolerance="10"
     gridtolerance="10"
     guidetolerance="10"
     inkscape:pageopacity="0"
     inkscape:pageshadow="2"
     inkscape:window-width="1138"
     inkscape:window-height="480"
     id="namedview18"
     showgrid="false"
     inkscape:zoom="4.9166667"
     inkscape:cx="2.1355932"
     inkscape:cy="24"
     inkscape:window-x="0"
     inkscape:window-y="25"
     inkscape:window-maximized="0"
     inkscape:current-layer="svg16" />
  <defs
     id="defs8">
    <radialGradient
       id="b"
       cx="377.24"
       cy="603.79"
       r="329.18"
       gradientTransform="matrix(0,-0.0168,0.00875,0,1.07,13.906)"
       gradientUnits="userSpaceOnUse"
       xlink:href="#a" />
    <linearGradient
       id="a">
      <stop
         stop-color="#a3fbff"
         offset="0"
         id="stop3" />
      <stop
         stop-color="#25f8ff"
         stop-opacity="0"
         offset="1"
         id="stop5" />
    </linearGradient>
  </defs>
  <path
     d="m 6.344,0.073 a 6.29,6.29 0 0 0 -6.29,6.29 6.29,6.29 0 0 0 6.29,6.288 6.29,6.29 0 0 0 6.29,-6.289 6.29,6.29 0 0 0 -6.29,-6.29 z M 6.326,1.009 A 5.407,5.407 0 0 1 11.733,6.416 5.407,5.407 0 0 1 6.326,11.823 5.407,5.407 0 0 1 0.92,6.416 5.407,5.407 0 0 1 6.326,1.01 Z"
     id="path10"
     inkscape:connector-curvature="0"
     style="fill:#5beedc" />
  <path
     d="M 6.361,2.055 A 0.098,0.098 0 0 0 6.288,2.085 C 6.011,2.373 5.731,2.697 5.478,3.005 H 5.476 C 4.851,3.785 4.376,4.586 4.032,5.445 3.711,6.243 3.524,6.934 3.352,7.941 a 16.132,16.132 0 0 0 -0.13,0.974 1.402,1.402 0 0 0 -0.003,0.12 c 0,0.006 0,0.012 0.004,0.023 0.003,0.011 0,0.033 0.044,0.06 0.023,0.015 0.027,0.012 0.032,0.013 l 0.016,0.004 0.03,0.004 0.083,0.006 c 0.24,0.013 0.593,0.074 0.828,0.142 0.158,0.047 0.262,0.085 0.416,0.154 l 0.093,0.04 0.03,0.013 0.01,0.004 0.005,0.003 H 4.809 4.81 L 4.816,9.503 4.819,9.504 H 4.815 l 0.026,0.015 0.102,0.056 c 0.378,0.212 0.66,0.432 1.112,0.864 a 9.071,9.071 0 0 0 0.21,0.194 l 0.018,0.015 0.012,0.008 0.011,0.007 c 0.006,0.003 0.012,0.008 0.039,0.01 0.032,10e-4 0.039,-0.006 0.045,-0.009 A 0.498,0.498 0 0 0 6.435,10.632 9.694,9.694 0 0 0 6.663,10.423 C 7.038,10.069 7.218,9.919 7.479,9.747 8.047,9.37 8.553,9.202 9.33,9.137 L 9.393,9.132 A 0.098,0.098 0 0 0 9.483,9.034 V 8.997 C 9.483,8.92 9.464,8.76 9.44,8.563 A 15.586,15.586 0 0 0 9.354,7.969 C 9.184,6.953 8.99,6.238 8.665,5.429 A 9.508,9.508 0 0 0 7.452,3.297 L 7.449,3.293 C 7.112,2.893 6.786,2.475 6.43,2.087 A 0.098,0.098 0 0 0 6.361,2.055 Z M 4.91,4.028 c 0,-0.009 0.332,0.17 0.457,0.242 0.219,0.125 0.653,0.387 0.865,0.565 A 0.91,0.91 0 0 0 6.352,4.926 0.981,0.981 0 0 0 6.476,4.831 C 6.71,4.635 7.096,4.336 7.343,4.202 7.429,4.155 7.741,4.03 7.741,4.037 7.741,4.039 7.474,4.176 7.406,4.221 7.259,4.32 6.929,4.573 6.784,4.691 6.654,4.798 6.445,4.998 6.445,5.017 c 0,0.007 0.017,0.033 0.039,0.057 0.34,0.384 0.72,0.89 0.862,1.167 0.072,0.14 0.152,0.25 0.144,0.25 A 0.938,0.938 0 0 1 7.417,6.395 C 7.336,6.28 7.047,5.839 6.95,5.725 6.762,5.502 6.376,5.103 6.35,5.103 A 7.21,7.21 0 0 0 5.872,5.589 C 5.726,5.753 5.395,6.232 5.295,6.374 5.255,6.432 5.219,6.479 5.216,6.479 A 0.28,0.28 0 0 1 5.246,6.416 C 5.411,6.12 5.815,5.53 6.22,5.074 A 0.174,0.174 0 0 0 6.258,5.017 C 6.258,4.994 6.023,4.774 5.858,4.642 5.681,4.502 5.371,4.323 5.209,4.215 5.146,4.173 4.909,4.031 4.909,4.028 Z M 3.964,5.954 c 0.03,-0.01 0.715,0.32 0.955,0.456 0.455,0.257 0.997,0.632 1.345,0.93 A 0.74,0.74 0 0 0 6.352,7.409 0.74,0.74 0 0 0 6.44,7.339 9.386,9.386 0 0 1 7.784,6.41 c 0.245,-0.138 0.84,-0.415 0.89,-0.415 0.01,0 -0.222,0.116 -0.307,0.162 A 7.67,7.67 0 0 0 6.887,7.215 4.205,4.205 0 0 0 6.52,7.573 c 0,0.006 0.054,0.074 0.12,0.152 0.224,0.26 0.46,0.563 0.665,0.85 0.229,0.32 0.558,0.8 0.545,0.814 A 1.75,1.75 0 0 1 7.715,9.235 12.271,12.271 0 0 0 7.058,8.445 c -0.18,-0.2 -0.684,-0.7 -0.705,-0.7 -0.022,0 -0.369,0.337 -0.586,0.57 C 5.487,8.615 5.178,8.963 4.973,9.233 4.822,9.431 4.816,9.424 4.951,9.207 A 13.73,13.73 0 0 1 6.085,7.7 C 6.139,7.637 6.184,7.58 6.184,7.574 6.184,7.561 5.98,7.362 5.817,7.216 5.312,6.764 4.582,6.263 4.075,6.023 A 0.355,0.355 0 0 1 3.965,5.955 Z m 3.623,0.764 c 0,-0.011 0.17,0.242 0.226,0.342 0.03,0.054 0.116,0.23 0.19,0.377 0.16,0.311 0.125,0.287 0.315,0.22 C 8.502,7.593 8.912,7.49 9.062,7.471 9.145,7.461 8.975,7.504 8.794,7.562 8.527,7.648 8.216,7.79 8.204,7.823 8.2,7.831 8.227,7.927 8.264,8.036 8.39,8.417 8.57,9.067 8.557,9.1 8.555,9.107 8.552,9.105 8.548,9.097 8.545,9.089 8.46,8.811 8.425,8.706 8.325,8.407 8.123,7.91 8.092,7.885 8.068,7.865 7.584,8.165 7.382,8.311 7.253,8.405 7.248,8.405 7.34,8.315 7.461,8.197 7.828,7.909 8.022,7.781 L 8.045,7.766 8.009,7.669 A 13.244,13.244 0 0 0 7.749,7.029 C 7.717,6.955 7.587,6.722 7.587,6.719 Z M 5.097,6.729 C 5.094,6.744 5.047,6.842 4.978,7.003 4.909,7.163 4.678,7.699 4.667,7.748 4.662,7.766 4.671,7.775 4.73,7.814 4.91,7.933 5.356,8.281 5.45,8.381 5.496,8.429 5.416,8.371 5.293,8.283 5.087,8.136 4.636,7.864 4.611,7.885 4.581,7.91 4.38,8.405 4.279,8.704 4.215,8.893 4.159,9.098 4.158,9.07 4.157,9.017 4.337,8.347 4.435,8.05 A 1.61,1.61 0 0 0 4.5,7.823 C 4.488,7.793 4.156,7.65 3.916,7.573 3.74,7.516 3.54,7.474 3.546,7.469 A 4.342,4.342 0 0 1 4.473,7.686 C 4.543,7.713 4.55,7.714 4.563,7.699 4.57,7.691 4.623,7.59 4.68,7.476 4.8,7.237 5.037,6.811 5.084,6.743 5.094,6.729 5.097,6.724 5.096,6.729 Z m 1.985,1.81 C 7.088,8.539 7.078,8.549 7.06,8.564 6.885,8.701 6.417,9.118 6.417,9.142 a 0.4,0.4 0 0 0 0.064,0.09 C 6.631,9.41 6.901,9.707 6.97,9.834 7.008,9.904 6.993,9.889 6.894,9.759 6.751,9.572 6.381,9.21 6.35,9.21 6.322,9.21 5.968,9.64 5.817,9.835 5.739,9.937 5.727,9.95 5.735,9.927 5.758,9.862 6.051,9.439 6.204,9.255 A 0.64,0.64 0 0 0 6.287,9.142 C 6.287,9.123 5.979,8.854 5.818,8.721 5.75,8.664 5.592,8.564 5.596,8.564 c 0.025,0 0.492,0.312 0.649,0.44 0.05,0.041 0.1,0.075 0.107,0.075 A 0.909,0.909 0 0 0 6.487,8.981 C 6.609,8.882 7.061,8.538 7.082,8.538 Z"
     id="path12"
     inkscape:connector-curvature="0"
     style="opacity:0.75;fill:#0278dc" />
  <path
     d="M 6.352,7.57 7.083,2.815 6.381,2.028 5.618,2.876 6.352,7.569 4.672,4.293 4.112,5.333 6.352,7.569 3.764,6.222 3.538,7.116 6.352,7.569 3.34,8.048 3.248,9.146 6.352,7.569 4.556,9.361 5.266,9.731 6.352,7.57 5.916,10.27 6.352,10.67 6.797,10.277 6.352,7.57 7.464,9.739 8.134,9.359 6.353,7.57 9.394,9.132 9.343,8.045 6.353,7.57 9.159,7.165 8.925,6.247 6.352,7.57 8.612,5.352 8.06,4.206 Z"
     id="path14"
     style="opacity:0.5;fill:url(#b);fill-rule:evenodd"
     inkscape:connector-curvature="0" />
</svg>
