<?xml version="1.0" encoding="UTF-8" standalone="no"?>
<svg
   xmlns:dc="http://purl.org/dc/elements/1.1/"
   xmlns:cc="http://creativecommons.org/ns#"
   xmlns:rdf="http://www.w3.org/1999/02/22-rdf-syntax-ns#"
   xmlns:svg="http://www.w3.org/2000/svg"
   xmlns="http://www.w3.org/2000/svg"
   xmlns:sodipodi="http://sodipodi.sourceforge.net/DTD/sodipodi-0.dtd"
   xmlns:inkscape="http://www.inkscape.org/namespaces/inkscape"
   width="48"
   height="48"
   version="1.1"
   id="svg4"
   sodipodi:docname="gnome-session-hibernate.svg"
   inkscape:version="0.92.5 (2060ec1f9f, 2020-04-08)">
  <defs
     id="defs8">
  <style
     id="current-color-scheme"
     type="text/css">
      .ColorScheme-Highlight {
        color:#5beedc;
      }
  </style>
  </defs>
  <path
     class="ColorScheme-Highlight"
     style="fill:#5beedc"
     d="M 24 3 A 21 21 0 0 0 3 24 A 21 21 0 0 0 24 45 A 21 21 0 0 0 45 24 A 21 21 0 0 0 24 3 z M 24 7 A 17 17 0 0 1 41 24 A 17 17 0 0 1 24 41 A 17 17 0 0 1 7 24 A 17 17 0 0 1 24 7 z M 24 10 A 14 14 0 0 0 10 24 A 14 14 0 0 0 24 38 L 24 10 z "
     id="path821" />
</svg>
