<?xml version="1.0" encoding="UTF-8" standalone="no"?>
<svg
   xmlns:dc="http://purl.org/dc/elements/1.1/"
   xmlns:cc="http://creativecommons.org/ns#"
   xmlns:rdf="http://www.w3.org/1999/02/22-rdf-syntax-ns#"
   xmlns:svg="http://www.w3.org/2000/svg"
   xmlns="http://www.w3.org/2000/svg"
   xmlns:sodipodi="http://sodipodi.sourceforge.net/DTD/sodipodi-0.dtd"
   xmlns:inkscape="http://www.inkscape.org/namespaces/inkscape"
   width="48"
   height="48"
   viewBox="0 0 12.7 12.7"
   version="1.1"
   id="svg4"
   sodipodi:docname="kjumpingcube.svg"
   inkscape:version="0.92.4 (5da689c313, 2019-01-14)">
  <metadata
     id="metadata10">
    <rdf:RDF>
      <cc:Work
         rdf:about="">
        <dc:format>image/svg+xml</dc:format>
        <dc:type
           rdf:resource="http://purl.org/dc/dcmitype/StillImage" />
        <dc:title></dc:title>
      </cc:Work>
    </rdf:RDF>
  </metadata>
  <defs
     id="defs8" />
  <sodipodi:namedview
     pagecolor="#ffffff"
     bordercolor="#666666"
     borderopacity="1"
     objecttolerance="10"
     gridtolerance="10"
     guidetolerance="10"
     inkscape:pageopacity="0"
     inkscape:pageshadow="2"
     inkscape:window-width="1087"
     inkscape:window-height="480"
     id="namedview6"
     showgrid="false"
     inkscape:zoom="4.9166667"
     inkscape:cx="2.1355932"
     inkscape:cy="24"
     inkscape:window-x="0"
     inkscape:window-y="25"
     inkscape:window-maximized="0"
     inkscape:current-layer="svg4" />
  <path
     d="M 6.34,0.07 A 6.29,6.29 0 0 0 0.05,6.37 6.29,6.29 0 0 0 6.35,12.65 6.29,6.29 0 0 0 12.63,6.36 6.29,6.29 0 0 0 6.34,0.07 Z M 6.32,1 6.33,1.01 a 5.4,5.4 0 0 1 5.4,5.4 5.4,5.4 0 0 1 -5.4,5.41 A 5.4,5.4 0 0 1 0.92,6.42 5.4,5.4 0 0 1 6.32,1 Z M 5.52,3.39 A 0.85,0.85 0 0 0 5.34,3.41 l -3.07,0.8 a 0.84,0.84 0 0 0 -0.6,1.03 l 0.8,3.07 c 0.12,0.45 0.57,0.72 1.02,0.6 l 1.92,-0.5 a 0.92,0.92 0 0 1 0,-0.31 L 5.55,7.4 A 0.53,0.53 0 0 1 5.45,7.2 0.53,0.53 0 0 1 5.69,6.62 L 6.08,4.59 A 0.94,0.94 0 0 1 6.22,4.24 C 6.26,4.18 6.32,4.14 6.38,4.08 L 6.37,4 A 0.84,0.84 0 0 0 5.51,3.38 Z M 7.09,3.92 C 6.69,3.92 6.35,4.2 6.28,4.6 L 5.68,7.72 C 5.59,8.18 5.89,8.62 6.35,8.71 L 9.47,9.3 c 0.46,0.09 0.9,-0.21 0.98,-0.67 l 0.6,-3.12 A 0.84,0.84 0 0 0 10.38,4.53 L 7.26,3.93 a 0.85,0.85 0 0 0 -0.17,0 z M 5.29,4.09 A 0.53,0.53 0 0 1 5.84,4.49 0.53,0.53 0 0 1 5.46,5.13 0.53,0.53 0 0 1 4.81,4.75 0.53,0.53 0 0 1 5.19,4.1 0.53,0.53 0 0 1 5.29,4.09 Z m 2.07,0.52 a 0.53,0.53 0 0 1 0.1,0 A 0.53,0.53 0 0 1 7.87,5.23 0.53,0.53 0 0 1 7.26,5.65 0.53,0.53 0 0 1 6.84,5.04 0.53,0.53 0 0 1 7.36,4.61 Z M 2.84,4.73 A 0.53,0.53 0 0 1 3.38,5.13 0.53,0.53 0 0 1 3,5.77 0.53,0.53 0 0 1 2.36,5.39 0.53,0.53 0 0 1 2.74,4.74 0.53,0.53 0 0 1 2.84,4.73 Z M 9.85,5.08 A 0.53,0.53 0 0 1 9.95,5.09 0.53,0.53 0 0 1 10.36,5.71 0.53,0.53 0 0 1 9.75,6.13 0.53,0.53 0 0 1 9.33,5.51 0.53,0.53 0 0 1 9.85,5.08 Z M 9.98,5.14 A 0.6,0.6 0 0 0 9.92,5.15 0.6,0.6 0 0 1 9.98,5.14 Z m -1.6,0.95 a 0.53,0.53 0 0 1 0.08,0 A 0.53,0.53 0 0 1 8.88,6.72 0.53,0.53 0 0 1 8.26,7.14 0.53,0.53 0 0 1 7.84,6.52 0.53,0.53 0 0 1 8.37,6.09 Z M 8.32,6.27 A 0.6,0.6 0 0 0 8.26,6.28 0.6,0.6 0 0 1 8.32,6.27 Z M 6.89,7.1 A 0.53,0.53 0 0 1 6.98,7.1 0.53,0.53 0 0 1 7.4,7.73 0.53,0.53 0 0 1 6.78,8.15 0.53,0.53 0 0 1 6.36,7.53 0.53,0.53 0 0 1 6.89,7.1 Z M 3.48,7.18 A 0.53,0.53 0 0 1 4.02,7.58 0.53,0.53 0 0 1 3.64,8.22 0.53,0.53 0 0 1 3,7.84 0.53,0.53 0 0 1 3.38,7.2 0.53,0.53 0 0 1 3.48,7.18 Z m 5.9,0.4 a 0.53,0.53 0 0 1 0.09,0 A 0.53,0.53 0 0 1 9.89,8.2 0.53,0.53 0 0 1 9.27,8.62 0.53,0.53 0 0 1 8.85,8 0.53,0.53 0 0 1 9.38,7.57 Z"
     id="path2"
     inkscape:connector-curvature="0"
     style="fill:#5beedc" />
</svg>
