<?xml version="1.0" encoding="UTF-8" standalone="no"?>
<svg
   xmlns:dc="http://purl.org/dc/elements/1.1/"
   xmlns:cc="http://creativecommons.org/ns#"
   xmlns:rdf="http://www.w3.org/1999/02/22-rdf-syntax-ns#"
   xmlns:svg="http://www.w3.org/2000/svg"
   xmlns="http://www.w3.org/2000/svg"
   xmlns:sodipodi="http://sodipodi.sourceforge.net/DTD/sodipodi-0.dtd"
   xmlns:inkscape="http://www.inkscape.org/namespaces/inkscape"
   width="48"
   height="48"
   viewBox="0 0 12.7 12.7"
   version="1.1"
   id="svg4"
   sodipodi:docname="tauonmb.svg"
   inkscape:version="0.92.5 (2060ec1f9f, 2020-04-08)">
  <defs
     id="defs8">
  <style
     id="current-color-scheme"
     type="text/css">
      .ColorScheme-Highlight {
        color:#5beedc;
      }
  </style>
  </defs>
  <path
     class="ColorScheme-Highlight"
     style="fill:#5beedc"
     d="M 24 0 A 24 24 0 0 0 0 24 A 24 24 0 0 0 24 48 A 24 24 0 0 0 48 24 A 24 24 0 0 0 24 0 z M 13.785156 5.6816406 L 19.619141 16.142578 A 8.9999996 8.9999996 0 0 0 15 24 L 3 24 A 21 21 0 0 1 13.785156 5.6816406 z M 24 18 A 6 6 0 0 1 30 24 A 6 6 0 0 1 24 30 A 6 6 0 0 1 18 24 A 6 6 0 0 1 24 18 z M 24 22 A 1.9999999 1.9999999 0 0 0 22 24 A 1.9999999 1.9999999 0 0 0 24 26 A 1.9999999 1.9999999 0 0 0 26 24 A 1.9999999 1.9999999 0 0 0 24 22 z M 33 24 L 45 24 A 21 21 0 0 1 34.214844 42.318359 L 28.380859 31.857422 A 8.9999996 8.9999996 0 0 0 33 24 z "
     transform="scale(0.26458333)"
     id="path817" />
</svg>
