<?xml version="1.0" encoding="UTF-8" standalone="no"?>
<svg
   xmlns:dc="http://purl.org/dc/elements/1.1/"
   xmlns:cc="http://creativecommons.org/ns#"
   xmlns:rdf="http://www.w3.org/1999/02/22-rdf-syntax-ns#"
   xmlns:svg="http://www.w3.org/2000/svg"
   xmlns="http://www.w3.org/2000/svg"
   xmlns:sodipodi="http://sodipodi.sourceforge.net/DTD/sodipodi-0.dtd"
   xmlns:inkscape="http://www.inkscape.org/namespaces/inkscape"
   width="48"
   height="48"
   viewBox="0 0 12.7 12.7"
   version="1.1"
   id="svg4"
   sodipodi:docname="kopete.svg"
   inkscape:version="0.92.4 (5da689c313, 2019-01-14)">
  <metadata
     id="metadata10">
    <rdf:RDF>
      <cc:Work
         rdf:about="">
        <dc:format>image/svg+xml</dc:format>
        <dc:type
           rdf:resource="http://purl.org/dc/dcmitype/StillImage" />
        <dc:title></dc:title>
      </cc:Work>
    </rdf:RDF>
  </metadata>
  <defs
     id="defs8" />
  <sodipodi:namedview
     pagecolor="#ffffff"
     bordercolor="#666666"
     borderopacity="1"
     objecttolerance="10"
     gridtolerance="10"
     guidetolerance="10"
     inkscape:pageopacity="0"
     inkscape:pageshadow="2"
     inkscape:window-width="1087"
     inkscape:window-height="480"
     id="namedview6"
     showgrid="false"
     inkscape:zoom="4.9166667"
     inkscape:cx="2.1355932"
     inkscape:cy="24"
     inkscape:window-x="0"
     inkscape:window-y="25"
     inkscape:window-maximized="0"
     inkscape:current-layer="svg4" />
  <path
     d="M 6.35,0.06 A 6.29,6.29 0 0 0 0.06,6.36 6.29,6.29 0 0 0 6.36,12.64 6.29,6.29 0 0 0 12.64,6.35 6.29,6.29 0 0 0 6.35,0.06 Z M 6.33,1 a 5.4,5.4 0 0 1 5.4,5.4 5.4,5.4 0 0 1 -5.4,5.41 A 5.4,5.4 0 0 1 0.93,6.41 5.4,5.4 0 0 1 6.33,1 Z M 8.01,2.4 7.47,2.77 A 5.63,5.63 0 0 1 8.66,6.35 5.63,5.63 0 0 1 7.47,9.93 l 0.54,0.36 A 6.34,6.34 0 0 0 9.41,6.35 6.31,6.31 0 0 0 8,2.41 Z M 3.97,4.56 c -0.16,0 -0.3,0.05 -0.4,0.16 -0.1,0.11 -0.14,0.24 -0.14,0.38 0,0.15 0.05,0.28 0.15,0.39 0.1,0.1 0.23,0.16 0.4,0.16 0.16,0 0.3,-0.05 0.4,-0.16 C 4.48,5.38 4.52,5.25 4.52,5.1 A 0.55,0.55 0 0 0 4.37,4.72 0.51,0.51 0 0 0 3.97,4.56 Z M 5.2,5.99 V 6.7 h 2 V 6 h -2 z M 3.6,7.86 v 0.18 l 0.02,0.2 c 0,0.26 -0.03,0.52 -0.07,0.8 A 2.9,2.9 0 0 1 3.28,9.9 l 0.59,0.18 A 4.4,4.4 0 0 0 4.43,8.11 V 8 7.87 H 3.6 Z"
     id="path2"
     inkscape:connector-curvature="0"
     style="fill:#5beedc" />
</svg>
