<?xml version="1.0" encoding="UTF-8" standalone="no"?>
<svg
   xmlns:dc="http://purl.org/dc/elements/1.1/"
   xmlns:cc="http://creativecommons.org/ns#"
   xmlns:rdf="http://www.w3.org/1999/02/22-rdf-syntax-ns#"
   xmlns:svg="http://www.w3.org/2000/svg"
   xmlns="http://www.w3.org/2000/svg"
   xmlns:sodipodi="http://sodipodi.sourceforge.net/DTD/sodipodi-0.dtd"
   xmlns:inkscape="http://www.inkscape.org/namespaces/inkscape"
   width="48"
   height="48"
   viewBox="0 0 12.7 12.7"
   version="1.1"
   id="svg6"
   sodipodi:docname="termineter.svg"
   inkscape:version="0.92.5 (2060ec1f9f, 2020-04-08)">
  <metadata
     id="metadata12">
    <rdf:RDF>
      <cc:Work
         rdf:about="">
        <dc:format>image/svg+xml</dc:format>
        <dc:type
           rdf:resource="http://purl.org/dc/dcmitype/StillImage" />
        <dc:title></dc:title>
      </cc:Work>
    </rdf:RDF>
  </metadata>
  <defs
     id="defs10" />
  <sodipodi:namedview
     pagecolor="#ffffff"
     bordercolor="#666666"
     borderopacity="1"
     objecttolerance="10"
     gridtolerance="10"
     guidetolerance="10"
     inkscape:pageopacity="0"
     inkscape:pageshadow="2"
     inkscape:window-width="1085"
     inkscape:window-height="480"
     id="namedview8"
     showgrid="false"
     inkscape:zoom="4.9166667"
     inkscape:cx="2.1355932"
     inkscape:cy="24"
     inkscape:window-x="0"
     inkscape:window-y="25"
     inkscape:window-maximized="0"
     inkscape:current-layer="svg6" />
  <ellipse
     cx="9.8570004"
     cy="5.402"
     rx="0.75099999"
     ry="0.77100003"
     id="ellipse2"
     style="opacity:0.8;fill:#ff2a2a;paint-order:stroke fill markers" />
  <path
     d="m 6.34,0.075 a 6.295,6.295 0 0 0 -6.285,6.285 6.295,6.295 0 0 0 6.285,6.295 6.295,6.295 0 0 0 3.092,-0.817 6.295,6.295 0 0 0 0.18,-0.11 6.295,6.295 0 0 0 2,-1.933 6.295,6.295 0 0 0 0.024,-0.035 6.295,6.295 0 0 0 0.422,-0.787 6.295,6.295 0 0 0 0.046,-0.104 6.295,6.295 0 0 0 0.53,-2.51 A 6.295,6.295 0 0 0 10.125,1.349 6.295,6.295 0 0 0 10.075,1.313 6.295,6.295 0 0 0 9.72,1.061 6.295,6.295 0 0 0 9.507,0.939 6.295,6.295 0 0 0 6.34,0.075 Z M 6.329,1.015 A 5.408,5.408 0 0 1 8.673,1.562 C 8.017,2.196 7.7,2.928 7.618,4.062 A 4.2,4.2 0 0 0 7.632,4.976 C 7.682,5.502 7.79,6.112 7.887,6.428 L 7.953,6.646 7.865,6.771 C 7.748,6.931 7.748,7.056 7.87,7.344 8.053,7.779 8.139,7.909 8.277,7.95 8.313,7.961 8.347,8.008 8.366,8.075 8.413,8.225 8.407,8.255 8.324,8.41 L 8.247,8.551 8.332,8.629 c 0.05,0.044 0.109,0.092 0.134,0.105 0.083,0.047 0.177,1.03 0.127,1.366 -0.017,0.113 -0.036,0.282 -0.047,0.373 l -0.017,0.164 0.155,0.141 0.155,0.139 -0.025,0.124 c -0.01,0.052 0.013,0.097 0.023,0.142 A 5.407,5.407 0 0 1 0.912,6.403 c 0,-2.988 2.43,-5.388 5.417,-5.388 z m 2.586,0.664 a 5.408,5.408 0 0 1 0.32,0.196 C 9.059,2.061 8.892,2.257 8.798,2.489 8.77,2.564 8.737,2.622 8.728,2.622 A 0.36,0.36 0 0 1 8.651,2.536 C 8.587,2.453 8.438,2.346 8.382,2.346 8.366,2.346 8.399,2.395 8.454,2.453 8.598,2.605 8.632,2.76 8.612,3.201 8.596,3.6 8.554,3.744 8.338,4.201 8.178,4.539 8.169,4.616 8.272,4.921 L 8.338,5.128 8.341,4.846 C 8.343,4.569 8.346,4.558 8.438,4.431 8.488,4.356 8.57,4.221 8.618,4.123 8.692,3.973 8.731,3.933 8.9,3.821 9.008,3.752 9.174,3.666 9.266,3.627 9.36,3.588 9.443,3.553 9.451,3.544 9.484,3.511 9.011,3.641 8.831,3.716 8.784,3.736 8.781,3.73 8.798,3.666 8.806,3.627 8.825,3.448 8.842,3.268 8.856,3.088 8.895,2.841 8.925,2.719 9.001,2.419 9.146,2.159 9.328,1.933 a 5.408,5.408 0 0 1 1.977,2.412 c -0.11,0.054 -0.184,0.107 -0.286,0.296 L 10.927,4.816 10.781,4.574 C 10.515,4.134 10.227,3.814 9.986,3.691 A 0.332,0.332 0 0 0 9.878,3.648 c -0.01,0.002 0.007,0.02 0.058,0.052 0.105,0.063 0.283,0.265 0.371,0.42 0.059,0.105 0.058,0.114 0.014,0.095 A 1.574,1.574 0 0 0 9.991,4.179 C 9.488,4.159 9.1,4.3 8.784,4.613 8.637,4.76 8.59,4.829 8.551,4.953 L 8.501,5.112 8.579,5.283 C 8.651,5.444 8.654,5.469 8.632,5.666 8.573,6.164 8.634,6.446 8.817,6.544 9.044,6.66 9.781,6.516 10.324,6.25 10.692,6.07 10.88,5.901 10.999,5.644 11.113,5.397 11.143,5.104 11.074,4.94 11.033,4.838 11.033,4.83 11.091,4.752 c 0.033,-0.045 0.072,-0.08 0.083,-0.08 0.05,0 0.08,0.16 0.072,0.376 -0.006,0.125 0,0.222 0.011,0.216 C 11.321,5.226 11.351,4.68 11.296,4.558 11.284,4.53 11.34,4.521 11.372,4.503 a 5.408,5.408 0 0 1 0.291,1.129 C 11.66,5.639 11.66,5.649 11.656,5.654 11.62,5.704 11.609,5.699 11.479,5.558 11.404,5.478 11.36,5.441 11.339,5.438 c -0.007,0 -0.01,0.002 -0.013,0.01 -0.008,0.021 -0.033,0.16 -0.058,0.304 -0.028,0.144 -0.116,0.518 -0.202,0.83 -0.122,0.444 -0.158,0.615 -0.158,0.776 -0.002,0.326 0.066,0.443 0.269,0.443 0.157,0 0.265,-0.052 0.285,-0.133 0.024,-0.122 0.057,-0.153 0.149,-0.163 A 5.407,5.407 0 0 1 11.124,8.87 l -0.017,0.011 a 2.74,2.74 0 0 1 0,-0.285 C 11.113,8.441 11.105,8.283 11.088,8.244 L 11.06,8.174 V 8.258 C 11.058,8.391 10.966,8.826 10.941,8.826 A 0.024,0.024 0 0 1 10.919,8.804 0.195,0.195 0 0 0 10.88,8.726 c -0.038,-0.05 -0.044,-0.05 -0.146,0.052 l -0.108,0.103 -0.12,-0.06 C 10.393,8.759 10.39,8.753 10.404,8.645 10.44,8.405 10.454,7.887 10.432,7.732 L 10.41,7.565 10.39,7.87 A 4.505,4.505 0 0 1 10.202,8.834 C 10.174,8.901 10.166,8.906 10.116,8.875 10.066,8.842 10.061,8.809 10.058,8.535 10.055,8.222 10.016,7.939 10.008,8.175 A 3.98,3.98 0 0 1 9.953,8.585 C 9.917,8.803 9.889,8.892 9.85,8.922 9.822,8.945 9.787,8.959 9.776,8.956 9.762,8.953 9.712,8.826 9.662,8.673 A 4.117,4.117 0 0 0 9.529,8.313 C 9.399,8.067 8.989,7.837 8.549,7.759 A 1.394,1.394 0 0 1 8.319,7.707 C 8.28,7.682 8.156,7.433 8.056,7.184 L 7.981,6.994 8.039,6.89 8.099,6.785 8.247,6.931 C 8.471,7.158 8.676,7.169 8.986,6.973 9.083,6.912 9.238,6.84 9.33,6.818 L 9.493,6.776 9.327,6.787 C 9.224,6.795 9.086,6.832 8.961,6.884 8.64,7.023 8.491,6.992 8.361,6.765 8.263,6.599 8.252,6.508 8.305,6.292 8.358,6.059 8.366,5.616 8.319,5.455 8.277,5.303 8.229,5.275 8.263,5.419 8.296,5.569 8.247,5.926 8.144,6.25 8.114,6.344 8.114,6.344 8.089,6.278 7.975,5.97 7.845,4.971 7.845,4.4 7.848,3.29 8.119,2.462 8.687,1.855 8.748,1.79 8.847,1.743 8.915,1.679 Z m -6.26,1.368 v 0.177 h 0.567 v 1.42 H 3.45 V 3.224 H 4.014 V 3.047 h -1.36 z m 1.634,0 V 4.644 H 5.303 V 4.467 H 4.517 v -0.57 h 0.74 V 3.723 H 4.517 V 3.224 H 5.303 V 3.047 Z m 1.413,0 V 4.644 H 5.93 v -0.66 h 0.362 l 0.439,0.66 H 6.998 L 6.5,3.928 A 0.797,0.797 0 0 0 6.672,3.85 0.421,0.421 0 0 0 6.81,3.713 0.392,0.392 0 0 0 6.863,3.501 C 6.863,3.349 6.809,3.236 6.7,3.161 6.594,3.086 6.428,3.047 6.203,3.047 Z M 5.93,3.222 h 0.26 c 0.149,0 0.259,0.023 0.33,0.067 0.071,0.043 0.107,0.117 0.107,0.221 0,0.1 -0.034,0.176 -0.102,0.228 C 6.457,3.788 6.35,3.814 6.203,3.814 H 5.93 Z m 4.05,1.157 c 0.12,0.004 0.235,0.018 0.259,0.028 0.219,0.02 0.274,0.164 0.361,0.283 l 0.116,0.19 0.128,0.159 c 0,0 0.017,0.298 -0.072,0.492 -0.094,0.202 -0.241,0.335 -0.53,0.477 C 9.814,6.217 9.235,6.33 9.056,6.238 8.913,6.163 8.865,5.94 8.911,5.548 8.928,5.394 8.926,5.374 8.869,5.248 L 8.809,5.113 8.848,4.988 C 8.878,4.89 8.915,4.836 9.03,4.721 9.279,4.475 9.583,4.364 9.98,4.379 Z M 1.706,5.651 V 7.247 H 1.892 V 6.28 A 6.332,6.332 0 0 0 1.876,5.849 h 0.01 l 0.524,1.4 H 2.576 L 3.108,5.851 H 3.116 L 3.106,6.036 A 5.886,5.886 0 0 0 3.101,6.266 V 7.248 H 3.3 V 5.651 H 3.004 l -0.5,1.308 H 2.494 L 2.004,5.651 Z m 1.9,0 V 5.767 L 3.793,5.812 V 7.088 L 3.605,7.131 V 7.247 H 4.182 V 7.131 L 3.995,7.088 V 5.812 L 4.182,5.767 V 5.651 H 3.605 Z m 0.885,0 V 7.247 H 4.676 V 6.355 A 4.15,4.15 0 0 0 4.669,6.115 C 4.664,6.038 4.661,5.974 4.659,5.922 H 4.667 L 5.521,7.247 H 5.755 V 5.651 H 5.568 V 6.552 A 5.901,5.901 0 0 0 5.576,6.865 L 5.583,6.972 H 5.574 L 4.723,5.652 H 4.49 Z m 1.697,0 V 7.247 H 7.08 V 7.07 H 6.39 V 6.5 H 7.04 V 6.326 H 6.39 V 5.828 H 7.08 V 5.65 H 6.188 Z m 3.773,1.17 A 0.5,0.5 0 0 0 9.82,6.834 C 9.75,6.854 9.723,6.881 9.706,6.95 9.684,7.036 9.681,7.04 9.49,7.056 A 1.25,1.25 0 0 0 9.169,7.128 C 9.047,7.184 8.745,7.436 8.77,7.461 A 0.475,0.475 0 0 0 8.914,7.386 C 9.141,7.242 9.382,7.183 9.695,7.197 9.914,7.205 9.995,7.222 10.13,7.283 L 10.296,7.361 10.213,7.275 A 0.905,0.905 0 0 0 9.989,7.123 C 9.803,7.033 9.753,6.979 9.819,6.929 a 0.659,0.659 0 0 1 0.369,-0.056 c 0.06,0.011 0.066,0.008 0.025,-0.008 A 0.743,0.743 0 0 0 9.961,6.821 Z M 2.655,8.255 V 8.431 H 3.222 V 9.85 H 3.45 V 8.431 H 4.014 V 8.255 h -1.36 z m 1.634,0 V 9.85 H 5.303 V 9.673 H 4.517 v -0.57 h 0.74 V 8.93 H 4.517 V 8.43 H 5.303 V 8.254 H 4.289 Z m 1.413,0 V 9.85 H 5.93 V 9.191 H 6.292 L 6.731,9.85 H 6.998 L 6.5,9.135 A 0.797,0.797 0 0 0 6.672,9.056 0.42,0.42 0 0 0 6.81,8.92 0.392,0.392 0 0 0 6.863,8.708 C 6.863,8.556 6.809,8.442 6.7,8.368 6.594,8.292 6.428,8.255 6.203,8.255 Z M 5.93,8.429 h 0.26 c 0.149,0 0.259,0.022 0.33,0.067 0.071,0.043 0.107,0.117 0.107,0.221 0,0.1 -0.034,0.176 -0.102,0.228 C 6.457,8.995 6.35,9.021 6.203,9.021 H 5.93 Z m 3.182,0.16 c 0.004,0 0.01,0 0.018,0.004 0.025,0.009 0.045,0.025 0.045,0.036 0,0.116 0.152,1.028 0.193,1.152 a 4.8,4.8 0 0 1 0.086,0.33 c 0.03,0.138 0.05,0.174 0.144,0.24 0.068,0.05 0.105,0.164 0.15,0.226 a 5.407,5.407 0 0 1 -0.675,0.47 C 9.076,10.993 9.069,10.954 9.091,10.856 9.139,10.646 9.155,10.459 9.166,10.041 9.18,9.559 9.144,8.761 9.102,8.626 9.094,8.599 9.097,8.588 9.112,8.589 Z m 1.31,0.325 0.004,10e-4 c 0.022,0.008 0.056,0.125 0.083,0.274 0.064,0.371 0.064,0.515 -0.003,0.551 -0.113,0.059 -0.16,0.036 -0.193,-0.094 -0.05,-0.197 -0.037,-0.484 0.024,-0.62 0.029,-0.065 0.065,-0.11 0.085,-0.111 z m 0.411,0.022 c 0.014,0 0.05,0.045 0.084,0.1 0.02,0.032 0.014,0.123 0.022,0.162 a 5.407,5.407 0 0 1 -0.213,0.33 c -0.023,-0.23 0.023,-0.592 0.107,-0.592 z"
     id="path4"
     inkscape:connector-curvature="0"
     style="fill:#5beedc" />
</svg>
