<?xml version="1.0" encoding="UTF-8" standalone="no"?>
<svg
   xmlns:dc="http://purl.org/dc/elements/1.1/"
   xmlns:cc="http://creativecommons.org/ns#"
   xmlns:rdf="http://www.w3.org/1999/02/22-rdf-syntax-ns#"
   xmlns:svg="http://www.w3.org/2000/svg"
   xmlns="http://www.w3.org/2000/svg"
   xmlns:sodipodi="http://sodipodi.sourceforge.net/DTD/sodipodi-0.dtd"
   xmlns:inkscape="http://www.inkscape.org/namespaces/inkscape"
   width="48"
   height="48"
   viewBox="0 0 12.7 12.7"
   version="1.1"
   id="svg4"
   sodipodi:docname="preferences-desktop-thunderbolt.svg"
   inkscape:version="0.92.5 (2060ec1f9f, 2020-04-08)">
  <defs
     id="defs8">
  <style
     id="current-color-scheme"
     type="text/css">
      .ColorScheme-Highlight {
        color:#5beedc;
      }
  </style>
  </defs>
  <path
     class="ColorScheme-Highlight"
     style="fill:#5beedc"
     d="M 24 0 A 24 24 0 0 0 0 24 A 24 24 0 0 0 10.701172 43.958984 L 11.431641 40.792969 A 21 21 0 0 1 3 24 A 21 21 0 0 1 22.990234 3.0351562 L 23 3 L 24.492188 0.017578125 A 24 24 0 0 0 24 0 z M 28 1 L 16 23 L 26 23 L 19 37 L 16.009766 33.699219 L 13 47 L 25 39 L 21 38 L 33 19 L 24 19 L 35 1 L 28 1 z M 37.273438 4.0234375 L 35.787109 6.625 A 21 21 0 0 1 45 24 A 21 21 0 0 1 24 45 A 21 21 0 0 1 20.96875 44.753906 L 17.964844 47.210938 A 24 24 0 0 0 24 48 A 24 24 0 0 0 48 24 A 24 24 0 0 0 37.273438 4.0234375 z "
     transform="scale(0.26458333)"
     id="path841" />
</svg>
