<?xml version="1.0" encoding="UTF-8" standalone="no"?>
<svg
   xmlns:dc="http://purl.org/dc/elements/1.1/"
   xmlns:cc="http://creativecommons.org/ns#"
   xmlns:rdf="http://www.w3.org/1999/02/22-rdf-syntax-ns#"
   xmlns:svg="http://www.w3.org/2000/svg"
   xmlns="http://www.w3.org/2000/svg"
   xmlns:sodipodi="http://sodipodi.sourceforge.net/DTD/sodipodi-0.dtd"
   xmlns:inkscape="http://www.inkscape.org/namespaces/inkscape"
   width="48"
   height="48"
   viewBox="0 0 12.7 12.7"
   version="1.1"
   id="svg4"
   sodipodi:docname="thunderbird.svg"
   inkscape:version="0.92.4 (5da689c313, 2019-01-14)">
  <metadata
     id="metadata10">
    <rdf:RDF>
      <cc:Work
         rdf:about="">
        <dc:format>image/svg+xml</dc:format>
        <dc:type
           rdf:resource="http://purl.org/dc/dcmitype/StillImage" />
        <dc:title></dc:title>
      </cc:Work>
    </rdf:RDF>
  </metadata>
  <defs
     id="defs8" />
  <sodipodi:namedview
     pagecolor="#ffffff"
     bordercolor="#666666"
     borderopacity="1"
     objecttolerance="10"
     gridtolerance="10"
     guidetolerance="10"
     inkscape:pageopacity="0"
     inkscape:pageshadow="2"
     inkscape:window-width="1087"
     inkscape:window-height="480"
     id="namedview6"
     showgrid="false"
     inkscape:zoom="4.9166667"
     inkscape:cx="2.1355932"
     inkscape:cy="24"
     inkscape:window-x="0"
     inkscape:window-y="25"
     inkscape:window-maximized="0"
     inkscape:current-layer="svg4" />
  <path
     d="m 6.344,0.073 a 6.29,6.29 0 0 0 -6.29,6.29 6.29,6.29 0 0 0 6.29,6.288 6.29,6.29 0 0 0 6.29,-6.289 6.29,6.29 0 0 0 -6.29,-6.29 z M 6.326,1.009 A 5.407,5.407 0 0 1 11.733,6.416 5.407,5.407 0 0 1 6.326,11.823 5.407,5.407 0 0 1 0.92,6.416 5.407,5.407 0 0 1 6.326,1.01 Z M 5.666,1.525 C 5.434,1.508 4.787,1.657 4.222,2.278 2.485,3.001 1.445,4.598 1.445,6.336 c 0,1.923 1.074,3.046 1.852,3.555 l 0.005,0.004 c 0.118,0.084 0.246,0.156 0.383,0.215 0.14,0.066 0.256,0.105 0.325,0.113 C 4.036,10.231 3.664,9.643 3.5,8.934 3.82,9.26 4.202,9.518 4.63,9.563 4.674,9.569 4.479,9.326 4.263,9.007 l 3.468,1.154 c -0.316,0.323 -0.736,0.634 -1.307,0.911 0,0 1.286,-0.105 1.924,-0.822 -0.26,0.596 -0.971,0.918 -0.971,0.918 C 7.9,11.091 9.276,10.685 10.152,9.59 11.143,8.35 11.442,7.186 11.143,5.627 10.841,4.047 9.479,2.602 8.273,2.313 A 3.698,3.698 0 0 0 6.981,1.867 C 6.413,1.794 5.938,1.807 5.534,1.886 5.661,1.764 5.807,1.704 5.807,1.704 5.617,1.721 5.379,1.845 5.175,1.977 5.155,1.983 5.137,1.992 5.116,1.999 5.046,2.014 4.981,2.035 4.912,2.053 4.962,1.989 5.016,1.923 5.07,1.872 5.31,1.644 5.666,1.525 5.666,1.525 Z m 0.162,1.22 C 5.707,2.805 5.584,2.885 5.463,2.98 A 3.47,3.47 0 0 0 5.281,3.132 C 4.981,3.401 4.695,3.74 4.458,4.049 A 0.222,0.222 0 0 1 4.478,4.133 0.308,0.308 0 0 1 4.472,4.227 L 4.463,4.268 A 0.565,0.565 0 0 1 4.436,4.342 L 4.434,4.349 A 0.553,0.553 0 0 1 4.373,4.456 0.408,0.408 0 0 1 4.064,4.597 c -0.12,0.18 -0.194,0.3 -0.194,0.3 A 1.945,1.945 0 0 1 3.796,4.247 C 3.798,4.22 3.803,4.192 3.806,4.164 A 1.158,1.158 0 0 1 3.837,4.01 0.86,0.86 0 0 1 3.873,3.911 C 3.882,3.889 3.89,3.866 3.902,3.845 L 3.912,3.827 A 0.62,0.62 0 0 1 3.988,3.72 C 4.541,3.11 5.914,2.702 5.828,2.746 Z M 2.97,4.114 3.12,4.142 3.29,4.169 C 3.299,4.231 3.309,4.293 3.323,4.359 3.357,4.513 3.363,4.758 3.33,4.916 3.323,4.948 3.237,5.03 3.214,5.251 v 0.02 C 2.982,4.928 2.684,4.488 2.63,4.415 A 1.44,1.44 0 0 1 2.97,4.114 Z m 1.221,0.1 A 0.14,0.14 0 0 0 4.067,4.282 0.045,0.045 0 0 1 4.095,4.272 0.045,0.045 0 0 1 4.14,4.318 0.045,0.045 0 0 1 4.095,4.362 0.045,0.045 0 0 1 4.05,4.321 C 4.048,4.331 4.043,4.341 4.043,4.351 A 0.143,0.143 0 0 0 4.181,4.498 0.143,0.143 0 0 0 4.33,4.361 0.144,0.144 0 0 0 4.191,4.214 Z M 4.064,4.285 A 0.045,0.045 0 0 0 4.05,4.318 0.045,0.045 0 0 0 4.05,4.32 0.137,0.137 0 0 1 4.064,4.285 Z M 2.542,4.529 C 2.877,5.006 4.568,7.55 4.672,7.55 H 4.674 C 4.681,7.547 4.689,7.543 4.697,7.541 V 7.545 C 5.431,7.284 7.395,6.608 8.557,6.209 8.538,6.769 8.357,7.265 8.083,7.519 8.326,7.463 8.59,7.166 8.833,6.699 8.803,6.895 8.778,7.135 8.743,7.403 8.661,8.003 8.712,9.078 7.823,10.061 L 2.187,8.186 C 2.022,7.674 1.949,7.076 1.991,6.376 2.088,6.563 2.388,6.716 2.575,6.72 2.35,6.508 1.882,5.464 2.543,4.528 Z M 5.117,4.565 8.373,5.107 C 8.48,5.392 8.538,5.685 8.553,5.97 7.169,6.494 5.424,7.143 4.696,7.336 L 4.693,7.338 C 4.636,7.353 4.013,6.448 3.433,5.593 3.698,5.256 3.938,5.183 3.938,5.183 4.348,5.015 4.52,4.835 4.958,4.611 A 0.538,0.538 0 0 1 5.117,4.565 Z"
     id="path2"
     inkscape:connector-curvature="0"
     style="fill:#5beedc" />
</svg>
