<?xml version="1.0" encoding="UTF-8" standalone="no"?>
<svg
   xmlns:dc="http://purl.org/dc/elements/1.1/"
   xmlns:cc="http://creativecommons.org/ns#"
   xmlns:rdf="http://www.w3.org/1999/02/22-rdf-syntax-ns#"
   xmlns:svg="http://www.w3.org/2000/svg"
   xmlns="http://www.w3.org/2000/svg"
   xmlns:sodipodi="http://sodipodi.sourceforge.net/DTD/sodipodi-0.dtd"
   xmlns:inkscape="http://www.inkscape.org/namespaces/inkscape"
   width="48"
   height="48"
   viewBox="0 0 12.7 12.7"
   version="1.1"
   id="svg8"
   sodipodi:docname="tormessenger.svg"
   inkscape:version="0.92.4 (5da689c313, 2019-01-14)">
  <metadata
     id="metadata14">
    <rdf:RDF>
      <cc:Work
         rdf:about="">
        <dc:format>image/svg+xml</dc:format>
        <dc:type
           rdf:resource="http://purl.org/dc/dcmitype/StillImage" />
        <dc:title></dc:title>
      </cc:Work>
    </rdf:RDF>
  </metadata>
  <defs
     id="defs12" />
  <sodipodi:namedview
     pagecolor="#ffffff"
     bordercolor="#666666"
     borderopacity="1"
     objecttolerance="10"
     gridtolerance="10"
     guidetolerance="10"
     inkscape:pageopacity="0"
     inkscape:pageshadow="2"
     inkscape:window-width="861"
     inkscape:window-height="480"
     id="namedview10"
     showgrid="false"
     inkscape:zoom="4.9166667"
     inkscape:cx="2.1355932"
     inkscape:cy="24"
     inkscape:window-x="0"
     inkscape:window-y="25"
     inkscape:window-maximized="0"
     inkscape:current-layer="svg8" />
  <path
     d="m 6.344,0.072 a 6.29,6.29 0 0 0 -6.289,6.29 6.29,6.29 0 0 0 6.29,6.29 6.29,6.29 0 0 0 6.29,-6.29 6.29,6.29 0 0 0 -6.291,-6.29 z M 6.326,1.009 A 5.407,5.407 0 0 1 11.734,6.416 5.407,5.407 0 0 1 6.326,11.824 5.407,5.407 0 0 1 0.92,6.416 5.407,5.407 0 0 1 6.326,1.01 Z"
     id="path2"
     inkscape:connector-curvature="0"
     style="fill:#5beedc" />
  <path
     d="M 6.349,1.852 A 4.728,4.728 0 0 0 5.691,1.902 4.73,4.73 0 0 0 5.141,2.01 C 3.241,2.505 1.852,4.13 1.852,6.057 l 10e-4,0.042 v 0.026 c 0,1.325 0.693,2.566 1.797,3.375 v 1.349 l 1.193,-0.702 c 0.483,0.165 0.993,0.25 1.506,0.252 2.393,-0.002 4.364,-1.784 4.487,-4.055 0.003,-0.05 0.006,-0.1 0.007,-0.15 L 10.847,6.126 10.846,6.098 v -0.04 c 0,-2.177 -1.77,-3.973 -4.048,-4.183 A 4.698,4.698 0 0 0 6.424,1.857 C 6.398,1.857 6.374,1.853 6.348,1.853 Z M 6.35,4.551 A 1.574,1.574 0 0 1 7.924,6.125 1.574,1.574 0 0 1 6.35,7.7 1.574,1.574 0 0 1 5.675,7.546 v 1.652 a 3.149,3.149 0 0 1 -0.9,-0.35 V 6.125 A 1.574,1.574 0 0 1 6.35,4.551 Z"
     id="path4"
     inkscape:connector-curvature="0"
     style="fill:#bad632" />
  <path
     d="M 6.35,2.977 A 3.149,3.149 0 0 0 3.201,6.125 3.149,3.149 0 0 0 4.776,8.847 V 6.125 A 1.574,1.574 0 0 1 6.35,4.551 1.574,1.574 0 0 1 7.924,6.125 1.574,1.574 0 0 1 6.35,7.7 1.574,1.574 0 0 1 5.675,7.546 V 9.198 A 3.149,3.149 0 0 0 6.35,9.275 3.149,3.149 0 0 0 6.575,9.266 v 1.123 c 0.309,-0.015 0.61,-0.06 0.9,-0.13 V 9.064 A 3.149,3.149 0 0 0 9.499,6.124 3.149,3.149 0 0 0 6.35,2.977 Z M 4.776,8.847 A 3.149,3.149 0 0 0 5.05,8.989 3.149,3.149 0 0 1 4.776,8.847 Z M 5.05,8.989 A 3.149,3.149 0 0 0 5.062,8.994 3.149,3.149 0 0 1 5.05,8.989 Z M 5.062,8.994 A 3.149,3.149 0 0 0 5.344,9.104 3.149,3.149 0 0 1 5.062,8.994 Z M 5.354,9.108 A 3.149,3.149 0 0 0 5.647,9.19 3.149,3.149 0 0 1 5.354,9.108 Z"
     id="path6"
     inkscape:connector-curvature="0"
     style="fill:#578418" />
</svg>
