<?xml version="1.0" encoding="UTF-8" standalone="no"?>
<svg
   xmlns:dc="http://purl.org/dc/elements/1.1/"
   xmlns:cc="http://creativecommons.org/ns#"
   xmlns:rdf="http://www.w3.org/1999/02/22-rdf-syntax-ns#"
   xmlns:svg="http://www.w3.org/2000/svg"
   xmlns="http://www.w3.org/2000/svg"
   xmlns:sodipodi="http://sodipodi.sourceforge.net/DTD/sodipodi-0.dtd"
   xmlns:inkscape="http://www.inkscape.org/namespaces/inkscape"
   width="48"
   height="48"
   viewBox="0 0 12.7 12.7"
   version="1.1"
   id="svg4"
   sodipodi:docname="trackma.svg"
   inkscape:version="0.92.4 (5da689c313, 2019-01-14)">
  <metadata
     id="metadata10">
    <rdf:RDF>
      <cc:Work
         rdf:about="">
        <dc:format>image/svg+xml</dc:format>
        <dc:type
           rdf:resource="http://purl.org/dc/dcmitype/StillImage" />
        <dc:title></dc:title>
      </cc:Work>
    </rdf:RDF>
  </metadata>
  <defs
     id="defs8" />
  <sodipodi:namedview
     pagecolor="#ffffff"
     bordercolor="#666666"
     borderopacity="1"
     objecttolerance="10"
     gridtolerance="10"
     guidetolerance="10"
     inkscape:pageopacity="0"
     inkscape:pageshadow="2"
     inkscape:window-width="1087"
     inkscape:window-height="480"
     id="namedview6"
     showgrid="false"
     inkscape:zoom="4.9166667"
     inkscape:cx="2.1355932"
     inkscape:cy="24"
     inkscape:window-x="0"
     inkscape:window-y="25"
     inkscape:window-maximized="0"
     inkscape:current-layer="svg4" />
  <path
     d="M 6.34,0.07 A 6.29,6.29 0 0 0 0.05,6.37 6.29,6.29 0 0 0 6.35,12.65 6.29,6.29 0 0 0 12.63,6.36 6.29,6.29 0 0 0 6.34,0.07 Z M 6.33,1.01 a 5.4,5.4 0 0 1 5.4,5.4 5.4,5.4 0 0 1 -5.4,5.41 A 5.4,5.4 0 0 1 0.92,6.42 5.4,5.4 0 0 1 6.32,1 Z M 2.6,3.22 2.58,3.36 2.57,3.65 2.54,4.24 2.52,4.87 A 56.6,56.6 0 0 0 2.47,6.09 c -0.04,0.8 -0.05,1.77 -0.03,2 0.03,0.18 0.1,0.47 0.16,0.64 0.38,0.95 1.37,1.57 2.83,1.76 a 9.2,9.2 0 0 0 1.82,0 C 7.85,10.42 8.35,10.27 8.81,10.05 9.5,9.71 9.93,9.25 10.14,8.61 10.26,8.25 10.28,8.08 10.27,7.44 L 10.24,6.67 10.22,6.05 10.2,5.32 10.17,4.72 10.13,3.48 c 0,-0.13 -0.02,-0.25 -0.02,-0.25 A 169.23,169.23 0 0 1 8.58,4.13 L 8.05,4.45 H 4.6 L 4.4,4.3 4.06,4.1 3.84,3.96 3.62,3.82 3.28,3.62 2.85,3.34 A 1.68,1.68 0 0 0 2.61,3.21 Z M 8.3,6.29 A 0.5,0.5 0 0 1 8.54,6.37 C 8.77,6.51 8.81,6.9 8.61,7.09 A 0.62,0.62 0 0 1 8.24,7.23 0.48,0.48 0 0 1 7.81,6.69 0.46,0.46 0 0 1 8.31,6.29 Z m -3.84,0 0.17,0.05 C 4.93,6.49 4.98,6.9 4.73,7.11 4.63,7.2 4.56,7.22 4.41,7.22 4.11,7.22 3.89,6.92 3.98,6.62 4.01,6.5 4.15,6.35 4.25,6.32 A 0.6,0.6 0 0 1 4.45,6.3 Z M 6.37,7.83 H 6.63 L 6.7,7.91 c 0.1,0.1 0.1,0.23 0,0.33 -0.04,0.04 -0.08,0.08 -0.08,0.1 0,0.05 0.16,0.2 0.24,0.2 C 7.01,8.58 7.19,8.51 7.26,8.38 7.28,8.34 7.3,8.27 7.3,8.21 7.32,8.02 7.45,7.93 7.62,7.98 7.75,8.02 7.8,8.11 7.79,8.28 A 0.84,0.84 0 0 1 6.47,8.9 L 6.35,8.82 6.23,8.89 A 0.78,0.78 0 0 1 5.7,9.04 0.82,0.82 0 0 1 5,8.58 C 4.86,8.31 4.88,8.06 5.04,7.99 5.16,7.94 5.22,7.95 5.3,8.02 5.36,8.08 5.38,8.12 5.4,8.23 5.42,8.35 5.44,8.39 5.5,8.46 5.65,8.6 5.89,8.59 6.01,8.44 6.07,8.37 6.09,8.28 6.05,8.28 6.01,8.28 5.93,8.14 5.93,8.08 5.93,8 5.99,7.9 6.06,7.86 A 0.91,0.91 0 0 1 6.37,7.83 Z"
     id="path2"
     inkscape:connector-curvature="0"
     style="fill:#5beedc" />
</svg>
