<?xml version="1.0" encoding="UTF-8" standalone="no"?>
<svg
   xmlns:dc="http://purl.org/dc/elements/1.1/"
   xmlns:cc="http://creativecommons.org/ns#"
   xmlns:rdf="http://www.w3.org/1999/02/22-rdf-syntax-ns#"
   xmlns:svg="http://www.w3.org/2000/svg"
   xmlns="http://www.w3.org/2000/svg"
   xmlns:sodipodi="http://sodipodi.sourceforge.net/DTD/sodipodi-0.dtd"
   xmlns:inkscape="http://www.inkscape.org/namespaces/inkscape"
   width="48"
   height="48"
   viewBox="0 0 12.7 12.7"
   version="1.1"
   id="svg4"
   sodipodi:docname="tvtime.svg"
   inkscape:version="0.92.5 (2060ec1f9f, 2020-04-08)">
  <defs
     id="defs8">
  <style
     id="current-color-scheme"
     type="text/css">
      .ColorScheme-Highlight {
        color:#5beedc;
      }
  </style>
  </defs>
  <path
     class="ColorScheme-Highlight"
     style="fill:#5beedc"
     d="M 24 0 A 24 24 0 0 0 0 24 A 24 24 0 0 0 24 48 A 24 24 0 0 0 48 24 A 24 24 0 0 0 24 0 z M 24 3 A 21 21 0 0 1 45 24 A 21 21 0 0 1 24 45 A 21 21 0 0 1 3 24 A 21 21 0 0 1 24 3 z M 11 12 C 9.3380008 12 8 13.338 8 15 L 8 32 C 8 33.662 9.3380008 35 11 35 L 24 35 L 37 35 C 38.661997 35 40 33.662 40 32 L 40 15 C 40 13.338 38.661997 12 37 12 L 11 12 z M 24 35 A 6 6 0 0 0 18 41 L 30 41 A 6 6 0 0 0 24 35 z M 11 14 L 37 14 C 37.554 14 38 14.446 38 15 L 38 32 C 38 32.554 37.554 33 37 33 L 11 33 C 10.446 33 10 32.554 10 32 L 10 15 C 10 14.446 10.446 14 11 14 z "
     transform="scale(0.26458333)"
     id="rect824" />
</svg>
