<?xml version="1.0" encoding="UTF-8" standalone="no"?>
<svg
   xmlns:dc="http://purl.org/dc/elements/1.1/"
   xmlns:cc="http://creativecommons.org/ns#"
   xmlns:rdf="http://www.w3.org/1999/02/22-rdf-syntax-ns#"
   xmlns:svg="http://www.w3.org/2000/svg"
   xmlns="http://www.w3.org/2000/svg"
   xmlns:sodipodi="http://sodipodi.sourceforge.net/DTD/sodipodi-0.dtd"
   xmlns:inkscape="http://www.inkscape.org/namespaces/inkscape"
   width="48"
   height="48"
   viewBox="0 0 12.7 12.7"
   version="1.1"
   id="svg4"
   sodipodi:docname="unix-privesc-check.svg"
   inkscape:version="0.92.5 (2060ec1f9f, 2020-04-08)">
  <metadata
     id="metadata10">
    <rdf:RDF>
      <cc:Work
         rdf:about="">
        <dc:format>image/svg+xml</dc:format>
        <dc:type
           rdf:resource="http://purl.org/dc/dcmitype/StillImage" />
        <dc:title></dc:title>
      </cc:Work>
    </rdf:RDF>
  </metadata>
  <defs
     id="defs8" />
  <sodipodi:namedview
     pagecolor="#ffffff"
     bordercolor="#666666"
     borderopacity="1"
     objecttolerance="10"
     gridtolerance="10"
     guidetolerance="10"
     inkscape:pageopacity="0"
     inkscape:pageshadow="2"
     inkscape:window-width="1085"
     inkscape:window-height="480"
     id="namedview6"
     showgrid="false"
     inkscape:zoom="4.9166667"
     inkscape:cx="2.1355932"
     inkscape:cy="24"
     inkscape:window-x="0"
     inkscape:window-y="25"
     inkscape:window-maximized="0"
     inkscape:current-layer="svg4" />
  <path
     d="M 6.34,0.075 A 6.295,6.295 0 0 0 0.055,6.36 6.295,6.295 0 0 0 6.34,12.655 6.295,6.295 0 0 0 12.634,6.36 6.295,6.295 0 0 0 6.34,0.075 Z m -0.011,0.94 a 5.408,5.408 0 0 1 5.397,5.387 5.407,5.407 0 0 1 -10.814,0 c 0,-2.987 2.43,-5.387 5.417,-5.387 z M 6.693,2.132 H 6.448 C 5.755,2.135 5.594,2.148 5.309,2.226 4.753,2.376 4.316,2.616 3.984,2.954 3.641,3.302 3.48,3.606 3.392,4.076 L 3.329,4.408 H 2.984 A 1.438,1.438 0 0 0 2.761,4.388 1.438,1.438 0 0 0 1.323,5.826 1.438,1.438 0 0 0 2.668,7.259 l 0.036,0.006 0.233,0.029 -0.03,0.232 c -0.016,0.128 -0.028,0.4 -0.027,0.606 0.007,1.413 1.194,2.535 2.908,2.75 0.788,0.099 1.783,-0.04 2.36,-0.33 1.2,-0.6 1.951,-1.814 1.785,-2.884 -0.027,-0.17 -0.04,-0.324 -0.029,-0.342 0.011,-0.017 0.128,-0.053 0.26,-0.079 0.006,0 0.012,-0.003 0.018,-0.004 A 1.438,1.438 0 0 0 10.192,7.24 L 10.224,7.233 A 1.438,1.438 0 0 0 11.377,5.825 1.438,1.438 0 0 0 9.938,4.388 1.438,1.438 0 0 0 9.755,4.401 C 9.505,4.396 9.487,4.382 9.463,4.298 9.23,3.476 9.038,3.114 8.668,2.789 8.396,2.552 7.998,2.344 7.585,2.225 7.325,2.15 7.205,2.133 6.693,2.132 Z M 5.155,3.98 H 5.213 C 5.352,3.984 5.492,4.002 5.62,4.027 5.94,4.07 6.191,4.281 6.379,4.529 6.571,4.341 6.77,4.143 7.039,4.074 7.409,3.99 7.859,3.937 8.174,4.198 8.508,4.527 8.594,5.035 8.567,5.486 8.586,5.801 8.369,6.151 8.459,6.434 8.794,6.581 9.19,6.713 9.359,7.068 9.622,7.654 9.448,8.348 9.096,8.859 8.706,9.392 8.136,9.825 7.486,9.974 A 1.156,0.81 0 0 0 6.334,9.234 1.156,0.81 0 0 0 5.184,9.964 2.745,2.745 0 0 1 3.786,9.151 C 3.346,8.633 3.122,7.858 3.412,7.216 3.598,6.91 3.86,6.62 4.196,6.483 4.599,6.385 4.185,5.904 4.226,5.628 4.191,5.188 4.133,4.684 4.411,4.306 4.588,4.061 4.868,3.983 5.155,3.98 Z m 0.292,0.898 c -0.134,0 -0.155,0.012 -0.155,0.094 0,0.122 -0.073,0.195 -0.195,0.195 -0.082,0 -0.095,0.02 -0.094,0.155 0,0.16 0.083,0.297 0.227,0.376 A 0.57,0.57 0 0 0 5.451,5.745 C 5.641,5.747 5.871,5.521 5.871,5.334 5.871,5.07 5.695,4.88 5.447,4.878 Z m 1.78,0 c -0.134,0 -0.155,0.012 -0.155,0.094 0,0.122 -0.073,0.195 -0.194,0.195 -0.083,0 -0.096,0.02 -0.095,0.155 10e-4,0.16 0.084,0.297 0.227,0.376 A 0.57,0.57 0 0 0 7.232,5.745 C 7.421,5.747 7.652,5.521 7.652,5.334 7.652,5.07 7.475,4.88 7.227,4.878 Z m -4.29,0.077 a 0.917,0.917 0 0 1 0.456,0.122 c 0.025,0.34 0.072,0.74 0.14,1.207 0.024,0.17 0.021,0.203 -0.125,0.374 A 0.917,0.917 0 0 1 2.938,6.789 0.917,0.917 0 0 1 2.021,5.872 0.917,0.917 0 0 1 2.938,4.955 Z M 9.762,4.991 A 0.917,0.917 0 0 1 10.679,5.909 0.917,0.917 0 0 1 9.762,6.826 0.917,0.917 0 0 1 9.522,6.794 1.725,1.725 0 0 0 9.428,6.688 L 9.247,6.503 9.322,6.095 C 9.404,5.649 9.452,5.32 9.472,5.04 A 0.917,0.917 0 0 1 9.762,4.991 Z M 5.79,6.16 C 5.654,6.164 5.499,6.249 5.499,6.357 c 0,0.042 0.029,0.053 0.093,0.038 A 5.82,5.82 0 0 1 5.84,6.345 C 6.006,6.315 6.025,6.289 5.946,6.21 5.909,6.173 5.851,6.158 5.79,6.16 Z m 1.064,0 v 10e-4 c -0.062,0.001 -0.12,0.02 -0.155,0.062 -0.066,0.08 -0.06,0.086 0.166,0.136 0.258,0.057 0.29,0.056 0.29,0 0,-0.115 -0.163,-0.2 -0.3,-0.198 z M 8.452,7.625 A 0.614,0.614 0 0 0 8.302,7.67 C 8.175,7.723 7.862,7.733 6.334,7.733 5.104,7.733 4.474,7.718 4.384,7.687 4.312,7.661 4.241,7.652 4.227,7.667 c -0.043,0.042 0.12,0.19 0.254,0.229 0.185,0.053 3.528,0.054 3.72,0 C 8.341,7.858 8.521,7.678 8.471,7.628 8.469,7.625 8.461,7.624 8.451,7.625 Z"
     id="path2"
     inkscape:connector-curvature="0"
     style="fill:#5beedc" />
</svg>
