<?xml version="1.0" encoding="UTF-8" standalone="no"?>
<svg
   xmlns:dc="http://purl.org/dc/elements/1.1/"
   xmlns:cc="http://creativecommons.org/ns#"
   xmlns:rdf="http://www.w3.org/1999/02/22-rdf-syntax-ns#"
   xmlns:svg="http://www.w3.org/2000/svg"
   xmlns="http://www.w3.org/2000/svg"
   xmlns:sodipodi="http://sodipodi.sourceforge.net/DTD/sodipodi-0.dtd"
   xmlns:inkscape="http://www.inkscape.org/namespaces/inkscape"
   width="48"
   height="48"
   viewBox="0 0 12.7 12.7"
   version="1.1"
   id="svg4"
   sodipodi:docname="upsource.svg"
   inkscape:version="0.92.5 (2060ec1f9f, 2020-04-08)">
  <defs
     id="defs8">
  <style
     id="current-color-scheme"
     type="text/css">
      .ColorScheme-Highlight {
        color:#5beedc;
      }
  </style>
  </defs>
  <path
     class="ColorScheme-Highlight"
     style="fill:#5beedc"
     d="M 24 0 A 24 24 0 0 0 0 24 A 24 24 0 0 0 24 48 A 24 24 0 0 0 48 24 A 24 24 0 0 0 24 0 z M 24 3 A 21 21 0 0 1 45 24 A 21 21 0 0 1 24 45 A 21 21 0 0 1 3 24 A 21 21 0 0 1 24 3 z M 24 7 A 17.000006 17.000006 0 0 0 7 24 A 17.000006 17.000006 0 0 0 24 41 A 17.000006 17.000006 0 0 0 41 24 A 17.000006 17.000006 0 0 0 24 7 z M 15 19 L 17 19 L 17 24 L 17 25 C 17 26.108 17.892 27 19 27 C 20.108 27 21 26.108 21 25 L 21 24 L 21 19 L 23 19 L 23 24 L 23 25 C 23 27.216 21.216 29 19 29 C 16.784 29 15 27.216 15 25 L 15 24 L 15 19 z M 25 19.011719 L 29.568359 19.011719 C 30.535358 19.011719 31.295656 19.295234 31.847656 19.865234 C 32.400668 20.434234 32.675781 21.216031 32.675781 22.207031 C 32.675781 22.912031 32.481795 23.556625 32.091797 24.140625 C 31.533795 24.974625 30.665329 25.392578 29.486328 25.392578 L 27.089844 25.392578 L 27.089844 29 L 25 29 L 25 19.011719 z M 27.089844 20.738281 L 27.089844 23.664062 L 29.027344 23.664062 C 29.696347 23.664062 30.151558 23.461679 30.392578 23.054688 C 30.522594 22.832689 30.587891 22.518328 30.587891 22.111328 C 30.587891 21.621328 30.441276 21.271593 30.154297 21.058594 C 29.866297 20.845591 29.397049 20.738281 28.748047 20.738281 L 27.089844 20.738281 z M 17 32 L 31 32 L 31 34 L 17 34 L 17 32 z "
     transform="scale(0.26458333)"
     id="path835" />
</svg>
