<?xml version="1.0" encoding="UTF-8" standalone="no"?>
<svg
   xmlns:dc="http://purl.org/dc/elements/1.1/"
   xmlns:cc="http://creativecommons.org/ns#"
   xmlns:rdf="http://www.w3.org/1999/02/22-rdf-syntax-ns#"
   xmlns:svg="http://www.w3.org/2000/svg"
   xmlns="http://www.w3.org/2000/svg"
   xmlns:sodipodi="http://sodipodi.sourceforge.net/DTD/sodipodi-0.dtd"
   xmlns:inkscape="http://www.inkscape.org/namespaces/inkscape"
   width="48"
   height="48"
   version="1.1"
   viewBox="0 0 12.7 12.7"
   id="svg6"
   sodipodi:docname="urbanterror.svg"
   inkscape:version="0.92.4 (5da689c313, 2019-01-14)">
  <metadata
     id="metadata12">
    <rdf:RDF>
      <cc:Work
         rdf:about="">
        <dc:format>image/svg+xml</dc:format>
        <dc:type
           rdf:resource="http://purl.org/dc/dcmitype/StillImage" />
        <dc:title></dc:title>
      </cc:Work>
    </rdf:RDF>
  </metadata>
  <defs
     id="defs10" />
  <sodipodi:namedview
     pagecolor="#ffffff"
     bordercolor="#666666"
     borderopacity="1"
     objecttolerance="10"
     gridtolerance="10"
     guidetolerance="10"
     inkscape:pageopacity="0"
     inkscape:pageshadow="2"
     inkscape:window-width="1136"
     inkscape:window-height="480"
     id="namedview8"
     showgrid="false"
     inkscape:zoom="4.9166667"
     inkscape:cx="2.1355932"
     inkscape:cy="24"
     inkscape:window-x="0"
     inkscape:window-y="25"
     inkscape:window-maximized="0"
     inkscape:current-layer="svg6" />
  <path
     style="fill:#5beedc;stroke-width:1.04390001"
     d="M 6.3396648,0.07544759 C 2.8712647,0.08119469 0.06109378,2.8914185 0.05529379,6.3598183 c -4.62e-6,3.4725001 2.81187091,6.2889067 6.28437101,6.2947067 3.4764998,0 6.2947062,-2.8182066 6.2947062,-6.2947067 C 12.628612,2.8874185 9.8120646,0.07544759 6.3396648,0.07544759 Z M 6.3293294,1.0149251 c 2.9743,0.00572 5.3856866,2.4125514 5.3970866,5.3867511 0,2.9865002 -2.4209218,5.4074218 -5.407422,5.4074218 -2.9865,0 -5.40742174,-2.4209216 -5.40742174,-5.4074218 0,-2.9864999 2.43125714,-5.3867511 5.41775714,-5.3867511 z M 6.7530763,2.6783895 A 0.21771,0.21771 0 0 0 6.5505044,2.8411701 l -0.9627317,3.594096 a 0.21738,0.21738 0 0 0 0.153479,0.2676837 l 0.84646,0.2263429 A 0.21738,0.21738 0 0 0 6.8553954,6.775297 L 7.8181273,3.1812013 A 0.21936,0.21936 0 0 0 7.6630982,2.9119668 L 6.8176716,2.686141 A 0.21771,0.21771 0 0 0 6.7530766,2.678391 Z M 3.4540529,3.541386 a 0.2187,0.2187 0 0 0 -0.059428,0.00775 L 2.5502319,3.77548 A 0.21837,0.21837 0 0 0 2.3952026,4.043164 L 3.3579345,7.6372597 A 0.21903,0.21903 0 0 0 3.6266519,7.7922892 L 4.4720785,7.5664631 A 0.22036,0.22036 0 0 0 4.6271077,7.2972289 L 3.6643757,3.7031332 A 0.2187,0.2187 0 0 0 3.4540529,3.541386 Z M 9.3399982,4.4079996 A 0.21837,0.21837 0 0 0 9.1456948,4.5175537 l -1.861385,3.2220254 a 0.21903,0.21903 0 0 0 0.080098,0.298173 l 0.7591269,0.4382162 a 0.21804,0.21804 0 0 0 0.298173,-0.080098 L 10.283093,5.1738445 a 0.21837,0.21837 0 0 0 -0.0801,-0.29869 L 9.4443845,4.4374551 A 0.21837,0.21837 0 0 0 9.3399982,4.4079996 Z M 5.5066406,7.3297851 A 0.21936,0.21936 0 0 0 5.3030355,7.4925657 L 5.1340535,8.126119 A 0.21936,0.21936 0 0 0 5.2890827,8.3948364 L 6.1339925,8.6206623 A 0.21771,0.21771 0 0 0 6.4016763,8.4656331 L 6.5722087,7.8325968 A 0.21903,0.21903 0 0 0 6.4171792,7.5638794 L 5.571753,7.3375366 a 0.21936,0.21936 0 0 0 -0.065112,-0.00775 z m -0.8071858,0.861963 a 0.22036,0.22036 0 0 0 -0.057878,0.00775 L 3.7961506,8.4268756 A 0.21837,0.21837 0 0 0 3.6416382,8.6945596 L 3.8116536,9.3291463 A 0.21837,0.21837 0 0 0 4.0798543,9.4841755 L 4.9257976,9.2567992 A 0.21672,0.21672 0 0 0 5.0797933,8.9891152 L 4.9108114,8.3545287 A 0.22036,0.22036 0 0 0 4.6994548,8.1917481 Z M 6.9313599,8.5777709 A 0.21936,0.21936 0 0 0 6.7375733,8.6868081 L 6.4094278,9.255249 a 0.21936,0.21936 0 0 0 0.080099,0.3002399 L 7.2481363,9.9921548 A 0.21705,0.21705 0 0 0 7.5468262,9.9120565 L 7.8749715,9.3430988 A 0.21837,0.21837 0 0 0 7.7948731,9.0449259 L 7.036263,8.6067097 A 0.21936,0.21936 0 0 0 6.9313599,8.5777709 Z"
     id="path2"
     inkscape:connector-curvature="0" />
</svg>
