<?xml version="1.0" encoding="UTF-8" standalone="no"?>
<svg
   xmlns:dc="http://purl.org/dc/elements/1.1/"
   xmlns:cc="http://creativecommons.org/ns#"
   xmlns:rdf="http://www.w3.org/1999/02/22-rdf-syntax-ns#"
   xmlns:svg="http://www.w3.org/2000/svg"
   xmlns="http://www.w3.org/2000/svg"
   xmlns:sodipodi="http://sodipodi.sourceforge.net/DTD/sodipodi-0.dtd"
   xmlns:inkscape="http://www.inkscape.org/namespaces/inkscape"
   width="48"
   height="48"
   viewBox="0 0 12.7 12.7"
   version="1.1"
   id="svg4"
   sodipodi:docname="vega.svg"
   inkscape:version="0.92.5 (2060ec1f9f, 2020-04-08)">
  <metadata
     id="metadata10">
    <rdf:RDF>
      <cc:Work
         rdf:about="">
        <dc:format>image/svg+xml</dc:format>
        <dc:type
           rdf:resource="http://purl.org/dc/dcmitype/StillImage" />
        <dc:title></dc:title>
      </cc:Work>
    </rdf:RDF>
  </metadata>
  <defs
     id="defs8" />
  <sodipodi:namedview
     pagecolor="#ffffff"
     bordercolor="#666666"
     borderopacity="1"
     objecttolerance="10"
     gridtolerance="10"
     guidetolerance="10"
     inkscape:pageopacity="0"
     inkscape:pageshadow="2"
     inkscape:window-width="1085"
     inkscape:window-height="480"
     id="namedview6"
     showgrid="false"
     inkscape:zoom="4.9166667"
     inkscape:cx="2.1355932"
     inkscape:cy="24"
     inkscape:window-x="0"
     inkscape:window-y="25"
     inkscape:window-maximized="0"
     inkscape:current-layer="svg4" />
  <path
     d="M 6.34,0.075 A 6.295,6.295 0 0 0 0.055,6.36 6.295,6.295 0 0 0 6.34,12.655 6.295,6.295 0 0 0 12.634,6.36 6.295,6.295 0 0 0 6.34,0.075 Z m -0.011,0.94 a 5.408,5.408 0 0 1 5.397,5.387 5.407,5.407 0 0 1 -10.814,0 c 0,-2.987 2.43,-5.387 5.417,-5.387 z M 6.35,1.663 A 4.76,4.76 0 0 0 1.59,6.423 4.76,4.76 0 0 0 6.35,11.185 4.76,4.76 0 0 0 11.11,6.424 4.76,4.76 0 0 0 6.35,1.663 Z M 6.099,2.007 H 6.648 L 6.743,2.113 6.839,2.218 H 5.907 L 6.003,2.113 Z M 5.024,2.533 5.022,2.574 5.02,2.615 4.796,2.933 4.571,3.25 3.94,3.271 3.845,3.232 3.749,3.194 4.029,2.895 4.31,2.597 4.667,2.565 Z M 7.755,2.591 8.118,2.625 8.48,2.659 8.735,2.928 8.99,3.198 V 3.263 L 8.991,3.33 H 8.206 L 7.961,2.98 7.717,2.63 7.736,2.61 7.756,2.591 Z M 6.043,3.594 H 6.765 L 6.944,3.898 7.123,4.202 7.039,4.32 6.955,4.437 5.873,4.44 5.696,4.17 5.818,3.948 5.94,3.726 5.99,3.66 Z m 4.01,0.168 0.203,0.272 0.204,0.274 0.035,0.198 0.036,0.199 -0.296,-0.001 -0.4009997,-0.707 0.015,-0.104 0.016,-0.105 0.094,-0.013 z M 2.751,3.805 H 3.014 L 3.011,3.925 3.008,4.044 2.811,4.361 2.615,4.678 2.497,4.695 2.379,4.712 2.382,4.308 2.566,4.057 Z m 2.104,0.794 0.058,0.167 0.058,0.166 v 0.149 l -0.27,0.42 -0.269,0.42 H 4.075 L 3.861,5.631 3.646,5.341 3.846,4.971 4.046,4.601 4.45,4.6 Z M 7.932,4.705 H 8.667 L 9.007,5.298 8.83,5.663 8.654,6.027 H 8.266 L 7.989,5.592 7.712,5.158 7.822,4.931 Z M 2.324,5.585 2.706,6.41 2.556,6.8 2.408,7.19 H 2.27 L 2.224,7.072 2.177,6.953 2.072,6.688 1.967,6.424 2.236,5.684 2.279,5.634 2.323,5.584 Z m 8.06,0.017 0.021,0.022 0.022,0.022 0.152,0.408 0.153,0.41 -0.137,0.35 -0.138,0.35 L 10.37,7.263 10.185,6.857 10,6.452 10.192,6.027 10.383,5.602 Z M 5.93,5.71 H 6.868 L 7.086,6.107 7.306,6.503 7.086,6.9 6.868,7.297 H 5.93 L 5.712,6.9 5.493,6.503 5.713,6.107 5.931,5.71 Z M 4.076,6.926 H 4.432 L 4.707,7.355 4.982,7.783 4.893,8.016 4.804,8.249 H 4.425 L 4.045,8.247 3.846,7.877 3.646,7.507 3.861,7.217 4.076,6.927 Z m 4.238,0 h 0.36 L 9.043,7.661 8.873,7.955 8.705,8.249 H 7.948 L 7.768,7.778 8.041,7.352 Z m -5.802,1.215 0.396,0.7 V 9.042 H 2.653 L 2.469,8.792 2.285,8.54 2.266,8.355 2.247,8.17 2.38,8.155 Z m 7.723,0 0.265,0.029 -0.019,0.158 -0.019,0.159 -0.055,0.106 -0.056,0.106 -0.13,0.171 -0.13,0.172 H 9.838 v -0.2 l 0.199,-0.35 z M 6.915,8.511 6.992,8.631 7.07,8.751 6.892,9.056 6.712,9.36 H 5.986 L 5.816,9.083 5.646,8.807 5.721,8.673 5.796,8.54 6.356,8.525 6.914,8.51 Z M 3.8,9.507 4.185,9.552 4.57,9.597 4.795,9.914 5.02,10.231 5.022,10.271 5.023,10.311 4.891,10.293 4.468,10.256 4.352,10.23 4.236,10.205 3.989,9.885 3.743,9.565 3.771,9.535 3.801,9.507 Z M 8.948,9.51 8.978,9.538 9.006,9.568 8.778,9.862 8.551,10.157 8.467,10.2 8.382,10.243 7.722,10.301 V 10.263 L 7.959,9.923 8.196,9.583 8.572,9.547 Z M 5.976,10.628 H 6.838 L 6.743,10.734 6.647,10.84 H 6.103 L 5.976,10.713 V 10.63 Z"
     id="path2"
     inkscape:connector-curvature="0"
     style="fill:#5beedc" />
</svg>
