<?xml version="1.0" encoding="UTF-8" standalone="no"?>
<svg
   xmlns:dc="http://purl.org/dc/elements/1.1/"
   xmlns:cc="http://creativecommons.org/ns#"
   xmlns:rdf="http://www.w3.org/1999/02/22-rdf-syntax-ns#"
   xmlns:svg="http://www.w3.org/2000/svg"
   xmlns="http://www.w3.org/2000/svg"
   xmlns:sodipodi="http://sodipodi.sourceforge.net/DTD/sodipodi-0.dtd"
   xmlns:inkscape="http://www.inkscape.org/namespaces/inkscape"
   width="48"
   height="48"
   viewBox="0 0 12.7 12.7"
   version="1.1"
   id="svg8"
   sodipodi:docname="veil.svg"
   inkscape:version="0.92.5 (2060ec1f9f, 2020-04-08)">
  <metadata
     id="metadata14">
    <rdf:RDF>
      <cc:Work
         rdf:about="">
        <dc:format>image/svg+xml</dc:format>
        <dc:type
           rdf:resource="http://purl.org/dc/dcmitype/StillImage" />
        <dc:title></dc:title>
      </cc:Work>
    </rdf:RDF>
  </metadata>
  <defs
     id="defs12" />
  <sodipodi:namedview
     pagecolor="#ffffff"
     bordercolor="#666666"
     borderopacity="1"
     objecttolerance="10"
     gridtolerance="10"
     guidetolerance="10"
     inkscape:pageopacity="0"
     inkscape:pageshadow="2"
     inkscape:window-width="1085"
     inkscape:window-height="480"
     id="namedview10"
     showgrid="false"
     inkscape:zoom="4.9166667"
     inkscape:cx="2.1355932"
     inkscape:cy="24"
     inkscape:window-x="0"
     inkscape:window-y="25"
     inkscape:window-maximized="0"
     inkscape:current-layer="svg8" />
  <path
     d="m 10.284,3.367 c -0.048,0 -0.104,0.05 -0.191,0.155 A 2.012,2.012 0 0 1 9.942,3.682 0.856,0.856 0 0 0 9.798,3.872 C 9.735,3.99 9.72,4 9.524,4.039 9.486,4.046 9.434,4.089 9.377,4.156 A 1.851,1.851 0 0 0 9.201,4.416 C 9.117,4.567 9.096,4.586 8.816,4.78 A 0.67,0.67 0 0 0 8.731,4.846 C 8.691,4.884 8.684,4.914 8.707,4.944 8.719,4.959 8.738,4.974 8.765,4.99 8.85,5.043 8.863,5.071 8.821,5.115 A 0.841,0.841 0 0 0 8.736,5.245 C 8.669,5.365 8.604,5.406 8.478,5.405 8.426,5.405 8.4,5.435 8.421,5.472 8.454,5.529 8.448,5.547 8.398,5.537 a 0.108,0.108 0 0 0 -0.039,0 A 0.06,0.06 0 0 0 8.33,5.55 0.068,0.068 0 0 1 8.276,5.566 0.189,0.189 0 0 0 8.192,5.583 C 8.142,5.603 8.142,5.607 8.176,5.631 8.207,5.652 8.209,5.668 8.189,5.674 A 0.256,0.256 0 0 1 8.072,5.664 C 8.018,5.649 7.973,5.644 7.974,5.651 c 0,0.008 0.01,0.015 0.02,0.017 0.01,0.002 0.017,0.008 0.02,0.016 A 0.042,0.042 0 0 1 8.013,5.712 0.12,0.12 0 0 1 7.96,5.774 0.715,0.715 0 0 1 7.588,5.868 C 7.41,5.874 7.251,5.918 6.953,6.047 6.899,6.07 6.865,6.067 6.819,6.083 l 0.004,0.013 c 0.078,0.306 0.13,0.442 0.198,0.74 0.082,0.359 0.142,0.65 0.147,0.728 C 7.172,7.643 7.12,7.507 6.977,7.012 6.937,6.872 6.911,6.805 6.897,6.798 6.885,6.79 6.884,6.842 6.892,6.935 6.908,7.123 6.958,7.482 7.016,7.885 7.05,8.116 7.047,8.201 7.081,8.437 7.141,8.449 7.236,8.452 7.193,8.486 7.174,8.5 7.181,8.502 7.223,8.496 A 0.415,0.415 0 0 1 7.342,8.5 c 0.054,0.01 0.071,0.023 0.101,0.076 0.011,0.019 0.02,0.049 0.029,0.088 l 0.004,0.022 c 0.039,0.201 0.053,0.598 0.035,0.887 -0.008,0.12 -0.02,0.22 -0.04,0.28 -0.031,0.1 -0.04,0.159 -0.028,0.206 0.008,0.03 0.021,0.055 0.048,0.081 0.044,0.045 0.12,0.174 0.15,0.246 l -0.581,0.62 0.228,0.039 0.764,-0.66 A 0.668,0.668 0 0 1 8.03,10.21 3.798,3.798 0 0 1 8.033,9.916 6.443,6.443 0 0 1 8.103,9.226 C 8.122,9.109 8.136,8.964 8.133,8.903 8.127,8.783 8.157,8.751 8.218,8.816 8.247,8.846 8.254,8.848 8.294,8.831 8.334,8.814 8.338,8.815 8.356,8.857 l 0.02,0.045 0.01,-0.037 c 0.007,-0.02 0.02,-0.035 0.03,-0.033 0.036,0.007 0.076,0.114 0.112,0.295 0.018,0.09 0.036,0.2 0.052,0.325 0.016,0.125 0.031,0.265 0.044,0.418 0.022,0.25 0.046,0.476 0.055,0.503 l 0.005,0.013 -1.144,0.662 0.208,0.103 1.301,-0.764 C 9.037,10.057 9.011,9.724 9.096,9.384 9.134,9.264 9.209,9.122 9.419,8.774 9.496,8.644 9.564,8.513 9.569,8.482 A 0.116,0.116 0 0 1 9.581,8.442 C 9.597,8.414 9.626,8.413 9.659,8.444 9.684,8.467 9.688,8.46 9.685,8.394 9.683,8.351 9.689,8.307 9.699,8.294 9.715,8.274 9.721,8.276 9.746,8.309 9.774,8.345 9.775,8.345 9.793,8.318 9.838,8.248 9.843,8.244 9.875,8.273 9.887,8.284 9.895,8.289 9.902,8.285 9.909,8.281 9.916,8.268 9.923,8.243 9.94,8.194 9.971,8.159 9.987,8.163 c 0.005,0.003 0.01,0.009 0.01,0.02 0,0.016 0.01,0.03 0.018,0.033 0.033,0.006 0.057,-0.037 0.082,-0.144 0.033,-0.14 0.048,-0.163 0.114,-0.172 a 0.29,0.29 0 0 0 0.127,-0.08 c 0.069,-0.071 0.081,-0.07 0.078,0.01 0,0.03 0.006,0.03 0.047,-0.007 0.035,-0.03 0.043,-0.053 0.032,-0.088 a 0.563,0.563 0 0 1 0.003,-0.202 c 0.003,-0.017 0.008,-0.027 0.013,-0.026 0.008,0.001 0.027,0.03 0.042,0.062 0.016,0.033 0.034,0.053 0.043,0.046 0.01,-0.007 0.015,-0.142 0.012,-0.3 A 2.403,2.403 0 0 1 10.611,7.06 L 10.613,7.05 A 0.207,0.207 0 0 1 10.648,6.957 C 10.692,6.889 10.692,6.887 10.655,6.801 10.628,6.737 10.622,6.72 10.636,6.706 a 0.121,0.121 0 0 1 0.022,-0.015 c 0.022,-0.013 0.05,-0.021 0.063,-0.019 0.03,0.006 0.014,-0.201 -0.018,-0.235 -0.034,-0.036 -0.03,-0.067 0.012,-0.1 0.034,-0.026 0.035,-0.033 0.008,-0.064 -0.05,-0.06 -0.06,-0.114 -0.033,-0.176 0.022,-0.05 0.034,-0.057 0.075,-0.042 0.015,0.005 0.026,0.01 0.033,0.01 0.007,10e-4 0.011,-0.001 0.01,-0.006 A 0.34,0.34 0 0 0 10.76,5.971 0.391,0.391 0 0 1 10.708,5.851 V 5.849 c -0.007,-0.033 -0.003,-0.055 0.014,-0.051 0.007,0 0.01,-0.001 0.01,-0.007 A 0.081,0.081 0 0 0 10.72,5.763 c -0.032,-0.057 -0.029,-0.094 0.008,-0.087 0.027,0.006 0.025,0 -0.011,-0.042 A 0.363,0.363 0 0 1 10.624,5.407 C 10.62,5.337 10.631,5.177 10.647,5.021 10.663,4.865 10.684,4.715 10.7,4.667 A 0.329,0.329 0 0 0 10.715,4.486 C 10.7,4.411 10.706,4.382 10.754,4.288 A 0.616,0.616 0 0 0 10.808,4.147 V 4.146 A 0.234,0.234 0 0 0 10.794,3.983 0.241,0.241 0 0 0 10.667,3.877 C 10.625,3.86 10.604,3.85 10.593,3.837 10.582,3.822 10.58,3.803 10.578,3.765 10.575,3.704 10.561,3.673 10.508,3.612 A 1.872,1.872 0 0 1 10.393,3.456 0.299,0.299 0 0 0 10.338,3.39 0.083,0.083 0 0 0 10.284,3.367 Z M 5.38,6.03 A 0.733,0.733 0 0 0 5.05,6.11 C 4.874,6.186 4.739,6.218 4.55,6.23 L 4.538,6.233 c 0.168,0.591 0.335,1.173 0.422,1.598 0.116,0.57 0.169,1.04 0.186,1.543 0.02,0.586 0.002,1.032 -0.04,0.99 C 5.074,10.332 4.958,9.851 4.85,9.391 A 0.515,0.515 0 0 1 4.766,9.45 0.14,0.14 0 0 0 4.716,9.487 C 4.694,9.515 4.69,9.553 4.701,9.607 v 0.007 c 0.007,0.03 0.018,0.063 0.034,0.104 A 0.803,0.803 0 0 1 4.79,9.961 c 0.006,0.13 -0.01,0.34 -0.029,0.426 l 0.406,0.43 0.381,0.087 -0.337,-0.518 A 0.794,0.794 0 0 1 5.198,10.036 0.513,0.513 0 0 1 5.268,9.853 0.68,0.68 0 0 1 5.579,9.637 C 5.696,9.605 5.809,9.551 5.893,9.507 5.863,9.1 5.819,8.482 5.666,7.851 5.541,7.334 5.391,6.856 5.31,6.577 5.269,6.437 5.245,6.347 5.25,6.325 5.255,6.304 5.29,6.351 5.363,6.487 5.427,6.603 5.466,6.652 5.487,6.652 5.508,6.651 5.511,6.6 5.499,6.515 5.486,6.411 5.426,6.208 5.38,6.03 Z m 0.299,0.042 c 0.02,0.097 0.08,0.248 0.092,0.33 0.027,0.184 0.026,0.69 0.027,1.048 0,0.178 0.002,0.32 0.007,0.367 C 5.811,7.863 5.821,7.814 5.839,7.611 5.86,7.381 5.956,7.881 6.031,8.494 6.071,8.818 6.053,9.024 6.066,9.319 6.191,9.185 6.318,9.034 6.44,8.744 6.483,8.642 6.536,8.528 6.557,8.489 A 0.462,0.462 0 0 1 6.811,8.288 L 6.809,8.275 C 6.766,8.04 6.767,8.066 6.711,7.755 6.786,7.949 6.83,8.02 6.851,8 6.871,7.98 6.867,7.87 6.846,7.701 A 18.214,18.214 0 0 0 6.574,6.248 C 6.567,6.215 6.561,6.202 6.554,6.17 L 6.551,6.159 C 6.382,6.177 6.187,6.161 5.821,6.093 5.746,6.079 5.734,6.083 5.679,6.073 Z M 4.093,6.318 C 3.997,6.353 3.893,6.381 3.833,6.371 3.806,6.366 3.791,6.365 3.787,6.368 3.783,6.37 3.79,6.377 3.805,6.389 A 0.26,0.26 0 0 0 3.903,6.43 c 0.06,0.012 0.063,0.015 0.045,0.046 A 0.155,0.155 0 0 1 3.871,6.526 0.597,0.597 0 0 0 3.767,6.572 C 3.727,6.596 3.723,6.605 3.746,6.633 3.768,6.661 3.765,6.666 3.718,6.666 3.623,6.667 3.617,6.67 3.619,6.716 3.621,6.746 3.595,6.78 3.541,6.819 3.497,6.851 3.421,6.918 3.373,6.966 3.147,7.196 2.813,7.315 2.443,7.294 a 1.844,1.844 0 0 0 -0.255,0 A 0.494,0.494 0 0 1 1.986,7.28 1.276,1.276 0 0 1 1.728,7.163 2.297,2.297 0 0 0 1.377,6.995 C 1.354,6.988 1.339,6.985 1.332,6.989 1.322,6.992 1.316,7.017 1.317,7.043 a 0.46,0.46 0 0 1 -0.015,0.114 0.15,0.15 0 0 0 -0.006,0.05 0.06,0.06 0 0 0 0.016,0.037 0.14,0.14 0 0 0 0.046,0.03 c 0.02,0.01 0.047,0.02 0.08,0.03 C 1.514,7.328 1.561,7.356 1.577,7.38 1.584,7.392 1.584,7.403 1.576,7.413 1.566,7.423 1.55,7.43 1.523,7.435 l -0.06,0.012 0.068,0.025 c 0.05,0.018 0.08,0.033 0.096,0.048 0.017,0.016 0.02,0.032 0.015,0.054 -0.007,0.032 0.002,0.044 0.053,0.07 A 0.625,0.625 0 0 0 1.83,7.689 C 1.872,7.698 1.895,7.706 1.901,7.716 1.904,7.722 1.903,7.727 1.898,7.734 A 0.124,0.124 0 0 1 1.87,7.758 C 1.838,7.779 1.825,7.797 1.834,7.814 1.85,7.843 1.928,7.87 2.087,7.908 2.259,7.95 2.325,7.968 2.348,7.989 a 0.03,0.03 0 0 1 0.011,0.022 0.03,0.03 0 0 0 0.007,0.02 c 0.014,0.015 0.046,0.018 0.096,0.01 0.04,-0.006 0.053,0 0.08,0.042 0.019,0.027 0.041,0.05 0.05,0.052 0.01,0.002 0.06,-0.016 0.114,-0.039 A 0.448,0.448 0 0 1 2.82,8.057 C 2.83,8.059 2.839,8.084 2.84,8.114 2.844,8.192 2.886,8.19 3.043,8.107 3.107,8.074 3.147,8.062 3.166,8.072 3.184,8.082 3.181,8.115 3.156,8.169 A 0.424,0.424 0 0 0 3.132,8.234 C 3.133,8.254 3.176,8.242 3.244,8.201 3.287,8.176 3.342,8.159 3.367,8.164 3.399,8.17 3.458,8.138 3.563,8.057 L 3.712,7.942 3.742,8.008 C 3.766,8.059 3.777,8.069 3.789,8.052 A 0.155,0.155 0 0 0 3.802,7.974 C 3.799,7.907 3.839,7.871 3.892,7.893 a 0.043,0.043 0 0 0 0.038,0 0.124,0.124 0 0 0 0.04,-0.039 C 3.993,7.824 4.018,7.801 4.026,7.802 4.032,7.803 4.036,7.808 4.039,7.816 4.056,7.872 4.001,8.078 3.923,8.23 3.849,8.375 3.77,8.443 3.583,8.524 3.473,8.572 3.427,8.605 3.403,8.652 A 0.9,0.9 0 0 0 3.346,9.014 C 3.357,9.222 3.195,9.7 3.065,9.844 A 0.324,0.324 0 0 0 3.013,9.915 0.124,0.124 0 0 0 2.999,9.978 C 3,10.001 2.998,10.016 2.99,10.027 c -0.008,0.01 -0.021,0.018 -0.044,0.024 -0.036,0.01 -0.056,0.03 -0.055,0.056 0.002,0.045 -0.005,0.186 -0.012,0.28 l 1.981,0.62 0.306,0.01 -1.763,-0.63 c 0,-0.05 0.003,-0.112 0.01,-0.148 C 3.43,10.157 3.867,9.349 3.951,9.246 A 0.49,0.49 0 0 1 4.145,9.104 C 4.189,9.085 4.24,9.068 4.299,9.052 A 2.76,2.76 0 0 1 4.506,9.004 C 4.574,8.991 4.628,8.973 4.689,8.956 A 3.865,3.865 0 0 0 4.432,8.473 C 4.294,8.261 4.198,8.125 4.328,8.273 4.556,8.53 4.676,8.601 4.726,8.556 4.776,8.511 4.755,8.352 4.702,8.147 4.595,7.739 4.356,7.152 4.284,6.957 4.274,6.792 4.167,6.547 4.094,6.323 Z"
     id="path2"
     inkscape:connector-curvature="0"
     style="opacity:0.4;fill:#5beedc" />
  <path
     d="M 6.34,0.075 A 6.295,6.295 0 0 0 0.055,6.36 6.295,6.295 0 0 0 6.34,12.655 6.295,6.295 0 0 0 12.634,6.36 6.295,6.295 0 0 0 6.34,0.075 Z m -0.011,0.94 a 5.408,5.408 0 0 1 5.397,5.387 5.407,5.407 0 0 1 -10.814,0 c 0,-2.987 2.43,-5.387 5.417,-5.387 z M 7.592,6.772 C 7.494,6.76 7.488,6.886 7.638,7.107 7.733,7.247 7.747,7.297 7.705,7.355 7.677,7.395 7.635,7.468 7.613,7.517 7.591,7.567 7.51,7.674 7.433,7.755 7.327,7.865 7.253,7.902 7.136,7.902 7.083,7.902 7.056,7.918 7.021,7.93 7.136,8.724 7.279,9.673 7.241,9.805 7.216,9.895 7.198,9.97 7.179,9.991 7.16,10.011 7.14,9.98 7.109,9.858 7.053,9.644 6.934,8.978 6.759,8.012 6.729,8.022 6.689,8.025 6.679,8.04 6.663,8.067 6.622,8.078 6.588,8.065 6.554,8.052 6.516,8.058 6.503,8.078 6.478,8.118 6.171,8.061 5.928,8.018 5.966,8.187 5.991,8.163 6.031,8.493 6.086,8.94 6.085,9.305 6.08,9.633 6.195,9.68 6.282,9.692 6.716,9.705 6.931,9.711 6.933,9.712 6.923,9.858 a 0.541,0.541 0 0 0 0.044,0.245 c 0.049,0.091 0.01,0.49 -0.058,0.602 -0.013,0.02 -0.002,0.097 0.024,0.172 0.035,0.1 0.085,0.143 0.188,0.164 0.077,0.015 0.147,0.02 0.156,0.012 0.008,-0.009 -0.008,-0.081 -0.036,-0.162 -0.038,-0.11 -0.037,-0.212 0.008,-0.42 0.052,-0.246 0.064,-0.266 0.118,-0.192 0.035,0.048 0.06,0.202 0.06,0.37 0,0.245 0.017,0.304 0.112,0.398 0.06,0.061 0.142,0.111 0.18,0.111 0.094,0 0.091,-0.176 -0.005,-0.313 C 7.647,10.75 7.645,10.699 7.694,10.41 7.724,10.23 7.736,9.968 7.72,9.827 7.695,9.596 7.704,9.558 7.802,9.46 7.899,9.363 7.965,9.134 8.04,8.625 8.082,8.341 8.121,8.264 8.22,8.264 c 0.056,0 0.156,0.028 0.223,0.063 0.066,0.034 0.16,0.052 0.209,0.04 C 8.734,8.345 8.737,8.312 8.711,7.817 8.695,7.527 8.661,7.266 8.638,7.235 8.613,7.205 8.606,7.131 8.621,7.072 8.661,6.912 8.611,6.899 8.429,7.022 8.195,7.182 8.066,7.165 7.857,6.952 7.744,6.836 7.651,6.779 7.592,6.772 Z M 4.963,7.858 c 0.112,0.556 0.166,1.02 0.183,1.515 0.013,0.386 -0.01,0.488 -0.026,0.653 0.004,-0.004 0.008,-0.044 0.011,-0.044 0.021,0 0.034,0.184 0.029,0.408 -0.005,0.223 0.002,0.418 0.015,0.432 a 0.676,0.676 0 0 0 0.199,0.052 L 5.548,10.902 5.47,10.783 C 5.347,10.596 5.383,9.93 5.53,9.655 A 0.375,0.375 0 0 0 5.573,9.508 c 0,-0.1 0.124,-0.083 0.183,0.026 C 5.785,9.588 5.834,9.617 5.871,9.603 5.878,9.6 5.897,9.609 5.907,9.608 A 11.897,11.897 0 0 0 5.686,7.994 C 5.416,7.882 5.303,7.859 5.093,7.878 5.044,7.882 5.006,7.858 4.963,7.858 Z m -0.352,0.95 c -0.006,0.181 -0.008,0.324 0.033,0.386 0.048,0.073 0.072,0.302 0.09,0.84 0.033,0.99 0.033,0.99 0.254,0.99 0.098,0 0.178,-0.01 0.178,-0.023 a 0.994,0.994 0 0 0 -0.09,-0.17 0.68,0.68 0 0 1 -0.09,-0.294 c 0,-0.106 0.046,-0.194 0.083,-0.317 C 5.012,10.083 4.903,9.692 4.781,9.128 4.765,9.052 4.674,8.922 4.611,8.808 Z"
     id="path4"
     inkscape:connector-curvature="0"
     style="fill:#5beedc" />
  <path
     d="M 4.121,2.334 C 4.151,2.332 4.328,2.59 4.527,2.921 4.991,3.696 5.639,5.509 5.771,6.401 5.825,6.771 5.766,8.421 5.84,7.611 5.881,7.151 6.223,9.608 6.097,10.053 6.03,10.291 6.004,10.248 5.929,9.772 5.909,9.427 5.843,8.582 5.666,7.85 5.416,6.815 5.066,5.942 5.363,6.486 5.869,7.412 4.872,4.097 4.861,4.788 4.857,5.058 4.711,4.283 4.636,4.055 4.332,3.128 4.1,2.354 4.119,2.335 Z m 1.04,0.03 c 0.027,0.003 0.1,0.088 0.213,0.217 0.168,0.193 0.673,1.2 0.544,0.843 C 5.354,1.868 6.318,4.27 6.375,4.552 6.42,4.768 6.496,4.996 6.545,5.058 6.667,5.213 7.548,8.993 6.977,7.012 6.652,5.886 7.318,9.534 7.242,9.805 7.14,10.166 7.166,10.269 6.71,7.755 7.313,9.302 5.928,3 6.163,5.316 6.231,5.983 5.781,4.07 5.549,3.48 5.22,2.645 5.107,2.357 5.16,2.364 Z m -1.8,0.4 c 0.116,0.009 0.542,1.17 0.66,0.85 0.114,-0.31 0.165,0.891 0.165,1.05 -0.001,0.176 0.093,0.638 0.209,1.026 0.54,1.803 0.717,2.676 0.75,3.683 0.02,0.587 0.003,1.032 -0.038,0.99 C 5.066,10.323 4.919,9.766 4.781,9.128 4.714,8.816 4.067,7.976 4.329,8.272 5.239,9.3 4.429,7.347 4.284,6.955 4.244,6.298 3.494,4.821 3.734,5.179 4.272,5.984 3.303,2.807 3.336,2.774 A 0.03,0.03 0 0 1 3.36,2.765 Z"
     id="path6"
     inkscape:connector-curvature="0"
     style="opacity:0.8;fill:#0ca15e" />
</svg>
