<?xml version="1.0" encoding="UTF-8" standalone="no"?>
<svg
   xmlns:dc="http://purl.org/dc/elements/1.1/"
   xmlns:cc="http://creativecommons.org/ns#"
   xmlns:rdf="http://www.w3.org/1999/02/22-rdf-syntax-ns#"
   xmlns:svg="http://www.w3.org/2000/svg"
   xmlns="http://www.w3.org/2000/svg"
   xmlns:sodipodi="http://sodipodi.sourceforge.net/DTD/sodipodi-0.dtd"
   xmlns:inkscape="http://www.inkscape.org/namespaces/inkscape"
   width="48"
   height="48"
   viewBox="0 0 12.7 12.7"
   version="1.1"
   id="svg4"
   sodipodi:docname="vfeed.svg"
   inkscape:version="0.92.5 (2060ec1f9f, 2020-04-08)">
  <metadata
     id="metadata10">
    <rdf:RDF>
      <cc:Work
         rdf:about="">
        <dc:format>image/svg+xml</dc:format>
        <dc:type
           rdf:resource="http://purl.org/dc/dcmitype/StillImage" />
        <dc:title></dc:title>
      </cc:Work>
    </rdf:RDF>
  </metadata>
  <defs
     id="defs8" />
  <sodipodi:namedview
     pagecolor="#ffffff"
     bordercolor="#666666"
     borderopacity="1"
     objecttolerance="10"
     gridtolerance="10"
     guidetolerance="10"
     inkscape:pageopacity="0"
     inkscape:pageshadow="2"
     inkscape:window-width="1085"
     inkscape:window-height="480"
     id="namedview6"
     showgrid="false"
     inkscape:zoom="4.9166667"
     inkscape:cx="2.1355932"
     inkscape:cy="24"
     inkscape:window-x="0"
     inkscape:window-y="25"
     inkscape:window-maximized="0"
     inkscape:current-layer="svg4" />
  <path
     d="M 6.34,0.075 A 6.295,6.295 0 0 0 0.055,6.36 6.295,6.295 0 0 0 6.34,12.655 6.295,6.295 0 0 0 12.634,6.36 6.295,6.295 0 0 0 6.34,0.075 Z m -0.011,0.94 a 5.408,5.408 0 0 1 5.397,5.387 5.407,5.407 0 0 1 -10.814,0 c 0,-2.987 2.43,-5.387 5.417,-5.387 z m 0.03,2.469 C 6.224,3.484 6.089,3.498 5.954,3.526 5.456,3.628 5.168,3.784 4.806,4.146 4.252,4.7 4.129,5.086 4.129,6.274 4.129,7.047 4.124,7.09 4.033,7.187 3.844,7.389 3.583,7.296 3.509,7.001 3.454,6.782 3.337,6.674 3.156,6.674 c -0.136,0 -0.301,0.178 -0.3,0.325 0.001,0.53 0.604,1.033 1.107,0.925 0.509,-0.11 0.771,-0.44 0.812,-1.025 0.029,-0.418 0.093,-0.532 0.3,-0.532 0.25,0 0.328,0.117 0.328,0.497 0,0.558 -0.161,0.942 -0.544,1.294 C 4.536,8.455 4.314,8.536 3.821,8.538 3.459,8.54 3.371,8.525 3.154,8.423 2.652,8.188 2.311,7.703 2.239,7.122 2.212,6.902 2.179,6.81 2.107,6.752 1.963,6.635 1.781,6.652 1.668,6.795 1.585,6.9 1.576,6.95 1.6,7.185 a 2.246,2.246 0 0 0 1.85,1.99 c 0.12,0.02 0.267,0.038 0.328,0.04 0.249,0.011 0.7,-0.094 0.988,-0.231 0.785,-0.373 1.22,-1.067 1.281,-2.046 0.03,-0.475 0.08,-0.571 0.305,-0.571 0.24,0 0.324,0.132 0.324,0.51 0,0.634 0.19,1.151 0.583,1.58 0.686,0.752 1.714,0.958 2.604,0.523 0.756,-0.369 1.248,-1.115 1.248,-1.891 0,-0.238 -0.014,-0.288 -0.097,-0.347 C 10.879,6.648 10.702,6.657 10.606,6.762 10.56,6.813 10.51,6.966 10.489,7.12 A 1.672,1.672 0 0 1 9.988,8.123 C 9.64,8.453 9.422,8.536 8.916,8.538 8.553,8.54 8.466,8.525 8.249,8.423 A 1.758,1.758 0 0 1 7.483,7.677 C 7.38,7.477 7.359,7.376 7.343,6.99 7.322,6.468 7.368,6.367 7.627,6.367 c 0.234,0 0.322,0.123 0.323,0.45 0,0.386 0.067,0.583 0.273,0.806 0.57,0.619 1.615,0.235 1.615,-0.593 0,-0.246 -0.097,-0.356 -0.314,-0.356 -0.13,0 -0.3,0.176 -0.3,0.307 0,0.042 -0.042,0.129 -0.092,0.192 A 0.296,0.296 0 0 1 8.716,7.226 C 8.638,7.169 8.628,7.087 8.603,6.25 8.58,5.49 8.56,5.286 8.483,5.046 8.179,4.103 7.297,3.476 6.358,3.484 Z"
     id="path2"
     inkscape:connector-curvature="0"
     style="fill:#5beedc" />
</svg>
