<?xml version="1.0" encoding="UTF-8" standalone="no"?>
<svg
   xmlns:dc="http://purl.org/dc/elements/1.1/"
   xmlns:cc="http://creativecommons.org/ns#"
   xmlns:rdf="http://www.w3.org/1999/02/22-rdf-syntax-ns#"
   xmlns:svg="http://www.w3.org/2000/svg"
   xmlns="http://www.w3.org/2000/svg"
   xmlns:sodipodi="http://sodipodi.sourceforge.net/DTD/sodipodi-0.dtd"
   xmlns:inkscape="http://www.inkscape.org/namespaces/inkscape"
   width="48"
   height="48"
   viewBox="0 0 12.7 12.7"
   version="1.1"
   id="svg4"
   sodipodi:docname="gnome-palm.svg"
   inkscape:version="0.92.5 (2060ec1f9f, 2020-04-08)">
  <defs
     id="defs8">
  <style
     id="current-color-scheme"
     type="text/css">
      .ColorScheme-Highlight {
        color:#5beedc;
      }
  </style>
  </defs>
  <path
     class="ColorScheme-Highlight"
     style="fill:#5beedc"
     d="M 24 0 A 24 24 0 0 0 0 24 A 24 24 0 0 0 24 48 A 24 24 0 0 0 48 24 A 24 24 0 0 0 24 0 z M 24 3 A 21 21 0 0 1 45 24 A 21 21 0 0 1 24 45 A 21 21 0 0 1 3 24 A 21 21 0 0 1 24 3 z M 13 11 C 12.446 11 12 11.446 12 12 L 12 20 L 12 24 L 12 31 C 12 35.986 16.014 40 21 40 L 27 40 C 31.986 40 36 35.986 36 31 L 36 24 L 36 20 L 36 12 C 36 11.446 35.554 11 35 11 L 27 11 L 21 11 L 13 11 z M 14 13 L 34 13 L 34 31 L 14 31 L 14 13 z M 17.5 33 A 1.5 1.5 0 0 1 19 34.5 A 1.5 1.5 0 0 1 17.5 36 A 1.5 1.5 0 0 1 16 34.5 A 1.5 1.5 0 0 1 17.5 33 z M 24 33 A 3 2.4999999 0 0 1 27 35.5 A 3 2.4999999 0 0 1 24 38 A 3 2.4999999 0 0 1 21 35.5 A 3 2.4999999 0 0 1 24 33 z M 30.5 33 A 1.5 1.5 0 0 1 32 34.5 A 1.5 1.5 0 0 1 30.5 36 A 1.5 1.5 0 0 1 29 34.5 A 1.5 1.5 0 0 1 30.5 33 z "
     transform="scale(0.26458333)"
     id="path817" />
</svg>
