<?xml version="1.0" encoding="UTF-8" standalone="no"?>
<svg
   xmlns:dc="http://purl.org/dc/elements/1.1/"
   xmlns:cc="http://creativecommons.org/ns#"
   xmlns:rdf="http://www.w3.org/1999/02/22-rdf-syntax-ns#"
   xmlns:svg="http://www.w3.org/2000/svg"
   xmlns="http://www.w3.org/2000/svg"
   xmlns:sodipodi="http://sodipodi.sourceforge.net/DTD/sodipodi-0.dtd"
   xmlns:inkscape="http://www.inkscape.org/namespaces/inkscape"
   width="48"
   height="48"
   viewBox="0 0 12.7 12.7"
   version="1.1"
   id="svg6"
   sodipodi:docname="vivaldi.svg"
   inkscape:version="0.92.4 (5da689c313, 2019-01-14)">
  <metadata
     id="metadata12">
    <rdf:RDF>
      <cc:Work
         rdf:about="">
        <dc:format>image/svg+xml</dc:format>
        <dc:type
           rdf:resource="http://purl.org/dc/dcmitype/StillImage" />
        <dc:title></dc:title>
      </cc:Work>
    </rdf:RDF>
  </metadata>
  <defs
     id="defs10" />
  <sodipodi:namedview
     pagecolor="#ffffff"
     bordercolor="#666666"
     borderopacity="1"
     objecttolerance="10"
     gridtolerance="10"
     guidetolerance="10"
     inkscape:pageopacity="0"
     inkscape:pageshadow="2"
     inkscape:window-width="1087"
     inkscape:window-height="480"
     id="namedview8"
     showgrid="false"
     inkscape:zoom="4.9166667"
     inkscape:cx="2.1355932"
     inkscape:cy="24"
     inkscape:window-x="0"
     inkscape:window-y="25"
     inkscape:window-maximized="0"
     inkscape:current-layer="svg6" />
  <path
     d="M 6.34,0.07 A 6.29,6.29 0 0 0 0.05,6.37 6.29,6.29 0 0 0 6.35,12.65 6.29,6.29 0 0 0 12.63,6.36 6.29,6.29 0 0 0 6.34,0.07 Z M 6.33,1.01 a 5.4,5.4 0 0 1 5.4,5.4 5.4,5.4 0 0 1 -5.4,5.41 A 5.4,5.4 0 0 1 0.92,6.42 5.4,5.4 0 0 1 6.32,1 Z"
     id="path2"
     inkscape:connector-curvature="0"
     style="fill:#5beedc" />
  <path
     d="M 9.31,3.18 A 1,1 0 0 0 8.87,3.28 C 8.68,3.38 8.49,3.58 8.41,3.77 8.32,3.97 8.31,4.35 8.38,4.54 L 8.5,4.86 C 8.58,5.06 8.61,5.51 8.56,5.76 8.5,6.06 8.33,6.38 8.12,6.59 A 1.5,1.5 0 0 1 5.97,6.61 C 5.76,6.41 5.73,6.35 4.77,4.61 4.45,4.03 4.17,3.53 4.1,3.47 A 0.93,0.93 0 0 0 3.41,3.19 c -0.52,0 -0.88,0.4 -0.96,0.85 -0.06,0.36 -0.1,0.3 1.58,3.34 a 50.38,50.38 0 0 0 1.64,2.9 c 0.29,0.31 0.7,0.39 1.1,0.2 0.1,-0.04 0.21,-0.13 0.29,-0.21 0.14,-0.17 3.13,-5.6 3.18,-5.79 0.05,-0.2 0.04,-0.47 -0.03,-0.67 A 1.06,1.06 0 0 0 9.66,3.24 0.95,0.95 0 0 0 9.31,3.18 Z"
     id="path4"
     inkscape:connector-curvature="0"
     style="opacity:0.75;fill:#d40000" />
</svg>
