<?xml version="1.0" encoding="UTF-8" standalone="no"?>
<svg
   xmlns:dc="http://purl.org/dc/elements/1.1/"
   xmlns:cc="http://creativecommons.org/ns#"
   xmlns:rdf="http://www.w3.org/1999/02/22-rdf-syntax-ns#"
   xmlns:svg="http://www.w3.org/2000/svg"
   xmlns="http://www.w3.org/2000/svg"
   xmlns:sodipodi="http://sodipodi.sourceforge.net/DTD/sodipodi-0.dtd"
   xmlns:inkscape="http://www.inkscape.org/namespaces/inkscape"
   width="48"
   height="48"
   viewBox="0 0 12.7 12.7"
   version="1.1"
   id="svg4"
   sodipodi:docname="vk.svg"
   inkscape:version="0.92.4 (5da689c313, 2019-01-14)">
  <metadata
     id="metadata10">
    <rdf:RDF>
      <cc:Work
         rdf:about="">
        <dc:format>image/svg+xml</dc:format>
        <dc:type
           rdf:resource="http://purl.org/dc/dcmitype/StillImage" />
        <dc:title></dc:title>
      </cc:Work>
    </rdf:RDF>
  </metadata>
  <defs
     id="defs8" />
  <sodipodi:namedview
     pagecolor="#ffffff"
     bordercolor="#666666"
     borderopacity="1"
     objecttolerance="10"
     gridtolerance="10"
     guidetolerance="10"
     inkscape:pageopacity="0"
     inkscape:pageshadow="2"
     inkscape:window-width="1087"
     inkscape:window-height="480"
     id="namedview6"
     showgrid="false"
     inkscape:zoom="4.9166667"
     inkscape:cx="2.1355932"
     inkscape:cy="24"
     inkscape:window-x="0"
     inkscape:window-y="25"
     inkscape:window-maximized="0"
     inkscape:current-layer="svg4" />
  <path
     d="M 6.34,0.07 A 6.29,6.29 0 0 0 0.05,6.37 6.29,6.29 0 0 0 6.35,12.65 6.29,6.29 0 0 0 12.63,6.36 6.29,6.29 0 0 0 6.34,0.07 Z M 6.32,1 6.33,1.01 a 5.4,5.4 0 0 1 5.4,5.4 5.4,5.4 0 0 1 -5.4,5.41 A 5.4,5.4 0 0 1 0.92,6.42 5.4,5.4 0 0 1 6.32,1 Z M 5.76,3.95 C 5.46,3.95 5.21,3.97 5.05,4.05 4.91,4.13 4.8,4.28 4.87,4.29 4.95,4.3 5.13,4.34 5.23,4.48 c 0.13,0.18 0.12,0.57 0.12,0.57 0,0 0.07,1.1 -0.17,1.23 C 5.02,6.38 4.78,6.18 4.3,5.32 4.05,4.87 3.86,4.38 3.86,4.38 3.86,4.38 3.82,4.28 3.76,4.24 3.68,4.18 3.56,4.16 3.56,4.16 H 2.4 c 0,0 -0.17,0.01 -0.24,0.09 -0.05,0.07 0,0.21 0,0.21 0,0 0.92,2.21 1.96,3.32 0.95,1.02 2.03,0.95 2.03,0.95 h 0.5 c 0,0 0.14,-0.01 0.21,-0.1 0.07,-0.07 0.07,-0.22 0.07,-0.22 0,0 0,-0.67 0.3,-0.77 0.3,-0.1 0.68,0.65 1.1,0.94 0.3,0.22 0.54,0.17 0.54,0.17 l 1.1,-0.02 c 0,0 0.57,-0.03 0.3,-0.5 C 10.24,8.2 10.11,7.89 9.45,7.27 8.76,6.61 8.85,6.72 9.68,5.58 10.18,4.89 10.39,4.48 10.33,4.29 10.27,4.12 9.9,4.17 9.9,4.17 H 8.65 c 0,0 -0.09,0 -0.16,0.03 a 0.35,0.35 0 0 0 -0.1,0.14 c 0,0 -0.2,0.53 -0.46,0.99 C 7.38,6.28 7.16,6.33 7.07,6.28 6.87,6.14 6.91,5.72 6.91,5.42 6.91,4.49 7.05,4.11 6.65,4.01 A 2.05,2.05 0 0 0 6.07,3.95 Z"
     id="path2"
     inkscape:connector-curvature="0"
     style="fill:#5beedc" />
</svg>
