<?xml version="1.0" encoding="UTF-8" standalone="no"?>
<svg
   xmlns:dc="http://purl.org/dc/elements/1.1/"
   xmlns:cc="http://creativecommons.org/ns#"
   xmlns:rdf="http://www.w3.org/1999/02/22-rdf-syntax-ns#"
   xmlns:svg="http://www.w3.org/2000/svg"
   xmlns="http://www.w3.org/2000/svg"
   xmlns:sodipodi="http://sodipodi.sourceforge.net/DTD/sodipodi-0.dtd"
   xmlns:inkscape="http://www.inkscape.org/namespaces/inkscape"
   width="48"
   height="48"
   viewBox="0 0 12.7 12.7"
   version="1.1"
   id="svg6"
   sodipodi:docname="vkaudiosaver.svg"
   inkscape:version="0.92.4 (5da689c313, 2019-01-14)">
  <defs
     id="defs10" />
  <sodipodi:namedview
     pagecolor="#ffffff"
     bordercolor="#666666"
     borderopacity="1"
     objecttolerance="10"
     gridtolerance="10"
     guidetolerance="10"
     inkscape:pageopacity="0"
     inkscape:pageshadow="2"
     inkscape:window-width="1087"
     inkscape:window-height="480"
     id="namedview8"
     showgrid="false"
     inkscape:zoom="4.9166667"
     inkscape:cx="2.1355932"
     inkscape:cy="24"
     inkscape:window-x="0"
     inkscape:window-y="25"
     inkscape:window-maximized="0"
     inkscape:current-layer="svg6" />
  <metadata
     id="metadata2">
    <rdf:RDF>
      <cc:Work>
        <dc:format>image/svg+xml</dc:format>
        <dc:type
           rdf:resource="http://purl.org/dc/dcmitype/StillImage" />
        <dc:title></dc:title>
      </cc:Work>
    </rdf:RDF>
  </metadata>
  <path
     d="M 6.34,0.07 A 6.29,6.29 0 0 0 0.06,6.37 6.29,6.29 0 0 0 6.34,12.65 6.29,6.29 0 0 0 12.64,6.36 6.29,6.29 0 0 0 6.33,0.07 Z M 6.33,1.01 a 5.4,5.4 0 0 1 5.4,5.4 5.4,5.4 0 0 1 -5.4,5.41 A 5.4,5.4 0 0 1 0.92,6.42 5.4,5.4 0 0 1 6.32,1 Z M 6.16,2.72 A 2,2 0 0 0 5.37,2.8 c -0.1,0.06 -0.19,0.18 -0.14,0.19 0.06,0 0.2,0.04 0.28,0.14 0.1,0.14 0.1,0.45 0.1,0.45 0,0 0.05,0.84 -0.13,0.95 C 5.35,4.6 5.18,4.45 4.79,3.78 4.6,3.44 4.45,3.05 4.45,3.05 4.45,3.05 4.43,2.98 4.37,2.95 4.31,2.9 4.23,2.89 4.23,2.89 h -0.9 c 0,0 -0.14,0 -0.2,0.07 -0.04,0.05 0,0.16 0,0.16 0,0 0.71,1.7 1.52,2.56 0.73,0.8 1.57,0.74 1.57,0.74 H 6.6 c 0,0 0.11,-0.01 0.17,-0.08 0.05,-0.06 0.05,-0.17 0.05,-0.17 0,0 0,-0.52 0.23,-0.6 C 7.28,5.5 7.58,6.07 7.9,6.3 8.14,6.47 8.32,6.43 8.32,6.43 L 9.16,6.42 c 0,0 0.45,-0.03 0.24,-0.39 C 9.38,6.01 9.27,5.77 8.77,5.29 8.24,4.78 8.31,4.86 8.95,3.99 9.34,3.45 9.49,3.13 9.45,2.99 9.4,2.86 9.11,2.89 9.11,2.89 H 8.16 c 0,0 -0.07,0 -0.12,0.03 -0.06,0.03 -0.09,0.1 -0.09,0.1 0,0 -0.15,0.42 -0.35,0.77 C 7.17,4.53 7,4.57 6.94,4.52 6.77,4.42 6.81,4.09 6.81,3.86 6.81,3.14 6.92,2.84 6.61,2.76 6.51,2.74 6.43,2.72 6.16,2.72 Z M 3.46,7.75 A 0.72,0.72 0 0 0 3.23,7.78 0.47,0.47 0 0 0 3.06,7.88 0.42,0.42 0 0 0 2.96,8.03 0.52,0.52 0 0 0 2.92,8.23 0.47,0.47 0 0 0 3.06,8.57 c 0.03,0.04 0.08,0.07 0.12,0.1 A 2.5,2.5 0 0 0 3.42,8.8 L 3.5,8.86 3.56,8.93 3.58,9.02 A 0.2,0.2 0 0 1 3.57,9.09 c 0,0.02 -0.02,0.04 -0.04,0.06 A 0.19,0.19 0 0 1 3.46,9.18 0.35,0.35 0 0 1 3.36,9.2 0.97,0.97 0 0 1 3.01,9.11 4.99,4.99 0 0 1 2.9,9.06 V 9.39 C 2.96,9.43 3.03,9.45 3.1,9.47 A 1.1,1.1 0 0 0 3.6,9.46 0.52,0.52 0 0 0 3.78,9.36 C 3.83,9.32 3.87,9.26 3.89,9.21 A 0.52,0.52 0 0 0 3.93,9 0.42,0.42 0 0 0 3.82,8.7 0.6,0.6 0 0 0 3.7,8.59 1.91,1.91 0 0 0 3.41,8.42 0.56,0.56 0 0 1 3.33,8.36 0.2,0.2 0 0 1 3.28,8.3 0.2,0.2 0 0 1 3.27,8.22 C 3.27,8.17 3.29,8.12 3.32,8.1 3.35,8.06 3.4,8.05 3.46,8.05 h 0.08 l 0.08,0.02 a 0.94,0.94 0 0 1 0.2,0.08 L 3.92,7.87 A 1.68,1.68 0 0 0 3.69,7.77 0.96,0.96 0 0 0 3.46,7.75 Z M 4.59,7.76 4.04,9.47 H 4.4 L 4.52,9.07 H 5.1 l 0.12,0.4 H 5.58 L 5.03,7.77 H 4.59 Z m 0.92,0.01 0.53,1.7 h 0.4 L 6.97,7.77 H 6.6 L 6.32,8.8 6.3,8.87 6.28,8.97 A 4.6,4.6 0 0 0 6.24,9.17 2.73,2.73 0 0 0 6.17,8.8 L 5.87,7.78 H 5.51 Z m 1.67,0 v 1.7 H 8.16 V 9.17 H 7.54 V 8.74 H 8.12 V 8.44 H 7.54 V 8.07 h 0.62 v -0.3 z m 1.34,0 v 1.7 H 8.88 V 8.82 H 9.03 L 9.4,9.47 H 9.8 L 9.78,9.44 A 3.21,3.21 0 0 1 9.57,9.1 L 9.34,8.73 A 0.58,0.58 0 0 0 9.44,8.66 0.48,0.48 0 0 0 9.62,8.28 C 9.62,8.11 9.57,7.98 9.46,7.9 9.36,7.81 9.2,7.77 8.98,7.77 Z M 4.8,8 4.82,8.1 4.85,8.22 c 0,0.04 0.02,0.07 0.03,0.1 0,0.04 0.02,0.06 0.02,0.07 L 5,8.76 H 4.6 L 4.7,8.39 4.71,8.35 4.73,8.29 4.75,8.22 A 3.75,3.75 0 0 0 4.81,8 Z m 4.07,0.07 h 0.09 c 0.1,0 0.17,0.01 0.21,0.05 0.05,0.03 0.07,0.09 0.07,0.17 0,0.08 -0.02,0.14 -0.06,0.18 C 9.14,8.51 9.06,8.53 8.96,8.53 H 8.86 V 8.07 Z"
     id="path4"
     inkscape:connector-curvature="0"
     style="fill:#5beedc;fill-opacity:0.98999999" />
</svg>
