<?xml version="1.0" encoding="UTF-8" standalone="no"?>
<svg
   xmlns:dc="http://purl.org/dc/elements/1.1/"
   xmlns:cc="http://creativecommons.org/ns#"
   xmlns:rdf="http://www.w3.org/1999/02/22-rdf-syntax-ns#"
   xmlns:svg="http://www.w3.org/2000/svg"
   xmlns="http://www.w3.org/2000/svg"
   xmlns:sodipodi="http://sodipodi.sourceforge.net/DTD/sodipodi-0.dtd"
   xmlns:inkscape="http://www.inkscape.org/namespaces/inkscape"
   width="48"
   height="48"
   viewBox="0 0 12.7 12.7"
   version="1.1"
   id="svg4"
   sodipodi:docname="vmware-netcfg.svg"
   inkscape:version="0.92.4 (5da689c313, 2019-01-14)">
  <metadata
     id="metadata10">
    <rdf:RDF>
      <cc:Work
         rdf:about="">
        <dc:format>image/svg+xml</dc:format>
        <dc:type
           rdf:resource="http://purl.org/dc/dcmitype/StillImage" />
        <dc:title></dc:title>
      </cc:Work>
    </rdf:RDF>
  </metadata>
  <defs
     id="defs8" />
  <sodipodi:namedview
     pagecolor="#ffffff"
     bordercolor="#666666"
     borderopacity="1"
     objecttolerance="10"
     gridtolerance="10"
     guidetolerance="10"
     inkscape:pageopacity="0"
     inkscape:pageshadow="2"
     inkscape:window-width="1087"
     inkscape:window-height="480"
     id="namedview6"
     showgrid="false"
     inkscape:zoom="4.9166667"
     inkscape:cx="2.1355932"
     inkscape:cy="24"
     inkscape:window-x="0"
     inkscape:window-y="25"
     inkscape:window-maximized="0"
     inkscape:current-layer="svg4" />
  <path
     d="M 6.34,0.07 A 6.29,6.29 0 0 0 0.05,6.37 6.29,6.29 0 0 0 6.35,12.65 6.29,6.29 0 0 0 12.63,6.36 6.29,6.29 0 0 0 6.34,0.07 Z M 6.32,1 6.33,1.01 a 5.4,5.4 0 0 1 5.4,5.4 5.4,5.4 0 0 1 -5.4,5.41 A 5.4,5.4 0 0 1 0.92,6.42 5.4,5.4 0 0 1 6.32,1 Z M 4.49,2.3 A 0.49,0.49 0 0 0 3.99,2.78 V 6.51 C 3.99,6.78 4.22,7 4.49,7 H 5.88 V 7.6 A 0.94,0.94 0 0 0 5.46,8.11 H 3.95 A 0.94,0.94 0 0 0 3.05,7.47 0.94,0.94 0 0 0 2.12,8.41 0.94,0.94 0 0 0 3.06,9.35 0.94,0.94 0 0 0 3.93,8.75 h 1.55 a 0.94,0.94 0 0 0 0.87,0.6 0.94,0.94 0 0 0 0.87,-0.6 H 8.77 A 0.94,0.94 0 0 0 9.64,9.35 0.94,0.94 0 0 0 10.58,8.41 0.94,0.94 0 0 0 9.64,7.47 0.94,0.94 0 0 0 8.75,8.11 H 7.25 A 0.94,0.94 0 0 0 6.82,7.59 V 7 h 1.4 C 8.48,7 8.7,6.79 8.7,6.52 V 2.78 C 8.7,2.51 8.48,2.29 8.21,2.29 H 4.5 Z M 4.94,3.23 H 7.76 V 6.06 H 4.94 Z"
     id="path2"
     inkscape:connector-curvature="0"
     style="fill:#5beedc" />
</svg>
