<?xml version="1.0" encoding="UTF-8" standalone="no"?>
<svg
   xmlns:dc="http://purl.org/dc/elements/1.1/"
   xmlns:cc="http://creativecommons.org/ns#"
   xmlns:rdf="http://www.w3.org/1999/02/22-rdf-syntax-ns#"
   xmlns:svg="http://www.w3.org/2000/svg"
   xmlns="http://www.w3.org/2000/svg"
   xmlns:sodipodi="http://sodipodi.sourceforge.net/DTD/sodipodi-0.dtd"
   xmlns:inkscape="http://www.inkscape.org/namespaces/inkscape"
   width="48"
   height="48"
   viewBox="0 0 12.7 12.7"
   version="1.1"
   id="svg4"
   sodipodi:docname="vmware-server.svg"
   inkscape:version="0.92.4 (5da689c313, 2019-01-14)">
  <metadata
     id="metadata10">
    <rdf:RDF>
      <cc:Work
         rdf:about="">
        <dc:format>image/svg+xml</dc:format>
        <dc:type
           rdf:resource="http://purl.org/dc/dcmitype/StillImage" />
        <dc:title></dc:title>
      </cc:Work>
    </rdf:RDF>
  </metadata>
  <defs
     id="defs8" />
  <sodipodi:namedview
     pagecolor="#ffffff"
     bordercolor="#666666"
     borderopacity="1"
     objecttolerance="10"
     gridtolerance="10"
     guidetolerance="10"
     inkscape:pageopacity="0"
     inkscape:pageshadow="2"
     inkscape:window-width="1087"
     inkscape:window-height="480"
     id="namedview6"
     showgrid="false"
     inkscape:zoom="4.9166667"
     inkscape:cx="2.1355932"
     inkscape:cy="24"
     inkscape:window-x="0"
     inkscape:window-y="25"
     inkscape:window-maximized="0"
     inkscape:current-layer="svg4" />
  <path
     d="m 6.344,0.073 a 6.29,6.29 0 0 0 -6.29,6.29 6.29,6.29 0 0 0 6.29,6.288 6.29,6.29 0 0 0 6.29,-6.289 6.29,6.29 0 0 0 -6.29,-6.29 z M 6.326,1.009 A 5.407,5.407 0 0 1 11.733,6.416 5.407,5.407 0 0 1 6.326,11.823 5.407,5.407 0 0 1 0.92,6.416 5.407,5.407 0 0 1 6.326,1.01 Z M 3.413,2.55 A 0.862,0.862 0 0 0 2.55,3.415 v 5.872 c 0,0.479 0.385,0.864 0.863,0.864 H 9.287 A 0.861,0.861 0 0 0 10.15,9.287 V 3.414 A 0.862,0.862 0 0 0 9.287,2.55 Z m 3.406,0.519 h 2.676 c 0.12,0 0.137,0.009 0.137,0.12 v 2.71 c 0,0.115 0,0.106 -0.151,0.106 H 6.846 c -0.153,0 -0.15,0.005 -0.15,-0.156 v -2.64 c 0,-0.14 0.003,-0.14 0.123,-0.14 z m -3.319,0 c 0.684,0 1.409,0.01 2.073,0 a 0.432,0.432 0 1 1 0,0.864 H 4.558 L 5.421,4.797 H 6.174 V 5.66 h -0.17 c -0.345,0 -0.345,0 -0.345,0.346 V 6.183 H 4.796 V 5.39 L 3.932,4.526 v 1.048 a 0.432,0.432 0 0 1 -0.864,0 c 0,-0.684 0.01,-1.409 0,-2.073 C 3.068,3.263 3.262,3.07 3.5,3.07 Z m 3.887,0.69 V 5.315 H 8.94 V 3.759 Z M 7.038,6.519 H 7.902 V 7.312 L 8.765,8.176 V 7.128 a 0.432,0.432 0 0 1 0.864,0 c 0,0.684 -0.01,1.408 0,2.072 A 0.432,0.432 0 0 1 9.197,9.632 c -0.684,0 -1.409,-0.01 -2.073,0 a 0.432,0.432 0 0 1 0,-0.864 H 8.14 L 7.276,7.905 H 6.523 V 7.04 h 0.17 c 0.345,0 0.345,0 0.345,-0.345 V 6.517 Z M 3.192,6.696 h 2.675 c 0.12,0 0.137,0.01 0.137,0.121 v 2.71 c 0,0.115 0,0.106 -0.15,0.106 H 3.217 c -0.153,0 -0.15,0.005 -0.15,-0.157 v -2.64 c 0,-0.14 0.004,-0.14 0.124,-0.14 z M 3.759,7.387 V 8.942 H 5.313 V 7.386 H 3.76 Z"
     id="path2"
     inkscape:connector-curvature="0"
     style="fill:#5beedc" />
</svg>
