<?xml version="1.0" encoding="UTF-8" standalone="no"?>
<svg
   xmlns:dc="http://purl.org/dc/elements/1.1/"
   xmlns:cc="http://creativecommons.org/ns#"
   xmlns:rdf="http://www.w3.org/1999/02/22-rdf-syntax-ns#"
   xmlns:svg="http://www.w3.org/2000/svg"
   xmlns="http://www.w3.org/2000/svg"
   xmlns:sodipodi="http://sodipodi.sourceforge.net/DTD/sodipodi-0.dtd"
   xmlns:inkscape="http://www.inkscape.org/namespaces/inkscape"
   width="48"
   height="48"
   viewBox="0 0 12.7 12.7"
   version="1.1"
   id="svg6"
   sodipodi:docname="volafox.svg"
   inkscape:version="0.92.5 (2060ec1f9f, 2020-04-08)">
  <metadata
     id="metadata12">
    <rdf:RDF>
      <cc:Work
         rdf:about="">
        <dc:format>image/svg+xml</dc:format>
        <dc:type
           rdf:resource="http://purl.org/dc/dcmitype/StillImage" />
        <dc:title></dc:title>
      </cc:Work>
    </rdf:RDF>
  </metadata>
  <defs
     id="defs10" />
  <sodipodi:namedview
     pagecolor="#ffffff"
     bordercolor="#666666"
     borderopacity="1"
     objecttolerance="10"
     gridtolerance="10"
     guidetolerance="10"
     inkscape:pageopacity="0"
     inkscape:pageshadow="2"
     inkscape:window-width="1085"
     inkscape:window-height="480"
     id="namedview8"
     showgrid="false"
     inkscape:zoom="4.9166667"
     inkscape:cx="2.1355932"
     inkscape:cy="24"
     inkscape:window-x="0"
     inkscape:window-y="25"
     inkscape:window-maximized="0"
     inkscape:current-layer="svg6" />
  <path
     d="M 6.34,0.075 A 6.295,6.295 0 0 0 0.055,6.36 6.295,6.295 0 0 0 6.34,12.655 6.295,6.295 0 0 0 12.634,6.36 6.295,6.295 0 0 0 6.34,0.075 Z m -0.011,0.94 a 5.408,5.408 0 0 1 5.397,5.387 5.407,5.407 0 0 1 -10.814,0 c 0,-2.987 2.43,-5.387 5.417,-5.387 z M 2.123,5.24 a 4.32,4.32 0 0 0 0.525,3.46 4.32,4.32 0 0 0 3.84,2.006 c 0.042,-0.02 0.109,-0.034 0.138,-0.053 a 3.69,3.69 0 0 1 -0.369,0 A 3.69,3.69 0 0 1 5.89,10.617 3.69,3.69 0 0 1 5.528,10.545 3.69,3.69 0 0 1 5.175,10.436 3.69,3.69 0 0 1 4.835,10.293 3.69,3.69 0 0 1 4.511,10.116 3.69,3.69 0 0 1 4.206,9.908 3.69,3.69 0 0 1 3.98,9.722 c 0.455,0.202 0.822,0.305 1.132,0.35 0.06,0.01 0.096,-0.003 0.152,0.002 A 3.83,3.83 0 0 1 3.047,8.446 3.83,3.83 0 0 1 2.556,5.466 1.863,1.863 0 0 1 2.535,5.415 1.863,1.863 0 0 1 2.499,5.3 2.217,2.217 0 0 0 2.123,5.24 Z m 8.34,0.476 c -0.039,0.226 0.043,0.495 0.106,0.847 0.015,0.08 0.018,0.181 0.029,0.27 a 4.32,4.32 0 0 0 0.005,-0.81 C 10.553,5.908 10.501,5.777 10.463,5.716 Z m -0.252,2.028 -0.002,0.002 v 0.005 c 0.001,-0.003 0,-0.004 0.002,-0.007 z M 10.209,7.751 C 9.952,8.211 9.9,8.636 9.729,8.964 9.669,9.078 9.486,9.278 9.358,9.449 a 4.32,4.32 0 0 0 0.845,-1.207 c 0.01,-0.16 0.018,-0.322 0.006,-0.491 z M 8.805,9.508 C 8.669,9.693 8.416,9.933 8.097,10.168 7.886,10.323 7.619,10.448 7.363,10.579 A 4.32,4.32 0 0 0 8.647,10.022 C 8.67,9.984 8.707,9.953 8.725,9.912 a 0.94,0.94 0 0 0 0.08,-0.404 z"
     id="path2"
     inkscape:connector-curvature="0"
     style="fill:#5beedc" />
  <path
     d="M 10.211,7.745 C 9.951,8.207 9.901,8.635 9.73,8.965 9.499,9.399 8.728,10.437 7.723,10.673 8.321,10.479 8.816,10.098 8.805,9.508 8.533,9.878 7.794,10.471 6.987,10.79 6.465,10.996 5.861,10.971 5.611,10.865 5.854,10.955 6.414,10.793 6.626,10.654 A 3.69,3.69 0 0 1 3.98,9.724 c 0.91,0.403 1.468,0.412 1.925,0.355 C 5.594,10.015 5.188,9.822 5.034,9.616 5.481,9.786 6.547,9.869 7.592,9.116 A 2.593,2.593 0 0 1 6.829,9.122 C 7.968,8.555 8.129,8.307 8.368,8.057 8.228,8.124 8.101,8.14 8.023,8.152 c 0,0 0.326,-0.228 0.66,-0.747 C 8.938,7.009 8.938,6.77 8.88,6.704 8.866,6.681 8.849,6.68 8.849,6.68 8.805,6.714 8.76,6.752 8.722,6.761 c 0,0 -0.024,-0.086 0.015,-0.173 A 0.509,0.509 0 0 0 8.762,6.471 L 8.724,6.558 C 8.729,6.518 8.735,6.473 8.748,6.424 8.792,6.248 8.851,6.074 8.782,6.046 8.799,6.102 8.765,6.176 8.713,6.223 8.716,6.164 8.726,6.007 8.61,5.748 8.56,5.642 8.372,5.181 7.747,4.808 7.789,4.895 7.837,5.034 7.947,5.088 7.793,5.062 7.67,4.827 7.521,4.702 7.388,4.592 7.078,4.536 6.916,4.493 7.289,4.851 7.501,5.347 7.492,5.72 7.481,6.095 7.447,6.337 7.568,6.457 7.688,6.575 7.61,6.757 7.415,6.728 A 0.863,0.863 0 0 1 6.749,6.131 C 6.642,5.816 6.712,5.441 6.313,5.156 L 6.236,5.105 C 6.208,5.091 6.301,5.177 6.272,5.161 A 2.345,2.345 0 0 0 6.006,4.991 C 5.997,4.988 6.049,5.039 6.044,5.036 5.594,4.81 5.438,4.944 5.331,5.013 A 0.364,0.364 0 0 0 5.173,5.325 c 0.05,0.04 0.09,0.061 0.09,0.061 0,0 -0.052,0.002 -0.081,-0.004 l 0.004,0.013 c 0.042,0.036 0.14,0.108 0.195,0.142 0.077,0.045 0.124,0.046 0.124,0.046 0,0 0,0.019 -0.046,0.026 A 0.28,0.28 0 0 1 5.304,5.574 L 5.306,5.576 A 0.99,0.99 0 0 0 5.431,5.653 C 5.381,5.703 5.337,5.766 5.222,5.818 5.138,5.853 5.119,5.868 5.082,5.868 5.047,5.864 5.051,5.893 5.086,5.905 a 0.397,0.397 0 0 1 -0.069,0.01 c -0.08,0.08 -0.016,0.808 -0.02,0.87 A 0.621,0.621 0 0 1 4.913,7.051 0.471,0.471 0 0 1 4.724,7.228 C 4.654,7.27 4.584,7.255 4.214,6.668 A 0.472,0.472 0 0 0 3.826,6.458 L 3.749,6.461 C 3.717,6.46 3.69,6.467 3.666,6.47 A 1.487,1.487 0 0 0 3.29,7.315 C 3.288,7.335 3.263,7.257 3.26,7.277 3.257,7.301 3.27,7.421 3.273,7.445 3.274,7.475 3.164,7.373 3.117,7.255 3.071,7.135 3.069,7.107 3.064,7.035 3.056,7.072 3.066,7.165 3.057,7.147 A 1.378,1.378 0 0 1 3.007,6.667 L 2.971,6.689 C 2.966,6.617 2.983,6.424 3.038,6.342 L 2.992,6.368 C 3.002,6.308 3.02,6.246 3.043,6.184 L 3.046,6.183 A 1.863,1.863 0 0 1 2.499,5.301 C 2.419,5.271 2.296,5.221 1.977,5.218 1.958,5.218 2.003,5.188 1.981,5.19 A 1.244,1.244 0 0 0 1.505,5.338 c 0,0 -0.005,-0.129 0.15,-0.315 L 1.712,4.951 C 1.713,4.944 1.652,4.995 1.654,4.988 1.671,4.961 1.688,4.904 1.725,4.864 1.752,4.837 1.762,4.809 1.802,4.777 1.792,4.783 1.757,4.806 1.761,4.797 1.815,4.725 1.881,4.645 1.959,4.567 A 2.58,2.58 0 0 1 2.533,4.138 C 2.555,4.124 2.578,4.116 2.595,4.102 a 2.064,2.064 0 0 1 0.178,-0.36 c 0.147,-0.25 0.406,-0.58 0.869,-1.006 0,0 -0.156,0.188 -0.3,0.453 C 3.565,2.92 3.952,2.569 4.634,2.191 A 4.606,4.606 0 0 0 4.269,2.522 3.983,3.983 0 0 1 6.117,1.998 C 6.722,1.971 8.184,1.992 9.661,3.452 A 0.968,0.968 0 0 0 9.305,3.25 c 0,0 0.614,0.506 0.894,0.982 C 10.079,4.105 9.992,4.12 9.992,4.12 c 0,0 1.154,1.593 0.74,2.663 0.101,-0.342 -0.151,-0.878 -0.27,-1.066 -0.077,0.452 0.33,1.077 0.098,2.19 -0.127,0.61 -0.382,0.83 -0.6179997,1.042 C 10.245,8.666 10.242,8.206 10.209,7.747 Z"
     id="path4"
     inkscape:connector-curvature="0"
     style="opacity:0.75;fill:#d45500" />
</svg>
