<?xml version="1.0" encoding="UTF-8" standalone="no"?>
<svg
   xmlns:dc="http://purl.org/dc/elements/1.1/"
   xmlns:cc="http://creativecommons.org/ns#"
   xmlns:rdf="http://www.w3.org/1999/02/22-rdf-syntax-ns#"
   xmlns:svg="http://www.w3.org/2000/svg"
   xmlns="http://www.w3.org/2000/svg"
   xmlns:sodipodi="http://sodipodi.sourceforge.net/DTD/sodipodi-0.dtd"
   xmlns:inkscape="http://www.inkscape.org/namespaces/inkscape"
   width="48"
   height="48"
   viewBox="0 0 12.7 12.7"
   version="1.1"
   id="svg8"
   sodipodi:docname="vulnhub.svg"
   inkscape:version="0.92.5 (2060ec1f9f, 2020-04-08)">
  <metadata
     id="metadata14">
    <rdf:RDF>
      <cc:Work
         rdf:about="">
        <dc:format>image/svg+xml</dc:format>
        <dc:type
           rdf:resource="http://purl.org/dc/dcmitype/StillImage" />
        <dc:title></dc:title>
      </cc:Work>
    </rdf:RDF>
  </metadata>
  <defs
     id="defs12" />
  <sodipodi:namedview
     pagecolor="#ffffff"
     bordercolor="#666666"
     borderopacity="1"
     objecttolerance="10"
     gridtolerance="10"
     guidetolerance="10"
     inkscape:pageopacity="0"
     inkscape:pageshadow="2"
     inkscape:window-width="1085"
     inkscape:window-height="480"
     id="namedview10"
     showgrid="false"
     inkscape:zoom="4.9166667"
     inkscape:cx="2.1355932"
     inkscape:cy="24"
     inkscape:window-x="0"
     inkscape:window-y="25"
     inkscape:window-maximized="0"
     inkscape:current-layer="svg8" />
  <path
     d="M 6.35,0.061 A 6.29,6.29 0 0 0 0.061,6.35 6.29,6.29 0 0 0 6.35,12.639 6.29,6.29 0 0 0 12.639,6.35 6.29,6.29 0 0 0 6.35,0.061 Z M 6.332,0.997 A 5.407,5.407 0 0 1 11.739,6.404 5.407,5.407 0 0 1 6.332,11.811 5.407,5.407 0 0 1 0.925,6.404 5.407,5.407 0 0 1 6.332,0.997 Z m 0.001,0.619 a 0.62,0.62 0 0 0 -0.365,0.13 l -4.231,3.45 c -0.2,0.163 -0.2,0.418 0.002,0.566 L 6,8.887 C 6.203,9.035 6.532,9.022 6.732,8.858 L 10.964,5.41 c 0.2,-0.163 0.199,-0.419 -0.003,-0.567 L 6.7,1.72 A 0.585,0.585 0 0 0 6.333,1.617 Z m 0.003,0.543 a 0.5,0.5 0 0 1 0.313,0.087 l 3.633,2.665 c 0.172,0.126 0.174,0.344 0.003,0.483 L 6.675,8.335 A 0.54,0.54 0 0 1 6.051,8.36 L 2.417,5.695 C 2.245,5.568 2.244,5.351 2.415,5.212 L 6.025,2.27 A 0.528,0.528 0 0 1 6.336,2.159 Z M 6.333,2.594 A 0.62,0.62 0 0 0 5.968,2.724 L 2.544,5.517 2.551,5.523 2.911,5.787 6.024,3.249 A 0.54,0.54 0 0 1 6.649,3.225 L 9.782,5.523 10.142,5.23 10.147,5.225 6.7,2.697 A 0.585,0.585 0 0 0 6.333,2.594 Z m 0,1.086 A 0.62,0.62 0 0 0 5.968,3.812 L 3.245,6.032 3.612,6.3 6.024,4.335 A 0.54,0.54 0 0 1 6.648,4.31 L 9.08,6.094 9.444,5.797 6.7,3.784 A 0.585,0.585 0 0 0 6.333,3.68 Z m 4.55,2.113 -0.472,0.384 a 0.326,0.326 0 0 1 -0.127,0.225 l -0.097,0.079 v 0.568 l 0.776,-0.632 c 0.2,-0.163 0.2,-0.418 -0.003,-0.566 z M 1.825,6.131 1.737,6.203 c -0.2,0.163 -0.2,0.418 0.002,0.567 L 2.472,7.307 V 6.742 L 2.417,6.702 A 0.295,0.295 0 0 1 2.287,6.471 Z M 9.751,6.837 9.162,7.316 V 7.885 L 9.751,7.405 Z M 10.883,6.88 10.411,7.264 A 0.325,0.325 0 0 1 10.284,7.488 L 9.163,8.403 v 0.568 l 1.8,-1.467 c 0.2,-0.163 0.2,-0.419 -0.003,-0.567 z M 2.909,7.063 v 0.564 l 0.518,0.38 V 7.442 L 2.909,7.062 Z M 1.825,7.218 1.737,7.289 c -0.2,0.164 -0.2,0.42 0.002,0.567 L 6,10.981 a 0.632,0.632 0 0 0 0.732,-0.028 l 0.383,-0.312 v -0.57 L 6.677,10.43 A 0.54,0.54 0 0 1 6.052,10.454 L 2.417,7.789 A 0.296,0.296 0 0 1 2.287,7.557 L 1.825,7.217 Z m 2.038,0.544 v 0.565 l 0.518,0.38 V 8.142 Z m 0.955,0.7 v 0.565 l 0.518,0.38 V 8.842 Z M 7.114,8.985 6.676,9.343 A 0.54,0.54 0 0 1 6.051,9.367 L 5.771,9.162 V 9.727 L 6,9.894 A 0.632,0.632 0 0 0 6.731,9.866 L 7.114,9.554 Z"
     id="path2"
     inkscape:connector-curvature="0"
     style="fill:#5beedc" />
  <path
     d="M 6.033,6.269 C 5.938,6.249 5.863,6.299 5.873,6.424 L 6.037,7.6 c 0.04,0.106 0.109,0.129 0.205,0.069 L 6.527,7.325 7.106,7.726 7.557,7.358 6.132,6.314 A 0.293,0.293 0 0 0 6.032,6.27 Z M 7.939,8.288 7.364,8.756 v 2.324 l 0.575,-0.468 z"
     id="path4"
     inkscape:connector-curvature="0"
     style="clip-rule:evenodd;opacity:0.75;fill:#367bf0;fill-rule:evenodd" />
  <path
     d="M 7.665,5.545 6.436,5.707 C 6.329,5.725 6.257,5.862 6.357,5.937 L 7.887,7.088 8.329,6.728 7.499,6.095 7.774,5.73 C 7.846,5.635 7.781,5.53 7.664,5.545 Z m 1.194,1.992 -0.576,0.47 v 3.071 l 0.576,-0.465 z"
     id="path6"
     inkscape:connector-curvature="0"
     style="clip-rule:evenodd;opacity:0.75;fill:#fd7d00;fill-rule:evenodd" />
</svg>
