<?xml version="1.0" encoding="UTF-8" standalone="no"?>
<svg
   xmlns:dc="http://purl.org/dc/elements/1.1/"
   xmlns:cc="http://creativecommons.org/ns#"
   xmlns:rdf="http://www.w3.org/1999/02/22-rdf-syntax-ns#"
   xmlns:svg="http://www.w3.org/2000/svg"
   xmlns="http://www.w3.org/2000/svg"
   xmlns:sodipodi="http://sodipodi.sourceforge.net/DTD/sodipodi-0.dtd"
   xmlns:inkscape="http://www.inkscape.org/namespaces/inkscape"
   width="48"
   height="48"
   viewBox="0 0 12.7 12.7"
   version="1.1"
   id="svg16"
   sodipodi:docname="vvave.svg"
   inkscape:version="0.92.5 (2060ec1f9f, 2020-04-08)">
  <metadata
     id="metadata22">
    <rdf:RDF>
      <cc:Work
         rdf:about="">
        <dc:format>image/svg+xml</dc:format>
        <dc:type
           rdf:resource="http://purl.org/dc/dcmitype/StillImage" />
        <dc:title></dc:title>
      </cc:Work>
    </rdf:RDF>
  </metadata>
  <defs
     id="defs20" />
  <sodipodi:namedview
     pagecolor="#ffffff"
     bordercolor="#666666"
     borderopacity="1"
     objecttolerance="10"
     gridtolerance="10"
     guidetolerance="10"
     inkscape:pageopacity="0"
     inkscape:pageshadow="2"
     inkscape:window-width="1087"
     inkscape:window-height="480"
     id="namedview18"
     showgrid="false"
     inkscape:zoom="4.9166667"
     inkscape:cx="2.1355932"
     inkscape:cy="24"
     inkscape:window-x="0"
     inkscape:window-y="25"
     inkscape:window-maximized="0"
     inkscape:current-layer="svg16" />
  <path
     style="fill:#5beedc;stroke-width:1"
     d="M 6.3437986,0.07699788 A 6.2669999,6.2669999 0 0 0 0.07596436,6.3437986 6.2669999,6.2669999 0 0 0 6.3437986,12.611116 6.2669999,6.2669999 0 0 0 12.611117,6.3437986 6.2669999,6.2669999 0 0 0 6.3437986,0.07699788 Z M 6.3262287,1.0092407 A 5.3879998,5.3879998 0 0 1 11.714014,6.3990926 5.3879998,5.3879998 0 0 1 6.3262287,11.785844 5.3879998,5.3879998 0 0 1 0.93586019,6.3980591 5.3879998,5.3879998 0 0 1 6.3262287,1.0092407 Z M 4.4979166,3.7036499 c -0.1465773,0 -0.2645833,0.118006 -0.2645833,0.2645833 v 4.7625 c 0,0.1465773 0.118006,0.2645833 0.2645833,0.2645833 h 0.5291667 c 0.1465773,0 0.2645833,-0.118006 0.2645833,-0.2645833 v -4.7625 c 0,-0.1465773 -0.118006,-0.2645833 -0.2645833,-0.2645833 z m 3.175,0 c -0.1465773,0 -0.2645833,0.118006 -0.2645833,0.2645833 v 4.7625 c 0,0.1465773 0.118006,0.2645833 0.2645833,0.2645833 h 0.5291667 c 0.1465773,0 0.2645833,-0.118006 0.2645833,-0.2645833 v -4.7625 c 0,-0.1465773 -0.118006,-0.2645833 -0.2645833,-0.2645833 z M 2.9104167,4.7619832 c -0.1465773,0 -0.2645834,0.118006 -0.2645834,0.2645833 v 2.38125 c 0,0.1465773 0.1180061,0.2645833 0.2645834,0.2645833 h 0.5291666 c 0.1465773,0 0.2645834,-0.118006 0.2645834,-0.2645833 v -2.38125 c 0,-0.1465773 -0.1180061,-0.2645833 -0.2645834,-0.2645833 z m 3.1749999,0 c -0.1465773,0 -0.2645833,0.118006 -0.2645833,0.2645833 v 4.7625 c 0,0.1465773 0.118006,0.2645835 0.2645833,0.2645835 h 0.5291667 c 0.1465773,0 0.2645833,-0.1180062 0.2645833,-0.2645835 v -4.7625 c 0,-0.1465773 -0.118006,-0.2645833 -0.2645833,-0.2645833 z m 3.175,0 c -0.1465773,0 -0.2645833,0.118006 -0.2645833,0.2645833 v 2.38125 c 0,0.1465773 0.118006,0.2645833 0.2645833,0.2645833 h 0.5291666 c 0.1465774,0 0.2645838,-0.118006 0.2645838,-0.2645833 v -2.38125 c 0,-0.1465773 -0.1180064,-0.2645833 -0.2645838,-0.2645833 z"
     id="path2"
     inkscape:connector-curvature="0" />
</svg>
