<?xml version="1.0" encoding="UTF-8" standalone="no"?>
<svg
   xmlns:dc="http://purl.org/dc/elements/1.1/"
   xmlns:cc="http://creativecommons.org/ns#"
   xmlns:rdf="http://www.w3.org/1999/02/22-rdf-syntax-ns#"
   xmlns:svg="http://www.w3.org/2000/svg"
   xmlns="http://www.w3.org/2000/svg"
   xmlns:sodipodi="http://sodipodi.sourceforge.net/DTD/sodipodi-0.dtd"
   xmlns:inkscape="http://www.inkscape.org/namespaces/inkscape"
   width="48"
   height="48"
   viewBox="0 0 12.7 12.7"
   version="1.1"
   id="svg4"
   sodipodi:docname="w3af.svg"
   inkscape:version="0.92.5 (2060ec1f9f, 2020-04-08)">
  <metadata
     id="metadata10">
    <rdf:RDF>
      <cc:Work
         rdf:about="">
        <dc:format>image/svg+xml</dc:format>
        <dc:type
           rdf:resource="http://purl.org/dc/dcmitype/StillImage" />
        <dc:title></dc:title>
      </cc:Work>
    </rdf:RDF>
  </metadata>
  <defs
     id="defs8" />
  <sodipodi:namedview
     pagecolor="#ffffff"
     bordercolor="#666666"
     borderopacity="1"
     objecttolerance="10"
     gridtolerance="10"
     guidetolerance="10"
     inkscape:pageopacity="0"
     inkscape:pageshadow="2"
     inkscape:window-width="1085"
     inkscape:window-height="480"
     id="namedview6"
     showgrid="false"
     inkscape:zoom="4.9166667"
     inkscape:cx="2.1355932"
     inkscape:cy="24"
     inkscape:window-x="0"
     inkscape:window-y="25"
     inkscape:window-maximized="0"
     inkscape:current-layer="svg4" />
  <path
     d="m 6.34,0.075 a 6.295,6.295 0 0 0 -4.218,1.64 c 0.067,0.064 0.049,0.027 0.132,0.107 0.079,0.077 0.147,0.135 0.223,0.206 0.092,0.086 0.185,0.173 0.272,0.25 0.023,0.02 0.043,0.034 0.066,0.053 a 5.392,5.392 0 0 1 3.514,-1.316 5.408,5.408 0 0 1 5.397,5.387 5.407,5.407 0 0 1 -10.814,0 c 0,-1.125 0.346,-2.167 0.935,-3.029 L 1.825,3.365 A 1.825,1.825 0 0 1 1.699,3.068 C 1.623,2.856 1.576,2.633 1.498,2.368 A 6.295,6.295 0 0 0 0.055,6.36 6.295,6.295 0 0 0 6.34,12.655 6.295,6.295 0 0 0 12.634,6.36 6.295,6.295 0 0 0 6.34,0.075 Z m 0.032,1.76 A 4.504,4.504 0 0 0 3.549,2.827 4.188,4.188 0 0 1 6.072,1.977 4.188,4.188 0 0 1 8.26,2.599 4.209,4.209 0 0 1 10.584,6.364 4.206,4.206 0 0 1 8.729,9.857 C 8.583,9.939 8.435,10.017 8.277,10.082 7.518,10.39 6.387,10.529 6.059,10.354 5.623,10.123 5.678,9.599 6.194,9.051 6.406,8.827 6.344,8.758 6.055,8.896 5.445,9.186 4.282,8.832 3.498,8.12 3.303,7.942 3.138,7.82 3.101,7.821 3.095,7.822 3.092,7.824 3.092,7.829 c 0,0.158 1.034,1.083 1.49,1.332 C 5.1,9.446 5.268,9.601 5.212,9.746 5.147,9.917 4.657,9.871 4.223,9.652 3.849,9.464 3.133,8.827 2.793,8.379 2.688,8.242 2.616,8.176 2.57,8.171 2.529,8.166 2.508,8.211 2.508,8.311 c 0,0.264 0.254,0.795 0.514,1.093 0.011,0.012 0.021,0.03 0.032,0.041 0.016,0.017 0.033,0.032 0.05,0.048 0.072,0.075 0.145,0.148 0.224,0.217 0.671,0.59 1.555,0.978 2.588,1.134 0.323,0.048 1.182,-0.008 1.585,-0.098 0.02,-0.005 0.053,-0.008 0.071,-0.013 0.036,-0.01 0.07,-0.023 0.105,-0.033 l 0.079,-0.024 c 0.06,-0.02 0.122,-0.04 0.182,-0.062 0.003,-0.001 0.005,0 0.007,-0.003 H 7.949 A 4.495,4.495 0 0 0 9.252,9.86 4.52,4.52 0 0 0 10.902,6.364 c 0,-2.5 -2.03,-4.529 -4.53,-4.529 z M 2.226,2.505 A 0.118,0.118 0 0 0 2.164,2.519 C 2.059,2.575 2.047,2.629 2.085,2.884 2.12,3.118 2.308,3.747 2.442,4.121 2.495,4.27 2.542,4.386 2.564,4.409 2.591,4.436 2.479,4.597 2.316,4.766 A 1.856,1.856 0 0 0 1.993,5.226 C 1.908,5.397 1.859,5.569 1.859,5.714 c 0,0.05 0.008,0.078 0.022,0.09 C 1.921,5.835 2.019,5.72 2.205,5.428 2.229,5.39 2.269,5.348 2.299,5.308 2.445,5.111 2.639,4.898 2.806,4.772 2.999,4.626 3.157,4.496 3.157,4.484 A 2.3,2.3 0 0 0 2.99,4.216 C 2.956,4.166 2.917,4.076 2.878,4.01 A 5.365,5.365 0 0 1 2.714,3.704 C 2.567,3.408 2.444,3.124 2.461,3.071 2.474,3.034 2.582,3.147 2.702,3.324 2.739,3.379 2.8,3.452 2.85,3.521 2.918,3.614 2.977,3.694 3.047,3.784 3.094,3.844 3.139,3.91 3.177,3.957 3.48,4.324 3.47,4.368 2.95,4.925 2.637,5.26 2.587,5.406 2.792,5.389 2.887,5.381 2.884,5.405 2.769,5.591 2.611,5.846 2.597,6.08 2.739,6.08 c 0.077,0 0.09,0.036 0.055,0.146 -0.09,0.27 -0.067,0.406 0.069,0.406 0.095,0 0.19,0.128 0.37,0.502 0.276,0.57 0.7,1.034 1.11,1.217 0.317,0.14 0.823,0.158 1.152,0.04 C 5.823,8.271 5.78,8.148 5.379,8.058 5.034,7.98 4.867,7.898 5.054,7.898 A 0.278,0.278 0 0 0 5.234,7.801 0.302,0.302 0 0 1 5.438,7.703 C 5.593,7.703 5.591,7.631 5.43,7.33 5.358,7.197 5.3,7.051 5.3,7.006 5.3,6.843 5.17,6.929 5.044,7.176 4.835,7.585 4.634,7.608 4.147,7.28 3.361,6.75 3.256,5.694 3.951,5.304 4.123,5.208 4.131,5.212 4.637,5.692 5.021,6.056 5.201,6.287 5.359,6.616 5.475,6.856 5.599,7.054 5.632,7.054 A 0.645,0.645 0 0 0 5.851,6.951 c 0.092,-0.06 0.212,-0.085 0.29,-0.06 0.18,0.057 0.167,0.14 -0.028,0.19 a 0.42,0.42 0 0 0 -0.235,0.18 c -0.065,0.122 -0.053,0.16 0.086,0.275 0.178,0.148 0.31,0.473 0.31,0.761 0,0.243 0.1,0.235 0.231,-0.017 C 6.572,8.15 6.602,7.963 6.588,7.76 6.576,7.586 6.584,7.443 6.606,7.443 6.676,7.443 6.923,6.691 6.923,6.477 6.923,6.254 7.09,5.884 7.387,5.451 7.635,5.089 7.629,4.976 7.361,4.976 7.245,4.976 7.059,5.002 6.948,5.034 6.646,5.12 5.518,4.835 4.878,4.51 A 6.824,6.824 0 0 1 3.336,3.45 C 3.261,3.384 3.182,3.31 3.104,3.236 3.04,3.176 2.982,3.126 2.914,3.061 2.48,2.641 2.326,2.51 2.227,2.505 Z m 4.876,2.732 c 0.045,0 0.08,0.02 0.08,0.047 0,0.027 -0.066,0.132 -0.147,0.233 L 6.887,5.701 6.872,5.521 C 6.858,5.344 6.942,5.239 7.102,5.237 Z M 4.236,5.56 C 4.077,5.584 3.717,6.58 4.245,6.918 4.552,7.088 4.945,6.808 5.105,6.468 5.097,6.232 4.615,7.065 4.277,6.713 3.95,6.373 4.389,5.585 4.251,5.56 Z M 2.119,5.833 H 2.109 C 2.031,5.86 1.91,6.139 1.844,6.394 1.818,6.496 1.799,6.594 1.798,6.671 1.796,6.801 1.813,7.041 1.836,7.207 1.871,7.467 1.951,7.571 1.978,7.444 1.983,7.42 1.989,7.404 1.99,7.362 1.99,7.282 2.034,7.072 2.087,6.897 2.125,6.77 2.149,6.608 2.164,6.447 2.179,6.299 2.182,6.165 2.176,6.053 2.168,5.932 2.153,5.836 2.119,5.833 Z M 4.515,5.855 C 4.487,5.851 4.468,5.864 4.451,5.891 4.347,6.066 4.247,6.38 4.353,6.581 4.443,6.719 4.765,6.513 4.905,6.389 4.981,6.267 4.965,6.231 4.749,6.027 4.629,5.914 4.561,5.861 4.515,5.855 Z M 2.21,7.249 C 2.108,7.249 2.06,7.492 2.062,7.754 2.064,7.981 2.103,8.223 2.19,8.328 2.235,8.383 2.26,8.368 2.278,8.29 A 2.26,2.26 0 0 0 2.319,7.957 C 2.336,7.747 2.331,7.637 2.326,7.528 2.32,7.4 2.303,7.298 2.26,7.271 2.245,7.261 2.23,7.249 2.21,7.249 Z M 5.856,7.535 A 0.061,0.061 0 0 0 5.814,7.545 C 5.785,7.562 5.816,7.671 5.883,7.786 5.95,7.901 6.025,8.105 6.049,8.238 6.117,8.608 6.198,8.468 6.138,8.086 6.092,7.799 5.958,7.55 5.856,7.536 Z"
     id="path2"
     inkscape:connector-curvature="0"
     style="fill:#5beedc" />
</svg>
