<?xml version="1.0" encoding="UTF-8" standalone="no"?>
<svg
   xmlns:dc="http://purl.org/dc/elements/1.1/"
   xmlns:cc="http://creativecommons.org/ns#"
   xmlns:rdf="http://www.w3.org/1999/02/22-rdf-syntax-ns#"
   xmlns:svg="http://www.w3.org/2000/svg"
   xmlns="http://www.w3.org/2000/svg"
   xmlns:sodipodi="http://sodipodi.sourceforge.net/DTD/sodipodi-0.dtd"
   xmlns:inkscape="http://www.inkscape.org/namespaces/inkscape"
   width="48"
   height="48"
   version="1.1"
   viewBox="0 0 12.7 12.7"
   id="svg6"
   sodipodi:docname="komorebi-wallpaper-creator.svg"
   inkscape:version="0.92.4 (5da689c313, 2019-01-14)">
  <metadata
     id="metadata12">
    <rdf:RDF>
      <cc:Work
         rdf:about="">
        <dc:format>image/svg+xml</dc:format>
        <dc:type
           rdf:resource="http://purl.org/dc/dcmitype/StillImage" />
        <dc:title></dc:title>
      </cc:Work>
    </rdf:RDF>
  </metadata>
  <defs
     id="defs10" />
  <sodipodi:namedview
     pagecolor="#ffffff"
     bordercolor="#666666"
     borderopacity="1"
     objecttolerance="10"
     gridtolerance="10"
     guidetolerance="10"
     inkscape:pageopacity="0"
     inkscape:pageshadow="2"
     inkscape:window-width="1136"
     inkscape:window-height="480"
     id="namedview8"
     showgrid="false"
     inkscape:zoom="4.9166667"
     inkscape:cx="2.1355932"
     inkscape:cy="24"
     inkscape:window-x="0"
     inkscape:window-y="25"
     inkscape:window-maximized="0"
     inkscape:current-layer="svg6" />
  <path
     d="m 6.3398,0.075417 c -3.4684,0.0057471 -6.2786,2.816 -6.2844,6.2844 -4.61e-6,3.4725 2.8119,6.289 6.2844,6.2948 3.4765,0 6.2948,-2.8183 6.2948,-6.2948 -0.0058,-3.4724 -2.8224,-6.2844 -6.2948,-6.2844 z m -0.010439,0.93952 c 2.9743,0.00572 5.3856,2.4124 5.397,5.3866 0,2.9865 -2.421,5.4075 -5.4075,5.4075 -2.9865,0 -5.4075,-2.421 -5.4075,-5.4075 0,-2.9865 2.4314,-5.3866 5.4179,-5.3866 z"
     id="path2"
     inkscape:connector-curvature="0"
     style="fill:#5beedc;stroke-width:1.04390001" />
  <path
     d="m 2.7450175,3.4125528 c -0.1747392,0 -0.3157497,0.1357322 -0.3157497,0.3043729 v 5.2378902 c 0,0.168638 0.1409999,0.3038437 0.3157497,0.3038437 H 7.2505504 A 1.7595893,1.7675796 0 0 1 7.1869877,9.1470386 1.7595893,1.7675796 0 0 1 7.1151595,8.9858088 1.7595893,1.7675796 0 0 1 7.059349,8.8178614 1.7595893,1.7675796 0 0 1 7.0211092,8.6457812 1.7595893,1.7675796 0 0 1 6.9999222,8.4700842 1.7595893,1.7675796 0 0 1 6.9952714,8.3450278 1.7595893,1.7675796 0 0 1 7.0040562,8.1688123 1.7595893,1.7675796 0 0 1 7.0304111,7.9941471 1.7595893,1.7675796 0 0 1 7.0738181,7.8225829 1.7595893,1.7675796 0 0 1 7.1342799,7.6567044 1.7595893,1.7675796 0 0 1 7.2107594,7.4975437 1.7595893,1.7675796 0 0 1 7.3027433,7.347167 1.7595893,1.7675796 0 0 1 7.4091944,7.2066089 1.7595893,1.7675796 0 0 1 7.5290809,7.0774198 a 1.7595893,1.7675796 0 0 1 0.13229,-0.1167883 1.7595893,1.7675796 0 0 1 0.143143,-0.1028343 1.7595893,1.7675796 0 0 1 0.1524431,-0.087849 1.7595893,1.7675796 0 0 1 0.1607112,-0.072347 1.7595893,1.7675796 0 0 1 0.166397,-0.055811 1.7595893,1.7675796 0 0 1 0.1720802,-0.03824 1.7595893,1.7675796 0 0 1 0.1741465,-0.021704 1.7595893,1.7675796 0 0 1 0.1245378,-0.00413 1.7595893,1.7675796 0 0 1 0.175697,0.00878 1.7595893,1.7675796 0 0 1 0.1741466,0.026355 1.7595893,1.7675796 0 0 1 0.1705297,0.043926 1.7595893,1.7675796 0 0 1 0.1648466,0.060462 1.7595893,1.7675796 0 0 1 0.1586448,0.076479 1.7595893,1.7675796 0 0 1 0.1498608,0.0925 1.7595893,1.7675796 0 0 1 0.1400422,0.1069697 1.7595893,1.7675796 0 0 1 0.1286736,0.1204051 1.7595893,1.7675796 0 0 1 0.116269,0.1328059 1.7595893,1.7675796 0 0 1 0.102319,0.143659 1.7595893,1.7675796 0 0 1 0.03411,0.060462 V 3.7170334 c -4e-6,-0.168638 -0.140484,-0.3043729 -0.315221,-0.3043729 H 2.74494 Z m 5.995912,3.4995997 A 1.4459032,1.4530998 0 0 0 7.2945235,8.3652788 1.4459032,1.4530998 0 0 0 8.7409295,9.8184051 1.4459032,1.4530998 0 0 0 10.186806,8.3652788 1.4459032,1.4530998 0 0 0 8.7409295,6.9121525 Z"
     id="path4"
     inkscape:connector-curvature="0"
     style="opacity:0.8;fill:#3aa5cc;stroke-width:0.26458001" />
</svg>
