<?xml version="1.0" encoding="UTF-8" standalone="no"?>
<svg
   xmlns:dc="http://purl.org/dc/elements/1.1/"
   xmlns:cc="http://creativecommons.org/ns#"
   xmlns:rdf="http://www.w3.org/1999/02/22-rdf-syntax-ns#"
   xmlns:svg="http://www.w3.org/2000/svg"
   xmlns="http://www.w3.org/2000/svg"
   xmlns:sodipodi="http://sodipodi.sourceforge.net/DTD/sodipodi-0.dtd"
   xmlns:inkscape="http://www.inkscape.org/namespaces/inkscape"
   width="48"
   height="48"
   viewBox="0 0 12.7 12.7"
   version="1.1"
   id="svg8"
   sodipodi:docname="waterfox.svg"
   inkscape:version="0.92.4 (5da689c313, 2019-01-14)">
  <defs
     id="defs12" />
  <sodipodi:namedview
     pagecolor="#ffffff"
     bordercolor="#666666"
     borderopacity="1"
     objecttolerance="10"
     gridtolerance="10"
     guidetolerance="10"
     inkscape:pageopacity="0"
     inkscape:pageshadow="2"
     inkscape:window-width="1087"
     inkscape:window-height="480"
     id="namedview10"
     showgrid="false"
     inkscape:zoom="4.9166667"
     inkscape:cx="2.1355932"
     inkscape:cy="24"
     inkscape:window-x="0"
     inkscape:window-y="25"
     inkscape:window-maximized="0"
     inkscape:current-layer="svg8" />
  <metadata
     id="metadata2">
    <rdf:RDF>
      <cc:Work>
        <dc:format>image/svg+xml</dc:format>
        <dc:type
           rdf:resource="http://purl.org/dc/dcmitype/StillImage" />
        <dc:title></dc:title>
      </cc:Work>
    </rdf:RDF>
  </metadata>
  <path
     d="M 6.34,0.07 A 6.29,6.29 0 0 0 0.06,6.37 6.29,6.29 0 0 0 6.35,12.65 6.29,6.29 0 0 0 12.63,6.36 6.29,6.29 0 0 0 6.34,0.07 Z M 6.33,1.01 a 5.4,5.4 0 0 1 5.4,5.4 5.4,5.4 0 0 1 -5.4,5.41 A 5.4,5.4 0 0 1 0.92,6.42 5.4,5.4 0 0 1 6.32,1 Z"
     id="path4"
     inkscape:connector-curvature="0"
     style="fill:#5beedc" />
  <path
     d="M 6.85,1.46 C 6.74,1.46 6.53,1.48 6.42,1.51 6.06,1.61 5.72,1.99 5.6,2.31 L 5.55,2.41 A 5.05,5.05 0 0 0 4.15,2.91 4.36,4.36 0 0 0 1.9,6.1 4.23,4.23 0 0 0 3.16,9.66 4.56,4.56 0 0 0 8.28,10.54 4.33,4.33 0 0 0 10.83,6.69 2.5,2.5 0 0 0 10.43,5.34 C 10.2,4.95 10.12,4.77 10.06,4.54 A 1.88,1.88 0 0 1 10,3.97 2.4,2.4 0 0 0 9.29,4.39 C 8.82,4.88 8.47,5.48 8.47,5.96 c 0,0.38 0.1,0.47 0.28,0.94 a 2.52,2.52 0 0 1 -0.6,2.81 c -0.1,0.1 -0.12,0.11 -0.13,0.1 0,0 0,-0.04 0.03,-0.1 C 8.41,8.96 8.34,8.05 7.78,7.41 7.7,7.31 7.57,7.12 7.55,7.12 L 7.53,7.14 a 1.77,1.7 0 0 1 0,0.08 1.77,1.7 0 0 1 -1.77,1.7 1.77,1.7 0 0 1 -1.76,-1.7 1.77,1.7 0 0 1 1.76,-1.7 1.77,1.7 0 0 1 0.07,0 L 5.86,5.49 A 2.3,2.3 0 0 0 4.66,4.73 L 4.54,4.69 c 0,-0.03 0.3,-0.12 0.63,-0.18 0.4,-0.08 0.66,-0.1 1.44,-0.1 L 7.33,4.38 C 7.64,4.35 8,4.23 8.27,4.06 8.54,3.88 8.74,3.79 8.9,3.58 8.98,3.47 9.16,3.13 9.18,3.07 9.19,3.04 9.19,3.04 9.06,3.04 8.78,3.04 8.47,2.98 8.21,2.87 A 3.5,3.5 0 0 0 7.19,2.49 C 7.1,2.47 6.97,2.42 6.83,2.4 6.8,2.13 6.79,1.74 6.92,1.56 A 0.28,0.28 0 0 0 6.97,1.46 L 6.85,1.45 Z"
     id="path6"
     inkscape:connector-curvature="0"
     style="opacity:0.8;fill:#2c89a0" />
</svg>
