<?xml version="1.0" encoding="UTF-8" standalone="no"?>
<svg
   xmlns:dc="http://purl.org/dc/elements/1.1/"
   xmlns:cc="http://creativecommons.org/ns#"
   xmlns:rdf="http://www.w3.org/1999/02/22-rdf-syntax-ns#"
   xmlns:svg="http://www.w3.org/2000/svg"
   xmlns="http://www.w3.org/2000/svg"
   xmlns:sodipodi="http://sodipodi.sourceforge.net/DTD/sodipodi-0.dtd"
   xmlns:inkscape="http://www.inkscape.org/namespaces/inkscape"
   width="48"
   height="48"
   viewBox="0 0 12.7 12.7"
   version="1.1"
   id="svg4"
   sodipodi:docname="wayland.svg"
   inkscape:version="0.92.4 (5da689c313, 2019-01-14)">
  <metadata
     id="metadata10">
    <rdf:RDF>
      <cc:Work
         rdf:about="">
        <dc:format>image/svg+xml</dc:format>
        <dc:type
           rdf:resource="http://purl.org/dc/dcmitype/StillImage" />
        <dc:title></dc:title>
      </cc:Work>
    </rdf:RDF>
  </metadata>
  <defs
     id="defs8" />
  <sodipodi:namedview
     pagecolor="#ffffff"
     bordercolor="#666666"
     borderopacity="1"
     objecttolerance="10"
     gridtolerance="10"
     guidetolerance="10"
     inkscape:pageopacity="0"
     inkscape:pageshadow="2"
     inkscape:window-width="1087"
     inkscape:window-height="480"
     id="namedview6"
     showgrid="false"
     inkscape:zoom="4.9166667"
     inkscape:cx="2.1355932"
     inkscape:cy="24"
     inkscape:window-x="0"
     inkscape:window-y="25"
     inkscape:window-maximized="0"
     inkscape:current-layer="svg4" />
  <path
     d="M 6.35,0.061 A 6.29,6.29 0 0 0 0.061,6.351 6.29,6.29 0 0 0 6.35,12.639 6.29,6.29 0 0 0 12.639,6.351 6.29,6.29 0 0 0 6.35,0.06 Z M 6.332,0.997 A 5.407,5.407 0 0 1 11.739,6.404 5.407,5.407 0 0 1 6.332,11.811 5.407,5.407 0 0 1 0.924,6.404 5.407,5.407 0 0 1 6.332,0.997 Z M 6.35,1.635 A 4.752,4.752 0 0 0 1.587,6.397 4.752,4.752 0 0 0 6.35,11.16 4.752,4.752 0 0 0 11.112,6.397 c 0,-1.348 -0.557,-2.56 -1.452,-3.425 L 9.535,4.037 H 9.583 L 9.687,3.955 H 9.715 V 3.979 C 9.572,4.084 9.434,4.37 9.3,4.838 9.249,5.24 9.163,5.611 9.043,5.953 A 3.39,3.39 0 0 0 8.884,6.926 l -0.2,0.587 c 0,0.05 0.075,0.098 0.228,0.148 -0.028,0.116 -0.07,0.174 -0.125,0.174 v 0.033 h 0.049 v 0.025 c 0,0.06 -0.08,0.09 -0.236,0.09 L 8.628,8.017 V 8.132 H 8.58 c 0.032,0.115 0.1,0.173 0.207,0.173 V 8.363 H 8.58 v 0.033 c 0.07,0 0.103,0.05 0.103,0.15 L 8.393,8.66 8.42,8.694 v 0.024 c 0,0.039 -0.034,0.058 -0.104,0.058 v 0.033 c 0.088,0 0.132,0.02 0.132,0.058 C 8.323,8.917 8.16,9.162 7.957,9.602 7.749,9.992 7.569,10.188 7.417,10.188 H 7.36 C 7.244,10.1 7.15,9.808 7.076,9.313 6.781,8.559 6.633,8.116 6.633,7.984 6.633,7.643 6.538,7.279 6.349,6.894 A 3.063,3.063 0 0 1 6.245,6.25 L 6.121,6.217 C 5.807,6.784 5.643,7.227 5.629,7.547 A 2.879,2.879 0 0 0 5.421,8.223 c 0.19,0.06 0.284,0.118 0.284,0.173 V 8.429 C 5.557,8.407 5.454,8.366 5.394,8.306 5.329,8.455 5.244,8.866 5.137,9.544 5.054,9.857 4.95,10.014 4.826,10.014 A 1.992,1.992 0 0 1 3.946,9.338 C 3.91,9.338 3.849,9.181 3.766,8.868 3.716,8.868 3.681,8.71 3.663,8.396 A 6.007,6.007 0 0 1 3.303,6.869 V 6.01 H 3.275 L 3.15,6.044 V 6.01 C 3.15,5.972 3.192,5.953 3.275,5.953 L 3.247,5.458 V 5.069 L 3.047,3.831 V 3.303 c 0.087,-0.33 0.24,-0.495 0.457,-0.495 0,0 0.019,-0.003 0.082,0.082 L 3.504,2.865 c 0.337,0.44 0.535,0.812 0.595,1.115 h 0.235 v 0.057 h -0.18 v 0.067 c 0.07,0.253 0.12,0.38 0.152,0.38 H 4.362 L 4.486,4.45 4.514,4.483 4.542,4.45 4.57,4.483 V 4.508 A 0.485,0.485 0 0 0 4.383,4.781 H 4.362 v 0.057 h 0.049 c 0.064,0.92 0.184,1.615 0.36,2.089 l 0.103,0.082 h 0.055 c 0.07,0 0.215,-0.322 0.437,-0.965 A 4.97,4.97 0 0 0 5.677,5.276 L 5.649,5.186 C 5.792,4.971 5.94,4.863 6.093,4.863 h 0.048 c 0.097,0 0.166,0.06 0.208,0.182 0.13,0.181 0.233,0.454 0.312,0.817 l 0.388,0.859 c 0.05,0.06 0.075,0.129 0.075,0.206 0.143,0.324 0.273,0.54 0.388,0.644 h 0.083 c 0.097,0 0.226,-0.402 0.388,-1.205 0.028,0 0.104,-0.215 0.229,-0.644 V 5.689 L 7.775,5.631 7.671,5.664 H 7.541 V 5.598 L 7.803,5.573 H 8.315 C 8.514,4.863 8.696,4.313 8.863,3.922 8.918,3.118 8.994,2.717 9.091,2.717 L 9.266,2.633 A 4.742,4.742 0 0 0 6.349,1.635 Z M 6.765,3.278 H 6.841 V 3.303 C 6.841,3.341 6.816,3.36 6.765,3.36 L 6.738,3.393 V 3.426 L 6.662,3.393 V 3.336 Z M 6.378,3.6 v 0.033 c 0,0.044 -0.111,0.09 -0.333,0.14 V 3.715 L 6.198,3.633 6.225,3.657 H 6.246 Z M 5.63,3.897 V 3.922 C 5.533,4.01 5.376,4.089 5.159,4.161 V 4.103 c 0.037,0 0.056,-0.03 0.056,-0.09 z M 6.945,4.186 6.973,4.219 V 4.244 L 6.925,4.309 H 6.897 L 6.841,4.244 V 4.219 Z M 7.901,4.219 H 7.929 V 4.244 L 7.88,4.309 H 7.852 V 4.276 L 7.902,4.219 Z M 7.465,4.632 7.569,4.714 C 7.55,4.774 7.499,4.804 7.417,4.804 L 7.361,4.714 c 0,-0.028 0.034,-0.055 0.104,-0.082 z m 0.623,0.38 0.02,0.033 V 5.069 L 8.088,5.102 H 8.033 V 5.069 Z M 7.105,5.308 V 5.333 L 6.973,5.458 H 6.897 V 5.424 c 0,-0.05 0.07,-0.088 0.208,-0.116 z M 6.198,7.835 H 6.225 V 7.893 L 6.017,8.016 5.99,7.983 V 7.926 Z M 6.122,8.603 h 0.02 L 6.225,8.693 6.198,8.718 H 6.17 L 6.122,8.636 Z"
     id="path2"
     inkscape:connector-curvature="0"
     style="fill:#5beedc" />
</svg>
