<?xml version="1.0" encoding="UTF-8" standalone="no"?>
<svg
   xmlns:dc="http://purl.org/dc/elements/1.1/"
   xmlns:cc="http://creativecommons.org/ns#"
   xmlns:rdf="http://www.w3.org/1999/02/22-rdf-syntax-ns#"
   xmlns:svg="http://www.w3.org/2000/svg"
   xmlns="http://www.w3.org/2000/svg"
   xmlns:sodipodi="http://sodipodi.sourceforge.net/DTD/sodipodi-0.dtd"
   xmlns:inkscape="http://www.inkscape.org/namespaces/inkscape"
   width="48"
   height="48"
   viewBox="0 0 12.7 12.7"
   version="1.1"
   id="svg4"
   sodipodi:docname="webstorm.svg"
   inkscape:version="0.92.5 (2060ec1f9f, 2020-04-08)">
  <defs
     id="defs8">
  <style
     id="current-color-scheme"
     type="text/css">
      .ColorScheme-Highlight {
        color:#5beedc;
      }
  </style>
  </defs>
  <path
     class="ColorScheme-Highlight"
     style="fill:#5beedc"
     d="M 24 0 A 24 24 0 0 0 0 24 A 24 24 0 0 0 24 48 A 24 24 0 0 0 48 24 A 24 24 0 0 0 24 0 z M 24 3 A 21 21 0 0 1 45 24 A 21 21 0 0 1 24 45 A 21 21 0 0 1 3 24 A 21 21 0 0 1 24 3 z M 24 7 A 17.000006 17.000006 0 0 0 7 24 A 17.000006 17.000006 0 0 0 24 41 A 17.000006 17.000006 0 0 0 41 24 A 17.000006 17.000006 0 0 0 24 7 z M 30.105469 18.347656 C 31.470469 18.347656 32.500266 18.731047 33.197266 19.498047 C 33.735265 20.090047 34.005859 20.778453 34.005859 21.564453 L 32 21.564453 C 31.953 21.168453 31.836391 20.865297 31.650391 20.654297 C 31.316391 20.267297 30.750172 20.074219 29.951172 20.074219 C 29.477172 20.074219 29.08825 20.159173 28.78125 20.326172 C 28.40025 20.539171 28.210937 20.852531 28.210938 21.269531 C 28.210938 21.613533 28.331264 21.873828 28.572266 22.048828 C 28.712267 22.150826 28.944531 22.238501 29.269531 22.3125 L 31.707031 22.912109 C 32.534031 23.116109 33.14225 23.380078 33.53125 23.705078 C 34.06025 24.141078 34.326172 24.771656 34.326172 25.597656 C 34.326172 26.608656 33.991265 27.390265 33.322266 27.947266 C 32.589266 28.559266 31.609765 28.867187 30.384766 28.867188 C 28.759766 28.867188 27.588047 28.466969 26.873047 27.667969 C 26.363047 27.098969 26.107422 26.383531 26.107422 25.519531 L 28.113281 25.519531 C 28.113281 25.928531 28.234564 26.269064 28.476562 26.539062 C 28.838562 26.938062 29.422469 27.136719 30.230469 27.136719 C 30.825469 27.136719 31.299344 27.053721 31.652344 26.886719 C 32.098344 26.672718 32.320312 26.32575 32.320312 25.84375 C 32.320312 25.482748 32.153361 25.208436 31.818359 25.023438 C 31.59536 24.903438 31.160765 24.762468 30.509766 24.605469 L 29.4375 24.355469 C 28.3695 24.105469 27.639047 23.846125 27.248047 23.578125 C 26.589047 23.124125 26.259766 22.404875 26.259766 21.421875 C 26.259766 20.651875 26.49203 20.002609 26.957031 19.474609 C 27.616031 18.723609 28.665469 18.347656 30.105469 18.347656 z M 13.09375 19.011719 L 15.322266 19.011719 C 15.786265 20.977719 16.125844 22.446922 16.339844 23.419922 C 16.599845 24.578922 16.789156 25.5425 16.910156 26.3125 L 18.330078 19.011719 L 20.546875 19.011719 C 21.084875 21.551719 21.452438 23.289563 21.648438 24.226562 C 21.778437 24.866562 21.90711 25.5615 22.037109 26.3125 C 22.29711 25.0705 22.497719 24.132953 22.636719 23.501953 C 22.646719 23.455953 22.999265 21.959719 23.697266 19.011719 L 25.814453 19.011719 L 23 29 L 20.994141 29 C 20.529141 26.812 20.185891 25.143186 19.962891 23.992188 C 19.78689 23.084187 19.614266 22.158891 19.447266 21.212891 C 19.363266 21.685891 19.257953 22.2605 19.126953 22.9375 C 18.950953 23.8465 18.807313 24.569422 18.695312 25.107422 C 18.417314 26.405422 18.141047 27.703953 17.873047 29.001953 L 15.921875 29.001953 L 15.921875 29 L 13.09375 19.011719 z M 17 32 L 31 32 L 31 34 L 17 34 L 17 32 z "
     transform="scale(0.26458333)"
     id="path843" />
</svg>
