<?xml version="1.0" encoding="UTF-8" standalone="no"?>
<svg
   xmlns:dc="http://purl.org/dc/elements/1.1/"
   xmlns:cc="http://creativecommons.org/ns#"
   xmlns:rdf="http://www.w3.org/1999/02/22-rdf-syntax-ns#"
   xmlns:svg="http://www.w3.org/2000/svg"
   xmlns="http://www.w3.org/2000/svg"
   xmlns:sodipodi="http://sodipodi.sourceforge.net/DTD/sodipodi-0.dtd"
   xmlns:inkscape="http://www.inkscape.org/namespaces/inkscape"
   width="48"
   height="48"
   viewBox="0 0 12.7 12.7"
   version="1.1"
   id="svg4"
   sodipodi:docname="weevely.svg"
   inkscape:version="0.92.5 (2060ec1f9f, 2020-04-08)">
  <metadata
     id="metadata10">
    <rdf:RDF>
      <cc:Work
         rdf:about="">
        <dc:format>image/svg+xml</dc:format>
        <dc:type
           rdf:resource="http://purl.org/dc/dcmitype/StillImage" />
        <dc:title></dc:title>
      </cc:Work>
    </rdf:RDF>
  </metadata>
  <defs
     id="defs8" />
  <sodipodi:namedview
     pagecolor="#ffffff"
     bordercolor="#666666"
     borderopacity="1"
     objecttolerance="10"
     gridtolerance="10"
     guidetolerance="10"
     inkscape:pageopacity="0"
     inkscape:pageshadow="2"
     inkscape:window-width="1085"
     inkscape:window-height="480"
     id="namedview6"
     showgrid="false"
     inkscape:zoom="4.9166667"
     inkscape:cx="2.1355932"
     inkscape:cy="24"
     inkscape:window-x="0"
     inkscape:window-y="25"
     inkscape:window-maximized="0"
     inkscape:current-layer="svg4" />
  <path
     d="M 6.34,0.075 A 6.295,6.295 0 0 0 0.055,6.36 6.295,6.295 0 0 0 6.34,12.655 6.295,6.295 0 0 0 12.634,6.36 6.295,6.295 0 0 0 6.34,0.075 Z m -0.011,0.94 a 5.408,5.408 0 0 1 5.397,5.387 5.407,5.407 0 0 1 -10.814,0 c 0,-2.987 2.43,-5.387 5.417,-5.387 z m -1.73,3.577 c -0.295,0 -0.606,0.085 -0.866,0.229 A 0.16,0.16 0 0 0 3.657,5.009 l 0.076,0.24 c 0.03,0.094 0.138,0.14 0.228,0.095 0.196,-0.096 0.387,-0.143 0.555,-0.143 0.14,0 0.234,0.033 0.287,0.073 0.052,0.04 0.074,0.08 0.074,0.154 0,0.128 -0.102,0.228 -0.257,0.39 C 4.464,5.979 4.273,6.204 4.273,6.541 v 0.208 c 0,0.089 0.073,0.161 0.163,0.161 h 0.302 c 0.09,0 0.164,-0.072 0.164,-0.161 V 6.54 C 4.902,6.406 5.012,6.294 5.175,6.126 5.339,5.958 5.541,5.731 5.541,5.391 5.541,5.157 5.44,4.945 5.268,4.804 5.097,4.664 4.863,4.591 4.599,4.591 Z M 9.301,4.988 C 9.213,4.991 9.143,5.07 9.143,5.168 v 0.361 c 0,0.068 0.034,0.13 0.09,0.16 L 10.368,6.311 9.235,6.908 A 0.182,0.182 0 0 0 9.143,7.069 v 0.34 c 0,0.133 0.126,0.22 0.235,0.161 L 11.15,6.606 a 0.181,0.181 0 0 0 0.09,-0.16 V 6.166 A 0.181,0.181 0 0 0 11.152,6.006 L 9.38,5.009 A 0.15,0.15 0 0 0 9.301,4.989 Z M 5.905,4.995 c -0.113,0 -0.192,0.13 -0.153,0.253 l 0.7,2.205 c 0.023,0.074 0.084,0.123 0.152,0.123 h 0.302 c 0.07,0 0.134,-0.052 0.156,-0.13 l 0.344,-1.238 0.358,1.24 c 0.023,0.077 0.085,0.128 0.155,0.128 h 0.322 c 0.069,0 0.13,-0.05 0.153,-0.125 L 9.07,5.246 C 9.107,5.123 9.029,4.995 8.916,4.995 H 8.598 c -0.07,0 -0.134,0.053 -0.155,0.13 L 8.099,6.37 7.76,5.136 C 7.738,5.057 7.675,5.004 7.604,5.004 H 7.247 c -0.072,0 -0.135,0.054 -0.156,0.133 L 6.763,6.366 6.421,5.126 C 6.399,5.048 6.337,4.996 6.266,4.995 H 5.904 Z M 3.325,5.01 A 0.152,0.152 0 0 0 3.256,5.03 L 1.548,5.994 a 0.182,0.182 0 0 0 -0.089,0.16 v 0.278 c 0,0.066 0.034,0.127 0.087,0.158 l 1.708,1 C 3.363,7.653 3.494,7.566 3.494,7.431 V 7.07 A 0.183,0.183 0 0 0 3.406,6.911 L 2.316,6.288 3.403,5.691 a 0.182,0.182 0 0 0 0.09,-0.16 V 5.19 C 3.493,5.089 3.418,5.008 3.326,5.011 Z m 1.26,2.181 A 0.417,0.458 0 0 0 4.168,7.649 0.417,0.458 0 0 0 4.585,8.107 0.417,0.458 0 0 0 5.002,7.649 0.417,0.458 0 0 0 4.585,7.191 Z"
     id="path2"
     inkscape:connector-curvature="0"
     style="fill:#5beedc" />
</svg>
