<?xml version="1.0" encoding="UTF-8" standalone="no"?>
<svg
   xmlns:dc="http://purl.org/dc/elements/1.1/"
   xmlns:cc="http://creativecommons.org/ns#"
   xmlns:rdf="http://www.w3.org/1999/02/22-rdf-syntax-ns#"
   xmlns:svg="http://www.w3.org/2000/svg"
   xmlns="http://www.w3.org/2000/svg"
   xmlns:sodipodi="http://sodipodi.sourceforge.net/DTD/sodipodi-0.dtd"
   xmlns:inkscape="http://www.inkscape.org/namespaces/inkscape"
   width="48"
   height="48"
   viewBox="0 0 12.7 12.7"
   version="1.1"
   id="svg4"
   sodipodi:docname="wfuzz.svg"
   inkscape:version="0.92.5 (2060ec1f9f, 2020-04-08)">
  <metadata
     id="metadata10">
    <rdf:RDF>
      <cc:Work
         rdf:about="">
        <dc:format>image/svg+xml</dc:format>
        <dc:type
           rdf:resource="http://purl.org/dc/dcmitype/StillImage" />
        <dc:title></dc:title>
      </cc:Work>
    </rdf:RDF>
  </metadata>
  <defs
     id="defs8" />
  <sodipodi:namedview
     pagecolor="#ffffff"
     bordercolor="#666666"
     borderopacity="1"
     objecttolerance="10"
     gridtolerance="10"
     guidetolerance="10"
     inkscape:pageopacity="0"
     inkscape:pageshadow="2"
     inkscape:window-width="1085"
     inkscape:window-height="480"
     id="namedview6"
     showgrid="false"
     inkscape:zoom="4.9166667"
     inkscape:cx="2.1355932"
     inkscape:cy="24"
     inkscape:window-x="0"
     inkscape:window-y="25"
     inkscape:window-maximized="0"
     inkscape:current-layer="svg4" />
  <path
     d="M 6.34,0.075 A 6.295,6.295 0 0 0 2.265,1.582 6.295,6.295 0 0 0 1.827,1.992 6.295,6.295 0 0 0 1.771,2.055 6.295,6.295 0 0 0 0.055,6.36 a 6.295,6.295 0 0 0 2.722,5.174 6.295,6.295 0 0 0 0.172,0.123 6.295,6.295 0 0 0 0.182,0.105 6.295,6.295 0 0 0 3.21,0.893 6.295,6.295 0 0 0 3.22,-0.896 6.295,6.295 0 0 0 0.333,-0.204 6.295,6.295 0 0 0 0.03,-0.023 A 6.295,6.295 0 0 0 12.634,6.36 6.295,6.295 0 0 0 10.93,2.074 6.295,6.295 0 0 0 10.718,1.847 6.295,6.295 0 0 0 10.416,1.583 6.295,6.295 0 0 0 6.34,0.075 Z M 6.329,1.015 A 5.408,5.408 0 0 1 9.612,2.14 1.612,1.612 0 0 0 9.265,2.82 C 9.161,3.264 9.235,3.707 9.306,4.136 9.446,4.974 9.486,5.429 8.756,5.822 8.332,6.051 7.946,6.105 7.572,5.986 A 1.478,1.478 0 0 1 7.314,5.876 0.84,0.84 0 0 1 7.369,5.726 0.373,0.373 0 0 1 7.574,5.54 0.605,0.605 0 0 0 7.971,4.967 0.609,0.609 0 0 0 7.804,4.547 0.33,0.33 0 0 1 7.735,4.204 c 0.09,-0.239 0.14,-0.505 0.14,-0.786 0,-1.035 -0.683,-1.875 -1.524,-1.875 -0.84,0 -1.524,0.84 -1.524,1.875 0,0.281 0.05,0.547 0.14,0.786 A 0.33,0.33 0 0 1 4.898,4.548 0.609,0.609 0 0 0 4.731,4.967 c 0,0.265 0.163,0.488 0.397,0.573 0.09,0.033 0.163,0.1 0.205,0.185 A 0.84,0.84 0 0 1 5.388,5.875 1.478,1.478 0 0 1 5.13,5.986 C 4.757,6.105 4.37,6.051 3.946,5.822 3.216,5.429 3.256,4.974 3.396,4.136 3.467,3.707 3.541,3.264 3.437,2.821 A 1.614,1.614 0 0 0 3.077,2.116 L 3.067,2.106 A 5.411,5.411 0 0 1 6.33,1.015 Z M 2.424,2.672 2.428,2.676 C 2.698,2.986 2.66,3.378 2.557,3.997 2.486,4.423 2.412,4.863 2.509,5.307 2.626,5.847 2.964,6.259 3.541,6.571 3.939,6.786 4.357,6.907 4.786,6.897 L 4.788,6.899 A 3.6,3.6 0 0 0 4.575,7.133 V 7.128 A 3.523,3.523 0 0 1 4.363,7.323 C 3.777,7.817 3.173,7.984 2.571,7.821 1.633,7.566 1.569,7.014 1.541,6.135 1.525,5.645 1.508,5.14 1.189,4.78 L 1.188,4.777 1.168,4.76 A 5.361,5.361 0 0 1 2.424,2.672 Z m 7.826,0.043 a 5.408,5.408 0 0 1 1.233,2.124 C 11.206,5.196 11.174,5.669 11.16,6.135 11.131,7.015 11.067,7.566 10.13,7.821 9.526,7.984 8.923,7.817 8.337,7.323 A 3.517,3.517 0 0 1 8.125,7.128 V 7.133 A 3.6,3.6 0 0 0 7.912,6.899 L 7.914,6.897 C 8.343,6.907 8.761,6.786 9.159,6.571 9.736,6.259 10.074,5.846 10.191,5.308 10.288,4.863 10.214,4.423 10.143,3.998 10.043,3.402 10.013,3.02 10.25,2.715 Z M 5.73,4.783 c 0.17,0 0.326,0.086 0.417,0.23 a 0.1767088,0.1767088 0 1 1 -0.298,0.19 0.14,0.14 0 0 0 -0.238,0 0.1767088,0.1767088 0 0 1 -0.298,-0.19 0.493,0.493 0 0 1 0.417,-0.23 z m 1.24,0 c 0.17,0 0.326,0.086 0.418,0.23 a 0.1771306,0.1771306 0 0 1 -0.299,0.19 0.14,0.14 0 0 0 -0.238,0 0.177,0.177 0 0 1 -0.298,-0.19 0.492,0.492 0 0 1 0.417,-0.23 z m -0.62,2.59 c 0.463,0 0.895,0.243 1.13,0.641 0.21,0.357 0.357,0.876 0.211,1.595 -0.177,0.873 0.293,1.388 0.844,1.717 A 5.407,5.407 0 0 1 4.134,11.345 C 4.699,11.017 5.189,10.499 5.009,9.609 4.863,8.89 5.01,8.371 5.22,8.014 A 1.31,1.31 0 0 1 6.35,7.374 Z M 1.051,7.601 C 1.269,8.018 1.643,8.386 2.364,8.581 2.932,8.736 3.481,8.682 3.99,8.472 H 3.994 C 3.985,8.665 4.006,8.867 4.074,9.076 4.405,10.081 3.947,10.657 3.41,10.952 A 5.407,5.407 0 0 1 1.051,7.602 Z M 11.535,7.803 A 5.407,5.407 0 0 1 9.259,10.938 C 8.735,10.638 8.301,10.062 8.625,9.076 8.695,8.866 8.715,8.666 8.706,8.472 H 8.71 c 0.509,0.21 1.058,0.264 1.626,0.11 0.603,-0.164 0.965,-0.448 1.199,-0.779 z"
     id="path2"
     inkscape:connector-curvature="0"
     style="fill:#5beedc" />
</svg>
