<?xml version="1.0" encoding="UTF-8" standalone="no"?>
<svg
   xmlns:dc="http://purl.org/dc/elements/1.1/"
   xmlns:cc="http://creativecommons.org/ns#"
   xmlns:rdf="http://www.w3.org/1999/02/22-rdf-syntax-ns#"
   xmlns:svg="http://www.w3.org/2000/svg"
   xmlns="http://www.w3.org/2000/svg"
   xmlns:sodipodi="http://sodipodi.sourceforge.net/DTD/sodipodi-0.dtd"
   xmlns:inkscape="http://www.inkscape.org/namespaces/inkscape"
   width="48"
   height="48"
   viewBox="0 0 12.7 12.7"
   version="1.1"
   id="svg4"
   sodipodi:docname="linssid48.svg"
   inkscape:version="0.92.5 (2060ec1f9f, 2020-04-08)">
  <defs
     id="defs8">
  <style
     id="current-color-scheme"
     type="text/css">
      .ColorScheme-Highlight {
        color:#5beedc;
      }
  </style>
  </defs>
  <path
     class="ColorScheme-Highlight"
     style="fill:#5beedc"
     d="M 24 0 A 24 24 0 0 0 0 24 A 24 24 0 0 0 24 48 A 24 24 0 0 0 48 24 A 24 24 0 0 0 24 0 z M 24 3 A 21 21 0 0 1 45 24 A 21 21 0 0 1 24 45 A 21 21 0 0 1 3 24 A 21 21 0 0 1 24 3 z M 11.279297 11.279297 A 18.000005 18.000005 0 0 0 6 24 A 18.000005 18.000005 0 0 0 11.279297 36.720703 L 12.693359 35.306641 A 16.000006 16.000006 0 0 1 8 24 A 16.000006 16.000006 0 0 1 12.693359 12.693359 L 11.279297 11.279297 z M 36.720703 11.279297 L 35.306641 12.693359 A 16.000006 16.000006 0 0 1 40 24 A 16.000006 16.000006 0 0 1 35.306641 35.306641 L 36.720703 36.720703 A 18.000005 18.000005 0 0 0 42 24 A 18.000005 18.000005 0 0 0 36.720703 11.279297 z M 14.8125 14.8125 A 13.000006 13.000006 0 0 0 11 24 A 13.000006 13.000006 0 0 0 14.8125 33.1875 L 16.226562 31.773438 A 11.000006 11.000006 0 0 1 13 24 A 11.000006 11.000006 0 0 1 16.226562 16.226562 L 14.8125 14.8125 z M 33.1875 14.8125 L 31.773438 16.226562 A 11.000006 11.000006 0 0 1 35 24 A 11.000006 11.000006 0 0 1 31.773438 31.773438 L 33.1875 33.1875 A 13.000006 13.000006 0 0 0 37 24 A 13.000006 13.000006 0 0 0 33.1875 14.8125 z M 18.345703 18.345703 A 8.0000057 8.0000057 0 0 0 16 24 A 8.0000057 8.0000057 0 0 0 18.345703 29.654297 L 19.759766 28.240234 A 6.0000056 6.0000056 0 0 1 18 24 A 6.0000056 6.0000056 0 0 1 19.759766 19.759766 L 18.345703 18.345703 z M 29.654297 18.345703 L 28.240234 19.759766 A 6.0000056 6.0000056 0 0 1 30 24 A 6.0000056 6.0000056 0 0 1 28.240234 28.240234 L 29.654297 29.654297 A 8.0000057 8.0000057 0 0 0 32 24 A 8.0000057 8.0000057 0 0 0 29.654297 18.345703 z M 24 21 A 3.0000056 3.0000056 0 0 0 21 24 A 3.0000056 3.0000056 0 0 0 23 26.824219 L 23 43 L 25 43 L 25 26.826172 A 3.0000056 3.0000056 0 0 0 27 24 A 3.0000056 3.0000056 0 0 0 24 21 z "
     transform="scale(0.26458333)"
     id="path874" />
</svg>
