<?xml version="1.0" encoding="UTF-8" standalone="no"?>
<svg
   xmlns:dc="http://purl.org/dc/elements/1.1/"
   xmlns:cc="http://creativecommons.org/ns#"
   xmlns:rdf="http://www.w3.org/1999/02/22-rdf-syntax-ns#"
   xmlns:svg="http://www.w3.org/2000/svg"
   xmlns="http://www.w3.org/2000/svg"
   xmlns:sodipodi="http://sodipodi.sourceforge.net/DTD/sodipodi-0.dtd"
   xmlns:inkscape="http://www.inkscape.org/namespaces/inkscape"
   width="48"
   height="48"
   viewBox="0 0 12.7 12.7"
   version="1.1"
   id="svg4"
   sodipodi:docname="preferences-system-windows.svg"
   inkscape:version="0.92.5 (2060ec1f9f, 2020-04-08)">
  <defs
     id="defs8">
    <style
       id="current-color-scheme"
       type="text/css">
      .ColorScheme-Highlight {
        color:#5beedc;
      }
  </style>
  </defs>
  <path
     class="ColorScheme-Highlight"
     style="fill:#5beedc"
     d="M 24 0 A 24 24 0 0 0 0 24 A 24 24 0 0 0 24 48 A 24 24 0 0 0 48 24 A 24 24 0 0 0 24 0 z M 24 3 A 21 21 0 0 1 45 24 A 21 21 0 0 1 24 45 A 21 21 0 0 1 3 24 A 21 21 0 0 1 24 3 z M 19 10 C 17.892 10 17 10.892 17 12 L 17 20 L 11 20 C 9.8920001 20 9 20.892 9 22 L 9 36 C 9 37.108 9.8920001 38 11 38 L 28 38 C 29.108 38 30 37.108 30 36 L 30 28 L 36 28 C 37.108 28 38 27.108 38 26 L 38 12 C 38 10.892 37.108 10 36 10 L 19 10 z M 18.837891 14 L 36 14 C 36.464139 14 36.837891 14.446 36.837891 15 L 36.837891 25.888672 C 36.837891 26.442672 36.464137 26.888672 36 26.888672 L 30 26.888672 L 30 22 C 30 20.892 29.108 20 28 20 L 18 20 L 18 15 C 18 14.446 18.373752 14 18.837891 14 z M 10.837891 24 L 28 24 C 28.464139 24 28.837891 24.446 28.837891 25 L 28.837891 35.888672 C 28.837891 36.442672 28.464139 36.888672 28 36.888672 L 10.837891 36.888672 C 10.373752 36.888672 10 36.442672 10 35.888672 L 10 25 C 10 24.446 10.373752 24 10.837891 24 z "
     transform="scale(0.26458333)"
     id="rect856" />
</svg>
