<?xml version="1.0" encoding="UTF-8" standalone="no"?>
<svg
   xmlns:dc="http://purl.org/dc/elements/1.1/"
   xmlns:cc="http://creativecommons.org/ns#"
   xmlns:rdf="http://www.w3.org/1999/02/22-rdf-syntax-ns#"
   xmlns:svg="http://www.w3.org/2000/svg"
   xmlns="http://www.w3.org/2000/svg"
   xmlns:sodipodi="http://sodipodi.sourceforge.net/DTD/sodipodi-0.dtd"
   xmlns:inkscape="http://www.inkscape.org/namespaces/inkscape"
   width="48"
   height="48"
   viewBox="0 0 12.7 12.7"
   version="1.1"
   id="svg4"
   sodipodi:docname="winefile.svg"
   inkscape:version="0.92.5 (2060ec1f9f, 2020-04-08)">
  <defs
     id="defs8">
  <style
     id="current-color-scheme"
     type="text/css">
      .ColorScheme-Highlight {
        color:#5beedc;
      }
  </style>
  </defs>
  <path
     class="ColorScheme-Highlight"
     style="fill:#5beedc"
     d="M 24 0 A 24 24 0 0 0 0 24 A 24 24 0 0 0 24 48 A 24 24 0 0 0 48 24 A 24 24 0 0 0 24 0 z M 24 3 A 21 21 0 0 1 45 24 A 21 21 0 0 1 24 45 A 21 21 0 0 1 3 24 A 21 21 0 0 1 24 3 z M 15 10 C 14.446 10 14 10.446 14 11 L 14 12 L 33 12 L 33 11 C 33 10.446 32.554 10 32 10 L 15 10 z M 13 13 C 12.446 13 12 13.446 12 14 L 12 16 L 35 16 L 35 14 C 35 13.446 34.554 13 34 13 L 13 13 z M 11 17 C 10.446 17 10 17.446 10 18 L 10 36 C 10 36.554 10.446 37 11 37 L 29.03125 37 A 8.5 8.5 0 0 1 28.841797 36.783203 A 8.5 8.5 0 0 1 28.347656 36.091797 A 8.5 8.5 0 0 1 27.923828 35.355469 A 8.5 8.5 0 0 1 27.578125 34.580078 A 8.5 8.5 0 0 1 27.310547 33.773438 A 8.5 8.5 0 0 1 27.123047 32.945312 A 8.5 8.5 0 0 1 27.021484 32.101562 A 8.5 8.5 0 0 1 27 31.5 A 8.5 8.5 0 0 1 27.042969 30.652344 A 8.5 8.5 0 0 1 27.169922 29.810547 A 8.5 8.5 0 0 1 27.378906 28.988281 A 8.5 8.5 0 0 1 27.671875 28.189453 A 8.5 8.5 0 0 1 28.041016 27.425781 A 8.5 8.5 0 0 1 28.484375 26.701172 A 8.5 8.5 0 0 1 28.998047 26.023438 A 8.5 8.5 0 0 1 29.578125 25.402344 A 8.5 8.5 0 0 1 30.216797 24.841797 A 8.5 8.5 0 0 1 30.908203 24.347656 A 8.5 8.5 0 0 1 31.644531 23.923828 A 8.5 8.5 0 0 1 32.419922 23.578125 A 8.5 8.5 0 0 1 33.226562 23.310547 A 8.5 8.5 0 0 1 34.054688 23.123047 A 8.5 8.5 0 0 1 34.898438 23.021484 A 8.5 8.5 0 0 1 35.5 23 A 8.5 8.5 0 0 1 36.347656 23.042969 A 8.5 8.5 0 0 1 37.189453 23.169922 A 8.5 8.5 0 0 1 38 23.375 L 38 18 C 38 17.446 37.554 17 37 17 L 11 17 z M 18 22 L 30 22 L 30 25 L 18 25 L 18 22 z M 35.5 25 A 6.4999999 6.4999999 0 0 0 29 31.5 A 6.4999999 6.4999999 0 0 0 35.5 38 A 6.4999999 6.4999999 0 0 0 42 31.5 A 6.4999999 6.4999999 0 0 0 35.5 25 z M 32 28 L 35 28 L 35 31 L 32 31 L 32 28 z M 36 28 L 39 28 L 39 31 L 36 31 L 36 28 z M 32 32 L 35 32 L 35 35 L 32 35 L 32 32 z M 36 32 L 39 32 L 39 35 L 36 35 L 36 32 z "
     transform="scale(0.26458333)"
     id="path836" />
</svg>
