<?xml version="1.0" encoding="UTF-8" standalone="no"?>
<svg
   xmlns:dc="http://purl.org/dc/elements/1.1/"
   xmlns:cc="http://creativecommons.org/ns#"
   xmlns:rdf="http://www.w3.org/1999/02/22-rdf-syntax-ns#"
   xmlns:svg="http://www.w3.org/2000/svg"
   xmlns="http://www.w3.org/2000/svg"
   xmlns:sodipodi="http://sodipodi.sourceforge.net/DTD/sodipodi-0.dtd"
   xmlns:inkscape="http://www.inkscape.org/namespaces/inkscape"
   width="48"
   height="48"
   viewBox="0 0 12.7 12.7"
   version="1.1"
   id="svg4"
   sodipodi:docname="wine-help.svg"
   inkscape:version="0.92.5 (2060ec1f9f, 2020-04-08)">
  <defs
     id="defs8">
  <style
     id="current-color-scheme"
     type="text/css">
      .ColorScheme-Highlight {
        color:#5beedc;
      }
  </style>
  </defs>
  <path
     class="ColorScheme-Highlight"
     style="fill:#5beedc"
     d="M 24 0 A 24 24 0 0 0 0 24 A 24 24 0 0 0 24 48 A 24 24 0 0 0 48 24 A 24 24 0 0 0 24 0 z M 24 3 A 21 21 0 0 1 45 24 A 21 21 0 0 1 24 45 A 21 21 0 0 1 3 24 A 21 21 0 0 1 24 3 z M 37 10 L 23 12.46875 L 23 21.644531 L 23 23 L 35.5 23 L 37 23 L 37 10 z M 21 12.820312 L 10 14.759766 L 10 23 L 21 23 L 21 21.292969 L 21 12.820312 z M 10 25 L 10 33.353516 L 21 35.292969 L 21 26.820312 L 21 25 L 10 25 z M 23 25 L 23 26.46875 L 23 35.644531 L 28.753906 36.658203 A 8.5 8.5 0 0 1 28.347656 36.091797 A 8.5 8.5 0 0 1 27.923828 35.355469 A 8.5 8.5 0 0 1 27.578125 34.580078 A 8.5 8.5 0 0 1 27.310547 33.773438 A 8.5 8.5 0 0 1 27.123047 32.945312 A 8.5 8.5 0 0 1 27.021484 32.101562 A 8.5 8.5 0 0 1 27 31.5 A 8.5 8.5 0 0 1 27.042969 30.652344 A 8.5 8.5 0 0 1 27.169922 29.810547 A 8.5 8.5 0 0 1 27.378906 28.988281 A 8.5 8.5 0 0 1 27.671875 28.189453 A 8.5 8.5 0 0 1 28.041016 27.425781 A 8.5 8.5 0 0 1 28.484375 26.701172 A 8.5 8.5 0 0 1 28.998047 26.023438 A 8.5 8.5 0 0 1 29.578125 25.402344 A 8.5 8.5 0 0 1 30.037109 25 L 23 25 z M 35.5 25 A 6.4999997 6.4999997 0 0 0 29 31.5 A 6.4999997 6.4999997 0 0 0 35.5 38 A 6.4999997 6.4999997 0 0 0 42 31.5 A 6.4999997 6.4999997 0 0 0 35.5 25 z M 35.476562 26.476562 A 3 3 0 0 1 38.476562 29.476562 A 3 3 0 0 1 36.476562 32.302734 L 36.476562 33.476562 L 34.476562 33.476562 L 34.476562 30.476562 L 35.476562 30.476562 A 0.9999999 0.9999999 0 0 0 36.476562 29.476562 A 0.9999999 0.9999999 0 0 0 35.476562 28.476562 A 0.9999999 0.9999999 0 0 0 34.476562 29.476562 L 32.476562 29.476562 A 3 3 0 0 1 35.476562 26.476562 z M 35.476562 34.476562 A 0.99999994 0.99999994 0 0 1 36.476562 35.476562 A 0.99999994 0.99999994 0 0 1 35.476562 36.476562 A 0.99999994 0.99999994 0 0 1 34.476562 35.476562 A 0.99999994 0.99999994 0 0 1 35.476562 34.476562 z "
     transform="scale(0.26458333)"
     id="path826" />
</svg>
