<?xml version="1.0" encoding="UTF-8" standalone="no"?>
<svg
   xmlns:dc="http://purl.org/dc/elements/1.1/"
   xmlns:cc="http://creativecommons.org/ns#"
   xmlns:rdf="http://www.w3.org/1999/02/22-rdf-syntax-ns#"
   xmlns:svg="http://www.w3.org/2000/svg"
   xmlns="http://www.w3.org/2000/svg"
   xmlns:sodipodi="http://sodipodi.sourceforge.net/DTD/sodipodi-0.dtd"
   xmlns:inkscape="http://www.inkscape.org/namespaces/inkscape"
   width="48"
   height="48"
   viewBox="0 0 12.7 12.7"
   version="1.1"
   id="svg4"
   sodipodi:docname="winecfg.svg"
   inkscape:version="0.92.5 (2060ec1f9f, 2020-04-08)">
  <defs
     id="defs8">
  <style
     id="current-color-scheme"
     type="text/css">
      .ColorScheme-Highlight {
        color:#5beedc;
      }
  </style>
  </defs>
  <path
     class="ColorScheme-Highlight"
     style="fill:#5beedc"
     d="M 24 0 A 24 24 0 0 0 0 24 A 24 24 0 0 0 24 48 A 24 24 0 0 0 48 24 A 24 24 0 0 0 24 0 z M 24 3 A 21 21 0 0 1 45 24 A 21 21 0 0 1 24 45 A 21 21 0 0 1 3 24 A 21 21 0 0 1 24 3 z M 37 10 L 23 12.46875 L 23 21.644531 L 23 23 L 35.5 23 L 37 23 L 37 10 z M 21 12.820312 L 10 14.759766 L 10 23 L 21 23 L 21 21.292969 L 21 12.820312 z M 10 25 L 10 33.353516 L 21 35.292969 L 21 26.820312 L 21 25 L 10 25 z M 23 25 L 23 26.46875 L 23 35.644531 L 28.753906 36.658203 A 8.4999996 8.4999996 0 0 1 28.347656 36.091797 A 8.4999996 8.4999996 0 0 1 27.923828 35.355469 A 8.4999996 8.4999996 0 0 1 27.578125 34.580078 A 8.4999996 8.4999996 0 0 1 27.310547 33.773438 A 8.4999996 8.4999996 0 0 1 27.123047 32.945312 A 8.4999996 8.4999996 0 0 1 27.021484 32.101562 A 8.4999996 8.4999996 0 0 1 27 31.5 A 8.4999996 8.4999996 0 0 1 27.042969 30.652344 A 8.4999996 8.4999996 0 0 1 27.169922 29.810547 A 8.4999996 8.4999996 0 0 1 27.378906 28.988281 A 8.4999996 8.4999996 0 0 1 27.671875 28.189453 A 8.4999996 8.4999996 0 0 1 28.041016 27.425781 A 8.4999996 8.4999996 0 0 1 28.484375 26.701172 A 8.4999996 8.4999996 0 0 1 28.998047 26.023438 A 8.4999996 8.4999996 0 0 1 29.578125 25.402344 A 8.4999996 8.4999996 0 0 1 30.037109 25 L 23 25 z M 35.5 25 A 6.4999993 6.4999993 0 0 0 29 31.5 A 6.4999993 6.4999993 0 0 0 35.5 38 A 6.4999993 6.4999993 0 0 0 42 31.5 A 6.4999993 6.4999993 0 0 0 35.5 25 z M 35 26 L 36 26 L 36.744141 28.232422 A 3.5 3.5 0 0 1 36.933594 28.308594 L 39.035156 27.257812 L 39.742188 27.964844 L 38.689453 30.070312 A 3.5 3.5 0 0 1 38.769531 30.255859 L 41 31 L 41 32 L 38.767578 32.744141 A 3.5 3.5 0 0 1 38.691406 32.933594 L 39.742188 35.035156 L 39.035156 35.742188 L 36.929688 34.689453 A 3.5 3.5 0 0 1 36.744141 34.769531 L 36 37 L 35 37 L 34.255859 34.767578 A 3.5 3.5 0 0 1 34.066406 34.691406 L 31.964844 35.742188 L 31.257812 35.035156 L 32.310547 32.929688 A 3.5 3.5 0 0 1 32.230469 32.744141 L 30 32 L 30 31 L 32.232422 30.255859 A 3.5 3.5 0 0 1 32.308594 30.066406 L 31.257812 27.964844 L 31.964844 27.257812 L 34.070312 28.310547 A 3.5 3.5 0 0 1 34.255859 28.230469 L 35 26 z M 35.5 29 A 2.4999999 2.4999999 0 0 0 33 31.5 A 2.4999999 2.4999999 0 0 0 35.5 34 A 2.4999999 2.4999999 0 0 0 38 31.5 A 2.4999999 2.4999999 0 0 0 35.5 29 z "
     transform="scale(0.26458333)"
     id="path826" />
</svg>
