<?xml version="1.0" encoding="UTF-8" standalone="no"?>
<svg
   xmlns:dc="http://purl.org/dc/elements/1.1/"
   xmlns:cc="http://creativecommons.org/ns#"
   xmlns:rdf="http://www.w3.org/1999/02/22-rdf-syntax-ns#"
   xmlns:svg="http://www.w3.org/2000/svg"
   xmlns="http://www.w3.org/2000/svg"
   xmlns:sodipodi="http://sodipodi.sourceforge.net/DTD/sodipodi-0.dtd"
   xmlns:inkscape="http://www.inkscape.org/namespaces/inkscape"
   width="48"
   height="48"
   version="1.1"
   viewBox="0 0 12.7 12.7"
   id="svg10"
   sodipodi:docname="winusb.svg"
   inkscape:version="0.92.4 (5da689c313, 2019-01-14)">
  <metadata
     id="metadata16">
    <rdf:RDF>
      <cc:Work
         rdf:about="">
        <dc:format>image/svg+xml</dc:format>
        <dc:type
           rdf:resource="http://purl.org/dc/dcmitype/StillImage" />
        <dc:title></dc:title>
      </cc:Work>
    </rdf:RDF>
  </metadata>
  <defs
     id="defs14" />
  <sodipodi:namedview
     pagecolor="#ffffff"
     bordercolor="#666666"
     borderopacity="1"
     objecttolerance="10"
     gridtolerance="10"
     guidetolerance="10"
     inkscape:pageopacity="0"
     inkscape:pageshadow="2"
     inkscape:window-width="1136"
     inkscape:window-height="480"
     id="namedview12"
     showgrid="false"
     inkscape:zoom="4.9166667"
     inkscape:cx="2.1355932"
     inkscape:cy="24"
     inkscape:window-x="0"
     inkscape:window-y="25"
     inkscape:window-maximized="0"
     inkscape:current-layer="svg10" />
  <path
     d="M 6.3401306,0.06976181 A 6.2898603,6.2898603 0 0 0 0.0502702,6.3702053 6.2898603,6.2898603 0 0 0 6.3501846,12.649747 6.2898603,6.2898603 0 0 0 12.630256,6.3598867 6.2898603,6.2898603 0 0 0 6.3403952,0.07002639 Z m -0.020154,0.93015745 0.00982,0.009818 A 5.3998132,5.3998132 0 0 1 11.729873,6.4098154 5.3998132,5.3998132 0 0 1 6.3297953,11.819683 5.3998132,5.3998132 0 0 1 0.91992799,6.4196048 5.3998132,5.3998132 0 0 1 6.3200058,0.9999481 Z M 4.0601992,3.259697 V 4.0100195 H 5.1800076 V 3.259697 Z m 3.3495828,0 V 4.0100195 H 8.5301196 V 3.259697 Z M 4.0601992,5.8600157 V 6.6098355 H 7.3597764 A 2.0499658,2.0499658 0 0 0 6.9499949,6.98964 H 4.4302937 V 7.7296438 H 6.5598452 A 2.0499658,2.0499658 0 0 0 6.4900834,8.0996325 H 4.8002903 V 8.8499549 H 6.5598532 A 2.0499658,2.0499658 0 0 0 8.5302598,10.339778 2.0499658,2.0499658 0 0 0 10.569907,8.2898126 2.0499658,2.0499658 0 0 0 8.5302598,6.2398468 V 5.8698581 l -4.4700791,-0.00982 z m 3.399853,1.2841391 h 0.8288762 c 0.037689,0 0.063044,0.038274 0.063044,0.075964 v 0.8288763 c 0,0.037689 -0.025359,0.062012 -0.063044,0.062012 H 7.4600522 A 0.06281129,0.06281129 0 0 1 7.3846046,8.0489946 V 7.2201183 c 0,-0.037689 0.025195,-0.075953 0.075448,-0.075964 z m 1.3565017,0 h 0.8288762 c 0.037689,0 0.063044,0.038274 0.063044,0.075964 v 0.8288763 c 0,0.037689 -0.025367,0.062012 -0.063044,0.062012 H 8.8165539 A 0.07537355,0.07537355 0 0 1 8.7411062,8.0489946 V 7.2201183 c 0,-0.037689 0.037761,-0.075953 0.075448,-0.075964 z m -1.3565017,1.331684 v 0.012402 h 0.8288762 c 0.037689,0 0.063044,0.037758 0.063044,0.075448 v 0.8288763 c 0,0.037689 -0.025359,0.063044 -0.063044,0.063044 H 7.4600522 A 0.06281129,0.06281129 0 0 1 7.3846046,9.3925649 V 8.5512798 c 0,-0.037689 0.025195,-0.075448 0.075448,-0.075448 z m 1.3565017,0 v 0.012402 h 0.8288762 c 0.037689,0 0.063044,0.037758 0.063044,0.075448 v 0.8288763 c 0,0.037689 -0.025367,0.063044 -0.063044,0.063044 H 8.8165539 A 0.06281129,0.06281129 0 0 1 8.7411062,9.3925649 V 8.5512798 c 0,-0.037689 0.037761,-0.075448 0.075448,-0.075448 z"
     id="path2"
     style="fill:#5beedc;stroke-width:0.99998009"
     inkscape:connector-curvature="0" />
  <g
     id="g8"
     style="fill:none;stroke:#5beedc;stroke-width:0.56">
    <path
       d="m 2.9399,4.9398 c -0.2,0 -0.37,0.16 -0.37,0.37 V 9.03 c 0,0.2 0.17,0.37982 0.37,0.37982 l 4.0131,0.02064 0.099952,-1.1434 3.0344,0.026571 -0.07708,-3.0039 c -0.0051,-0.19993 -0.16001,-0.37 -0.37001,-0.37 z"
       id="path4"
       style="stroke:#5beedc"
       inkscape:connector-curvature="0" />
    <path
       d="M 3.5,2.6598 V 4.9201 H 9.1002 V 2.6598 Z"
       id="path6"
       style="stroke:#5beedc"
       inkscape:connector-curvature="0" />
  </g>
</svg>
