<?xml version="1.0" encoding="UTF-8" standalone="no"?>
<svg
   xmlns:dc="http://purl.org/dc/elements/1.1/"
   xmlns:cc="http://creativecommons.org/ns#"
   xmlns:rdf="http://www.w3.org/1999/02/22-rdf-syntax-ns#"
   xmlns:svg="http://www.w3.org/2000/svg"
   xmlns="http://www.w3.org/2000/svg"
   xmlns:sodipodi="http://sodipodi.sourceforge.net/DTD/sodipodi-0.dtd"
   xmlns:inkscape="http://www.inkscape.org/namespaces/inkscape"
   width="48"
   height="48"
   viewBox="0 0 12.7 12.7"
   version="1.1"
   id="svg4"
   sodipodi:docname="wireshark.svg"
   inkscape:version="0.92.5 (2060ec1f9f, 2020-04-08)">
  <defs
     id="defs8">
  <style
     id="current-color-scheme"
     type="text/css">
      .ColorScheme-Highlight {
        color:#5beedc;
      }
  </style>
  </defs>
  <path
     class="ColorScheme-Highlight"
     style="fill:#5beedc"     
     d="M 24,0 C 10.745166,0 0,10.745166 0,24 0,37.254834 10.745166,48 24,48 37.254834,48 48,37.254834 48,24 48,10.745166 37.254834,0 24,0 Z m 0,3 c 11.59798,0 21,9.40202 21,21 -0.0088,2.386184 -0.424285,4.75341 -1.228516,7 H 41 32.861328 c -0.378,-0.87 -4.837813,-11.037891 0.492188,-19.087891 0.140228,-0.23926 0.180907,-0.524014 0.113281,-0.792968 -0.03771,-0.167161 -0.115461,-0.32266 -0.226563,-0.453125 -0.213054,-0.231306 -0.517963,-0.355847 -0.832031,-0.339844 -7.544638,-0.0662 -14.461209,4.192431 -17.798828,10.958984 -2.645,4.914 -3.0245,8.958844 -3.0625,9.714844 H 7 4.2246094 C 3.4217085,28.753178 3.0075772,26.385959 3,24 3,12.40202 12.40202,3 24,3 Z m 6.921875,9.632812 c -4.579,9.250001 0.240234,19.839844 0.240234,19.839844 L 31.3125,32.625 C 31.464501,32.889 31.698,32.962001 32,33 h 9.000001 l 1.945311,0 C 39.473429,40.319391 32.10107,44.989059 24,45 15.897518,44.990565 8.5232702,40.320664 5.0507812,33 H 7 v 0 l 5.0351,0.01 c 0.301998,5.98e-4 0.873556,-0.0818 1.062556,-0.308798 0.111384,-0.131025 0.189149,-0.287227 0.226563,-0.455078 v -0.113282 c 0,0 0.489656,-4.912171 3.097656,-9.826171 2.763086,-5.579022 8.287687,-9.264818 14.5,-9.673829 z"
     id="path817"
     inkscape:connector-curvature="0"
     transform="scale(0.26458333)" />
</svg>
