<?xml version="1.0" encoding="UTF-8" standalone="no"?>
<svg
   xmlns:dc="http://purl.org/dc/elements/1.1/"
   xmlns:cc="http://creativecommons.org/ns#"
   xmlns:rdf="http://www.w3.org/1999/02/22-rdf-syntax-ns#"
   xmlns:svg="http://www.w3.org/2000/svg"
   xmlns="http://www.w3.org/2000/svg"
   xmlns:sodipodi="http://sodipodi.sourceforge.net/DTD/sodipodi-0.dtd"
   xmlns:inkscape="http://www.inkscape.org/namespaces/inkscape"
   width="48"
   height="48"
   viewBox="0 0 12.7 12.7"
   version="1.1"
   id="svg4"
   sodipodi:docname="meterbridge.svg"
   inkscape:version="0.92.4 (5da689c313, 2019-01-14)">
  <metadata
     id="metadata10">
    <rdf:RDF>
      <cc:Work
         rdf:about="">
        <dc:format>image/svg+xml</dc:format>
        <dc:type
           rdf:resource="http://purl.org/dc/dcmitype/StillImage" />
        <dc:title></dc:title>
      </cc:Work>
    </rdf:RDF>
  </metadata>
  <defs
     id="defs8" />
  <sodipodi:namedview
     pagecolor="#ffffff"
     bordercolor="#666666"
     borderopacity="1"
     objecttolerance="10"
     gridtolerance="10"
     guidetolerance="10"
     inkscape:pageopacity="0"
     inkscape:pageshadow="2"
     inkscape:window-width="862"
     inkscape:window-height="480"
     id="namedview6"
     showgrid="false"
     inkscape:zoom="4.9166667"
     inkscape:cx="2.1355932"
     inkscape:cy="24"
     inkscape:window-x="0"
     inkscape:window-y="25"
     inkscape:window-maximized="0"
     inkscape:current-layer="svg4" />
  <path
     d="m 6.34,0.07 a 6.29,6.29 0 1 0 0,12.58 6.29,6.29 0 0 0 0,-12.58 z M 6.32,1 a 5.417,5.417 0 0 1 5.41,5.41 5.377,5.377 0 0 1 -0.365,1.951 H 6.28 L 4.25,4.785 A 0.299,0.299 0 0 0 4.074,4.654 0.3,0.3 0 0 0 3.746,5.072 l 1.867,3.29 H 1.286 A 5.375,5.375 0 0 1 0.92,6.42 5.4,5.4 0 0 1 6.32,1 Z M 6.347,2.27 A 3.636,3.636 0 0 0 5.863,2.315 L 5.866,2.634 A 4.54,4.54 0 0 1 6.838,2.621 L 6.84,2.323 6.83,2.29 A 3.838,3.838 0 0 0 6.347,2.27 Z M 5.654,2.335 a 4.52,4.52 0 0 0 -0.93,0.252 l 0.085,0.31 A 4.187,4.187 0 0 1 5.739,2.645 Z M 7.046,2.338 6.963,2.646 C 7.287,2.701 7.595,2.784 7.9,2.903 L 7.98,2.583 A 5.474,5.474 0 0 0 7.046,2.338 Z m 1.12,0.315 -0.162,0.28 c 0.298,0.134 0.58,0.295 0.845,0.485 L 9.009,3.136 A 4.877,4.877 0 0 0 8.165,2.653 Z M 4.531,2.663 C 4.236,2.803 3.948,2.965 3.69,3.153 L 3.848,3.432 C 4.118,3.24 4.395,3.081 4.693,2.952 Z M 9.166,3.273 8.942,3.5 C 9.199,3.703 9.415,3.93 9.626,4.182 L 9.861,3.952 9.85,3.955 A 3.6,3.6 0 0 0 9.166,3.273 Z M 3.536,3.29 C 3.282,3.49 3.061,3.728 2.855,3.974 l 0.23,0.235 C 3.288,3.952 3.512,3.725 3.767,3.525 L 3.753,3.517 3.537,3.29 Z M 9.99,4.119 9.712,4.278 c 0.189,0.258 0.35,0.546 0.478,0.844 L 10.465,4.952 10.476,4.95 A 5.05,5.05 0 0 0 9.99,4.119 Z M 2.707,4.133 C 2.517,4.398 2.357,4.68 2.224,4.977 l 0.28,0.162 A 4.198,4.198 0 0 1 2.989,4.294 L 2.707,4.134 Z"
     id="path2"
     inkscape:connector-curvature="0"
     style="fill:#5beedc" />
</svg>
