<?xml version="1.0" encoding="UTF-8" standalone="no"?>
<svg
   xmlns:dc="http://purl.org/dc/elements/1.1/"
   xmlns:cc="http://creativecommons.org/ns#"
   xmlns:rdf="http://www.w3.org/1999/02/22-rdf-syntax-ns#"
   xmlns:svg="http://www.w3.org/2000/svg"
   xmlns="http://www.w3.org/2000/svg"
   xmlns:sodipodi="http://sodipodi.sourceforge.net/DTD/sodipodi-0.dtd"
   xmlns:inkscape="http://www.inkscape.org/namespaces/inkscape"
   width="48"
   height="48"
   viewBox="0 0 12.7 12.7"
   version="1.1"
   id="svg4"
   sodipodi:docname="wordlist.svg"
   inkscape:version="0.92.5 (2060ec1f9f, 2020-04-08)">
  <metadata
     id="metadata10">
    <rdf:RDF>
      <cc:Work
         rdf:about="">
        <dc:format>image/svg+xml</dc:format>
        <dc:type
           rdf:resource="http://purl.org/dc/dcmitype/StillImage" />
        <dc:title></dc:title>
      </cc:Work>
    </rdf:RDF>
  </metadata>
  <defs
     id="defs8" />
  <sodipodi:namedview
     pagecolor="#ffffff"
     bordercolor="#666666"
     borderopacity="1"
     objecttolerance="10"
     gridtolerance="10"
     guidetolerance="10"
     inkscape:pageopacity="0"
     inkscape:pageshadow="2"
     inkscape:window-width="1085"
     inkscape:window-height="480"
     id="namedview6"
     showgrid="false"
     inkscape:zoom="4.9166667"
     inkscape:cx="2.1355932"
     inkscape:cy="24"
     inkscape:window-x="0"
     inkscape:window-y="25"
     inkscape:window-maximized="0"
     inkscape:current-layer="svg4" />
  <path
     d="M 6.34,0.075 A 6.295,6.295 0 0 0 0.055,6.36 6.295,6.295 0 0 0 6.34,12.655 6.295,6.295 0 0 0 12.634,6.36 6.295,6.295 0 0 0 12.162,3.987 h -1.016 a 5.408,5.408 0 0 1 0.58,2.415 5.407,5.407 0 0 1 -10.814,0 c 0,-2.987 2.43,-5.387 5.417,-5.387 a 5.408,5.408 0 0 1 3.088,0.979 h 1.438 A 6.295,6.295 0 0 0 6.34,0.074 Z m -3.15,2.78 v 0.42 H 3.772 L 5.31,8.725 H 5.955 L 7.299,3.953 8.643,8.725 h 0.645 l 1.537,-5.448 h 0.577 v -0.42 h -1.69 v 0.42 h 0.676 L 9.158,7.664 7.798,2.857 H 7.16 L 5.824,7.61 4.602,3.276 h 0.73 V 2.856 H 3.191 Z m 0.008,1.284 a 0.489,0.489 0 1 0 0,0.977 h 0.53 L 3.453,4.139 Z m 2.1,0 0.275,0.977 h 0.5 L 6.347,4.139 h -1.05 z m -2.1,1.55 a 0.489,0.489 0 1 0 0,0.978 H 4.166 L 3.89,5.69 H 3.198 Z m 2.537,0 L 5.823,6.003 5.911,5.69 H 5.735 Z M 7.298,5.95 7.096,6.667 H 7.5 Z m -4.1,1.29 a 0.489,0.489 0 1 0 0,0.978 H 4.603 L 4.328,7.241 h -1.13 z m 3.736,0 -0.275,0.978 H 7.937 L 7.662,7.241 H 6.934 Z M 3.198,8.793 a 0.489,0.489 0 1 0 0,0.977 H 7.977 A 0.489,0.489 0 0 0 8.464,9.375 0.489,0.489 0 0 1 8.454,9.371 0.489,0.489 0 0 1 8.41,9.35 0.489,0.489 0 0 1 8.368,9.324 0.489,0.489 0 0 1 8.329,9.295 0.489,0.489 0 0 1 8.293,9.262 0.489,0.489 0 0 1 8.26,9.225 0.489,0.489 0 0 1 8.232,9.185 0.489,0.489 0 0 1 8.208,9.144 0.489,0.489 0 0 1 8.188,9.099 0.489,0.489 0 0 1 8.172,9.053 L 8.102,8.808 A 0.489,0.489 0 0 0 7.977,8.793 H 6.497 L 6.424,9.053 A 0.489,0.489 0 0 1 6.409,9.097 0.489,0.489 0 0 1 6.389,9.142 0.489,0.489 0 0 1 6.365,9.184 0.489,0.489 0 0 1 6.337,9.224 0.489,0.489 0 0 1 6.305,9.261 0.489,0.489 0 0 1 6.269,9.294 0.489,0.489 0 0 1 6.229,9.324 0.489,0.489 0 0 1 6.189,9.349 0.489,0.489 0 0 1 6.144,9.37 0.489,0.489 0 0 1 6.098,9.388 0.489,0.489 0 0 1 6.051,9.399 0.489,0.489 0 0 1 6.003,9.407 0.489,0.489 0 0 1 5.953,9.409 H 5.31 A 0.489,0.489 0 0 1 5.263,9.407 0.489,0.489 0 0 1 5.215,9.399 0.489,0.489 0 0 1 5.168,9.388 0.489,0.489 0 0 1 5.122,9.371 0.489,0.489 0 0 1 5.078,9.351 0.489,0.489 0 0 1 5.036,9.324 0.489,0.489 0 0 1 4.997,9.296 0.489,0.489 0 0 1 4.961,9.262 0.489,0.489 0 0 1 4.928,9.226 0.489,0.489 0 0 1 4.9,9.186 0.489,0.489 0 0 1 4.876,9.144 0.489,0.489 0 0 1 4.856,9.099 0.489,0.489 0 0 1 4.839,9.053 L 4.766,8.793 Z"
     id="path2"
     inkscape:connector-curvature="0"
     style="fill:#5beedc" />
</svg>
