<?xml version="1.0" encoding="UTF-8" standalone="no"?>
<svg
   xmlns:dc="http://purl.org/dc/elements/1.1/"
   xmlns:cc="http://creativecommons.org/ns#"
   xmlns:rdf="http://www.w3.org/1999/02/22-rdf-syntax-ns#"
   xmlns:svg="http://www.w3.org/2000/svg"
   xmlns="http://www.w3.org/2000/svg"
   xmlns:sodipodi="http://sodipodi.sourceforge.net/DTD/sodipodi-0.dtd"
   xmlns:inkscape="http://www.inkscape.org/namespaces/inkscape"
   width="48"
   height="48"
   viewBox="0 0 12.7 12.7"
   version="1.1"
   id="svg8"
   sodipodi:docname="wpscan.svg"
   inkscape:version="0.92.5 (2060ec1f9f, 2020-04-08)">
  <metadata
     id="metadata14">
    <rdf:RDF>
      <cc:Work
         rdf:about="">
        <dc:format>image/svg+xml</dc:format>
        <dc:type
           rdf:resource="http://purl.org/dc/dcmitype/StillImage" />
        <dc:title></dc:title>
      </cc:Work>
    </rdf:RDF>
  </metadata>
  <defs
     id="defs12" />
  <sodipodi:namedview
     pagecolor="#ffffff"
     bordercolor="#666666"
     borderopacity="1"
     objecttolerance="10"
     gridtolerance="10"
     guidetolerance="10"
     inkscape:pageopacity="0"
     inkscape:pageshadow="2"
     inkscape:window-width="1085"
     inkscape:window-height="480"
     id="namedview10"
     showgrid="false"
     inkscape:zoom="4.9166667"
     inkscape:cx="2.1355932"
     inkscape:cy="24"
     inkscape:window-x="0"
     inkscape:window-y="25"
     inkscape:window-maximized="0"
     inkscape:current-layer="svg8" />
  <path
     d="M 6.34,0.075 A 6.295,6.295 0 0 0 0.055,6.36 6.295,6.295 0 0 0 6.34,12.655 6.295,6.295 0 0 0 12.634,6.36 6.295,6.295 0 0 0 6.34,0.075 Z m -0.011,0.94 a 5.408,5.408 0 0 1 5.397,5.387 5.407,5.407 0 0 1 -10.814,0 c 0,-2.987 2.43,-5.387 5.417,-5.387 z M 6.378,5.251 A 1.056,1.056 0 0 0 6.104,5.286 1.058,1.058 0 0 0 5.361,6.07 1.081,1.081 0 0 0 5.538,6.938 c 0.007,0.004 0.014,0.017 0.014,0.028 0,0.012 -0.216,0.218 -0.48,0.458 -0.263,0.24 -0.488,0.451 -0.5,0.469 -0.037,0.052 -0.03,0.146 0.016,0.2 a 0.242,0.242 0 0 0 0.07,0.058 C 4.705,8.171 4.742,8.167 4.792,8.14 4.818,8.126 4.997,7.941 5.19,7.73 5.383,7.517 5.583,7.3 5.633,7.245 l 0.092,-0.1 0.048,0.03 c 0.2,0.132 0.391,0.191 0.621,0.191 0.302,0 0.53,-0.094 0.743,-0.305 A 0.977,0.977 0 0 0 7.451,6.356 1.018,1.018 0 0 0 7.232,5.657 1.105,1.105 0 0 0 6.656,5.277 1.092,1.092 0 0 0 6.378,5.251 Z m 0.016,0.234 c 0.18,0 0.31,0.04 0.457,0.138 0.222,0.149 0.35,0.37 0.367,0.639 A 0.778,0.778 0 0 1 6.976,6.888 0.766,0.766 0 0 1 6.591,7.111 C 6.488,7.137 6.301,7.138 6.195,7.113 A 0.886,0.886 0 0 1 5.657,6.683 0.825,0.825 0 0 1 6.394,5.485 Z M 6.892,6.32 6.882,6.381 A 0.524,0.524 0 0 1 6.471,6.793 l -0.062,0.01 v 0.07 c 0,0.07 0,0.071 0.048,0.071 A 0.673,0.673 0 0 0 6.714,6.868 0.906,0.906 0 0 0 6.94,6.651 0.715,0.715 0 0 0 7.034,6.371 V 6.32 Z"
     id="path2"
     inkscape:connector-curvature="0"
     style="fill:#5beedc" />
  <path
     d="M 6.35,4.442 1.584,7.276 6.348,10.108 11.114,7.276 9.558,6.351 6.35,8.258 5.552,7.784 5.415,7.934 A 13.413,13.413 0 0 1 5.049,8.319 0.47,0.47 0 0 1 4.819,8.443 0.609,0.609 0 0 1 4.542,8.433 C 4.468,8.403 4.453,8.383 4.428,8.362 A 0.588,0.588 0 0 1 4.355,8.289 0.462,0.462 0 0 1 4.245,8.018 0.431,0.431 0 0 1 4.322,7.718 C 4.367,7.655 4.359,7.674 4.37,7.664 L 4.406,7.627 4.52,7.52 4.75,7.307 3.141,6.351 6.35,4.443 Z"
     id="path4"
     inkscape:connector-curvature="0"
     style="opacity:0.75;fill:#2b62c0" />
  <path
     d="M 6.35,2.592 1.586,5.424 3.143,6.35 6.35,4.443 9.558,6.35 11.115,5.423 Z"
     id="path6"
     inkscape:connector-curvature="0"
     style="opacity:0.75;fill:#30aa93" />
</svg>
