<?xml version="1.0" encoding="UTF-8" standalone="no"?>
<svg
   xmlns:dc="http://purl.org/dc/elements/1.1/"
   xmlns:cc="http://creativecommons.org/ns#"
   xmlns:rdf="http://www.w3.org/1999/02/22-rdf-syntax-ns#"
   xmlns:svg="http://www.w3.org/2000/svg"
   xmlns="http://www.w3.org/2000/svg"
   xmlns:sodipodi="http://sodipodi.sourceforge.net/DTD/sodipodi-0.dtd"
   xmlns:inkscape="http://www.inkscape.org/namespaces/inkscape"
   width="48"
   height="48"
   viewBox="0 0 12.7 12.7"
   version="1.1"
   id="svg4"
   sodipodi:docname="preferences-system-time.svg"
   inkscape:version="0.92.5 (2060ec1f9f, 2020-04-08)">
  <defs
     id="defs8">
  <style
     id="current-color-scheme"
     type="text/css">
      .ColorScheme-Highlight {
        color:#5beedc;
      }
  </style>
  </defs>
  <path
     class="ColorScheme-Highlight"
     style="fill:#5beedc"
     d="M 24 0 A 24 24 0 0 0 0 24 A 24 24 0 0 0 24 48 A 24 24 0 0 0 48 24 A 24 24 0 0 0 24 0 z M 24 3 A 21 21 0 0 1 45 24 A 21 21 0 0 1 24 45 A 21 21 0 0 1 3 24 A 21 21 0 0 1 24 3 z M 32.484375 15.683594 C 31.973137 15.683594 31.46205 15.879747 31.070312 16.271484 L 24 23.34375 L 20.414062 19.757812 C 19.630588 18.974338 18.369412 18.974338 17.585938 19.757812 C 16.802463 20.541287 16.802463 21.802463 17.585938 22.585938 L 22.535156 27.535156 C 22.543828 27.543828 22.553713 27.550114 22.5625 27.558594 C 22.57098 27.567381 22.577266 27.577266 22.585938 27.585938 C 23.369412 28.369412 24.630588 28.369412 25.414062 27.585938 L 33.900391 19.099609 C 34.683865 18.316135 34.683865 17.054959 33.900391 16.271484 C 33.508653 15.879747 32.995613 15.683594 32.484375 15.683594 z "
     transform="scale(0.26458333)"
     id="path831" />
</svg>
