<?xml version="1.0" encoding="UTF-8" standalone="no"?>
<svg
   xmlns:dc="http://purl.org/dc/elements/1.1/"
   xmlns:cc="http://creativecommons.org/ns#"
   xmlns:rdf="http://www.w3.org/1999/02/22-rdf-syntax-ns#"
   xmlns:svg="http://www.w3.org/2000/svg"
   xmlns="http://www.w3.org/2000/svg"
   xmlns:sodipodi="http://sodipodi.sourceforge.net/DTD/sodipodi-0.dtd"
   xmlns:inkscape="http://www.inkscape.org/namespaces/inkscape"
   width="48"
   height="48"
   viewBox="0 0 12.7 12.7"
   version="1.1"
   id="svg4"
   sodipodi:docname="session-properties.svg"
   inkscape:version="0.92.5 (2060ec1f9f, 2020-04-08)">
  <defs
     id="defs8">
    <style
       id="current-color-scheme"
       type="text/css">
      .ColorScheme-Highlight {
        color:#5beedc;
      }
  </style>
  </defs>
  <path
     class="ColorScheme-Highlight"
     style="fill:#5beedc"
     d="M 24 0 A 24 24 0 0 0 0 24 A 24 24 0 0 0 24 48 A 24 24 0 0 0 48 24 A 24 24 0 0 0 24 0 z M 24 3 A 21 21 0 0 1 45 24 A 21 21 0 0 1 24 45 A 21 21 0 0 1 3 24 A 21 21 0 0 1 24 3 z M 9 12 L 9 15 L 39 15 L 39 12 L 9 12 z M 9 16 L 9 18 L 9 35 C 9 35.554 9.4459995 36 10 36 L 38 36 C 38.554 36 39 35.554 39 35 L 39 29 L 26 29 L 26 32 L 19 26 L 26 20 L 26 23 L 39 23 L 39 17 L 39 16 L 9 16 z M 11 19 L 16 19 L 16 24 L 11 24 L 11 19 z M 11.119141 26.162109 L 16 26.162109 L 16 31 L 11.119141 31 L 11.119141 26.162109 z "
     transform="scale(0.26458333)"
     id="rect829" />
</svg>
