<?xml version="1.0" encoding="UTF-8" standalone="no"?>
<svg
   xmlns:dc="http://purl.org/dc/elements/1.1/"
   xmlns:cc="http://creativecommons.org/ns#"
   xmlns:rdf="http://www.w3.org/1999/02/22-rdf-syntax-ns#"
   xmlns:svg="http://www.w3.org/2000/svg"
   xmlns="http://www.w3.org/2000/svg"
   xmlns:sodipodi="http://sodipodi.sourceforge.net/DTD/sodipodi-0.dtd"
   xmlns:inkscape="http://www.inkscape.org/namespaces/inkscape"
   width="48"
   height="48"
   viewBox="0 0 12.7 12.7"
   version="1.1"
   id="svg4"
   sodipodi:docname="preferences-desktop-theme2.svg"
   inkscape:version="0.92.5 (2060ec1f9f, 2020-04-08)">
  <defs
     id="defs8">
  <style
     id="current-color-scheme"
     type="text/css">
      .ColorScheme-Highlight {
        color:#5beedc;
      }
  </style>
  </defs>
  <path
     class="ColorScheme-Highlight"
     style="fill:#5beedc"
     d="M 24 0 A 24 24 0 0 0 0 24 A 24 24 0 0 0 24 48 A 24 24 0 0 0 48 24 A 24 24 0 0 0 24 0 z M 24 3 A 21 21 0 0 1 45 24 A 21 21 0 0 1 24 45 A 21 21 0 0 1 3 24 A 21 21 0 0 1 24 3 z M 14.623047 11.125 A 6 6 0 0 0 13.166016 11.328125 L 16.693359 14.857422 C 17.12427 15.288333 17.339844 15.849747 17.339844 16.412109 C 17.339844 16.974471 17.124272 17.535886 16.693359 17.966797 L 15.560547 19.099609 C 15.129636 19.53052 14.568221 19.746094 14.005859 19.746094 C 13.443497 19.746094 12.882083 19.530521 12.451172 19.099609 L 8.9238281 15.572266 A 6 6 0 0 0 10.470703 21.361328 A 6 6 0 0 0 16.185547 22.927734 L 19.771484 26.515625 L 24.015625 22.271484 L 20.486328 18.744141 A 6 6 0 0 0 18.957031 12.876953 A 6 6 0 0 0 14.623047 11.125 z M 37 13 C 33.969405 13.201808 32.436074 13.750557 31.458984 14.429688 A 3 3 0 0 0 30.767578 15 A 3 3 0 0 0 30 17 A 3 3 0 0 0 33 20 A 3 3 0 0 0 36 17 A 3 3 0 0 0 35.888672 16.193359 C 35.749324 14.537278 36.309152 13.692856 37 13 z M 29.230469 18.439453 L 12.332031 35.337891 C 11.548557 36.121364 11.548557 37.384495 12.332031 38.167969 C 13.115507 38.951446 14.378635 38.951446 15.162109 38.167969 L 32.367188 20.962891 A 3.8571428 3.8571428 0 0 1 32.201172 20.943359 A 3.8571428 3.8571428 0 0 1 31.826172 20.859375 A 3.8571428 3.8571428 0 0 1 31.458984 20.738281 A 3.8571428 3.8571428 0 0 1 31.107422 20.580078 A 3.8571428 3.8571428 0 0 1 30.773438 20.388672 A 3.8571428 3.8571428 0 0 1 30.458984 20.164062 A 3.8571428 3.8571428 0 0 1 30.169922 19.910156 A 3.8571428 3.8571428 0 0 1 29.90625 19.626953 A 3.8571428 3.8571428 0 0 1 29.673828 19.320312 A 3.8571428 3.8571428 0 0 1 29.472656 18.992188 A 3.8571428 3.8571428 0 0 1 29.304688 18.644531 A 3.8571428 3.8571428 0 0 1 29.230469 18.439453 z M 28.228516 26.484375 L 23.984375 30.728516 L 31.423828 38.167969 C 32.59904 39.343183 34.492758 39.343183 35.667969 38.167969 C 36.84318 36.992758 36.84318 35.09904 35.667969 33.923828 L 28.228516 26.484375 z M 33.574219 34.046875 A 1.9999999 1.9999999 0 0 1 34.960938 34.630859 A 1.9999999 1.9999999 0 0 1 34.960938 37.460938 A 1.9999999 1.9999999 0 0 1 32.130859 37.460938 A 1.9999999 1.9999999 0 0 1 32.130859 34.630859 A 1.9999999 1.9999999 0 0 1 33.574219 34.046875 z "
     transform="scale(0.26458333)"
     id="path831" />
</svg>
