<?xml version="1.0" encoding="UTF-8" standalone="no"?>
<svg
   xmlns:dc="http://purl.org/dc/elements/1.1/"
   xmlns:cc="http://creativecommons.org/ns#"
   xmlns:rdf="http://www.w3.org/1999/02/22-rdf-syntax-ns#"
   xmlns:svg="http://www.w3.org/2000/svg"
   xmlns="http://www.w3.org/2000/svg"
   xmlns:sodipodi="http://sodipodi.sourceforge.net/DTD/sodipodi-0.dtd"
   xmlns:inkscape="http://www.inkscape.org/namespaces/inkscape"
   width="48"
   height="48"
   viewBox="0 0 12.7 12.7"
   version="1.1"
   id="svg4"
   sodipodi:docname="preferences-desktop-theme-applications.svg"
   inkscape:version="0.92.5 (2060ec1f9f, 2020-04-08)">
  <defs
     id="defs8" />
  <defs
     id="defs5">
    <style
       id="current-color-scheme"
       type="text/css">
      .ColorScheme-Highlight {
        color:#5beedc;
      }
  </style>
  </defs>
  <path
     class="ColorScheme-Highlight"
     style="fill:#5beedc"
     d="M 24 0 C 10.745166 0 -9.4739031e-15 10.745166 0 24 C 0 37.254834 10.745166 48 24 48 C 37.254834 48 48 37.254834 48 24 C 48 10.745166 37.254834 -9.4739031e-15 24 0 z M 24 3 C 35.59798 3 45 12.40202 45 24 C 45 35.59798 35.59798 45 24 45 C 12.40202 45 3 35.59798 3 24 C 3 12.40202 12.40202 3 24 3 z M 13 11 C 11.892 11 11 11.892 11 13 L 11 15 C 11 16.108 11.892 17 13 17 L 35 17 C 36.108 17 37 16.108 37 15 L 37 13 C 37 11.892 36.108 11 35 11 L 13 11 z M 13 12 L 27 12 L 27 16 L 13 16 C 12.446 16 12 15.554 12 15 L 12 13 C 12 12.446 12.446 12 13 12 z M 30 13 L 34 13 L 32 15.375 L 30 13 z M 14 20 C 12.892 20 12 20.892 12 22 L 12 26 C 12 27.108 12.892 28 14 28 L 18 28 C 19.108 28 20 27.108 20 26 L 20 22 C 20 20.892 19.108 20 18 20 L 14 20 z M 32 20 C 29.790861 20 28 21.790861 28 24 C 28 26.209139 29.790861 28 32 28 C 34.209139 28 36 26.209139 36 24 C 36 21.790861 34.209139 20 32 20 z M 17.767578 22.439453 L 18.474609 23.146484 L 16.353516 25.267578 L 15.646484 25.974609 L 14.939453 25.267578 L 13.525391 23.853516 L 14.232422 23.146484 L 15.646484 24.560547 L 17.767578 22.439453 z M 33.767578 22.439453 L 34.474609 23.146484 L 32.353516 25.267578 L 31.646484 25.974609 L 30.939453 25.267578 L 29.525391 23.853516 L 30.232422 23.146484 L 31.646484 24.560547 L 33.767578 22.439453 z M 14 30 C 12.892 30 12 30.892 12 32 L 12 36 C 12 37.108 12.892 38 14 38 L 18 38 C 19.108 38 20 37.108 20 36 L 20 32 C 20 30.892 19.108 30 18 30 L 14 30 z M 32 30 C 29.790861 30 28 31.790861 28 34 C 28 36.209139 29.790861 38 32 38 C 34.209139 38 36 36.209139 36 34 C 36 31.790861 34.209139 30 32 30 z M 14 31 L 18 31 C 18.553999 31 19 31.446001 19 32 L 19 36 C 19 36.553999 18.553999 37 18 37 L 14 37 C 13.446001 37 13 36.553999 13 36 L 13 32 C 13 31.446001 13.446001 31 14 31 z M 32 31 C 33.656854 31 35 32.343146 35 34 C 35 35.656854 33.656854 37 32 37 C 30.343146 37 29 35.656854 29 34 C 29 32.343146 30.343146 31 32 31 z "
     transform="scale(0.26458333)"
     id="path838" />
</svg>
