<?xml version="1.0" encoding="UTF-8" standalone="no"?>
<svg
   xmlns:dc="http://purl.org/dc/elements/1.1/"
   xmlns:cc="http://creativecommons.org/ns#"
   xmlns:rdf="http://www.w3.org/1999/02/22-rdf-syntax-ns#"
   xmlns:svg="http://www.w3.org/2000/svg"
   xmlns="http://www.w3.org/2000/svg"
   xmlns:sodipodi="http://sodipodi.sourceforge.net/DTD/sodipodi-0.dtd"
   xmlns:inkscape="http://www.inkscape.org/namespaces/inkscape"
   width="48"
   height="48"
   viewBox="0 0 12.7 12.7"
   version="1.1"
   id="svg8"
   sodipodi:docname="xfce4-eyes.svg"
   inkscape:version="0.92.4 (5da689c313, 2019-01-14)">
  <metadata
     id="metadata14">
    <rdf:RDF>
      <cc:Work
         rdf:about="">
        <dc:format>image/svg+xml</dc:format>
        <dc:type
           rdf:resource="http://purl.org/dc/dcmitype/StillImage" />
        <dc:title></dc:title>
      </cc:Work>
    </rdf:RDF>
  </metadata>
  <defs
     id="defs12" />
  <sodipodi:namedview
     pagecolor="#ffffff"
     bordercolor="#666666"
     borderopacity="1"
     objecttolerance="10"
     gridtolerance="10"
     guidetolerance="10"
     inkscape:pageopacity="0"
     inkscape:pageshadow="2"
     inkscape:window-width="862"
     inkscape:window-height="480"
     id="namedview10"
     showgrid="false"
     inkscape:zoom="4.9166667"
     inkscape:cx="2.1355932"
     inkscape:cy="24"
     inkscape:window-x="0"
     inkscape:window-y="25"
     inkscape:window-maximized="0"
     inkscape:current-layer="svg8" />
  <path
     d="M 6.34,0.07 A 6.29,6.29 0 0 0 0.05,6.37 6.29,6.29 0 0 0 6.35,12.65 6.29,6.29 0 0 0 12.63,6.36 6.29,6.29 0 0 0 6.34,0.07 Z M 6.32,1 6.33,1.01 a 5.4,5.4 0 0 1 5.4,5.4 5.4,5.4 0 0 1 -5.4,5.41 A 5.4,5.4 0 0 1 0.92,6.42 5.4,5.4 0 0 1 6.32,1 Z"
     id="path2"
     inkscape:connector-curvature="0"
     style="fill:#5beedc" />
  <path
     d="M 6.35,5.12 A 1.23,1.23 0 0 0 5.12,6.35 1.23,1.23 0 0 0 6.35,7.58 1.23,1.23 0 0 0 7.58,6.35 1.23,1.23 0 0 0 6.35,5.12 Z m 0,0.06 A 0.41,0.41 0 0 1 6.76,5.59 0.41,0.41 0 0 1 6.35,6 0.41,0.41 0 0 1 5.94,5.6 0.41,0.41 0 0 1 6.35,5.18 Z"
     id="path4"
     inkscape:connector-curvature="0" />
  <path
     d="m 6.35,2.65 a 3.7,3.7 0 0 0 -3.7,3.7 3.7,3.7 0 0 0 3.7,3.7 3.7,3.7 0 0 0 3.7,-3.7 3.7,3.7 0 0 0 -3.7,-3.7 z m 0,2.47 A 1.23,1.23 0 0 1 7.58,6.35 1.23,1.23 0 0 1 6.35,7.58 1.23,1.23 0 0 1 5.12,6.35 1.23,1.23 0 0 1 6.35,5.12 Z"
     id="path6"
     inkscape:connector-curvature="0"
     style="opacity:0.75;fill:#478be5" />
</svg>
