<?xml version="1.0" encoding="UTF-8" standalone="no"?>
<svg
   xmlns:dc="http://purl.org/dc/elements/1.1/"
   xmlns:cc="http://creativecommons.org/ns#"
   xmlns:rdf="http://www.w3.org/1999/02/22-rdf-syntax-ns#"
   xmlns:svg="http://www.w3.org/2000/svg"
   xmlns="http://www.w3.org/2000/svg"
   xmlns:sodipodi="http://sodipodi.sourceforge.net/DTD/sodipodi-0.dtd"
   xmlns:inkscape="http://www.inkscape.org/namespaces/inkscape"
   width="48"
   height="48"
   viewBox="0 0 12.7 12.7"
   version="1.1"
   id="svg4"
   sodipodi:docname="kronometer.svg"
   inkscape:version="0.92.4 (5da689c313, 2019-01-14)">
  <metadata
     id="metadata10">
    <rdf:RDF>
      <cc:Work
         rdf:about="">
        <dc:format>image/svg+xml</dc:format>
        <dc:type
           rdf:resource="http://purl.org/dc/dcmitype/StillImage" />
        <dc:title></dc:title>
      </cc:Work>
    </rdf:RDF>
  </metadata>
  <defs
     id="defs8" />
  <sodipodi:namedview
     pagecolor="#ffffff"
     bordercolor="#666666"
     borderopacity="1"
     objecttolerance="10"
     gridtolerance="10"
     guidetolerance="10"
     inkscape:pageopacity="0"
     inkscape:pageshadow="2"
     inkscape:window-width="1087"
     inkscape:window-height="480"
     id="namedview6"
     showgrid="false"
     inkscape:zoom="4.9166667"
     inkscape:cx="2.1355932"
     inkscape:cy="24"
     inkscape:window-x="0"
     inkscape:window-y="25"
     inkscape:window-maximized="0"
     inkscape:current-layer="svg4" />
  <path
     d="M 6.34,0.07 A 6.29,6.29 0 0 0 0.05,6.37 6.29,6.29 0 0 0 6.35,12.65 6.29,6.29 0 0 0 12.63,6.36 6.29,6.29 0 0 0 6.34,0.07 Z M 6.33,1.01 a 5.4,5.4 0 0 1 5.4,5.4 5.4,5.4 0 0 1 -5.4,5.41 A 5.4,5.4 0 0 1 0.92,6.42 5.4,5.4 0 0 1 6.32,1 Z M 6.16,1.92 c -0.15,0 -0.29,0.01 -0.42,0.03 v 0.84 a 3.44,3.44 0 0 1 0.84,0 V 1.94 A 4.58,4.58 0 0 0 6.16,1.92 Z M 6.9,2 6.68,2.82 C 6.96,2.86 7.24,2.93 7.49,3.03 L 7.71,2.22 C 7.45,2.12 7.18,2.05 6.9,2 Z M 8.02,2.34 7.6,3.07 C 7.86,3.19 8.1,3.33 8.33,3.5 L 8.75,2.76 C 8.52,2.6 8.28,2.46 8.02,2.34 Z M 5.54,2.54 C 5.26,2.59 4.99,2.66 4.73,2.76 L 4.8,3.03 C 5.06,2.93 5.34,2.86 5.62,2.82 L 5.54,2.55 Z M 4.56,2.84 C 4.3,2.94 4.06,3.09 3.83,3.26 L 3.97,3.5 C 4.2,3.33 4.44,3.2 4.7,3.08 L 4.56,2.83 Z m 4.46,0.12 -0.6,0.6 c 0.22,0.18 0.42,0.38 0.6,0.6 l 0.6,-0.6 A 4.5,4.5 0 0 0 9.02,2.96 Z M 3.68,3.36 C 3.46,3.54 3.26,3.74 3.08,3.96 l 0.2,0.2 C 3.46,3.94 3.66,3.74 3.88,3.56 Z M 9.82,3.83 9.08,4.25 C 9.25,4.48 9.39,4.72 9.5,4.98 L 10.24,4.56 C 10.12,4.3 9.98,4.06 9.82,3.83 Z M 8.53,4 C 8.48,4 8.43,4.02 8.4,4.05 L 6.43,6.02 6.35,6 A 0.37,0.37 0 1 0 6.71,6.26 L 8.66,4.31 A 0.19,0.19 0 0 0 8.53,4 Z M 2.98,4.1 C 2.82,4.33 2.68,4.57 2.56,4.83 L 2.8,4.97 C 2.92,4.71 3.06,4.47 3.23,4.24 Z m 7.4,0.75 -0.83,0.22 c 0.1,0.26 0.18,0.54 0.22,0.82 L 10.59,5.67 A 4.47,4.47 0 0 0 10.37,4.85 Z M 2.47,5 C 2.37,5.26 2.3,5.54 2.27,5.82 L 2.54,5.89 C 2.58,5.61 2.65,5.34 2.75,5.07 L 2.5,5 Z M 2.24,6 a 3.94,3.94 0 0 0 0,0.84 H 2.52 A 3.65,3.65 0 0 1 2.52,6 Z m 7.54,0 a 3.7,3.7 0 0 1 0,0.84 h 0.84 A 4.59,4.59 0 0 0 10.62,6 H 9.8 Z M 2.54,6.95 2.26,7.02 C 2.31,7.3 2.38,7.58 2.48,7.84 L 2.75,7.77 C 2.65,7.5 2.58,7.23 2.54,6.95 Z m 7.22,0 C 9.72,7.23 9.65,7.51 9.54,7.77 l 0.82,0.22 c 0.1,-0.27 0.17,-0.54 0.22,-0.82 z M 2.8,7.87 2.56,8 C 2.67,8.26 2.82,8.5 2.98,8.73 L 3.23,8.59 C 3.06,8.36 2.92,8.12 2.81,7.86 Z m 6.7,0 C 9.4,8.13 9.25,8.37 9.08,8.6 L 9.82,9.02 C 9.98,8.8 10.12,8.55 10.24,8.29 Z m -6.22,0.82 -0.2,0.2 c 0.18,0.22 0.38,0.42 0.6,0.6 l 0.2,-0.2 a 3.66,3.66 0 0 1 -0.6,-0.6 z m 5.73,0 C 8.84,8.91 8.64,9.11 8.41,9.29 l 0.6,0.6 C 9.24,9.71 9.44,9.51 9.61,9.29 Z M 3.97,9.35 3.54,10.08 c 0.23,0.17 0.48,0.31 0.73,0.43 L 4.7,9.77 C 4.44,9.67 4.2,9.52 3.97,9.35 Z m 4.36,0 C 8.1,9.52 7.86,9.66 7.6,9.78 l 0.42,0.73 c 0.26,-0.12 0.5,-0.26 0.73,-0.42 z M 4.8,9.82 4.58,10.64 c 0.26,0.1 0.53,0.17 0.82,0.21 L 5.62,10.03 A 3.63,3.63 0 0 1 4.8,9.82 Z m 2.7,0 C 7.24,9.92 6.96,9.99 6.68,10.03 L 6.9,10.85 C 7.18,10.8 7.45,10.73 7.71,10.63 L 7.49,9.82 Z m -1.77,0.23 v 0.85 a 4.56,4.56 0 0 0 0.84,0 v -0.85 a 3.7,3.7 0 0 1 -0.84,0 z"
     id="path2"
     inkscape:connector-curvature="0"
     style="fill:#5beedc" />
</svg>
