<?xml version="1.0" encoding="UTF-8" standalone="no"?>
<svg
   xmlns:dc="http://purl.org/dc/elements/1.1/"
   xmlns:cc="http://creativecommons.org/ns#"
   xmlns:rdf="http://www.w3.org/1999/02/22-rdf-syntax-ns#"
   xmlns:svg="http://www.w3.org/2000/svg"
   xmlns="http://www.w3.org/2000/svg"
   xmlns:sodipodi="http://sodipodi.sourceforge.net/DTD/sodipodi-0.dtd"
   xmlns:inkscape="http://www.inkscape.org/namespaces/inkscape"
   width="48"
   height="48"
   viewBox="0 0 12.7 12.7"
   version="1.1"
   id="svg4"
   sodipodi:docname="preferences-system-splash.svg"
   inkscape:version="0.92.5 (2060ec1f9f, 2020-04-08)">
  <defs
     id="defs8">
  <style
     id="current-color-scheme"
     type="text/css">
      .ColorScheme-Highlight {
        color:#5beedc;
      }
  </style>
  </defs>
  <path
     class="ColorScheme-Highlight"
     style="fill:#5beedc"
     d="M 24 0 A 24 24 0 0 0 0 24 A 24 24 0 0 0 24 48 A 24 24 0 0 0 48 24 A 24 24 0 0 0 24 0 z M 24 3 A 21 21 0 0 1 45 24 A 21 21 0 0 1 24 45 A 21 21 0 0 1 3 24 A 21 21 0 0 1 24 3 z M 24 35 A 3 3 0 0 0 21 38 A 3 3 0 0 0 24 41 A 3 3 0 0 0 27 38 A 3 3 0 0 0 24 35 z "
     transform="scale(0.26458333)"
     id="path831" />
  <path
     class="ColorScheme-Highlight"
     style="opacity:0.6;fill:#5beedc"
     d="m 24,7 a 3,3 0 0 0 -3,3 3,3 0 0 0 3,3 3,3 0 0 0 3,-3 3,3 0 0 0 -3,-3 z"
     transform="scale(0.26458333)"
     id="path1005" />
  <path
     class="ColorScheme-Highlight"
     style="opacity:0.8;fill:#5beedc"
     d="m 10,21 a 3,3 0 0 0 -3,3 3,3 0 0 0 3,3 3,3 0 0 0 3,-3 3,3 0 0 0 -3,-3 z"
     transform="scale(0.26458333)"
     id="path1003" />
  <path
     class="ColorScheme-Highlight"
     style="opacity:0.4;fill:#5beedc"
     d="m 38,21 a 3,3 0 0 0 -3,3 3,3 0 0 0 3,3 3,3 0 0 0 3,-3 3,3 0 0 0 -3,-3 z"
     transform="scale(0.26458333)"
     id="path1001" />
  <path
     class="ColorScheme-Highlight"
     style="opacity:0.7;fill:#5beedc"
     d="m 3.1694926,3.1694926 a 0.79374999,0.79374999 0 0 0 0,1.122532 0.79374999,0.79374999 0 0 0 1.122532,0 0.79374999,0.79374999 0 0 0 0,-1.122532 0.79374999,0.79374999 0 0 0 -1.122532,0 z"
     id="path997" />
  <path
     class="ColorScheme-Highlight"
     style="opacity:0.9;fill:#5beedc"
     d="m 3.1694926,8.4079753 a 0.79374999,0.79374999 0 0 0 0,1.122532 0.79374999,0.79374999 0 0 0 1.122532,0 0.79374999,0.79374999 0 0 0 0,-1.122532 0.79374999,0.79374999 0 0 0 -1.122532,0 z"
     id="path995" />
  <path
     class="ColorScheme-Highlight"
     style="opacity:0.5;fill:#5beedc"
     d="m 8.4079753,3.1694926 a 0.79374999,0.79374999 0 0 0 0,1.122532 0.79374999,0.79374999 0 0 0 1.122532,0 0.79374999,0.79374999 0 0 0 0,-1.122532 0.79374999,0.79374999 0 0 0 -1.122532,0 z"
     id="path993" />
  <path
     class="ColorScheme-Highlight"
     style="opacity:0.3;fill:#5beedc"
     d="m 8.4079753,8.4079753 a 0.79374999,0.79374999 0 0 0 0,1.122532 0.79374999,0.79374999 0 0 0 1.122532,0 0.79374999,0.79374999 0 0 0 0,-1.122532 0.79374999,0.79374999 0 0 0 -1.122532,0 z"
     id="path989" />
</svg>
