<?xml version="1.0" encoding="UTF-8" standalone="no"?>
<svg
   xmlns:dc="http://purl.org/dc/elements/1.1/"
   xmlns:cc="http://creativecommons.org/ns#"
   xmlns:rdf="http://www.w3.org/1999/02/22-rdf-syntax-ns#"
   xmlns:svg="http://www.w3.org/2000/svg"
   xmlns="http://www.w3.org/2000/svg"
   xmlns:sodipodi="http://sodipodi.sourceforge.net/DTD/sodipodi-0.dtd"
   xmlns:inkscape="http://www.inkscape.org/namespaces/inkscape"
   width="48"
   height="48"
   viewBox="0 0 12.7 12.7"
   version="1.1"
   id="svg4"
   sodipodi:docname="xfce4-fsguard-plugin-warning.svg"
   inkscape:version="0.92.5 (2060ec1f9f, 2020-04-08)">
  <defs
     id="defs8">
  <style
     id="current-color-scheme"
     type="text/css">
      .ColorScheme-Highlight {
        color:#5beedc;
      }
  </style>
  </defs>
  <path
     class="ColorScheme-Highlight"
     style="fill:#5beedc"
     d="M 24 0 A 24 24 0 0 0 0 24 A 24 24 0 0 0 24 48 A 24 24 0 0 0 24.513672 47.974609 L 26.060547 44.876953 A 21 21 0 0 1 24 45 A 21 21 0 0 1 3 24 A 21 21 0 0 1 24 3 A 21 21 0 0 1 45 24 A 21 21 0 0 1 42.480469 33.962891 L 44.070312 37.140625 A 24 24 0 0 0 48 24 A 24 24 0 0 0 24 0 z M 12 9 C 11.446 9 11 9.4648809 11 10.042969 L 11 33 L 11 37.5 C 11 38.331001 11.446 39 12 39 L 20 39 L 29 39 L 37 23 L 37 10.042969 C 37 9.4648809 36.553999 9 36 9 L 12 9 z M 24 12 A 8.9999994 8.9999994 0 0 1 33 21 A 8.9999994 8.9999994 0 0 1 24 30 L 15 30 L 15 21 A 8.9999994 8.9999994 0 0 1 24 12 z M 24 16 A 4.9999995 4.9999995 0 0 0 19 21 A 4.9999995 4.9999995 0 0 0 24 26 A 4.9999995 4.9999995 0 0 0 29 21 A 4.9999995 4.9999995 0 0 0 24 16 z M 37 27 L 27 47 L 37 47 L 47 47 L 37 27 z M 36 33 L 38 33 L 38 41 L 36 41 L 36 33 z M 36 43 L 38 43 L 38 45 L 36 45 L 36 43 z "
     transform="scale(0.26458333)"
     id="path879" />
</svg>
