<?xml version="1.0" encoding="UTF-8" standalone="no"?>
<svg
   xmlns:dc="http://purl.org/dc/elements/1.1/"
   xmlns:cc="http://creativecommons.org/ns#"
   xmlns:rdf="http://www.w3.org/1999/02/22-rdf-syntax-ns#"
   xmlns:svg="http://www.w3.org/2000/svg"
   xmlns="http://www.w3.org/2000/svg"
   xmlns:sodipodi="http://sodipodi.sourceforge.net/DTD/sodipodi-0.dtd"
   xmlns:inkscape="http://www.inkscape.org/namespaces/inkscape"
   width="48"
   height="48"
   viewBox="0 0 12.7 12.7"
   version="1.1"
   id="svg4"
   sodipodi:docname="xnoise.svg"
   inkscape:version="0.92.4 (5da689c313, 2019-01-14)">
  <metadata
     id="metadata10">
    <rdf:RDF>
      <cc:Work
         rdf:about="">
        <dc:format>image/svg+xml</dc:format>
        <dc:type
           rdf:resource="http://purl.org/dc/dcmitype/StillImage" />
        <dc:title></dc:title>
      </cc:Work>
    </rdf:RDF>
  </metadata>
  <defs
     id="defs8" />
  <sodipodi:namedview
     pagecolor="#ffffff"
     bordercolor="#666666"
     borderopacity="1"
     objecttolerance="10"
     gridtolerance="10"
     guidetolerance="10"
     inkscape:pageopacity="0"
     inkscape:pageshadow="2"
     inkscape:window-width="1087"
     inkscape:window-height="480"
     id="namedview6"
     showgrid="false"
     inkscape:zoom="4.9166667"
     inkscape:cx="2.1355932"
     inkscape:cy="24"
     inkscape:window-x="0"
     inkscape:window-y="25"
     inkscape:window-maximized="0"
     inkscape:current-layer="svg4" />
  <path
     d="M 6.34,0.07 A 6.29,6.29 0 0 0 0.05,6.37 6.29,6.29 0 0 0 6.35,12.65 6.29,6.29 0 0 0 12.63,6.36 6.29,6.29 0 0 0 6.34,0.07 Z M 6.32,1 6.33,1.01 a 5.4,5.4 0 0 1 5.4,5.4 5.4,5.4 0 0 1 -5.4,5.41 A 5.4,5.4 0 0 1 0.92,6.42 5.4,5.4 0 0 1 6.32,1 Z m -3.5,2.45 a 0.205,0.205 0 1 0 0,0.41 c 0.42,0 0.71,0.14 0.97,0.37 0.26,0.23 0.48,0.55 0.7,0.89 0.22,0.33 0.44,0.68 0.73,0.96 0.1,0.1 0.22,0.2 0.36,0.27 C 5.44,6.43 5.33,6.52 5.22,6.62 4.93,6.9 4.72,7.25 4.49,7.58 A 4.3,4.3 0 0 1 3.79,8.47 C 3.53,8.7 3.24,8.84 2.83,8.84 a 0.205,0.205 0 1 0 0,0.41 C 3.34,9.25 3.75,9.05 4.07,8.78 4.38,8.5 4.62,8.15 4.84,7.81 5.06,7.47 5.27,7.15 5.51,6.92 5.74,6.69 5.99,6.56 6.35,6.56 c 0.36,0 0.6,0.13 0.84,0.36 0.24,0.23 0.45,0.55 0.67,0.9 0.22,0.33 0.46,0.68 0.77,0.96 0.32,0.28 0.73,0.47 1.24,0.47 a 0.205,0.205 0 1 0 0,-0.41 C 9.46,8.84 9.17,8.7 8.91,8.47 A 4.3,4.3 0 0 1 8.21,7.58 C 7.99,7.25 7.77,6.9 7.48,6.62 7.38,6.52 7.26,6.42 7.12,6.35 7.26,6.27 7.37,6.18 7.48,6.08 7.77,5.8 7.98,5.45 8.21,5.12 8.43,4.78 8.65,4.46 8.91,4.23 9.17,4 9.46,3.86 9.87,3.86 a 0.205,0.205 0 1 0 0,-0.41 C 9.36,3.45 8.95,3.65 8.63,3.92 8.32,4.2 8.08,4.55 7.86,4.89 7.64,5.23 7.43,5.55 7.19,5.78 6.96,6.01 6.71,6.14 6.35,6.14 5.99,6.14 5.75,6.01 5.51,5.78 5.27,5.55 5.06,5.23 4.84,4.88 4.62,4.55 4.38,4.2 4.07,3.92 A 1.84,1.84 0 0 0 2.83,3.45 Z"
     id="path2"
     inkscape:connector-curvature="0"
     style="fill:#5beedc" />
</svg>
