<?xml version="1.0" encoding="UTF-8" standalone="no"?>
<svg
   xmlns:dc="http://purl.org/dc/elements/1.1/"
   xmlns:cc="http://creativecommons.org/ns#"
   xmlns:rdf="http://www.w3.org/1999/02/22-rdf-syntax-ns#"
   xmlns:svg="http://www.w3.org/2000/svg"
   xmlns="http://www.w3.org/2000/svg"
   xmlns:sodipodi="http://sodipodi.sourceforge.net/DTD/sodipodi-0.dtd"
   xmlns:inkscape="http://www.inkscape.org/namespaces/inkscape"
   width="48"
   height="48"
   viewBox="0 0 12.7 12.7"
   version="1.1"
   id="svg4"
   sodipodi:docname="xonotic.svg"
   inkscape:version="0.92.5 (2060ec1f9f, 2020-04-08)">
  <metadata
     id="metadata10">
    <rdf:RDF>
      <cc:Work
         rdf:about="">
        <dc:format>image/svg+xml</dc:format>
        <dc:type
           rdf:resource="http://purl.org/dc/dcmitype/StillImage" />
        <dc:title></dc:title>
      </cc:Work>
    </rdf:RDF>
  </metadata>
  <defs
     id="defs8" />
  <sodipodi:namedview
     pagecolor="#ffffff"
     bordercolor="#666666"
     borderopacity="1"
     objecttolerance="10"
     gridtolerance="10"
     guidetolerance="10"
     inkscape:pageopacity="0"
     inkscape:pageshadow="2"
     inkscape:window-width="1085"
     inkscape:window-height="480"
     id="namedview6"
     showgrid="false"
     inkscape:zoom="4.9166667"
     inkscape:cx="2.1355932"
     inkscape:cy="24"
     inkscape:window-x="0"
     inkscape:window-y="25"
     inkscape:window-maximized="0"
     inkscape:current-layer="svg4" />
  <path
     d="M 6.34,0.075 A 6.295,6.295 0 0 0 0.055,6.36 6.295,6.295 0 0 0 6.34,12.655 6.295,6.295 0 0 0 12.634,6.36 6.295,6.295 0 0 0 6.34,0.075 Z m -0.01,0.94 a 5.408,5.408 0 0 1 5.396,5.387 5.407,5.407 0 1 1 -10.814,0 c 0,-2.987 2.43,-5.387 5.417,-5.387 z M 8.253,2.33 A 3.897,3.897 0 0 1 7.09,9.558 c -0.24,0.046 -0.533,1.114 -0.742,1.114 -0.208,0 -0.5,-1.068 -0.74,-1.114 A 3.897,3.897 0 0 1 4.441,2.332 4.456,4.456 0 0 0 1.894,6.357 4.456,4.456 0 0 0 6.349,10.811 4.456,4.456 0 0 0 10.804,6.357 4.457,4.457 0 0 0 8.254,2.33 Z M 7.502,3.55 C 6.319,3.74 4.804,5.218 3.329,6.405 L 5.143,5.568 4.094,6.683 5,6.259 c -0.297,0.586 -0.265,1.6 -1.244,1.8 0.51,0.504 1.165,0.862 1.897,1.002 0.349,0.067 0.593,0.748 0.697,0.748 0.104,0 0.348,-0.681 0.697,-0.748 A 3.683,3.683 0 0 0 9.002,8 C 6.412,8.032 6.576,5.405 8.864,4.83 8.687,4.666 8.1,4.697 7.619,4.773 7.703,4.213 8.497,3.945 9.084,4.017 8.749,3.677 8.34,3.431 7.663,3.714 Z M 7.176,4.021 7.353,4.196 C 7.123,4.39 6.918,4.403 6.724,4.229 Z"
     id="path2"
     inkscape:connector-curvature="0"
     style="fill:#5beedc" />
</svg>
