<?xml version="1.0" encoding="UTF-8" standalone="no"?>
<svg
   xmlns:dc="http://purl.org/dc/elements/1.1/"
   xmlns:cc="http://creativecommons.org/ns#"
   xmlns:rdf="http://www.w3.org/1999/02/22-rdf-syntax-ns#"
   xmlns:svg="http://www.w3.org/2000/svg"
   xmlns="http://www.w3.org/2000/svg"
   xmlns:sodipodi="http://sodipodi.sourceforge.net/DTD/sodipodi-0.dtd"
   xmlns:inkscape="http://www.inkscape.org/namespaces/inkscape"
   width="48"
   height="48"
   viewBox="0 0 12.7 12.7"
   version="1.1"
   id="svg4"
   sodipodi:docname="xplico.svg"
   inkscape:version="0.92.5 (2060ec1f9f, 2020-04-08)">
  <metadata
     id="metadata10">
    <rdf:RDF>
      <cc:Work
         rdf:about="">
        <dc:format>image/svg+xml</dc:format>
        <dc:type
           rdf:resource="http://purl.org/dc/dcmitype/StillImage" />
        <dc:title></dc:title>
      </cc:Work>
    </rdf:RDF>
  </metadata>
  <defs
     id="defs8" />
  <sodipodi:namedview
     pagecolor="#ffffff"
     bordercolor="#666666"
     borderopacity="1"
     objecttolerance="10"
     gridtolerance="10"
     guidetolerance="10"
     inkscape:pageopacity="0"
     inkscape:pageshadow="2"
     inkscape:window-width="1085"
     inkscape:window-height="480"
     id="namedview6"
     showgrid="false"
     inkscape:zoom="4.9166667"
     inkscape:cx="24"
     inkscape:cy="24"
     inkscape:window-x="0"
     inkscape:window-y="25"
     inkscape:window-maximized="0"
     inkscape:current-layer="svg4" />
  <path
     d="M 6.34,0.075 A 6.295,6.295 0 0 0 0.055,6.36 6.295,6.295 0 0 0 6.34,12.655 6.295,6.295 0 0 0 12.634,6.36 6.295,6.295 0 0 0 6.34,0.075 Z m -0.011,0.94 a 5.408,5.408 0 0 1 5.397,5.387 5.407,5.407 0 0 1 -10.814,0 c 0,-2.987 2.43,-5.387 5.417,-5.387 z M 5.328,2.858 v 0.2 H 2.634 V 3.536 H 5.328 V 3.734 H 5.912 V 3.959 H 6.111 V 4.444 H 5.496 c -0.065,0 -0.156,0.1 -0.156,0.222 V 6.84 H 4.286 c -0.018,0 -0.365,0 -0.017,0.321 L 6.12,8.82 C 6.189,8.882 6.26,8.914 6.35,8.915 6.44,8.914 6.511,8.882 6.58,8.821 L 8.431,7.161 C 8.779,6.839 8.431,6.839 8.414,6.839 H 7.36 V 4.666 C 7.36,4.543 7.269,4.444 7.204,4.444 H 6.59 V 3.96 H 6.789 V 3.735 H 7.373 V 3.537 h 2.694 V 3.058 H 7.372 V 2.859 H 5.328 Z M 3.46,7.294 A 0.36,0.36 0 0 0 3.105,7.659 v 0.93 c 0,0.824 0.674,1.499 1.498,1.499 h 3.492 c 0.823,0 1.498,-0.675 1.498,-1.498 V 7.66 a 0.36,0.36 0 1 0 -0.72,0 v 0.93 c 0,0.437 -0.341,0.777 -0.778,0.777 H 4.604 A 0.768,0.768 0 0 1 3.827,8.59 V 7.66 A 0.36,0.36 0 0 0 3.461,7.294 Z"
     id="path2"
     inkscape:connector-curvature="0"
     style="fill:#5beedc" />
</svg>
