<?xml version="1.0" encoding="UTF-8" standalone="no"?>
<svg
   xmlns:dc="http://purl.org/dc/elements/1.1/"
   xmlns:cc="http://creativecommons.org/ns#"
   xmlns:rdf="http://www.w3.org/1999/02/22-rdf-syntax-ns#"
   xmlns:svg="http://www.w3.org/2000/svg"
   xmlns="http://www.w3.org/2000/svg"
   xmlns:sodipodi="http://sodipodi.sourceforge.net/DTD/sodipodi-0.dtd"
   xmlns:inkscape="http://www.inkscape.org/namespaces/inkscape"
   width="48"
   height="48"
   viewBox="0 0 12.7 12.7"
   version="1.1"
   id="svg4"
   sodipodi:docname="yad.svg"
   inkscape:version="0.92.5 (2060ec1f9f, 2020-04-08)">
  <defs
     id="defs8">
  <style
     id="current-color-scheme"
     type="text/css">
      .ColorScheme-Highlight {
        color:#5beedc;
      }
  </style>
  </defs>
  <path
     class="ColorScheme-Highlight"
     style="fill:#5beedc"
     d="M 6.3500003,0 A 6.3499999,6.3499999 0 0 0 -3.6666667e-7,6.3499999 6.3499999,6.3499999 0 0 0 6.3500003,12.7 6.3499999,6.3499999 0 0 0 12.7,6.3499999 6.3499999,6.3499999 0 0 0 6.3500003,0 Z m 0,0.79374999 A 5.5562499,5.5562499 0 0 1 11.90625,6.3499999 5.5562499,5.5562499 0 0 1 6.3500003,11.90625 5.5562499,5.5562499 0 0 1 0.79374963,6.3499999 5.5562499,5.5562499 0 0 1 6.3500003,0.79374999 Z M 4.6302086,2.9104166 c -0.219869,0 -0.396875,0.1770063 -0.396875,0.396875 0,0.2198688 0.177006,0.396875 0.396875,0.396875 H 4.7625003 V 5.0270833 5.5562499 L 2.6458336,9.2604166 c 0,0.4397374 0.354012,0.7937504 0.79375,0.7937504 h 5.8208327 c 0.439738,0 0.7937497,-0.354013 0.7937497,-0.7937504 L 7.9375003,5.5562499 v -1.0583333 -0.79375 h 0.132291 c 0.219869,0 0.396875,-0.1770062 0.396875,-0.396875 0,-0.2198687 -0.177006,-0.396875 -0.396875,-0.396875 z m 0.9260417,0.79375 h 1.5875 v 1.8520833 l 2.116666,3.7041667 H 3.4395836 L 5.5562503,5.5562499 Z"
     id="path829"
     inkscape:connector-curvature="0" />
  <path
     style="fill:#217821"
     d="M 5.2916663,1.5875 A 0.2645833,0.2645833 0 0 0 5.0270833,1.8520833 0.2645833,0.2645833 0 0 0 5.2916663,2.1166666 0.2645833,0.2645833 0 0 0 5.5562503,1.8520833 0.2645833,0.2645833 0 0 0 5.2916663,1.5875 Z m 1.719792,0 A 0.396875,0.396875 0 0 0 6.6145833,1.984375 0.396875,0.396875 0 0 0 7.0114583,2.38125 0.396875,0.396875 0 0 0 7.4083333,1.984375 0.396875,0.396875 0 0 0 7.0114583,1.5875 Z M 5.8208333,6.6145833 4.4979166,8.7312499 H 8.2020833 L 6.8791663,6.6145833 Z"
     id="path823"
     inkscape:connector-curvature="0" />
</svg>
