<?xml version="1.0" encoding="UTF-8" standalone="no"?>
<svg
   xmlns:dc="http://purl.org/dc/elements/1.1/"
   xmlns:cc="http://creativecommons.org/ns#"
   xmlns:rdf="http://www.w3.org/1999/02/22-rdf-syntax-ns#"
   xmlns:svg="http://www.w3.org/2000/svg"
   xmlns="http://www.w3.org/2000/svg"
   xmlns:sodipodi="http://sodipodi.sourceforge.net/DTD/sodipodi-0.dtd"
   xmlns:inkscape="http://www.inkscape.org/namespaces/inkscape"
   width="48"
   height="48"
   viewBox="0 0 12.7 12.7"
   version="1.1"
   id="svg4"
   sodipodi:docname="yandex-disk.svg"
   inkscape:version="0.92.4 (5da689c313, 2019-01-14)">
  <metadata
     id="metadata10">
    <rdf:RDF>
      <cc:Work
         rdf:about="">
        <dc:format>image/svg+xml</dc:format>
        <dc:type
           rdf:resource="http://purl.org/dc/dcmitype/StillImage" />
        <dc:title></dc:title>
      </cc:Work>
    </rdf:RDF>
  </metadata>
  <defs
     id="defs8" />
  <sodipodi:namedview
     pagecolor="#ffffff"
     bordercolor="#666666"
     borderopacity="1"
     objecttolerance="10"
     gridtolerance="10"
     guidetolerance="10"
     inkscape:pageopacity="0"
     inkscape:pageshadow="2"
     inkscape:window-width="1087"
     inkscape:window-height="480"
     id="namedview6"
     showgrid="false"
     inkscape:zoom="4.9166667"
     inkscape:cx="2.1355932"
     inkscape:cy="24"
     inkscape:window-x="0"
     inkscape:window-y="25"
     inkscape:window-maximized="0"
     inkscape:current-layer="svg4" />
  <path
     d="M 6.34,0.07 A 6.29,6.29 0 0 0 0.05,6.37 6.29,6.29 0 0 0 6.35,12.65 6.29,6.29 0 0 0 12.63,6.36 6.29,6.29 0 0 0 6.34,0.07 Z M 6.32,1 6.33,1.01 a 5.4,5.4 0 0 1 5.4,5.4 5.4,5.4 0 0 1 -5.4,5.41 A 5.4,5.4 0 0 1 0.92,6.42 5.4,5.4 0 0 1 6.32,1 Z m 0,2.53 A 2.9,2.9 0 0 0 4.29,4.34 C 3.99,4.63 3.8,4.89 3.5,5.49 3.25,5.99 3.23,6.02 2.9,6.4 2.63,6.71 2.42,7.02 2.27,7.33 A 2.5,2.5 0 0 0 2.07,8 0.3,0.3 0 0 0 2.08,8.15 c 0,0.02 0,0.03 0.03,0.05 l 0.02,0.01 c 0.06,0.56 0.57,0.88 1.5,0.94 a 5.38,5.38 0 0 0 0.92,0 8.3,8.3 0 0 0 3.24,-1.02 c 1.6,-0.9 2.84,-2.32 2.84,-3.23 0,-0.23 -0.15,-0.47 -0.37,-0.63 V 4.24 A 0.06,0.06 0 0 0 10.23,4.22 C 10.23,4.2 10.21,4.2 10.2,4.19 A 2.56,2.56 0 0 0 9.8,4 C 9.5,3.9 9.14,3.85 8.42,3.83 7.73,3.81 7.74,3.81 7.41,3.7 A 2.89,2.89 0 0 0 6.33,3.52 Z m 3,1.2 a 3.17,3.17 0 0 1 0.7,0.09 h 0.03 l 0.06,0.08 c 0,0.22 -0.23,0.74 -0.7,1.27 -0.22,0.26 -0.5,0.52 -0.8,0.77 A 0.7,2.1 64.57 0 0 8.78,6.4 0.7,2.1 64.57 0 0 6.58,6.67 0.7,2.1 64.57 0 0 5,8.2 0.7,2.1 64.57 0 0 5.72,8.4 6.16,6.16 0 0 1 4.1,8.65 c 0,0 -0.25,0 -0.42,-0.02 C 3.26,8.6 2.98,8.51 2.84,8.43 2.76,8.37 2.76,8.32 2.74,8.27 L 2.8,8.12 C 2.84,8.01 3.03,7.71 3.33,7.4 3.63,7.1 4.04,6.76 4.5,6.45 5.74,5.62 7.41,4.95 8.67,4.77 8.87,4.74 9.11,4.73 9.32,4.73 Z"
     id="path2"
     inkscape:connector-curvature="0"
     style="fill:#5beedc" />
</svg>
