<?xml version="1.0" encoding="UTF-8" standalone="no"?>
<svg
   xmlns:dc="http://purl.org/dc/elements/1.1/"
   xmlns:cc="http://creativecommons.org/ns#"
   xmlns:rdf="http://www.w3.org/1999/02/22-rdf-syntax-ns#"
   xmlns:svg="http://www.w3.org/2000/svg"
   xmlns="http://www.w3.org/2000/svg"
   xmlns:sodipodi="http://sodipodi.sourceforge.net/DTD/sodipodi-0.dtd"
   xmlns:inkscape="http://www.inkscape.org/namespaces/inkscape"
   width="48"
   height="48"
   viewBox="0 0 12.7 12.7"
   version="1.1"
   id="svg4"
   sodipodi:docname="preferences-system-network-server-dns.svg"
   inkscape:version="0.92.5 (2060ec1f9f, 2020-04-08)">
  <defs
     id="defs8">
  <style
     id="current-color-scheme"
     type="text/css">
      .ColorScheme-Highlight {
        color:#5beedc;
      }
  </style>
  </defs>
  <path
     class="ColorScheme-Highlight"
     style="fill:#5beedc"
     d="M 24 0 A 24 24 0 0 0 0 24 A 24 24 0 0 0 24 48 A 24 24 0 0 0 29 47.462891 L 29 44.388672 A 21 21 0 0 1 24 45 A 21 21 0 0 1 8.3808594 38 L 19 38 L 19 41 L 29 41 L 29 38 L 29 36 L 29 34 L 26 34 L 26 32 L 29 32 L 29 30.015625 C 29 30.009591 29.005756 30.006009 29.005859 30 L 17 30 L 17 10 L 31 10 L 31 29 L 33 29 L 33 9 C 33 8.446 32.554 8 32 8 L 16 8 C 15.446 8 15 8.446 15 9 L 15 31 C 15 31.554 15.446 32 16 32 L 22 32 L 22 34 L 19 34 L 19 36 L 6.796875 36 A 21 21 0 0 1 3 24 A 21 21 0 0 1 24 3 A 21 21 0 0 1 45 24 A 21 21 0 0 1 44.367188 29 L 47.443359 29 A 24 24 0 0 0 48 24 A 24 24 0 0 0 24 0 z M 18 11 L 18 15 L 30 15 L 30 11 L 18 11 z M 18 18 L 18 22 L 30 22 L 30 18 L 18 18 z M 18 25 L 18 29 L 30 29 L 30 25 L 18 25 z M 32 31 C 31.446 31 31 31.446 31 32 L 31 47 C 31 47.554 31.446 48 32 48 L 47 48 C 47.554 48 48 47.554 48 47 L 48 32 C 48 31.446 47.554 31 47 31 L 32 31 z M 39.777344 32.767578 C 40.88151 32.767578 41.907552 32.996745 42.855469 33.455078 C 43.803385 33.902995 44.60026 34.54362 45.246094 35.376953 C 45.63151 35.88737 45.923177 36.444661 46.121094 37.048828 C 46.329427 37.642578 46.433594 38.257161 46.433594 38.892578 C 46.433594 40.267578 46.022135 41.350911 45.199219 42.142578 C 44.376302 42.934245 43.235677 43.345703 41.777344 43.376953 L 41.777344 42.173828 C 41.464844 42.569661 41.105469 42.866536 40.699219 43.064453 C 40.292969 43.251953 39.81901 43.345703 39.277344 43.345703 C 38.38151 43.345703 37.652344 43.022786 37.089844 42.376953 C 36.53776 41.720703 36.261719 40.871745 36.261719 39.830078 C 36.261719 38.788412 36.542969 37.944661 37.105469 37.298828 C 37.667969 36.652995 38.391927 36.330078 39.277344 36.330078 C 39.81901 36.330078 40.292969 36.429036 40.699219 36.626953 C 41.105469 36.814453 41.464844 37.10612 41.777344 37.501953 L 41.777344 36.486328 L 42.886719 36.486328 L 42.886719 42.236328 C 43.647135 42.111328 44.240885 41.76237 44.667969 41.189453 C 45.095052 40.60612 45.308594 39.850911 45.308594 38.923828 C 45.308594 38.371745 45.22526 37.850911 45.058594 37.361328 C 44.902344 36.871745 44.657552 36.41862 44.324219 36.001953 C 43.782552 35.32487 43.121094 34.804036 42.339844 34.439453 C 41.56901 34.07487 40.72526 33.892578 39.808594 33.892578 C 39.16276 33.892578 38.542969 33.975911 37.949219 34.142578 C 37.365885 34.309245 36.824219 34.559245 36.324219 34.892578 C 35.501302 35.434245 34.860677 36.13737 34.402344 37.001953 C 33.94401 37.85612 33.714844 38.788412 33.714844 39.798828 C 33.714844 40.621745 33.865885 41.397786 34.167969 42.126953 C 34.470052 42.845703 34.902344 43.48112 35.464844 44.033203 C 36.00651 44.57487 36.636719 44.986328 37.355469 45.267578 C 38.074219 45.559245 38.845052 45.705078 39.667969 45.705078 C 40.345052 45.705078 41.00651 45.590495 41.652344 45.361328 C 42.298177 45.132161 42.891927 44.809245 43.433594 44.392578 L 44.136719 45.251953 C 43.480469 45.76237 42.766927 46.147786 41.996094 46.408203 C 41.235677 46.679036 40.459635 46.814453 39.667969 46.814453 C 38.699219 46.814453 37.78776 46.642578 36.933594 46.298828 C 36.079427 45.965495 35.31901 45.470703 34.652344 44.814453 C 33.985677 44.158203 33.480469 43.402995 33.136719 42.548828 C 32.792969 41.694662 32.621094 40.777995 32.621094 39.798828 C 32.621094 38.840495 32.798177 37.934245 33.152344 37.080078 C 33.50651 36.225912 34.00651 35.470703 34.652344 34.814453 C 35.329427 34.158203 36.105469 33.652995 36.980469 33.298828 C 37.865885 32.944661 38.798177 32.767578 39.777344 32.767578 z M 39.574219 37.455078 C 38.938802 37.455078 38.433594 37.66862 38.058594 38.095703 C 37.69401 38.522786 37.511719 39.100911 37.511719 39.830078 C 37.511719 40.580078 37.69401 41.16862 38.058594 41.595703 C 38.433594 42.022786 38.94401 42.236328 39.589844 42.236328 C 40.235677 42.236328 40.740885 42.022786 41.105469 41.595703 C 41.470052 41.16862 41.652344 40.580078 41.652344 39.830078 C 41.652344 39.100911 41.464844 38.522786 41.089844 38.095703 C 40.714844 37.66862 40.209635 37.455078 39.574219 37.455078 z "
     transform="scale(0.26458333)"
     id="path870" />
</svg>
