<?xml version="1.0" encoding="UTF-8" standalone="no"?>
<svg
   xmlns:dc="http://purl.org/dc/elements/1.1/"
   xmlns:cc="http://creativecommons.org/ns#"
   xmlns:rdf="http://www.w3.org/1999/02/22-rdf-syntax-ns#"
   xmlns:svg="http://www.w3.org/2000/svg"
   xmlns="http://www.w3.org/2000/svg"
   xmlns:sodipodi="http://sodipodi.sourceforge.net/DTD/sodipodi-0.dtd"
   xmlns:inkscape="http://www.inkscape.org/namespaces/inkscape"
   width="48"
   height="48"
   viewBox="0 0 12.7 12.7"
   version="1.1"
   id="svg4"
   sodipodi:docname="system-users.svg"
   inkscape:version="0.92.5 (2060ec1f9f, 2020-04-08)">
  <defs
     id="defs8">
    <style
       id="current-color-scheme"
       type="text/css">
      .ColorScheme-Highlight {
        color:#5beedc;
      }
  </style>
  </defs>
  <path
     class="ColorScheme-Highlight"
     style="fill:#5beedc"
     d="M 24 0 A 24 24 0 0 0 0 24 A 24 24 0 0 0 24 48 A 24 24 0 0 0 48 24 A 24 24 0 0 0 24 0 z M 24 3 A 21 21 0 0 1 45 24 A 21 21 0 0 1 24 45 A 21 21 0 0 1 3 24 A 21 21 0 0 1 24 3 z M 30 11 A 7 7 0 0 0 23 18 A 7 7 0 0 0 30 25 A 7 7 0 0 0 37 18 A 7 7 0 0 0 30 11 z M 15.5 13 A 5.4999999 5.4999999 0 0 0 10 18.5 A 5.4999999 5.4999999 0 0 0 15.5 24 A 5.4999999 5.4999999 0 0 0 21 18.5 A 5.4999999 5.4999999 0 0 0 15.5 13 z M 12 27 C 10.338 27 9 28.338 9 30 L 8.890625 30 L 8.890625 33.117188 L 21 33.117188 L 21 36 L 39 36 L 39 32 C 39 29.784 37.216 28 35 28 L 25 28 C 23.763542 28 22.675971 28.567396 21.943359 29.443359 C 21.682991 28.050165 20.470971 27 19 27 L 12 27 z "
     transform="scale(0.26458333)"
     id="path823" />
</svg>
