<?xml version="1.0" encoding="UTF-8" standalone="no"?>
<svg
   xmlns:dc="http://purl.org/dc/elements/1.1/"
   xmlns:cc="http://creativecommons.org/ns#"
   xmlns:rdf="http://www.w3.org/1999/02/22-rdf-syntax-ns#"
   xmlns:svg="http://www.w3.org/2000/svg"
   xmlns="http://www.w3.org/2000/svg"
   xmlns:sodipodi="http://sodipodi.sourceforge.net/DTD/sodipodi-0.dtd"
   xmlns:inkscape="http://www.inkscape.org/namespaces/inkscape"
   width="48"
   height="48"
   viewBox="0 0 12.7 12.7"
   version="1.1"
   id="svg4"
   sodipodi:docname="youtrack.svg"
   inkscape:version="0.92.5 (2060ec1f9f, 2020-04-08)">
  <defs
     id="defs8">
  <style
     id="current-color-scheme"
     type="text/css">
      .ColorScheme-Highlight {
        color:#5beedc;
      }
  </style>
  </defs>
  <path
     class="ColorScheme-Highlight"
     style="fill:#5beedc"
     d="M 24 0 A 24 24 0 0 0 0 24 A 24 24 0 0 0 24 48 A 24 24 0 0 0 48 24 A 24 24 0 0 0 24 0 z M 24 3 A 21 21 0 0 1 45 24 A 21 21 0 0 1 24 45 A 21 21 0 0 1 3 24 A 21 21 0 0 1 24 3 z M 24 7 A 17.000006 17.000006 0 0 0 7 24 A 17.000006 17.000006 0 0 0 24 41 A 17.000006 17.000006 0 0 0 41 24 A 17.000006 17.000006 0 0 0 24 7 z M 16 19 L 18 19 L 18 21 A 1.9999999 1.9999999 0 0 0 20 23 A 1.9999999 1.9999999 0 0 0 20.982422 22.738281 L 20.982422 19.009766 L 22.982422 19.009766 L 22.982422 25.009766 C 22.982422 27.225766 21.198422 29.009766 18.982422 29.009766 C 17.435922 29.009766 16.115388 28.131716 15.449219 26.853516 L 17.386719 26.208984 C 17.75099 26.693986 18.326412 27.011719 18.982422 27.011719 C 20.090422 27.011719 20.982422 26.119719 20.982422 25.011719 L 20.982422 24.871094 A 3.9999995 3.9999995 0 0 1 20 25 A 3.9999995 3.9999995 0 0 1 16 21 L 16 19 z M 24 19 L 32 19 L 32 21 L 29 21 L 29 29 L 27 29 L 27 21 L 24 21 L 24 19 z M 17 32 L 31 32 L 31 34 L 17 34 L 17 32 z "
     transform="scale(0.26458333)"
     id="path836" />
</svg>
