<?xml version="1.0" encoding="UTF-8" standalone="no"?>
<svg
   xmlns:dc="http://purl.org/dc/elements/1.1/"
   xmlns:cc="http://creativecommons.org/ns#"
   xmlns:rdf="http://www.w3.org/1999/02/22-rdf-syntax-ns#"
   xmlns:svg="http://www.w3.org/2000/svg"
   xmlns="http://www.w3.org/2000/svg"
   xmlns:sodipodi="http://sodipodi.sourceforge.net/DTD/sodipodi-0.dtd"
   xmlns:inkscape="http://www.inkscape.org/namespaces/inkscape"
   version="1"
   viewBox="0 0 24 24"
   id="svg4"
   sodipodi:docname="airplane-mode-disabled-symbolic.svg"
   inkscape:version="0.92.4 (5da689c313, 2019-01-14)">
  <metadata
     id="metadata10">
    <rdf:RDF>
      <cc:Work
         rdf:about="">
        <dc:format>image/svg+xml</dc:format>
        <dc:type
           rdf:resource="http://purl.org/dc/dcmitype/StillImage" />
        <dc:title></dc:title>
      </cc:Work>
    </rdf:RDF>
  </metadata>
  <defs
     id="defs8" />
  <sodipodi:namedview
     pagecolor="#ffffff"
     bordercolor="#666666"
     borderopacity="1"
     objecttolerance="10"
     gridtolerance="10"
     guidetolerance="10"
     inkscape:pageopacity="0"
     inkscape:pageshadow="2"
     inkscape:window-width="862"
     inkscape:window-height="480"
     id="namedview6"
     showgrid="false"
     inkscape:zoom="9.8333333"
     inkscape:cx="1.0677966"
     inkscape:cy="12"
     inkscape:window-x="0"
     inkscape:window-y="25"
     inkscape:window-maximized="0"
     inkscape:current-layer="svg4" />
  <path
     d="m 21.686,1.245 a 1.588,1.588 0 0 0 -1.393,0.543 l -3.219,3.732 -2.44,-0.296 1.66,1.165 -2.49,1.355 3.442,1.717 -1.834,1.298 0.628,0.84 4.266,7.098 c 0.991,1.404 1.005,1.424 1.834,0.464 0.449,-0.521 0.438,-0.534 0.145,-1.387 L 19.485,7.601 22.706,3.869 A 1.589,1.589 0 0 0 22.539,1.623 1.59,1.59 0 0 0 21.686,1.245 Z M 1.851,6.256 C 1.463,6.285 1.367,6.377 1.148,6.765 L 1.099,6.851 C 0.483,7.956 0.54,7.963 2.12,8.393 L 10.292,10 6.79,16.256 3.364,16.562 c -0.4,0.032 -0.4,0.002 -0.572,0.309 l -0.17,0.304 c -0.333,0.595 0.39,0.731 0.39,0.731 l 3.78,1.602 3.345,2.386 c 0,0 0.497,0.535 0.8,-0.007 l 0.195,-0.347 c 0.165,-0.294 0.147,-0.293 -0.036,-0.65 L 9.57,17.811 13.072,11.555 12.288,10.857 13.825,9.218 10.11,8.225 12.277,6.4 10.417,5.59 2.353,6.24 C 2.143,6.244 1.981,6.247 1.851,6.256 Z"
     id="path2"
     inkscape:connector-curvature="0"
     style="fill:#808080" />
</svg>
