<?xml version="1.0" encoding="UTF-8" standalone="no"?>
<svg
   xmlns:dc="http://purl.org/dc/elements/1.1/"
   xmlns:cc="http://creativecommons.org/ns#"
   xmlns:rdf="http://www.w3.org/1999/02/22-rdf-syntax-ns#"
   xmlns:svg="http://www.w3.org/2000/svg"
   xmlns="http://www.w3.org/2000/svg"
   xmlns:sodipodi="http://sodipodi.sourceforge.net/DTD/sodipodi-0.dtd"
   xmlns:inkscape="http://www.inkscape.org/namespaces/inkscape"
   width="24"
   height="24"
   version="1.1"
   id="svg8"
   sodipodi:docname="audio-volume-medium-symbolic.svg"
   inkscape:version="0.92.4 (5da689c313, 2019-01-14)">
  <metadata
     id="metadata14">
    <rdf:RDF>
      <cc:Work
         rdf:about="">
        <dc:format>image/svg+xml</dc:format>
        <dc:type
           rdf:resource="http://purl.org/dc/dcmitype/StillImage" />
        <dc:title></dc:title>
      </cc:Work>
    </rdf:RDF>
  </metadata>
  <defs
     id="defs12" />
  <sodipodi:namedview
     pagecolor="#ffffff"
     bordercolor="#666666"
     borderopacity="1"
     objecttolerance="10"
     gridtolerance="10"
     guidetolerance="10"
     inkscape:pageopacity="0"
     inkscape:pageshadow="2"
     inkscape:window-width="1087"
     inkscape:window-height="480"
     id="namedview10"
     showgrid="false"
     inkscape:zoom="9.8333333"
     inkscape:cx="1.0677966"
     inkscape:cy="12"
     inkscape:window-x="0"
     inkscape:window-y="25"
     inkscape:window-maximized="0"
     inkscape:current-layer="svg8" />
  <path
     class="ColorScheme-Text"
     d="M 16.155,7.364 15.481,8.44 A 5,5 0 0 1 17,12.013 5,5 0 0 1 15.488,15.589 l 0.672,1.078 a 6.25,6.25 0 0 0 2.09,-4.655 6.25,6.25 0 0 0 -2.095,-4.648 z"
     id="path2"
     inkscape:connector-curvature="0"
     style="color:#31363b;fill:#808080" />
  <path
     class="ColorScheme-Text"
     d="m 15.581,2.684 -0.305,1.22 a 8.75,8.75 0 0 1 5.474,8.108 8.75,8.75 0 0 1 -5.475,8.098 l 0.304,1.219 A 10,10 0 0 0 22,12.012 10,10 0 0 0 15.581,2.684 Z"
     id="path4"
     inkscape:connector-curvature="0"
     style="color:#31363b;opacity:0.25;fill:#808080" />
  <path
     d="M 11.953,22 A 10,10 0 0 1 2,11.969 10,10 0 0 1 12.014,2 L 12,12 Z"
     id="path6"
     inkscape:connector-curvature="0"
     style="fill:#808080;fill-rule:evenodd" />
</svg>
