<?xml version="1.0" encoding="UTF-8" standalone="no"?>
<svg
   xmlns:dc="http://purl.org/dc/elements/1.1/"
   xmlns:cc="http://creativecommons.org/ns#"
   xmlns:rdf="http://www.w3.org/1999/02/22-rdf-syntax-ns#"
   xmlns:svg="http://www.w3.org/2000/svg"
   xmlns="http://www.w3.org/2000/svg"
   xmlns:sodipodi="http://sodipodi.sourceforge.net/DTD/sodipodi-0.dtd"
   xmlns:inkscape="http://www.inkscape.org/namespaces/inkscape"
   width="24"
   height="24"
   viewBox="0 0 6.35 6.35"
   version="1.1"
   id="svg4"
   sodipodi:docname="bumblebee-inactive-symbolic.svg"
   inkscape:version="0.92.4 (5da689c313, 2019-01-14)">
  <metadata
     id="metadata10">
    <rdf:RDF>
      <cc:Work
         rdf:about="">
        <dc:format>image/svg+xml</dc:format>
        <dc:type
           rdf:resource="http://purl.org/dc/dcmitype/StillImage" />
        <dc:title></dc:title>
      </cc:Work>
    </rdf:RDF>
  </metadata>
  <defs
     id="defs8" />
  <sodipodi:namedview
     pagecolor="#ffffff"
     bordercolor="#666666"
     borderopacity="1"
     objecttolerance="10"
     gridtolerance="10"
     guidetolerance="10"
     inkscape:pageopacity="0"
     inkscape:pageshadow="2"
     inkscape:window-width="862"
     inkscape:window-height="480"
     id="namedview6"
     showgrid="false"
     inkscape:zoom="9.8333333"
     inkscape:cx="1.0677966"
     inkscape:cy="12"
     inkscape:window-x="0"
     inkscape:window-y="25"
     inkscape:window-maximized="0"
     inkscape:current-layer="svg4" />
  <path
     d="m 2.82,1.6 a 2.45,2.45 0 0 0 -0.03,0 H 2.62 A 4.5,4.5 0 0 0 0.24,2.79 c 0,0 0.62,1.78 2.37,1.95 l 0.25,0.02 h 0.2 V 4.75 A 6.3,6.3 0 0 0 6.1,3.7 C 6,3.6 5.51,3.36 5.38,3.26 4.7,3.86 4,4.36 3.06,4.42 A 3.02,3.02 0 0 1 2.62,4.41 C 1.34,4.25 0.89,2.84 0.89,2.84 c 0,0 0.58,-0.85 1.72,-0.94 h 0.16 l 0.29,0.02 c 0.84,0.15 1.38,0.87 1.38,0.87 0,0 -0.65,0.9 -1.38,1.02 A 0.96,0.96 0 0 1 2.61,3.77 C 2.06,3.58 1.89,2.95 1.89,2.95 c 0,0 0.31,-0.39 0.71,-0.33 0.23,0.03 0.35,0.1 0.46,0.21 0.09,0.1 0.17,0.24 0.28,0.42 L 3.87,2.79 c 0,0 -0.3,-0.39 -0.81,-0.5 a 1.25,1.25 0 0 0 -0.46,0 c -0.77,0.08 -1.23,0.6 -1.23,0.6 0,0 0.27,1 1.23,1.18 a 1.65,1.65 0 0 0 0.46,0 C 4.12,3.98 5.1,2.8 5.1,2.8 5.1,2.8 4.3,1.75 3.06,1.6 a 2.45,2.45 0 0 0 -0.24,0 z"
     id="path2"
     inkscape:connector-curvature="0"
     style="opacity:0.5;fill:#808080;fill-rule:evenodd" />
</svg>
