<?xml version="1.0" encoding="UTF-8" standalone="no"?>
<svg
   xmlns:dc="http://purl.org/dc/elements/1.1/"
   xmlns:cc="http://creativecommons.org/ns#"
   xmlns:rdf="http://www.w3.org/1999/02/22-rdf-syntax-ns#"
   xmlns:svg="http://www.w3.org/2000/svg"
   xmlns="http://www.w3.org/2000/svg"
   xmlns:sodipodi="http://sodipodi.sourceforge.net/DTD/sodipodi-0.dtd"
   xmlns:inkscape="http://www.inkscape.org/namespaces/inkscape"
   width="24"
   height="24"
   id="svg9"
   version="1.1"
   sodipodi:docname="capslock-disabled-symbolic.svg"
   inkscape:version="0.92.4 (5da689c313, 2019-01-14)">
  <metadata
     id="metadata8">
    <rdf:RDF>
      <cc:Work
         rdf:about="">
        <dc:format>image/svg+xml</dc:format>
        <dc:type
           rdf:resource="http://purl.org/dc/dcmitype/StillImage" />
        <dc:title></dc:title>
      </cc:Work>
    </rdf:RDF>
  </metadata>
  <sodipodi:namedview
     pagecolor="#ffffff"
     bordercolor="#666666"
     borderopacity="1"
     objecttolerance="10"
     gridtolerance="10"
     guidetolerance="10"
     inkscape:pageopacity="0"
     inkscape:pageshadow="2"
     inkscape:window-width="862"
     inkscape:window-height="480"
     id="namedview6"
     showgrid="false"
     inkscape:zoom="9.8333333"
     inkscape:cx="1.0677966"
     inkscape:cy="12"
     inkscape:window-x="0"
     inkscape:window-y="25"
     inkscape:window-maximized="0"
     inkscape:current-layer="svg9" />
  <defs
     id="defs3">
    <style
       id="current-color-scheme" />
  </defs>
  <path
     d="M 12,2 A 10,10 0 0 0 2,12 10,10 0 0 0 12,22 10,10 0 0 0 22,12 10,10 0 0 0 12,2 Z m 0,2.222 A 7.778,7.778 0 0 1 19.778,12 7.778,7.778 0 0 1 12,19.778 7.778,7.778 0 0 1 4.222,12 7.778,7.778 0 0 1 12,4.222 Z m -1.378,2.16 -3.733,10.62 h 2.416 l 0.77,-2.517 h 3.852 l 0.77,2.517 h 2.414 L 13.363,6.382 Z M 12,8.024 c 0.05,0.198 0.114,0.43 0.193,0.697 0.08,0.267 0.158,0.529 0.237,0.786 0.079,0.256 0.143,0.47 0.193,0.638 l 0.77,2.458 h -2.756 l 0.755,-2.458 c 0.04,-0.11 0.094,-0.293 0.163,-0.55 0.08,-0.266 0.16,-0.542 0.239,-0.829 C 11.883,8.47 11.951,8.222 12,8.024 Z"
     id="path818"
     inkscape:connector-curvature="0"
     style="opacity:0.5;fill:#808080;stroke-width:2.5" />
</svg>
