<?xml version="1.0" encoding="UTF-8" standalone="no"?>
<svg
   xmlns:dc="http://purl.org/dc/elements/1.1/"
   xmlns:cc="http://creativecommons.org/ns#"
   xmlns:rdf="http://www.w3.org/1999/02/22-rdf-syntax-ns#"
   xmlns:svg="http://www.w3.org/2000/svg"
   xmlns="http://www.w3.org/2000/svg"
   xmlns:sodipodi="http://sodipodi.sourceforge.net/DTD/sodipodi-0.dtd"
   xmlns:inkscape="http://www.inkscape.org/namespaces/inkscape"
   width="24"
   height="24"
   id="svg9"
   version="1.1"
   sodipodi:docname="daytime-sunset-symbolic.svg"
   inkscape:version="0.92.4 (5da689c313, 2019-01-14)">
  <metadata
     id="metadata8">
    <rdf:RDF>
      <cc:Work
         rdf:about="">
        <dc:format>image/svg+xml</dc:format>
        <dc:type
           rdf:resource="http://purl.org/dc/dcmitype/StillImage" />
        <dc:title></dc:title>
      </cc:Work>
    </rdf:RDF>
  </metadata>
  <sodipodi:namedview
     pagecolor="#ffffff"
     bordercolor="#666666"
     borderopacity="1"
     objecttolerance="10"
     gridtolerance="10"
     guidetolerance="10"
     inkscape:pageopacity="0"
     inkscape:pageshadow="2"
     inkscape:window-width="862"
     inkscape:window-height="480"
     id="namedview6"
     showgrid="false"
     inkscape:zoom="9.8333333"
     inkscape:cx="1.0677966"
     inkscape:cy="12"
     inkscape:window-x="0"
     inkscape:window-y="25"
     inkscape:window-maximized="0"
     inkscape:current-layer="svg9" />
  <defs
     id="defs3">
    <style
       id="current-color-scheme" />
  </defs>
  <path
     d="m 11.656,2.84 a 0.339,0.339 0 0 0 -0.314,0.34 v 2.013 c 0,0.18 0.16,0.319 0.34,0.319 h 0.677 c 0.18,0 0.338,-0.14 0.338,-0.319 V 3.18 C 12.697,3 12.559,2.84 12.359,2.84 h -0.677 a 0.339,0.339 0 0 0 -0.026,0 z m -6.3,2.623 A 0.339,0.339 0 0 0 5.141,5.551 L 4.662,6.029 a 0.339,0.339 0 0 0 0,0.46 l 1.416,1.435 a 0.339,0.339 0 0 0 0.479,0 L 7.035,7.445 a 0.339,0.339 0 0 0 0.08,-0.199 0.339,0.339 0 0 0 0,-0.039 0.339,0.339 0 0 0 -0.08,-0.24 L 5.6,5.55 A 0.339,0.339 0 0 0 5.355,5.462 Z m 13.26,0 A 0.339,0.339 0 0 0 18.4,5.551 l -1.435,1.416 a 0.339,0.339 0 0 0 0,0.478 l 0.478,0.479 a 0.339,0.339 0 0 0 0.479,0 l 1.416,-1.436 a 0.319,0.319 0 0 0 0.1,-0.199 0.319,0.319 0 0 0 0,-0.039 0.339,0.339 0 0 0 -0.1,-0.22 L 18.859,5.55 A 0.339,0.339 0 0 0 18.615,5.463 Z M 12,8.203 a 4.685,4.685 0 0 0 -4.686,4.686 4.685,4.685 0 0 0 0.797,2.592 h 7.778 A 4.685,4.685 0 0 0 16.686,12.889 4.685,4.685 0 0 0 12,8.203 Z m -9.734,4.008 a 0.339,0.339 0 0 0 -0.315,0.338 v 0.678 c 0,0.18 0.14,0.34 0.34,0.34 h 2.014 c 0.18,0 0.318,-0.16 0.318,-0.34 v -0.678 c 0,-0.18 -0.14,-0.338 -0.34,-0.338 H 2.291 a 0.339,0.339 0 0 0 -0.025,0 z m 17.425,0 a 0.339,0.339 0 0 0 -0.314,0.338 v 0.678 c 0,0.18 0.14,0.34 0.34,0.34 h 1.992 c 0.18,0 0.34,-0.16 0.34,-0.34 v -0.678 c 0,-0.18 -0.14,-0.338 -0.34,-0.338 h -2.014 a 0.339,0.339 0 0 0 -0.004,0 z M 9,17.161 l 3,4 3,-4 z"
     id="path4"
     inkscape:connector-curvature="0"
     style="fill:#808080;stroke-width:1.99399996" />
</svg>
