<?xml version="1.0" encoding="UTF-8" standalone="no"?>
<svg
   xmlns:dc="http://purl.org/dc/elements/1.1/"
   xmlns:cc="http://creativecommons.org/ns#"
   xmlns:rdf="http://www.w3.org/1999/02/22-rdf-syntax-ns#"
   xmlns:svg="http://www.w3.org/2000/svg"
   xmlns="http://www.w3.org/2000/svg"
   xmlns:sodipodi="http://sodipodi.sourceforge.net/DTD/sodipodi-0.dtd"
   xmlns:inkscape="http://www.inkscape.org/namespaces/inkscape"
   width="24"
   height="24"
   version="1"
   id="svg11"
   sodipodi:docname="dialog-info-symbolic.svg"
   inkscape:version="0.92.4 (5da689c313, 2019-01-14)">
  <metadata
     id="metadata15">
    <rdf:RDF>
      <cc:Work
         rdf:about="">
        <dc:format>image/svg+xml</dc:format>
        <dc:type
           rdf:resource="http://purl.org/dc/dcmitype/StillImage" />
        <dc:title></dc:title>
      </cc:Work>
    </rdf:RDF>
  </metadata>
  <sodipodi:namedview
     pagecolor="#ffffff"
     bordercolor="#666666"
     borderopacity="1"
     objecttolerance="10"
     gridtolerance="10"
     guidetolerance="10"
     inkscape:pageopacity="0"
     inkscape:pageshadow="2"
     inkscape:window-width="1085"
     inkscape:window-height="480"
     id="namedview13"
     showgrid="false"
     inkscape:zoom="9.8333333"
     inkscape:cx="1.0677966"
     inkscape:cy="12"
     inkscape:window-x="0"
     inkscape:window-y="25"
     inkscape:window-maximized="0"
     inkscape:current-layer="svg11" />
  <defs
     id="defs7">
    <linearGradient
       id="a">
      <stop
         offset="0"
         id="stop2" />
      <stop
         offset="1"
         stop-opacity="0"
         id="stop4" />
    </linearGradient>
  </defs>
  <path
     d="M 12,0.158 A 11.843,11.843 0 0 0 0.156,12.002 11.843,11.843 0 0 0 12,23.842 11.843,11.843 0 0 0 23.844,12.002 11.843,11.843 0 0 0 12,0.158 Z m -0.033,1.76 A 10.182,10.182 0 0 1 22.148,12.102 10.182,10.182 0 0 1 11.967,22.285 10.182,10.182 0 0 1 1.783,12.102 10.182,10.182 0 0 1 11.967,1.918 Z M 12,3.221 A 8.816,8.78 0 0 0 3.184,12 8.816,8.78 0 0 0 12,20.78 8.816,8.78 0 0 0 20.816,12 8.816,8.78 0 0 0 12,3.22 Z m 1.018,2.982 c 0.429,-0.014 0.805,0.331 0.865,0.75 0.192,0.804 -0.663,1.61 -1.447,1.287 -0.968,-0.449 -0.437,-2.09 0.582,-2.037 z m -0.436,3.613 c 0.492,0.04 0.74,0.722 0.484,1.291 -0.37,1.65 -0.949,3.253 -1.261,4.916 0.15,0.657 0.963,-0.14 1.336,-0.308 0.283,-0.33 0.352,0.032 0.455,0.283 -0.752,0.527 -1.489,1.1 -2.344,1.453 -0.805,0.549 -1.576,-0.215 -1.236,-1.058 0.324,-1.541 0.749,-3.06 1.097,-4.596 0.11,-0.83 -0.98,0.015 -1.304,0.209 -0.263,0.33 -0.385,0.09 -0.495,-0.207 0.872,-0.636 1.706,-1.347 2.704,-1.781 0.208,-0.157 0.4,-0.215 0.564,-0.202 z"
     id="path9"
     inkscape:connector-curvature="0"
     style="fill:#808080" />
</svg>
