<?xml version="1.0" encoding="UTF-8" standalone="no"?>
<svg
   xmlns:dc="http://purl.org/dc/elements/1.1/"
   xmlns:cc="http://creativecommons.org/ns#"
   xmlns:rdf="http://www.w3.org/1999/02/22-rdf-syntax-ns#"
   xmlns:svg="http://www.w3.org/2000/svg"
   xmlns="http://www.w3.org/2000/svg"
   xmlns:sodipodi="http://sodipodi.sourceforge.net/DTD/sodipodi-0.dtd"
   xmlns:inkscape="http://www.inkscape.org/namespaces/inkscape"
   width="24"
   height="24"
   version="1"
   id="svg11"
   sodipodi:docname="dialog-error-symbolic.svg"
   inkscape:version="0.92.4 (5da689c313, 2019-01-14)">
  <metadata
     id="metadata15">
    <rdf:RDF>
      <cc:Work
         rdf:about="">
        <dc:format>image/svg+xml</dc:format>
        <dc:type
           rdf:resource="http://purl.org/dc/dcmitype/StillImage" />
        <dc:title></dc:title>
      </cc:Work>
    </rdf:RDF>
  </metadata>
  <sodipodi:namedview
     pagecolor="#ffffff"
     bordercolor="#666666"
     borderopacity="1"
     objecttolerance="10"
     gridtolerance="10"
     guidetolerance="10"
     inkscape:pageopacity="0"
     inkscape:pageshadow="2"
     inkscape:window-width="1085"
     inkscape:window-height="480"
     id="namedview13"
     showgrid="false"
     inkscape:zoom="9.8333333"
     inkscape:cx="1.0677966"
     inkscape:cy="12"
     inkscape:window-x="0"
     inkscape:window-y="25"
     inkscape:window-maximized="0"
     inkscape:current-layer="svg11" />
  <defs
     id="defs7">
    <linearGradient
       id="a">
      <stop
         offset="0"
         id="stop2" />
      <stop
         offset="1"
         stop-opacity="0"
         id="stop4" />
    </linearGradient>
  </defs>
  <path
     d="M 12,0.158 A 11.843,11.843 0 0 0 0.156,12.002 11.843,11.843 0 0 0 12,23.842 11.843,11.843 0 0 0 23.844,12.002 11.843,11.843 0 0 0 12,0.158 Z m -0.033,1.76 a 10.182,10.182 0 0 1 3.56,0.656 L 12,4.195 8.096,2.691 a 10.182,10.182 0 0 1 3.87,-0.773 z m 3.869,0.77 a 10.182,10.182 0 0 1 5.402,5.236 L 17.461,6.459 Z M 7.84,2.807 6.432,6.65 2.523,8.31 A 10.182,10.182 0 0 1 7.84,2.808 Z m 0.297,4.412 c 0.214,0 0.428,0.084 0.592,0.252 L 12,10.828 15.271,7.471 a 0.824,0.824 0 0 1 1.186,0 0.877,0.877 0 0 1 0,1.216 l -3.271,3.358 3.271,3.357 a 0.88,0.88 0 0 1 0,1.22 0.81,0.81 0 0 1 -0.594,0.251 0.806,0.806 0 0 1 -0.592,-0.252 L 12,13.261 8.729,16.621 a 0.806,0.806 0 0 1 -0.592,0.252 0.81,0.81 0 0 1 -0.594,-0.252 0.88,0.88 0 0 1 0,-1.219 L 10.814,12.045 7.543,8.688 a 0.877,0.877 0 0 1 0,-1.217 0.827,0.827 0 0 1 0.594,-0.252 z M 21.33,8.125 a 10.182,10.182 0 0 1 0.818,3.977 10.182,10.182 0 0 1 -0.687,3.65 l -1.647,-3.826 z m -18.836,0.262 1.692,3.93 -1.538,3.86 A 10.182,10.182 0 0 1 1.783,12.102 10.182,10.182 0 0 1 2.494,8.387 Z m 18.883,7.592 a 10.182,10.182 0 0 1 -5.18,5.37 l 1.451,-3.726 z m -18.674,0.32 3.836,1.484 1.617,3.756 a 10.182,10.182 0 0 1 -5.453,-5.24 z m 9.547,3.707 3.582,1.508 a 10.182,10.182 0 0 1 -3.865,0.771 10.182,10.182 0 0 1 -3.469,-0.623 z"
     id="path9"
     inkscape:connector-curvature="0"
     style="fill:#808080" />
</svg>
