<?xml version="1.0" encoding="UTF-8" standalone="no"?>
<svg
   xmlns:dc="http://purl.org/dc/elements/1.1/"
   xmlns:cc="http://creativecommons.org/ns#"
   xmlns:rdf="http://www.w3.org/1999/02/22-rdf-syntax-ns#"
   xmlns:svg="http://www.w3.org/2000/svg"
   xmlns="http://www.w3.org/2000/svg"
   xmlns:sodipodi="http://sodipodi.sourceforge.net/DTD/sodipodi-0.dtd"
   xmlns:inkscape="http://www.inkscape.org/namespaces/inkscape"
   width="24"
   height="24"
   viewBox="0 0 6.35 6.35"
   version="1.1"
   id="svg6"
   sodipodi:docname="display-brightness-medium-symbolic.svg"
   inkscape:version="0.92.4 (5da689c313, 2019-01-14)">
  <metadata
     id="metadata12">
    <rdf:RDF>
      <cc:Work
         rdf:about="">
        <dc:format>image/svg+xml</dc:format>
        <dc:type
           rdf:resource="http://purl.org/dc/dcmitype/StillImage" />
        <dc:title></dc:title>
      </cc:Work>
    </rdf:RDF>
  </metadata>
  <defs
     id="defs10" />
  <sodipodi:namedview
     pagecolor="#ffffff"
     bordercolor="#666666"
     borderopacity="1"
     objecttolerance="10"
     gridtolerance="10"
     guidetolerance="10"
     inkscape:pageopacity="0"
     inkscape:pageshadow="2"
     inkscape:window-width="1085"
     inkscape:window-height="480"
     id="namedview8"
     showgrid="false"
     inkscape:zoom="9.8333333"
     inkscape:cx="1.0677966"
     inkscape:cy="12"
     inkscape:window-x="0"
     inkscape:window-y="25"
     inkscape:window-maximized="0"
     inkscape:current-layer="svg6" />
  <path
     d="M 3.09,0.56 A 0.09,0.09 0 0 0 3,0.66 v 0.51 c 0,0.05 0.04,0.1 0.09,0.1 h 0.17 c 0.05,0 0.09,-0.05 0.09,-0.1 V 0.65 A 0.09,0.09 0 0 0 3.26,0.56 H 3.1 Z M 1.44,1.24 A 0.09,0.09 0 0 0 1.39,1.27 L 1.27,1.39 a 0.09,0.09 0 0 0 0,0.12 l 0.37,0.37 a 0.09,0.09 0 0 0 0.12,0 L 1.88,1.76 a 0.09,0.09 0 0 0 0,-0.12 L 1.51,1.27 A 0.09,0.09 0 0 0 1.45,1.24 Z M 3.17,1.96 A 1.22,1.22 0 0 0 1.96,3.17 1.22,1.22 0 0 0 3.16,4.39 V 1.96 Z M 0.64999997,3 a 0.09,0.09 0 0 0 -0.09,0.09 v 0.17 c 0,0.05 0.04,0.09 0.1,0.09 H 1.17 c 0.05,0 0.1,-0.04 0.1,-0.09 V 3.1 A 0.09,0.09 0 0 0 1.17,3.01 H 0.64999997 Z M 1.7,4.44 A 0.09,0.09 0 0 0 1.65,4.47 L 1.28,4.84 a 0.09,0.09 0 0 0 0,0.12 L 1.4,5.08 a 0.09,0.09 0 0 0 0.12,0 L 1.89,4.71 a 0.09,0.09 0 0 0 0,-0.12 L 1.77,4.47 A 0.09,0.09 0 0 0 1.71,4.44 0.09,0.09 0 0 0 1.7,4.44 Z M 3.1,5.09 A 0.09,0.09 0 0 0 3.01,5.18 V 5.7 c 0,0.05 0.04,0.09 0.09,0.09 h 0.17 c 0.05,0 0.09,-0.04 0.09,-0.1 V 5.18 A 0.09,0.09 0 0 0 3.27,5.08 H 3.1 Z"
     id="path2"
     inkscape:connector-curvature="0"
     style="fill:#808080" />
  <path
     d="M 4.89,1.24 A 0.09,0.09 0 0 0 4.84,1.27 L 4.47,1.64 a 0.09,0.09 0 0 0 0,0.12 l 0.12,0.12 a 0.09,0.09 0 0 0 0.12,0 L 5.08,1.51 a 0.09,0.09 0 0 0 0,-0.12 L 4.96,1.27 A 0.09,0.09 0 0 0 4.9,1.24 0.09,0.09 0 0 0 4.89,1.24 Z M 3.17,1.96 A 1.22,1.22 0 0 0 1.96,3.17 1.22,1.22 0 0 0 3.17,4.4 1.22,1.22 0 0 0 4.4,3.17 1.22,1.22 0 0 0 3.18,1.96 Z M 5.17,3 A 0.09,0.09 0 0 0 5.09,3.09 v 0.17 c 0,0.05 0.04,0.09 0.09,0.09 H 5.7 c 0.05,0 0.09,-0.04 0.09,-0.09 V 3.1 A 0.09,0.09 0 0 0 5.69,3.01 H 5.18 Z M 4.64,4.44 A 0.09,0.09 0 0 0 4.59,4.47 L 4.47,4.59 a 0.09,0.09 0 0 0 0,0.12 l 0.37,0.37 a 0.09,0.09 0 0 0 0.12,0 L 5.08,4.96 a 0.09,0.09 0 0 0 0,-0.12 L 4.71,4.47 A 0.09,0.09 0 0 0 4.65,4.44 Z"
     id="path4"
     inkscape:connector-curvature="0"
     style="fill:#808080;fill-opacity:0.3" />
</svg>
