<?xml version="1.0" encoding="UTF-8" standalone="no"?>
<svg
   xmlns:dc="http://purl.org/dc/elements/1.1/"
   xmlns:cc="http://creativecommons.org/ns#"
   xmlns:rdf="http://www.w3.org/1999/02/22-rdf-syntax-ns#"
   xmlns:svg="http://www.w3.org/2000/svg"
   xmlns="http://www.w3.org/2000/svg"
   xmlns:sodipodi="http://sodipodi.sourceforge.net/DTD/sodipodi-0.dtd"
   xmlns:inkscape="http://www.inkscape.org/namespaces/inkscape"
   width="24"
   height="24"
   id="svg7"
   version="1.1"
   sodipodi:docname="mail-attachment-symbolic.svg"
   inkscape:version="0.92.4 (5da689c313, 2019-01-14)">
  <metadata
     id="metadata9">
    <rdf:RDF>
      <cc:Work
         rdf:about="">
        <dc:format>image/svg+xml</dc:format>
        <dc:type
           rdf:resource="http://purl.org/dc/dcmitype/StillImage" />
        <dc:title></dc:title>
      </cc:Work>
    </rdf:RDF>
  </metadata>
  <sodipodi:namedview
     pagecolor="#ffffff"
     bordercolor="#666666"
     borderopacity="1"
     objecttolerance="10"
     gridtolerance="10"
     guidetolerance="10"
     inkscape:pageopacity="0"
     inkscape:pageshadow="2"
     inkscape:window-width="1085"
     inkscape:window-height="480"
     id="namedview7"
     showgrid="false"
     inkscape:zoom="9.8333333"
     inkscape:cx="1.0677966"
     inkscape:cy="12"
     inkscape:window-x="0"
     inkscape:window-y="25"
     inkscape:window-maximized="0"
     inkscape:current-layer="svg7" />
  <defs
     id="defs3">
    <style
       id="current-color-scheme" />
  </defs>
  <g
     transform="matrix(0.01806,0,0,-0.01806,0.44,23.68)"
     id="g6"
     style="fill:#808080">
    <path
       d="M 579,1170 C 471,1151 383,1080 355,988 337,927 333,601 350,569 c 14,-25 56,-25 70,0 6,12 10,97 10,206 0,198 4,217 52,262 73,69 243,69 316,0 52,-48 52,-52 52,-422 V 270 l -33,-36 c -28,-31 -41,-37 -83,-41 -63,-5 -113,19 -136,67 -15,30 -18,65 -18,243 v 207 l 29,41 30,40 25,-38 c 19,-28 26,-51 26,-86 0,-61 14,-87 45,-87 32,0 45,27 45,96 0,52 -4,64 -47,126 -26,37 -55,75 -64,84 -32,29 -64,10 -119,-71 l -51,-76 3,-248 3,-249 30,-43 C 637,54 876,88 925,254 c 22,75 22,660 -1,735 -38,128 -190,208 -345,181 z"
       id="path4"
       inkscape:connector-curvature="0" />
  </g>
</svg>
