<?xml version="1.0" encoding="UTF-8" standalone="no"?>
<svg
   xmlns:dc="http://purl.org/dc/elements/1.1/"
   xmlns:cc="http://creativecommons.org/ns#"
   xmlns:rdf="http://www.w3.org/1999/02/22-rdf-syntax-ns#"
   xmlns:svg="http://www.w3.org/2000/svg"
   xmlns="http://www.w3.org/2000/svg"
   xmlns:sodipodi="http://sodipodi.sourceforge.net/DTD/sodipodi-0.dtd"
   xmlns:inkscape="http://www.inkscape.org/namespaces/inkscape"
   width="24"
   height="24"
   version="1.1"
   id="svg4"
   sodipodi:docname="media-playlist-shuffle-rtl-symbolic.svg"
   inkscape:version="0.92.4 (5da689c313, 2019-01-14)">
  <metadata
     id="metadata10">
    <rdf:RDF>
      <cc:Work
         rdf:about="">
        <dc:format>image/svg+xml</dc:format>
        <dc:type
           rdf:resource="http://purl.org/dc/dcmitype/StillImage" />
        <dc:title></dc:title>
      </cc:Work>
    </rdf:RDF>
  </metadata>
  <defs
     id="defs8" />
  <sodipodi:namedview
     pagecolor="#ffffff"
     bordercolor="#666666"
     borderopacity="1"
     objecttolerance="10"
     gridtolerance="10"
     guidetolerance="10"
     inkscape:pageopacity="0"
     inkscape:pageshadow="2"
     inkscape:window-width="1085"
     inkscape:window-height="480"
     id="namedview6"
     showgrid="false"
     inkscape:zoom="9.8333333"
     inkscape:cx="1.0677966"
     inkscape:cy="12"
     inkscape:window-x="0"
     inkscape:window-y="25"
     inkscape:window-maximized="0"
     inkscape:current-layer="svg4" />
  <path
     d="m 6.56,2.36 v 2.76 a 6.27,7 0 0 1 0.16,0 6.27,7 0 0 1 4.5,2.12 7.5,8.37 0 0 0 -0.1,0.14 7.5,8.37 0 0 0 -0.39,0.71 7.5,8.37 0 0 0 -0.33,0.76 7.5,8.37 0 0 0 -0.2,0.6 4.22,4.7 0 0 0 -3.47,-2.05 4.22,4.7 0 0 0 -0.16,0 v 3.22 L 1.05,6.5 Z M 17.2,5.1 a 6.27,7 0 0 1 5.48,3.62 H 20.14 A 4.22,4.7 0 0 0 17.2,7.4 a 4.22,4.7 0 0 0 -4.22,4.7 6.27,7 0 0 1 -6.27,7 6.27,7 0 0 1 -0.16,-0.01 v 2.55 l -5.51,-4.13 5.5,-4.13 v 3.42 a 4.22,4.7 0 0 0 0.17,0.01 4.22,4.7 0 0 0 4.22,-4.7 6.27,7 0 0 1 6.27,-7 z m -3.7,9.25 a 4.22,4.7 0 0 0 3.7,2.45 4.22,4.7 0 0 0 3.39,-1.92 h 2.35 a 6.27,7 0 0 1 -5.74,4.2 6.27,7 0 0 1 -4.68,-2.34 7.5,8.37 0 0 0 0.35,-0.63 7.5,8.37 0 0 0 0.32,-0.76 7.5,8.37 0 0 0 0.26,-0.78 7.5,8.37 0 0 0 0.05,-0.22 z"
     id="path2"
     inkscape:connector-curvature="0"
     style="fill:#808080;stroke-width:4.13000011" />
</svg>
