<?xml version="1.0" encoding="UTF-8" standalone="no"?>
<svg
   xmlns:dc="http://purl.org/dc/elements/1.1/"
   xmlns:cc="http://creativecommons.org/ns#"
   xmlns:rdf="http://www.w3.org/1999/02/22-rdf-syntax-ns#"
   xmlns:svg="http://www.w3.org/2000/svg"
   xmlns="http://www.w3.org/2000/svg"
   xmlns:sodipodi="http://sodipodi.sourceforge.net/DTD/sodipodi-0.dtd"
   xmlns:inkscape="http://www.inkscape.org/namespaces/inkscape"
   width="24"
   height="24"
   version="1.1"
   id="svg4"
   sodipodi:docname="media-playlist-no-repeat-symbolic.svg"
   inkscape:version="0.92.4 (5da689c313, 2019-01-14)">
  <metadata
     id="metadata10">
    <rdf:RDF>
      <cc:Work
         rdf:about="">
        <dc:format>image/svg+xml</dc:format>
        <dc:type
           rdf:resource="http://purl.org/dc/dcmitype/StillImage" />
        <dc:title></dc:title>
      </cc:Work>
    </rdf:RDF>
  </metadata>
  <defs
     id="defs8" />
  <sodipodi:namedview
     pagecolor="#ffffff"
     bordercolor="#666666"
     borderopacity="1"
     objecttolerance="10"
     gridtolerance="10"
     guidetolerance="10"
     inkscape:pageopacity="0"
     inkscape:pageshadow="2"
     inkscape:window-width="1085"
     inkscape:window-height="480"
     id="namedview6"
     showgrid="false"
     inkscape:zoom="9.8333333"
     inkscape:cx="1.0677966"
     inkscape:cy="12"
     inkscape:window-x="0"
     inkscape:window-y="25"
     inkscape:window-maximized="0"
     inkscape:current-layer="svg4" />
  <path
     d="M 7.42,4.2 V 6.43 H 5.2 C 3.27,6.44 2.13,7.96 1.98,9.48 a 9.7,9.7 0 0 0 0.01,0.99 l 0.02,0.14 0.07,0.54 0.03,0.32 c 0.01,0.04 0.03,0.09 0.03,0.14 l 0.13,0.58 c 0.03,0.08 0.04,0.17 0.06,0.26 l 0.04,0.1 0.2,0.62 0.08,0.23 0.04,0.1 0.26,0.57 0.1,0.24 0.06,0.09 c 0.1,0.2 0.22,0.39 0.33,0.58 l 0.12,0.2 0.04,0.06 0.37,0.52 0.17,0.24 0.06,0.06 0.38,0.43 0.22,0.26 0.05,0.05 0.4,0.37 0.29,0.27 0.05,0.03 a 9.99,9.99 0 0 0 12.82,0 l 0.05,-0.03 0.29,-0.27 0.4,-0.37 0.05,-0.05 0.22,-0.26 0.38,-0.43 0.06,-0.06 c 0.06,-0.08 0.1,-0.16 0.17,-0.24 l 0.37,-0.52 0.04,-0.06 0.12,-0.2 c 0.11,-0.2 0.23,-0.38 0.33,-0.58 l 0.05,-0.09 0.11,-0.24 0.26,-0.58 c 0,-0.03 0.03,-0.06 0.04,-0.1 l 0.07,-0.22 c 0.08,-0.2 0.15,-0.4 0.21,-0.62 l 0.04,-0.1 c 0.02,-0.09 0.03,-0.18 0.06,-0.26 l 0.13,-0.58 c 0,-0.05 0.02,-0.1 0.03,-0.14 0.02,-0.1 0.02,-0.21 0.03,-0.32 l 0.07,-0.54 0.02,-0.14 A 10.04,10.04 0 0 0 22.02,9.48 C 21.87,7.96 20.73,6.44 18.8,6.43 h -5.54 v 2.22 h 5.54 c 0.62,0 1.11,0.5 1.11,1.11 0,2.16 -0.87,4.12 -2.28,5.55 l -0.09,0.1 -0.23,0.2 -0.34,0.3 -0.29,0.22 -0.33,0.24 -0.29,0.17 c -0.14,0.08 -0.27,0.17 -0.41,0.24 l -0.21,0.1 -0.51,0.23 -0.22,0.08 -0.51,0.17 -0.28,0.07 c -0.16,0.04 -0.31,0.08 -0.47,0.1 a 7.93,7.93 0 0 1 -2.9,0 c -0.16,-0.02 -0.31,-0.06 -0.47,-0.1 L 9.8,17.36 A 7.9,7.9 0 0 1 9.3,17.19 L 9.07,17.11 A 7.92,7.92 0 0 1 8.57,16.88 L 8.35,16.78 C 8.21,16.71 8.08,16.62 7.94,16.54 L 7.65,16.37 7.32,16.13 7.02,15.91 6.69,15.61 6.46,15.41 A 7.89,7.89 0 0 1 4.09,9.77 c 0,-0.63 0.5,-1.12 1.1,-1.12 h 2.23 v 2.22 l 4.44,-3.33 z"
     id="path2"
     inkscape:connector-curvature="0"
     style="fill:#808080;fill-opacity:0.3;stroke-width:1.11000001" />
</svg>
