<?xml version="1.0" encoding="UTF-8" standalone="no"?>
<svg
   xmlns:dc="http://purl.org/dc/elements/1.1/"
   xmlns:cc="http://creativecommons.org/ns#"
   xmlns:rdf="http://www.w3.org/1999/02/22-rdf-syntax-ns#"
   xmlns:svg="http://www.w3.org/2000/svg"
   xmlns="http://www.w3.org/2000/svg"
   xmlns:sodipodi="http://sodipodi.sourceforge.net/DTD/sodipodi-0.dtd"
   xmlns:inkscape="http://www.inkscape.org/namespaces/inkscape"
   width="24"
   height="24"
   version="1.1"
   id="svg4"
   sodipodi:docname="media-playlist-repeat-song-rtl-symbolic.svg"
   inkscape:version="0.92.4 (5da689c313, 2019-01-14)">
  <metadata
     id="metadata10">
    <rdf:RDF>
      <cc:Work
         rdf:about="">
        <dc:format>image/svg+xml</dc:format>
        <dc:type
           rdf:resource="http://purl.org/dc/dcmitype/StillImage" />
        <dc:title></dc:title>
      </cc:Work>
    </rdf:RDF>
  </metadata>
  <defs
     id="defs8" />
  <sodipodi:namedview
     pagecolor="#ffffff"
     bordercolor="#666666"
     borderopacity="1"
     objecttolerance="10"
     gridtolerance="10"
     guidetolerance="10"
     inkscape:pageopacity="0"
     inkscape:pageshadow="2"
     inkscape:window-width="1085"
     inkscape:window-height="480"
     id="namedview6"
     showgrid="false"
     inkscape:zoom="9.8333333"
     inkscape:cx="1.0677966"
     inkscape:cy="12"
     inkscape:window-x="0"
     inkscape:window-y="25"
     inkscape:window-maximized="0"
     inkscape:current-layer="svg4" />
  <path
     d="m 16.58,4.14 -4.44,3.33 4.44,3.34 V 8.58 h 2.22 c 0.62,0 1.11,0.5 1.11,1.11 0,2.17 -0.87,4.13 -2.28,5.56 l -0.09,0.09 -0.23,0.2 A 4.97,4.97 0 0 1 16.77,16 c 0.09,0.37 0.23,0.73 0.23,1.13 0,0.44 -0.15,0.84 -0.25,1.24 0.56,-0.3 1.17,-0.55 1.66,-0.96 l 0.05,-0.04 0.29,-0.26 0.4,-0.38 0.05,-0.04 0.22,-0.26 0.38,-0.43 0.06,-0.07 0.17,-0.23 0.37,-0.52 0.04,-0.06 0.12,-0.2 c 0.11,-0.2 0.23,-0.39 0.33,-0.59 l 0.05,-0.08 0.11,-0.24 0.26,-0.58 c 0,-0.03 0.03,-0.07 0.04,-0.1 l 0.07,-0.22 c 0.08,-0.2 0.15,-0.41 0.21,-0.62 l 0.04,-0.1 c 0.02,-0.1 0.03,-0.18 0.06,-0.26 l 0.13,-0.59 0.03,-0.14 c 0.02,-0.1 0.02,-0.2 0.03,-0.31 l 0.07,-0.54 0.02,-0.14 a 10.04,10.04 0 0 0 0.01,-1 C 21.87,7.89 20.73,6.38 18.8,6.36 H 16.58 Z M 5.2,6.36 C 3.27,6.38 2.13,7.89 1.98,9.42 a 9.71,9.71 0 0 0 0.01,0.99 l 0.02,0.14 0.07,0.54 0.03,0.31 0.03,0.14 0.13,0.59 c 0.03,0.08 0.04,0.17 0.06,0.25 l 0.04,0.1 0.2,0.63 0.08,0.22 0.04,0.1 0.26,0.58 0.1,0.24 0.06,0.08 c 0.1,0.2 0.22,0.4 0.33,0.59 l 0.12,0.2 0.04,0.06 0.37,0.52 0.17,0.23 0.06,0.07 0.38,0.43 0.22,0.26 0.05,0.04 0.4,0.38 0.29,0.26 0.05,0.04 c 0.49,0.4 1.1,0.65 1.66,0.96 C 7.15,17.97 7,17.57 7,17.13 7,16.73 7.14,16.37 7.23,16 L 7.03,15.85 6.69,15.55 6.46,15.34 A 7.89,7.89 0 0 1 4.09,9.7 c 0,-0.62 0.5,-1.11 1.1,-1.11 h 5.55 V 6.36 H 5.85 Z m 6.8,6.88 a 3.9,3.9 0 1 0 0,7.79 3.9,3.9 0 0 0 0,-7.79 z m -0.56,1.11 h 1.12 v 5.56 h -1.12 v -3.89 h -1.1 v -0.55 c 1.1,0 1.1,-1.12 1.1,-1.12 z"
     id="path2"
     inkscape:connector-curvature="0"
     style="fill:#808080;stroke-width:1.11000001" />
</svg>
