<?xml version="1.0" encoding="UTF-8" standalone="no"?>
<svg
   xmlns:dc="http://purl.org/dc/elements/1.1/"
   xmlns:cc="http://creativecommons.org/ns#"
   xmlns:rdf="http://www.w3.org/1999/02/22-rdf-syntax-ns#"
   xmlns:svg="http://www.w3.org/2000/svg"
   xmlns="http://www.w3.org/2000/svg"
   xmlns:sodipodi="http://sodipodi.sourceforge.net/DTD/sodipodi-0.dtd"
   xmlns:inkscape="http://www.inkscape.org/namespaces/inkscape"
   width="24"
   height="24"
   version="1.1"
   id="svg6"
   sodipodi:docname="microphone-sensitivity-low-symbolic.svg"
   inkscape:version="0.92.4 (5da689c313, 2019-01-14)">
  <metadata
     id="metadata12">
    <rdf:RDF>
      <cc:Work
         rdf:about="">
        <dc:format>image/svg+xml</dc:format>
        <dc:type
           rdf:resource="http://purl.org/dc/dcmitype/StillImage" />
        <dc:title></dc:title>
      </cc:Work>
    </rdf:RDF>
  </metadata>
  <defs
     id="defs10" />
  <sodipodi:namedview
     pagecolor="#ffffff"
     bordercolor="#666666"
     borderopacity="1"
     objecttolerance="10"
     gridtolerance="10"
     guidetolerance="10"
     inkscape:pageopacity="0"
     inkscape:pageshadow="2"
     inkscape:window-width="1085"
     inkscape:window-height="480"
     id="namedview8"
     showgrid="false"
     inkscape:zoom="9.8333333"
     inkscape:cx="1.0677966"
     inkscape:cy="12"
     inkscape:window-x="0"
     inkscape:window-y="25"
     inkscape:window-maximized="0"
     inkscape:current-layer="svg6" />
  <path
     d="M 10.07,3.92 A 5.52,5.65 0 0 0 4.54,9.56 5.52,5.65 0 0 0 10.07,15.21 5.52,5.65 0 0 0 15.59,9.56 5.52,5.65 0 0 0 10.07,3.92 Z M 1.63,9.96 a 8.44,8.63 0 0 0 0,0.05 8.44,8.63 0 0 0 7.37,8.55 v 5.33 h 2.16 v -5.33 a 8.44,8.63 0 0 0 7.34,-8.55 8.44,8.63 0 0 0 0,-0.05 h -1.95 a 6.5,6.64 0 0 1 0,0.05 6.5,6.64 0 0 1 -6.5,6.64 6.5,6.64 0 0 1 -6.49,-6.64 6.5,6.64 0 0 1 0,-0.05 z m 18.3,8.8 v 5.32 h 2.86 v -5.32 z"
     id="path2"
     inkscape:connector-curvature="0"
     style="fill:#808080;stroke-width:5.78999996" />
  <path
     d="m 19.93,3.98 h 2.86 v 20.1 h -2.86 z"
     id="path4"
     inkscape:connector-curvature="0"
     style="fill:#808080;fill-opacity:0.3;stroke-width:2.98000002" />
</svg>
