<?xml version="1.0" encoding="UTF-8" standalone="no"?>
<svg
   xmlns:dc="http://purl.org/dc/elements/1.1/"
   xmlns:cc="http://creativecommons.org/ns#"
   xmlns:rdf="http://www.w3.org/1999/02/22-rdf-syntax-ns#"
   xmlns:svg="http://www.w3.org/2000/svg"
   xmlns="http://www.w3.org/2000/svg"
   xmlns:sodipodi="http://sodipodi.sourceforge.net/DTD/sodipodi-0.dtd"
   xmlns:inkscape="http://www.inkscape.org/namespaces/inkscape"
   width="24"
   height="24"
   version="1.1"
   id="svg6"
   sodipodi:docname="microphone-sensitivity-muted-symbolic.svg"
   inkscape:version="0.92.4 (5da689c313, 2019-01-14)">
  <metadata
     id="metadata12">
    <rdf:RDF>
      <cc:Work
         rdf:about="">
        <dc:format>image/svg+xml</dc:format>
        <dc:type
           rdf:resource="http://purl.org/dc/dcmitype/StillImage" />
        <dc:title></dc:title>
      </cc:Work>
    </rdf:RDF>
  </metadata>
  <defs
     id="defs10" />
  <sodipodi:namedview
     pagecolor="#ffffff"
     bordercolor="#666666"
     borderopacity="1"
     objecttolerance="10"
     gridtolerance="10"
     guidetolerance="10"
     inkscape:pageopacity="0"
     inkscape:pageshadow="2"
     inkscape:window-width="1085"
     inkscape:window-height="480"
     id="namedview8"
     showgrid="false"
     inkscape:zoom="9.8333333"
     inkscape:cx="1.0677966"
     inkscape:cy="12"
     inkscape:window-x="0"
     inkscape:window-y="25"
     inkscape:window-maximized="0"
     inkscape:current-layer="svg6" />
  <path
     d="m 19.93,3.98 h 2.86 v 20.1 h -2.86 z"
     id="path2"
     inkscape:connector-curvature="0"
     style="fill:#808080;fill-opacity:0.3;stroke-width:2.98000002" />
  <path
     d="M 2.98,2.86 1.45,4.3 4.8,7.84 a 5.55,5.68 0 0 0 -0.3,1.76 5.55,5.68 0 0 0 5.56,5.67 5.55,5.68 0 0 0 1.54,-0.23 l 1.06,1.12 a 6.53,6.68 0 0 1 -2.6,0.56 6.53,6.68 0 0 1 -6.53,-6.67 6.53,6.68 0 0 1 0,-0.06 H 1.58 a 8.49,8.68 0 0 0 0,0.06 8.49,8.68 0 0 0 7.42,8.6 V 24 h 2.17 v -5.36 a 8.49,8.68 0 0 0 2.91,-0.97 l 2.53,2.66 1.52,-1.44 z m 7.09,1.06 a 5.55,5.68 0 0 0 -3.3,1.11 l 7.65,8.1 A 5.55,5.68 0 0 0 15.62,9.6 5.55,5.68 0 0 0 10.07,3.92 Z m 6.53,6.07 a 6.53,6.68 0 0 1 0,0.06 6.53,6.68 0 0 1 -1.3,4 l 1.36,1.44 a 8.49,8.68 0 0 0 1.9,-5.44 8.49,8.68 0 0 0 0,-0.06 z"
     id="path4"
     inkscape:connector-curvature="0"
     style="fill:#808080;stroke-width:5.82000017" />
</svg>
