<?xml version="1.0" encoding="UTF-8" standalone="no"?>
<svg
   xmlns:dc="http://purl.org/dc/elements/1.1/"
   xmlns:cc="http://creativecommons.org/ns#"
   xmlns:rdf="http://www.w3.org/1999/02/22-rdf-syntax-ns#"
   xmlns:svg="http://www.w3.org/2000/svg"
   xmlns="http://www.w3.org/2000/svg"
   xmlns:sodipodi="http://sodipodi.sourceforge.net/DTD/sodipodi-0.dtd"
   xmlns:inkscape="http://www.inkscape.org/namespaces/inkscape"
   width="24"
   height="24"
   version="1.1"
   id="svg6"
   sodipodi:docname="network-wired-no-route-symbolic.svg"
   inkscape:version="0.92.4 (5da689c313, 2019-01-14)">
  <metadata
     id="metadata12">
    <rdf:RDF>
      <cc:Work
         rdf:about="">
        <dc:format>image/svg+xml</dc:format>
        <dc:type
           rdf:resource="http://purl.org/dc/dcmitype/StillImage" />
        <dc:title></dc:title>
      </cc:Work>
    </rdf:RDF>
  </metadata>
  <defs
     id="defs10" />
  <sodipodi:namedview
     pagecolor="#ffffff"
     bordercolor="#666666"
     borderopacity="1"
     objecttolerance="10"
     gridtolerance="10"
     guidetolerance="10"
     inkscape:pageopacity="0"
     inkscape:pageshadow="2"
     inkscape:window-width="1085"
     inkscape:window-height="480"
     id="namedview8"
     showgrid="false"
     inkscape:zoom="9.8333333"
     inkscape:cx="1.0677966"
     inkscape:cy="12"
     inkscape:window-x="0"
     inkscape:window-y="25"
     inkscape:window-maximized="0"
     inkscape:current-layer="svg6" />
  <path
     d="M 18.72,4.02 16.46,6.28 A 4.8,4.8 0 0 0 13.79,5.46 4.8,4.8 0 0 0 10.38,6.89 l 6.79,6.8 A 4.8,4.8 0 0 0 18.6,10.26 4.8,4.8 0 0 0 17.83,7.68 L 20.11,5.4 Z m -12,6.45 a 4.8,4.8 0 0 0 -1.39,3.37 4.8,4.8 0 0 0 0.82,2.68 l -2.44,2.44 1.38,1.39 2.46,-2.46 a 4.8,4.8 0 0 0 2.59,0.76 4.8,4.8 0 0 0 3.38,-1.39 l -6.8,-6.8 z"
     id="path2"
     inkscape:connector-curvature="0"
     style="fill:#808080;fill-opacity:0.3" />
  <path
     d="M 11.72,4.5 C 9.26,4.64 7.37,6.54 7.5,9 h 3 C 10.46,8.16 11.06,7.55 11.9,7.5 a 1.48,1.48 0 0 1 1.6,1.41 v 0.05 c 0,0.2 -0.04,0.49 -0.18,0.65 a 6.97,6.97 0 0 1 -1.04,0.99 5.73,5.73 0 0 0 -1.08,1.03 3.1,3.1 0 0 0 -0.7,1.87 c 0,0.8 0.71,1.5 1.5,1.5 0.8,0 1.51,-0.7 1.5,-1.5 0,0 -0.02,0.05 0.05,-0.05 0.07,-0.09 0.27,-0.25 0.56,-0.46 1.82,-1.38 2.4,-2.16 2.4,-4.27 A 4.54,4.54 0 0 0 11.72,4.51 Z m 0.22,12 a 1.5003,1.5003 0 0 0 0.06,3 1.5,1.5 0 1 0 0,-3 1.5,1.5 0 0 0 -0.06,0 z"
     id="path4"
     inkscape:connector-curvature="0"
     style="fill:#808080" />
</svg>
