<?xml version="1.0" encoding="UTF-8" standalone="no"?>
<svg
   xmlns:dc="http://purl.org/dc/elements/1.1/"
   xmlns:cc="http://creativecommons.org/ns#"
   xmlns:rdf="http://www.w3.org/1999/02/22-rdf-syntax-ns#"
   xmlns:svg="http://www.w3.org/2000/svg"
   xmlns="http://www.w3.org/2000/svg"
   xmlns:sodipodi="http://sodipodi.sourceforge.net/DTD/sodipodi-0.dtd"
   xmlns:inkscape="http://www.inkscape.org/namespaces/inkscape"
   height="24"
   width="24"
   version="1.1"
   id="svg4"
   sodipodi:docname="network-vpn-error-symbolic.svg"
   inkscape:version="0.92.4 (5da689c313, 2019-01-14)">
  <metadata
     id="metadata10">
    <rdf:RDF>
      <cc:Work
         rdf:about="">
        <dc:format>image/svg+xml</dc:format>
        <dc:type
           rdf:resource="http://purl.org/dc/dcmitype/StillImage" />
        <dc:title></dc:title>
      </cc:Work>
    </rdf:RDF>
  </metadata>
  <defs
     id="defs8" />
  <sodipodi:namedview
     pagecolor="#ffffff"
     bordercolor="#666666"
     borderopacity="1"
     objecttolerance="10"
     gridtolerance="10"
     guidetolerance="10"
     inkscape:pageopacity="0"
     inkscape:pageshadow="2"
     inkscape:window-width="1085"
     inkscape:window-height="480"
     id="namedview6"
     showgrid="false"
     inkscape:zoom="9.8333333"
     inkscape:cx="1.0677966"
     inkscape:cy="12"
     inkscape:window-x="0"
     inkscape:window-y="25"
     inkscape:window-maximized="0"
     inkscape:current-layer="svg4" />
  <path
     d="M 18.53,10.17 A 3.23,3.23 0 0 0 15.3,13.4 v 1.29 h -1.95 v 7.75 c 0,0.72 0.59,1.3 1.3,1.3 h 7.76 a 1.3,1.3 0 0 0 1.29,-1.3 l 0.08,-7.72 -1.37,-0.03 h -0.65 v -1.3 a 3.23,3.23 0 0 0 -3.23,-3.22 z m 0,1.22 a 2,2 0 0 1 2,2 v 1.3 h -4 v -1.3 c 0,-1.1 0.9,-2 2,-2 z M 7.97,3.45 c -0.85,0 -1.53,0.7 -1.53,1.6 v 8.1 c 0,0.9 0.68,1.61 1.53,1.61 0.85,0 1.54,-0.72 1.54,-1.61 v -8.1 c 0,-0.9 -0.69,-1.6 -1.54,-1.6 z M 8,16.76 A 1.89,1.89 0 0 0 6.1,18.65 1.89,1.89 0 0 0 8,20.55 1.89,1.89 0 0 0 9.9,18.65 1.89,1.89 0 0 0 8,16.77 Z"
     id="path2"
     inkscape:connector-curvature="0"
     style="fill:#808080" />
</svg>
