<?xml version="1.0" encoding="UTF-8" standalone="no"?>
<svg
   xmlns:dc="http://purl.org/dc/elements/1.1/"
   xmlns:cc="http://creativecommons.org/ns#"
   xmlns:rdf="http://www.w3.org/1999/02/22-rdf-syntax-ns#"
   xmlns:svg="http://www.w3.org/2000/svg"
   xmlns="http://www.w3.org/2000/svg"
   xmlns:sodipodi="http://sodipodi.sourceforge.net/DTD/sodipodi-0.dtd"
   xmlns:inkscape="http://www.inkscape.org/namespaces/inkscape"
   height="24"
   width="24"
   version="1.1"
   id="svg8"
   sodipodi:docname="network-cellular-no-route-symbolic.svg"
   inkscape:version="0.92.4 (5da689c313, 2019-01-14)">
  <metadata
     id="metadata14">
    <rdf:RDF>
      <cc:Work
         rdf:about="">
        <dc:format>image/svg+xml</dc:format>
        <dc:type
           rdf:resource="http://purl.org/dc/dcmitype/StillImage" />
        <dc:title></dc:title>
      </cc:Work>
    </rdf:RDF>
  </metadata>
  <defs
     id="defs12" />
  <sodipodi:namedview
     pagecolor="#ffffff"
     bordercolor="#666666"
     borderopacity="1"
     objecttolerance="10"
     gridtolerance="10"
     guidetolerance="10"
     inkscape:pageopacity="0"
     inkscape:pageshadow="2"
     inkscape:window-width="1131"
     inkscape:window-height="480"
     id="namedview10"
     showgrid="false"
     inkscape:zoom="9.8333333"
     inkscape:cx="12"
     inkscape:cy="12"
     inkscape:window-x="0"
     inkscape:window-y="25"
     inkscape:window-maximized="0"
     inkscape:current-layer="svg8" />
  <g
     id="g6"
     style="color:#bebebe;fill:#808080">
    <path
       d="m 18.23,3 a 0.57,0.57 0 0 0 -0.56,0.57 v 15.86 c 0,0.32 0.25,0.57 0.56,0.57 h 1.14 c 0.31,0 0.56,-0.25 0.56,-0.57 V 3.57 A 0.57,0.57 0 0 0 19.37,3 Z m -3.4,3.4 a 0.57,0.57 0 0 0 -0.56,0.57 v 1.16 a 4.5,4.5 0 0 1 2.26,3.65 V 6.97 A 0.57,0.57 0 0 0 15.97,6.4 Z m 1.7,5.45 c 0,0.9 -0.12,1.68 -0.53,2.38 a 6.2,6.2 0 0 1 -1.73,1.73 v 3.47 c 0,0.32 0.25,0.57 0.56,0.57 h 1.14 c 0.31,0 0.56,-0.25 0.56,-0.57 z m -8.5,1.35 a 0.57,0.57 0 0 0 -0.56,0.57 v 5.66 c 0,0.32 0.25,0.57 0.56,0.57 h 1.14 c 0.31,0 0.56,-0.25 0.56,-0.57 V 13.77 A 0.57,0.57 0 0 0 9.17,13.2 H 8.6 Z m -3.4,3.4 a 0.57,0.57 0 0 0 -0.56,0.57 v 2.26 c 0,0.32 0.25,0.57 0.56,0.57 h 1.14 c 0.31,0 0.56,-0.25 0.56,-0.57 V 17.17 A 0.57,0.57 0 0 0 5.77,16.6 Z"
       style="overflow:visible;opacity:0.35;fill-opacity:0.3;stroke-width:1.13;marker:none;fill:#808080"
       overflow="visible"
       id="path2"
       inkscape:connector-curvature="0" />
    <path
       d="m 11.79,8.67 a 3.43,3.43 0 0 1 3.61,3.18 c 0,1.6 -0.43,2.18 -1.8,3.23 -0.22,0.16 -0.38,0.28 -0.43,0.35 l -0.04,0.04 c 0.01,0.6 -0.53,1.13 -1.13,1.13 -0.6,0 -1.14,-0.54 -1.13,-1.13 0,-0.57 0.25,-1.07 0.53,-1.42 0.28,-0.35 0.55,-0.59 0.81,-0.78 0.23,-0.18 0.52,-0.44 0.78,-0.74 0.1,-0.13 0.15,-0.35 0.14,-0.5 V 12 a 1.12,1.12 0 0 0 -1.2,-1.07 c -0.64,0.04 -1.1,0.5 -1.06,1.14 H 8.6 C 8.5,10.2 9.93,8.77 11.79,8.67 Z M 12,17.73 a 1.135,1.135 0 1 1 0,2.27 1.135,1.135 0 0 1 0,-2.27 z"
       style="overflow:visible;stroke-width:2.26999998;marker:none;fill:#808080"
       overflow="visible"
       id="path4"
       inkscape:connector-curvature="0" />
  </g>
</svg>
