<?xml version="1.0" encoding="UTF-8" standalone="no"?>
<svg
   xmlns:dc="http://purl.org/dc/elements/1.1/"
   xmlns:cc="http://creativecommons.org/ns#"
   xmlns:rdf="http://www.w3.org/1999/02/22-rdf-syntax-ns#"
   xmlns:svg="http://www.w3.org/2000/svg"
   xmlns="http://www.w3.org/2000/svg"
   xmlns:sodipodi="http://sodipodi.sourceforge.net/DTD/sodipodi-0.dtd"
   xmlns:inkscape="http://www.inkscape.org/namespaces/inkscape"
   width="24"
   height="24"
   version="1.1"
   id="svg4"
   sodipodi:docname="network-vpn-acquiring-symbolic.svg"
   inkscape:version="0.92.4 (5da689c313, 2019-01-14)">
  <metadata
     id="metadata10">
    <rdf:RDF>
      <cc:Work
         rdf:about="">
        <dc:format>image/svg+xml</dc:format>
        <dc:type
           rdf:resource="http://purl.org/dc/dcmitype/StillImage" />
        <dc:title></dc:title>
      </cc:Work>
    </rdf:RDF>
  </metadata>
  <defs
     id="defs8" />
  <sodipodi:namedview
     pagecolor="#ffffff"
     bordercolor="#666666"
     borderopacity="1"
     objecttolerance="10"
     gridtolerance="10"
     guidetolerance="10"
     inkscape:pageopacity="0"
     inkscape:pageshadow="2"
     inkscape:window-width="1085"
     inkscape:window-height="480"
     id="namedview6"
     showgrid="false"
     inkscape:zoom="9.8333333"
     inkscape:cx="1.0677966"
     inkscape:cy="12"
     inkscape:window-x="0"
     inkscape:window-y="25"
     inkscape:window-maximized="0"
     inkscape:current-layer="svg4" />
  <path
     d="m 8.79,9 a 1,0.98 0 0 0 -1,0.98 1,0.98 0 0 0 1,0.98 1,0.98 0 0 0 1,-0.98 1,0.98 0 0 0 -1,-0.98 z m 6.4,0 a 1,0.98 0 0 0 -1,0.98 1,0.98 0 0 0 1,0.98 1,0.98 0 0 0 1,-0.98 1,0.98 0 0 0 -1,-0.98 z m -9.6,0.02 a 1,0.98 0 0 0 -1,0.99 1,0.98 0 0 0 1,0.98 A 1,0.98 0 0 0 6.6,10 1,0.98 0 0 0 5.6,9.01 Z m 6.4,0 a 1,0.98 0 0 0 -1,0.99 1,0.98 0 0 0 1,0.98 A 1,0.98 0 0 0 13,10 1,0.98 0 0 0 12,9.01 Z m 6.4,0 a 1,0.98 0 0 0 -1,0.99 1,0.98 0 0 0 1,0.98 1,0.98 0 0 0 1.01,-0.99 1,0.98 0 0 0 -1,-0.99 z m 1.51,5 a 2.28,2.28 0 0 0 -2.28,2.3 v 0.9 h -1.36 v 5.47 a 0.91,0.91 0 0 0 0.9,0.9 h 5.48 a 0.92,0.92 0 0 0 0.9,-0.9 l 0.07,-5.45 -0.97,-0.02 h -0.46 v -0.9 a 2.28,2.28 0 0 0 -2.28,-2.3 z m 0,0.87 c 0.78,0 1.42,0.64 1.42,1.42 v 0.9 h -2.83 v -0.9 c 0,-0.78 0.63,-1.42 1.41,-1.42 z"
     id="path2"
     inkscape:connector-curvature="0"
     style="fill:#808080" />
</svg>
