<?xml version="1.0" encoding="UTF-8" standalone="no"?>
<svg
   xmlns:dc="http://purl.org/dc/elements/1.1/"
   xmlns:cc="http://creativecommons.org/ns#"
   xmlns:rdf="http://www.w3.org/1999/02/22-rdf-syntax-ns#"
   xmlns:svg="http://www.w3.org/2000/svg"
   xmlns="http://www.w3.org/2000/svg"
   xmlns:sodipodi="http://sodipodi.sourceforge.net/DTD/sodipodi-0.dtd"
   xmlns:inkscape="http://www.inkscape.org/namespaces/inkscape"
   height="24"
   width="24"
   version="1.1"
   id="svg8"
   sodipodi:docname="network-cellular-signal-none-secure-symbolic.svg"
   inkscape:version="0.92.4 (5da689c313, 2019-01-14)">
  <metadata
     id="metadata14">
    <rdf:RDF>
      <cc:Work
         rdf:about="">
        <dc:format>image/svg+xml</dc:format>
        <dc:type
           rdf:resource="http://purl.org/dc/dcmitype/StillImage" />
        <dc:title></dc:title>
      </cc:Work>
    </rdf:RDF>
  </metadata>
  <defs
     id="defs12" />
  <sodipodi:namedview
     pagecolor="#ffffff"
     bordercolor="#666666"
     borderopacity="1"
     objecttolerance="10"
     gridtolerance="10"
     guidetolerance="10"
     inkscape:pageopacity="0"
     inkscape:pageshadow="2"
     inkscape:window-width="1131"
     inkscape:window-height="480"
     id="namedview10"
     showgrid="false"
     inkscape:zoom="9.8333333"
     inkscape:cx="12"
     inkscape:cy="12"
     inkscape:window-x="0"
     inkscape:window-y="25"
     inkscape:window-maximized="0"
     inkscape:current-layer="svg8" />
  <g
     id="g6"
     style="fill:#808080">
    <path
       style="color:#bebebe;overflow:visible;fill-opacity:0.3;stroke-width:1.13;marker:none;fill:#808080"
       d="m 18.23,3 a 0.56,0.56 0 0 0 -0.56,0.57 v 9.03 a 2.76,2.76 0 0 1 0.22,-0.14 2.76,2.76 0 0 1 0.24,-0.12 2.76,2.76 0 0 1 0.26,-0.1 2.76,2.76 0 0 1 0.27,-0.06 2.76,2.76 0 0 1 0.27,-0.04 2.76,2.76 0 0 1 0.28,-0.02 2.76,2.76 0 0 1 0.19,0 2.76,2.76 0 0 1 0.27,0.04 2.76,2.76 0 0 1 0.26,0.06 V 3.57 A 0.56,0.56 0 0 0 19.37,3 Z m -3.4,3.4 a 0.56,0.56 0 0 0 -0.56,0.57 v 12.46 c 0,0.3 0.24,0.51 0.53,0.54 v -3.99 h 1.65 v -1.1 a 2.76,2.76 0 0 1 0.01,-0.2 2.76,2.76 0 0 1 0.03,-0.27 2.76,2.76 0 0 1 0.04,-0.17 V 6.97 A 0.56,0.56 0 0 0 15.97,6.4 Z m -3.4,3.4 a 0.56,0.56 0 0 0 -0.56,0.57 v 9.06 c 0,0.32 0.25,0.57 0.56,0.57 h 1.14 c 0.31,0 0.56,-0.25 0.56,-0.57 V 10.37 A 0.56,0.56 0 0 0 12.57,9.8 Z m -3.4,3.4 a 0.56,0.56 0 0 0 -0.56,0.57 v 5.66 c 0,0.32 0.25,0.57 0.56,0.57 h 1.14 c 0.31,0 0.56,-0.25 0.56,-0.57 V 13.77 A 0.56,0.56 0 0 0 9.17,13.2 Z m -3.4,3.4 a 0.56,0.56 0 0 0 -0.56,0.57 v 2.26 c 0,0.32 0.25,0.57 0.56,0.57 h 1.14 c 0.31,0 0.56,-0.25 0.56,-0.57 V 17.17 A 0.56,0.56 0 0 0 5.77,16.6 Z"
       overflow="visible"
       id="path2"
       inkscape:connector-curvature="0" />
    <path
       d="m 19.21,13.12 a 2.28,2.28 0 0 0 -2.27,2.28 v 0.91 h -1.37 v 5.47 c 0,0.5 0.4,0.91 0.91,0.91 h 5.47 a 0.92,0.92 0 0 0 0.91,-0.91 l 0.06,-5.45 -0.97,-0.02 H 21.49 V 15.4 a 2.28,2.28 0 0 0 -2.28,-2.28 z m 0,0.87 c 0.78,0 1.42,0.63 1.42,1.41 v 0.91 H 17.8 V 15.4 c 0,-0.78 0.64,-1.41 1.41,-1.41 z"
       id="path4"
       inkscape:connector-curvature="0"
       style="fill:#808080" />
  </g>
</svg>
