<?xml version="1.0" encoding="UTF-8" standalone="no"?>
<svg
   xmlns:dc="http://purl.org/dc/elements/1.1/"
   xmlns:cc="http://creativecommons.org/ns#"
   xmlns:rdf="http://www.w3.org/1999/02/22-rdf-syntax-ns#"
   xmlns:svg="http://www.w3.org/2000/svg"
   xmlns="http://www.w3.org/2000/svg"
   xmlns:sodipodi="http://sodipodi.sourceforge.net/DTD/sodipodi-0.dtd"
   xmlns:inkscape="http://www.inkscape.org/namespaces/inkscape"
   width="24"
   height="24"
   id="svg9"
   version="1.1"
   sodipodi:docname="notification-disabled-symbolic.svg"
   inkscape:version="0.92.4 (5da689c313, 2019-01-14)">
  <metadata
     id="metadata8">
    <rdf:RDF>
      <cc:Work
         rdf:about="">
        <dc:format>image/svg+xml</dc:format>
        <dc:type
           rdf:resource="http://purl.org/dc/dcmitype/StillImage" />
        <dc:title></dc:title>
      </cc:Work>
    </rdf:RDF>
  </metadata>
  <sodipodi:namedview
     pagecolor="#ffffff"
     bordercolor="#666666"
     borderopacity="1"
     objecttolerance="10"
     gridtolerance="10"
     guidetolerance="10"
     inkscape:pageopacity="0"
     inkscape:pageshadow="2"
     inkscape:window-width="862"
     inkscape:window-height="480"
     id="namedview6"
     showgrid="false"
     inkscape:zoom="9.8333333"
     inkscape:cx="1.0677966"
     inkscape:cy="12"
     inkscape:window-x="0"
     inkscape:window-y="25"
     inkscape:window-maximized="0"
     inkscape:current-layer="svg9" />
  <defs
     id="defs3">
    <style
       id="current-color-scheme" />
  </defs>
  <path
     d="M 4.438,2.818 A 0.955,0.955 0 0 0 3.686,3.062 C 3.274,3.445 3.289,4.126 3.721,4.59 L 5.455,6.453 A 9,9 0 0 0 3,12.623 9,9 0 0 0 3.938,16.596 H 14.89 l 1.16,1.246 H 7.938 a 4.537,4.537 0 0 0 4.064,2.535 4.537,4.537 0 0 0 4.06,-2.522 l 2.733,2.936 c 0.431,0.464 1.108,0.529 1.52,0.146 0.41,-0.382 0.396,-1.063 -0.036,-1.527 L 17.66,16.596 7.004,5.143 5.205,3.209 A 1.216,1.216 0 0 0 4.437,2.819 Z M 12,3.623 A 9,9 0 0 0 8.594,4.301 L 20.03,16.596 h 0.04 a 9,9 0 0 0 0.93,-3.973 9,9 0 0 0 -9,-9 z"
     id="path933"
     inkscape:connector-curvature="0"
     style="fill:#808080;stroke-width:1.13399994" />
</svg>
