<?xml version="1.0" encoding="UTF-8" standalone="no"?>
<svg
   xmlns:dc="http://purl.org/dc/elements/1.1/"
   xmlns:cc="http://creativecommons.org/ns#"
   xmlns:rdf="http://www.w3.org/1999/02/22-rdf-syntax-ns#"
   xmlns:svg="http://www.w3.org/2000/svg"
   xmlns="http://www.w3.org/2000/svg"
   xmlns:sodipodi="http://sodipodi.sourceforge.net/DTD/sodipodi-0.dtd"
   xmlns:inkscape="http://www.inkscape.org/namespaces/inkscape"
   width="24"
   height="24"
   id="svg9"
   version="1.1"
   sodipodi:docname="numlock-disabled-symbolic.svg"
   inkscape:version="0.92.4 (5da689c313, 2019-01-14)">
  <metadata
     id="metadata8">
    <rdf:RDF>
      <cc:Work
         rdf:about="">
        <dc:format>image/svg+xml</dc:format>
        <dc:type
           rdf:resource="http://purl.org/dc/dcmitype/StillImage" />
        <dc:title></dc:title>
      </cc:Work>
    </rdf:RDF>
  </metadata>
  <sodipodi:namedview
     pagecolor="#ffffff"
     bordercolor="#666666"
     borderopacity="1"
     objecttolerance="10"
     gridtolerance="10"
     guidetolerance="10"
     inkscape:pageopacity="0"
     inkscape:pageshadow="2"
     inkscape:window-width="862"
     inkscape:window-height="480"
     id="namedview6"
     showgrid="false"
     inkscape:zoom="9.8333333"
     inkscape:cx="1.0677966"
     inkscape:cy="12"
     inkscape:window-x="0"
     inkscape:window-y="25"
     inkscape:window-maximized="0"
     inkscape:current-layer="svg9" />
  <defs
     id="defs3">
    <style
       id="current-color-scheme" />
  </defs>
  <path
     d="M 12,2 A 10,10 0 0 0 2,12 10,10 0 0 0 12,22 10,10 0 0 0 22,12 10,10 0 0 0 12,2 Z m 0,2.223 A 7.778,7.778 0 0 1 19.777,12 7.778,7.778 0 0 1 12,19.777 7.778,7.778 0 0 1 4.223,12 7.778,7.778 0 0 1 12,4.223 Z m -0.225,2.03 a 3.008,3.008 0 0 1 -0.42,0.411 C 11.149,6.84 10.919,7.026 10.665,7.221 10.409,7.409 10.145,7.588 9.871,7.758 9.604,7.928 9.368,8.054 9.162,8.138 V 9.934 A 7.78,7.78 0 0 0 9.799,9.705 c 0.243,-0.103 0.49,-0.214 0.738,-0.336 a 9.82,9.82 0 0 0 0.71,-0.4 c 0.23,-0.146 0.425,-0.292 0.583,-0.438 v 9.215 h 1.902 V 6.254 h -1.957 z"
     id="path823"
     inkscape:connector-curvature="0"
     style="opacity:0.5;fill:#808080;stroke-width:2.5" />
</svg>
