<?xml version="1.0" encoding="UTF-8" standalone="no"?>
<svg
   xmlns:dc="http://purl.org/dc/elements/1.1/"
   xmlns:cc="http://creativecommons.org/ns#"
   xmlns:rdf="http://www.w3.org/1999/02/22-rdf-syntax-ns#"
   xmlns:svg="http://www.w3.org/2000/svg"
   xmlns="http://www.w3.org/2000/svg"
   xmlns:sodipodi="http://sodipodi.sourceforge.net/DTD/sodipodi-0.dtd"
   xmlns:inkscape="http://www.inkscape.org/namespaces/inkscape"
   width="24"
   height="24"
   version="1"
   id="svg4"
   sodipodi:docname="pane-show-symbolic.svg"
   inkscape:version="0.92.4 (5da689c313, 2019-01-14)">
  <metadata
     id="metadata10">
    <rdf:RDF>
      <cc:Work
         rdf:about="">
        <dc:format>image/svg+xml</dc:format>
        <dc:type
           rdf:resource="http://purl.org/dc/dcmitype/StillImage" />
        <dc:title></dc:title>
      </cc:Work>
    </rdf:RDF>
  </metadata>
  <defs
     id="defs8" />
  <sodipodi:namedview
     pagecolor="#ffffff"
     bordercolor="#666666"
     borderopacity="1"
     objecttolerance="10"
     gridtolerance="10"
     guidetolerance="10"
     inkscape:pageopacity="0"
     inkscape:pageshadow="2"
     inkscape:window-width="640"
     inkscape:window-height="480"
     id="namedview6"
     showgrid="false"
     inkscape:zoom="9.8333333"
     inkscape:cx="10.220339"
     inkscape:cy="12"
     inkscape:window-x="0"
     inkscape:window-y="25"
     inkscape:window-maximized="0"
     inkscape:current-layer="svg4" />
  <path
     d="M 12,2.158 A 9.843,9.843 0 0 0 5.283,4.822 L 7.266,6.297 A 7.463,7.463 0 0 1 7.332,6.238 7.463,7.463 0 0 1 7.938,5.805 7.463,7.463 0 0 1 8.586,5.434 7.463,7.463 0 0 1 9.266,5.129 7.463,7.463 0 0 1 9.975,4.893 a 7.463,7.463 0 0 1 0.726,-0.164 7.463,7.463 0 0 1 0.74,-0.09 7.463,7.463 0 0 1 0.532,-0.018 7.463,7.463 0 0 1 0.744,0.037 7.463,7.463 0 0 1 0.738,0.112 7.463,7.463 0 0 1 0.723,0.183 7.463,7.463 0 0 1 0.7,0.256 7.463,7.463 0 0 1 0.673,0.324 7.463,7.463 0 0 1 0.635,0.39 7.463,7.463 0 0 1 0.593,0.452 7.463,7.463 0 0 1 0.547,0.51 7.463,7.463 0 0 1 0.492,0.56 7.463,7.463 0 0 1 0.434,0.606 7.463,7.463 0 0 1 0.371,0.648 7.463,7.463 0 0 1 0.305,0.68 7.463,7.463 0 0 1 0.234,0.709 7.463,7.463 0 0 1 0.164,0.726 7.463,7.463 0 0 1 0.09,0.74 7.463,7.463 0 0 1 0.02,0.53 7.463,7.463 0 0 1 -0.038,0.746 7.463,7.463 0 0 1 -0.11,0.736 7.463,7.463 0 0 1 -0.186,0.723 7.463,7.463 0 0 1 -0.256,0.701 7.463,7.463 0 0 1 -0.325,0.672 7.463,7.463 0 0 1 -0.388,0.637 7.463,7.463 0 0 1 -0.453,0.594 7.463,7.463 0 0 1 -0.508,0.544 7.463,7.463 0 0 1 -0.56,0.493 7.463,7.463 0 0 1 -0.606,0.435 7.463,7.463 0 0 1 -0.649,0.371 7.463,7.463 0 0 1 -0.68,0.305 7.463,7.463 0 0 1 -0.708,0.234 7.463,7.463 0 0 1 -0.727,0.164 7.463,7.463 0 0 1 -0.74,0.09 7.463,7.463 0 0 1 -0.53,0.02 A 7.463,7.463 0 0 1 11.227,19.512 7.463,7.463 0 0 1 10.49,19.4 7.463,7.463 0 0 1 9.768,19.215 7.463,7.463 0 0 1 9.066,18.959 7.463,7.463 0 0 1 8.395,18.635 7.463,7.463 0 0 1 7.758,18.246 7.463,7.463 0 0 1 7.164,17.795 7.463,7.463 0 0 1 7.154,17.785 L 5.28,19.182 A 9.843,9.843 0 0 0 12,21.842 9.843,9.843 0 0 0 21.844,12.002 9.843,9.843 0 0 0 12,2.158 Z M 10.89,5.5 2.163,12 l 8.729,6.5 v -13 z"
     id="path2"
     inkscape:connector-curvature="0"
     style="fill:#808080" />
</svg>
