<?xml version="1.0" encoding="UTF-8" standalone="no"?>
<svg
   xmlns:dc="http://purl.org/dc/elements/1.1/"
   xmlns:cc="http://creativecommons.org/ns#"
   xmlns:rdf="http://www.w3.org/1999/02/22-rdf-syntax-ns#"
   xmlns:svg="http://www.w3.org/2000/svg"
   xmlns="http://www.w3.org/2000/svg"
   xmlns:sodipodi="http://sodipodi.sourceforge.net/DTD/sodipodi-0.dtd"
   xmlns:inkscape="http://www.inkscape.org/namespaces/inkscape"
   height="24"
   width="24"
   version="1.1"
   id="svg6"
   sodipodi:docname="printer-error-symbolic.svg"
   inkscape:version="0.92.4 (5da689c313, 2019-01-14)">
  <metadata
     id="metadata12">
    <rdf:RDF>
      <cc:Work
         rdf:about="">
        <dc:format>image/svg+xml</dc:format>
        <dc:type
           rdf:resource="http://purl.org/dc/dcmitype/StillImage" />
        <dc:title></dc:title>
      </cc:Work>
    </rdf:RDF>
  </metadata>
  <defs
     id="defs10" />
  <sodipodi:namedview
     pagecolor="#ffffff"
     bordercolor="#666666"
     borderopacity="1"
     objecttolerance="10"
     gridtolerance="10"
     guidetolerance="10"
     inkscape:pageopacity="0"
     inkscape:pageshadow="2"
     inkscape:window-width="1085"
     inkscape:window-height="480"
     id="namedview8"
     showgrid="false"
     inkscape:zoom="9.8333333"
     inkscape:cx="1.0677966"
     inkscape:cy="12"
     inkscape:window-x="0"
     inkscape:window-y="25"
     inkscape:window-maximized="0"
     inkscape:current-layer="svg6" />
  <path
     d="m 2.4,7.62 c -0.06,0 -0.1,0.04 -0.1,0.1 v 8.53 c 0,0.05 0.04,0.1 0.1,0.1 h 2.29 l 1.83,-3.15 1.82,3.17 h 9.46 v 3.51 h -7.46 l 0.79,1.37 h 8 v -4.9 h 2.76 c 0.05,0 0.09,-0.04 0.09,-0.1 V 7.73 c 0,-0.05 -0.04,-0.1 -0.09,-0.1 H 2.39 Z m 16.18,1.3 a 1.36,1.36 0 0 1 1.36,1.36 1.36,1.36 0 0 1 -1.36,1.35 1.36,1.36 0 0 1 -1.36,-1.35 1.36,1.36 0 0 1 1.36,-1.36 z M 6.32,2.62 a 0.1,0.1 0 0 0 -0.1,0.09 v 3.74 c 0,0.04 0.04,0.09 0.1,0.09 H 17.9 a 0.1,0.1 0 0 0 0.09,-0.1 V 2.72 a 0.1,0.1 0 0 0 -0.1,-0.1 H 6.33 Z"
     id="path2"
     inkscape:connector-curvature="0"
     style="fill:#808080;paint-order:markers fill stroke" />
  <path
     d="m 6.47,14.45 -5.4,9.32 h 10.8 z m -0.05,1.9 c 0.37,0 0.66,0.3 0.66,0.65 v 3.26 a 0.65,0.65 0 0 1 -1.3,0 V 17 c 0,-0.37 0.29,-0.66 0.64,-0.66 z m 0,5.2 a 0.65,0.65 0 0 1 0.66,0.66 0.65,0.65 0 0 1 -0.66,0.65 0.65,0.65 0 0 1 -0.65,-0.65 0.65,0.65 0 0 1 0.65,-0.66 z"
     id="path4"
     inkscape:connector-curvature="0"
     style="fill:#808080" />
</svg>
