<?xml version="1.0" encoding="UTF-8" standalone="no"?>
<svg
   xmlns:dc="http://purl.org/dc/elements/1.1/"
   xmlns:cc="http://creativecommons.org/ns#"
   xmlns:rdf="http://www.w3.org/1999/02/22-rdf-syntax-ns#"
   xmlns:svg="http://www.w3.org/2000/svg"
   xmlns="http://www.w3.org/2000/svg"
   xmlns:sodipodi="http://sodipodi.sourceforge.net/DTD/sodipodi-0.dtd"
   xmlns:inkscape="http://www.inkscape.org/namespaces/inkscape"
   height="24"
   width="24"
   version="1.1"
   id="svg6"
   sodipodi:docname="security-low-symbolic.svg"
   inkscape:version="0.92.4 (5da689c313, 2019-01-14)">
  <metadata
     id="metadata12">
    <rdf:RDF>
      <cc:Work
         rdf:about="">
        <dc:format>image/svg+xml</dc:format>
        <dc:type
           rdf:resource="http://purl.org/dc/dcmitype/StillImage" />
        <dc:title></dc:title>
      </cc:Work>
    </rdf:RDF>
  </metadata>
  <defs
     id="defs10" />
  <sodipodi:namedview
     pagecolor="#ffffff"
     bordercolor="#666666"
     borderopacity="1"
     objecttolerance="10"
     gridtolerance="10"
     guidetolerance="10"
     inkscape:pageopacity="0"
     inkscape:pageshadow="2"
     inkscape:window-width="1085"
     inkscape:window-height="480"
     id="namedview8"
     showgrid="false"
     inkscape:zoom="9.8333333"
     inkscape:cx="1.0677966"
     inkscape:cy="12"
     inkscape:window-x="0"
     inkscape:window-y="25"
     inkscape:window-maximized="0"
     inkscape:current-layer="svg6" />
  <path
     d="M 12,1 C 7.27,1.88 7.4,4.52 3,5 1.86,15.68 5.9,20.5 12,23 18.1,20.5 22.14,15.68 21,5 16.6,4.52 16.73,1.87 12,1 Z"
     id="path2"
     inkscape:connector-curvature="0"
     style="fill:#666666;fill-opacity:0.3" />
  <path
     d="m 12,5.37 c 0.74,0 1.33,0.59 1.33,1.32 v 6.66 a 1.33,1.33 0 0 1 -2.66,0 V 6.7 c 0,-0.74 0.6,-1.33 1.33,-1.33 z m 0,10.61 A 1.33,1.33 0 0 1 13.33,17.3 1.33,1.33 0 0 1 12,18.63 1.33,1.33 0 0 1 10.67,17.31 1.33,1.33 0 0 1 12,15.97 Z"
     id="path4"
     inkscape:connector-curvature="0"
     style="fill:#666666" />
</svg>
