<?xml version="1.0" encoding="UTF-8" standalone="no"?>
<svg
   xmlns:dc="http://purl.org/dc/elements/1.1/"
   xmlns:cc="http://creativecommons.org/ns#"
   xmlns:rdf="http://www.w3.org/1999/02/22-rdf-syntax-ns#"
   xmlns:svg="http://www.w3.org/2000/svg"
   xmlns="http://www.w3.org/2000/svg"
   xmlns:sodipodi="http://sodipodi.sourceforge.net/DTD/sodipodi-0.dtd"
   xmlns:inkscape="http://www.inkscape.org/namespaces/inkscape"
   width="24"
   height="24"
   version="1"
   id="svg4"
   sodipodi:docname="software-update-available-symbolic.svg"
   inkscape:version="0.92.4 (5da689c313, 2019-01-14)">
  <metadata
     id="metadata10">
    <rdf:RDF>
      <cc:Work
         rdf:about="">
        <dc:format>image/svg+xml</dc:format>
        <dc:type
           rdf:resource="http://purl.org/dc/dcmitype/StillImage" />
        <dc:title></dc:title>
      </cc:Work>
    </rdf:RDF>
  </metadata>
  <defs
     id="defs8" />
  <sodipodi:namedview
     pagecolor="#ffffff"
     bordercolor="#666666"
     borderopacity="1"
     objecttolerance="10"
     gridtolerance="10"
     guidetolerance="10"
     inkscape:pageopacity="0"
     inkscape:pageshadow="2"
     inkscape:window-width="1085"
     inkscape:window-height="480"
     id="namedview6"
     showgrid="false"
     inkscape:zoom="9.8333333"
     inkscape:cx="1.0677966"
     inkscape:cy="12"
     inkscape:window-x="0"
     inkscape:window-y="25"
     inkscape:window-maximized="0"
     inkscape:current-layer="svg4" />
  <path
     d="M 12,0.16 A 11.84,11.84 0 0 0 0.16,12 11.84,11.84 0 0 0 12,23.84 11.84,11.84 0 0 0 23.84,12 11.84,11.84 0 0 0 12,0.16 Z M 11.46,1.94 8.9,4.5 H 5.2 a 10.18,10.18 0 0 1 6.26,-2.56 z m 1.19,0.01 A 10.18,10.18 0 0 1 18.73,4.5 H 15.2 Z m -8.21,3.3 v 3.7 L 1.8,11.6 A 10.18,10.18 0 0 1 4.43,5.27 Z m 15.12,0.08 a 10.18,10.18 0 0 1 2.56,6.1 L 19.56,8.87 Z M 9.5,7.55 h 4.9 v 4.53 h 3.86 l -6.3,6.29 -6.3,-6.3 H 9.5 V 7.56 Z m 12.62,4.92 a 10.18,10.18 0 0 1 -2.57,6.4 v -3.83 z m -20.33,0.02 2.64,2.64 v 3.82 A 10.18,10.18 0 0 1 1.79,12.49 Z m 3.18,7 H 8.8 l 2.77,2.78 a 10.18,10.18 0 0 1 -6.6,-2.78 z m 10.12,0 h 3.86 a 10.18,10.18 0 0 1 -6.63,2.78 z"
     id="path2"
     inkscape:connector-curvature="0"
     style="fill:#808080" />
</svg>
