<?xml version="1.0" encoding="UTF-8" standalone="no"?>
<svg
   xmlns:dc="http://purl.org/dc/elements/1.1/"
   xmlns:cc="http://creativecommons.org/ns#"
   xmlns:rdf="http://www.w3.org/1999/02/22-rdf-syntax-ns#"
   xmlns:svg="http://www.w3.org/2000/svg"
   xmlns="http://www.w3.org/2000/svg"
   xmlns:sodipodi="http://sodipodi.sourceforge.net/DTD/sodipodi-0.dtd"
   xmlns:inkscape="http://www.inkscape.org/namespaces/inkscape"
   width="24"
   height="24"
   version="1"
   id="svg4"
   sodipodi:docname="software-update-urgent-symbolic.svg"
   inkscape:version="0.92.4 (5da689c313, 2019-01-14)">
  <metadata
     id="metadata10">
    <rdf:RDF>
      <cc:Work
         rdf:about="">
        <dc:format>image/svg+xml</dc:format>
        <dc:type
           rdf:resource="http://purl.org/dc/dcmitype/StillImage" />
        <dc:title></dc:title>
      </cc:Work>
    </rdf:RDF>
  </metadata>
  <defs
     id="defs8" />
  <sodipodi:namedview
     pagecolor="#ffffff"
     bordercolor="#666666"
     borderopacity="1"
     objecttolerance="10"
     gridtolerance="10"
     guidetolerance="10"
     inkscape:pageopacity="0"
     inkscape:pageshadow="2"
     inkscape:window-width="1085"
     inkscape:window-height="480"
     id="namedview6"
     showgrid="false"
     inkscape:zoom="9.8333333"
     inkscape:cx="1.0677966"
     inkscape:cy="12"
     inkscape:window-x="0"
     inkscape:window-y="25"
     inkscape:window-maximized="0"
     inkscape:current-layer="svg4" />
  <path
     d="M 12,0.16 A 11.84,11.84 0 0 0 0.16,12 11.84,11.84 0 0 0 12,23.84 a 11.84,11.84 0 0 0 4.01,-0.71 5.02,4.99 0 0 1 -0.04,-0.04 5.02,4.99 0 0 1 -0.34,-0.36 5.02,4.99 0 0 1 -0.3,-0.4 5.02,4.99 0 0 1 -0.27,-0.42 5.02,4.99 0 0 1 -0.05,-0.12 10.18,10.18 0 0 1 -2.69,0.48 l 2.17,-2.17 a 5.02,4.99 0 0 1 -0.02,-0.08 5.02,4.99 0 0 1 -0.02,-0.5 5.02,4.99 0 0 1 0.01,-0.36 5.02,4.99 0 0 1 0.06,-0.5 5.02,4.99 0 0 1 0.11,-0.48 5.02,4.99 0 0 1 0.16,-0.47 5.02,4.99 0 0 1 0.2,-0.46 5.02,4.99 0 0 1 0.26,-0.43 5.02,4.99 0 0 1 0.29,-0.4 5.02,4.99 0 0 1 0.33,-0.38 5.02,4.99 0 0 1 0.37,-0.34 5.02,4.99 0 0 1 0.4,-0.3 5.02,4.99 0 0 1 0.42,-0.26 5.02,4.99 0 0 1 0.46,-0.22 5.02,4.99 0 0 1 0.47,-0.17 5.02,4.99 0 0 1 0.48,-0.12 5.02,4.99 0 0 1 0.5,-0.07 5.02,4.99 0 0 1 0.5,-0.03 5.02,4.99 0 0 1 0.36,0.01 5.02,4.99 0 0 1 0.2,0.03 l 2.09,-2.1 a 10.18,10.18 0 0 1 -0.44,2.57 5.02,4.99 0 0 1 0.07,0.03 5.02,4.99 0 0 1 0.44,0.25 5.02,4.99 0 0 1 0.4,0.3 5.02,4.99 0 0 1 0.38,0.32 5.02,4.99 0 0 1 0.13,0.14 A 11.84,11.84 0 0 0 23.84,12 11.84,11.84 0 0 0 12,0.16 Z M 11.46,1.94 8.9,4.5 H 5.2 a 10.18,10.18 0 0 1 6.26,-2.56 z m 1.19,0 A 10.18,10.18 0 0 1 18.73,4.5 H 15.2 L 12.65,1.95 Z M 4.44,5.26 v 3.7 L 1.8,11.6 A 10.18,10.18 0 0 1 4.43,5.27 V 5.25 Z m 15.12,0.08 a 10.18,10.18 0 0 1 2.56,6.1 L 19.56,8.88 V 5.33 Z M 9.5,7.55 h 4.9 v 4.53 h 3.86 l -6.3,6.29 -6.3,-6.3 H 9.5 Z m -7.71,4.95 2.64,2.64 v 3.82 A 10.18,10.18 0 0 1 1.79,12.5 Z m 17.68,3.03 a 4.02,4 0 0 0 -4.02,4 4.02,4 0 0 0 4.02,3.99 4.02,4 0 0 0 4.02,-4 4.02,4 0 0 0 -4.02,-3.99 z m 0.01,1.25 a 0.41,0.41 0 0 1 0.42,0.42 v 3.4 a 0.41,0.41 0 1 1 -0.82,0 v -3.4 a 0.41,0.41 0 0 1 0.4,-0.42 z M 4.98,19.5 H 8.8 l 2.77,2.78 A 10.18,10.18 0 0 1 4.97,19.5 Z m 14.5,1.97 a 0.42,0.42 0 1 1 0,0.84 0.42,0.42 0 1 1 0,-0.84 z m -0.01,0.49 a 0.52,0.52 0 0 1 0.02,0 0.52,0.52 0 0 0 -0.02,0 z"
     id="path2"
     inkscape:connector-curvature="0"
     style="fill:#808080" />
</svg>
