<?xml version="1.0" encoding="UTF-8" standalone="no"?>
<svg
   xmlns:dc="http://purl.org/dc/elements/1.1/"
   xmlns:cc="http://creativecommons.org/ns#"
   xmlns:rdf="http://www.w3.org/1999/02/22-rdf-syntax-ns#"
   xmlns:svg="http://www.w3.org/2000/svg"
   xmlns="http://www.w3.org/2000/svg"
   xmlns:sodipodi="http://sodipodi.sourceforge.net/DTD/sodipodi-0.dtd"
   xmlns:inkscape="http://www.inkscape.org/namespaces/inkscape"
   width="24"
   height="24"
   version="1"
   id="svg11"
   sodipodi:docname="touchpad-disabled-symbolic.svg"
   inkscape:version="0.92.4 (5da689c313, 2019-01-14)">
  <metadata
     id="metadata15">
    <rdf:RDF>
      <cc:Work
         rdf:about="">
        <dc:format>image/svg+xml</dc:format>
        <dc:type
           rdf:resource="http://purl.org/dc/dcmitype/StillImage" />
        <dc:title></dc:title>
      </cc:Work>
    </rdf:RDF>
  </metadata>
  <sodipodi:namedview
     pagecolor="#ffffff"
     bordercolor="#666666"
     borderopacity="1"
     objecttolerance="10"
     gridtolerance="10"
     guidetolerance="10"
     inkscape:pageopacity="0"
     inkscape:pageshadow="2"
     inkscape:window-width="1366"
     inkscape:window-height="711"
     id="namedview13"
     showgrid="false"
     inkscape:zoom="9.8333333"
     inkscape:cx="12"
     inkscape:cy="12"
     inkscape:window-x="0"
     inkscape:window-y="25"
     inkscape:window-maximized="1"
     inkscape:current-layer="svg11" />
  <defs
     id="defs7">
    <linearGradient
       id="a">
      <stop
         offset="0"
         id="stop2" />
      <stop
         offset="1"
         stop-opacity="0"
         id="stop4" />
    </linearGradient>
  </defs>
  <path
     inkscape:connector-curvature="0"
     style="fill:#808080;fill-opacity:1;stroke-width:2.53227639"
     d="m 4.0656133,2.9368123 a 1.1473681,1.2984153 0 0 0 -1.1495994,1.302292 v 8.7093527 l 18.1630831,0.04845 V 4.2391043 A 1.1473681,1.2984153 0 0 0 19.929498,2.9368123 H 4.0685497 Z m 5.1328221,1.4153432 2.8013216,2.8013226 2.79545,-2.8013226 1.013056,1.0071842 -2.80132,2.8013225 2.80132,2.7954508 L 14.80108,11.969169 11.999757,9.1678464 9.2043077,11.969169 8.191251,10.961985 10.992574,8.1606622 8.191251,5.3652124 Z M 2.9160139,13.736879 v 6.024018 c 0,0.721943 0.5140244,1.302293 1.1495994,1.302294 H 19.932433 a 1.1473681,1.2984153 0 0 0 1.149601,-1.302294 V 13.780926 L 2.9189504,13.736883 Z m 1.8425891,1.733944 h 5.94033 c 0.470007,0 0.847152,0.370924 0.847152,0.832468 v 2.500341 c 0,0.461544 -0.377145,0.833936 -0.847152,0.833936 h -5.94033 c -0.4700058,0 -0.8486187,-0.372392 -0.8486187,-0.833936 v -2.500341 c 0,-0.461544 0.3786129,-0.832469 0.8486187,-0.832468 z m 8.541978,0 h 5.940331 c 0.470005,0 0.84862,0.370924 0.84862,0.832468 v 2.500341 c 0,0.461544 -0.378615,0.833936 -0.84862,0.833936 h -5.940331 c -0.470004,0 -0.848619,-0.372392 -0.848619,-0.833936 v -2.500341 c 0,-0.461544 0.378615,-0.832469 0.848619,-0.832468 z"
     id="path2518-1-1" />
</svg>
