<?xml version="1.0" encoding="UTF-8" standalone="no"?>
<svg
   xmlns:dc="http://purl.org/dc/elements/1.1/"
   xmlns:cc="http://creativecommons.org/ns#"
   xmlns:rdf="http://www.w3.org/1999/02/22-rdf-syntax-ns#"
   xmlns:svg="http://www.w3.org/2000/svg"
   xmlns="http://www.w3.org/2000/svg"
   xmlns:sodipodi="http://sodipodi.sourceforge.net/DTD/sodipodi-0.dtd"
   xmlns:inkscape="http://www.inkscape.org/namespaces/inkscape"
   width="24"
   height="24"
   version="1"
   id="svg4"
   sodipodi:docname="transmission-tray-icon-symbolic.svg"
   inkscape:version="0.92.4 (5da689c313, 2019-01-14)">
  <metadata
     id="metadata10">
    <rdf:RDF>
      <cc:Work
         rdf:about="">
        <dc:format>image/svg+xml</dc:format>
        <dc:type
           rdf:resource="http://purl.org/dc/dcmitype/StillImage" />
        <dc:title></dc:title>
      </cc:Work>
    </rdf:RDF>
  </metadata>
  <defs
     id="defs8" />
  <sodipodi:namedview
     pagecolor="#ffffff"
     bordercolor="#666666"
     borderopacity="1"
     objecttolerance="10"
     gridtolerance="10"
     guidetolerance="10"
     inkscape:pageopacity="0"
     inkscape:pageshadow="2"
     inkscape:window-width="1085"
     inkscape:window-height="480"
     id="namedview6"
     showgrid="false"
     inkscape:zoom="9.8333333"
     inkscape:cx="1.0677966"
     inkscape:cy="12"
     inkscape:window-x="0"
     inkscape:window-y="25"
     inkscape:window-maximized="0"
     inkscape:current-layer="svg4" />
  <path
     d="m 7.684,2.873 c -0.734,0 -1.325,0.592 -1.325,1.326 0,0.734 0.59,1.326 1.325,1.326 h 3.06 V 10.3 h 2.752 V 5.525 h 2.812 c 0.734,0 1.325,-0.592 1.325,-1.326 0,-0.734 -0.591,-1.326 -1.325,-1.326 z m 3.06,7.427 H 6.795 c -0.53,0 -1.035,0.42 -1.132,0.941 l -1.649,8.91 c -0.096,0.522 0.254,0.943 0.785,0.943 h 4.813 v 0.033 h 4.764 v -0.033 h 4.826 c 0.53,0 0.88,-0.42 0.784,-0.943 l -1.649,-8.91 A 1.192,1.192 0 0 0 17.205,10.3 h -3.663 l -0.007,3.887 2.671,0.002 -4.178,3.428 -4.005,-3.415 2.723,0.01 z"
     id="path2"
     inkscape:connector-curvature="0"
     style="fill:#808080" />
</svg>
