<?xml version="1.0" encoding="UTF-8" standalone="no"?>
<svg
   xmlns:dc="http://purl.org/dc/elements/1.1/"
   xmlns:cc="http://creativecommons.org/ns#"
   xmlns:rdf="http://www.w3.org/1999/02/22-rdf-syntax-ns#"
   xmlns:svg="http://www.w3.org/2000/svg"
   xmlns="http://www.w3.org/2000/svg"
   xmlns:sodipodi="http://sodipodi.sourceforge.net/DTD/sodipodi-0.dtd"
   xmlns:inkscape="http://www.inkscape.org/namespaces/inkscape"
   width="24"
   height="24"
   version="1.1"
   id="svg4"
   sodipodi:docname="weather-windy-symbolic.svg"
   inkscape:version="0.92.4 (5da689c313, 2019-01-14)">
  <metadata
     id="metadata10">
    <rdf:RDF>
      <cc:Work
         rdf:about="">
        <dc:format>image/svg+xml</dc:format>
        <dc:type
           rdf:resource="http://purl.org/dc/dcmitype/StillImage" />
        <dc:title></dc:title>
      </cc:Work>
    </rdf:RDF>
  </metadata>
  <defs
     id="defs8" />
  <sodipodi:namedview
     pagecolor="#ffffff"
     bordercolor="#666666"
     borderopacity="1"
     objecttolerance="10"
     gridtolerance="10"
     guidetolerance="10"
     inkscape:pageopacity="0"
     inkscape:pageshadow="2"
     inkscape:window-width="1085"
     inkscape:window-height="480"
     id="namedview6"
     showgrid="false"
     inkscape:zoom="9.8333333"
     inkscape:cx="1.0677966"
     inkscape:cy="12"
     inkscape:window-x="0"
     inkscape:window-y="25"
     inkscape:window-maximized="0"
     inkscape:current-layer="svg4" />
  <path
     style="color:#000000;font-weight:400;line-height:normal;font-family:sans-serif;font-variant-ligatures:normal;font-variant-position:normal;font-variant-caps:normal;font-variant-numeric:normal;font-variant-alternates:normal;font-feature-settings:normal;text-indent:0;text-align:start;text-decoration:none;text-decoration-line:none;text-decoration-style:solid;text-decoration-color:#000000;text-transform:none;text-orientation:mixed;white-space:normal;shape-padding:0;overflow:visible;isolation:auto;mix-blend-mode:normal;fill:#808080"
     d="m 12.615,2.812 a 1.685,1.685 0 0 0 -1.336,0.602 0.563,0.563 0 0 0 0.861,0.722 0.557,0.557 0 0 1 0.684,-0.14 0.556,0.556 0 0 1 0.293,0.632 0.557,0.557 0 0 1 -0.547,0.434 0.562,0.562 0 0 0 -0.008,0 H 4.687 a 0.563,0.563 0 1 0 0,1.125 h 7.875 a 0.562,0.562 0 0 0 0.008,0 h 0.004 A 0.562,0.562 0 0 0 12.756,6.156 1.678,1.678 0 0 0 14.213,4.888 1.69,1.69 0 0 0 12.783,2.826 1.685,1.685 0 0 0 12.615,2.812 Z m 5.478,2 a 2.808,2.808 0 0 0 -0.015,0.002 2.803,2.803 0 0 0 -2.043,1 0.563,0.563 0 1 0 0.861,0.725 1.682,1.682 0 0 1 2.05,-0.422 1.68,1.68 0 0 1 0.882,1.896 1.682,1.682 0 0 1 -1.64,1.299 h -7.876 a 0.563,0.563 0 1 0 0,1.125 h 7.875 a 0.562,0.562 0 0 0 0.112,-0.01 2.815,2.815 0 0 0 2.627,-2.156 2.817,2.817 0 0 0 -1.475,-3.16 2.808,2.808 0 0 0 -1.358,-0.299 z m -14.53,4.5 a 0.563,0.563 0 1 0 0,1.125 h 4.5 a 0.563,0.563 0 0 0 0,-1.125 z m 1.07,4.25 v 0.002 a 0.56314763,0.56314763 0 0 0 0.054,1.125 h 12.375 a 0.562,0.562 0 0 0 0.008,0 c 0.264,0 0.487,0.173 0.549,0.43 a 0.558,0.558 0 0 1 -0.295,0.632 0.557,0.557 0 0 1 -0.684,-0.14 0.56214989,0.56214989 0 1 0 -0.861,0.723 1.686,1.686 0 0 0 2.05,0.425 1.695,1.695 0 0 0 0.884,-1.9 1.675,1.675 0 0 0 -1.455,-1.264 0.562,0.562 0 0 0 -0.196,-0.033 H 4.687 a 0.562,0.562 0 0 0 -0.054,0 z m 2.304,4.25 a 0.563,0.563 0 1 0 0,1.125 l 5.625,0.002 a 0.562,0.562 0 0 0 0.008,0 c 0.264,0 0.487,0.173 0.549,0.43 a 0.558,0.558 0 0 1 -0.295,0.632 0.557,0.557 0 0 1 -0.684,-0.14 0.56214989,0.56214989 0 1 0 -0.861,0.723 1.686,1.686 0 0 0 2.05,0.425 1.694,1.694 0 0 0 0.884,-1.9 1.675,1.675 0 0 0 -1.455,-1.264 0.562,0.562 0 0 0 -0.196,-0.031 z"
     font-weight="400"
     overflow="visible"
     id="path2"
     inkscape:connector-curvature="0" />
</svg>
