<?xml version="1.0" encoding="UTF-8" standalone="no"?>
<svg
   xmlns:dc="http://purl.org/dc/elements/1.1/"
   xmlns:cc="http://creativecommons.org/ns#"
   xmlns:rdf="http://www.w3.org/1999/02/22-rdf-syntax-ns#"
   xmlns:svg="http://www.w3.org/2000/svg"
   xmlns="http://www.w3.org/2000/svg"
   xmlns:sodipodi="http://sodipodi.sourceforge.net/DTD/sodipodi-0.dtd"
   xmlns:inkscape="http://www.inkscape.org/namespaces/inkscape"
   width="24"
   height="24"
   version="1.1"
   id="svg4"
   sodipodi:docname="weather-severe-alert-symbolic.svg"
   inkscape:version="0.92.4 (5da689c313, 2019-01-14)">
  <metadata
     id="metadata10">
    <rdf:RDF>
      <cc:Work
         rdf:about="">
        <dc:format>image/svg+xml</dc:format>
        <dc:type
           rdf:resource="http://purl.org/dc/dcmitype/StillImage" />
        <dc:title></dc:title>
      </cc:Work>
    </rdf:RDF>
  </metadata>
  <defs
     id="defs8" />
  <sodipodi:namedview
     pagecolor="#ffffff"
     bordercolor="#666666"
     borderopacity="1"
     objecttolerance="10"
     gridtolerance="10"
     guidetolerance="10"
     inkscape:pageopacity="0"
     inkscape:pageshadow="2"
     inkscape:window-width="1085"
     inkscape:window-height="480"
     id="namedview6"
     showgrid="false"
     inkscape:zoom="9.8333333"
     inkscape:cx="1.0677966"
     inkscape:cy="12"
     inkscape:window-x="0"
     inkscape:window-y="25"
     inkscape:window-maximized="0"
     inkscape:current-layer="svg4" />
  <path
     d="M 12,2.02 A 6,6 0 0 0 6,8.02 6,6 0 0 0 6.004,8.148 4,4 0 0 0 3,12.02 a 4,4 0 0 0 4,4 h 2 v -1 H 7 a 3,3 0 0 1 -3,-3 3,3 0 0 1 3,-3 A 3,3 0 0 1 7.107,9.025 5,5 0 0 1 7,8.02 a 5,5 0 0 1 5,-5 5,5 0 0 1 4.92,4.11 4,4 0 0 1 3.08,3.89 4,4 0 0 1 -4,4 h -1 v 1 h 1 a 5,5 0 0 0 5,-5 A 5,5 0 0 0 17.758,6.344 6,6 0 0 0 12,2.02 Z M 11.984,12 A 0.982,0.982 0 0 0 11,12.984 v 5.032 C 11,18.561 11.439,19 11.984,19 h 0.032 A 0.982,0.982 0 0 0 13,18.016 V 12.984 A 0.982,0.982 0 0 0 12.016,12 Z m 0,8 A 0.982,0.982 0 0 0 11,20.984 v 0.032 C 11,21.561 11.439,22 11.984,22 h 0.032 A 0.982,0.982 0 0 0 13,21.016 V 20.984 A 0.982,0.982 0 0 0 12.016,20 Z"
     id="path2"
     inkscape:connector-curvature="0"
     style="fill:#808080" />
</svg>
