<?xml version="1.0" encoding="UTF-8" standalone="no"?>
<svg
   xmlns:dc="http://purl.org/dc/elements/1.1/"
   xmlns:cc="http://creativecommons.org/ns#"
   xmlns:rdf="http://www.w3.org/1999/02/22-rdf-syntax-ns#"
   xmlns:svg="http://www.w3.org/2000/svg"
   xmlns="http://www.w3.org/2000/svg"
   xmlns:sodipodi="http://sodipodi.sourceforge.net/DTD/sodipodi-0.dtd"
   xmlns:inkscape="http://www.inkscape.org/namespaces/inkscape"
   width="48"
   height="48"
   viewBox="0 0 12.7 12.7"
   version="1.1"
   id="svg4"
   sodipodi:docname="folder-music.svg"
   inkscape:version="0.92.5 (2060ec1f9f, 2020-04-08)">
  <defs
     id="defs8">
  <style
     id="current-color-scheme"
     type="text/css">
      .ColorScheme-Highlight {
        color:#5beedc;
      }
  </style>
  </defs>
  <path
     class="ColorScheme-Highlight"
     style="fill:#5beedc"
     d="M 24 0 A 24 24 0 0 0 0 24 A 24 24 0 0 0 24 48 A 24 24 0 0 0 48 24 A 24 24 0 0 0 24 0 z M 24 3 A 21 21 0 0 1 45 24 A 21 21 0 0 1 24 45 A 21 21 0 0 1 3 24 A 21 21 0 0 1 24 3 z M 15 9 L 15 14 L 15 31.341797 A 3.5 3.5 0 0 0 13.5 31 A 3.5 3.5 0 0 0 10 34.5 A 3.5 3.5 0 0 0 13.5 38 A 3.5 3.5 0 0 0 17 34.5 A 3.5 3.5 0 0 0 16.960938 34 L 17 34 L 17 14 L 24 14 L 24 36.341797 A 3.5 3.5 0 0 0 22.5 36 A 3.5 3.5 0 0 0 19 39.5 A 3.5 3.5 0 0 0 22.5 43 A 3.5 3.5 0 0 0 26 39.5 A 3.5 3.5 0 0 0 25.960938 39 L 26 39 L 26 14 L 34 14 L 34 25.341797 A 3.5 3.5 0 0 0 32.5 25 A 3.5 3.5 0 0 0 29 28.5 A 3.5 3.5 0 0 0 32.5 32 A 3.5 3.5 0 0 0 36 28.5 A 3.5 3.5 0 0 0 35.960938 28 L 36 28 L 36 12 L 36 9 L 15 9 z "
     transform="scale(0.26458333)"
     id="path818" />
</svg>
