<?xml version="1.0" encoding="UTF-8" standalone="no"?>
<svg
   xmlns:dc="http://purl.org/dc/elements/1.1/"
   xmlns:cc="http://creativecommons.org/ns#"
   xmlns:rdf="http://www.w3.org/1999/02/22-rdf-syntax-ns#"
   xmlns:svg="http://www.w3.org/2000/svg"
   xmlns="http://www.w3.org/2000/svg"
   xmlns:sodipodi="http://sodipodi.sourceforge.net/DTD/sodipodi-0.dtd"
   xmlns:inkscape="http://www.inkscape.org/namespaces/inkscape"
   width="48"
   height="48"
   viewBox="0 0 12.7 12.7"
   version="1.1"
   id="svg4"
   sodipodi:docname="folder-videos.svg"
   inkscape:version="0.92.5 (2060ec1f9f, 2020-04-08)">
  <defs
     id="defs8">
  <style
     id="current-color-scheme"
     type="text/css">
      .ColorScheme-Highlight {
        color:#5beedc;
      }
  </style>
  </defs>
  <path
     class="ColorScheme-Highlight"
     style="fill:#5beedc"
     d="M 24 0 A 24 24 0 0 0 0 24 A 24 24 0 0 0 24 48 A 24 24 0 0 0 48 24 A 24 24 0 0 0 24 0 z M 24 3 A 21 21 0 0 1 45 24 A 21 21 0 0 1 24 45 A 21 21 0 0 1 3 24 A 21 21 0 0 1 24 3 z M 11 10 C 10.446 10 10 10.446 10 11 L 10 37 C 10 37.554 10.446 38 11 38 L 37 38 C 37.553999 38 38 37.554 38 37 L 38 11 C 38 10.446 37.553999 10 37 10 L 11 10 z M 16 12 L 32 12 L 32 36 L 16 36 L 16 12 z M 11 15 L 15 15 L 15 19 L 11 19 L 11 15 z M 33 15 L 37 15 L 37 19 L 33 19 L 33 15 z M 11 22 L 15 22 L 15 26 L 11 26 L 11 22 z M 33 22 L 37 22 L 37 26 L 33 26 L 33 22 z M 11 29 L 15 29 L 15 33 L 11 33 L 11 29 z M 33 29 L 37 29 L 37 33 L 33 33 L 33 29 z "
     transform="scale(0.26458333)"
     id="rect968" />
</svg>
