<?xml version="1.0" encoding="UTF-8" standalone="no"?>
<svg
   xmlns:dc="http://purl.org/dc/elements/1.1/"
   xmlns:cc="http://creativecommons.org/ns#"
   xmlns:rdf="http://www.w3.org/1999/02/22-rdf-syntax-ns#"
   xmlns:svg="http://www.w3.org/2000/svg"
   xmlns="http://www.w3.org/2000/svg"
   xmlns:sodipodi="http://sodipodi.sourceforge.net/DTD/sodipodi-0.dtd"
   xmlns:inkscape="http://www.inkscape.org/namespaces/inkscape"
   width="48"
   height="48"
   viewBox="0 0 12.7 12.7"
   version="1.1"
   id="svg4"
   sodipodi:docname="folder-html.svg"
   inkscape:version="0.92.5 (2060ec1f9f, 2020-04-08)">
  <defs
     id="defs8">
  <style
     id="current-color-scheme"
     type="text/css">
      .ColorScheme-Highlight {
        color:#5beedc;
      }
  </style>
  </defs>
  <path
     class="ColorScheme-Highlight"
     style="fill:#5beedc"
     d="M 6.35,0 A 6.3499999,6.3499999 0 0 0 0,6.3499999 6.3499999,6.3499999 0 0 0 0.79374999,9.4211303 v 0.1038696 h 0.063562 A 6.3499999,6.3499999 0 0 0 6.35,12.7 6.3499999,6.3499999 0 0 0 12.7,6.3499999 6.3499999,6.3499999 0 0 0 6.35,0 Z M 6.6145833,0.80718585 A 5.5562499,5.5562499 0 0 1 7.1148111,0.85317785 8.1981333,8.2122914 0 0 1 8.704895,3.4395833 H 6.6145833 Z m -0.79375,0.0170532 V 3.4395833 H 3.9878704 A 8.1981333,8.2122914 0 0 1 5.5733032,0.85421141 5.5562499,5.5562499 0 0 1 5.8208333,0.82423905 Z M 4.2958618,1.1901082 A 8.9893118,8.992749 0 0 0 3.1388264,3.4395833 H 1.6252238 a 5.5562499,5.5562499 0 0 1 2.670638,-2.2494751 z m 4.1103433,0.0031 A 5.5562499,5.5562499 0 0 1 11.077877,3.4395833 H 9.5451538 A 8.9893118,8.992749 0 0 0 8.4062051,1.1932082 Z M 1.2154297,4.2333333 H 2.9026652 A 8.9893118,8.992749 0 0 0 2.6510009,6.0854166 H 0.80718585 A 5.5562499,5.5562499 0 0 1 1.2154297,4.2333333 Z m 2.5156086,0 h 2.089795 V 6.0854166 H 3.4535359 A 8.1981333,8.2122914 0 0 1 3.7310383,4.2333333 Z m 2.883545,0 H 8.9622436 A 8.1981333,8.2122914 0 0 1 9.239746,6.0854166 H 6.6145833 Z m 3.1615641,0 h 1.7058396 a 5.5562499,5.5562499 0 0 1 0.414961,1.8520833 H 10.027812 A 8.9893118,8.992749 0 0 0 9.7761474,4.2333333 Z M 0.82423909,6.8791666 H 2.6721882 a 8.9893118,8.992749 0 0 0 0.304891,1.8520833 H 1.3363525 A 5.5562499,5.5562499 0 0 1 0.82423909,6.8791666 Z m 2.64221581,0 H 5.8208333 V 8.7312499 H 3.8018352 A 8.1981333,8.2122914 0 0 1 3.4664549,6.8791666 Z m 3.1481284,0 H 9.2263102 A 8.1981333,8.2122914 0 0 1 8.8991984,8.7312499 H 6.6145833 Z m 3.3992757,0 h 1.86552 A 5.5562499,5.5562499 0 0 1 11.362614,8.7312499 H 9.7063842 A 8.9893118,8.992749 0 0 0 10.013859,6.8791666 Z M 1.7983399,9.5249999 H 3.2359782 A 8.9893118,8.992749 0 0 0 4.2684732,11.497489 5.5562499,5.5562499 0 0 1 1.7983399,9.5249999 Z m 2.2892659,0 H 5.8208333 V 11.879378 A 5.5562499,5.5562499 0 0 1 5.547465,11.841137 8.1981333,8.2122914 0 0 1 4.0876058,9.5249999 Z m 2.5269775,0 H 8.614978 a 8.1981333,8.2122914 0 0 1 -1.473295,2.3192381 5.5562499,5.5562499 0 0 1 -0.5270997,0.05271 z m 2.8313517,0 h 1.46141 A 5.5562499,5.5562499 0 0 1 8.4005208,11.511959 8.9893118,8.992749 0 0 0 9.445935,9.5249999 Z"
     id="path817"
     inkscape:connector-curvature="0" />
</svg>
