<?xml version="1.0" encoding="UTF-8" standalone="no"?>
<svg
   xmlns:dc="http://purl.org/dc/elements/1.1/"
   xmlns:cc="http://creativecommons.org/ns#"
   xmlns:rdf="http://www.w3.org/1999/02/22-rdf-syntax-ns#"
   xmlns:svg="http://www.w3.org/2000/svg"
   xmlns="http://www.w3.org/2000/svg"
   xmlns:sodipodi="http://sodipodi.sourceforge.net/DTD/sodipodi-0.dtd"
   xmlns:inkscape="http://www.inkscape.org/namespaces/inkscape"
   width="48"
   height="48"
   viewBox="0 0 12.7 12.7"
   version="1.1"
   id="svg4"
   sodipodi:docname="gnome-fs-directory-accept.svg"
   inkscape:version="0.92.5 (2060ec1f9f, 2020-04-08)">
  <defs
     id="defs8">
  <style
     id="current-color-scheme"
     type="text/css">
      .ColorScheme-Highlight {
        color:#5beedc;
      }
  </style>
  </defs>
  <path
     class="ColorScheme-Highlight"
     style="fill:#5beedc"
     d="M 24 0 A 24 24 0 0 0 0 24 A 24 24 0 0 0 24 48 A 24 24 0 0 0 48 24 A 24 24 0 0 0 24 0 z M 24 3 A 21 21 0 0 1 45 24 A 21 21 0 0 1 24 45 A 21 21 0 0 1 3 24 A 21 21 0 0 1 24 3 z M 9 12 C 8.4460006 12 8 12.446 8 13 L 8 16 L 8 35 C 8 35.554 8.4460006 36 9 36 L 18 36 L 39 36 C 39.554003 36 40 35.554 40 35 L 40 16 C 40 15.446 39.554003 15 39 15 L 22 15 L 19 12 L 18 12 L 9 12 z M 11 14 L 17 14 L 18 14 L 21 17 L 37 17 C 37.553999 17 38 17.446 38 18 L 21 18 L 17 22 L 13 22 C 12.446 22 12 22.446 12 23 C 12 23.554 12.446 24 13 24 L 16 24 L 17 24 L 18 24 L 22 20 L 38 20 L 38 33 C 38 33.554 37.553999 34 37 34 L 11 34 C 10.446001 34 10 33.554 10 33 L 10 19 L 10 18 L 10 16 L 10 15 C 10 14.723 10.112219 14.473719 10.292969 14.292969 C 10.473719 14.112219 10.723 14 11 14 z "
     transform="scale(0.26458333)"
     id="path829" />
</svg>
