<?xml version="1.0" encoding="UTF-8" standalone="no"?>
<svg
   xmlns:dc="http://purl.org/dc/elements/1.1/"
   xmlns:cc="http://creativecommons.org/ns#"
   xmlns:rdf="http://www.w3.org/1999/02/22-rdf-syntax-ns#"
   xmlns:svg="http://www.w3.org/2000/svg"
   xmlns="http://www.w3.org/2000/svg"
   xmlns:sodipodi="http://sodipodi.sourceforge.net/DTD/sodipodi-0.dtd"
   xmlns:inkscape="http://www.inkscape.org/namespaces/inkscape"
   width="48"
   height="48"
   viewBox="0 0 12.7 12.7"
   version="1.1"
   id="svg4"
   sodipodi:docname="folder-playonlinux.svg"
   inkscape:version="0.92.5 (2060ec1f9f, 2020-04-08)">
  <defs
     id="defs8">
  <style
     id="current-color-scheme"
     type="text/css">
      .ColorScheme-Highlight {
        color:#5beedc;
      }
  </style>
  </defs>
  <path
     class="ColorScheme-Highlight"
     style="fill:#5beedc"
     d="M 24 0 A 24 24 0 0 0 0 24 A 24 24 0 0 0 24 48 A 24 24 0 0 0 48 24 A 24 24 0 0 0 24 0 z M 24 3 A 21 21 0 0 1 45 24 A 21 21 0 0 1 24 45 A 21 21 0 0 1 3 24 A 21 21 0 0 1 24 3 z "
     transform="scale(0.26458333)"
     id="path817" />
  <path
     style="fill:#c83737"
     d="M 24 24 L 7 24 A 17 17 0 0 0 24 41 L 24 24 z "
     id="path832"
     transform="scale(0.26458333)" />
  <path
     style="fill:#0088aa"
     d="M 41 24 L 24 24 L 24 41 A 17 17 0 0 0 41 24 z "
     id="path835"
     transform="scale(0.26458333)" />
  <path
     style="fill:#ffdd55"
     d="M 24 7 L 24 24 L 41 24 A 17 17 0 0 0 24 7 z "
     id="path820"
     transform="scale(0.26458333)" />
  <path
     style="fill:#5aa02c"
     d="M 6.35,1.8520833 A 4.4979166,4.4979166 0 0 0 1.8520833,6.3499999 H 6.35 Z"
     id="path825"
     inkscape:connector-curvature="0" />
</svg>
