<?xml version="1.0" encoding="UTF-8" standalone="no"?>
<svg
   xmlns:dc="http://purl.org/dc/elements/1.1/"
   xmlns:cc="http://creativecommons.org/ns#"
   xmlns:rdf="http://www.w3.org/1999/02/22-rdf-syntax-ns#"
   xmlns:svg="http://www.w3.org/2000/svg"
   xmlns="http://www.w3.org/2000/svg"
   xmlns:sodipodi="http://sodipodi.sourceforge.net/DTD/sodipodi-0.dtd"
   xmlns:inkscape="http://www.inkscape.org/namespaces/inkscape"
   width="48"
   height="48"
   viewBox="0 0 12.7 12.7"
   version="1.1"
   id="svg4"
   sodipodi:docname="folder-documents.svg"
   inkscape:version="0.92.5 (2060ec1f9f, 2020-04-08)">
  <defs
     id="defs8">
  <style
     id="current-color-scheme"
     type="text/css">
      .ColorScheme-Highlight {
        color:#5beedc;
      }
  </style>
  </defs>
  <path
     class="ColorScheme-Highlight"
     style="fill:#5beedc"
     d="M 24 0 A 24 24 0 0 0 0 24 A 24 24 0 0 0 24 48 A 24 24 0 0 0 48 24 A 24 24 0 0 0 24 0 z M 24 3 A 21 21 0 0 1 45 24 A 21 21 0 0 1 24 45 A 21 21 0 0 1 3 24 A 21 21 0 0 1 24 3 z M 13.5 12 C 12.669 12 12 12.669 12 13.5 C 12 14.331 12.669 15 13.5 15 L 34.5 15 C 35.331 15 36 14.331 36 13.5 C 36 12.669 35.331 12 34.5 12 L 13.5 12 z M 13.5 19 C 12.669 19 12 19.669 12 20.5 C 12 21.331 12.669 22 13.5 22 L 34.5 22 C 35.331 22 36 21.331 36 20.5 C 36 19.669 35.331 19 34.5 19 L 13.5 19 z M 13.5 26 C 12.669 26 12 26.669 12 27.5 C 12 28.331 12.669 29 13.5 29 L 34.5 29 C 35.331 29 36 28.331 36 27.5 C 36 26.669 35.331 26 34.5 26 L 13.5 26 z M 13.5 33 C 12.669 33 12 33.669 12 34.5 C 12 35.331 12.669 36 13.5 36 L 34.5 36 C 35.331 36 36 35.331 36 34.5 C 36 33.669 35.331 33 34.5 33 L 13.5 33 z "
     transform="scale(0.26458333)"
     id="rect827" />
</svg>
