<?xml version="1.0" encoding="UTF-8" standalone="no"?>
<svg
   xmlns:dc="http://purl.org/dc/elements/1.1/"
   xmlns:cc="http://creativecommons.org/ns#"
   xmlns:rdf="http://www.w3.org/1999/02/22-rdf-syntax-ns#"
   xmlns:svg="http://www.w3.org/2000/svg"
   xmlns="http://www.w3.org/2000/svg"
   xmlns:sodipodi="http://sodipodi.sourceforge.net/DTD/sodipodi-0.dtd"
   xmlns:inkscape="http://www.inkscape.org/namespaces/inkscape"
   width="48"
   height="48"
   viewBox="0 0 12.7 12.7"
   version="1.1"
   id="svg4"
   sodipodi:docname="folder-activities.svg"
   inkscape:version="0.92.5 (2060ec1f9f, 2020-04-08)">
  <defs
     id="defs8">
  <style
     id="current-color-scheme"
     type="text/css">
      .ColorScheme-Highlight {
        color:#5beedc;
      }
  </style>
  </defs>
  <path
     class="ColorScheme-Highlight"
     style="fill:#5beedc"
     d="M 24 0 A 24 24 0 0 0 0 24 A 24 24 0 0 0 24 48 A 24 24 0 0 0 48 24 A 24 24 0 0 0 24 0 z M 24 3 A 21 21 0 0 1 45 24 A 21 21 0 0 1 24 45 A 21 21 0 0 1 3 24 A 21 21 0 0 1 24 3 z M 13 28 A 3.9999998 3.9999998 0 0 0 9 32 A 3.9999998 3.9999998 0 0 0 13 36 A 3.9999998 3.9999998 0 0 0 17 32 A 3.9999998 3.9999998 0 0 0 13 28 z M 24 28 A 3.9999998 3.9999998 0 0 0 20 32 A 3.9999998 3.9999998 0 0 0 24 36 A 3.9999998 3.9999998 0 0 0 28 32 A 3.9999998 3.9999998 0 0 0 24 28 z M 35 28 A 3.9999998 3.9999998 0 0 0 31 32 A 3.9999998 3.9999998 0 0 0 35 36 A 3.9999998 3.9999998 0 0 0 39 32 A 3.9999998 3.9999998 0 0 0 35 28 z "
     transform="scale(0.26458333)"
     id="path847" />
</svg>
