<?xml version="1.0" encoding="UTF-8" standalone="no"?>
<svg
   xmlns:dc="http://purl.org/dc/elements/1.1/"
   xmlns:cc="http://creativecommons.org/ns#"
   xmlns:rdf="http://www.w3.org/1999/02/22-rdf-syntax-ns#"
   xmlns:svg="http://www.w3.org/2000/svg"
   xmlns="http://www.w3.org/2000/svg"
   xmlns:sodipodi="http://sodipodi.sourceforge.net/DTD/sodipodi-0.dtd"
   xmlns:inkscape="http://www.inkscape.org/namespaces/inkscape"
   width="48"
   height="48"
   viewBox="0 0 12.7 12.7"
   version="1.1"
   id="svg4"
   sodipodi:docname="folder-development.svg"
   inkscape:version="0.92.5 (2060ec1f9f, 2020-04-08)">
  <defs
     id="defs8">
  <style
     id="current-color-scheme"
     type="text/css">
      .ColorScheme-Highlight {
        color:#5beedc;
      }
  </style>
  </defs>
  <path
     class="ColorScheme-Highlight"
     style="fill:#5beedc"
     d="M 24 0 A 24 24 0 0 0 0 24 A 24 24 0 0 0 24 48 A 24 24 0 0 0 48 24 A 24 24 0 0 0 24 0 z M 24 3 A 21 21 0 0 1 45 24 A 21 21 0 0 1 24 45 A 21 21 0 0 1 3 24 A 21 21 0 0 1 24 3 z M 22 10 L 22 11 L 14 11 L 14 12 L 9 15 L 14 15 L 14 16 L 17 16 L 17 23.181641 C 15.835311 23.593201 15 24.690917 15 26 L 15 35 C 15 36.662 16.338 38 18 38 C 19.662 38 21 36.662 21 35 L 21 26 C 21 24.690917 20.164689 23.593201 19 23.181641 L 19 16 L 22 16 L 22 17 L 25 17 L 25 10 L 22 10 z M 32 10 L 26 20 L 31 20 L 31 23.181641 C 29.835311 23.593201 29 24.690917 29 26 L 29 35 C 29 36.662 30.338 38 32 38 C 33.662 38 35 36.662 35 35 L 35 26 C 35 24.690917 34.164689 23.593201 33 23.181641 L 33 20 L 38 20 L 32 10 z "
     transform="scale(0.26458333)"
     id="path831" />
</svg>
