<?xml version="1.0" encoding="UTF-8" standalone="no"?>
<svg
   xmlns:dc="http://purl.org/dc/elements/1.1/"
   xmlns:cc="http://creativecommons.org/ns#"
   xmlns:rdf="http://www.w3.org/1999/02/22-rdf-syntax-ns#"
   xmlns:svg="http://www.w3.org/2000/svg"
   xmlns="http://www.w3.org/2000/svg"
   xmlns:sodipodi="http://sodipodi.sourceforge.net/DTD/sodipodi-0.dtd"
   xmlns:inkscape="http://www.inkscape.org/namespaces/inkscape"
   width="48"
   height="48"
   viewBox="0 0 12.7 12.7"
   version="1.1"
   id="svg4"
   sodipodi:docname="folder-pictures.svg"
   inkscape:version="0.92.5 (2060ec1f9f, 2020-04-08)">
  <defs
     id="defs8">
  <style
     id="current-color-scheme"
     type="text/css">
      .ColorScheme-Highlight {
        color:#5beedc;
      }
  </style>
  </defs>
  <path
     class="ColorScheme-Highlight"
     style="fill:#5beedc"
     d="M 24 0 A 24 24 0 0 0 0 24 A 24 24 0 0 0 24 48 A 24 24 0 0 0 48 24 A 24 24 0 0 0 24 0 z M 24 3 A 21 21 0 0 1 45 24 A 21 21 0 0 1 24 45 A 21 21 0 0 1 3 24 A 21 21 0 0 1 24 3 z M 11 11 C 10.446 11 10 11.446 10 12 L 10 37 C 10 37.554 10.446 38 11 38 L 37 38 C 37.554 38 38 37.554 38 37 L 38 12 C 38 11.446 37.554 11 37 11 L 11 11 z M 12 13 L 36 13 L 36 33 L 12 33 L 12 13 z M 30.5 16 A 2.4999999 2.4999999 0 0 0 28 18.5 A 2.4999999 2.4999999 0 0 0 30.5 21 A 2.4999999 2.4999999 0 0 0 33 18.5 A 2.4999999 2.4999999 0 0 0 30.5 16 z M 13 21 L 13 31 L 24 31 L 26 31 L 35 31 L 35 26 L 26 26 C 25 23 24 21 20 21 L 13 21 z "
     transform="scale(0.26458333)"
     id="path829" />
</svg>
