<?xml version="1.0" encoding="UTF-8" standalone="no"?>
<svg
   xmlns:dc="http://purl.org/dc/elements/1.1/"
   xmlns:cc="http://creativecommons.org/ns#"
   xmlns:rdf="http://www.w3.org/1999/02/22-rdf-syntax-ns#"
   xmlns:svg="http://www.w3.org/2000/svg"
   xmlns="http://www.w3.org/2000/svg"
   xmlns:sodipodi="http://sodipodi.sourceforge.net/DTD/sodipodi-0.dtd"
   xmlns:inkscape="http://www.inkscape.org/namespaces/inkscape"
   width="24"
   height="24"
   viewBox="0 0 6.35 6.35"
   version="1.1"
   id="svg4"
   sodipodi:docname="application-x-addon-symbolic.svg"
   inkscape:version="0.92.4 (5da689c313, 2019-01-14)">
  <metadata
     id="metadata10">
    <rdf:RDF>
      <cc:Work
         rdf:about="">
        <dc:format>image/svg+xml</dc:format>
        <dc:type
           rdf:resource="http://purl.org/dc/dcmitype/StillImage" />
        <dc:title></dc:title>
      </cc:Work>
    </rdf:RDF>
  </metadata>
  <defs
     id="defs8" />
  <sodipodi:namedview
     pagecolor="#ffffff"
     bordercolor="#666666"
     borderopacity="1"
     objecttolerance="10"
     gridtolerance="10"
     guidetolerance="10"
     inkscape:pageopacity="0"
     inkscape:pageshadow="2"
     inkscape:window-width="640"
     inkscape:window-height="480"
     id="namedview6"
     showgrid="false"
     inkscape:zoom="9.8333333"
     inkscape:cx="10.220339"
     inkscape:cy="12"
     inkscape:window-x="0"
     inkscape:window-y="25"
     inkscape:window-maximized="0"
     inkscape:current-layer="svg4" />
  <path
     d="M 2.611,0.794 A 0.564,0.564 0 0 0 2.047,1.358 c 0,0.194 0.1,0.364 0.25,0.466 V 1.922 H 1.045 a 0.25,0.25 0 0 0 -0.25,0.25 V 3.39 A 0.56,0.56 0 0 1 1.797,3.739 0.56,0.56 0 0 1 0.794,4.088 v 1.218 c 0,0.138 0.112,0.25 0.251,0.25 H 2.263 A 0.56,0.56 0 0 1 2.612,4.554 0.56,0.56 0 0 1 2.961,5.557 H 4.179 A 0.25,0.25 0 0 0 4.429,5.306 V 4.052 h 0.098 a 0.563,0.563 0 1 0 0,-0.626 H 4.429 V 2.172 A 0.25,0.25 0 0 0 4.179,1.922 H 2.924 V 1.824 A 0.563,0.563 0 0 0 2.611,0.794 Z"
     id="path2"
     inkscape:connector-curvature="0"
     style="fill:#808080" />
</svg>
