<?xml version="1.0" encoding="UTF-8" standalone="no"?>
<svg
   xmlns:dc="http://purl.org/dc/elements/1.1/"
   xmlns:cc="http://creativecommons.org/ns#"
   xmlns:rdf="http://www.w3.org/1999/02/22-rdf-syntax-ns#"
   xmlns:svg="http://www.w3.org/2000/svg"
   xmlns="http://www.w3.org/2000/svg"
   xmlns:sodipodi="http://sodipodi.sourceforge.net/DTD/sodipodi-0.dtd"
   xmlns:inkscape="http://www.inkscape.org/namespaces/inkscape"
   width="24"
   height="24"
   viewBox="0 0 6.35 6.35"
   version="1.1"
   id="svg32"
   sodipodi:docname="application-x-appliance-symbolic.svg"
   inkscape:version="0.92.4 (5da689c313, 2019-01-14)">
  <metadata
     id="metadata38">
    <rdf:RDF>
      <cc:Work
         rdf:about="">
        <dc:format>image/svg+xml</dc:format>
        <dc:type
           rdf:resource="http://purl.org/dc/dcmitype/StillImage" />
        <dc:title></dc:title>
      </cc:Work>
    </rdf:RDF>
  </metadata>
  <defs
     id="defs36" />
  <sodipodi:namedview
     pagecolor="#ffffff"
     bordercolor="#666666"
     borderopacity="1"
     objecttolerance="10"
     gridtolerance="10"
     guidetolerance="10"
     inkscape:pageopacity="0"
     inkscape:pageshadow="2"
     inkscape:window-width="640"
     inkscape:window-height="480"
     id="namedview34"
     showgrid="false"
     inkscape:zoom="9.8333333"
     inkscape:cx="10.220339"
     inkscape:cy="12"
     inkscape:window-x="0"
     inkscape:window-y="25"
     inkscape:window-maximized="0"
     inkscape:current-layer="svg32" />
  <g
     transform="matrix(0.29766,0,0,0.29766,-115.888,-46.831)"
     id="g30"
     style="fill:#808080">
    <circle
       cx="393.5"
       cy="161.5"
       r="1.5"
       id="circle2" />
    <circle
       cx="406.5"
       cy="161.5"
       r="1.5"
       id="circle4" />
    <circle
       cx="393.5"
       cy="174.5"
       r="1.5"
       id="circle6" />
    <circle
       cx="406.5"
       cy="174.5"
       r="1.5"
       id="circle8" />
    <path
       d="m 393,161 h 1 v 14 h -1 z"
       id="path10"
       inkscape:connector-curvature="0" />
    <path
       d="m 393,161 h 14 v 1 h -14 z"
       id="path12"
       inkscape:connector-curvature="0" />
    <path
       d="m 406,161 h 1 v 14 h -1 z"
       id="path14"
       inkscape:connector-curvature="0" />
    <path
       d="m 393,174 h 14 v 1 h -14 z"
       id="path16"
       inkscape:connector-curvature="0" />
    <circle
       cx="396.5"
       cy="164.5"
       r="1.5"
       id="circle18" />
    <circle
       cx="403.5"
       cy="164.5"
       r="1.5"
       id="circle20" />
    <circle
       cx="403.5"
       cy="171.5"
       r="1.5"
       id="circle22" />
    <circle
       cx="396.5"
       cy="171.5"
       r="1.5"
       id="circle24" />
    <path
       d="m 396,165 h 1 v 6 h -1 z m 7,0 h 1 v 6 h -1 z m -5.5,6 h 5.5 v 1 h -5.5 z m -0.5,-7 h 6 v 1 h -6 z"
       id="path26"
       inkscape:connector-curvature="0" />
    <path
       d="m 393.854,161.146 -0.708,0.708 4,4 0.708,-0.708 z m 12.292,0 -4,4 0.708,0.708 4,-4 z m -3.292,9 -0.708,0.708 4,4 0.708,-0.708 z m -5.708,0 -4,4 0.708,0.708 4,-4 z"
       style="color:#000000;font-weight:400;line-height:normal;font-family:sans-serif;font-variant-ligatures:normal;font-variant-position:normal;font-variant-caps:normal;font-variant-numeric:normal;font-variant-alternates:normal;font-feature-settings:normal;text-indent:0;text-align:start;text-decoration:none;text-decoration-line:none;text-decoration-style:solid;text-decoration-color:#000000;text-transform:none;text-orientation:mixed;white-space:normal;shape-padding:0;overflow:visible;isolation:auto;mix-blend-mode:normal;solid-color:#000000;solid-opacity:1"
       font-weight="400"
       overflow="visible"
       id="path28"
       inkscape:connector-curvature="0" />
  </g>
</svg>
