<?xml version="1.0" encoding="UTF-8" standalone="no"?>
<svg
   xmlns:dc="http://purl.org/dc/elements/1.1/"
   xmlns:cc="http://creativecommons.org/ns#"
   xmlns:rdf="http://www.w3.org/1999/02/22-rdf-syntax-ns#"
   xmlns:svg="http://www.w3.org/2000/svg"
   xmlns="http://www.w3.org/2000/svg"
   xmlns:sodipodi="http://sodipodi.sourceforge.net/DTD/sodipodi-0.dtd"
   xmlns:inkscape="http://www.inkscape.org/namespaces/inkscape"
   width="24"
   height="24"
   viewBox="0 0 6.35 6.35"
   version="1.1"
   id="svg4"
   sodipodi:docname="application-x-executable-symbolic.svg"
   inkscape:version="0.92.4 (5da689c313, 2019-01-14)">
  <metadata
     id="metadata10">
    <rdf:RDF>
      <cc:Work
         rdf:about="">
        <dc:format>image/svg+xml</dc:format>
        <dc:type
           rdf:resource="http://purl.org/dc/dcmitype/StillImage" />
        <dc:title></dc:title>
      </cc:Work>
    </rdf:RDF>
  </metadata>
  <defs
     id="defs8" />
  <sodipodi:namedview
     pagecolor="#ffffff"
     bordercolor="#666666"
     borderopacity="1"
     objecttolerance="10"
     gridtolerance="10"
     guidetolerance="10"
     inkscape:pageopacity="0"
     inkscape:pageshadow="2"
     inkscape:window-width="640"
     inkscape:window-height="480"
     id="namedview6"
     showgrid="false"
     inkscape:zoom="9.8333333"
     inkscape:cx="10.220339"
     inkscape:cy="12"
     inkscape:window-x="0"
     inkscape:window-y="25"
     inkscape:window-maximized="0"
     inkscape:current-layer="svg4" />
  <path
     style="color:#000000;font-weight:400;line-height:normal;font-family:'Andale Mono';text-indent:0;text-align:start;text-decoration:none;text-decoration-line:none;text-transform:none;overflow:visible;fill:#808080;marker:none"
     d="M 3.19,0.826 A 0.37,0.37 0 0 0 2.928,0.935 L 0.935,2.928 a 0.369,0.369 0 0 0 0,0.523 L 2.9,5.415 a 0.369,0.369 0 0 0 0.522,0 L 5.416,3.422 a 0.369,0.369 0 0 0 0,-0.523 L 3.45,0.935 A 0.368,0.368 0 0 0 3.188,0.826 Z m 0.007,0.43 c 0.075,0 0.15,0.03 0.208,0.087 l 1.429,1.43 A 0.1,0.1 0 0 0 4.774,2.8 L 4.601,2.973 A 1.242,1.242 0 0 0 4.387,2.882 V 2.635 a 0.099,0.099 0 0 0 -0.1,-0.1 h -0.53 a 0.099,0.099 0 0 0 -0.1,0.1 V 2.882 A 1.237,1.237 0 0 0 3.442,2.973 L 3.27,2.8 a 0.103,0.103 0 0 0 -0.146,0 l -0.37,0.37 a 0.103,0.103 0 0 0 0,0.145 L 2.928,3.489 C 2.892,3.557 2.859,3.629 2.836,3.703 H 2.59 a 0.099,0.099 0 0 0 -0.1,0.1 v 0.53 c 0,0.057 0.043,0.1 0.1,0.1 H 2.836 C 2.859,4.508 2.892,4.58 2.928,4.648 L 2.809,4.766 1.396,3.353 a 0.295,0.295 0 0 1 0,-0.417 L 2.989,1.343 A 0.294,0.294 0 0 1 3.198,1.257 Z M 4.022,3.63 c 0.177,0 0.328,0.106 0.397,0.257 L 3.839,4.466 A 0.438,0.438 0 0 1 3.584,4.068 0.438,0.438 0 0 1 4.022,3.63 Z"
     font-weight="400"
     overflow="visible"
     id="path2"
     inkscape:connector-curvature="0" />
</svg>
