<?xml version="1.0" encoding="UTF-8" standalone="no"?>
<svg
   xmlns:dc="http://purl.org/dc/elements/1.1/"
   xmlns:cc="http://creativecommons.org/ns#"
   xmlns:rdf="http://www.w3.org/1999/02/22-rdf-syntax-ns#"
   xmlns:svg="http://www.w3.org/2000/svg"
   xmlns="http://www.w3.org/2000/svg"
   xmlns:sodipodi="http://sodipodi.sourceforge.net/DTD/sodipodi-0.dtd"
   xmlns:inkscape="http://www.inkscape.org/namespaces/inkscape"
   width="24"
   height="24"
   version="1"
   id="svg4"
   sodipodi:docname="text-x-generic-symbolic.svg"
   inkscape:version="0.92.4 (5da689c313, 2019-01-14)">
  <metadata
     id="metadata10">
    <rdf:RDF>
      <cc:Work
         rdf:about="">
        <dc:format>image/svg+xml</dc:format>
        <dc:type
           rdf:resource="http://purl.org/dc/dcmitype/StillImage" />
        <dc:title></dc:title>
      </cc:Work>
    </rdf:RDF>
  </metadata>
  <defs
     id="defs8" />
  <sodipodi:namedview
     pagecolor="#ffffff"
     bordercolor="#666666"
     borderopacity="1"
     objecttolerance="10"
     gridtolerance="10"
     guidetolerance="10"
     inkscape:pageopacity="0"
     inkscape:pageshadow="2"
     inkscape:window-width="640"
     inkscape:window-height="480"
     id="namedview6"
     showgrid="false"
     inkscape:zoom="9.8333333"
     inkscape:cx="10.220339"
     inkscape:cy="12"
     inkscape:window-x="0"
     inkscape:window-y="25"
     inkscape:window-maximized="0"
     inkscape:current-layer="svg4" />
  <path
     d="m 5.138,4.11 c -0.581,0 -1.05,0.469 -1.05,1.05 v 0.509 c 0,0.581 0.469,1.05 1.05,1.05 H 18.86 c 0.582,0 1.051,-0.469 1.051,-1.05 V 5.16 c 0,-0.581 -0.47,-1.05 -1.05,-1.05 z m 0,4.39 c -0.581,0 -1.05,0.469 -1.05,1.05 v 0.509 c 0,0.581 0.469,1.05 1.05,1.05 H 18.86 c 0.582,0 1.051,-0.469 1.051,-1.05 V 9.55 c 0,-0.581 -0.47,-1.05 -1.05,-1.05 z m 0,4.39 c -0.581,0 -1.05,0.469 -1.05,1.05 v 0.51 c 0,0.581 0.469,1.05 1.05,1.05 H 18.86 c 0.582,0 1.051,-0.469 1.051,-1.05 v -0.51 c 0,-0.581 -0.47,-1.05 -1.05,-1.05 z m 0,4.392 c -0.581,0 -1.05,0.468 -1.05,1.05 v 0.508 c 0,0.581 0.469,1.05 1.05,1.05 H 18.86 c 0.582,0 1.051,-0.469 1.051,-1.05 v -0.509 c 0,-0.581 -0.47,-1.05 -1.05,-1.05 z"
     id="path2"
     inkscape:connector-curvature="0"
     style="fill:#808080" />
</svg>
