<?xml version="1.0" encoding="UTF-8" standalone="no"?>
<svg
   xmlns:dc="http://purl.org/dc/elements/1.1/"
   xmlns:cc="http://creativecommons.org/ns#"
   xmlns:rdf="http://www.w3.org/1999/02/22-rdf-syntax-ns#"
   xmlns:svg="http://www.w3.org/2000/svg"
   xmlns="http://www.w3.org/2000/svg"
   xmlns:sodipodi="http://sodipodi.sourceforge.net/DTD/sodipodi-0.dtd"
   xmlns:inkscape="http://www.inkscape.org/namespaces/inkscape"
   width="24"
   height="24"
   viewBox="0 0 6.35 6.35"
   version="1.1"
   id="svg4"
   sodipodi:docname="text-html-symbolic.svg"
   inkscape:version="0.92.4 (5da689c313, 2019-01-14)">
  <metadata
     id="metadata10">
    <rdf:RDF>
      <cc:Work
         rdf:about="">
        <dc:format>image/svg+xml</dc:format>
        <dc:type
           rdf:resource="http://purl.org/dc/dcmitype/StillImage" />
        <dc:title></dc:title>
      </cc:Work>
    </rdf:RDF>
  </metadata>
  <defs
     id="defs8" />
  <sodipodi:namedview
     pagecolor="#ffffff"
     bordercolor="#666666"
     borderopacity="1"
     objecttolerance="10"
     gridtolerance="10"
     guidetolerance="10"
     inkscape:pageopacity="0"
     inkscape:pageshadow="2"
     inkscape:window-width="640"
     inkscape:window-height="480"
     id="namedview6"
     showgrid="false"
     inkscape:zoom="9.8333333"
     inkscape:cx="10.220339"
     inkscape:cy="12"
     inkscape:window-x="0"
     inkscape:window-y="25"
     inkscape:window-maximized="0"
     inkscape:current-layer="svg4" />
  <path
     style="color:#000000;font-weight:400;line-height:normal;font-family:'Andale Mono';text-indent:0;text-align:start;text-decoration:none;text-decoration-line:none;text-transform:none;overflow:visible;fill:#808080;marker:none"
     d="M 3.022,0.892 V 0.896 A 2.282,2.282 0 0 0 0.896,3.022 H 0.89 V 3.326 H 0.896 A 2.284,2.284 0 0 0 3.022,5.452 V 5.456 H 3.327 V 5.452 A 2.281,2.281 0 0 0 5.451,3.326 H 5.458 V 3.022 H 5.451 A 2.282,2.282 0 0 0 3.328,0.896 V 0.893 H 3.175 Z m 0,0.323 V 2.109 H 2.276 C 2.44,1.635 2.71,1.299 3.022,1.215 Z m 0.306,0 C 3.64,1.299 3.909,1.635 4.073,2.109 H 3.327 Z M 2.321,1.389 A 2.42,2.42 0 0 0 1.963,2.109 H 1.507 a 1.99,1.99 0 0 1 0.814,-0.72 z m 1.708,0 c 0.334,0.16 0.615,0.41 0.814,0.72 H 4.387 A 2.414,2.414 0 0 0 4.029,1.389 Z M 1.349,2.414 H 1.883 A 3.58,3.58 0 0 0 1.808,3.022 H 1.2 C 1.217,2.808 1.268,2.604 1.347,2.414 Z m 0.842,0 H 3.022 V 3.022 H 2.112 C 2.121,2.808 2.148,2.604 2.191,2.414 Z m 1.137,0 h 0.83 c 0.043,0.189 0.07,0.395 0.08,0.608 h -0.91 z m 1.139,0 h 0.535 c 0.079,0.189 0.13,0.395 0.147,0.608 H 4.542 A 3.614,3.614 0 0 0 4.467,2.414 Z M 1.2,3.327 H 1.807 C 1.816,3.539 1.84,3.743 1.882,3.935 H 1.347 A 1.962,1.962 0 0 1 1.2,3.327 Z m 0.912,0 h 0.91 V 3.935 H 2.19 A 3.403,3.403 0 0 1 2.11,3.327 Z m 1.215,0 h 0.91 a 3.31,3.31 0 0 1 -0.08,0.608 h -0.83 z m 1.214,0 H 5.147 A 1.95,1.95 0 0 1 5.001,3.935 H 4.466 A 3.58,3.58 0 0 0 4.541,3.327 Z M 1.506,4.241 H 1.962 C 2.051,4.52 2.173,4.764 2.32,4.96 A 1.988,1.988 0 0 1 1.506,4.24 Z m 0.769,0 H 3.021 V 5.134 C 2.709,5.05 2.439,4.714 2.275,4.241 Z m 1.052,0 H 4.072 C 3.908,4.714 3.639,5.051 3.326,5.134 Z m 1.06,0 H 4.842 A 1.99,1.99 0 0 1 4.028,4.96 C 4.175,4.764 4.298,4.519 4.386,4.24 Z"
     font-weight="400"
     overflow="visible"
     id="path2"
     inkscape:connector-curvature="0" />
</svg>
