<?xml version="1.0" encoding="UTF-8" standalone="no"?>
<svg
   xmlns:dc="http://purl.org/dc/elements/1.1/"
   xmlns:cc="http://creativecommons.org/ns#"
   xmlns:rdf="http://www.w3.org/1999/02/22-rdf-syntax-ns#"
   xmlns:svg="http://www.w3.org/2000/svg"
   xmlns="http://www.w3.org/2000/svg"
   xmlns:sodipodi="http://sodipodi.sourceforge.net/DTD/sodipodi-0.dtd"
   xmlns:inkscape="http://www.inkscape.org/namespaces/inkscape"
   width="24"
   height="24"
   viewBox="0 0 6.35 6.35"
   version="1.1"
   id="svg4"
   sodipodi:docname="text-x-copying-symbolic.svg"
   inkscape:version="0.92.4 (5da689c313, 2019-01-14)">
  <metadata
     id="metadata10">
    <rdf:RDF>
      <cc:Work
         rdf:about="">
        <dc:format>image/svg+xml</dc:format>
        <dc:type
           rdf:resource="http://purl.org/dc/dcmitype/StillImage" />
        <dc:title></dc:title>
      </cc:Work>
    </rdf:RDF>
  </metadata>
  <defs
     id="defs8" />
  <sodipodi:namedview
     pagecolor="#ffffff"
     bordercolor="#666666"
     borderopacity="1"
     objecttolerance="10"
     gridtolerance="10"
     guidetolerance="10"
     inkscape:pageopacity="0"
     inkscape:pageshadow="2"
     inkscape:window-width="640"
     inkscape:window-height="480"
     id="namedview6"
     showgrid="false"
     inkscape:zoom="9.8333333"
     inkscape:cx="10.220339"
     inkscape:cy="12"
     inkscape:window-x="0"
     inkscape:window-y="25"
     inkscape:window-maximized="0"
     inkscape:current-layer="svg4" />
  <path
     style="line-height:normal;text-indent:0;text-align:start;text-decoration:none;text-decoration-line:none;text-transform:none;fill:#808080;marker:none"
     d="M 3.175,0.794 A 2.381,2.381 0 0 0 0.794,3.175 2.381,2.381 0 0 0 3.175,5.556 2.381,2.381 0 0 0 5.556,3.175 2.381,2.381 0 0 0 3.175,0.794 Z m 0,0.51 A 1.871,1.871 0 0 1 5.049,3.175 1.871,1.871 0 0 1 3.175,5.046 1.871,1.871 0 0 1 1.305,3.175 1.871,1.871 0 0 1 3.175,1.304 Z m 0,0.51 A 1.361,1.361 0 0 0 2.207,2.222 l 0.436,0.29 A 0.851,0.851 0 0 1 3.175,2.324 0.851,0.851 0 0 1 4.028,3.175 0.851,0.851 0 0 1 3.175,4.025 0.851,0.851 0 0 1 2.643,3.838 L 2.207,4.128 A 1.361,1.361 0 0 0 3.175,4.536 1.361,1.361 0 0 0 4.537,3.175 1.361,1.361 0 0 0 3.175,1.814 Z"
     id="path2"
     inkscape:connector-curvature="0" />
</svg>
