<?xml version="1.0" encoding="UTF-8" standalone="no"?>
<svg
   xmlns:dc="http://purl.org/dc/elements/1.1/"
   xmlns:cc="http://creativecommons.org/ns#"
   xmlns:rdf="http://www.w3.org/1999/02/22-rdf-syntax-ns#"
   xmlns:svg="http://www.w3.org/2000/svg"
   xmlns="http://www.w3.org/2000/svg"
   xmlns:sodipodi="http://sodipodi.sourceforge.net/DTD/sodipodi-0.dtd"
   xmlns:inkscape="http://www.inkscape.org/namespaces/inkscape"
   width="48"
   height="48"
   version="1"
   id="svg8"
   sodipodi:docname="audio-speaker-right.svg"
   inkscape:version="0.92.5 (2060ec1f9f, 2020-04-08)">
  <defs
     id="defs8">
    <style
       id="current-color-scheme"
       type="text/css">
      .ColorScheme-Highlight {
        color:#5beedc;
      }
  </style>
  </defs>
  <path
     class="ColorScheme-Highlight"
     style="fill:#5beedc"
     inkscape:connector-curvature="0"
     id="path2"
     d="m 9.834,9.89 a 20,20 0 0 1 28.262,-0.066 20,20 0 0 1 0.11,28.265 L 23.998,24.01 Z" />
  <path
     class="ColorScheme-Highlight"
     style="opacity:0.5;fill:#5beedc"
     inkscape:connector-curvature="0"
     id="path4"
     d="m 5.757,15.9 2.156,1.295 a 17.5,17.5 0 0 0 3.728,19.21 17.5,17.5 0 0 0 19.194,3.709 l 1.295,2.153 A 20,20 0 0 1 9.873,38.172 20,20 0 0 1 5.757,15.9 Z m 5.807,7.435 2.475,0.564 a 10,10 0 0 0 2.905,7.202 10,10 0 0 0 7.197,2.92 l 0.575,2.476 a 12.5,12.5 0 0 1 -9.54,-3.629 12.5,12.5 0 0 1 -3.612,-9.533 z" />
</svg>
