<?xml version="1.0" encoding="UTF-8" standalone="no"?>
<svg
   xmlns:dc="http://purl.org/dc/elements/1.1/"
   xmlns:cc="http://creativecommons.org/ns#"
   xmlns:rdf="http://www.w3.org/1999/02/22-rdf-syntax-ns#"
   xmlns:svg="http://www.w3.org/2000/svg"
   xmlns="http://www.w3.org/2000/svg"
   xmlns:sodipodi="http://sodipodi.sourceforge.net/DTD/sodipodi-0.dtd"
   xmlns:inkscape="http://www.inkscape.org/namespaces/inkscape"
   width="48"
   height="48"
   viewBox="0 0 12.7 12.7"
   version="1.1"
   id="svg4"
   sodipodi:docname="audio-headset.svg"
   inkscape:version="0.92.5 (2060ec1f9f, 2020-04-08)">
  <defs
     id="defs8">
  <style
     id="current-color-scheme"
     type="text/css">
      .ColorScheme-Highlight {
        color:#5beedc;
      }
  </style>
  </defs>
  <path
     class="ColorScheme-Highlight"
     style="fill:#5beedc"
     d="M 24 0 C 10.745166 0 -4.7369516e-15 10.745166 0 24 C 0 37.254834 10.745166 48 24 48 C 37.254834 48 48 37.254834 48 24 C 48 10.745166 37.254834 -4.7369516e-15 24 0 z M 24 3 C 35.59798 3 45 12.40202 45 24 C 45 35.59798 35.59798 45 24 45 C 12.40202 45 3 35.59798 3 24 C 3 12.40202 12.40202 3 24 3 z M 24 8 C 16.268014 8 10 14.268014 10 22 C 10.0036 26.197503 11.890475 30.171893 15.140625 32.828125 L 16.232422 36.365234 C 16.519193 37.43548 17.611395 38.066068 18.681641 37.779297 C 19.751886 37.492525 20.382475 36.398371 20.095703 35.328125 L 17.767578 26.634766 C 17.480807 25.56452 16.388605 24.933932 15.318359 25.220703 C 14.248114 25.507475 13.617525 26.601629 13.904297 27.671875 L 14.25 28.962891 C 12.79339 26.932774 12.00681 24.498608 12 22 C 12 15.372583 17.372583 10 24 10 C 30.627417 10 36 15.372583 36 22 C 35.9934 24.500156 35.206125 26.935829 33.748047 28.966797 L 34.095703 27.671875 C 34.382475 26.601629 33.751886 25.507475 32.681641 25.220703 C 31.611395 24.933932 30.519193 25.56452 30.232422 26.634766 L 27.904297 35.328125 C 27.617525 36.398371 28.248114 37.492525 29.318359 37.779297 C 30.388605 38.066068 31.480807 37.43548 31.767578 36.365234 L 32.960938 32.751953 C 33.326772 32.447186 33.670275 32.121955 34 31.785156 L 34 33 L 34 35 L 34 36 L 34 37 C 34 38.107999 33.107999 39 32 39 L 25.908203 39 C 25.963861 38.842779 26 38.67676 26 38.5 C 26 37.669 25.331 37 24.5 37 L 23.5 37 C 22.669 37 22 37.669 22 38.5 C 22 39.331 22.669 40 23.5 40 L 24 40 L 24.5 40 L 32 40 C 33.662 40 35 38.662 35 37 L 35 33 L 35 30.644531 C 36.921226 28.20054 37.998979 25.164356 38 22 C 38 14.268014 31.731986 8 24 8 z "
     transform="scale(0.26458333)"
     id="path831" />
</svg>
