<?xml version="1.0" encoding="UTF-8" standalone="no"?>
<svg
   xmlns:dc="http://purl.org/dc/elements/1.1/"
   xmlns:cc="http://creativecommons.org/ns#"
   xmlns:rdf="http://www.w3.org/1999/02/22-rdf-syntax-ns#"
   xmlns:svg="http://www.w3.org/2000/svg"
   xmlns="http://www.w3.org/2000/svg"
   xmlns:sodipodi="http://sodipodi.sourceforge.net/DTD/sodipodi-0.dtd"
   xmlns:inkscape="http://www.inkscape.org/namespaces/inkscape"
   width="48"
   height="48"
   viewBox="0 0 12.7 12.7"
   version="1.1"
   id="svg4"
   sodipodi:docname="audio-speakers.svg"
   inkscape:version="0.92.5 (2060ec1f9f, 2020-04-08)">
  <defs
     id="defs8">
  <style
     id="current-color-scheme"
     type="text/css">
      .ColorScheme-Highlight {
        color:#5beedc;
      }
  </style>
  </defs>
  <path
     class="ColorScheme-Highlight"
     style="fill:#5beedc"
     d="M 24 0 A 24 24 0 0 0 0 24 A 24 24 0 0 0 24 48 A 24 24 0 0 0 48 24 A 24 24 0 0 0 24 0 z M 24 3 A 21 21 0 0 1 45 24 A 21 21 0 0 1 24 45 A 21 21 0 0 1 3 24 A 21 21 0 0 1 24 3 z M 14 8 C 12.892 8 12 8.8919998 12 10 L 12 38 C 12 39.108 12.892 40 14 40 L 34 40 C 35.108 40 36 39.108 36 38 L 36 10 C 36 8.8919998 35.108 8 34 8 L 14 8 z M 16.5 10 A 2.4999999 2.4999999 0 0 1 19 12.5 A 2.4999999 2.4999999 0 0 1 16.5 15 A 2.4999999 2.4999999 0 0 1 14 12.5 A 2.4999999 2.4999999 0 0 1 16.5 10 z M 31.5 10 A 2.4999999 2.4999999 0 0 1 33.978516 12.205078 C 33.985653 12.13665 34 12.070277 34 12 A 1.9999999 1.9999999 0 0 1 33.984375 12.242188 A 2.4999999 2.4999999 0 0 1 34 12.5 A 2.4999999 2.4999999 0 0 1 31.5 15 A 2.4999999 2.4999999 0 0 1 29 12.5 A 2.4999999 2.4999999 0 0 1 31.5 10 z M 33.984375 12.242188 A 2.4999999 2.4999999 0 0 0 33.978516 12.205078 C 33.971587 12.271506 33.972065 12.340049 33.958984 12.404297 A 1.9999999 1.9999999 0 0 0 33.984375 12.242188 z M 33.958984 12.40625 C 33.93479 12.524513 33.897475 12.636552 33.853516 12.746094 A 1.9999999 1.9999999 0 0 0 33.958984 12.40625 z M 33.826172 12.810547 C 33.785748 12.901764 33.738592 12.988912 33.685547 13.072266 A 1.9999999 1.9999999 0 0 0 33.826172 12.810547 z M 33.630859 13.154297 C 33.577345 13.22984 33.518338 13.301911 33.455078 13.369141 A 1.9999999 1.9999999 0 0 0 33.630859 13.154297 z M 33.392578 13.435547 C 33.320714 13.505258 33.241881 13.568628 33.160156 13.626953 A 1.9999999 1.9999999 0 0 0 33.392578 13.435547 z M 33.09375 13.673828 C 33.009147 13.729134 32.919103 13.776189 32.826172 13.818359 A 1.9999999 1.9999999 0 0 0 33.09375 13.673828 z M 32.744141 13.853516 C 32.643305 13.893872 32.539917 13.92749 32.431641 13.951172 A 1.9999999 1.9999999 0 0 0 32.744141 13.853516 z M 32.382812 13.960938 C 32.258839 13.98481 32.131148 14 32 14 A 1.9999999 1.9999999 0 0 0 32.382812 13.960938 z M 24 19 A 8.9999994 8.9999994 0 0 1 33 28 A 8.9999994 8.9999994 0 0 1 24 37 A 8.9999994 8.9999994 0 0 1 15 28 A 8.9999994 8.9999994 0 0 1 24 19 z M 24 24 A 3.9999996 3.9999996 0 0 0 20 28 A 3.9999996 3.9999996 0 0 0 24 32 A 3.9999996 3.9999996 0 0 0 28 28 A 3.9999996 3.9999996 0 0 0 24 24 z "
     transform="scale(0.26458333)"
     id="path817" />
</svg>
