<?xml version="1.0" encoding="UTF-8" standalone="no"?>
<svg
   xmlns:dc="http://purl.org/dc/elements/1.1/"
   xmlns:cc="http://creativecommons.org/ns#"
   xmlns:rdf="http://www.w3.org/1999/02/22-rdf-syntax-ns#"
   xmlns:svg="http://www.w3.org/2000/svg"
   xmlns="http://www.w3.org/2000/svg"
   xmlns:sodipodi="http://sodipodi.sourceforge.net/DTD/sodipodi-0.dtd"
   xmlns:inkscape="http://www.inkscape.org/namespaces/inkscape"
   width="48"
   height="48"
   viewBox="0 0 12.7 12.7"
   version="1.1"
   id="svg4"
   sodipodi:docname="audio-microphone.svg"
   inkscape:version="0.92.5 (2060ec1f9f, 2020-04-08)">
  <defs
     id="defs8">
  <style
     id="current-color-scheme"
     type="text/css">
      .ColorScheme-Highlight {
        color:#5beedc;
      }
  </style>
  </defs>
  <path
     class="ColorScheme-Highlight"
     style="fill:#5beedc"
     d="M 24 0 A 24 24 0 0 0 0 24 A 24 24 0 0 0 24 48 A 24 24 0 0 0 48 24 A 24 24 0 0 0 24 0 z M 24 3 A 21 21 0 0 1 45 24 A 21 21 0 0 1 24 45 A 21 21 0 0 1 3 24 A 21 21 0 0 1 24 3 z M 24 8 C 20.122001 8 17 11.27132 17 15.333984 L 17 22.666016 C 17 26.72868 20.122001 30 24 30 C 27.877999 30 31 26.72868 31 22.666016 L 31 15.333984 C 31 11.27132 27.877999 8 24 8 z M 13.601562 26 C 14.647588 29.633609 17.404829 32.517461 21 33.566406 L 21 38 L 16 38 L 16 39 L 32 39 L 32 38 L 27 38 L 27 33.566406 C 30.59517 32.517461 33.352412 29.633609 34.398438 26 L 32.396484 26 C 31.156751 29.484596 27.920486 32 24 32 C 20.079514 32 16.843249 29.484596 15.603516 26 L 13.601562 26 z "
     transform="scale(0.26458333)"
     id="path817" />
</svg>
