<?xml version="1.0" encoding="UTF-8" standalone="no"?>
<svg
   xmlns:dc="http://purl.org/dc/elements/1.1/"
   xmlns:cc="http://creativecommons.org/ns#"
   xmlns:rdf="http://www.w3.org/1999/02/22-rdf-syntax-ns#"
   xmlns:svg="http://www.w3.org/2000/svg"
   xmlns="http://www.w3.org/2000/svg"
   xmlns:sodipodi="http://sodipodi.sourceforge.net/DTD/sodipodi-0.dtd"
   xmlns:inkscape="http://www.inkscape.org/namespaces/inkscape"
   width="48"
   height="48"
   version="1"
   id="svg8"
   sodipodi:docname="audio-speaker-right-side.svg"
   inkscape:version="0.92.5 (2060ec1f9f, 2020-04-08)">
  <defs
     id="defs8">
  <style
     id="current-color-scheme"
     type="text/css">
      .ColorScheme-Highlight {
        color:#5beedc;
      }
  </style>
  </defs>
  <path
     class="ColorScheme-Highlight"
     style="fill:#5beedc"
     inkscape:connector-curvature="0"
     id="path2"
     d="M 23.97,44 A 20,20 0 0 0 44,24.062 20,20 0 0 0 24.092,4 L 24,24 Z" />
  <path
     class="ColorScheme-Highlight"
     style="fill:#5beedc;opacity:0.5"
     inkscape:connector-curvature="0"
     id="path4"
     d="m 16.838,42.633 0.609,-2.44 A 17.5,17.5 0 0 1 6.5,23.975 17.5,17.5 0 0 1 17.449,7.78 L 16.842,5.342 A 20,20 0 0 0 4,23.975 20,20 0 0 0 16.838,42.633 Z m -1.151,-9.364 1.35,-2.148 A 10,10 0 0 1 14,23.975 10,10 0 0 1 17.024,16.822 L 15.68,14.664 a 12.5,12.5 0 0 0 -4.18,9.31 12.5,12.5 0 0 0 4.187,9.295 z" />
</svg>
