<?xml version="1.0" encoding="UTF-8" standalone="no"?>
<svg
   xmlns:dc="http://purl.org/dc/elements/1.1/"
   xmlns:cc="http://creativecommons.org/ns#"
   xmlns:rdf="http://www.w3.org/1999/02/22-rdf-syntax-ns#"
   xmlns:svg="http://www.w3.org/2000/svg"
   xmlns="http://www.w3.org/2000/svg"
   xmlns:sodipodi="http://sodipodi.sourceforge.net/DTD/sodipodi-0.dtd"
   xmlns:inkscape="http://www.inkscape.org/namespaces/inkscape"
   width="48"
   height="48"
   version="1"
   id="svg8"
   sodipodi:docname="audio-speaker-mono.svg"
   inkscape:version="0.92.5 (2060ec1f9f, 2020-04-08)">
  <defs
     id="defs8">
  <style
     id="current-color-scheme"
     type="text/css">
      .ColorScheme-Highlight {
        color:#5beedc;
      }
  </style>
  </defs>
  <ellipse
     cx="24"
     cy="23.948"
     rx="4.8969998"
     ry="4.8860002"
     id="ellipse2"
     class="ColorScheme-Highlight"
     style="fill:#5beedc" />
  <path
     class="ColorScheme-Highlight"
     style="opacity:0.5;fill:#5beedc"
     inkscape:connector-curvature="0"
     id="path4"
     d="M 31.165,5.37 30.556,7.81 A 17.496,17.496 0 0 1 41.501,24.023 17.496,17.496 0 0 1 30.554,40.215 l 0.606,2.437 A 19.996,19.996 0 0 0 44,24.023 19.996,19.996 0 0 0 31.165,5.37 Z m 1.151,9.36 -1.35,2.149 a 9.998,9.998 0 0 1 3.036,7.144 9.998,9.998 0 0 1 -3.023,7.152 l 1.344,2.157 a 12.497,12.497 0 0 0 4.179,-9.309 12.497,12.497 0 0 0 -4.186,-9.292 z M 16.785,5.37 17.395,7.81 A 17.496,17.496 0 0 0 6.45,24.022 17.496,17.496 0 0 0 17.396,40.214 L 16.79,42.651 A 19.996,19.996 0 0 1 3.95,24.023 19.996,19.996 0 0 1 16.785,5.37 Z m -1.15,9.36 1.35,2.149 a 9.998,9.998 0 0 0 -3.037,7.144 9.998,9.998 0 0 0 3.023,7.152 l -1.344,2.157 a 12.497,12.497 0 0 1 -4.178,-9.309 12.497,12.497 0 0 1 4.185,-9.292 z" />
</svg>
