<?xml version="1.0" encoding="UTF-8" standalone="no"?>
<svg
   xmlns:dc="http://purl.org/dc/elements/1.1/"
   xmlns:cc="http://creativecommons.org/ns#"
   xmlns:rdf="http://www.w3.org/1999/02/22-rdf-syntax-ns#"
   xmlns:svg="http://www.w3.org/2000/svg"
   xmlns="http://www.w3.org/2000/svg"
   xmlns:sodipodi="http://sodipodi.sourceforge.net/DTD/sodipodi-0.dtd"
   xmlns:inkscape="http://www.inkscape.org/namespaces/inkscape"
   width="48"
   height="48"
   version="1"
   id="svg8"
   sodipodi:docname="audio-speaker-right-back.svg"
   inkscape:version="0.92.5 (2060ec1f9f, 2020-04-08)">
  <defs
     id="defs8">
  <style
     id="current-color-scheme"
     type="text/css">
      .ColorScheme-Highlight {
        color:#5beedc;
      }
  </style>
  </defs>
  <path
     class="ColorScheme-Highlight"
     style="fill:#5beedc"
     inkscape:connector-curvature="0"
     id="path2"
     d="m 9.834,38.12 a 20,20 0 0 0 28.262,0.066 20,20 0 0 0 0.11,-28.264 L 23.998,23.999 Z" />
  <path
     class="ColorScheme-Highlight"
     style="fill:#5beedc;opacity:0.5"
     inkscape:connector-curvature="0"
     id="path4"
     d="M 5.757,32.11 7.913,30.815 A 17.5,17.5 0 0 1 11.641,11.606 17.5,17.5 0 0 1 30.835,7.896 L 32.13,5.744 A 20,20 0 0 0 9.873,9.838 20,20 0 0 0 5.757,32.11 Z m 5.807,-7.435 2.475,-0.564 a 10,10 0 0 1 2.905,-7.201 10,10 0 0 1 7.197,-2.92 l 0.575,-2.476 a 12.5,12.5 0 0 0 -9.54,3.628 12.5,12.5 0 0 0 -3.612,9.533 z" />
</svg>
