<?xml version="1.0" encoding="UTF-8" standalone="no"?>
<svg
   xmlns:dc="http://purl.org/dc/elements/1.1/"
   xmlns:cc="http://creativecommons.org/ns#"
   xmlns:rdf="http://www.w3.org/1999/02/22-rdf-syntax-ns#"
   xmlns:svg="http://www.w3.org/2000/svg"
   xmlns="http://www.w3.org/2000/svg"
   xmlns:sodipodi="http://sodipodi.sourceforge.net/DTD/sodipodi-0.dtd"
   xmlns:inkscape="http://www.inkscape.org/namespaces/inkscape"
   width="48"
   height="48"
   version="1"
   id="svg8"
   sodipodi:docname="audio-speaker-center-back.svg"
   inkscape:version="0.92.5 (2060ec1f9f, 2020-04-08)">
  <defs
     id="defs8">
  <style
     id="current-color-scheme"
     type="text/css">
      .ColorScheme-Highlight {
        color:#5beedc;
      }
  </style>
  </defs>
  <path
     class="ColorScheme-Highlight"
     style="fill:#5beedc"
     inkscape:connector-curvature="0"
     id="path2"
     d="M 4,23.97 A 20,20 0 0 0 23.938,44 20,20 0 0 0 44,24.092 L 24,24 Z" />
  <path
     class="ColorScheme-Highlight"
     style="fill:#5beedc;opacity:0.5"
     inkscape:connector-curvature="0"
     id="path4"
     d="m 5.367,16.838 2.44,0.609 A 17.5,17.5 0 0 1 24.025,6.5 17.5,17.5 0 0 1 40.22,17.449 l 2.438,-0.607 A 20,20 0 0 0 24.025,4 20,20 0 0 0 5.367,16.838 Z m 9.364,-1.151 2.148,1.35 A 10,10 0 0 1 24.025,14 a 10,10 0 0 1 7.153,3.024 l 2.158,-1.344 a 12.5,12.5 0 0 0 -9.31,-4.18 12.5,12.5 0 0 0 -9.295,4.187 z" />
</svg>
