<?xml version="1.0" encoding="UTF-8" standalone="no"?>
<svg
   xmlns:dc="http://purl.org/dc/elements/1.1/"
   xmlns:cc="http://creativecommons.org/ns#"
   xmlns:rdf="http://www.w3.org/1999/02/22-rdf-syntax-ns#"
   xmlns:svg="http://www.w3.org/2000/svg"
   xmlns="http://www.w3.org/2000/svg"
   xmlns:sodipodi="http://sodipodi.sourceforge.net/DTD/sodipodi-0.dtd"
   xmlns:inkscape="http://www.inkscape.org/namespaces/inkscape"
   width="48"
   height="48"
   viewBox="0 0 12.7 12.7"
   version="1.1"
   id="svg4"
   sodipodi:docname="auth-sim.svg"
   inkscape:version="0.92.5 (2060ec1f9f, 2020-04-08)">
  <defs
     id="defs8">
  <style
     id="current-color-scheme"
     type="text/css">
      .ColorScheme-Highlight {
        color:#5beedc;
      }
  </style>
  </defs>
  <path
     class="ColorScheme-Highlight"
     style="fill:#5beedc"
     d="M 24 0 C 10.745166 0 -1.4210855e-14 10.745166 0 24 C 0 37.254834 10.745166 48 24 48 C 37.254834 48 48 37.254834 48 24 C 48 10.745166 37.254834 -1.4210855e-14 24 0 z M 24 3 C 35.59798 3 45 12.40202 45 24 C 45 35.59798 35.59798 45 24 45 C 12.40202 45 3 35.59798 3 24 C 3 12.40202 12.40202 3 24 3 z M 21 11 L 12 20 L 12 36 C 12 37.108 12.892 38 14 38 L 34 38 C 35.108 38 36 37.108 36 36 L 36 13 C 36 11.892 35.108 11 34 11 L 21 11 z M 15 24 L 19 24 L 19 29 L 15 29 L 15 24 z M 22 24 L 26 24 L 26 35 L 22 35 L 22 24 z M 29 24 L 33 24 L 33 28 L 29 28 L 29 24 z M 29 30 L 33 30 L 33 35 L 29 35 L 29 30 z M 15 31 L 19 31 L 19 35 L 15 35 L 15 31 z "
     transform="scale(0.26458333)"
     id="path817" />
</svg>
