<?xml version="1.0" encoding="UTF-8" standalone="no"?>
<svg
   xmlns:dc="http://purl.org/dc/elements/1.1/"
   xmlns:cc="http://creativecommons.org/ns#"
   xmlns:rdf="http://www.w3.org/1999/02/22-rdf-syntax-ns#"
   xmlns:svg="http://www.w3.org/2000/svg"
   xmlns="http://www.w3.org/2000/svg"
   xmlns:sodipodi="http://sodipodi.sourceforge.net/DTD/sodipodi-0.dtd"
   xmlns:inkscape="http://www.inkscape.org/namespaces/inkscape"
   width="48"
   height="48"
   viewBox="0 0 12.7 12.7"
   version="1.1"
   id="svg4"
   sodipodi:docname="blueman-serial.svg"
   inkscape:version="0.92.5 (2060ec1f9f, 2020-04-08)">
  <defs
     id="defs8">
  <style
     id="current-color-scheme"
     type="text/css">
      .ColorScheme-Highlight {
        color:#5beedc;
      }
  </style>
  </defs>
  <path
     class="ColorScheme-Highlight"
     style="fill:#5beedc"
     d="M 24 0 A 24 24 0 0 0 0 24 A 24 24 0 0 0 24 48 A 24 24 0 0 0 48 24 A 24 24 0 0 0 24 0 z M 24 3 A 21 21 0 0 1 45 24 A 21 21 0 0 1 24 45 A 21 21 0 0 1 3 24 A 21 21 0 0 1 24 3 z M 17 10 L 17 15 L 31 15 L 31 10 L 17 10 z M 11 17 L 11 28 L 11 31 L 15 31 L 15 28 L 19 28 L 21 37 L 27 37 L 29 28 L 33 28 L 33 31 L 37 31 L 37 28 L 37 17 L 11 17 z M 20 19 L 28 19 L 28 21 L 20 21 L 20 19 z M 20 23 L 28 23 L 28 25 L 20 25 L 20 23 z M 22 27 L 26 27 L 26 29 L 22 29 L 22 27 z M 22 31 L 26 31 L 26 33 L 22 33 L 22 31 z M 11 33 L 11 37 L 14 37 L 14 33 L 11 33 z M 34 33 L 34 37 L 37 37 L 37 33 L 34 33 z "
     transform="scale(0.26458333)"
     id="path817" />
</svg>
