<?xml version="1.0" encoding="UTF-8" standalone="no"?>
<svg
   xmlns:dc="http://purl.org/dc/elements/1.1/"
   xmlns:cc="http://creativecommons.org/ns#"
   xmlns:rdf="http://www.w3.org/1999/02/22-rdf-syntax-ns#"
   xmlns:svg="http://www.w3.org/2000/svg"
   xmlns="http://www.w3.org/2000/svg"
   xmlns:sodipodi="http://sodipodi.sourceforge.net/DTD/sodipodi-0.dtd"
   xmlns:inkscape="http://www.inkscape.org/namespaces/inkscape"
   width="48"
   height="48"
   viewBox="0 0 12.7 12.7"
   version="1.1"
   id="svg4"
   sodipodi:docname="scanner.svg"
   inkscape:version="0.92.5 (2060ec1f9f, 2020-04-08)">
  <defs
     id="defs8">
  <style
     id="current-color-scheme"
     type="text/css">
      .ColorScheme-Highlight {
        color:#5beedc;
      }
  </style>
  </defs>
  <path
     class="ColorScheme-Highlight"
     style="fill:#5beedc"
     d="M 24 0 A 24 24 0 0 0 0 24 A 24 24 0 0 0 24 48 A 24 24 0 0 0 48 24 A 24 24 0 0 0 24 0 z M 24 3 A 21 21 0 0 1 45 24 A 21 21 0 0 1 24 45 A 21 21 0 0 1 3 24 A 21 21 0 0 1 24 3 z M 13 9 C 12.446 9 12 9.4459998 12 10 L 12 17 L 9 17 L 9 19 L 12 19 L 12 39 C 12 39.554 12.446 40 13 40 L 35 40 C 35.554 40 36 39.554 36 39 L 36 19 L 39 19 L 39 17 L 36 17 L 36 10 C 36 9.4459998 35.554 9 35 9 L 13 9 z M 14 11 L 34 11 L 34 17 L 14 17 L 14 11 z M 14 19 L 34 19 L 34 34 L 14 34 L 14 19 z M 27.5 35 A 1.5 1.5 0 0 1 29 36.5 A 1.5 1.5 0 0 1 27.5 38 A 1.5 1.5 0 0 1 26 36.5 A 1.5 1.5 0 0 1 27.5 35 z M 32.5 35 A 1.5 1.5 0 0 1 34 36.5 A 1.5 1.5 0 0 1 32.5 38 A 1.5 1.5 0 0 1 31 36.5 A 1.5 1.5 0 0 1 32.5 35 z "
     transform="scale(0.26458333)"
     id="path817" />
</svg>
