<?xml version="1.0" encoding="UTF-8" standalone="no"?>
<svg
   xmlns:dc="http://purl.org/dc/elements/1.1/"
   xmlns:cc="http://creativecommons.org/ns#"
   xmlns:rdf="http://www.w3.org/1999/02/22-rdf-syntax-ns#"
   xmlns:svg="http://www.w3.org/2000/svg"
   xmlns="http://www.w3.org/2000/svg"
   xmlns:sodipodi="http://sodipodi.sourceforge.net/DTD/sodipodi-0.dtd"
   xmlns:inkscape="http://www.inkscape.org/namespaces/inkscape"
   width="48"
   height="48"
   viewBox="0 0 12.7 12.7"
   version="1.1"
   id="svg4"
   sodipodi:docname="colorimeter-colorhug.svg"
   inkscape:version="0.92.5 (2060ec1f9f, 2020-04-08)">
  <defs
     id="defs8">
  <style
     id="current-color-scheme"
     type="text/css">
      .ColorScheme-Highlight {
        color:#5beedc;
      }
  </style>
  </defs>
  <path
     class="ColorScheme-Highlight"
     style="fill:#5beedc"
     d="M 24 0 A 24 24 0 0 0 0 24 A 24 24 0 0 0 24 48 A 24 24 0 0 0 48 24 A 24 24 0 0 0 24 0 z M 24 3 A 21 21 0 0 1 45 24 A 21 21 0 0 1 24 45 A 21 21 0 0 1 3 24 A 21 21 0 0 1 24 3 z M 23 8 A 6.9999999 6.9999999 0 0 0 16 15 L 16 18 L 11 18 C 10.446 18 10 18.446 10 19 L 10 35 C 10 35.554 10.446 36 11 36 L 24 36 C 24.554 36 25 35.554 25 35 L 25 19 C 25 18.446 24.554 18 24 18 L 18 18 L 18 15 A 4.9999997 4.9999997 0 0 1 23 10 A 4.9999997 4.9999997 0 0 1 28 15 L 28 19 A 6.9999999 6.9999999 0 0 0 35 26 A 6.9999999 6.9999999 0 0 0 42 19 L 40 19 A 4.9999997 4.9999997 0 0 1 35 24 A 4.9999997 4.9999997 0 0 1 30 19 L 30 15 A 6.9999999 6.9999999 0 0 0 23 8 z "
     transform="scale(0.26458333)"
     id="path817" />
</svg>
