<?xml version="1.0" encoding="UTF-8" standalone="no"?>
<svg
   xmlns:dc="http://purl.org/dc/elements/1.1/"
   xmlns:cc="http://creativecommons.org/ns#"
   xmlns:rdf="http://www.w3.org/1999/02/22-rdf-syntax-ns#"
   xmlns:svg="http://www.w3.org/2000/svg"
   xmlns="http://www.w3.org/2000/svg"
   xmlns:sodipodi="http://sodipodi.sourceforge.net/DTD/sodipodi-0.dtd"
   xmlns:inkscape="http://www.inkscape.org/namespaces/inkscape"
   width="48"
   height="48"
   viewBox="0 0 12.7 12.7"
   version="1.1"
   id="svg4"
   sodipodi:docname="drive-removable-media-usb.svg"
   inkscape:version="0.92.5 (2060ec1f9f, 2020-04-08)">
  <defs
     id="defs8">
  <style
     id="current-color-scheme"
     type="text/css">
      .ColorScheme-Highlight {
        color:#5beedc;
      }
  </style>
  </defs>
  <path
     class="ColorScheme-Highlight"
     style="fill:#5beedc"
     d="M 24 0 A 24 24 0 0 0 0 24 A 24 24 0 0 0 24 48 A 24 24 0 0 0 48 24 A 24 24 0 0 0 24 0 z M 24 3 A 21 21 0 0 1 45 24 A 21 21 0 0 1 24 45 A 21 21 0 0 1 3 24 A 21 21 0 0 1 24 3 z M 12 9 C 11.446 9 11 9.4648803 11 10.042969 L 11 33 L 11 37.5 C 11 38.331001 11.446 39 12 39 L 36 39 C 36.554 39 37 38.331001 37 37.5 L 37 33 L 37 10.042969 C 37 9.4648803 36.554 9 36 9 L 12 9 z M 24 12 L 27 16 L 25 16 L 25 26.199219 L 28 25 L 28 22 L 27 22 L 27 18 L 31 18 L 31 22 L 30 22 L 30 25 L 30 27 L 25.962891 28.615234 A 1.9999999 1.9999999 0 0 1 26 29 A 1.9999999 1.9999999 0 0 1 25.992188 29.15625 A 1.9999999 1.9999999 0 0 1 25.976562 29.296875 A 1.9999999 1.9999999 0 0 1 25.966797 29.359375 A 1.9999999 1.9999999 0 0 1 25.943359 29.464844 A 1.9999999 1.9999999 0 0 1 25.916016 29.570312 A 1.9999999 1.9999999 0 0 1 25.884766 29.662109 A 1.9999999 1.9999999 0 0 1 25.853516 29.744141 A 1.9999999 1.9999999 0 0 1 25.808594 29.849609 A 1.9999999 1.9999999 0 0 1 25.769531 29.927734 A 1.9999999 1.9999999 0 0 1 25.71875 30.019531 A 1.9999999 1.9999999 0 0 1 25.544922 30.269531 A 1.9999999 1.9999999 0 0 1 25.484375 30.337891 A 1.9999999 1.9999999 0 0 1 25.414062 30.414062 A 1.9999999 1.9999999 0 0 1 25.337891 30.484375 A 1.9999999 1.9999999 0 0 1 25.269531 30.544922 A 1.9999999 1.9999999 0 0 1 25.019531 30.71875 A 1.9999999 1.9999999 0 0 1 24.927734 30.769531 A 1.9999999 1.9999999 0 0 1 24.849609 30.808594 A 1.9999999 1.9999999 0 0 1 24.744141 30.853516 A 1.9999999 1.9999999 0 0 1 24.662109 30.884766 A 1.9999999 1.9999999 0 0 1 24.570312 30.916016 A 1.9999999 1.9999999 0 0 1 24.464844 30.943359 A 1.9999999 1.9999999 0 0 1 24.359375 30.966797 A 1.9999999 1.9999999 0 0 1 24.296875 30.976562 A 1.9999999 1.9999999 0 0 1 24.15625 30.992188 A 1.9999999 1.9999999 0 0 1 24 31 A 1.9999999 1.9999999 0 0 1 23.84375 30.992188 A 1.9999999 1.9999999 0 0 1 23.703125 30.976562 A 1.9999999 1.9999999 0 0 1 23.640625 30.966797 A 1.9999999 1.9999999 0 0 1 23.535156 30.943359 A 1.9999999 1.9999999 0 0 1 23.429688 30.916016 A 1.9999999 1.9999999 0 0 1 23.337891 30.884766 A 1.9999999 1.9999999 0 0 1 23.255859 30.853516 A 1.9999999 1.9999999 0 0 1 23.150391 30.808594 A 1.9999999 1.9999999 0 0 1 23.072266 30.769531 A 1.9999999 1.9999999 0 0 1 22.980469 30.71875 A 1.9999999 1.9999999 0 0 1 22.888672 30.662109 A 1.9999999 1.9999999 0 0 1 22.832031 30.621094 A 1.9999999 1.9999999 0 0 1 22.730469 30.544922 A 1.9999999 1.9999999 0 0 1 22.662109 30.484375 A 1.9999999 1.9999999 0 0 1 22.585938 30.414062 A 1.9999999 1.9999999 0 0 1 22.515625 30.337891 A 1.9999999 1.9999999 0 0 1 22.455078 30.269531 A 1.9999999 1.9999999 0 0 1 22.378906 30.167969 A 1.9999999 1.9999999 0 0 1 22.337891 30.111328 A 1.9999999 1.9999999 0 0 1 22.28125 30.019531 A 1.9999999 1.9999999 0 0 1 22.230469 29.927734 A 1.9999999 1.9999999 0 0 1 22.191406 29.849609 A 1.9999999 1.9999999 0 0 1 22.146484 29.744141 A 1.9999999 1.9999999 0 0 1 22.115234 29.662109 A 1.9999999 1.9999999 0 0 1 22.083984 29.570312 A 1.9999999 1.9999999 0 0 1 22.056641 29.464844 A 1.9999999 1.9999999 0 0 1 22.033203 29.359375 A 1.9999999 1.9999999 0 0 1 22.023438 29.296875 A 1.9999999 1.9999999 0 0 1 22.007812 29.15625 A 1.9999999 1.9999999 0 0 1 22 29 A 1.9999999 1.9999999 0 0 1 22.037109 28.615234 L 18 27 L 18 25 L 18 23.730469 A 1.9999999 1.9999999 0 0 1 17 22 A 1.9999999 1.9999999 0 0 1 19 20 A 1.9999999 1.9999999 0 0 1 21 22 A 1.9999999 1.9999999 0 0 1 20 23.728516 L 20 25 L 23 26.199219 L 23 16 L 21 16 L 24 12 z M 24 34 L 26 34 L 26 38 L 24 38 L 24 34 z M 28 34 L 30 34 L 30 38 L 28 38 L 28 34 z M 32 34 L 34 34 L 34 38 L 32 38 L 32 34 z "
     transform="scale(0.26458333)"
     id="path836" />
</svg>
