<?xml version="1.0" encoding="UTF-8" standalone="no"?>
<svg
   xmlns:dc="http://purl.org/dc/elements/1.1/"
   xmlns:cc="http://creativecommons.org/ns#"
   xmlns:rdf="http://www.w3.org/1999/02/22-rdf-syntax-ns#"
   xmlns:svg="http://www.w3.org/2000/svg"
   xmlns="http://www.w3.org/2000/svg"
   xmlns:sodipodi="http://sodipodi.sourceforge.net/DTD/sodipodi-0.dtd"
   xmlns:inkscape="http://www.inkscape.org/namespaces/inkscape"
   width="48"
   height="48"
   viewBox="0 0 12.7 12.7"
   version="1.1"
   id="svg4"
   sodipodi:docname="drive-multidisk.svg"
   inkscape:version="0.92.5 (2060ec1f9f, 2020-04-08)">
  <defs
     id="defs8">
  <style
     id="current-color-scheme"
     type="text/css">
      .ColorScheme-Highlight {
        color:#5beedc;
      }
  </style>
  </defs>
  <path
     class="ColorScheme-Highlight"
     style="fill:#5beedc"
     d="M 24 0 A 24 24 0 0 0 0 24 A 24 24 0 0 0 24 48 A 24 24 0 0 0 48 24 A 24 24 0 0 0 42 8.1582031 A 24 24 0 0 0 40.921875 7 A 24 24 0 0 0 24 0 z M 24 3 A 21 21 0 0 1 36.294922 7 A 21 21 0 0 1 42 13.228516 A 21 21 0 0 1 45 24 A 21 21 0 0 1 42 34.769531 A 21 21 0 0 1 38.412109 39.255859 A 21 21 0 0 1 24 45 A 21 21 0 0 1 8.6796875 38.339844 A 21 21 0 0 1 8.1191406 37.701172 A 21 21 0 0 1 3 24 A 21 21 0 0 1 24 3 z M 11 10 C 10.446 10 10 10.446 10 11 L 10 31 C 10 31.554 10.446 32 11 32 L 31 32 C 31.554 32 32 31.554 32 31 L 32 11 C 32 10.446 31.554 10 31 10 L 11 10 z M 21 13 A 7.9999992 7.9999992 0 0 1 29 21 A 7.9999992 7.9999992 0 0 1 21 29 L 13 29 L 13 21 A 7.9999992 7.9999992 0 0 1 21 13 z M 35 13 L 35 35 L 13 35 L 13 37 L 36 37 C 36.554 37 37 36.554 37 36 L 37 13 L 35 13 z M 21 17 A 3.9999997 3.9999997 0 0 0 17 21 A 3.9999997 3.9999997 0 0 0 21 25 A 3.9999997 3.9999997 0 0 0 25 21 A 3.9999997 3.9999997 0 0 0 21 17 z "
     transform="scale(0.26458333)"
     id="path833" />
</svg>
