<?xml version="1.0" encoding="UTF-8" standalone="no"?>
<svg
   xmlns:dc="http://purl.org/dc/elements/1.1/"
   xmlns:cc="http://creativecommons.org/ns#"
   xmlns:rdf="http://www.w3.org/1999/02/22-rdf-syntax-ns#"
   xmlns:svg="http://www.w3.org/2000/svg"
   xmlns="http://www.w3.org/2000/svg"
   xmlns:sodipodi="http://sodipodi.sourceforge.net/DTD/sodipodi-0.dtd"
   xmlns:inkscape="http://www.inkscape.org/namespaces/inkscape"
   width="48"
   height="48"
   viewBox="0 0 12.7 12.7"
   version="1.1"
   id="svg4"
   sodipodi:docname="drive-optical.svg"
   inkscape:version="0.92.5 (2060ec1f9f, 2020-04-08)">
  <defs
     id="defs8">
  <style
     id="current-color-scheme"
     type="text/css">
      .ColorScheme-Highlight {
        color:#5beedc;
      }
  </style>
  </defs>
  <path
     class="ColorScheme-Highlight"
     style="fill:#5beedc"
     d="M 24 0 A 24 24 0 0 0 0 24 A 24 24 0 0 0 24 48 A 24 24 0 0 0 48 24 A 24 24 0 0 0 24 0 z M 24 3 A 21 21 0 0 1 45 24 A 21 21 0 0 1 24 45 A 21 21 0 0 1 3 24 A 21 21 0 0 1 24 3 z M 12 9 C 11.446 9 11 9.4648801 11 10.042969 L 11 33 L 11 37.5 C 11 38.331001 11.446 39 12 39 L 36 39 C 36.554 39 37 38.331001 37 37.5 L 37 33 L 37 10.042969 C 37 9.4648801 36.554 9 36 9 L 12 9 z M 24 11 A 11 11 0 0 1 35 22 A 11 11 0 0 1 24 33 A 11 11 0 0 1 13 22 A 11 11 0 0 1 24 11 z M 24 19 A 2.9999993 2.9999993 0 0 0 21 22 A 2.9999993 2.9999993 0 0 0 24 25 A 2.9999993 2.9999993 0 0 0 27 22 A 2.9999993 2.9999993 0 0 0 24 19 z M 13 35 L 35 35 L 35 37 L 13 37 L 13 35 z "
     transform="scale(0.26458333)"
     id="path836" />
</svg>
