<?xml version="1.0" encoding="UTF-8" standalone="no"?>
<svg
   xmlns:dc="http://purl.org/dc/elements/1.1/"
   xmlns:cc="http://creativecommons.org/ns#"
   xmlns:rdf="http://www.w3.org/1999/02/22-rdf-syntax-ns#"
   xmlns:svg="http://www.w3.org/2000/svg"
   xmlns="http://www.w3.org/2000/svg"
   xmlns:sodipodi="http://sodipodi.sourceforge.net/DTD/sodipodi-0.dtd"
   xmlns:inkscape="http://www.inkscape.org/namespaces/inkscape"
   width="48"
   height="48"
   viewBox="0 0 12.7 12.7"
   version="1.1"
   id="svg4"
   sodipodi:docname="hifi.svg"
   inkscape:version="0.92.5 (2060ec1f9f, 2020-04-08)">
  <defs
     id="defs8">
  <style
     id="current-color-scheme"
     type="text/css">
      .ColorScheme-Highlight {
        color:#5beedc;
      }
  </style>
  </defs>
  <path
     class="ColorScheme-Highlight"
     style="fill:#5beedc"
     d="M 24 0 A 24 24 0 0 0 0 24 A 24 24 0 0 0 24 48 A 24 24 0 0 0 48 24 A 24 24 0 0 0 24 0 z M 24 3 A 21 21 0 0 1 45 24 A 21 21 0 0 1 24 45 A 21 21 0 0 1 3 24 A 21 21 0 0 1 24 3 z M 15 8 C 14.446 8 14 8.446 14 9 L 14 33 C 14 33.554 14.446 34 15 34 L 21 34 L 21 39 L 16 39 L 16 41 L 32 41 L 32 39 L 27 39 L 27 34 L 33 34 C 33.554 34 34 33.554 34 33 L 34 9 C 34 8.446 33.554 8 33 8 L 15 8 z M 18 10 A 1.9999999 1.9999999 0 0 1 20 12 A 1.9999999 1.9999999 0 0 1 18 14 A 1.9999999 1.9999999 0 0 1 16 12 A 1.9999999 1.9999999 0 0 1 18 10 z M 30 10 A 1.9999999 1.9999999 0 0 1 32 12 A 1.9999999 1.9999999 0 0 1 30 14 A 1.9999999 1.9999999 0 0 1 28 12 A 1.9999999 1.9999999 0 0 1 30 10 z M 24 17 A 7 7 0 0 1 31 24 A 7 7 0 0 1 24 31 A 7 7 0 0 1 17 24 A 7 7 0 0 1 24 17 z M 24 21 A 3 3 0 0 0 21 24 A 3 3 0 0 0 24 27 A 3 3 0 0 0 27 24 A 3 3 0 0 0 24 21 z "
     transform="scale(0.26458333)"
     id="rect849" />
</svg>
