<?xml version="1.0" encoding="UTF-8" standalone="no"?>
<svg
   xmlns:dc="http://purl.org/dc/elements/1.1/"
   xmlns:cc="http://creativecommons.org/ns#"
   xmlns:rdf="http://www.w3.org/1999/02/22-rdf-syntax-ns#"
   xmlns:svg="http://www.w3.org/2000/svg"
   xmlns="http://www.w3.org/2000/svg"
   xmlns:sodipodi="http://sodipodi.sourceforge.net/DTD/sodipodi-0.dtd"
   xmlns:inkscape="http://www.inkscape.org/namespaces/inkscape"
   width="48"
   height="48"
   viewBox="0 0 12.7 12.7"
   version="1.1"
   id="svg4"
   sodipodi:docname="printer-network.svg"
   inkscape:version="0.92.5 (2060ec1f9f, 2020-04-08)">
  <defs
     id="defs8">
  <style
     id="current-color-scheme"
     type="text/css">
      .ColorScheme-Highlight {
        color:#5beedc;
      }
  </style>
  </defs>
  <path
     class="ColorScheme-Highlight"
     style="fill:#5beedc"
     d="M 24 0 A 24 24 0 0 0 0 24 A 24 24 0 0 0 24 48 A 24 24 0 0 0 48 24 A 24 24 0 0 0 24 0 z M 24 3 A 21 21 0 0 1 45 24 A 21 21 0 0 1 41.224609 36 L 26 36 L 26 31 L 30 31 L 30 28 L 18 28 L 18 31 L 22 31 L 22 36 L 6.796875 36 A 21 21 0 0 1 3 24 A 21 21 0 0 1 24 3 z M 19 9 L 19 19 L 29 19 L 29 9 L 19 9 z M 14 14 C 13.446 14 13 14.446 13 15 L 13 25 C 13 25.554 13.446 26 14 26 L 34 26 C 34.554 26 35 25.554 35 25 L 35 15 C 35 14.446 34.554 14 34 14 L 31 14 L 31 21 L 17 21 L 17 14 L 14 14 z M 8.3808594 38 L 22 38 L 26 38 L 39.623047 38 A 21 21 0 0 1 24 45 A 21 21 0 0 1 8.3808594 38 z "
     transform="scale(0.26458333)"
     id="path842" />
</svg>
