<?xml version="1.0" encoding="UTF-8" standalone="no"?>
<svg
   xmlns:dc="http://purl.org/dc/elements/1.1/"
   xmlns:cc="http://creativecommons.org/ns#"
   xmlns:rdf="http://www.w3.org/1999/02/22-rdf-syntax-ns#"
   xmlns:svg="http://www.w3.org/2000/svg"
   xmlns="http://www.w3.org/2000/svg"
   xmlns:sodipodi="http://sodipodi.sourceforge.net/DTD/sodipodi-0.dtd"
   xmlns:inkscape="http://www.inkscape.org/namespaces/inkscape"
   width="48"
   height="48"
   viewBox="0 0 12.7 12.7"
   version="1.1"
   id="svg4"
   sodipodi:docname="input-keyboard.svg"
   inkscape:version="0.92.5 (2060ec1f9f, 2020-04-08)">
  <defs
     id="defs8">
  <style
     id="current-color-scheme"
     type="text/css">
      .ColorScheme-Highlight {
        color:#5beedc;
      }
  </style>
  </defs>
  <path
     class="ColorScheme-Highlight"
     style="fill:#5beedc"
     d="M 24 0 A 24 24 0 0 0 0 24 A 24 24 0 0 0 24 48 A 24 24 0 0 0 48 24 A 24 24 0 0 0 24 0 z M 24 3 A 21 21 0 0 1 45 24 A 21 21 0 0 1 24 45 A 21 21 0 0 1 3 24 A 21 21 0 0 1 24 3 z M 9 13 C 8.4459999 13 8 13.446 8 14 L 8 34 C 8 34.554 8.4459999 35 9 35 L 39 35 C 39.554 35 40 34.554 40 34 L 40 14 C 40 13.446 39.554 13 39 13 L 9 13 z M 10 17 L 14 17 L 14 21 L 10 21 L 10 17 z M 16 17 L 20 17 L 20 21 L 16 21 L 16 17 z M 22 17 L 26 17 L 26 21 L 22 21 L 22 17 z M 28 17 L 32 17 L 32 21 L 28 21 L 28 17 z M 34 17 L 38 17 L 38 21 L 34 21 L 34 17 z M 10 23 L 14 23 L 14 27 L 10 27 L 10 23 z M 16 23 L 20 23 L 20 27 L 16 27 L 16 23 z M 22 23 L 26 23 L 26 27 L 22 27 L 22 23 z M 28 23 L 32 23 L 32 27 L 28 27 L 28 23 z M 34 23 L 38 23 L 38 27 L 34 27 L 34 23 z M 15 30 L 33 30 L 33 32 L 15 32 L 15 30 z "
     transform="scale(0.26458333)"
     id="rect823" />
</svg>
