<?xml version="1.0" encoding="UTF-8" standalone="no"?>
<svg
   xmlns:dc="http://purl.org/dc/elements/1.1/"
   xmlns:cc="http://creativecommons.org/ns#"
   xmlns:rdf="http://www.w3.org/1999/02/22-rdf-syntax-ns#"
   xmlns:svg="http://www.w3.org/2000/svg"
   xmlns="http://www.w3.org/2000/svg"
   xmlns:sodipodi="http://sodipodi.sourceforge.net/DTD/sodipodi-0.dtd"
   xmlns:inkscape="http://www.inkscape.org/namespaces/inkscape"
   width="48"
   height="48"
   viewBox="0 0 12.7 12.7"
   version="1.1"
   id="svg4"
   sodipodi:docname="input-dialpad.svg"
   inkscape:version="0.92.5 (2060ec1f9f, 2020-04-08)">
  <defs
     id="defs8">
  <style
     id="current-color-scheme"
     type="text/css">
      .ColorScheme-Highlight {
        color:#5beedc;
      }
  </style>
  </defs>
  <path
     class="ColorScheme-Highlight"
     style="fill:#5beedc"
     d="M 24 0 A 24 24 0 0 0 0 24 A 24 24 0 0 0 24 48 A 24 24 0 0 0 48 24 A 24 24 0 0 0 24 0 z M 24 3 A 21 21 0 0 1 45 24 A 21 21 0 0 1 24 45 A 21 21 0 0 1 3 24 A 21 21 0 0 1 24 3 z M 14 11 L 14 37 L 34 37 L 34 11 L 14 11 z M 16 13 L 20 13 L 20 17 L 16 17 L 16 13 z M 22 13 L 26 13 L 26 17 L 22 17 L 22 13 z M 28 13 L 32 13 L 32 17 L 28 17 L 28 13 z M 16 19 L 20 19 L 20 23 L 16 23 L 16 19 z M 22 19 L 26 19 L 26 23 L 22 23 L 22 19 z M 28 19 L 32 19 L 32 23 L 28 23 L 28 19 z M 16 25 L 20 25 L 20 29 L 16 29 L 16 25 z M 22 25 L 26 25 L 26 29 L 22 29 L 22 25 z M 28 25 L 32 25 L 32 29 L 28 29 L 28 25 z M 22 31 L 26 31 L 26 35 L 22 35 L 22 31 z "
     transform="scale(0.26458333)"
     id="rect825" />
</svg>
