<?xml version="1.0" encoding="UTF-8" standalone="no"?>
<svg
   xmlns:dc="http://purl.org/dc/elements/1.1/"
   xmlns:cc="http://creativecommons.org/ns#"
   xmlns:rdf="http://www.w3.org/1999/02/22-rdf-syntax-ns#"
   xmlns:svg="http://www.w3.org/2000/svg"
   xmlns="http://www.w3.org/2000/svg"
   xmlns:sodipodi="http://sodipodi.sourceforge.net/DTD/sodipodi-0.dtd"
   xmlns:inkscape="http://www.inkscape.org/namespaces/inkscape"
   width="48"
   height="48"
   viewBox="0 0 12.7 12.7"
   version="1.1"
   id="svg4"
   sodipodi:docname="network-rj11-female.svg"
   inkscape:version="0.92.5 (2060ec1f9f, 2020-04-08)">
  <defs
     id="defs8">
  <style
     id="current-color-scheme"
     type="text/css">
      .ColorScheme-Highlight {
        color:#5beedc;
      }
  </style>
  </defs>
  <path
     class="ColorScheme-Highlight"
     style="fill:#5beedc"
     d="M 6.3499999,12.7 A 6.3499999,6.3499999 0 0 1 0,6.3499999 6.3499999,6.3499999 0 0 1 6.3499999,0 6.3499999,6.3499999 0 0 1 12.7,6.3499999 6.3499999,6.3499999 0 0 1 6.3499999,12.7 Z m 0,-0.79375 A 5.5562499,5.5562499 0 0 0 11.90625,6.3499999 5.5562499,5.5562499 0 0 0 6.3499999,0.79374999 5.5562499,5.5562499 0 0 0 0.79374999,6.3499999 5.5562499,5.5562499 0 0 0 6.3499999,11.90625 Z M 2.6458333,9.5249999 V 7.6729166 H 2.38125 V 7.1437499 H 3.175 v -0.79375 H 2.38125 V 5.8208333 H 2.9104166 V 4.4979166 h 0.79375 V 3.4395833 h 1.0583333 v -0.79375 h 3.175 v 0.79375 h 1.0583333 v 1.0583333 h 0.79375 V 5.8208333 H 10.31875 V 6.3499999 H 9.5249999 v 0.79375 H 10.31875 V 7.6729166 H 10.054167 V 9.5249999 H 9.2604166 v -1.5875 H 8.7312499 v 1.5875 H 8.2020832 v -1.5875 H 7.6729166 v 1.5875 H 7.1437499 v -1.5875 H 6.6145833 v 1.5875 H 6.0854166 v -1.5875 H 5.5562499 v 1.5875 H 5.0270833 v -1.5875 H 4.4979166 v 1.5875 H 3.96875 v -1.5875 H 3.4395833 v 1.5875 z"
     id="rect824"
     inkscape:connector-curvature="0" />
</svg>
