<?xml version="1.0" encoding="UTF-8" standalone="no"?>
<svg
   xmlns:dc="http://purl.org/dc/elements/1.1/"
   xmlns:cc="http://creativecommons.org/ns#"
   xmlns:rdf="http://www.w3.org/1999/02/22-rdf-syntax-ns#"
   xmlns:svg="http://www.w3.org/2000/svg"
   xmlns="http://www.w3.org/2000/svg"
   xmlns:sodipodi="http://sodipodi.sourceforge.net/DTD/sodipodi-0.dtd"
   xmlns:inkscape="http://www.inkscape.org/namespaces/inkscape"
   width="48"
   height="48"
   viewBox="0 0 12.7 12.7"
   version="1.1"
   id="svg4"
   sodipodi:docname="network-rj45-female.svg"
   inkscape:version="0.92.5 (2060ec1f9f, 2020-04-08)">
  <defs
     id="defs8">
  <style
     id="current-color-scheme"
     type="text/css">
      .ColorScheme-Highlight {
        color:#5beedc;
      }
  </style>
  </defs>
  <path
     class="ColorScheme-Highlight"
     style="fill:#5beedc"
     d="M 24 0 A 24 24 0 0 0 0 24 A 24 24 0 0 0 24 48 A 24 24 0 0 0 48 24 A 24 24 0 0 0 24 0 z M 24 3 A 21 21 0 0 1 45 24 A 21 21 0 0 1 24 45 A 21 21 0 0 1 3 24 A 21 21 0 0 1 24 3 z M 10 12 L 10 19 L 9 19 L 9 21 L 12 21 L 12 24 L 9 24 L 9 26 L 11 26 L 11 31 L 14 31 L 14 35 L 18 35 L 18 38 L 30 38 L 30 35 L 34 35 L 34 31 L 37 31 L 37 26 L 39 26 L 39 24 L 36 24 L 36 21 L 39 21 L 39 19 L 38 19 L 38 12 L 35 12 L 35 18 L 33 18 L 33 12 L 31 12 L 31 18 L 29 18 L 29 12 L 27 12 L 27 18 L 25 18 L 25 12 L 23 12 L 23 18 L 21 18 L 21 12 L 19 12 L 19 18 L 17 18 L 17 12 L 15 12 L 15 18 L 13 18 L 13 12 L 10 12 z "
     transform="scale(0.26458333)"
     id="rect824" />
</svg>
