<?xml version="1.0" encoding="UTF-8" standalone="no"?>
<svg
   xmlns:dc="http://purl.org/dc/elements/1.1/"
   xmlns:cc="http://creativecommons.org/ns#"
   xmlns:rdf="http://www.w3.org/1999/02/22-rdf-syntax-ns#"
   xmlns:svg="http://www.w3.org/2000/svg"
   xmlns="http://www.w3.org/2000/svg"
   xmlns:sodipodi="http://sodipodi.sourceforge.net/DTD/sodipodi-0.dtd"
   xmlns:inkscape="http://www.inkscape.org/namespaces/inkscape"
   width="48"
   height="48"
   viewBox="0 0 12.7 12.7"
   version="1.1"
   id="svg4"
   sodipodi:docname="network-modem.svg"
   inkscape:version="0.92.5 (2060ec1f9f, 2020-04-08)">
  <defs
     id="defs8">
  <style
     id="current-color-scheme"
     type="text/css">
      .ColorScheme-Highlight {
        color:#5beedc;
      }
  </style>
  </defs>
  <path
     class="ColorScheme-Highlight"
     style="fill:#5beedc"
     d="M 24 0 C 10.745166 0 -4.7369516e-15 10.745166 0 24 C 0 37.254834 10.745166 48 24 48 C 37.254834 48 48 37.254834 48 24 C 48 10.745166 37.254834 -4.7369516e-15 24 0 z M 24 3 C 35.59798 3 45 12.40202 45 24 C 45 35.59798 35.59798 45 24 45 C 12.40202 45 3 35.59798 3 24 C 3 12.40202 12.40202 3 24 3 z M 14 11 C 13.446 11 13 11.446 13 12 L 13 18 L 13 23 L 13 24 L 11 24 C 10.446 24 10 24.446 10 25 L 10 36 C 10 36.554 10.446 37 11 37 L 37 37 C 37.554 37 38 36.554 38 36 L 38 25 C 38 24.446 37.554 24 37 24 L 15 24 L 15 23 L 15 18 L 15 12 C 15 11.446 14.554 11 14 11 z M 24.5 28 C 25.880712 28 27 29.119288 27 30.5 C 27 31.880712 25.880712 33 24.5 33 C 23.119288 33 22 31.880712 22 30.5 C 22 29.119288 23.119288 28 24.5 28 z M 31.5 28 C 32.880712 28 34 29.119288 34 30.5 C 34 31.880712 32.880712 33 31.5 33 C 30.119288 33 29 31.880712 29 30.5 C 29 29.119288 30.119288 28 31.5 28 z "
     transform="scale(0.26458333)"
     id="path817" />
</svg>
