<?xml version="1.0" encoding="UTF-8" standalone="no"?>
<svg
   xmlns:dc="http://purl.org/dc/elements/1.1/"
   xmlns:cc="http://creativecommons.org/ns#"
   xmlns:rdf="http://www.w3.org/1999/02/22-rdf-syntax-ns#"
   xmlns:svg="http://www.w3.org/2000/svg"
   xmlns="http://www.w3.org/2000/svg"
   xmlns:sodipodi="http://sodipodi.sourceforge.net/DTD/sodipodi-0.dtd"
   xmlns:inkscape="http://www.inkscape.org/namespaces/inkscape"
   width="48"
   height="48"
   viewBox="0 0 12.7 12.7"
   version="1.1"
   id="svg4"
   sodipodi:docname="network-server-database.svg"
   inkscape:version="0.92.5 (2060ec1f9f, 2020-04-08)">
  <defs
     id="defs8">
  <style
     id="current-color-scheme"
     type="text/css">
      .ColorScheme-Highlight {
        color:#5beedc;
      }
  </style>
  </defs>
  <path
     class="ColorScheme-Highlight"
     style="fill:#5beedc"
     d="M 24 0 A 24 24 0 0 0 0 24 A 24 24 0 0 0 24 48 A 24 24 0 0 0 48 24 A 24 24 0 0 0 24 0 z M 24 3 A 21 21 0 0 1 45 24 A 21 21 0 0 1 41.224609 36 L 29 36 L 29 34 L 26 34 L 26 32 L 32 32 C 32.554 32 33 31.554 33 31 L 33 9 C 33 8.446 32.554 8 32 8 L 16 8 C 15.446 8 15 8.446 15 9 L 15 31 C 15 31.554 15.446 32 16 32 L 22 32 L 22 34 L 19 34 L 19 36 L 6.796875 36 A 21 21 0 0 1 3 24 A 21 21 0 0 1 24 3 z M 17 10 L 31 10 L 31 30 L 17 30 L 17 10 z M 18 11 L 18 15 L 30 15 L 30 11 L 18 11 z M 18 18 L 18 22 L 30 22 L 30 18 L 18 18 z M 18 25 L 18 29 L 30 29 L 30 25 L 18 25 z M 8.3808594 38 L 19 38 L 19 41 L 29 41 L 29 38 L 39.623047 38 A 21 21 0 0 1 24 45 A 21 21 0 0 1 8.3808594 38 z "
     transform="scale(0.26458333)"
     id="path831" />
</svg>
