<?xml version="1.0" encoding="UTF-8" standalone="no"?>
<svg
   xmlns:dc="http://purl.org/dc/elements/1.1/"
   xmlns:cc="http://creativecommons.org/ns#"
   xmlns:rdf="http://www.w3.org/1999/02/22-rdf-syntax-ns#"
   xmlns:svg="http://www.w3.org/2000/svg"
   xmlns="http://www.w3.org/2000/svg"
   xmlns:sodipodi="http://sodipodi.sourceforge.net/DTD/sodipodi-0.dtd"
   xmlns:inkscape="http://www.inkscape.org/namespaces/inkscape"
   width="48"
   height="48"
   viewBox="0 0 12.7 12.7"
   version="1.1"
   id="svg4"
   sodipodi:docname="tablet.svg"
   inkscape:version="0.92.5 (2060ec1f9f, 2020-04-08)">
  <defs
     id="defs8">
  <style
     id="current-color-scheme"
     type="text/css">
      .ColorScheme-Highlight {
        color:#5beedc;
      }
  </style>
  </defs>
  <path
     class="ColorScheme-Highlight"
     style="fill:#5beedc"
     d="M 24 0 A 24 24 0 0 0 0 24 A 24 24 0 0 0 24 48 A 24 24 0 0 0 48 24 A 24 24 0 0 0 24 0 z M 24 3 A 21 21 0 0 1 45 24 A 21 21 0 0 1 24 45 A 21 21 0 0 1 3 24 A 21 21 0 0 1 24 3 z M 13 11 C 12.446 11 12 11.446 12 12 L 12 37 C 12 37.554 12.446 38 13 38 L 35 38 C 35.554 38 36 37.554 36 37 L 36 12 C 36 11.446 35.554 11 35 11 L 13 11 z M 24 12 A 0.99999995 0.99999995 0 0 1 25 13 A 0.99999995 0.99999995 0 0 1 24 14 A 0.99999995 0.99999995 0 0 1 23 13 A 0.99999995 0.99999995 0 0 1 24 12 z M 13 15 L 35 15 L 35 36 L 13 36 L 13 15 z "
     transform="scale(0.26458333)"
     id="rect818" />
</svg>
