<?xml version="1.0" encoding="UTF-8" standalone="no"?>
<svg
   xmlns:dc="http://purl.org/dc/elements/1.1/"
   xmlns:cc="http://creativecommons.org/ns#"
   xmlns:rdf="http://www.w3.org/1999/02/22-rdf-syntax-ns#"
   xmlns:svg="http://www.w3.org/2000/svg"
   xmlns="http://www.w3.org/2000/svg"
   xmlns:sodipodi="http://sodipodi.sourceforge.net/DTD/sodipodi-0.dtd"
   xmlns:inkscape="http://www.inkscape.org/namespaces/inkscape"
   width="48"
   height="48"
   viewBox="0 0 12.7 12.7"
   version="1.1"
   id="svg8"
   sodipodi:docname="uninterruptible-power-supply.svg"
   inkscape:version="0.92.5 (2060ec1f9f, 2020-04-08)">
  <defs
     id="defs8">
  <style
     id="current-color-scheme"
     type="text/css">
      .ColorScheme-Highlight {
        color:#5beedc;
      }
  </style>
  </defs>
  <path
     class="ColorScheme-Highlight"
     style="fill:#5beedc"
     d="M 24 0 A 24 24 0 0 0 0 24 A 24 24 0 0 0 24 48 A 24 24 0 0 0 48 24 A 24 24 0 0 0 24 0 z M 24 3 A 21 21 0 0 1 45 24 A 21 21 0 0 1 24 45 A 21 21 0 0 1 3 24 A 21 21 0 0 1 24 3 z M 17 7 C 16.446 7 16 7.446 16 8 L 16 40 C 16 40.554 16.446 41 17 41 L 31 41 C 31.554 41 32 40.554 32 40 L 32 8 C 32 7.446 31.554 7 31 7 L 17 7 z M 20 11 L 28 11 L 28 13 L 20 13 L 20 11 z M 20 15 L 28 15 L 28 17 L 20 17 L 20 15 z M 20 19 L 28 19 L 28 21 L 20 21 L 20 19 z M 20 23 L 28 23 L 28 25 L 20 25 L 20 23 z M 24 31 A 3 3 0 0 1 27 34 A 3 3 0 0 1 24 37 A 3 3 0 0 1 21 34 A 3 3 0 0 1 24 31 z "
     transform="scale(0.26458333)"
     id="rect816" />
</svg>
