<?xml version="1.0" encoding="UTF-8" standalone="no"?>
<svg
   xmlns:dc="http://purl.org/dc/elements/1.1/"
   xmlns:cc="http://creativecommons.org/ns#"
   xmlns:rdf="http://www.w3.org/1999/02/22-rdf-syntax-ns#"
   xmlns:svg="http://www.w3.org/2000/svg"
   xmlns="http://www.w3.org/2000/svg"
   xmlns:sodipodi="http://sodipodi.sourceforge.net/DTD/sodipodi-0.dtd"
   xmlns:inkscape="http://www.inkscape.org/namespaces/inkscape"
   width="24"
   height="24"
   version="1"
   id="svg4"
   sodipodi:docname="distributor-logo-symbolic.svg"
   inkscape:version="0.92.4 (5da689c313, 2019-01-14)">
  <metadata
     id="metadata10">
    <rdf:RDF>
      <cc:Work
         rdf:about="">
        <dc:format>image/svg+xml</dc:format>
        <dc:type
           rdf:resource="http://purl.org/dc/dcmitype/StillImage" />
        <dc:title></dc:title>
      </cc:Work>
    </rdf:RDF>
  </metadata>
  <defs
     id="defs8" />
  <sodipodi:namedview
     pagecolor="#ffffff"
     bordercolor="#666666"
     borderopacity="1"
     objecttolerance="10"
     gridtolerance="10"
     guidetolerance="10"
     inkscape:pageopacity="0"
     inkscape:pageshadow="2"
     inkscape:window-width="640"
     inkscape:window-height="480"
     id="namedview6"
     showgrid="false"
     inkscape:zoom="9.8333333"
     inkscape:cx="10.220339"
     inkscape:cy="12"
     inkscape:window-x="0"
     inkscape:window-y="25"
     inkscape:window-maximized="0"
     inkscape:current-layer="svg4" />
  <path
     d="M 12.003,1.57 A 10.352,10.43 0 0 0 1.647,11.998 10.352,10.43 0 0 0 1.69,12.81 h 3.074 a 7.285,7.336 0 0 0 7.24,6.526 7.285,7.336 0 0 0 5.154,-2.155 L 16.07,16.094 A 5.754,5.796 0 0 1 12.003,17.796 5.754,5.796 0 0 1 6.308,12.81 H 20.92 A 8.96,9.024 0 0 1 12,21.024 8.96,9.024 0 0 1 3.348,14.308 L 1.996,14.651 A 10.352,10.43 0 0 0 12,22.43 10.352,10.43 0 0 0 22.352,11.998 10.352,10.43 0 0 0 22.318,11.291 H 6.293 A 5.754,5.796 0 0 1 12.003,6.204 5.754,5.796 0 0 1 16.1,7.929 L 17.182,6.847 A 7.285,7.336 0 0 0 12.003,4.662 V 4.664 A 7.285,7.336 0 0 0 4.757,11.291 H 3.076 a 8.96,9.024 0 0 1 8.927,-8.315 8.96,9.024 0 0 1 8.658,6.746 L 22.006,9.365 A 10.352,10.43 0 0 0 12.003,1.57 Z"
     id="path2"
     inkscape:connector-curvature="0"
     style="fill:#808080" />
</svg>
