<?xml version="1.0" encoding="UTF-8" standalone="no"?>
<svg
   xmlns:dc="http://purl.org/dc/elements/1.1/"
   xmlns:cc="http://creativecommons.org/ns#"
   xmlns:rdf="http://www.w3.org/1999/02/22-rdf-syntax-ns#"
   xmlns:svg="http://www.w3.org/2000/svg"
   xmlns="http://www.w3.org/2000/svg"
   xmlns:sodipodi="http://sodipodi.sourceforge.net/DTD/sodipodi-0.dtd"
   xmlns:inkscape="http://www.inkscape.org/namespaces/inkscape"
   width="24"
   height="24"
   version="1"
   id="svg21"
   sodipodi:docname="folder-music-symbolic.svg"
   inkscape:version="0.92.4 (5da689c313, 2019-01-14)">
  <metadata
     id="metadata25">
    <rdf:RDF>
      <cc:Work
         rdf:about="">
        <dc:format>image/svg+xml</dc:format>
        <dc:type
           rdf:resource="http://purl.org/dc/dcmitype/StillImage" />
        <dc:title></dc:title>
      </cc:Work>
    </rdf:RDF>
  </metadata>
  <sodipodi:namedview
     pagecolor="#ffffff"
     bordercolor="#666666"
     borderopacity="1"
     objecttolerance="10"
     gridtolerance="10"
     guidetolerance="10"
     inkscape:pageopacity="0"
     inkscape:pageshadow="2"
     inkscape:window-width="1085"
     inkscape:window-height="480"
     id="namedview23"
     showgrid="false"
     inkscape:zoom="9.8333333"
     inkscape:cx="1.0677966"
     inkscape:cy="12"
     inkscape:window-x="0"
     inkscape:window-y="25"
     inkscape:window-maximized="0"
     inkscape:current-layer="svg21" />
  <defs
     id="defs17">
    <linearGradient
       id="a">
      <stop
         offset="0"
         stop-color="#fff"
         id="stop2" />
      <stop
         offset="1"
         stop-color="#fff"
         stop-opacity=".379"
         id="stop4" />
    </linearGradient>
    <linearGradient
       id="b">
      <stop
         offset="0"
         stop-color="#aaa"
         id="stop7" />
      <stop
         offset="1"
         stop-color="#4d4d4d"
         id="stop9" />
    </linearGradient>
    <linearGradient
       id="c">
      <stop
         offset="0"
         id="stop12" />
      <stop
         offset="1"
         stop-opacity="0"
         id="stop14" />
    </linearGradient>
  </defs>
  <path
     d="M 18.622,2.834 C 15.711,3.298 12.364,3.777 9.461,4.267 8.693,4.637 8.865,5.594 8.831,6.287 v 9.285 c -1.975,-0.453 -4.144,1.023 -4.23,3.12 -0.14,1.306 1.03,2.443 2.303,2.474 2.278,0.054 4.01,-1.441 4.034,-3.333 -0.025,-3.178 0.007,-6.356 0,-9.534 0.353,-0.027 5.868,-1.034 6.349,-1.102 v 7.14 c -1.823,-0.537 -3.644,0.586 -4.093,2.466 -0.332,1.09 0.169,2.377 1.25,2.824 2.11,0.959 5.077,-0.984 4.959,-3.265 C 19.37,12.125 19.43,7.887 19.403,3.65 19.347,3.252 19.075,2.805 18.622,2.834 Z"
     id="path19"
     inkscape:connector-curvature="0"
     style="fill:#808080" />
</svg>
