<?xml version="1.0" encoding="UTF-8" standalone="no"?>
<svg
   xmlns:dc="http://purl.org/dc/elements/1.1/"
   xmlns:cc="http://creativecommons.org/ns#"
   xmlns:rdf="http://www.w3.org/1999/02/22-rdf-syntax-ns#"
   xmlns:svg="http://www.w3.org/2000/svg"
   xmlns="http://www.w3.org/2000/svg"
   xmlns:sodipodi="http://sodipodi.sourceforge.net/DTD/sodipodi-0.dtd"
   xmlns:inkscape="http://www.inkscape.org/namespaces/inkscape"
   width="24"
   height="24"
   version="1"
   id="svg11"
   sodipodi:docname="folder-drag-accept-symbolic.svg"
   inkscape:version="0.92.4 (5da689c313, 2019-01-14)">
  <metadata
     id="metadata15">
    <rdf:RDF>
      <cc:Work
         rdf:about="">
        <dc:format>image/svg+xml</dc:format>
        <dc:type
           rdf:resource="http://purl.org/dc/dcmitype/StillImage" />
        <dc:title></dc:title>
      </cc:Work>
    </rdf:RDF>
  </metadata>
  <sodipodi:namedview
     pagecolor="#ffffff"
     bordercolor="#666666"
     borderopacity="1"
     objecttolerance="10"
     gridtolerance="10"
     guidetolerance="10"
     inkscape:pageopacity="0"
     inkscape:pageshadow="2"
     inkscape:window-width="1085"
     inkscape:window-height="480"
     id="namedview13"
     showgrid="false"
     inkscape:zoom="9.8333333"
     inkscape:cx="1.0677966"
     inkscape:cy="12"
     inkscape:window-x="0"
     inkscape:window-y="25"
     inkscape:window-maximized="0"
     inkscape:current-layer="svg11" />
  <defs
     id="defs7">
    <linearGradient
       id="a">
      <stop
         offset="0"
         id="stop2" />
      <stop
         offset="1"
         stop-opacity="0"
         id="stop4" />
    </linearGradient>
  </defs>
  <path
     d="m 4.366,5.024 c -0.76,0 -1.372,0.61 -1.372,1.37 v 2.284 c 0,0.036 0.009,0.069 0.011,0.104 v 6.684 H 2.993 v 2.14 c 0,0.759 0.61,1.37 1.37,1.37 h 15.272 c 0.76,0 1.37,-0.611 1.37,-1.37 v -1.834 h 0.002 V 6.552 H 11.089 L 9.56,5.025 Z m 0.602,2.929 h 14.02 c 0.367,0 0.663,0.295 0.663,0.663 v 0.6 H 5.359 c -0.021,0 -0.04,0.01 -0.06,0.013 A 0.504,0.504 0 0 0 4.867,9.737 c 0,0.028 0.011,0.052 0.015,0.079 C 4.879,9.849 4.867,9.879 4.867,9.914 v 2.368 c 0,0.387 0.24,0.699 0.54,0.699 0.3,0 0.542,-0.312 0.542,-0.7 V 10.26 h 13.702 v 6.605 a 0.661,0.661 0 0 1 -0.663,0.662 H 4.968 A 0.661,0.661 0 0 1 4.305,16.865 V 8.616 c 0,-0.368 0.296,-0.663 0.663,-0.663 z"
     id="path9"
     inkscape:connector-curvature="0"
     style="fill:#808080" />
</svg>
