<?xml version="1.0" encoding="UTF-8" standalone="no"?>
<svg
   xmlns:dc="http://purl.org/dc/elements/1.1/"
   xmlns:cc="http://creativecommons.org/ns#"
   xmlns:rdf="http://www.w3.org/1999/02/22-rdf-syntax-ns#"
   xmlns:svg="http://www.w3.org/2000/svg"
   xmlns="http://www.w3.org/2000/svg"
   xmlns:sodipodi="http://sodipodi.sourceforge.net/DTD/sodipodi-0.dtd"
   xmlns:inkscape="http://www.inkscape.org/namespaces/inkscape"
   width="24"
   height="24"
   version="1"
   id="svg8"
   sodipodi:docname="folder-recent-symbolic.svg"
   inkscape:version="0.92.4 (5da689c313, 2019-01-14)">
  <metadata
     id="metadata14">
    <rdf:RDF>
      <cc:Work
         rdf:about="">
        <dc:format>image/svg+xml</dc:format>
        <dc:type
           rdf:resource="http://purl.org/dc/dcmitype/StillImage" />
        <dc:title></dc:title>
      </cc:Work>
    </rdf:RDF>
  </metadata>
  <defs
     id="defs12" />
  <sodipodi:namedview
     pagecolor="#ffffff"
     bordercolor="#666666"
     borderopacity="1"
     objecttolerance="10"
     gridtolerance="10"
     guidetolerance="10"
     inkscape:pageopacity="0"
     inkscape:pageshadow="2"
     inkscape:window-width="640"
     inkscape:window-height="480"
     id="namedview10"
     showgrid="false"
     inkscape:zoom="9.8333333"
     inkscape:cx="10.220339"
     inkscape:cy="12"
     inkscape:window-x="0"
     inkscape:window-y="25"
     inkscape:window-maximized="0"
     inkscape:current-layer="svg8" />
  <g
     id="g6"
     style="fill:#808080">
    <path
       d="m 5.302,2.39 a 0.645,0.645 0 1 0 0,1.28 h 1.133 v 2.035 c 0,2.034 1.116,3.903 3.142,5.267 0.256,0.165 0.414,0.538 0.414,0.968 0,0.421 -0.158,0.793 -0.414,0.967 -2.026,1.364 -3.142,3.225 -3.142,5.267 V 20.2 H 5.302 a 0.645,0.645 0 0 0 0,1.29 h 13.18 a 0.645,0.645 0 0 0 0,-1.29 H 17.35 v -2.026 c 0,-2.034 -1.117,-3.91 -3.142,-5.267 -0.265,-0.174 -0.414,-0.546 -0.414,-0.967 0,-0.43 0.157,-0.794 0.414,-0.968 C 16.233,9.608 17.35,7.739 17.35,5.697 V 3.67 h 1.133 a 0.645,0.645 0 0 0 0,-1.282 z m 2.423,1.28 h 8.335 v 2.035 c 0,2.15 -1.613,3.555 -2.572,4.2 a 2.414,2.414 0 0 0 -0.992,2.035 c 0,0.86 0.372,1.62 0.992,2.034 0.96,0.645 2.572,2.05 2.572,4.2 V 20.2 H 15.845 C 15.324,18.216 12.62,16.057 12.289,15.793 a 0.645,0.645 0 0 0 -0.794,0 C 11.165,16.057 8.461,18.216 7.94,20.2 H 7.725 v -2.026 c 0,-2.15 1.612,-3.555 2.563,-4.2 A 2.414,2.414 0 0 0 11.28,11.94 c 0,-0.86 -0.372,-1.621 -0.992,-2.035 C 9.346,9.26 7.733,7.855 7.733,5.705 Z"
       id="path2"
       inkscape:connector-curvature="0" />
    <path
       d="m 11.892,14.668 a 0.645,0.645 0 0 0 0.455,-1.091 0.645,0.645 0 0 0 -0.455,-0.19 0.645,0.645 0 0 0 -0.454,0.19 0.645,0.645 0 0 0 -0.19,0.455 0.645,0.645 0 0 0 0.644,0.636 z m 0,-3.406 a 0.645,0.645 0 0 0 0.645,-0.637 V 9.484 a 0.645,0.645 0 0 0 -1.29,0 v 1.14 c 0,0.348 0.29,0.638 0.645,0.638 z"
       id="path4"
       inkscape:connector-curvature="0" />
  </g>
</svg>
