<?xml version="1.0" encoding="UTF-8" standalone="no"?>
<svg
   xmlns:dc="http://purl.org/dc/elements/1.1/"
   xmlns:cc="http://creativecommons.org/ns#"
   xmlns:rdf="http://www.w3.org/1999/02/22-rdf-syntax-ns#"
   xmlns:svg="http://www.w3.org/2000/svg"
   xmlns="http://www.w3.org/2000/svg"
   xmlns:sodipodi="http://sodipodi.sourceforge.net/DTD/sodipodi-0.dtd"
   xmlns:inkscape="http://www.inkscape.org/namespaces/inkscape"
   width="24"
   height="24"
   version="1"
   id="svg26"
   sodipodi:docname="network-server-symbolic.svg"
   inkscape:version="0.92.4 (5da689c313, 2019-01-14)">
  <metadata
     id="metadata30">
    <rdf:RDF>
      <cc:Work
         rdf:about="">
        <dc:format>image/svg+xml</dc:format>
        <dc:type
           rdf:resource="http://purl.org/dc/dcmitype/StillImage" />
        <dc:title></dc:title>
      </cc:Work>
    </rdf:RDF>
  </metadata>
  <sodipodi:namedview
     pagecolor="#ffffff"
     bordercolor="#666666"
     borderopacity="1"
     objecttolerance="10"
     gridtolerance="10"
     guidetolerance="10"
     inkscape:pageopacity="0"
     inkscape:pageshadow="2"
     inkscape:window-width="1085"
     inkscape:window-height="480"
     id="namedview28"
     showgrid="false"
     inkscape:zoom="9.8333333"
     inkscape:cx="1.0677966"
     inkscape:cy="12"
     inkscape:window-x="0"
     inkscape:window-y="25"
     inkscape:window-maximized="0"
     inkscape:current-layer="svg26" />
  <defs
     id="defs22">
    <linearGradient
       id="a">
      <stop
         offset="0"
         stop-color="#fff"
         id="stop2" />
      <stop
         offset="1"
         stop-color="#fff"
         stop-opacity="0"
         id="stop4" />
    </linearGradient>
    <linearGradient
       id="d">
      <stop
         offset="0"
         id="stop7" />
      <stop
         offset="1"
         stop-opacity="0"
         id="stop9" />
    </linearGradient>
    <linearGradient
       id="b">
      <stop
         offset="0"
         stop-color="#f7ff00"
         id="stop12" />
      <stop
         offset="1"
         stop-color="#0f0"
         id="stop14" />
    </linearGradient>
    <linearGradient
       id="c">
      <stop
         offset="0"
         stop-color="#ebebeb"
         id="stop17" />
      <stop
         offset="1"
         stop-color="#bebebe"
         id="stop19" />
    </linearGradient>
  </defs>
  <path
     d="m 7.638,2.414 c -0.468,0 -0.845,0.22 -0.845,0.493 v 13.054 c 0,0.273 0.377,0.493 0.845,0.493 h 3.412 v 1.297 h -0.846 c -0.469,0 -0.847,0.22 -0.847,0.494 v 0.634 H 3.844 v 1.692 h 5.513 v 0.52 c 0,0.274 0.378,0.495 0.847,0.495 h 3.608 c 0.468,0 0.846,-0.221 0.846,-0.494 v -0.52 h 5.48 l 0.018,0.022 v -1.715 h -5.498 v -0.634 c 0,-0.274 -0.378,-0.494 -0.846,-0.494 h -0.79 v -1.297 h 3.581 c 0.469,0 0.846,-0.22 0.846,-0.493 V 2.907 c 0,-0.273 -0.377,-0.493 -0.846,-0.493 z m 0.84,1.466 h 7.107 c 0.372,0 0.672,0.174 0.672,0.391 V 14.62 c 0,0.217 -0.3,0.392 -0.672,0.392 H 8.478 c -0.371,0 -0.67,-0.175 -0.67,-0.392 V 4.271 c 0,-0.217 0.299,-0.39 0.67,-0.39 z M 8.991,4.546 A 0.618,0.618 0 0 0 8.372,5.165 v 1.116 c 0,0.343 0.276,0.618 0.619,0.618 h 6.1 A 0.616,0.616 0 0 0 15.708,6.281 V 5.165 A 0.617,0.617 0 0 0 15.091,4.546 Z m 0,3.468 A 0.618,0.618 0 0 0 8.372,8.633 v 1.116 c 0,0.343 0.276,0.618 0.619,0.618 h 6.1 A 0.616,0.616 0 0 0 15.708,9.749 V 8.633 A 0.617,0.617 0 0 0 15.091,8.014 Z m 0,3.468 A 0.618,0.618 0 0 0 8.372,12.1 v 1.117 c 0,0.342 0.276,0.617 0.619,0.617 h 6.1 a 0.616,0.616 0 0 0 0.617,-0.617 V 12.1 a 0.617,0.617 0 0 0 -0.617,-0.618 z"
     id="path24"
     inkscape:connector-curvature="0"
     style="fill:#808080" />
</svg>
