<?xml version="1.0" encoding="UTF-8" standalone="no"?>
<svg
   width="494"
   height="174"
   version="1"
   id="svg14985"
   sodipodi:docname="background.svg"
   inkscape:version="1.2.1 (9c6d41e410, 2022-07-14, custom)"
   xmlns:inkscape="http://www.inkscape.org/namespaces/inkscape"
   xmlns:sodipodi="http://sodipodi.sourceforge.net/DTD/sodipodi-0.dtd"
   xmlns:xlink="http://www.w3.org/1999/xlink"
   xmlns="http://www.w3.org/2000/svg"
   xmlns:svg="http://www.w3.org/2000/svg">
  <sodipodi:namedview
     id="namedview14987"
     pagecolor="#ffffff"
     bordercolor="#000000"
     borderopacity="0.25"
     inkscape:showpageshadow="2"
     inkscape:pageopacity="0.0"
     inkscape:pagecheckerboard="0"
     inkscape:deskcolor="#d1d1d1"
     showgrid="false"
     inkscape:zoom="10.526316"
     inkscape:cx="245.3375"
     inkscape:cy="68.5425"
     inkscape:window-width="3704"
     inkscape:window-height="2129"
     inkscape:window-x="136"
     inkscape:window-y="0"
     inkscape:window-maximized="1"
     inkscape:current-layer="svg14985" />
  <defs
     id="nova">
    <linearGradient
       id="linearGradient4240"
       x1="148"
       x2="148"
       y1="144"
       y2="127"
       gradientTransform="matrix(1.9999998,0,0,1.9999998,-201.99996,-467.99996)"
       gradientUnits="userSpaceOnUse"
       xlink:href="#linearGradient958" />
    <linearGradient
       id="linearGradient958">
      <stop
         style="stop-color:#000000;stop-opacity:0.341"
         offset="0"
         id="stop14897" />
      <stop
         style="stop-color:#000000;stop-opacity:0.23529412"
         offset=".206"
         id="stop14899" />
      <stop
         style="stop-color:#000000;stop-opacity:0.20392157"
         offset=".239"
         id="stop14901" />
      <stop
         style="stop-color:#000000;stop-opacity:0.16470588"
         offset=".283"
         id="stop14903" />
      <stop
         style="stop-color:#000000;stop-opacity:0.1372549"
         offset=".33"
         id="stop14905" />
      <stop
         style="stop-color:#000000;stop-opacity:0.10588235"
         offset=".378"
         id="stop14907" />
      <stop
         style="stop-color:#000000;stop-opacity:0.08627451"
         offset=".434"
         id="stop14909" />
      <stop
         style="stop-color:#000000;stop-opacity:0.07058824"
         offset=".465"
         id="stop14911" />
      <stop
         style="stop-color:#000000;stop-opacity:0.05490196"
         offset=".516"
         id="stop14913" />
      <stop
         style="stop-color:#000000;stop-opacity:0.03921569"
         offset=".555"
         id="stop14915" />
      <stop
         style="stop-color:#000000;stop-opacity:0.012"
         offset=".651"
         id="stop14917" />
      <stop
         style="stop-color:#000000;stop-opacity:0.00392157"
         offset=".789"
         id="stop14919" />
      <stop
         style="stop-color:#000000;stop-opacity:0"
         offset="1"
         id="stop14921" />
    </linearGradient>
    <radialGradient
       id="radialGradient4238"
       cx="129.71"
       cy="144.271"
       r="11"
       fx="129.71"
       fy="144.271"
       gradientTransform="matrix(0,-3.090868,4.0000719,0,-521.09357,220.91606)"
       gradientUnits="userSpaceOnUse"
       xlink:href="#linearGradient958" />
    <linearGradient
       id="linearGradient4236"
       x1="129"
       x2="129"
       y1="133.355"
       y2="129.968"
       gradientTransform="matrix(1.9999998,0,0,-17.714284,-201.99996,2262.2854)"
       gradientUnits="userSpaceOnUse"
       xlink:href="#linearGradient958" />
    <linearGradient
       id="linearGradient4234"
       x1="148"
       x2="148"
       y1="134.8"
       y2="129.667"
       gradientTransform="matrix(0,1.9999998,-8.5714277,0,1291.4284,-437.99996)"
       gradientUnits="userSpaceOnUse"
       xlink:href="#linearGradient958" />
    <radialGradient
       id="radialGradient4232"
       cx="129.71"
       cy="144.271"
       r="11"
       fx="129.71"
       fy="144.271"
       gradientTransform="matrix(0,5.4545052,4.0000706,0,-521.09339,-807.50346)"
       gradientUnits="userSpaceOnUse"
       xlink:href="#linearGradient958" />
    <radialGradient
       id="radialGradient5631"
       cx="129.71"
       cy="144.271"
       r="11"
       fx="129.71"
       fy="144.271"
       gradientTransform="matrix(0,-3.090868,-4.0000719,0,713.09357,220.91606)"
       gradientUnits="userSpaceOnUse"
       xlink:href="#linearGradient958" />
    <radialGradient
       id="radialGradient5627"
       cx="129.71"
       cy="144.271"
       r="11"
       fx="129.71"
       fy="144.271"
       gradientTransform="matrix(0,5.4545052,-4.0000706,0,713.09339,-807.50346)"
       gradientUnits="userSpaceOnUse"
       xlink:href="#linearGradient958" />
    <linearGradient
       id="linearGradient1105"
       x1="148"
       x2="148"
       y1="134.8"
       y2="129.667"
       gradientTransform="matrix(0,1.9999998,8.5714277,0,-1099.4284,-437.99996)"
       gradientUnits="userSpaceOnUse"
       xlink:href="#linearGradient958" />
    <style
       id="current-color-scheme"
       type="text/css">
   .ColorScheme-Background {color:#181818; } .ColorScheme-ButtonBackground { color:#343434; } .ColorScheme-Highlight { color:#4285f4; } .ColorScheme-Text { color:#dfdfdf; } .ColorScheme-ViewBackground { color:#242424; } .ColorScheme-NegativeText { color:#f44336; } .ColorScheme-PositiveText { color:#4caf50; } .ColorScheme-NeutralText { color:#ff9800; }
  </style>
  </defs>
  <rect
     id="shadow-center"
     style="opacity:0.001"
     width="80"
     height="80"
     x="370"
     y="34" />
  <g
     id="shadow-top"
     transform="translate(186,-15)">
    <path
       style="fill:url(#linearGradient4240)"
       transform="translate(128,229)"
       d="m 56,-214 v 10 h 80 v -10 z"
       id="path14934" />
  </g>
  <g
     id="shadow-topleft"
     transform="translate(339,3)">
    <path
       style="fill:url(#radialGradient4238)"
       transform="translate(-25.000001,211)"
       d="m 12,-214 v 34 h 20 c 0,-0.41421 0.01051,-0.82531 0.03125,-1.23438 C 32.674045,-193.91525 43.159383,-204 56,-204 v -10 z"
       id="path14937" />
  </g>
  <g
     id="shadow-bottom"
     transform="translate(186,-15)">
    <path
       style="fill:url(#linearGradient4236)"
       transform="translate(128,229)"
       d="m 56,-76 v 36 h 80 v -36 z"
       id="path14940" />
  </g>
  <g
     id="shadow-left"
     transform="translate(186,-15)">
    <path
       style="fill:url(#linearGradient1105)"
       transform="translate(128,229)"
       d="m 12,-180 v 80 h 20 v -80 z"
       id="path14943" />
  </g>
  <g
     id="shadow-bottomleft"
     transform="matrix(1,0,0,-1,339,145)">
    <path
       style="fill:url(#radialGradient4232)"
       transform="matrix(1,0,0,-1,-25.000001,-69.000005)"
       d="m 12,-100 v 60 h 44 v -36 c -13.25483,0 -24,-10.745166 -24,-24 z"
       id="path14946" />
  </g>
  <g
     id="shadow-topright"
     transform="matrix(-1,0,0,1,481,3)">
    <path
       style="fill:url(#radialGradient5631)"
       transform="matrix(-1,0,0,1,167,211)"
       d="m 136,-214 v 10 c 12.84062,0 23.32595,10.08475 23.96875,22.76562 0.0207,0.40907 0.0312,0.82017 0.0312,1.23438 h 20 v -34 z"
       id="path14949" />
  </g>
  <g
     id="shadow-right"
     transform="matrix(-1,0,0,1,634,-15)">
    <path
       style="fill:url(#linearGradient4234)"
       transform="matrix(-1,0,0,1,320,229)"
       d="m 160,-180 v 80 h 20 v -80 z"
       id="path14952" />
  </g>
  <g
     id="shadow-bottomright"
     transform="rotate(180,240.5,72.499998)">
    <path
       style="fill:url(#radialGradient5627)"
       transform="rotate(180,83.500001,-34.500002)"
       d="m 160,-100 c 0,13.254834 -10.74517,24 -24,24 v 36 h 44 v -60 z"
       id="path14955" />
  </g>
  <rect
     id="center"
     style="fill:currentColor"
     class="ColorScheme-Background"
     width="80"
     height="80"
     x="174"
     y="34" />
  <rect
     style="fill:currentColor"
     id="top"
     class="ColorScheme-Background"
     width="80"
     height="24"
     x="174"
     y="10" />
  <path
     id="topleft"
     style="fill:currentColor"
     class="ColorScheme-Background"
     d="M 174,34 H 150 L 174,10 Z"
     sodipodi:nodetypes="cccc" />
  <rect
     style="fill:currentColor"
     id="bottom"
     class="ColorScheme-Background"
     width="80"
     height="24"
     x="174"
     y="-138"
     transform="scale(1,-1)" />
  <rect
     style="fill:currentColor"
     id="left"
     class="ColorScheme-Background"
     width="80"
     height="24"
     x="34"
     y="-174"
     transform="rotate(90)" />
  <path
     id="bottomleft"
     style="fill:currentColor"
     class="ColorScheme-Background"
     d="M 174,113.99999 H 150 V 138 l 24,-1e-5 z"
     sodipodi:nodetypes="ccccc" />
  <path
     id="topright"
     style="fill:currentColor"
     class="ColorScheme-Background"
     d="m 254,34 h 24 V 10 h -24 z"
     sodipodi:nodetypes="ccccc" />
  <rect
     style="fill:currentColor"
     id="right"
     class="ColorScheme-Background"
     width="80"
     height="24"
     x="34"
     y="254"
     transform="matrix(0,1,1,0,0,0)" />
  <path
     id="bottomright"
     style="fill:currentColor"
     class="ColorScheme-Background"
     d="m 254,113.99999 h 24 L 254,138 Z"
     sodipodi:nodetypes="cccc" />
  <rect
     id="mask-center"
     style="fill:#000000"
     width="80"
     height="80"
     x="24"
     y="34" />
  <rect
     style="fill:#000000"
     id="mask-top"
     width="80"
     height="24"
     x="24"
     y="10" />
  <path
     id="mask-topleft"
     style="fill:#000000"
     d="M 24,34 H 0 C 0,20.74517 10.74517,10 24,10 Z" />
  <rect
     style="fill:#000000"
     id="mask-bottom"
     width="80"
     height="24"
     x="24"
     y="-138"
     transform="scale(1,-1)" />
  <rect
     style="fill:#000000"
     id="mask-left"
     width="80"
     height="24"
     x="34"
     y="-24"
     transform="rotate(90)" />
  <path
     id="mask-bottomleft"
     style="fill:#000000"
     d="M 24,113.99999 H 0 c 0,13.25484 10.74517,24 24,24 z" />
  <path
     id="mask-topright"
     style="fill:#000000"
     d="m 104,34 h 24 C 128,20.74517 117.25483,10 104,10 Z" />
  <rect
     style="fill:#000000"
     id="mask-right"
     width="80"
     height="24"
     x="34"
     y="104"
     transform="matrix(0,1,1,0,0,0)" />
  <path
     id="mask-bottomright"
     style="fill:#000000"
     d="m 104,113.99999 h 24 C 128,127.25483 117.25483,138 104,138 Z" />
  <rect
     id="shadow-hint-bottom-margin"
     style="fill:#ff0000"
     width="4"
     height="36"
     x="408"
     y="138" />
  <rect
     id="shadow-hint-top-margin"
     style="fill:#ff0000"
     width="4"
     height="10"
     x="408"
     y="0" />
  <rect
     id="shadow-hint-right-margin"
     style="fill:#ff0000"
     width="4"
     height="20"
     x="72"
     y="-494"
     transform="rotate(90)" />
  <rect
     id="shadow-hint-left-margin"
     style="fill:#ff0000"
     width="4"
     height="20"
     x="72"
     y="-346"
     transform="rotate(90)" />
  <rect
     id="hint-top-margin"
     style="fill:#ff0000"
     width="4"
     height="12"
     x="212"
     y="10" />
  <rect
     id="hint-bottom-margin"
     style="fill:#ff0000"
     width="4"
     height="12"
     x="212"
     y="126" />
  <rect
     id="hint-right-margin"
     style="fill:#ff0000"
     width="4"
     height="12"
     x="72"
     y="-278"
     transform="rotate(90)" />
  <rect
     id="hint-left-margin"
     style="fill:#ff0000"
     width="4"
     height="12"
     x="72"
     y="-162"
     transform="rotate(90)" />
  <rect
     id="hint-stretch-borders"
     style="fill:#ff0000"
     width="6"
     height="6"
     x="0"
     y="-6" />
</svg>
