<?xml version="1.0" encoding="UTF-8" standalone="no"?>
<svg
   xmlns:dc="http://purl.org/dc/elements/1.1/"
   xmlns:cc="http://creativecommons.org/ns#"
   xmlns:rdf="http://www.w3.org/1999/02/22-rdf-syntax-ns#"
   xmlns:svg="http://www.w3.org/2000/svg"
   xmlns="http://www.w3.org/2000/svg"
   xmlns:sodipodi="http://sodipodi.sourceforge.net/DTD/sodipodi-0.dtd"
   xmlns:inkscape="http://www.inkscape.org/namespaces/inkscape"
   width="48"
   height="48"
   viewBox="0 0 12.7 12.7"
   version="1.1"
   id="svg4"
   sodipodi:docname="applications-multimedia.svg"
   inkscape:version="0.92.5 (2060ec1f9f, 2020-04-08)">
  <defs
     id="defs8">
  <style
     id="current-color-scheme"
     type="text/css">
      .ColorScheme-Highlight {
        color:#5beedc;
      }
  </style>
  </defs>
  <path
     class="ColorScheme-Highlight"
     style="fill:#5beedc"
     d="M 24 0 A 24 24 0 0 0 0 24 A 24 24 0 0 0 24 48 A 24 24 0 0 0 48 24 A 24 24 0 0 0 24 0 z M 24 3 A 21 21 0 0 1 45 24 A 21 21 0 0 1 24 45 A 21 21 0 0 1 3 24 A 21 21 0 0 1 24 3 z M 11 10 C 10.446 10 10 10.446 10 11 L 10 31 C 10 31.554 10.446 32 11 32 L 20 32 L 24 32 L 24 30 L 20 30 L 14 30 L 14 12 L 28 12 L 28 20 L 29 20 L 31 20 L 32 20 L 32 11 C 32 10.446 31.554 10 31 10 L 11 10 z M 11 12 L 13 12 L 13 14 L 11 14 L 11 12 z M 29 12 L 31 12 L 31 14 L 29 14 L 29 12 z M 11 16 L 13 16 L 13 18 L 11 18 L 11 16 z M 29 16 L 31 16 L 31 18 L 29 18 L 29 16 z M 11 20 L 13 20 L 13 22 L 11 22 L 11 20 z M 26 22 L 26 24 L 26 33.269531 A 1.9999999 1.9999999 0 0 0 25 33 A 1.9999999 1.9999999 0 0 0 23 35 A 1.9999999 1.9999999 0 0 0 25 37 A 1.9999999 1.9999999 0 0 0 27 35 L 27 24 L 32 24 L 32 37.269531 A 1.9999999 1.9999999 0 0 0 31 37 A 1.9999999 1.9999999 0 0 0 29 39 A 1.9999999 1.9999999 0 0 0 31 41 A 1.9999999 1.9999999 0 0 0 33 39 L 33 24 L 38 24 L 38 29.269531 A 1.9999999 1.9999999 0 0 0 37 29 A 1.9999999 1.9999999 0 0 0 35 31 A 1.9999999 1.9999999 0 0 0 37 33 A 1.9999999 1.9999999 0 0 0 39 31 L 39 24 L 39 22 L 38 22 L 33 22 L 32 22 L 27 22 L 26 22 z M 11 24 L 13 24 L 13 26 L 11 26 L 11 24 z M 11 28 L 13 28 L 13 30 L 11 30 L 11 28 z "
     transform="scale(0.26458333)"
     id="path834" />
</svg>
