<?xml version="1.0" encoding="UTF-8" standalone="no"?>
<svg
   xmlns:dc="http://purl.org/dc/elements/1.1/"
   xmlns:cc="http://creativecommons.org/ns#"
   xmlns:rdf="http://www.w3.org/1999/02/22-rdf-syntax-ns#"
   xmlns:svg="http://www.w3.org/2000/svg"
   xmlns="http://www.w3.org/2000/svg"
   xmlns:sodipodi="http://sodipodi.sourceforge.net/DTD/sodipodi-0.dtd"
   xmlns:inkscape="http://www.inkscape.org/namespaces/inkscape"
   width="48"
   height="48"
   viewBox="0 0 12.7 12.7"
   version="1.1"
   id="svg4"
   sodipodi:docname="applications-electronics.svg"
   inkscape:version="0.92.5 (2060ec1f9f, 2020-04-08)">
  <defs
     id="defs8">
  <style
     id="current-color-scheme"
     type="text/css">
      .ColorScheme-Highlight {
        color:#5beedc;
      }
  </style>
  </defs>
  <path
     class="ColorScheme-Highlight"
     style="fill:#5beedc"
     d="M 24 0 A 24 24 0 0 0 0 24 A 24 24 0 0 0 24 48 A 24 24 0 0 0 48 24 A 24 24 0 0 0 24 0 z M 24 3 A 21 21 0 0 1 45 24 A 21 21 0 0 1 24 45 A 21 21 0 0 1 3 24 A 21 21 0 0 1 24 3 z M 11 11 L 11 29 L 16.087891 29 A 1.5 1.5 0 0 1 17.5 28 A 1.5 1.5 0 0 1 19 29.5 A 1.5 1.5 0 0 1 17.5 31 A 1.5 1.5 0 0 1 16.087891 30 L 11 30 L 11 37 L 37 37 L 37 11 L 31 11 L 31 20.087891 A 1.5 1.5 0 0 1 32 21.5 A 1.5 1.5 0 0 1 30.5 23 A 1.5 1.5 0 0 1 29 21.5 A 1.5 1.5 0 0 1 30 20.087891 L 30 11 L 16 11 L 16 19 L 19.087891 19 A 1.5 1.5 0 0 1 20.5 18 A 1.5 1.5 0 0 1 22 19.5 A 1.5 1.5 0 0 1 20.5 21 A 1.5 1.5 0 0 1 19.087891 20 L 15 20 L 15 19 L 15 11 L 11 11 z "
     transform="scale(0.26458333)"
     id="path817" />
</svg>
