<?xml version="1.0" encoding="UTF-8" standalone="no"?>
<svg
   xmlns:dc="http://purl.org/dc/elements/1.1/"
   xmlns:cc="http://creativecommons.org/ns#"
   xmlns:rdf="http://www.w3.org/1999/02/22-rdf-syntax-ns#"
   xmlns:svg="http://www.w3.org/2000/svg"
   xmlns="http://www.w3.org/2000/svg"
   xmlns:sodipodi="http://sodipodi.sourceforge.net/DTD/sodipodi-0.dtd"
   xmlns:inkscape="http://www.inkscape.org/namespaces/inkscape"
   width="48"
   height="48"
   viewBox="0 0 12.7 12.7"
   version="1.1"
   id="svg4"
   sodipodi:docname="applications-engineering.svg"
   inkscape:version="0.92.5 (2060ec1f9f, 2020-04-08)">
  <defs
     id="defs8">
  <style
     id="current-color-scheme"
     type="text/css">
      .ColorScheme-Highlight {
        color:#5beedc;
      }
  </style>
  </defs>
  <path
     class="ColorScheme-Highlight"
     style="fill:#5beedc"
     d="M 24 0 A 24 24 0 0 0 0 24 A 24 24 0 0 0 24 48 A 24 24 0 0 0 48 24 A 24 24 0 0 0 24 0 z M 24 3 A 21 21 0 0 1 45 24 A 21 21 0 0 1 24 45 A 21 21 0 0 1 3 24 A 21 21 0 0 1 24 3 z M 25 8 L 17 10 L 16 12 L 25 12 L 25 11 L 28 11 L 28 15 L 25 15 L 25 14 L 16 14 L 17 16 L 25 18 L 26 18 L 26 22 L 24 22 L 24 24 L 26 24 L 27 24 L 27 41 L 31 41 L 31 24 L 32 24 L 32 22 L 32 20 L 34 20 L 34 21 L 36 21 L 36 17 L 34 17 L 34 18 L 32 18 L 32 15 L 31 15 L 31 13 L 32 13 L 32 14 L 36 14 L 34 12 L 36 10 L 31 10 L 31 8 L 25 8 z M 19 20 L 19 21 A 8.9999994 8.9999994 0 0 0 10 30 A 8.9999994 8.9999994 0 0 0 19 39 L 19 40 L 22 40 L 22 20 L 19 20 z M 19 24 L 19 36 A 5.9999997 5.9999997 0 0 1 13 30 A 5.9999997 5.9999997 0 0 1 19 24 z "
     transform="scale(0.26458333)"
     id="path817" />
</svg>
