<?xml version="1.0" encoding="UTF-8" standalone="no"?>
<svg
   xmlns:dc="http://purl.org/dc/elements/1.1/"
   xmlns:cc="http://creativecommons.org/ns#"
   xmlns:rdf="http://www.w3.org/1999/02/22-rdf-syntax-ns#"
   xmlns:svg="http://www.w3.org/2000/svg"
   xmlns="http://www.w3.org/2000/svg"
   xmlns:sodipodi="http://sodipodi.sourceforge.net/DTD/sodipodi-0.dtd"
   xmlns:inkscape="http://www.inkscape.org/namespaces/inkscape"
   width="48"
   height="48"
   viewBox="0 0 12.7 12.7"
   version="1.1"
   id="svg4"
   sodipodi:docname="applications-haskell.svg"
   inkscape:version="0.92.5 (2060ec1f9f, 2020-04-08)">
  <defs
     id="defs8">
  <style
     id="current-color-scheme"
     type="text/css">
      .ColorScheme-Highlight {
        color:#5beedc;
      }
  </style>
  </defs>
  <path
     class="ColorScheme-Highlight"
     style="fill:#5beedc"
     d="M 24 0 A 24 24 0 0 0 0 24 A 24 24 0 0 0 24 48 A 24 24 0 0 0 48 24 A 24 24 0 0 0 24 0 z M 24 3 A 21 21 0 0 1 45 24 A 21 21 0 0 1 24 45 A 21 21 0 0 1 3 24 A 21 21 0 0 1 24 3 z M 17.998047 12 L 24.498047 24 L 17.998047 36 L 22 36 L 26.498047 27.699219 L 31 36 L 34.998047 36 L 21.996094 12 L 18.001953 12 L 17.998047 12 z "
     transform="scale(0.26458333)"
     id="path817" />
  <path
     class="ColorScheme-Highlight"
     style="opacity:0.75;fill:#5beedc"
     d="M 10.998047 12 L 17.5 24 L 10.998047 36 L 15.003906 36 L 21.505859 24 L 15.003906 12 L 10.998047 12 z M 29.332031 20.001953 L 30.958984 22.998047 L 37.001953 22.998047 L 37.001953 20.001953 L 29.332031 20.001953 z M 32.042969 25.001953 L 33.667969 27.998047 L 37.001953 27.998047 L 37.001953 25.001953 L 32.042969 25.001953 z "
     transform="scale(0.26458333)"
     id="path4" />
</svg>
