<?xml version="1.0" encoding="UTF-8" standalone="no"?>
<svg
   xmlns:dc="http://purl.org/dc/elements/1.1/"
   xmlns:cc="http://creativecommons.org/ns#"
   xmlns:rdf="http://www.w3.org/1999/02/22-rdf-syntax-ns#"
   xmlns:svg="http://www.w3.org/2000/svg"
   xmlns="http://www.w3.org/2000/svg"
   xmlns:sodipodi="http://sodipodi.sourceforge.net/DTD/sodipodi-0.dtd"
   xmlns:inkscape="http://www.inkscape.org/namespaces/inkscape"
   width="48"
   height="48"
   viewBox="0 0 12.7 12.7"
   version="1.1"
   id="svg4"
   sodipodi:docname="applications-java.svg"
   inkscape:version="0.92.5 (2060ec1f9f, 2020-04-08)">
  <defs
     id="defs8">
  <style
     id="current-color-scheme"
     type="text/css">
      .ColorScheme-Highlight {
        color:#5beedc;
      }
  </style>
  </defs>
  <path
     class="ColorScheme-Highlight"
     style="fill:#5beedc"
     d="M 24 0 A 24 24 0 0 0 0 24 A 24 24 0 0 0 24 48 A 24 24 0 0 0 48 24 A 24 24 0 0 0 24 0 z M 24 3 A 21 21 0 0 1 45 24 A 21 21 0 0 1 24 45 A 21 21 0 0 1 3 24 A 21 21 0 0 1 24 3 z M 22 11 L 21 15 L 22 19 L 23 15 L 22 11 z M 26 11 L 25 15 L 26 19 L 27 15 L 26 11 z M 18 14 L 17 18 L 18 22 L 19 18 L 18 14 z M 30 14 L 29 18 L 30 22 L 31 18 L 30 14 z M 14 24 L 14 31 L 14.023438 31 C 14.274612 33.810813 16.62168 36 19.5 36 L 13 36 L 13 38 L 35 38 L 35 36 L 28.5 36 C 31.37832 36 33.725388 33.810813 33.976562 31 L 34 31 L 34 24 L 14 24 z "
     transform="scale(0.26458333)"
     id="path817" />
</svg>
