<?xml version="1.0" encoding="UTF-8" standalone="no"?>
<svg
   xmlns:dc="http://purl.org/dc/elements/1.1/"
   xmlns:cc="http://creativecommons.org/ns#"
   xmlns:rdf="http://www.w3.org/1999/02/22-rdf-syntax-ns#"
   xmlns:svg="http://www.w3.org/2000/svg"
   xmlns="http://www.w3.org/2000/svg"
   xmlns:sodipodi="http://sodipodi.sourceforge.net/DTD/sodipodi-0.dtd"
   xmlns:inkscape="http://www.inkscape.org/namespaces/inkscape"
   width="48"
   height="48"
   viewBox="0 0 12.7 12.7"
   version="1.1"
   id="svg4"
   sodipodi:docname="applications-accessories.svg"
   inkscape:version="0.92.5 (2060ec1f9f, 2020-04-08)">
  <defs
     id="defs8">
  <style
     id="current-color-scheme"
     type="text/css">
      .ColorScheme-Highlight {
        color:#5beedc;
      }
  </style>
  </defs>
  <path
     class="ColorScheme-Highlight"
     style="fill:#5beedc"
     d="M 24 0 A 24 24 0 0 0 0 24 A 24 24 0 0 0 24 48 A 24 24 0 0 0 48 24 A 24 24 0 0 0 24 0 z M 24 3 A 21 21 0 0 1 45 24 A 21 21 0 0 1 24 45 A 21 21 0 0 1 3 24 A 21 21 0 0 1 24 3 z M 18.5 9 A 4.4999993 4.4999993 0 0 0 14 13.5 A 4.4999993 4.4999993 0 0 0 18.5 18 A 4.4999993 4.4999993 0 0 0 20.517578 17.517578 L 24 21 L 23 22 L 22.5 22.5 L 16 29 L 16 32 L 17 32 L 24.5 24.5 L 25 24 L 26 23 L 35 32 L 36 32 L 36 29 L 28 21 L 31.197266 17.802734 A 4.4999993 4.4999993 0 0 0 32.5 18 A 4.4999993 4.4999993 0 0 0 37 13.5 A 4.4999993 4.4999993 0 0 0 32.5 9 A 4.4999993 4.4999993 0 0 0 28 13.5 A 4.4999993 4.4999993 0 0 0 28.861328 16.138672 L 26 19 L 22.519531 15.519531 A 4.4999993 4.4999993 0 0 0 23 13.5 A 4.4999993 4.4999993 0 0 0 18.5 9 z M 18.5 11 A 2.4999999 2.4999999 0 0 1 21 13.5 A 2.4999999 2.4999999 0 0 1 18.5 16 A 2.4999999 2.4999999 0 0 1 16 13.5 A 2.4999999 2.4999999 0 0 1 18.5 11 z M 32.5 11 A 2.4999999 2.4999999 0 0 1 35 13.5 A 2.4999999 2.4999999 0 0 1 32.5 16 A 2.4999999 2.4999999 0 0 1 30 13.5 A 2.4999999 2.4999999 0 0 1 32.5 11 z M 10 18 L 10 37 L 29 37 L 25 33 L 14 33 L 14 22 L 10 18 z M 26 20 A 0.9999998 0.99999992 0 0 1 27 21 A 0.9999998 0.99999992 0 0 1 26 22 A 0.9999998 0.99999992 0 0 1 25 21 A 0.9999998 0.99999992 0 0 1 26 20 z "
     transform="scale(0.26458333)"
     id="rect859" />
</svg>
