<?xml version="1.0" encoding="UTF-8" standalone="no"?>
<svg
   xmlns:dc="http://purl.org/dc/elements/1.1/"
   xmlns:cc="http://creativecommons.org/ns#"
   xmlns:rdf="http://www.w3.org/1999/02/22-rdf-syntax-ns#"
   xmlns:svg="http://www.w3.org/2000/svg"
   xmlns="http://www.w3.org/2000/svg"
   xmlns:sodipodi="http://sodipodi.sourceforge.net/DTD/sodipodi-0.dtd"
   xmlns:inkscape="http://www.inkscape.org/namespaces/inkscape"
   width="48"
   height="48"
   viewBox="0 0 12.7 12.7"
   version="1.1"
   id="svg4"
   sodipodi:docname="applications-graphics.svg"
   inkscape:version="0.92.5 (2060ec1f9f, 2020-04-08)">
  <defs
     id="defs8">
  <style
     id="current-color-scheme"
     type="text/css">
      .ColorScheme-Highlight {
        color:#5beedc;
      }
  </style>
  </defs>
  <path
     class="ColorScheme-Highlight"
     style="fill:#5beedc"
     d="M 6.35,0 A 6.3499999,6.3499999 0 0 0 3.6666667e-7,6.3499999 6.3499999,6.3499999 0 0 0 6.35,12.7 6.3499999,6.3499999 0 0 0 12.7,6.3499999 6.3499999,6.3499999 0 0 0 6.35,0 Z m 0,0.79374999 A 5.5562499,5.5562499 0 0 1 11.90625,6.3499999 5.5562499,5.5562499 0 0 1 6.35,11.90625 5.5562499,5.5562499 0 0 1 0.79374997,6.3499999 5.5562499,5.5562499 0 0 1 6.35,0.79374999 Z m 0,1.32291661 c -2.4841317,0 -5.76236783,4.7622407 -3.7191528,4.2012939 C 9.2606357,4.4978097 -0.65563863,10.132378 6.35,9.7895832 8.8311619,9.6681765 10.847917,8.0719424 10.847917,5.9531249 10.847917,3.8343075 8.83413,2.1166666 6.35,2.1166666 Z M 6.4822916,2.6458333 A 0.6614583,0.6614583 0 0 1 7.1437499,3.3072916 0.6614583,0.6614583 0 0 1 6.4822916,3.96875 0.6614583,0.6614583 0 0 1 5.8208332,3.3072916 0.6614583,0.6614583 0 0 1 6.4822916,2.6458333 Z m 1.8520833,0.79375 A 0.6614583,0.6614583 0 0 1 8.9958333,4.1010416 0.6614583,0.6614583 0 0 1 8.3343749,4.7624999 0.6614583,0.6614583 0 0 1 7.6729166,4.1010416 0.6614583,0.6614583 0 0 1 8.3343749,3.4395833 Z M 9.3927082,5.2916666 A 0.6614583,0.6614583 0 0 1 10.054167,5.9531249 0.6614583,0.6614583 0 0 1 9.3927082,6.6145833 0.6614583,0.6614583 0 0 1 8.7312499,5.9531249 0.6614583,0.6614583 0 0 1 9.3927082,5.2916666 Z M 5.6885416,7.4083332 A 0.92604166,0.92604166 0 0 1 6.6145833,8.3343749 0.92604166,0.92604166 0 0 1 5.6885416,9.2604166 0.92604166,0.92604166 0 0 1 4.7624999,8.3343749 0.92604166,0.92604166 0 0 1 5.6885416,7.4083332 Z"
     id="path828"
     inkscape:connector-curvature="0" />
</svg>
