<?xml version="1.0" encoding="UTF-8" standalone="no"?>
<svg
   xmlns:dc="http://purl.org/dc/elements/1.1/"
   xmlns:cc="http://creativecommons.org/ns#"
   xmlns:rdf="http://www.w3.org/1999/02/22-rdf-syntax-ns#"
   xmlns:svg="http://www.w3.org/2000/svg"
   xmlns="http://www.w3.org/2000/svg"
   xmlns:sodipodi="http://sodipodi.sourceforge.net/DTD/sodipodi-0.dtd"
   xmlns:inkscape="http://www.inkscape.org/namespaces/inkscape"
   width="48"
   height="48"
   viewBox="0 0 12.7 12.7"
   version="1.1"
   id="svg4"
   sodipodi:docname="applications-arcade.svg"
   inkscape:version="0.92.5 (2060ec1f9f, 2020-04-08)">
  <defs
     id="defs8">
  <style
     id="current-color-scheme"
     type="text/css">
      .ColorScheme-Highlight {
        color:#5beedc;
      }
  </style>
  </defs>
  <path
     class="ColorScheme-Highlight"
     style="fill:#5beedc"
     d="M 24 0 A 24 24 0 0 0 0 24 A 24 24 0 0 0 24 48 A 24 24 0 0 0 48 24 A 24 24 0 0 0 24 0 z M 24 3 A 21 21 0 0 1 42.949219 15 L 5.0546875 15 A 21 21 0 0 1 24 3 z M 34 18 A 1.9999999 1.9999999 0 0 1 36 20 A 1.9999999 1.9999999 0 0 1 34 22 A 1.9999999 1.9999999 0 0 1 32 20 A 1.9999999 1.9999999 0 0 1 34 18 z M 11 19 L 15 19 L 15 22 L 18 22 L 18 26 L 15 26 L 15 29 L 11 29 L 11 26 L 8 26 L 8 22 L 11 22 L 11 19 z M 30 22 A 1.9999999 1.9999999 0 0 1 32 24 A 1.9999999 1.9999999 0 0 1 30 26 A 1.9999999 1.9999999 0 0 1 28 24 A 1.9999999 1.9999999 0 0 1 30 22 z M 38 22 A 1.9999999 1.9999999 0 0 1 40 24 A 1.9999999 1.9999999 0 0 1 38 26 A 1.9999999 1.9999999 0 0 1 36 24 A 1.9999999 1.9999999 0 0 1 38 22 z M 34 26 A 1.9999999 1.9999999 0 0 1 36 28 A 1.9999999 1.9999999 0 0 1 34 30 A 1.9999999 1.9999999 0 0 1 32 28 A 1.9999999 1.9999999 0 0 1 34 26 z M 5.0507812 33 L 42.945312 33 A 21 21 0 0 1 24 45 A 21 21 0 0 1 5.0507812 33 z "
     transform="scale(0.26458333)"
     id="path817" />
</svg>
