<?xml version="1.0" encoding="UTF-8" standalone="no"?>
<svg
   xmlns:dc="http://purl.org/dc/elements/1.1/"
   xmlns:cc="http://creativecommons.org/ns#"
   xmlns:rdf="http://www.w3.org/1999/02/22-rdf-syntax-ns#"
   xmlns:svg="http://www.w3.org/2000/svg"
   xmlns="http://www.w3.org/2000/svg"
   xmlns:sodipodi="http://sodipodi.sourceforge.net/DTD/sodipodi-0.dtd"
   xmlns:inkscape="http://www.inkscape.org/namespaces/inkscape"
   width="48"
   height="48"
   viewBox="0 0 12.7 12.7"
   version="1.1"
   id="svg4"
   sodipodi:docname="applications-utilities.svg"
   inkscape:version="0.92.5 (2060ec1f9f, 2020-04-08)">
  <defs
     id="defs8">
  <style
     id="current-color-scheme"
     type="text/css">
      .ColorScheme-Highlight {
        color:#5beedc;
      }
  </style>
  </defs>
  <path
     class="ColorScheme-Highlight"
     style="fill:#5beedc"
     d="M 24 0 A 24 24 0 0 0 0 24 A 24 24 0 0 0 24 48 A 24 24 0 0 0 48 24 A 24 24 0 0 0 24 0 z M 24 3 A 21 21 0 0 1 45 24 A 21 21 0 0 1 24 45 A 21 21 0 0 1 3 24 A 21 21 0 0 1 24 3 z M 23.5 10 C 21.561 10 20 11.561 20 13.5 L 20 34.5 C 20 36.439 21.561 38 23.5 38 C 25.439 38 27 36.439 27 34.5 L 27 13.5 C 27 11.561 25.439 10 23.5 10 z M 29 12 L 29 21.443359 C 29.885329 22.135166 30.739372 22.861041 31.783203 23.359375 L 32.535156 22.607422 L 31.121094 21.193359 C 30.925227 20.997493 30.828125 20.739996 30.828125 20.484375 C 30.828124 20.228758 30.925224 19.973212 31.121094 19.777344 C 31.31696 19.581477 31.572504 19.486328 31.828125 19.486328 C 32.083742 19.486328 32.339288 19.581477 32.535156 19.777344 L 34.65625 21.900391 C 34.85212 22.096261 34.949223 22.351801 34.949219 22.607422 C 34.949221 22.863043 34.85212 23.118585 34.65625 23.314453 L 33.726562 24.244141 C 35.179244 24.636635 36.859865 24.825471 38.900391 24.728516 C 41.260842 24.403745 38.192387 21.192387 29 12 z M 9.7832031 16.472656 C 9.4614706 16.438943 9.2184707 16.553372 9 16.736328 C 8.3657696 19.897524 13.097809 26.501207 18 33 L 18 25.126953 C 13.57908 19.410809 11.275073 16.982965 10.132812 16.558594 C 10.005878 16.511435 9.8904473 16.483894 9.7832031 16.472656 z "
     transform="scale(0.26458333)"
     id="path826" />
</svg>
