<?xml version="1.0" encoding="UTF-8" standalone="no"?>
<svg
   xmlns:dc="http://purl.org/dc/elements/1.1/"
   xmlns:cc="http://creativecommons.org/ns#"
   xmlns:rdf="http://www.w3.org/1999/02/22-rdf-syntax-ns#"
   xmlns:svg="http://www.w3.org/2000/svg"
   xmlns="http://www.w3.org/2000/svg"
   xmlns:sodipodi="http://sodipodi.sourceforge.net/DTD/sodipodi-0.dtd"
   xmlns:inkscape="http://www.inkscape.org/namespaces/inkscape"
   width="48"
   height="48"
   viewBox="0 0 12.7 12.7"
   version="1.1"
   id="svg4"
   sodipodi:docname="applications-education.svg"
   inkscape:version="0.92.5 (2060ec1f9f, 2020-04-08)">
  <defs
     id="defs8">
  <style
     id="current-color-scheme"
     type="text/css">
      .ColorScheme-Highlight {
        color:#5beedc;
      }
  </style>
  </defs>
  <path
     class="ColorScheme-Highlight"
     style="fill:#5beedc"
     d="M 6.35,0 A 6.3499999,6.3499999 0 0 0 3.6666667e-7,6.3499999 6.3499999,6.3499999 0 0 0 6.35,12.7 6.3499999,6.3499999 0 0 0 12.7,6.3499999 6.3499999,6.3499999 0 0 0 6.35,0 Z m 0,0.79374999 A 5.5562499,5.5562499 0 0 1 11.90625,6.3499999 5.5562499,5.5562499 0 0 1 6.35,11.90625 5.5562499,5.5562499 0 0 1 0.79374997,6.3499999 5.5562499,5.5562499 0 0 1 6.35,0.79374999 Z M 3.7041667,2.6458333 C 3.4110083,2.6458333 3.175,2.8818416 3.175,3.175 v 6.3499999 c 0,0.2931583 0.2360083,0.5291671 0.5291667,0.5291671 h 5.2916666 c 0.2931583,0 0.5291666,-0.2360088 0.5291666,-0.5291671 V 3.175 c 0,-0.2931584 -0.2360083,-0.5291667 -0.5291666,-0.5291667 z M 4.2333333,3.175 H 6.35 v 2.9104166 l 0.7937499,-0.79375 0.79375,0.79375 V 3.175 h 0.79375 c 0.1465792,0 0.2645834,0.1180041 0.2645834,0.2645833 v 5.8208333 c 0,0.1465791 -0.1180042,0.2645833 -0.2645834,0.2645833 H 4.2333333 Z"
     id="path817"
     inkscape:connector-curvature="0" />
</svg>
