<?xml version="1.0" encoding="UTF-8" standalone="no"?>
<svg
   xmlns:dc="http://purl.org/dc/elements/1.1/"
   xmlns:cc="http://creativecommons.org/ns#"
   xmlns:rdf="http://www.w3.org/1999/02/22-rdf-syntax-ns#"
   xmlns:svg="http://www.w3.org/2000/svg"
   xmlns="http://www.w3.org/2000/svg"
   xmlns:sodipodi="http://sodipodi.sourceforge.net/DTD/sodipodi-0.dtd"
   xmlns:inkscape="http://www.inkscape.org/namespaces/inkscape"
   width="48"
   height="48"
   viewBox="0 0 12.7 12.7"
   version="1.1"
   id="svg4"
   sodipodi:docname="package_games_board.svg"
   inkscape:version="0.92.5 (2060ec1f9f, 2020-04-08)">
  <defs
     id="defs8">
  <style
     id="current-color-scheme"
     type="text/css">
      .ColorScheme-Highlight {
        color:#5beedc;
      }
  </style>
  </defs>
  <path
     class="ColorScheme-Highlight"
     style="fill:#5beedc"
     d="M 24 0 A 24 24 0 0 0 0 24 A 24 24 0 0 0 24 48 A 24 24 0 0 0 48 24 A 24 24 0 0 0 24 0 z M 24 3 A 21 21 0 0 1 45 24 A 21 21 0 0 1 24 45 A 21 21 0 0 1 3 24 A 21 21 0 0 1 24 3 z M 22 13 L 5 18 L 10 35 L 20.625 31.875 L 18 31 L 22.9375 16.1875 L 22 13 z M 26 13 L 21 30 L 38 35 L 43 18 L 26 13 z M 19.611328 15.876953 A 1.9999999 1.9999999 0 0 1 21.466797 17.359375 A 1.9999999 1.9999999 0 0 1 20.052734 19.808594 A 1.9999999 1.9999999 0 0 1 17.603516 18.394531 A 1.9999999 1.9999999 0 0 1 19.017578 15.945312 A 1.9999999 1.9999999 0 0 1 19.611328 15.876953 z M 28.447266 15.876953 A 1.9999999 1.9999999 0 0 1 28.982422 15.945312 A 1.9999999 1.9999999 0 0 1 30.396484 18.394531 A 1.9999999 1.9999999 0 0 1 27.947266 19.808594 A 1.9999999 1.9999999 0 0 1 26.533203 17.359375 A 1.9999999 1.9999999 0 0 1 28.447266 15.876953 z M 38.105469 18.464844 A 1.9999999 1.9999999 0 0 1 38.640625 18.533203 A 1.9999999 1.9999999 0 0 1 40.054688 20.982422 A 1.9999999 1.9999999 0 0 1 37.605469 22.396484 A 1.9999999 1.9999999 0 0 1 36.191406 19.947266 A 1.9999999 1.9999999 0 0 1 38.105469 18.464844 z M 9.953125 18.466797 A 1.9999999 1.9999999 0 0 1 11.808594 19.947266 A 1.9999999 1.9999999 0 0 1 10.394531 22.396484 A 1.9999999 1.9999999 0 0 1 7.9453125 20.982422 A 1.9999999 1.9999999 0 0 1 9.359375 18.533203 A 1.9999999 1.9999999 0 0 1 9.953125 18.466797 z M 31.982422 22 A 1.9999999 1.9999999 0 0 1 32.517578 22.068359 A 1.9999999 1.9999999 0 0 1 33.931641 24.517578 A 1.9999999 1.9999999 0 0 1 31.482422 25.931641 A 1.9999999 1.9999999 0 0 1 30.068359 23.482422 A 1.9999999 1.9999999 0 0 1 31.982422 22 z M 25.857422 25.535156 A 1.9999999 1.9999999 0 0 1 26.394531 25.603516 A 1.9999999 1.9999999 0 0 1 27.808594 28.052734 A 1.9999999 1.9999999 0 0 1 25.359375 29.466797 A 1.9999999 1.9999999 0 0 1 23.945312 27.017578 A 1.9999999 1.9999999 0 0 1 25.857422 25.535156 z M 35.517578 28.123047 A 1.9999999 1.9999999 0 0 1 36.052734 28.191406 A 1.9999999 1.9999999 0 0 1 37.466797 30.640625 A 1.9999999 1.9999999 0 0 1 35.017578 32.054688 A 1.9999999 1.9999999 0 0 1 33.603516 29.605469 A 1.9999999 1.9999999 0 0 1 35.517578 28.123047 z M 12.541016 28.125 A 1.9999999 1.9999999 0 0 1 14.396484 29.605469 A 1.9999999 1.9999999 0 0 1 12.982422 32.054688 A 1.9999999 1.9999999 0 0 1 10.533203 30.640625 A 1.9999999 1.9999999 0 0 1 11.947266 28.191406 A 1.9999999 1.9999999 0 0 1 12.541016 28.125 z "
     transform="scale(0.26458333)"
     id="path851" />
</svg>
