<svg xmlns="http://www.w3.org/2000/svg" width="32" height="32" version="1.1">
 <defs id="nova">
  <style id="current-color-scheme" type="text/css">
   .ColorScheme-Background {color:#181818; } .ColorScheme-ButtonBackground { color:#343434; } .ColorScheme-Highlight { color:#4285f4; } .ColorScheme-Text { color:#dfdfdf; } .ColorScheme-ViewBackground { color:#242424; } .ColorScheme-NegativeText { color:#f44336; } .ColorScheme-PositiveText { color:#4caf50; } .ColorScheme-NeutralText { color:#ff9800; }
  </style>
 </defs>
 <g id="22-22-media-seek-forward" transform="translate(187,-27)">
  <rect style="opacity:0.001" width="22" height="22" x="5" y="5"/>
  <path style="fill:currentColor" class="ColorScheme-Text" transform="translate(-187,27)" d="M 194.57422 -18.994141 A 1.7022396 1.7415133 0 0 0 193 -17.257812 L 193 -11 L 193 -4.7421875 A 1.7022396 1.7415133 0 0 0 195.55273 -3.2324219 L 199 -5.2695312 L 199 -4.7421875 A 1.7022396 1.7415133 0 0 0 201.55273 -3.2324219 L 206.85156 -6.3632812 L 212.15039 -9.4921875 A 1.7022396 1.7415133 0 0 0 212.14844 -12.507812 L 206.85156 -15.636719 L 201.55469 -18.765625 A 1.7022396 1.7415133 0 0 0 200.57422 -18.994141 A 1.7022396 1.7415133 0 0 0 199 -17.257812 L 199 -16.730469 L 195.55469 -18.765625 A 1.7022396 1.7415133 0 0 0 194.57422 -18.994141 z M 195 -16.771484 L 201 -13.226562 L 201 -16.771484 L 205.83398 -13.916016 L 210.76953 -11 L 205.83398 -8.0859375 L 201 -5.2304688 L 201 -8.7753906 L 195 -5.2304688 L 195 -11 L 195 -16.771484 z"/>
 </g>
 <g id="22-22-media-playback-start" transform="translate(-5.0000005,-27)">
  <rect style="opacity:0.001" width="22" height="22" x="5" y="5"/>
  <path style="fill:currentColor" class="ColorScheme-Text" d="M 11.57422,8.005859 A 1.7022396,1.7415133 0 0 0 10.000001,9.742188 V 16 22.257812 a 1.7022396,1.7415133 0 0 0 2.552734,1.509766 l 5.298828,-3.130859 5.298829,-3.128907 a 1.7022396,1.7415133 0 0 0 -0.002,-3.015624 L 17.851563,11.363281 12.552735,8.234375 A 1.7022396,1.7415133 0 0 0 11.57422,8.005859 Z m 0.425781,2.222657 4.833984,2.857422 L 21.769532,16 16.833985,18.916016 12.000001,21.769531 V 16 Z"/>
 </g>
 <g id="22-22-media-seek-backward" transform="matrix(-1,0,0,1,187,-27)">
  <rect style="opacity:0.001" width="22" height="22" x="5" y="5"/>
  <path style="fill:currentColor" class="ColorScheme-Text" transform="matrix(-1,0,0,1,187,27)" d="M 173.42578 -18.994141 A -1.7022396 1.7415133 0 0 0 172.44531 -18.765625 L 167.14844 -15.636719 L 161.85156 -12.507812 A -1.7022396 1.7415133 0 0 0 161.84961 -9.4921875 L 167.14844 -6.3632812 L 172.44727 -3.2324219 A -1.7022396 1.7415133 0 0 0 175 -4.7421875 L 175 -5.2695312 L 178.44727 -3.2324219 A -1.7022396 1.7415133 0 0 0 181 -4.7421875 L 181 -11 L 181 -17.257812 A -1.7022396 1.7415133 0 0 0 179.42578 -18.994141 A -1.7022396 1.7415133 0 0 0 178.44531 -18.765625 L 175 -16.730469 L 175 -17.257812 A -1.7022396 1.7415133 0 0 0 173.42578 -18.994141 z M 173 -16.771484 L 173 -13.226562 L 179 -16.771484 L 179 -11 L 179 -5.2304688 L 173 -8.7753906 L 173 -5.2304688 L 168.16602 -8.0859375 L 163.23047 -11 L 168.16602 -13.916016 L 173 -16.771484 z"/>
 </g>
 <g id="22-22-media-skip-forward" transform="translate(123,-27.000001)">
  <rect style="opacity:0.001" width="22" height="22" x="5" y="5"/>
  <path style="fill:currentColor" class="ColorScheme-Text" transform="translate(-123,27.000001)" d="M 145 -19 A 2 2 0 0 0 143 -17 L 143 -13.777344 L 139.85156 -15.636719 L 134.55273 -18.765625 A 1.7022396 1.7415133 0 0 0 133.57422 -18.994141 A 1.7022396 1.7415133 0 0 0 132 -17.257812 L 132 -11 L 132 -4.7421875 A 1.7022396 1.7415133 0 0 0 134.55273 -3.2324219 L 139.85156 -6.3632812 L 143 -8.2226562 L 143 -5 A 2 2 0 0 0 145 -3 A 2 2 0 0 0 147 -5 L 147 -17 A 2 2 0 0 0 145 -19 z M 134 -16.767578 L 138.83398 -13.914062 L 143.76953 -11 L 138.83398 -8.0859375 L 134 -5.2304688 L 134 -11 L 134 -16.767578 z"/>
 </g>
 <g id="22-22-media-skip-backward" transform="matrix(-1,0,0,1,123,-27.000001)">
  <rect style="opacity:0.001" width="22" height="22" x="5" y="5"/>
  <path style="fill:currentColor" class="ColorScheme-Text" transform="matrix(-1,0,0,1,123,27.000001)" d="M 101 -19 A -2 2 0 0 0 99 -17 L 99 -5 A -2 2 0 0 0 101 -3 A -2 2 0 0 0 103 -5 L 103 -8.2226562 L 106.14844 -6.3632812 L 111.44727 -3.2324219 A -1.7022396 1.7415133 0 0 0 114 -4.7421875 L 114 -11 L 114 -17.257812 A -1.7022396 1.7415133 0 0 0 112.42578 -18.994141 A -1.7022396 1.7415133 0 0 0 111.44727 -18.765625 L 106.14844 -15.636719 L 103 -13.777344 L 103 -17 A -2 2 0 0 0 101 -19 z M 112 -16.767578 L 112 -11 L 112 -5.2304688 L 107.16602 -8.0859375 L 102.23047 -11 L 107.16602 -13.914062 L 112 -16.767578 z"/>
 </g>
 <g id="22-22-media-playback-stop" transform="translate(59,-27)">
  <rect style="opacity:0.001" width="22" height="22" x="5" y="5"/>
  <path style="fill:currentColor" class="ColorScheme-Text" transform="translate(-59,27)" d="M 71 -19 C 68.784 -19 67 -17.216 67 -15 L 67 -7 C 67 -4.784 68.784 -3 71 -3 L 79 -3 C 81.216 -3 83 -4.784 83 -7 L 83 -15 C 83 -17.216 81.216 -19 79 -19 L 71 -19 z M 71 -17 L 79 -17 C 80.142593 -17 81 -16.142593 81 -15 L 81 -7 C 81 -5.857407 80.142593 -5 79 -5 L 71 -5 C 69.857407 -5 69 -5.857407 69 -7 L 69 -15 C 69 -16.142593 69.857407 -17 71 -17 z"/>
 </g>
 <g id="22-22-media-record" transform="translate(219,-27)">
  <rect style="opacity:0.001" width="22" height="22" x="5" y="5"/>
  <path style="fill:currentColor" class="ColorScheme-Highlight" transform="translate(-219,27)" d="M 235 -19 A 8 8 0 0 0 227 -11 A 8 8 0 0 0 235 -3 A 8 8 0 0 0 243 -11 A 8 8 0 0 0 235 -19 z M 235 -17 C 238.33739 -17 241 -14.337394 241 -11 C 241 -7.662606 238.33739 -5 235 -5 C 231.66261 -5 229 -7.662606 229 -11 C 229 -14.337394 231.66261 -17 235 -17 z M 235 -15 A 4 4 0 0 0 231 -11 A 4 4 0 0 0 235 -7 A 4 4 0 0 0 239 -11 A 4 4 0 0 0 235 -15 z"/>
 </g>
 <g id="media-playback-start">
  <rect style="opacity:0.001" width="32" height="32" x="0" y="0"/>
  <path style="fill:currentColor" class="ColorScheme-Text" d="M 9.3632812,4.0078125 A 2.5532994,2.6122882 0 0 0 7.0019531,6.6113281 V 16 L 7,25.388672 a 2.5532994,2.6122882 0 0 0 3.830078,2.261719 l 7.947266,-4.695313 7.947265,-4.693359 a 2.5532994,2.6122882 0 0 0 -0.002,-4.523438 L 18.777344,9.0449219 10.830078,4.3496094 A 2.5532994,2.6122882 0 0 0 9.3632812,4.0078125 Z m 0.6386718,3.3378906 7.25,4.2812499 L 24.65625,16 17.251953,20.373047 10,24.65625 10.001953,16 Z"/>
 </g>
 <g id="media-skip-forward" transform="translate(128)">
  <rect style="opacity:0.001" width="32" height="32" x="0" y="0"/>
  <path style="fill:currentColor" class="ColorScheme-Text" transform="translate(-128)" d="M 152 4 C 150.37996 3.9999997 148.95432 5.3438301 149 7 L 149 11.734375 L 144.51562 9.0449219 L 136.74414 4.3515625 C 136.30955 4.0889888 135.80903 3.9685539 135.30859 4.0078125 C 134.00642 4.1105696 133.00019 5.2469655 133 6.6132812 L 133 16 L 133 25.386719 C 132.99867 27.397888 135.07907 28.655237 136.74414 27.650391 L 144.51562 22.955078 L 149 20.265625 L 149 25 C 149 26.6568 150.37996 28 152 28 C 153.62004 28 155 26.656799 155 25 L 155 7 C 155 5.3432005 153.62004 4.0000002 152 4 z M 136 7.40625 L 142.96875 11.615234 L 150.2793 16 L 142.96875 20.384766 L 136 24.59375 L 136 16 L 136 7.40625 z"/>
 </g>
 <g id="media-skip-backward" transform="matrix(-1,0,0,1,128,-5.0000001e-7)">
  <rect style="opacity:0.001" width="32" height="32" x="0" y="0"/>
  <path style="fill:currentColor" class="ColorScheme-Text" transform="matrix(-1,0,0,1,128,5.0000001e-7)" d="M 104 4 C 102.37996 4.0000002 101 5.3432005 101 7 L 101 25 C 101 26.656799 102.37996 28 104 28 C 105.62004 28 107 26.6568 107 25 L 107 20.265625 L 111.48438 22.955078 L 119.25586 27.650391 C 120.92093 28.655237 123.00133 27.397888 123 25.386719 L 123 16 L 123 6.6132812 C 122.99981 5.2469655 121.99358 4.1105696 120.69141 4.0078125 C 120.19097 3.9685539 119.69045 4.0889888 119.25586 4.3515625 L 111.48438 9.0449219 L 107 11.734375 L 107 7 C 107.04568 5.3438301 105.62004 3.9999997 104 4 z M 120 7.40625 L 120 16 L 120 24.59375 L 113.03125 20.384766 L 105.7207 16 L 113.03125 11.615234 L 120 7.40625 z"/>
 </g>
 <g id="media-seek-forward" transform="translate(192)">
  <rect style="opacity:0.001" width="32" height="32" x="0" y="0"/>
  <path style="fill:currentColor" class="ColorScheme-Text" transform="translate(-192)" d="M 195.36133 4.0078125 A 2.5534111 2.6123227 0 0 0 193 6.6113281 L 193 15.998047 L 193 25.386719 A 2.5534111 2.6123227 0 0 0 196.82812 27.650391 L 202 24.595703 L 202 25.386719 A 2.5534111 2.6123227 0 0 0 205.83008 27.650391 L 213.77734 22.955078 L 221.72656 18.259766 A 2.5534111 2.6123227 0 0 0 221.72266 13.736328 L 213.77734 9.0429688 L 205.83203 4.3496094 A 2.5534111 2.6123227 0 0 0 204.36133 4.0078125 A 2.5534111 2.6123227 0 0 0 202 6.6113281 L 202 7.4023438 L 196.83203 4.3496094 A 2.5534111 2.6123227 0 0 0 195.36133 4.0078125 z M 196 7.34375 L 205 12.660156 L 205 7.34375 L 212.25195 11.626953 L 219.6543 16 L 212.25195 20.371094 L 205 24.65625 L 205 19.337891 L 196 24.65625 L 196 15.998047 L 196 7.34375 z"/>
 </g>
 <g id="media-seek-backward" transform="matrix(-1,0,0,1,192,5e-7)">
  <rect style="opacity:0.001" width="32" height="32" x="0" y="0"/>
  <path style="fill:currentColor" class="ColorScheme-Text" transform="matrix(-1,0,0,1,192,-5e-7)" d="M 179.63867 4.0078125 A -2.5534111 2.6123227 0 0 0 178.16797 4.3496094 L 170.22266 9.0429688 L 162.27734 13.736328 A -2.5534111 2.6123227 0 0 0 162.27344 18.259766 L 170.22266 22.955078 L 178.16992 27.650391 A -2.5534111 2.6123227 0 0 0 182 25.386719 L 182 24.595703 L 187.17188 27.650391 A -2.5534111 2.6123227 0 0 0 191 25.386719 L 191 15.998047 L 191 6.6113281 A -2.5534111 2.6123227 0 0 0 188.63867 4.0078125 A -2.5534111 2.6123227 0 0 0 187.16797 4.3496094 L 182 7.4023438 L 182 6.6113281 A -2.5534111 2.6123227 0 0 0 179.63867 4.0078125 z M 179 7.34375 L 179 12.660156 L 188 7.34375 L 188 15.998047 L 188 24.65625 L 179 19.337891 L 179 24.65625 L 171.74805 20.371094 L 164.3457 16 L 171.74805 11.626953 L 179 7.34375 z"/>
 </g>
 <g id="media-playback-stop" transform="translate(64)">
  <rect style="opacity:0.001" width="32" height="32" x="0" y="0"/>
  <path style="fill:currentColor" class="ColorScheme-Text" transform="translate(-64)" d="M 74 4 C 70.676 4 68 6.676 68 10 L 68 22 C 68 25.324 70.676 28 74 28 L 86 28 C 89.324 28 92 25.324 92 22 L 92 10 C 92 6.676 89.324 4 86 4 L 74 4 z M 74 7 L 86 7 C 87.71389 7 89 8.28611 89 10 L 89 22 C 89 23.71389 87.71389 25 86 25 L 74 25 C 72.28611 25 71 23.71389 71 22 L 71 10 C 71 8.28611 72.28611 7 74 7 z"/>
 </g>
 <g id="media-record" transform="translate(224)">
  <rect style="opacity:0.001" width="32" height="32" x="0" y="0"/>
  <path style="fill:currentColor" class="ColorScheme-Highlight" transform="translate(-224)" d="M 240 4 A 12 12 0 0 0 228 16 A 12 12 0 0 0 240 28 A 12 12 0 0 0 252 16 A 12 12 0 0 0 240 4 z M 240 7 C 245.00609 7 249 10.993908 249 16 C 249 21.006092 245.00609 25 240 25 C 234.99391 25 231 21.006092 231 16 C 231 10.993908 234.99391 7 240 7 z M 240 10 A 6 6 0 0 0 234 16 A 6 6 0 0 0 240 22 A 6 6 0 0 0 246 16 A 6 6 0 0 0 240 10 z"/>
 </g>
 <g id="22-22-media-eject" transform="translate(251,-27)">
  <rect style="opacity:0.001" width="22" height="22" x="5" y="5"/>
  <path style="fill:currentColor" class="ColorScheme-Text" transform="translate(-251,27)" d="M 266.77344 -19.984375 A 1.5238548 1.3373832 0 0 0 265.67969 -19.330078 L 262.94336 -15.169922 L 260.20508 -11.005859 A 1.5238548 1.3373832 0 0 0 260.00391 -10.238281 A 1.5238548 1.3373832 0 0 0 261.52344 -9 L 267 -9 L 272.47656 -9 A 1.5238548 1.3373832 0 0 0 273.79688 -11.005859 L 271.05859 -15.169922 L 268.32031 -19.332031 A 1.5238548 1.3373832 0 0 0 266.77344 -19.984375 z M 267.00195 -17.699219 L 269.38672 -14.070312 L 271.40625 -11 L 267 -11 L 262.5957 -11 L 264.61523 -14.070312 L 267.00195 -17.699219 z M 262 -8 A 2 2 0 0 0 260 -6 A 2 2 0 0 0 262 -4 L 272 -4 A 2 2 0 0 0 274 -6 A 2 2 0 0 0 272 -8 L 262 -8 z"/>
 </g>
 <g id="media-eject" transform="translate(256)">
  <rect style="opacity:0.001" width="32" height="32" x="0" y="0"/>
  <path style="fill:currentColor" class="ColorScheme-Text" transform="translate(-256)" d="M 272.16016 4.0214844 A 2.2856152 1.945385 0 0 0 270.51953 4.9746094 L 266.41406 11.025391 L 262.30859 17.082031 A 2.2856152 1.945385 0 0 0 262.00586 18.199219 A 2.2856152 1.945385 0 0 0 264.28516 20 L 272.5 20 L 280.71289 20 A 2.2856152 1.945385 0 0 0 282.69336 17.082031 L 278.58594 11.025391 L 274.48047 4.9707031 A 2.2856152 1.945385 0 0 0 272.16016 4.0214844 z M 272.50195 7.3964844 L 276.10352 12.708984 L 279.01367 17 L 272.5 17 L 265.98828 17 L 268.89648 12.708984 L 272.50195 7.3964844 z M 265 22 A 2.9999999 3.0001064 0 0 0 262 25 A 2.9999999 3.0001064 0 0 0 265 28 L 280 28 A 2.9999999 3.0001064 0 0 0 283 25 A 2.9999999 3.0001064 0 0 0 280 22 L 265 22 z"/>
 </g>
 <g id="22-22-media-playback-playing" transform="translate(-5.0000005,-49)">
  <rect style="opacity:0.001" width="22" height="22" x="5" y="5"/>
  <path style="fill:currentColor" class="ColorScheme-Text" d="M 11.57422,8.005859 A 1.7022396,1.7415133 0 0 0 10.000001,9.742188 V 16 22.257812 a 1.7022396,1.7415133 0 0 0 2.552734,1.509766 l 5.298828,-3.130859 5.298829,-3.128907 a 1.7022396,1.7415133 0 0 0 -0.002,-3.015624 L 17.851563,11.363281 12.552735,8.234375 A 1.7022396,1.7415133 0 0 0 11.57422,8.005859 Z m 0.425781,2.222657 4.833984,2.857422 L 21.769532,16 16.833985,18.916016 12.000001,21.769531 V 16 Z"/>
 </g>
 <g id="22-22-media-playback-stopped" transform="translate(59,-49)">
  <rect style="opacity:0.001" width="22" height="22" x="5" y="5"/>
  <path style="fill:currentColor" class="ColorScheme-Text" transform="translate(-59,49)" d="M 71 -41 C 68.784 -41 67 -39.216 67 -37 L 67 -29 C 67 -26.784 68.784 -25 71 -25 L 79 -25 C 81.216 -25 83 -26.784 83 -29 L 83 -37 C 83 -39.216 81.216 -41 79 -41 L 71 -41 z M 71 -39 L 79 -39 C 80.142593 -39 81 -38.142593 81 -37 L 81 -29 C 81 -27.857407 80.142593 -27 79 -27 L 71 -27 C 69.857407 -27 69 -27.857407 69 -29 L 69 -37 C 69 -38.142593 69.857407 -39 71 -39 z"/>
 </g>
 <g id="media-playback-playing" transform="translate(5e-7,32)">
  <rect style="opacity:0.001" width="32" height="32" x="0" y="0"/>
  <path style="fill:currentColor" class="ColorScheme-Text" d="M 9.3632807,4.007812 A 2.5532994,2.6122882 0 0 0 7.0019526,6.611328 V 16 l -0.00195,9.388672 a 2.5532994,2.6122882 0 0 0 3.8300785,2.261719 l 7.947265,-4.695313 7.947266,-4.693359 a 2.5532994,2.6122882 0 0 0 -0.002,-4.523438 L 18.777343,9.044922 10.830078,4.349609 A 2.5532994,2.6122882 0 0 0 9.3632807,4.007812 Z m 0.6386723,3.337891 7.25,4.28125 L 24.65625,16 17.251953,20.373047 9.9999995,24.65625 10.001953,16 Z"/>
 </g>
 <g id="media-playback-stopped" transform="translate(64,32)">
  <rect style="opacity:0.001" width="32" height="32" x="0" y="0"/>
  <path style="fill:currentColor" class="ColorScheme-Text" transform="translate(-64,-32)" d="M 74 36 C 70.676 36 68 38.676 68 42 L 68 54 C 68 57.324 70.676 60 74 60 L 86 60 C 89.324 60 92 57.324 92 54 L 92 42 C 92 38.676 89.324 36 86 36 L 74 36 z M 74 39 L 86 39 C 87.71389 39 89 40.28611 89 42 L 89 54 C 89 55.71389 87.71389 57 86 57 L 74 57 C 72.28611 57 71 55.71389 71 54 L 71 42 C 71 40.28611 72.28611 39 74 39 z"/>
 </g>
 <g id="22-22-media-playback-pause">
  <rect style="opacity:0.001" width="22" height="22" x="32" y="-22"/>
  <path style="fill:currentColor" class="ColorScheme-Text" d="M 38 -19 A 2 2 0 0 0 36 -17 L 36 -5 A 2 2 0 0 0 38 -3 A 2 2 0 0 0 40 -5 L 40 -17 A 2 2 0 0 0 38 -19 z M 48 -19 A 2 2 0 0 0 46 -17 L 46 -5 A 2 2 0 0 0 48 -3 A 2 2 0 0 0 50 -5 L 50 -17 A 2 2 0 0 0 48 -19 z"/>
 </g>
 <g id="media-playback-pause">
  <rect style="opacity:0.001" width="32" height="32" x="32" y="0"/>
  <path style="fill:currentColor" class="ColorScheme-Text" d="M 41 4 A 3 3 0 0 0 38 7 L 38 25 A 3 3 0 0 0 41 28 A 3 3 0 0 0 44 25 L 44 7 A 3 3 0 0 0 41 4 z M 55 4 A 3 3 0 0 0 52 7 L 52 25 A 3 3 0 0 0 55 28 A 3 3 0 0 0 58 25 L 58 7 A 3 3 0 0 0 55 4 z"/>
 </g>
 <g id="22-22-media-playback-paused" transform="translate(0,-22)">
  <rect style="opacity:0.001" width="22" height="22" x="32" y="-22"/>
  <path style="fill:currentColor" class="ColorScheme-Text" d="m 38,-19 a 2,2 0 0 0 -2,2 v 12 a 2,2 0 0 0 2,2 2,2 0 0 0 2,-2 v -12 a 2,2 0 0 0 -2,-2 z m 10,0 a 2,2 0 0 0 -2,2 v 12 a 2,2 0 0 0 2,2 2,2 0 0 0 2,-2 v -12 a 2,2 0 0 0 -2,-2 z"/>
 </g>
 <g id="media-playback-paused" transform="translate(0,32)">
  <rect style="opacity:0.001" width="32" height="32" x="32" y="0"/>
  <path style="fill:currentColor" class="ColorScheme-Text" d="m 41,4 a 3,3 0 0 0 -3,3 v 18 a 3,3 0 0 0 3,3 3,3 0 0 0 3,-3 V 7 A 3,3 0 0 0 41,4 Z m 14,0 a 3,3 0 0 0 -3,3 v 18 a 3,3 0 0 0 3,3 3,3 0 0 0 3,-3 V 7 A 3,3 0 0 0 55,4 Z"/>
 </g>
 <g id="media-playlist-repeat" transform="translate(320)">
  <rect style="opacity:0.001" width="32" height="32" x="0" y="0"/>
  <path style="fill:currentColor" class="ColorScheme-Text" d="M 11.900391,4.0019533 C 11.392772,4.040063 11.000175,4.4658733 11,4.9785158 V 7.0000002 H 10 C 6.676,7.0000002 4,9.676 4,13 v 6 c 0,3.324 2.676,6 6,6 h 12 c 3.324,0 6,-2.676 6,-6 V 13 C 28,9.676 25.324,7.0000002 22,7.0000002 V 10 c 1.71389,0 3,1.28611 3,3 v 6 c 0,1.71389 -1.28611,3 -3,3 H 10 C 8.28611,22 7,20.71389 7,19 v -6 c 0,-1.71389 1.28611,-3 3,-3 h 1 v 2.021484 c 5.72e-4,0.753735 0.810803,1.224472 1.458984,0.847657 l 3.027344,-1.761719 3.027344,-1.7597656 c 0.646842,-0.3773652 0.646842,-1.3179472 0,-1.6953124 L 15.486328,5.8925783 12.458984,4.1308596 C 12.289865,4.0323734 12.095217,3.9874548 11.900391,4.0019533 Z"/>
 </g>
 <g id="media-playlist-shuffle" transform="translate(288)">
  <rect style="opacity:0.001" width="32" height="32" x="0" y="0"/>
  <path style="fill:currentColor" class="ColorScheme-Text" d="M 21.900391,5.0019531 A 0.97270141,0.97960906 0 0 0 21,5.9785156 V 8 H 18 C 16.078268,8 14.627799,9.2953967 13.716797,10.726562 13.454148,11.139178 13.219527,11.574868 13,12.023438 12.780473,11.574868 12.545852,11.139178 12.283203,10.726562 11.372201,9.2953967 9.921732,8 8,8 H 4 v 3 h 4 c 0.6656279,0 1.1113768,0.329605 1.7519531,1.335938 C 10.322781,13.232696 10.859486,14.570714 11.396484,16 10.859486,17.429286 10.322781,18.767304 9.7519531,19.664062 9.1113768,20.670395 8.6656279,21 8,21 H 4 v 3 h 4 c 1.921732,0 3.372201,-1.295397 4.283203,-2.726562 0.262649,-0.412616 0.49727,-0.848306 0.716797,-1.296876 0.219527,0.44857 0.454148,0.88426 0.716797,1.296876 C 14.627799,22.704603 16.078268,24 18,24 h 2 1 v 2.021484 a 0.97270141,0.97960906 0 0 0 1.458984,0.847657 l 3.027344,-1.761719 3.027344,-1.759766 a 0.97270141,0.97960906 0 0 0 0,-1.695312 L 25.486328,19.892578 22.458984,18.130859 A 0.97270141,0.97960906 0 0 0 21.900391,18.001953 0.97270141,0.97960906 0 0 0 21,18.978516 V 21 H 20 18 C 17.334372,21 16.888623,20.670395 16.248047,19.664062 15.677219,18.767304 15.140514,17.429286 14.603516,16 15.140514,14.570714 15.677219,13.232696 16.248047,12.335938 16.888623,11.329605 17.334372,11 18,11 h 3 v 2.021484 a 0.97270141,0.97960906 0 0 0 1.458984,0.847657 l 3.027344,-1.761719 3.027344,-1.759766 a 0.97270141,0.97960906 0 0 0 0,-1.6953122 L 25.486328,6.8925781 22.458984,5.1308594 A 0.97270141,0.97960906 0 0 0 21.900391,5.0019531 Z"/>
 </g>
</svg>
