<?xml version="1.0" encoding="UTF-8" standalone="no"?>
<svg
   xmlns:dc="http://purl.org/dc/elements/1.1/"
   xmlns:cc="http://creativecommons.org/ns#"
   xmlns:rdf="http://www.w3.org/1999/02/22-rdf-syntax-ns#"
   xmlns:svg="http://www.w3.org/2000/svg"
   xmlns="http://www.w3.org/2000/svg"
   xmlns:sodipodi="http://sodipodi.sourceforge.net/DTD/sodipodi-0.dtd"
   xmlns:inkscape="http://www.inkscape.org/namespaces/inkscape"
   width="24"
   height="24"
   version="1.1"
   id="svg4"
   sodipodi:docname="stock_folder-properties.svg"
   inkscape:version="0.92.4 (5da689c313, 2019-01-14)">
  <metadata
     id="metadata10">
    <rdf:RDF>
      <cc:Work
         rdf:about="">
        <dc:format>image/svg+xml</dc:format>
        <dc:type
           rdf:resource="http://purl.org/dc/dcmitype/StillImage" />
        <dc:title></dc:title>
      </cc:Work>
    </rdf:RDF>
  </metadata>
  <defs
     id="defs8" />
  <sodipodi:namedview
     pagecolor="#ffffff"
     bordercolor="#666666"
     borderopacity="1"
     objecttolerance="10"
     gridtolerance="10"
     guidetolerance="10"
     inkscape:pageopacity="0"
     inkscape:pageshadow="2"
     inkscape:window-width="1078"
     inkscape:window-height="480"
     id="namedview6"
     showgrid="false"
     inkscape:zoom="9.8333333"
     inkscape:cx="-0.81355932"
     inkscape:cy="12"
     inkscape:window-x="0"
     inkscape:window-y="28"
     inkscape:window-maximized="0"
     inkscape:current-layer="svg4" />
  <path
     d="M 6.6,1.65 A 6.07,6.07 0 0 0 6.05,1.7 6.98,6.98 0 0 0 5.5,1.82 L 5.43,3.63 A 4.28,4.28 0 0 0 4.65,4.02 L 3.17,2.98 A 5.9,5.9 0 0 0 2.37,3.8 L 3.4,5.3 A 4.31,4.31 0 0 0 3,6.06 L 1.2,6.09 A 5.9,5.9 0 0 0 1.02,7.22 l 1.69,0.6 A 4.12,4.12 0 0 0 2.75,8.25 C 2.77,8.4 2.8,8.53 2.84,8.67 L 1.4,9.75 c 0.14,0.36 0.3,0.7 0.51,1.03 l 1.73,-0.51 c 0.18,0.22 0.39,0.43 0.6,0.6 L 3.73,12.6 a 5.91,5.91 0 0 0 1,0.55 l 1.1,-1.44 c 0.28,0.08 0.57,0.12 0.86,0.14 l 0.6,1.71 a 6.07,6.07 0 0 0 1.12,-0.17 v -0.2 l 1.16,0.63 a 5.5,5.5 0 0 0 -0.03,0.56 c 0,0.2 0.01,0.38 0.03,0.57 l -2.1,1.14 c 0.11,0.5 0.26,1 0.46,1.46 l 2.39,-0.32 c 0.2,0.33 0.42,0.64 0.67,0.93 l -1.03,2.17 c 0.39,0.34 0.77,0.66 1.21,0.92 l 1.75,-1.67 a 5.69,5.69 0 0 0 1.1,0.36 l 0.46,2.38 a 8.1,8.1 0 0 0 1.5,0 l 0.46,-2.38 c 0.38,-0.09 0.75,-0.2 1.1,-0.36 l 1.75,1.67 c 0.44,-0.26 0.82,-0.58 1.2,-0.92 l -1.03,-2.17 c 0.26,-0.29 0.49,-0.6 0.68,-0.93 l 2.38,0.32 A 7.87,7.87 0 0 0 23,16.1 l -2.1,-1.14 a 5.28,5.28 0 0 0 0,-1.13 L 23,12.69 a 7.87,7.87 0 0 0 -0.47,-1.46 l -2.38,0.32 A 5.76,5.76 0 0 0 19.48,10.62 L 20.51,8.45 A 7.87,7.87 0 0 0 19.3,7.53 L 17.55,9.2 A 5.71,5.71 0 0 0 16.45,8.84 L 15.98,6.46 A 8.1,8.1 0 0 0 15.24,6.42 c -0.25,0 -0.5,0.02 -0.75,0.04 L 14.03,8.84 A 5.7,5.7 0 0 0 12.93,9.2 L 12.74,9.03 A 5.9,5.9 0 0 0 12.9,8 L 11.22,7.4 A 4.12,4.12 0 0 0 11.18,6.97 4.11,4.11 0 0 0 11.08,6.55 L 12.51,5.47 A 5.9,5.9 0 0 0 12.01,4.44 L 10.28,4.95 A 4.31,4.31 0 0 0 9.67,4.34 l 0.52,-1.72 a 6,6 0 0 0 -1,-0.55 L 8.08,3.5 A 4.28,4.28 0 0 0 7.22,3.36 Z m 0.22,3.4 A 2.56,2.56 0 0 1 7.34,10.13 2.56,2.56 0 0 1 6.56,5.08 2.56,2.56 0 0 1 6.82,5.05 Z m 8.41,5.92 a 3.42,3.42 0 0 1 0,6.83 3.42,3.42 0 0 1 0,-6.83 z"
     id="path2"
     inkscape:connector-curvature="0"
     style="fill:#5beedc" />
</svg>
