<?xml version="1.0" encoding="UTF-8" standalone="no"?>
<svg
   xmlns:dc="http://purl.org/dc/elements/1.1/"
   xmlns:cc="http://creativecommons.org/ns#"
   xmlns:rdf="http://www.w3.org/1999/02/22-rdf-syntax-ns#"
   xmlns:svg="http://www.w3.org/2000/svg"
   xmlns="http://www.w3.org/2000/svg"
   xmlns:sodipodi="http://sodipodi.sourceforge.net/DTD/sodipodi-0.dtd"
   xmlns:inkscape="http://www.inkscape.org/namespaces/inkscape"
   version="1"
   viewBox="0 0 24 24"
   id="svg4"
   sodipodi:docname="address-book-new.svg"
   inkscape:version="0.92.4 (5da689c313, 2019-01-14)">
  <metadata
     id="metadata10">
    <rdf:RDF>
      <cc:Work
         rdf:about="">
        <dc:format>image/svg+xml</dc:format>
        <dc:type
           rdf:resource="http://purl.org/dc/dcmitype/StillImage" />
        <dc:title></dc:title>
      </cc:Work>
    </rdf:RDF>
  </metadata>
  <defs
     id="defs8" />
  <sodipodi:namedview
     pagecolor="#ffffff"
     bordercolor="#666666"
     borderopacity="1"
     objecttolerance="10"
     gridtolerance="10"
     guidetolerance="10"
     inkscape:pageopacity="0"
     inkscape:pageshadow="2"
     inkscape:window-width="1078"
     inkscape:window-height="480"
     id="namedview6"
     showgrid="false"
     inkscape:zoom="9.8333333"
     inkscape:cx="-0.81355932"
     inkscape:cy="12"
     inkscape:window-x="0"
     inkscape:window-y="28"
     inkscape:window-maximized="0"
     inkscape:current-layer="svg4" />
  <path
     d="M 3.61,1.01 A 1.53,1.53 0 0 0 2.08,2.54 v 18.4 c 0,0.85 0.68,1.54 1.53,1.54 h 9.2 V 20.93 L 5.14,20.94 V 2.54 h 13.04 c 0.42,0 0.76,0.35 0.76,0.77 v 9.96 h 1.54 V 2.54 A 1.53,1.53 0 0 0 18.94,1.01 Z m 8.42,6.14 a 2.27,2.27 0 0 0 -1.9,0.96 c -0.41,0.76 -0.07,1.65 -0.33,2.45 -0.16,0.57 0,1.18 0.41,1.59 0.36,0.45 0.8,1.03 0.55,1.63 -0.35,0.68 -1.05,1.08 -1.69,1.44 A 2.6,2.6 0 0 0 8.5,15.54 c -0.16,0.05 -0.29,0.17 -0.29,0.35 v 1.6 c 0,0.22 0.17,0.39 0.39,0.39 h 4.19 a 1.56,1.56 0 0 1 1.55,-1.56 h 1.51 v -0.8 c -0.85,-0.46 -1.8,-0.91 -2.27,-1.8 -0.16,-0.71 0.34,-1.33 0.78,-1.82 0.43,-0.55 0.26,-1.27 0.1,-1.89 C 14.4,9.34 14.62,8.53 14.12,7.98 a 3.18,3.18 0 0 0 -2.1,-0.83 z m 5.38,7.68 v 3.06 h -3.07 v 3.04 l 3.07,0.02 v 3.06 h 3.07 v -3.06 h 3.06 v -3.06 h -3.06 v -3.06 z"
     overflow="visible"
     style="color:#000000;overflow:visible;isolation:auto;mix-blend-mode:normal;fill:#5beedc"
     id="path2"
     inkscape:connector-curvature="0" />
</svg>
