<?xml version="1.0" encoding="UTF-8" standalone="no"?>
<svg
   xmlns:dc="http://purl.org/dc/elements/1.1/"
   xmlns:cc="http://creativecommons.org/ns#"
   xmlns:rdf="http://www.w3.org/1999/02/22-rdf-syntax-ns#"
   xmlns:svg="http://www.w3.org/2000/svg"
   xmlns="http://www.w3.org/2000/svg"
   xmlns:sodipodi="http://sodipodi.sourceforge.net/DTD/sodipodi-0.dtd"
   xmlns:inkscape="http://www.inkscape.org/namespaces/inkscape"
   width="24"
   height="24"
   version="1.1"
   id="svg7"
   sodipodi:docname="dialog-fill-and-stroke.svg"
   inkscape:version="0.92.4 (5da689c313, 2019-01-14)">
  <metadata
     id="metadata11">
    <rdf:RDF>
      <cc:Work
         rdf:about="">
        <dc:format>image/svg+xml</dc:format>
        <dc:type
           rdf:resource="http://purl.org/dc/dcmitype/StillImage" />
        <dc:title></dc:title>
      </cc:Work>
    </rdf:RDF>
  </metadata>
  <sodipodi:namedview
     pagecolor="#ffffff"
     bordercolor="#666666"
     borderopacity="1"
     objecttolerance="10"
     gridtolerance="10"
     guidetolerance="10"
     inkscape:pageopacity="0"
     inkscape:pageshadow="2"
     inkscape:window-width="1078"
     inkscape:window-height="480"
     id="namedview9"
     showgrid="false"
     inkscape:zoom="9.8333333"
     inkscape:cx="-0.81355932"
     inkscape:cy="12"
     inkscape:window-x="0"
     inkscape:window-y="28"
     inkscape:window-maximized="0"
     inkscape:current-layer="svg7" />
  <defs
     id="defs3">
    <style
       id="current-color-scheme" />
  </defs>
  <path
     d="m 19,5 c -0.19,-0.21 -6.64,5.25 -8.47,7.5 -0.27,0.34 -0.33,0.58 -0.68,1.2 0.23,0.17 0.66,0.58 0.96,1.29 0.6,-0.39 0.88,-0.45 1.2,-0.75 C 14.08,12.27 19.17,5.21 19,5.01 Z M 8.9,14.23 c -0.78,0.02 -1.53,0.69 -2.05,2.1 -0.6,1.6 -1.65,2.24 -1.86,2.2 1.1,0.45 4.5,1.6 5.33,-2.8 A 2.83,2.83 0 0 0 9.24,14.25 1.47,1.47 0 0 0 8.9,14.23 Z"
     id="path5"
     inkscape:connector-curvature="0"
     style="color:#5beedc;fill:#5beedc" />
</svg>
