<?xml version="1.0" encoding="UTF-8" standalone="no"?>
<svg
   xmlns:dc="http://purl.org/dc/elements/1.1/"
   xmlns:cc="http://creativecommons.org/ns#"
   xmlns:rdf="http://www.w3.org/1999/02/22-rdf-syntax-ns#"
   xmlns:svg="http://www.w3.org/2000/svg"
   xmlns="http://www.w3.org/2000/svg"
   xmlns:sodipodi="http://sodipodi.sourceforge.net/DTD/sodipodi-0.dtd"
   xmlns:inkscape="http://www.inkscape.org/namespaces/inkscape"
   viewBox="0 0 24 24"
   version="1.1"
   id="svg10"
   sodipodi:docname="document-print.svg"
   inkscape:version="0.92.4 (5da689c313, 2019-01-14)">
  <metadata
     id="metadata16">
    <rdf:RDF>
      <cc:Work
         rdf:about="">
        <dc:format>image/svg+xml</dc:format>
        <dc:type
           rdf:resource="http://purl.org/dc/dcmitype/StillImage" />
        <dc:title></dc:title>
      </cc:Work>
    </rdf:RDF>
  </metadata>
  <defs
     id="defs14" />
  <sodipodi:namedview
     pagecolor="#ffffff"
     bordercolor="#666666"
     borderopacity="1"
     objecttolerance="10"
     gridtolerance="10"
     guidetolerance="10"
     inkscape:pageopacity="0"
     inkscape:pageshadow="2"
     inkscape:window-width="1078"
     inkscape:window-height="480"
     id="namedview12"
     showgrid="false"
     inkscape:zoom="9.8333333"
     inkscape:cx="-0.81355932"
     inkscape:cy="11.898305"
     inkscape:window-x="0"
     inkscape:window-y="28"
     inkscape:window-maximized="0"
     inkscape:current-layer="svg10" />
  <g
     transform="matrix(0.5,0,0,0.5,-0.04,1.06)"
     id="g6"
     style="fill:#5beedc">
    <path
       d="M 4.19,12.2 A 0.19,0.19 0 0 0 4,12.4 v 17.4 c 0,0.1 0.08,0.19 0.19,0.19 H 43.95 A 0.19,0.19 0 0 0 44.13,29.8 V 12.4 a 0.19,0.19 0 0 0 -0.18,-0.19 z m 33,2.65 a 2.77,2.77 0 0 1 2.78,2.77 2.77,2.77 0 0 1 -2.77,2.77 2.77,2.77 0 0 1 -2.78,-2.77 2.77,2.77 0 0 1 2.78,-2.77 z"
       id="path2"
       inkscape:connector-curvature="0"
       style="paint-order:markers fill stroke" />
    <rect
       width="24"
       height="8"
       x="12"
       y="2"
       ry="0.19"
       id="rect4"
       style="paint-order:markers fill stroke" />
  </g>
  <rect
     width="11.9"
     height="4.5300002"
     x="6.0700002"
     y="15.5"
     stroke-miterlimit="1.5"
     ry="0"
     id="rect8"
     style="fill:none;stroke:#5beedc;stroke-width:1.51999998;stroke-linecap:square;stroke-miterlimit:1.5;paint-order:markers fill stroke" />
</svg>
