<svg xmlns="http://www.w3.org/2000/svg" width="24" height="24"><g transform="rotate(35.36 4.48 11.18) scale(.943)" fill="#5beedc"><path d="M7.03 4.08L5 10.5l5.67 11.68V10.5h.32A1.5 1.57 0 0 1 9.5 8.94 1.5 1.57 0 0 1 11 7.37a1.5 1.57 0 0 1 1.49 1.57 1.5 1.57 0 0 1-1.5 1.56h.33v11.68l5.66-11.68-1.97-6.42z"/><rect ry=".03" rx=".03" y="2.87" x="6.37" height="2.22" width="9.2" paint-order="markers fill stroke"/><rect ry=".3" rx=".18" y="-1.53" x="5.36" height="4.85" width="10.97" paint-order="markers fill stroke"/></g></svg>
