<?xml version="1.0" encoding="UTF-8" standalone="no"?>
<svg
   xmlns:dc="http://purl.org/dc/elements/1.1/"
   xmlns:cc="http://creativecommons.org/ns#"
   xmlns:rdf="http://www.w3.org/1999/02/22-rdf-syntax-ns#"
   xmlns:svg="http://www.w3.org/2000/svg"
   xmlns="http://www.w3.org/2000/svg"
   xmlns:sodipodi="http://sodipodi.sourceforge.net/DTD/sodipodi-0.dtd"
   xmlns:inkscape="http://www.inkscape.org/namespaces/inkscape"
   width="24"
   height="24"
   version="1.1"
   id="svg7"
   sodipodi:docname="draw-watercolor.svg"
   inkscape:version="0.92.4 (5da689c313, 2019-01-14)">
  <metadata
     id="metadata11">
    <rdf:RDF>
      <cc:Work
         rdf:about="">
        <dc:format>image/svg+xml</dc:format>
        <dc:type
           rdf:resource="http://purl.org/dc/dcmitype/StillImage" />
        <dc:title></dc:title>
      </cc:Work>
    </rdf:RDF>
  </metadata>
  <sodipodi:namedview
     pagecolor="#ffffff"
     bordercolor="#666666"
     borderopacity="1"
     objecttolerance="10"
     gridtolerance="10"
     guidetolerance="10"
     inkscape:pageopacity="0"
     inkscape:pageshadow="2"
     inkscape:window-width="1078"
     inkscape:window-height="480"
     id="namedview9"
     showgrid="false"
     inkscape:zoom="9.8333333"
     inkscape:cx="-0.81355932"
     inkscape:cy="12"
     inkscape:window-x="0"
     inkscape:window-y="28"
     inkscape:window-maximized="0"
     inkscape:current-layer="svg7" />
  <defs
     id="defs3">
    <style
       id="current-color-scheme" />
  </defs>
  <path
     d="m 18.57,5 a 1.75,7.88 44.99 0 0 -6.51,4.47 1.75,7.88 44.99 0 0 -3.1,3.6 c 0.94,0.3 1.68,1.03 1.98,1.97 a 1.75,7.88 44.99 0 0 3.6,-3.1 1.75,7.88 44.99 0 0 4.32,-6.8 1.75,7.88 44.99 0 0 -0.29,-0.13 z M 17,13 c -0.39,1.28 -1.36,2.37 -1.78,3.25 -0.15,0.26 -0.22,0.56 -0.22,0.88 0,1.03 0.9,1.87 2,1.87 1.1,0 2,-0.84 2,-1.88 0,-0.31 -0.1,-0.6 -0.25,-0.87 C 18.33,15.37 17.39,14.28 17,13 Z M 8.5,14.33 C 5,15.27 7.62,17.5 5,19 c 3.5,0 5.25,-1.75 5.25,-2.92 0,-0.58 0.06,-1.65 -1.75,-1.75 z"
     id="path5"
     inkscape:connector-curvature="0"
     style="color:#5beedc;fill:#5beedc" />
</svg>
