<?xml version="1.0" encoding="UTF-8" standalone="no"?>
<svg
   xmlns:dc="http://purl.org/dc/elements/1.1/"
   xmlns:cc="http://creativecommons.org/ns#"
   xmlns:rdf="http://www.w3.org/1999/02/22-rdf-syntax-ns#"
   xmlns:svg="http://www.w3.org/2000/svg"
   xmlns="http://www.w3.org/2000/svg"
   xmlns:sodipodi="http://sodipodi.sourceforge.net/DTD/sodipodi-0.dtd"
   xmlns:inkscape="http://www.inkscape.org/namespaces/inkscape"
   width="24"
   height="24"
   version="1.1"
   id="svg4"
   sodipodi:docname="edit-delete-mail.svg"
   inkscape:version="0.92.4 (5da689c313, 2019-01-14)">
  <metadata
     id="metadata10">
    <rdf:RDF>
      <cc:Work
         rdf:about="">
        <dc:format>image/svg+xml</dc:format>
        <dc:type
           rdf:resource="http://purl.org/dc/dcmitype/StillImage" />
        <dc:title></dc:title>
      </cc:Work>
    </rdf:RDF>
  </metadata>
  <defs
     id="defs8" />
  <sodipodi:namedview
     pagecolor="#ffffff"
     bordercolor="#666666"
     borderopacity="1"
     objecttolerance="10"
     gridtolerance="10"
     guidetolerance="10"
     inkscape:pageopacity="0"
     inkscape:pageshadow="2"
     inkscape:window-width="1078"
     inkscape:window-height="480"
     id="namedview6"
     showgrid="false"
     inkscape:zoom="9.8333333"
     inkscape:cx="-0.81355932"
     inkscape:cy="12"
     inkscape:window-x="0"
     inkscape:window-y="28"
     inkscape:window-maximized="0"
     inkscape:current-layer="svg4" />
  <path
     d="M 12,2.54 A 9.46,9.46 0 0 0 3.7,7.47 l 8.14,8 h 0.76 l 7.86,-7.7 A 9.46,9.46 0 0 0 12,2.54 Z M 3.15,8.67 A 9.46,9.46 0 0 0 2.54,12 9.46,9.46 0 0 0 3.78,16.66 l 3.72,-3.7 z m 17.82,0.35 -3.34,3.32 a 6,6 0 0 1 0.16,-0.02 6,6 0 0 1 0.6,-0.03 6,6 0 0 1 0.42,0.02 6,6 0 0 1 0.6,0.07 6,6 0 0 1 0.58,0.13 6,6 0 0 1 0.57,0.19 6,6 0 0 1 0.55,0.24 6,6 0 0 1 0.27,0.16 9.46,9.46 0 0 0 0.08,-1.1 9.46,9.46 0 0 0 -0.49,-2.98 z m -2.59,4.27 a 5,5 0 0 0 -5,5 5,5 0 0 0 5,5 5,5 0 0 0 5,-5 5,5 0 0 0 -5,-5 z m -9.96,0.53 -3.94,3.91 a 9.46,9.46 0 0 0 7.52,3.73 9.46,9.46 0 0 0 1.24,-0.1 6,6 0 0 1 -0.12,-0.2 6,6 0 0 1 -0.26,-0.53 6,6 0 0 1 -0.2,-0.57 6,6 0 0 1 -0.16,-0.58 6,6 0 0 1 -0.09,-0.59 6,6 0 0 1 -0.03,-0.6 6,6 0 0 1 0.02,-0.42 6,6 0 0 1 0.07,-0.6 6,6 0 0 1 0.12,-0.54 h -1.27 l -2.9,-2.9 z m 9.96,1.47 a 3,3 0 0 1 1.3,0.3 l -4,3.99 a 3,3 0 0 1 -0.3,-1.29 3,3 0 0 1 3,-3 z m 2.7,1.7 h 0.02 a 3,3 0 0 1 0.28,1.3 3,3 0 0 1 -3,3 3,3 0 0 1 -1.3,-0.3 z"
     id="path2"
     inkscape:connector-curvature="0"
     style="fill:#5beedc" />
</svg>
