<?xml version="1.0" encoding="UTF-8" standalone="no"?>
<svg
   xmlns:dc="http://purl.org/dc/elements/1.1/"
   xmlns:cc="http://creativecommons.org/ns#"
   xmlns:rdf="http://www.w3.org/1999/02/22-rdf-syntax-ns#"
   xmlns:svg="http://www.w3.org/2000/svg"
   xmlns="http://www.w3.org/2000/svg"
   xmlns:sodipodi="http://sodipodi.sourceforge.net/DTD/sodipodi-0.dtd"
   xmlns:inkscape="http://www.inkscape.org/namespaces/inkscape"
   width="24"
   height="24"
   id="svg9"
   version="1.1"
   sodipodi:docname="edit-image-face-add.svg"
   inkscape:version="0.92.4 (5da689c313, 2019-01-14)">
  <metadata
     id="metadata8">
    <rdf:RDF>
      <cc:Work
         rdf:about="">
        <dc:format>image/svg+xml</dc:format>
        <dc:type
           rdf:resource="http://purl.org/dc/dcmitype/StillImage" />
        <dc:title></dc:title>
      </cc:Work>
    </rdf:RDF>
  </metadata>
  <sodipodi:namedview
     pagecolor="#ffffff"
     bordercolor="#666666"
     borderopacity="1"
     objecttolerance="10"
     gridtolerance="10"
     guidetolerance="10"
     inkscape:pageopacity="0"
     inkscape:pageshadow="2"
     inkscape:window-width="1078"
     inkscape:window-height="480"
     id="namedview6"
     showgrid="false"
     inkscape:zoom="9.8333333"
     inkscape:cx="-0.81355932"
     inkscape:cy="12"
     inkscape:window-x="0"
     inkscape:window-y="28"
     inkscape:window-maximized="0"
     inkscape:current-layer="svg9" />
  <defs
     id="defs3">
    <style
       id="current-color-scheme" />
  </defs>
  <path
     d="m 10.3,2.44 a 4.38,4.38 0 1 0 0,8.76 4.38,4.38 0 0 0 0,-8.76 z m 0,11.7 c -8.61,0 -8.61,5.74 -8.61,5.74 v 1.44 h 14.36 c -0.8,-0.01 -1.44,-0.65 -1.44,-1.45 V 17 c 0,-0.79 0.64,-1.43 1.44,-1.43 h 0.22 C 14.99,14.75 13.11,14.13 10.3,14.13 Z m 7.6,0.8 v 2.21 h -2.2 v 2.2 h 2.2 v 2.21 h 2.2 v -2.2 h 2.21 v -2.21 h -2.2 v -2.2 z"
     id="path825"
     inkscape:connector-curvature="0"
     style="color:#dfdfdf;fill:#5beedc;stroke-width:1.46000004" />
</svg>
