<?xml version="1.0" encoding="UTF-8" standalone="no"?>
<svg
   xmlns:dc="http://purl.org/dc/elements/1.1/"
   xmlns:cc="http://creativecommons.org/ns#"
   xmlns:rdf="http://www.w3.org/1999/02/22-rdf-syntax-ns#"
   xmlns:svg="http://www.w3.org/2000/svg"
   xmlns="http://www.w3.org/2000/svg"
   xmlns:sodipodi="http://sodipodi.sourceforge.net/DTD/sodipodi-0.dtd"
   xmlns:inkscape="http://www.inkscape.org/namespaces/inkscape"
   viewBox="0 0 24 24"
   version="1.1"
   id="svg6"
   sodipodi:docname="document-print-preview.svg"
   inkscape:version="0.92.4 (5da689c313, 2019-01-14)">
  <metadata
     id="metadata12">
    <rdf:RDF>
      <cc:Work
         rdf:about="">
        <dc:format>image/svg+xml</dc:format>
        <dc:type
           rdf:resource="http://purl.org/dc/dcmitype/StillImage" />
        <dc:title></dc:title>
      </cc:Work>
    </rdf:RDF>
  </metadata>
  <defs
     id="defs10" />
  <sodipodi:namedview
     pagecolor="#ffffff"
     bordercolor="#666666"
     borderopacity="1"
     objecttolerance="10"
     gridtolerance="10"
     guidetolerance="10"
     inkscape:pageopacity="0"
     inkscape:pageshadow="2"
     inkscape:window-width="1078"
     inkscape:window-height="480"
     id="namedview8"
     showgrid="false"
     inkscape:zoom="9.8333333"
     inkscape:cx="-0.81355932"
     inkscape:cy="11.898305"
     inkscape:window-x="0"
     inkscape:window-y="28"
     inkscape:window-maximized="0"
     inkscape:current-layer="svg6" />
  <path
     d="m 5.22,0.61 a 0.1,0.1 0 0 0 -0.1,0.1 v 3.8 c 0,0.06 0.04,0.1 0.1,0.1 h 11.8 a 0.1,0.1 0 0 0 0.1,-0.1 V 0.72 a 0.1,0.1 0 0 0 -0.1,-0.1 z m -4,5.1 a 0.1,0.1 0 0 0 -0.1,0.1 v 8.7 c 0,0.06 0.04,0.1 0.1,0.1 h 4.01 v -0.56 h 9.09 a 2.98,2.97 0 0 1 2.92,-2.4 2.98,2.97 0 0 1 2.99,2.96 h 0.87 a 0.1,0.1 0 0 0 0.09,-0.1 v -8.7 a 0.1,0.1 0 0 0 -0.1,-0.1 z m 19,8.9 h -3.08 v 2.98 a 2.98,2.97 0 0 0 0.1,0 2.98,2.97 0 0 0 2.99,-2.96 2.98,2.97 0 0 0 0,-0.02 z m -3.08,2.98 a 2.98,2.97 0 0 1 -2.88,-2.96 2.98,2.97 0 0 1 0,-0.02 H 5.23 v 3.96 h 11.9 z m -2.88,-2.98 h 2.88 v -0.56 h -2.82 a 2.98,2.97 0 0 0 -0.06,0.56 z m 3.46,-7.58 a 1.39,1.39 0 0 1 1.39,1.39 1.39,1.39 0 0 1 -1.39,1.39 1.39,1.39 0 0 1 -1.38,-1.4 1.39,1.39 0 0 1 1.38,-1.38 z"
     id="path2"
     inkscape:connector-curvature="0"
     style="fill:#5beedc;paint-order:markers fill stroke" />
  <path
     stroke-miterlimit="1.5"
     d="m 18.83,17.27 0.09,-0.05 2.95,5.22 -0.09,0.05 z"
     id="path4"
     inkscape:connector-curvature="0"
     style="fill:#5beedc;stroke:#5beedc;stroke-width:1.51999998;stroke-linecap:square;stroke-miterlimit:1.5;paint-order:markers fill stroke" />
</svg>
