<?xml version="1.0" encoding="UTF-8" standalone="no"?>
<svg
   xmlns:dc="http://purl.org/dc/elements/1.1/"
   xmlns:cc="http://creativecommons.org/ns#"
   xmlns:rdf="http://www.w3.org/1999/02/22-rdf-syntax-ns#"
   xmlns:svg="http://www.w3.org/2000/svg"
   xmlns="http://www.w3.org/2000/svg"
   xmlns:sodipodi="http://sodipodi.sourceforge.net/DTD/sodipodi-0.dtd"
   xmlns:inkscape="http://www.inkscape.org/namespaces/inkscape"
   version="1"
   viewBox="0 0 24 24"
   id="svg4"
   sodipodi:docname="folder-copy.svg"
   inkscape:version="0.92.4 (5da689c313, 2019-01-14)">
  <metadata
     id="metadata10">
    <rdf:RDF>
      <cc:Work
         rdf:about="">
        <dc:format>image/svg+xml</dc:format>
        <dc:type
           rdf:resource="http://purl.org/dc/dcmitype/StillImage" />
        <dc:title></dc:title>
      </cc:Work>
    </rdf:RDF>
  </metadata>
  <defs
     id="defs8" />
  <sodipodi:namedview
     pagecolor="#ffffff"
     bordercolor="#666666"
     borderopacity="1"
     objecttolerance="10"
     gridtolerance="10"
     guidetolerance="10"
     inkscape:pageopacity="0"
     inkscape:pageshadow="2"
     inkscape:window-width="1078"
     inkscape:window-height="480"
     id="namedview6"
     showgrid="false"
     inkscape:zoom="9.8333333"
     inkscape:cx="-0.81355932"
     inkscape:cy="12"
     inkscape:window-x="0"
     inkscape:window-y="28"
     inkscape:window-maximized="0"
     inkscape:current-layer="svg4" />
  <path
     d="M 1.92,0.6 C 1.16,0.6 0.55,1.2 0.55,1.95 v 2.29 l 0.01,0.1 v 6.68 H 0.55 v 2.14 c 0,0.76 0.6,1.37 1.37,1.37 h 3.62 v 5.4 H 5.53 v 2.13 c 0,0.76 0.6,1.37 1.37,1.37 h 15.27 c 0.76,0 1.37,-0.61 1.37,-1.37 V 11.02 H 18.56 V 2.12 H 8.65 L 7.1,0.59 H 1.92 Z m 0.6,2.92 h 14.02 c 0.37,0 0.67,0.3 0.67,0.66 v 0.6 H 2.9 L 2.85,4.79 A 0.5,0.5 0 0 0 2.41,5.3 l 0.02,0.08 -0.01,0.1 v 2.37 c 0,0.39 0.23,0.7 0.53,0.7 0.3,0 0.55,-0.31 0.55,-0.7 V 5.83 h 13.7 v 5.19 H 13.61 L 12.1,9.49 H 6.9 a 1.37,1.37 0 0 0 -1.37,1.37 v 2.23 h -3 A 0.66,0.66 0 0 1 1.86,12.43 V 4.18 c 0,-0.36 0.3,-0.66 0.67,-0.66 z m 5.02,9.04 H 23.5 l 0.01,1.04 H 8.16 v 2.02 c 0,0.39 -0.25,0.7 -0.57,0.7 -0.32,0 -0.58,-0.31 -0.58,-0.7 v -2.37 l 0.02,-0.1 -0.02,-0.07 c 0,-0.27 0.2,-0.48 0.46,-0.51 l 0.07,-0.02 z"
     id="path2"
     inkscape:connector-curvature="0"
     style="fill:#5beedc" />
</svg>
