<?xml version="1.0" encoding="UTF-8" standalone="no"?>
<svg
   xmlns:dc="http://purl.org/dc/elements/1.1/"
   xmlns:cc="http://creativecommons.org/ns#"
   xmlns:rdf="http://www.w3.org/1999/02/22-rdf-syntax-ns#"
   xmlns:svg="http://www.w3.org/2000/svg"
   xmlns="http://www.w3.org/2000/svg"
   xmlns:sodipodi="http://sodipodi.sourceforge.net/DTD/sodipodi-0.dtd"
   xmlns:inkscape="http://www.inkscape.org/namespaces/inkscape"
   width="24"
   height="24"
   version="1.1"
   id="svg6"
   sodipodi:docname="color-fill.svg"
   inkscape:version="0.92.4 (5da689c313, 2019-01-14)">
  <metadata
     id="metadata12">
    <rdf:RDF>
      <cc:Work
         rdf:about="">
        <dc:format>image/svg+xml</dc:format>
        <dc:type
           rdf:resource="http://purl.org/dc/dcmitype/StillImage" />
        <dc:title></dc:title>
      </cc:Work>
    </rdf:RDF>
  </metadata>
  <defs
     id="defs10" />
  <sodipodi:namedview
     pagecolor="#ffffff"
     bordercolor="#666666"
     borderopacity="1"
     objecttolerance="10"
     gridtolerance="10"
     guidetolerance="10"
     inkscape:pageopacity="0"
     inkscape:pageshadow="2"
     inkscape:window-width="1078"
     inkscape:window-height="480"
     id="namedview8"
     showgrid="false"
     inkscape:zoom="9.8333333"
     inkscape:cx="-0.81355932"
     inkscape:cy="12"
     inkscape:window-x="0"
     inkscape:window-y="28"
     inkscape:window-maximized="0"
     inkscape:current-layer="svg6" />
  <path
     d="M 9.01,8.08 3.9,8.13 C 1.86,8.21 2,10.01 2,10.41 v 6.14 c -0.15,1.72 3.02,1.8 2.9,0.02 L 4.92,10.7 Z"
     id="path2"
     inkscape:connector-curvature="0"
     style="opacity:0.6;fill:#5beedc;fill-rule:evenodd" />
  <path
     d="m 15.71,1.26 c -1.85,-0.04 -3.7,0.91 -3.7,2.86 V 5.54 L 3.88,10.4 10.3,21.88 c 0.5,0.8 1.29,1.11 2.06,0.7 l 9.32,-5.56 c 0.7,-0.5 1.04,-1.43 0.58,-2.25 l -2.85,-5.1 v -5.4 c 0,-1.97 -1.85,-2.98 -3.7,-3.01 z m 0.05,1.05 c 1.32,0.03 2.65,0.92 2.65,2.65 v 2.9 L 15.83,3.27 13.12,4.89 V 4.83 c 0,-1.72 1.32,-2.55 2.64,-2.52 z m -3.13,7.48 h 0.02 a 2.07,2.1 87.07 0 1 1.86,1.04 2.07,2.1 87.07 0 1 -0.78,2.83 2.07,2.1 87.07 0 1 -2.87,-0.76 2.07,2.1 87.07 0 1 0.78,-2.84 2.07,2.1 87.07 0 1 1,-0.27 z"
     id="path4"
     inkscape:connector-curvature="0"
     style="fill:#5beedc;fill-rule:evenodd" />
</svg>
