<?xml version="1.0" encoding="UTF-8" standalone="no"?>
<svg
   xmlns:dc="http://purl.org/dc/elements/1.1/"
   xmlns:cc="http://creativecommons.org/ns#"
   xmlns:rdf="http://www.w3.org/1999/02/22-rdf-syntax-ns#"
   xmlns:svg="http://www.w3.org/2000/svg"
   xmlns="http://www.w3.org/2000/svg"
   xmlns:xlink="http://www.w3.org/1999/xlink"
   xmlns:sodipodi="http://sodipodi.sourceforge.net/DTD/sodipodi-0.dtd"
   xmlns:inkscape="http://www.inkscape.org/namespaces/inkscape"
   viewBox="0 0 24 24"
   version="1.1"
   id="svg10"
   sodipodi:docname="geany-build.svg"
   inkscape:version="0.92.4 (5da689c313, 2019-01-14)">
  <metadata
     id="metadata16">
    <rdf:RDF>
      <cc:Work
         rdf:about="">
        <dc:format>image/svg+xml</dc:format>
        <dc:type
           rdf:resource="http://purl.org/dc/dcmitype/StillImage" />
        <dc:title></dc:title>
      </cc:Work>
    </rdf:RDF>
  </metadata>
  <defs
     id="defs14" />
  <sodipodi:namedview
     pagecolor="#ffffff"
     bordercolor="#666666"
     borderopacity="1"
     objecttolerance="10"
     gridtolerance="10"
     guidetolerance="10"
     inkscape:pageopacity="0"
     inkscape:pageshadow="2"
     inkscape:window-width="1078"
     inkscape:window-height="480"
     id="namedview12"
     showgrid="false"
     inkscape:zoom="9.8333333"
     inkscape:cx="-0.81355932"
     inkscape:cy="11.898305"
     inkscape:window-x="0"
     inkscape:window-y="28"
     inkscape:window-maximized="0"
     inkscape:current-layer="svg10" />
  <path
     d="m 0.61,3.28 v 7.5 l 12.57,13 v 0.03 l 10.18,-5.64 v -7.53 l -10.18,4.78 v -0.06 z"
     id="path2"
     inkscape:connector-curvature="0"
     style="fill:#5beedc;stroke:#5beedc;stroke-width:0.49000001;stroke-linejoin:round" />
  <path
     d="m 10.54,0.4 c 0,0 -1.11,0.17 -0.85,0.8 C 9.95,1.84 9.07,2.15 7.88,2.63 5.56,3.54 4.5,3.71 2.6,2.93 1.9,2.65 0.6,3.26 0.6,3.26 l 12.61,12.15 10.14,-4.76 z"
     id="path4"
     inkscape:connector-curvature="0"
     style="fill:none;stroke:#5beedc;stroke-width:0.49000001;stroke-linejoin:round" />
  <path
     id="a"
     d="M 5.08,5.81 C 5.85,6.59 6.86,6.89 10.21,5.57 13.63,4.22 13.28,4.02 12.52,3.34 11.76,2.67 11.42,2.34 8.6,3.39 4.7,4.83 4.32,5.04 5.08,5.8 Z"
     inkscape:connector-curvature="0"
     style="fill:#5beedc" />
  <use
     id="b"
     width="48"
     height="48"
     transform="translate(3.59,3.01)"
     xlink:href="#a"
     style="fill:#5beedc"
     x="0"
     y="0" />
  <use
     width="48"
     height="48"
     transform="rotate(-2.95,77.55,-63.169995)"
     xlink:href="#b"
     id="use8"
     style="fill:#5beedc"
     x="0"
     y="0" />
</svg>
