<?xml version="1.0" encoding="UTF-8" standalone="no"?>
<svg
   xmlns:dc="http://purl.org/dc/elements/1.1/"
   xmlns:cc="http://creativecommons.org/ns#"
   xmlns:rdf="http://www.w3.org/1999/02/22-rdf-syntax-ns#"
   xmlns:svg="http://www.w3.org/2000/svg"
   xmlns="http://www.w3.org/2000/svg"
   xmlns:sodipodi="http://sodipodi.sourceforge.net/DTD/sodipodi-0.dtd"
   xmlns:inkscape="http://www.inkscape.org/namespaces/inkscape"
   viewBox="0 0 24 24"
   version="1.1"
   id="svg4"
   sodipodi:docname="geany-close-all.svg"
   inkscape:version="0.92.4 (5da689c313, 2019-01-14)">
  <metadata
     id="metadata10">
    <rdf:RDF>
      <cc:Work
         rdf:about="">
        <dc:format>image/svg+xml</dc:format>
        <dc:type
           rdf:resource="http://purl.org/dc/dcmitype/StillImage" />
        <dc:title></dc:title>
      </cc:Work>
    </rdf:RDF>
  </metadata>
  <defs
     id="defs8" />
  <sodipodi:namedview
     pagecolor="#ffffff"
     bordercolor="#666666"
     borderopacity="1"
     objecttolerance="10"
     gridtolerance="10"
     guidetolerance="10"
     inkscape:pageopacity="0"
     inkscape:pageshadow="2"
     inkscape:window-width="1078"
     inkscape:window-height="480"
     id="namedview6"
     showgrid="false"
     inkscape:zoom="9.8333333"
     inkscape:cx="-0.81355932"
     inkscape:cy="12"
     inkscape:window-x="0"
     inkscape:window-y="28"
     inkscape:window-maximized="0"
     inkscape:current-layer="svg4" />
  <path
     d="M 22.23,0.48 A 1.5,1.5 0 0 0 21.17,0.92 L 18.92,3.18 16.66,0.92 a 1.5,1.5 0 0 0 -2.12,0 1.5,1.5 0 0 0 0,2.13 L 16.8,5.3 14.54,7.55 a 1.5,1.5 0 0 0 0,2.13 1.5,1.5 0 0 0 2.12,0 l 2.26,-2.26 2.25,2.26 a 1.5,1.5 0 0 0 2.12,0 1.5,1.5 0 0 0 0,-2.13 L 21.04,5.3 23.29,3.05 a 1.5,1.5 0 0 0 0,-2.13 1.5,1.5 0 0 0 -1.06,-0.44 z M 3.31,4.91 a 0.79,0.79 0 0 0 -0.63,0.6 l -2.4,10.63 a 0.8,0.8 0 0 0 0.6,0.95 l 1.91,0.43 a 0.78,0.78 0 0 0 0.3,0.92 l 7.52,4.96 a 0.8,0.8 0 0 0 1.1,-0.22 l 5.99,-9.09 a 0.8,0.8 0 0 0 -0.23,-1.1 L 12.58,9.77 13.01,7.86 A 0.8,0.8 0 0 0 12.41,6.91 L 3.63,4.92 a 0.8,0.8 0 0 0 -0.32,0 z m 9.02,5.95 3.92,2.59 c 0.3,0.2 0.39,0.6 0.19,0.9 l -4.98,7.55 a 0.66,0.66 0 0 1 -0.9,0.18 L 4.3,17.96 A 0.65,0.65 0 0 1 4.15,17.82 l 5.51,1.24 a 0.8,0.8 0 0 0 0.95,-0.6 z"
     id="path2"
     inkscape:connector-curvature="0"
     style="fill:#5beedc" />
</svg>
