<?xml version="1.0" encoding="UTF-8" standalone="no"?>
<svg
   xmlns:dc="http://purl.org/dc/elements/1.1/"
   xmlns:cc="http://creativecommons.org/ns#"
   xmlns:rdf="http://www.w3.org/1999/02/22-rdf-syntax-ns#"
   xmlns:svg="http://www.w3.org/2000/svg"
   xmlns="http://www.w3.org/2000/svg"
   xmlns:sodipodi="http://sodipodi.sourceforge.net/DTD/sodipodi-0.dtd"
   xmlns:inkscape="http://www.inkscape.org/namespaces/inkscape"
   width="24"
   height="24"
   id="svg9"
   version="1.1"
   sodipodi:docname="go-parent-folder.svg"
   inkscape:version="0.92.4 (5da689c313, 2019-01-14)">
  <metadata
     id="metadata8">
    <rdf:RDF>
      <cc:Work
         rdf:about="">
        <dc:format>image/svg+xml</dc:format>
        <dc:type
           rdf:resource="http://purl.org/dc/dcmitype/StillImage" />
        <dc:title></dc:title>
      </cc:Work>
    </rdf:RDF>
  </metadata>
  <sodipodi:namedview
     pagecolor="#ffffff"
     bordercolor="#666666"
     borderopacity="1"
     objecttolerance="10"
     gridtolerance="10"
     guidetolerance="10"
     inkscape:pageopacity="0"
     inkscape:pageshadow="2"
     inkscape:window-width="1078"
     inkscape:window-height="480"
     id="namedview6"
     showgrid="false"
     inkscape:zoom="9.8333333"
     inkscape:cx="-0.81355932"
     inkscape:cy="12"
     inkscape:window-x="0"
     inkscape:window-y="28"
     inkscape:window-maximized="0"
     inkscape:current-layer="svg9" />
  <defs
     id="defs3">
    <style
       id="current-color-scheme" />
  </defs>
  <path
     d="M 3.52,4.25 A 1.52,1.52 0 0 0 2,5.77 v 2.54 l 0.02,0.11 v 7.42 H 2 v 2.39 c 0,0.85 0.68,1.52 1.52,1.52 H 20.5 A 1.52,1.52 0 0 0 22,18.23 V 5.95 H 11 L 9.3,4.25 Z m 0.7,3.4 H 21.98 V 8.82 H 4.92 v 2.25 c 0,0.42 -0.28,0.77 -0.64,0.77 -0.35,0 -0.63,-0.35 -0.63,-0.77 V 8.43 L 3.67,8.33 3.65,8.24 c 0,-0.3 0.22,-0.53 0.5,-0.57 L 4.23,7.66 V 7.65 Z m 12.81,2.29 4.82,4.81 -1.6,1.6 -1.61,-1.6 v 4.81 h -3.21 v -4.81 l -1.6,1.6 -1.61,-1.6 z"
     id="path882"
     inkscape:connector-curvature="0"
     style="fill:#5beedc" />
</svg>
