<?xml version="1.0" encoding="UTF-8" standalone="no"?>
<svg
   xmlns:dc="http://purl.org/dc/elements/1.1/"
   xmlns:cc="http://creativecommons.org/ns#"
   xmlns:rdf="http://www.w3.org/1999/02/22-rdf-syntax-ns#"
   xmlns:svg="http://www.w3.org/2000/svg"
   xmlns="http://www.w3.org/2000/svg"
   xmlns:sodipodi="http://sodipodi.sourceforge.net/DTD/sodipodi-0.dtd"
   xmlns:inkscape="http://www.inkscape.org/namespaces/inkscape"
   width="24"
   height="24"
   version="1.1"
   id="svg4"
   sodipodi:docname="tag-new.svg"
   inkscape:version="0.92.4 (5da689c313, 2019-01-14)">
  <metadata
     id="metadata10">
    <rdf:RDF>
      <cc:Work
         rdf:about="">
        <dc:format>image/svg+xml</dc:format>
        <dc:type
           rdf:resource="http://purl.org/dc/dcmitype/StillImage" />
        <dc:title></dc:title>
      </cc:Work>
    </rdf:RDF>
  </metadata>
  <defs
     id="defs8" />
  <sodipodi:namedview
     pagecolor="#ffffff"
     bordercolor="#666666"
     borderopacity="1"
     objecttolerance="10"
     gridtolerance="10"
     guidetolerance="10"
     inkscape:pageopacity="0"
     inkscape:pageshadow="2"
     inkscape:window-width="1078"
     inkscape:window-height="480"
     id="namedview6"
     showgrid="false"
     inkscape:zoom="9.8333333"
     inkscape:cx="-0.81355932"
     inkscape:cy="12"
     inkscape:window-x="0"
     inkscape:window-y="28"
     inkscape:window-maximized="0"
     inkscape:current-layer="svg4" />
  <path
     d="m 12,1.63 c -0.5,0 -0.98,0.19 -1.35,0.56 L 5.9,6.93 A 1.89,1.89 0 0 0 5.34,8.28 v 12.18 a 1.91,1.91 0 0 0 1.91,1.9 h 9.47 c 0.5,0 0.98,-0.18 1.36,-0.55 a 1.91,1.91 0 0 0 0.56,-1.36 V 8.28 C 18.64,7.79 18.45,7.3 18.08,6.93 L 13.34,2.19 A 1.9,1.9 0 0 0 12,1.63 Z m 0,2.5 c 0.36,0 0.73,0.15 1.01,0.43 a 1.43,1.43 0 0 1 0,2.03 1.43,1.43 0 0 1 -2.03,0 1.43,1.43 0 0 1 0,-2.03 A 1.43,1.43 0 0 1 12,4.14 Z m -0.96,6.04 h 1.92 v 2.87 h 2.87 v 1.92 h -2.87 v 2.87 H 11.04 V 14.96 H 8.17 v -1.92 h 2.87 z"
     id="path2"
     inkscape:connector-curvature="0"
     style="fill:#5beedc" />
</svg>
