<?xml version="1.0" encoding="UTF-8" standalone="no"?>
<svg
   xmlns:dc="http://purl.org/dc/elements/1.1/"
   xmlns:cc="http://creativecommons.org/ns#"
   xmlns:rdf="http://www.w3.org/1999/02/22-rdf-syntax-ns#"
   xmlns:svg="http://www.w3.org/2000/svg"
   xmlns="http://www.w3.org/2000/svg"
   xmlns:sodipodi="http://sodipodi.sourceforge.net/DTD/sodipodi-0.dtd"
   xmlns:inkscape="http://www.inkscape.org/namespaces/inkscape"
   width="24"
   height="24"
   viewBox="0 0 6.35 6.35"
   version="1.1"
   id="svg4"
   sodipodi:docname="system-run.svg"
   inkscape:version="0.92.4 (5da689c313, 2019-01-14)">
  <metadata
     id="metadata10">
    <rdf:RDF>
      <cc:Work
         rdf:about="">
        <dc:format>image/svg+xml</dc:format>
        <dc:type
           rdf:resource="http://purl.org/dc/dcmitype/StillImage" />
        <dc:title></dc:title>
      </cc:Work>
    </rdf:RDF>
  </metadata>
  <defs
     id="defs8" />
  <sodipodi:namedview
     pagecolor="#ffffff"
     bordercolor="#666666"
     borderopacity="1"
     objecttolerance="10"
     gridtolerance="10"
     guidetolerance="10"
     inkscape:pageopacity="0"
     inkscape:pageshadow="2"
     inkscape:window-width="1078"
     inkscape:window-height="480"
     id="namedview6"
     showgrid="false"
     inkscape:zoom="9.8333333"
     inkscape:cx="-0.81355932"
     inkscape:cy="12"
     inkscape:window-x="0"
     inkscape:window-y="28"
     inkscape:window-maximized="0"
     inkscape:current-layer="svg4" />
  <path
     d="M 3.1704213,0.30416135 A 2.8658393,2.8658393 0 0 0 0.30458199,3.1791567 2.8658393,2.8658393 0 0 0 3.1704213,6.03584 2.8658393,2.8658393 0 0 0 6.0454167,3.1700007 2.8658393,2.8658393 0 0 0 3.1795773,0.30416135 Z m 0,0.4303337 A 2.4721298,2.4721298 0 0 1 5.633395,3.2066248 2.4721298,2.4721298 0 0 1 3.1612653,5.6695985 2.4721298,2.4721298 0 0 1 0.70744758,3.1974688 2.4721298,2.4721298 0 0 1 3.1704213,0.72533902 Z m 0,0.27468105 H 2.9689885 L 2.840804,1.6592547 a 1.5565261,1.5565261 0 0 0 -0.2929932,0.09156 L 2.071697,1.3021693 a 2.1516685,2.1516685 0 0 0 -0.3296173,0.256369 l 0.274681,0.5859863 A 1.5748382,1.5748382 0 0 0 1.83364,2.4008936 L 1.1927175,2.3093333 A 2.1425125,2.1425125 0 0 0 1.055377,2.7121989 l 0.5859863,0.3021492 a 1.5015899,1.5015899 0 0 0 -0.00916,0.1556526 L 1.6413633,3.3164973 1.064533,3.6278025 C 1.101157,3.765143 1.137781,3.9024836 1.1927175,4.0306681 l 0.6500786,-0.09156 c 0.054936,0.09156 0.1190284,0.1831207 0.1831207,0.256369 l -0.2746811,0.595142 c 0.1007164,0.09156 0.2014328,0.1831207 0.3296173,0.247213 L 2.5569669,4.5800302 c 0.09156,0.04578 0.1922767,0.073248 0.2929931,0.09156 l 0.1281845,0.6592346 a 2.2066047,2.2066047 0 0 0 0.4120217,0 L 3.5091946,4.6807466 a 1.529058,1.529058 0 0 0 0.3021492,-0.09156 L 4.2874577,5.0378321 C 4.4064862,4.9645838 4.5163586,4.8821794 4.617075,4.7906191 L 4.3423939,4.1954767 a 1.5839943,1.5839943 0 0 0 0.1831208,-0.256369 l 0.6409225,0.09156 A 2.1425125,2.1425125 0 0 0 5.2946217,3.6278025 L 4.7269475,3.3164973 4.7361035,3.1608446 4.7177914,3.0143481 5.2854657,2.7121989 A 2.1425125,2.1425125 0 0 0 5.1664372,2.3093333 l -0.6500786,0.09156 A 1.5748382,1.5748382 0 0 0 4.3332379,2.1445246 L 4.607919,1.5585383 A 2.1516685,2.1516685 0 0 0 4.2783017,1.3021693 L 3.8021878,1.7599711 A 1.5565261,1.5565261 0 0 0 3.5000386,1.6684107 L 3.3810101,1.0000201 a 2.2066047,2.2066047 0 0 0 -0.2105888,0 z m 0,1.2360649 a 0.93391569,0.93391569 0 0 1 0,1.8586754 0.93391569,0.93391569 0 0 1 0,-1.8586754 z"
     id="path2"
     inkscape:connector-curvature="0"
     style="fill:#5beedc;stroke-width:0.91560364" />
</svg>
