<?xml version="1.0" encoding="UTF-8" standalone="no"?>
<svg
   xmlns:dc="http://purl.org/dc/elements/1.1/"
   xmlns:cc="http://creativecommons.org/ns#"
   xmlns:rdf="http://www.w3.org/1999/02/22-rdf-syntax-ns#"
   xmlns:svg="http://www.w3.org/2000/svg"
   xmlns="http://www.w3.org/2000/svg"
   xmlns:sodipodi="http://sodipodi.sourceforge.net/DTD/sodipodi-0.dtd"
   xmlns:inkscape="http://www.inkscape.org/namespaces/inkscape"
   version="1"
   viewBox="0 0 24 24"
   id="svg4"
   sodipodi:docname="document-open.svg"
   inkscape:version="0.92.4 (5da689c313, 2019-01-14)">
  <metadata
     id="metadata10">
    <rdf:RDF>
      <cc:Work
         rdf:about="">
        <dc:format>image/svg+xml</dc:format>
        <dc:type
           rdf:resource="http://purl.org/dc/dcmitype/StillImage" />
        <dc:title></dc:title>
      </cc:Work>
    </rdf:RDF>
  </metadata>
  <defs
     id="defs8" />
  <sodipodi:namedview
     pagecolor="#ffffff"
     bordercolor="#666666"
     borderopacity="1"
     objecttolerance="10"
     gridtolerance="10"
     guidetolerance="10"
     inkscape:pageopacity="0"
     inkscape:pageshadow="2"
     inkscape:window-width="1078"
     inkscape:window-height="480"
     id="namedview6"
     showgrid="false"
     inkscape:zoom="9.8333333"
     inkscape:cx="-0.81355932"
     inkscape:cy="12"
     inkscape:window-x="0"
     inkscape:window-y="28"
     inkscape:window-maximized="0"
     inkscape:current-layer="svg4" />
  <path
     d="M 6.708,3.563 V 5.268 H 0.995 v 2.59 l 0.01,0.12 v 8.17 h -0.01 v 2.62 a 1.67,1.67 0 0 0 1.67,1.67 h 18.66 c 0.93,0 1.68,-0.75 1.68,-1.67 V 5.248 H 20.362 V 3.563 Z m 1.414,1.455 h 10.734 v 3.5 H 9.015 V 8.508 H 8.122 Z m -4.719,1.95 h 3.305 v 1.54 H 3.884 l -0.08,0.02 a 0.62,0.62 0 0 0 -0.52,0.62 l 0.02,0.1 -0.02,0.12 v 2.9 c 0,0.47 0.29,0.85 0.66,0.85 0.36,0 0.66,-0.38 0.66,-0.86 v -2.47 h 16.74 v 8.07 a 0.8,0.8 0 0 1 -0.8,0.8 H 3.394 a 0.8,0.8 0 0 1 -0.809,-0.8 V 7.777 a 0.8,0.8 0 0 1 0.799,-0.8 z m 16.96,0 h 0.18 c 0.44,0 0.802,0.36 0.802,0.81 v 0.73 h -0.983 z"
     id="path2"
     inkscape:connector-curvature="0"
     style="fill:#5beedc" />
</svg>
