<?xml version="1.0" encoding="UTF-8" standalone="no"?>
<svg
   xmlns:dc="http://purl.org/dc/elements/1.1/"
   xmlns:cc="http://creativecommons.org/ns#"
   xmlns:rdf="http://www.w3.org/1999/02/22-rdf-syntax-ns#"
   xmlns:svg="http://www.w3.org/2000/svg"
   xmlns="http://www.w3.org/2000/svg"
   xmlns:sodipodi="http://sodipodi.sourceforge.net/DTD/sodipodi-0.dtd"
   xmlns:inkscape="http://www.inkscape.org/namespaces/inkscape"
   width="24"
   height="24"
   version="1.1"
   id="svg7"
   sodipodi:docname="im-google.svg"
   inkscape:version="0.92.4 (5da689c313, 2019-01-14)">
  <metadata
     id="metadata11">
    <rdf:RDF>
      <cc:Work
         rdf:about="">
        <dc:format>image/svg+xml</dc:format>
        <dc:type
           rdf:resource="http://purl.org/dc/dcmitype/StillImage" />
        <dc:title></dc:title>
      </cc:Work>
    </rdf:RDF>
  </metadata>
  <sodipodi:namedview
     pagecolor="#ffffff"
     bordercolor="#666666"
     borderopacity="1"
     objecttolerance="10"
     gridtolerance="10"
     guidetolerance="10"
     inkscape:pageopacity="0"
     inkscape:pageshadow="2"
     inkscape:window-width="1078"
     inkscape:window-height="480"
     id="namedview9"
     showgrid="false"
     inkscape:zoom="9.8333333"
     inkscape:cx="-0.81355932"
     inkscape:cy="12"
     inkscape:window-x="0"
     inkscape:window-y="28"
     inkscape:window-maximized="0"
     inkscape:current-layer="svg7" />
  <defs
     id="defs3">
    <style
       id="current-color-scheme" />
  </defs>
  <path
     d="m 12.78,5 c -0.5,0 -1.03,0.06 -1.6,0.18 -0.57,0.13 -1.11,0.4 -1.63,0.83 A 3.4,3.4 0 0 0 8.4,8.47 3.01,3.01 0 0 0 9.17,10.46 c 0.26,0.27 0.57,0.49 0.94,0.66 0.37,0.16 0.8,0.24 1.28,0.24 h 0.29 l 0.29,-0.04 c -0.05,0.1 -0.1,0.22 -0.13,0.33 -0.03,0.1 -0.05,0.23 -0.05,0.39 0,0.28 0.05,0.52 0.16,0.71 0.12,0.19 0.25,0.36 0.38,0.54 -0.2,0 -0.45,0.03 -0.72,0.05 a 8.8,8.8 0 0 0 -1.84,0.37 c -0.31,0.1 -0.6,0.25 -0.89,0.42 A 2.64,2.64 0 0 0 7.5,16.37 c 0,0.34 0.07,0.67 0.23,0.98 0.16,0.31 0.4,0.6 0.72,0.84 0.32,0.25 0.73,0.44 1.21,0.59 0.5,0.15 1.06,0.22 1.71,0.22 0.77,0 1.45,-0.1 2.04,-0.31 0.6,-0.2 1.1,-0.46 1.5,-0.8 0.4,-0.31 0.7,-0.68 0.9,-1.1 a 2.86,2.86 0 0 0 0.18,-2.1 2.89,2.89 0 0 0 -0.83,-1.21 L 14.6,12.96 13.95,12.44 c -0.1,-0.08 -0.2,-0.18 -0.3,-0.3 a 0.72,0.72 0 0 1 -0.17,-0.49 0.8,0.8 0 0 1 0.16,-0.51 c 0.11,-0.14 0.23,-0.27 0.35,-0.39 0.2,-0.14 0.38,-0.3 0.56,-0.46 0.18,-0.17 0.34,-0.35 0.48,-0.55 A 2.62,2.62 0 0 0 15.5,8.14 2.74,2.74 0 0 0 15.02,6.53 4.72,4.72 0 0 0 14.22,5.67 V 5.66 h 1.12 L 16.5,5 Z m -1.14,0.6 c 0.38,0 0.7,0.12 0.98,0.36 0.29,0.22 0.53,0.5 0.72,0.84 a 4.56,4.56 0 0 1 0.58,2.18 c 0,0.18 -0.03,0.4 -0.08,0.65 -0.04,0.26 -0.17,0.49 -0.38,0.7 -0.14,0.14 -0.33,0.27 -0.55,0.36 A 1.62,1.62 0 0 1 11.24,10.51 3.17,3.17 0 0 1 10.53,9.67 4.5,4.5 0 0 1 9.99,7.57 c 0,-0.24 0.02,-0.48 0.07,-0.71 0.06,-0.24 0.17,-0.45 0.32,-0.65 0.15,-0.18 0.33,-0.33 0.56,-0.44 0.23,-0.1 0.46,-0.16 0.7,-0.16 z m 0.64,8.2 h 0.47 c 0.06,0 0.12,0 0.2,0.02 l 0.88,0.66 c 0.25,0.2 0.46,0.38 0.61,0.57 0.16,0.18 0.27,0.37 0.35,0.55 0.08,0.2 0.12,0.4 0.12,0.64 0,0.58 -0.23,1.05 -0.68,1.41 -0.45,0.39 -1.1,0.57 -1.97,0.57 A 3.9,3.9 0 0 1 9.93,17.6 1.92,1.92 0 0 1 9.09,15.98 c 0,-0.33 0.06,-0.6 0.18,-0.82 a 2.28,2.28 0 0 1 0.95,-0.9 l 0.42,-0.17 a 7.73,7.73 0 0 1 1.17,-0.26 c 0.18,0 0.34,-0.02 0.47,-0.03 z"
     id="path5"
     inkscape:connector-curvature="0"
     style="color:#5beedc;fill:#5beedc" />
</svg>
