<?xml version="1.0" encoding="UTF-8" standalone="no"?>
<svg
   xmlns:dc="http://purl.org/dc/elements/1.1/"
   xmlns:cc="http://creativecommons.org/ns#"
   xmlns:rdf="http://www.w3.org/1999/02/22-rdf-syntax-ns#"
   xmlns:svg="http://www.w3.org/2000/svg"
   xmlns="http://www.w3.org/2000/svg"
   xmlns:sodipodi="http://sodipodi.sourceforge.net/DTD/sodipodi-0.dtd"
   xmlns:inkscape="http://www.inkscape.org/namespaces/inkscape"
   width="24"
   height="24"
   version="1.1"
   id="svg10"
   sodipodi:docname="im-icq.svg"
   inkscape:version="0.92.4 (5da689c313, 2019-01-14)">
  <metadata
     id="metadata14">
    <rdf:RDF>
      <cc:Work
         rdf:about="">
        <dc:format>image/svg+xml</dc:format>
        <dc:type
           rdf:resource="http://purl.org/dc/dcmitype/StillImage" />
        <dc:title></dc:title>
      </cc:Work>
    </rdf:RDF>
  </metadata>
  <sodipodi:namedview
     pagecolor="#ffffff"
     bordercolor="#666666"
     borderopacity="1"
     objecttolerance="10"
     gridtolerance="10"
     guidetolerance="10"
     inkscape:pageopacity="0"
     inkscape:pageshadow="2"
     inkscape:window-width="1078"
     inkscape:window-height="480"
     id="namedview12"
     showgrid="false"
     inkscape:zoom="9.8333333"
     inkscape:cx="-0.81355932"
     inkscape:cy="12"
     inkscape:window-x="0"
     inkscape:window-y="28"
     inkscape:window-maximized="0"
     inkscape:current-layer="svg10" />
  <defs
     id="defs3">
    <style
       id="current-color-scheme">.ColorScheme-Text{color:#5beedc}</style>
  </defs>
  <g
     id="layer12">
    <path
       class="ColorScheme-Text"
       d="M 8,1 C 7.05,1 6.26,2 6.06,3.31 4.97,2.52 3.72,2.38 3.06,3.05 2.38,3.72 2.52,4.98 3.31,6.06 1.98,6.26 1,7.06 1,8 c 0,0.94 0.98,1.74 2.31,1.95 -0.79,1.08 -0.93,2.33 -0.26,3 0.67,0.67 1.92,0.53 3,-0.26 A 4.43,4.43 0 0 1 6,12 6.2,6.2 0 0 1 7.1,9.8 2,2 0 0 1 6.59,9.43 a 2,2 0 0 1 0,-2.83 2,2 0 0 1 2.82,0 2,2 0 0 1 0,2.83 A 2,2 0 0 1 8.91,9.8 6.2,6.2 0 0 1 10,12 c 0,0.24 -0.02,0.47 -0.06,0.7 1.09,0.78 2.34,0.92 3,0.25 0.68,-0.67 0.54,-1.92 -0.25,-3 1.32,-0.21 2.3,-1 2.3,-1.95 0,-0.95 -0.98,-1.73 -2.3,-1.94 0.79,-1.08 0.93,-2.34 0.26,-3 C 12.28,2.38 11.03,2.52 9.95,3.31 9.74,1.99 8.95,1.01 8,1.01 Z m 1.72,12.52 -0.04,0.1 z m -2.77,1.02 v 0.02 l 0.17,0.13 H 7.14 C 7.07,14.65 7.01,14.6 6.94,14.54 Z m 2.09,0.02 -0.18,0.14 0.02,-0.01 z m -1.77,0.23 h 0.01 l 0.2,0.1 a 1.54,1.54 0 0 1 -0.21,-0.1 z m 1.46,0 -0.2,0.1 0.19,-0.1 z"
       transform="rotate(30,2.08,17.2)"
       id="path5"
       inkscape:connector-curvature="0"
       style="color:#5beedc;fill:#5beedc" />
    <path
       class="ColorScheme-Text"
       d="M 7.1,9.78 A 6.2,6.2 0 0 0 6,12 c 0,1.67 0.9,3 2,3 1.1,0 2,-1.33 2,-3 A 6.2,6.2 0 0 0 8.9,9.8 2,2 0 0 1 8,10 2,2 0 0 1 7.1,9.78 Z"
       transform="rotate(30,2.08,17.2)"
       id="path7"
       inkscape:connector-curvature="0"
       style="color:#5beedc;opacity:0.3;fill:#5beedc" />
  </g>
</svg>
