<?xml version="1.0" encoding="UTF-8" standalone="no"?>
<svg
   xmlns:dc="http://purl.org/dc/elements/1.1/"
   xmlns:cc="http://creativecommons.org/ns#"
   xmlns:rdf="http://www.w3.org/1999/02/22-rdf-syntax-ns#"
   xmlns:svg="http://www.w3.org/2000/svg"
   xmlns="http://www.w3.org/2000/svg"
   xmlns:sodipodi="http://sodipodi.sourceforge.net/DTD/sodipodi-0.dtd"
   xmlns:inkscape="http://www.inkscape.org/namespaces/inkscape"
   width="24"
   height="24"
   version="1.1"
   id="svg7"
   sodipodi:docname="im-skype.svg"
   inkscape:version="0.92.4 (5da689c313, 2019-01-14)">
  <metadata
     id="metadata11">
    <rdf:RDF>
      <cc:Work
         rdf:about="">
        <dc:format>image/svg+xml</dc:format>
        <dc:type
           rdf:resource="http://purl.org/dc/dcmitype/StillImage" />
        <dc:title></dc:title>
      </cc:Work>
    </rdf:RDF>
  </metadata>
  <sodipodi:namedview
     pagecolor="#ffffff"
     bordercolor="#666666"
     borderopacity="1"
     objecttolerance="10"
     gridtolerance="10"
     guidetolerance="10"
     inkscape:pageopacity="0"
     inkscape:pageshadow="2"
     inkscape:window-width="1078"
     inkscape:window-height="480"
     id="namedview9"
     showgrid="false"
     inkscape:zoom="9.8333333"
     inkscape:cx="-0.81355932"
     inkscape:cy="12"
     inkscape:window-x="0"
     inkscape:window-y="28"
     inkscape:window-maximized="0"
     inkscape:current-layer="svg7" />
  <defs
     id="defs3">
    <style
       id="current-color-scheme" />
  </defs>
  <path
     d="M 8.3310913,4.2747828 A 3.7761376,3.7761376 0 0 0 5.3236674,5.3267068 C 3.9076157,6.769731 3.9480743,9.1702756 5.3371536,10.990914 a 6.743103,6.743103 0 0 0 7.6871384,7.687136 c 1.80715,1.375594 4.207696,1.429538 5.65072,0 1.429538,-1.443024 1.375592,-3.843568 -0.01348,-5.664206 A 6.743103,6.743103 0 0 0 10.974388,5.3267068 C 10.165216,4.7198276 9.2346671,4.3422138 8.3310913,4.2747828 Z M 11.864478,7.956517 c 2.049902,0 3.101826,1.0519242 3.101826,1.6722896 0,0.6203654 -0.296696,0.7147694 -0.809172,0.7147694 -0.971006,0 -0.56642,-1.146328 -2.400544,-1.146328 -0.593394,0 -1.34862,0.2697242 -1.34862,0.95752 0,0.552936 0.67431,0.755228 1.84761,1.038438 1.780178,0.472018 3.115312,0.944034 3.115312,2.535408 0,1.537426 -1.294674,2.319626 -3.344578,2.319626 -2.0364178,0 -3.3445794,-1.200272 -3.3445794,-1.80715 0,-0.620366 0.2292656,-0.7822 0.7417414,-0.7822 0.971006,0 0.836144,1.308162 2.670268,1.308162 0.60688,0 1.510456,-0.269726 1.510456,-0.971008 0,-0.539448 -0.05394,-0.741742 -1.34862,-1.078896 -1.38908,-0.188808 -3.6277902,-0.620366 -3.6277902,-2.306142 0,-1.5509132 1.2002722,-2.454489 3.2366902,-2.454489 z"
     id="path5"
     inkscape:connector-curvature="0"
     style="color:#5beedc;fill:#5beedc;stroke-width:1.34862065" />
</svg>
