<?xml version="1.0" encoding="UTF-8" standalone="no"?>
<svg
   xmlns:dc="http://purl.org/dc/elements/1.1/"
   xmlns:cc="http://creativecommons.org/ns#"
   xmlns:rdf="http://www.w3.org/1999/02/22-rdf-syntax-ns#"
   xmlns:svg="http://www.w3.org/2000/svg"
   xmlns="http://www.w3.org/2000/svg"
   xmlns:sodipodi="http://sodipodi.sourceforge.net/DTD/sodipodi-0.dtd"
   xmlns:inkscape="http://www.inkscape.org/namespaces/inkscape"
   width="24"
   height="24"
   version="1.1"
   id="svg7"
   sodipodi:docname="im-twitter.svg"
   inkscape:version="0.92.4 (5da689c313, 2019-01-14)">
  <metadata
     id="metadata11">
    <rdf:RDF>
      <cc:Work
         rdf:about="">
        <dc:format>image/svg+xml</dc:format>
        <dc:type
           rdf:resource="http://purl.org/dc/dcmitype/StillImage" />
        <dc:title></dc:title>
      </cc:Work>
    </rdf:RDF>
  </metadata>
  <sodipodi:namedview
     pagecolor="#ffffff"
     bordercolor="#666666"
     borderopacity="1"
     objecttolerance="10"
     gridtolerance="10"
     guidetolerance="10"
     inkscape:pageopacity="0"
     inkscape:pageshadow="2"
     inkscape:window-width="1078"
     inkscape:window-height="480"
     id="namedview9"
     showgrid="false"
     inkscape:zoom="9.8333333"
     inkscape:cx="-0.81355932"
     inkscape:cy="12"
     inkscape:window-x="0"
     inkscape:window-y="28"
     inkscape:window-maximized="0"
     inkscape:current-layer="svg7" />
  <defs
     id="defs3">
    <style
       id="current-color-scheme" />
  </defs>
  <path
     d="m 15.08,5 c -1.81,0 -3.29,1.58 -3.29,3.53 0,0.28 0.03,0.55 0.1,0.81 A 9.12,9.12 0 0 1 5.11,5.64 3.73,3.73 0 0 0 6.13,10.37 3.1,3.1 0 0 1 4.64,9.92 V 9.97 A 3.48,3.48 0 0 0 7.28,13.43 3.07,3.07 0 0 1 5.79,13.49 3.33,3.33 0 0 0 8.86,15.95 6.3,6.3 0 0 1 4,17.4 8.81,8.81 0 0 0 9.03,19 c 6.04,0 9.34,-5.39 9.34,-10.06 V 8.5 C 19,8 19.56,7.38 20,6.67 a 6.2,6.2 0 0 1 -1.88,0.55 3.51,3.51 0 0 0 1.44,-1.95 c -0.64,0.4 -1.34,0.7 -2.09,0.86 A 3.17,3.17 0 0 0 15.07,5 Z"
     id="path5"
     inkscape:connector-curvature="0"
     style="color:#5beedc;fill:#5beedc" />
</svg>
