<?xml version="1.0" encoding="UTF-8" standalone="no"?>
<svg
   xmlns:dc="http://purl.org/dc/elements/1.1/"
   xmlns:cc="http://creativecommons.org/ns#"
   xmlns:rdf="http://www.w3.org/1999/02/22-rdf-syntax-ns#"
   xmlns:svg="http://www.w3.org/2000/svg"
   xmlns="http://www.w3.org/2000/svg"
   xmlns:sodipodi="http://sodipodi.sourceforge.net/DTD/sodipodi-0.dtd"
   xmlns:inkscape="http://www.inkscape.org/namespaces/inkscape"
   width="24"
   height="24"
   version="1.1"
   id="svg4"
   sodipodi:docname="insert-object.svg"
   inkscape:version="0.92.4 (5da689c313, 2019-01-14)">
  <metadata
     id="metadata10">
    <rdf:RDF>
      <cc:Work
         rdf:about="">
        <dc:format>image/svg+xml</dc:format>
        <dc:type
           rdf:resource="http://purl.org/dc/dcmitype/StillImage" />
        <dc:title></dc:title>
      </cc:Work>
    </rdf:RDF>
  </metadata>
  <defs
     id="defs8" />
  <sodipodi:namedview
     pagecolor="#ffffff"
     bordercolor="#666666"
     borderopacity="1"
     objecttolerance="10"
     gridtolerance="10"
     guidetolerance="10"
     inkscape:pageopacity="0"
     inkscape:pageshadow="2"
     inkscape:window-width="1078"
     inkscape:window-height="480"
     id="namedview6"
     showgrid="false"
     inkscape:zoom="9.8333333"
     inkscape:cx="-0.81355932"
     inkscape:cy="12"
     inkscape:window-x="0"
     inkscape:window-y="28"
     inkscape:window-maximized="0"
     inkscape:current-layer="svg4" />
  <path
     d="M 12,0.76 5.18,5.05 v 6.43 L 12,15.77 18.82,11.48 V 5.05 Z m 0,2.1 4.97,3.12 L 12,8.95 7.03,5.98 Z m -3.5,13.7 a 1.08,1.08 0 0 0 -0.77,0.32 l -0.48,0.49 a 1.08,1.08 0 0 0 0,1.53 l 3.53,3.53 0.5,0.49 a 1.08,1.08 0 0 0 1.52,0 l 0.49,-0.5 3.53,-3.52 a 1.08,1.08 0 0 0 0,-1.53 l -0.48,-0.49 a 1.08,1.08 0 0 0 -1.53,0 L 12.04,19.66 9.26,16.88 A 1.07,1.07 0 0 0 8.5,16.57 Z"
     id="path2"
     inkscape:connector-curvature="0"
     style="fill:#5beedc;paint-order:markers fill stroke" />
</svg>
