<?xml version="1.0" encoding="UTF-8" standalone="no"?>
<svg
   xmlns:dc="http://purl.org/dc/elements/1.1/"
   xmlns:cc="http://creativecommons.org/ns#"
   xmlns:rdf="http://www.w3.org/1999/02/22-rdf-syntax-ns#"
   xmlns:svg="http://www.w3.org/2000/svg"
   xmlns="http://www.w3.org/2000/svg"
   xmlns:sodipodi="http://sodipodi.sourceforge.net/DTD/sodipodi-0.dtd"
   xmlns:inkscape="http://www.inkscape.org/namespaces/inkscape"
   width="24"
   height="24"
   id="svg7"
   version="1.1"
   sodipodi:docname="irc-remove-operator.svg"
   inkscape:version="0.92.4 (5da689c313, 2019-01-14)">
  <metadata
     id="metadata8">
    <rdf:RDF>
      <cc:Work
         rdf:about="">
        <dc:format>image/svg+xml</dc:format>
        <dc:type
           rdf:resource="http://purl.org/dc/dcmitype/StillImage" />
        <dc:title></dc:title>
      </cc:Work>
    </rdf:RDF>
  </metadata>
  <sodipodi:namedview
     pagecolor="#ffffff"
     bordercolor="#666666"
     borderopacity="1"
     objecttolerance="10"
     gridtolerance="10"
     guidetolerance="10"
     inkscape:pageopacity="0"
     inkscape:pageshadow="2"
     inkscape:window-width="1078"
     inkscape:window-height="480"
     id="namedview6"
     showgrid="false"
     inkscape:zoom="9.8333333"
     inkscape:cx="-0.81355932"
     inkscape:cy="12"
     inkscape:window-x="0"
     inkscape:window-y="28"
     inkscape:window-maximized="0"
     inkscape:current-layer="svg7" />
  <defs
     id="defs3">
    <style
       id="current-color-scheme" />
  </defs>
  <path
     d="M 6,4 A 2,2 0 0 0 4,6 v 12 c 0,1.1 0.9,2 2,2 h 12 a 2,2 0 0 0 2,-2 V 6 A 2,2 0 0 0 18,4 Z m 1.71,2 h 8.58 C 17.24,6 18,6.77 18,7.71 v 8.58 C 18,17.24 17.24,18 16.29,18 H 7.7 C 6.77,18 6,17.24 6,16.29 V 7.7 C 6,6.77 6.77,6 7.71,6 Z m 3.03,1 -0.11,1.32 A 3.96,3.93 0 0 0 9.47,8.98 L 8.27,8.42 7,10.58 8.1,11.34 A 3.96,3.93 0 0 0 8.04,12 3.96,3.93 0 0 0 8.1,12.67 l -1.1,0.75 1.26,2.16 1.2,-0.56 a 3.96,3.93 0 0 0 1.17,0.66 L 10.74,17 h 2.52 l 0.11,-1.32 a 3.96,3.93 0 0 0 1.16,-0.66 L 15.74,15.58 17,13.42 15.9,12.66 A 3.96,3.93 0 0 0 15.96,12 3.96,3.93 0 0 0 15.91,11.33 l 1.1,-0.75 -1.27,-2.16 -1.2,0.56 A 3.96,3.93 0 0 0 13.37,8.32 L 13.27,7 H 10.73 Z M 12,10.57 A 1.44,1.43 0 0 1 13.44,12 1.44,1.43 0 0 1 12,13.43 1.44,1.43 0 0 1 10.56,12 1.44,1.43 0 0 1 12,10.57 Z"
     id="path5"
     inkscape:connector-curvature="0"
     style="color:#4285f4;fill:#c83737" />
</svg>
