<?xml version="1.0" encoding="UTF-8" standalone="no"?>
<svg
   xmlns:dc="http://purl.org/dc/elements/1.1/"
   xmlns:cc="http://creativecommons.org/ns#"
   xmlns:rdf="http://www.w3.org/1999/02/22-rdf-syntax-ns#"
   xmlns:svg="http://www.w3.org/2000/svg"
   xmlns="http://www.w3.org/2000/svg"
   xmlns:sodipodi="http://sodipodi.sourceforge.net/DTD/sodipodi-0.dtd"
   xmlns:inkscape="http://www.inkscape.org/namespaces/inkscape"
   width="24"
   height="24"
   version="1"
   id="svg4"
   sodipodi:docname="gtk-caps-lock-warning.svg"
   inkscape:version="0.92.4 (5da689c313, 2019-01-14)">
  <metadata
     id="metadata10">
    <rdf:RDF>
      <cc:Work
         rdf:about="">
        <dc:format>image/svg+xml</dc:format>
        <dc:type
           rdf:resource="http://purl.org/dc/dcmitype/StillImage" />
        <dc:title></dc:title>
      </cc:Work>
    </rdf:RDF>
  </metadata>
  <defs
     id="defs8" />
  <sodipodi:namedview
     pagecolor="#ffffff"
     bordercolor="#666666"
     borderopacity="1"
     objecttolerance="10"
     gridtolerance="10"
     guidetolerance="10"
     inkscape:pageopacity="0"
     inkscape:pageshadow="2"
     inkscape:window-width="1078"
     inkscape:window-height="480"
     id="namedview6"
     showgrid="false"
     inkscape:zoom="9.8333333"
     inkscape:cx="-0.81355932"
     inkscape:cy="12"
     inkscape:window-x="0"
     inkscape:window-y="28"
     inkscape:window-maximized="0"
     inkscape:current-layer="svg4" />
  <path
     d="M 11.915,4.146 2.822,19.854 h 18.356 z m 0.043,2.773 a 0.93,0.93 0 0 1 0.237,0.035 c 0.565,0.13 0.84,0.768 0.739,1.304 -0.198,2.263 -0.47,4.516 -0.64,6.782 h -0.656 c -0.205,-2.36 -0.478,-4.695 -0.719,-7.045 0,-0.074 0.006,-0.148 0.018,-0.221 0.056,-0.434 0.421,-0.768 0.837,-0.84 V 6.932 a 0.93,0.93 0 0 1 0.184,-0.013 z m -0.087,9.546 a 0.969,0.969 0 0 1 0.041,0 c 0.397,-0.001 0.802,0.213 0.985,0.58 0.325,0.57 -0.012,1.37 -0.65,1.533 -0.656,0.222 -1.428,-0.33 -1.402,-1.028 a 1.069,1.069 0 0 1 0.41,-0.837 0.969,0.969 0 0 1 0.616,-0.248 z"
     id="path2"
     inkscape:connector-curvature="0"
     style="fill:#aa4400" />
</svg>
