<?xml version="1.0" encoding="UTF-8" standalone="no"?>
<svg
   xmlns:dc="http://purl.org/dc/elements/1.1/"
   xmlns:cc="http://creativecommons.org/ns#"
   xmlns:rdf="http://www.w3.org/1999/02/22-rdf-syntax-ns#"
   xmlns:svg="http://www.w3.org/2000/svg"
   xmlns="http://www.w3.org/2000/svg"
   xmlns:sodipodi="http://sodipodi.sourceforge.net/DTD/sodipodi-0.dtd"
   xmlns:inkscape="http://www.inkscape.org/namespaces/inkscape"
   width="24"
   height="24"
   viewBox="0 0 24 24"
   version="1.1"
   id="svg9"
   sodipodi:docname="im-irc.svg"
   inkscape:version="0.92.4 (5da689c313, 2019-01-14)">
  <metadata
     id="metadata13">
    <rdf:RDF>
      <cc:Work
         rdf:about="">
        <dc:format>image/svg+xml</dc:format>
        <dc:type
           rdf:resource="http://purl.org/dc/dcmitype/StillImage" />
        <dc:title></dc:title>
      </cc:Work>
    </rdf:RDF>
  </metadata>
  <sodipodi:namedview
     pagecolor="#ffffff"
     bordercolor="#666666"
     borderopacity="1"
     objecttolerance="10"
     gridtolerance="10"
     guidetolerance="10"
     inkscape:pageopacity="0"
     inkscape:pageshadow="2"
     inkscape:window-width="1078"
     inkscape:window-height="480"
     id="namedview11"
     showgrid="false"
     inkscape:zoom="9.8333333"
     inkscape:cx="-0.81355932"
     inkscape:cy="12"
     inkscape:window-x="0"
     inkscape:window-y="28"
     inkscape:window-maximized="0"
     inkscape:current-layer="svg9" />
  <defs
     id="defs3">
    <style
       id="current-color-scheme"
       type="text/css">
   .ColorScheme-Text { color:#5beedc; } .ColorScheme-Highlight { color:#4285f4; }
  </style>
  </defs>
  <path
     style="color:#5beedc;fill:#5beedc"
     class="ColorScheme-Text"
     d="m 9.4042969,10 c 0,0 -1.40625,3.91e-4 -1.40625,1.400391 v 4.199218 C 7.9980469,16.375219 8.6363044,17 9.4277344,17 h 3.5703126 l 1.5,2 1.5,-2 h 0.572265 c 0,0 1.427735,-3.91e-4 1.427735,-1.400391 V 11.400391 C 17.998047,10.000391 16.570312,10 16.570312,10 Z"
     id="path5"
     inkscape:connector-curvature="0" />
  <path
     style="color:#5beedc;opacity:0.3;fill:#5beedc"
     class="ColorScheme-Text"
     d="M 7.40625,6 C 7.40625,6 6,6.0003906 6,7.4003906 v 4.1992184 c 0,0.6282 0.4207,1.151679 1,1.330079 V 10.400391 C 7,9.0003906 8.40625,9 8.40625,9 h 7.166016 C 15.572266,9 15.768,9.023537 16,9.085937 V 7.4003906 C 16,6.0003906 14.572266,6 14.572266,6 Z"
     id="path7"
     inkscape:connector-curvature="0" />
</svg>
