<?xml version="1.0" encoding="UTF-8" standalone="no"?>
<svg
   xmlns:dc="http://purl.org/dc/elements/1.1/"
   xmlns:cc="http://creativecommons.org/ns#"
   xmlns:rdf="http://www.w3.org/1999/02/22-rdf-syntax-ns#"
   xmlns:svg="http://www.w3.org/2000/svg"
   xmlns="http://www.w3.org/2000/svg"
   xmlns:sodipodi="http://sodipodi.sourceforge.net/DTD/sodipodi-0.dtd"
   xmlns:inkscape="http://www.inkscape.org/namespaces/inkscape"
   width="24"
   height="24"
   version="1.1"
   id="svg4"
   sodipodi:docname="tag.svg"
   inkscape:version="0.92.4 (5da689c313, 2019-01-14)">
  <metadata
     id="metadata10">
    <rdf:RDF>
      <cc:Work
         rdf:about="">
        <dc:format>image/svg+xml</dc:format>
        <dc:type
           rdf:resource="http://purl.org/dc/dcmitype/StillImage" />
        <dc:title></dc:title>
      </cc:Work>
    </rdf:RDF>
  </metadata>
  <defs
     id="defs8" />
  <sodipodi:namedview
     pagecolor="#ffffff"
     bordercolor="#666666"
     borderopacity="1"
     objecttolerance="10"
     gridtolerance="10"
     guidetolerance="10"
     inkscape:pageopacity="0"
     inkscape:pageshadow="2"
     inkscape:window-width="1366"
     inkscape:window-height="683"
     id="namedview6"
     showgrid="false"
     inkscape:zoom="9.8333333"
     inkscape:cx="-0.81355932"
     inkscape:cy="12"
     inkscape:window-x="0"
     inkscape:window-y="28"
     inkscape:window-maximized="1"
     inkscape:current-layer="svg4" />
  <path
     d="M 12 1.6308594 C 11.5 1.6308594 11.020391 1.8194531 10.650391 2.1894531 L 5.9003906 6.9296875 A 1.89 1.89 0 0 0 5.3398438 8.2792969 L 5.3398438 20.460938 A 1.91 1.91 0 0 0 7.25 22.359375 L 16.720703 22.359375 C 17.220703 22.359375 17.700078 22.180547 18.080078 21.810547 A 1.91 1.91 0 0 0 18.640625 20.449219 L 18.640625 8.2792969 C 18.640625 7.7892969 18.450078 7.2996875 18.080078 6.9296875 L 13.339844 2.1894531 A 1.9 1.9 0 0 0 12 1.6308594 z M 12 4.1308594 C 12.36 4.1308594 12.729766 4.2805469 13.009766 4.5605469 A 1.43 1.43 0 0 1 13.009766 6.5898438 A 1.43 1.43 0 0 1 10.980469 6.5898438 A 1.43 1.43 0 0 1 10.980469 4.5605469 A 1.43 1.43 0 0 1 12 4.140625 L 12 4.1308594 z "
     id="path821"
     style="fill:#5beedc" />
</svg>
