<?xml version="1.0" encoding="UTF-8" standalone="no"?>
<svg
   xmlns:dc="http://purl.org/dc/elements/1.1/"
   xmlns:cc="http://creativecommons.org/ns#"
   xmlns:rdf="http://www.w3.org/1999/02/22-rdf-syntax-ns#"
   xmlns:svg="http://www.w3.org/2000/svg"
   xmlns="http://www.w3.org/2000/svg"
   xmlns:sodipodi="http://sodipodi.sourceforge.net/DTD/sodipodi-0.dtd"
   xmlns:inkscape="http://www.inkscape.org/namespaces/inkscape"
   width="24"
   height="24"
   version="1.1"
   id="svg4"
   sodipodi:docname="mail-encrypted-full.svg"
   inkscape:version="0.92.4 (5da689c313, 2019-01-14)">
  <metadata
     id="metadata10">
    <rdf:RDF>
      <cc:Work
         rdf:about="">
        <dc:format>image/svg+xml</dc:format>
        <dc:type
           rdf:resource="http://purl.org/dc/dcmitype/StillImage" />
        <dc:title></dc:title>
      </cc:Work>
    </rdf:RDF>
  </metadata>
  <defs
     id="defs8" />
  <sodipodi:namedview
     pagecolor="#ffffff"
     bordercolor="#666666"
     borderopacity="1"
     objecttolerance="10"
     gridtolerance="10"
     guidetolerance="10"
     inkscape:pageopacity="0"
     inkscape:pageshadow="2"
     inkscape:window-width="1078"
     inkscape:window-height="480"
     id="namedview6"
     showgrid="false"
     inkscape:zoom="9.8333333"
     inkscape:cx="-0.81355932"
     inkscape:cy="12"
     inkscape:window-x="0"
     inkscape:window-y="28"
     inkscape:window-maximized="0"
     inkscape:current-layer="svg4" />
  <path
     d="M 12,2.54 A 9.46,9.46 0 0 0 3.7,7.47 l 8.14,8 h 0.76 l 7.86,-7.7 A 9.46,9.46 0 0 0 12,2.54 Z M 3.15,8.67 A 9.46,9.46 0 0 0 2.54,12 9.46,9.46 0 0 0 3.78,16.66 l 3.72,-3.7 z m 17.82,0.35 -3.97,3.95 0.26,0.26 a 2.5,2.45 0 0 1 0.04,-0.03 2.5,2.45 0 0 1 0.2,-0.15 2.5,2.45 0 0 1 0.2,-0.12 2.5,2.45 0 0 1 0.23,-0.11 2.5,2.45 0 0 1 0.24,-0.08 2.5,2.45 0 0 1 0.24,-0.06 2.5,2.45 0 0 1 0.25,-0.04 2.5,2.45 0 0 1 0.25,-0.01 2.5,2.45 0 0 1 0.17,0 2.5,2.45 0 0 1 0.25,0.03 2.5,2.45 0 0 1 0.25,0.05 2.5,2.45 0 0 1 0.23,0.08 2.5,2.45 0 0 1 0.23,0.1 2.5,2.45 0 0 1 0.22,0.13 2.5,2.45 0 0 1 0.2,0.14 2.5,2.45 0 0 1 0.19,0.16 2.5,2.45 0 0 1 0.17,0.18 2.5,2.45 0 0 1 0.15,0.2 2.5,2.45 0 0 1 0.13,0.2 2.5,2.45 0 0 1 0.1,0.21 A 9.46,9.46 0 0 0 21.46,12 9.46,9.46 0 0 0 20.97,9.02 Z m -1.86,4.6 a 2,2 0 0 0 -2,2 v 2 h -1.33 v 4 h 6.66 v -4 h -1.33 v -2 a 2,2 0 0 0 -2,-2 z m -10.69,0.2 -3.94,3.91 a 9.46,9.46 0 0 0 7.52,3.73 9.46,9.46 0 0 0 2.74,-0.4 v -4.24 h 1.67 v -1.75 a 2.5,2.45 0 0 1 0,-0.17 2.5,2.45 0 0 1 0.03,-0.25 2.5,2.45 0 0 1 0.06,-0.24 2.5,2.45 0 0 1 0.04,-0.12 l -0.48,-0.47 -2.9,2.9 h -1.84 l -2.9,-2.9 v -0.01 z m 10.69,1.14 a 0.67,0.67 0 0 1 0.67,0.67 v 2 h -1.34 v -2 a 0.67,0.67 0 0 1 0.67,-0.67 z"
     id="path2"
     inkscape:connector-curvature="0"
     style="fill:#5beedc" />
</svg>
