<?xml version="1.0" encoding="UTF-8" standalone="no"?>
<svg
   xmlns:dc="http://purl.org/dc/elements/1.1/"
   xmlns:cc="http://creativecommons.org/ns#"
   xmlns:rdf="http://www.w3.org/1999/02/22-rdf-syntax-ns#"
   xmlns:svg="http://www.w3.org/2000/svg"
   xmlns="http://www.w3.org/2000/svg"
   xmlns:sodipodi="http://sodipodi.sourceforge.net/DTD/sodipodi-0.dtd"
   xmlns:inkscape="http://www.inkscape.org/namespaces/inkscape"
   width="24"
   height="24"
   version="1.1"
   id="svg4"
   sodipodi:docname="outbox.svg"
   inkscape:version="0.92.4 (5da689c313, 2019-01-14)">
  <metadata
     id="metadata10">
    <rdf:RDF>
      <cc:Work
         rdf:about="">
        <dc:format>image/svg+xml</dc:format>
        <dc:type
           rdf:resource="http://purl.org/dc/dcmitype/StillImage" />
        <dc:title></dc:title>
      </cc:Work>
    </rdf:RDF>
  </metadata>
  <defs
     id="defs8" />
  <sodipodi:namedview
     pagecolor="#ffffff"
     bordercolor="#666666"
     borderopacity="1"
     objecttolerance="10"
     gridtolerance="10"
     guidetolerance="10"
     inkscape:pageopacity="0"
     inkscape:pageshadow="2"
     inkscape:window-width="1078"
     inkscape:window-height="480"
     id="namedview6"
     showgrid="false"
     inkscape:zoom="9.8333333"
     inkscape:cx="-0.81355932"
     inkscape:cy="12"
     inkscape:window-x="0"
     inkscape:window-y="28"
     inkscape:window-maximized="0"
     inkscape:current-layer="svg4" />
  <path
     d="m 12,3.12 -4,5 h 2 v 7.9 a 9.58,9.5 0 0 0 1.98,0.22 9.58,9.5 0 0 0 2.02,-0.22 v -7.9 h 2 z M 8.15,3.27 a 9.58,9.5 0 0 0 -5.76,8.7 9.58,9.5 0 0 0 9.59,9.51 9.58,9.5 0 0 0 9.58,-9.5 9.58,9.5 0 0 0 -5.7,-8.69 v 3.87 h 2.57 v 9 h -3.85 a 2.56,2.56 0 0 1 -4.4,1.82 2.56,2.56 0 0 1 -0.75,-1.82 H 5.58 v -9 H 8.15 V 3.28 Z"
     id="path2"
     inkscape:connector-curvature="0"
     style="fill:#5beedc;fill-rule:evenodd;stroke-width:4.78000021" />
</svg>
