<?xml version="1.0" encoding="UTF-8" standalone="no"?>
<svg
   xmlns:dc="http://purl.org/dc/elements/1.1/"
   xmlns:cc="http://creativecommons.org/ns#"
   xmlns:rdf="http://www.w3.org/1999/02/22-rdf-syntax-ns#"
   xmlns:svg="http://www.w3.org/2000/svg"
   xmlns="http://www.w3.org/2000/svg"
   xmlns:sodipodi="http://sodipodi.sourceforge.net/DTD/sodipodi-0.dtd"
   xmlns:inkscape="http://www.inkscape.org/namespaces/inkscape"
   width="24"
   height="24"
   id="svg7"
   version="1.1"
   sodipodi:docname="media-random-albums-amarok.svg"
   inkscape:version="0.92.4 (5da689c313, 2019-01-14)">
  <metadata
     id="metadata8">
    <rdf:RDF>
      <cc:Work
         rdf:about="">
        <dc:format>image/svg+xml</dc:format>
        <dc:type
           rdf:resource="http://purl.org/dc/dcmitype/StillImage" />
        <dc:title></dc:title>
      </cc:Work>
    </rdf:RDF>
  </metadata>
  <sodipodi:namedview
     pagecolor="#ffffff"
     bordercolor="#666666"
     borderopacity="1"
     objecttolerance="10"
     gridtolerance="10"
     guidetolerance="10"
     inkscape:pageopacity="0"
     inkscape:pageshadow="2"
     inkscape:window-width="1078"
     inkscape:window-height="480"
     id="namedview6"
     showgrid="false"
     inkscape:zoom="9.8333333"
     inkscape:cx="-0.81355932"
     inkscape:cy="12"
     inkscape:window-x="0"
     inkscape:window-y="28"
     inkscape:window-maximized="0"
     inkscape:current-layer="svg7" />
  <defs
     id="defs3">
    <style
       id="current-color-scheme" />
  </defs>
  <path
     d="m 17.44,2.36 v 2.76 a 6.27,7 0 0 0 -0.16,0 6.27,7 0 0 0 -4.5,2.12 7.5,8.37 0 0 1 0.1,0.14 7.5,8.37 0 0 1 0.39,0.71 7.5,8.37 0 0 1 0.33,0.76 7.5,8.37 0 0 1 0.2,0.6 4.22,4.7 0 0 1 3.48,-2.05 4.22,4.7 0 0 1 0.16,0 v 3.22 l 5.5,-4.13 z M 6.79,5.1 A 6.27,7 0 0 0 1.31,8.72 h 2.55 a 4.22,4.7 0 0 1 2.93,-1.32 4.22,4.7 0 0 1 4.23,4.7 6.27,7 0 0 0 6.27,7 6.27,7 0 0 0 0.16,-0.01 v 2.55 l 5.5,-4.13 -5.5,-4.13 v 3.42 a 4.22,4.7 0 0 1 -0.16,0.01 4.22,4.7 0 0 1 -4.23,-4.7 6.27,7 0 0 0 -6.27,-7 V 5.1 Z M 5.93,8.8 3.77,14.63 h 1.5 L 5.65,13.57 H 8 l 0.37,1.06 H 9.88 L 7.72,8.8 h -1.8 z m 0.9,1.37 0.8,2.32 h -1.6 z m 3.65,4.18 a 7.5,8.37 0 0 0 0,0.01 4.22,4.7 0 0 0 0.01,-0.01 z m 0,0.01 A 4.22,4.7 0 0 1 6.8,16.8 4.22,4.7 0 0 1 3.41,14.88 H 1.04 a 6.27,7 0 0 0 5.75,4.2 6.27,7 0 0 0 4.67,-2.34 7.5,8.37 0 0 1 -0.34,-0.63 7.5,8.37 0 0 1 -0.33,-0.76 7.5,8.37 0 0 1 -0.25,-0.78 7.5,8.37 0 0 1 -0.05,-0.2 z"
     id="path2"
     inkscape:connector-curvature="0"
     style="fill:#5beedc" />
</svg>
