<?xml version="1.0" encoding="UTF-8" standalone="no"?>
<svg
   xmlns:dc="http://purl.org/dc/elements/1.1/"
   xmlns:cc="http://creativecommons.org/ns#"
   xmlns:rdf="http://www.w3.org/1999/02/22-rdf-syntax-ns#"
   xmlns:svg="http://www.w3.org/2000/svg"
   xmlns="http://www.w3.org/2000/svg"
   xmlns:sodipodi="http://sodipodi.sourceforge.net/DTD/sodipodi-0.dtd"
   xmlns:inkscape="http://www.inkscape.org/namespaces/inkscape"
   width="24"
   height="24"
   id="svg7"
   version="1.1"
   sodipodi:docname="media-repeat-playlist-amarok.svg"
   inkscape:version="0.92.4 (5da689c313, 2019-01-14)">
  <metadata
     id="metadata8">
    <rdf:RDF>
      <cc:Work
         rdf:about="">
        <dc:format>image/svg+xml</dc:format>
        <dc:type
           rdf:resource="http://purl.org/dc/dcmitype/StillImage" />
        <dc:title></dc:title>
      </cc:Work>
    </rdf:RDF>
  </metadata>
  <sodipodi:namedview
     pagecolor="#ffffff"
     bordercolor="#666666"
     borderopacity="1"
     objecttolerance="10"
     gridtolerance="10"
     guidetolerance="10"
     inkscape:pageopacity="0"
     inkscape:pageshadow="2"
     inkscape:window-width="1078"
     inkscape:window-height="480"
     id="namedview6"
     showgrid="false"
     inkscape:zoom="9.8333333"
     inkscape:cx="-0.81355932"
     inkscape:cy="12"
     inkscape:window-x="0"
     inkscape:window-y="28"
     inkscape:window-maximized="0"
     inkscape:current-layer="svg7" />
  <defs
     id="defs3">
    <style
       id="current-color-scheme" />
  </defs>
  <path
     d="M 7.42,3.55 V 5.77 H 5.2 C 3.27,5.8 2.13,7.3 1.98,8.83 a 9.92,9.92 0 0 0 0.01,1 l 0.02,0.13 0.07,0.54 0.03,0.31 0.03,0.14 0.13,0.6 c 0.03,0.07 0.04,0.16 0.06,0.24 l 0.04,0.1 0.2,0.63 0.08,0.22 0.04,0.1 0.26,0.58 0.1,0.24 0.06,0.08 0.33,0.6 0.12,0.2 0.04,0.05 0.37,0.52 0.17,0.23 0.06,0.07 0.38,0.43 0.22,0.26 0.05,0.04 0.4,0.38 0.29,0.26 0.05,0.04 c 0.49,0.4 1.1,0.65 1.66,0.96 C 7.15,17.38 7,16.98 7,16.54 7,16.14 7.14,15.78 7.23,15.41 L 7.03,15.26 6.69,14.96 6.46,14.76 A 7.89,7.89 0 0 1 4.09,9.1 c 0,-0.62 0.5,-1.12 1.1,-1.12 h 2.23 v 2.23 L 11.86,6.87 7.42,3.54 Z m 5.84,2.22 v 2.24 h 5.54 c 0.62,0 1.11,0.5 1.11,1.1 0,2.17 -0.87,4.13 -2.28,5.56 l -0.1,0.1 -0.22,0.2 a 4.97,4.97 0 0 1 -0.54,0.44 c 0.09,0.38 0.23,0.74 0.23,1.14 0,0.44 -0.15,0.84 -0.25,1.24 0.56,-0.3 1.17,-0.55 1.66,-0.96 l 0.05,-0.04 0.29,-0.26 0.4,-0.38 0.05,-0.04 0.22,-0.26 0.38,-0.43 0.06,-0.07 0.17,-0.23 0.37,-0.52 0.04,-0.06 0.12,-0.2 c 0.11,-0.2 0.23,-0.39 0.33,-0.59 l 0.05,-0.08 0.11,-0.24 0.26,-0.58 c 0,-0.03 0.03,-0.07 0.04,-0.1 l 0.07,-0.22 c 0.08,-0.2 0.15,-0.4 0.21,-0.62 l 0.04,-0.1 c 0.02,-0.1 0.03,-0.18 0.06,-0.26 l 0.13,-0.59 0.03,-0.14 0.03,-0.3 0.07,-0.55 0.02,-0.14 a 10.04,10.04 0 0 0 0.01,-1 C 21.87,7.31 20.73,5.8 18.8,5.78 h -5.54 z m -1.65,6.88 a 3.904872,3.904872 0 1 0 0.39,7.8 3.9,3.9 0 0 0 0,-7.8 3.9,3.9 0 0 0 -0.4,0 z m -2.4,1.81 h 5.21 v 1.68 H 9.2 v -1.68 z m 0,2.47 h 5.21 v 1.68 H 9.2 v -1.68 z"
     id="path825"
     inkscape:connector-curvature="0"
     style="fill:#5beedc;stroke-width:1.11000001" />
</svg>
