<svg xmlns="http://www.w3.org/2000/svg" width="24" height="24" id="svg9"><defs id="defs3"><style id="current-color-scheme"></style></defs><path d="M20.34 2.33a1.46 1.46 0 0 0-1.46 1.46 1.46 1.46 0 0 0 1.46 1.47 1.46 1.46 0 0 0 1.46-1.47 1.46 1.46 0 0 0-1.46-1.46zM12 3a4.38 4.38 0 1 0-.01 8.76A4.38 4.38 0 0 0 12 3zm8.34 3.72a1.46 1.46 0 0 0-1.46 1.46 1.46 1.46 0 0 0 1.46 1.46 1.46 1.46 0 0 0 1.46-1.46 1.46 1.46 0 0 0-1.46-1.46zm0 4.38a1.46 1.46 0 0 0-1.46 1.46 1.46 1.46 0 0 0 1.46 1.46 1.46 1.46 0 0 0 1.46-1.46 1.46 1.46 0 0 0-1.46-1.46zM12 14.7c-8.77 0-8.77 5.84-8.77 5.84V22h17.54v-1.46s0-5.86-8.77-5.85z" id="path5" color="#dfdfdf" fill="#5beedc" stroke-width="1.46"/></svg>
