<svg xmlns="http://www.w3.org/2000/svg" width="24" height="24" id="svg9"><defs id="defs3"><style id="current-color-scheme"></style></defs><g transform="matrix(1.46154 0 0 1.46154 .3 -8.7)" id="g7" fill="#5beedc"><path d="M8 8a3 3 0 1 1 0 6 3 3 0 0 1 0-6zm0 8c6-.01 6 4 6 4v1H2v-1s0-4 6-4z" id="path5" color="#dfdfdf"/></g><path d="M20.34 2.33a1.46 1.46 0 0 0-1.46 1.46 1.46 1.46 0 0 0 1.46 1.47 1.46 1.46 0 0 0 1.46-1.47 1.46 1.46 0 0 0-1.46-1.46zm0 4.39a1.46 1.46 0 0 0-1.46 1.46 1.46 1.46 0 0 0 1.46 1.46 1.46 1.46 0 0 0 1.46-1.46 1.46 1.46 0 0 0-1.46-1.46zm0 4.38a1.46 1.46 0 0 0-1.46 1.46 1.46 1.46 0 0 0 1.46 1.46 1.46 1.46 0 0 0 1.46-1.46 1.46 1.46 0 0 0-1.46-1.46z" id="path824" color="#dfdfdf" fill="#5beedc" stroke-width="1.46" fill-opacity=".3"/></svg>
