<?xml version="1.0" encoding="UTF-8" standalone="no"?>
<svg
   xmlns:dc="http://purl.org/dc/elements/1.1/"
   xmlns:cc="http://creativecommons.org/ns#"
   xmlns:rdf="http://www.w3.org/1999/02/22-rdf-syntax-ns#"
   xmlns:svg="http://www.w3.org/2000/svg"
   xmlns="http://www.w3.org/2000/svg"
   xmlns:sodipodi="http://sodipodi.sourceforge.net/DTD/sodipodi-0.dtd"
   xmlns:inkscape="http://www.inkscape.org/namespaces/inkscape"
   width="24"
   height="24"
   id="svg9"
   version="1.1"
   sodipodi:docname="mesh-gradient.svg"
   inkscape:version="0.92.4 (5da689c313, 2019-01-14)">
  <metadata
     id="metadata9">
    <rdf:RDF>
      <cc:Work
         rdf:about="">
        <dc:format>image/svg+xml</dc:format>
        <dc:type
           rdf:resource="http://purl.org/dc/dcmitype/StillImage" />
        <dc:title></dc:title>
      </cc:Work>
    </rdf:RDF>
  </metadata>
  <sodipodi:namedview
     pagecolor="#ffffff"
     bordercolor="#666666"
     borderopacity="1"
     objecttolerance="10"
     gridtolerance="10"
     guidetolerance="10"
     inkscape:pageopacity="0"
     inkscape:pageshadow="2"
     inkscape:window-width="1078"
     inkscape:window-height="480"
     id="namedview7"
     showgrid="false"
     inkscape:zoom="9.8333333"
     inkscape:cx="-0.81355932"
     inkscape:cy="12"
     inkscape:window-x="0"
     inkscape:window-y="28"
     inkscape:window-maximized="0"
     inkscape:current-layer="svg9" />
  <defs
     id="defs3">
    <style
       id="current-color-scheme">.ColorScheme-Text{color:#5beedc}</style>
  </defs>
  <path
     class="ColorScheme-Text"
     d="m 8.4,3.87 a 8.7,8.7 0 0 0 -3.34,1 l -0.38,0.2 0.2,0.37 c 0.81,1.64 1,2.81 0.9,3.78 -0.1,0.96 -0.49,1.75 -0.9,2.6 -0.43,0.83 -0.88,1.74 -1,2.88 a 7.7,7.7 0 0 0 1,4.24 l 0.18,0.38 0.38,-0.2 c 1.64,-0.81 2.81,-1 3.78,-0.9 0.96,0.1 1.75,0.49 2.6,0.9 0.83,0.43 1.74,0.88 2.88,1 a 7.7,7.7 0 0 0 4.24,-1 l 0.38,-0.18 -0.2,-0.38 c -0.81,-1.64 -1,-2.81 -0.9,-3.78 0.1,-0.96 0.49,-1.75 0.9,-2.6 0.43,-0.83 0.88,-1.74 1,-2.88 a 7.7,7.7 0 0 0 -1,-4.24 l -0.18,-0.38 -0.38,0.2 c -1.64,0.81 -2.81,1 -3.78,0.9 a 7.32,7.32 0 0 1 -2.6,-0.9 C 11.35,4.45 10.44,4 9.3,3.88 A 5.57,5.57 0 0 0 8.4,3.87 Z"
     id="path5"
     inkscape:connector-curvature="0"
     style="color:#5beedc;opacity:0.3;fill:#5beedc;stroke-width:1.13" />
  <path
     class="ColorScheme-Text"
     d="M 3,3 V 6.38 H 6.38 V 3 Z M 17.63,3 V 6.38 H 21 V 3 Z M 3,17.63 V 21 h 3.38 v -3.38 z m 14.63,0 V 21 H 21 v -3.38 z"
     id="path7"
     inkscape:connector-curvature="0"
     style="color:#5beedc;fill:#5beedc;stroke-width:1.13" />
</svg>
