<?xml version="1.0" encoding="UTF-8" standalone="no"?>
<svg
   xmlns:dc="http://purl.org/dc/elements/1.1/"
   xmlns:cc="http://creativecommons.org/ns#"
   xmlns:rdf="http://www.w3.org/1999/02/22-rdf-syntax-ns#"
   xmlns:svg="http://www.w3.org/2000/svg"
   xmlns="http://www.w3.org/2000/svg"
   xmlns:sodipodi="http://sodipodi.sourceforge.net/DTD/sodipodi-0.dtd"
   xmlns:inkscape="http://www.inkscape.org/namespaces/inkscape"
   width="24"
   height="24"
   version="1.1"
   id="svg4"
   sodipodi:docname="package-supported.svg"
   inkscape:version="0.92.4 (5da689c313, 2019-01-14)">
  <metadata
     id="metadata10">
    <rdf:RDF>
      <cc:Work
         rdf:about="">
        <dc:format>image/svg+xml</dc:format>
        <dc:type
           rdf:resource="http://purl.org/dc/dcmitype/StillImage" />
        <dc:title></dc:title>
      </cc:Work>
    </rdf:RDF>
  </metadata>
  <defs
     id="defs8" />
  <sodipodi:namedview
     pagecolor="#ffffff"
     bordercolor="#666666"
     borderopacity="1"
     objecttolerance="10"
     gridtolerance="10"
     guidetolerance="10"
     inkscape:pageopacity="0"
     inkscape:pageshadow="2"
     inkscape:window-width="1078"
     inkscape:window-height="480"
     id="namedview6"
     showgrid="false"
     inkscape:zoom="9.8333333"
     inkscape:cx="-0.81355932"
     inkscape:cy="12"
     inkscape:window-x="0"
     inkscape:window-y="28"
     inkscape:window-maximized="0"
     inkscape:current-layer="svg4" />
  <path
     d="M 11.979,3.992 A 7.978,7.963 0 0 0 4,11.955 a 7.978,7.963 0 0 0 7.979,7.963 7.978,7.963 0 0 0 7.976,-7.963 7.978,7.963 0 0 0 -7.976,-7.963 z m 0,1.996 a 5.978,5.967 0 0 1 5.976,5.967 5.978,5.967 0 0 1 -5.976,5.967 A 5.978,5.967 0 0 1 6,11.955 5.978,5.967 0 0 1 11.979,5.988 Z m 0,1.996 A 3.978,3.97 0 0 0 8,11.955 a 3.978,3.97 0 0 0 3.979,3.97 3.978,3.97 0 0 0 3.976,-3.97 3.978,3.97 0 0 0 -3.976,-3.97 z"
     id="path2"
     inkscape:connector-curvature="0"
     style="fill:#c83737" />
</svg>
