<?xml version="1.0" encoding="UTF-8" standalone="no"?>
<svg
   xmlns:dc="http://purl.org/dc/elements/1.1/"
   xmlns:cc="http://creativecommons.org/ns#"
   xmlns:rdf="http://www.w3.org/1999/02/22-rdf-syntax-ns#"
   xmlns:svg="http://www.w3.org/2000/svg"
   xmlns="http://www.w3.org/2000/svg"
   xmlns:sodipodi="http://sodipodi.sourceforge.net/DTD/sodipodi-0.dtd"
   xmlns:inkscape="http://www.inkscape.org/namespaces/inkscape"
   width="24"
   height="24"
   version="1.1"
   id="svg4"
   sodipodi:docname="package-new.svg"
   inkscape:version="0.92.4 (5da689c313, 2019-01-14)">
  <metadata
     id="metadata10">
    <rdf:RDF>
      <cc:Work
         rdf:about="">
        <dc:format>image/svg+xml</dc:format>
        <dc:type
           rdf:resource="http://purl.org/dc/dcmitype/StillImage" />
        <dc:title></dc:title>
      </cc:Work>
    </rdf:RDF>
  </metadata>
  <defs
     id="defs8" />
  <sodipodi:namedview
     pagecolor="#ffffff"
     bordercolor="#666666"
     borderopacity="1"
     objecttolerance="10"
     gridtolerance="10"
     guidetolerance="10"
     inkscape:pageopacity="0"
     inkscape:pageshadow="2"
     inkscape:window-width="1078"
     inkscape:window-height="480"
     id="namedview6"
     showgrid="false"
     inkscape:zoom="9.8333333"
     inkscape:cx="-0.81355932"
     inkscape:cy="12"
     inkscape:window-x="0"
     inkscape:window-y="28"
     inkscape:window-maximized="0"
     inkscape:current-layer="svg4" />
  <path
     d="m 4.98,2.97 a 2,2 0 0 0 -2,2 v 14 a 2,2 0 0 0 2,2 h 14 a 2,2 0 0 0 2,-2 v -14 a 2,2 0 0 0 -2,-2 z M 12,4.04 A 7.98,7.96 0 0 1 19.98,12 7.98,7.96 0 0 1 12,19.96 7.98,7.96 0 0 1 4.02,12 7.98,7.96 0 0 1 12,4.04 Z m 0,2 A 5.98,5.97 0 0 0 6.02,12 5.98,5.97 0 0 0 12,17.97 5.98,5.97 0 0 0 17.98,12 5.98,5.97 0 0 0 12,6.03 Z m 0,1.99 A 3.98,3.97 0 0 1 15.98,12 3.98,3.97 0 0 1 12,15.97 3.98,3.97 0 0 1 8.02,12 3.98,3.97 0 0 1 12,8.03 Z"
     id="path2"
     inkscape:connector-curvature="0"
     style="fill:#5beedc" />
</svg>
