<?xml version="1.0" encoding="UTF-8" standalone="no"?>
<svg
   xmlns:dc="http://purl.org/dc/elements/1.1/"
   xmlns:cc="http://creativecommons.org/ns#"
   xmlns:rdf="http://www.w3.org/1999/02/22-rdf-syntax-ns#"
   xmlns:svg="http://www.w3.org/2000/svg"
   xmlns="http://www.w3.org/2000/svg"
   xmlns:sodipodi="http://sodipodi.sourceforge.net/DTD/sodipodi-0.dtd"
   xmlns:inkscape="http://www.inkscape.org/namespaces/inkscape"
   width="24"
   height="24"
   version="1.1"
   id="svg4"
   sodipodi:docname="package-remove-auto.svg"
   inkscape:version="0.92.4 (5da689c313, 2019-01-14)">
  <metadata
     id="metadata10">
    <rdf:RDF>
      <cc:Work
         rdf:about="">
        <dc:format>image/svg+xml</dc:format>
        <dc:type
           rdf:resource="http://purl.org/dc/dcmitype/StillImage" />
        <dc:title></dc:title>
      </cc:Work>
    </rdf:RDF>
  </metadata>
  <defs
     id="defs8" />
  <sodipodi:namedview
     pagecolor="#ffffff"
     bordercolor="#666666"
     borderopacity="1"
     objecttolerance="10"
     gridtolerance="10"
     guidetolerance="10"
     inkscape:pageopacity="0"
     inkscape:pageshadow="2"
     inkscape:window-width="1136"
     inkscape:window-height="480"
     id="namedview6"
     showgrid="false"
     inkscape:zoom="9.8333333"
     inkscape:cx="1.0677966"
     inkscape:cy="12"
     inkscape:window-x="0"
     inkscape:window-y="25"
     inkscape:window-maximized="0"
     inkscape:current-layer="svg4" />
  <path
     d="M 5,3 A 2,2 0 0 0 3,5 v 14 a 2,2 0 0 0 2,2 h 14 a 2,2 0 0 0 2,-2 V 5 A 2,2 0 0 0 19,3 Z m 0,2 h 14 v 10.19 h -2.85 l -3.115,-3.118 3.988,-3.988 -1.01,-1.012 -3.99,3.99 -3.988,-3.99 -1.012,1.012 3.99,3.988 -3.99,3.99 1.012,1.01 3.988,-3.988 2.842,2.842 c -0.102,0.193 -0.164,0.41 -0.164,0.644 v 2.159 c 0,0.093 0.012,0.183 0.03,0.271 H 5 Z m 12.68,11.484 a 1.51,1.597 0 0 1 1.511,1.596 1.51,1.597 0 0 1 -1.511,1.598 1.51,1.597 0 0 1 -1.51,-1.598 1.51,1.597 0 0 1 1.51,-1.596 z"
     id="path2"
     inkscape:connector-curvature="0"
     style="fill:#ff9800" />
</svg>
