<?xml version="1.0" encoding="UTF-8" standalone="no"?>
<svg
   xmlns:dc="http://purl.org/dc/elements/1.1/"
   xmlns:cc="http://creativecommons.org/ns#"
   xmlns:rdf="http://www.w3.org/1999/02/22-rdf-syntax-ns#"
   xmlns:svg="http://www.w3.org/2000/svg"
   xmlns="http://www.w3.org/2000/svg"
   xmlns:sodipodi="http://sodipodi.sourceforge.net/DTD/sodipodi-0.dtd"
   xmlns:inkscape="http://www.inkscape.org/namespaces/inkscape"
   width="24"
   height="24"
   version="1.1"
   id="svg7"
   sodipodi:docname="paperclip.svg"
   inkscape:version="0.92.4 (5da689c313, 2019-01-14)">
  <metadata
     id="metadata11">
    <rdf:RDF>
      <cc:Work
         rdf:about="">
        <dc:format>image/svg+xml</dc:format>
        <dc:type
           rdf:resource="http://purl.org/dc/dcmitype/StillImage" />
        <dc:title></dc:title>
      </cc:Work>
    </rdf:RDF>
  </metadata>
  <sodipodi:namedview
     pagecolor="#ffffff"
     bordercolor="#666666"
     borderopacity="1"
     objecttolerance="10"
     gridtolerance="10"
     guidetolerance="10"
     inkscape:pageopacity="0"
     inkscape:pageshadow="2"
     inkscape:window-width="1078"
     inkscape:window-height="480"
     id="namedview9"
     showgrid="false"
     inkscape:zoom="9.8333333"
     inkscape:cx="-0.81355932"
     inkscape:cy="12"
     inkscape:window-x="0"
     inkscape:window-y="28"
     inkscape:window-maximized="0"
     inkscape:current-layer="svg7" />
  <defs
     id="defs3">
    <style
       id="current-color-scheme" />
  </defs>
  <path
     d="m 14.79,5 c -0.94,0 -1.82,0.43 -2.41,1.19 l -5.69,7.27 a 3.27,3.27 0 0 0 0.46,4.52 l 0.37,0.3 a 3.03,3.03 0 0 0 4.35,-0.46 l 3.83,-4.9 c 0.69,-0.88 0.56,-2.16 -0.29,-2.87 l -0.2,-0.16 a 1.93,1.93 0 0 0 -2.76,0.3 l -3.83,4.9 c -0.25,0.32 -0.2,0.8 0.11,1.05 a 0.7,0.7 0 0 0 1.01,-0.11 l 3.83,-4.9 a 0.52,0.52 0 0 1 0.74,-0.08 l 0.2,0.16 c 0.1,0.1 0.17,0.23 0.19,0.37 a 0.55,0.55 0 0 1 -0.12,0.4 l -3.82,4.9 A 1.63,1.63 0 0 1 8.43,17.13 L 8.06,16.82 C 7.72,16.52 7.5,16.12 7.46,15.66 7.41,15.21 7.54,14.76 7.81,14.4 L 13.5,7.13 a 1.63,1.63 0 0 1 2.33,-0.26 l 0.37,0.31 c 0.7,0.6 0.82,1.68 0.24,2.42 a 0.76,0.76 0 0 0 0.11,1.05 0.7,0.7 0 0 0 1.01,-0.11 3.27,3.27 0 0 0 -0.45,-4.52 L 16.74,5.72 A 3.04,3.04 0 0 0 14.79,5 Z"
     id="path5"
     inkscape:connector-curvature="0"
     style="color:#5beedc;fill:#5beedc" />
</svg>
