<?xml version="1.0" encoding="UTF-8" standalone="no"?>
<svg
   xmlns:dc="http://purl.org/dc/elements/1.1/"
   xmlns:cc="http://creativecommons.org/ns#"
   xmlns:rdf="http://www.w3.org/1999/02/22-rdf-syntax-ns#"
   xmlns:svg="http://www.w3.org/2000/svg"
   xmlns="http://www.w3.org/2000/svg"
   xmlns:sodipodi="http://sodipodi.sourceforge.net/DTD/sodipodi-0.dtd"
   xmlns:inkscape="http://www.inkscape.org/namespaces/inkscape"
   width="24"
   height="24"
   id="svg9"
   version="1.1"
   sodipodi:docname="query-free-busy.svg"
   inkscape:version="0.92.4 (5da689c313, 2019-01-14)">
  <metadata
     id="metadata8">
    <rdf:RDF>
      <cc:Work
         rdf:about="">
        <dc:format>image/svg+xml</dc:format>
        <dc:type
           rdf:resource="http://purl.org/dc/dcmitype/StillImage" />
        <dc:title></dc:title>
      </cc:Work>
    </rdf:RDF>
  </metadata>
  <sodipodi:namedview
     pagecolor="#ffffff"
     bordercolor="#666666"
     borderopacity="1"
     objecttolerance="10"
     gridtolerance="10"
     guidetolerance="10"
     inkscape:pageopacity="0"
     inkscape:pageshadow="2"
     inkscape:window-width="1078"
     inkscape:window-height="480"
     id="namedview6"
     showgrid="false"
     inkscape:zoom="9.8333333"
     inkscape:cx="-0.81355932"
     inkscape:cy="12"
     inkscape:window-x="0"
     inkscape:window-y="28"
     inkscape:window-maximized="0"
     inkscape:current-layer="svg9" />
  <defs
     id="defs3">
    <style
       id="current-color-scheme" />
  </defs>
  <path
     d="M 12,3 A 4.3800029,4.3800029 0 1 0 11.99,11.76 4.3800029,4.3800029 0 0 0 12,3 Z m 6.01,11.12 a 4.5,4.5 0 0 0 -4.5,4.5 4.5,4.5 0 0 0 4.5,4.5 4.5,4.5 0 0 0 4.5,-4.5 4.5,4.5 0 0 0 -4.5,-4.5 z M 12,14.69 c -8.77,0 -8.77,5.85 -8.77,5.85 V 22 h 10.45 a 5.5,5.5 0 0 1 -0.2,-0.28 5.5,5.5 0 0 1 -0.3,-0.47 5.5,5.5 0 0 1 -0.23,-0.49 5.5,5.5 0 0 1 -0.2,-0.52 5.5,5.5 0 0 1 -0.13,-0.53 5.5,5.5 0 0 1 -0.08,-0.54 5.5,5.5 0 0 1 -0.03,-0.55 5.5,5.5 0 0 1 0.02,-0.4 5.5,5.5 0 0 1 0.06,-0.54 5.5,5.5 0 0 1 0.12,-0.53 5.5,5.5 0 0 1 0.17,-0.52 5.5,5.5 0 0 1 0.23,-0.5 5.5,5.5 0 0 1 0.27,-0.48 5.5,5.5 0 0 1 0.32,-0.45 5.5,5.5 0 0 1 0.3,-0.34 c -0.63,-0.08 -1.24,-0.17 -2,-0.17 z m 5.37,0.71 h 1.28 v 1.29 h -1.28 z m 0,2.57 h 1.28 v 3.86 h -1.28 z"
     id="path860"
     inkscape:connector-curvature="0"
     style="color:#dfdfdf;fill:#5beedc;stroke-width:1.46000004" />
</svg>
