<svg xmlns="http://www.w3.org/2000/svg" width="24" height="24"><path d="M21.85 24.44c.67 1.06-1.1 1.43-1.76 1.11-1.8-.85-1.55-3.34-.46-4.64 1.96-2.31 5.55-1.82 7.51.2 2.88 2.97 2.11 7.8-.85 10.39-3.95 3.46-10.04 2.4-13.26-1.51-4.05-4.92-2.7-12.3 2.16-16.13 5.9-4.64 14.56-3 19.01 2.81 5.24 6.86 3.3 16.83-3.47 21.88-7.83 5.84-19.09 3.61-24.76-4.12-6.43-8.8-3.9-21.36 4.78-27.63 9.76-7.04 23.62-4.22 30.5 5.44 7.65 10.71 4.53 25.88-6.08 33.37" transform="matrix(.42168 0 0 .42804 1.91 1.68)" fill="none" stroke="#5beedc" stroke-width="3"/></svg>
