<?xml version="1.0" encoding="UTF-8" standalone="no"?>
<svg
   xmlns:dc="http://purl.org/dc/elements/1.1/"
   xmlns:cc="http://creativecommons.org/ns#"
   xmlns:rdf="http://www.w3.org/1999/02/22-rdf-syntax-ns#"
   xmlns:svg="http://www.w3.org/2000/svg"
   xmlns="http://www.w3.org/2000/svg"
   xmlns:sodipodi="http://sodipodi.sourceforge.net/DTD/sodipodi-0.dtd"
   xmlns:inkscape="http://www.inkscape.org/namespaces/inkscape"
   width="24"
   height="24"
   id="svg7"
   version="1.1"
   sodipodi:docname="view-user-offline-kopete.svg"
   inkscape:version="0.92.4 (5da689c313, 2019-01-14)">
  <metadata
     id="metadata8">
    <rdf:RDF>
      <cc:Work
         rdf:about="">
        <dc:format>image/svg+xml</dc:format>
        <dc:type
           rdf:resource="http://purl.org/dc/dcmitype/StillImage" />
        <dc:title></dc:title>
      </cc:Work>
    </rdf:RDF>
  </metadata>
  <sodipodi:namedview
     pagecolor="#ffffff"
     bordercolor="#666666"
     borderopacity="1"
     objecttolerance="10"
     gridtolerance="10"
     guidetolerance="10"
     inkscape:pageopacity="0"
     inkscape:pageshadow="2"
     inkscape:window-width="1078"
     inkscape:window-height="480"
     id="namedview6"
     showgrid="false"
     inkscape:zoom="9.8333333"
     inkscape:cx="-0.81355932"
     inkscape:cy="12"
     inkscape:window-x="0"
     inkscape:window-y="28"
     inkscape:window-maximized="0"
     inkscape:current-layer="svg7" />
  <defs
     id="defs3">
    <style
       id="current-color-scheme" />
  </defs>
  <path
     d="m 9.25,3.56 a 4.13,4.13 0 1 0 0,8.25 4.13,4.13 0 0 0 0,-8.25 z m 6.87,2.68 c -0.53,0 -1.03,0.13 -1.49,0.33 a 5.46,5.46 0 0 1 -1.5,5 c 0.63,0.97 1.72,1.61 2.99,1.61 a 3.52,3.52 0 0 0 3.57,-3.47 c 0,-1.92 -1.6,-3.47 -3.57,-3.47 z M 9.25,14.56 C 1,14.56 1,20.06 1,20.06 v 1.38 h 16.5 v -1.38 c 0,0 0,-5.51 -8.25,-5.5 z m 6.88,0 c -0.27,0 -0.52,0.02 -0.77,0.03 0.96,0.55 1.7,1.2 2.21,1.9 1.3,1.73 1.3,3.57 1.3,3.57 H 23 v -1.38 c 0,0 0,-4.12 -6.88,-4.12 z"
     id="path5"
     inkscape:connector-curvature="0"
     style="color:#dfdfdf;fill:#5beedc;stroke-width:1.38" />
</svg>
