<?xml version="1.0" encoding="UTF-8" standalone="no"?>
<svg
   xmlns:dc="http://purl.org/dc/elements/1.1/"
   xmlns:cc="http://creativecommons.org/ns#"
   xmlns:rdf="http://www.w3.org/1999/02/22-rdf-syntax-ns#"
   xmlns:svg="http://www.w3.org/2000/svg"
   xmlns="http://www.w3.org/2000/svg"
   xmlns:sodipodi="http://sodipodi.sourceforge.net/DTD/sodipodi-0.dtd"
   xmlns:inkscape="http://www.inkscape.org/namespaces/inkscape"
   width="24"
   height="24"
   id="svg11"
   version="1.1"
   sodipodi:docname="itmages-error.svg"
   inkscape:version="0.92.4 (5da689c313, 2019-01-14)">
  <metadata
     id="metadata8">
    <rdf:RDF>
      <cc:Work
         rdf:about="">
        <dc:format>image/svg+xml</dc:format>
        <dc:type
           rdf:resource="http://purl.org/dc/dcmitype/StillImage" />
        <dc:title></dc:title>
      </cc:Work>
    </rdf:RDF>
  </metadata>
  <sodipodi:namedview
     pagecolor="#ffffff"
     bordercolor="#666666"
     borderopacity="1"
     objecttolerance="10"
     gridtolerance="10"
     guidetolerance="10"
     inkscape:pageopacity="0"
     inkscape:pageshadow="2"
     inkscape:window-width="1366"
     inkscape:window-height="683"
     id="namedview6"
     showgrid="false"
     inkscape:zoom="21.583333"
     inkscape:cx="-3.9845562"
     inkscape:cy="12"
     inkscape:window-x="0"
     inkscape:window-y="28"
     inkscape:window-maximized="1"
     inkscape:current-layer="svg11" />
  <defs
     id="defs3">
    <style
       id="current-color-scheme" />
  </defs>
  <path
     style="fill:#5beedc;stroke-width:1.10368061"
     d="M 12.044922,1.3613281 8.8886719,4.4960938 H 4.4394531 v 4.4589843 l -3.0898437,3.0781249 3.0898437,3.089844 v 4.361328 h 4.3613281 l 3.1445308,3.144531 3.146485,-3.144531 h 4.457031 V 15.025391 L 22.640625,11.933594 19.548828,8.84375 V 4.4960938 h -4.36914 z m -0.111328,4.7851563 a 0.93,0.93 0 0 1 0.08984,0 0.93,0.93 0 0 1 0.238281,0.033203 c 0.565,0.13 0.839281,0.7686876 0.738281,1.3046875 -0.198,2.2629995 -0.468672,4.5152501 -0.638672,6.7812501 h -0.65625 c -0.205,-2.359999 -0.47775,-4.6949215 -0.71875,-7.0449219 0,-0.074 0.0056,-0.1477031 0.01758,-0.2207031 0.056,-0.434 0.419938,-0.7678437 0.835938,-0.8398438 v -0.00195 a 0.93,0.93 0 0 1 0.09375,-0.011719 z m 0.0039,9.5449216 a 0.969,0.969 0 0 1 0.04102,0 c 0.397,-0.001 0.801375,0.213078 0.984375,0.580078 0.325,0.57 -0.01239,1.370203 -0.650391,1.533204 -0.656,0.222 -1.426391,-0.329344 -1.400391,-1.027344 a 1.069,1.069 0 0 1 0.410157,-0.837891 0.969,0.969 0 0 1 0.615234,-0.248047 z"
     id="path817"
     inkscape:connector-curvature="0" />
</svg>
