<?xml version="1.0" encoding="UTF-8" standalone="no"?>
<svg
   xmlns:dc="http://purl.org/dc/elements/1.1/"
   xmlns:cc="http://creativecommons.org/ns#"
   xmlns:rdf="http://www.w3.org/1999/02/22-rdf-syntax-ns#"
   xmlns:svg="http://www.w3.org/2000/svg"
   xmlns="http://www.w3.org/2000/svg"
   xmlns:sodipodi="http://sodipodi.sourceforge.net/DTD/sodipodi-0.dtd"
   xmlns:inkscape="http://www.inkscape.org/namespaces/inkscape"
   width="24"
   height="24"
   viewBox="0 0 6.35 6.35"
   version="1.1"
   id="svg4"
   sodipodi:docname="system-upgrade.svg"
   inkscape:version="0.92.4 (5da689c313, 2019-01-14)">
  <metadata
     id="metadata10">
    <rdf:RDF>
      <cc:Work
         rdf:about="">
        <dc:format>image/svg+xml</dc:format>
        <dc:type
           rdf:resource="http://purl.org/dc/dcmitype/StillImage" />
        <dc:title></dc:title>
      </cc:Work>
    </rdf:RDF>
  </metadata>
  <defs
     id="defs8" />
  <sodipodi:namedview
     pagecolor="#ffffff"
     bordercolor="#666666"
     borderopacity="1"
     objecttolerance="10"
     gridtolerance="10"
     guidetolerance="10"
     inkscape:pageopacity="0"
     inkscape:pageshadow="2"
     inkscape:window-width="1078"
     inkscape:window-height="480"
     id="namedview6"
     showgrid="false"
     inkscape:zoom="9.8333333"
     inkscape:cx="-0.81355932"
     inkscape:cy="12"
     inkscape:window-x="0"
     inkscape:window-y="28"
     inkscape:window-maximized="0"
     inkscape:current-layer="svg4" />
  <path
     d="M 3.1704171,0.26458333 2.8954407,0.28291509 2.7304549,1.1536736 A 2.0806546,2.0806546 0 0 0 2.336322,1.2819959 L 1.6947105,0.6770479 A 2.8689202,2.8689202 0 0 0 1.2547483,1.0070196 L 1.6305493,1.804451 A 2.0989864,2.0989864 0 0 0 1.3830706,2.1435886 L 0.52147795,2.0244322 A 2.8689202,2.8689202 0 0 0 0.34732625,2.5560531 L 1.1172601,2.9685177 a 1.9981617,1.9981617 0 0 0 -0.018332,0.2108152 c 0,0.064161 0,0.1374882 0.018332,0.2016494 L 0.34732625,3.8026127 a 2.8414226,2.8414226 0 0 0 0.1741517,0.531621 L 1.3830706,4.2150773 c 0.073327,0.1191564 0.15582,0.229147 0.2474787,0.3391375 L 1.2639142,5.3424804 C 1.3922365,5.4616369 1.5388906,5.5807933 1.6947105,5.681618 L 2.336322,5.0675041 c 0.1191565,0.054995 0.2566447,0.091659 0.3941329,0.1283223 l 0.1741517,0.8707585 a 2.9514131,2.9514131 0 0 0 0.5499527,0 L 3.6195451,5.1958264 C 3.7570333,5.1683287 3.8945215,5.1224993 4.013678,5.0675041 L 4.6552895,5.681618 C 4.8111094,5.5899592 4.9577635,5.4616369 5.0952517,5.3424804 L 4.7194507,4.5542148 C 4.8111094,4.4442243 4.8936024,4.3342337 4.9669294,4.2150773 L 5.828522,4.3250678 A 2.8689202,2.8689202 0 0 0 6.0026738,3.7934468 L 5.2327399,3.3809823 a 1.9248346,1.9248346 0 0 0 0,-0.4124646 L 6.0026738,2.5560531 A 2.8689202,2.8689202 0 0 0 5.828522,2.0244322 L 4.9669294,2.1435886 A 2.0989864,2.0989864 0 0 0 4.7194507,1.804451 L 5.0860858,1.0161854 A 2.8689202,2.8689202 0 0 0 4.6644554,0.6770479 L 4.0228438,1.2819959 A 2.0806546,2.0806546 0 0 0 3.6195451,1.1536736 L 3.4453934,0.28291509 a 2.9514131,2.9514131 0 0 0 -0.2749763,-0.009166 z m 0,1.66819007 A 1.2465596,1.2465596 0 0 1 3.6745404,4.315902 L 3.8211945,3.399314 H 4.3253178 L 3.1704171,2.0061004 2.0246822,3.399314 H 2.5288055 L 2.6754596,4.315902 A 1.2465596,1.2465596 0 0 1 3.1704171,1.9327734 Z"
     id="path2"
     inkscape:connector-curvature="0"
     style="fill:#5beedc;stroke-width:0.91658795" />
</svg>
