<?xml version="1.0" encoding="UTF-8" standalone="no"?>
<svg
   xmlns:dc="http://purl.org/dc/elements/1.1/"
   xmlns:cc="http://creativecommons.org/ns#"
   xmlns:rdf="http://www.w3.org/1999/02/22-rdf-syntax-ns#"
   xmlns:svg="http://www.w3.org/2000/svg"
   xmlns="http://www.w3.org/2000/svg"
   xmlns:sodipodi="http://sodipodi.sourceforge.net/DTD/sodipodi-0.dtd"
   xmlns:inkscape="http://www.inkscape.org/namespaces/inkscape"
   width="24"
   height="24"
   version="1.1"
   id="svg7"
   sodipodi:docname="atmosphere.svg"
   inkscape:version="0.92.4 (5da689c313, 2019-01-14)">
  <metadata
     id="metadata11">
    <rdf:RDF>
      <cc:Work
         rdf:about="">
        <dc:format>image/svg+xml</dc:format>
        <dc:type
           rdf:resource="http://purl.org/dc/dcmitype/StillImage" />
        <dc:title></dc:title>
      </cc:Work>
    </rdf:RDF>
  </metadata>
  <sodipodi:namedview
     pagecolor="#ffffff"
     bordercolor="#666666"
     borderopacity="1"
     objecttolerance="10"
     gridtolerance="10"
     guidetolerance="10"
     inkscape:pageopacity="0"
     inkscape:pageshadow="2"
     inkscape:window-width="1078"
     inkscape:window-height="480"
     id="namedview9"
     showgrid="false"
     inkscape:zoom="9.8333333"
     inkscape:cx="-0.81355932"
     inkscape:cy="12"
     inkscape:window-x="0"
     inkscape:window-y="28"
     inkscape:window-maximized="0"
     inkscape:current-layer="svg7" />
  <defs
     id="defs3">
    <style
       id="current-color-scheme" />
  </defs>
  <path
     d="m 12,5 a 7,7 0 0 0 -7,7 7,7 0 0 0 7,7 7,7 0 0 0 7,-7 7,7 0 0 0 -7,-7 z m 0,2 c 0.17,0 0.33,0.02 0.5,0.04 h 0.04 a 5,5 0 0 1 0.3,0.04 6.6,6.6 0 0 1 1.1,0.33 l 0.37,0.19 v 0.03 c 0.03,0.01 0.05,0.07 0.1,0.1 l 0.03,0.03 c 0.03,0.01 0.07,0.03 0.06,0.06 0,0.04 -0.07,0.03 -0.1,0.06 0.01,0.06 -0.04,0.05 -0.06,0.1 0.01,0.02 0.06,0.03 0.07,0.06 0,0.03 -0.08,0.02 -0.07,0.06 0.06,0.04 0.1,0 0.16,0 0.11,-0.02 0.21,-0.01 0.28,-0.06 0,-0.06 0.1,-0.05 0.1,-0.1 L 14.97,8 14.94,8.04 c -0.02,0 -0.05,0.01 -0.06,0.03 l -0.1,0.06 c -0.02,0.01 -0.07,0.1 -0.1,0.1 L 14.59,8.19 c -0.03,0.01 -0.02,0.05 -0.06,0.06 -0.06,0.03 -0.2,-0.03 -0.22,0.07 0.03,0.05 0.14,0.03 0.19,0.06 0.03,0.02 0.09,0.09 0.1,0.12 v 0.2 c -0.04,0.07 -0.13,0.06 -0.22,0.05 h -0.07 c -0.15,0 -0.3,-0.08 -0.37,0.04 0,0.08 0.02,0.14 0,0.21 -0.02,0.06 -0.1,0.11 -0.1,0.16 0,0.02 0.06,0.06 0.07,0.1 v 0.06 c 0.02,0.05 0.08,-0.01 0.12,0 0.05,0 0.1,0.07 0.1,0.12 0,0.03 -0.01,0.1 -0.04,0.12 -0.04,0.07 -0.12,0.06 -0.18,0.1 -0.06,0.03 -0.07,0.1 -0.1,0.15 -0.03,0.06 -0.07,0.08 -0.06,0.16 a 0.37,0.37 0 0 1 -0.19,0.19 c -0.02,0.01 -0.07,0.01 -0.1,0.03 l -0.05,0.1 -0.1,0.09 -0.03,0.1 c -0.02,0.03 -0.06,0.04 -0.1,0.09 l -0.02,0.09 c -0.04,0.06 -0.07,0.1 -0.07,0.16 0,0.04 0.06,0.05 0.07,0.09 0,0.02 -0.04,0.04 -0.04,0.06 0,0.04 0.03,0.07 0.04,0.1 0,0.07 -0.05,0.1 -0.07,0.15 v 0.06 c 0,0.04 -0.06,0.08 -0.06,0.13 0,0.03 0.06,0.05 0.06,0.1 l -0.03,0.09 c 0.01,0.05 0.12,0.11 0.16,0.15 0.06,0.06 0.13,0.1 0.15,0.16 0.03,0.05 0.03,0.15 0.07,0.19 0.03,0.02 0.09,0.03 0.12,0.06 l 0.1,0.06 c 0.06,0.05 0.15,0.16 0.25,0.16 0.05,-0.01 0.1,-0.06 0.15,-0.07 l 0.19,-0.03 c 0.05,0.01 0.1,0.04 0.16,0.03 0.05,0 0.1,0 0.15,-0.03 0.1,-0.04 0.26,-0.11 0.4,-0.1 0.12,0.03 0.12,0.15 0.2,0.2 0.08,0 0.15,-0.02 0.21,0 0.06,0.01 0.13,0.08 0.13,0.12 0,0.04 -0.06,0.1 -0.06,0.13 -0.02,0.05 0,0.12 0,0.15 l -0.03,0.1 c 0,0.02 0.03,0.09 0.06,0.12 l 0.12,0.13 c 0.08,0.08 0.1,0.17 0.16,0.28 v 0.1 c -0.02,0.16 -0.08,0.27 -0.19,0.46 -0.05,0.06 -0.12,0.11 -0.12,0.19 0,0.18 0.1,0.3 0.1,0.47 -0.03,0.23 0,0.25 0,0.37 0.07,0.04 0.01,0.17 0,0.25 -0.04,0.1 -0.08,0.13 -0.1,0.2 h 0.19 a 5,5 0 0 1 -0.01,0 l -0.09,0.08 c -0.21,0.22 -0.46,0.42 -0.71,0.6 a 5,5 0 0 1 -0.07,0.04 c -0.2,0.13 -0.4,0.25 -0.62,0.35 a 5,5 0 0 1 -0.31,0.14 c -0.17,0.07 -0.35,0.12 -0.52,0.17 a 5,5 0 0 1 -0.93,0.16 7.62,7.62 0 0 1 -0.91,-0.02 5,5 0 0 1 -0.59,-0.1 c -0.23,-0.06 -0.46,-0.16 -0.68,-0.24 -0.01,-0.02 -0.04,-0.04 -0.03,-0.06 0.05,-0.03 0.15,0.07 0.18,0 0.02,-0.04 -0.02,-0.13 0,-0.16 0.02,-0.03 0.12,-0.03 0.16,-0.03 l 0.16,-0.03 c 0.03,-0.03 0.06,-0.1 0.06,-0.16 0,-0.03 -0.04,-0.04 -0.06,-0.06 -0.02,-0.03 0,-0.04 0,-0.06 -0.03,-0.04 -0.09,-0.05 -0.1,-0.1 0.07,-0.01 0.18,0.06 0.28,0.03 0.05,-0.01 0.14,-0.1 0.16,-0.15 v -0.06 l 0.03,-0.07 v -0.03 c 0.02,-0.05 0.07,-0.09 0.1,-0.12 l 0.09,-0.1 0.03,-0.06 c 0.01,-0.1 -0.05,-0.17 -0.03,-0.25 0.02,-0.09 0.16,-0.15 0.25,-0.19 l 0.1,-0.03 0.18,-0.06 c 0.1,-0.04 0.11,-0.1 0.16,-0.19 l 0.06,-0.12 V 14.5 14.41 L 12,14.22 c 0,-0.04 -0.03,-0.06 -0.03,-0.1 0,-0.12 0.04,-0.1 0.1,-0.18 l 0.05,-0.12 c 0.09,-0.12 0.23,-0.17 0.22,-0.35 0,-0.06 -0.05,-0.2 -0.09,-0.22 l -0.1,-0.03 c -0.11,-0.04 -0.21,-0.17 -0.34,-0.18 h -0.06 c -0.05,0 -0.1,-0.03 -0.16,-0.04 h -0.12 c -0.03,-0.01 -0.04,-0.07 -0.06,-0.09 l -0.1,-0.03 c -0.05,-0.02 -0.07,-0.06 -0.12,-0.06 h -0.06 l -0.1,-0.04 C 11,12.76 10.95,12.75 10.93,12.72 10.97,12.62 10.87,12.6 10.84,12.54 v -0.13 c 0,-0.04 -0.05,-0.06 -0.09,-0.1 a 0.37,0.37 0 0 0 -0.22,-0.09 h -0.15 a 0.35,0.35 0 0 1 -0.2,-0.1 C 10.15,12.08 10.13,12.02 10.09,12 L 10,11.94 c -0.01,0 -0.02,0 -0.03,-0.03 C 9.95,11.87 9.92,11.86 9.94,11.81 9.9,11.8 9.92,11.85 9.88,11.85 9.84,11.79 9.81,11.74 9.72,11.75 c -0.04,0.01 -0.08,0.1 -0.13,0.1 -0.04,0 -0.07,-0.09 -0.12,-0.1 -0.04,0 -0.1,0.04 -0.13,0.04 C 9.3,11.78 9.29,11.75 9.25,11.72 9.22,11.7 9.17,11.66 9.15,11.66 9.11,11.66 9.07,11.76 9,11.72 8.97,11.68 9.07,11.67 9.03,11.62 9,11.6 8.99,11.65 8.97,11.66 8.94,11.68 8.91,11.68 8.87,11.69 l -0.18,0.06 a 0.19,0.19 0 0 0 -0.1,0.1 C 8.57,11.89 8.53,11.97 8.5,11.97 8.46,11.97 8.44,11.93 8.4,11.91 8.3,11.86 8.22,11.94 8.12,11.94 8.04,11.94 7.9,11.81 7.91,11.72 L 7.94,11.54 C 7.94,11.48 8,11.42 8,11.38 8,11.32 7.88,11.29 7.84,11.28 c -0.09,-0.01 -0.2,0.05 -0.3,0 -0.03,-0.03 0.01,-0.05 0.02,-0.09 v -0.06 c 0.01,-0.03 0.08,-0.06 0.1,-0.1 v -0.09 c 0,-0.03 0.06,-0.07 0.06,-0.1 0,-0.03 -0.04,-0.06 -0.06,-0.09 -0.09,0.01 -0.14,0.01 -0.2,0.04 -0.1,0.05 -0.07,0.18 -0.18,0.22 A 1,1 0 0 1 7.16,11.04 H 7.1 a 5,5 0 0 1 0,-0.06 l 0.02,-0.04 a 5,5 0 0 1 0.32,-0.93 h 0.03 c 0.04,0 0.06,0.06 0.1,0.06 0.08,0 0.1,-0.09 0.18,-0.13 H 7.94 C 7.99,9.95 8.06,10 8.09,10 8.13,10 8.13,9.97 8.16,9.97 c 0.03,0.01 0.09,0.06 0.09,0.1 0,0.04 -0.04,0.1 -0.03,0.15 0.05,0.05 0.15,0.07 0.22,0.1 0.04,-0.04 0,-0.1 0,-0.16 v -0.1 L 8.41,9.97 C 8.41,9.83 8.53,9.77 8.62,9.72 8.67,9.7 8.72,9.65 8.75,9.62 8.8,9.6 8.83,9.62 8.88,9.6 L 9.06,9.44 c 0.03,-0.06 0,-0.15 0,-0.22 h 0.1 c 0.04,0 0.06,-0.06 0.09,-0.1 0.01,0 0.04,0 0.06,-0.02 C 9.36,9.06 9.37,9.02 9.41,9 A 0.28,0.28 0 0 1 9.47,8.97 L 9.59,8.94 9.72,8.91 V 8.81 C 9.74,8.71 9.9,8.7 10,8.66 c 0.07,-0.03 0.14,-0.1 0.22,-0.1 -0.02,0.06 -0.08,0.07 -0.06,0.13 0.01,0.1 0.12,-0.02 0.15,-0.03 l 0.25,-0.1 c 0.07,-0.02 0.2,-0.04 0.13,-0.12 -0.06,0 -0.08,0.04 -0.13,0.06 C 10.53,8.51 10.53,8.47 10.5,8.47 10.47,8.47 10.46,8.51 10.44,8.5 10.41,8.5 10.38,8.44 10.38,8.4 10.36,8.32 10.43,8.31 10.47,8.25 10.45,8.18 10.35,8.22 10.28,8.19 c 0,-0.04 0.04,-0.08 0.1,-0.1 0.04,0 0.16,0.02 0.18,0.04 0.02,0.01 -0.02,0.04 0,0.06 0.03,0.02 0.06,0.01 0.1,0 0,-0.06 -0.08,-0.02 -0.07,-0.06 0.07,-0.05 0.2,-0.02 0.29,-0.03 a 0.7,0.7 0 0 0 0.15,-0.06 c 0.04,-0.03 0.05,-0.07 0.1,-0.04 0,0.05 -0.01,0.08 -0.04,0.1 -0.07,0.07 -0.16,0.14 -0.21,0.22 0.03,0.03 0.09,0.02 0.15,0.03 h 0.19 c 0.04,0 0.05,0.1 0.1,0.1 0.06,0 0.03,-0.09 0,-0.13 0,-0.05 0.04,-0.1 0.02,-0.13 -0.03,-0.06 -0.15,0.02 -0.15,-0.06 0,-0.05 0.04,-0.06 0.06,-0.1 0,-0.1 0.07,-0.1 0.06,-0.18 0,-0.04 -0.04,-0.03 -0.06,-0.06 l -0.03,-0.1 c -0.05,-0.04 -0.15,0 -0.16,-0.1 V 7.44 c 0,-0.05 -0.05,-0.2 -0.1,-0.22 -0.05,0 -0.08,0.1 -0.15,0.13 A 0.37,0.37 0 0 1 10.66,7.38 C 10.63,7.37 10.6,7.36 10.59,7.32 c 0,-0.05 0.05,-0.07 0.07,-0.1 V 7.2 l 0.07,-0.02 a 5,5 0 0 1 0.32,-0.07 h 0.04 A 4.85,4.85 0 0 1 12,7 Z M 9.97,7.47 C 9.94,7.66 9.77,7.73 9.57,7.72 9.52,7.77 9.56,7.85 9.53,7.91 9.51,7.96 9.43,8.01 9.38,8.01 9.34,8.01 9.28,7.95 9.28,7.91 9.28,7.87 9.35,7.87 9.31,7.81 L 9.34,7.79 9.41,7.75 Z m 4.19,0.19 -0.04,0.03 -0.09,0.06 c -0.04,0.02 -0.09,0.03 -0.1,0.07 0,0.03 0.04,0.03 0.04,0.06 l -0.03,0.1 c 0.05,0.08 0.15,-0.03 0.22,-0.04 0.02,0 0.04,0 0.06,-0.03 0.02,-0.03 0.02,-0.06 0.03,-0.1 0.01,-0.04 0.07,-0.05 0.06,-0.09 0,-0.04 -0.1,-0.07 -0.15,-0.06 z M 8.69,8.29 C 8.73,8.32 8.8,8.41 8.72,8.44 A 0.54,0.54 0 0 1 8.56,8.47 L 8.53,8.44 Z M 8.88,8.47 C 8.9,8.47 8.91,8.53 8.94,8.54 8.96,8.54 8.98,8.5 9,8.5 9.04,8.52 9.07,8.6 9.03,8.63 9,8.63 8.99,8.59 8.97,8.6 8.9,8.61 8.87,8.76 8.81,8.75 8.76,8.75 8.73,8.63 8.78,8.6 V 8.54 C 8.8,8.52 8.84,8.47 8.88,8.47 Z M 8.62,8.5 H 8.66 C 8.65,8.56 8.63,8.57 8.59,8.6 8.52,8.64 8.46,8.7 8.44,8.79 8.44,8.81 8.34,8.89 8.31,8.88 8.23,8.86 8.36,8.71 8.37,8.69 L 8.44,8.63 8.5,8.53 A 0.25,0.25 0 0 1 8.63,8.5 Z m 6.79,0.16 c 0.08,-0.01 0.12,0.08 0.15,0.13 0.03,0.03 0.11,0.1 0.16,0.12 0.03,0.02 0.06,0.05 0.1,0.06 C 15.88,9 16,9.1 16,9.16 c 0,0.03 -0.04,0.06 -0.03,0.1 0.05,0 0.1,-0.08 0.1,-0.13 l 0.24,0.4 c 0.04,0.07 0.1,0.13 0.13,0.2 -0.05,0 -0.06,0.01 -0.07,0.06 0,0.05 0.03,0.14 -0.06,0.15 C 16.26,9.95 16.2,9.9 16.13,9.88 h -0.1 C 15.98,9.86 15.98,9.78 15.93,9.75 A 0.5,0.5 0 0 0 15.78,9.69 h -0.06 c -0.04,0 -0.1,0.02 -0.13,0 A 0.32,0.32 0 0 1 15.5,9.59 C 15.49,9.56 15.6,9.54 15.6,9.5 L 15.56,9.41 V 9.35 c 0,-0.03 -0.05,-0.03 -0.1,-0.03 h -0.58 a 0.62,0.62 0 0 0 -0.2,0.06 L 14.63,9.41 A 0.45,0.45 0 0 1 14.56,9.44 C 14.54,9.45 14.5,9.5 14.46,9.5 h -0.15 c -0.05,0 -0.12,-0.03 -0.12,-0.09 0,-0.1 0.16,-0.05 0.25,-0.06 l 0.1,-0.06 0.02,-0.04 c 0.03,-0.02 0.1,-0.07 0.1,-0.09 V 9.1 c 0,-0.02 0.03,-0.04 0.06,-0.06 0.04,-0.05 0.07,-0.1 0.12,-0.13 0.04,-0.02 0.08,-0.03 0.1,-0.06 V 8.79 A 0.13,0.13 0 0 1 15,8.76 c 0.05,-0.02 0.1,0 0.16,0 h 0.09 l 0.06,-0.07 a 0.25,0.25 0 0 1 0.1,-0.03 z m 0.56,0.6 h -0.13 c -0.04,0 -0.1,-0.03 -0.12,0 0.04,0.05 0.1,0.07 0.19,0.09 a 0.2,0.2 0 0 0 0.06,-0.1 z M 9.12,8.69 H 9.28 C 9.27,8.76 9.11,8.75 9.06,8.72 9.06,8.7 9.09,8.7 9.12,8.69 Z M 8.91,8.82 C 8.86,8.85 8.81,8.89 8.75,8.91 8.71,8.92 8.66,8.92 8.65,8.88 8.65,8.83 8.72,8.85 8.75,8.85 8.79,8.84 8.85,8.82 8.91,8.82 Z m 6.5,0 c -0.04,0 -0.05,0.08 0,0.09 0.02,-0.01 0.03,-0.05 0.03,-0.1 H 15.41 Z M 15.34,8.97 V 9.13 C 15.38,9.19 15.45,9.14 15.47,9.1 15.49,9 15.45,8.96 15.41,8.97 c -0.02,0.01 -0.05,-0.01 -0.07,0 z m -8.28,2.35 c 0.06,0.05 0.1,0.12 0.16,0.15 a 0.5,0.5 0 0 0 0.1,0.03 h 0.05 l 0.16,0.07 c 0.07,0.02 0.13,0.12 0.19,0.15 v 0.1 a 0.3,0.3 0 0 0 0.1,0.09 l 0.12,0.1 c 0.01,0 0.03,-0.02 0.06,0 0.07,0.01 0.1,0.1 0.16,0.09 0.03,-0.01 0.02,-0.06 0.03,-0.1 0.02,-0.02 0.05,-0.06 0.1,-0.06 0.05,0 0.06,0.1 0.09,0.16 0,0.03 0.05,0.06 0.06,0.1 v 0.27 c -0.02,0.05 -0.09,0.05 -0.13,0.1 -0.02,0.02 -0.01,0.07 -0.03,0.09 l -0.06,0.06 a 0.45,0.45 0 0 0 -0.03,0.07 c -0.03,0.06 -0.09,0.1 -0.06,0.18 0,0.03 0.06,0.06 0.06,0.1 0,0.04 -0.09,0.07 -0.1,0.12 0,0.04 0.02,0.08 0.04,0.13 0,0.03 0.07,0.07 0.09,0.09 l 0.1,0.16 c 0.06,0.1 0.09,0.21 0.15,0.3 0.03,0.06 0.1,0.08 0.12,0.13 v 0.1 c 0.04,0.08 0.2,0.18 0.29,0.22 0.03,0.02 0.09,0 0.12,0.03 0.05,0.03 0.16,0.1 0.19,0.15 0.02,0.05 0.02,0.16 0.03,0.22 v 0.25 c 0,0.05 0.03,0.08 0.03,0.13 v 0.38 c 0,0.02 0.03,0.03 0.03,0.06 l -0.03,0.09 c 0,0.06 0.05,0.1 0.06,0.16 0.01,0.04 0.04,0.16 0.03,0.21 l -0.03,0.1 v 0.11 A 5,5 0 0 1 9.2,16.15 5.2,5.2 0 0 1 8.47,15.54 l -0.1,-0.1 C 8.19,15.25 8.02,15.04 7.87,14.82 A 4.81,4.81 0 0 1 7.4,13.95 C 7.4,13.92 7.38,13.9 7.37,13.88 A 5.02,5.02 0 0 1 7.07,11.32 Z M 9,11.85 c 0.05,-0.02 0.04,0.05 0,0.06 -0.04,0.01 -0.04,-0.04 0,-0.06 z"
     id="path5"
     inkscape:connector-curvature="0"
     style="color:#5beedc;fill:#5beedc" />
</svg>
