<?xml version="1.0" encoding="UTF-8" standalone="no"?>
<svg
   xmlns:dc="http://purl.org/dc/elements/1.1/"
   xmlns:cc="http://creativecommons.org/ns#"
   xmlns:rdf="http://www.w3.org/1999/02/22-rdf-syntax-ns#"
   xmlns:svg="http://www.w3.org/2000/svg"
   xmlns="http://www.w3.org/2000/svg"
   xmlns:sodipodi="http://sodipodi.sourceforge.net/DTD/sodipodi-0.dtd"
   xmlns:inkscape="http://www.inkscape.org/namespaces/inkscape"
   width="24"
   height="24"
   version="1.1"
   viewBox="0 0 24 24"
   id="svg7"
   sodipodi:docname="torrents.svg"
   inkscape:version="0.92.4 (5da689c313, 2019-01-14)">
  <metadata
     id="metadata11">
    <rdf:RDF>
      <cc:Work
         rdf:about="">
        <dc:format>image/svg+xml</dc:format>
        <dc:type
           rdf:resource="http://purl.org/dc/dcmitype/StillImage" />
        <dc:title></dc:title>
      </cc:Work>
    </rdf:RDF>
  </metadata>
  <sodipodi:namedview
     pagecolor="#ffffff"
     bordercolor="#666666"
     borderopacity="1"
     objecttolerance="10"
     gridtolerance="10"
     guidetolerance="10"
     inkscape:pageopacity="0"
     inkscape:pageshadow="2"
     inkscape:window-width="1078"
     inkscape:window-height="480"
     id="namedview9"
     showgrid="false"
     inkscape:zoom="9.8333333"
     inkscape:cx="-0.81355932"
     inkscape:cy="12"
     inkscape:window-x="0"
     inkscape:window-y="28"
     inkscape:window-maximized="0"
     inkscape:current-layer="svg7" />
  <defs
     id="defs3">
    <style
       id="current-color-scheme"
       type="text/css">
   .ColorScheme-Text { color:#5beedc; } .ColorScheme-Highlight { color:#4285f4; }
  </style>
  </defs>
  <path
     style="color:#5beedc;fill:#5beedc;stroke-width:1.125"
     class="ColorScheme-Text"
     d="m 12,3 a 9,9 0 0 0 -9,9 9,9 0 0 0 9,9 9,9 0 0 0 9,-9 9,9 0 0 0 -9,-9 z m -1.125,3.3750002 v 3.3728028 0.011025 4.491211 c 0,1.125 -1.125,1.125 -1.125,1.125 0,0 -1.125,0 -1.125,-1.125 V 9.7522366 h -2.25 l 4.5,-3.3771974 z m 3.375,2.2499999 c 0,0 1.125,0 1.125,1.1249999 v 4.497803 h 2.25 L 13.125,17.625 V 14.252197 14.241172 9.7499619 C 13.125,8.624962 14.25,8.624962 14.25,8.624962 Z"
     id="path5"
     inkscape:connector-curvature="0" />
</svg>
