<?xml version="1.0" encoding="UTF-8" standalone="no"?>
<svg
   xmlns:dc="http://purl.org/dc/elements/1.1/"
   xmlns:cc="http://creativecommons.org/ns#"
   xmlns:rdf="http://www.w3.org/1999/02/22-rdf-syntax-ns#"
   xmlns:svg="http://www.w3.org/2000/svg"
   xmlns="http://www.w3.org/2000/svg"
   xmlns:sodipodi="http://sodipodi.sourceforge.net/DTD/sodipodi-0.dtd"
   xmlns:inkscape="http://www.inkscape.org/namespaces/inkscape"
   width="24"
   height="24"
   version="1.1"
   id="svg4"
   sodipodi:docname="transform-crop.svg"
   inkscape:version="0.92.4 (5da689c313, 2019-01-14)">
  <metadata
     id="metadata10">
    <rdf:RDF>
      <cc:Work
         rdf:about="">
        <dc:format>image/svg+xml</dc:format>
        <dc:type
           rdf:resource="http://purl.org/dc/dcmitype/StillImage" />
        <dc:title></dc:title>
      </cc:Work>
    </rdf:RDF>
  </metadata>
  <defs
     id="defs8" />
  <sodipodi:namedview
     pagecolor="#ffffff"
     bordercolor="#666666"
     borderopacity="1"
     objecttolerance="10"
     gridtolerance="10"
     guidetolerance="10"
     inkscape:pageopacity="0"
     inkscape:pageshadow="2"
     inkscape:window-width="1078"
     inkscape:window-height="480"
     id="namedview6"
     showgrid="false"
     inkscape:zoom="9.8333333"
     inkscape:cx="-0.81355932"
     inkscape:cy="12"
     inkscape:window-x="0"
     inkscape:window-y="28"
     inkscape:window-maximized="0"
     inkscape:current-layer="svg4" />
  <path
     d="m 18.1,1.64 a 0.66,0.66 0 0 0 -0.57,0.24 l -4.26,5.24 c -0.23,0.28 -0.2,0.7 0.1,0.93 l 3.82,3.11 c 0.28,0.23 0.7,0.2 0.93,-0.1 L 22.38,5.83 A 0.66,0.66 0 0 0 22.28,4.91 L 18.46,1.79 A 0.66,0.66 0 0 0 18.1,1.64 Z m -4.45,7.2 -1.21,1.47 -0.77,-0.48 -10.2,12.53 c 3.54,-0.7 12.28,-4.07 13.7,-5.66 -0.28,-0.74 -2.08,-1.31 0.55,-3.99 0.38,0.2 -0.24,-0.28 -1.14,-0.93 l 1.06,-1.3 z"
     id="path2"
     inkscape:connector-curvature="0"
     style="fill:#5beedc;paint-order:markers fill stroke" />
</svg>
