<?xml version="1.0" encoding="UTF-8" standalone="no"?>
<svg
   xmlns:dc="http://purl.org/dc/elements/1.1/"
   xmlns:cc="http://creativecommons.org/ns#"
   xmlns:rdf="http://www.w3.org/1999/02/22-rdf-syntax-ns#"
   xmlns:svg="http://www.w3.org/2000/svg"
   xmlns="http://www.w3.org/2000/svg"
   xmlns:sodipodi="http://sodipodi.sourceforge.net/DTD/sodipodi-0.dtd"
   xmlns:inkscape="http://www.inkscape.org/namespaces/inkscape"
   width="24"
   height="24"
   version="1.1"
   id="svg4"
   sodipodi:docname="zoom-original.svg"
   inkscape:version="0.92.4 (5da689c313, 2019-01-14)">
  <metadata
     id="metadata10">
    <rdf:RDF>
      <cc:Work
         rdf:about="">
        <dc:format>image/svg+xml</dc:format>
        <dc:type
           rdf:resource="http://purl.org/dc/dcmitype/StillImage" />
        <dc:title></dc:title>
      </cc:Work>
    </rdf:RDF>
  </metadata>
  <defs
     id="defs8" />
  <sodipodi:namedview
     pagecolor="#ffffff"
     bordercolor="#666666"
     borderopacity="1"
     objecttolerance="10"
     gridtolerance="10"
     guidetolerance="10"
     inkscape:pageopacity="0"
     inkscape:pageshadow="2"
     inkscape:window-width="1078"
     inkscape:window-height="480"
     id="namedview6"
     showgrid="false"
     inkscape:zoom="9.8333333"
     inkscape:cx="-0.81355932"
     inkscape:cy="12"
     inkscape:window-x="0"
     inkscape:window-y="28"
     inkscape:window-maximized="0"
     inkscape:current-layer="svg4" />
  <path
     d="m 1.55,9.74 2.8,2.79 2.78,-2.8 H 1.55 M 9.68,3.46 A 6.3,6.3 0 0 0 3.4,9.74 H 5.34 A 4.36,4.36 0 0 1 9.68,5.4 4.36,4.36 0 1 1 7.21,13.34 L 5.88,14.7 a 7.2,7.2 0 0 0 3.8,1.35 6.25,6.25 0 0 0 4.1,-1.52 l 0.26,0.27 v 0.76 l 4.84,4.83 1.44,-1.44 -4.83,-4.84 h -0.77 l -0.27,-0.27 a 6.23,6.23 0 0 0 1.53,-4.09 6.3,6.3 0 0 0 -6.3,-6.3 m 0,4.9 a 1.4,1.4 0 1 0 0,2.8 1.4,1.4 0 0 0 0,-2.8"
     id="path2"
     inkscape:connector-curvature="0"
     style="fill:#5beedc" />
</svg>
