<?xml version="1.0" encoding="UTF-8" standalone="no"?>
<svg
   xmlns:dc="http://purl.org/dc/elements/1.1/"
   xmlns:cc="http://creativecommons.org/ns#"
   xmlns:rdf="http://www.w3.org/1999/02/22-rdf-syntax-ns#"
   xmlns:svg="http://www.w3.org/2000/svg"
   xmlns="http://www.w3.org/2000/svg"
   xmlns:sodipodi="http://sodipodi.sourceforge.net/DTD/sodipodi-0.dtd"
   xmlns:inkscape="http://www.inkscape.org/namespaces/inkscape"
   width="24"
   height="24"
   viewBox="0 0 24 24"
   version="1.1"
   id="svg7"
   sodipodi:docname="window-duplicate.svg"
   inkscape:version="0.92.4 (5da689c313, 2019-01-14)">
  <metadata
     id="metadata11">
    <rdf:RDF>
      <cc:Work
         rdf:about="">
        <dc:format>image/svg+xml</dc:format>
        <dc:type
           rdf:resource="http://purl.org/dc/dcmitype/StillImage" />
        <dc:title></dc:title>
      </cc:Work>
    </rdf:RDF>
  </metadata>
  <sodipodi:namedview
     pagecolor="#ffffff"
     bordercolor="#666666"
     borderopacity="1"
     objecttolerance="10"
     gridtolerance="10"
     guidetolerance="10"
     inkscape:pageopacity="0"
     inkscape:pageshadow="2"
     inkscape:window-width="1078"
     inkscape:window-height="480"
     id="namedview9"
     showgrid="false"
     inkscape:zoom="9.8333333"
     inkscape:cx="-0.81355932"
     inkscape:cy="12"
     inkscape:window-x="0"
     inkscape:window-y="28"
     inkscape:window-maximized="0"
     inkscape:current-layer="svg7" />
  <defs
     id="defs3">
    <style
       id="current-color-scheme"
       type="text/css">
   .ColorScheme-Text { color:#5beedc; } .ColorScheme-Highlight { color:#4285f4; }
  </style>
  </defs>
  <path
     style="color:#5beedc;fill:#5beedc"
     class="ColorScheme-Text"
     d="m 6,5 c 0,0 -0.076241,0.00414 -0.1816406,0.023437 -0.2042,0.0302 -0.3586563,0.103425 -0.4726563,0.203125 -0.0221,0.0169 -0.043453,0.035088 -0.064453,0.054687 -0.0196,0.021 -0.037787,0.042353 -0.054687,0.064453 -0.0997,0.114 -0.172925,0.2684563 -0.203125,0.4726563 C 5.0041375,5.9237594 5,6 5,6 v 12 c 0,1 1,1 1,1 h 6 V 17 H 7 v -7 h 10 v 2 h 2 V 6 c 0,0 -0.0044,-0.076241 -0.02344,-0.1816406 -0.031,-0.2042 -0.103125,-0.3586563 -0.203124,-0.4726563 -0.017,-0.0221 -0.03569,-0.043453 -0.05469,-0.064453 -0.021,-0.0196 -0.04245,-0.037788 -0.06445,-0.054687 -0.114,-0.0997 -0.268656,-0.172925 -0.472656,-0.203125 C 18.075641,5.0041375 18,5 18,5 Z m 7.5,8 c 0,0 -0.03714,0.002 -0.08984,0.01172 -0.1021,0.0151 -0.179328,0.05176 -0.236328,0.101562 -0.0111,0.0085 -0.0227,0.01754 -0.0332,0.02734 -0.01,0.0105 -0.01884,0.0222 -0.02734,0.0332 -0.0498,0.057 -0.08646,0.134228 -0.101562,0.236328 C 13.001719,13.462856 13,13.5 13,13.5 v 6 c 0,0.5 0.5,0.5 0.5,0.5 h 6 c 0,0 0.5,0 0.5,-0.5 v -6 c 0,0 -0.0017,-0.03714 -0.01172,-0.08984 -0.015,-0.1021 -0.05156,-0.179328 -0.101562,-0.236328 -0.008,-0.011 -0.01734,-0.0227 -0.02734,-0.0332 -0.01,-0.0098 -0.0222,-0.01884 -0.0332,-0.02734 -0.057,-0.0498 -0.134328,-0.08646 -0.236328,-0.101562 C 19.536844,13.002019 19.5,13 19.5,13 Z m 0.5,3 h 5 v 3 h -5 z"
     id="path5"
     inkscape:connector-curvature="0" />
</svg>
