<?xml version="1.0" encoding="UTF-8" standalone="no"?>
<svg
   xmlns:dc="http://purl.org/dc/elements/1.1/"
   xmlns:cc="http://creativecommons.org/ns#"
   xmlns:rdf="http://www.w3.org/1999/02/22-rdf-syntax-ns#"
   xmlns:svg="http://www.w3.org/2000/svg"
   xmlns="http://www.w3.org/2000/svg"
   xmlns:sodipodi="http://sodipodi.sourceforge.net/DTD/sodipodi-0.dtd"
   xmlns:inkscape="http://www.inkscape.org/namespaces/inkscape"
   width="48"
   height="48"
   viewBox="0 0 12.7 12.7"
   version="1.1"
   id="svg6"
   sodipodi:docname="notification-display-brightness-low.svg"
   inkscape:version="0.92.4 (5da689c313, 2019-01-14)">
  <metadata
     id="metadata12">
    <rdf:RDF>
      <cc:Work
         rdf:about="">
        <dc:format>image/svg+xml</dc:format>
        <dc:type
           rdf:resource="http://purl.org/dc/dcmitype/StillImage" />
        <dc:title></dc:title>
      </cc:Work>
    </rdf:RDF>
  </metadata>
  <defs
     id="defs10" />
  <sodipodi:namedview
     pagecolor="#ffffff"
     bordercolor="#666666"
     borderopacity="1"
     objecttolerance="10"
     gridtolerance="10"
     guidetolerance="10"
     inkscape:pageopacity="0"
     inkscape:pageshadow="2"
     inkscape:window-width="1087"
     inkscape:window-height="480"
     id="namedview8"
     showgrid="false"
     inkscape:zoom="4.9166667"
     inkscape:cx="2.1355932"
     inkscape:cy="24"
     inkscape:window-x="0"
     inkscape:window-y="25"
     inkscape:window-maximized="0"
     inkscape:current-layer="svg6" />
  <path
     d="m 6.18,1.31 c -0.1,0 -0.17,0.08 -0.17,0.17 v 1 c 0,0.1 0.08,0.17 0.17,0.17 h 0.34 c 0.1,0 0.17,-0.07 0.17,-0.16 V 1.48 C 6.69,1.38 6.61,1.31 6.52,1.31 Z M 9.66,2.62 A 0.16,0.16 0 0 0 9.56,2.67 L 8.84,3.38 a 0.17,0.17 0 0 0 0,0.24 l 0.24,0.24 a 0.17,0.17 0 0 0 0.24,0 l 0.71,-0.72 a 0.17,0.17 0 0 0 0,-0.23 L 9.79,2.67 A 0.17,0.17 0 0 0 9.68,2.62 0.16,0.16 0 0 0 9.66,2.62 Z M 6.35,4 A 2.35,2.35 0 0 0 4,6.35 2.35,2.35 0 0 0 6.35,8.7 2.35,2.35 0 0 0 8.7,6.35 2.35,2.35 0 0 0 6.35,4 Z m 3.86,2 c -0.09,0 -0.16,0.08 -0.16,0.17 v 0.34 c 0,0.1 0.07,0.17 0.16,0.17 h 1.01 c 0.1,0 0.17,-0.08 0.17,-0.17 V 6.17 C 11.39,6.07 11.31,6 11.22,6 Z M 9.18,8.8 A 0.17,0.17 0 0 0 9.08,8.84 L 8.84,9.08 a 0.17,0.17 0 0 0 0,0.24 l 0.72,0.71 a 0.17,0.17 0 0 0 0.23,0 l 0.24,-0.24 a 0.17,0.17 0 0 0 0,-0.23 L 9.32,8.84 A 0.17,0.17 0 0 0 9.2,8.8 0.17,0.17 0 0 0 9.18,8.8 Z m -3,1.25 c -0.1,0 -0.17,0.07 -0.17,0.16 v 1.01 c 0,0.1 0.08,0.17 0.17,0.17 h 0.34 c 0.1,0 0.17,-0.08 0.17,-0.17 v -1 c 0,-0.1 -0.08,-0.17 -0.17,-0.17 z"
     id="path2"
     inkscape:connector-curvature="0"
     style="fill:#ffdd55;fill-opacity:0.3" />
  <path
     d="M 3,2.62 A 0.17,0.17 0 0 0 2.9,2.67 L 2.67,2.91 a 0.17,0.17 0 0 0 0,0.23 l 0.71,0.72 a 0.17,0.17 0 0 0 0.24,0 L 3.86,3.62 a 0.17,0.17 0 0 0 0,-0.24 L 3.14,2.67 A 0.17,0.17 0 0 0 3.02,2.62 0.17,0.17 0 0 0 3.01,2.62 Z M 5.05,4.39 A 2.35,2.35 0 0 0 4,6.35 2.35,2.35 0 0 0 5.05,8.31 Z M 1.48,6.01 c -0.1,0 -0.17,0.08 -0.17,0.17 v 0.34 c 0,0.1 0.08,0.17 0.17,0.17 h 1 c 0.1,0 0.17,-0.08 0.17,-0.17 V 6.18 C 2.65,6.08 2.58,6.01 2.49,6.01 Z m 2,2.79 A 0.17,0.17 0 0 0 3.38,8.84 L 2.67,9.56 a 0.17,0.17 0 0 0 0,0.23 l 0.24,0.24 a 0.17,0.17 0 0 0 0.23,0 L 3.86,9.32 a 0.17,0.17 0 0 0 0,-0.24 L 3.62,8.84 A 0.17,0.17 0 0 0 3.5,8.8 0.17,0.17 0 0 0 3.48,8.8 Z"
     id="path4"
     inkscape:connector-curvature="0"
     style="fill:#ffdd55" />
</svg>
