<?xml version="1.0" encoding="UTF-8" standalone="no"?>
<svg
   xmlns:dc="http://purl.org/dc/elements/1.1/"
   xmlns:cc="http://creativecommons.org/ns#"
   xmlns:rdf="http://www.w3.org/1999/02/22-rdf-syntax-ns#"
   xmlns:svg="http://www.w3.org/2000/svg"
   xmlns="http://www.w3.org/2000/svg"
   xmlns:sodipodi="http://sodipodi.sourceforge.net/DTD/sodipodi-0.dtd"
   xmlns:inkscape="http://www.inkscape.org/namespaces/inkscape"
   width="24"
   height="24"
   version="1"
   id="svg6"
   sodipodi:docname="emblem-photos.svg"
   inkscape:version="0.92.4 (5da689c313, 2019-01-14)">
  <metadata
     id="metadata12">
    <rdf:RDF>
      <cc:Work
         rdf:about="">
        <dc:format>image/svg+xml</dc:format>
        <dc:type
           rdf:resource="http://purl.org/dc/dcmitype/StillImage" />
        <dc:title></dc:title>
      </cc:Work>
    </rdf:RDF>
  </metadata>
  <defs
     id="defs10" />
  <sodipodi:namedview
     pagecolor="#1c1c1c"
     bordercolor="#666666"
     borderopacity="1"
     objecttolerance="10"
     gridtolerance="10"
     guidetolerance="10"
     inkscape:pageopacity="0"
     inkscape:pageshadow="2"
     inkscape:window-width="1160"
     inkscape:window-height="480"
     id="namedview8"
     showgrid="false"
     inkscape:zoom="9.8333333"
     inkscape:cx="1.0677966"
     inkscape:cy="12"
     inkscape:window-x="0"
     inkscape:window-y="25"
     inkscape:window-maximized="0"
     inkscape:current-layer="svg6" />
  <path
     d="M 12,1.502 C 6.207,1.502 1.502,6.208 1.502,12 1.502,17.792 6.208,22.498 12,22.498 17.793,22.498 22.498,17.792 22.498,12 22.498,6.207 17.792,1.502 12,1.502 Z"
     id="path2"
     inkscape:connector-curvature="0"
     style="fill:#5beedc" />
  <path
     d="m 9.502,6.921 -1,1 h -1 c -1.22,-0.013 -1.5,0 -1.5,0.928 v 7.072 c 0,1 0.544,1 1.713,1 h 8.575 c 1.342,0.003 1.712,0 1.712,-1 v -7 c 0,-1 -0.362,-1 -1.5,-1 h -1 l -1,-1 z m 2.5,2 a 3,3 0 1 1 0,6 3,3 0 0 1 0,-6 z"
     id="path4"
     inkscape:connector-curvature="0"
     style="fill:#1c1c1c" />
</svg>
