<?xml version="1.0" encoding="UTF-8" standalone="no"?>
<svg
   xmlns:dc="http://purl.org/dc/elements/1.1/"
   xmlns:cc="http://creativecommons.org/ns#"
   xmlns:rdf="http://www.w3.org/1999/02/22-rdf-syntax-ns#"
   xmlns:svg="http://www.w3.org/2000/svg"
   xmlns="http://www.w3.org/2000/svg"
   xmlns:sodipodi="http://sodipodi.sourceforge.net/DTD/sodipodi-0.dtd"
   xmlns:inkscape="http://www.inkscape.org/namespaces/inkscape"
   width="24"
   height="24"
   version="1"
   id="svg6"
   sodipodi:docname="emblem-system.svg"
   inkscape:version="0.92.4 (5da689c313, 2019-01-14)">
  <metadata
     id="metadata12">
    <rdf:RDF>
      <cc:Work
         rdf:about="">
        <dc:format>image/svg+xml</dc:format>
        <dc:type
           rdf:resource="http://purl.org/dc/dcmitype/StillImage" />
        <dc:title></dc:title>
      </cc:Work>
    </rdf:RDF>
  </metadata>
  <defs
     id="defs10" />
  <sodipodi:namedview
     pagecolor="#1c1c1c"
     bordercolor="#666666"
     borderopacity="1"
     objecttolerance="10"
     gridtolerance="10"
     guidetolerance="10"
     inkscape:pageopacity="0"
     inkscape:pageshadow="2"
     inkscape:window-width="1160"
     inkscape:window-height="480"
     id="namedview8"
     showgrid="false"
     inkscape:zoom="9.8333333"
     inkscape:cx="1.0677966"
     inkscape:cy="12"
     inkscape:window-x="0"
     inkscape:window-y="25"
     inkscape:window-maximized="0"
     inkscape:current-layer="svg6" />
  <path
     d="M 12,1.502 C 6.207,1.502 1.502,6.208 1.502,12 1.502,17.792 6.208,22.498 12,22.498 17.793,22.498 22.498,17.792 22.498,12 22.498,6.207 17.792,1.502 12,1.502 Z"
     id="path2"
     inkscape:connector-curvature="0"
     style="fill:#5beedc" />
  <path
     d="m 11.957,4.523 c -0.232,0 -0.463,0.012 -0.69,0.033 L 10.839,6.759 A 5.274,5.274 0 0 0 9.819,7.087 L 8.21,5.544 C 7.8,5.786 7.445,6.084 7.091,6.398 L 8.044,8.404 A 5.321,5.321 0 0 0 7.42,9.259 L 5.217,8.964 A 7.271,7.271 0 0 0 4.79,10.311 l 1.939,1.052 a 5.078,5.078 0 0 0 -0.032,0.526 c 0,0.182 0.014,0.35 0.032,0.526 l -1.94,1.052 a 7.2,7.2 0 0 0 0.428,1.348 L 7.42,14.52 c 0.18,0.305 0.39,0.592 0.624,0.854 L 7.09,17.38 c 0.354,0.313 0.71,0.612 1.119,0.854 l 1.61,-1.546 c 0.322,0.144 0.668,0.253 1.02,0.33 l 0.427,2.203 a 7.49,7.49 0 0 0 1.38,0 l 0.43,-2.203 a 5.213,5.213 0 0 0 1.018,-0.33 l 1.612,1.547 c 0.408,-0.242 0.765,-0.542 1.117,-0.855 L 15.87,15.373 c 0.234,-0.262 0.446,-0.55 0.625,-0.854 l 2.202,0.295 a 7.271,7.271 0 0 0 0.429,-1.348 l -1.94,-1.052 c 0.017,-0.177 0.032,-0.344 0.032,-0.526 0,-0.182 -0.015,-0.35 -0.033,-0.526 l 1.94,-1.052 A 7.269,7.269 0 0 0 18.697,8.962 L 16.495,9.257 A 5.321,5.321 0 0 0 15.87,8.402 L 16.823,6.396 C 16.471,6.083 16.114,5.784 15.706,5.542 L 14.093,7.086 A 5.277,5.277 0 0 0 13.074,6.758 L 12.646,4.555 a 7.49,7.49 0 0 0 -0.69,-0.033 z m 0,4.21 a 3.157,3.157 0 1 1 0,6.313 3.157,3.157 0 0 1 0,-6.314 z"
     overflow="visible"
     id="path4"
     inkscape:connector-curvature="0"
     style="overflow:visible;fill:#1c1c1c" />
</svg>
