<?xml version="1.0" encoding="UTF-8" standalone="no"?>
<svg
   xmlns:dc="http://purl.org/dc/elements/1.1/"
   xmlns:cc="http://creativecommons.org/ns#"
   xmlns:rdf="http://www.w3.org/1999/02/22-rdf-syntax-ns#"
   xmlns:svg="http://www.w3.org/2000/svg"
   xmlns="http://www.w3.org/2000/svg"
   xmlns:sodipodi="http://sodipodi.sourceforge.net/DTD/sodipodi-0.dtd"
   xmlns:inkscape="http://www.inkscape.org/namespaces/inkscape"
   width="24"
   height="24"
   version="1"
   id="svg6"
   sodipodi:docname="emblem-debian.svg"
   inkscape:version="0.92.5 (2060ec1f9f, 2020-04-08)">
  <metadata
     id="metadata12">
    <rdf:RDF>
      <cc:Work
         rdf:about="">
        <dc:format>image/svg+xml</dc:format>
        <dc:type
           rdf:resource="http://purl.org/dc/dcmitype/StillImage" />
        <dc:title></dc:title>
      </cc:Work>
    </rdf:RDF>
  </metadata>
  <defs
     id="defs10" />
  <sodipodi:namedview
     pagecolor="#1c1c1c"
     bordercolor="#666666"
     borderopacity="1"
     objecttolerance="10"
     gridtolerance="10"
     guidetolerance="10"
     inkscape:pageopacity="0"
     inkscape:pageshadow="2"
     inkscape:window-width="1085"
     inkscape:window-height="480"
     id="namedview8"
     showgrid="false"
     inkscape:zoom="9.8333333"
     inkscape:cx="1.0677966"
     inkscape:cy="12"
     inkscape:window-x="0"
     inkscape:window-y="25"
     inkscape:window-maximized="0"
     inkscape:current-layer="svg6" />
  <path
     d="M 12,1.502 C 6.207,1.502 1.502,6.208 1.502,12 1.502,17.792 6.208,22.498 12,22.498 17.793,22.498 22.498,17.792 22.498,12 22.498,6.207 17.792,1.502 12,1.502 Z"
     id="path2"
     inkscape:connector-curvature="0"
     style="fill:#5beedc" />
  <path
     d="m 12.963,3.71 c -0.147,0.03 -0.33,0.015 -0.499,0.037 z m -0.499,0.037 -0.257,0.014 0.11,0.022 A 0.514,0.514 0 0 1 12.464,3.747 Z M 11.84,3.82 C 11.429,3.842 10.849,4.077 11.025,3.872 10.349,4.165 9.145,4.598 8.455,5.23 V 5.083 c -0.33,0.367 -1.38,1.13 -1.447,1.6 L 6.913,6.713 C 6.751,6.993 6.663,7.301 6.516,7.573 6.318,7.939 6.208,7.719 6.245,7.771 5.826,8.622 5.628,9.327 5.445,9.907 c 0.124,0.177 0,1.146 0.05,1.902 a 8.518,8.518 0 0 0 5.772,8.297 c 0.47,0.162 1.138,0.147 1.718,0.184 -0.69,-0.198 -0.763,-0.103 -1.454,-0.36 -0.47,-0.22 -0.572,-0.477 -0.903,-0.763 l 0.125,0.235 c -0.668,-0.235 -0.382,-0.287 -0.925,-0.47 l 0.147,-0.184 c -0.22,0 -0.573,-0.367 -0.676,-0.536 H 9.064 C 8.778,17.845 8.638,17.61 8.638,17.404 L 8.565,17.536 C 8.47,17.39 7.508,16.236 8.015,16.508 7.926,16.413 7.801,16.362 7.655,16.127 l 0.11,-0.125 C 7.53,15.686 7.331,15.29 7.346,15.165 7.478,15.341 7.566,15.363 7.64,15.4 7.038,13.894 7.001,15.326 6.553,13.872 h 0.088 l -0.183,-0.36 0.058,-0.41 C 6.076,12.587 6.384,10.957 6.443,10.054 6.494,9.687 6.81,9.291 7.06,8.688 L 6.913,8.659 c 0.272,-0.492 1.63,-1.997 2.232,-1.91 0.308,-0.359 -0.059,0 -0.11,-0.087 0.653,-0.69 0.852,-0.485 1.3,-0.61 0.47,-0.279 -0.412,0.125 -0.177,-0.11 0.808,-0.205 0.58,-0.47 1.667,-0.587 0.044,0.036 -0.015,0.073 -0.103,0.088 a 4.934,4.934 0 0 1 2.893,0.279 c 1.124,0.543 2.394,2.085 2.424,3.546 h 0.058 c -0.014,0.603 0.096,1.27 -0.11,1.888 l 0.147,-0.294 c 0,0.44 -0.125,0.66 -0.272,1.035 l -0.235,0.132 c -0.183,0.36 0.015,0.235 -0.11,0.544 -0.308,0.271 -0.925,0.83 -1.123,0.91 -0.147,-0.022 0.088,-0.19 0.125,-0.257 -0.397,0.272 -0.324,0.411 -0.94,0.595 L 14.564,13.77 c -1.542,0.72 -3.671,-0.713 -3.627,-2.644 -0.037,0.118 -0.06,0.088 -0.096,0.147 a 2.452,2.452 0 0 1 1.38,-2.43 2.313,2.313 0 0 1 2.57,0.337 2.247,2.247 0 0 0 -1.864,-0.903 c -0.808,0 -1.572,0.522 -1.829,1.087 -0.411,0.25 -0.47,1.013 -0.646,1.138 -0.242,1.814 0.44,2.57 1.645,3.48 0.095,0.074 0.11,0.11 0.11,0.147 1.395,0.53 2.842,0.397 4.06,-0.572 0.302,-0.243 0.647,-0.661 0.735,-0.661 -0.14,0.22 0.037,0.11 -0.088,0.294 0.308,-0.492 -0.125,-0.184 0.33,-0.852 l 0.184,0.235 c -0.074,-0.419 0.484,-0.91 0.426,-1.579 0.132,-0.176 0.146,0.22 0,0.668 0.205,-0.506 0.058,-0.573 0.11,-0.998 l 0.169,0.44 c -0.125,-0.492 0.124,-0.837 0.176,-1.101 -0.052,-0.044 -0.176,0.22 -0.213,-0.367 0,-0.257 0.073,-0.147 0.088,-0.199 a 1.212,1.212 0 0 1 -0.25,-0.594 c 0.052,-0.096 0.162,0.235 0.235,0.235 -0.058,-0.294 -0.147,-0.514 -0.147,-0.75 -0.22,-0.47 -0.073,0.074 -0.25,-0.198 -0.256,-0.763 0.177,-0.183 0.214,-0.528 0.367,0.55 0.572,1.365 0.668,1.71 A 7.078,7.078 0 0 0 18.331,8.094 c 0.11,0.051 -0.184,-0.852 0.147,-0.25 a 5.463,5.463 0 0 0 -2.54,-3.025 c 0.124,0.103 0.293,0.25 0.234,0.286 -0.529,-0.323 -0.433,-0.345 -0.507,-0.47 -0.418,-0.183 -0.447,0 -0.726,0 -0.794,-0.44 -0.955,-0.382 -1.69,-0.653 l 0.023,0.161 c -0.529,-0.176 -0.61,0.074 -1.175,0 C 12.06,4.107 12.273,4.048 12.464,4.018 11.95,4.092 11.972,3.923 11.458,4.033 Z m 0.624,0.198 h 0.088 V 3.996 Z m 0.088,-0.022 c 0.176,-0.029 0.198,-0.073 -0.294,-0.088 0.147,0.037 0.33,0.059 0.294,0.096 z M 11.708,5.45 C 11.612,5.48 11.502,5.502 11.451,5.538 11.524,5.502 11.612,5.472 11.708,5.45 Z M 5.789,7.264 C 5.849,7.646 5.496,7.807 5.885,7.536 6.061,7.08 5.789,7.426 5.789,7.264 Z M 5.496,8.512 C 5.246,8.821 5.393,8.879 5.356,9.1 5.444,8.82 5.459,8.659 5.503,8.512 Z m 9.788,1.836 c -0.037,0 -0.074,0.088 -0.11,0.176 0.058,0.037 0.095,0.367 0.146,0.147 0.022,-0.242 0,-0.33 -0.036,-0.33 z m 3.01,0.83 -0.051,0.11 a 4.89,4.89 0 0 1 -0.419,1.395 c 0.243,-0.47 0.404,-0.991 0.47,-1.505 z m -3.187,0.183 a 1.407,1.407 0 0 1 -0.242,0.507 c -0.507,0.323 -0.037,-0.184 0,-0.39 -0.543,0.698 -0.073,0.42 -0.088,0.625 0.184,-0.243 0.294,-0.47 0.33,-0.727 z m -1.123,1.065 c -0.22,0.051 -0.455,0.051 -0.676,0.037 -0.271,0 0.06,0.146 0.404,0.176 z m -3.466,0.037 c 0.052,0.22 0.184,0.41 0.309,0.616 l -0.089,-0.257 a 0.999,0.999 0 0 1 -0.22,-0.367 z m -0.22,0.367 -0.03,0.198 c 0.184,0.25 0.324,0.529 0.537,0.72 -0.147,-0.346 -0.265,-0.47 -0.507,-0.904 z m 0.345,0.3 c 0.015,0 0.022,0.015 0.03,0.023 l -0.008,-0.022 z m 0.03,0.023 c 0.646,1.13 2.591,1.975 3.62,1.556 a 4.743,4.743 0 0 1 -1.63,-0.183 c -0.184,-0.103 -0.47,-0.323 -0.47,-0.397 v 0.11 A 3.304,3.304 0 0 1 11.12,13.424 c 0.162,0.235 0.323,0.448 0.544,0.632 -0.345,-0.118 -0.815,-0.822 -0.992,-0.91 z"
     id="path4"
     inkscape:connector-curvature="0"
     style="fill:#1c1c1c" />
</svg>
