<?xml version="1.0" encoding="UTF-8" standalone="no"?>
<svg
   xmlns:dc="http://purl.org/dc/elements/1.1/"
   xmlns:cc="http://creativecommons.org/ns#"
   xmlns:rdf="http://www.w3.org/1999/02/22-rdf-syntax-ns#"
   xmlns:svg="http://www.w3.org/2000/svg"
   xmlns="http://www.w3.org/2000/svg"
   xmlns:sodipodi="http://sodipodi.sourceforge.net/DTD/sodipodi-0.dtd"
   xmlns:inkscape="http://www.inkscape.org/namespaces/inkscape"
   width="24"
   height="24"
   version="1"
   id="svg6"
   sodipodi:docname="emblem-kali.svg"
   inkscape:version="0.92.5 (2060ec1f9f, 2020-04-08)">
  <metadata
     id="metadata12">
    <rdf:RDF>
      <cc:Work
         rdf:about="">
        <dc:format>image/svg+xml</dc:format>
        <dc:type
           rdf:resource="http://purl.org/dc/dcmitype/StillImage" />
        <dc:title></dc:title>
      </cc:Work>
    </rdf:RDF>
  </metadata>
  <defs
     id="defs10" />
  <sodipodi:namedview
     pagecolor="#1c1c1c"
     bordercolor="#666666"
     borderopacity="1"
     objecttolerance="10"
     gridtolerance="10"
     guidetolerance="10"
     inkscape:pageopacity="0"
     inkscape:pageshadow="2"
     inkscape:window-width="1085"
     inkscape:window-height="480"
     id="namedview8"
     showgrid="false"
     inkscape:zoom="9.8333333"
     inkscape:cx="1.0677966"
     inkscape:cy="12"
     inkscape:window-x="0"
     inkscape:window-y="25"
     inkscape:window-maximized="0"
     inkscape:current-layer="svg6" />
  <path
     d="M 12,1.502 C 6.207,1.502 1.502,6.208 1.502,12 1.502,17.792 6.208,22.498 12,22.498 17.793,22.498 22.498,17.792 22.498,12 22.498,6.207 17.792,1.502 12,1.502 Z"
     id="path2"
     inkscape:connector-curvature="0"
     style="fill:#5beedc" />
  <path
     d="m 11.514,3.48 c -0.282,0.022 -0.564,0.043 -0.84,0.084 0.627,0.452 1.305,0.83 1.903,1.321 1.141,0.947 2.205,1.994 3.128,3.155 0.243,0.266 0.649,0.065 0.961,0.113 C 16.315,7.506 15.671,7.086 15.172,6.563 14.032,5.445 12.794,4.433 11.514,3.48 Z M 9.402,4.776 c -0.005,0 0.011,0.168 0.037,0.372 0.027,0.208 0.039,0.38 0.022,0.396 A 5.843,5.843 0 0 1 8.733,5.271 C 7.724,4.853 7.523,4.78 7.523,4.832 c 0,0.021 0.05,0.17 0.103,0.322 0.2,0.548 0.206,0.517 -0.085,0.511 -0.136,0 -0.612,-0.04 -1.045,-0.093 A 8.842,8.842 0 0 0 5.689,5.492 C 5.679,5.497 5.804,5.686 5.972,5.902 6.137,6.125 6.264,6.316 6.254,6.325 6.243,6.342 5.816,6.419 5.309,6.51 A 18.88,18.88 0 0 0 4.285,6.716 c -0.083,0.038 -0.047,0.083 0.254,0.321 0.189,0.151 0.35,0.284 0.35,0.295 0,0.011 -0.307,0.212 -0.681,0.45 C 3.838,8.018 3.463,8.266 3.384,8.33 l -0.148,0.115 0.46,0.127 c 0.246,0.064 0.453,0.137 0.453,0.153 0,0.017 -0.259,0.39 -0.582,0.824 -0.202,0.269 -0.395,0.545 -0.578,0.828 0,0.019 0.221,0.047 0.491,0.052 l 0.495,0.015 -0.22,0.951 c -0.082,0.319 -0.153,0.64 -0.212,0.964 0.005,0.005 0.195,-0.072 0.416,-0.178 0.234,-0.111 0.428,-0.174 0.449,-0.147 0.038,0.041 0.428,1.366 0.428,1.455 0,0.02 0.026,0.1 0.052,0.18 l 0.057,0.14 0.253,-0.247 0.253,-0.253 0.497,0.4 c 0.276,0.216 0.68,0.507 0.901,0.639 a 31.942,31.942 0 0 0 3.156,1.53 c 2.426,1.014 3.47,1.63 4.403,2.622 0.529,0.559 0.812,1.101 1.024,1.952 l 0.147,0.594 0.041,-0.311 c 0.059,-0.439 0,-1.276 -0.103,-1.588 A 6.742,6.742 0 0 0 15.105,18.304 4.203,4.203 0 0 0 14.301,17.249 C 13.479,16.417 12.637,15.845 11.424,15.291 8.892,14.146 8.142,13.698 7.135,12.74 6.058,11.71 5.653,10.783 5.831,9.759 5.963,9.022 6.498,8.272 7.146,7.924 7.779,7.58 8.11,7.508 9.081,7.482 c 1.077,-0.033 1.61,0.024 2.51,0.424 0.45,0.166 0.5,0.181 0.527,0.187 l 2.168,1.113 a 0.7,0.7 0 0 1 0.236,0.183 c 0.07,0.085 0.053,0.183 0.04,0.338 -0.01,0.136 -0.002,0.278 0.003,0.41 0.034,0.369 0.156,0.683 0.346,0.87 0.164,0.162 0.531,0.393 1.27,0.797 0.36,0.197 0.806,0.458 0.992,0.581 0.432,0.287 0.881,0.65 1.293,1.04 v 10e-4 c 0.282,0.267 0.565,0.565 0.795,0.844 0.193,0.233 0.324,0.368 0.353,0.36 0.03,-0.008 0.378,-0.236 0.783,-0.51 1,-0.68 1.037,-0.707 1,-0.752 A 0.42,0.42 0 0 0 21.253,13.313 1.316,1.316 0 0 0 21.159,13.29 c -0.434,-0.086 -1.02,-0.338 -1.484,-0.638 a 6.74,6.74 0 0 1 -0.613,-0.466 c -0.216,-0.188 -0.433,-0.36 -0.618,-0.59 l -0.097,-0.122 0.062,-0.067 c 0.183,-0.2 0.168,-0.295 -0.12,-0.777 A 52.257,52.257 0 0 1 17.388,9.067 4.858,4.858 0 0 0 17.11,8.591 0.626,0.626 0 0 0 16.966,8.441 0.346,0.346 0 0 0 16.822,8.374 C 16.479,8.334 15.972,8.469 15.703,8.337 A 0.976,0.976 0 0 1 15.476,8.163 C 15.302,7.995 15.136,7.791 15.002,7.635 14.709,7.291 14.383,6.907 14.279,6.78 13.999,6.44 13.791,6.219 13.741,6.205 13.728,6.202 13.73,6.201 13.728,6.217 c -0.005,0.05 0.014,0.257 0.047,0.495 0.044,0.316 0.067,0.477 0.06,0.542 -0.003,0.02 -0.003,0.023 -0.015,0.03 C 13.787,7.3 13.72,7.248 13.588,7.158 13.586,7.156 13.583,7.152 13.579,7.15 H 13.577 C 12.993,6.747 12.189,5.78 11.789,5.316 l 0.085,0.92 C 11.73,6.166 11.58,6.084 11.447,6.026 10.941,5.864 10.742,5.56 9.962,5.097 9.778,4.986 9.592,4.878 9.402,4.776 Z m 7.674,5.027 c 0.012,0 0.024,0.004 0.04,0.011 0.13,0.16 0.26,0.344 0.352,0.48 0.182,0.27 0.33,0.515 0.333,0.543 0.003,0.038 -0.01,0.042 -0.016,0.048 -0.046,0.052 -0.181,0.049 -0.366,-0.018 -0.314,-0.114 -0.482,-0.249 -0.526,-0.424 -0.047,-0.185 0.043,-0.537 0.143,-0.62 0.016,-0.014 0.028,-0.019 0.04,-0.02 z"
     id="path4"
     inkscape:connector-curvature="0"
     style="fill:#1c1c1c" />
</svg>
