<?xml version="1.0" encoding="UTF-8" standalone="no"?>
<svg
   xmlns:dc="http://purl.org/dc/elements/1.1/"
   xmlns:cc="http://creativecommons.org/ns#"
   xmlns:rdf="http://www.w3.org/1999/02/22-rdf-syntax-ns#"
   xmlns:svg="http://www.w3.org/2000/svg"
   xmlns="http://www.w3.org/2000/svg"
   xmlns:sodipodi="http://sodipodi.sourceforge.net/DTD/sodipodi-0.dtd"
   xmlns:inkscape="http://www.inkscape.org/namespaces/inkscape"
   width="24"
   height="24"
   version="1"
   id="svg6"
   sodipodi:docname="emblem-github.svg"
   inkscape:version="0.92.4 (5da689c313, 2019-01-14)">
  <metadata
     id="metadata12">
    <rdf:RDF>
      <cc:Work
         rdf:about="">
        <dc:format>image/svg+xml</dc:format>
        <dc:type
           rdf:resource="http://purl.org/dc/dcmitype/StillImage" />
        <dc:title></dc:title>
      </cc:Work>
    </rdf:RDF>
  </metadata>
  <defs
     id="defs10" />
  <sodipodi:namedview
     pagecolor="#1c1c1c"
     bordercolor="#666666"
     borderopacity="1"
     objecttolerance="10"
     gridtolerance="10"
     guidetolerance="10"
     inkscape:pageopacity="0"
     inkscape:pageshadow="2"
     inkscape:window-width="1160"
     inkscape:window-height="480"
     id="namedview8"
     showgrid="false"
     inkscape:zoom="9.8333333"
     inkscape:cx="1.0677966"
     inkscape:cy="12"
     inkscape:window-x="0"
     inkscape:window-y="25"
     inkscape:window-maximized="0"
     inkscape:current-layer="svg6" />
  <path
     d="M 12,1.502 C 6.207,1.502 1.502,6.208 1.502,12 1.502,17.792 6.208,22.498 12,22.498 17.793,22.498 22.498,17.792 22.498,12 22.498,6.207 17.792,1.502 12,1.502 Z"
     id="path2"
     inkscape:connector-curvature="0"
     style="fill:#5beedc" />
  <path
     d="M 6.999,4.826 C 6.889,4.831 6.835,4.849 6.835,4.849 6.282,6.249 6.632,7.283 6.737,7.54 6.086,8.251 5.689,9.159 5.689,10.269 c 0,3.897 2.374,4.77 4.633,5.027 -0.291,0.254 -0.554,0.702 -0.646,1.36 -0.58,0.26 -2.053,0.708 -2.96,-0.846 0,0 -0.537,-0.976 -1.558,-1.047 0,0 -0.993,-0.014 -0.07,0.617 0,0 0.668,0.313 1.13,1.488 0,0 0.597,1.978 3.426,1.364 0.005,0.848 0.013,1.488 0.013,1.73 0,0.232 -0.139,0.497 -0.504,0.506 v 0.002 h 6.068 c -0.38,0.002 -0.52,-0.27 -0.52,-0.509 0,-0.333 0.012,-1.43 0.012,-2.789 0,-0.949 -0.326,-1.57 -0.69,-1.884 2.265,-0.251 4.643,-1.112 4.643,-5.02 0,-1.11 -0.394,-2.017 -1.046,-2.728 0.105,-0.257 0.455,-1.291 -0.1,-2.691 0,0 -0.853,-0.274 -2.794,1.042 A 9.73,9.73 0 0 0 12.179,5.549 9.714,9.714 0 0 0 9.633,5.891 C 8.176,4.904 7.33,4.811 6.999,4.826 Z"
     id="path4"
     inkscape:connector-curvature="0"
     style="fill:#1c1c1c" />
</svg>
