<?xml version="1.0" encoding="UTF-8" standalone="no"?>
<svg
   xmlns:dc="http://purl.org/dc/elements/1.1/"
   xmlns:cc="http://creativecommons.org/ns#"
   xmlns:rdf="http://www.w3.org/1999/02/22-rdf-syntax-ns#"
   xmlns:svg="http://www.w3.org/2000/svg"
   xmlns="http://www.w3.org/2000/svg"
   xmlns:sodipodi="http://sodipodi.sourceforge.net/DTD/sodipodi-0.dtd"
   xmlns:inkscape="http://www.inkscape.org/namespaces/inkscape"
   width="24"
   height="24"
   version="1"
   id="svg6"
   sodipodi:docname="emblem-web.svg"
   inkscape:version="0.92.4 (5da689c313, 2019-01-14)">
  <metadata
     id="metadata12">
    <rdf:RDF>
      <cc:Work
         rdf:about="">
        <dc:format>image/svg+xml</dc:format>
        <dc:type
           rdf:resource="http://purl.org/dc/dcmitype/StillImage" />
        <dc:title></dc:title>
      </cc:Work>
    </rdf:RDF>
  </metadata>
  <defs
     id="defs10" />
  <sodipodi:namedview
     pagecolor="#1c1c1c"
     bordercolor="#666666"
     borderopacity="1"
     objecttolerance="10"
     gridtolerance="10"
     guidetolerance="10"
     inkscape:pageopacity="0"
     inkscape:pageshadow="2"
     inkscape:window-width="1160"
     inkscape:window-height="480"
     id="namedview8"
     showgrid="false"
     inkscape:zoom="9.8333333"
     inkscape:cx="1.0677966"
     inkscape:cy="12"
     inkscape:window-x="0"
     inkscape:window-y="25"
     inkscape:window-maximized="0"
     inkscape:current-layer="svg6" />
  <path
     d="M 12,1.502 C 6.207,1.502 1.502,6.208 1.502,12 1.502,17.792 6.208,22.498 12,22.498 17.793,22.498 22.498,17.792 22.498,12 22.498,6.207 17.792,1.502 12,1.502 Z"
     id="path2"
     inkscape:connector-curvature="0"
     style="fill:#5beedc" />
  <path
     d="M 12.122,4.644 A 7.39,7.39 0 0 0 5.25,9.322 6.935,6.935 0 0 0 5.093,9.746 l -0.03,0.089 a 7.272,7.272 0 0 0 -0.368,2.269 c 0,4.056 3.312,7.354 7.386,7.354 a 7.395,7.395 0 0 0 6.845,-4.598 l 0.002,-0.002 a 7.73,7.73 0 0 0 0.209,-0.57 c 0.238,-0.721 0.372,-1.49 0.372,-2.29 0,-4.055 -3.314,-7.354 -7.387,-7.354 z M 11.59,5.792 V 8.267 A 13.503,13.503 0 0 1 9.587,8.051 C 9.681,7.832 9.779,7.622 9.887,7.431 10.38,6.546 10.975,5.994 11.59,5.792 Z m 1.055,0.041 c 0.056,0.01 0.112,0.016 0.167,0.026 0.556,0.242 1.09,0.767 1.539,1.571 0.105,0.188 0.201,0.395 0.293,0.608 -0.62,0.12 -1.294,0.199 -1.999,0.227 z M 9.34,6.34 C 9.208,6.524 9.08,6.714 8.965,6.92 8.812,7.195 8.675,7.492 8.549,7.803 A 8.437,8.437 0 0 1 7.687,7.5 6.323,6.323 0 0 1 9.34,6.34 Z m 5.673,0.158 c 0.288,0.115 0.51,0.222 0.73,0.33 0.282,0.195 0.547,0.412 0.792,0.65 A 8.273,8.273 0 0 1 15.682,7.784 7.974,7.974 0 0 0 15.274,6.92 6.493,6.493 0 0 0 15.013,6.498 Z m 2.211,1.772 a 6.245,6.245 0 0 1 1.204,3.206 H 16.44 A 11.65,11.65 0 0 0 16.023,8.781 9.13,9.13 0 0 0 17.202,8.337 C 17.212,8.314 17.217,8.292 17.223,8.27 Z M 6.97,8.34 A 9.24,9.24 0 0 0 8.21,8.8 11.66,11.66 0 0 0 7.797,11.476 H 5.817 A 6.245,6.245 0 0 1 6.97,8.34 Z M 15,9.04 c 0.21,0.736 0.345,1.56 0.385,2.436 H 12.646 V 9.316 A 14.24,14.24 0 0 0 14.999,9.041 Z M 9.234,9.056 a 14.31,14.31 0 0 0 2.357,0.262 v 2.158 H 8.852 c 0.04,-0.87 0.174,-1.688 0.381,-2.42 z m -3.416,3.47 h 1.979 c 0.04,0.98 0.189,1.906 0.43,2.745 A 9.34,9.34 0 0 0 7.015,15.718 6.246,6.246 0 0 1 5.818,12.526 Z m 3.035,0 h 2.738 v 2.233 a 14.32,14.32 0 0 0 -2.338,0.257 c -0.219,-0.75 -0.36,-1.592 -0.4,-2.49 z m 3.793,0 h 2.739 a 10.662,10.662 0 0 1 -0.404,2.505 14.278,14.278 0 0 0 -2.335,-0.27 z m 3.795,0 h 1.986 a 6.246,6.246 0 0 1 -1.22,3.223 c -0.003,-0.003 -0.003,-0.007 -0.005,-0.01 a 9.259,9.259 0 0 0 -1.197,-0.45 c 0.245,-0.843 0.396,-1.776 0.436,-2.763 z m -4.85,3.283 v 2.4 C 10.976,18.007 10.38,17.457 9.887,16.573 a 6.596,6.596 0 0 1 -0.27,-0.553 13.43,13.43 0 0 1 1.974,-0.211 z m 1.055,0.002 c 0.694,0.028 1.358,0.103 1.971,0.22 -0.084,0.19 -0.172,0.373 -0.266,0.542 -0.493,0.885 -1.09,1.434 -1.705,1.636 z m -4.07,0.454 c 0.119,0.287 0.246,0.563 0.388,0.818 0.112,0.2 0.235,0.388 0.363,0.567 A 6.32,6.32 0 0 1 7.75,16.554 C 8.008,16.45 8.28,16.351 8.576,16.265 Z m 7.079,0.019 c 0.293,0.087 0.562,0.186 0.817,0.291 a 6.318,6.318 0 0 1 -1.563,1.08 6.245,6.245 0 0 0 0.746,-1.371 z"
     id="path4"
     inkscape:connector-curvature="0"
     style="fill:#1c1c1c;fill-rule:evenodd" />
</svg>
