<?xml version="1.0" encoding="UTF-8" standalone="no"?>
<svg
   xmlns:dc="http://purl.org/dc/elements/1.1/"
   xmlns:cc="http://creativecommons.org/ns#"
   xmlns:rdf="http://www.w3.org/1999/02/22-rdf-syntax-ns#"
   xmlns:svg="http://www.w3.org/2000/svg"
   xmlns="http://www.w3.org/2000/svg"
   xmlns:sodipodi="http://sodipodi.sourceforge.net/DTD/sodipodi-0.dtd"
   xmlns:inkscape="http://www.inkscape.org/namespaces/inkscape"
   width="48"
   height="48"
   viewBox="0 0 12.7 12.7"
   version="1.1"
   id="svg4"
   sodipodi:docname="application-x-rar.svg"
   inkscape:version="0.92.5 (2060ec1f9f, 2020-04-08)">
  <defs
     id="defs8">
  <style
     id="current-color-scheme"
     type="text/css">
      .ColorScheme-Highlight {
        color:#5beedc;
      }
  </style>
  </defs>
  <path
     class="ColorScheme-Highlight"
     style="fill:#5beedc"
     d="M 5 3 L 1.0019531 13.001953 L 22.998047 13.001953 L 22.998047 3 L 5 3 z M 25.001953 3 L 25.001953 13.001953 L 46.998047 13.001953 L 43 3 L 25.001953 3 z M 1.0019531 15 L 1.0019531 39 C 1.0019531 43.429606 4.5703937 46.998047 9 46.998047 L 39 46.998047 A 7.9823622 7.9823622 0 0 0 46.998047 39 L 46.998047 15 L 44.001953 15 L 44.001953 39 A 4.9889764 4.9889764 0 0 1 39 44.001953 L 8.9960938 44.001953 A 4.9889764 4.9889764 0 0 1 3.9941406 39 L 3.9941406 15 L 1.0019531 15 z "
     transform="scale(0.26458333)"
     id="path864" />
  <path
     style="fill:#aa0088"
     d="m 1.8520831,5.0270833 v 1.0583333 h 0.264584 v 1.0583333 h 0.529166 V 6.0854166 h 0.264584 V 5.0270833 Z m 1.32085,0 v 0.5296834 h 0.5302 V 5.0270833 Z m 0.5302,0.5296834 v 0.5302001 h 0.529684 V 5.5567667 Z m 0.529684,0 H 4.763017 V 5.0270833 H 4.2328171 Z m 0.5301999,0 v 0.5302001 h 0.5302 V 5.5567667 Z m 0.5302,0 H 5.813082 V 5.0270833 H 5.293217 Z m 0.519865,0 V 6.0869668 H 6.3427652 V 5.5567667 Z m 0.5296832,0 H 6.8729653 V 5.0270833 H 6.3427652 Z m 0.5302001,0 V 6.0869668 H 7.4031657 V 5.5567667 Z m 0.5302004,0 H 7.9328491 V 5.0270833 H 7.4031657 Z m 0.5296834,0 V 6.0869668 H 8.4630492 V 5.5567667 Z m 0.5302001,0 H 8.9932493 V 5.0270833 H 8.4630492 Z m 0.5302001,0 V 6.0869668 H 9.522933 V 5.5567667 Z m 0.5296837,0 h 0.5302 V 5.0270833 h -0.5302 z m 0.5302,0 v 0.5302001 h 0.529683 V 5.5567667 Z m 0.529683,0 h 0.530201 V 5.0270833 H 10.582816 Z M 2.1166671,5.2916666 h 0.529166 v 0.5291667 h -0.529166 z"
     id="path856"
     inkscape:connector-curvature="0" />
</svg>
