<?xml version="1.0" encoding="UTF-8" standalone="no"?>
<svg
   xmlns:dc="http://purl.org/dc/elements/1.1/"
   xmlns:cc="http://creativecommons.org/ns#"
   xmlns:rdf="http://www.w3.org/1999/02/22-rdf-syntax-ns#"
   xmlns:svg="http://www.w3.org/2000/svg"
   xmlns="http://www.w3.org/2000/svg"
   xmlns:sodipodi="http://sodipodi.sourceforge.net/DTD/sodipodi-0.dtd"
   xmlns:inkscape="http://www.inkscape.org/namespaces/inkscape"
   width="48"
   height="48"
   viewBox="0 0 12.7 12.7"
   version="1.1"
   id="svg4"
   sodipodi:docname="package-x-generic.svg"
   inkscape:version="0.92.5 (2060ec1f9f, 2020-04-08)">
  <defs
     id="defs8">
  <style
     id="current-color-scheme"
     type="text/css">
      .ColorScheme-Highlight {
        color:#5beedc;
      }
  </style>
  </defs>
  <path
     class="ColorScheme-Highlight"
     style="fill:#5beedc"
     d="M 5 3 L 1.0019531 13.001953 L 22.998047 13.001953 L 22.998047 3 L 5 3 z M 25.001953 3 L 25.001953 13.001953 L 46.998047 13.001953 L 43 3 L 25.001953 3 z M 1.0019531 15 L 1.0019531 39 C 1.0019531 43.429606 4.5703938 46.998047 9 46.998047 L 39 46.998047 A 7.9823621 7.9823621 0 0 0 46.998047 39 L 46.998047 15 L 44.001953 15 L 44.001953 39 A 4.9889763 4.9889763 0 0 1 39 44.001953 L 8.9960938 44.001953 A 4.9889763 4.9889763 0 0 1 3.9941406 39 L 3.9941406 15 L 1.0019531 15 z M 7 19 L 7 23 L 8 23 L 8 27 L 10 27 L 10 23 L 11 23 L 11 19 L 7 19 z M 11.992188 19 L 11.992188 21.001953 L 13.996094 21.001953 L 13.996094 19 L 11.992188 19 z M 13.996094 21.001953 L 13.996094 23.005859 L 15.998047 23.005859 L 15.998047 21.001953 L 13.996094 21.001953 z M 15.998047 21.001953 L 18.001953 21.001953 L 18.001953 19 L 15.998047 19 L 15.998047 21.001953 z M 18.001953 21.001953 L 18.001953 23.005859 L 20.005859 23.005859 L 20.005859 21.001953 L 18.001953 21.001953 z M 20.005859 21.001953 L 21.970703 21.001953 L 21.970703 19 L 20.005859 19 L 20.005859 21.001953 z M 21.970703 21.001953 L 21.970703 23.005859 L 23.972656 23.005859 L 23.972656 21.001953 L 21.970703 21.001953 z M 23.972656 21.001953 L 25.976562 21.001953 L 25.976562 19 L 23.972656 19 L 23.972656 21.001953 z M 25.976562 21.001953 L 25.976562 23.005859 L 27.980469 23.005859 L 27.980469 21.001953 L 25.976562 21.001953 z M 27.980469 21.001953 L 29.982422 21.001953 L 29.982422 19 L 27.980469 19 L 27.980469 21.001953 z M 29.982422 21.001953 L 29.982422 23.005859 L 31.986328 23.005859 L 31.986328 21.001953 L 29.982422 21.001953 z M 31.986328 21.001953 L 33.990234 21.001953 L 33.990234 19 L 31.986328 19 L 31.986328 21.001953 z M 33.990234 21.001953 L 33.990234 23.005859 L 35.992188 23.005859 L 35.992188 21.001953 L 33.990234 21.001953 z M 35.992188 21.001953 L 37.996094 21.001953 L 37.996094 19 L 35.992188 19 L 35.992188 21.001953 z M 37.996094 21.001953 L 37.996094 23.005859 L 39.998047 23.005859 L 39.998047 21.001953 L 37.996094 21.001953 z M 39.998047 21.001953 L 42.001953 21.001953 L 42.001953 19 L 39.998047 19 L 39.998047 21.001953 z M 8 20 L 10 20 L 10 22 L 8 22 L 8 20 z "
     transform="scale(0.26458333)"
     id="path864" />
</svg>
