<?xml version="1.0" encoding="UTF-8" standalone="no"?>
<svg
   xmlns:dc="http://purl.org/dc/elements/1.1/"
   xmlns:cc="http://creativecommons.org/ns#"
   xmlns:rdf="http://www.w3.org/1999/02/22-rdf-syntax-ns#"
   xmlns:svg="http://www.w3.org/2000/svg"
   xmlns="http://www.w3.org/2000/svg"
   xmlns:sodipodi="http://sodipodi.sourceforge.net/DTD/sodipodi-0.dtd"
   xmlns:inkscape="http://www.inkscape.org/namespaces/inkscape"
   width="48"
   height="48"
   version="1.1"
   id="svg6"
   sodipodi:docname="application-xmind.svg"
   inkscape:version="0.92.5 (2060ec1f9f, 2020-04-08)">
  <defs
     id="defs8">
  <style
     id="current-color-scheme"
     type="text/css">
      .ColorScheme-Highlight {
        color:#5beedc;
      }
  </style>
  </defs>
  <path
     class="ColorScheme-Highlight"
     style="fill:#5beedc"
     d="M 6 0 C 4.892 0 4 0.892 4 2 L 4 46 C 4 47.108 4.892 48 6 48 L 42 48 C 43.108 48 44 47.108 44 46 L 44 13 L 43.416016 12.416016 L 42 11 L 41 10 L 34 3 L 33 2 L 31.583984 0.58398438 L 31.292969 0.29296875 L 31 0 L 6 0 z M 8 3 L 30 3 L 30 11 C 30 12.108 30.892 13 32 13 L 41 13 L 41 44 C 41 44.277 40.887781 44.526281 40.707031 44.707031 C 40.526281 44.887781 40.277 45 40 45 L 8 45 C 7.723 45 7.4737187 44.887781 7.2929688 44.707031 C 7.1122188 44.526281 7 44.277 7 44 L 7 4 C 7 3.723 7.1122186 3.4737187 7.2929688 3.2929688 C 7.4737188 3.1122186 7.723 3 8 3 z M 18 21 C 17.934 21.001 17.860871 21.006109 17.775391 21.011719 C 17.451421 21.032399 11.336346 22.178101 10.947266 22.291016 C 10.535916 22.410324 10.185319 22.661263 10.099609 22.900391 C 9.9534585 23.306765 10.376407 24.628864 10.935547 25.515625 C 13.166171 28.164499 15.643205 28.836316 18.070312 30.263672 C 18.348872 30.590215 18.459056 30.749215 16.322266 31.695312 C 12.982636 33.174101 11.901339 34.430277 11.261719 36.291016 C 11.072829 36.84084 10.985961 38.296235 11.119141 38.662109 C 11.291991 39.136384 11.396297 39.231234 14.623047 38.619141 C 17.864457 38.004236 17.594914 37.968994 17.865234 37.712891 C 18.085414 37.504288 18.099152 37.45377 18.195312 36.466797 C 18.250712 35.90123 18.365279 34.796467 18.449219 34.503906 C 18.643839 33.824495 19.132906 33.115479 19.666016 32.740234 C 21.687837 31.317282 25.493494 32.025462 27.552734 34.208984 C 28.328664 35.031719 28.816228 36.206419 29.205078 37.482422 C 29.429448 38.218661 29.655926 38.538987 30.009766 38.609375 C 30.335276 38.674035 30.34442 38.572175 34.46875 37.789062 C 36.76295 37.35345 37.716583 37.142147 37.851562 37.037109 C 38.141562 36.811237 38.142656 36.257056 37.853516 35.34375 C 37.357736 33.774486 36.497507 32.732355 34.904297 31.525391 C 34.116117 30.928298 33.12261 30.36354 31.4375 29.556641 C 29.83471 28.789155 29.070312 28.582094 29.070312 28.34375 C 29.070312 28.146669 29.699323 28.058138 30.970703 27.677734 C 33.756533 26.84403 35.099609 25.675247 35.099609 23.509766 C 35.099609 22.55946 34.919525 21.791791 34.640625 21.542969 C 34.269715 21.212028 33.61993 21.202706 32.0625 21.484375 C 27.07016 22.387119 27.413881 22.350734 27.181641 22.726562 C 27.058771 22.925314 27.063172 22.971691 27.289062 23.875 C 27.418422 24.392868 27.522254 25.041114 27.521484 25.191406 C 27.519484 25.511055 27.105464 26.045922 26.902344 26.236328 C 26.405334 26.701954 25.277057 27.017578 24.123047 27.017578 C 22.727267 27.017578 21.677412 26.538204 20.632812 25.425781 C 19.877991 24.621974 19.492746 23.843356 18.978516 22.412109 C 18.526946 21.155066 18.46409 20.991935 18 21 z "
     id="path816" />
</svg>
