<?xml version="1.0" encoding="UTF-8" standalone="no"?>
<svg
   xmlns:dc="http://purl.org/dc/elements/1.1/"
   xmlns:cc="http://creativecommons.org/ns#"
   xmlns:rdf="http://www.w3.org/1999/02/22-rdf-syntax-ns#"
   xmlns:svg="http://www.w3.org/2000/svg"
   xmlns="http://www.w3.org/2000/svg"
   xmlns:sodipodi="http://sodipodi.sourceforge.net/DTD/sodipodi-0.dtd"
   xmlns:inkscape="http://www.inkscape.org/namespaces/inkscape"
   width="48"
   height="48"
   version="1.1"
   id="svg6"
   sodipodi:docname="audio-x-mp3-playlist.svg"
   inkscape:version="0.92.5 (2060ec1f9f, 2020-04-08)">
  <defs
     id="defs8">
  <style
     id="current-color-scheme"
     type="text/css">
      .ColorScheme-Highlight {
        color:#5beedc;
      }
  </style>
  </defs>
  <path
     class="ColorScheme-Highlight"
     style="fill:#5beedc"
     d="M 6 0 C 4.892 0 4 0.892 4 2 L 4 46 C 4 47.108 4.892 48 6 48 L 42 48 C 43.108 48 44 47.108 44 46 L 44 13 L 43.416016 12.416016 L 42 11 L 41 10 L 34 3 L 33 2 L 31.583984 0.58398438 L 31.292969 0.29296875 L 31 0 L 6 0 z M 10 3 L 30 3 L 30 11 C 30 12.108 30.892 13 32 13 L 41 13 L 41 44 C 41 44.277 40.887781 44.526281 40.707031 44.707031 C 40.526281 44.887781 40.277 45 40 45 L 10 45 L 10 3 z M 18 16 L 18 21 L 18 31.341797 A 3.5 3.5 0 0 0 16.5 31 A 3.5 3.5 0 0 0 13 34.5 A 3.5 3.5 0 0 0 16.5 38 A 3.5 3.5 0 0 0 20 34.5 A 3.5 3.5 0 0 0 19.960938 34 L 20 34 L 20 21 L 27 21 L 27 36.341797 A 3.5 3.5 0 0 0 25.5 36 A 3.5 3.5 0 0 0 22 39.5 A 3.5 3.5 0 0 0 25.5 43 A 3.5 3.5 0 0 0 29 39.5 A 3.5 3.5 0 0 0 28.960938 39 L 29 39 L 29 21 L 31 21 L 36 21 L 36 25.341797 A 3.5 3.5 0 0 0 34.5 25 A 3.5 3.5 0 0 0 31 28.5 A 3.5 3.5 0 0 0 34.5 32 A 3.5 3.5 0 0 0 38 28.5 A 3.5 3.5 0 0 0 37.960938 28 L 38 28 L 38 21 L 38 19 L 38 16 L 31 16 L 18 16 z "
     id="path816" />
</svg>
