<?xml version="1.0" encoding="UTF-8" standalone="no"?>
<svg
   xmlns:dc="http://purl.org/dc/elements/1.1/"
   xmlns:cc="http://creativecommons.org/ns#"
   xmlns:rdf="http://www.w3.org/1999/02/22-rdf-syntax-ns#"
   xmlns:svg="http://www.w3.org/2000/svg"
   xmlns="http://www.w3.org/2000/svg"
   xmlns:sodipodi="http://sodipodi.sourceforge.net/DTD/sodipodi-0.dtd"
   xmlns:inkscape="http://www.inkscape.org/namespaces/inkscape"
   width="48"
   height="48"
   version="1.1"
   id="svg6"
   sodipodi:docname="application-wireshark-doc.svg"
   inkscape:version="0.92.5 (2060ec1f9f, 2020-04-08)">
  <defs
     id="defs8">
  <style
     id="current-color-scheme"
     type="text/css">
      .ColorScheme-Highlight {
        color:#5beedc;
      }
  </style>
  </defs>
  <path
     class="ColorScheme-Highlight"
     style="fill:#5beedc"
     d="M 6 0 C 4.892 0 4 0.892 4 2 L 4 46 C 4 47.108 4.892 48 6 48 L 42 48 C 43.108 48 44 47.108 44 46 L 44 13 L 43.416016 12.416016 L 42 11 L 41 10 L 34 3 L 33 2 L 31.583984 0.58398438 L 31.292969 0.29296875 L 31 0 L 6 0 z M 8 3 L 30 3 L 30 11 C 30 12.108 30.892 13 32 13 L 41 13 L 41 37.921875 L 32.861328 37.921875 C 32.483328 37.051875 28.023516 26.883984 33.353516 18.833984 A 1.058 1.058 0 0 0 33.466797 18.041016 A 1.058 1.058 0 0 0 33.240234 17.587891 A 1.058 1.058 0 0 0 32.408203 17.248047 A 19.654 19.654 0 0 0 14.609375 28.207031 C 11.964375 33.121031 11.584875 37.165875 11.546875 37.921875 L 7 37.921875 L 7 4 C 7 3.723 7.1122186 3.4737187 7.2929688 3.2929688 C 7.4737188 3.1122186 7.723 3 8 3 z M 30.921875 19.554688 C 26.342875 28.804688 31.162109 39.394531 31.162109 39.394531 L 31.3125 39.546875 C 31.4645 39.810875 31.766359 39.962 32.068359 40 L 41 40 L 41 44 C 41 44.277 40.887781 44.526281 40.707031 44.707031 C 40.526281 44.887781 40.277 45 40 45 L 8 45 C 7.723 45 7.4737187 44.887781 7.2929688 44.707031 C 7.1122188 44.526281 7 44.277 7 44 L 7 40 L 12.341797 40 C 12.643797 40 12.908656 39.850047 13.097656 39.623047 A 1.058 1.058 0 0 0 13.324219 39.167969 L 13.324219 39.054688 C 13.324219 39.054688 13.813875 34.142516 16.421875 29.228516 A 17.461 17.461 0 0 1 30.921875 19.554688 z "
     id="path816" />
</svg>
