<?xml version="1.0" encoding="UTF-8" standalone="no"?>
<svg
   xmlns:dc="http://purl.org/dc/elements/1.1/"
   xmlns:cc="http://creativecommons.org/ns#"
   xmlns:rdf="http://www.w3.org/1999/02/22-rdf-syntax-ns#"
   xmlns:svg="http://www.w3.org/2000/svg"
   xmlns="http://www.w3.org/2000/svg"
   xmlns:sodipodi="http://sodipodi.sourceforge.net/DTD/sodipodi-0.dtd"
   xmlns:inkscape="http://www.inkscape.org/namespaces/inkscape"
   width="48"
   height="48"
   viewBox="0 0 12.7 12.7"
   version="1.1"
   id="svg4"
   sodipodi:docname="application-vnd.android.package-archive.svg"
   inkscape:version="0.92.5 (2060ec1f9f, 2020-04-08)">
  <defs
     id="defs8">
  <style
     id="current-color-scheme"
     type="text/css">
      .ColorScheme-Highlight {
        color:#5beedc;
      }
  </style>
  </defs>
  <path
     class="ColorScheme-Highlight"
     style="fill:#5beedc"
     d="M 1.3229166,0.79374999 0.26510009,3.4401 H 6.0848999 V 0.79374999 Z m 5.2921834,0 V 3.4401 h 5.8198 L 11.377084,0.79374999 Z M 0.26510009,3.96875 v 6.35 c 0,1.172 0.94414991,2.11615 2.11614991,2.11615 h 7.9375 a 2.112,2.112 0 0 0 2.11615,-2.11615 v -6.35 h -0.792716 v 6.35 A 1.32,1.32 0 0 1 10.31875,11.642183 H 2.3802165 A 1.32,1.32 0 0 1 1.056783,10.31875 v -6.35 z M 6.9577148,4.8053913 a 0.036,0.036 0 0 0 -0.00362,5.167e-4 0.04,0.04 0 0 0 -0.026872,0.020154 L 6.7251709,5.1020141 A 1.455,1.19 0 0 0 6.218225,5.0270833 1.455,1.19 0 0 0 5.6451336,5.1242351 L 5.427059,4.8260619 A 0.05,0.05 0 0 0 5.3970867,4.805908 h -0.029972 c -0.02,0.02 -0.02,0.05028 0,0.07028 l 0.1891358,0.28267 A 1.455,1.19 0 0 0 4.7718017,6.0848999 H 7.6620645 A 1.455,1.19 0 0 0 6.8078532,5.1309529 L 6.9969887,4.8761882 c 0.01,-0.02 0.010182,-0.049945 -0.00982,-0.059945 A 0.036,0.036 0 0 0 6.9577148,4.8053913 Z M 5.6776895,5.5562499 a 0.132,0.132 0 0 1 0.011369,0 0.132,0.132 0 0 1 0.1317749,0.1328084 0.132,0.132 0 0 1 -0.1317749,0.131775 0.132,0.132 0 0 1 -0.1328084,-0.131775 0.132,0.132 0 0 1 0.1214394,-0.1328084 z m 1.0588503,0 a 0.132,0.132 0 0 1 0.010335,0 A 0.132,0.132 0 0 1 6.8791666,5.6890583 0.132,0.132 0 0 1 6.7468749,5.8208333 0.132,0.132 0 0 1 6.6151,5.6890583 0.132,0.132 0 0 1 6.7365398,5.5562499 Z M 3.96875,6.6151 A 0.264,0.264 0 0 0 3.7041667,6.8791666 v 1.0578166 a 0.265,0.265 0 1 0 0.5296833,0 V 6.8802 A 0.264,0.264 0 0 0 3.96875,6.6161334 Z m 0.7932332,0 v 2.3796998 h 0.5302002 v 0.7953001 a 0.2645,0.2645 0 1 0 0.5286499,0 V 8.9958332 H 6.6151 v 0.7942667 a 0.2645,0.2645 0 0 0 0.5286499,0 V 8.9958332 H 7.6729166 V 6.6151 H 4.7630167 Z m 3.7052001,0 a 0.264,0.264 0 0 0 -0.2651,0.2640666 v 1.0578166 a 0.265,0.265 0 1 0 0.5296834,0 V 6.8802 A 0.264,0.264 0 0 0 8.4671833,6.6161334 Z"
     id="path2"
     inkscape:connector-curvature="0" />
</svg>
