<?xml version="1.0" encoding="UTF-8" standalone="no"?>
<svg
   xmlns:dc="http://purl.org/dc/elements/1.1/"
   xmlns:cc="http://creativecommons.org/ns#"
   xmlns:rdf="http://www.w3.org/1999/02/22-rdf-syntax-ns#"
   xmlns:svg="http://www.w3.org/2000/svg"
   xmlns="http://www.w3.org/2000/svg"
   xmlns:sodipodi="http://sodipodi.sourceforge.net/DTD/sodipodi-0.dtd"
   xmlns:inkscape="http://www.inkscape.org/namespaces/inkscape"
   width="48"
   height="48"
   version="1.1"
   id="svg6"
   sodipodi:docname="application-dicom.svg"
   inkscape:version="0.92.5 (2060ec1f9f, 2020-04-08)">
  <defs
     id="defs8">
  <style
     id="current-color-scheme"
     type="text/css">
      .ColorScheme-Highlight {
        color:#5beedc;
      }
  </style>
  </defs>
  <path
     class="ColorScheme-Highlight"
     style="fill:#5beedc"
     d="M 6 0 C 4.892 0 4 0.892 4 2 L 4 46 C 4 47.108 4.892 48 6 48 L 42 48 C 43.108 48 44 47.108 44 46 L 44 13 L 43.416016 12.416016 L 42 11 L 41 10 L 34 3 L 33 2 L 31.583984 0.58398438 L 31.292969 0.29296875 L 31 0 L 6 0 z M 8 3 L 30 3 L 30 11 C 30 12.108 30.892 13 32 13 L 41 13 L 41 44 C 41 44.277 40.887781 44.526281 40.707031 44.707031 C 40.526281 44.887781 40.277 45 40 45 L 8 45 C 7.723 45 7.4737187 44.887781 7.2929688 44.707031 C 7.1122188 44.526281 7 44.277 7 44 L 7 4 C 7 3.723 7.1122186 3.4737187 7.2929688 3.2929688 C 7.4737188 3.1122186 7.723 3 8 3 z M 22.796875 16.513672 C 22.087117 16.505272 21.314234 16.571946 20.427734 16.78125 A 7.1747866 7.1747866 0 0 0 18.78125 17.421875 C 16.665 17.421875 15.844175 18.346252 15.539062 18.945312 C 14.809769 18.878332 14.192605 19.029047 13.707031 19.396484 A 2.5469423 2.5469423 0 0 0 12.8125 20.828125 A 3.1571666 3.1571666 0 0 0 11.103516 22.380859 C 10.619801 23.392008 10.803271 24.477594 10.931641 24.96875 C 10.611646 25.485952 10.508259 25.986062 10.615234 26.451172 A 1.6278849 1.6278849 0 0 0 11.123047 27.300781 A 2.6688011 2.6688011 0 0 0 11.771484 29.1875 C 12.899841 30.495389 15.146037 30.682753 15.587891 30.705078 C 15.704169 32.165524 16.810404 33.603919 19.257812 33.964844 L 19.277344 33.966797 C 19.300594 33.966797 19.571721 33.994141 20.03125 33.994141 C 20.447058 33.994141 21.012253 33.973502 21.689453 33.892578 C 23.131294 35.25535 23.58002 37.10421 23.912109 38.470703 C 24.030247 38.96558 24.13558 39.398195 24.269531 39.726562 A 0.52371384 0.52371384 0 0 0 24.839844 40.044922 L 27.205078 39.650391 A 0.52371384 0.52371384 0 0 0 27.621094 38.990234 A 5.4827165 5.4827165 0 0 1 27.412109 37.574219 C 27.565595 37.624449 27.724489 37.668889 27.878906 37.707031 C 29.134703 38.023306 30.412392 37.957479 31.476562 37.515625 C 32.595616 37.053305 33.349659 36.236688 33.605469 35.224609 C 33.639889 35.082285 33.665914 34.940036 33.683594 34.794922 C 34.576605 34.673063 35.648573 34.140806 36.474609 32.556641 C 36.474609 32.544551 36.479868 32.535714 36.486328 32.527344 C 36.509588 32.474324 37.037082 31.266252 37.193359 29.789062 C 37.385914 27.965832 36.923828 26.533457 35.845703 25.597656 A 2.3515961 2.3515961 0 0 0 35.082031 23.023438 C 34.965754 22.093218 34.089224 21.502282 33.371094 21.214844 A 3.0994929 3.0994929 0 0 0 32.384766 19.097656 C 31.424779 18.226039 30.049594 18.109375 29.378906 18.109375 L 29.357422 18.109375 C 28.702551 16.993111 27.2056 16.940727 26.333984 17.103516 A 11.873328 11.873328 0 0 0 24.796875 16.6875 A 16.07141 16.07141 0 0 0 22.796875 16.513672 z M 22.699219 17.509766 C 23.350373 17.489296 23.986501 17.550103 24.597656 17.712891 C 25.099974 17.815215 25.614217 17.956257 26.123047 18.136719 A 0.52371384 0.52371384 0 0 0 26.417969 18.154297 C 26.432849 18.147797 28.159626 17.755304 28.541016 18.822266 A 0.52371384 0.52371384 0 0 0 29.082031 19.166016 C 29.098771 19.166016 30.744072 19.020129 31.683594 19.875 A 1.9767174 1.9767174 0 0 1 32.300781 21.050781 C 31.593814 21.085201 30.49489 21.330905 29.921875 22.464844 A 0.52371384 0.52371384 0 0 0 30.855469 22.935547 C 31.338253 21.982071 32.536235 22.079423 32.753906 22.105469 C 32.945532 22.168729 34.090596 22.574936 34.046875 23.275391 A 0.52371384 0.52371384 0 0 0 34.326172 23.777344 C 34.328972 23.777344 34.514761 23.881007 34.673828 24.099609 C 34.886849 24.390768 34.956206 24.742117 34.880859 25.152344 L 34.849609 25.199219 C 34.035666 25.287589 32.814017 25.799777 32.648438 27.308594 A 0.52371384 0.52371384 0 0 0 33.689453 27.421875 C 33.793637 26.465608 34.617127 26.278373 34.96875 26.240234 C 37.259882 27.920211 35.641108 31.839707 35.533203 32.091797 C 34.965768 33.176433 34.257409 33.728973 33.367188 33.777344 C 32.983936 33.458279 31.982166 32.748677 30.232422 32.330078 A 0.52440579 0.52440579 0 0 0 29.986328 33.349609 C 31.481191 33.706814 32.33793 34.293017 32.652344 34.548828 C 32.652344 34.691151 32.627127 34.833961 32.591797 34.970703 C 32.222499 36.446963 30.221342 37.22284 28.136719 36.697266 A 5.3636483 5.3636483 0 0 1 27.142578 36.34375 A 0.52371384 0.52371384 0 0 0 26.396484 36.765625 A 7.1757168 7.1757168 0 0 0 26.484375 38.710938 L 25.111328 38.941406 A 20.161588 20.161588 0 0 1 24.927734 38.226562 C 24.622622 36.955883 24.180099 35.121446 22.875 33.619141 C 23.962427 33.354028 25.004016 33.182306 25.986328 33.097656 A 0.52371384 0.52371384 0 1 0 25.900391 32.056641 A 22.20249 22.20249 0 0 0 21.759766 32.826172 A 11.54403 11.54403 0 0 1 19.394531 32.923828 C 17.126654 32.584298 16.495696 31.216237 16.644531 30.146484 A 0.52371384 0.52371384 0 0 0 16.001953 29.568359 L 15.623047 29.658203 C 14.9598 29.628433 13.310582 29.370034 12.566406 28.505859 A 1.7004421 1.7004421 0 0 1 12.1875 27.119141 A 0.52371384 0.52371384 0 0 0 11.916016 26.591797 C 11.913216 26.591797 11.686858 26.454095 11.634766 26.21875 C 11.567786 25.935963 11.757411 25.599743 11.925781 25.367188 A 0.52371384 0.52371384 0 0 0 11.996094 24.878906 C 11.992394 24.867746 11.60586 23.754717 12.044922 22.830078 C 12.289569 22.318457 12.761415 21.941539 13.441406 21.708984 A 0.5172023 0.5172023 0 0 0 13.791016 21.257812 C 13.793816 21.252212 13.860969 20.586557 14.34375 20.226562 C 14.678629 19.976333 15.156701 19.914414 15.773438 20.039062 A 0.52371384 0.52371384 0 0 0 16.394531 19.607422 C 16.394531 19.596262 16.626229 18.506889 18.669922 18.46875 C 18.978755 18.89107 19.660337 20.002712 19.154297 20.998047 A 0.52371384 0.52371384 0 0 0 20.083984 21.472656 A 2.6948472 2.6948472 0 0 0 20.378906 20.373047 C 20.660763 20.253979 21.100572 20.122377 21.453125 20.226562 C 21.679169 20.293543 21.854329 20.459868 21.988281 20.732422 A 0.5241947 0.5241947 0 1 0 22.929688 20.273438 A 1.9190438 1.9190438 0 0 0 21.748047 19.224609 A 2.5264774 2.5264774 0 0 0 20.244141 19.302734 A 4.6650531 4.6650531 0 0 0 19.707031 18.134766 C 19.950749 18.02686 20.280341 17.901897 20.693359 17.794922 A 10.483579 10.483579 0 0 1 22.699219 17.509766 z M 25.292969 19.005859 A 2.7850786 2.7850786 0 0 0 24.636719 19.087891 A 0.52371384 0.52371384 0 0 0 24.916016 20.09375 A 1.6511404 1.6511404 0 0 1 26.042969 20.226562 C 26.33971 20.401443 26.544531 20.720065 26.654297 21.177734 A 0.52371384 0.52371384 0 0 0 27.279297 21.568359 A 0.52371384 0.52371384 0 0 0 27.667969 20.939453 C 27.494018 20.195277 27.125932 19.655655 26.576172 19.330078 A 2.4650829 2.4650829 0 0 0 25.292969 19.009766 L 25.292969 19.005859 z M 14.832031 21.970703 A 0.52371384 0.52371384 0 0 0 14.361328 22.628906 C 14.484117 23.073551 14.477047 23.442282 14.349609 23.753906 L 14.339844 23.773438 A 1.1655656 1.1655656 0 0 1 14.087891 24.142578 A 1.6539311 1.6539311 0 0 1 13.4375 24.544922 A 0.52371384 0.52371384 0 0 0 13.712891 25.554688 A 2.7181027 2.7181027 0 0 0 14.908203 24.798828 C 15.257035 25.057429 15.670775 25.191406 16.119141 25.191406 A 2.3776422 2.3776422 0 0 0 16.5 25.160156 C 17.093481 25.061556 17.536635 24.782743 17.585938 24.753906 A 0.52371384 0.52371384 0 1 0 17.021484 23.875 C 17.018684 23.875 16.710816 24.065558 16.335938 24.126953 A 0.98882383 0.98882383 0 0 1 15.416016 23.857422 A 2.8864726 2.8864726 0 0 0 15.371094 22.359375 A 0.52371384 0.52371384 0 0 0 14.884766 21.970703 A 0.52371384 0.52371384 0 0 0 14.832031 21.970703 z M 23.259766 23.447266 A 0.52371384 0.52371384 0 0 0 22.738281 24.0625 C 22.741981 24.09134 22.876495 24.810611 23.376953 25.517578 C 23.496021 25.685017 23.641618 25.864833 23.818359 26.033203 C 23.725339 26.57087 22.903278 26.86263 22.882812 26.869141 A 0.52371384 0.52371384 0 0 0 23.21875 27.857422 C 23.701534 27.697424 24.408057 27.289734 24.71875 26.636719 C 25.126187 26.822763 25.614203 26.945314 26.201172 26.945312 L 26.316406 26.945312 A 0.52445855 0.52445855 0 0 0 26.302734 25.896484 L 26.291016 25.896484 C 24.19151 25.948574 23.782184 23.962163 23.761719 23.869141 A 0.52371384 0.52371384 0 0 0 23.261719 23.447266 L 23.259766 23.447266 z M 27.6875 23.791016 A 0.52371384 0.52371384 0 0 0 27.451172 24.765625 C 27.456772 24.768425 27.981991 25.086582 28.326172 25.667969 C 28.761515 26.400052 28.721258 27.228638 28.203125 28.132812 A 0.5237661 0.5237661 0 1 0 29.111328 28.652344 C 30.018293 27.065389 29.660609 25.837648 29.199219 25.087891 A 3.9069239 3.9069239 0 0 0 27.982422 23.863281 A 0.52371384 0.52371384 0 0 0 27.738281 23.791016 A 0.52371384 0.52371384 0 0 0 27.736328 23.791016 A 0.52371384 0.52371384 0 0 0 27.6875 23.791016 z M 18.726562 26.060547 L 18.673828 26.0625 A 0.52371384 0.52371384 0 0 0 18.222656 26.646484 C 18.310096 27.364613 17.748197 27.883144 17.417969 28.125 A 3.2557699 3.2557699 0 0 0 15.597656 27.880859 A 0.52371384 0.52371384 0 0 0 15.777344 28.908203 C 15.786644 28.908203 16.668901 28.763128 17.197266 29.222656 C 17.499587 29.484048 17.643975 29.920562 17.632812 30.521484 A 0.52371384 0.52371384 0 0 0 18.679688 30.546875 C 18.694568 29.842698 18.543115 29.264959 18.232422 28.820312 C 18.744043 28.392411 19.397346 27.620727 19.257812 26.515625 A 0.52371384 0.52371384 0 0 0 18.730469 26.060547 L 18.726562 26.060547 z M 31.244141 28.371094 A 0.52371384 0.52371384 0 0 0 30.777344 29.134766 A 2.8343802 2.8343802 0 0 0 32.154297 30.363281 C 31.991508 31.003273 31.88702 32.133141 32.833984 32.923828 A 0.52092318 0.52092318 0 0 0 33.570312 32.859375 A 0.52371384 0.52371384 0 0 0 33.503906 32.119141 C 32.92717 31.636356 33.090661 30.845485 33.205078 30.488281 C 33.675769 30.430611 34.162025 30.228391 34.650391 29.873047 A 0.52371384 0.52371384 0 0 0 34.044922 29.021484 C 33.536092 29.38799 33.071684 29.522616 32.667969 29.427734 C 32.056814 29.288201 31.706753 28.660438 31.701172 28.646484 A 0.52371384 0.52371384 0 0 0 31.244141 28.371094 z M 25.099609 28.925781 A 0.52371384 0.52371384 0 0 0 24.685547 29.1875 A 1.8892768 1.8892768 0 0 1 23.085938 30.205078 A 2.6836846 2.6836846 0 0 1 22.0625 30.050781 A 0.52374359 0.52374359 0 0 0 21.664062 31.019531 C 21.725462 31.043721 22.257505 31.25 22.957031 31.25 L 23.091797 31.25 A 2.9069374 2.9069374 0 0 0 25.585938 29.710938 A 0.52371384 0.52371384 0 0 0 25.152344 28.925781 A 0.52371384 0.52371384 0 0 0 25.150391 28.925781 A 0.52371384 0.52371384 0 0 0 25.099609 28.925781 z "
     id="path816" />
</svg>
