<?xml version="1.0" encoding="UTF-8" standalone="no"?>
<svg
   xmlns:dc="http://purl.org/dc/elements/1.1/"
   xmlns:cc="http://creativecommons.org/ns#"
   xmlns:rdf="http://www.w3.org/1999/02/22-rdf-syntax-ns#"
   xmlns:svg="http://www.w3.org/2000/svg"
   xmlns="http://www.w3.org/2000/svg"
   xmlns:sodipodi="http://sodipodi.sourceforge.net/DTD/sodipodi-0.dtd"
   xmlns:inkscape="http://www.inkscape.org/namespaces/inkscape"
   width="48"
   height="48"
   version="1.1"
   id="svg6"
   sodipodi:docname="x-office-spreadsheet.svg"
   inkscape:version="0.92.5 (2060ec1f9f, 2020-04-08)">
  <defs
     id="defs8">
  <style
     id="current-color-scheme"
     type="text/css">
      .ColorScheme-Highlight {
        color:#5beedc;
      }
  </style>
  </defs>
  <path
     class="ColorScheme-Highlight"
     style="fill:#5beedc"
     d="M 6 0 C 4.892 0 4 0.892 4 2 L 4 46 C 4 47.108 4.892 48 6 48 L 42 48 C 43.108 48 44 47.108 44 46 L 44 13 L 43.416016 12.416016 L 42 11 L 41 10 L 34 3 L 33 2 L 31.583984 0.58398438 L 31.292969 0.29296875 L 31 0 L 6 0 z M 8 3 L 30 3 L 30 11 C 30 12.108 30.892 13 32 13 L 41 13 L 41 44 C 41 44.277 40.887781 44.526281 40.707031 44.707031 C 40.526281 44.887781 40.277 45 40 45 L 8 45 C 7.723 45 7.4737187 44.887781 7.2929688 44.707031 C 7.1122188 44.526281 7 44.277 7 44 L 7 4 C 7 3.723 7.1122186 3.4737187 7.2929688 3.2929688 C 7.4737188 3.1122186 7.723 3 8 3 z M 11.166016 16 C 10.519682 16 10 16.519682 10 17.166016 L 10 28.833984 C 10 29.480318 10.519682 30 11.166016 30 L 16 30 L 16 40 C 16 41.108 16.892 42 18 42 L 36 42 C 37.108 42 38 41.108 38 40 L 38 24 C 38 22.892 37.108 22 36 22 L 23 22 L 23 17.166016 C 23 16.519682 22.480318 16 21.833984 16 L 11.166016 16 z M 12 18 L 21 18 L 21 19 L 12 19 L 12 18 z M 12 22 L 15 22 L 15 23 L 12 23 L 12 22 z M 18 22 L 21 22 L 21 23 L 18 23 L 18 22 z M 23 24 L 36 24 L 36 40 L 18 40 L 18 30 L 21.833984 30 C 21.973437 30 22.102849 29.964359 22.226562 29.919922 L 30.5 36.125 L 29 38 L 33 38 L 34 38 L 33.833984 37.166016 L 34 37 L 33.765625 36.824219 L 33 33 L 31.375 35.03125 L 23 28.75 L 23 24 z M 12 26 L 15 26 L 15 27 L 12 27 L 12 26 z M 18 26 L 21 26 L 21 27 L 18 27 L 18 26 z "
     id="path816" />
</svg>
