<?xml version="1.0" encoding="UTF-8" standalone="no"?>
<svg
   xmlns:dc="http://purl.org/dc/elements/1.1/"
   xmlns:cc="http://creativecommons.org/ns#"
   xmlns:rdf="http://www.w3.org/1999/02/22-rdf-syntax-ns#"
   xmlns:svg="http://www.w3.org/2000/svg"
   xmlns="http://www.w3.org/2000/svg"
   xmlns:sodipodi="http://sodipodi.sourceforge.net/DTD/sodipodi-0.dtd"
   xmlns:inkscape="http://www.inkscape.org/namespaces/inkscape"
   width="48"
   height="48"
   viewBox="0 0 12.7 12.7"
   version="1.1"
   id="svg4"
   sodipodi:docname="application-vnd.comicbook+zip.svg"
   inkscape:version="0.92.5 (2060ec1f9f, 2020-04-08)">
  <defs
     id="defs8">
  <style
     id="current-color-scheme"
     type="text/css">
      .ColorScheme-Highlight {
        color:#5beedc;
      }
  </style>
  </defs>
  <path
     class="ColorScheme-Highlight"
     style="fill:#5beedc"
     d="M 1.323,0.794 0.265,3.44 h 5.82 V 0.794 Z m 5.292,0 V 3.44 h 5.82 L 11.377,0.794 Z m -6.35,3.175 v 6.35 c 0,1.172 0.944,2.116 2.116,2.116 h 7.938 a 2.112,2.112 0 0 0 2.116,-2.116 v -6.35 h -0.793 v 6.35 a 1.32,1.32 0 0 1 -1.323,1.323 H 2.38 A 1.32,1.32 0 0 1 1.057,10.319 v -6.35 z m 6.217,0.793 c -1.539,0 -2.778,0.886 -2.778,1.985 0,0.246 0.065,0.48 0.179,0.698 0.131,0.315 0.37,0.596 0.686,0.82 0.188,0.131 0.406,0.24 0.642,0.33 -0.1,0.44 -0.207,0.73 -0.567,1.252 L 4.498,10.054 4.732,9.948 C 5.372,9.66 5.826,9.329 6.254,8.813 6.328,8.819 6.402,8.823 6.478,8.823 7.22,8.823 7.892,8.61 8.383,8.263 8.653,8.073 8.866,7.838 9.005,7.577 9.168,7.324 9.26,7.044 9.26,6.747 9.26,5.647 8.021,4.762 6.482,4.762 Z"
     id="path2"
     inkscape:connector-curvature="0" />
</svg>
