<?xml version="1.0" encoding="UTF-8" standalone="no"?>
<svg
   xmlns:dc="http://purl.org/dc/elements/1.1/"
   xmlns:cc="http://creativecommons.org/ns#"
   xmlns:rdf="http://www.w3.org/1999/02/22-rdf-syntax-ns#"
   xmlns:svg="http://www.w3.org/2000/svg"
   xmlns="http://www.w3.org/2000/svg"
   xmlns:sodipodi="http://sodipodi.sourceforge.net/DTD/sodipodi-0.dtd"
   xmlns:inkscape="http://www.inkscape.org/namespaces/inkscape"
   width="48"
   height="48"
   version="1.1"
   id="svg6"
   sodipodi:docname="application-x-clementine.svg"
   inkscape:version="0.92.5 (2060ec1f9f, 2020-04-08)">
  <defs
     id="defs8">
  <style
     id="current-color-scheme"
     type="text/css">
      .ColorScheme-Highlight {
        color:#5beedc;
      }
  </style>
  </defs>
  <path
     class="ColorScheme-Highlight"
     style="fill:#5beedc"
     d="M 6 0 C 4.892 0 4 0.892 4 2 L 4 46 C 4 47.108 4.892 48 6 48 L 42 48 C 43.108 48 44 47.108 44 46 L 44 13 L 43.416016 12.416016 L 42 11 L 41 10 L 34 3 L 33 2 L 31.583984 0.58398438 L 31.292969 0.29296875 L 31 0 L 6 0 z M 8 3 L 30 3 L 30 11 C 30 12.108 30.892 13 32 13 L 41 13 L 41 44 C 41 44.277 40.887781 44.526281 40.707031 44.707031 C 40.526281 44.887781 40.277 45 40 45 L 8 45 C 7.723 45 7.4737187 44.887781 7.2929688 44.707031 C 7.1122188 44.526281 7 44.277 7 44 L 7 4 C 7 3.723 7.1122186 3.4737187 7.2929688 3.2929688 C 7.4737188 3.1122187 7.723 3 8 3 z "
     id="path816" />
  <path
     id="c-3"
     d="m 14.34388,24.00062 c -1.2286,0.99309 -2.1826,2.2756 -2.75,3.7499 -1.7811,4.6279 0.55969,9.875 5.1876,11.656 4.6279,1.7811 9.875,-0.55969 11.656,-5.1876 l -2.0313,-0.78124 -6.4061,-2.4375 4.2861,4.4664 c -0.41382,0.33431 -1.492,0.97672 -1.9751,1.1913 l -2.3109,-5.6578 -0.30932,6.0631 c -0.51079,-0.05513 -1.5976,-0.33967 -2.0994,-0.53282 l 2.4088,-5.5302 -4.7192,3.6864 c -0.33235,-0.41238 -0.66199,-0.98905 -0.87564,-1.47 l 5.5947,-2.2165 -6,-0.65626 c 0.05512,-0.51079 0.2134,-1.4081 0.40658,-1.9101 L 20,31 16.2187,26.2812 15.71869,25.68744 Z"
     style="fill:#ff6600"
     inkscape:connector-curvature="0" />
</svg>
