<?xml version="1.0" encoding="UTF-8" standalone="no"?>
<svg
   xmlns:dc="http://purl.org/dc/elements/1.1/"
   xmlns:cc="http://creativecommons.org/ns#"
   xmlns:rdf="http://www.w3.org/1999/02/22-rdf-syntax-ns#"
   xmlns:svg="http://www.w3.org/2000/svg"
   xmlns="http://www.w3.org/2000/svg"
   xmlns:sodipodi="http://sodipodi.sourceforge.net/DTD/sodipodi-0.dtd"
   xmlns:inkscape="http://www.inkscape.org/namespaces/inkscape"
   width="48"
   height="48"
   version="1.1"
   id="svg6"
   sodipodi:docname="font-x-generic.svg"
   inkscape:version="0.92.5 (2060ec1f9f, 2020-04-08)">
  <defs
     id="defs8">
  <style
     id="current-color-scheme"
     type="text/css">
      .ColorScheme-Highlight {
        color:#5beedc;
      }
  </style>
  </defs>
  <path
     class="ColorScheme-Highlight"
     style="fill:#5beedc"
     d="M 6 0 C 4.892 0 4 0.892 4 2 L 4 46 C 4 47.108 4.892 48 6 48 L 42 48 C 43.108 48 44 47.108 44 46 L 44 13 L 43.416016 12.416016 L 42 11 L 41 10 L 34 3 L 33 2 L 31.583984 0.58398438 L 31.292969 0.29296875 L 31 0 L 6 0 z M 8 3 L 30 3 L 30 11 C 30 12.108 30.892 13 32 13 L 41 13 L 41 44 C 41 44.277 40.887781 44.526281 40.707031 44.707031 C 40.526281 44.887781 40.277 45 40 45 L 8 45 C 7.723 45 7.4737187 44.887781 7.2929688 44.707031 C 7.1122188 44.526281 7 44.277 7 44 L 7 4 C 7 3.723 7.1122186 3.4737187 7.2929688 3.2929688 C 7.4737188 3.1122186 7.723 3 8 3 z M 22 19 L 10 40 L 8 40 L 8 41 L 15 41 L 15 40 L 11 40 L 14.529297 34 L 22.941406 34 L 24 40 L 21 40 L 21 41 L 28 41 L 28 40.398438 A 5.4999998 5.4999998 0 0 0 30.5 41 A 5.4999998 5.4999998 0 0 0 34.363281 39.408203 C 34.867312 40.352836 35.850484 41 37 41 C 38.270713 41 39.149174 40.111099 39.587891 39 L 38.794922 39 C 38.575709 39.555862 38.13558 40 37.5 40 C 36.669 40 36 39.331 36 38.5 L 36 33 L 36 31 C 36 30.446 35.554 30 35 30 C 34.446 30 34 30.446 34 31 L 34 31.263672 A 5.4999998 5.4999998 0 0 0 30.5 30 A 5.4999998 5.4999998 0 0 0 25.650391 32.914062 L 23 19 L 22 19 z M 21 23 L 22.765625 33 L 15.117188 33 L 21 23 z M 31 31 A 3.9999998 4.4999995 0 0 1 34 32.533203 C 34.000539 32.682189 34 32.8116 34 33 L 34 35 L 34 38 C 34 38.143388 34.021746 38.280055 34.041016 38.417969 A 3.9999998 4.4999995 0 0 1 31 40 A 3.9999998 4.4999995 0 0 1 27 35.5 A 3.9999998 4.4999995 0 0 1 31 31 z "
     id="path816" />
</svg>
