<?xml version="1.0" encoding="UTF-8" standalone="no"?>
<svg
   xmlns:dc="http://purl.org/dc/elements/1.1/"
   xmlns:cc="http://creativecommons.org/ns#"
   xmlns:rdf="http://www.w3.org/1999/02/22-rdf-syntax-ns#"
   xmlns:svg="http://www.w3.org/2000/svg"
   xmlns="http://www.w3.org/2000/svg"
   xmlns:sodipodi="http://sodipodi.sourceforge.net/DTD/sodipodi-0.dtd"
   xmlns:inkscape="http://www.inkscape.org/namespaces/inkscape"
   width="48"
   height="48"
   version="1.1"
   id="svg6"
   sodipodi:docname="application-x-sln.svg"
   inkscape:version="0.92.5 (2060ec1f9f, 2020-04-08)">
  <defs
     id="defs8">
  <style
     id="current-color-scheme"
     type="text/css">
      .ColorScheme-Highlight {
        color:#5beedc;
      }
  </style>
  </defs>
  <path
     class="ColorScheme-Highlight"
     style="fill:#5beedc"
     d="M 6 0 C 4.892 0 4 0.892 4 2 L 4 46 C 4 47.108 4.892 48 6 48 L 42 48 C 43.108 48 44 47.108 44 46 L 44 13 L 43.416016 12.416016 L 42 11 L 41 10 L 34 3 L 33 2 L 31.583984 0.58398438 L 31.292969 0.29296875 L 31 0 L 6 0 z M 8 3 L 30 3 L 30 11 C 30 12.108 30.892 13 32 13 L 41 13 L 41 23.476562 C 40.13562 20.160204 38.773759 17.598895 37.625 14.847656 L 32.314453 17.035156 C 33.533453 19.505156 35.133266 21.969406 35.697266 23.191406 C 37.275266 26.614406 37.851703 28.144906 37.720703 30.753906 C 37.592703 33.275906 36.710156 34.830406 35.160156 36.316406 C 33.609156 37.803406 31.495594 38.542406 28.933594 38.191406 C 23.507594 37.448406 21.761812 33.387156 21.632812 31.410156 C 21.525813 29.782156 22.678656 25.776656 26.847656 25.972656 C 29.737656 26.108656 31.360641 27.723156 31.556641 30.410156 C 31.699641 32.390156 29.761 34.357656 26.625 33.347656 C 26.12 33.184656 26.08525 34.081156 26.65625 34.535156 C 28.12625 35.705156 33.947734 35.258156 33.927734 30.660156 C 33.908734 26.400156 30.460859 23.554156 27.130859 23.535156 C 20.157859 23.495156 18.819313 28.938406 19.070312 32.691406 C 19.350313 36.851406 24.625625 41.879906 30.640625 41.878906 C 34.49565 41.878906 39.136222 39.046785 41 34.396484 L 41 44 C 41 44.277 40.887781 44.526281 40.707031 44.707031 C 40.526281 44.887781 40.277 45 40 45 L 8 45 C 7.723 45 7.4737187 44.887781 7.2929688 44.707031 C 7.1122188 44.526281 7 44.277 7 44 L 7 4 C 7 3.723 7.1122186 3.4737187 7.2929688 3.2929688 C 7.4737188 3.1122186 7.723 3 8 3 z "
     id="path816" />
  <path
     d="m 17.318,14.848 c -3.86,0 -8.508,2.839 -10.367,7.5 v 10.875 c 0.864,3.33 2.23,5.897 3.382,8.656 l 5.31,-2.187 c -1.219,-2.47 -2.818,-4.934 -3.382,-6.156 -1.578,-3.423 -2.154,-4.954 -2.023,-7.563 0.128,-2.522 1.01,-4.076 2.56,-5.562 1.551,-1.487 3.665,-2.226 6.227,-1.875 5.426,0.743 7.172,4.803 7.301,6.78 0.107,1.628 -1.046,5.634 -5.215,5.438 -2.89,-0.136 -4.514,-1.75 -4.71,-4.437 -0.143,-1.98 1.795,-3.948 4.931,-2.938 0.505,0.163 0.54,-0.733 -0.031,-1.187 -1.47,-1.17 -7.29,-0.723 -7.27,3.875 0.019,4.26 3.466,7.106 6.796,7.125 6.973,0.04 8.311,-5.403 8.06,-9.156 -0.28,-4.16 -5.554,-9.189 -11.569,-9.188 z"
     id="path35"
     inkscape:connector-curvature="0"
     class="ColorScheme-Highlight"
     style="opacity:0.75;fill:#5beedc" />
</svg>
