<?xml version="1.0" encoding="UTF-8" standalone="no"?>
<svg
   xmlns:dc="http://purl.org/dc/elements/1.1/"
   xmlns:cc="http://creativecommons.org/ns#"
   xmlns:rdf="http://www.w3.org/1999/02/22-rdf-syntax-ns#"
   xmlns:svg="http://www.w3.org/2000/svg"
   xmlns="http://www.w3.org/2000/svg"
   xmlns:sodipodi="http://sodipodi.sourceforge.net/DTD/sodipodi-0.dtd"
   xmlns:inkscape="http://www.inkscape.org/namespaces/inkscape"
   width="48"
   height="48"
   version="1.1"
   id="svg6"
   sodipodi:docname="application-x-blender.svg"
   inkscape:version="0.92.5 (2060ec1f9f, 2020-04-08)">
  <defs
     id="defs8">
  <style
     id="current-color-scheme"
     type="text/css">
      .ColorScheme-Highlight {
        color:#5beedc;
      }
  </style>
  </defs>
  <path
     class="ColorScheme-Highlight"
     style="fill:#5beedc"
     d="M 6 0 C 4.892 0 4 0.892 4 2 L 4 46 C 4 47.108 4.892 48 6 48 L 42 48 C 43.108 48 44 47.108 44 46 L 44 13 L 43.416016 12.416016 L 42 11 L 41 10 L 34 3 L 33 2 L 31.583984 0.58398438 L 31.292969 0.29296875 L 31 0 L 6 0 z M 8 3 L 30 3 L 30 11 C 30 12.108 30.892 13 32 13 L 41 13 L 41 44 C 41 44.277 40.887781 44.526281 40.707031 44.707031 C 40.526281 44.887781 40.277 45 40 45 L 8 45 C 7.723 45 7.4737187 44.887781 7.2929688 44.707031 C 7.1122188 44.526281 7 44.277 7 44 L 7 4 C 7 3.723 7.1122186 3.4737187 7.2929688 3.2929688 C 7.4737188 3.1122186 7.723 3 8 3 z M 23.625 17.001953 A 1.5 1.5 0 0 0 22.125 18.501953 A 1.5 1.5 0 0 0 22.560547 19.556641 L 22.556641 19.558594 L 26 23 L 14.5 23 A 1.5 1.5 0 0 0 13 24.5 A 1.5 1.5 0 0 0 14.5 26 L 20 26 L 13.568359 32.433594 A 1.5 1.5 0 0 0 13 33.611328 A 1.5 1.5 0 0 0 14.5 35.111328 A 1.5 1.5 0 0 0 15.583984 34.644531 C 15.587984 34.647531 15.58875 34.647391 15.59375 34.650391 L 19.011719 31.234375 A 8 8 0 0 0 27 39.001953 A 8 8 0 0 0 35 31.001953 A 8 8 0 0 0 32.003906 24.761719 L 24.732422 17.492188 A 1.5 1.5 0 0 1 24.730469 17.490234 A 1.5 1.5 0 0 0 23.625 17.001953 z M 27 26.001953 A 5 5 0 0 1 30.033203 27.035156 L 30.900391 27.902344 L 30.912109 27.890625 A 5 5 0 0 1 32 31.001953 A 5 5 0 0 1 27 36.001953 A 5 5 0 0 1 22 31.001953 A 5 5 0 0 1 27 26.001953 z M 27 29.001953 A 2 2 0 0 0 25 31.001953 A 2 2 0 0 0 27 33.001953 A 2 2 0 0 0 29 31.001953 A 2 2 0 0 0 27 29.001953 z "
     id="path816" />
</svg>
