<?xml version="1.0" encoding="UTF-8" standalone="no"?>
<svg
   xmlns:dc="http://purl.org/dc/elements/1.1/"
   xmlns:cc="http://creativecommons.org/ns#"
   xmlns:rdf="http://www.w3.org/1999/02/22-rdf-syntax-ns#"
   xmlns:svg="http://www.w3.org/2000/svg"
   xmlns="http://www.w3.org/2000/svg"
   xmlns:sodipodi="http://sodipodi.sourceforge.net/DTD/sodipodi-0.dtd"
   xmlns:inkscape="http://www.inkscape.org/namespaces/inkscape"
   width="48"
   height="48"
   viewBox="0 0 12.7 12.7"
   version="1.1"
   id="svg6"
   sodipodi:docname="application-x-deb.svg"
   inkscape:version="0.92.5 (2060ec1f9f, 2020-04-08)">
  <defs
     id="defs8">
  <style
     id="current-color-scheme"
     type="text/css">
      .ColorScheme-Highlight {
        color:#5beedc;
      }
  </style>
  </defs>
  <path
     class="ColorScheme-Highlight"
     style="fill:#5beedc"
     d="M 5 3 L 1.0019531 13.001953 L 22.998047 13.001953 L 22.998047 3 L 5 3 z M 25.001953 3 L 25.001953 13.001953 L 46.998047 13.001953 L 43 3 L 25.001953 3 z M 1.0019531 15 L 1.0019531 39 C 1.0019531 43.429603 4.5703937 46.998047 9 46.998047 L 39 46.998047 A 7.9823618 7.9823618 0 0 0 46.998047 39 L 46.998047 15 L 44.001953 15 L 44.001953 39 A 4.988976 4.988976 0 0 1 39 44.001953 L 8.9960938 44.001953 A 4.988976 4.988976 0 0 1 3.9941406 39 L 3.9941406 15 L 1.0019531 15 z M 16 22 L 16 28.181641 C 15.68601 28.070688 15.352917 28 15 28 L 11 28 C 9.338 28 8 29.338 8 31 L 8 35 C 8 36.662 9.338 38 11 38 L 15 38 C 15.352917 38 15.68601 37.929326 16 37.818359 L 16 38 L 18 38 L 18 35 L 18 31 L 18 22 L 16 22 z M 30 22 L 30 31 L 30 35 L 30 38 L 32 38 L 32 37.818359 C 32.313992 37.929326 32.647083 38 33 38 L 37 38 C 38.662001 38 40 36.662 40 35 L 40 31 C 40 29.338 38.662001 28 37 28 L 33 28 C 32.647083 28 32.313992 28.070689 32 28.181641 L 32 22 L 30 22 z M 19 26 L 19 30 L 19 32 L 19 35 L 19 36 C 19 37.108 19.892 38 21 38 L 27 38 L 29 38 L 29 36 L 25 36 L 22 36 C 21.446 36 21 35.554 21 35 L 21 34 L 27 34 C 28.108 34 29 33.108 29 32 L 29 30 C 29 28.892 28.108 28 27 28 L 21 28 L 21 26 L 19 26 z M 12 30 L 14 30 C 15.108 30 16 30.892 16 32 L 16 34 C 16 35.108 15.108 36 14 36 L 12 36 C 10.892 36 10 35.108 10 34 L 10 32 C 10 30.892 10.892 30 12 30 z M 22 30 L 26 30 C 26.554 30 27 30.446 27 31 C 27 31.554 26.554 32 26 32 L 22 32 C 21.446 32 21 31.554 21 31 C 21 30.446 21.446 30 22 30 z M 34 30 L 36 30 C 37.108 30 38 30.892 38 32 L 38 34 C 38 35.108 37.108 36 36 36 L 34 36 C 32.892 36 32 35.108 32 34 L 32 32 C 32 30.892 32.892 30 34 30 z "
     transform="scale(0.26458333)"
     id="path859" />
</svg>
