<?xml version="1.0" encoding="UTF-8" standalone="no"?>
<svg
   xmlns:dc="http://purl.org/dc/elements/1.1/"
   xmlns:cc="http://creativecommons.org/ns#"
   xmlns:rdf="http://www.w3.org/1999/02/22-rdf-syntax-ns#"
   xmlns:svg="http://www.w3.org/2000/svg"
   xmlns="http://www.w3.org/2000/svg"
   xmlns:sodipodi="http://sodipodi.sourceforge.net/DTD/sodipodi-0.dtd"
   xmlns:inkscape="http://www.inkscape.org/namespaces/inkscape"
   width="48"
   height="48"
   version="1.1"
   id="svg6"
   sodipodi:docname="application-x-trash.svg"
   inkscape:version="0.92.5 (2060ec1f9f, 2020-04-08)">
  <defs
     id="defs8">
  <style
     id="current-color-scheme"
     type="text/css">
      .ColorScheme-Highlight {
        color:#5beedc;
      }
  </style>
  </defs>
  <path
     class="ColorScheme-Highlight"
     style="fill:#5beedc"
     d="M 6 0 C 4.892 0 4 0.892 4 2 L 4 46 C 4 47.108 4.892 48 6 48 L 42 48 C 43.108 48 44 47.108 44 46 L 44 13 L 43.416016 12.416016 L 42 11 L 41 10 L 34 3 L 33 2 L 31.583984 0.58398438 L 31.292969 0.29296875 L 31 0 L 6 0 z M 8 3 L 30 3 L 30 11 C 30 12.108 30.892 13 32 13 L 41 13 L 41 44 C 41 44.277 40.887781 44.526281 40.707031 44.707031 C 40.526281 44.887781 40.277 45 40 45 L 8 45 C 7.723 45 7.4737187 44.887781 7.2929688 44.707031 C 7.1122188 44.526281 7 44.277 7 44 L 7 4 C 7 3.723 7.1122186 3.4737187 7.2929688 3.2929688 C 7.4737188 3.1122186 7.723 3 8 3 z M 22 17 C 20.892 17 20 17.892 20 19 L 20 20 L 12 20 L 12 22 L 14 22 L 14 41 C 14 41.554 14.446 42 15 42 L 33 42 C 33.554 42 34 41.554 34 41 L 34 22 L 36 22 L 36 20 L 28 20 L 28 19 C 28 17.892 27.108 17 26 17 L 22 17 z M 23 18 L 25 18 C 25.554 18 26 18.446 26 19 L 26 20 L 22 20 L 22 19 C 22 18.446 22.446 18 23 18 z M 16 22 L 32 22 L 32 39 C 32 39.554 31.554 40 31 40 L 17 40 C 16.446 40 16 39.554 16 39 L 16 22 z M 24 25 C 23.446 25 23 25.446 23 26 L 23 36 C 23 36.554 23.446 37 24 37 C 24.554 37 25 36.554 25 36 L 25 26 C 25 25.446 24.554 25 24 25 z M 19 27 C 18.446 27 18 27.446 18 28 L 18 34 C 18 34.554 18.446 35 19 35 C 19.554 35 20 34.554 20 34 L 20 28 C 20 27.446 19.554 27 19 27 z M 29 27 C 28.446 27 28 27.446 28 28 L 28 34 C 28 34.554 28.446 35 29 35 C 29.554 35 30 34.554 30 34 L 30 28 C 30 27.446 29.554 27 29 27 z "
     id="path816" />
</svg>
