<?xml version="1.0" encoding="UTF-8" standalone="no"?>
<svg
   xmlns:dc="http://purl.org/dc/elements/1.1/"
   xmlns:cc="http://creativecommons.org/ns#"
   xmlns:rdf="http://www.w3.org/1999/02/22-rdf-syntax-ns#"
   xmlns:svg="http://www.w3.org/2000/svg"
   xmlns="http://www.w3.org/2000/svg"
   xmlns:sodipodi="http://sodipodi.sourceforge.net/DTD/sodipodi-0.dtd"
   xmlns:inkscape="http://www.inkscape.org/namespaces/inkscape"
   width="48"
   height="48"
   version="1.1"
   id="svg6"
   sodipodi:docname="application-x-labplot2.svg"
   inkscape:version="0.92.5 (2060ec1f9f, 2020-04-08)">
  <defs
     id="defs8">
  <style
     id="current-color-scheme"
     type="text/css">
      .ColorScheme-Highlight {
        color:#5beedc;
      }
  </style>
  </defs>
  <path
     class="ColorScheme-Highlight"
     style="fill:#5beedc"
     d="M 6 0 C 4.892 0 4 0.892 4 2 L 4 46 C 4 47.108 4.892 48 6 48 L 42 48 C 43.108 48 44 47.108 44 46 L 44 13 L 43.416016 12.416016 L 42 11 L 41 10 L 34 3 L 33 2 L 31.583984 0.58398438 L 31.292969 0.29296875 L 31 0 L 6 0 z M 8 3 L 30 3 L 30 11 C 30 12.108 30.892 13 32 13 L 41 13 L 41 31 L 40 31 L 40 32 L 41 32 L 41 44 C 41 44.277 40.887781 44.526281 40.707031 44.707031 C 40.526281 44.887781 40.277 45 40 45 L 8 45 C 7.723 45 7.4737187 44.887781 7.2929688 44.707031 C 7.1122188 44.526281 7 44.277 7 44 L 7 32 L 8 32 L 8 31 L 7 31 L 7 4 C 7 3.723 7.1122186 3.4737187 7.2929688 3.2929688 C 7.4737188 3.1122185 7.723 3 8 3 z M 27.095703 19.542969 A 8 6 45 0 0 23.232422 20.953125 A 8 6 45 0 0 24.646484 30.853516 A 7 5 45 0 1 24.783203 31 L 22 31 L 22 32 L 25.623047 32 A 7 5 45 0 1 26.060547 39.337891 A 7 5 45 0 1 17.576172 37.923828 L 16.869141 38.630859 A 8 6 45 0 0 26.767578 40.046875 A 8 6 45 0 0 25.353516 30.146484 A 7 5 45 0 1 23.939453 21.662109 A 7 5 45 0 1 32.423828 23.076172 L 33.130859 22.369141 A 8 6 45 0 0 27.095703 19.542969 z M 10 31 L 10 32 L 14 32 L 14 31 L 10 31 z M 16 31 L 16 32 L 20 32 L 20 31 L 16 31 z M 28 31 L 28 32 L 32 32 L 32 31 L 28 31 z M 34 31 L 34 32 L 38 32 L 38 31 L 34 31 z "
     id="path816" />
</svg>
