<?xml version="1.0" encoding="UTF-8" standalone="no"?>
<svg
   xmlns:dc="http://purl.org/dc/elements/1.1/"
   xmlns:cc="http://creativecommons.org/ns#"
   xmlns:rdf="http://www.w3.org/1999/02/22-rdf-syntax-ns#"
   xmlns:svg="http://www.w3.org/2000/svg"
   xmlns="http://www.w3.org/2000/svg"
   xmlns:sodipodi="http://sodipodi.sourceforge.net/DTD/sodipodi-0.dtd"
   xmlns:inkscape="http://www.inkscape.org/namespaces/inkscape"
   width="48"
   height="48"
   version="1.1"
   id="svg6"
   sodipodi:docname="authors.svg"
   inkscape:version="0.92.5 (2060ec1f9f, 2020-04-08)">
  <defs
     id="defs8">
  <style
     id="current-color-scheme"
     type="text/css">
      .ColorScheme-Highlight {
        color:#5beedc;
      }
  </style>
  </defs>
  <path
     class="ColorScheme-Highlight"
     style="fill:#5beedc"
     d="M 6 0 C 4.892 0 4 0.892 4 2 L 4 46 C 4 47.108 4.892 48 6 48 L 42 48 C 43.108 48 44 47.108 44 46 L 44 13 L 43.416016 12.416016 L 42 11 L 41 10 L 34 3 L 33 2 L 31.583984 0.58398438 L 31.292969 0.29296875 L 31 0 L 6 0 z M 8 3 L 30 3 L 30 11 C 30 12.108 30.892 13 32 13 L 41 13 L 41 44 C 41 44.277 40.887781 44.526281 40.707031 44.707031 C 40.526281 44.887781 40.277 45 40 45 L 8 45 C 7.723 45 7.4737187 44.887781 7.2929688 44.707031 C 7.1122188 44.526281 7 44.277 7 44 L 7 4 C 7 3.723 7.1122186 3.4737187 7.2929688 3.2929688 C 7.4737188 3.1122186 7.723 3 8 3 z M 30.109375 16.882812 A 6.9999999 6.9999999 0 0 0 23.109375 23.882812 A 6.9999999 6.9999999 0 0 0 30.109375 30.882812 A 6.9999999 6.9999999 0 0 0 37.109375 23.882812 A 6.9999999 6.9999999 0 0 0 30.109375 16.882812 z M 15.609375 18.882812 A 5.4999998 5.4999998 0 0 0 10.109375 24.382812 A 5.4999998 5.4999998 0 0 0 15.609375 29.882812 A 5.4999998 5.4999998 0 0 0 21.109375 24.382812 A 5.4999998 5.4999998 0 0 0 15.609375 18.882812 z M 12.109375 32.882812 C 10.447375 32.882812 9.109375 34.220813 9.109375 35.882812 L 9 35.882812 L 9 39 L 21.109375 39 L 21.109375 41.882812 L 39.109375 41.882812 L 39.109375 37.882812 C 39.109375 35.666812 37.325375 33.882812 35.109375 33.882812 L 25.109375 33.882812 C 23.872917 33.882812 22.785346 34.450209 22.052734 35.326172 C 21.792366 33.932978 20.580346 32.882812 19.109375 32.882812 L 12.109375 32.882812 z "
     id="path816" />
</svg>
