<?xml version="1.0" encoding="UTF-8" standalone="no"?>
<svg
   xmlns:dc="http://purl.org/dc/elements/1.1/"
   xmlns:cc="http://creativecommons.org/ns#"
   xmlns:rdf="http://www.w3.org/1999/02/22-rdf-syntax-ns#"
   xmlns:svg="http://www.w3.org/2000/svg"
   xmlns="http://www.w3.org/2000/svg"
   xmlns:sodipodi="http://sodipodi.sourceforge.net/DTD/sodipodi-0.dtd"
   xmlns:inkscape="http://www.inkscape.org/namespaces/inkscape"
   width="48"
   height="48"
   viewBox="0 0 12.7 12.7"
   version="1.1"
   id="svg6"
   sodipodi:docname="application-x-rpm.svg"
   inkscape:version="0.92.5 (2060ec1f9f, 2020-04-08)">
  <defs
     id="defs8">
  <style
     id="current-color-scheme"
     type="text/css">
      .ColorScheme-Highlight {
        color:#5beedc;
      }
  </style>
  </defs>
  <path
     class="ColorScheme-Highlight"
     style="fill:#5beedc"
     d="M 5 3 L 1.0019531 13.001953 L 22.998047 13.001953 L 22.998047 3 L 5 3 z M 25.001953 3 L 25.001953 13.001953 L 46.998047 13.001953 L 43 3 L 25.001953 3 z M 1.0019531 15 L 1.0019531 39 C 1.0019531 43.429606 4.5703939 46.998047 9 46.998047 L 39 46.998047 A 7.982362 7.982362 0 0 0 46.998047 39 L 46.998047 15 L 44.001953 15 L 44.001953 39 A 4.9889762 4.9889762 0 0 1 39 44.001953 L 8.9960938 44.001953 A 4.9889762 4.9889762 0 0 1 3.9941406 39 L 3.9941406 15 L 1.0019531 15 z M 6 26 L 6 31 L 6 33 L 6 38 L 8 38 L 8 33 L 8 32 C 8 30.892 8.8920001 30 10 30 L 12 30 C 13.108 30 14 30.892 14 32 L 16 32 L 16 31 C 16 29.338 14.662 28 13 28 L 9 28 C 8.6470826 28 8.31399 28.070688 8 28.181641 L 8 26 L 6 26 z M 17 26 L 17 30 L 17 33 L 17 38 L 19 38 L 19 35 L 25 35 C 26.108 35 27 34.108 27 33 L 27 30 C 27 28.892 26.108 28 25 28 L 19 28 L 19 26 L 17 26 z M 28 26 L 28 30 L 28 36 L 28 38 L 30 38 L 30 31 C 30 30.723 30.112219 30.473719 30.292969 30.292969 C 30.473719 30.112219 30.723 30 31 30 L 33 30 C 33.277 30 33.526281 30.112219 33.707031 30.292969 C 33.887781 30.473719 34 30.723 34 31 L 34 38 L 36 38 L 36 33 L 36 31 C 36 30.723 36.112219 30.473719 36.292969 30.292969 C 36.473719 30.112219 36.723 30 37 30 L 39 30 C 39.277 30 39.526281 30.112219 39.707031 30.292969 C 39.887781 30.473719 40 30.723 40 31 L 40 38 L 42 38 L 42 36 L 42 30 C 42 28.892 41.108 28 40 28 L 36 28 C 35.63307 28 35.295001 28.104291 35 28.275391 C 34.704999 28.104291 34.36693 28 34 28 L 30 28 L 30 26 L 28 26 z M 20 30 L 24 30 C 24.554 30 25 30.446 25 31 L 25 32 C 25 32.554 24.554 33 24 33 L 20 33 C 19.446 33 19 32.554 19 32 L 19 31 C 19 30.446 19.446 30 20 30 z "
     transform="scale(0.26458333)"
     id="path835" />
</svg>
