<?xml version="1.0" encoding="UTF-8" standalone="no"?>
<svg
   xmlns:dc="http://purl.org/dc/elements/1.1/"
   xmlns:cc="http://creativecommons.org/ns#"
   xmlns:rdf="http://www.w3.org/1999/02/22-rdf-syntax-ns#"
   xmlns:svg="http://www.w3.org/2000/svg"
   xmlns="http://www.w3.org/2000/svg"
   xmlns:sodipodi="http://sodipodi.sourceforge.net/DTD/sodipodi-0.dtd"
   xmlns:inkscape="http://www.inkscape.org/namespaces/inkscape"
   width="48"
   height="48"
   version="1.1"
   id="svg6"
   sodipodi:docname="audio-midi.svg"
   inkscape:version="0.92.5 (2060ec1f9f, 2020-04-08)">
  <defs
     id="defs8">
  <style
     id="current-color-scheme"
     type="text/css">
      .ColorScheme-Highlight {
        color:#5beedc;
      }
  </style>
  </defs>
  <path
     class="ColorScheme-Highlight"
     style="fill:#5beedc"
     d="M 6,0 C 4.892,0 4,0.892 4,2 v 44 c 0,1.108 0.892,2 2,2 h 36 c 1.108,0 2,-0.892 2,-2 V 13 L 43.416016,12.416016 42,11 41,10 34,3 33,2 31.583984,0.58398438 31.292969,0.29296875 31,0 Z m 2,3 h 22 v 8 c 0,1.108 0.892,2 2,2 h 9 v 31 c 0,0.277 -0.112219,0.526281 -0.292969,0.707031 C 40.526281,44.887781 40.277,45 40,45 H 8 C 7.723,45 7.4737187,44.887781 7.2929688,44.707031 7.1122188,44.526281 7,44.277 7,44 V 4 C 7,3.723 7.1122186,3.4737187 7.2929688,3.2929688 7.4737188,3.1122185 7.723,3 8,3 Z m 4,17 V 38 H 37 V 20 Z m 2,2 h 3 v 6 1 1 h 1 v 6 h -4 z m 6,0 h 3 v 8 h 1 v 6 h -5 v -6 h 1 v -1 -1 z m 6,0 h 3 v 8 h 1 v 6 h -5 v -6 h 1 z m 6,0 h 3 v 14 h -4 v -6 h 1 z"
     id="path816"
     inkscape:connector-curvature="0" />
</svg>
