<?xml version="1.0" encoding="UTF-8" standalone="no"?>
<svg
   xmlns:dc="http://purl.org/dc/elements/1.1/"
   xmlns:cc="http://creativecommons.org/ns#"
   xmlns:rdf="http://www.w3.org/1999/02/22-rdf-syntax-ns#"
   xmlns:svg="http://www.w3.org/2000/svg"
   xmlns="http://www.w3.org/2000/svg"
   xmlns:sodipodi="http://sodipodi.sourceforge.net/DTD/sodipodi-0.dtd"
   xmlns:inkscape="http://www.inkscape.org/namespaces/inkscape"
   width="48"
   height="48"
   version="1.1"
   id="svg6"
   sodipodi:docname="cockos-reaper-peak.svg"
   inkscape:version="0.92.5 (2060ec1f9f, 2020-04-08)">
  <defs
     id="defs8">
  <style
     id="current-color-scheme"
     type="text/css">
      .ColorScheme-Highlight {
        color:#5beedc;
      }
  </style>
  </defs>
  <path
     class="ColorScheme-Highlight"
     style="fill:#5beedc"
     d="M 129.70508 -0.083984375 C 127.65808 -0.075984375 125.5835 0.003671875 125.1875 0.013671875 L 107 0.013671875 A 2.938 2.938 0 0 0 106.4375 0.013671875 C 105.0645 0.27567188 103.975 1.6117188 104 3.0117188 L 104 45 C 104 46.57 105.43 48 107 48 L 141 48 C 142.57 48 144 46.57 144 45 L 144 18.818359 C 144.018 18.026359 144.21506 8.8911656 143.66406 8.3222656 L 134.05469 0.24804688 C 133.77369 -0.026953125 131.75208 -0.091984375 129.70508 -0.083984375 z M 6 0 C 4.892 0 4 0.892 4 2 L 4 46 C 4 47.108 4.892 48 6 48 L 42 48 C 43.108 48 44 47.108 44 46 L 44 13 L 43.416016 12.416016 L 42 11 L 41 10 L 34 3 L 33 2 L 31.583984 0.58398438 L 31.292969 0.29296875 L 31 0 L 6 0 z M 8 3 L 30 3 L 30 11 C 30 12.108 30.892 13 32 13 L 41 13 L 41 28 L 27.238281 28 L 24.666016 22 L 23.666016 22 L 19.238281 32.628906 L 14.666016 18 L 13.666016 18 L 11 26 L 7 26 L 7 4 C 7 3.723 7.1122186 3.4737187 7.2929688 3.2929688 C 7.4737188 3.1122185 7.723 3 8 3 z M 131.19531 3.0078125 L 131.19531 3.0097656 L 131.32812 10.513672 C 131.34013 11.193672 131.96554 11.803969 132.64453 11.792969 L 140.41602 11.65625 C 140.54902 11.67425 140.68441 11.674431 140.81641 11.650391 L 140.89844 14.679688 L 141 18.769531 L 141 25.783203 L 123.09961 25.783203 L 122.24609 22.675781 C 122.17999 22.442331 121.52477 22.442331 121.45898 22.675781 L 120.16797 28.822266 L 118.66016 15.634766 L 118.66016 15.613281 C 118.57776 15.380741 117.91589 15.397966 117.87109 15.634766 L 117.87109 15.65625 L 117.87109 23.140625 L 117.74023 22.679688 C 117.66543 22.447008 117.0306 22.468295 116.97461 22.703125 L 116.97461 22.767578 L 116.33984 27.777344 L 115.04883 21.585938 L 115.04883 21.542969 C 115.03843 21.407729 114.84519 21.296014 114.63477 21.302734 C 114.42442 21.309734 114.25101 21.429213 114.26172 21.564453 L 113.80273 28.957031 L 113.25586 16.441406 L 113.25586 16.396484 C 113.21096 16.159674 112.55135 16.14243 112.46875 16.375 L 112.46875 16.417969 L 111.13477 22.697266 L 110.56445 20.378906 C 110.54865 20.243736 110.33723 20.128592 110.12695 20.138672 C 109.91668 20.148842 109.74003 20.286715 109.75586 20.421875 L 109.42773 26.984375 L 108.81445 13.878906 L 107.89648 13.882812 L 107 26.503906 L 107 3.0195312 L 125.67188 3.0195312 L 131.19531 3.0078125 z M 108.29102 19.396484 L 109.01172 35.318359 L 109.01172 35.341797 C 109.01178 35.476967 109.19597 35.582031 109.40625 35.582031 C 109.61652 35.582031 109.8222 35.477027 109.82227 35.341797 L 109.82227 35.318359 L 110.41211 23.068359 L 110.78516 24.46875 C 110.85116 24.7022 111.50647 24.7022 111.57227 24.46875 L 112.59961 19.503906 L 113.36523 36.478516 C 113.43123 36.711966 114.0885 36.711966 114.1543 36.478516 L 114.875 24.539062 L 116.03516 30.160156 L 116.03516 30.203125 C 116.10996 30.435805 116.76627 30.437975 116.82227 30.203125 L 116.82227 30.138672 L 117.47852 24.779297 L 117.87109 26.201172 C 117.96469 26.520022 118.64266 26.463536 118.66016 26.134766 L 118.66016 26.091797 L 118.66016 22.525391 L 119.66602 31.275391 L 119.66602 31.341797 C 119.65562 31.476967 119.8269 31.596726 120.03711 31.603516 C 120.24732 31.610516 120.44248 31.498451 120.45312 31.363281 L 121.89648 24.429688 L 122.35547 26.201172 C 122.39007 26.354962 122.57038 26.480875 122.75 26.484375 L 141 26.484375 L 141 44.998047 L 107 44.998047 L 107 38.121094 L 108.29102 19.396484 z M 14.150391 19.548828 L 18.666016 34 L 19.666016 34 L 24.173828 23.183594 L 26.666016 29 L 27.666016 29 L 41 29 L 41 44 C 41 44.277 40.887781 44.526281 40.707031 44.707031 C 40.526281 44.887781 40.277 45 40 45 L 8 45 C 7.723 45 7.4737187 44.887781 7.2929688 44.707031 C 7.1122188 44.526281 7 44.277 7 44 L 7 27 L 11.666016 27 L 14.150391 19.548828 z "
     id="path816" />
</svg>
