<?xml version="1.0" encoding="UTF-8" standalone="no"?>
<svg
   xmlns:dc="http://purl.org/dc/elements/1.1/"
   xmlns:cc="http://creativecommons.org/ns#"
   xmlns:rdf="http://www.w3.org/1999/02/22-rdf-syntax-ns#"
   xmlns:svg="http://www.w3.org/2000/svg"
   xmlns="http://www.w3.org/2000/svg"
   xmlns:sodipodi="http://sodipodi.sourceforge.net/DTD/sodipodi-0.dtd"
   xmlns:inkscape="http://www.inkscape.org/namespaces/inkscape"
   width="48"
   height="48"
   version="1.1"
   id="svg6"
   sodipodi:docname="cockos-reaper-document.svg"
   inkscape:version="0.92.5 (2060ec1f9f, 2020-04-08)">
  <defs
     id="defs8">
  <style
     id="current-color-scheme"
     type="text/css">
      .ColorScheme-Highlight {
        color:#5beedc;
      }
  </style>
  </defs>
  <path
     class="ColorScheme-Highlight"
     style="fill:#5beedc"
     d="M 6 0 C 4.892 0 4 0.892 4 2 L 4 46 C 4 47.108 4.892 48 6 48 L 42 48 C 43.108 48 44 47.108 44 46 L 44 13 L 43.416016 12.416016 L 42 11 L 41 10 L 34 3 L 33 2 L 31.583984 0.58398438 L 31.292969 0.29296875 L 31 0 L 6 0 z M 8 3 L 30 3 L 30 11 C 30 12.108 30.892 13 32 13 L 41 13 L 41 44 C 41 44.277 40.887781 44.526281 40.707031 44.707031 C 40.526281 44.887781 40.277 45 40 45 L 8 45 C 7.723 45 7.4737187 44.887781 7.2929688 44.707031 C 7.1122188 44.526281 7 44.277 7 44 L 7 4 C 7 3.723 7.1122186 3.4737187 7.2929688 3.2929688 C 7.4737188 3.1122186 7.723 3 8 3 z M 20.353516 14.033203 C 17.586116 14.055123 14.805788 14.545559 12.367188 15.480469 L 11 16 L 12.203125 18.277344 C 13.016105 19.870744 14.513019 21.723566 16.886719 24.259766 C 20.561019 28.096766 21.959231 30.406703 22.707031 33.658203 C 23.227321 35.901803 23.162145 40.486644 22.609375 42.339844 C 21.926605 44.550944 22.479001 43.965244 23.519531 41.396484 C 24.592631 38.762584 24.982331 34.111894 24.332031 31.121094 C 23.779311 28.389694 22.023288 25.202706 19.617188 22.503906 C 18.446587 21.203206 17.275825 19.7078 17.015625 19.1875 C 16.560405 18.30955 16.561771 18.212622 17.082031 17.919922 C 18.805531 17.009522 21.763712 16.455078 24.820312 16.455078 C 28.787312 16.487528 32.039106 17.431989 35.128906 19.480469 C 36.234406 20.228349 36.885044 20.552269 36.527344 20.162109 C 35.551854 19.089109 31.843366 16.748391 29.697266 15.837891 C 28.624666 15.382851 26.609841 14.798559 25.244141 14.505859 L 25.242188 14.505859 C 23.669788 14.176919 22.013316 14.020063 20.353516 14.033203 z "
     id="path816" />
</svg>
