<?xml version="1.0" encoding="UTF-8" standalone="no"?>
<svg
   xmlns:dc="http://purl.org/dc/elements/1.1/"
   xmlns:cc="http://creativecommons.org/ns#"
   xmlns:rdf="http://www.w3.org/1999/02/22-rdf-syntax-ns#"
   xmlns:svg="http://www.w3.org/2000/svg"
   xmlns="http://www.w3.org/2000/svg"
   xmlns:sodipodi="http://sodipodi.sourceforge.net/DTD/sodipodi-0.dtd"
   xmlns:inkscape="http://www.inkscape.org/namespaces/inkscape"
   width="48"
   height="48"
   version="1.1"
   id="svg6"
   sodipodi:docname="cockos-reaper-template.svg"
   inkscape:version="0.92.5 (2060ec1f9f, 2020-04-08)">
  <defs
     id="defs8">
  <style
     id="current-color-scheme"
     type="text/css">
      .ColorScheme-Highlight {
        color:#5beedc;
      }
  </style>
  </defs>
  <path
     class="ColorScheme-Highlight"
     style="fill:#5beedc"
     d="M 6 0 C 4.892 0 4 0.892 4 2 L 4 46 C 4 47.108 4.892 48 6 48 L 42 48 C 43.108 48 44 47.108 44 46 L 44 2 C 44 0.892 43.108 0 42 0 L 6 0 z M 10 3 L 40 3 C 40.554 3 41 3.446 41 4 L 41 44 C 41 44.554 40.554 45 40 45 L 10 45 L 10 3 z M 22.724609 13.166016 C 20.143809 13.186456 17.549691 13.643765 15.275391 14.515625 L 14 15 L 15.123047 17.123047 C 15.881227 18.609047 17.276534 20.337825 19.490234 22.703125 C 22.916834 26.281425 24.220569 28.434397 24.917969 31.466797 C 25.403199 33.559197 25.343635 37.836053 24.828125 39.564453 C 24.191375 41.626453 24.705381 41.079154 25.675781 38.683594 C 26.676581 36.227294 27.040084 31.891063 26.433594 29.101562 C 25.918134 26.554263 24.281109 23.581353 22.037109 21.064453 C 20.945409 19.851453 19.854028 18.457856 19.611328 17.972656 C 19.186788 17.153876 19.186685 17.062022 19.671875 16.789062 C 21.279175 15.940022 24.038072 15.423828 26.888672 15.423828 C 30.588272 15.454088 33.622806 16.335654 36.503906 18.246094 C 37.534906 18.943564 38.140241 19.244719 37.806641 18.880859 C 36.896901 17.880159 33.4389 15.696756 31.4375 14.847656 C 30.4372 14.423286 28.558756 13.878449 27.285156 13.605469 L 27.283203 13.605469 C 25.816803 13.298709 24.272509 13.153756 22.724609 13.166016 z "
     id="rect815" />
</svg>
