<?xml version="1.0" encoding="UTF-8" standalone="no"?>
<svg
   xmlns:dc="http://purl.org/dc/elements/1.1/"
   xmlns:cc="http://creativecommons.org/ns#"
   xmlns:rdf="http://www.w3.org/1999/02/22-rdf-syntax-ns#"
   xmlns:svg="http://www.w3.org/2000/svg"
   xmlns="http://www.w3.org/2000/svg"
   xmlns:sodipodi="http://sodipodi.sourceforge.net/DTD/sodipodi-0.dtd"
   xmlns:inkscape="http://www.inkscape.org/namespaces/inkscape"
   width="48"
   height="48"
   version="1.1"
   id="svg6"
   sodipodi:docname="x-office-address-book.svg"
   inkscape:version="0.92.5 (2060ec1f9f, 2020-04-08)">
  <defs
     id="defs8">
  <style
     id="current-color-scheme"
     type="text/css">
      .ColorScheme-Highlight {
        color:#5beedc;
      }
  </style>
  </defs>
  <path
     class="ColorScheme-Highlight"
     style="fill:#5beedc"
     d="M 6 0 C 4.892 0 4 0.892 4 2 L 4 46 C 4 46.573014 4.2413622 47.085248 4.625 47.449219 C 4.9884702 47.827637 5.495888 48.064453 6.0644531 48.064453 L 42.064453 48.064453 C 43.172453 48.064453 44.064453 47.172453 44.064453 46.064453 L 44.064453 2.0644531 C 44.064453 1.495888 43.827637 0.98847016 43.449219 0.625 C 43.085248 0.24136217 42.573014 0 42 0 L 6 0 z M 10.064453 3.0644531 L 26 3.0644531 L 26 21 L 30 17 L 34 21 L 34 3.0644531 L 40.064453 3.0644531 C 40.323677 3.0644531 40.555116 3.1694078 40.732422 3.3300781 C 40.894746 3.5077285 41 3.7392831 41 4 L 41 44 C 41 44.554 40.554 45 40 45 L 10.064453 45 L 10.064453 3.0644531 z M 21 25 A 5 5 0 0 0 16 30 A 5 5 0 0 0 21 35 A 5 5 0 0 0 26 30 A 5 5 0 0 0 21 25 z M 15.5 37 C 14.669 37 14 37.669 14 38.5 C 14 38.67676 14.036139 38.842779 14.091797 39 L 14 39 L 14 41 L 28 41 L 28 39 L 27.908203 39 C 27.963861 38.842779 28 38.67676 28 38.5 C 28 37.669 27.331 37 26.5 37 L 15.5 37 z "
     id="rect815" />
</svg>
