<?xml version="1.0" encoding="UTF-8" standalone="no"?>
<svg
   xmlns:dc="http://purl.org/dc/elements/1.1/"
   xmlns:cc="http://creativecommons.org/ns#"
   xmlns:rdf="http://www.w3.org/1999/02/22-rdf-syntax-ns#"
   xmlns:svg="http://www.w3.org/2000/svg"
   xmlns="http://www.w3.org/2000/svg"
   xmlns:sodipodi="http://sodipodi.sourceforge.net/DTD/sodipodi-0.dtd"
   xmlns:inkscape="http://www.inkscape.org/namespaces/inkscape"
   width="48"
   height="48"
   version="1.1"
   id="svg6"
   sodipodi:docname="text-x-python.svg"
   inkscape:version="0.92.5 (2060ec1f9f, 2020-04-08)">
  <defs
     id="defs8">
  <style
     id="current-color-scheme"
     type="text/css">
      .ColorScheme-Highlight {
        color:#5beedc;
      }
  </style>
  </defs>
  <path
     class="ColorScheme-Highlight"
     style="fill:#5beedc"
     d="M 6 0 C 4.892 0 4 0.892 4 2 L 4 46 C 4 47.108 4.892 48 6 48 L 42 48 C 43.108 48 44 47.108 44 46 L 44 13 L 43.416016 12.416016 L 42 11 L 41 10 L 34 3 L 33 2 L 31.583984 0.58398438 L 31.292969 0.29296875 L 31 0 L 6 0 z M 8 3 L 30 3 L 30 11 C 30 12.108 30.892 13 32 13 L 41 13 L 41 44 C 41 44.277 40.887781 44.526281 40.707031 44.707031 C 40.526281 44.887781 40.277 45 40 45 L 8 45 C 7.723 45 7.4737187 44.887781 7.2929688 44.707031 C 7.1122188 44.526281 7 44.277 7 44 L 7 4 C 7 3.723 7.1122186 3.4737187 7.2929688 3.2929688 C 7.4737188 3.1122186 7.723 3 8 3 z M 22 18 C 20.338 18 19 19.338 19 21 L 19 23 L 26 23 L 26 24 L 19 24 L 16 24 C 14.338 24 13 25.338 13 27 L 13 31 C 13 32.662 14.338 34 16 34 L 17 34 L 17 31 C 17 30.169 17.334703 29.419203 17.876953 28.876953 C 18.419203 28.334703 19.169 28 20 28 L 26 28 C 28.520171 28 29 27.558503 29 25 L 29 23 L 29 21 C 29 19.338 27.662 18 26 18 L 22 18 z M 22 19 C 22.552285 19 23 19.447715 23 20 C 23 20.552285 22.552285 21 22 21 C 21.447715 21 21 20.552285 21 20 C 21 19.447715 21.447715 19 22 19 z M 31 24 L 31 27 C 31 27.831 30.665297 28.580797 30.123047 29.123047 C 29.580797 29.665297 28.831 30 28 30 L 22 30 C 19.479829 30 19 30.441497 19 33 L 19 35 L 19 37 C 19 38.662 20.338 40 22 40 L 26 40 C 27.662 40 29 38.662 29 37 L 29 35 L 22 35 L 22 34 L 29 34 L 32 34 C 33.662 34 35 32.662 35 31 L 35 27 C 35 25.338 33.662 24 32 24 L 31 24 z M 26 37 C 26.552285 37 27 37.447715 27 38 C 27 38.552285 26.552285 39 26 39 C 25.447715 39 25 38.552285 25 38 C 25 37.447715 25.447715 37 26 37 z "
     id="rect838" />
</svg>
