<?xml version="1.0" encoding="UTF-8" standalone="no"?>
<svg
   xmlns:dc="http://purl.org/dc/elements/1.1/"
   xmlns:cc="http://creativecommons.org/ns#"
   xmlns:rdf="http://www.w3.org/1999/02/22-rdf-syntax-ns#"
   xmlns:svg="http://www.w3.org/2000/svg"
   xmlns="http://www.w3.org/2000/svg"
   xmlns:sodipodi="http://sodipodi.sourceforge.net/DTD/sodipodi-0.dtd"
   xmlns:inkscape="http://www.inkscape.org/namespaces/inkscape"
   width="48"
   height="48"
   version="1.1"
   id="svg6"
   sodipodi:docname="application-x-theme.svg"
   inkscape:version="0.92.5 (2060ec1f9f, 2020-04-08)">
  <defs
     id="defs8">
  <style
     id="current-color-scheme"
     type="text/css">
      .ColorScheme-Highlight {
        color:#5beedc;
      }
  </style>
  </defs>
  <path
     class="ColorScheme-Highlight"
     style="fill:#5beedc"
     d="M 6 0 C 4.892 0 4 0.892 4 2 L 4 46 C 4 47.108 4.892 48 6 48 L 42 48 C 43.108 48 44 47.108 44 46 L 44 13 L 43.416016 12.416016 L 42 11 L 41 10 L 34 3 L 33 2 L 31.583984 0.58398438 L 31.292969 0.29296875 L 31 0 L 6 0 z M 8 3 L 30 3 L 30 11 C 30 12.108 30.892 13 32 13 L 41 13 L 41 44 C 41 44.277 40.887781 44.526281 40.707031 44.707031 C 40.526281 44.887781 40.277 45 40 45 L 8 45 C 7.723 45 7.4737187 44.887781 7.2929688 44.707031 C 7.1122188 44.526281 7 44.277 7 44 L 7 4 C 7 3.723 7.1122186 3.4737187 7.2929688 3.2929688 C 7.4737188 3.1122186 7.723 3 8 3 z M 11 10 L 11 15 L 16 15 L 16 10 L 11 10 z M 24 12 C 25.26898 14.53796 23.725087 16.270899 23.189453 17.964844 A 3 3 0 0 0 23 19 A 3 3 0 0 0 26 22 A 3 3 0 0 0 29 19 C 29.2157 16.202383 26.21453 14.198203 24 12 z M 11 19 L 11 24 L 16 24 L 16 19 L 11 19 z M 24.148438 23.640625 C 24.12108 23.772916 24 23.859367 24 24 L 24 40 C 24 41.108 24.892 42 26 42 C 27.108 42 28 41.108 28 40 L 28 24 C 28 23.86002 27.878673 23.7743 27.851562 23.642578 A 5 5 0 0 1 27.8125 23.660156 A 5 5 0 0 1 27.337891 23.818359 A 5 5 0 0 1 26.849609 23.927734 A 5 5 0 0 1 26.353516 23.988281 A 5 5 0 0 1 26 24 A 5 5 0 0 1 25.5 23.974609 A 5 5 0 0 1 25.005859 23.900391 A 5 5 0 0 1 24.521484 23.777344 A 5 5 0 0 1 24.148438 23.640625 z M 11 28 L 11 33 L 16 33 L 16 28 L 11 28 z M 11 37 L 11 42 L 16 42 L 16 37 L 11 37 z "
     id="path816" />
</svg>
