<?xml version="1.0" encoding="UTF-8" standalone="no"?>
<svg
   xmlns:dc="http://purl.org/dc/elements/1.1/"
   xmlns:cc="http://creativecommons.org/ns#"
   xmlns:rdf="http://www.w3.org/1999/02/22-rdf-syntax-ns#"
   xmlns:svg="http://www.w3.org/2000/svg"
   xmlns="http://www.w3.org/2000/svg"
   xmlns:sodipodi="http://sodipodi.sourceforge.net/DTD/sodipodi-0.dtd"
   xmlns:inkscape="http://www.inkscape.org/namespaces/inkscape"
   width="48"
   height="48"
   version="1.1"
   id="svg6"
   sodipodi:docname="video-x-generic.svg"
   inkscape:version="0.92.5 (2060ec1f9f, 2020-04-08)">
  <defs
     id="defs8">
  <style
     id="current-color-scheme"
     type="text/css">
      .ColorScheme-Highlight {
        color:#5beedc;
      }
  </style>
  </defs>
  <path
     class="ColorScheme-Highlight"
     style="fill:#5beedc"
     d="M 4 4 C 2.892 4 2 4.892 2 6 L 2 42 C 2 43.108 2.892 44 4 44 L 44 44 C 45.108 44 46 43.108 46 42 L 46 6 C 46 4.892 45.108 4 44 4 L 4 4 z M 5 6 L 43 6 C 43.554 6 44 6.446 44 7 L 44 41 C 44 41.554 43.554 42 43 42 L 5 42 C 4.446 42 4 41.554 4 41 L 4 7 C 4 6.446 4.446 6 5 6 z M 6 8 L 6 13 L 12 13 L 12 8 L 6 8 z M 16 8 L 16 13 L 22 13 L 22 8 L 16 8 z M 26 8 L 26 13 L 32 13 L 32 8 L 26 8 z M 36 8 L 36 13 L 42 13 L 42 8 L 36 8 z M 24 18 A 6 6 0 0 0 18 24 A 6 6 0 0 0 24 30 A 6 6 0 0 0 30 24 A 6 6 0 0 0 24 18 z M 22 21 L 27 24 L 22 27 L 22 21 z M 6 35 L 6 40 L 12 40 L 12 35 L 6 35 z M 16 35 L 16 40 L 22 40 L 22 35 L 16 35 z M 26 35 L 26 40 L 32 40 L 32 35 L 26 35 z M 36 35 L 36 40 L 42 40 L 42 35 L 36 35 z "
     id="rect857" />
</svg>
