<?xml version="1.0" encoding="UTF-8" standalone="no"?>
<svg
   xmlns:dc="http://purl.org/dc/elements/1.1/"
   xmlns:cc="http://creativecommons.org/ns#"
   xmlns:rdf="http://www.w3.org/1999/02/22-rdf-syntax-ns#"
   xmlns:svg="http://www.w3.org/2000/svg"
   xmlns="http://www.w3.org/2000/svg"
   xmlns:sodipodi="http://sodipodi.sourceforge.net/DTD/sodipodi-0.dtd"
   xmlns:inkscape="http://www.inkscape.org/namespaces/inkscape"
   width="48"
   height="48"
   version="1.1"
   id="svg6"
   sodipodi:docname="gnome-mime-application-pdf.svg"
   inkscape:version="0.92.5 (2060ec1f9f, 2020-04-08)">
  <defs
     id="defs8">
  <style
     id="current-color-scheme"
     type="text/css">
      .ColorScheme-Highlight {
        color:#5beedc;
      }
  </style>
  </defs>
  <path
     class="ColorScheme-Highlight"
     style="fill:#5beedc"
     d="M 6 0 C 4.892 0 4 0.892 4 2 L 4 46 C 4 47.108 4.892 48 6 48 L 42 48 C 43.108 48 44 47.108 44 46 L 44 13 L 43.416016 12.416016 L 42 11 L 41 10 L 34 3 L 33 2 L 31.583984 0.58398438 L 31.292969 0.29296875 L 31 0 L 6 0 z M 8 3 L 30 3 L 30 11 C 30 12.108 30.892 13 32 13 L 41 13 L 41 44 C 41 44.277 40.887781 44.526281 40.707031 44.707031 C 40.526281 44.887781 40.277 45 40 45 L 8 45 C 7.723 45 7.4737187 44.887781 7.2929688 44.707031 C 7.1122188 44.526281 7 44.277 7 44 L 7 4 C 7 3.723 7.1122186 3.4737187 7.2929688 3.2929688 C 7.4737188 3.1122186 7.723 3 8 3 z M 14.978516 12.810547 C 14.615516 12.823547 14.227781 12.922469 13.800781 13.105469 C 9.9883879 14.73421 12.801672 18.47688 17.65625 21.898438 L 17.658203 21.904297 C 17.501057 25.394382 16.854132 29.332399 15.972656 32.605469 L 15.953125 32.638672 C 12.243957 34.948747 9.9231331 37.343204 11.166016 38.925781 C 11.466016 39.308781 11.705422 39.584828 11.982422 39.673828 L 12.431641 39.304688 C 9.9816117 37.859091 13.884621 35.764178 15.130859 35.136719 L 15.173828 35.179688 C 14.678 36.554976 13.353345 39.394107 12.431641 39.304688 C 12.431641 39.304688 12.258375 39.447781 11.984375 39.675781 C 13.425375 40.503781 15.320906 37.915922 16.503906 34.294922 C 19.59597 32.440997 25.119694 29.673582 29.371094 27.785156 L 29.382812 27.785156 C 31.432157 28.382005 34.732026 29.072022 36.322266 28.773438 C 36.667266 28.719438 37.610484 28.457266 37.646484 27.697266 C 37.820387 26.777853 37.137045 25.958275 35.828125 25.679688 C 34.222337 25.320193 31.608901 26.008819 29.720703 26.597656 C 26.021203 25.140013 21.907246 22.749026 18.486328 20.513672 L 18.490234 20.513672 C 18.389234 16.341672 17.474844 13.071078 15.339844 12.830078 C 15.225844 12.817078 15.099516 12.810453 14.978516 12.814453 L 14.978516 12.810547 z M 14.701172 13.492188 C 16.436751 13.463851 17.651169 15.972624 17.695312 19.982422 L 17.695312 19.984375 C 13.548312 17.146375 11.932734 14.329062 13.927734 13.664062 C 14.195109 13.553437 14.453189 13.496236 14.701172 13.492188 z M 18.484375 22.46875 C 21.280654 24.33184 24.620228 26.04806 27.753906 27.226562 C 24.207822 28.408516 20.324008 30.11136 17.166016 31.925781 L 17.15625 31.927734 C 17.15962 31.925797 17.162644 31.923813 17.166016 31.921875 C 17.897716 28.971084 18.383102 25.578708 18.484375 22.46875 z M 34.894531 26.341797 C 35.855432 26.342845 37.229731 26.570559 37.494141 27.783203 C 35.89486 28.710563 32.249339 28.202277 30.826172 27.191406 C 30.925717 27.124307 31.035799 27.059642 31.175781 26.998047 C 31.186612 26.99353 31.200139 26.986919 31.210938 26.982422 C 31.66855 26.788922 32.570466 26.604469 34.248047 26.380859 C 34.418988 26.362347 34.617088 26.341494 34.894531 26.341797 z M 31.779297 26.734375 L 31.777344 26.738281 C 31.776032 26.737861 31.772822 26.73869 31.771484 26.738281 C 31.773811 26.737337 31.776972 26.735318 31.779297 26.734375 z "
     id="path816" />
</svg>
