<?xml version="1.0" encoding="UTF-8" standalone="no"?>
<svg
   xmlns:dc="http://purl.org/dc/elements/1.1/"
   xmlns:cc="http://creativecommons.org/ns#"
   xmlns:rdf="http://www.w3.org/1999/02/22-rdf-syntax-ns#"
   xmlns:svg="http://www.w3.org/2000/svg"
   xmlns="http://www.w3.org/2000/svg"
   xmlns:sodipodi="http://sodipodi.sourceforge.net/DTD/sodipodi-0.dtd"
   xmlns:inkscape="http://www.inkscape.org/namespaces/inkscape"
   width="48"
   height="48"
   version="1.1"
   id="svg6"
   sodipodi:docname="image-vnd.adobe.photoshop.svg"
   inkscape:version="0.92.5 (2060ec1f9f, 2020-04-08)">
  <defs
     id="defs8">
  <style
     id="current-color-scheme"
     type="text/css">
      .ColorScheme-Highlight {
        color:#5beedc;
      }
  </style>
  </defs>
  <path
     class="ColorScheme-Highlight"
     style="fill:#5beedc"
     d="M 6 0 C 4.892 0 4 0.892 4 2 L 4 46 C 4 47.108 4.892 48 6 48 L 42 48 C 43.108 48 44 47.108 44 46 L 44 13 L 43.416016 12.416016 L 42 11 L 41 10 L 34 3 L 33 2 L 31.583984 0.58398438 L 31.292969 0.29296875 L 31 0 L 6 0 z M 8 3 L 30 3 L 30 11 C 30 12.108 30.892 13 32 13 L 41 13 L 41 44 C 41 44.277 40.887781 44.526281 40.707031 44.707031 C 40.526281 44.887781 40.277 45 40 45 L 8 45 C 7.723 45 7.4737187 44.887781 7.2929688 44.707031 C 7.1122188 44.526281 7 44.277 7 44 L 7 4 C 7 3.723 7.1122186 3.4737187 7.2929688 3.2929688 C 7.4737188 3.1122186 7.723 3 8 3 z M 12 17 L 12 38 L 14 38 L 14 29 L 18 29 L 19 29 A 5 5 0 0 0 24 24 L 24 22 A 5 5 0 0 0 19 17 L 18 17 L 14 17 L 12 17 z M 14 19 L 18 19 L 19 19 A 3 3 0 0 1 22 22 L 22 24 A 3 3 0 0 1 19 27 L 18 27 L 14 27 L 14 19 z M 31 20 A 5 5 0 0 0 26 25 A 5 5 0 0 0 31 30 L 32 30 A 3 3 0 0 1 35 33 A 3 3 0 0 1 32 36 L 27 36 L 27 38 L 32 38 A 5 5 0 0 0 37 33 A 5 5 0 0 0 32 28 L 31 28 A 3 3 0 0 1 28 25 A 3 3 0 0 1 31 22 L 36 22 L 36 20 L 31 20 z "
     id="path816" />
</svg>
