<?xml version="1.0" encoding="UTF-8" standalone="no"?>
<svg
   xmlns:dc="http://purl.org/dc/elements/1.1/"
   xmlns:cc="http://creativecommons.org/ns#"
   xmlns:rdf="http://www.w3.org/1999/02/22-rdf-syntax-ns#"
   xmlns:svg="http://www.w3.org/2000/svg"
   xmlns="http://www.w3.org/2000/svg"
   xmlns:sodipodi="http://sodipodi.sourceforge.net/DTD/sodipodi-0.dtd"
   xmlns:inkscape="http://www.inkscape.org/namespaces/inkscape"
   width="48"
   height="48"
   viewBox="0 0 12.7 12.7"
   version="1.1"
   id="svg4"
   sodipodi:docname="image-svg+xml-compressed.svg"
   inkscape:version="0.92.5 (2060ec1f9f, 2020-04-08)">
  <defs
     id="defs8">
  <style
     id="current-color-scheme"
     type="text/css">
      .ColorScheme-Highlight {
        color:#5beedc;
      }
  </style>
  </defs>
  <path
     class="ColorScheme-Highlight"
     style="fill:#5beedc"
     d="M 5 3 L 1.0019531 13.001953 L 22.998047 13.001953 L 22.998047 3 L 5 3 z M 25.001953 3 L 25.001953 13.001953 L 46.998047 13.001953 L 43 3 L 25.001953 3 z M 1.0019531 15 L 1.0019531 39 C 1.0019531 43.429606 4.5703938 46.998047 9 46.998047 L 39 46.998047 A 7.9823621 7.9823621 0 0 0 46.998047 39 L 46.998047 15 L 44.001953 15 L 44.001953 39 A 4.9889763 4.9889763 0 0 1 39 44.001953 L 8.9960938 44.001953 A 4.9889763 4.9889763 0 0 1 3.9941406 39 L 3.9941406 15 L 1.0019531 15 z M 23 20 L 18 27 L 20 34 L 27 34 L 29 27 L 24 20 L 24 26.087891 A 1.5 1.5 0 0 1 25 27.5 A 1.5 1.5 0 0 1 23.5 29 A 1.5 1.5 0 0 1 22 27.5 A 1.5 1.5 0 0 1 23 26.087891 L 23 20 z M 21 35 C 19.892 35 19 35.891999 19 37 L 19 39 L 28 39 L 28 37 C 28 35.891999 27.108 35 26 35 L 21 35 z "
     transform="scale(0.26458333)"
     id="path864" />
</svg>
