<?xml version="1.0" encoding="UTF-8" standalone="no"?>
<svg
   xmlns:dc="http://purl.org/dc/elements/1.1/"
   xmlns:cc="http://creativecommons.org/ns#"
   xmlns:rdf="http://www.w3.org/1999/02/22-rdf-syntax-ns#"
   xmlns:svg="http://www.w3.org/2000/svg"
   xmlns="http://www.w3.org/2000/svg"
   xmlns:sodipodi="http://sodipodi.sourceforge.net/DTD/sodipodi-0.dtd"
   xmlns:inkscape="http://www.inkscape.org/namespaces/inkscape"
   width="48"
   height="48"
   viewBox="0 0 12.7 12.7"
   version="1.1"
   id="svg4"
   sodipodi:docname="extension.svg"
   inkscape:version="0.92.5 (2060ec1f9f, 2020-04-08)">
  <defs
     id="defs8">
  <style
     id="current-color-scheme"
     type="text/css">
      .ColorScheme-Highlight {
        color:#5beedc;
      }
  </style>
  </defs>
  <path
     class="ColorScheme-Highlight"
     style="fill:#5beedc"
     d="M 20 3 A 5.9999996 5.9999996 0 0 0 14 9 A 5.9999996 5.9999996 0 0 0 15.537109 13 L 9 13 L 8.953125 13 C 6.7625963 13 5 14.762596 5 16.953125 L 5 17 L 5 24.535156 L 5 26.009766 A 4.9999997 4.9999997 0 0 1 5.0839844 25.892578 A 4.9999997 4.9999997 0 0 1 5.4140625 25.515625 A 4.9999997 4.9999997 0 0 1 5.7792969 25.175781 A 4.9999997 4.9999997 0 0 1 6.1777344 24.873047 A 4.9999997 4.9999997 0 0 1 6.6035156 24.611328 A 4.9999997 4.9999997 0 0 1 7.0527344 24.394531 A 4.9999997 4.9999997 0 0 1 7.5214844 24.222656 A 4.9999997 4.9999997 0 0 1 8.0058594 24.099609 A 4.9999997 4.9999997 0 0 1 8.5 24.025391 A 4.9999997 4.9999997 0 0 1 9 24 A 4.9999997 4.9999997 0 0 1 9.3535156 24.011719 A 4.9999997 4.9999997 0 0 1 9.8496094 24.072266 A 4.9999997 4.9999997 0 0 1 10.337891 24.181641 A 4.9999997 4.9999997 0 0 1 10.8125 24.339844 A 4.9999997 4.9999997 0 0 1 11.267578 24.544922 A 4.9999997 4.9999997 0 0 1 11.701172 24.792969 A 4.9999997 4.9999997 0 0 1 12.107422 25.083984 A 4.9999997 4.9999997 0 0 1 12.484375 25.414062 A 4.9999997 4.9999997 0 0 1 12.824219 25.779297 A 4.9999997 4.9999997 0 0 1 13.126953 26.177734 A 4.9999997 4.9999997 0 0 1 13.388672 26.603516 A 4.9999997 4.9999997 0 0 1 13.605469 27.052734 A 4.9999997 4.9999997 0 0 1 13.777344 27.521484 A 4.9999997 4.9999997 0 0 1 13.900391 28.005859 A 4.9999997 4.9999997 0 0 1 13.974609 28.5 A 4.9999997 4.9999997 0 0 1 14 29 A 4.9999997 4.9999997 0 0 1 13.988281 29.353516 A 4.9999997 4.9999997 0 0 1 13.927734 29.849609 A 4.9999997 4.9999997 0 0 1 13.818359 30.337891 A 4.9999997 4.9999997 0 0 1 13.660156 30.8125 A 4.9999997 4.9999997 0 0 1 13.455078 31.267578 A 4.9999997 4.9999997 0 0 1 13.207031 31.701172 A 4.9999997 4.9999997 0 0 1 12.916016 32.107422 A 4.9999997 4.9999997 0 0 1 12.585938 32.484375 A 4.9999997 4.9999997 0 0 1 12.220703 32.824219 A 4.9999997 4.9999997 0 0 1 11.822266 33.126953 A 4.9999997 4.9999997 0 0 1 11.396484 33.388672 A 4.9999997 4.9999997 0 0 1 10.947266 33.605469 A 4.9999997 4.9999997 0 0 1 10.478516 33.777344 A 4.9999997 4.9999997 0 0 1 9.9941406 33.900391 A 4.9999997 4.9999997 0 0 1 9.5 33.974609 A 4.9999997 4.9999997 0 0 1 9 34 A 4.9999997 4.9999997 0 0 1 8.6464844 33.988281 A 4.9999997 4.9999997 0 0 1 8.1503906 33.927734 A 4.9999997 4.9999997 0 0 1 7.6621094 33.818359 A 4.9999997 4.9999997 0 0 1 7.1875 33.660156 A 4.9999997 4.9999997 0 0 1 6.7324219 33.455078 A 4.9999997 4.9999997 0 0 1 6.2988281 33.207031 A 4.9999997 4.9999997 0 0 1 5.8925781 32.916016 A 4.9999997 4.9999997 0 0 1 5.515625 32.585938 A 4.9999997 4.9999997 0 0 1 5.1757812 32.220703 A 4.9999997 4.9999997 0 0 1 5 31.990234 L 5 33.462891 L 5 39 L 5 39.046875 C 5 41.237404 6.7625963 43 8.953125 43 L 9 43 L 15.535156 43 L 17.009766 43 A 4.9999997 4.9999997 0 0 1 16.892578 42.916016 A 4.9999997 4.9999997 0 0 1 16.515625 42.585938 A 4.9999997 4.9999997 0 0 1 16.175781 42.220703 A 4.9999997 4.9999997 0 0 1 15.873047 41.822266 A 4.9999997 4.9999997 0 0 1 15.611328 41.396484 A 4.9999997 4.9999997 0 0 1 15.394531 40.947266 A 4.9999997 4.9999997 0 0 1 15.222656 40.478516 A 4.9999997 4.9999997 0 0 1 15.099609 39.994141 A 4.9999997 4.9999997 0 0 1 15.025391 39.5 A 4.9999997 4.9999997 0 0 1 15 39 A 4.9999997 4.9999997 0 0 1 15.011719 38.646484 A 4.9999997 4.9999997 0 0 1 15.072266 38.150391 A 4.9999997 4.9999997 0 0 1 15.181641 37.662109 A 4.9999997 4.9999997 0 0 1 15.339844 37.1875 A 4.9999997 4.9999997 0 0 1 15.544922 36.732422 A 4.9999997 4.9999997 0 0 1 15.792969 36.298828 A 4.9999997 4.9999997 0 0 1 16.083984 35.892578 A 4.9999997 4.9999997 0 0 1 16.414062 35.515625 A 4.9999997 4.9999997 0 0 1 16.779297 35.175781 A 4.9999997 4.9999997 0 0 1 17.177734 34.873047 A 4.9999997 4.9999997 0 0 1 17.603516 34.611328 A 4.9999997 4.9999997 0 0 1 18.052734 34.394531 A 4.9999997 4.9999997 0 0 1 18.521484 34.222656 A 4.9999997 4.9999997 0 0 1 19.005859 34.099609 A 4.9999997 4.9999997 0 0 1 19.5 34.025391 A 4.9999997 4.9999997 0 0 1 20 34 A 4.9999997 4.9999997 0 0 1 20.353516 34.011719 A 4.9999997 4.9999997 0 0 1 20.849609 34.072266 A 4.9999997 4.9999997 0 0 1 21.337891 34.181641 A 4.9999997 4.9999997 0 0 1 21.8125 34.339844 A 4.9999997 4.9999997 0 0 1 22.267578 34.544922 A 4.9999997 4.9999997 0 0 1 22.701172 34.792969 A 4.9999997 4.9999997 0 0 1 23.107422 35.083984 A 4.9999997 4.9999997 0 0 1 23.484375 35.414062 A 4.9999997 4.9999997 0 0 1 23.824219 35.779297 A 4.9999997 4.9999997 0 0 1 24.126953 36.177734 A 4.9999997 4.9999997 0 0 1 24.388672 36.603516 A 4.9999997 4.9999997 0 0 1 24.605469 37.052734 A 4.9999997 4.9999997 0 0 1 24.777344 37.521484 A 4.9999997 4.9999997 0 0 1 24.900391 38.005859 A 4.9999997 4.9999997 0 0 1 24.974609 38.5 A 4.9999997 4.9999997 0 0 1 25 39 A 4.9999997 4.9999997 0 0 1 24.988281 39.353516 A 4.9999997 4.9999997 0 0 1 24.927734 39.849609 A 4.9999997 4.9999997 0 0 1 24.818359 40.337891 A 4.9999997 4.9999997 0 0 1 24.660156 40.8125 A 4.9999997 4.9999997 0 0 1 24.455078 41.267578 A 4.9999997 4.9999997 0 0 1 24.207031 41.701172 A 4.9999997 4.9999997 0 0 1 23.916016 42.107422 A 4.9999997 4.9999997 0 0 1 23.585938 42.484375 A 4.9999997 4.9999997 0 0 1 23.220703 42.824219 A 4.9999997 4.9999997 0 0 1 22.990234 43 L 24.462891 43 L 31 43 L 31.046875 43 C 33.237404 43 35 41.237404 35 39.046875 L 35 39 L 35 33.464844 A 5.9999996 5.9999996 0 0 0 39 35 A 5.9999996 5.9999996 0 0 0 45 29 A 5.9999996 5.9999996 0 0 0 39 23 A 5.9999996 5.9999996 0 0 0 35 24.537109 L 35 17 L 35 16.953125 C 35 14.762596 33.237404 13 31.046875 13 L 31 13 L 24.464844 13 A 5.9999996 5.9999996 0 0 0 26 9 A 5.9999996 5.9999996 0 0 0 20 3 z "
     id="rect829"
     transform="scale(0.26458333)" />
</svg>
