<?xml version="1.0" encoding="UTF-8" standalone="no"?>
<svg
   xmlns:dc="http://purl.org/dc/elements/1.1/"
   xmlns:cc="http://creativecommons.org/ns#"
   xmlns:rdf="http://www.w3.org/1999/02/22-rdf-syntax-ns#"
   xmlns:svg="http://www.w3.org/2000/svg"
   xmlns="http://www.w3.org/2000/svg"
   xmlns:sodipodi="http://sodipodi.sourceforge.net/DTD/sodipodi-0.dtd"
   xmlns:inkscape="http://www.inkscape.org/namespaces/inkscape"
   width="48"
   height="48"
   version="1.1"
   id="svg6"
   sodipodi:docname="libreoffice-oasis-text-template.svg"
   inkscape:version="0.92.5 (2060ec1f9f, 2020-04-08)">
  <defs
     id="defs8">
  <style
     id="current-color-scheme"
     type="text/css">
      .ColorScheme-Highlight {
        color:#5beedc;
      }
  </style>
  </defs>
  <path
     class="ColorScheme-Highlight"
     style="fill:#5beedc"
     d="M 6 0 C 4.892 0 4 0.892 4 2 L 4 46 C 4 47.108 4.892 48 6 48 L 42 48 C 43.108 48 44 47.108 44 46 L 44 15 L 29 0 L 6 0 z M 33 0 L 44 11 L 44 2.1542969 C 44 0.96106594 43.038934 -1.4802974e-15 41.845703 0 L 33 0 z M 10 3 L 28 3 L 41 16 L 41 44.044922 C 41 44.57374 40.57374 45 40.044922 45 L 10 45 L 10 3 z M 13 8 L 13 22 L 24 22 L 30 22 L 30 8 L 24 8 L 13 8 z M 14 9 L 24 9 L 29 9 L 29 19 L 24 19 L 14 19 L 14 9 z M 25.5 10 A 1.5 1.5 0 0 0 24 11.5 A 1.5 1.5 0 0 0 25.5 13 A 1.5 1.5 0 0 0 27 11.5 A 1.5 1.5 0 0 0 25.5 10 z M 15 12 L 15 15 L 15 18 L 24 18 L 28 18 L 28 15 L 24 15 L 23 15 C 23 13.338 21.662 12 20 12 L 19 12 L 15 12 z M 13 27 L 13 29 L 24 29 L 38 29 L 38 27 L 24 27 L 13 27 z M 13 32 L 13 34 L 24 34 L 38 34 L 38 32 L 24 32 L 13 32 z M 13 37 L 13 39 L 24 39 L 38 39 L 38 37 L 24 37 L 13 37 z "
     id="path827" />
</svg>
