<?xml version="1.0" encoding="UTF-8" standalone="no"?>
<svg
   xmlns:dc="http://purl.org/dc/elements/1.1/"
   xmlns:cc="http://creativecommons.org/ns#"
   xmlns:rdf="http://www.w3.org/1999/02/22-rdf-syntax-ns#"
   xmlns:svg="http://www.w3.org/2000/svg"
   xmlns="http://www.w3.org/2000/svg"
   xmlns:sodipodi="http://sodipodi.sourceforge.net/DTD/sodipodi-0.dtd"
   xmlns:inkscape="http://www.inkscape.org/namespaces/inkscape"
   width="48"
   height="48"
   version="1.1"
   id="svg6"
   sodipodi:docname="libreoffice-oasis-text.svg"
   inkscape:version="0.92.5 (2060ec1f9f, 2020-04-08)">
  <defs
     id="defs8">
  <style
     id="current-color-scheme"
     type="text/css">
      .ColorScheme-Highlight {
        color:#5beedc;
      }
  </style>
  </defs>
  <path
     class="ColorScheme-Highlight"
     style="fill:#5beedc"
     d="M 6 0 C 4.892 0 4 0.892 4 2 L 4 46 C 4 47.108 4.892 48 6 48 L 42 48 C 43.108 48 44 47.108 44 46 L 44 15 L 29 0 L 6 0 z M 33 0 L 44 11 L 44 2.1542969 C 44 0.96106594 43.038934 -1.4802974e-15 41.845703 0 L 33 0 z M 7.9550781 3 L 28 3 L 41 16 L 41 44.044922 C 41 44.57374 40.57374 45 40.044922 45 L 7.9550781 45 C 7.4262599 45 7 44.57374 7 44.044922 L 7 3.9550781 C 7 3.4262599 7.4262599 3 7.9550781 3 z M 10 8 L 10 22 L 30 22 L 30 8 L 10 8 z M 11 9 L 29 9 L 29 19 L 11 19 L 11 9 z M 25.5 10 A 1.5 1.5 0 0 0 24 11.5 A 1.5 1.5 0 0 0 25.5 13 A 1.5 1.5 0 0 0 27 11.5 A 1.5 1.5 0 0 0 25.5 10 z M 12 12 L 12 15 L 12 18 L 28 18 L 28 15 L 20 15 C 20 13.338 18.662 12 17 12 L 16 12 L 12 12 z M 10 27 L 10 29 L 38 29 L 38 27 L 10 27 z M 10 32 L 10 34 L 38 34 L 38 32 L 10 32 z M 10 37 L 10 39 L 38 39 L 38 37 L 10 37 z "
     id="path827" />
</svg>
