<?xml version="1.0" encoding="UTF-8" standalone="no"?>
<svg
   xmlns:dc="http://purl.org/dc/elements/1.1/"
   xmlns:cc="http://creativecommons.org/ns#"
   xmlns:rdf="http://www.w3.org/1999/02/22-rdf-syntax-ns#"
   xmlns:svg="http://www.w3.org/2000/svg"
   xmlns="http://www.w3.org/2000/svg"
   xmlns:sodipodi="http://sodipodi.sourceforge.net/DTD/sodipodi-0.dtd"
   xmlns:inkscape="http://www.inkscape.org/namespaces/inkscape"
   width="48"
   height="48"
   version="1.1"
   id="svg6"
   sodipodi:docname="libreoffice-oasis-master-document.svg"
   inkscape:version="0.92.5 (2060ec1f9f, 2020-04-08)">
  <defs
     id="defs8">
  <style
     id="current-color-scheme"
     type="text/css">
      .ColorScheme-Highlight {
        color:#5beedc;
      }
  </style>
  </defs>
  <path
     class="ColorScheme-Highlight"
     style="fill:#5beedc"
     d="M 6 0 C 4.892 0 4 0.892 4 2 L 4 46 C 4 47.108 4.892 48 6 48 L 42 48 C 43.108 48 44 47.108 44 46 L 44 15 L 29 0 L 6 0 z M 33 0 L 44 11 L 44 2.1542969 C 44 0.96106594 43.038934 -2.9605947e-16 41.845703 0 L 33 0 z M 7.9550781 3 L 28 3 L 41 16 L 41 44.044922 C 41 44.57374 40.57374 45 40.044922 45 L 7.9550781 45 C 7.4262599 45 7 44.57374 7 44.044922 L 7 3.9550781 C 7 3.4262599 7.4262599 3 7.9550781 3 z M 13 17 L 13 23 L 35 23 L 35 17 L 13 17 z M 13 26 L 13 32 L 21 32 L 21 26 L 13 26 z M 27 26 L 27 32 L 35 32 L 35 26 L 27 26 z M 10 35 L 10 41 L 21 41 L 21 35 L 10 35 z M 27 35 L 27 41 L 38 41 L 38 35 L 27 35 z "
     id="path836" />
</svg>
