<?xml version="1.0" encoding="UTF-8" standalone="no"?>
<svg
   xmlns:dc="http://purl.org/dc/elements/1.1/"
   xmlns:cc="http://creativecommons.org/ns#"
   xmlns:rdf="http://www.w3.org/1999/02/22-rdf-syntax-ns#"
   xmlns:svg="http://www.w3.org/2000/svg"
   xmlns="http://www.w3.org/2000/svg"
   xmlns:sodipodi="http://sodipodi.sourceforge.net/DTD/sodipodi-0.dtd"
   xmlns:inkscape="http://www.inkscape.org/namespaces/inkscape"
   width="48"
   height="48"
   version="1.1"
   id="svg6"
   sodipodi:docname="libreoffice-oasis-spreadsheet-template.svg"
   inkscape:version="0.92.5 (2060ec1f9f, 2020-04-08)">
  <defs
     id="defs8">
  <style
     id="current-color-scheme"
     type="text/css">
      .ColorScheme-Highlight {
        color:#5beedc;
      }
  </style>
  </defs>
  <path
     class="ColorScheme-Highlight"
     style="fill:#5beedc"
     d="M 6 0 C 4.892 0 4 0.892 4 2 L 4 46 C 4 47.108 4.892 48 6 48 L 42 48 C 43.108 48 44 47.108 44 46 L 44 15 L 29 0 L 6 0 z M 33 0 L 44 11 L 44 2.1542969 C 44 0.96106594 43.038934 -1.4802974e-15 41.845703 0 L 33 0 z M 10 3 L 28 3 L 41 16 L 41 44.044922 C 41 44.57374 40.57374 45 40.044922 45 L 10 45 L 10 3 z M 18 21 L 18 43 L 39 43 L 39 21 L 18 21 z M 29 22 L 38 22 L 38 25 L 29 25 L 29 22 z M 19 26 L 28 26 L 28 29 L 19 29 L 19 26 z M 19 30 L 28 30 L 28 33 L 19 33 L 19 30 z M 29 34 L 38 34 L 38 37 L 29 37 L 29 34 z M 19 38 L 28 38 L 28 41 L 19 41 L 19 38 z M 29 38 L 38 38 L 38 41 L 29 41 L 29 38 z "
     id="path827" />
</svg>
