<?xml version="1.0" encoding="UTF-8" standalone="no"?>
<svg
   xmlns:dc="http://purl.org/dc/elements/1.1/"
   xmlns:cc="http://creativecommons.org/ns#"
   xmlns:rdf="http://www.w3.org/1999/02/22-rdf-syntax-ns#"
   xmlns:svg="http://www.w3.org/2000/svg"
   xmlns="http://www.w3.org/2000/svg"
   xmlns:sodipodi="http://sodipodi.sourceforge.net/DTD/sodipodi-0.dtd"
   xmlns:inkscape="http://www.inkscape.org/namespaces/inkscape"
   width="48"
   height="48"
   version="1.1"
   id="svg6"
   sodipodi:docname="libreoffice-oasis-web-template.svg"
   inkscape:version="0.92.5 (2060ec1f9f, 2020-04-08)">
  <defs
     id="defs8">
  <style
     id="current-color-scheme"
     type="text/css">
      .ColorScheme-Highlight {
        color:#5beedc;
      }
  </style>
  </defs>
  <path
     class="ColorScheme-Highlight"
     style="fill:#5beedc"
     d="M 6 0 C 4.892 0 4 0.892 4 2 L 4 46 C 4 47.108 4.892 48 6 48 L 42 48 C 43.108 48 44 47.108 44 46 L 44 15 L 29 0 L 6 0 z M 33 0 L 44 11 L 44 2.1542969 C 44 0.96106594 43.038934 -2.9605947e-16 41.845703 0 L 33 0 z M 10 3 L 28 3 L 41 16 L 41 44.044922 C 41 44.57374 40.57374 45 40.044922 45 L 10 45 L 10 3 z M 20.5 7 A 6.5 6.5 0 0 0 17.048828 8 L 17 8 L 17 8.03125 A 6.5 6.5 0 0 0 15.025391 10 L 15 10 L 15 10.042969 A 6.5 6.5 0 0 0 14 13.5 A 6.5 6.5 0 0 0 15 16.951172 L 15 17 L 15.03125 17 A 6.5 6.5 0 0 0 17 18.974609 L 17 19 L 17.042969 19 A 6.5 6.5 0 0 0 20.5 20 A 6.5 6.5 0 0 0 23.951172 19 L 24 19 L 24 18.96875 A 6.5 6.5 0 0 0 25.974609 17 L 26 17 L 26 16.957031 A 6.5 6.5 0 0 0 27 13.5 A 6.5 6.5 0 0 0 26 10.048828 L 26 10 L 25.96875 10 A 6.5 6.5 0 0 0 24 8.0253906 L 24 8 L 23.957031 8 A 6.5 6.5 0 0 0 20.5 7 z M 21 8.0253906 A 5.5 5.5 0 0 1 23 8.6074219 L 23 10 L 21 10 L 21 8.0253906 z M 20 8.0273438 L 20 10 L 18 10 L 18 8.6015625 A 5.5 5.5 0 0 1 20 8.0273438 z M 24 9.2597656 A 5.5 5.5 0 0 1 24.736328 10 L 24 10 L 24 9.2597656 z M 17 9.2636719 L 17 10 L 16.259766 10 A 5.5 5.5 0 0 1 17 9.2636719 z M 15.607422 11 L 17 11 L 17 13 L 15.025391 13 A 5.5 5.5 0 0 1 15.607422 11 z M 18 11 L 20 11 L 20 13 L 18 13 L 18 11 z M 21 11 L 23 11 L 23 13 L 21 13 L 21 11 z M 24 11 L 25.398438 11 A 5.5 5.5 0 0 1 25.972656 13 L 24 13 L 24 11 z M 15.027344 14 L 17 14 L 17 16 L 15.601562 16 A 5.5 5.5 0 0 1 15.027344 14 z M 18 14 L 20 14 L 20 16 L 18 16 L 18 14 z M 21 14 L 23 14 L 23 16 L 21 16 L 21 14 z M 24 14 L 25.974609 14 A 5.5 5.5 0 0 1 25.392578 16 L 24 16 L 24 14 z M 16.263672 17 L 17 17 L 17 17.740234 A 5.5 5.5 0 0 1 16.263672 17 z M 18 17 L 20 17 L 20 18.974609 A 5.5 5.5 0 0 1 18 18.392578 L 18 17 z M 21 17 L 23 17 L 23 18.398438 A 5.5 5.5 0 0 1 21 18.972656 L 21 17 z M 24 17 L 24.740234 17 A 5.5 5.5 0 0 1 24 17.736328 L 24 17 z M 13 27 L 13 29 L 38 29 L 38 27 L 13 27 z M 13 32 L 13 34 L 38 34 L 38 32 L 13 32 z M 13 37 L 13 39 L 38 39 L 38 37 L 13 37 z "
     id="path827" />
</svg>
