<?xml version="1.0" encoding="UTF-8" standalone="no"?>
<svg
   xmlns:dc="http://purl.org/dc/elements/1.1/"
   xmlns:cc="http://creativecommons.org/ns#"
   xmlns:rdf="http://www.w3.org/1999/02/22-rdf-syntax-ns#"
   xmlns:svg="http://www.w3.org/2000/svg"
   xmlns="http://www.w3.org/2000/svg"
   xmlns:sodipodi="http://sodipodi.sourceforge.net/DTD/sodipodi-0.dtd"
   xmlns:inkscape="http://www.inkscape.org/namespaces/inkscape"
   width="48"
   height="48"
   version="1.1"
   id="svg6"
   sodipodi:docname="text-x-sql.svg"
   inkscape:version="0.92.5 (2060ec1f9f, 2020-04-08)">
  <defs
     id="defs8">
  <style
     id="current-color-scheme"
     type="text/css">
      .ColorScheme-Highlight {
        color:#5beedc;
      }
  </style>
  </defs>
  <path
     class="ColorScheme-Highlight"
     style="fill:#5beedc"
     d="M 6 0 C 4.892 0 4 0.892 4 2 L 4 46 C 4 47.108 4.892 48 6 48 L 42 48 C 43.108 48 44 47.108 44 46 L 44 13 L 43.416016 12.416016 L 42 11 L 41 10 L 34 3 L 33 2 L 31.583984 0.58398438 L 31.292969 0.29296875 L 31 0 L 6 0 z M 8 3 L 30 3 L 30 11 C 30 12.108 30.892 13 32 13 L 41 13 L 41 44 C 41 44.277 40.887781 44.526281 40.707031 44.707031 C 40.526281 44.887781 40.277 45 40 45 L 8 45 C 7.723 45 7.4737187 44.887781 7.2929688 44.707031 C 7.1122188 44.526281 7 44.277 7 44 L 7 4 C 7 3.723 7.1122186 3.4737187 7.2929688 3.2929688 C 7.4737188 3.1122186 7.723 3 8 3 z M 24 21 A 7 2 0 0 0 17 23 L 17 25 A 7 2 0 0 0 24 27 A 7 2 0 0 0 31 25 L 31 23 A 7 2 0 0 0 24 21 z M 17 27 L 17 29 A 7 2 0 0 0 24 31 A 7 2 0 0 0 31 29 L 31 27 A 7 2 0 0 1 30.982422 27.140625 A 7 2 0 0 1 30.898438 27.339844 A 7 2 0 0 1 30.744141 27.535156 A 7 2 0 0 1 30.523438 27.724609 A 7 2 0 0 1 30.238281 27.90625 A 7 2 0 0 1 29.890625 28.080078 A 7 2 0 0 1 29.482422 28.244141 A 7 2 0 0 1 29.021484 28.392578 A 7 2 0 0 1 28.509766 28.529297 A 7 2 0 0 1 27.953125 28.650391 A 7 2 0 0 1 27.355469 28.755859 A 7 2 0 0 1 26.726562 28.841797 A 7 2 0 0 1 26.068359 28.910156 A 7 2 0 0 1 25.390625 28.960938 A 7 2 0 0 1 24.699219 28.990234 A 7 2 0 0 1 24 29 A 7 2 0 0 1 23.503906 28.994141 A 7 2 0 0 1 22.810547 28.970703 A 7 2 0 0 1 22.126953 28.927734 A 7 2 0 0 1 21.462891 28.863281 A 7 2 0 0 1 20.824219 28.783203 A 7 2 0 0 1 20.21875 28.683594 A 7 2 0 0 1 19.648438 28.566406 A 7 2 0 0 1 19.123047 28.435547 A 7 2 0 0 1 18.646484 28.289062 A 7 2 0 0 1 18.222656 28.128906 A 7 2 0 0 1 17.857422 27.958984 A 7 2 0 0 1 17.552734 27.779297 A 7 2 0 0 1 17.3125 27.591797 A 7 2 0 0 1 17.138672 27.396484 A 7 2 0 0 1 17.035156 27.199219 A 7 2 0 0 1 17 27 z M 17 31 L 17 33 A 7 2 0 0 0 24 35 A 7 2 0 0 0 31 33 L 31 31 A 7 2 0 0 1 30.982422 31.140625 A 7 2 0 0 1 30.898438 31.339844 A 7 2 0 0 1 30.744141 31.535156 A 7 2 0 0 1 30.523438 31.724609 A 7 2 0 0 1 30.238281 31.90625 A 7 2 0 0 1 29.890625 32.080078 A 7 2 0 0 1 29.482422 32.244141 A 7 2 0 0 1 29.021484 32.392578 A 7 2 0 0 1 28.509766 32.529297 A 7 2 0 0 1 27.953125 32.650391 A 7 2 0 0 1 27.355469 32.755859 A 7 2 0 0 1 26.726562 32.841797 A 7 2 0 0 1 26.068359 32.910156 A 7 2 0 0 1 25.390625 32.960938 A 7 2 0 0 1 24.699219 32.990234 A 7 2 0 0 1 24 33 A 7 2 0 0 1 23.503906 32.994141 A 7 2 0 0 1 22.810547 32.970703 A 7 2 0 0 1 22.126953 32.927734 A 7 2 0 0 1 21.462891 32.863281 A 7 2 0 0 1 20.824219 32.783203 A 7 2 0 0 1 20.21875 32.683594 A 7 2 0 0 1 19.648438 32.566406 A 7 2 0 0 1 19.123047 32.435547 A 7 2 0 0 1 18.646484 32.289062 A 7 2 0 0 1 18.222656 32.128906 A 7 2 0 0 1 17.857422 31.958984 A 7 2 0 0 1 17.552734 31.779297 A 7 2 0 0 1 17.3125 31.591797 A 7 2 0 0 1 17.138672 31.396484 A 7 2 0 0 1 17.035156 31.199219 A 7 2 0 0 1 17 31 z M 17 35 L 17 37 A 7 2 0 0 0 24 39 A 7 2 0 0 0 31 37 L 31 35 A 7 2 0 0 1 30.982422 35.140625 A 7 2 0 0 1 30.898438 35.339844 A 7 2 0 0 1 30.744141 35.535156 A 7 2 0 0 1 30.523438 35.724609 A 7 2 0 0 1 30.238281 35.90625 A 7 2 0 0 1 29.890625 36.080078 A 7 2 0 0 1 29.482422 36.244141 A 7 2 0 0 1 29.021484 36.392578 A 7 2 0 0 1 28.509766 36.529297 A 7 2 0 0 1 27.953125 36.650391 A 7 2 0 0 1 27.355469 36.755859 A 7 2 0 0 1 26.726562 36.841797 A 7 2 0 0 1 26.068359 36.910156 A 7 2 0 0 1 25.390625 36.960938 A 7 2 0 0 1 24.699219 36.990234 A 7 2 0 0 1 24 37 A 7 2 0 0 1 23.503906 36.994141 A 7 2 0 0 1 22.810547 36.970703 A 7 2 0 0 1 22.126953 36.927734 A 7 2 0 0 1 21.462891 36.863281 A 7 2 0 0 1 20.824219 36.783203 A 7 2 0 0 1 20.21875 36.683594 A 7 2 0 0 1 19.648438 36.566406 A 7 2 0 0 1 19.123047 36.435547 A 7 2 0 0 1 18.646484 36.289062 A 7 2 0 0 1 18.222656 36.128906 A 7 2 0 0 1 17.857422 35.958984 A 7 2 0 0 1 17.552734 35.779297 A 7 2 0 0 1 17.3125 35.591797 A 7 2 0 0 1 17.138672 35.396484 A 7 2 0 0 1 17.035156 35.199219 A 7 2 0 0 1 17 35 z "
     id="path816" />
</svg>
