<?xml version="1.0" encoding="UTF-8" standalone="no"?>
<svg
   xmlns:dc="http://purl.org/dc/elements/1.1/"
   xmlns:cc="http://creativecommons.org/ns#"
   xmlns:rdf="http://www.w3.org/1999/02/22-rdf-syntax-ns#"
   xmlns:svg="http://www.w3.org/2000/svg"
   xmlns="http://www.w3.org/2000/svg"
   xmlns:sodipodi="http://sodipodi.sourceforge.net/DTD/sodipodi-0.dtd"
   xmlns:inkscape="http://www.inkscape.org/namespaces/inkscape"
   width="48"
   height="48"
   version="1.1"
   id="svg6"
   sodipodi:docname="image-x-generic.svg"
   inkscape:version="0.92.5 (2060ec1f9f, 2020-04-08)">
  <defs
     id="defs8">
  <style
     id="current-color-scheme"
     type="text/css">
      .ColorScheme-Highlight {
        color:#5beedc;
      }
  </style>
  </defs>
  <path
     class="ColorScheme-Highlight"
     style="fill:#5beedc"
     d="M 2 1 C 1.446 1 1 1.446 1 2 L 1 31 C 1 31.554 1.446 32 2 32 L 15 32 L 15 46 C 15 46.554 15.446 47 16 47 L 46 47 C 46.554 47 47 46.554 47 46 L 47 17 C 47 16.446 46.554 16 46 16 L 33 16 L 33 2 C 33 1.446 32.554 1 32 1 L 2 1 z M 3 3 L 31 3 L 31 16 L 19.537109 16 C 18.726643 13.678779 16.606864 12 14 12 L 5 12 L 5 18 L 5 24 L 15 24 L 15 26 L 3 26 L 3 3 z M 24.5 6 A 3.5 3.5 0 0 0 21 9.5 A 3.5 3.5 0 0 0 24.5 13 A 3.5 3.5 0 0 0 28 9.5 A 3.5 3.5 0 0 0 24.5 6 z M 17 18 L 45 18 L 45 41 L 17 41 L 17 18 z M 38.5 21 A 3.5 3.5 0 0 0 35 24.5 A 3.5 3.5 0 0 0 38.5 28 A 3.5 3.5 0 0 0 42 24.5 A 3.5 3.5 0 0 0 38.5 21 z M 19 27 L 19 33 L 19 39 L 43 39 L 43 33 L 34 33 C 34 29.676 31.324 27 28 27 L 19 27 z "
     id="rect814" />
</svg>
