<?xml version="1.0" encoding="UTF-8" standalone="no"?>
<svg
   xmlns:dc="http://purl.org/dc/elements/1.1/"
   xmlns:cc="http://creativecommons.org/ns#"
   xmlns:rdf="http://www.w3.org/1999/02/22-rdf-syntax-ns#"
   xmlns:svg="http://www.w3.org/2000/svg"
   xmlns="http://www.w3.org/2000/svg"
   xmlns:sodipodi="http://sodipodi.sourceforge.net/DTD/sodipodi-0.dtd"
   xmlns:inkscape="http://www.inkscape.org/namespaces/inkscape"
   width="48"
   height="48"
   version="1.1"
   id="svg6"
   sodipodi:docname="text-x-qml.svg"
   inkscape:version="0.92.5 (2060ec1f9f, 2020-04-08)">
  <defs
     id="defs8">
  <style
     id="current-color-scheme"
     type="text/css">
      .ColorScheme-Highlight {
        color:#5beedc;
      }
  </style>
  </defs>
  <path
     class="ColorScheme-Highlight"
     style="fill:#5beedc"
     d="M 6 0 C 4.892 0 4 0.892 4 2 L 4 46 C 4 47.108 4.892 48 6 48 L 42 48 C 43.108 48 44 47.108 44 46 L 44 13 L 43.416016 12.416016 L 42 11 L 41 10 L 34 3 L 33 2 L 31.583984 0.58398438 L 31.292969 0.29296875 L 31 0 L 6 0 z M 8 3 L 30 3 L 30 11 C 30 12.108 30.892 13 32 13 L 41 13 L 41 44 C 41 44.277 40.887781 44.526281 40.707031 44.707031 C 40.526281 44.887781 40.277 45 40 45 L 8 45 C 7.723 45 7.4737187 44.887781 7.2929688 44.707031 C 7.1122188 44.526281 7 44.277 7 44 L 7 4 C 7 3.723 7.1122186 3.4737187 7.2929688 3.2929688 C 7.4737188 3.1122186 7.723 3 8 3 z M 17 16 C 15.338 16 14 17.338 14 19 L 14 26 C 13 27 12 27 11 27 L 11 29 C 12 29 13 29 14 30 L 14 37 C 14 38.662 15.338 40 17 40 L 20 40 L 20 38 L 17 38 C 16.446 38 16 37.554 16 37 L 16 19 C 16 18.446 16.446 18 17 18 L 20 18 L 20 16 L 17 16 z M 28 16 L 28 18 L 31 18 C 31.554 18 32 18.446 32 19 L 32 37 C 32 37.554 31.554 38 31 38 L 28 38 L 28 40 L 31 40 C 32.662 40 34 38.662 34 37 L 34 30 C 35 29 36 29 37 29 L 37 27 C 36 27 35 27 34 26 L 34 19 C 34 17.338 32.662 16 31 16 L 28 16 z M 24 22 A 2 2 0 0 0 22 24 A 2 2 0 0 0 24 26 A 2 2 0 0 0 26 24 A 2 2 0 0 0 24 22 z M 24 29 A 2 2 0 0 0 22 31 A 2 2 0 0 0 23.806641 32.990234 L 22 36 L 23 36 C 24.378138 34.337504 26.237648 32.680317 26 31 A 2 2 0 0 0 24 29 z "
     id="path816" />
</svg>
