<?xml version="1.0" encoding="UTF-8" standalone="no"?>
<svg
   xmlns:dc="http://purl.org/dc/elements/1.1/"
   xmlns:cc="http://creativecommons.org/ns#"
   xmlns:rdf="http://www.w3.org/1999/02/22-rdf-syntax-ns#"
   xmlns:svg="http://www.w3.org/2000/svg"
   xmlns="http://www.w3.org/2000/svg"
   xmlns:sodipodi="http://sodipodi.sourceforge.net/DTD/sodipodi-0.dtd"
   xmlns:inkscape="http://www.inkscape.org/namespaces/inkscape"
   width="48"
   height="48"
   version="1.1"
   id="svg6"
   sodipodi:docname="multipart-encrypted.svg"
   inkscape:version="0.92.5 (2060ec1f9f, 2020-04-08)">
  <defs
     id="defs8">
  <style
     id="current-color-scheme"
     type="text/css">
      .ColorScheme-Highlight {
        color:#5beedc;
      }
  </style>
  </defs>
  <path
     class="ColorScheme-Highlight"
     style="fill:#5beedc"
     d="M 6 0 C 4.892 0 4 0.892 4 2 L 4 46 C 4 47.108 4.892 48 6 48 L 42 48 C 43.108 48 44 47.108 44 46 L 44 13 L 43.416016 12.416016 L 42 11 L 41 10 L 34 3 L 33 2 L 31.583984 0.58398438 L 31.292969 0.29296875 L 31 0 L 6 0 z M 8 3 L 30 3 L 30 11 C 30 12.108 30.892 13 32 13 L 41 13 L 41 44 C 41 44.277 40.887781 44.526281 40.707031 44.707031 C 40.526281 44.887781 40.277 45 40 45 L 8 45 C 7.723 45 7.4737187 44.887781 7.2929688 44.707031 C 7.1122188 44.526281 7 44.277 7 44 L 7 4 C 7 3.723 7.1122186 3.4737187 7.2929688 3.2929688 C 7.4737188 3.1122186 7.723 3 8 3 z M 11 6 L 11 11 L 12 11 L 12 6 L 11 6 z M 11 16 L 11 21 L 12 21 L 12 16 L 11 16 z M 15.5 16 C 14.669 16 14 16.669 14 17.5 L 14 19.5 C 14 20.331 14.669 21 15.5 21 C 16.331 21 17 20.331 17 19.5 L 17 17.5 C 17 16.669 16.331 16 15.5 16 z M 15.5 17 C 15.777 17 16 17.223 16 17.5 L 16 19.5 C 16 19.777 15.777 20 15.5 20 C 15.223 20 15 19.777 15 19.5 L 15 17.5 C 15 17.223 15.223 17 15.5 17 z M 11 26 L 11 31 L 12 31 L 12 26 L 11 26 z M 15.5 26 C 14.669 26 14 26.669 14 27.5 L 14 29.5 C 14 30.331 14.669 31 15.5 31 C 16.331 31 17 30.331 17 29.5 L 17 27.5 C 17 26.669 16.331 26 15.5 26 z M 19 26 L 19 31 L 20 31 L 20 26 L 19 26 z M 15.5 27 C 15.777 27 16 27.223 16 27.5 L 16 29.5 C 16 29.777 15.777 30 15.5 30 C 15.223 30 15 29.777 15 29.5 L 15 27.5 C 15 27.223 15.223 27 15.5 27 z M 11 36 L 11 41 L 12 41 L 12 36 L 11 36 z M 15.5 36 C 14.669 36 14 36.669 14 37.5 L 14 39.5 C 14 40.331 14.669 41 15.5 41 C 16.331 41 17 40.331 17 39.5 L 17 37.5 C 17 36.669 16.331 36 15.5 36 z M 19 36 L 19 41 L 20 41 L 20 36 L 19 36 z M 23.5 36 C 22.669 36 22 36.669 22 37.5 L 22 39.5 C 22 40.331 22.669 41 23.5 41 C 24.331 41 25 40.331 25 39.5 L 25 37.5 C 25 36.669 24.331 36 23.5 36 z M 15.5 37 C 15.777 37 16 37.223 16 37.5 L 16 39.5 C 16 39.777 15.777 40 15.5 40 C 15.223 40 15 39.777 15 39.5 L 15 37.5 C 15 37.223 15.223 37 15.5 37 z M 23.5 37 C 23.777 37 24 37.223 24 37.5 L 24 39.5 C 24 39.777 23.777 40 23.5 40 C 23.223 40 23 39.777 23 39.5 L 23 37.5 C 23 37.223 23.223 37 23.5 37 z "
     id="path816" />
</svg>
