<?xml version="1.0" encoding="UTF-8" standalone="no"?>
<svg
   xmlns:dc="http://purl.org/dc/elements/1.1/"
   xmlns:cc="http://creativecommons.org/ns#"
   xmlns:rdf="http://www.w3.org/1999/02/22-rdf-syntax-ns#"
   xmlns:svg="http://www.w3.org/2000/svg"
   xmlns="http://www.w3.org/2000/svg"
   xmlns:sodipodi="http://sodipodi.sourceforge.net/DTD/sodipodi-0.dtd"
   xmlns:inkscape="http://www.inkscape.org/namespaces/inkscape"
   width="48"
   height="48"
   version="1.1"
   id="svg6"
   sodipodi:docname="text-x-generic-template.svg"
   inkscape:version="0.92.5 (2060ec1f9f, 2020-04-08)">
  <defs
     id="defs8">
  <style
     id="current-color-scheme"
     type="text/css">
      .ColorScheme-Highlight {
        color:#5beedc;
      }
  </style>
  </defs>
  <path
     class="ColorScheme-Highlight"
     style="fill:#5beedc"
     d="M 6 0 C 4.892 0 4 0.892 4 2 L 4 46 C 4 47.108 4.892 48 6 48 L 42 48 C 43.108 48 44 47.108 44 46 L 44 13 L 43.416016 12.416016 L 42 11 L 41 10 L 34 3 L 33 2 L 31.583984 0.58398438 L 31.292969 0.29296875 L 31 0 L 6 0 z M 8 3 L 30 3 L 30 11 C 30 12.108 30.892 13 32 13 L 41 13 L 41 44 C 41 44.277 40.887781 44.526281 40.707031 44.707031 C 40.526281 44.887781 40.277 45 40 45 L 8 45 C 7.723 45 7.4737187 44.887781 7.2929688 44.707031 C 7.1122188 44.526281 7 44.277 7 44 L 7 4 C 7 3.723 7.1122186 3.4737187 7.2929688 3.2929688 C 7.4737188 3.1122186 7.723 3 8 3 z M 13 7 C 11.892 7 11 7.892 11 9 L 11 40 C 11 41.108 11.892 42 13 42 L 16 42 C 17.108 42 18 41.108 18 40 L 18 9 C 18 7.892 17.108 7 16 7 L 13 7 z M 13 8 L 16 8 C 16.554 8 17 8.446 17 9 L 17 40 C 17 40.554 16.554 41 16 41 L 13 41 C 12.446 41 12 40.554 12 40 L 12 9 C 12 8.446 12.446 8 13 8 z M 23 16 C 21.892 16 21 16.892 21 18 L 21 21 C 21 22.108 21.892 23 23 23 L 35 23 C 36.108 23 37 22.108 37 21 L 37 18 C 37 16.892 36.108 16 35 16 L 23 16 z M 23 17 L 35 17 C 35.554 17 36 17.446 36 18 L 36 21 C 36 21.554 35.554 22 35 22 L 23 22 C 22.446 22 22 21.554 22 21 L 22 18 C 22 17.446 22.446 17 23 17 z M 23 26 C 21.892 26 21 26.892 21 28 L 21 40 C 21 41.108 21.892 42 23 42 L 35 42 C 36.108 42 37 41.108 37 40 L 37 28 C 37 26.892 36.108 26 35 26 L 23 26 z M 23 27 L 35 27 C 35.554 27 36 27.446 36 28 L 36 40 C 36 40.554 35.554 41 35 41 L 23 41 C 22.446 41 22 40.554 22 40 L 22 28 C 22 27.446 22.446 27 23 27 z "
     id="path816" />
</svg>
