<?xml version="1.0" encoding="UTF-8" standalone="no"?>
<svg
   xmlns:dc="http://purl.org/dc/elements/1.1/"
   xmlns:cc="http://creativecommons.org/ns#"
   xmlns:rdf="http://www.w3.org/1999/02/22-rdf-syntax-ns#"
   xmlns:svg="http://www.w3.org/2000/svg"
   xmlns="http://www.w3.org/2000/svg"
   xmlns:sodipodi="http://sodipodi.sourceforge.net/DTD/sodipodi-0.dtd"
   xmlns:inkscape="http://www.inkscape.org/namespaces/inkscape"
   width="48"
   height="48"
   version="1.1"
   id="svg6"
   sodipodi:docname="text-x-go.svg"
   inkscape:version="0.92.5 (2060ec1f9f, 2020-04-08)">
  <defs
     id="defs8">
  <style
     id="current-color-scheme"
     type="text/css">
      .ColorScheme-Highlight {
        color:#5beedc;
      }
  </style>
  </defs>
  <path
     class="ColorScheme-Highlight"
     style="fill:#5beedc"
     d="M 6 0 C 4.892 0 4 0.892 4 2 L 4 46 C 4 47.108 4.892 48 6 48 L 42 48 C 43.108 48 44 47.108 44 46 L 44 13 L 43.416016 12.416016 L 42 11 L 41 10 L 34 3 L 33 2 L 31.583984 0.58398438 L 31.292969 0.29296875 L 31 0 L 6 0 z M 8 3 L 30 3 L 30 11 C 30 12.108 30.892 13 32 13 L 41 13 L 41 44 C 41 44.277 40.887781 44.526281 40.707031 44.707031 C 40.526281 44.887781 40.277 45 40 45 L 8 45 C 7.723 45 7.4737187 44.887781 7.2929688 44.707031 C 7.1122188 44.526281 7 44.277 7 44 L 7 4 C 7 3.723 7.1122186 3.4737187 7.2929688 3.2929688 C 7.4737188 3.1122186 7.723 3 8 3 z M 18.5 17 A 5.5 5.5 0 0 0 13 22.5 A 5.5 5.5 0 0 0 18.5 28 A 5.5 5.5 0 0 0 24 22.5 A 5.5 5.5 0 0 0 18.5 17 z M 24 22.5 A 5.5 5.5 0 0 0 29.5 28 A 5.5 5.5 0 0 0 35 22.5 A 5.5 5.5 0 0 0 29.5 17 A 5.5 5.5 0 0 0 24 22.5 z M 18.5 19 A 3.5 3.5 0 0 1 22 22.5 A 3.5 3.5 0 0 1 18.5 26 A 3.5 3.5 0 0 1 15 22.5 A 3.5 3.5 0 0 1 18.5 19 z M 29.5 19 A 3.5 3.5 0 0 1 33 22.5 A 3.5 3.5 0 0 1 29.5 26 A 3.5 3.5 0 0 1 26 22.5 A 3.5 3.5 0 0 1 29.5 19 z M 15 30 L 15 32 C 15.701058 32.200302 16.353096 32.365209 17 32.525391 L 17 36 A 4 4 0 0 0 21 40 A 4 4 0 0 0 24 38.638672 A 4 4 0 0 0 27 40 A 4 4 0 0 0 31 36 L 31 32.525391 C 31.646904 32.365209 32.298942 32.200302 33 32 L 33 30 C 26 32 22 32 15 30 z M 19 32.964844 C 20.398118 33.237052 21.716344 33.399041 23 33.455078 L 23 36 A 2 2 0 0 1 21 38 A 2 2 0 0 1 19 36 L 19 32.964844 z M 29 32.964844 L 29 36 A 2 2 0 0 1 27 38 A 2 2 0 0 1 25 36 L 25 33.455078 C 26.283656 33.399041 27.601882 33.237052 29 32.964844 z "
     id="path816" />
</svg>
