<?xml version="1.0" encoding="UTF-8" standalone="no"?>
<svg
   xmlns:dc="http://purl.org/dc/elements/1.1/"
   xmlns:cc="http://creativecommons.org/ns#"
   xmlns:rdf="http://www.w3.org/1999/02/22-rdf-syntax-ns#"
   xmlns:svg="http://www.w3.org/2000/svg"
   xmlns="http://www.w3.org/2000/svg"
   xmlns:sodipodi="http://sodipodi.sourceforge.net/DTD/sodipodi-0.dtd"
   xmlns:inkscape="http://www.inkscape.org/namespaces/inkscape"
   width="48"
   height="48"
   version="1.1"
   id="svg6"
   sodipodi:docname="text-x-sass.svg"
   inkscape:version="0.92.5 (2060ec1f9f, 2020-04-08)">
  <defs
     id="defs8">
  <style
     id="current-color-scheme"
     type="text/css">
      .ColorScheme-Highlight {
        color:#5beedc;
      }
  </style>
  </defs>
  <path
     class="ColorScheme-Highlight"
     style="fill:#5beedc"
     d="M 6 0 C 4.892 0 4 0.892 4 2 L 4 46 C 4 47.108 4.892 48 6 48 L 42 48 C 43.108 48 44 47.108 44 46 L 44 13 L 43.416016 12.416016 L 42 11 L 41 10 L 34 3 L 33 2 L 31.583984 0.58398438 L 31.292969 0.29296875 L 31 0 L 6 0 z M 8 3 L 30 3 L 30 11 C 30 12.108 30.892 13 32 13 L 41 13 L 41 44 C 41 44.277 40.887781 44.526281 40.707031 44.707031 C 40.526281 44.887781 40.277 45 40 45 L 8 45 C 7.723 45 7.4737187 44.887781 7.2929688 44.707031 C 7.1122188 44.526281 7 44.277 7 44 L 7 4 C 7 3.723 7.1122186 3.4737187 7.2929688 3.2929688 C 7.4737188 3.1122186 7.723 3 8 3 z M 27.851562 17.861328 C 26.587422 17.882361 25.222084 18.121162 23.880859 18.597656 C 21.326663 19.505028 18.562384 20.929353 16.574219 22.789062 C 14.210281 25.000152 13.832892 26.924365 13.988281 27.728516 C 14.536348 30.565959 18.423252 32.420809 20.021484 33.796875 L 20.021484 33.806641 C 19.55022 34.038645 16.10213 35.783756 15.294922 37.568359 C 14.443184 39.45106 15.430317 40.802515 16.083984 40.984375 C 18.10926 41.547839 20.18783 40.533132 21.304688 38.867188 C 22.382504 37.259498 22.292615 35.183093 21.824219 34.150391 C 22.470344 33.979959 23.222418 33.903802 24.179688 34.015625 C 26.880956 34.331146 27.411893 36.018883 27.310547 36.724609 C 27.209283 37.430538 26.642554 37.818383 26.453125 37.935547 C 26.263628 38.052778 26.204736 38.092569 26.220703 38.179688 C 26.243623 38.30635 26.332609 38.302771 26.494141 38.275391 C 26.716455 38.237911 27.911756 37.701436 27.962891 36.398438 C 28.028021 34.744112 26.443819 32.893056 23.636719 32.941406 C 22.480657 32.961336 21.753591 33.07217 21.228516 33.267578 C 21.189696 33.223358 21.150223 33.178317 21.109375 33.134766 C 19.373964 31.283238 16.164716 29.973495 16.300781 27.484375 C 16.350241 26.579477 16.664396 24.197 22.464844 21.306641 C 27.21642 18.93902 31.020358 19.591159 31.677734 21.035156 C 32.616741 23.09806 29.645474 26.931348 24.710938 27.484375 C 22.830914 27.695166 21.841934 26.966655 21.595703 26.695312 C 21.33644 26.409647 21.295986 26.397591 21.199219 26.451172 C 21.041493 26.538492 21.141429 26.789078 21.199219 26.939453 C 21.346509 27.322864 21.951677 28.003583 22.982422 28.341797 C 23.889115 28.63938 26.096154 28.80207 28.765625 27.769531 C 31.755305 26.613007 34.090006 23.396139 33.404297 20.707031 C 32.924884 18.826786 30.632672 17.815056 27.851562 17.861328 z M 20.685547 34.644531 C 20.909574 35.473277 20.885705 36.247383 20.654297 36.947266 C 20.628587 37.024976 20.599099 37.101731 20.568359 37.177734 C 20.537619 37.253604 20.50442 37.328284 20.46875 37.402344 C 20.29026 37.772641 20.051101 38.119543 19.757812 38.439453 C 18.863093 39.415543 17.612199 39.783679 17.076172 39.472656 C 16.497353 39.137173 16.788836 37.760537 17.826172 36.664062 C 18.94216 35.484288 20.546875 34.726562 20.546875 34.726562 L 20.544922 34.722656 C 20.591162 34.697756 20.637962 34.670771 20.685547 34.644531 z "
     id="path816" />
</svg>
