<?xml version="1.0" encoding="UTF-8" standalone="no"?>
<svg
   xmlns:dc="http://purl.org/dc/elements/1.1/"
   xmlns:cc="http://creativecommons.org/ns#"
   xmlns:rdf="http://www.w3.org/1999/02/22-rdf-syntax-ns#"
   xmlns:svg="http://www.w3.org/2000/svg"
   xmlns="http://www.w3.org/2000/svg"
   xmlns:sodipodi="http://sodipodi.sourceforge.net/DTD/sodipodi-0.dtd"
   xmlns:inkscape="http://www.inkscape.org/namespaces/inkscape"
   width="48"
   height="48"
   viewBox="0 0 12.7 12.7"
   version="1.1"
   id="svg4"
   sodipodi:docname="x-package-repository.svg"
   inkscape:version="0.92.5 (2060ec1f9f, 2020-04-08)">
  <defs
     id="defs8">
  <style
     id="current-color-scheme"
     type="text/css">
      .ColorScheme-Highlight {
        color:#5beedc;
      }
  </style>
  </defs>
  <path
     class="ColorScheme-Highlight"
     style="fill:#5beedc"
     d="M 1.323,0.794 0.265,3.44 h 5.82 V 0.794 Z m 5.292,0 V 3.44 h 5.82 L 11.377,0.794 Z m -6.35,3.175 v 6.35 c 0,1.172 0.944,2.116 2.116,2.116 h 7.938 a 2.112,2.112 0 0 0 2.116,-2.116 v -6.35 h -0.793 v 6.35 a 1.32,1.32 0 0 1 -1.323,1.323 H 2.38 A 1.32,1.32 0 0 1 1.057,10.319 V 3.969 Z M 3.44,4.233 2.646,5.821 h 3.44 V 4.233 Z m 3.175,0 v 1.588 h 3.44 L 9.26,4.233 Z M 2.645,6.35 v 3.44 c 0,0.586 0.473,1.058 1.06,1.058 h 5.29 c 0.587,0 1.06,-0.472 1.06,-1.058 V 6.35 H 9.26 v 3.175 c 0,0.293 -0.236,0.53 -0.529,0.53 H 3.97 A 0.528,0.528 0 0 1 3.44,9.525 V 6.35 H 2.647 Z"
     id="path2"
     inkscape:connector-curvature="0" />
</svg>
