<svg xmlns="http://www.w3.org/2000/svg" xmlns:xlink="http://www.w3.org/1999/xlink" id="svg280" width="232" height="232" version="1">
 <defs id="defs14">
  <linearGradient id="linearGradient4240" x1="148" x2="148" y1="144" y2="127" gradientTransform="matrix(3.1366901,0,0,3.1366901,-351.3668,-398.35968)" gradientUnits="userSpaceOnUse" xlink:href="#linearGradient958"/>
  <linearGradient id="linearGradient958">
   <stop style="stop-color:#000000;stop-opacity:0.341" id="stop3" offset="0"/>
   <stop style="stop-color:#000000;stop-opacity:0.23529412" id="stop5" offset=".206"/>
   <stop style="stop-color:#000000;stop-opacity:0.20392157" id="stop7" offset=".239"/>
   <stop style="stop-color:#000000;stop-opacity:0.16470588" id="stop9" offset=".283"/>
   <stop style="stop-color:#000000;stop-opacity:0.1372549" id="stop11" offset=".33"/>
   <stop style="stop-color:#000000;stop-opacity:0.10588235" id="stop13" offset=".378"/>
   <stop style="stop-color:#000000;stop-opacity:0.08627451" id="stop15" offset=".434"/>
   <stop style="stop-color:#000000;stop-opacity:0.07058824" id="stop17" offset=".465"/>
   <stop style="stop-color:#000000;stop-opacity:0.05490196" id="stop19" offset=".516"/>
   <stop style="stop-color:#000000;stop-opacity:0.03921569" id="stop21" offset=".555"/>
   <stop style="stop-color:#000000;stop-opacity:0.012" id="stop23" offset=".651"/>
   <stop style="stop-color:#000000;stop-opacity:0.00392157" id="stop25" offset=".789"/>
   <stop style="stop-color:#000000;stop-opacity:0" id="stop27" offset="1"/>
  </linearGradient>
  <radialGradient id="radialGradient4238" cx="129.71" cy="144.271" r="11" fx="129.71" fy="144.271" gradientTransform="matrix(0,-4.847548,6.2734936,0,-851.81574,682.09845)" gradientUnits="userSpaceOnUse" xlink:href="#linearGradient958"/>
  <linearGradient id="linearGradient4236" x1="129" x2="129" y1="133.355" y2="130.72" gradientTransform="matrix(3.1366901,0,0,-27.782112,-351.3668,3883.6703)" gradientUnits="userSpaceOnUse" xlink:href="#linearGradient958"/>
  <linearGradient id="linearGradient1105-6" x1="148" x2="148" y1="134.8" y2="129.667" gradientTransform="matrix(0,3.1366901,13.442957,0,-1758.8444,-351.30933)" gradientUnits="userSpaceOnUse" xlink:href="#linearGradient958"/>
  <radialGradient id="radialGradient4232" cx="129.71" cy="144.271" r="11" fx="129.71" fy="144.271" gradientTransform="matrix(0,6.6552747,6.2734915,0,-851.81545,-684.46374)" gradientUnits="userSpaceOnUse" xlink:href="#linearGradient958"/>
  <radialGradient id="radialGradient5631" cx="129.71" cy="144.271" r="11" fx="129.71" fy="144.271" gradientTransform="matrix(0,-4.847548,-6.2734936,0,1083.8158,682.09845)" gradientUnits="userSpaceOnUse" xlink:href="#linearGradient958"/>
  <linearGradient id="linearGradient4234" x1="148" x2="148" y1="134.8" y2="129.667" gradientTransform="matrix(0,3.1366901,-13.442957,0,1990.8444,-351.30933)" gradientUnits="userSpaceOnUse" xlink:href="#linearGradient958"/>
  <radialGradient id="radialGradient5627" cx="129.71" cy="144.271" r="11" fx="129.71" fy="144.271" gradientTransform="matrix(0,6.6552747,-6.2734915,0,1083.8155,-684.46374)" gradientUnits="userSpaceOnUse" xlink:href="#linearGradient958"/>
  <linearGradient id="linearGradient2317" x1="148" x2="148" y1="144" y2="127" gradientTransform="matrix(3.1366901,0,0,3.1366901,-351.3668,-398.35968)" gradientUnits="userSpaceOnUse" xlink:href="#linearGradient958"/>
  <radialGradient id="radialGradient2319" cx="129.71" cy="144.271" r="11" fx="129.71" fy="144.271" gradientTransform="matrix(0,-4.847548,6.2734936,0,-851.81574,682.09845)" gradientUnits="userSpaceOnUse" xlink:href="#linearGradient958"/>
  <linearGradient id="linearGradient2321" x1="129" x2="129" y1="133.355" y2="130.72" gradientTransform="matrix(3.1366901,0,0,-27.782112,-351.3668,3883.6703)" gradientUnits="userSpaceOnUse" xlink:href="#linearGradient958"/>
  <linearGradient id="linearGradient2323" x1="148" x2="148" y1="134.8" y2="129.667" gradientTransform="matrix(0,3.1366901,13.442957,0,-1758.8444,-351.30933)" gradientUnits="userSpaceOnUse" xlink:href="#linearGradient958"/>
  <radialGradient id="radialGradient2325" cx="129.71" cy="144.271" r="11" fx="129.71" fy="144.271" gradientTransform="matrix(0,6.6552747,6.2734915,0,-851.81545,-684.46374)" gradientUnits="userSpaceOnUse" xlink:href="#linearGradient958"/>
  <radialGradient id="radialGradient2327" cx="129.71" cy="144.271" r="11" fx="129.71" fy="144.271" gradientTransform="matrix(0,-4.847548,-6.2734936,0,1083.8158,682.09845)" gradientUnits="userSpaceOnUse" xlink:href="#linearGradient958"/>
  <linearGradient id="linearGradient2329" x1="148" x2="148" y1="134.8" y2="129.667" gradientTransform="matrix(0,3.1366901,-13.442957,0,1990.8444,-351.30933)" gradientUnits="userSpaceOnUse" xlink:href="#linearGradient958"/>
  <radialGradient id="radialGradient2331" cx="129.71" cy="144.271" r="11" fx="129.71" fy="144.271" gradientTransform="matrix(0,6.6552747,-6.2734915,0,1083.8155,-684.46374)" gradientUnits="userSpaceOnUse" xlink:href="#linearGradient958"/>
  <linearGradient id="linearGradient2377" x1="148" x2="148" y1="144" y2="127" gradientTransform="matrix(3.1366901,0,0,3.1366901,-351.3668,-398.35968)" gradientUnits="userSpaceOnUse" xlink:href="#linearGradient958"/>
  <radialGradient id="radialGradient2379" cx="129.71" cy="144.271" r="11" fx="129.71" fy="144.271" gradientTransform="matrix(0,-4.847548,6.2734936,0,-851.81574,682.09845)" gradientUnits="userSpaceOnUse" xlink:href="#linearGradient958"/>
  <linearGradient id="linearGradient2381" x1="129" x2="129" y1="133.355" y2="130.72" gradientTransform="matrix(3.1366901,0,0,-27.782112,-351.3668,3883.6703)" gradientUnits="userSpaceOnUse" xlink:href="#linearGradient958"/>
  <linearGradient id="linearGradient2383" x1="148" x2="148" y1="134.8" y2="129.667" gradientTransform="matrix(0,3.1366901,13.442957,0,-1758.8444,-351.30933)" gradientUnits="userSpaceOnUse" xlink:href="#linearGradient958"/>
  <radialGradient id="radialGradient2385" cx="129.71" cy="144.271" r="11" fx="129.71" fy="144.271" gradientTransform="matrix(0,6.6552747,6.2734915,0,-851.81545,-684.46374)" gradientUnits="userSpaceOnUse" xlink:href="#linearGradient958"/>
  <radialGradient id="radialGradient2387" cx="129.71" cy="144.271" r="11" fx="129.71" fy="144.271" gradientTransform="matrix(0,-4.847548,-6.2734936,0,1083.8158,682.09845)" gradientUnits="userSpaceOnUse" xlink:href="#linearGradient958"/>
  <linearGradient id="linearGradient2389" x1="148" x2="148" y1="134.8" y2="129.667" gradientTransform="matrix(0,3.1366901,-13.442957,0,1990.8444,-351.30933)" gradientUnits="userSpaceOnUse" xlink:href="#linearGradient958"/>
  <radialGradient id="radialGradient2391" cx="129.71" cy="144.271" r="11" fx="129.71" fy="144.271" gradientTransform="matrix(0,6.6552747,-6.2734915,0,1083.8155,-684.46374)" gradientUnits="userSpaceOnUse" xlink:href="#linearGradient958"/>
  <linearGradient id="linearGradient2393" x1="148" x2="148" y1="144" y2="127" gradientTransform="matrix(3.1366901,0,0,3.1366901,-351.3668,-398.35968)" gradientUnits="userSpaceOnUse" xlink:href="#linearGradient958"/>
  <radialGradient id="radialGradient2395" cx="129.71" cy="144.271" r="11" fx="129.71" fy="144.271" gradientTransform="matrix(0,-4.847548,6.2734936,0,-851.81574,682.09845)" gradientUnits="userSpaceOnUse" xlink:href="#linearGradient958"/>
  <linearGradient id="linearGradient2397" x1="129" x2="129" y1="133.355" y2="130.72" gradientTransform="matrix(3.1366901,0,0,-27.782112,-351.3668,3883.6703)" gradientUnits="userSpaceOnUse" xlink:href="#linearGradient958"/>
  <linearGradient id="linearGradient2399" x1="148" x2="148" y1="134.8" y2="129.667" gradientTransform="matrix(0,3.1366901,13.442957,0,-1758.8444,-351.30933)" gradientUnits="userSpaceOnUse" xlink:href="#linearGradient958"/>
  <radialGradient id="radialGradient2401" cx="129.71" cy="144.271" r="11" fx="129.71" fy="144.271" gradientTransform="matrix(0,6.6552747,6.2734915,0,-851.81545,-684.46374)" gradientUnits="userSpaceOnUse" xlink:href="#linearGradient958"/>
  <radialGradient id="radialGradient2403" cx="129.71" cy="144.271" r="11" fx="129.71" fy="144.271" gradientTransform="matrix(0,-4.847548,-6.2734936,0,1083.8158,682.09845)" gradientUnits="userSpaceOnUse" xlink:href="#linearGradient958"/>
  <linearGradient id="linearGradient2405" x1="148" x2="148" y1="134.8" y2="129.667" gradientTransform="matrix(0,3.1366901,-13.442957,0,1990.8444,-351.30933)" gradientUnits="userSpaceOnUse" xlink:href="#linearGradient958"/>
  <radialGradient id="radialGradient2407" cx="129.71" cy="144.271" r="11" fx="129.71" fy="144.271" gradientTransform="matrix(0,6.6552747,-6.2734915,0,1083.8155,-684.46374)" gradientUnits="userSpaceOnUse" xlink:href="#linearGradient958"/>
  <linearGradient id="linearGradient2453" x1="148" x2="148" y1="144" y2="127" gradientTransform="matrix(3.1366901,0,0,3.1366901,-351.3668,-398.35968)" gradientUnits="userSpaceOnUse" xlink:href="#linearGradient958"/>
  <radialGradient id="radialGradient2455" cx="129.71" cy="144.271" r="11" fx="129.71" fy="144.271" gradientTransform="matrix(0,-4.847548,6.2734936,0,-851.81574,682.09845)" gradientUnits="userSpaceOnUse" xlink:href="#linearGradient958"/>
  <linearGradient id="linearGradient2457" x1="129" x2="129" y1="133.355" y2="130.72" gradientTransform="matrix(3.1366901,0,0,-27.782112,-351.3668,3883.6703)" gradientUnits="userSpaceOnUse" xlink:href="#linearGradient958"/>
  <linearGradient id="linearGradient2459" x1="148" x2="148" y1="134.8" y2="129.667" gradientTransform="matrix(0,3.1366901,13.442957,0,-1758.8444,-351.30933)" gradientUnits="userSpaceOnUse" xlink:href="#linearGradient958"/>
  <radialGradient id="radialGradient2461" cx="129.71" cy="144.271" r="11" fx="129.71" fy="144.271" gradientTransform="matrix(0,6.6552747,6.2734915,0,-851.81545,-684.46374)" gradientUnits="userSpaceOnUse" xlink:href="#linearGradient958"/>
  <radialGradient id="radialGradient2463" cx="129.71" cy="144.271" r="11" fx="129.71" fy="144.271" gradientTransform="matrix(0,-4.847548,-6.2734936,0,1083.8158,682.09845)" gradientUnits="userSpaceOnUse" xlink:href="#linearGradient958"/>
  <linearGradient id="linearGradient2465" x1="148" x2="148" y1="134.8" y2="129.667" gradientTransform="matrix(0,3.1366901,-13.442957,0,1990.8444,-351.30933)" gradientUnits="userSpaceOnUse" xlink:href="#linearGradient958"/>
  <radialGradient id="radialGradient2467" cx="129.71" cy="144.271" r="11" fx="129.71" fy="144.271" gradientTransform="matrix(0,6.6552747,-6.2734915,0,1083.8155,-684.46374)" gradientUnits="userSpaceOnUse" xlink:href="#linearGradient958"/>
  <linearGradient id="linearGradient2469" x1="148" x2="148" y1="144" y2="127" gradientTransform="matrix(3.1366901,0,0,3.1366901,-351.3668,-398.35968)" gradientUnits="userSpaceOnUse" xlink:href="#linearGradient958"/>
  <radialGradient id="radialGradient2471" cx="129.71" cy="144.271" r="11" fx="129.71" fy="144.271" gradientTransform="matrix(0,-4.847548,6.2734936,0,-851.81574,682.09845)" gradientUnits="userSpaceOnUse" xlink:href="#linearGradient958"/>
  <linearGradient id="linearGradient2473" x1="129" x2="129" y1="133.355" y2="130.72" gradientTransform="matrix(3.1366901,0,0,-27.782112,-351.3668,3883.6703)" gradientUnits="userSpaceOnUse" xlink:href="#linearGradient958"/>
  <linearGradient id="linearGradient2475" x1="148" x2="148" y1="134.8" y2="129.667" gradientTransform="matrix(0,3.1366901,13.442957,0,-1758.8444,-351.30933)" gradientUnits="userSpaceOnUse" xlink:href="#linearGradient958"/>
  <radialGradient id="radialGradient2477" cx="129.71" cy="144.271" r="11" fx="129.71" fy="144.271" gradientTransform="matrix(0,6.6552747,6.2734915,0,-851.81545,-684.46374)" gradientUnits="userSpaceOnUse" xlink:href="#linearGradient958"/>
  <radialGradient id="radialGradient2479" cx="129.71" cy="144.271" r="11" fx="129.71" fy="144.271" gradientTransform="matrix(0,-4.847548,-6.2734936,0,1083.8158,682.09845)" gradientUnits="userSpaceOnUse" xlink:href="#linearGradient958"/>
  <linearGradient id="linearGradient2481" x1="148" x2="148" y1="134.8" y2="129.667" gradientTransform="matrix(0,3.1366901,-13.442957,0,1990.8444,-351.30933)" gradientUnits="userSpaceOnUse" xlink:href="#linearGradient958"/>
  <radialGradient id="radialGradient2483" cx="129.71" cy="144.271" r="11" fx="129.71" fy="144.271" gradientTransform="matrix(0,6.6552747,-6.2734915,0,1083.8155,-684.46374)" gradientUnits="userSpaceOnUse" xlink:href="#linearGradient958"/>
  <linearGradient id="linearGradient2529" x1="148" x2="148" y1="144" y2="127" gradientTransform="matrix(3.1366901,0,0,3.1366901,-351.3668,-398.35968)" gradientUnits="userSpaceOnUse" xlink:href="#linearGradient958"/>
  <radialGradient id="radialGradient2531" cx="129.71" cy="144.271" r="11" fx="129.71" fy="144.271" gradientTransform="matrix(0,-4.847548,6.2734936,0,-851.81574,682.09845)" gradientUnits="userSpaceOnUse" xlink:href="#linearGradient958"/>
  <linearGradient id="linearGradient2533" x1="129" x2="129" y1="133.355" y2="130.72" gradientTransform="matrix(3.1366901,0,0,-27.782112,-351.3668,3883.6703)" gradientUnits="userSpaceOnUse" xlink:href="#linearGradient958"/>
  <linearGradient id="linearGradient2535" x1="148" x2="148" y1="134.8" y2="129.667" gradientTransform="matrix(0,3.1366901,13.442957,0,-1758.8444,-351.30933)" gradientUnits="userSpaceOnUse" xlink:href="#linearGradient958"/>
  <radialGradient id="radialGradient2537" cx="129.71" cy="144.271" r="11" fx="129.71" fy="144.271" gradientTransform="matrix(0,6.6552747,6.2734915,0,-851.81545,-684.46374)" gradientUnits="userSpaceOnUse" xlink:href="#linearGradient958"/>
  <radialGradient id="radialGradient2539" cx="129.71" cy="144.271" r="11" fx="129.71" fy="144.271" gradientTransform="matrix(0,-4.847548,-6.2734936,0,1083.8158,682.09845)" gradientUnits="userSpaceOnUse" xlink:href="#linearGradient958"/>
  <linearGradient id="linearGradient2541" x1="148" x2="148" y1="134.8" y2="129.667" gradientTransform="matrix(0,3.1366901,-13.442957,0,1990.8444,-351.30933)" gradientUnits="userSpaceOnUse" xlink:href="#linearGradient958"/>
  <radialGradient id="radialGradient2543" cx="129.71" cy="144.271" r="11" fx="129.71" fy="144.271" gradientTransform="matrix(0,6.6552747,-6.2734915,0,1083.8155,-684.46374)" gradientUnits="userSpaceOnUse" xlink:href="#linearGradient958"/>
  <linearGradient id="linearGradient2545" x1="148" x2="148" y1="144" y2="127" gradientTransform="matrix(3.1366901,0,0,3.1366901,-351.3668,-398.35968)" gradientUnits="userSpaceOnUse" xlink:href="#linearGradient958"/>
  <radialGradient id="radialGradient2547" cx="129.71" cy="144.271" r="11" fx="129.71" fy="144.271" gradientTransform="matrix(0,-4.847548,6.2734936,0,-851.81574,682.09845)" gradientUnits="userSpaceOnUse" xlink:href="#linearGradient958"/>
  <linearGradient id="linearGradient2549" x1="129" x2="129" y1="133.355" y2="130.72" gradientTransform="matrix(3.1366901,0,0,-27.782112,-351.3668,3883.6703)" gradientUnits="userSpaceOnUse" xlink:href="#linearGradient958"/>
  <linearGradient id="linearGradient2551" x1="148" x2="148" y1="134.8" y2="129.667" gradientTransform="matrix(0,3.1366901,13.442957,0,-1758.8444,-351.30933)" gradientUnits="userSpaceOnUse" xlink:href="#linearGradient958"/>
  <radialGradient id="radialGradient2553" cx="129.71" cy="144.271" r="11" fx="129.71" fy="144.271" gradientTransform="matrix(0,6.6552747,6.2734915,0,-851.81545,-684.46374)" gradientUnits="userSpaceOnUse" xlink:href="#linearGradient958"/>
  <radialGradient id="radialGradient2555" cx="129.71" cy="144.271" r="11" fx="129.71" fy="144.271" gradientTransform="matrix(0,-4.847548,-6.2734936,0,1083.8158,682.09845)" gradientUnits="userSpaceOnUse" xlink:href="#linearGradient958"/>
  <linearGradient id="linearGradient2557" x1="148" x2="148" y1="134.8" y2="129.667" gradientTransform="matrix(0,3.1366901,-13.442957,0,1990.8444,-351.30933)" gradientUnits="userSpaceOnUse" xlink:href="#linearGradient958"/>
  <radialGradient id="radialGradient2559" cx="129.71" cy="144.271" r="11" fx="129.71" fy="144.271" gradientTransform="matrix(0,6.6552747,-6.2734915,0,1083.8155,-684.46374)" gradientUnits="userSpaceOnUse" xlink:href="#linearGradient958"/>
 </defs>
 <g id="orange-notes">
  <rect id="shadow-center" style="opacity:0.001" width="125.468" height="125.468" x="53.27" y="53.32"/>
  <path style="fill:url(#linearGradient4240)"  d="M 53.266194,-6.48e-5 V 15.683387 H 178.73381 V -6.48e-5 Z"/>
  <path  style="fill:url(#radialGradient4238)" d="M 0 0 L 0 53.324219 L 15.625 53.324219 C 15.625 52.674595 15.643321 52.030235 15.675781 51.388672 C 16.683979 31.50069 33.1271 15.683594 53.265625 15.683594 L 53.265625 0 L 0 0 z"/>
  <path  style="fill:url(#linearGradient4236)" d="M 53.265625 216.43164 L 53.265625 232 L 178.73438 232 L 178.73438 216.43164 L 53.265625 216.43164 z"/>
  <path  style="fill:url(#linearGradient1105-6)" d="M 0 53.324219 L 0 178.79102 L 15.625 178.79102 L 15.625 53.324219 L 0 53.324219 z"/>
  <path  style="fill:url(#radialGradient4232)" d="M 0 178.79102 L 0 232 L 53.265625 232 L 53.265625 216.43164 C 32.477476 216.43164 15.625 199.57917 15.625 178.79102 L 0 178.79102 z"/>
  <path  style="fill:url(#radialGradient5631)" d="M 178.73438 0 L 178.73438 15.683594 C 198.87289 15.683594 215.31609 31.50069 216.32422 51.388672 C 216.35672 52.030235 216.37305 52.674595 216.37305 53.324219 L 232 53.324219 L 232 0 L 178.73438 0 z"/>
  <path  style="fill:url(#linearGradient4234)" d="M 216.375 53.324219 L 216.375 178.79102 L 232 178.79102 L 232 53.324219 L 216.375 53.324219 z"/>
  <path  style="fill:url(#radialGradient5627)" d="M 216.375 178.79102 C 216.375 199.57917 199.52251 216.43164 178.73438 216.43164 L 178.73438 232 L 232 232 L 232 178.79102 L 216.375 178.79102 z"/>
  <path id="center" style="fill:#ffa829" d="M 42.040909,10.000001 C 20.087596,10.000001 10,20.087598 10,42.040909 V 189.95909 C 10,211.91241 20.087596,222 42.040909,222 H 189.95909 C 211.9124,222 222,211.91241 222,189.95909 V 42.040909 C 222,20.087597 211.9124,10 189.95909,10 Z"/>
 </g>
 <g id="white-notes" transform="translate(232)">
  <rect  style="opacity:0.001" width="125.468" height="125.468" x="53.27" y="53.32"/>
  <path style="fill:url(#linearGradient2317)"  d="M 53.266194,-6.48e-5 V 15.683387 H 178.73381 V -6.48e-5 Z"/>
  <path  style="fill:url(#radialGradient2319)" d="m 0,0 v 53.324219 h 15.625 c 0,-0.649624 0.01832,-1.293984 0.05078,-1.935547 C 16.683979,31.50069 33.1271,15.683594 53.265625,15.683594 V 0 Z"/>
  <path  style="fill:url(#linearGradient2321)" d="M 53.265625,216.43164 V 232 H 178.73438 v -15.56836 z"/>
  <path  style="fill:url(#linearGradient2323)" d="M 0,53.324219 V 178.79102 H 15.625 V 53.324219 Z"/>
  <path  style="fill:url(#radialGradient2325)" d="M 0,178.79102 V 232 H 53.265625 V 216.43164 C 32.477476,216.43164 15.625,199.57917 15.625,178.79102 Z"/>
  <path  style="fill:url(#radialGradient2327)" d="m 178.73438,0 v 15.683594 c 20.13851,0 36.58171,15.817096 37.58984,35.705078 0.0325,0.641563 0.0488,1.285923 0.0488,1.935547 H 232 V 0 Z"/>
  <path  style="fill:url(#linearGradient2329)" d="M 216.375,53.324219 V 178.79102 H 232 V 53.324219 Z"/>
  <path  style="fill:url(#radialGradient2331)" d="m 216.375,178.79102 c 0,20.78815 -16.85249,37.64062 -37.64062,37.64062 V 232 H 232 v -53.20898 z"/>
  <path  style="fill:#fefefe" d="M 42.040909,10.000001 C 20.087596,10.000001 10,20.087598 10,42.040909 V 189.95909 C 10,211.91241 20.087596,222 42.040909,222 H 189.95909 C 211.9124,222 222,211.91241 222,189.95909 V 42.040909 C 222,20.087597 211.9124,10 189.95909,10 Z"/>
 </g>
 <g id="green-notes" transform="translate(464)">
  <rect  style="opacity:0.001" width="125.468" height="125.468" x="53.27" y="53.32"/>
  <path style="fill:url(#linearGradient2393)"  d="M 53.266194,-6.48e-5 V 15.683387 H 178.73381 V -6.48e-5 Z"/>
  <path  style="fill:url(#radialGradient2395)" d="m 0,0 v 53.324219 h 15.625 c 0,-0.649624 0.01832,-1.293984 0.05078,-1.935547 C 16.683979,31.50069 33.1271,15.683594 53.265625,15.683594 V 0 Z"/>
  <path  style="fill:url(#linearGradient2397)" d="M 53.265625,216.43164 V 232 H 178.73438 v -15.56836 z"/>
  <path  style="fill:url(#linearGradient2399)" d="M 0,53.324219 V 178.79102 H 15.625 V 53.324219 Z"/>
  <path  style="fill:url(#radialGradient2401)" d="M 0,178.79102 V 232 H 53.265625 V 216.43164 C 32.477476,216.43164 15.625,199.57917 15.625,178.79102 Z"/>
  <path  style="fill:url(#radialGradient2403)" d="m 178.73438,0 v 15.683594 c 20.13851,0 36.58171,15.817096 37.58984,35.705078 0.0325,0.641563 0.0488,1.285923 0.0488,1.935547 H 232 V 0 Z"/>
  <path  style="fill:url(#linearGradient2405)" d="M 216.375,53.324219 V 178.79102 H 232 V 53.324219 Z"/>
  <path  style="fill:url(#radialGradient2407)" d="m 216.375,178.79102 c 0,20.78815 -16.85249,37.64062 -37.64062,37.64062 V 232 H 232 v -53.20898 z"/>
  <path  style="fill:#4caf50" d="M 42.040909,10.000001 C 20.087596,10.000001 10,20.087598 10,42.040909 V 189.95909 C 10,211.91241 20.087596,222 42.040909,222 H 189.95909 C 211.9124,222 222,211.91241 222,189.95909 V 42.040909 C 222,20.087597 211.9124,10 189.95909,10 Z"/>
 </g>
 <g id="blue-notes" transform="translate(696)">
  <rect  style="opacity:0.001" width="125.468" height="125.468" x="53.27" y="53.32"/>
  <path style="fill:url(#linearGradient2377)"  d="M 53.266194,-6.48e-5 V 15.683387 H 178.73381 V -6.48e-5 Z"/>
  <path  style="fill:url(#radialGradient2379)" d="m 0,0 v 53.324219 h 15.625 c 0,-0.649624 0.01832,-1.293984 0.05078,-1.935547 C 16.683979,31.50069 33.1271,15.683594 53.265625,15.683594 V 0 Z"/>
  <path  style="fill:url(#linearGradient2381)" d="M 53.265625,216.43164 V 232 H 178.73438 v -15.56836 z"/>
  <path  style="fill:url(#linearGradient2383)" d="M 0,53.324219 V 178.79102 H 15.625 V 53.324219 Z"/>
  <path  style="fill:url(#radialGradient2385)" d="M 0,178.79102 V 232 H 53.265625 V 216.43164 C 32.477476,216.43164 15.625,199.57917 15.625,178.79102 Z"/>
  <path  style="fill:url(#radialGradient2387)" d="m 178.73438,0 v 15.683594 c 20.13851,0 36.58171,15.817096 37.58984,35.705078 0.0325,0.641563 0.0488,1.285923 0.0488,1.935547 H 232 V 0 Z"/>
  <path  style="fill:url(#linearGradient2389)" d="M 216.375,53.324219 V 178.79102 H 232 V 53.324219 Z"/>
  <path  style="fill:url(#radialGradient2391)" d="m 216.375,178.79102 c 0,20.78815 -16.85249,37.64062 -37.64062,37.64062 V 232 H 232 v -53.20898 z"/>
  <path  style="fill:#2196f3" d="M 42.040909,10.000001 C 20.087596,10.000001 10,20.087598 10,42.040909 V 189.95909 C 10,211.91241 20.087596,222 42.040909,222 H 189.95909 C 211.9124,222 222,211.91241 222,189.95909 V 42.040909 C 222,20.087597 211.9124,10 189.95909,10 Z"/>
 </g>
 <g id="black-notes" transform="translate(928)">
  <rect  style="opacity:0.001" width="125.468" height="125.468" x="53.27" y="53.32"/>
  <path style="fill:url(#linearGradient2469)"  d="M 53.266194,-6.48e-5 V 15.683387 H 178.73381 V -6.48e-5 Z"/>
  <path  style="fill:url(#radialGradient2471)" d="m 0,0 v 53.324219 h 15.625 c 0,-0.649624 0.01832,-1.293984 0.05078,-1.935547 C 16.683979,31.50069 33.1271,15.683594 53.265625,15.683594 V 0 Z"/>
  <path  style="fill:url(#linearGradient2473)" d="M 53.265625,216.43164 V 232 H 178.73438 v -15.56836 z"/>
  <path  style="fill:url(#linearGradient2475)" d="M 0,53.324219 V 178.79102 H 15.625 V 53.324219 Z"/>
  <path  style="fill:url(#radialGradient2477)" d="M 0,178.79102 V 232 H 53.265625 V 216.43164 C 32.477476,216.43164 15.625,199.57917 15.625,178.79102 Z"/>
  <path  style="fill:url(#radialGradient2479)" d="m 178.73438,0 v 15.683594 c 20.13851,0 36.58171,15.817096 37.58984,35.705078 0.0325,0.641563 0.0488,1.285923 0.0488,1.935547 H 232 V 0 Z"/>
  <path  style="fill:url(#linearGradient2481)" d="M 216.375,53.324219 V 178.79102 H 232 V 53.324219 Z"/>
  <path  style="fill:url(#radialGradient2483)" d="m 216.375,178.79102 c 0,20.78815 -16.85249,37.64062 -37.64062,37.64062 V 232 H 232 v -53.20898 z"/>
  <path  style="fill:#343434" d="M 42.040909,10.000001 C 20.087596,10.000001 10,20.087598 10,42.040909 V 189.95909 C 10,211.91241 20.087596,222 42.040909,222 H 189.95909 C 211.9124,222 222,211.91241 222,189.95909 V 42.040909 C 222,20.087597 211.9124,10 189.95909,10 Z"/>
 </g>
 <g id="red-notes" transform="translate(1160)">
  <rect  style="opacity:0.001" width="125.468" height="125.468" x="53.27" y="53.32"/>
  <path style="fill:url(#linearGradient2453)"  d="M 53.266194,-6.48e-5 V 15.683387 H 178.73381 V -6.48e-5 Z"/>
  <path  style="fill:url(#radialGradient2455)" d="m 0,0 v 53.324219 h 15.625 c 0,-0.649624 0.01832,-1.293984 0.05078,-1.935547 C 16.683979,31.50069 33.1271,15.683594 53.265625,15.683594 V 0 Z"/>
  <path  style="fill:url(#linearGradient2457)" d="M 53.265625,216.43164 V 232 H 178.73438 v -15.56836 z"/>
  <path  style="fill:url(#linearGradient2459)" d="M 0,53.324219 V 178.79102 H 15.625 V 53.324219 Z"/>
  <path  style="fill:url(#radialGradient2461)" d="M 0,178.79102 V 232 H 53.265625 V 216.43164 C 32.477476,216.43164 15.625,199.57917 15.625,178.79102 Z"/>
  <path  style="fill:url(#radialGradient2463)" d="m 178.73438,0 v 15.683594 c 20.13851,0 36.58171,15.817096 37.58984,35.705078 0.0325,0.641563 0.0488,1.285923 0.0488,1.935547 H 232 V 0 Z"/>
  <path  style="fill:url(#linearGradient2465)" d="M 216.375,53.324219 V 178.79102 H 232 V 53.324219 Z"/>
  <path  style="fill:url(#radialGradient2467)" d="m 216.375,178.79102 c 0,20.78815 -16.85249,37.64062 -37.64062,37.64062 V 232 H 232 v -53.20898 z"/>
  <path  style="fill:#f44336" d="M 42.040909,10.000001 C 20.087596,10.000001 10,20.087598 10,42.040909 V 189.95909 C 10,211.91241 20.087596,222 42.040909,222 H 189.95909 C 211.9124,222 222,211.91241 222,189.95909 V 42.040909 C 222,20.087597 211.9124,10 189.95909,10 Z"/>
 </g>
 <g id="pink-notes" transform="translate(1392)">
  <rect  style="opacity:0.001" width="125.468" height="125.468" x="53.27" y="53.32"/>
  <path style="fill:url(#linearGradient2545)"  d="M 53.266194,-6.48e-5 V 15.683387 H 178.73381 V -6.48e-5 Z"/>
  <path  style="fill:url(#radialGradient2547)" d="m 0,0 v 53.324219 h 15.625 c 0,-0.649624 0.01832,-1.293984 0.05078,-1.935547 C 16.683979,31.50069 33.1271,15.683594 53.265625,15.683594 V 0 Z"/>
  <path  style="fill:url(#linearGradient2549)" d="M 53.265625,216.43164 V 232 H 178.73438 v -15.56836 z"/>
  <path  style="fill:url(#linearGradient2551)" d="M 0,53.324219 V 178.79102 H 15.625 V 53.324219 Z"/>
  <path  style="fill:url(#radialGradient2553)" d="M 0,178.79102 V 232 H 53.265625 V 216.43164 C 32.477476,216.43164 15.625,199.57917 15.625,178.79102 Z"/>
  <path  style="fill:url(#radialGradient2555)" d="m 178.73438,0 v 15.683594 c 20.13851,0 36.58171,15.817096 37.58984,35.705078 0.0325,0.641563 0.0488,1.285923 0.0488,1.935547 H 232 V 0 Z"/>
  <path  style="fill:url(#linearGradient2557)" d="M 216.375,53.324219 V 178.79102 H 232 V 53.324219 Z"/>
  <path  style="fill:url(#radialGradient2559)" d="m 216.375,178.79102 c 0,20.78815 -16.85249,37.64062 -37.64062,37.64062 V 232 H 232 v -53.20898 z"/>
  <path  style="fill:#ed2698" d="M 42.040909,10.000001 C 20.087596,10.000001 10,20.087598 10,42.040909 V 189.95909 C 10,211.91241 20.087596,222 42.040909,222 H 189.95909 C 211.9124,222 222,211.91241 222,189.95909 V 42.040909 C 222,20.087597 211.9124,10 189.95909,10 Z"/>
 </g>
 <g id="yellow-notes" transform="translate(1624)">
  <rect  style="opacity:0.001" width="125.468" height="125.468" x="53.27" y="53.32"/>
  <path style="fill:url(#linearGradient2529)"  d="M 53.266194,-6.48e-5 V 15.683387 H 178.73381 V -6.48e-5 Z"/>
  <path  style="fill:url(#radialGradient2531)" d="m 0,0 v 53.324219 h 15.625 c 0,-0.649624 0.01832,-1.293984 0.05078,-1.935547 C 16.683979,31.50069 33.1271,15.683594 53.265625,15.683594 V 0 Z"/>
  <path  style="fill:url(#linearGradient2533)" d="M 53.265625,216.43164 V 232 H 178.73438 v -15.56836 z"/>
  <path  style="fill:url(#linearGradient2535)" d="M 0,53.324219 V 178.79102 H 15.625 V 53.324219 Z"/>
  <path  style="fill:url(#radialGradient2537)" d="M 0,178.79102 V 232 H 53.265625 V 216.43164 C 32.477476,216.43164 15.625,199.57917 15.625,178.79102 Z"/>
  <path  style="fill:url(#radialGradient2539)" d="m 178.73438,0 v 15.683594 c 20.13851,0 36.58171,15.817096 37.58984,35.705078 0.0325,0.641563 0.0488,1.285923 0.0488,1.935547 H 232 V 0 Z"/>
  <path  style="fill:url(#linearGradient2541)" d="M 216.375,53.324219 V 178.79102 H 232 V 53.324219 Z"/>
  <path  style="fill:url(#radialGradient2543)" d="m 216.375,178.79102 c 0,20.78815 -16.85249,37.64062 -37.64062,37.64062 V 232 H 232 v -53.20898 z"/>
  <path  style="fill:#ffde29" d="M 42.040909,10.000001 C 20.087596,10.000001 10,20.087598 10,42.040909 V 189.95909 C 10,211.91241 20.087596,222 42.040909,222 H 189.95909 C 211.9124,222 222,211.91241 222,189.95909 V 42.040909 C 222,20.087597 211.9124,10 189.95909,10 Z"/>
 </g>
</svg>
